<?xml version="1.0" encoding="utf-8" standalone="no"?>
<!DOCTYPE svg PUBLIC "-//W3C//DTD SVG 1.1//EN"
  "http://www.w3.org/Graphics/SVG/1.1/DTD/svg11.dtd">
<svg xmlns:xlink="http://www.w3.org/1999/xlink" width="423.327837pt" height="279.034375pt" viewBox="0 0 423.327837 279.034375" xmlns="http://www.w3.org/2000/svg" version="1.1">
 <metadata>
  <rdf:RDF xmlns:dc="http://purl.org/dc/elements/1.1/" xmlns:cc="http://creativecommons.org/ns#" xmlns:rdf="http://www.w3.org/1999/02/22-rdf-syntax-ns#">
   <cc:Work>
    <dc:type rdf:resource="http://purl.org/dc/dcmitype/StillImage"/>
    <dc:date>2026-05-25T00:50:13.820339</dc:date>
    <dc:format>image/svg+xml</dc:format>
    <dc:creator>
     <cc:Agent>
      <dc:title>Matplotlib v3.10.9, https://matplotlib.org/</dc:title>
     </cc:Agent>
    </dc:creator>
   </cc:Work>
  </rdf:RDF>
 </metadata>
 <defs>
  <style type="text/css">*{stroke-linejoin: round; stroke-linecap: butt}</style>
 </defs>
 <g id="figure_1">
  <g id="patch_1">
   <path d="M 0 279.034375 
L 423.327837 279.034375 
L 423.327837 0 
L 0 0 
z
" style="fill: #ffffff"/>
  </g>
  <g id="axes_1">
   <g id="patch_2">
    <path d="M 59.825938 241.478125 
L 391.662171 241.478125 
L 391.662171 22.318125 
L 59.825938 22.318125 
z
" style="fill: #ffffff"/>
   </g>
   <g id="FillBetweenPolyCollection_1">
    <defs>
     <path id="mf115d5c2e6" d="M 59.825938 -246.754432 
L 59.825938 -239.30046 
L 66.086999 -235.664866 
L 72.34806 -226.815465 
L 78.609121 -219.839055 
L 84.870182 -212.899972 
L 91.131243 -208.855881 
L 97.392304 -208.340947 
L 103.653365 -200.067743 
L 109.914426 -197.122561 
L 116.175487 -190.157508 
L 122.436548 -185.765995 
L 128.697609 -181.887415 
L 134.95867 -170.0361 
L 141.219731 -176.362696 
L 147.480792 -171.60739 
L 153.741853 -168.590092 
L 160.002914 -155.439274 
L 166.263975 -151.931041 
L 172.525036 -153.972332 
L 178.786097 -152.849029 
L 185.047158 -155.252539 
L 191.308219 -150.055936 
L 197.56928 -150.713663 
L 203.830341 -142.559817 
L 210.091402 -145.664852 
L 216.352463 -145.664852 
L 222.613524 -138.842971 
L 228.874585 -148.031378 
L 235.135646 -142.833845 
L 241.396707 -143.641204 
L 247.657768 -134.345332 
L 253.918829 -132.81677 
L 260.17989 -133.955145 
L 266.440951 -132.44818 
L 272.702012 -136.926002 
L 278.963073 -133.955145 
L 285.224134 -129.311881 
L 291.485195 -124.686437 
L 297.746256 -128.452566 
L 304.007317 -135.821677 
L 310.268378 -124.579395 
L 316.529439 -128.765593 
L 322.7905 -129.428693 
L 329.051561 -118.603586 
L 335.312622 -128.086571 
L 341.573683 -133.866902 
L 347.834744 -115.9524 
L 354.095805 -123.545335 
L 360.356866 -124.217584 
L 366.617927 -122.314342 
L 366.617927 -133.576611 
L 366.617927 -133.576611 
L 360.356866 -139.342896 
L 354.095805 -138.365937 
L 347.834744 -128.765593 
L 341.573683 -145.594701 
L 335.312622 -139.586181 
L 329.051561 -133.77861 
L 322.7905 -143.41604 
L 316.529439 -143.119274 
L 310.268378 -137.666094 
L 304.007317 -147.57018 
L 297.746256 -138.952848 
L 291.485195 -139.330722 
L 285.224134 -141.254562 
L 278.963073 -144.90319 
L 272.702012 -147.119193 
L 266.440951 -145.945141 
L 260.17989 -144.00788 
L 253.918829 -143.202425 
L 247.657768 -144.891443 
L 241.396707 -154.878395 
L 235.135646 -152.189072 
L 228.874585 -159.865675 
L 222.613524 -150.078663 
L 216.352463 -155.998139 
L 210.091402 -158.321551 
L 203.830341 -156.227678 
L 197.56928 -162.248117 
L 191.308219 -161.869368 
L 185.047158 -164.055471 
L 178.786097 -164.314922 
L 172.525036 -164.573942 
L 166.263975 -164.625694 
L 160.002914 -167.435732 
L 153.741853 -178.194527 
L 147.480792 -181.497902 
L 141.219731 -186.018758 
L 134.95867 -180.454413 
L 128.697609 -190.236538 
L 122.436548 -195.823722 
L 116.175487 -198.951143 
L 109.914426 -206.145166 
L 103.653365 -208.629832 
L 97.392304 -214.590777 
L 91.131243 -216.426725 
L 84.870182 -219.293713 
L 78.609121 -227.639187 
L 72.34806 -233.392815 
L 66.086999 -241.128059 
L 59.825938 -246.754432 
z
" style="stroke: #4878cf; stroke-opacity: 0.18"/>
    </defs>
    <g clip-path="url(#p75dd403a65)">
     <use xlink:href="#mf115d5c2e6" x="0" y="279.034375" style="fill: #4878cf; fill-opacity: 0.18; stroke: #4878cf; stroke-opacity: 0.18"/>
    </g>
   </g>
   <g id="FillBetweenPolyCollection_2">
    <defs>
     <path id="mc0567c18bb" d="M 59.825938 -240.963374 
L 59.825938 -234.941938 
L 66.086999 -228.705607 
L 72.34806 -220.259479 
L 78.609121 -213.913641 
L 84.870182 -203.289568 
L 91.131243 -197.701011 
L 97.392304 -194.257519 
L 103.653365 -186.325133 
L 109.914426 -176.860949 
L 116.175487 -175.535145 
L 122.436548 -171.933577 
L 128.697609 -161.278365 
L 134.95867 -154.171676 
L 141.219731 -153.350512 
L 147.480792 -149.338345 
L 153.741853 -143.202425 
L 160.002914 -145.863442 
L 166.263975 -132.664356 
L 172.525036 -138.830757 
L 178.786097 -126.150847 
L 185.047158 -123.343093 
L 191.308219 -125.646516 
L 197.56928 -125.28718 
L 203.830341 -121.838279 
L 210.091402 -117.318701 
L 216.352463 -114.459772 
L 222.613524 -113.916036 
L 228.874585 -112.981536 
L 235.135646 -108.371592 
L 241.396707 -109.68798 
L 247.657768 -109.466895 
L 253.918829 -104.734868 
L 260.17989 -106.924083 
L 266.440951 -103.483063 
L 272.702012 -108.133752 
L 278.963073 -100.948843 
L 285.224134 -94.799895 
L 291.485195 -93.954855 
L 297.746256 -94.961878 
L 304.007317 -100.527639 
L 310.268378 -94.247888 
L 316.529439 -97.068434 
L 322.7905 -103.375734 
L 329.051561 -81.032574 
L 335.312622 -86.529275 
L 341.573683 -91.987075 
L 347.834744 -92.514253 
L 354.095805 -92.497806 
L 360.356866 -88.178345 
L 366.617927 -92.760755 
L 366.617927 -107.178745 
L 366.617927 -107.178745 
L 360.356866 -102.112907 
L 354.095805 -105.008313 
L 347.834744 -107.193712 
L 341.573683 -107.073935 
L 335.312622 -100.418252 
L 329.051561 -92.662201 
L 322.7905 -113.442299 
L 316.529439 -107.716658 
L 310.268378 -105.05384 
L 304.007317 -111.765505 
L 297.746256 -110.099833 
L 291.485195 -109.393131 
L 285.224134 -109.835196 
L 278.963073 -112.620614 
L 272.702012 -122.096893 
L 266.440951 -116.390358 
L 260.17989 -117.136283 
L 253.918829 -115.200767 
L 247.657768 -118.24154 
L 241.396707 -118.450515 
L 235.135646 -119.020287 
L 228.874585 -124.217584 
L 222.613524 -123.504907 
L 216.352463 -126.759176 
L 210.091402 -129.817437 
L 203.830341 -133.917333 
L 197.56928 -137.35815 
L 191.308219 -138.329182 
L 185.047158 -135.33528 
L 178.786097 -135.035201 
L 172.525036 -147.523985 
L 166.263975 -143.842392 
L 160.002914 -155.087586 
L 153.741853 -153.628417 
L 147.480792 -156.761957 
L 141.219731 -161.43689 
L 134.95867 -161.774537 
L 128.697609 -170.29576 
L 122.436548 -181.00498 
L 116.175487 -184.823552 
L 109.914426 -184.441327 
L 103.653365 -191.721825 
L 97.392304 -201.102725 
L 91.131243 -203.111868 
L 84.870182 -209.710335 
L 78.609121 -221.132933 
L 72.34806 -224.613749 
L 66.086999 -233.19309 
L 59.825938 -240.963374 
z
" style="stroke: #6acc65; stroke-opacity: 0.18"/>
    </defs>
    <g clip-path="url(#p75dd403a65)">
     <use xlink:href="#mc0567c18bb" x="0" y="279.034375" style="fill: #6acc65; fill-opacity: 0.18; stroke: #6acc65; stroke-opacity: 0.18"/>
    </g>
   </g>
   <g id="FillBetweenPolyCollection_3">
    <defs>
     <path id="m7464fecdab" d="M 59.825938 -242.175425 
L 59.825938 -237.386315 
L 66.086999 -227.639187 
L 72.34806 -220.772596 
L 78.609121 -207.64386 
L 84.870182 -201.315439 
L 91.131243 -190.902301 
L 97.392304 -188.648278 
L 103.653365 -182.700389 
L 109.914426 -169.50545 
L 116.175487 -169.755982 
L 122.436548 -161.310083 
L 128.697609 -151.638837 
L 134.95867 -139.695535 
L 141.219731 -145.746655 
L 147.480792 -134.922523 
L 153.741853 -127.351988 
L 160.002914 -127.772174 
L 166.263975 -122.355079 
L 172.525036 -123.154096 
L 178.786097 -108.297306 
L 185.047158 -112.793961 
L 191.308219 -111.343468 
L 197.56928 -107.7614 
L 203.830341 -96.524428 
L 210.091402 -90.277996 
L 216.352463 -97.19616 
L 222.613524 -89.709689 
L 228.874585 -87.534398 
L 235.135646 -91.755872 
L 241.396707 -80.464968 
L 247.657768 -67.713064 
L 253.918829 -76.231969 
L 260.17989 -66.259773 
L 266.440951 -78.299803 
L 272.702012 -74.69053 
L 278.963073 -67.520074 
L 285.224134 -69.439291 
L 291.485195 -74.893255 
L 297.746256 -68.674441 
L 304.007317 -73.635792 
L 310.268378 -65.008811 
L 316.529439 -72.480361 
L 322.7905 -74.265793 
L 329.051561 -73.301227 
L 335.312622 -60.408108 
L 341.573683 -68.425054 
L 347.834744 -51.571132 
L 354.095805 -54.138566 
L 360.356866 -47.518068 
L 366.617927 -65.518228 
L 366.617927 -81.668666 
L 366.617927 -81.668666 
L 360.356866 -64.871375 
L 354.095805 -70.124457 
L 347.834744 -64.340126 
L 341.573683 -80.819964 
L 335.312622 -72.499065 
L 329.051561 -86.35827 
L 322.7905 -85.603609 
L 316.529439 -84.048494 
L 310.268378 -80.890866 
L 304.007317 -89.206513 
L 297.746256 -82.740591 
L 291.485195 -86.904826 
L 285.224134 -85.41437 
L 278.963073 -83.334869 
L 272.702012 -88.954314 
L 266.440951 -93.432541 
L 260.17989 -80.10916 
L 253.918829 -89.52538 
L 247.657768 -81.297928 
L 241.396707 -94.199088 
L 235.135646 -103.743412 
L 228.874585 -99.807398 
L 222.613524 -102.313796 
L 216.352463 -108.460688 
L 210.091402 -104.217048 
L 203.830341 -109.260266 
L 197.56928 -118.812076 
L 191.308219 -121.933608 
L 185.047158 -124.36509 
L 178.786097 -118.143922 
L 172.525036 -132.002164 
L 166.263975 -132.44818 
L 160.002914 -135.84658 
L 153.741853 -137.97343 
L 147.480792 -144.232191 
L 141.219731 -154.337601 
L 134.95867 -147.950767 
L 128.697609 -160.025644 
L 122.436548 -169.725939 
L 116.175487 -177.013938 
L 109.914426 -175.910975 
L 103.653365 -190.254094 
L 97.392304 -193.897796 
L 91.131243 -196.51666 
L 84.870182 -207.187892 
L 78.609121 -212.329726 
L 72.34806 -226.147759 
L 66.086999 -232.799549 
L 59.825938 -242.175425 
z
" style="stroke: #d65f5f; stroke-opacity: 0.18"/>
    </defs>
    <g clip-path="url(#p75dd403a65)">
     <use xlink:href="#m7464fecdab" x="0" y="279.034375" style="fill: #d65f5f; fill-opacity: 0.18; stroke: #d65f5f; stroke-opacity: 0.18"/>
    </g>
   </g>
   <g id="matplotlib.axis_1">
    <g id="xtick_1">
     <g id="line2d_1">
      <defs>
       <path id="mfee3de41c5" d="M 0 0 
L 0 3.5 
" style="stroke: #000000; stroke-width: 0.8"/>
      </defs>
      <g>
       <use xlink:href="#mfee3de41c5" x="59.825938" y="241.478125" style="stroke: #000000; stroke-width: 0.8"/>
      </g>
     </g>
     <g id="text_1">
      <!-- 0 -->
      <g transform="translate(56.962813 255.316719) scale(0.09 -0.09)">
       <defs>
        <path id="DejaVuSans-30" d="M 2034 4250 
Q 1547 4250 1301 3770 
Q 1056 3291 1056 2328 
Q 1056 1369 1301 889 
Q 1547 409 2034 409 
Q 2525 409 2770 889 
Q 3016 1369 3016 2328 
Q 3016 3291 2770 3770 
Q 2525 4250 2034 4250 
z
M 2034 4750 
Q 2819 4750 3233 4129 
Q 3647 3509 3647 2328 
Q 3647 1150 3233 529 
Q 2819 -91 2034 -91 
Q 1250 -91 836 529 
Q 422 1150 422 2328 
Q 422 3509 836 4129 
Q 1250 4750 2034 4750 
z
" transform="scale(0.015625)"/>
       </defs>
       <use xlink:href="#DejaVuSans-30"/>
      </g>
     </g>
    </g>
    <g id="xtick_2">
     <g id="line2d_2">
      <g>
       <use xlink:href="#mfee3de41c5" x="122.436548" y="241.478125" style="stroke: #000000; stroke-width: 0.8"/>
      </g>
     </g>
     <g id="text_2">
      <!-- 10 -->
      <g transform="translate(116.710298 255.316719) scale(0.09 -0.09)">
       <defs>
        <path id="DejaVuSans-31" d="M 794 531 
L 1825 531 
L 1825 4091 
L 703 3866 
L 703 4441 
L 1819 4666 
L 2450 4666 
L 2450 531 
L 3481 531 
L 3481 0 
L 794 0 
L 794 531 
z
" transform="scale(0.015625)"/>
       </defs>
       <use xlink:href="#DejaVuSans-31"/>
       <use xlink:href="#DejaVuSans-30" transform="translate(63.623047 0)"/>
      </g>
     </g>
    </g>
    <g id="xtick_3">
     <g id="line2d_3">
      <g>
       <use xlink:href="#mfee3de41c5" x="185.047158" y="241.478125" style="stroke: #000000; stroke-width: 0.8"/>
      </g>
     </g>
     <g id="text_3">
      <!-- 20 -->
      <g transform="translate(179.320908 255.316719) scale(0.09 -0.09)">
       <defs>
        <path id="DejaVuSans-32" d="M 1228 531 
L 3431 531 
L 3431 0 
L 469 0 
L 469 531 
Q 828 903 1448 1529 
Q 2069 2156 2228 2338 
Q 2531 2678 2651 2914 
Q 2772 3150 2772 3378 
Q 2772 3750 2511 3984 
Q 2250 4219 1831 4219 
Q 1534 4219 1204 4116 
Q 875 4013 500 3803 
L 500 4441 
Q 881 4594 1212 4672 
Q 1544 4750 1819 4750 
Q 2544 4750 2975 4387 
Q 3406 4025 3406 3419 
Q 3406 3131 3298 2873 
Q 3191 2616 2906 2266 
Q 2828 2175 2409 1742 
Q 1991 1309 1228 531 
z
" transform="scale(0.015625)"/>
       </defs>
       <use xlink:href="#DejaVuSans-32"/>
       <use xlink:href="#DejaVuSans-30" transform="translate(63.623047 0)"/>
      </g>
     </g>
    </g>
    <g id="xtick_4">
     <g id="line2d_4">
      <g>
       <use xlink:href="#mfee3de41c5" x="247.657768" y="241.478125" style="stroke: #000000; stroke-width: 0.8"/>
      </g>
     </g>
     <g id="text_4">
      <!-- 30 -->
      <g transform="translate(241.931518 255.316719) scale(0.09 -0.09)">
       <defs>
        <path id="DejaVuSans-33" d="M 2597 2516 
Q 3050 2419 3304 2112 
Q 3559 1806 3559 1356 
Q 3559 666 3084 287 
Q 2609 -91 1734 -91 
Q 1441 -91 1130 -33 
Q 819 25 488 141 
L 488 750 
Q 750 597 1062 519 
Q 1375 441 1716 441 
Q 2309 441 2620 675 
Q 2931 909 2931 1356 
Q 2931 1769 2642 2001 
Q 2353 2234 1838 2234 
L 1294 2234 
L 1294 2753 
L 1863 2753 
Q 2328 2753 2575 2939 
Q 2822 3125 2822 3475 
Q 2822 3834 2567 4026 
Q 2313 4219 1838 4219 
Q 1578 4219 1281 4162 
Q 984 4106 628 3988 
L 628 4550 
Q 988 4650 1302 4700 
Q 1616 4750 1894 4750 
Q 2613 4750 3031 4423 
Q 3450 4097 3450 3541 
Q 3450 3153 3228 2886 
Q 3006 2619 2597 2516 
z
" transform="scale(0.015625)"/>
       </defs>
       <use xlink:href="#DejaVuSans-33"/>
       <use xlink:href="#DejaVuSans-30" transform="translate(63.623047 0)"/>
      </g>
     </g>
    </g>
    <g id="xtick_5">
     <g id="line2d_5">
      <g>
       <use xlink:href="#mfee3de41c5" x="310.268378" y="241.478125" style="stroke: #000000; stroke-width: 0.8"/>
      </g>
     </g>
     <g id="text_5">
      <!-- 40 -->
      <g transform="translate(304.542128 255.316719) scale(0.09 -0.09)">
       <defs>
        <path id="DejaVuSans-34" d="M 2419 4116 
L 825 1625 
L 2419 1625 
L 2419 4116 
z
M 2253 4666 
L 3047 4666 
L 3047 1625 
L 3713 1625 
L 3713 1100 
L 3047 1100 
L 3047 0 
L 2419 0 
L 2419 1100 
L 313 1100 
L 313 1709 
L 2253 4666 
z
" transform="scale(0.015625)"/>
       </defs>
       <use xlink:href="#DejaVuSans-34"/>
       <use xlink:href="#DejaVuSans-30" transform="translate(63.623047 0)"/>
      </g>
     </g>
    </g>
    <g id="xtick_6">
     <g id="line2d_6">
      <g>
       <use xlink:href="#mfee3de41c5" x="372.878988" y="241.478125" style="stroke: #000000; stroke-width: 0.8"/>
      </g>
     </g>
     <g id="text_6">
      <!-- 50 -->
      <g transform="translate(367.152738 255.316719) scale(0.09 -0.09)">
       <defs>
        <path id="DejaVuSans-35" d="M 691 4666 
L 3169 4666 
L 3169 4134 
L 1269 4134 
L 1269 2991 
Q 1406 3038 1543 3061 
Q 1681 3084 1819 3084 
Q 2600 3084 3056 2656 
Q 3513 2228 3513 1497 
Q 3513 744 3044 326 
Q 2575 -91 1722 -91 
Q 1428 -91 1123 -41 
Q 819 9 494 109 
L 494 744 
Q 775 591 1075 516 
Q 1375 441 1709 441 
Q 2250 441 2565 725 
Q 2881 1009 2881 1497 
Q 2881 1984 2565 2268 
Q 2250 2553 1709 2553 
Q 1456 2553 1204 2497 
Q 953 2441 691 2322 
L 691 4666 
z
" transform="scale(0.015625)"/>
       </defs>
       <use xlink:href="#DejaVuSans-35"/>
       <use xlink:href="#DejaVuSans-30" transform="translate(63.623047 0)"/>
      </g>
     </g>
    </g>
    <g id="text_7">
     <!-- Training step -->
     <g transform="translate(190.400539 269.546719) scale(0.11 -0.11)">
      <defs>
       <path id="DejaVuSans-54" d="M -19 4666 
L 3928 4666 
L 3928 4134 
L 2272 4134 
L 2272 0 
L 1638 0 
L 1638 4134 
L -19 4134 
L -19 4666 
z
" transform="scale(0.015625)"/>
       <path id="DejaVuSans-72" d="M 2631 2963 
Q 2534 3019 2420 3045 
Q 2306 3072 2169 3072 
Q 1681 3072 1420 2755 
Q 1159 2438 1159 1844 
L 1159 0 
L 581 0 
L 581 3500 
L 1159 3500 
L 1159 2956 
Q 1341 3275 1631 3429 
Q 1922 3584 2338 3584 
Q 2397 3584 2469 3576 
Q 2541 3569 2628 3553 
L 2631 2963 
z
" transform="scale(0.015625)"/>
       <path id="DejaVuSans-61" d="M 2194 1759 
Q 1497 1759 1228 1600 
Q 959 1441 959 1056 
Q 959 750 1161 570 
Q 1363 391 1709 391 
Q 2188 391 2477 730 
Q 2766 1069 2766 1631 
L 2766 1759 
L 2194 1759 
z
M 3341 1997 
L 3341 0 
L 2766 0 
L 2766 531 
Q 2569 213 2275 61 
Q 1981 -91 1556 -91 
Q 1019 -91 701 211 
Q 384 513 384 1019 
Q 384 1609 779 1909 
Q 1175 2209 1959 2209 
L 2766 2209 
L 2766 2266 
Q 2766 2663 2505 2880 
Q 2244 3097 1772 3097 
Q 1472 3097 1187 3025 
Q 903 2953 641 2809 
L 641 3341 
Q 956 3463 1253 3523 
Q 1550 3584 1831 3584 
Q 2591 3584 2966 3190 
Q 3341 2797 3341 1997 
z
" transform="scale(0.015625)"/>
       <path id="DejaVuSans-69" d="M 603 3500 
L 1178 3500 
L 1178 0 
L 603 0 
L 603 3500 
z
M 603 4863 
L 1178 4863 
L 1178 4134 
L 603 4134 
L 603 4863 
z
" transform="scale(0.015625)"/>
       <path id="DejaVuSans-6e" d="M 3513 2113 
L 3513 0 
L 2938 0 
L 2938 2094 
Q 2938 2591 2744 2837 
Q 2550 3084 2163 3084 
Q 1697 3084 1428 2787 
Q 1159 2491 1159 1978 
L 1159 0 
L 581 0 
L 581 3500 
L 1159 3500 
L 1159 2956 
Q 1366 3272 1645 3428 
Q 1925 3584 2291 3584 
Q 2894 3584 3203 3211 
Q 3513 2838 3513 2113 
z
" transform="scale(0.015625)"/>
       <path id="DejaVuSans-67" d="M 2906 1791 
Q 2906 2416 2648 2759 
Q 2391 3103 1925 3103 
Q 1463 3103 1205 2759 
Q 947 2416 947 1791 
Q 947 1169 1205 825 
Q 1463 481 1925 481 
Q 2391 481 2648 825 
Q 2906 1169 2906 1791 
z
M 3481 434 
Q 3481 -459 3084 -895 
Q 2688 -1331 1869 -1331 
Q 1566 -1331 1297 -1286 
Q 1028 -1241 775 -1147 
L 775 -588 
Q 1028 -725 1275 -790 
Q 1522 -856 1778 -856 
Q 2344 -856 2625 -561 
Q 2906 -266 2906 331 
L 2906 616 
Q 2728 306 2450 153 
Q 2172 0 1784 0 
Q 1141 0 747 490 
Q 353 981 353 1791 
Q 353 2603 747 3093 
Q 1141 3584 1784 3584 
Q 2172 3584 2450 3431 
Q 2728 3278 2906 2969 
L 2906 3500 
L 3481 3500 
L 3481 434 
z
" transform="scale(0.015625)"/>
       <path id="DejaVuSans-20" transform="scale(0.015625)"/>
       <path id="DejaVuSans-73" d="M 2834 3397 
L 2834 2853 
Q 2591 2978 2328 3040 
Q 2066 3103 1784 3103 
Q 1356 3103 1142 2972 
Q 928 2841 928 2578 
Q 928 2378 1081 2264 
Q 1234 2150 1697 2047 
L 1894 2003 
Q 2506 1872 2764 1633 
Q 3022 1394 3022 966 
Q 3022 478 2636 193 
Q 2250 -91 1575 -91 
Q 1294 -91 989 -36 
Q 684 19 347 128 
L 347 722 
Q 666 556 975 473 
Q 1284 391 1588 391 
Q 1994 391 2212 530 
Q 2431 669 2431 922 
Q 2431 1156 2273 1281 
Q 2116 1406 1581 1522 
L 1381 1569 
Q 847 1681 609 1914 
Q 372 2147 372 2553 
Q 372 3047 722 3315 
Q 1072 3584 1716 3584 
Q 2034 3584 2315 3537 
Q 2597 3491 2834 3397 
z
" transform="scale(0.015625)"/>
       <path id="DejaVuSans-74" d="M 1172 4494 
L 1172 3500 
L 2356 3500 
L 2356 3053 
L 1172 3053 
L 1172 1153 
Q 1172 725 1289 603 
Q 1406 481 1766 481 
L 2356 481 
L 2356 0 
L 1766 0 
Q 1100 0 847 248 
Q 594 497 594 1153 
L 594 3053 
L 172 3053 
L 172 3500 
L 594 3500 
L 594 4494 
L 1172 4494 
z
" transform="scale(0.015625)"/>
       <path id="DejaVuSans-65" d="M 3597 1894 
L 3597 1613 
L 953 1613 
Q 991 1019 1311 708 
Q 1631 397 2203 397 
Q 2534 397 2845 478 
Q 3156 559 3463 722 
L 3463 178 
Q 3153 47 2828 -22 
Q 2503 -91 2169 -91 
Q 1331 -91 842 396 
Q 353 884 353 1716 
Q 353 2575 817 3079 
Q 1281 3584 2069 3584 
Q 2775 3584 3186 3129 
Q 3597 2675 3597 1894 
z
M 3022 2063 
Q 3016 2534 2758 2815 
Q 2500 3097 2075 3097 
Q 1594 3097 1305 2825 
Q 1016 2553 972 2059 
L 3022 2063 
z
" transform="scale(0.015625)"/>
       <path id="DejaVuSans-70" d="M 1159 525 
L 1159 -1331 
L 581 -1331 
L 581 3500 
L 1159 3500 
L 1159 2969 
Q 1341 3281 1617 3432 
Q 1894 3584 2278 3584 
Q 2916 3584 3314 3078 
Q 3713 2572 3713 1747 
Q 3713 922 3314 415 
Q 2916 -91 2278 -91 
Q 1894 -91 1617 61 
Q 1341 213 1159 525 
z
M 3116 1747 
Q 3116 2381 2855 2742 
Q 2594 3103 2138 3103 
Q 1681 3103 1420 2742 
Q 1159 2381 1159 1747 
Q 1159 1113 1420 752 
Q 1681 391 2138 391 
Q 2594 391 2855 752 
Q 3116 1113 3116 1747 
z
" transform="scale(0.015625)"/>
      </defs>
      <use xlink:href="#DejaVuSans-54"/>
      <use xlink:href="#DejaVuSans-72" transform="translate(46.333984 0)"/>
      <use xlink:href="#DejaVuSans-61" transform="translate(87.447266 0)"/>
      <use xlink:href="#DejaVuSans-69" transform="translate(148.726562 0)"/>
      <use xlink:href="#DejaVuSans-6e" transform="translate(176.509766 0)"/>
      <use xlink:href="#DejaVuSans-69" transform="translate(239.888672 0)"/>
      <use xlink:href="#DejaVuSans-6e" transform="translate(267.671875 0)"/>
      <use xlink:href="#DejaVuSans-67" transform="translate(331.050781 0)"/>
      <use xlink:href="#DejaVuSans-20" transform="translate(394.527344 0)"/>
      <use xlink:href="#DejaVuSans-73" transform="translate(426.314453 0)"/>
      <use xlink:href="#DejaVuSans-74" transform="translate(478.414062 0)"/>
      <use xlink:href="#DejaVuSans-65" transform="translate(517.623047 0)"/>
      <use xlink:href="#DejaVuSans-70" transform="translate(579.146484 0)"/>
     </g>
    </g>
   </g>
   <g id="matplotlib.axis_2">
    <g id="ytick_1">
     <g id="line2d_7">
      <defs>
       <path id="m68301242a0" d="M 0 0 
L -3.5 0 
" style="stroke: #000000; stroke-width: 0.8"/>
      </defs>
      <g>
       <use xlink:href="#m68301242a0" x="59.825938" y="177.96095" style="stroke: #000000; stroke-width: 0.8"/>
      </g>
     </g>
     <g id="text_8">
      <!-- 1.00 -->
      <g transform="translate(32.786875 181.380247) scale(0.09 -0.09)">
       <defs>
        <path id="DejaVuSans-2e" d="M 684 794 
L 1344 794 
L 1344 0 
L 684 0 
L 684 794 
z
" transform="scale(0.015625)"/>
       </defs>
       <use xlink:href="#DejaVuSans-31"/>
       <use xlink:href="#DejaVuSans-2e" transform="translate(63.623047 0)"/>
       <use xlink:href="#DejaVuSans-30" transform="translate(95.410156 0)"/>
       <use xlink:href="#DejaVuSans-30" transform="translate(159.033203 0)"/>
      </g>
     </g>
    </g>
    <g id="ytick_2">
     <g id="line2d_8">
      <defs>
       <path id="mc6d846f28a" d="M 0 0 
L -2 0 
" style="stroke: #000000; stroke-width: 0.6"/>
      </defs>
      <g>
       <use xlink:href="#mc6d846f28a" x="59.825938" y="233.483009" style="stroke: #000000; stroke-width: 0.6"/>
      </g>
     </g>
    </g>
    <g id="ytick_3">
     <g id="line2d_9">
      <g>
       <use xlink:href="#mc6d846f28a" x="59.825938" y="212.69675" style="stroke: #000000; stroke-width: 0.6"/>
      </g>
     </g>
    </g>
    <g id="ytick_4">
     <g id="line2d_10">
      <g>
       <use xlink:href="#mc6d846f28a" x="59.825938" y="194.36197" style="stroke: #000000; stroke-width: 0.6"/>
      </g>
     </g>
    </g>
    <g id="ytick_5">
     <g id="line2d_11">
      <g>
       <use xlink:href="#mc6d846f28a" x="59.825938" y="70.061701" style="stroke: #000000; stroke-width: 0.6"/>
      </g>
     </g>
     <g id="text_9">
      <!-- $\mathdefault{2\times10^{0}}$ -->
      <g transform="translate(21.845938 73.480998) scale(0.09 -0.09)">
       <defs>
        <path id="DejaVuSans-d7" d="M 4488 3438 
L 3059 2003 
L 4488 575 
L 4116 197 
L 2681 1631 
L 1247 197 
L 878 575 
L 2303 2003 
L 878 3438 
L 1247 3816 
L 2681 2381 
L 4116 3816 
L 4488 3438 
z
" transform="scale(0.015625)"/>
       </defs>
       <use xlink:href="#DejaVuSans-32" transform="translate(0 0.765625)"/>
       <use xlink:href="#DejaVuSans-d7" transform="translate(83.105469 0.765625)"/>
       <use xlink:href="#DejaVuSans-31" transform="translate(186.376953 0.765625)"/>
       <use xlink:href="#DejaVuSans-30" transform="translate(250 0.765625)"/>
       <use xlink:href="#DejaVuSans-30" transform="translate(314.580078 39.046875) scale(0.7)"/>
      </g>
     </g>
    </g>
    <g id="text_10">
     <!-- Validation loss -->
     <g transform="translate(15.558281 171.429375) rotate(-90) scale(0.11 -0.11)">
      <defs>
       <path id="DejaVuSans-56" d="M 1831 0 
L 50 4666 
L 709 4666 
L 2188 738 
L 3669 4666 
L 4325 4666 
L 2547 0 
L 1831 0 
z
" transform="scale(0.015625)"/>
       <path id="DejaVuSans-6c" d="M 603 4863 
L 1178 4863 
L 1178 0 
L 603 0 
L 603 4863 
z
" transform="scale(0.015625)"/>
       <path id="DejaVuSans-64" d="M 2906 2969 
L 2906 4863 
L 3481 4863 
L 3481 0 
L 2906 0 
L 2906 525 
Q 2725 213 2448 61 
Q 2172 -91 1784 -91 
Q 1150 -91 751 415 
Q 353 922 353 1747 
Q 353 2572 751 3078 
Q 1150 3584 1784 3584 
Q 2172 3584 2448 3432 
Q 2725 3281 2906 2969 
z
M 947 1747 
Q 947 1113 1208 752 
Q 1469 391 1925 391 
Q 2381 391 2643 752 
Q 2906 1113 2906 1747 
Q 2906 2381 2643 2742 
Q 2381 3103 1925 3103 
Q 1469 3103 1208 2742 
Q 947 2381 947 1747 
z
" transform="scale(0.015625)"/>
       <path id="DejaVuSans-6f" d="M 1959 3097 
Q 1497 3097 1228 2736 
Q 959 2375 959 1747 
Q 959 1119 1226 758 
Q 1494 397 1959 397 
Q 2419 397 2687 759 
Q 2956 1122 2956 1747 
Q 2956 2369 2687 2733 
Q 2419 3097 1959 3097 
z
M 1959 3584 
Q 2709 3584 3137 3096 
Q 3566 2609 3566 1747 
Q 3566 888 3137 398 
Q 2709 -91 1959 -91 
Q 1206 -91 779 398 
Q 353 888 353 1747 
Q 353 2609 779 3096 
Q 1206 3584 1959 3584 
z
" transform="scale(0.015625)"/>
      </defs>
      <use xlink:href="#DejaVuSans-56"/>
      <use xlink:href="#DejaVuSans-61" transform="translate(60.658203 0)"/>
      <use xlink:href="#DejaVuSans-6c" transform="translate(121.9375 0)"/>
      <use xlink:href="#DejaVuSans-69" transform="translate(149.720703 0)"/>
      <use xlink:href="#DejaVuSans-64" transform="translate(177.503906 0)"/>
      <use xlink:href="#DejaVuSans-61" transform="translate(240.980469 0)"/>
      <use xlink:href="#DejaVuSans-74" transform="translate(302.259766 0)"/>
      <use xlink:href="#DejaVuSans-69" transform="translate(341.46875 0)"/>
      <use xlink:href="#DejaVuSans-6f" transform="translate(369.251953 0)"/>
      <use xlink:href="#DejaVuSans-6e" transform="translate(430.433594 0)"/>
      <use xlink:href="#DejaVuSans-20" transform="translate(493.8125 0)"/>
      <use xlink:href="#DejaVuSans-6c" transform="translate(525.599609 0)"/>
      <use xlink:href="#DejaVuSans-6f" transform="translate(553.382812 0)"/>
      <use xlink:href="#DejaVuSans-73" transform="translate(614.564453 0)"/>
      <use xlink:href="#DejaVuSans-73" transform="translate(666.664062 0)"/>
     </g>
    </g>
   </g>
   <g id="line2d_12">
    <path d="M 59.825938 35.962317 
L 66.086999 40.613947 
L 72.34806 48.895498 
L 78.609121 55.246403 
L 84.870182 62.904708 
L 91.131243 66.34705 
L 97.392304 67.537149 
L 103.653365 74.626727 
L 109.914426 77.33515 
L 116.175487 84.417963 
L 122.436548 88.1583 
L 128.697609 92.91643 
L 134.95867 103.701976 
L 141.219731 97.768789 
L 147.480792 102.403191 
L 153.741853 105.568004 
L 160.002914 117.481336 
L 166.263975 120.626636 
L 172.525036 119.671003 
L 178.786097 120.346855 
L 185.047158 119.318153 
L 191.308219 122.959685 
L 197.56928 122.446675 
L 203.830341 129.490666 
L 210.091402 126.912574 
L 216.352463 128.117153 
L 222.613524 134.472209 
L 228.874585 124.973414 
L 235.135646 131.452648 
L 241.396707 129.673198 
L 247.657768 139.326694 
L 253.918829 140.93818 
L 260.17989 139.971727 
L 266.440951 139.691479 
L 272.702012 136.92836 
L 278.963073 139.50898 
L 285.224134 143.636651 
L 291.485195 146.853651 
L 297.746256 145.243149 
L 304.007317 137.227636 
L 310.268378 147.774148 
L 316.529439 142.926559 
L 322.7905 142.454957 
L 329.051561 152.658434 
L 335.312622 145.091833 
L 341.573683 139.193154 
L 347.834744 156.54358 
L 354.095805 147.902426 
L 360.356866 147.0705 
L 366.617927 150.987069 
" clip-path="url(#p75dd403a65)" style="fill: none; stroke: #4878cf; stroke-width: 1.8; stroke-linecap: square"/>
   </g>
   <g id="line2d_13">
    <path d="M 59.825938 41.052606 
L 66.086999 48.068857 
L 72.34806 56.582537 
L 78.609121 61.46924 
L 84.870182 72.501321 
L 91.131243 78.604427 
L 97.392304 81.31663 
L 103.653365 89.98751 
L 109.914426 98.337099 
L 116.175487 98.785758 
L 122.436548 102.499026 
L 128.697609 113.182027 
L 134.95867 121.014857 
L 141.219731 121.588172 
L 147.480792 125.939975 
L 153.741853 130.531683 
L 160.002914 128.490547 
L 166.263975 140.680689 
L 172.525036 135.796327 
L 178.786097 148.377977 
L 185.047158 149.579735 
L 191.308219 146.917399 
L 197.56928 147.594735 
L 203.830341 151.039438 
L 210.091402 155.340896 
L 216.352463 158.303458 
L 222.613524 160.250082 
L 228.874585 160.333459 
L 235.135646 165.247397 
L 241.396707 164.903479 
L 247.657768 165.118339 
L 253.918829 168.978617 
L 260.17989 166.920463 
L 266.440951 168.963924 
L 272.702012 163.762544 
L 278.963073 172.140279 
L 285.224134 176.535373 
L 291.485195 177.169073 
L 297.746256 176.319578 
L 304.007317 172.786414 
L 310.268378 179.289764 
L 316.529439 176.550799 
L 322.7905 170.544 
L 329.051561 192.078408 
L 335.312622 185.405761 
L 341.573683 179.321167 
L 347.834744 179.00742 
L 354.095805 180.155669 
L 360.356866 183.73288 
L 366.617927 178.897758 
" clip-path="url(#p75dd403a65)" style="fill: none; stroke: #6acc65; stroke-width: 1.8; stroke-linecap: square"/>
   </g>
   <g id="line2d_14">
    <path d="M 59.825938 39.235088 
L 66.086999 48.793625 
L 72.34806 55.550998 
L 78.609121 69.029951 
L 84.870182 74.755019 
L 91.131243 85.299584 
L 97.392304 87.73921 
L 103.653365 92.51132 
L 109.914426 106.293217 
L 116.175487 105.607119 
L 122.436548 113.459497 
L 128.697609 123.145659 
L 134.95867 135.156507 
L 141.219731 128.932989 
L 147.480792 139.387432 
L 153.741853 146.281093 
L 160.002914 147.172651 
L 166.263975 151.550957 
L 172.525036 151.393388 
L 178.786097 165.735918 
L 185.047158 160.34736 
L 191.308219 162.305797 
L 197.56928 165.649597 
L 203.830341 176.011816 
L 210.091402 181.630884 
L 216.352463 176.104081 
L 222.613524 182.8951 
L 228.874585 185.242555 
L 235.135646 181.169369 
L 241.396707 191.550929 
L 247.657768 204.380733 
L 253.918829 196.013841 
L 260.17989 205.695939 
L 266.440951 192.984388 
L 272.702012 197.048635 
L 278.963073 203.406153 
L 285.224134 201.402705 
L 291.485195 198.019508 
L 297.746256 203.168034 
L 304.007317 197.418618 
L 310.268378 205.882075 
L 316.529439 200.662513 
L 322.7905 198.996474 
L 329.051561 199.067766 
L 335.312622 212.463426 
L 341.573683 204.28853 
L 347.834744 220.947855 
L 354.095805 216.697747 
L 360.356866 222.597964 
L 366.617927 205.23157 
" clip-path="url(#p75dd403a65)" style="fill: none; stroke: #d65f5f; stroke-width: 1.8; stroke-linecap: square"/>
   </g>
   <g id="patch_3">
    <path d="M 59.825938 241.478125 
L 59.825938 22.318125 
" style="fill: none; stroke: #000000; stroke-width: 0.8; stroke-linejoin: miter; stroke-linecap: square"/>
   </g>
   <g id="patch_4">
    <path d="M 391.662171 241.478125 
L 391.662171 22.318125 
" style="fill: none; stroke: #000000; stroke-width: 0.8; stroke-linejoin: miter; stroke-linecap: square"/>
   </g>
   <g id="patch_5">
    <path d="M 59.825938 241.478125 
L 391.662171 241.478125 
" style="fill: none; stroke: #000000; stroke-width: 0.8; stroke-linejoin: miter; stroke-linecap: square"/>
   </g>
   <g id="patch_6">
    <path d="M 59.825938 22.318125 
L 391.662171 22.318125 
" style="fill: none; stroke: #000000; stroke-width: 0.8; stroke-linejoin: miter; stroke-linecap: square"/>
   </g>
   <g id="patch_7">
    <path d="M 374.1312 182.24208 
Q 374.1312 192.066563 374.1312 201.891046 
" style="fill: none; stroke: #000000; stroke-width: 1.2; stroke-linecap: round"/>
    <path d="M 372.1312 186.24208 
L 374.1312 182.24208 
L 376.1312 186.24208 
" style="fill: none; stroke: #000000; stroke-width: 1.2; stroke-linecap: round"/>
    <path d="M 376.1312 197.891046 
L 374.1312 201.891046 
L 372.1312 197.891046 
" style="fill: none; stroke: #000000; stroke-width: 1.2; stroke-linecap: round"/>
   </g>
   <g id="text_11">
    <!-- $\Delta=0.155$ -->
    <g transform="translate(377.887837 193.715968) scale(0.08 -0.08)">
     <defs>
      <path id="DejaVuSans-394" d="M 2188 4044 
L 906 525 
L 3472 525 
L 2188 4044 
z
M 50 0 
L 1831 4666 
L 2547 4666 
L 4325 0 
L 50 0 
z
" transform="scale(0.015625)"/>
      <path id="DejaVuSans-3d" d="M 678 2906 
L 4684 2906 
L 4684 2381 
L 678 2381 
L 678 2906 
z
M 678 1631 
L 4684 1631 
L 4684 1100 
L 678 1100 
L 678 1631 
z
" transform="scale(0.015625)"/>
     </defs>
     <use xlink:href="#DejaVuSans-394" transform="translate(0 0.78125)"/>
     <use xlink:href="#DejaVuSans-3d" transform="translate(87.890625 0.78125)"/>
     <use xlink:href="#DejaVuSans-30" transform="translate(191.162109 0.78125)"/>
     <use xlink:href="#DejaVuSans-2e" transform="translate(254.785156 0.78125)"/>
     <use xlink:href="#DejaVuSans-31" transform="translate(286.572266 0.78125)"/>
     <use xlink:href="#DejaVuSans-35" transform="translate(350.195312 0.78125)"/>
     <use xlink:href="#DejaVuSans-35" transform="translate(413.818359 0.78125)"/>
    </g>
   </g>
   <g id="text_12">
    <!-- Validation Loss over Training Steps -->
    <g transform="translate(121.487492 16.318125) scale(0.12 -0.12)">
     <defs>
      <path id="DejaVuSans-4c" d="M 628 4666 
L 1259 4666 
L 1259 531 
L 3531 531 
L 3531 0 
L 628 0 
L 628 4666 
z
" transform="scale(0.015625)"/>
      <path id="DejaVuSans-76" d="M 191 3500 
L 800 3500 
L 1894 563 
L 2988 3500 
L 3597 3500 
L 2284 0 
L 1503 0 
L 191 3500 
z
" transform="scale(0.015625)"/>
      <path id="DejaVuSans-53" d="M 3425 4513 
L 3425 3897 
Q 3066 4069 2747 4153 
Q 2428 4238 2131 4238 
Q 1616 4238 1336 4038 
Q 1056 3838 1056 3469 
Q 1056 3159 1242 3001 
Q 1428 2844 1947 2747 
L 2328 2669 
Q 3034 2534 3370 2195 
Q 3706 1856 3706 1288 
Q 3706 609 3251 259 
Q 2797 -91 1919 -91 
Q 1588 -91 1214 -16 
Q 841 59 441 206 
L 441 856 
Q 825 641 1194 531 
Q 1563 422 1919 422 
Q 2459 422 2753 634 
Q 3047 847 3047 1241 
Q 3047 1584 2836 1778 
Q 2625 1972 2144 2069 
L 1759 2144 
Q 1053 2284 737 2584 
Q 422 2884 422 3419 
Q 422 4038 858 4394 
Q 1294 4750 2059 4750 
Q 2388 4750 2728 4690 
Q 3069 4631 3425 4513 
z
" transform="scale(0.015625)"/>
     </defs>
     <use xlink:href="#DejaVuSans-56"/>
     <use xlink:href="#DejaVuSans-61" transform="translate(60.658203 0)"/>
     <use xlink:href="#DejaVuSans-6c" transform="translate(121.9375 0)"/>
     <use xlink:href="#DejaVuSans-69" transform="translate(149.720703 0)"/>
     <use xlink:href="#DejaVuSans-64" transform="translate(177.503906 0)"/>
     <use xlink:href="#DejaVuSans-61" transform="translate(240.980469 0)"/>
     <use xlink:href="#DejaVuSans-74" transform="translate(302.259766 0)"/>
     <use xlink:href="#DejaVuSans-69" transform="translate(341.46875 0)"/>
     <use xlink:href="#DejaVuSans-6f" transform="translate(369.251953 0)"/>
     <use xlink:href="#DejaVuSans-6e" transform="translate(430.433594 0)"/>
     <use xlink:href="#DejaVuSans-20" transform="translate(493.8125 0)"/>
     <use xlink:href="#DejaVuSans-4c" transform="translate(525.599609 0)"/>
     <use xlink:href="#DejaVuSans-6f" transform="translate(579.5625 0)"/>
     <use xlink:href="#DejaVuSans-73" transform="translate(640.744141 0)"/>
     <use xlink:href="#DejaVuSans-73" transform="translate(692.84375 0)"/>
     <use xlink:href="#DejaVuSans-20" transform="translate(744.943359 0)"/>
     <use xlink:href="#DejaVuSans-6f" transform="translate(776.730469 0)"/>
     <use xlink:href="#DejaVuSans-76" transform="translate(837.912109 0)"/>
     <use xlink:href="#DejaVuSans-65" transform="translate(897.091797 0)"/>
     <use xlink:href="#DejaVuSans-72" transform="translate(958.615234 0)"/>
     <use xlink:href="#DejaVuSans-20" transform="translate(999.728516 0)"/>
     <use xlink:href="#DejaVuSans-54" transform="translate(1031.515625 0)"/>
     <use xlink:href="#DejaVuSans-72" transform="translate(1077.849609 0)"/>
     <use xlink:href="#DejaVuSans-61" transform="translate(1118.962891 0)"/>
     <use xlink:href="#DejaVuSans-69" transform="translate(1180.242188 0)"/>
     <use xlink:href="#DejaVuSans-6e" transform="translate(1208.025391 0)"/>
     <use xlink:href="#DejaVuSans-69" transform="translate(1271.404297 0)"/>
     <use xlink:href="#DejaVuSans-6e" transform="translate(1299.1875 0)"/>
     <use xlink:href="#DejaVuSans-67" transform="translate(1362.566406 0)"/>
     <use xlink:href="#DejaVuSans-20" transform="translate(1426.042969 0)"/>
     <use xlink:href="#DejaVuSans-53" transform="translate(1457.830078 0)"/>
     <use xlink:href="#DejaVuSans-74" transform="translate(1521.306641 0)"/>
     <use xlink:href="#DejaVuSans-65" transform="translate(1560.515625 0)"/>
     <use xlink:href="#DejaVuSans-70" transform="translate(1622.039062 0)"/>
     <use xlink:href="#DejaVuSans-73" transform="translate(1685.515625 0)"/>
    </g>
   </g>
   <g id="legend_1">
    <g id="patch_8">
     <path d="M 278.879515 69.149063 
L 385.362171 69.149063 
Q 387.162171 69.149063 387.162171 67.349063 
L 387.162171 28.618125 
Q 387.162171 26.818125 385.362171 26.818125 
L 278.879515 26.818125 
Q 277.079515 26.818125 277.079515 28.618125 
L 277.079515 67.349063 
Q 277.079515 69.149063 278.879515 69.149063 
z
" style="fill: #ffffff; opacity: 0.8; stroke: #cccccc; stroke-linejoin: miter"/>
    </g>
    <g id="line2d_15">
     <path d="M 280.679515 34.106719 
L 289.679515 34.106719 
L 298.679515 34.106719 
" style="fill: none; stroke: #4878cf; stroke-width: 1.8; stroke-linecap: square"/>
    </g>
    <g id="text_13">
     <!-- Baseline -->
     <g transform="translate(305.879515 37.256719) scale(0.09 -0.09)">
      <defs>
       <path id="DejaVuSans-42" d="M 1259 2228 
L 1259 519 
L 2272 519 
Q 2781 519 3026 730 
Q 3272 941 3272 1375 
Q 3272 1813 3026 2020 
Q 2781 2228 2272 2228 
L 1259 2228 
z
M 1259 4147 
L 1259 2741 
L 2194 2741 
Q 2656 2741 2882 2914 
Q 3109 3088 3109 3444 
Q 3109 3797 2882 3972 
Q 2656 4147 2194 4147 
L 1259 4147 
z
M 628 4666 
L 2241 4666 
Q 2963 4666 3353 4366 
Q 3744 4066 3744 3513 
Q 3744 3084 3544 2831 
Q 3344 2578 2956 2516 
Q 3422 2416 3680 2098 
Q 3938 1781 3938 1306 
Q 3938 681 3513 340 
Q 3088 0 2303 0 
L 628 0 
L 628 4666 
z
" transform="scale(0.015625)"/>
      </defs>
      <use xlink:href="#DejaVuSans-42"/>
      <use xlink:href="#DejaVuSans-61" transform="translate(68.603516 0)"/>
      <use xlink:href="#DejaVuSans-73" transform="translate(129.882812 0)"/>
      <use xlink:href="#DejaVuSans-65" transform="translate(181.982422 0)"/>
      <use xlink:href="#DejaVuSans-6c" transform="translate(243.505859 0)"/>
      <use xlink:href="#DejaVuSans-69" transform="translate(271.289062 0)"/>
      <use xlink:href="#DejaVuSans-6e" transform="translate(299.072266 0)"/>
      <use xlink:href="#DejaVuSans-65" transform="translate(362.451172 0)"/>
     </g>
    </g>
    <g id="line2d_16">
     <path d="M 280.679515 47.317031 
L 289.679515 47.317031 
L 298.679515 47.317031 
" style="fill: none; stroke: #6acc65; stroke-width: 1.8; stroke-linecap: square"/>
    </g>
    <g id="text_14">
     <!-- Method-A -->
     <g transform="translate(305.879515 50.467031) scale(0.09 -0.09)">
      <defs>
       <path id="DejaVuSans-4d" d="M 628 4666 
L 1569 4666 
L 2759 1491 
L 3956 4666 
L 4897 4666 
L 4897 0 
L 4281 0 
L 4281 4097 
L 3078 897 
L 2444 897 
L 1241 4097 
L 1241 0 
L 628 0 
L 628 4666 
z
" transform="scale(0.015625)"/>
       <path id="DejaVuSans-68" d="M 3513 2113 
L 3513 0 
L 2938 0 
L 2938 2094 
Q 2938 2591 2744 2837 
Q 2550 3084 2163 3084 
Q 1697 3084 1428 2787 
Q 1159 2491 1159 1978 
L 1159 0 
L 581 0 
L 581 4863 
L 1159 4863 
L 1159 2956 
Q 1366 3272 1645 3428 
Q 1925 3584 2291 3584 
Q 2894 3584 3203 3211 
Q 3513 2838 3513 2113 
z
" transform="scale(0.015625)"/>
       <path id="DejaVuSans-2d" d="M 313 2009 
L 1997 2009 
L 1997 1497 
L 313 1497 
L 313 2009 
z
" transform="scale(0.015625)"/>
       <path id="DejaVuSans-41" d="M 2188 4044 
L 1331 1722 
L 3047 1722 
L 2188 4044 
z
M 1831 4666 
L 2547 4666 
L 4325 0 
L 3669 0 
L 3244 1197 
L 1141 1197 
L 716 0 
L 50 0 
L 1831 4666 
z
" transform="scale(0.015625)"/>
      </defs>
      <use xlink:href="#DejaVuSans-4d"/>
      <use xlink:href="#DejaVuSans-65" transform="translate(86.279297 0)"/>
      <use xlink:href="#DejaVuSans-74" transform="translate(147.802734 0)"/>
      <use xlink:href="#DejaVuSans-68" transform="translate(187.011719 0)"/>
      <use xlink:href="#DejaVuSans-6f" transform="translate(250.390625 0)"/>
      <use xlink:href="#DejaVuSans-64" transform="translate(311.572266 0)"/>
      <use xlink:href="#DejaVuSans-2d" transform="translate(375.048828 0)"/>
      <use xlink:href="#DejaVuSans-41" transform="translate(408.882812 0)"/>
     </g>
    </g>
    <g id="line2d_17">
     <path d="M 280.679515 60.527344 
L 289.679515 60.527344 
L 298.679515 60.527344 
" style="fill: none; stroke: #d65f5f; stroke-width: 1.8; stroke-linecap: square"/>
    </g>
    <g id="text_15">
     <!-- OursModel (ours) -->
     <g transform="translate(305.879515 63.677344) scale(0.09 -0.09)">
      <defs>
       <path id="DejaVuSans-4f" d="M 2522 4238 
Q 1834 4238 1429 3725 
Q 1025 3213 1025 2328 
Q 1025 1447 1429 934 
Q 1834 422 2522 422 
Q 3209 422 3611 934 
Q 4013 1447 4013 2328 
Q 4013 3213 3611 3725 
Q 3209 4238 2522 4238 
z
M 2522 4750 
Q 3503 4750 4090 4092 
Q 4678 3434 4678 2328 
Q 4678 1225 4090 567 
Q 3503 -91 2522 -91 
Q 1538 -91 948 565 
Q 359 1222 359 2328 
Q 359 3434 948 4092 
Q 1538 4750 2522 4750 
z
" transform="scale(0.015625)"/>
       <path id="DejaVuSans-75" d="M 544 1381 
L 544 3500 
L 1119 3500 
L 1119 1403 
Q 1119 906 1312 657 
Q 1506 409 1894 409 
Q 2359 409 2629 706 
Q 2900 1003 2900 1516 
L 2900 3500 
L 3475 3500 
L 3475 0 
L 2900 0 
L 2900 538 
Q 2691 219 2414 64 
Q 2138 -91 1772 -91 
Q 1169 -91 856 284 
Q 544 659 544 1381 
z
M 1991 3584 
L 1991 3584 
z
" transform="scale(0.015625)"/>
       <path id="DejaVuSans-28" d="M 1984 4856 
Q 1566 4138 1362 3434 
Q 1159 2731 1159 2009 
Q 1159 1288 1364 580 
Q 1569 -128 1984 -844 
L 1484 -844 
Q 1016 -109 783 600 
Q 550 1309 550 2009 
Q 550 2706 781 3412 
Q 1013 4119 1484 4856 
L 1984 4856 
z
" transform="scale(0.015625)"/>
       <path id="DejaVuSans-29" d="M 513 4856 
L 1013 4856 
Q 1481 4119 1714 3412 
Q 1947 2706 1947 2009 
Q 1947 1309 1714 600 
Q 1481 -109 1013 -844 
L 513 -844 
Q 928 -128 1133 580 
Q 1338 1288 1338 2009 
Q 1338 2731 1133 3434 
Q 928 4138 513 4856 
z
" transform="scale(0.015625)"/>
      </defs>
      <use xlink:href="#DejaVuSans-4f"/>
      <use xlink:href="#DejaVuSans-75" transform="translate(78.710938 0)"/>
      <use xlink:href="#DejaVuSans-72" transform="translate(142.089844 0)"/>
      <use xlink:href="#DejaVuSans-73" transform="translate(183.203125 0)"/>
      <use xlink:href="#DejaVuSans-4d" transform="translate(235.302734 0)"/>
      <use xlink:href="#DejaVuSans-6f" transform="translate(321.582031 0)"/>
      <use xlink:href="#DejaVuSans-64" transform="translate(382.763672 0)"/>
      <use xlink:href="#DejaVuSans-65" transform="translate(446.240234 0)"/>
      <use xlink:href="#DejaVuSans-6c" transform="translate(507.763672 0)"/>
      <use xlink:href="#DejaVuSans-20" transform="translate(535.546875 0)"/>
      <use xlink:href="#DejaVuSans-28" transform="translate(567.333984 0)"/>
      <use xlink:href="#DejaVuSans-6f" transform="translate(606.347656 0)"/>
      <use xlink:href="#DejaVuSans-75" transform="translate(667.529297 0)"/>
      <use xlink:href="#DejaVuSans-72" transform="translate(730.908203 0)"/>
      <use xlink:href="#DejaVuSans-73" transform="translate(772.021484 0)"/>
      <use xlink:href="#DejaVuSans-29" transform="translate(824.121094 0)"/>
     </g>
    </g>
   </g>
  </g>
 </g>
 <defs>
  <clipPath id="p75dd403a65">
   <rect x="59.825938" y="22.318125" width="331.836234" height="219.16"/>
  </clipPath>
 </defs>
</svg>
