<?xml version="1.0" encoding="utf-8" standalone="no"?>
<!DOCTYPE svg PUBLIC "-//W3C//DTD SVG 1.1//EN"
  "http://www.w3.org/Graphics/SVG/1.1/DTD/svg11.dtd">
<svg xmlns:xlink="http://www.w3.org/1999/xlink" width="460.55875pt" height="337.531937pt" viewBox="0 0 460.55875 337.531937" xmlns="http://www.w3.org/2000/svg" version="1.1">
 <metadata>
  <rdf:RDF xmlns:dc="http://purl.org/dc/elements/1.1/" xmlns:cc="http://creativecommons.org/ns#" xmlns:rdf="http://www.w3.org/1999/02/22-rdf-syntax-ns#">
   <cc:Work>
    <dc:type rdf:resource="http://purl.org/dc/dcmitype/StillImage"/>
    <dc:date>2026-05-25T00:23:17.068194</dc:date>
    <dc:format>image/svg+xml</dc:format>
    <dc:creator>
     <cc:Agent>
      <dc:title>Matplotlib v3.10.9, https://matplotlib.org/</dc:title>
     </cc:Agent>
    </dc:creator>
   </cc:Work>
  </rdf:RDF>
 </metadata>
 <defs>
  <style type="text/css">*{stroke-linejoin: round; stroke-linecap: butt}</style>
 </defs>
 <g id="figure_1">
  <g id="patch_1">
   <path d="M 0 337.531937 
L 460.55875 337.531937 
L 460.55875 0 
L 0 0 
z
" style="fill: #ffffff"/>
  </g>
  <g id="axes_1">
   <g id="patch_2">
    <path d="M 43.15875 302.456 
L 453.35875 302.456 
L 453.35875 7.2 
L 43.15875 7.2 
z
" style="fill: #ffffff"/>
   </g>
   <g id="FillBetweenPolyCollection_1">
    <path d="M 105.632294 266.578429 
L 97.885206 266.578429 
L 97.297541 264.618904 
L 96.652495 262.659379 
L 95.94551 260.699854 
L 95.171519 258.740329 
L 94.325303 256.780804 
L 93.402002 254.821279 
L 92.397794 252.861754 
L 91.310676 250.902229 
L 90.141324 248.942704 
L 88.89394 246.983179 
L 87.577007 245.023654 
L 86.20386 243.064129 
L 84.792963 241.104604 
L 83.367812 239.145079 
L 81.956401 237.185554 
L 80.590224 235.22603 
L 79.302852 233.266505 
L 78.128162 231.30698 
L 77.098358 229.347455 
L 76.241968 227.38793 
L 75.582005 225.428405 
L 75.134476 223.46888 
L 74.9074 221.509355 
L 74.900417 219.54983 
L 75.10501 217.590305 
L 75.505306 215.63078 
L 76.079332 213.671255 
L 76.800589 211.71173 
L 77.639778 209.752205 
L 78.566513 207.79268 
L 79.550894 205.833156 
L 80.564845 203.873631 
L 81.583162 201.914106 
L 82.584247 199.954581 
L 83.550554 197.995056 
L 84.468762 196.035531 
L 85.329735 194.076006 
L 86.128295 192.116481 
L 86.862867 190.156956 
L 87.535024 188.197431 
L 88.148983 186.237906 
L 88.711066 184.278381 
L 89.229163 182.318856 
L 89.71221 180.359331 
L 90.16969 178.399806 
L 90.611152 176.440281 
L 91.045758 174.480757 
L 91.481836 172.521232 
L 91.926459 170.561707 
L 92.385043 168.602182 
L 92.861011 166.642657 
L 93.355529 164.683132 
L 93.867388 162.723607 
L 94.393028 160.764082 
L 94.926756 158.804557 
L 95.461141 156.845032 
L 95.987552 154.885507 
L 96.496809 152.925982 
L 96.979866 150.966457 
L 97.428461 149.006932 
L 97.835676 147.047407 
L 98.196351 145.087883 
L 98.50735 143.128358 
L 98.767662 141.168833 
L 98.978369 139.209308 
L 99.142512 137.249783 
L 99.264865 135.290258 
L 99.351665 133.330733 
L 99.410286 131.371208 
L 99.448872 129.411683 
L 99.475924 127.452158 
L 99.499842 125.492633 
L 99.528445 123.533108 
L 99.568487 121.573583 
L 99.625221 119.614058 
L 99.70205 117.654533 
L 99.800319 115.695008 
L 99.919276 113.735484 
L 100.056219 111.775959 
L 100.20681 109.816434 
L 100.36553 107.856909 
L 100.526215 105.897384 
L 100.682611 103.937859 
L 100.828889 101.978334 
L 100.960078 100.018809 
L 101.072377 98.059284 
L 101.163336 96.099759 
L 101.231911 94.140234 
L 101.278421 92.180709 
L 101.304405 90.221184 
L 101.312434 88.261659 
L 101.305875 86.302134 
L 101.28863 84.34261 
L 101.264872 82.383085 
L 101.238774 80.42356 
L 101.214248 78.464035 
L 101.194713 76.50451 
L 101.182894 74.544985 
L 101.180685 72.58546 
L 102.336815 72.58546 
L 102.336815 72.58546 
L 102.334606 74.544985 
L 102.322787 76.50451 
L 102.303252 78.464035 
L 102.278726 80.42356 
L 102.252628 82.383085 
L 102.22887 84.34261 
L 102.211625 86.302134 
L 102.205066 88.261659 
L 102.213095 90.221184 
L 102.239079 92.180709 
L 102.285589 94.140234 
L 102.354164 96.099759 
L 102.445123 98.059284 
L 102.557422 100.018809 
L 102.688611 101.978334 
L 102.834889 103.937859 
L 102.991285 105.897384 
L 103.15197 107.856909 
L 103.31069 109.816434 
L 103.461281 111.775959 
L 103.598224 113.735484 
L 103.717181 115.695008 
L 103.81545 117.654533 
L 103.892279 119.614058 
L 103.949013 121.573583 
L 103.989055 123.533108 
L 104.017658 125.492633 
L 104.041576 127.452158 
L 104.068628 129.411683 
L 104.107214 131.371208 
L 104.165835 133.330733 
L 104.252635 135.290258 
L 104.374988 137.249783 
L 104.539131 139.209308 
L 104.749838 141.168833 
L 105.01015 143.128358 
L 105.321149 145.087883 
L 105.681824 147.047407 
L 106.089039 149.006932 
L 106.537634 150.966457 
L 107.020691 152.925982 
L 107.529948 154.885507 
L 108.056359 156.845032 
L 108.590744 158.804557 
L 109.124472 160.764082 
L 109.650112 162.723607 
L 110.161971 164.683132 
L 110.656489 166.642657 
L 111.132457 168.602182 
L 111.591041 170.561707 
L 112.035664 172.521232 
L 112.471742 174.480757 
L 112.906348 176.440281 
L 113.34781 178.399806 
L 113.80529 180.359331 
L 114.288337 182.318856 
L 114.806434 184.278381 
L 115.368517 186.237906 
L 115.982476 188.197431 
L 116.654633 190.156956 
L 117.389205 192.116481 
L 118.187765 194.076006 
L 119.048738 196.035531 
L 119.966946 197.995056 
L 120.933253 199.954581 
L 121.934338 201.914106 
L 122.952655 203.873631 
L 123.966606 205.833156 
L 124.950987 207.79268 
L 125.877722 209.752205 
L 126.716911 211.71173 
L 127.438168 213.671255 
L 128.012194 215.63078 
L 128.41249 217.590305 
L 128.617083 219.54983 
L 128.6101 221.509355 
L 128.383024 223.46888 
L 127.935495 225.428405 
L 127.275532 227.38793 
L 126.419142 229.347455 
L 125.389338 231.30698 
L 124.214648 233.266505 
L 122.927276 235.22603 
L 121.561099 237.185554 
L 120.149688 239.145079 
L 118.724537 241.104604 
L 117.31364 243.064129 
L 115.940493 245.023654 
L 114.62356 246.983179 
L 113.376176 248.942704 
L 112.206824 250.902229 
L 111.119706 252.861754 
L 110.115498 254.821279 
L 109.192197 256.780804 
L 108.345981 258.740329 
L 107.57199 260.699854 
L 106.865005 262.659379 
L 106.219959 264.618904 
L 105.632294 266.578429 
z
" clip-path="url(#p35e04008f3)" style="fill: #4878cf; fill-opacity: 0.45"/>
   </g>
   <g id="FillBetweenPolyCollection_2">
    <path d="M 210.6964 265.474931 
L 188.154433 265.474931 
L 186.813679 263.798844 
L 185.472091 262.122757 
L 184.151787 260.44667 
L 182.873116 258.770583 
L 181.653539 257.094496 
L 180.506767 255.418409 
L 179.442248 253.742323 
L 178.465057 252.066236 
L 177.576193 250.390149 
L 176.773251 248.714062 
L 176.051382 247.037975 
L 175.404436 245.361888 
L 174.82617 243.685801 
L 174.311367 242.009714 
L 173.856788 240.333627 
L 173.461853 238.65754 
L 173.129006 236.981453 
L 172.863757 235.305366 
L 172.674408 233.629279 
L 172.57151 231.953192 
L 172.567083 230.277105 
L 172.673675 228.601018 
L 172.903302 226.924931 
L 173.266335 225.248844 
L 173.770412 223.572757 
L 174.419429 221.89667 
L 175.212711 220.220583 
L 176.144449 218.544496 
L 177.203458 216.868409 
L 178.373354 215.192322 
L 179.633134 213.516235 
L 180.958173 211.840149 
L 182.321548 210.164062 
L 183.69558 208.487975 
L 185.053444 206.811888 
L 186.37068 205.135801 
L 187.62645 203.459714 
L 188.804406 201.783627 
L 189.893106 200.10754 
L 190.885966 198.431453 
L 191.78079 196.755366 
L 192.578986 195.079279 
L 193.284609 193.403192 
L 193.903375 191.727105 
L 194.441774 190.051018 
L 194.906391 188.374931 
L 195.303482 186.698844 
L 195.638809 185.022757 
L 195.917695 183.34667 
L 196.145231 181.670583 
L 196.326532 179.994496 
L 196.466979 178.318409 
L 196.572372 176.642322 
L 196.64895 174.966235 
L 196.703281 173.290148 
L 196.742041 171.614061 
L 196.771725 169.937975 
L 196.798343 168.261888 
L 196.82715 166.585801 
L 196.862452 164.909714 
L 196.907507 163.233627 
L 196.964522 161.55754 
L 197.034726 159.881453 
L 197.118488 158.205366 
L 197.21546 156.529279 
L 197.324695 154.853192 
L 197.444747 153.177105 
L 197.57373 151.501018 
L 197.709357 149.824931 
L 197.848969 148.148844 
L 197.989585 146.472757 
L 198.127975 144.79667 
L 198.260782 143.120583 
L 198.384686 141.444496 
L 198.496597 139.768409 
L 198.593859 138.092322 
L 198.674448 136.416235 
L 198.737125 134.740148 
L 198.781534 133.064061 
L 198.808227 131.387974 
L 198.818607 129.711887 
L 198.8148 128.035801 
L 198.799468 126.359714 
L 198.775577 124.683627 
L 198.74616 123.00754 
L 198.714092 121.331453 
L 198.681912 119.655366 
L 198.651697 117.979279 
L 198.62502 116.303192 
L 198.602968 114.627105 
L 198.586224 112.951018 
L 198.575185 111.274931 
L 198.570081 109.598844 
L 198.571094 107.922757 
L 198.578421 106.24667 
L 198.592297 104.570583 
L 198.612962 102.894496 
L 198.64059 101.218409 
L 198.675191 99.542322 
L 200.175643 99.542322 
L 200.175643 99.542322 
L 200.210243 101.218409 
L 200.237871 102.894496 
L 200.258537 104.570583 
L 200.272413 106.24667 
L 200.279739 107.922757 
L 200.280752 109.598844 
L 200.275649 111.274931 
L 200.264609 112.951018 
L 200.247866 114.627105 
L 200.225814 116.303192 
L 200.199136 117.979279 
L 200.168921 119.655366 
L 200.136741 121.331453 
L 200.104674 123.00754 
L 200.075257 124.683627 
L 200.051366 126.359714 
L 200.036033 128.035801 
L 200.032227 129.711887 
L 200.042606 131.387974 
L 200.069299 133.064061 
L 200.113708 134.740148 
L 200.176385 136.416235 
L 200.256974 138.092322 
L 200.354237 139.768409 
L 200.466147 141.444496 
L 200.590051 143.120583 
L 200.722859 144.79667 
L 200.861248 146.472757 
L 201.001864 148.148844 
L 201.141477 149.824931 
L 201.277103 151.501018 
L 201.406086 153.177105 
L 201.526138 154.853192 
L 201.635373 156.529279 
L 201.732345 158.205366 
L 201.816108 159.881453 
L 201.886311 161.55754 
L 201.943326 163.233627 
L 201.988381 164.909714 
L 202.023683 166.585801 
L 202.05249 168.261888 
L 202.079108 169.937975 
L 202.108793 171.614061 
L 202.147553 173.290148 
L 202.201883 174.966235 
L 202.278461 176.642322 
L 202.383854 178.318409 
L 202.524302 179.994496 
L 202.705602 181.670583 
L 202.933138 183.34667 
L 203.212025 185.022757 
L 203.547351 186.698844 
L 203.944442 188.374931 
L 204.409059 190.051018 
L 204.947458 191.727105 
L 205.566224 193.403192 
L 206.271848 195.079279 
L 207.070043 196.755366 
L 207.964867 198.431453 
L 208.957728 200.10754 
L 210.046428 201.783627 
L 211.224383 203.459714 
L 212.480153 205.135801 
L 213.79739 206.811888 
L 215.155253 208.487975 
L 216.529285 210.164062 
L 217.89266 211.840149 
L 219.217699 213.516235 
L 220.477479 215.192322 
L 221.647375 216.868409 
L 222.706385 218.544496 
L 223.638122 220.220583 
L 224.431405 221.89667 
L 225.080421 223.572757 
L 225.584498 225.248844 
L 225.947532 226.924931 
L 226.177158 228.601018 
L 226.28375 230.277105 
L 226.279323 231.953192 
L 226.176425 233.629279 
L 225.987077 235.305366 
L 225.721827 236.981453 
L 225.38898 238.65754 
L 224.994045 240.333627 
L 224.539466 242.009714 
L 224.024663 243.685801 
L 223.446397 245.361888 
L 222.799452 247.037975 
L 222.077582 248.714062 
L 221.27464 250.390149 
L 220.385777 252.066236 
L 219.408586 253.742323 
L 218.344066 255.418409 
L 217.197294 257.094496 
L 215.977717 258.770583 
L 214.699047 260.44667 
L 213.378743 262.122757 
L 212.037155 263.798844 
L 210.6964 265.474931 
z
" clip-path="url(#p35e04008f3)" style="fill: #6acc65; fill-opacity: 0.45"/>
   </g>
   <g id="FillBetweenPolyCollection_3">
    <path d="M 302.54023 284.336389 
L 291.643937 284.336389 
L 290.722373 283.334615 
L 289.706954 282.33284 
L 288.601694 281.331066 
L 287.413621 280.329292 
L 286.152833 279.327517 
L 284.832389 278.325743 
L 283.468052 277.323969 
L 282.077873 276.322194 
L 280.681656 275.32042 
L 279.300325 274.318646 
L 277.955233 273.316871 
L 276.66746 272.315097 
L 275.457126 271.313323 
L 274.342761 270.311548 
L 273.340754 269.309774 
L 272.464892 268.308 
L 271.726001 267.306225 
L 271.131691 266.304451 
L 270.686196 265.302677 
L 270.390319 264.300902 
L 270.241461 263.299128 
L 270.23375 262.297354 
L 270.358261 261.295579 
L 270.603337 260.293805 
L 270.955003 259.292031 
L 271.397472 258.290256 
L 271.913736 257.288482 
L 272.486214 256.286708 
L 273.097435 255.284933 
L 273.730722 254.283159 
L 274.370834 253.281385 
L 275.00452 252.27961 
L 275.620959 251.277836 
L 276.212054 250.276062 
L 276.772547 249.274287 
L 277.29997 248.272513 
L 277.794424 247.270739 
L 278.25822 246.268964 
L 278.695402 245.26719 
L 279.111207 244.265415 
L 279.511495 243.263641 
L 279.902199 242.261867 
L 280.28883 241.260092 
L 280.676077 240.258318 
L 281.067513 239.256544 
L 281.465431 238.254769 
L 281.870803 237.252995 
L 282.283345 236.251221 
L 282.701685 235.249446 
L 283.123602 234.247672 
L 283.546299 233.245898 
L 283.966698 232.244123 
L 284.381725 231.242349 
L 284.788552 230.240575 
L 285.184809 229.2388 
L 285.568724 228.237026 
L 285.939223 227.235252 
L 286.295961 226.233477 
L 286.63932 225.231703 
L 286.970354 224.229929 
L 287.290715 223.228154 
L 287.602548 222.22638 
L 287.908364 221.224606 
L 288.210904 220.222831 
L 288.512976 219.221057 
L 288.817294 218.219283 
L 289.126299 217.217508 
L 289.441981 216.215734 
L 289.765719 215.21396 
L 290.098132 214.212185 
L 290.438975 213.210411 
L 290.787078 212.208637 
L 291.140351 211.206862 
L 291.495849 210.205088 
L 291.849909 209.203314 
L 292.198338 208.201539 
L 292.536662 207.199765 
L 292.860389 206.197991 
L 293.165297 205.196216 
L 293.447697 204.194442 
L 293.704668 203.192668 
L 293.934237 202.190893 
L 294.1355 201.189119 
L 294.308665 200.187345 
L 294.455021 199.18557 
L 294.576849 198.183796 
L 294.67726 197.182022 
L 294.759996 196.180247 
L 294.829201 195.178473 
L 294.889173 194.176699 
L 294.944135 193.174924 
L 294.998004 192.17315 
L 295.054213 191.171375 
L 295.115564 190.169601 
L 295.18413 189.167827 
L 295.261211 188.166052 
L 295.347335 187.164278 
L 295.442307 186.162504 
L 295.545295 185.160729 
L 298.638872 185.160729 
L 298.638872 185.160729 
L 298.741859 186.162504 
L 298.836832 187.164278 
L 298.922956 188.166052 
L 299.000036 189.167827 
L 299.068602 190.169601 
L 299.129953 191.171375 
L 299.186163 192.17315 
L 299.240032 193.174924 
L 299.294993 194.176699 
L 299.354966 195.178473 
L 299.42417 196.180247 
L 299.506906 197.182022 
L 299.607317 198.183796 
L 299.729145 199.18557 
L 299.875502 200.187345 
L 300.048667 201.189119 
L 300.24993 202.190893 
L 300.479499 203.192668 
L 300.73647 204.194442 
L 301.01887 205.196216 
L 301.323778 206.197991 
L 301.647505 207.199765 
L 301.985828 208.201539 
L 302.334258 209.203314 
L 302.688317 210.205088 
L 303.043816 211.206862 
L 303.397089 212.208637 
L 303.745192 213.210411 
L 304.086035 214.212185 
L 304.418447 215.21396 
L 304.742185 216.215734 
L 305.057868 217.217508 
L 305.366872 218.219283 
L 305.671191 219.221057 
L 305.973263 220.222831 
L 306.275803 221.224606 
L 306.581619 222.22638 
L 306.893452 223.228154 
L 307.213813 224.229929 
L 307.544847 225.231703 
L 307.888205 226.233477 
L 308.244944 227.235252 
L 308.615443 228.237026 
L 308.999358 229.2388 
L 309.395614 230.240575 
L 309.802442 231.242349 
L 310.217468 232.244123 
L 310.637868 233.245898 
L 311.060565 234.247672 
L 311.482481 235.249446 
L 311.900822 236.251221 
L 312.313363 237.252995 
L 312.718735 238.254769 
L 313.116654 239.256544 
L 313.50809 240.258318 
L 313.895336 241.260092 
L 314.281967 242.261867 
L 314.672671 243.263641 
L 315.07296 244.265415 
L 315.488765 245.26719 
L 315.925947 246.268964 
L 316.389742 247.270739 
L 316.884197 248.272513 
L 317.41162 249.274287 
L 317.972113 250.276062 
L 318.563208 251.277836 
L 319.179647 252.27961 
L 319.813332 253.281385 
L 320.453444 254.283159 
L 321.086732 255.284933 
L 321.697953 256.286708 
L 322.27043 257.288482 
L 322.786694 258.290256 
L 323.229164 259.292031 
L 323.580829 260.293805 
L 323.825906 261.295579 
L 323.950417 262.297354 
L 323.942705 263.299128 
L 323.793847 264.300902 
L 323.497971 265.302677 
L 323.052476 266.304451 
L 322.458165 267.306225 
L 321.719274 268.308 
L 320.843412 269.309774 
L 319.841406 270.311548 
L 318.727041 271.313323 
L 317.516706 272.315097 
L 316.228933 273.316871 
L 314.883842 274.318646 
L 313.50251 275.32042 
L 312.106294 276.322194 
L 310.716115 277.323969 
L 309.351778 278.325743 
L 308.031334 279.327517 
L 306.770545 280.329292 
L 305.582473 281.331066 
L 304.477213 282.33284 
L 303.461794 283.334615 
L 302.54023 284.336389 
z
" clip-path="url(#p35e04008f3)" style="fill: #d65f5f; fill-opacity: 0.45"/>
   </g>
   <g id="FillBetweenPolyCollection_4">
    <path d="M 399.78449 289.779691 
L 389.73301 289.779691 
L 389.043024 289.130013 
L 388.299662 288.480335 
L 387.501252 287.830657 
L 386.646014 287.180979 
L 385.732393 286.531301 
L 384.759528 285.881622 
L 383.727804 285.231944 
L 382.63944 284.582266 
L 381.499037 283.932588 
L 380.314012 283.28291 
L 379.094844 282.633232 
L 377.855088 281.983554 
L 376.611123 281.333876 
L 375.38163 280.684198 
L 374.186845 280.03452 
L 373.047634 279.384842 
L 371.984484 278.735164 
L 371.016497 278.085486 
L 370.160487 277.435808 
L 369.430257 276.78613 
L 368.83612 276.136452 
L 368.384695 275.486774 
L 368.078972 274.837096 
L 367.918611 274.187417 
L 367.900417 273.537739 
L 368.018914 272.888061 
L 368.266939 272.238383 
L 368.636175 271.588705 
L 369.117578 270.939027 
L 369.701666 270.289349 
L 370.378654 269.639671 
L 371.138478 268.989993 
L 371.970721 268.340315 
L 372.864517 267.690637 
L 373.808462 267.040959 
L 374.79059 266.391281 
L 375.798433 265.741603 
L 376.819177 265.091925 
L 377.83992 264.442247 
L 378.847994 263.792569 
L 379.83134 263.14289 
L 380.778886 262.493212 
L 381.680912 261.843534 
L 382.529356 261.193856 
L 383.318044 260.544178 
L 384.04284 259.8945 
L 384.70168 259.244822 
L 385.294527 258.595144 
L 385.823213 257.945466 
L 386.291225 257.295788 
L 386.703412 256.64611 
L 387.065669 255.996432 
L 387.384599 255.346754 
L 387.66719 254.697076 
L 387.920517 254.047398 
L 388.151487 253.39772 
L 388.366638 252.748042 
L 388.571983 252.098364 
L 388.7729 251.448685 
L 388.974063 250.799007 
L 389.179391 250.149329 
L 389.39201 249.499651 
L 389.614233 248.849973 
L 389.84753 248.200295 
L 390.092516 247.550617 
L 390.348939 246.900939 
L 390.615692 246.251261 
L 390.890851 245.601583 
L 391.171731 244.951905 
L 391.454991 244.302227 
L 391.736759 243.652549 
L 392.012786 243.002871 
L 392.27863 242.353193 
L 392.529842 241.703515 
L 392.76217 241.053837 
L 392.971744 240.404158 
L 393.155269 239.75448 
L 393.31018 239.104802 
L 393.434789 238.455124 
L 393.528386 237.805446 
L 393.59131 237.155768 
L 393.62497 236.50609 
L 393.631819 235.856412 
L 393.615268 235.206734 
L 393.57955 234.557056 
L 393.529532 233.907378 
L 393.470482 233.2577 
L 393.407812 232.608022 
L 393.346808 231.958344 
L 393.292362 231.308666 
L 393.248738 230.658988 
L 393.219385 230.00931 
L 393.206797 229.359632 
L 393.212452 228.709953 
L 393.236807 228.060275 
L 393.279363 227.410597 
L 393.338778 226.760919 
L 393.413021 226.111241 
L 393.499545 225.461563 
L 396.017955 225.461563 
L 396.017955 225.461563 
L 396.104479 226.111241 
L 396.178722 226.760919 
L 396.238137 227.410597 
L 396.280693 228.060275 
L 396.305048 228.709953 
L 396.310703 229.359632 
L 396.298115 230.00931 
L 396.268762 230.658988 
L 396.225138 231.308666 
L 396.170692 231.958344 
L 396.109688 232.608022 
L 396.047018 233.2577 
L 395.987968 233.907378 
L 395.93795 234.557056 
L 395.902232 235.206734 
L 395.885681 235.856412 
L 395.89253 236.50609 
L 395.92619 237.155768 
L 395.989114 237.805446 
L 396.082711 238.455124 
L 396.20732 239.104802 
L 396.362231 239.75448 
L 396.545756 240.404158 
L 396.75533 241.053837 
L 396.987658 241.703515 
L 397.23887 242.353193 
L 397.504714 243.002871 
L 397.780741 243.652549 
L 398.062509 244.302227 
L 398.345769 244.951905 
L 398.626649 245.601583 
L 398.901808 246.251261 
L 399.168561 246.900939 
L 399.424984 247.550617 
L 399.66997 248.200295 
L 399.903267 248.849973 
L 400.12549 249.499651 
L 400.338109 250.149329 
L 400.543437 250.799007 
L 400.7446 251.448685 
L 400.945517 252.098364 
L 401.150862 252.748042 
L 401.366013 253.39772 
L 401.596983 254.047398 
L 401.85031 254.697076 
L 402.132901 255.346754 
L 402.451831 255.996432 
L 402.814088 256.64611 
L 403.226275 257.295788 
L 403.694287 257.945466 
L 404.222973 258.595144 
L 404.81582 259.244822 
L 405.47466 259.8945 
L 406.199456 260.544178 
L 406.988144 261.193856 
L 407.836588 261.843534 
L 408.738614 262.493212 
L 409.68616 263.14289 
L 410.669506 263.792569 
L 411.67758 264.442247 
L 412.698323 265.091925 
L 413.719067 265.741603 
L 414.72691 266.391281 
L 415.709038 267.040959 
L 416.652983 267.690637 
L 417.546779 268.340315 
L 418.379022 268.989993 
L 419.138846 269.639671 
L 419.815834 270.289349 
L 420.399922 270.939027 
L 420.881325 271.588705 
L 421.250561 272.238383 
L 421.498586 272.888061 
L 421.617083 273.537739 
L 421.598889 274.187417 
L 421.438528 274.837096 
L 421.132805 275.486774 
L 420.68138 276.136452 
L 420.087243 276.78613 
L 419.357013 277.435808 
L 418.501003 278.085486 
L 417.533016 278.735164 
L 416.469866 279.384842 
L 415.330655 280.03452 
L 414.13587 280.684198 
L 412.906377 281.333876 
L 411.662412 281.983554 
L 410.422656 282.633232 
L 409.203488 283.28291 
L 408.018463 283.932588 
L 406.87806 284.582266 
L 405.789696 285.231944 
L 404.757972 285.881622 
L 403.785107 286.531301 
L 402.871486 287.180979 
L 402.016248 287.830657 
L 401.217838 288.480335 
L 400.474476 289.130013 
L 399.78449 289.779691 
z
" clip-path="url(#p35e04008f3)" style="fill: #b47cc7; fill-opacity: 0.45"/>
   </g>
   <g id="matplotlib.axis_1">
    <g id="xtick_1">
     <g id="line2d_1">
      <defs>
       <path id="mf026c10969" d="M 0 0 
L 0 3.5 
" style="stroke: #000000; stroke-width: 0.8"/>
      </defs>
      <g>
       <use xlink:href="#mf026c10969" x="101.75875" y="302.456" style="stroke: #000000; stroke-width: 0.8"/>
      </g>
     </g>
     <g id="text_1">
      <!-- Control -->
      <g transform="translate(83.687656 317.054437) scale(0.1 -0.1)">
       <defs>
        <path id="DejaVuSans-43" d="M 4122 4306 
L 4122 3641 
Q 3803 3938 3442 4084 
Q 3081 4231 2675 4231 
Q 1875 4231 1450 3742 
Q 1025 3253 1025 2328 
Q 1025 1406 1450 917 
Q 1875 428 2675 428 
Q 3081 428 3442 575 
Q 3803 722 4122 1019 
L 4122 359 
Q 3791 134 3420 21 
Q 3050 -91 2638 -91 
Q 1578 -91 968 557 
Q 359 1206 359 2328 
Q 359 3453 968 4101 
Q 1578 4750 2638 4750 
Q 3056 4750 3426 4639 
Q 3797 4528 4122 4306 
z
" transform="scale(0.015625)"/>
        <path id="DejaVuSans-6f" d="M 1959 3097 
Q 1497 3097 1228 2736 
Q 959 2375 959 1747 
Q 959 1119 1226 758 
Q 1494 397 1959 397 
Q 2419 397 2687 759 
Q 2956 1122 2956 1747 
Q 2956 2369 2687 2733 
Q 2419 3097 1959 3097 
z
M 1959 3584 
Q 2709 3584 3137 3096 
Q 3566 2609 3566 1747 
Q 3566 888 3137 398 
Q 2709 -91 1959 -91 
Q 1206 -91 779 398 
Q 353 888 353 1747 
Q 353 2609 779 3096 
Q 1206 3584 1959 3584 
z
" transform="scale(0.015625)"/>
        <path id="DejaVuSans-6e" d="M 3513 2113 
L 3513 0 
L 2938 0 
L 2938 2094 
Q 2938 2591 2744 2837 
Q 2550 3084 2163 3084 
Q 1697 3084 1428 2787 
Q 1159 2491 1159 1978 
L 1159 0 
L 581 0 
L 581 3500 
L 1159 3500 
L 1159 2956 
Q 1366 3272 1645 3428 
Q 1925 3584 2291 3584 
Q 2894 3584 3203 3211 
Q 3513 2838 3513 2113 
z
" transform="scale(0.015625)"/>
        <path id="DejaVuSans-74" d="M 1172 4494 
L 1172 3500 
L 2356 3500 
L 2356 3053 
L 1172 3053 
L 1172 1153 
Q 1172 725 1289 603 
Q 1406 481 1766 481 
L 2356 481 
L 2356 0 
L 1766 0 
Q 1100 0 847 248 
Q 594 497 594 1153 
L 594 3053 
L 172 3053 
L 172 3500 
L 594 3500 
L 594 4494 
L 1172 4494 
z
" transform="scale(0.015625)"/>
        <path id="DejaVuSans-72" d="M 2631 2963 
Q 2534 3019 2420 3045 
Q 2306 3072 2169 3072 
Q 1681 3072 1420 2755 
Q 1159 2438 1159 1844 
L 1159 0 
L 581 0 
L 581 3500 
L 1159 3500 
L 1159 2956 
Q 1341 3275 1631 3429 
Q 1922 3584 2338 3584 
Q 2397 3584 2469 3576 
Q 2541 3569 2628 3553 
L 2631 2963 
z
" transform="scale(0.015625)"/>
        <path id="DejaVuSans-6c" d="M 603 4863 
L 1178 4863 
L 1178 0 
L 603 0 
L 603 4863 
z
" transform="scale(0.015625)"/>
       </defs>
       <use xlink:href="#DejaVuSans-43"/>
       <use xlink:href="#DejaVuSans-6f" transform="translate(69.824219 0)"/>
       <use xlink:href="#DejaVuSans-6e" transform="translate(131.005859 0)"/>
       <use xlink:href="#DejaVuSans-74" transform="translate(194.384766 0)"/>
       <use xlink:href="#DejaVuSans-72" transform="translate(233.59375 0)"/>
       <use xlink:href="#DejaVuSans-6f" transform="translate(272.457031 0)"/>
       <use xlink:href="#DejaVuSans-6c" transform="translate(333.638672 0)"/>
      </g>
     </g>
    </g>
    <g id="xtick_2">
     <g id="line2d_2">
      <g>
       <use xlink:href="#mf026c10969" x="199.425417" y="302.456" style="stroke: #000000; stroke-width: 0.8"/>
      </g>
     </g>
     <g id="text_2">
      <!-- Drug-A -->
      <g transform="translate(182.06526 317.054437) scale(0.1 -0.1)">
       <defs>
        <path id="DejaVuSans-44" d="M 1259 4147 
L 1259 519 
L 2022 519 
Q 2988 519 3436 956 
Q 3884 1394 3884 2338 
Q 3884 3275 3436 3711 
Q 2988 4147 2022 4147 
L 1259 4147 
z
M 628 4666 
L 1925 4666 
Q 3281 4666 3915 4102 
Q 4550 3538 4550 2338 
Q 4550 1131 3912 565 
Q 3275 0 1925 0 
L 628 0 
L 628 4666 
z
" transform="scale(0.015625)"/>
        <path id="DejaVuSans-75" d="M 544 1381 
L 544 3500 
L 1119 3500 
L 1119 1403 
Q 1119 906 1312 657 
Q 1506 409 1894 409 
Q 2359 409 2629 706 
Q 2900 1003 2900 1516 
L 2900 3500 
L 3475 3500 
L 3475 0 
L 2900 0 
L 2900 538 
Q 2691 219 2414 64 
Q 2138 -91 1772 -91 
Q 1169 -91 856 284 
Q 544 659 544 1381 
z
M 1991 3584 
L 1991 3584 
z
" transform="scale(0.015625)"/>
        <path id="DejaVuSans-67" d="M 2906 1791 
Q 2906 2416 2648 2759 
Q 2391 3103 1925 3103 
Q 1463 3103 1205 2759 
Q 947 2416 947 1791 
Q 947 1169 1205 825 
Q 1463 481 1925 481 
Q 2391 481 2648 825 
Q 2906 1169 2906 1791 
z
M 3481 434 
Q 3481 -459 3084 -895 
Q 2688 -1331 1869 -1331 
Q 1566 -1331 1297 -1286 
Q 1028 -1241 775 -1147 
L 775 -588 
Q 1028 -725 1275 -790 
Q 1522 -856 1778 -856 
Q 2344 -856 2625 -561 
Q 2906 -266 2906 331 
L 2906 616 
Q 2728 306 2450 153 
Q 2172 0 1784 0 
Q 1141 0 747 490 
Q 353 981 353 1791 
Q 353 2603 747 3093 
Q 1141 3584 1784 3584 
Q 2172 3584 2450 3431 
Q 2728 3278 2906 2969 
L 2906 3500 
L 3481 3500 
L 3481 434 
z
" transform="scale(0.015625)"/>
        <path id="DejaVuSans-2d" d="M 313 2009 
L 1997 2009 
L 1997 1497 
L 313 1497 
L 313 2009 
z
" transform="scale(0.015625)"/>
        <path id="DejaVuSans-41" d="M 2188 4044 
L 1331 1722 
L 3047 1722 
L 2188 4044 
z
M 1831 4666 
L 2547 4666 
L 4325 0 
L 3669 0 
L 3244 1197 
L 1141 1197 
L 716 0 
L 50 0 
L 1831 4666 
z
" transform="scale(0.015625)"/>
       </defs>
       <use xlink:href="#DejaVuSans-44"/>
       <use xlink:href="#DejaVuSans-72" transform="translate(77.001953 0)"/>
       <use xlink:href="#DejaVuSans-75" transform="translate(118.115234 0)"/>
       <use xlink:href="#DejaVuSans-67" transform="translate(181.494141 0)"/>
       <use xlink:href="#DejaVuSans-2d" transform="translate(244.970703 0)"/>
       <use xlink:href="#DejaVuSans-41" transform="translate(278.804688 0)"/>
      </g>
      <!-- 10μM -->
      <g transform="translate(185.567604 328.25225) scale(0.1 -0.1)">
       <defs>
        <path id="DejaVuSans-31" d="M 794 531 
L 1825 531 
L 1825 4091 
L 703 3866 
L 703 4441 
L 1819 4666 
L 2450 4666 
L 2450 531 
L 3481 531 
L 3481 0 
L 794 0 
L 794 531 
z
" transform="scale(0.015625)"/>
        <path id="DejaVuSans-30" d="M 2034 4250 
Q 1547 4250 1301 3770 
Q 1056 3291 1056 2328 
Q 1056 1369 1301 889 
Q 1547 409 2034 409 
Q 2525 409 2770 889 
Q 3016 1369 3016 2328 
Q 3016 3291 2770 3770 
Q 2525 4250 2034 4250 
z
M 2034 4750 
Q 2819 4750 3233 4129 
Q 3647 3509 3647 2328 
Q 3647 1150 3233 529 
Q 2819 -91 2034 -91 
Q 1250 -91 836 529 
Q 422 1150 422 2328 
Q 422 3509 836 4129 
Q 1250 4750 2034 4750 
z
" transform="scale(0.015625)"/>
        <path id="DejaVuSans-3bc" d="M 544 -1331 
L 544 3500 
L 1119 3500 
L 1119 1325 
Q 1119 872 1334 640 
Q 1550 409 1972 409 
Q 2434 409 2667 671 
Q 2900 934 2900 1459 
L 2900 3500 
L 3475 3500 
L 3475 806 
Q 3475 619 3529 530 
Q 3584 441 3700 441 
Q 3728 441 3778 458 
Q 3828 475 3916 513 
L 3916 50 
Q 3788 -22 3673 -56 
Q 3559 -91 3450 -91 
Q 3234 -91 3106 31 
Q 2978 153 2931 403 
Q 2775 156 2548 32 
Q 2322 -91 2016 -91 
Q 1697 -91 1473 31 
Q 1250 153 1119 397 
L 1119 -1331 
L 544 -1331 
z
" transform="scale(0.015625)"/>
        <path id="DejaVuSans-4d" d="M 628 4666 
L 1569 4666 
L 2759 1491 
L 3956 4666 
L 4897 4666 
L 4897 0 
L 4281 0 
L 4281 4097 
L 3078 897 
L 2444 897 
L 1241 4097 
L 1241 0 
L 628 0 
L 628 4666 
z
" transform="scale(0.015625)"/>
       </defs>
       <use xlink:href="#DejaVuSans-31"/>
       <use xlink:href="#DejaVuSans-30" transform="translate(63.623047 0)"/>
       <use xlink:href="#DejaVuSans-3bc" transform="translate(127.246094 0)"/>
       <use xlink:href="#DejaVuSans-4d" transform="translate(190.869141 0)"/>
      </g>
     </g>
    </g>
    <g id="xtick_3">
     <g id="line2d_3">
      <g>
       <use xlink:href="#mf026c10969" x="297.092083" y="302.456" style="stroke: #000000; stroke-width: 0.8"/>
      </g>
     </g>
     <g id="text_3">
      <!-- Drug-A -->
      <g transform="translate(279.731927 317.054437) scale(0.1 -0.1)">
       <use xlink:href="#DejaVuSans-44"/>
       <use xlink:href="#DejaVuSans-72" transform="translate(77.001953 0)"/>
       <use xlink:href="#DejaVuSans-75" transform="translate(118.115234 0)"/>
       <use xlink:href="#DejaVuSans-67" transform="translate(181.494141 0)"/>
       <use xlink:href="#DejaVuSans-2d" transform="translate(244.970703 0)"/>
       <use xlink:href="#DejaVuSans-41" transform="translate(278.804688 0)"/>
      </g>
      <!-- 50μM -->
      <g transform="translate(283.234271 328.25225) scale(0.1 -0.1)">
       <defs>
        <path id="DejaVuSans-35" d="M 691 4666 
L 3169 4666 
L 3169 4134 
L 1269 4134 
L 1269 2991 
Q 1406 3038 1543 3061 
Q 1681 3084 1819 3084 
Q 2600 3084 3056 2656 
Q 3513 2228 3513 1497 
Q 3513 744 3044 326 
Q 2575 -91 1722 -91 
Q 1428 -91 1123 -41 
Q 819 9 494 109 
L 494 744 
Q 775 591 1075 516 
Q 1375 441 1709 441 
Q 2250 441 2565 725 
Q 2881 1009 2881 1497 
Q 2881 1984 2565 2268 
Q 2250 2553 1709 2553 
Q 1456 2553 1204 2497 
Q 953 2441 691 2322 
L 691 4666 
z
" transform="scale(0.015625)"/>
       </defs>
       <use xlink:href="#DejaVuSans-35"/>
       <use xlink:href="#DejaVuSans-30" transform="translate(63.623047 0)"/>
       <use xlink:href="#DejaVuSans-3bc" transform="translate(127.246094 0)"/>
       <use xlink:href="#DejaVuSans-4d" transform="translate(190.869141 0)"/>
      </g>
     </g>
    </g>
    <g id="xtick_4">
     <g id="line2d_4">
      <g>
       <use xlink:href="#mf026c10969" x="394.75875" y="302.456" style="stroke: #000000; stroke-width: 0.8"/>
      </g>
     </g>
     <g id="text_4">
      <!-- Combo -->
      <g transform="translate(377.104062 317.054437) scale(0.1 -0.1)">
       <defs>
        <path id="DejaVuSans-6d" d="M 3328 2828 
Q 3544 3216 3844 3400 
Q 4144 3584 4550 3584 
Q 5097 3584 5394 3201 
Q 5691 2819 5691 2113 
L 5691 0 
L 5113 0 
L 5113 2094 
Q 5113 2597 4934 2840 
Q 4756 3084 4391 3084 
Q 3944 3084 3684 2787 
Q 3425 2491 3425 1978 
L 3425 0 
L 2847 0 
L 2847 2094 
Q 2847 2600 2669 2842 
Q 2491 3084 2119 3084 
Q 1678 3084 1418 2786 
Q 1159 2488 1159 1978 
L 1159 0 
L 581 0 
L 581 3500 
L 1159 3500 
L 1159 2956 
Q 1356 3278 1631 3431 
Q 1906 3584 2284 3584 
Q 2666 3584 2933 3390 
Q 3200 3197 3328 2828 
z
" transform="scale(0.015625)"/>
        <path id="DejaVuSans-62" d="M 3116 1747 
Q 3116 2381 2855 2742 
Q 2594 3103 2138 3103 
Q 1681 3103 1420 2742 
Q 1159 2381 1159 1747 
Q 1159 1113 1420 752 
Q 1681 391 2138 391 
Q 2594 391 2855 752 
Q 3116 1113 3116 1747 
z
M 1159 2969 
Q 1341 3281 1617 3432 
Q 1894 3584 2278 3584 
Q 2916 3584 3314 3078 
Q 3713 2572 3713 1747 
Q 3713 922 3314 415 
Q 2916 -91 2278 -91 
Q 1894 -91 1617 61 
Q 1341 213 1159 525 
L 1159 0 
L 581 0 
L 581 4863 
L 1159 4863 
L 1159 2969 
z
" transform="scale(0.015625)"/>
       </defs>
       <use xlink:href="#DejaVuSans-43"/>
       <use xlink:href="#DejaVuSans-6f" transform="translate(69.824219 0)"/>
       <use xlink:href="#DejaVuSans-6d" transform="translate(131.005859 0)"/>
       <use xlink:href="#DejaVuSans-62" transform="translate(228.417969 0)"/>
       <use xlink:href="#DejaVuSans-6f" transform="translate(291.894531 0)"/>
      </g>
     </g>
    </g>
   </g>
   <g id="matplotlib.axis_2">
    <g id="ytick_1">
     <g id="line2d_5">
      <defs>
       <path id="m571102bf2f" d="M 0 0 
L -3.5 0 
" style="stroke: #000000; stroke-width: 0.8"/>
      </defs>
      <g>
       <use xlink:href="#m571102bf2f" x="43.15875" y="302.456" style="stroke: #000000; stroke-width: 0.8"/>
      </g>
     </g>
     <g id="text_5">
      <!-- 0.0 -->
      <g transform="translate(21.845938 305.875297) scale(0.09 -0.09)">
       <defs>
        <path id="DejaVuSans-2e" d="M 684 794 
L 1344 794 
L 1344 0 
L 684 0 
L 684 794 
z
" transform="scale(0.015625)"/>
       </defs>
       <use xlink:href="#DejaVuSans-30"/>
       <use xlink:href="#DejaVuSans-2e" transform="translate(63.623047 0)"/>
       <use xlink:href="#DejaVuSans-30" transform="translate(95.410156 0)"/>
      </g>
     </g>
    </g>
    <g id="ytick_2">
     <g id="line2d_6">
      <g>
       <use xlink:href="#m571102bf2f" x="43.15875" y="256.090568" style="stroke: #000000; stroke-width: 0.8"/>
      </g>
     </g>
     <g id="text_6">
      <!-- 0.5 -->
      <g transform="translate(21.845938 259.509865) scale(0.09 -0.09)">
       <use xlink:href="#DejaVuSans-30"/>
       <use xlink:href="#DejaVuSans-2e" transform="translate(63.623047 0)"/>
       <use xlink:href="#DejaVuSans-35" transform="translate(95.410156 0)"/>
      </g>
     </g>
    </g>
    <g id="ytick_3">
     <g id="line2d_7">
      <g>
       <use xlink:href="#m571102bf2f" x="43.15875" y="209.725135" style="stroke: #000000; stroke-width: 0.8"/>
      </g>
     </g>
     <g id="text_7">
      <!-- 1.0 -->
      <g transform="translate(21.845938 213.144432) scale(0.09 -0.09)">
       <use xlink:href="#DejaVuSans-31"/>
       <use xlink:href="#DejaVuSans-2e" transform="translate(63.623047 0)"/>
       <use xlink:href="#DejaVuSans-30" transform="translate(95.410156 0)"/>
      </g>
     </g>
    </g>
    <g id="ytick_4">
     <g id="line2d_8">
      <g>
       <use xlink:href="#m571102bf2f" x="43.15875" y="163.359703" style="stroke: #000000; stroke-width: 0.8"/>
      </g>
     </g>
     <g id="text_8">
      <!-- 1.5 -->
      <g transform="translate(21.845938 166.779) scale(0.09 -0.09)">
       <use xlink:href="#DejaVuSans-31"/>
       <use xlink:href="#DejaVuSans-2e" transform="translate(63.623047 0)"/>
       <use xlink:href="#DejaVuSans-35" transform="translate(95.410156 0)"/>
      </g>
     </g>
    </g>
    <g id="ytick_5">
     <g id="line2d_9">
      <g>
       <use xlink:href="#m571102bf2f" x="43.15875" y="116.994271" style="stroke: #000000; stroke-width: 0.8"/>
      </g>
     </g>
     <g id="text_9">
      <!-- 2.0 -->
      <g transform="translate(21.845938 120.413568) scale(0.09 -0.09)">
       <defs>
        <path id="DejaVuSans-32" d="M 1228 531 
L 3431 531 
L 3431 0 
L 469 0 
L 469 531 
Q 828 903 1448 1529 
Q 2069 2156 2228 2338 
Q 2531 2678 2651 2914 
Q 2772 3150 2772 3378 
Q 2772 3750 2511 3984 
Q 2250 4219 1831 4219 
Q 1534 4219 1204 4116 
Q 875 4013 500 3803 
L 500 4441 
Q 881 4594 1212 4672 
Q 1544 4750 1819 4750 
Q 2544 4750 2975 4387 
Q 3406 4025 3406 3419 
Q 3406 3131 3298 2873 
Q 3191 2616 2906 2266 
Q 2828 2175 2409 1742 
Q 1991 1309 1228 531 
z
" transform="scale(0.015625)"/>
       </defs>
       <use xlink:href="#DejaVuSans-32"/>
       <use xlink:href="#DejaVuSans-2e" transform="translate(63.623047 0)"/>
       <use xlink:href="#DejaVuSans-30" transform="translate(95.410156 0)"/>
      </g>
     </g>
    </g>
    <g id="ytick_6">
     <g id="line2d_10">
      <g>
       <use xlink:href="#m571102bf2f" x="43.15875" y="70.628839" style="stroke: #000000; stroke-width: 0.8"/>
      </g>
     </g>
     <g id="text_10">
      <!-- 2.5 -->
      <g transform="translate(21.845938 74.048136) scale(0.09 -0.09)">
       <use xlink:href="#DejaVuSans-32"/>
       <use xlink:href="#DejaVuSans-2e" transform="translate(63.623047 0)"/>
       <use xlink:href="#DejaVuSans-35" transform="translate(95.410156 0)"/>
      </g>
     </g>
    </g>
    <g id="ytick_7">
     <g id="line2d_11">
      <g>
       <use xlink:href="#m571102bf2f" x="43.15875" y="24.263406" style="stroke: #000000; stroke-width: 0.8"/>
      </g>
     </g>
     <g id="text_11">
      <!-- 3.0 -->
      <g transform="translate(21.845938 27.682703) scale(0.09 -0.09)">
       <defs>
        <path id="DejaVuSans-33" d="M 2597 2516 
Q 3050 2419 3304 2112 
Q 3559 1806 3559 1356 
Q 3559 666 3084 287 
Q 2609 -91 1734 -91 
Q 1441 -91 1130 -33 
Q 819 25 488 141 
L 488 750 
Q 750 597 1062 519 
Q 1375 441 1716 441 
Q 2309 441 2620 675 
Q 2931 909 2931 1356 
Q 2931 1769 2642 2001 
Q 2353 2234 1838 2234 
L 1294 2234 
L 1294 2753 
L 1863 2753 
Q 2328 2753 2575 2939 
Q 2822 3125 2822 3475 
Q 2822 3834 2567 4026 
Q 2313 4219 1838 4219 
Q 1578 4219 1281 4162 
Q 984 4106 628 3988 
L 628 4550 
Q 988 4650 1302 4700 
Q 1616 4750 1894 4750 
Q 2613 4750 3031 4423 
Q 3450 4097 3450 3541 
Q 3450 3153 3228 2886 
Q 3006 2619 2597 2516 
z
" transform="scale(0.015625)"/>
       </defs>
       <use xlink:href="#DejaVuSans-33"/>
       <use xlink:href="#DejaVuSans-2e" transform="translate(63.623047 0)"/>
       <use xlink:href="#DejaVuSans-30" transform="translate(95.410156 0)"/>
      </g>
     </g>
    </g>
    <g id="text_12">
     <!-- Relative cell viability -->
     <g transform="translate(15.558281 211.609484) rotate(-90) scale(0.11 -0.11)">
      <defs>
       <path id="DejaVuSans-52" d="M 2841 2188 
Q 3044 2119 3236 1894 
Q 3428 1669 3622 1275 
L 4263 0 
L 3584 0 
L 2988 1197 
Q 2756 1666 2539 1819 
Q 2322 1972 1947 1972 
L 1259 1972 
L 1259 0 
L 628 0 
L 628 4666 
L 2053 4666 
Q 2853 4666 3247 4331 
Q 3641 3997 3641 3322 
Q 3641 2881 3436 2590 
Q 3231 2300 2841 2188 
z
M 1259 4147 
L 1259 2491 
L 2053 2491 
Q 2509 2491 2742 2702 
Q 2975 2913 2975 3322 
Q 2975 3731 2742 3939 
Q 2509 4147 2053 4147 
L 1259 4147 
z
" transform="scale(0.015625)"/>
       <path id="DejaVuSans-65" d="M 3597 1894 
L 3597 1613 
L 953 1613 
Q 991 1019 1311 708 
Q 1631 397 2203 397 
Q 2534 397 2845 478 
Q 3156 559 3463 722 
L 3463 178 
Q 3153 47 2828 -22 
Q 2503 -91 2169 -91 
Q 1331 -91 842 396 
Q 353 884 353 1716 
Q 353 2575 817 3079 
Q 1281 3584 2069 3584 
Q 2775 3584 3186 3129 
Q 3597 2675 3597 1894 
z
M 3022 2063 
Q 3016 2534 2758 2815 
Q 2500 3097 2075 3097 
Q 1594 3097 1305 2825 
Q 1016 2553 972 2059 
L 3022 2063 
z
" transform="scale(0.015625)"/>
       <path id="DejaVuSans-61" d="M 2194 1759 
Q 1497 1759 1228 1600 
Q 959 1441 959 1056 
Q 959 750 1161 570 
Q 1363 391 1709 391 
Q 2188 391 2477 730 
Q 2766 1069 2766 1631 
L 2766 1759 
L 2194 1759 
z
M 3341 1997 
L 3341 0 
L 2766 0 
L 2766 531 
Q 2569 213 2275 61 
Q 1981 -91 1556 -91 
Q 1019 -91 701 211 
Q 384 513 384 1019 
Q 384 1609 779 1909 
Q 1175 2209 1959 2209 
L 2766 2209 
L 2766 2266 
Q 2766 2663 2505 2880 
Q 2244 3097 1772 3097 
Q 1472 3097 1187 3025 
Q 903 2953 641 2809 
L 641 3341 
Q 956 3463 1253 3523 
Q 1550 3584 1831 3584 
Q 2591 3584 2966 3190 
Q 3341 2797 3341 1997 
z
" transform="scale(0.015625)"/>
       <path id="DejaVuSans-69" d="M 603 3500 
L 1178 3500 
L 1178 0 
L 603 0 
L 603 3500 
z
M 603 4863 
L 1178 4863 
L 1178 4134 
L 603 4134 
L 603 4863 
z
" transform="scale(0.015625)"/>
       <path id="DejaVuSans-76" d="M 191 3500 
L 800 3500 
L 1894 563 
L 2988 3500 
L 3597 3500 
L 2284 0 
L 1503 0 
L 191 3500 
z
" transform="scale(0.015625)"/>
       <path id="DejaVuSans-20" transform="scale(0.015625)"/>
       <path id="DejaVuSans-63" d="M 3122 3366 
L 3122 2828 
Q 2878 2963 2633 3030 
Q 2388 3097 2138 3097 
Q 1578 3097 1268 2742 
Q 959 2388 959 1747 
Q 959 1106 1268 751 
Q 1578 397 2138 397 
Q 2388 397 2633 464 
Q 2878 531 3122 666 
L 3122 134 
Q 2881 22 2623 -34 
Q 2366 -91 2075 -91 
Q 1284 -91 818 406 
Q 353 903 353 1747 
Q 353 2603 823 3093 
Q 1294 3584 2113 3584 
Q 2378 3584 2631 3529 
Q 2884 3475 3122 3366 
z
" transform="scale(0.015625)"/>
       <path id="DejaVuSans-79" d="M 2059 -325 
Q 1816 -950 1584 -1140 
Q 1353 -1331 966 -1331 
L 506 -1331 
L 506 -850 
L 844 -850 
Q 1081 -850 1212 -737 
Q 1344 -625 1503 -206 
L 1606 56 
L 191 3500 
L 800 3500 
L 1894 763 
L 2988 3500 
L 3597 3500 
L 2059 -325 
z
" transform="scale(0.015625)"/>
      </defs>
      <use xlink:href="#DejaVuSans-52"/>
      <use xlink:href="#DejaVuSans-65" transform="translate(64.982422 0)"/>
      <use xlink:href="#DejaVuSans-6c" transform="translate(126.505859 0)"/>
      <use xlink:href="#DejaVuSans-61" transform="translate(154.289062 0)"/>
      <use xlink:href="#DejaVuSans-74" transform="translate(215.568359 0)"/>
      <use xlink:href="#DejaVuSans-69" transform="translate(254.777344 0)"/>
      <use xlink:href="#DejaVuSans-76" transform="translate(282.560547 0)"/>
      <use xlink:href="#DejaVuSans-65" transform="translate(341.740234 0)"/>
      <use xlink:href="#DejaVuSans-20" transform="translate(403.263672 0)"/>
      <use xlink:href="#DejaVuSans-63" transform="translate(435.050781 0)"/>
      <use xlink:href="#DejaVuSans-65" transform="translate(490.03125 0)"/>
      <use xlink:href="#DejaVuSans-6c" transform="translate(551.554688 0)"/>
      <use xlink:href="#DejaVuSans-6c" transform="translate(579.337891 0)"/>
      <use xlink:href="#DejaVuSans-20" transform="translate(607.121094 0)"/>
      <use xlink:href="#DejaVuSans-76" transform="translate(638.908203 0)"/>
      <use xlink:href="#DejaVuSans-69" transform="translate(698.087891 0)"/>
      <use xlink:href="#DejaVuSans-61" transform="translate(725.871094 0)"/>
      <use xlink:href="#DejaVuSans-62" transform="translate(787.150391 0)"/>
      <use xlink:href="#DejaVuSans-69" transform="translate(850.626953 0)"/>
      <use xlink:href="#DejaVuSans-6c" transform="translate(878.410156 0)"/>
      <use xlink:href="#DejaVuSans-69" transform="translate(906.193359 0)"/>
      <use xlink:href="#DejaVuSans-74" transform="translate(933.976562 0)"/>
      <use xlink:href="#DejaVuSans-79" transform="translate(973.185547 0)"/>
     </g>
    </g>
   </g>
   <g id="patch_3">
    <path d="M 92.96875 227.385729 
L 110.54875 227.385729 
L 110.54875 189.924778 
L 92.96875 189.924778 
L 92.96875 227.385729 
z
" clip-path="url(#p35e04008f3)" style="fill: #ffffff; opacity: 0.85; stroke: #4878cf; stroke-width: 1.8; stroke-linejoin: miter"/>
   </g>
   <g id="line2d_12">
    <path d="M 101.75875 227.385729 
L 101.75875 266.578429 
" clip-path="url(#p35e04008f3)" style="fill: none; stroke: #333333; stroke-width: 1.2; stroke-linecap: square"/>
   </g>
   <g id="line2d_13">
    <path d="M 101.75875 189.924778 
L 101.75875 135.670267 
" clip-path="url(#p35e04008f3)" style="fill: none; stroke: #333333; stroke-width: 1.2; stroke-linecap: square"/>
   </g>
   <g id="line2d_14">
    <path d="M 97.36375 266.578429 
L 106.15375 266.578429 
" clip-path="url(#p35e04008f3)" style="fill: none; stroke: #333333; stroke-width: 1.2; stroke-linecap: square"/>
   </g>
   <g id="line2d_15">
    <path d="M 97.36375 135.670267 
L 106.15375 135.670267 
" clip-path="url(#p35e04008f3)" style="fill: none; stroke: #333333; stroke-width: 1.2; stroke-linecap: square"/>
   </g>
   <g id="patch_4">
    <path d="M 190.635417 247.188405 
L 208.215417 247.188405 
L 208.215417 217.528438 
L 190.635417 217.528438 
L 190.635417 247.188405 
z
" clip-path="url(#p35e04008f3)" style="fill: #ffffff; opacity: 0.85; stroke: #6acc65; stroke-width: 1.8; stroke-linejoin: miter"/>
   </g>
   <g id="line2d_16">
    <path d="M 199.425417 247.188405 
L 199.425417 265.474931 
" clip-path="url(#p35e04008f3)" style="fill: none; stroke: #333333; stroke-width: 1.2; stroke-linecap: square"/>
   </g>
   <g id="line2d_17">
    <path d="M 199.425417 217.528438 
L 199.425417 182.796092 
" clip-path="url(#p35e04008f3)" style="fill: none; stroke: #333333; stroke-width: 1.2; stroke-linecap: square"/>
   </g>
   <g id="line2d_18">
    <path d="M 195.030417 265.474931 
L 203.820417 265.474931 
" clip-path="url(#p35e04008f3)" style="fill: none; stroke: #333333; stroke-width: 1.2; stroke-linecap: square"/>
   </g>
   <g id="line2d_19">
    <path d="M 195.030417 182.796092 
L 203.820417 182.796092 
" clip-path="url(#p35e04008f3)" style="fill: none; stroke: #333333; stroke-width: 1.2; stroke-linecap: square"/>
   </g>
   <g id="patch_5">
    <path d="M 288.302083 264.619489 
L 305.882083 264.619489 
L 305.882083 236.983373 
L 288.302083 236.983373 
L 288.302083 264.619489 
z
" clip-path="url(#p35e04008f3)" style="fill: #ffffff; opacity: 0.85; stroke: #d65f5f; stroke-width: 1.8; stroke-linejoin: miter"/>
   </g>
   <g id="line2d_20">
    <path d="M 297.092083 264.619489 
L 297.092083 284.336389 
" clip-path="url(#p35e04008f3)" style="fill: none; stroke: #333333; stroke-width: 1.2; stroke-linecap: square"/>
   </g>
   <g id="line2d_21">
    <path d="M 297.092083 236.983373 
L 297.092083 203.734722 
" clip-path="url(#p35e04008f3)" style="fill: none; stroke: #333333; stroke-width: 1.2; stroke-linecap: square"/>
   </g>
   <g id="line2d_22">
    <path d="M 292.697083 284.336389 
L 301.487083 284.336389 
" clip-path="url(#p35e04008f3)" style="fill: none; stroke: #333333; stroke-width: 1.2; stroke-linecap: square"/>
   </g>
   <g id="line2d_23">
    <path d="M 292.697083 203.734722 
L 301.487083 203.734722 
" clip-path="url(#p35e04008f3)" style="fill: none; stroke: #333333; stroke-width: 1.2; stroke-linecap: square"/>
   </g>
   <g id="patch_6">
    <path d="M 385.96875 277.221613 
L 403.54875 277.221613 
L 403.54875 263.986601 
L 385.96875 263.986601 
L 385.96875 277.221613 
z
" clip-path="url(#p35e04008f3)" style="fill: #ffffff; opacity: 0.85; stroke: #b47cc7; stroke-width: 1.8; stroke-linejoin: miter"/>
   </g>
   <g id="line2d_24">
    <path d="M 394.75875 277.221613 
L 394.75875 289.779691 
" clip-path="url(#p35e04008f3)" style="fill: none; stroke: #333333; stroke-width: 1.2; stroke-linecap: square"/>
   </g>
   <g id="line2d_25">
    <path d="M 394.75875 263.986601 
L 394.75875 245.806715 
" clip-path="url(#p35e04008f3)" style="fill: none; stroke: #333333; stroke-width: 1.2; stroke-linecap: square"/>
   </g>
   <g id="line2d_26">
    <path d="M 390.36375 289.779691 
L 399.15375 289.779691 
" clip-path="url(#p35e04008f3)" style="fill: none; stroke: #333333; stroke-width: 1.2; stroke-linecap: square"/>
   </g>
   <g id="line2d_27">
    <path d="M 390.36375 245.806715 
L 399.15375 245.806715 
" clip-path="url(#p35e04008f3)" style="fill: none; stroke: #333333; stroke-width: 1.2; stroke-linecap: square"/>
   </g>
   <g id="line2d_28">
    <path d="M 101.75875 65.166991 
L 101.75875 61.457756 
L 199.425417 61.457756 
L 199.425417 65.166991 
" clip-path="url(#p35e04008f3)" style="fill: none; stroke: #444444; stroke-width: 1.1; stroke-linecap: square"/>
   </g>
   <g id="line2d_29">
    <path d="M 101.75875 44.766201 
L 101.75875 41.056966 
L 297.092083 41.056966 
L 297.092083 44.766201 
" clip-path="url(#p35e04008f3)" style="fill: none; stroke: #444444; stroke-width: 1.1; stroke-linecap: square"/>
   </g>
   <g id="line2d_30">
    <path d="M 101.75875 24.36541 
L 101.75875 20.656176 
L 394.75875 20.656176 
L 394.75875 24.36541 
" clip-path="url(#p35e04008f3)" style="fill: none; stroke: #444444; stroke-width: 1.1; stroke-linecap: square"/>
   </g>
   <g id="line2d_31">
    <path d="M 92.96875 215.200893 
L 110.54875 215.200893 
" clip-path="url(#p35e04008f3)" style="fill: none; stroke: #000000; stroke-width: 2"/>
   </g>
   <g id="line2d_32">
    <path d="M 190.635417 230.283568 
L 208.215417 230.283568 
" clip-path="url(#p35e04008f3)" style="fill: none; stroke: #000000; stroke-width: 2"/>
   </g>
   <g id="line2d_33">
    <path d="M 288.302083 255.7521 
L 305.882083 255.7521 
" clip-path="url(#p35e04008f3)" style="fill: none; stroke: #000000; stroke-width: 2"/>
   </g>
   <g id="line2d_34">
    <path d="M 385.96875 271.599805 
L 403.54875 271.599805 
" clip-path="url(#p35e04008f3)" style="fill: none; stroke: #000000; stroke-width: 2"/>
   </g>
   <g id="patch_7">
    <path d="M 43.15875 302.456 
L 43.15875 7.2 
" style="fill: none; stroke: #000000; stroke-width: 0.8; stroke-linejoin: miter; stroke-linecap: square"/>
   </g>
   <g id="patch_8">
    <path d="M 43.15875 302.456 
L 453.35875 302.456 
" style="fill: none; stroke: #000000; stroke-width: 0.8; stroke-linejoin: miter; stroke-linecap: square"/>
   </g>
   <g id="PathCollection_1">
    <defs>
     <path id="mf4c93b2aba" d="M 0 1.870829 
C 0.49615 1.870829 0.972045 1.673706 1.322876 1.322876 
C 1.673706 0.972045 1.870829 0.49615 1.870829 0 
C 1.870829 -0.49615 1.673706 -0.972045 1.322876 -1.322876 
C 0.972045 -1.673706 0.49615 -1.870829 0 -1.870829 
C -0.49615 -1.870829 -0.972045 -1.673706 -1.322876 -1.322876 
C -1.673706 -0.972045 -1.870829 -0.49615 -1.870829 0 
C -1.870829 0.49615 -1.673706 0.972045 -1.322876 1.322876 
C -0.972045 1.673706 -0.49615 1.870829 0 1.870829 
z
"/>
    </defs>
    <g clip-path="url(#p35e04008f3)">
     <use xlink:href="#mf4c93b2aba" x="109.250535" y="222.336533" style="fill: #4878cf; fill-opacity: 0.35"/>
     <use xlink:href="#mf4c93b2aba" x="100.087279" y="221.984156" style="fill: #4878cf; fill-opacity: 0.35"/>
     <use xlink:href="#mf4c93b2aba" x="111.565208" y="226.908165" style="fill: #4878cf; fill-opacity: 0.35"/>
     <use xlink:href="#mf4c93b2aba" x="107.156108" y="208.964742" style="fill: #4878cf; fill-opacity: 0.35"/>
     <use xlink:href="#mf4c93b2aba" x="90.660853" y="72.58546" style="fill: #4878cf; fill-opacity: 0.35"/>
     <use xlink:href="#mf4c93b2aba" x="114.765436" y="135.670267" style="fill: #4878cf; fill-opacity: 0.35"/>
     <use xlink:href="#mf4c93b2aba" x="108.90005" y="195.926783" style="fill: #4878cf; fill-opacity: 0.35"/>
     <use xlink:href="#mf4c93b2aba" x="109.581655" y="182.907369" style="fill: #4878cf; fill-opacity: 0.35"/>
     <use xlink:href="#mf4c93b2aba" x="91.588897" y="160.364496" style="fill: #4878cf; fill-opacity: 0.35"/>
     <use xlink:href="#mf4c93b2aba" x="100.401971" y="221.437044" style="fill: #4878cf; fill-opacity: 0.35"/>
     <use xlink:href="#mf4c93b2aba" x="98.225507" y="212.05268" style="fill: #4878cf; fill-opacity: 0.35"/>
     <use xlink:href="#mf4c93b2aba" x="113.42935" y="244.221017" style="fill: #4878cf; fill-opacity: 0.35"/>
     <use xlink:href="#mf4c93b2aba" x="105.692981" y="196.427529" style="fill: #4878cf; fill-opacity: 0.35"/>
     <use xlink:href="#mf4c93b2aba" x="110.585204" y="204.30038" style="fill: #4878cf; fill-opacity: 0.35"/>
     <use xlink:href="#mf4c93b2aba" x="100.211317" y="229.384079" style="fill: #4878cf; fill-opacity: 0.35"/>
     <use xlink:href="#mf4c93b2aba" x="94.299638" y="209.929143" style="fill: #4878cf; fill-opacity: 0.35"/>
     <use xlink:href="#mf4c93b2aba" x="103.251462" y="212.905804" style="fill: #4878cf; fill-opacity: 0.35"/>
     <use xlink:href="#mf4c93b2aba" x="89.830606" y="226.769068" style="fill: #4878cf; fill-opacity: 0.35"/>
     <use xlink:href="#mf4c93b2aba" x="110.71837" y="218.914764" style="fill: #4878cf; fill-opacity: 0.35"/>
     <use xlink:href="#mf4c93b2aba" x="105.359332" y="227.381092" style="fill: #4878cf; fill-opacity: 0.35"/>
     <use xlink:href="#mf4c93b2aba" x="108.816589" y="168.107523" style="fill: #4878cf; fill-opacity: 0.35"/>
     <use xlink:href="#mf4c93b2aba" x="97.78052" y="182.759" style="fill: #4878cf; fill-opacity: 0.35"/>
     <use xlink:href="#mf4c93b2aba" x="114.630772" y="219.276415" style="fill: #4878cf; fill-opacity: 0.35"/>
     <use xlink:href="#mf4c93b2aba" x="112.509302" y="219.526788" style="fill: #4878cf; fill-opacity: 0.35"/>
     <use xlink:href="#mf4c93b2aba" x="109.371611" y="238.017322" style="fill: #4878cf; fill-opacity: 0.35"/>
     <use xlink:href="#mf4c93b2aba" x="93.408137" y="209.215116" style="fill: #4878cf; fill-opacity: 0.35"/>
     <use xlink:href="#mf4c93b2aba" x="100.84868" y="180.02344" style="fill: #4878cf; fill-opacity: 0.35"/>
     <use xlink:href="#mf4c93b2aba" x="89.283304" y="225.229736" style="fill: #4878cf; fill-opacity: 0.35"/>
     <use xlink:href="#mf4c93b2aba" x="92.30472" y="219.267141" style="fill: #4878cf; fill-opacity: 0.35"/>
     <use xlink:href="#mf4c93b2aba" x="106.764529" y="156.868543" style="fill: #4878cf; fill-opacity: 0.35"/>
     <use xlink:href="#mf4c93b2aba" x="108.452179" y="264.380707" style="fill: #4878cf; fill-opacity: 0.35"/>
     <use xlink:href="#mf4c93b2aba" x="114.543583" y="232.203097" style="fill: #4878cf; fill-opacity: 0.35"/>
     <use xlink:href="#mf4c93b2aba" x="96.995654" y="205.728435" style="fill: #4878cf; fill-opacity: 0.35"/>
     <use xlink:href="#mf4c93b2aba" x="98.216255" y="167.37495" style="fill: #4878cf; fill-opacity: 0.35"/>
     <use xlink:href="#mf4c93b2aba" x="100.926203" y="214.871698" style="fill: #4878cf; fill-opacity: 0.35"/>
     <use xlink:href="#mf4c93b2aba" x="93.266827" y="197.327019" style="fill: #4878cf; fill-opacity: 0.35"/>
     <use xlink:href="#mf4c93b2aba" x="91.638337" y="233.658972" style="fill: #4878cf; fill-opacity: 0.35"/>
     <use xlink:href="#mf4c93b2aba" x="101.094361" y="180.802379" style="fill: #4878cf; fill-opacity: 0.35"/>
     <use xlink:href="#mf4c93b2aba" x="94.290631" y="206.405371" style="fill: #4878cf; fill-opacity: 0.35"/>
     <use xlink:href="#mf4c93b2aba" x="106.402597" y="217.412524" style="fill: #4878cf; fill-opacity: 0.35"/>
     <use xlink:href="#mf4c93b2aba" x="100.040064" y="203.864545" style="fill: #4878cf; fill-opacity: 0.35"/>
     <use xlink:href="#mf4c93b2aba" x="110.85639" y="228.113666" style="fill: #4878cf; fill-opacity: 0.35"/>
     <use xlink:href="#mf4c93b2aba" x="107.235333" y="158.593337" style="fill: #4878cf; fill-opacity: 0.35"/>
     <use xlink:href="#mf4c93b2aba" x="96.627603" y="227.399638" style="fill: #4878cf; fill-opacity: 0.35"/>
     <use xlink:href="#mf4c93b2aba" x="110.844948" y="210.012601" style="fill: #4878cf; fill-opacity: 0.35"/>
     <use xlink:href="#mf4c93b2aba" x="110.093039" y="215.530088" style="fill: #4878cf; fill-opacity: 0.35"/>
     <use xlink:href="#mf4c93b2aba" x="98.681659" y="224.052054" style="fill: #4878cf; fill-opacity: 0.35"/>
     <use xlink:href="#mf4c93b2aba" x="95.970229" y="196.140064" style="fill: #4878cf; fill-opacity: 0.35"/>
     <use xlink:href="#mf4c93b2aba" x="106.749394" y="118.728338" style="fill: #4878cf; fill-opacity: 0.35"/>
     <use xlink:href="#mf4c93b2aba" x="91.907181" y="209.382031" style="fill: #4878cf; fill-opacity: 0.35"/>
     <use xlink:href="#mf4c93b2aba" x="93.55224" y="162.747679" style="fill: #4878cf; fill-opacity: 0.35"/>
     <use xlink:href="#mf4c93b2aba" x="88.28675" y="183.408116" style="fill: #4878cf; fill-opacity: 0.35"/>
     <use xlink:href="#mf4c93b2aba" x="109.605175" y="256.331668" style="fill: #4878cf; fill-opacity: 0.35"/>
     <use xlink:href="#mf4c93b2aba" x="106.266871" y="210.012601" style="fill: #4878cf; fill-opacity: 0.35"/>
     <use xlink:href="#mf4c93b2aba" x="107.369339" y="232.72239" style="fill: #4878cf; fill-opacity: 0.35"/>
     <use xlink:href="#mf4c93b2aba" x="109.435753" y="237.117833" style="fill: #4878cf; fill-opacity: 0.35"/>
     <use xlink:href="#mf4c93b2aba" x="100.635233" y="242.459131" style="fill: #4878cf; fill-opacity: 0.35"/>
     <use xlink:href="#mf4c93b2aba" x="103.638593" y="165.99326" style="fill: #4878cf; fill-opacity: 0.35"/>
     <use xlink:href="#mf4c93b2aba" x="91.908399" y="193.756881" style="fill: #4878cf; fill-opacity: 0.35"/>
     <use xlink:href="#mf4c93b2aba" x="91.217432" y="219.656611" style="fill: #4878cf; fill-opacity: 0.35"/>
     <use xlink:href="#mf4c93b2aba" x="106.36401" y="226.824707" style="fill: #4878cf; fill-opacity: 0.35"/>
     <use xlink:href="#mf4c93b2aba" x="100.968328" y="245.213237" style="fill: #4878cf; fill-opacity: 0.35"/>
     <use xlink:href="#mf4c93b2aba" x="103.54274" y="172.085678" style="fill: #4878cf; fill-opacity: 0.35"/>
     <use xlink:href="#mf4c93b2aba" x="109.005585" y="246.99367" style="fill: #4878cf; fill-opacity: 0.35"/>
     <use xlink:href="#mf4c93b2aba" x="105.442847" y="266.578429" style="fill: #4878cf; fill-opacity: 0.35"/>
     <use xlink:href="#mf4c93b2aba" x="103.223968" y="233.065494" style="fill: #4878cf; fill-opacity: 0.35"/>
     <use xlink:href="#mf4c93b2aba" x="103.377868" y="232.694571" style="fill: #4878cf; fill-opacity: 0.35"/>
     <use xlink:href="#mf4c93b2aba" x="96.397439" y="172.24332" style="fill: #4878cf; fill-opacity: 0.35"/>
     <use xlink:href="#mf4c93b2aba" x="88.928182" y="221.251582" style="fill: #4878cf; fill-opacity: 0.35"/>
     <use xlink:href="#mf4c93b2aba" x="100.028182" y="246.437285" style="fill: #4878cf; fill-opacity: 0.35"/>
     <use xlink:href="#mf4c93b2aba" x="93.953592" y="222.80946" style="fill: #4878cf; fill-opacity: 0.35"/>
     <use xlink:href="#mf4c93b2aba" x="99.257313" y="118.830342" style="fill: #4878cf; fill-opacity: 0.35"/>
     <use xlink:href="#mf4c93b2aba" x="111.423146" y="234.066987" style="fill: #4878cf; fill-opacity: 0.35"/>
     <use xlink:href="#mf4c93b2aba" x="94.482882" y="217.792721" style="fill: #4878cf; fill-opacity: 0.35"/>
     <use xlink:href="#mf4c93b2aba" x="89.679802" y="217.115785" style="fill: #4878cf; fill-opacity: 0.35"/>
     <use xlink:href="#mf4c93b2aba" x="95.780328" y="175.442535" style="fill: #4878cf; fill-opacity: 0.35"/>
     <use xlink:href="#mf4c93b2aba" x="96.114227" y="116.706805" style="fill: #4878cf; fill-opacity: 0.35"/>
     <use xlink:href="#mf4c93b2aba" x="106.186627" y="200.405684" style="fill: #4878cf; fill-opacity: 0.35"/>
     <use xlink:href="#mf4c93b2aba" x="103.318389" y="224.209697" style="fill: #4878cf; fill-opacity: 0.35"/>
     <use xlink:href="#mf4c93b2aba" x="109.52242" y="190.993501" style="fill: #4878cf; fill-opacity: 0.35"/>
     <use xlink:href="#mf4c93b2aba" x="106.252178" y="258.010097" style="fill: #4878cf; fill-opacity: 0.35"/>
     <use xlink:href="#mf4c93b2aba" x="99.198743" y="223.616219" style="fill: #4878cf; fill-opacity: 0.35"/>
     <use xlink:href="#mf4c93b2aba" x="110.346161" y="252.844987" style="fill: #4878cf; fill-opacity: 0.35"/>
     <use xlink:href="#mf4c93b2aba" x="92.651569" y="222.967103" style="fill: #4878cf; fill-opacity: 0.35"/>
     <use xlink:href="#mf4c93b2aba" x="88.706516" y="245.259603" style="fill: #4878cf; fill-opacity: 0.35"/>
     <use xlink:href="#mf4c93b2aba" x="90.547925" y="186.00458" style="fill: #4878cf; fill-opacity: 0.35"/>
     <use xlink:href="#mf4c93b2aba" x="107.839537" y="231.924904" style="fill: #4878cf; fill-opacity: 0.35"/>
     <use xlink:href="#mf4c93b2aba" x="100.716219" y="186.718608" style="fill: #4878cf; fill-opacity: 0.35"/>
     <use xlink:href="#mf4c93b2aba" x="92.495662" y="198.699436" style="fill: #4878cf; fill-opacity: 0.35"/>
     <use xlink:href="#mf4c93b2aba" x="101.787321" y="178.549019" style="fill: #4878cf; fill-opacity: 0.35"/>
     <use xlink:href="#mf4c93b2aba" x="92.250645" y="203.595625" style="fill: #4878cf; fill-opacity: 0.35"/>
     <use xlink:href="#mf4c93b2aba" x="107.127458" y="191.605525" style="fill: #4878cf; fill-opacity: 0.35"/>
     <use xlink:href="#mf4c93b2aba" x="100.286304" y="226.611426" style="fill: #4878cf; fill-opacity: 0.35"/>
     <use xlink:href="#mf4c93b2aba" x="98.505077" y="203.020694" style="fill: #4878cf; fill-opacity: 0.35"/>
     <use xlink:href="#mf4c93b2aba" x="96.330767" y="209.19657" style="fill: #4878cf; fill-opacity: 0.35"/>
     <use xlink:href="#mf4c93b2aba" x="105.321545" y="144.247872" style="fill: #4878cf; fill-opacity: 0.35"/>
     <use xlink:href="#mf4c93b2aba" x="97.979786" y="217.180697" style="fill: #4878cf; fill-opacity: 0.35"/>
     <use xlink:href="#mf4c93b2aba" x="90.48235" y="239.714297" style="fill: #4878cf; fill-opacity: 0.35"/>
     <use xlink:href="#mf4c93b2aba" x="91.312485" y="232.518382" style="fill: #4878cf; fill-opacity: 0.35"/>
     <use xlink:href="#mf4c93b2aba" x="114.390111" y="162.525125" style="fill: #4878cf; fill-opacity: 0.35"/>
    </g>
   </g>
   <g id="PathCollection_2">
    <defs>
     <path id="m4c4ed51a6a" d="M 0 1.870829 
C 0.49615 1.870829 0.972045 1.673706 1.322876 1.322876 
C 1.673706 0.972045 1.870829 0.49615 1.870829 0 
C 1.870829 -0.49615 1.673706 -0.972045 1.322876 -1.322876 
C 0.972045 -1.673706 0.49615 -1.870829 0 -1.870829 
C -0.49615 -1.870829 -0.972045 -1.673706 -1.322876 -1.322876 
C -1.673706 -0.972045 -1.870829 -0.49615 -1.870829 0 
C -1.870829 0.49615 -1.673706 0.972045 -1.322876 1.322876 
C -0.972045 1.673706 -0.49615 1.870829 0 1.870829 
z
"/>
    </defs>
    <g clip-path="url(#p35e04008f3)">
     <use xlink:href="#m4c4ed51a6a" x="210.598737" y="194.65637" style="fill: #6acc65; fill-opacity: 0.35"/>
     <use xlink:href="#m4c4ed51a6a" x="204.886741" y="264.640353" style="fill: #6acc65; fill-opacity: 0.35"/>
     <use xlink:href="#m4c4ed51a6a" x="193.022741" y="218.256375" style="fill: #6acc65; fill-opacity: 0.35"/>
     <use xlink:href="#m4c4ed51a6a" x="212.255827" y="247.160585" style="fill: #6acc65; fill-opacity: 0.35"/>
     <use xlink:href="#m4c4ed51a6a" x="207.048325" y="247.271863" style="fill: #6acc65; fill-opacity: 0.35"/>
     <use xlink:href="#m4c4ed51a6a" x="205.35664" y="252.362787" style="fill: #6acc65; fill-opacity: 0.35"/>
     <use xlink:href="#m4c4ed51a6a" x="198.040623" y="221.362859" style="fill: #6acc65; fill-opacity: 0.35"/>
     <use xlink:href="#m4c4ed51a6a" x="193.196983" y="255.691825" style="fill: #6acc65; fill-opacity: 0.35"/>
     <use xlink:href="#m4c4ed51a6a" x="188.388055" y="219.971896" style="fill: #6acc65; fill-opacity: 0.35"/>
     <use xlink:href="#m4c4ed51a6a" x="210.43525" y="239.677205" style="fill: #6acc65; fill-opacity: 0.35"/>
     <use xlink:href="#m4c4ed51a6a" x="198.216046" y="195.379671" style="fill: #6acc65; fill-opacity: 0.35"/>
     <use xlink:href="#m4c4ed51a6a" x="191.286047" y="239.556655" style="fill: #6acc65; fill-opacity: 0.35"/>
     <use xlink:href="#m4c4ed51a6a" x="194.118977" y="223.161838" style="fill: #6acc65; fill-opacity: 0.35"/>
     <use xlink:href="#m4c4ed51a6a" x="201.591808" y="265.178192" style="fill: #6acc65; fill-opacity: 0.35"/>
     <use xlink:href="#m4c4ed51a6a" x="190.58623" y="235.393039" style="fill: #6acc65; fill-opacity: 0.35"/>
     <use xlink:href="#m4c4ed51a6a" x="209.177629" y="246.678385" style="fill: #6acc65; fill-opacity: 0.35"/>
     <use xlink:href="#m4c4ed51a6a" x="206.495064" y="240.011036" style="fill: #6acc65; fill-opacity: 0.35"/>
     <use xlink:href="#m4c4ed51a6a" x="205.426997" y="237.136379" style="fill: #6acc65; fill-opacity: 0.35"/>
     <use xlink:href="#m4c4ed51a6a" x="197.568388" y="216.5594" style="fill: #6acc65; fill-opacity: 0.35"/>
     <use xlink:href="#m4c4ed51a6a" x="202.906889" y="246.400192" style="fill: #6acc65; fill-opacity: 0.35"/>
     <use xlink:href="#m4c4ed51a6a" x="201.725216" y="257.722631" style="fill: #6acc65; fill-opacity: 0.35"/>
     <use xlink:href="#m4c4ed51a6a" x="203.523222" y="232.128912" style="fill: #6acc65; fill-opacity: 0.35"/>
     <use xlink:href="#m4c4ed51a6a" x="188.061354" y="117.967945" style="fill: #6acc65; fill-opacity: 0.35"/>
     <use xlink:href="#m4c4ed51a6a" x="197.12303" y="264.816542" style="fill: #6acc65; fill-opacity: 0.35"/>
     <use xlink:href="#m4c4ed51a6a" x="186.890092" y="240.604513" style="fill: #6acc65; fill-opacity: 0.35"/>
     <use xlink:href="#m4c4ed51a6a" x="199.261086" y="248.690645" style="fill: #6acc65; fill-opacity: 0.35"/>
     <use xlink:href="#m4c4ed51a6a" x="194.772688" y="216.67995" style="fill: #6acc65; fill-opacity: 0.35"/>
     <use xlink:href="#m4c4ed51a6a" x="189.704338" y="256.841688" style="fill: #6acc65; fill-opacity: 0.35"/>
     <use xlink:href="#m4c4ed51a6a" x="188.57981" y="243.710997" style="fill: #6acc65; fill-opacity: 0.35"/>
     <use xlink:href="#m4c4ed51a6a" x="201.822204" y="230.914138" style="fill: #6acc65; fill-opacity: 0.35"/>
     <use xlink:href="#m4c4ed51a6a" x="190.417232" y="192.588472" style="fill: #6acc65; fill-opacity: 0.35"/>
     <use xlink:href="#m4c4ed51a6a" x="211.051035" y="165.381236" style="fill: #6acc65; fill-opacity: 0.35"/>
     <use xlink:href="#m4c4ed51a6a" x="201.642169" y="211.236649" style="fill: #6acc65; fill-opacity: 0.35"/>
     <use xlink:href="#m4c4ed51a6a" x="195.237816" y="212.275234" style="fill: #6acc65; fill-opacity: 0.35"/>
     <use xlink:href="#m4c4ed51a6a" x="201.911652" y="252.659526" style="fill: #6acc65; fill-opacity: 0.35"/>
     <use xlink:href="#m4c4ed51a6a" x="186.375693" y="210.327886" style="fill: #6acc65; fill-opacity: 0.35"/>
     <use xlink:href="#m4c4ed51a6a" x="211.965483" y="247.893159" style="fill: #6acc65; fill-opacity: 0.35"/>
     <use xlink:href="#m4c4ed51a6a" x="198.941475" y="228.855513" style="fill: #6acc65; fill-opacity: 0.35"/>
     <use xlink:href="#m4c4ed51a6a" x="207.157283" y="248.903926" style="fill: #6acc65; fill-opacity: 0.35"/>
     <use xlink:href="#m4c4ed51a6a" x="188.014473" y="263.917053" style="fill: #6acc65; fill-opacity: 0.35"/>
     <use xlink:href="#m4c4ed51a6a" x="199.060566" y="211.403564" style="fill: #6acc65; fill-opacity: 0.35"/>
     <use xlink:href="#m4c4ed51a6a" x="199.171284" y="219.851346" style="fill: #6acc65; fill-opacity: 0.35"/>
     <use xlink:href="#m4c4ed51a6a" x="211.398511" y="221.715236" style="fill: #6acc65; fill-opacity: 0.35"/>
     <use xlink:href="#m4c4ed51a6a" x="201.38694" y="237.98023" style="fill: #6acc65; fill-opacity: 0.35"/>
     <use xlink:href="#m4c4ed51a6a" x="198.70044" y="238.990996" style="fill: #6acc65; fill-opacity: 0.35"/>
     <use xlink:href="#m4c4ed51a6a" x="193.052978" y="234.122626" style="fill: #6acc65; fill-opacity: 0.35"/>
     <use xlink:href="#m4c4ed51a6a" x="194.81939" y="230.719403" style="fill: #6acc65; fill-opacity: 0.35"/>
     <use xlink:href="#m4c4ed51a6a" x="199.990738" y="153.966067" style="fill: #6acc65; fill-opacity: 0.35"/>
     <use xlink:href="#m4c4ed51a6a" x="197.754849" y="232.305101" style="fill: #6acc65; fill-opacity: 0.35"/>
     <use xlink:href="#m4c4ed51a6a" x="186.343102" y="231.414885" style="fill: #6acc65; fill-opacity: 0.35"/>
     <use xlink:href="#m4c4ed51a6a" x="208.348413" y="253.568288" style="fill: #6acc65; fill-opacity: 0.35"/>
     <use xlink:href="#m4c4ed51a6a" x="210.259093" y="255.840194" style="fill: #6acc65; fill-opacity: 0.35"/>
     <use xlink:href="#m4c4ed51a6a" x="189.587428" y="229.662271" style="fill: #6acc65; fill-opacity: 0.35"/>
     <use xlink:href="#m4c4ed51a6a" x="200.903125" y="223.375119" style="fill: #6acc65; fill-opacity: 0.35"/>
     <use xlink:href="#m4c4ed51a6a" x="188.721268" y="166.586737" style="fill: #6acc65; fill-opacity: 0.35"/>
     <use xlink:href="#m4c4ed51a6a" x="204.135609" y="229.59736" style="fill: #6acc65; fill-opacity: 0.35"/>
     <use xlink:href="#m4c4ed51a6a" x="193.44289" y="229.847733" style="fill: #6acc65; fill-opacity: 0.35"/>
     <use xlink:href="#m4c4ed51a6a" x="203.785094" y="148.83805" style="fill: #6acc65; fill-opacity: 0.35"/>
     <use xlink:href="#m4c4ed51a6a" x="205.632963" y="237.822587" style="fill: #6acc65; fill-opacity: 0.35"/>
     <use xlink:href="#m4c4ed51a6a" x="206.77203" y="254.059762" style="fill: #6acc65; fill-opacity: 0.35"/>
     <use xlink:href="#m4c4ed51a6a" x="188.698439" y="215.613545" style="fill: #6acc65; fill-opacity: 0.35"/>
     <use xlink:href="#m4c4ed51a6a" x="210.801954" y="202.009928" style="fill: #6acc65; fill-opacity: 0.35"/>
     <use xlink:href="#m4c4ed51a6a" x="192.047669" y="212.210323" style="fill: #6acc65; fill-opacity: 0.35"/>
     <use xlink:href="#m4c4ed51a6a" x="186.775192" y="228.911151" style="fill: #6acc65; fill-opacity: 0.35"/>
     <use xlink:href="#m4c4ed51a6a" x="200.925449" y="245.417245" style="fill: #6acc65; fill-opacity: 0.35"/>
     <use xlink:href="#m4c4ed51a6a" x="195.895571" y="229.745729" style="fill: #6acc65; fill-opacity: 0.35"/>
     <use xlink:href="#m4c4ed51a6a" x="208.444067" y="99.542322" style="fill: #6acc65; fill-opacity: 0.35"/>
     <use xlink:href="#m4c4ed51a6a" x="207.855067" y="258.251197" style="fill: #6acc65; fill-opacity: 0.35"/>
     <use xlink:href="#m4c4ed51a6a" x="194.424775" y="220.259362" style="fill: #6acc65; fill-opacity: 0.35"/>
     <use xlink:href="#m4c4ed51a6a" x="211.810705" y="182.796092" style="fill: #6acc65; fill-opacity: 0.35"/>
     <use xlink:href="#m4c4ed51a6a" x="193.707716" y="193.562146" style="fill: #6acc65; fill-opacity: 0.35"/>
     <use xlink:href="#m4c4ed51a6a" x="199.837179" y="220.19445" style="fill: #6acc65; fill-opacity: 0.35"/>
     <use xlink:href="#m4c4ed51a6a" x="192.751875" y="210.225882" style="fill: #6acc65; fill-opacity: 0.35"/>
     <use xlink:href="#m4c4ed51a6a" x="211.349755" y="251.815675" style="fill: #6acc65; fill-opacity: 0.35"/>
     <use xlink:href="#m4c4ed51a6a" x="190.253558" y="233.111859" style="fill: #6acc65; fill-opacity: 0.35"/>
     <use xlink:href="#m4c4ed51a6a" x="186.980239" y="218.108006" style="fill: #6acc65; fill-opacity: 0.35"/>
     <use xlink:href="#m4c4ed51a6a" x="197.650538" y="208.899831" style="fill: #6acc65; fill-opacity: 0.35"/>
     <use xlink:href="#m4c4ed51a6a" x="212.890247" y="218.145098" style="fill: #6acc65; fill-opacity: 0.35"/>
     <use xlink:href="#m4c4ed51a6a" x="210.136484" y="220.676651" style="fill: #6acc65; fill-opacity: 0.35"/>
     <use xlink:href="#m4c4ed51a6a" x="206.224017" y="224.654805" style="fill: #6acc65; fill-opacity: 0.35"/>
     <use xlink:href="#m4c4ed51a6a" x="210.112289" y="248.115713" style="fill: #6acc65; fill-opacity: 0.35"/>
     <use xlink:href="#m4c4ed51a6a" x="210.184871" y="222.994922" style="fill: #6acc65; fill-opacity: 0.35"/>
     <use xlink:href="#m4c4ed51a6a" x="199.94113" y="256.934419" style="fill: #6acc65; fill-opacity: 0.35"/>
     <use xlink:href="#m4c4ed51a6a" x="194.39169" y="252.381333" style="fill: #6acc65; fill-opacity: 0.35"/>
     <use xlink:href="#m4c4ed51a6a" x="206.86405" y="253.855754" style="fill: #6acc65; fill-opacity: 0.35"/>
     <use xlink:href="#m4c4ed51a6a" x="203.846313" y="225.099913" style="fill: #6acc65; fill-opacity: 0.35"/>
     <use xlink:href="#m4c4ed51a6a" x="195.970377" y="219.118772" style="fill: #6acc65; fill-opacity: 0.35"/>
     <use xlink:href="#m4c4ed51a6a" x="188.335432" y="242.09748" style="fill: #6acc65; fill-opacity: 0.35"/>
     <use xlink:href="#m4c4ed51a6a" x="206.17429" y="265.474931" style="fill: #6acc65; fill-opacity: 0.35"/>
     <use xlink:href="#m4c4ed51a6a" x="192.929504" y="235.689778" style="fill: #6acc65; fill-opacity: 0.35"/>
     <use xlink:href="#m4c4ed51a6a" x="211.3708" y="225.832487" style="fill: #6acc65; fill-opacity: 0.35"/>
     <use xlink:href="#m4c4ed51a6a" x="192.341825" y="217.811267" style="fill: #6acc65; fill-opacity: 0.35"/>
     <use xlink:href="#m4c4ed51a6a" x="189.109104" y="262.13662" style="fill: #6acc65; fill-opacity: 0.35"/>
     <use xlink:href="#m4c4ed51a6a" x="208.480245" y="235.291035" style="fill: #6acc65; fill-opacity: 0.35"/>
     <use xlink:href="#m4c4ed51a6a" x="189.943898" y="256.813868" style="fill: #6acc65; fill-opacity: 0.35"/>
     <use xlink:href="#m4c4ed51a6a" x="190.654474" y="229.282075" style="fill: #6acc65; fill-opacity: 0.35"/>
     <use xlink:href="#m4c4ed51a6a" x="202.143205" y="211.607572" style="fill: #6acc65; fill-opacity: 0.35"/>
     <use xlink:href="#m4c4ed51a6a" x="209.66844" y="241.040348" style="fill: #6acc65; fill-opacity: 0.35"/>
     <use xlink:href="#m4c4ed51a6a" x="191.123917" y="171.056365" style="fill: #6acc65; fill-opacity: 0.35"/>
     <use xlink:href="#m4c4ed51a6a" x="194.238401" y="207.202856" style="fill: #6acc65; fill-opacity: 0.35"/>
    </g>
   </g>
   <g id="PathCollection_3">
    <defs>
     <path id="mde63a8934d" d="M 0 1.870829 
C 0.49615 1.870829 0.972045 1.673706 1.322876 1.322876 
C 1.673706 0.972045 1.870829 0.49615 1.870829 0 
C 1.870829 -0.49615 1.673706 -0.972045 1.322876 -1.322876 
C 0.972045 -1.673706 0.49615 -1.870829 0 -1.870829 
C -0.49615 -1.870829 -0.972045 -1.673706 -1.322876 -1.322876 
C -1.673706 -0.972045 -1.870829 -0.49615 -1.870829 0 
C -1.870829 0.49615 -1.673706 0.972045 -1.322876 1.322876 
C -0.972045 1.673706 -0.49615 1.870829 0 1.870829 
z
"/>
    </defs>
    <g clip-path="url(#p35e04008f3)">
     <use xlink:href="#mde63a8934d" x="304.678181" y="235.96797" style="fill: #d65f5f; fill-opacity: 0.35"/>
     <use xlink:href="#mde63a8934d" x="309.994963" y="260.022356" style="fill: #d65f5f; fill-opacity: 0.35"/>
     <use xlink:href="#mde63a8934d" x="297.112352" y="268.080669" style="fill: #d65f5f; fill-opacity: 0.35"/>
     <use xlink:href="#mde63a8934d" x="287.353867" y="193.682696" style="fill: #d65f5f; fill-opacity: 0.35"/>
     <use xlink:href="#mde63a8934d" x="283.799861" y="241.810015" style="fill: #d65f5f; fill-opacity: 0.35"/>
     <use xlink:href="#mde63a8934d" x="289.699077" y="248.449544" style="fill: #d65f5f; fill-opacity: 0.35"/>
     <use xlink:href="#mde63a8934d" x="287.023648" y="229.115159" style="fill: #d65f5f; fill-opacity: 0.35"/>
     <use xlink:href="#mde63a8934d" x="301.950456" y="268.052849" style="fill: #d65f5f; fill-opacity: 0.35"/>
     <use xlink:href="#mde63a8934d" x="286.750463" y="260.207818" style="fill: #d65f5f; fill-opacity: 0.35"/>
     <use xlink:href="#mde63a8934d" x="297.265186" y="238.935358" style="fill: #d65f5f; fill-opacity: 0.35"/>
     <use xlink:href="#mde63a8934d" x="302.404513" y="230.802861" style="fill: #d65f5f; fill-opacity: 0.35"/>
     <use xlink:href="#mde63a8934d" x="299.310352" y="236.607813" style="fill: #d65f5f; fill-opacity: 0.35"/>
     <use xlink:href="#mde63a8934d" x="288.881948" y="256.962238" style="fill: #d65f5f; fill-opacity: 0.35"/>
     <use xlink:href="#mde63a8934d" x="305.408875" y="185.160729" style="fill: #d65f5f; fill-opacity: 0.35"/>
     <use xlink:href="#mde63a8934d" x="302.98275" y="257.982277" style="fill: #d65f5f; fill-opacity: 0.35"/>
     <use xlink:href="#mde63a8934d" x="303.627499" y="248.245537" style="fill: #d65f5f; fill-opacity: 0.35"/>
     <use xlink:href="#mde63a8934d" x="287.002743" y="270.204205" style="fill: #d65f5f; fill-opacity: 0.35"/>
     <use xlink:href="#mde63a8934d" x="286.803004" y="256.702591" style="fill: #d65f5f; fill-opacity: 0.35"/>
     <use xlink:href="#mde63a8934d" x="308.784494" y="232.509109" style="fill: #d65f5f; fill-opacity: 0.35"/>
     <use xlink:href="#mde63a8934d" x="294.291188" y="222.512722" style="fill: #d65f5f; fill-opacity: 0.35"/>
     <use xlink:href="#mde63a8934d" x="291.648694" y="275.471318" style="fill: #d65f5f; fill-opacity: 0.35"/>
     <use xlink:href="#mde63a8934d" x="296.779895" y="269.91674" style="fill: #d65f5f; fill-opacity: 0.35"/>
     <use xlink:href="#mde63a8934d" x="301.545877" y="264.556896" style="fill: #d65f5f; fill-opacity: 0.35"/>
     <use xlink:href="#mde63a8934d" x="309.551861" y="221.622505" style="fill: #d65f5f; fill-opacity: 0.35"/>
     <use xlink:href="#mde63a8934d" x="291.252099" y="245.472884" style="fill: #d65f5f; fill-opacity: 0.35"/>
     <use xlink:href="#mde63a8934d" x="308.709178" y="240.511782" style="fill: #d65f5f; fill-opacity: 0.35"/>
     <use xlink:href="#mde63a8934d" x="284.098574" y="260.217091" style="fill: #d65f5f; fill-opacity: 0.35"/>
     <use xlink:href="#mde63a8934d" x="298.601566" y="270.232025" style="fill: #d65f5f; fill-opacity: 0.35"/>
     <use xlink:href="#mde63a8934d" x="300.755856" y="257.073515" style="fill: #d65f5f; fill-opacity: 0.35"/>
     <use xlink:href="#mde63a8934d" x="286.314691" y="213.0449" style="fill: #d65f5f; fill-opacity: 0.35"/>
     <use xlink:href="#mde63a8934d" x="287.25657" y="213.814567" style="fill: #d65f5f; fill-opacity: 0.35"/>
     <use xlink:href="#mde63a8934d" x="294.88013" y="270.890414" style="fill: #d65f5f; fill-opacity: 0.35"/>
     <use xlink:href="#mde63a8934d" x="309.841972" y="259.345421" style="fill: #d65f5f; fill-opacity: 0.35"/>
     <use xlink:href="#mde63a8934d" x="299.718527" y="265.104008" style="fill: #d65f5f; fill-opacity: 0.35"/>
     <use xlink:href="#mde63a8934d" x="308.933825" y="249.951784" style="fill: #d65f5f; fill-opacity: 0.35"/>
     <use xlink:href="#mde63a8934d" x="305.41534" y="238.174965" style="fill: #d65f5f; fill-opacity: 0.35"/>
     <use xlink:href="#mde63a8934d" x="296.200079" y="252.724437" style="fill: #d65f5f; fill-opacity: 0.35"/>
     <use xlink:href="#mde63a8934d" x="304.879414" y="267.39446" style="fill: #d65f5f; fill-opacity: 0.35"/>
     <use xlink:href="#mde63a8934d" x="283.906527" y="272.902673" style="fill: #d65f5f; fill-opacity: 0.35"/>
     <use xlink:href="#mde63a8934d" x="286.403474" y="259.224871" style="fill: #d65f5f; fill-opacity: 0.35"/>
     <use xlink:href="#mde63a8934d" x="306.100858" y="237.702037" style="fill: #d65f5f; fill-opacity: 0.35"/>
     <use xlink:href="#mde63a8934d" x="305.209041" y="275.684599" style="fill: #d65f5f; fill-opacity: 0.35"/>
     <use xlink:href="#mde63a8934d" x="289.780699" y="213.564193" style="fill: #d65f5f; fill-opacity: 0.35"/>
     <use xlink:href="#mde63a8934d" x="297.933529" y="244.999956" style="fill: #d65f5f; fill-opacity: 0.35"/>
     <use xlink:href="#mde63a8934d" x="299.991263" y="256.211118" style="fill: #d65f5f; fill-opacity: 0.35"/>
     <use xlink:href="#mde63a8934d" x="307.148518" y="262.312809" style="fill: #d65f5f; fill-opacity: 0.35"/>
     <use xlink:href="#mde63a8934d" x="299.91172" y="219.786434" style="fill: #d65f5f; fill-opacity: 0.35"/>
     <use xlink:href="#mde63a8934d" x="294.701207" y="275.14676" style="fill: #d65f5f; fill-opacity: 0.35"/>
     <use xlink:href="#mde63a8934d" x="293.651436" y="264.547623" style="fill: #d65f5f; fill-opacity: 0.35"/>
     <use xlink:href="#mde63a8934d" x="295.065205" y="247.364593" style="fill: #d65f5f; fill-opacity: 0.35"/>
     <use xlink:href="#mde63a8934d" x="301.24689" y="224.098419" style="fill: #d65f5f; fill-opacity: 0.35"/>
     <use xlink:href="#mde63a8934d" x="307.141727" y="257.89882" style="fill: #d65f5f; fill-opacity: 0.35"/>
     <use xlink:href="#mde63a8934d" x="295.831317" y="228.085847" style="fill: #d65f5f; fill-opacity: 0.35"/>
     <use xlink:href="#mde63a8934d" x="290.196336" y="266.64334" style="fill: #d65f5f; fill-opacity: 0.35"/>
     <use xlink:href="#mde63a8934d" x="289.890677" y="227.121446" style="fill: #d65f5f; fill-opacity: 0.35"/>
     <use xlink:href="#mde63a8934d" x="303.819754" y="268.859608" style="fill: #d65f5f; fill-opacity: 0.35"/>
     <use xlink:href="#mde63a8934d" x="305.749184" y="233.371506" style="fill: #d65f5f; fill-opacity: 0.35"/>
     <use xlink:href="#mde63a8934d" x="286.297755" y="263.332848" style="fill: #d65f5f; fill-opacity: 0.35"/>
     <use xlink:href="#mde63a8934d" x="285.238913" y="191.160416" style="fill: #d65f5f; fill-opacity: 0.35"/>
     <use xlink:href="#mde63a8934d" x="299.674529" y="262.563182" style="fill: #d65f5f; fill-opacity: 0.35"/>
     <use xlink:href="#mde63a8934d" x="287.416101" y="261.728604" style="fill: #d65f5f; fill-opacity: 0.35"/>
     <use xlink:href="#mde63a8934d" x="305.970567" y="250.637993" style="fill: #d65f5f; fill-opacity: 0.35"/>
     <use xlink:href="#mde63a8934d" x="291.905369" y="257.555715" style="fill: #d65f5f; fill-opacity: 0.35"/>
     <use xlink:href="#mde63a8934d" x="287.353168" y="267.867388" style="fill: #d65f5f; fill-opacity: 0.35"/>
     <use xlink:href="#mde63a8934d" x="308.604223" y="237.10856" style="fill: #d65f5f; fill-opacity: 0.35"/>
     <use xlink:href="#mde63a8934d" x="287.945491" y="271.641534" style="fill: #d65f5f; fill-opacity: 0.35"/>
     <use xlink:href="#mde63a8934d" x="291.204895" y="264.575442" style="fill: #d65f5f; fill-opacity: 0.35"/>
     <use xlink:href="#mde63a8934d" x="287.619564" y="254.875793" style="fill: #d65f5f; fill-opacity: 0.35"/>
     <use xlink:href="#mde63a8934d" x="286.577018" y="264.297249" style="fill: #d65f5f; fill-opacity: 0.35"/>
     <use xlink:href="#mde63a8934d" x="283.997078" y="238.10078" style="fill: #d65f5f; fill-opacity: 0.35"/>
     <use xlink:href="#mde63a8934d" x="284.93363" y="243.312255" style="fill: #d65f5f; fill-opacity: 0.35"/>
     <use xlink:href="#mde63a8934d" x="288.194612" y="272.819216" style="fill: #d65f5f; fill-opacity: 0.35"/>
     <use xlink:href="#mde63a8934d" x="284.878568" y="261.561689" style="fill: #d65f5f; fill-opacity: 0.35"/>
     <use xlink:href="#mde63a8934d" x="299.584563" y="224.0706" style="fill: #d65f5f; fill-opacity: 0.35"/>
     <use xlink:href="#mde63a8934d" x="302.034023" y="241.578187" style="fill: #d65f5f; fill-opacity: 0.35"/>
     <use xlink:href="#mde63a8934d" x="294.183231" y="254.486324" style="fill: #d65f5f; fill-opacity: 0.35"/>
     <use xlink:href="#mde63a8934d" x="292.114747" y="214.176217" style="fill: #d65f5f; fill-opacity: 0.35"/>
     <use xlink:href="#mde63a8934d" x="297.215861" y="203.734722" style="fill: #d65f5f; fill-opacity: 0.35"/>
     <use xlink:href="#mde63a8934d" x="307.347218" y="242.867146" style="fill: #d65f5f; fill-opacity: 0.35"/>
     <use xlink:href="#mde63a8934d" x="306.694363" y="264.75163" style="fill: #d65f5f; fill-opacity: 0.35"/>
     <use xlink:href="#mde63a8934d" x="284.607648" y="268.813242" style="fill: #d65f5f; fill-opacity: 0.35"/>
     <use xlink:href="#mde63a8934d" x="288.382127" y="210.346432" style="fill: #d65f5f; fill-opacity: 0.35"/>
     <use xlink:href="#mde63a8934d" x="289.892933" y="245.8809" style="fill: #d65f5f; fill-opacity: 0.35"/>
     <use xlink:href="#mde63a8934d" x="290.238669" y="255.571275" style="fill: #d65f5f; fill-opacity: 0.35"/>
     <use xlink:href="#mde63a8934d" x="299.040059" y="244.749583" style="fill: #d65f5f; fill-opacity: 0.35"/>
     <use xlink:href="#mde63a8934d" x="294.80214" y="273.051043" style="fill: #d65f5f; fill-opacity: 0.35"/>
     <use xlink:href="#mde63a8934d" x="284.765686" y="235.430131" style="fill: #d65f5f; fill-opacity: 0.35"/>
     <use xlink:href="#mde63a8934d" x="293.635851" y="262.349901" style="fill: #d65f5f; fill-opacity: 0.35"/>
     <use xlink:href="#mde63a8934d" x="297.741647" y="274.66456" style="fill: #d65f5f; fill-opacity: 0.35"/>
     <use xlink:href="#mde63a8934d" x="286.199138" y="214.037121" style="fill: #d65f5f; fill-opacity: 0.35"/>
     <use xlink:href="#mde63a8934d" x="306.211063" y="273.412693" style="fill: #d65f5f; fill-opacity: 0.35"/>
     <use xlink:href="#mde63a8934d" x="284.839734" y="246.808208" style="fill: #d65f5f; fill-opacity: 0.35"/>
     <use xlink:href="#mde63a8934d" x="308.710092" y="250.406166" style="fill: #d65f5f; fill-opacity: 0.35"/>
     <use xlink:href="#mde63a8934d" x="286.129164" y="225.378105" style="fill: #d65f5f; fill-opacity: 0.35"/>
     <use xlink:href="#mde63a8934d" x="306.487713" y="284.336389" style="fill: #d65f5f; fill-opacity: 0.35"/>
     <use xlink:href="#mde63a8934d" x="308.103305" y="273.078862" style="fill: #d65f5f; fill-opacity: 0.35"/>
     <use xlink:href="#mde63a8934d" x="310.206743" y="263.601768" style="fill: #d65f5f; fill-opacity: 0.35"/>
     <use xlink:href="#mde63a8934d" x="305.351484" y="255.932925" style="fill: #d65f5f; fill-opacity: 0.35"/>
     <use xlink:href="#mde63a8934d" x="304.734862" y="261.756424" style="fill: #d65f5f; fill-opacity: 0.35"/>
     <use xlink:href="#mde63a8934d" x="300.988526" y="271.604441" style="fill: #d65f5f; fill-opacity: 0.35"/>
    </g>
   </g>
   <g id="PathCollection_4">
    <defs>
     <path id="m09c8ba7a25" d="M 0 1.870829 
C 0.49615 1.870829 0.972045 1.673706 1.322876 1.322876 
C 1.673706 0.972045 1.870829 0.49615 1.870829 0 
C 1.870829 -0.49615 1.673706 -0.972045 1.322876 -1.322876 
C 0.972045 -1.673706 0.49615 -1.870829 0 -1.870829 
C -0.49615 -1.870829 -0.972045 -1.673706 -1.322876 -1.322876 
C -1.673706 -0.972045 -1.870829 -0.49615 -1.870829 0 
C -1.870829 0.49615 -1.673706 0.972045 -1.322876 1.322876 
C -0.972045 1.673706 -0.49615 1.870829 0 1.870829 
z
"/>
    </defs>
    <g clip-path="url(#p35e04008f3)">
     <use xlink:href="#m09c8ba7a25" x="402.38837" y="277.121928" style="fill: #b47cc7; fill-opacity: 0.35"/>
     <use xlink:href="#m09c8ba7a25" x="384.764971" y="276.157527" style="fill: #b47cc7; fill-opacity: 0.35"/>
     <use xlink:href="#m09c8ba7a25" x="395.745091" y="286.812303" style="fill: #b47cc7; fill-opacity: 0.35"/>
     <use xlink:href="#m09c8ba7a25" x="395.147698" y="250.582354" style="fill: #b47cc7; fill-opacity: 0.35"/>
     <use xlink:href="#m09c8ba7a25" x="404.537156" y="289.779691" style="fill: #b47cc7; fill-opacity: 0.35"/>
     <use xlink:href="#m09c8ba7a25" x="393.741437" y="275.128214" style="fill: #b47cc7; fill-opacity: 0.35"/>
     <use xlink:href="#m09c8ba7a25" x="391.616331" y="253.12318" style="fill: #b47cc7; fill-opacity: 0.35"/>
     <use xlink:href="#m09c8ba7a25" x="398.57534" y="274.006171" style="fill: #b47cc7; fill-opacity: 0.35"/>
     <use xlink:href="#m09c8ba7a25" x="388.3723" y="279.208372" style="fill: #b47cc7; fill-opacity: 0.35"/>
     <use xlink:href="#m09c8ba7a25" x="384.907617" y="273.579609" style="fill: #b47cc7; fill-opacity: 0.35"/>
     <use xlink:href="#m09c8ba7a25" x="394.153767" y="271.78063" style="fill: #b47cc7; fill-opacity: 0.35"/>
     <use xlink:href="#m09c8ba7a25" x="392.485951" y="261.978978" style="fill: #b47cc7; fill-opacity: 0.35"/>
     <use xlink:href="#m09c8ba7a25" x="387.445429" y="262.897013" style="fill: #b47cc7; fill-opacity: 0.35"/>
     <use xlink:href="#m09c8ba7a25" x="391.13564" y="275.591869" style="fill: #b47cc7; fill-opacity: 0.35"/>
     <use xlink:href="#m09c8ba7a25" x="391.105029" y="274.358548" style="fill: #b47cc7; fill-opacity: 0.35"/>
     <use xlink:href="#m09c8ba7a25" x="390.041329" y="277.520671" style="fill: #b47cc7; fill-opacity: 0.35"/>
     <use xlink:href="#m09c8ba7a25" x="391.462494" y="278.846722" style="fill: #b47cc7; fill-opacity: 0.35"/>
     <use xlink:href="#m09c8ba7a25" x="399.838211" y="276.092615" style="fill: #b47cc7; fill-opacity: 0.35"/>
     <use xlink:href="#m09c8ba7a25" x="389.203999" y="267.978665" style="fill: #b47cc7; fill-opacity: 0.35"/>
     <use xlink:href="#m09c8ba7a25" x="407.033518" y="270.269117" style="fill: #b47cc7; fill-opacity: 0.35"/>
     <use xlink:href="#m09c8ba7a25" x="406.144481" y="268.831789" style="fill: #b47cc7; fill-opacity: 0.35"/>
     <use xlink:href="#m09c8ba7a25" x="394.236714" y="287.94362" style="fill: #b47cc7; fill-opacity: 0.35"/>
     <use xlink:href="#m09c8ba7a25" x="390.065001" y="275.842242" style="fill: #b47cc7; fill-opacity: 0.35"/>
     <use xlink:href="#m09c8ba7a25" x="395.727773" y="262.49827" style="fill: #b47cc7; fill-opacity: 0.35"/>
     <use xlink:href="#m09c8ba7a25" x="404.290717" y="225.461563" style="fill: #b47cc7; fill-opacity: 0.35"/>
     <use xlink:href="#m09c8ba7a25" x="398.931505" y="286.033364" style="fill: #b47cc7; fill-opacity: 0.35"/>
     <use xlink:href="#m09c8ba7a25" x="403.082852" y="270.575129" style="fill: #b47cc7; fill-opacity: 0.35"/>
     <use xlink:href="#m09c8ba7a25" x="395.653595" y="280.784797" style="fill: #b47cc7; fill-opacity: 0.35"/>
     <use xlink:href="#m09c8ba7a25" x="398.393604" y="271.41898" style="fill: #b47cc7; fill-opacity: 0.35"/>
     <use xlink:href="#m09c8ba7a25" x="388.965512" y="277.808136" style="fill: #b47cc7; fill-opacity: 0.35"/>
     <use xlink:href="#m09c8ba7a25" x="401.182295" y="272.911947" style="fill: #b47cc7; fill-opacity: 0.35"/>
     <use xlink:href="#m09c8ba7a25" x="386.620508" y="273.459059" style="fill: #b47cc7; fill-opacity: 0.35"/>
     <use xlink:href="#m09c8ba7a25" x="400.085829" y="273.088135" style="fill: #b47cc7; fill-opacity: 0.35"/>
     <use xlink:href="#m09c8ba7a25" x="404.623214" y="267.171906" style="fill: #b47cc7; fill-opacity: 0.35"/>
     <use xlink:href="#m09c8ba7a25" x="384.697989" y="274.061809" style="fill: #b47cc7; fill-opacity: 0.35"/>
     <use xlink:href="#m09c8ba7a25" x="397.886655" y="247.151312" style="fill: #b47cc7; fill-opacity: 0.35"/>
     <use xlink:href="#m09c8ba7a25" x="383.685968" y="276.380081" style="fill: #b47cc7; fill-opacity: 0.35"/>
     <use xlink:href="#m09c8ba7a25" x="400.93132" y="265.252377" style="fill: #b47cc7; fill-opacity: 0.35"/>
     <use xlink:href="#m09c8ba7a25" x="383.396025" y="272.4112" style="fill: #b47cc7; fill-opacity: 0.35"/>
     <use xlink:href="#m09c8ba7a25" x="406.680251" y="260.365461" style="fill: #b47cc7; fill-opacity: 0.35"/>
     <use xlink:href="#m09c8ba7a25" x="384.843066" y="287.730339" style="fill: #b47cc7; fill-opacity: 0.35"/>
     <use xlink:href="#m09c8ba7a25" x="407.307595" y="276.992105" style="fill: #b47cc7; fill-opacity: 0.35"/>
     <use xlink:href="#m09c8ba7a25" x="402.986929" y="270.732771" style="fill: #b47cc7; fill-opacity: 0.35"/>
     <use xlink:href="#m09c8ba7a25" x="397.320641" y="280.636428" style="fill: #b47cc7; fill-opacity: 0.35"/>
     <use xlink:href="#m09c8ba7a25" x="402.487577" y="275.721692" style="fill: #b47cc7; fill-opacity: 0.35"/>
     <use xlink:href="#m09c8ba7a25" x="402.829157" y="263.295756" style="fill: #b47cc7; fill-opacity: 0.35"/>
     <use xlink:href="#m09c8ba7a25" x="406.956103" y="261.181492" style="fill: #b47cc7; fill-opacity: 0.35"/>
     <use xlink:href="#m09c8ba7a25" x="388.014607" y="272.689392" style="fill: #b47cc7; fill-opacity: 0.35"/>
     <use xlink:href="#m09c8ba7a25" x="397.222025" y="267.830295" style="fill: #b47cc7; fill-opacity: 0.35"/>
     <use xlink:href="#m09c8ba7a25" x="383.684695" y="256.099841" style="fill: #b47cc7; fill-opacity: 0.35"/>
     <use xlink:href="#m09c8ba7a25" x="397.935495" y="276.880828" style="fill: #b47cc7; fill-opacity: 0.35"/>
     <use xlink:href="#m09c8ba7a25" x="385.769663" y="280.28405" style="fill: #b47cc7; fill-opacity: 0.35"/>
     <use xlink:href="#m09c8ba7a25" x="396.534933" y="259.271236" style="fill: #b47cc7; fill-opacity: 0.35"/>
     <use xlink:href="#m09c8ba7a25" x="396.739483" y="253.076815" style="fill: #b47cc7; fill-opacity: 0.35"/>
     <use xlink:href="#m09c8ba7a25" x="393.828557" y="282.29631" style="fill: #b47cc7; fill-opacity: 0.35"/>
     <use xlink:href="#m09c8ba7a25" x="395.377654" y="245.806715" style="fill: #b47cc7; fill-opacity: 0.35"/>
     <use xlink:href="#m09c8ba7a25" x="401.976175" y="255.932925" style="fill: #b47cc7; fill-opacity: 0.35"/>
     <use xlink:href="#m09c8ba7a25" x="402.942096" y="246.530016" style="fill: #b47cc7; fill-opacity: 0.35"/>
     <use xlink:href="#m09c8ba7a25" x="394.544167" y="266.652613" style="fill: #b47cc7; fill-opacity: 0.35"/>
     <use xlink:href="#m09c8ba7a25" x="397.482299" y="262.711551" style="fill: #b47cc7; fill-opacity: 0.35"/>
     <use xlink:href="#m09c8ba7a25" x="406.551624" y="268.395953" style="fill: #b47cc7; fill-opacity: 0.35"/>
     <use xlink:href="#m09c8ba7a25" x="384.359731" y="266.754617" style="fill: #b47cc7; fill-opacity: 0.35"/>
     <use xlink:href="#m09c8ba7a25" x="384.287809" y="267.088448" style="fill: #b47cc7; fill-opacity: 0.35"/>
     <use xlink:href="#m09c8ba7a25" x="383.483966" y="268.043576" style="fill: #b47cc7; fill-opacity: 0.35"/>
     <use xlink:href="#m09c8ba7a25" x="399.075785" y="271.252064" style="fill: #b47cc7; fill-opacity: 0.35"/>
     <use xlink:href="#m09c8ba7a25" x="392.532958" y="278.29961" style="fill: #b47cc7; fill-opacity: 0.35"/>
     <use xlink:href="#m09c8ba7a25" x="402.260526" y="277.956506" style="fill: #b47cc7; fill-opacity: 0.35"/>
     <use xlink:href="#m09c8ba7a25" x="399.441358" y="286.469199" style="fill: #b47cc7; fill-opacity: 0.35"/>
     <use xlink:href="#m09c8ba7a25" x="390.209297" y="256.433672" style="fill: #b47cc7; fill-opacity: 0.35"/>
     <use xlink:href="#m09c8ba7a25" x="405.652747" y="255.728917" style="fill: #b47cc7; fill-opacity: 0.35"/>
     <use xlink:href="#m09c8ba7a25" x="401.938129" y="284.021104" style="fill: #b47cc7; fill-opacity: 0.35"/>
     <use xlink:href="#m09c8ba7a25" x="388.483646" y="230.431938" style="fill: #b47cc7; fill-opacity: 0.35"/>
     <use xlink:href="#m09c8ba7a25" x="391.044854" y="251.008916" style="fill: #b47cc7; fill-opacity: 0.35"/>
     <use xlink:href="#m09c8ba7a25" x="389.684302" y="274.469825" style="fill: #b47cc7; fill-opacity: 0.35"/>
     <use xlink:href="#m09c8ba7a25" x="385.39557" y="269.323262" style="fill: #b47cc7; fill-opacity: 0.35"/>
     <use xlink:href="#m09c8ba7a25" x="385.126799" y="267.15336" style="fill: #b47cc7; fill-opacity: 0.35"/>
     <use xlink:href="#m09c8ba7a25" x="406.685382" y="267.190452" style="fill: #b47cc7; fill-opacity: 0.35"/>
     <use xlink:href="#m09c8ba7a25" x="393.060632" y="230.385572" style="fill: #b47cc7; fill-opacity: 0.35"/>
     <use xlink:href="#m09c8ba7a25" x="391.567936" y="267.960118" style="fill: #b47cc7; fill-opacity: 0.35"/>
     <use xlink:href="#m09c8ba7a25" x="401.039889" y="263.750137" style="fill: #b47cc7; fill-opacity: 0.35"/>
     <use xlink:href="#m09c8ba7a25" x="396.207934" y="281.54519" style="fill: #b47cc7; fill-opacity: 0.35"/>
     <use xlink:href="#m09c8ba7a25" x="406.685725" y="282.945426" style="fill: #b47cc7; fill-opacity: 0.35"/>
     <use xlink:href="#m09c8ba7a25" x="402.424062" y="273.04177" style="fill: #b47cc7; fill-opacity: 0.35"/>
     <use xlink:href="#m09c8ba7a25" x="394.194576" y="277.845229" style="fill: #b47cc7; fill-opacity: 0.35"/>
     <use xlink:href="#m09c8ba7a25" x="391.377594" y="275.972065" style="fill: #b47cc7; fill-opacity: 0.35"/>
     <use xlink:href="#m09c8ba7a25" x="408.066501" y="278.911633" style="fill: #b47cc7; fill-opacity: 0.35"/>
     <use xlink:href="#m09c8ba7a25" x="400.713767" y="268.53505" style="fill: #b47cc7; fill-opacity: 0.35"/>
     <use xlink:href="#m09c8ba7a25" x="407.09742" y="280.933166" style="fill: #b47cc7; fill-opacity: 0.35"/>
     <use xlink:href="#m09c8ba7a25" x="384.325411" y="271.048056" style="fill: #b47cc7; fill-opacity: 0.35"/>
     <use xlink:href="#m09c8ba7a25" x="404.344678" y="242.273669" style="fill: #b47cc7; fill-opacity: 0.35"/>
     <use xlink:href="#m09c8ba7a25" x="398.507264" y="279.477292" style="fill: #b47cc7; fill-opacity: 0.35"/>
     <use xlink:href="#m09c8ba7a25" x="384.419568" y="270.055836" style="fill: #b47cc7; fill-opacity: 0.35"/>
     <use xlink:href="#m09c8ba7a25" x="397.172312" y="282.231398" style="fill: #b47cc7; fill-opacity: 0.35"/>
     <use xlink:href="#m09c8ba7a25" x="399.847865" y="278.995091" style="fill: #b47cc7; fill-opacity: 0.35"/>
     <use xlink:href="#m09c8ba7a25" x="381.421854" y="249.015203" style="fill: #b47cc7; fill-opacity: 0.35"/>
     <use xlink:href="#m09c8ba7a25" x="393.509499" y="264.065422" style="fill: #b47cc7; fill-opacity: 0.35"/>
     <use xlink:href="#m09c8ba7a25" x="403.657342" y="275.944246" style="fill: #b47cc7; fill-opacity: 0.35"/>
     <use xlink:href="#m09c8ba7a25" x="389.162501" y="270.964598" style="fill: #b47cc7; fill-opacity: 0.35"/>
     <use xlink:href="#m09c8ba7a25" x="393.625178" y="275.619688" style="fill: #b47cc7; fill-opacity: 0.35"/>
     <use xlink:href="#m09c8ba7a25" x="393.181234" y="267.66338" style="fill: #b47cc7; fill-opacity: 0.35"/>
    </g>
   </g>
   <g id="text_13">
    <!-- *** -->
    <g style="fill: #333333" transform="translate(144.592083 58.866698) scale(0.08 -0.08)">
     <defs>
      <path id="DejaVuSans-2a" d="M 3009 3897 
L 1888 3291 
L 3009 2681 
L 2828 2375 
L 1778 3009 
L 1778 1831 
L 1422 1831 
L 1422 3009 
L 372 2375 
L 191 2681 
L 1313 3291 
L 191 3897 
L 372 4206 
L 1422 3572 
L 1422 4750 
L 1778 4750 
L 1778 3572 
L 2828 4206 
L 3009 3897 
z
" transform="scale(0.015625)"/>
     </defs>
     <use xlink:href="#DejaVuSans-2a"/>
     <use xlink:href="#DejaVuSans-2a" transform="translate(50 0)"/>
     <use xlink:href="#DejaVuSans-2a" transform="translate(100 0)"/>
    </g>
   </g>
   <g id="text_14">
    <!-- *** -->
    <g style="fill: #333333" transform="translate(193.425417 38.465907) scale(0.08 -0.08)">
     <use xlink:href="#DejaVuSans-2a"/>
     <use xlink:href="#DejaVuSans-2a" transform="translate(50 0)"/>
     <use xlink:href="#DejaVuSans-2a" transform="translate(100 0)"/>
    </g>
   </g>
   <g id="text_15">
    <!-- *** -->
    <g style="fill: #333333" transform="translate(242.25875 18.065117) scale(0.08 -0.08)">
     <use xlink:href="#DejaVuSans-2a"/>
     <use xlink:href="#DejaVuSans-2a" transform="translate(50 0)"/>
     <use xlink:href="#DejaVuSans-2a" transform="translate(100 0)"/>
    </g>
   </g>
   <g id="PathCollection_5">
    <defs>
     <path id="m2e08eb9c73" d="M 0 3.162278 
C 0.838646 3.162278 1.643056 2.82908 2.236068 2.236068 
C 2.82908 1.643056 3.162278 0.838646 3.162278 0 
C 3.162278 -0.838646 2.82908 -1.643056 2.236068 -2.236068 
C 1.643056 -2.82908 0.838646 -3.162278 0 -3.162278 
C -0.838646 -3.162278 -1.643056 -2.82908 -2.236068 -2.236068 
C -2.82908 -1.643056 -3.162278 -0.838646 -3.162278 0 
C -3.162278 0.838646 -2.82908 1.643056 -2.236068 2.236068 
C -1.643056 2.82908 -0.838646 3.162278 0 3.162278 
z
" style="stroke: #4878cf; stroke-width: 1.8"/>
    </defs>
    <g clip-path="url(#p35e04008f3)">
     <use xlink:href="#m2e08eb9c73" x="101.75875" y="215.200893" style="fill: #ffffff; stroke: #4878cf; stroke-width: 1.8"/>
    </g>
   </g>
   <g id="PathCollection_6">
    <defs>
     <path id="m654beecd2f" d="M 0 3.162278 
C 0.838646 3.162278 1.643056 2.82908 2.236068 2.236068 
C 2.82908 1.643056 3.162278 0.838646 3.162278 0 
C 3.162278 -0.838646 2.82908 -1.643056 2.236068 -2.236068 
C 1.643056 -2.82908 0.838646 -3.162278 0 -3.162278 
C -0.838646 -3.162278 -1.643056 -2.82908 -2.236068 -2.236068 
C -2.82908 -1.643056 -3.162278 -0.838646 -3.162278 0 
C -3.162278 0.838646 -2.82908 1.643056 -2.236068 2.236068 
C -1.643056 2.82908 -0.838646 3.162278 0 3.162278 
z
" style="stroke: #6acc65; stroke-width: 1.8"/>
    </defs>
    <g clip-path="url(#p35e04008f3)">
     <use xlink:href="#m654beecd2f" x="199.425417" y="230.283568" style="fill: #ffffff; stroke: #6acc65; stroke-width: 1.8"/>
    </g>
   </g>
   <g id="PathCollection_7">
    <defs>
     <path id="m0e052f62ff" d="M 0 3.162278 
C 0.838646 3.162278 1.643056 2.82908 2.236068 2.236068 
C 2.82908 1.643056 3.162278 0.838646 3.162278 0 
C 3.162278 -0.838646 2.82908 -1.643056 2.236068 -2.236068 
C 1.643056 -2.82908 0.838646 -3.162278 0 -3.162278 
C -0.838646 -3.162278 -1.643056 -2.82908 -2.236068 -2.236068 
C -2.82908 -1.643056 -3.162278 -0.838646 -3.162278 0 
C -3.162278 0.838646 -2.82908 1.643056 -2.236068 2.236068 
C -1.643056 2.82908 -0.838646 3.162278 0 3.162278 
z
" style="stroke: #d65f5f; stroke-width: 1.8"/>
    </defs>
    <g clip-path="url(#p35e04008f3)">
     <use xlink:href="#m0e052f62ff" x="297.092083" y="255.7521" style="fill: #ffffff; stroke: #d65f5f; stroke-width: 1.8"/>
    </g>
   </g>
   <g id="PathCollection_8">
    <defs>
     <path id="m2a1438b188" d="M 0 3.162278 
C 0.838646 3.162278 1.643056 2.82908 2.236068 2.236068 
C 2.82908 1.643056 3.162278 0.838646 3.162278 0 
C 3.162278 -0.838646 2.82908 -1.643056 2.236068 -2.236068 
C 1.643056 -2.82908 0.838646 -3.162278 0 -3.162278 
C -0.838646 -3.162278 -1.643056 -2.82908 -2.236068 -2.236068 
C -2.82908 -1.643056 -3.162278 -0.838646 -3.162278 0 
C -3.162278 0.838646 -2.82908 1.643056 -2.236068 2.236068 
C -1.643056 2.82908 -0.838646 3.162278 0 3.162278 
z
" style="stroke: #b47cc7; stroke-width: 1.8"/>
    </defs>
    <g clip-path="url(#p35e04008f3)">
     <use xlink:href="#m2a1438b188" x="394.75875" y="271.599805" style="fill: #ffffff; stroke: #b47cc7; stroke-width: 1.8"/>
    </g>
   </g>
  </g>
 </g>
 <defs>
  <clipPath id="p35e04008f3">
   <rect x="43.15875" y="7.2" width="410.2" height="295.256"/>
  </clipPath>
 </defs>
</svg>
