<?xml version="1.0" encoding="utf-8" standalone="no"?>
<!DOCTYPE svg PUBLIC "-//W3C//DTD SVG 1.1//EN"
  "http://www.w3.org/Graphics/SVG/1.1/DTD/svg11.dtd">
<svg xmlns:xlink="http://www.w3.org/1999/xlink" width="423.708183pt" height="279.282188pt" viewBox="0 0 423.708183 279.282188" xmlns="http://www.w3.org/2000/svg" version="1.1">
 <metadata>
  <rdf:RDF xmlns:dc="http://purl.org/dc/elements/1.1/" xmlns:cc="http://creativecommons.org/ns#" xmlns:rdf="http://www.w3.org/1999/02/22-rdf-syntax-ns#">
   <cc:Work>
    <dc:type rdf:resource="http://purl.org/dc/dcmitype/StillImage"/>
    <dc:date>2026-05-25T00:42:46.818622</dc:date>
    <dc:format>image/svg+xml</dc:format>
    <dc:creator>
     <cc:Agent>
      <dc:title>Matplotlib v3.10.9, https://matplotlib.org/</dc:title>
     </cc:Agent>
    </dc:creator>
   </cc:Work>
  </rdf:RDF>
 </metadata>
 <defs>
  <style type="text/css">*{stroke-linejoin: round; stroke-linecap: butt}</style>
 </defs>
 <g id="figure_1">
  <g id="patch_1">
   <path d="M 0 279.282188 
L 423.708183 279.282188 
L 423.708183 0 
L 0 0 
z
" style="fill: #ffffff"/>
  </g>
  <g id="axes_1">
   <g id="patch_2">
    <path d="M 63.445938 240.758125 
L 403.919424 240.758125 
L 403.919424 22.318125 
L 63.445938 22.318125 
z
" style="fill: #ffffff"/>
   </g>
   <g id="FillBetweenPolyCollection_1">
    <defs>
     <path id="m8eb9196de6" d="M 66.569547 -247.034972 
L 66.569547 -239.605488 
L 72.816767 -235.981838 
L 79.063987 -227.16151 
L 85.311207 -220.208019 
L 91.558427 -213.291733 
L 97.805647 -209.260927 
L 104.052867 -208.747686 
L 110.300087 -200.501661 
L 116.547307 -197.566155 
L 122.794527 -190.623984 
L 129.041747 -186.246898 
L 135.288967 -182.38106 
L 141.536187 -170.568681 
L 147.783407 -176.874492 
L 154.030627 -172.134808 
L 160.277847 -169.127423 
L 166.525067 -156.019809 
L 172.772287 -152.523101 
L 179.019506 -154.557686 
L 185.266726 -153.438074 
L 191.513946 -155.833687 
L 197.761166 -150.654157 
L 204.008386 -151.309723 
L 210.255606 -143.182664 
L 216.502826 -146.277498 
L 222.750046 -146.277498 
L 228.997266 -139.478029 
L 235.244486 -148.63625 
L 241.491706 -143.455792 
L 247.738926 -144.260499 
L 253.986146 -134.995166 
L 260.233366 -133.471626 
L 266.480586 -134.606261 
L 272.727806 -133.104247 
L 278.975026 -137.567358 
L 285.222246 -134.606261 
L 291.469465 -129.978251 
L 297.716685 -125.368003 
L 303.963905 -129.12176 
L 310.211125 -136.466661 
L 316.458345 -125.261312 
L 322.705565 -129.433758 
L 328.952785 -130.09468 
L 335.200005 -119.305136 
L 341.447225 -128.756967 
L 347.694445 -134.518308 
L 353.941665 -116.66266 
L 360.188885 -124.23065 
L 366.436105 -124.90069 
L 372.683325 -123.003701 
L 372.683325 -134.22897 
L 372.683325 -134.22897 
L 366.436105 -139.976312 
L 360.188885 -139.002562 
L 353.941665 -129.433758 
L 347.694445 -146.207578 
L 341.447225 -140.218797 
L 335.200005 -134.430306 
L 328.952785 -144.036074 
L 322.705565 -143.740283 
L 316.458345 -138.305019 
L 310.211125 -148.176567 
L 303.963905 -139.587545 
L 297.716685 -139.964178 
L 291.469465 -141.881697 
L 285.222246 -145.518339 
L 278.975026 -147.727061 
L 272.727806 -146.556867 
L 266.480586 -144.62597 
L 260.233366 -143.823161 
L 253.986146 -145.506631 
L 247.738926 -155.460773 
L 241.491706 -152.780285 
L 235.244486 -160.431668 
L 228.997266 -150.676808 
L 222.750046 -156.576838 
L 216.502826 -158.892617 
L 210.255606 -156.805623 
L 204.008386 -162.806283 
L 197.761166 -162.428778 
L 191.513946 -164.607699 
L 185.266726 -164.866298 
L 179.019506 -165.124467 
L 172.772287 -165.176049 
L 166.525067 -167.976855 
L 160.277847 -178.700305 
L 154.030627 -181.992828 
L 147.783407 -186.49883 
L 141.536187 -180.952766 
L 135.288967 -190.702754 
L 129.041747 -196.271583 
L 122.794527 -199.38873 
L 116.547307 -206.559119 
L 110.300087 -209.035621 
L 104.052867 -214.976983 
L 97.805647 -216.8069 
L 91.558427 -219.664469 
L 85.311207 -227.982525 
L 79.063987 -233.717252 
L 72.816767 -241.427083 
L 66.569547 -247.034972 
z
" style="stroke: #4c72b0; stroke-opacity: 0.15"/>
    </defs>
    <g clip-path="url(#pcd41f05940)">
     <use xlink:href="#m8eb9196de6" x="0" y="279.282188" style="fill: #4c72b0; fill-opacity: 0.15; stroke: #4c72b0; stroke-opacity: 0.15"/>
    </g>
   </g>
   <g id="line2d_1">
    <path d="M 66.569547 35.917492 
L 72.816767 40.55384 
L 79.063987 48.808184 
L 85.311207 55.138225 
L 91.558427 62.77137 
L 97.805647 66.202403 
L 104.052867 67.388593 
L 110.300087 74.454879 
L 116.547307 77.154404 
L 122.794527 84.213948 
L 129.041747 87.941998 
L 135.288967 92.684495 
L 141.536187 103.434608 
L 147.783407 97.520913 
L 154.030627 102.14009 
L 160.277847 105.294506 
L 166.525067 117.168699 
L 172.772287 120.303666 
L 179.019506 119.351172 
L 185.266726 120.024804 
L 191.513946 118.999481 
L 197.761166 122.62905 
L 204.008386 122.117725 
L 210.255606 129.138575 
L 216.502826 126.568953 
L 222.750046 127.769575 
L 228.997266 134.103752 
L 235.244486 124.636164 
L 241.491706 131.094112 
L 247.738926 129.320508 
L 253.986146 138.942289 
L 260.233366 140.548481 
L 266.480586 139.585203 
L 272.727806 139.305876 
L 278.975026 136.551834 
L 285.222246 139.123976 
L 291.469465 143.238087 
L 297.716685 146.444518 
L 303.963905 144.839307 
L 310.211125 136.850127 
L 316.458345 147.361991 
L 322.705565 142.530327 
L 328.952785 142.060275 
L 335.200005 152.230231 
L 341.447225 144.688489 
L 347.694445 138.809188 
L 353.941665 156.102613 
L 360.188885 147.489847 
L 366.436105 146.660655 
L 372.683325 150.564357 
" clip-path="url(#pcd41f05940)" style="fill: none; stroke-dasharray: 5.92,2.56; stroke-dashoffset: 0; stroke: #4c72b0; stroke-width: 1.6"/>
   </g>
   <g id="matplotlib.axis_1">
    <g id="xtick_1">
     <g id="line2d_2">
      <path d="M 66.569547 240.758125 
L 66.569547 22.318125 
" clip-path="url(#pcd41f05940)" style="fill: none; stroke-dasharray: 0.6,0.99; stroke-dashoffset: 0; stroke: #b0b0b0; stroke-opacity: 0.7; stroke-width: 0.6"/>
     </g>
     <g id="line2d_3">
      <defs>
       <path id="ma7d5abc97f" d="M 0 0 
L 0 3.5 
" style="stroke: #000000; stroke-width: 0.8"/>
      </defs>
      <g>
       <use xlink:href="#ma7d5abc97f" x="66.569547" y="240.758125" style="stroke: #000000; stroke-width: 0.8"/>
      </g>
     </g>
     <g id="text_1">
      <!-- 0 -->
      <g transform="translate(63.388297 255.356563) scale(0.1 -0.1)">
       <defs>
        <path id="DejaVuSans-30" d="M 2034 4250 
Q 1547 4250 1301 3770 
Q 1056 3291 1056 2328 
Q 1056 1369 1301 889 
Q 1547 409 2034 409 
Q 2525 409 2770 889 
Q 3016 1369 3016 2328 
Q 3016 3291 2770 3770 
Q 2525 4250 2034 4250 
z
M 2034 4750 
Q 2819 4750 3233 4129 
Q 3647 3509 3647 2328 
Q 3647 1150 3233 529 
Q 2819 -91 2034 -91 
Q 1250 -91 836 529 
Q 422 1150 422 2328 
Q 422 3509 836 4129 
Q 1250 4750 2034 4750 
z
" transform="scale(0.015625)"/>
       </defs>
       <use xlink:href="#DejaVuSans-30"/>
      </g>
     </g>
    </g>
    <g id="xtick_2">
     <g id="line2d_4">
      <path d="M 129.041747 240.758125 
L 129.041747 22.318125 
" clip-path="url(#pcd41f05940)" style="fill: none; stroke-dasharray: 0.6,0.99; stroke-dashoffset: 0; stroke: #b0b0b0; stroke-opacity: 0.7; stroke-width: 0.6"/>
     </g>
     <g id="line2d_5">
      <g>
       <use xlink:href="#ma7d5abc97f" x="129.041747" y="240.758125" style="stroke: #000000; stroke-width: 0.8"/>
      </g>
     </g>
     <g id="text_2">
      <!-- 10 -->
      <g transform="translate(122.679247 255.356563) scale(0.1 -0.1)">
       <defs>
        <path id="DejaVuSans-31" d="M 794 531 
L 1825 531 
L 1825 4091 
L 703 3866 
L 703 4441 
L 1819 4666 
L 2450 4666 
L 2450 531 
L 3481 531 
L 3481 0 
L 794 0 
L 794 531 
z
" transform="scale(0.015625)"/>
       </defs>
       <use xlink:href="#DejaVuSans-31"/>
       <use xlink:href="#DejaVuSans-30" transform="translate(63.623047 0)"/>
      </g>
     </g>
    </g>
    <g id="xtick_3">
     <g id="line2d_6">
      <path d="M 191.513946 240.758125 
L 191.513946 22.318125 
" clip-path="url(#pcd41f05940)" style="fill: none; stroke-dasharray: 0.6,0.99; stroke-dashoffset: 0; stroke: #b0b0b0; stroke-opacity: 0.7; stroke-width: 0.6"/>
     </g>
     <g id="line2d_7">
      <g>
       <use xlink:href="#ma7d5abc97f" x="191.513946" y="240.758125" style="stroke: #000000; stroke-width: 0.8"/>
      </g>
     </g>
     <g id="text_3">
      <!-- 20 -->
      <g transform="translate(185.151446 255.356563) scale(0.1 -0.1)">
       <defs>
        <path id="DejaVuSans-32" d="M 1228 531 
L 3431 531 
L 3431 0 
L 469 0 
L 469 531 
Q 828 903 1448 1529 
Q 2069 2156 2228 2338 
Q 2531 2678 2651 2914 
Q 2772 3150 2772 3378 
Q 2772 3750 2511 3984 
Q 2250 4219 1831 4219 
Q 1534 4219 1204 4116 
Q 875 4013 500 3803 
L 500 4441 
Q 881 4594 1212 4672 
Q 1544 4750 1819 4750 
Q 2544 4750 2975 4387 
Q 3406 4025 3406 3419 
Q 3406 3131 3298 2873 
Q 3191 2616 2906 2266 
Q 2828 2175 2409 1742 
Q 1991 1309 1228 531 
z
" transform="scale(0.015625)"/>
       </defs>
       <use xlink:href="#DejaVuSans-32"/>
       <use xlink:href="#DejaVuSans-30" transform="translate(63.623047 0)"/>
      </g>
     </g>
    </g>
    <g id="xtick_4">
     <g id="line2d_8">
      <path d="M 253.986146 240.758125 
L 253.986146 22.318125 
" clip-path="url(#pcd41f05940)" style="fill: none; stroke-dasharray: 0.6,0.99; stroke-dashoffset: 0; stroke: #b0b0b0; stroke-opacity: 0.7; stroke-width: 0.6"/>
     </g>
     <g id="line2d_9">
      <g>
       <use xlink:href="#ma7d5abc97f" x="253.986146" y="240.758125" style="stroke: #000000; stroke-width: 0.8"/>
      </g>
     </g>
     <g id="text_4">
      <!-- 30 -->
      <g transform="translate(247.623646 255.356563) scale(0.1 -0.1)">
       <defs>
        <path id="DejaVuSans-33" d="M 2597 2516 
Q 3050 2419 3304 2112 
Q 3559 1806 3559 1356 
Q 3559 666 3084 287 
Q 2609 -91 1734 -91 
Q 1441 -91 1130 -33 
Q 819 25 488 141 
L 488 750 
Q 750 597 1062 519 
Q 1375 441 1716 441 
Q 2309 441 2620 675 
Q 2931 909 2931 1356 
Q 2931 1769 2642 2001 
Q 2353 2234 1838 2234 
L 1294 2234 
L 1294 2753 
L 1863 2753 
Q 2328 2753 2575 2939 
Q 2822 3125 2822 3475 
Q 2822 3834 2567 4026 
Q 2313 4219 1838 4219 
Q 1578 4219 1281 4162 
Q 984 4106 628 3988 
L 628 4550 
Q 988 4650 1302 4700 
Q 1616 4750 1894 4750 
Q 2613 4750 3031 4423 
Q 3450 4097 3450 3541 
Q 3450 3153 3228 2886 
Q 3006 2619 2597 2516 
z
" transform="scale(0.015625)"/>
       </defs>
       <use xlink:href="#DejaVuSans-33"/>
       <use xlink:href="#DejaVuSans-30" transform="translate(63.623047 0)"/>
      </g>
     </g>
    </g>
    <g id="xtick_5">
     <g id="line2d_10">
      <path d="M 316.458345 240.758125 
L 316.458345 22.318125 
" clip-path="url(#pcd41f05940)" style="fill: none; stroke-dasharray: 0.6,0.99; stroke-dashoffset: 0; stroke: #b0b0b0; stroke-opacity: 0.7; stroke-width: 0.6"/>
     </g>
     <g id="line2d_11">
      <g>
       <use xlink:href="#ma7d5abc97f" x="316.458345" y="240.758125" style="stroke: #000000; stroke-width: 0.8"/>
      </g>
     </g>
     <g id="text_5">
      <!-- 40 -->
      <g transform="translate(310.095845 255.356563) scale(0.1 -0.1)">
       <defs>
        <path id="DejaVuSans-34" d="M 2419 4116 
L 825 1625 
L 2419 1625 
L 2419 4116 
z
M 2253 4666 
L 3047 4666 
L 3047 1625 
L 3713 1625 
L 3713 1100 
L 3047 1100 
L 3047 0 
L 2419 0 
L 2419 1100 
L 313 1100 
L 313 1709 
L 2253 4666 
z
" transform="scale(0.015625)"/>
       </defs>
       <use xlink:href="#DejaVuSans-34"/>
       <use xlink:href="#DejaVuSans-30" transform="translate(63.623047 0)"/>
      </g>
     </g>
    </g>
    <g id="xtick_6">
     <g id="line2d_12">
      <path d="M 378.930545 240.758125 
L 378.930545 22.318125 
" clip-path="url(#pcd41f05940)" style="fill: none; stroke-dasharray: 0.6,0.99; stroke-dashoffset: 0; stroke: #b0b0b0; stroke-opacity: 0.7; stroke-width: 0.6"/>
     </g>
     <g id="line2d_13">
      <g>
       <use xlink:href="#ma7d5abc97f" x="378.930545" y="240.758125" style="stroke: #000000; stroke-width: 0.8"/>
      </g>
     </g>
     <g id="text_6">
      <!-- 50 -->
      <g transform="translate(372.568045 255.356563) scale(0.1 -0.1)">
       <defs>
        <path id="DejaVuSans-35" d="M 691 4666 
L 3169 4666 
L 3169 4134 
L 1269 4134 
L 1269 2991 
Q 1406 3038 1543 3061 
Q 1681 3084 1819 3084 
Q 2600 3084 3056 2656 
Q 3513 2228 3513 1497 
Q 3513 744 3044 326 
Q 2575 -91 1722 -91 
Q 1428 -91 1123 -41 
Q 819 9 494 109 
L 494 744 
Q 775 591 1075 516 
Q 1375 441 1709 441 
Q 2250 441 2565 725 
Q 2881 1009 2881 1497 
Q 2881 1984 2565 2268 
Q 2250 2553 1709 2553 
Q 1456 2553 1204 2497 
Q 953 2441 691 2322 
L 691 4666 
z
" transform="scale(0.015625)"/>
       </defs>
       <use xlink:href="#DejaVuSans-35"/>
       <use xlink:href="#DejaVuSans-30" transform="translate(63.623047 0)"/>
      </g>
     </g>
    </g>
    <g id="text_7">
     <!-- Training step -->
     <g transform="translate(198.339165 269.794531) scale(0.11 -0.11)">
      <defs>
       <path id="DejaVuSans-54" d="M -19 4666 
L 3928 4666 
L 3928 4134 
L 2272 4134 
L 2272 0 
L 1638 0 
L 1638 4134 
L -19 4134 
L -19 4666 
z
" transform="scale(0.015625)"/>
       <path id="DejaVuSans-72" d="M 2631 2963 
Q 2534 3019 2420 3045 
Q 2306 3072 2169 3072 
Q 1681 3072 1420 2755 
Q 1159 2438 1159 1844 
L 1159 0 
L 581 0 
L 581 3500 
L 1159 3500 
L 1159 2956 
Q 1341 3275 1631 3429 
Q 1922 3584 2338 3584 
Q 2397 3584 2469 3576 
Q 2541 3569 2628 3553 
L 2631 2963 
z
" transform="scale(0.015625)"/>
       <path id="DejaVuSans-61" d="M 2194 1759 
Q 1497 1759 1228 1600 
Q 959 1441 959 1056 
Q 959 750 1161 570 
Q 1363 391 1709 391 
Q 2188 391 2477 730 
Q 2766 1069 2766 1631 
L 2766 1759 
L 2194 1759 
z
M 3341 1997 
L 3341 0 
L 2766 0 
L 2766 531 
Q 2569 213 2275 61 
Q 1981 -91 1556 -91 
Q 1019 -91 701 211 
Q 384 513 384 1019 
Q 384 1609 779 1909 
Q 1175 2209 1959 2209 
L 2766 2209 
L 2766 2266 
Q 2766 2663 2505 2880 
Q 2244 3097 1772 3097 
Q 1472 3097 1187 3025 
Q 903 2953 641 2809 
L 641 3341 
Q 956 3463 1253 3523 
Q 1550 3584 1831 3584 
Q 2591 3584 2966 3190 
Q 3341 2797 3341 1997 
z
" transform="scale(0.015625)"/>
       <path id="DejaVuSans-69" d="M 603 3500 
L 1178 3500 
L 1178 0 
L 603 0 
L 603 3500 
z
M 603 4863 
L 1178 4863 
L 1178 4134 
L 603 4134 
L 603 4863 
z
" transform="scale(0.015625)"/>
       <path id="DejaVuSans-6e" d="M 3513 2113 
L 3513 0 
L 2938 0 
L 2938 2094 
Q 2938 2591 2744 2837 
Q 2550 3084 2163 3084 
Q 1697 3084 1428 2787 
Q 1159 2491 1159 1978 
L 1159 0 
L 581 0 
L 581 3500 
L 1159 3500 
L 1159 2956 
Q 1366 3272 1645 3428 
Q 1925 3584 2291 3584 
Q 2894 3584 3203 3211 
Q 3513 2838 3513 2113 
z
" transform="scale(0.015625)"/>
       <path id="DejaVuSans-67" d="M 2906 1791 
Q 2906 2416 2648 2759 
Q 2391 3103 1925 3103 
Q 1463 3103 1205 2759 
Q 947 2416 947 1791 
Q 947 1169 1205 825 
Q 1463 481 1925 481 
Q 2391 481 2648 825 
Q 2906 1169 2906 1791 
z
M 3481 434 
Q 3481 -459 3084 -895 
Q 2688 -1331 1869 -1331 
Q 1566 -1331 1297 -1286 
Q 1028 -1241 775 -1147 
L 775 -588 
Q 1028 -725 1275 -790 
Q 1522 -856 1778 -856 
Q 2344 -856 2625 -561 
Q 2906 -266 2906 331 
L 2906 616 
Q 2728 306 2450 153 
Q 2172 0 1784 0 
Q 1141 0 747 490 
Q 353 981 353 1791 
Q 353 2603 747 3093 
Q 1141 3584 1784 3584 
Q 2172 3584 2450 3431 
Q 2728 3278 2906 2969 
L 2906 3500 
L 3481 3500 
L 3481 434 
z
" transform="scale(0.015625)"/>
       <path id="DejaVuSans-20" transform="scale(0.015625)"/>
       <path id="DejaVuSans-73" d="M 2834 3397 
L 2834 2853 
Q 2591 2978 2328 3040 
Q 2066 3103 1784 3103 
Q 1356 3103 1142 2972 
Q 928 2841 928 2578 
Q 928 2378 1081 2264 
Q 1234 2150 1697 2047 
L 1894 2003 
Q 2506 1872 2764 1633 
Q 3022 1394 3022 966 
Q 3022 478 2636 193 
Q 2250 -91 1575 -91 
Q 1294 -91 989 -36 
Q 684 19 347 128 
L 347 722 
Q 666 556 975 473 
Q 1284 391 1588 391 
Q 1994 391 2212 530 
Q 2431 669 2431 922 
Q 2431 1156 2273 1281 
Q 2116 1406 1581 1522 
L 1381 1569 
Q 847 1681 609 1914 
Q 372 2147 372 2553 
Q 372 3047 722 3315 
Q 1072 3584 1716 3584 
Q 2034 3584 2315 3537 
Q 2597 3491 2834 3397 
z
" transform="scale(0.015625)"/>
       <path id="DejaVuSans-74" d="M 1172 4494 
L 1172 3500 
L 2356 3500 
L 2356 3053 
L 1172 3053 
L 1172 1153 
Q 1172 725 1289 603 
Q 1406 481 1766 481 
L 2356 481 
L 2356 0 
L 1766 0 
Q 1100 0 847 248 
Q 594 497 594 1153 
L 594 3053 
L 172 3053 
L 172 3500 
L 594 3500 
L 594 4494 
L 1172 4494 
z
" transform="scale(0.015625)"/>
       <path id="DejaVuSans-65" d="M 3597 1894 
L 3597 1613 
L 953 1613 
Q 991 1019 1311 708 
Q 1631 397 2203 397 
Q 2534 397 2845 478 
Q 3156 559 3463 722 
L 3463 178 
Q 3153 47 2828 -22 
Q 2503 -91 2169 -91 
Q 1331 -91 842 396 
Q 353 884 353 1716 
Q 353 2575 817 3079 
Q 1281 3584 2069 3584 
Q 2775 3584 3186 3129 
Q 3597 2675 3597 1894 
z
M 3022 2063 
Q 3016 2534 2758 2815 
Q 2500 3097 2075 3097 
Q 1594 3097 1305 2825 
Q 1016 2553 972 2059 
L 3022 2063 
z
" transform="scale(0.015625)"/>
       <path id="DejaVuSans-70" d="M 1159 525 
L 1159 -1331 
L 581 -1331 
L 581 3500 
L 1159 3500 
L 1159 2969 
Q 1341 3281 1617 3432 
Q 1894 3584 2278 3584 
Q 2916 3584 3314 3078 
Q 3713 2572 3713 1747 
Q 3713 922 3314 415 
Q 2916 -91 2278 -91 
Q 1894 -91 1617 61 
Q 1341 213 1159 525 
z
M 3116 1747 
Q 3116 2381 2855 2742 
Q 2594 3103 2138 3103 
Q 1681 3103 1420 2742 
Q 1159 2381 1159 1747 
Q 1159 1113 1420 752 
Q 1681 391 2138 391 
Q 2594 391 2855 752 
Q 3116 1113 3116 1747 
z
" transform="scale(0.015625)"/>
      </defs>
      <use xlink:href="#DejaVuSans-54"/>
      <use xlink:href="#DejaVuSans-72" transform="translate(46.333984 0)"/>
      <use xlink:href="#DejaVuSans-61" transform="translate(87.447266 0)"/>
      <use xlink:href="#DejaVuSans-69" transform="translate(148.726562 0)"/>
      <use xlink:href="#DejaVuSans-6e" transform="translate(176.509766 0)"/>
      <use xlink:href="#DejaVuSans-69" transform="translate(239.888672 0)"/>
      <use xlink:href="#DejaVuSans-6e" transform="translate(267.671875 0)"/>
      <use xlink:href="#DejaVuSans-67" transform="translate(331.050781 0)"/>
      <use xlink:href="#DejaVuSans-20" transform="translate(394.527344 0)"/>
      <use xlink:href="#DejaVuSans-73" transform="translate(426.314453 0)"/>
      <use xlink:href="#DejaVuSans-74" transform="translate(478.414062 0)"/>
      <use xlink:href="#DejaVuSans-65" transform="translate(517.623047 0)"/>
      <use xlink:href="#DejaVuSans-70" transform="translate(579.146484 0)"/>
     </g>
    </g>
   </g>
   <g id="matplotlib.axis_2">
    <g id="ytick_1">
     <g id="line2d_14">
      <path d="M 63.445938 177.449621 
L 403.919424 177.449621 
" clip-path="url(#pcd41f05940)" style="fill: none; stroke-dasharray: 0.6,0.99; stroke-dashoffset: 0; stroke: #b0b0b0; stroke-opacity: 0.7; stroke-width: 0.6"/>
     </g>
     <g id="line2d_15">
      <defs>
       <path id="m358c0bbbe4" d="M 0 0 
L -3.5 0 
" style="stroke: #000000; stroke-width: 0.8"/>
      </defs>
      <g>
       <use xlink:href="#m358c0bbbe4" x="63.445938" y="177.449621" style="stroke: #000000; stroke-width: 0.8"/>
      </g>
     </g>
     <g id="text_8">
      <!-- 1 -->
      <g transform="translate(50.083438 181.24884) scale(0.1 -0.1)">
       <use xlink:href="#DejaVuSans-31"/>
      </g>
     </g>
    </g>
    <g id="ytick_2">
     <g id="line2d_16">
      <defs>
       <path id="mad613ece71" d="M 0 0 
L -2 0 
" style="stroke: #000000; stroke-width: 0.6"/>
      </defs>
      <g>
       <use xlink:href="#mad613ece71" x="63.445938" y="232.789275" style="stroke: #000000; stroke-width: 0.6"/>
      </g>
     </g>
    </g>
    <g id="ytick_3">
     <g id="line2d_17">
      <g>
       <use xlink:href="#mad613ece71" x="63.445938" y="212.071304" style="stroke: #000000; stroke-width: 0.6"/>
      </g>
     </g>
    </g>
    <g id="ytick_4">
     <g id="line2d_18">
      <g>
       <use xlink:href="#mad613ece71" x="63.445938" y="193.796759" style="stroke: #000000; stroke-width: 0.6"/>
      </g>
     </g>
    </g>
    <g id="ytick_5">
     <g id="line2d_19">
      <g>
       <use xlink:href="#mad613ece71" x="63.445938" y="69.904851" style="stroke: #000000; stroke-width: 0.6"/>
      </g>
     </g>
     <g id="text_9">
      <!-- $\mathdefault{2\times10^{0}}$ -->
      <g transform="translate(21.845938 73.704069) scale(0.1 -0.1)">
       <defs>
        <path id="DejaVuSans-d7" d="M 4488 3438 
L 3059 2003 
L 4488 575 
L 4116 197 
L 2681 1631 
L 1247 197 
L 878 575 
L 2303 2003 
L 878 3438 
L 1247 3816 
L 2681 2381 
L 4116 3816 
L 4488 3438 
z
" transform="scale(0.015625)"/>
       </defs>
       <use xlink:href="#DejaVuSans-32" transform="translate(0 0.765625)"/>
       <use xlink:href="#DejaVuSans-d7" transform="translate(83.105469 0.765625)"/>
       <use xlink:href="#DejaVuSans-31" transform="translate(186.376953 0.765625)"/>
       <use xlink:href="#DejaVuSans-30" transform="translate(250 0.765625)"/>
       <use xlink:href="#DejaVuSans-30" transform="translate(314.580078 39.046875) scale(0.7)"/>
      </g>
     </g>
    </g>
    <g id="text_10">
     <!-- Validation loss -->
     <g transform="translate(15.558281 171.069375) rotate(-90) scale(0.11 -0.11)">
      <defs>
       <path id="DejaVuSans-56" d="M 1831 0 
L 50 4666 
L 709 4666 
L 2188 738 
L 3669 4666 
L 4325 4666 
L 2547 0 
L 1831 0 
z
" transform="scale(0.015625)"/>
       <path id="DejaVuSans-6c" d="M 603 4863 
L 1178 4863 
L 1178 0 
L 603 0 
L 603 4863 
z
" transform="scale(0.015625)"/>
       <path id="DejaVuSans-64" d="M 2906 2969 
L 2906 4863 
L 3481 4863 
L 3481 0 
L 2906 0 
L 2906 525 
Q 2725 213 2448 61 
Q 2172 -91 1784 -91 
Q 1150 -91 751 415 
Q 353 922 353 1747 
Q 353 2572 751 3078 
Q 1150 3584 1784 3584 
Q 2172 3584 2448 3432 
Q 2725 3281 2906 2969 
z
M 947 1747 
Q 947 1113 1208 752 
Q 1469 391 1925 391 
Q 2381 391 2643 752 
Q 2906 1113 2906 1747 
Q 2906 2381 2643 2742 
Q 2381 3103 1925 3103 
Q 1469 3103 1208 2742 
Q 947 2381 947 1747 
z
" transform="scale(0.015625)"/>
       <path id="DejaVuSans-6f" d="M 1959 3097 
Q 1497 3097 1228 2736 
Q 959 2375 959 1747 
Q 959 1119 1226 758 
Q 1494 397 1959 397 
Q 2419 397 2687 759 
Q 2956 1122 2956 1747 
Q 2956 2369 2687 2733 
Q 2419 3097 1959 3097 
z
M 1959 3584 
Q 2709 3584 3137 3096 
Q 3566 2609 3566 1747 
Q 3566 888 3137 398 
Q 2709 -91 1959 -91 
Q 1206 -91 779 398 
Q 353 888 353 1747 
Q 353 2609 779 3096 
Q 1206 3584 1959 3584 
z
" transform="scale(0.015625)"/>
      </defs>
      <use xlink:href="#DejaVuSans-56"/>
      <use xlink:href="#DejaVuSans-61" transform="translate(60.658203 0)"/>
      <use xlink:href="#DejaVuSans-6c" transform="translate(121.9375 0)"/>
      <use xlink:href="#DejaVuSans-69" transform="translate(149.720703 0)"/>
      <use xlink:href="#DejaVuSans-64" transform="translate(177.503906 0)"/>
      <use xlink:href="#DejaVuSans-61" transform="translate(240.980469 0)"/>
      <use xlink:href="#DejaVuSans-74" transform="translate(302.259766 0)"/>
      <use xlink:href="#DejaVuSans-69" transform="translate(341.46875 0)"/>
      <use xlink:href="#DejaVuSans-6f" transform="translate(369.251953 0)"/>
      <use xlink:href="#DejaVuSans-6e" transform="translate(430.433594 0)"/>
      <use xlink:href="#DejaVuSans-20" transform="translate(493.8125 0)"/>
      <use xlink:href="#DejaVuSans-6c" transform="translate(525.599609 0)"/>
      <use xlink:href="#DejaVuSans-6f" transform="translate(553.382812 0)"/>
      <use xlink:href="#DejaVuSans-73" transform="translate(614.564453 0)"/>
      <use xlink:href="#DejaVuSans-73" transform="translate(666.664062 0)"/>
     </g>
    </g>
   </g>
   <g id="FillBetweenPolyCollection_2">
    <defs>
     <path id="mb0096b2b2c" d="M 66.569547 -241.262939 
L 66.569547 -235.261285 
L 72.816767 -229.045442 
L 79.063987 -220.627062 
L 85.311207 -214.302072 
L 91.558427 -203.712902 
L 97.805647 -198.142704 
L 104.052867 -194.710525 
L 110.300087 -186.804199 
L 116.547307 -177.371108 
L 122.794527 -176.04966 
L 129.041747 -172.459924 
L 135.288967 -161.839717 
L 141.536187 -154.756375 
L 147.783407 -153.937909 
L 154.030627 -149.938923 
L 160.277847 -143.823161 
L 166.525067 -146.475436 
L 172.772287 -133.319712 
L 179.019506 -139.465856 
L 185.266726 -126.827602 
L 191.513946 -124.029072 
L 197.761166 -126.324928 
L 204.008386 -125.966772 
L 210.255606 -122.529202 
L 216.502826 -118.024472 
L 222.750046 -115.174936 
L 228.997266 -114.632986 
L 235.244486 -113.701556 
L 241.491706 -109.106757 
L 247.738926 -110.41882 
L 253.986146 -110.198462 
L 260.233366 -105.481981 
L 266.480586 -107.664004 
L 272.727806 -104.234288 
L 278.975026 -108.869699 
L 285.222246 -101.708393 
L 291.469465 -95.579647 
L 297.716685 -94.737383 
L 303.963905 -95.741097 
L 310.211125 -101.288574 
L 316.458345 -95.029453 
L 322.705565 -97.840733 
L 328.952785 -104.127312 
L 335.200005 -81.857555 
L 341.447225 -87.336198 
L 347.694445 -92.776068 
L 353.941665 -93.301514 
L 360.188885 -93.285121 
L 366.436105 -88.979851 
L 372.683325 -93.547206 
L 372.683325 -107.917829 
L 372.683325 -107.917829 
L 366.436105 -102.868633 
L 360.188885 -105.754527 
L 353.941665 -107.932747 
L 347.694445 -107.813363 
L 341.447225 -101.179546 
L 335.200005 -93.448976 
L 328.952785 -114.160805 
L 322.705565 -108.453974 
L 316.458345 -105.799905 
L 310.211125 -112.48952 
L 303.963905 -110.829321 
L 297.716685 -110.12494 
L 291.469465 -110.565552 
L 285.222246 -113.341819 
L 278.975026 -122.786967 
L 272.727806 -117.099179 
L 266.480586 -117.842653 
L 260.233366 -115.913497 
L 253.986146 -118.944279 
L 247.738926 -119.152568 
L 241.491706 -119.720468 
L 235.244486 -124.90069 
L 228.997266 -124.190355 
L 222.750046 -127.433932 
L 216.502826 -130.482146 
L 210.255606 -134.568573 
L 204.008386 -137.998086 
L 197.761166 -138.965928 
L 191.513946 -135.981862 
L 185.266726 -135.682769 
L 179.019506 -148.130524 
L 172.772287 -144.461026 
L 166.525067 -155.669277 
L 160.277847 -154.214901 
L 154.030627 -157.338146 
L 147.783407 -161.997721 
L 141.536187 -162.334259 
L 135.288967 -170.827487 
L 129.041747 -181.501524 
L 122.794527 -185.307551 
L 116.547307 -184.926582 
L 110.300087 -192.183162 
L 104.052867 -201.533243 
L 97.805647 -203.535785 
L 91.558427 -210.112575 
L 85.311207 -221.497647 
L 79.063987 -224.967027 
L 72.816767 -233.518183 
L 66.569547 -241.262939 
z
" style="stroke: #dd8452; stroke-opacity: 0.15"/>
    </defs>
    <g clip-path="url(#pcd41f05940)">
     <use xlink:href="#mb0096b2b2c" x="0" y="279.282188" style="fill: #dd8452; fill-opacity: 0.15; stroke: #dd8452; stroke-opacity: 0.15"/>
    </g>
   </g>
   <g id="line2d_20">
    <path d="M 66.569547 40.991058 
L 72.816767 47.984258 
L 79.063987 56.469969 
L 85.311207 61.340618 
L 91.558427 72.336455 
L 97.805647 78.419511 
L 104.052867 81.122804 
L 110.300087 89.765198 
L 116.547307 98.087356 
L 122.794527 98.534541 
L 129.041747 102.23561 
L 135.288967 112.883514 
L 141.536187 120.690611 
L 147.783407 121.262043 
L 154.030627 125.599549 
L 160.277847 130.176172 
L 166.525067 128.141742 
L 172.772287 140.291836 
L 179.019506 135.42352 
L 185.266726 147.963836 
L 191.513946 149.161646 
L 197.761166 146.508057 
L 204.008386 147.183168 
L 210.255606 150.616553 
L 216.502826 154.90388 
L 222.750046 157.85671 
L 228.997266 159.796938 
L 235.244486 159.880041 
L 241.491706 164.777836 
L 247.738926 164.435048 
L 253.986146 164.649201 
L 260.233366 168.496797 
L 266.480586 166.445405 
L 272.727806 168.482152 
L 278.975026 163.29786 
L 285.222246 171.648073 
L 291.469465 176.028728 
L 297.716685 176.660345 
L 303.963905 175.813641 
L 310.211125 172.292085 
L 316.458345 178.77407 
L 322.705565 176.044102 
L 328.952785 170.057038 
L 335.200005 191.5207 
L 341.447225 184.869974 
L 347.694445 178.80537 
L 353.941665 178.492653 
L 360.188885 179.63713 
L 366.436105 183.202589 
L 372.683325 178.383351 
" clip-path="url(#pcd41f05940)" style="fill: none; stroke-dasharray: 10.24,2.56,1.6,2.56; stroke-dashoffset: 0; stroke: #dd8452; stroke-width: 1.6"/>
   </g>
   <g id="patch_3">
    <path d="M 63.445938 240.758125 
L 63.445938 22.318125 
" style="fill: none; stroke: #000000; stroke-width: 0.8; stroke-linejoin: miter; stroke-linecap: square"/>
   </g>
   <g id="patch_4">
    <path d="M 403.919424 240.758125 
L 403.919424 22.318125 
" style="fill: none; stroke: #000000; stroke-width: 0.8; stroke-linejoin: miter; stroke-linecap: square"/>
   </g>
   <g id="patch_5">
    <path d="M 63.445937 240.758125 
L 403.919424 240.758125 
" style="fill: none; stroke: #000000; stroke-width: 0.8; stroke-linejoin: miter; stroke-linecap: square"/>
   </g>
   <g id="patch_6">
    <path d="M 63.445937 22.318125 
L 403.919424 22.318125 
" style="fill: none; stroke: #000000; stroke-width: 0.8; stroke-linejoin: miter; stroke-linecap: square"/>
   </g>
   <g id="FillBetweenPolyCollection_3">
    <defs>
     <path id="m413e9e38c0" d="M 66.569547 -242.471008 
L 66.569547 -237.697632 
L 72.816767 -227.982525 
L 79.063987 -221.138493 
L 85.311207 -208.052888 
L 91.558427 -201.745259 
L 97.805647 -191.36633 
L 104.052867 -189.119712 
L 110.300087 -183.191363 
L 116.547307 -170.039773 
L 122.794527 -170.289482 
L 129.041747 -161.871331 
L 135.288967 -152.231858 
L 141.536187 -140.327792 
L 147.783407 -146.359033 
L 154.030627 -135.570461 
L 160.277847 -128.024797 
L 166.525067 -128.443603 
L 172.772287 -123.044305 
L 179.019506 -123.840696 
L 185.266726 -109.032715 
L 191.513946 -113.514597 
L 197.761166 -112.06887 
L 204.008386 -108.498569 
L 210.255606 -97.298514 
L 216.502826 -91.072603 
L 222.750046 -97.968039 
L 228.997266 -90.506163 
L 235.244486 -88.338018 
L 241.491706 -92.545624 
L 247.738926 -81.291814 
L 253.986146 -68.581803 
L 260.233366 -77.072721 
L 266.480586 -67.133287 
L 272.727806 -79.133762 
L 278.975026 -75.536346 
L 285.222246 -68.389447 
L 291.469465 -70.302359 
L 297.716685 -75.738406 
L 303.963905 -69.540022 
L 310.211125 -74.485073 
L 316.458345 -65.886435 
L 322.705565 -73.333438 
L 328.952785 -75.113005 
L 335.200005 -74.151607 
L 341.447225 -61.300846 
L 347.694445 -69.291454 
L 353.941665 -52.492902 
L 360.188885 -55.051901 
L 366.436105 -48.453153 
L 372.683325 -66.394177 
L 372.683325 -82.491557 
L 372.683325 -82.491557 
L 366.436105 -65.74945 
L 360.188885 -70.985274 
L 353.941665 -65.219946 
L 347.694445 -81.645643 
L 341.447225 -73.352081 
L 335.200005 -87.165755 
L 328.952785 -86.413573 
L 322.705565 -84.863567 
L 316.458345 -81.716313 
L 310.211125 -90.004641 
L 303.963905 -83.55996 
L 297.716685 -87.710515 
L 291.469465 -86.224956 
L 285.222246 -84.152286 
L 278.975026 -89.75327 
L 272.727806 -94.216785 
L 266.480586 -80.937175 
L 260.233366 -90.32246 
L 253.986146 -82.122037 
L 247.738926 -94.980813 
L 241.491706 -104.493782 
L 235.244486 -100.570699 
L 228.997266 -103.068862 
L 222.750046 -109.19556 
L 216.502826 -104.965862 
L 210.255606 -109.992511 
L 204.008386 -119.512941 
L 197.761166 -122.624218 
L 191.513946 -125.047712 
L 185.266726 -118.846982 
L 179.019506 -132.659696 
L 172.772287 -133.104247 
L 166.525067 -136.491482 
L 160.277847 -138.611345 
L 154.030627 -144.849544 
L 147.783407 -154.921756 
L 141.536187 -148.555904 
L 135.288967 -160.591111 
L 129.041747 -170.259539 
L 122.794527 -177.523594 
L 116.547307 -176.424255 
L 110.300087 -190.720253 
L 104.052867 -194.351984 
L 97.805647 -196.962245 
L 91.558427 -207.598418 
L 85.311207 -212.72336 
L 79.063987 -226.495997 
L 72.816767 -233.125934 
L 66.569547 -242.471008 
z
" style="stroke: #55a868; stroke-opacity: 0.15"/>
    </defs>
    <g clip-path="url(#pcd41f05940)">
     <use xlink:href="#m413e9e38c0" x="0" y="279.282188" style="fill: #55a868; fill-opacity: 0.15; stroke: #55a868; stroke-opacity: 0.15"/>
    </g>
   </g>
   <g id="line2d_21">
    <path d="M 66.569547 39.179511 
L 72.816767 48.706646 
L 79.063987 55.441819 
L 85.311207 68.87649 
L 91.558427 74.582749 
L 97.805647 85.092673 
L 104.052867 87.524284 
L 110.300087 92.280716 
L 116.547307 106.017336 
L 122.794527 105.333492 
L 129.041747 113.160073 
L 135.288967 122.814413 
L 141.536187 134.785802 
L 147.783407 128.58273 
L 154.030627 139.002828 
L 160.277847 145.873841 
L 166.525067 146.762471 
L 172.772287 151.126392 
L 179.019506 150.96934 
L 185.266726 165.264752 
L 191.513946 159.893896 
L 197.761166 161.845899 
L 204.008386 165.178714 
L 210.255606 175.506891 
L 216.502826 181.107498 
L 222.750046 175.598852 
L 228.997266 182.367561 
L 235.244486 184.707304 
L 241.491706 180.647499 
L 247.738926 190.994953 
L 253.986146 203.782608 
L 260.233366 195.443204 
L 266.480586 205.093493 
L 272.727806 192.423703 
L 278.975026 196.474598 
L 285.222246 202.811229 
L 291.469465 200.814364 
L 297.716685 197.442281 
L 303.963905 202.573893 
L 310.211125 196.843365 
L 316.458345 205.279018 
L 322.705565 200.076604 
L 328.952785 198.416038 
L 335.200005 198.487095 
L 341.447225 211.838747 
L 347.694445 203.690708 
L 353.941665 220.295303 
L 360.188885 216.059157 
L 366.436105 221.939991 
L 372.683325 204.630649 
" clip-path="url(#pcd41f05940)" style="fill: none; stroke: #55a868; stroke-width: 2.2; stroke-linecap: square"/>
   </g>
   <g id="patch_7">
    <path d="M 377.681101 181.951109 
Q 377.681101 191.509401 377.681101 201.067693 
" style="fill: none; stroke: #333333; stroke-width: 1.4; stroke-linecap: round"/>
    <path d="M 375.681101 185.951109 
L 377.681101 181.951109 
L 379.681101 185.951109 
" style="fill: none; stroke: #333333; stroke-width: 1.4; stroke-linecap: round"/>
    <path d="M 379.681101 197.067693 
L 377.681101 201.067693 
L 375.681101 197.067693 
" style="fill: none; stroke: #333333; stroke-width: 1.4; stroke-linecap: round"/>
   </g>
   <g id="text_11">
    <!-- Δ=0.155 -->
    <g style="fill: #333333" transform="translate(381.429433 193.160132) scale(0.08 -0.08)">
     <defs>
      <path id="DejaVuSans-394" d="M 2188 4044 
L 906 525 
L 3472 525 
L 2188 4044 
z
M 50 0 
L 1831 4666 
L 2547 4666 
L 4325 0 
L 50 0 
z
" transform="scale(0.015625)"/>
      <path id="DejaVuSans-3d" d="M 678 2906 
L 4684 2906 
L 4684 2381 
L 678 2381 
L 678 2906 
z
M 678 1631 
L 4684 1631 
L 4684 1100 
L 678 1100 
L 678 1631 
z
" transform="scale(0.015625)"/>
      <path id="DejaVuSans-2e" d="M 684 794 
L 1344 794 
L 1344 0 
L 684 0 
L 684 794 
z
" transform="scale(0.015625)"/>
     </defs>
     <use xlink:href="#DejaVuSans-394"/>
     <use xlink:href="#DejaVuSans-3d" transform="translate(68.408203 0)"/>
     <use xlink:href="#DejaVuSans-30" transform="translate(152.197266 0)"/>
     <use xlink:href="#DejaVuSans-2e" transform="translate(215.820312 0)"/>
     <use xlink:href="#DejaVuSans-31" transform="translate(247.607422 0)"/>
     <use xlink:href="#DejaVuSans-35" transform="translate(311.230469 0)"/>
     <use xlink:href="#DejaVuSans-35" transform="translate(374.853516 0)"/>
    </g>
   </g>
   <g id="text_12">
    <!-- Validation Loss over Training Steps -->
    <g transform="translate(129.426118 16.318125) scale(0.12 -0.12)">
     <defs>
      <path id="DejaVuSans-4c" d="M 628 4666 
L 1259 4666 
L 1259 531 
L 3531 531 
L 3531 0 
L 628 0 
L 628 4666 
z
" transform="scale(0.015625)"/>
      <path id="DejaVuSans-76" d="M 191 3500 
L 800 3500 
L 1894 563 
L 2988 3500 
L 3597 3500 
L 2284 0 
L 1503 0 
L 191 3500 
z
" transform="scale(0.015625)"/>
      <path id="DejaVuSans-53" d="M 3425 4513 
L 3425 3897 
Q 3066 4069 2747 4153 
Q 2428 4238 2131 4238 
Q 1616 4238 1336 4038 
Q 1056 3838 1056 3469 
Q 1056 3159 1242 3001 
Q 1428 2844 1947 2747 
L 2328 2669 
Q 3034 2534 3370 2195 
Q 3706 1856 3706 1288 
Q 3706 609 3251 259 
Q 2797 -91 1919 -91 
Q 1588 -91 1214 -16 
Q 841 59 441 206 
L 441 856 
Q 825 641 1194 531 
Q 1563 422 1919 422 
Q 2459 422 2753 634 
Q 3047 847 3047 1241 
Q 3047 1584 2836 1778 
Q 2625 1972 2144 2069 
L 1759 2144 
Q 1053 2284 737 2584 
Q 422 2884 422 3419 
Q 422 4038 858 4394 
Q 1294 4750 2059 4750 
Q 2388 4750 2728 4690 
Q 3069 4631 3425 4513 
z
" transform="scale(0.015625)"/>
     </defs>
     <use xlink:href="#DejaVuSans-56"/>
     <use xlink:href="#DejaVuSans-61" transform="translate(60.658203 0)"/>
     <use xlink:href="#DejaVuSans-6c" transform="translate(121.9375 0)"/>
     <use xlink:href="#DejaVuSans-69" transform="translate(149.720703 0)"/>
     <use xlink:href="#DejaVuSans-64" transform="translate(177.503906 0)"/>
     <use xlink:href="#DejaVuSans-61" transform="translate(240.980469 0)"/>
     <use xlink:href="#DejaVuSans-74" transform="translate(302.259766 0)"/>
     <use xlink:href="#DejaVuSans-69" transform="translate(341.46875 0)"/>
     <use xlink:href="#DejaVuSans-6f" transform="translate(369.251953 0)"/>
     <use xlink:href="#DejaVuSans-6e" transform="translate(430.433594 0)"/>
     <use xlink:href="#DejaVuSans-20" transform="translate(493.8125 0)"/>
     <use xlink:href="#DejaVuSans-4c" transform="translate(525.599609 0)"/>
     <use xlink:href="#DejaVuSans-6f" transform="translate(579.5625 0)"/>
     <use xlink:href="#DejaVuSans-73" transform="translate(640.744141 0)"/>
     <use xlink:href="#DejaVuSans-73" transform="translate(692.84375 0)"/>
     <use xlink:href="#DejaVuSans-20" transform="translate(744.943359 0)"/>
     <use xlink:href="#DejaVuSans-6f" transform="translate(776.730469 0)"/>
     <use xlink:href="#DejaVuSans-76" transform="translate(837.912109 0)"/>
     <use xlink:href="#DejaVuSans-65" transform="translate(897.091797 0)"/>
     <use xlink:href="#DejaVuSans-72" transform="translate(958.615234 0)"/>
     <use xlink:href="#DejaVuSans-20" transform="translate(999.728516 0)"/>
     <use xlink:href="#DejaVuSans-54" transform="translate(1031.515625 0)"/>
     <use xlink:href="#DejaVuSans-72" transform="translate(1077.849609 0)"/>
     <use xlink:href="#DejaVuSans-61" transform="translate(1118.962891 0)"/>
     <use xlink:href="#DejaVuSans-69" transform="translate(1180.242188 0)"/>
     <use xlink:href="#DejaVuSans-6e" transform="translate(1208.025391 0)"/>
     <use xlink:href="#DejaVuSans-69" transform="translate(1271.404297 0)"/>
     <use xlink:href="#DejaVuSans-6e" transform="translate(1299.1875 0)"/>
     <use xlink:href="#DejaVuSans-67" transform="translate(1362.566406 0)"/>
     <use xlink:href="#DejaVuSans-20" transform="translate(1426.042969 0)"/>
     <use xlink:href="#DejaVuSans-53" transform="translate(1457.830078 0)"/>
     <use xlink:href="#DejaVuSans-74" transform="translate(1521.306641 0)"/>
     <use xlink:href="#DejaVuSans-65" transform="translate(1560.515625 0)"/>
     <use xlink:href="#DejaVuSans-70" transform="translate(1622.039062 0)"/>
     <use xlink:href="#DejaVuSans-73" transform="translate(1685.515625 0)"/>
    </g>
   </g>
   <g id="legend_1">
    <g id="patch_8">
     <path d="M 320.618799 69.149063 
L 397.619424 69.149063 
Q 399.419424 69.149063 399.419424 67.349063 
L 399.419424 28.618125 
Q 399.419424 26.818125 397.619424 26.818125 
L 320.618799 26.818125 
Q 318.818799 26.818125 318.818799 28.618125 
L 318.818799 67.349063 
Q 318.818799 69.149063 320.618799 69.149063 
z
" style="fill: #ffffff; opacity: 0.9; stroke: #cccccc; stroke-linejoin: miter"/>
    </g>
    <g id="line2d_22">
     <path d="M 322.418799 34.106719 
L 331.418799 34.106719 
L 340.418799 34.106719 
" style="fill: none; stroke-dasharray: 5.92,2.56; stroke-dashoffset: 0; stroke: #4c72b0; stroke-width: 1.6"/>
    </g>
    <g id="text_13">
     <!-- Baseline -->
     <g transform="translate(347.618799 37.256719) scale(0.09 -0.09)">
      <defs>
       <path id="DejaVuSans-42" d="M 1259 2228 
L 1259 519 
L 2272 519 
Q 2781 519 3026 730 
Q 3272 941 3272 1375 
Q 3272 1813 3026 2020 
Q 2781 2228 2272 2228 
L 1259 2228 
z
M 1259 4147 
L 1259 2741 
L 2194 2741 
Q 2656 2741 2882 2914 
Q 3109 3088 3109 3444 
Q 3109 3797 2882 3972 
Q 2656 4147 2194 4147 
L 1259 4147 
z
M 628 4666 
L 2241 4666 
Q 2963 4666 3353 4366 
Q 3744 4066 3744 3513 
Q 3744 3084 3544 2831 
Q 3344 2578 2956 2516 
Q 3422 2416 3680 2098 
Q 3938 1781 3938 1306 
Q 3938 681 3513 340 
Q 3088 0 2303 0 
L 628 0 
L 628 4666 
z
" transform="scale(0.015625)"/>
      </defs>
      <use xlink:href="#DejaVuSans-42"/>
      <use xlink:href="#DejaVuSans-61" transform="translate(68.603516 0)"/>
      <use xlink:href="#DejaVuSans-73" transform="translate(129.882812 0)"/>
      <use xlink:href="#DejaVuSans-65" transform="translate(181.982422 0)"/>
      <use xlink:href="#DejaVuSans-6c" transform="translate(243.505859 0)"/>
      <use xlink:href="#DejaVuSans-69" transform="translate(271.289062 0)"/>
      <use xlink:href="#DejaVuSans-6e" transform="translate(299.072266 0)"/>
      <use xlink:href="#DejaVuSans-65" transform="translate(362.451172 0)"/>
     </g>
    </g>
    <g id="line2d_23">
     <path d="M 322.418799 47.317031 
L 331.418799 47.317031 
L 340.418799 47.317031 
" style="fill: none; stroke-dasharray: 10.24,2.56,1.6,2.56; stroke-dashoffset: 0; stroke: #dd8452; stroke-width: 1.6"/>
    </g>
    <g id="text_14">
     <!-- Method-A -->
     <g transform="translate(347.618799 50.467031) scale(0.09 -0.09)">
      <defs>
       <path id="DejaVuSans-4d" d="M 628 4666 
L 1569 4666 
L 2759 1491 
L 3956 4666 
L 4897 4666 
L 4897 0 
L 4281 0 
L 4281 4097 
L 3078 897 
L 2444 897 
L 1241 4097 
L 1241 0 
L 628 0 
L 628 4666 
z
" transform="scale(0.015625)"/>
       <path id="DejaVuSans-68" d="M 3513 2113 
L 3513 0 
L 2938 0 
L 2938 2094 
Q 2938 2591 2744 2837 
Q 2550 3084 2163 3084 
Q 1697 3084 1428 2787 
Q 1159 2491 1159 1978 
L 1159 0 
L 581 0 
L 581 4863 
L 1159 4863 
L 1159 2956 
Q 1366 3272 1645 3428 
Q 1925 3584 2291 3584 
Q 2894 3584 3203 3211 
Q 3513 2838 3513 2113 
z
" transform="scale(0.015625)"/>
       <path id="DejaVuSans-2d" d="M 313 2009 
L 1997 2009 
L 1997 1497 
L 313 1497 
L 313 2009 
z
" transform="scale(0.015625)"/>
       <path id="DejaVuSans-41" d="M 2188 4044 
L 1331 1722 
L 3047 1722 
L 2188 4044 
z
M 1831 4666 
L 2547 4666 
L 4325 0 
L 3669 0 
L 3244 1197 
L 1141 1197 
L 716 0 
L 50 0 
L 1831 4666 
z
" transform="scale(0.015625)"/>
      </defs>
      <use xlink:href="#DejaVuSans-4d"/>
      <use xlink:href="#DejaVuSans-65" transform="translate(86.279297 0)"/>
      <use xlink:href="#DejaVuSans-74" transform="translate(147.802734 0)"/>
      <use xlink:href="#DejaVuSans-68" transform="translate(187.011719 0)"/>
      <use xlink:href="#DejaVuSans-6f" transform="translate(250.390625 0)"/>
      <use xlink:href="#DejaVuSans-64" transform="translate(311.572266 0)"/>
      <use xlink:href="#DejaVuSans-2d" transform="translate(375.048828 0)"/>
      <use xlink:href="#DejaVuSans-41" transform="translate(408.882812 0)"/>
     </g>
    </g>
    <g id="line2d_24">
     <path d="M 322.418799 60.527344 
L 331.418799 60.527344 
L 340.418799 60.527344 
" style="fill: none; stroke: #55a868; stroke-width: 2.2; stroke-linecap: square"/>
    </g>
    <g id="text_15">
     <!-- OursModel -->
     <g transform="translate(347.618799 63.677344) scale(0.09 -0.09)">
      <defs>
       <path id="DejaVuSans-4f" d="M 2522 4238 
Q 1834 4238 1429 3725 
Q 1025 3213 1025 2328 
Q 1025 1447 1429 934 
Q 1834 422 2522 422 
Q 3209 422 3611 934 
Q 4013 1447 4013 2328 
Q 4013 3213 3611 3725 
Q 3209 4238 2522 4238 
z
M 2522 4750 
Q 3503 4750 4090 4092 
Q 4678 3434 4678 2328 
Q 4678 1225 4090 567 
Q 3503 -91 2522 -91 
Q 1538 -91 948 565 
Q 359 1222 359 2328 
Q 359 3434 948 4092 
Q 1538 4750 2522 4750 
z
" transform="scale(0.015625)"/>
       <path id="DejaVuSans-75" d="M 544 1381 
L 544 3500 
L 1119 3500 
L 1119 1403 
Q 1119 906 1312 657 
Q 1506 409 1894 409 
Q 2359 409 2629 706 
Q 2900 1003 2900 1516 
L 2900 3500 
L 3475 3500 
L 3475 0 
L 2900 0 
L 2900 538 
Q 2691 219 2414 64 
Q 2138 -91 1772 -91 
Q 1169 -91 856 284 
Q 544 659 544 1381 
z
M 1991 3584 
L 1991 3584 
z
" transform="scale(0.015625)"/>
      </defs>
      <use xlink:href="#DejaVuSans-4f"/>
      <use xlink:href="#DejaVuSans-75" transform="translate(78.710938 0)"/>
      <use xlink:href="#DejaVuSans-72" transform="translate(142.089844 0)"/>
      <use xlink:href="#DejaVuSans-73" transform="translate(183.203125 0)"/>
      <use xlink:href="#DejaVuSans-4d" transform="translate(235.302734 0)"/>
      <use xlink:href="#DejaVuSans-6f" transform="translate(321.582031 0)"/>
      <use xlink:href="#DejaVuSans-64" transform="translate(382.763672 0)"/>
      <use xlink:href="#DejaVuSans-65" transform="translate(446.240234 0)"/>
      <use xlink:href="#DejaVuSans-6c" transform="translate(507.763672 0)"/>
     </g>
    </g>
   </g>
  </g>
 </g>
 <defs>
  <clipPath id="pcd41f05940">
   <rect x="63.445938" y="22.318125" width="340.473487" height="218.44"/>
  </clipPath>
 </defs>
</svg>
