<?xml version="1.0" encoding="utf-8" standalone="no"?>
<!DOCTYPE svg PUBLIC "-//W3C//DTD SVG 1.1//EN"
  "http://www.w3.org/Graphics/SVG/1.1/DTD/svg11.dtd">
<svg xmlns:xlink="http://www.w3.org/1999/xlink" width="501.68766pt" height="324.594375pt" viewBox="0 0 501.68766 324.594375" xmlns="http://www.w3.org/2000/svg" version="1.1">
 <metadata>
  <rdf:RDF xmlns:dc="http://purl.org/dc/elements/1.1/" xmlns:cc="http://creativecommons.org/ns#" xmlns:rdf="http://www.w3.org/1999/02/22-rdf-syntax-ns#">
   <cc:Work>
    <dc:type rdf:resource="http://purl.org/dc/dcmitype/StillImage"/>
    <dc:date>2026-05-24T23:05:36.113235</dc:date>
    <dc:format>image/svg+xml</dc:format>
    <dc:creator>
     <cc:Agent>
      <dc:title>Matplotlib v3.10.9, https://matplotlib.org/</dc:title>
     </cc:Agent>
    </dc:creator>
   </cc:Work>
  </rdf:RDF>
 </metadata>
 <defs>
  <style type="text/css">*{stroke-linejoin: round; stroke-linecap: butt}</style>
 </defs>
 <g id="figure_1">
  <g id="patch_1">
   <path d="M 0 324.594375 
L 501.68766 324.594375 
L 501.68766 0 
L 0 0 
z
" style="fill: #ffffff"/>
  </g>
  <g id="axes_1">
   <g id="patch_2">
    <path d="M 56.571875 277.36 
L 490.034492 277.36 
L 490.034492 7.2 
L 56.571875 7.2 
z
" style="fill: #ffffff"/>
   </g>
   <g id="FillBetweenPolyCollection_1">
    <defs>
     <path id="md01f8a3137" d="M 60.622927 -305.114375 
L 60.622927 -295.925814 
L 68.725032 -291.444193 
L 76.827137 -280.535477 
L 84.929242 -271.935609 
L 93.031347 -263.381756 
L 101.133452 -258.396577 
L 109.235557 -257.761816 
L 117.337662 -247.563381 
L 125.439767 -243.932835 
L 133.541872 -235.346968 
L 141.643977 -229.93352 
L 149.746082 -225.152368 
L 157.848187 -210.543174 
L 165.950292 -218.342011 
L 174.052397 -212.480113 
L 182.154502 -208.760669 
L 190.256607 -192.549569 
L 198.358712 -188.224946 
L 206.460817 -190.741259 
L 214.562922 -189.356556 
L 222.665027 -192.319379 
L 230.767132 -185.913492 
L 238.869237 -186.724277 
L 246.971342 -176.672975 
L 255.073447 -180.500573 
L 263.175552 -180.500573 
L 271.277657 -172.091194 
L 279.379762 -183.417806 
L 287.481867 -177.010771 
L 295.583972 -178.006009 
L 303.686077 -166.546924 
L 311.788182 -164.662656 
L 319.890287 -166.065938 
L 327.992392 -164.208292 
L 336.094497 -169.728134 
L 344.196602 -166.065938 
L 352.298707 -160.342156 
L 360.400812 -154.64034 
L 368.502917 -159.282873 
L 376.605022 -168.366825 
L 384.707127 -154.508388 
L 392.809232 -159.668744 
L 400.911337 -160.486151 
L 409.013442 -147.141969 
L 417.115547 -158.831708 
L 425.217652 -165.957161 
L 433.319757 -143.873835 
L 441.421862 -153.233696 
L 449.523967 -154.062382 
L 457.626072 -151.716242 
L 457.626072 -165.599317 
L 457.626072 -165.599317 
L 449.523967 -172.707456 
L 441.421862 -171.503151 
L 433.319757 -159.668744 
L 425.217652 -180.414097 
L 417.115547 -173.007354 
L 409.013442 -165.848323 
L 400.911337 -177.728447 
L 392.809232 -177.362621 
L 384.707127 -170.64045 
L 376.605022 -182.849284 
L 368.502917 -172.226641 
L 360.400812 -172.692448 
L 352.298707 -175.063979 
L 344.196602 -179.561668 
L 336.094497 -182.293349 
L 327.992392 -180.846087 
L 319.890287 -178.458013 
L 311.788182 -177.465123 
L 303.686077 -179.547187 
L 295.583972 -191.858169 
L 287.481867 -188.543023 
L 279.379762 -198.006023 
L 271.277657 -185.941507 
L 263.175552 -193.238485 
L 255.073447 -196.102571 
L 246.971342 -193.52144 
L 238.869237 -200.942875 
L 230.767132 -200.475988 
L 222.665027 -203.170811 
L 214.562922 -203.490639 
L 206.460817 -203.809935 
L 198.358712 -203.87373 
L 190.256607 -207.337682 
L 182.154502 -220.600121 
L 174.052397 -224.672214 
L 165.950292 -230.245102 
L 157.848187 -223.385897 
L 149.746082 -235.444388 
L 141.643977 -242.331748 
L 133.541872 -246.186941 
L 125.439767 -255.055061 
L 117.337662 -258.117925 
L 109.235557 -265.466022 
L 101.133452 -267.729208 
L 93.031347 -271.263363 
L 84.929242 -281.550884 
L 76.827137 -288.643421 
L 68.725032 -298.178708 
L 60.622927 -305.114375 
z
"/>
    </defs>
    <g clip-path="url(#pbb02805f55)">
     <use xlink:href="#md01f8a3137" x="0" y="324.594375" style="fill: #b64342; fill-opacity: 0.18"/>
    </g>
   </g>
   <g id="FillBetweenPolyCollection_2">
    <defs>
     <path id="md88e3546c2" d="M 60.622927 -297.975699 
L 60.622927 -290.553035 
L 68.725032 -282.865467 
L 76.827137 -272.45387 
L 84.929242 -264.631312 
L 93.031347 -251.534947 
L 101.133452 -244.645894 
L 109.235557 -240.401079 
L 117.337662 -230.622774 
L 125.439767 -218.956211 
L 133.541872 -217.321884 
L 141.643977 -212.882207 
L 149.746082 -199.747455 
L 157.848187 -190.986992 
L 165.950292 -189.974737 
L 174.052397 -185.028912 
L 182.154502 -177.465123 
L 190.256607 -180.745377 
L 198.358712 -164.474774 
L 206.460817 -172.076138 
L 214.562922 -156.445528 
L 222.665027 -152.984391 
L 230.767132 -155.823836 
L 238.869237 -155.38088 
L 246.971342 -151.129396 
L 255.073447 -145.558083 
L 263.175552 -142.033862 
L 271.277657 -141.363595 
L 279.379762 -140.21163 
L 287.481867 -134.528921 
L 295.583972 -136.151642 
L 303.686077 -135.879109 
L 311.788182 -130.045908 
L 319.890287 -132.744568 
L 327.992392 -128.502799 
L 336.094497 -134.235735 
L 344.196602 -125.378848 
L 352.298707 -117.799 
L 360.400812 -116.757313 
L 368.502917 -117.998677 
L 376.605022 -124.859628 
L 384.707127 -117.118537 
L 392.809232 -120.595443 
L 400.911337 -128.370494 
L 409.013442 -100.82793 
L 417.115547 -107.603751 
L 425.217652 -114.331618 
L 433.319757 -114.981474 
L 441.421862 -114.961199 
L 449.523967 -109.636571 
L 457.626072 -115.285338 
L 457.626072 -133.058491 
L 457.626072 -133.058491 
L 449.523967 -126.813798 
L 441.421862 -130.382985 
L 433.319757 -133.076941 
L 425.217652 -132.929291 
L 417.115547 -124.724786 
L 409.013442 -115.16385 
L 400.911337 -140.779616 
L 392.809232 -133.721579 
L 384.707127 -130.439106 
L 376.605022 -138.71262 
L 368.502917 -136.659336 
L 360.400812 -135.788179 
L 352.298707 -136.333116 
L 344.196602 -139.766719 
L 336.094497 -151.448193 
L 327.992392 -144.413708 
L 319.890287 -145.333215 
L 311.788182 -142.947292 
L 303.686077 -146.695672 
L 295.583972 -146.953278 
L 287.481867 -147.655639 
L 279.379762 -154.062382 
L 271.277657 -153.183861 
L 263.175552 -157.195419 
L 255.073447 -160.965358 
L 246.971342 -166.019327 
L 238.869237 -170.260845 
L 230.767132 -171.457843 
L 222.665027 -167.76724 
L 214.562922 -167.397331 
L 206.460817 -182.792339 
L 198.358712 -178.254014 
L 190.256607 -192.116041 
L 182.154502 -190.317313 
L 174.052397 -194.180048 
L 165.950292 -199.94287 
L 157.848187 -200.359089 
L 149.746082 -210.863258 
L 141.643977 -224.064585 
L 133.541872 -228.771765 
L 125.439767 -228.300593 
L 117.337662 -237.275312 
L 109.235557 -248.839211 
L 101.133452 -251.315894 
L 93.031347 -259.449869 
L 84.929242 -273.530582 
L 76.827137 -277.821407 
L 68.725032 -288.397219 
L 60.622927 -297.975699 
z
"/>
    </defs>
    <g clip-path="url(#pbb02805f55)">
     <use xlink:href="#md88e3546c2" x="0" y="324.594375" style="fill: #42949e; fill-opacity: 0.18"/>
    </g>
   </g>
   <g id="matplotlib.axis_1">
    <g id="xtick_1">
     <g id="line2d_1">
      <defs>
       <path id="m23d87101ac" d="M 0 0 
L 0 3.5 
" style="stroke: #000000; stroke-width: 0.8"/>
      </defs>
      <g>
       <use xlink:href="#m23d87101ac" x="60.622927" y="277.36" style="stroke: #000000; stroke-width: 0.8"/>
      </g>
     </g>
     <g id="text_1">
      <!-- 0 -->
      <g transform="translate(55.851052 295.757656) scale(0.15 -0.15)">
       <defs>
        <path id="DejaVuSans-30" d="M 2034 4250 
Q 1547 4250 1301 3770 
Q 1056 3291 1056 2328 
Q 1056 1369 1301 889 
Q 1547 409 2034 409 
Q 2525 409 2770 889 
Q 3016 1369 3016 2328 
Q 3016 3291 2770 3770 
Q 2525 4250 2034 4250 
z
M 2034 4750 
Q 2819 4750 3233 4129 
Q 3647 3509 3647 2328 
Q 3647 1150 3233 529 
Q 2819 -91 2034 -91 
Q 1250 -91 836 529 
Q 422 1150 422 2328 
Q 422 3509 836 4129 
Q 1250 4750 2034 4750 
z
" transform="scale(0.015625)"/>
       </defs>
       <use xlink:href="#DejaVuSans-30"/>
      </g>
     </g>
    </g>
    <g id="xtick_2">
     <g id="line2d_2">
      <g>
       <use xlink:href="#m23d87101ac" x="141.643977" y="277.36" style="stroke: #000000; stroke-width: 0.8"/>
      </g>
     </g>
     <g id="text_2">
      <!-- 10 -->
      <g transform="translate(132.100227 295.757656) scale(0.15 -0.15)">
       <defs>
        <path id="DejaVuSans-31" d="M 794 531 
L 1825 531 
L 1825 4091 
L 703 3866 
L 703 4441 
L 1819 4666 
L 2450 4666 
L 2450 531 
L 3481 531 
L 3481 0 
L 794 0 
L 794 531 
z
" transform="scale(0.015625)"/>
       </defs>
       <use xlink:href="#DejaVuSans-31"/>
       <use xlink:href="#DejaVuSans-30" transform="translate(63.623047 0)"/>
      </g>
     </g>
    </g>
    <g id="xtick_3">
     <g id="line2d_3">
      <g>
       <use xlink:href="#m23d87101ac" x="222.665027" y="277.36" style="stroke: #000000; stroke-width: 0.8"/>
      </g>
     </g>
     <g id="text_3">
      <!-- 20 -->
      <g transform="translate(213.121277 295.757656) scale(0.15 -0.15)">
       <defs>
        <path id="DejaVuSans-32" d="M 1228 531 
L 3431 531 
L 3431 0 
L 469 0 
L 469 531 
Q 828 903 1448 1529 
Q 2069 2156 2228 2338 
Q 2531 2678 2651 2914 
Q 2772 3150 2772 3378 
Q 2772 3750 2511 3984 
Q 2250 4219 1831 4219 
Q 1534 4219 1204 4116 
Q 875 4013 500 3803 
L 500 4441 
Q 881 4594 1212 4672 
Q 1544 4750 1819 4750 
Q 2544 4750 2975 4387 
Q 3406 4025 3406 3419 
Q 3406 3131 3298 2873 
Q 3191 2616 2906 2266 
Q 2828 2175 2409 1742 
Q 1991 1309 1228 531 
z
" transform="scale(0.015625)"/>
       </defs>
       <use xlink:href="#DejaVuSans-32"/>
       <use xlink:href="#DejaVuSans-30" transform="translate(63.623047 0)"/>
      </g>
     </g>
    </g>
    <g id="xtick_4">
     <g id="line2d_4">
      <g>
       <use xlink:href="#m23d87101ac" x="303.686077" y="277.36" style="stroke: #000000; stroke-width: 0.8"/>
      </g>
     </g>
     <g id="text_4">
      <!-- 30 -->
      <g transform="translate(294.142327 295.757656) scale(0.15 -0.15)">
       <defs>
        <path id="DejaVuSans-33" d="M 2597 2516 
Q 3050 2419 3304 2112 
Q 3559 1806 3559 1356 
Q 3559 666 3084 287 
Q 2609 -91 1734 -91 
Q 1441 -91 1130 -33 
Q 819 25 488 141 
L 488 750 
Q 750 597 1062 519 
Q 1375 441 1716 441 
Q 2309 441 2620 675 
Q 2931 909 2931 1356 
Q 2931 1769 2642 2001 
Q 2353 2234 1838 2234 
L 1294 2234 
L 1294 2753 
L 1863 2753 
Q 2328 2753 2575 2939 
Q 2822 3125 2822 3475 
Q 2822 3834 2567 4026 
Q 2313 4219 1838 4219 
Q 1578 4219 1281 4162 
Q 984 4106 628 3988 
L 628 4550 
Q 988 4650 1302 4700 
Q 1616 4750 1894 4750 
Q 2613 4750 3031 4423 
Q 3450 4097 3450 3541 
Q 3450 3153 3228 2886 
Q 3006 2619 2597 2516 
z
" transform="scale(0.015625)"/>
       </defs>
       <use xlink:href="#DejaVuSans-33"/>
       <use xlink:href="#DejaVuSans-30" transform="translate(63.623047 0)"/>
      </g>
     </g>
    </g>
    <g id="xtick_5">
     <g id="line2d_5">
      <g>
       <use xlink:href="#m23d87101ac" x="384.707127" y="277.36" style="stroke: #000000; stroke-width: 0.8"/>
      </g>
     </g>
     <g id="text_5">
      <!-- 40 -->
      <g transform="translate(375.163377 295.757656) scale(0.15 -0.15)">
       <defs>
        <path id="DejaVuSans-34" d="M 2419 4116 
L 825 1625 
L 2419 1625 
L 2419 4116 
z
M 2253 4666 
L 3047 4666 
L 3047 1625 
L 3713 1625 
L 3713 1100 
L 3047 1100 
L 3047 0 
L 2419 0 
L 2419 1100 
L 313 1100 
L 313 1709 
L 2253 4666 
z
" transform="scale(0.015625)"/>
       </defs>
       <use xlink:href="#DejaVuSans-34"/>
       <use xlink:href="#DejaVuSans-30" transform="translate(63.623047 0)"/>
      </g>
     </g>
    </g>
    <g id="xtick_6">
     <g id="line2d_6">
      <g>
       <use xlink:href="#m23d87101ac" x="465.728177" y="277.36" style="stroke: #000000; stroke-width: 0.8"/>
      </g>
     </g>
     <g id="text_6">
      <!-- 50 -->
      <g transform="translate(456.184427 295.757656) scale(0.15 -0.15)">
       <defs>
        <path id="DejaVuSans-35" d="M 691 4666 
L 3169 4666 
L 3169 4134 
L 1269 4134 
L 1269 2991 
Q 1406 3038 1543 3061 
Q 1681 3084 1819 3084 
Q 2600 3084 3056 2656 
Q 3513 2228 3513 1497 
Q 3513 744 3044 326 
Q 2575 -91 1722 -91 
Q 1428 -91 1123 -41 
Q 819 9 494 109 
L 494 744 
Q 775 591 1075 516 
Q 1375 441 1709 441 
Q 2250 441 2565 725 
Q 2881 1009 2881 1497 
Q 2881 1984 2565 2268 
Q 2250 2553 1709 2553 
Q 1456 2553 1204 2497 
Q 953 2441 691 2322 
L 691 4666 
z
" transform="scale(0.015625)"/>
       </defs>
       <use xlink:href="#DejaVuSans-35"/>
       <use xlink:href="#DejaVuSans-30" transform="translate(63.623047 0)"/>
      </g>
     </g>
    </g>
    <g id="text_7">
     <!-- Training step -->
     <g transform="translate(225.10748 314.274844) scale(0.15 -0.15)">
      <defs>
       <path id="DejaVuSans-54" d="M -19 4666 
L 3928 4666 
L 3928 4134 
L 2272 4134 
L 2272 0 
L 1638 0 
L 1638 4134 
L -19 4134 
L -19 4666 
z
" transform="scale(0.015625)"/>
       <path id="DejaVuSans-72" d="M 2631 2963 
Q 2534 3019 2420 3045 
Q 2306 3072 2169 3072 
Q 1681 3072 1420 2755 
Q 1159 2438 1159 1844 
L 1159 0 
L 581 0 
L 581 3500 
L 1159 3500 
L 1159 2956 
Q 1341 3275 1631 3429 
Q 1922 3584 2338 3584 
Q 2397 3584 2469 3576 
Q 2541 3569 2628 3553 
L 2631 2963 
z
" transform="scale(0.015625)"/>
       <path id="DejaVuSans-61" d="M 2194 1759 
Q 1497 1759 1228 1600 
Q 959 1441 959 1056 
Q 959 750 1161 570 
Q 1363 391 1709 391 
Q 2188 391 2477 730 
Q 2766 1069 2766 1631 
L 2766 1759 
L 2194 1759 
z
M 3341 1997 
L 3341 0 
L 2766 0 
L 2766 531 
Q 2569 213 2275 61 
Q 1981 -91 1556 -91 
Q 1019 -91 701 211 
Q 384 513 384 1019 
Q 384 1609 779 1909 
Q 1175 2209 1959 2209 
L 2766 2209 
L 2766 2266 
Q 2766 2663 2505 2880 
Q 2244 3097 1772 3097 
Q 1472 3097 1187 3025 
Q 903 2953 641 2809 
L 641 3341 
Q 956 3463 1253 3523 
Q 1550 3584 1831 3584 
Q 2591 3584 2966 3190 
Q 3341 2797 3341 1997 
z
" transform="scale(0.015625)"/>
       <path id="DejaVuSans-69" d="M 603 3500 
L 1178 3500 
L 1178 0 
L 603 0 
L 603 3500 
z
M 603 4863 
L 1178 4863 
L 1178 4134 
L 603 4134 
L 603 4863 
z
" transform="scale(0.015625)"/>
       <path id="DejaVuSans-6e" d="M 3513 2113 
L 3513 0 
L 2938 0 
L 2938 2094 
Q 2938 2591 2744 2837 
Q 2550 3084 2163 3084 
Q 1697 3084 1428 2787 
Q 1159 2491 1159 1978 
L 1159 0 
L 581 0 
L 581 3500 
L 1159 3500 
L 1159 2956 
Q 1366 3272 1645 3428 
Q 1925 3584 2291 3584 
Q 2894 3584 3203 3211 
Q 3513 2838 3513 2113 
z
" transform="scale(0.015625)"/>
       <path id="DejaVuSans-67" d="M 2906 1791 
Q 2906 2416 2648 2759 
Q 2391 3103 1925 3103 
Q 1463 3103 1205 2759 
Q 947 2416 947 1791 
Q 947 1169 1205 825 
Q 1463 481 1925 481 
Q 2391 481 2648 825 
Q 2906 1169 2906 1791 
z
M 3481 434 
Q 3481 -459 3084 -895 
Q 2688 -1331 1869 -1331 
Q 1566 -1331 1297 -1286 
Q 1028 -1241 775 -1147 
L 775 -588 
Q 1028 -725 1275 -790 
Q 1522 -856 1778 -856 
Q 2344 -856 2625 -561 
Q 2906 -266 2906 331 
L 2906 616 
Q 2728 306 2450 153 
Q 2172 0 1784 0 
Q 1141 0 747 490 
Q 353 981 353 1791 
Q 353 2603 747 3093 
Q 1141 3584 1784 3584 
Q 2172 3584 2450 3431 
Q 2728 3278 2906 2969 
L 2906 3500 
L 3481 3500 
L 3481 434 
z
" transform="scale(0.015625)"/>
       <path id="DejaVuSans-20" transform="scale(0.015625)"/>
       <path id="DejaVuSans-73" d="M 2834 3397 
L 2834 2853 
Q 2591 2978 2328 3040 
Q 2066 3103 1784 3103 
Q 1356 3103 1142 2972 
Q 928 2841 928 2578 
Q 928 2378 1081 2264 
Q 1234 2150 1697 2047 
L 1894 2003 
Q 2506 1872 2764 1633 
Q 3022 1394 3022 966 
Q 3022 478 2636 193 
Q 2250 -91 1575 -91 
Q 1294 -91 989 -36 
Q 684 19 347 128 
L 347 722 
Q 666 556 975 473 
Q 1284 391 1588 391 
Q 1994 391 2212 530 
Q 2431 669 2431 922 
Q 2431 1156 2273 1281 
Q 2116 1406 1581 1522 
L 1381 1569 
Q 847 1681 609 1914 
Q 372 2147 372 2553 
Q 372 3047 722 3315 
Q 1072 3584 1716 3584 
Q 2034 3584 2315 3537 
Q 2597 3491 2834 3397 
z
" transform="scale(0.015625)"/>
       <path id="DejaVuSans-74" d="M 1172 4494 
L 1172 3500 
L 2356 3500 
L 2356 3053 
L 1172 3053 
L 1172 1153 
Q 1172 725 1289 603 
Q 1406 481 1766 481 
L 2356 481 
L 2356 0 
L 1766 0 
Q 1100 0 847 248 
Q 594 497 594 1153 
L 594 3053 
L 172 3053 
L 172 3500 
L 594 3500 
L 594 4494 
L 1172 4494 
z
" transform="scale(0.015625)"/>
       <path id="DejaVuSans-65" d="M 3597 1894 
L 3597 1613 
L 953 1613 
Q 991 1019 1311 708 
Q 1631 397 2203 397 
Q 2534 397 2845 478 
Q 3156 559 3463 722 
L 3463 178 
Q 3153 47 2828 -22 
Q 2503 -91 2169 -91 
Q 1331 -91 842 396 
Q 353 884 353 1716 
Q 353 2575 817 3079 
Q 1281 3584 2069 3584 
Q 2775 3584 3186 3129 
Q 3597 2675 3597 1894 
z
M 3022 2063 
Q 3016 2534 2758 2815 
Q 2500 3097 2075 3097 
Q 1594 3097 1305 2825 
Q 1016 2553 972 2059 
L 3022 2063 
z
" transform="scale(0.015625)"/>
       <path id="DejaVuSans-70" d="M 1159 525 
L 1159 -1331 
L 581 -1331 
L 581 3500 
L 1159 3500 
L 1159 2969 
Q 1341 3281 1617 3432 
Q 1894 3584 2278 3584 
Q 2916 3584 3314 3078 
Q 3713 2572 3713 1747 
Q 3713 922 3314 415 
Q 2916 -91 2278 -91 
Q 1894 -91 1617 61 
Q 1341 213 1159 525 
z
M 3116 1747 
Q 3116 2381 2855 2742 
Q 2594 3103 2138 3103 
Q 1681 3103 1420 2742 
Q 1159 2381 1159 1747 
Q 1159 1113 1420 752 
Q 1681 391 2138 391 
Q 2594 391 2855 752 
Q 3116 1113 3116 1747 
z
" transform="scale(0.015625)"/>
      </defs>
      <use xlink:href="#DejaVuSans-54"/>
      <use xlink:href="#DejaVuSans-72" transform="translate(46.333984 0)"/>
      <use xlink:href="#DejaVuSans-61" transform="translate(87.447266 0)"/>
      <use xlink:href="#DejaVuSans-69" transform="translate(148.726562 0)"/>
      <use xlink:href="#DejaVuSans-6e" transform="translate(176.509766 0)"/>
      <use xlink:href="#DejaVuSans-69" transform="translate(239.888672 0)"/>
      <use xlink:href="#DejaVuSans-6e" transform="translate(267.671875 0)"/>
      <use xlink:href="#DejaVuSans-67" transform="translate(331.050781 0)"/>
      <use xlink:href="#DejaVuSans-20" transform="translate(394.527344 0)"/>
      <use xlink:href="#DejaVuSans-73" transform="translate(426.314453 0)"/>
      <use xlink:href="#DejaVuSans-74" transform="translate(478.414062 0)"/>
      <use xlink:href="#DejaVuSans-65" transform="translate(517.623047 0)"/>
      <use xlink:href="#DejaVuSans-70" transform="translate(579.146484 0)"/>
     </g>
    </g>
   </g>
   <g id="matplotlib.axis_2">
    <g id="ytick_1">
     <g id="line2d_7">
      <defs>
       <path id="ma991f14420" d="M 0 0 
L -3.5 0 
" style="stroke: #000000; stroke-width: 0.8"/>
      </defs>
      <g>
       <use xlink:href="#ma991f14420" x="56.571875" y="199.061953" style="stroke: #000000; stroke-width: 0.8"/>
      </g>
     </g>
     <g id="text_8">
      <!-- 1.0 -->
      <g transform="translate(25.717188 204.760781) scale(0.15 -0.15)">
       <defs>
        <path id="DejaVuSans-2e" d="M 684 794 
L 1344 794 
L 1344 0 
L 684 0 
L 684 794 
z
" transform="scale(0.015625)"/>
       </defs>
       <use xlink:href="#DejaVuSans-31"/>
       <use xlink:href="#DejaVuSans-2e" transform="translate(63.623047 0)"/>
       <use xlink:href="#DejaVuSans-30" transform="translate(95.410156 0)"/>
      </g>
     </g>
    </g>
    <g id="ytick_2">
     <g id="line2d_8">
      <defs>
       <path id="md3cbf0342d" d="M 0 0 
L -2 0 
" style="stroke: #000000; stroke-width: 0.6"/>
      </defs>
      <g>
       <use xlink:href="#md3cbf0342d" x="56.571875" y="267.504367" style="stroke: #000000; stroke-width: 0.6"/>
      </g>
     </g>
    </g>
    <g id="ytick_3">
     <g id="line2d_9">
      <g>
       <use xlink:href="#md3cbf0342d" x="56.571875" y="241.881006" style="stroke: #000000; stroke-width: 0.6"/>
      </g>
     </g>
    </g>
    <g id="ytick_4">
     <g id="line2d_10">
      <g>
       <use xlink:href="#md3cbf0342d" x="56.571875" y="219.2796" style="stroke: #000000; stroke-width: 0.6"/>
      </g>
     </g>
    </g>
    <g id="ytick_5">
     <g id="line2d_11">
      <g>
       <use xlink:href="#md3cbf0342d" x="56.571875" y="66.053826" style="stroke: #000000; stroke-width: 0.6"/>
      </g>
     </g>
    </g>
    <g id="text_9">
     <!-- Validation loss -->
     <g transform="translate(18.597656 196.18625) rotate(-90) scale(0.15 -0.15)">
      <defs>
       <path id="DejaVuSans-56" d="M 1831 0 
L 50 4666 
L 709 4666 
L 2188 738 
L 3669 4666 
L 4325 4666 
L 2547 0 
L 1831 0 
z
" transform="scale(0.015625)"/>
       <path id="DejaVuSans-6c" d="M 603 4863 
L 1178 4863 
L 1178 0 
L 603 0 
L 603 4863 
z
" transform="scale(0.015625)"/>
       <path id="DejaVuSans-64" d="M 2906 2969 
L 2906 4863 
L 3481 4863 
L 3481 0 
L 2906 0 
L 2906 525 
Q 2725 213 2448 61 
Q 2172 -91 1784 -91 
Q 1150 -91 751 415 
Q 353 922 353 1747 
Q 353 2572 751 3078 
Q 1150 3584 1784 3584 
Q 2172 3584 2448 3432 
Q 2725 3281 2906 2969 
z
M 947 1747 
Q 947 1113 1208 752 
Q 1469 391 1925 391 
Q 2381 391 2643 752 
Q 2906 1113 2906 1747 
Q 2906 2381 2643 2742 
Q 2381 3103 1925 3103 
Q 1469 3103 1208 2742 
Q 947 2381 947 1747 
z
" transform="scale(0.015625)"/>
       <path id="DejaVuSans-6f" d="M 1959 3097 
Q 1497 3097 1228 2736 
Q 959 2375 959 1747 
Q 959 1119 1226 758 
Q 1494 397 1959 397 
Q 2419 397 2687 759 
Q 2956 1122 2956 1747 
Q 2956 2369 2687 2733 
Q 2419 3097 1959 3097 
z
M 1959 3584 
Q 2709 3584 3137 3096 
Q 3566 2609 3566 1747 
Q 3566 888 3137 398 
Q 2709 -91 1959 -91 
Q 1206 -91 779 398 
Q 353 888 353 1747 
Q 353 2609 779 3096 
Q 1206 3584 1959 3584 
z
" transform="scale(0.015625)"/>
      </defs>
      <use xlink:href="#DejaVuSans-56"/>
      <use xlink:href="#DejaVuSans-61" transform="translate(60.658203 0)"/>
      <use xlink:href="#DejaVuSans-6c" transform="translate(121.9375 0)"/>
      <use xlink:href="#DejaVuSans-69" transform="translate(149.720703 0)"/>
      <use xlink:href="#DejaVuSans-64" transform="translate(177.503906 0)"/>
      <use xlink:href="#DejaVuSans-61" transform="translate(240.980469 0)"/>
      <use xlink:href="#DejaVuSans-74" transform="translate(302.259766 0)"/>
      <use xlink:href="#DejaVuSans-69" transform="translate(341.46875 0)"/>
      <use xlink:href="#DejaVuSans-6f" transform="translate(369.251953 0)"/>
      <use xlink:href="#DejaVuSans-6e" transform="translate(430.433594 0)"/>
      <use xlink:href="#DejaVuSans-20" transform="translate(493.8125 0)"/>
      <use xlink:href="#DejaVuSans-6c" transform="translate(525.599609 0)"/>
      <use xlink:href="#DejaVuSans-6f" transform="translate(553.382812 0)"/>
      <use xlink:href="#DejaVuSans-73" transform="translate(614.564453 0)"/>
      <use xlink:href="#DejaVuSans-73" transform="translate(666.664062 0)"/>
     </g>
    </g>
   </g>
   <g id="line2d_12">
    <path d="M 60.622927 24.019287 
L 68.725032 29.753382 
L 76.827137 39.962106 
L 84.929242 47.790909 
L 93.031347 57.231352 
L 101.133452 61.474751 
L 109.235557 62.941794 
L 117.337662 71.681165 
L 125.439767 75.019856 
L 133.541872 83.750886 
L 141.643977 88.361625 
L 149.746082 94.227003 
L 157.848187 107.522418 
L 165.950292 100.208539 
L 174.052397 105.921397 
L 182.154502 109.822684 
L 190.256607 124.508328 
L 198.358712 128.38556 
L 206.460817 127.207545 
L 214.562922 128.040672 
L 222.665027 126.772584 
L 230.767132 131.261525 
L 238.869237 130.629134 
L 246.971342 139.312309 
L 255.073447 136.134278 
L 263.175552 137.61917 
L 271.277657 145.45309 
L 279.379762 133.743863 
L 287.481867 141.730858 
L 295.583972 139.537318 
L 303.686077 151.437247 
L 311.788182 153.423736 
L 319.890287 152.232383 
L 327.992392 151.886919 
L 336.094497 148.480804 
L 344.196602 151.661951 
L 352.298707 156.75016 
L 360.400812 160.715777 
L 368.502917 158.7305 
L 376.605022 148.849724 
L 384.707127 161.850479 
L 392.809232 155.874824 
L 400.911337 155.293478 
L 409.013442 167.871372 
L 417.115547 158.543973 
L 425.217652 151.272631 
L 433.319757 172.660617 
L 441.421862 162.008609 
L 449.523967 160.983089 
L 457.626072 165.811069 
" clip-path="url(#pbb02805f55)" style="fill: none; stroke: #b64342; stroke-width: 1.8; stroke-linecap: square"/>
   </g>
   <g id="line2d_13">
    <path d="M 60.622927 30.29412 
L 68.725032 38.943099 
L 76.827137 49.43797 
L 84.929242 55.461842 
L 93.031347 69.061161 
L 101.133452 76.584502 
L 109.235557 79.927852 
L 117.337662 90.616504 
L 125.439767 100.909099 
L 133.541872 101.462163 
L 141.643977 106.039534 
L 149.746082 119.20854 
L 157.848187 128.864122 
L 165.950292 129.570852 
L 174.052397 134.935348 
L 182.154502 140.595577 
L 190.256607 138.079456 
L 198.358712 153.106325 
L 206.460817 147.08534 
L 214.562922 162.594824 
L 222.665027 164.076239 
L 230.767132 160.79436 
L 238.869237 161.629317 
L 246.971342 165.875625 
L 255.073447 171.178061 
L 263.175552 174.830031 
L 271.277657 177.229647 
L 279.379762 177.332427 
L 287.481867 183.389871 
L 295.583972 182.965921 
L 303.686077 183.23078 
L 311.788182 187.98937 
L 319.890287 185.45227 
L 327.992392 187.971258 
L 336.094497 181.559482 
L 344.196602 191.886773 
L 352.298707 197.304635 
L 360.400812 198.0858 
L 368.502917 197.038622 
L 376.605022 192.683268 
L 384.707127 200.699991 
L 392.809232 197.32365 
L 400.911337 189.919029 
L 409.013442 216.464638 
L 417.115547 208.239221 
L 425.217652 200.738702 
L 433.319757 200.351943 
L 441.421862 201.767398 
L 449.523967 206.17705 
L 457.626072 200.216762 
" clip-path="url(#pbb02805f55)" style="fill: none; stroke: #42949e; stroke-width: 1.8; stroke-linecap: square"/>
   </g>
   <g id="FillBetweenPolyCollection_3">
    <defs>
     <path id="m23214fb4c1" d="M 60.622927 -299.469803 
L 60.622927 -293.566235 
L 68.725032 -281.550884 
L 76.827137 -273.086392 
L 84.929242 -256.902511 
L 93.031347 -249.101425 
L 101.133452 -236.265079 
L 109.235557 -233.48653 
L 117.337662 -226.154527 
L 125.439767 -209.889037 
L 133.541872 -210.19787 
L 141.643977 -199.786554 
L 149.746082 -187.864745 
L 157.848187 -173.142156 
L 165.950292 -180.601412 
L 174.052397 -167.258431 
L 182.154502 -157.926182 
L 190.256607 -158.444149 
L 198.358712 -151.76646 
L 206.460817 -152.751413 
L 214.562922 -134.437349 
L 222.665027 -139.980405 
L 230.767132 -138.192373 
L 238.869237 -133.776733 
L 246.971342 -119.924843 
L 255.073447 -112.224824 
L 263.175552 -120.752892 
L 271.277657 -111.524269 
L 279.379762 -108.842772 
L 287.481867 -114.046612 
L 295.583972 -100.128239 
L 303.686077 -84.408882 
L 311.788182 -94.910192 
L 319.890287 -82.6174 
L 327.992392 -97.459225 
L 336.094497 -93.01005 
L 344.196602 -84.170982 
L 352.298707 -86.536813 
L 360.400812 -93.259952 
L 368.502917 -85.593978 
L 376.605022 -91.709868 
L 384.707127 -81.075331 
L 392.809232 -90.28556 
L 400.911337 -92.486475 
L 409.013442 -91.297447 
L 417.115547 -75.404014 
L 425.217652 -85.286556 
L 433.319757 -64.510614 
L 441.421862 -67.675507 
L 449.523967 -59.514375 
L 457.626072 -81.703292 
L 457.626072 -101.612046 
L 457.626072 -101.612046 
L 449.523967 -80.905913 
L 441.421862 -87.381422 
L 433.319757 -80.251039 
L 425.217652 -100.565845 
L 417.115547 -90.308617 
L 409.013442 -107.392952 
L 400.911337 -106.462676 
L 392.809232 -104.545675 
L 384.707127 -100.653246 
L 376.605022 -110.904 
L 368.502917 -102.933414 
L 360.400812 -108.066695 
L 352.298707 -106.229401 
L 344.196602 -103.665985 
L 336.094497 -110.593113 
L 327.992392 -116.113453 
L 319.890287 -99.689633 
L 311.788182 -111.29707 
L 303.686077 -101.155034 
L 295.583972 -117.05838 
L 287.481867 -128.823733 
L 279.379762 -123.971782 
L 271.277657 -127.061435 
L 263.175552 -134.63875 
L 255.073447 -129.407588 
L 246.971342 -135.624396 
L 238.869237 -147.398976 
L 230.767132 -151.246909 
L 222.665027 -154.244213 
L 214.562922 -146.575338 
L 206.460817 -163.658486 
L 198.358712 -164.208292 
L 190.256607 -168.397523 
L 182.154502 -171.019306 
L 174.052397 -178.734522 
L 165.950292 -191.191529 
L 157.848187 -183.318436 
L 149.746082 -198.203217 
L 141.643977 -210.160836 
L 133.541872 -219.144801 
L 125.439767 -217.785172 
L 117.337662 -235.46603 
L 109.235557 -239.957646 
L 101.133452 -243.185938 
L 93.031347 -256.340436 
L 84.929242 -262.678809 
L 76.827137 -279.712392 
L 68.725032 -287.912097 
L 60.622927 -299.469803 
z
"/>
    </defs>
    <g clip-path="url(#pbb02805f55)">
     <use xlink:href="#m23214fb4c1" x="0" y="324.594375" style="fill: #0f4d92; fill-opacity: 0.18"/>
    </g>
   </g>
   <g id="patch_3">
    <path d="M 56.571875 277.36 
L 56.571875 7.2 
" style="fill: none; stroke: #000000; stroke-width: 2; stroke-linejoin: miter; stroke-linecap: square"/>
   </g>
   <g id="patch_4">
    <path d="M 56.571875 277.36 
L 490.034492 277.36 
" style="fill: none; stroke: #000000; stroke-width: 2; stroke-linejoin: miter; stroke-linecap: square"/>
   </g>
   <g id="line2d_14">
    <path d="M 60.622927 28.053654 
L 68.725032 39.836526 
L 76.827137 48.166385 
L 84.929242 64.781981 
L 93.031347 71.83931 
L 101.133452 84.837667 
L 109.235557 87.84501 
L 117.337662 93.727622 
L 125.439767 110.716659 
L 133.541872 109.8709 
L 141.643977 119.550579 
L 149.746082 131.490777 
L 157.848187 146.296629 
L 165.950292 138.624857 
L 174.052397 151.512119 
L 182.154502 160.009981 
L 190.256607 161.109011 
L 198.358712 166.506178 
L 206.460817 166.311941 
L 214.562922 183.992074 
L 222.665027 177.349562 
L 230.767132 179.76374 
L 238.869237 183.885666 
L 246.971342 196.659242 
L 255.073447 203.585905 
L 263.175552 196.772978 
L 271.277657 205.144312 
L 279.379762 208.038036 
L 287.481867 203.016992 
L 295.583972 215.814411 
L 303.686077 231.629796 
L 311.788182 221.315873 
L 319.890287 233.251059 
L 327.992392 217.581446 
L 336.094497 222.59147 
L 344.196602 230.428425 
L 352.298707 227.958762 
L 360.400812 223.788271 
L 368.502917 230.134894 
L 376.605022 223.04755 
L 384.707127 233.480511 
L 392.809232 227.046322 
L 400.911337 224.992584 
L 409.013442 225.080466 
L 417.115547 241.593386 
L 425.217652 231.516138 
L 433.319757 252.052199 
L 441.421862 246.813062 
L 449.523967 254.086299 
L 457.626072 232.678628 
" clip-path="url(#pbb02805f55)" style="fill: none; stroke: #0f4d92; stroke-width: 2.5; stroke-linecap: square"/>
   </g>
   <g id="patch_5">
    <path d="M 462.487335 170.051042 
Q 462.487335 199.247163 462.487335 228.443284 
" style="fill: none; stroke: #ffd700; stroke-width: 2; stroke-linecap: round"/>
    <path d="M 459.487335 176.051042 
L 462.487335 170.051042 
L 465.487335 176.051042 
" style="fill: none; stroke: #ffd700; stroke-width: 2; stroke-linecap: round"/>
    <path d="M 465.487335 222.443284 
L 462.487335 228.443284 
L 459.487335 222.443284 
" style="fill: none; stroke: #ffd700; stroke-width: 2; stroke-linecap: round"/>
   </g>
   <g id="text_10">
    <!-- 0.35 -->
    <g style="fill: #ffd700" transform="translate(467.348598 199.38213) scale(0.11 -0.11)">
     <defs>
      <path id="DejaVuSans-Bold-30" d="M 2944 2338 
Q 2944 3213 2780 3570 
Q 2616 3928 2228 3928 
Q 1841 3928 1675 3570 
Q 1509 3213 1509 2338 
Q 1509 1453 1675 1090 
Q 1841 728 2228 728 
Q 2613 728 2778 1090 
Q 2944 1453 2944 2338 
z
M 4147 2328 
Q 4147 1169 3647 539 
Q 3147 -91 2228 -91 
Q 1306 -91 806 539 
Q 306 1169 306 2328 
Q 306 3491 806 4120 
Q 1306 4750 2228 4750 
Q 3147 4750 3647 4120 
Q 4147 3491 4147 2328 
z
" transform="scale(0.015625)"/>
      <path id="DejaVuSans-Bold-2e" d="M 653 1209 
L 1778 1209 
L 1778 0 
L 653 0 
L 653 1209 
z
" transform="scale(0.015625)"/>
      <path id="DejaVuSans-Bold-33" d="M 2981 2516 
Q 3453 2394 3698 2092 
Q 3944 1791 3944 1325 
Q 3944 631 3412 270 
Q 2881 -91 1863 -91 
Q 1503 -91 1142 -33 
Q 781 25 428 141 
L 428 1069 
Q 766 900 1098 814 
Q 1431 728 1753 728 
Q 2231 728 2486 893 
Q 2741 1059 2741 1369 
Q 2741 1688 2480 1852 
Q 2219 2016 1709 2016 
L 1228 2016 
L 1228 2791 
L 1734 2791 
Q 2188 2791 2409 2933 
Q 2631 3075 2631 3366 
Q 2631 3634 2415 3781 
Q 2200 3928 1806 3928 
Q 1516 3928 1219 3862 
Q 922 3797 628 3669 
L 628 4550 
Q 984 4650 1334 4700 
Q 1684 4750 2022 4750 
Q 2931 4750 3382 4451 
Q 3834 4153 3834 3553 
Q 3834 3144 3618 2883 
Q 3403 2622 2981 2516 
z
" transform="scale(0.015625)"/>
      <path id="DejaVuSans-Bold-35" d="M 678 4666 
L 3669 4666 
L 3669 3781 
L 1638 3781 
L 1638 3059 
Q 1775 3097 1914 3117 
Q 2053 3138 2203 3138 
Q 3056 3138 3531 2711 
Q 4006 2284 4006 1522 
Q 4006 766 3489 337 
Q 2972 -91 2053 -91 
Q 1656 -91 1267 -14 
Q 878 63 494 219 
L 494 1166 
Q 875 947 1217 837 
Q 1559 728 1863 728 
Q 2300 728 2551 942 
Q 2803 1156 2803 1522 
Q 2803 1891 2551 2103 
Q 2300 2316 1863 2316 
Q 1603 2316 1309 2248 
Q 1016 2181 678 2041 
L 678 4666 
z
" transform="scale(0.015625)"/>
     </defs>
     <use xlink:href="#DejaVuSans-Bold-30"/>
     <use xlink:href="#DejaVuSans-Bold-2e" transform="translate(69.580078 0)"/>
     <use xlink:href="#DejaVuSans-Bold-33" transform="translate(107.568359 0)"/>
     <use xlink:href="#DejaVuSans-Bold-35" transform="translate(177.148438 0)"/>
    </g>
   </g>
   <g id="legend_1">
    <g id="line2d_15">
     <path d="M 381.366992 22.918125 
L 393.366992 22.918125 
L 405.366992 22.918125 
" style="fill: none; stroke: #b64342; stroke-width: 1.8; stroke-linecap: square"/>
    </g>
    <g id="text_11">
     <!-- Baseline -->
     <g transform="translate(414.966992 27.118125) scale(0.12 -0.12)">
      <defs>
       <path id="DejaVuSans-42" d="M 1259 2228 
L 1259 519 
L 2272 519 
Q 2781 519 3026 730 
Q 3272 941 3272 1375 
Q 3272 1813 3026 2020 
Q 2781 2228 2272 2228 
L 1259 2228 
z
M 1259 4147 
L 1259 2741 
L 2194 2741 
Q 2656 2741 2882 2914 
Q 3109 3088 3109 3444 
Q 3109 3797 2882 3972 
Q 2656 4147 2194 4147 
L 1259 4147 
z
M 628 4666 
L 2241 4666 
Q 2963 4666 3353 4366 
Q 3744 4066 3744 3513 
Q 3744 3084 3544 2831 
Q 3344 2578 2956 2516 
Q 3422 2416 3680 2098 
Q 3938 1781 3938 1306 
Q 3938 681 3513 340 
Q 3088 0 2303 0 
L 628 0 
L 628 4666 
z
" transform="scale(0.015625)"/>
      </defs>
      <use xlink:href="#DejaVuSans-42"/>
      <use xlink:href="#DejaVuSans-61" transform="translate(68.603516 0)"/>
      <use xlink:href="#DejaVuSans-73" transform="translate(129.882812 0)"/>
      <use xlink:href="#DejaVuSans-65" transform="translate(181.982422 0)"/>
      <use xlink:href="#DejaVuSans-6c" transform="translate(243.505859 0)"/>
      <use xlink:href="#DejaVuSans-69" transform="translate(271.289062 0)"/>
      <use xlink:href="#DejaVuSans-6e" transform="translate(299.072266 0)"/>
      <use xlink:href="#DejaVuSans-65" transform="translate(362.451172 0)"/>
     </g>
    </g>
    <g id="line2d_16">
     <path d="M 381.366992 40.531875 
L 393.366992 40.531875 
L 405.366992 40.531875 
" style="fill: none; stroke: #42949e; stroke-width: 1.8; stroke-linecap: square"/>
    </g>
    <g id="text_12">
     <!-- Method-A -->
     <g transform="translate(414.966992 44.731875) scale(0.12 -0.12)">
      <defs>
       <path id="DejaVuSans-4d" d="M 628 4666 
L 1569 4666 
L 2759 1491 
L 3956 4666 
L 4897 4666 
L 4897 0 
L 4281 0 
L 4281 4097 
L 3078 897 
L 2444 897 
L 1241 4097 
L 1241 0 
L 628 0 
L 628 4666 
z
" transform="scale(0.015625)"/>
       <path id="DejaVuSans-68" d="M 3513 2113 
L 3513 0 
L 2938 0 
L 2938 2094 
Q 2938 2591 2744 2837 
Q 2550 3084 2163 3084 
Q 1697 3084 1428 2787 
Q 1159 2491 1159 1978 
L 1159 0 
L 581 0 
L 581 4863 
L 1159 4863 
L 1159 2956 
Q 1366 3272 1645 3428 
Q 1925 3584 2291 3584 
Q 2894 3584 3203 3211 
Q 3513 2838 3513 2113 
z
" transform="scale(0.015625)"/>
       <path id="DejaVuSans-2d" d="M 313 2009 
L 1997 2009 
L 1997 1497 
L 313 1497 
L 313 2009 
z
" transform="scale(0.015625)"/>
       <path id="DejaVuSans-41" d="M 2188 4044 
L 1331 1722 
L 3047 1722 
L 2188 4044 
z
M 1831 4666 
L 2547 4666 
L 4325 0 
L 3669 0 
L 3244 1197 
L 1141 1197 
L 716 0 
L 50 0 
L 1831 4666 
z
" transform="scale(0.015625)"/>
      </defs>
      <use xlink:href="#DejaVuSans-4d"/>
      <use xlink:href="#DejaVuSans-65" transform="translate(86.279297 0)"/>
      <use xlink:href="#DejaVuSans-74" transform="translate(147.802734 0)"/>
      <use xlink:href="#DejaVuSans-68" transform="translate(187.011719 0)"/>
      <use xlink:href="#DejaVuSans-6f" transform="translate(250.390625 0)"/>
      <use xlink:href="#DejaVuSans-64" transform="translate(311.572266 0)"/>
      <use xlink:href="#DejaVuSans-2d" transform="translate(375.048828 0)"/>
      <use xlink:href="#DejaVuSans-41" transform="translate(408.882812 0)"/>
     </g>
    </g>
    <g id="line2d_17">
     <path d="M 381.366992 58.145625 
L 393.366992 58.145625 
L 405.366992 58.145625 
" style="fill: none; stroke: #0f4d92; stroke-width: 2.5; stroke-linecap: square"/>
    </g>
    <g id="text_13">
     <!-- OursModel -->
     <g transform="translate(414.966992 62.345625) scale(0.12 -0.12)">
      <defs>
       <path id="DejaVuSans-4f" d="M 2522 4238 
Q 1834 4238 1429 3725 
Q 1025 3213 1025 2328 
Q 1025 1447 1429 934 
Q 1834 422 2522 422 
Q 3209 422 3611 934 
Q 4013 1447 4013 2328 
Q 4013 3213 3611 3725 
Q 3209 4238 2522 4238 
z
M 2522 4750 
Q 3503 4750 4090 4092 
Q 4678 3434 4678 2328 
Q 4678 1225 4090 567 
Q 3503 -91 2522 -91 
Q 1538 -91 948 565 
Q 359 1222 359 2328 
Q 359 3434 948 4092 
Q 1538 4750 2522 4750 
z
" transform="scale(0.015625)"/>
       <path id="DejaVuSans-75" d="M 544 1381 
L 544 3500 
L 1119 3500 
L 1119 1403 
Q 1119 906 1312 657 
Q 1506 409 1894 409 
Q 2359 409 2629 706 
Q 2900 1003 2900 1516 
L 2900 3500 
L 3475 3500 
L 3475 0 
L 2900 0 
L 2900 538 
Q 2691 219 2414 64 
Q 2138 -91 1772 -91 
Q 1169 -91 856 284 
Q 544 659 544 1381 
z
M 1991 3584 
L 1991 3584 
z
" transform="scale(0.015625)"/>
      </defs>
      <use xlink:href="#DejaVuSans-4f"/>
      <use xlink:href="#DejaVuSans-75" transform="translate(78.710938 0)"/>
      <use xlink:href="#DejaVuSans-72" transform="translate(142.089844 0)"/>
      <use xlink:href="#DejaVuSans-73" transform="translate(183.203125 0)"/>
      <use xlink:href="#DejaVuSans-4d" transform="translate(235.302734 0)"/>
      <use xlink:href="#DejaVuSans-6f" transform="translate(321.582031 0)"/>
      <use xlink:href="#DejaVuSans-64" transform="translate(382.763672 0)"/>
      <use xlink:href="#DejaVuSans-65" transform="translate(446.240234 0)"/>
      <use xlink:href="#DejaVuSans-6c" transform="translate(507.763672 0)"/>
     </g>
    </g>
   </g>
  </g>
 </g>
 <defs>
  <clipPath id="pbb02805f55">
   <rect x="56.571875" y="7.2" width="433.462617" height="270.16"/>
  </clipPath>
 </defs>
</svg>
