<?xml version="1.0" encoding="utf-8" standalone="no"?>
<!DOCTYPE svg PUBLIC "-//W3C//DTD SVG 1.1//EN"
  "http://www.w3.org/Graphics/SVG/1.1/DTD/svg11.dtd">
<svg xmlns:xlink="http://www.w3.org/1999/xlink" width="423.08671pt" height="279.99625pt" viewBox="0 0 423.08671 279.99625" xmlns="http://www.w3.org/2000/svg" version="1.1">
 <metadata>
  <rdf:RDF xmlns:dc="http://purl.org/dc/elements/1.1/" xmlns:cc="http://creativecommons.org/ns#" xmlns:rdf="http://www.w3.org/1999/02/22-rdf-syntax-ns#">
   <cc:Work>
    <dc:type rdf:resource="http://purl.org/dc/dcmitype/StillImage"/>
    <dc:date>2026-05-24T23:01:37.289691</dc:date>
    <dc:format>image/svg+xml</dc:format>
    <dc:creator>
     <cc:Agent>
      <dc:title>Matplotlib v3.10.8, https://matplotlib.org/</dc:title>
     </cc:Agent>
    </dc:creator>
   </cc:Work>
  </rdf:RDF>
 </metadata>
 <defs>
  <style type="text/css">*{stroke-linejoin: round; stroke-linecap: butt}</style>
 </defs>
 <g id="figure_1">
  <g id="patch_1">
   <path d="M 0 279.99625 
L 423.08671 279.99625 
L 423.08671 0 
L 0 0 
z
" style="fill: #ffffff"/>
  </g>
  <g id="axes_1">
   <g id="patch_2">
    <path d="M 63.445938 242.44 
L 378.903959 242.44 
L 378.903959 7.2 
L 63.445938 7.2 
z
" style="fill: #ffffff"/>
   </g>
   <g id="matplotlib.axis_1">
    <g id="xtick_1">
     <g id="line2d_1">
      <path d="M 63.445938 242.44 
L 63.445938 7.2 
" clip-path="url(#p2dce9537e4)" style="fill: none; stroke-dasharray: 1.48,0.64; stroke-dashoffset: 0; stroke: #b0b0b0; stroke-opacity: 0.5; stroke-width: 0.4"/>
     </g>
     <g id="line2d_2">
      <defs>
       <path id="m17c922b4e6" d="M 0 0 
L 0 3.5 
" style="stroke: #000000; stroke-width: 0.8"/>
      </defs>
      <g>
       <use xlink:href="#m17c922b4e6" x="63.445938" y="242.44" style="stroke: #000000; stroke-width: 0.8"/>
      </g>
     </g>
     <g id="text_1">
      <!-- 0 -->
      <g transform="translate(60.582813 256.278594) scale(0.09 -0.09)">
       <defs>
        <path id="DejaVuSans-30" d="M 2034 4250 
Q 1547 4250 1301 3770 
Q 1056 3291 1056 2328 
Q 1056 1369 1301 889 
Q 1547 409 2034 409 
Q 2525 409 2770 889 
Q 3016 1369 3016 2328 
Q 3016 3291 2770 3770 
Q 2525 4250 2034 4250 
z
M 2034 4750 
Q 2819 4750 3233 4129 
Q 3647 3509 3647 2328 
Q 3647 1150 3233 529 
Q 2819 -91 2034 -91 
Q 1250 -91 836 529 
Q 422 1150 422 2328 
Q 422 3509 836 4129 
Q 1250 4750 2034 4750 
z
" transform="scale(0.015625)"/>
       </defs>
       <use xlink:href="#DejaVuSans-30"/>
      </g>
     </g>
    </g>
    <g id="xtick_2">
     <g id="line2d_3">
      <path d="M 127.825126 242.44 
L 127.825126 7.2 
" clip-path="url(#p2dce9537e4)" style="fill: none; stroke-dasharray: 1.48,0.64; stroke-dashoffset: 0; stroke: #b0b0b0; stroke-opacity: 0.5; stroke-width: 0.4"/>
     </g>
     <g id="line2d_4">
      <g>
       <use xlink:href="#m17c922b4e6" x="127.825126" y="242.44" style="stroke: #000000; stroke-width: 0.8"/>
      </g>
     </g>
     <g id="text_2">
      <!-- 10 -->
      <g transform="translate(122.098876 256.278594) scale(0.09 -0.09)">
       <defs>
        <path id="DejaVuSans-31" d="M 794 531 
L 1825 531 
L 1825 4091 
L 703 3866 
L 703 4441 
L 1819 4666 
L 2450 4666 
L 2450 531 
L 3481 531 
L 3481 0 
L 794 0 
L 794 531 
z
" transform="scale(0.015625)"/>
       </defs>
       <use xlink:href="#DejaVuSans-31"/>
       <use xlink:href="#DejaVuSans-30" transform="translate(63.623047 0)"/>
      </g>
     </g>
    </g>
    <g id="xtick_3">
     <g id="line2d_5">
      <path d="M 192.204314 242.44 
L 192.204314 7.2 
" clip-path="url(#p2dce9537e4)" style="fill: none; stroke-dasharray: 1.48,0.64; stroke-dashoffset: 0; stroke: #b0b0b0; stroke-opacity: 0.5; stroke-width: 0.4"/>
     </g>
     <g id="line2d_6">
      <g>
       <use xlink:href="#m17c922b4e6" x="192.204314" y="242.44" style="stroke: #000000; stroke-width: 0.8"/>
      </g>
     </g>
     <g id="text_3">
      <!-- 20 -->
      <g transform="translate(186.478064 256.278594) scale(0.09 -0.09)">
       <defs>
        <path id="DejaVuSans-32" d="M 1228 531 
L 3431 531 
L 3431 0 
L 469 0 
L 469 531 
Q 828 903 1448 1529 
Q 2069 2156 2228 2338 
Q 2531 2678 2651 2914 
Q 2772 3150 2772 3378 
Q 2772 3750 2511 3984 
Q 2250 4219 1831 4219 
Q 1534 4219 1204 4116 
Q 875 4013 500 3803 
L 500 4441 
Q 881 4594 1212 4672 
Q 1544 4750 1819 4750 
Q 2544 4750 2975 4387 
Q 3406 4025 3406 3419 
Q 3406 3131 3298 2873 
Q 3191 2616 2906 2266 
Q 2828 2175 2409 1742 
Q 1991 1309 1228 531 
z
" transform="scale(0.015625)"/>
       </defs>
       <use xlink:href="#DejaVuSans-32"/>
       <use xlink:href="#DejaVuSans-30" transform="translate(63.623047 0)"/>
      </g>
     </g>
    </g>
    <g id="xtick_4">
     <g id="line2d_7">
      <path d="M 256.583502 242.44 
L 256.583502 7.2 
" clip-path="url(#p2dce9537e4)" style="fill: none; stroke-dasharray: 1.48,0.64; stroke-dashoffset: 0; stroke: #b0b0b0; stroke-opacity: 0.5; stroke-width: 0.4"/>
     </g>
     <g id="line2d_8">
      <g>
       <use xlink:href="#m17c922b4e6" x="256.583502" y="242.44" style="stroke: #000000; stroke-width: 0.8"/>
      </g>
     </g>
     <g id="text_4">
      <!-- 30 -->
      <g transform="translate(250.857252 256.278594) scale(0.09 -0.09)">
       <defs>
        <path id="DejaVuSans-33" d="M 2597 2516 
Q 3050 2419 3304 2112 
Q 3559 1806 3559 1356 
Q 3559 666 3084 287 
Q 2609 -91 1734 -91 
Q 1441 -91 1130 -33 
Q 819 25 488 141 
L 488 750 
Q 750 597 1062 519 
Q 1375 441 1716 441 
Q 2309 441 2620 675 
Q 2931 909 2931 1356 
Q 2931 1769 2642 2001 
Q 2353 2234 1838 2234 
L 1294 2234 
L 1294 2753 
L 1863 2753 
Q 2328 2753 2575 2939 
Q 2822 3125 2822 3475 
Q 2822 3834 2567 4026 
Q 2313 4219 1838 4219 
Q 1578 4219 1281 4162 
Q 984 4106 628 3988 
L 628 4550 
Q 988 4650 1302 4700 
Q 1616 4750 1894 4750 
Q 2613 4750 3031 4423 
Q 3450 4097 3450 3541 
Q 3450 3153 3228 2886 
Q 3006 2619 2597 2516 
z
" transform="scale(0.015625)"/>
       </defs>
       <use xlink:href="#DejaVuSans-33"/>
       <use xlink:href="#DejaVuSans-30" transform="translate(63.623047 0)"/>
      </g>
     </g>
    </g>
    <g id="xtick_5">
     <g id="line2d_9">
      <path d="M 320.96269 242.44 
L 320.96269 7.2 
" clip-path="url(#p2dce9537e4)" style="fill: none; stroke-dasharray: 1.48,0.64; stroke-dashoffset: 0; stroke: #b0b0b0; stroke-opacity: 0.5; stroke-width: 0.4"/>
     </g>
     <g id="line2d_10">
      <g>
       <use xlink:href="#m17c922b4e6" x="320.96269" y="242.44" style="stroke: #000000; stroke-width: 0.8"/>
      </g>
     </g>
     <g id="text_5">
      <!-- 40 -->
      <g transform="translate(315.23644 256.278594) scale(0.09 -0.09)">
       <defs>
        <path id="DejaVuSans-34" d="M 2419 4116 
L 825 1625 
L 2419 1625 
L 2419 4116 
z
M 2253 4666 
L 3047 4666 
L 3047 1625 
L 3713 1625 
L 3713 1100 
L 3047 1100 
L 3047 0 
L 2419 0 
L 2419 1100 
L 313 1100 
L 313 1709 
L 2253 4666 
z
" transform="scale(0.015625)"/>
       </defs>
       <use xlink:href="#DejaVuSans-34"/>
       <use xlink:href="#DejaVuSans-30" transform="translate(63.623047 0)"/>
      </g>
     </g>
    </g>
    <g id="text_6">
     <!-- Training step -->
     <g transform="translate(185.831432 270.508594) scale(0.11 -0.11)">
      <defs>
       <path id="DejaVuSans-54" d="M -19 4666 
L 3928 4666 
L 3928 4134 
L 2272 4134 
L 2272 0 
L 1638 0 
L 1638 4134 
L -19 4134 
L -19 4666 
z
" transform="scale(0.015625)"/>
       <path id="DejaVuSans-72" d="M 2631 2963 
Q 2534 3019 2420 3045 
Q 2306 3072 2169 3072 
Q 1681 3072 1420 2755 
Q 1159 2438 1159 1844 
L 1159 0 
L 581 0 
L 581 3500 
L 1159 3500 
L 1159 2956 
Q 1341 3275 1631 3429 
Q 1922 3584 2338 3584 
Q 2397 3584 2469 3576 
Q 2541 3569 2628 3553 
L 2631 2963 
z
" transform="scale(0.015625)"/>
       <path id="DejaVuSans-61" d="M 2194 1759 
Q 1497 1759 1228 1600 
Q 959 1441 959 1056 
Q 959 750 1161 570 
Q 1363 391 1709 391 
Q 2188 391 2477 730 
Q 2766 1069 2766 1631 
L 2766 1759 
L 2194 1759 
z
M 3341 1997 
L 3341 0 
L 2766 0 
L 2766 531 
Q 2569 213 2275 61 
Q 1981 -91 1556 -91 
Q 1019 -91 701 211 
Q 384 513 384 1019 
Q 384 1609 779 1909 
Q 1175 2209 1959 2209 
L 2766 2209 
L 2766 2266 
Q 2766 2663 2505 2880 
Q 2244 3097 1772 3097 
Q 1472 3097 1187 3025 
Q 903 2953 641 2809 
L 641 3341 
Q 956 3463 1253 3523 
Q 1550 3584 1831 3584 
Q 2591 3584 2966 3190 
Q 3341 2797 3341 1997 
z
" transform="scale(0.015625)"/>
       <path id="DejaVuSans-69" d="M 603 3500 
L 1178 3500 
L 1178 0 
L 603 0 
L 603 3500 
z
M 603 4863 
L 1178 4863 
L 1178 4134 
L 603 4134 
L 603 4863 
z
" transform="scale(0.015625)"/>
       <path id="DejaVuSans-6e" d="M 3513 2113 
L 3513 0 
L 2938 0 
L 2938 2094 
Q 2938 2591 2744 2837 
Q 2550 3084 2163 3084 
Q 1697 3084 1428 2787 
Q 1159 2491 1159 1978 
L 1159 0 
L 581 0 
L 581 3500 
L 1159 3500 
L 1159 2956 
Q 1366 3272 1645 3428 
Q 1925 3584 2291 3584 
Q 2894 3584 3203 3211 
Q 3513 2838 3513 2113 
z
" transform="scale(0.015625)"/>
       <path id="DejaVuSans-67" d="M 2906 1791 
Q 2906 2416 2648 2759 
Q 2391 3103 1925 3103 
Q 1463 3103 1205 2759 
Q 947 2416 947 1791 
Q 947 1169 1205 825 
Q 1463 481 1925 481 
Q 2391 481 2648 825 
Q 2906 1169 2906 1791 
z
M 3481 434 
Q 3481 -459 3084 -895 
Q 2688 -1331 1869 -1331 
Q 1566 -1331 1297 -1286 
Q 1028 -1241 775 -1147 
L 775 -588 
Q 1028 -725 1275 -790 
Q 1522 -856 1778 -856 
Q 2344 -856 2625 -561 
Q 2906 -266 2906 331 
L 2906 616 
Q 2728 306 2450 153 
Q 2172 0 1784 0 
Q 1141 0 747 490 
Q 353 981 353 1791 
Q 353 2603 747 3093 
Q 1141 3584 1784 3584 
Q 2172 3584 2450 3431 
Q 2728 3278 2906 2969 
L 2906 3500 
L 3481 3500 
L 3481 434 
z
" transform="scale(0.015625)"/>
       <path id="DejaVuSans-20" transform="scale(0.015625)"/>
       <path id="DejaVuSans-73" d="M 2834 3397 
L 2834 2853 
Q 2591 2978 2328 3040 
Q 2066 3103 1784 3103 
Q 1356 3103 1142 2972 
Q 928 2841 928 2578 
Q 928 2378 1081 2264 
Q 1234 2150 1697 2047 
L 1894 2003 
Q 2506 1872 2764 1633 
Q 3022 1394 3022 966 
Q 3022 478 2636 193 
Q 2250 -91 1575 -91 
Q 1294 -91 989 -36 
Q 684 19 347 128 
L 347 722 
Q 666 556 975 473 
Q 1284 391 1588 391 
Q 1994 391 2212 530 
Q 2431 669 2431 922 
Q 2431 1156 2273 1281 
Q 2116 1406 1581 1522 
L 1381 1569 
Q 847 1681 609 1914 
Q 372 2147 372 2553 
Q 372 3047 722 3315 
Q 1072 3584 1716 3584 
Q 2034 3584 2315 3537 
Q 2597 3491 2834 3397 
z
" transform="scale(0.015625)"/>
       <path id="DejaVuSans-74" d="M 1172 4494 
L 1172 3500 
L 2356 3500 
L 2356 3053 
L 1172 3053 
L 1172 1153 
Q 1172 725 1289 603 
Q 1406 481 1766 481 
L 2356 481 
L 2356 0 
L 1766 0 
Q 1100 0 847 248 
Q 594 497 594 1153 
L 594 3053 
L 172 3053 
L 172 3500 
L 594 3500 
L 594 4494 
L 1172 4494 
z
" transform="scale(0.015625)"/>
       <path id="DejaVuSans-65" d="M 3597 1894 
L 3597 1613 
L 953 1613 
Q 991 1019 1311 708 
Q 1631 397 2203 397 
Q 2534 397 2845 478 
Q 3156 559 3463 722 
L 3463 178 
Q 3153 47 2828 -22 
Q 2503 -91 2169 -91 
Q 1331 -91 842 396 
Q 353 884 353 1716 
Q 353 2575 817 3079 
Q 1281 3584 2069 3584 
Q 2775 3584 3186 3129 
Q 3597 2675 3597 1894 
z
M 3022 2063 
Q 3016 2534 2758 2815 
Q 2500 3097 2075 3097 
Q 1594 3097 1305 2825 
Q 1016 2553 972 2059 
L 3022 2063 
z
" transform="scale(0.015625)"/>
       <path id="DejaVuSans-70" d="M 1159 525 
L 1159 -1331 
L 581 -1331 
L 581 3500 
L 1159 3500 
L 1159 2969 
Q 1341 3281 1617 3432 
Q 1894 3584 2278 3584 
Q 2916 3584 3314 3078 
Q 3713 2572 3713 1747 
Q 3713 922 3314 415 
Q 2916 -91 2278 -91 
Q 1894 -91 1617 61 
Q 1341 213 1159 525 
z
M 3116 1747 
Q 3116 2381 2855 2742 
Q 2594 3103 2138 3103 
Q 1681 3103 1420 2742 
Q 1159 2381 1159 1747 
Q 1159 1113 1420 752 
Q 1681 391 2138 391 
Q 2594 391 2855 752 
Q 3116 1113 3116 1747 
z
" transform="scale(0.015625)"/>
      </defs>
      <use xlink:href="#DejaVuSans-54"/>
      <use xlink:href="#DejaVuSans-72" transform="translate(46.333984 0)"/>
      <use xlink:href="#DejaVuSans-61" transform="translate(87.447266 0)"/>
      <use xlink:href="#DejaVuSans-69" transform="translate(148.726562 0)"/>
      <use xlink:href="#DejaVuSans-6e" transform="translate(176.509766 0)"/>
      <use xlink:href="#DejaVuSans-69" transform="translate(239.888672 0)"/>
      <use xlink:href="#DejaVuSans-6e" transform="translate(267.671875 0)"/>
      <use xlink:href="#DejaVuSans-67" transform="translate(331.050781 0)"/>
      <use xlink:href="#DejaVuSans-20" transform="translate(394.527344 0)"/>
      <use xlink:href="#DejaVuSans-73" transform="translate(426.314453 0)"/>
      <use xlink:href="#DejaVuSans-74" transform="translate(478.414062 0)"/>
      <use xlink:href="#DejaVuSans-65" transform="translate(517.623047 0)"/>
      <use xlink:href="#DejaVuSans-70" transform="translate(579.146484 0)"/>
     </g>
    </g>
   </g>
   <g id="matplotlib.axis_2">
    <g id="ytick_1">
     <g id="line2d_11">
      <path d="M 63.445938 174.262503 
L 378.903959 174.262503 
" clip-path="url(#p2dce9537e4)" style="fill: none; stroke-dasharray: 1.48,0.64; stroke-dashoffset: 0; stroke: #b0b0b0; stroke-opacity: 0.5; stroke-width: 0.4"/>
     </g>
     <g id="line2d_12">
      <defs>
       <path id="mdec3650ae3" d="M 0 0 
L -3.5 0 
" style="stroke: #000000; stroke-width: 0.8"/>
      </defs>
      <g>
       <use xlink:href="#mdec3650ae3" x="63.445938" y="174.262503" style="stroke: #000000; stroke-width: 0.8"/>
      </g>
     </g>
     <g id="text_7">
      <!-- 1.00 -->
      <g transform="translate(36.406875 177.6818) scale(0.09 -0.09)">
       <defs>
        <path id="DejaVuSans-2e" d="M 684 794 
L 1344 794 
L 1344 0 
L 684 0 
L 684 794 
z
" transform="scale(0.015625)"/>
       </defs>
       <use xlink:href="#DejaVuSans-31"/>
       <use xlink:href="#DejaVuSans-2e" transform="translate(63.623047 0)"/>
       <use xlink:href="#DejaVuSans-30" transform="translate(95.410156 0)"/>
       <use xlink:href="#DejaVuSans-30" transform="translate(159.033203 0)"/>
      </g>
     </g>
    </g>
    <g id="ytick_2">
     <g id="line2d_13">
      <path d="M 63.445938 233.858274 
L 378.903959 233.858274 
" clip-path="url(#p2dce9537e4)" style="fill: none; stroke-dasharray: 1.48,0.64; stroke-dashoffset: 0; stroke: #b0b0b0; stroke-opacity: 0.5; stroke-width: 0.4"/>
     </g>
     <g id="line2d_14">
      <defs>
       <path id="m966b0c032d" d="M 0 0 
L -2 0 
" style="stroke: #000000; stroke-width: 0.6"/>
      </defs>
      <g>
       <use xlink:href="#m966b0c032d" x="63.445938" y="233.858274" style="stroke: #000000; stroke-width: 0.6"/>
      </g>
     </g>
    </g>
    <g id="ytick_3">
     <g id="line2d_15">
      <path d="M 63.445938 211.546905 
L 378.903959 211.546905 
" clip-path="url(#p2dce9537e4)" style="fill: none; stroke-dasharray: 1.48,0.64; stroke-dashoffset: 0; stroke: #b0b0b0; stroke-opacity: 0.5; stroke-width: 0.4"/>
     </g>
     <g id="line2d_16">
      <g>
       <use xlink:href="#m966b0c032d" x="63.445938" y="211.546905" style="stroke: #000000; stroke-width: 0.6"/>
      </g>
     </g>
    </g>
    <g id="ytick_4">
     <g id="line2d_17">
      <path d="M 63.445938 191.866883 
L 378.903959 191.866883 
" clip-path="url(#p2dce9537e4)" style="fill: none; stroke-dasharray: 1.48,0.64; stroke-dashoffset: 0; stroke: #b0b0b0; stroke-opacity: 0.5; stroke-width: 0.4"/>
     </g>
     <g id="line2d_18">
      <g>
       <use xlink:href="#m966b0c032d" x="63.445938" y="191.866883" style="stroke: #000000; stroke-width: 0.6"/>
      </g>
     </g>
    </g>
    <g id="ytick_5">
     <g id="line2d_19">
      <path d="M 63.445938 58.446573 
L 378.903959 58.446573 
" clip-path="url(#p2dce9537e4)" style="fill: none; stroke-dasharray: 1.48,0.64; stroke-dashoffset: 0; stroke: #b0b0b0; stroke-opacity: 0.5; stroke-width: 0.4"/>
     </g>
     <g id="line2d_20">
      <g>
       <use xlink:href="#m966b0c032d" x="63.445938" y="58.446573" style="stroke: #000000; stroke-width: 0.6"/>
      </g>
     </g>
     <g id="text_8">
      <!-- $\mathdefault{2\times10^{0}}$ -->
      <g transform="translate(21.845938 62.245792) scale(0.1 -0.1)">
       <defs>
        <path id="DejaVuSans-d7" d="M 4488 3438 
L 3059 2003 
L 4488 575 
L 4116 197 
L 2681 1631 
L 1247 197 
L 878 575 
L 2303 2003 
L 878 3438 
L 1247 3816 
L 2681 2381 
L 4116 3816 
L 4488 3438 
z
" transform="scale(0.015625)"/>
       </defs>
       <use xlink:href="#DejaVuSans-32" transform="translate(0 0.765625)"/>
       <use xlink:href="#DejaVuSans-d7" transform="translate(83.105469 0.765625)"/>
       <use xlink:href="#DejaVuSans-31" transform="translate(186.376953 0.765625)"/>
       <use xlink:href="#DejaVuSans-30" transform="translate(250 0.765625)"/>
       <use xlink:href="#DejaVuSans-30" transform="translate(314.580078 39.046875) scale(0.7)"/>
      </g>
     </g>
    </g>
    <g id="text_9">
     <!-- Validation loss -->
     <g transform="translate(15.558281 164.35125) rotate(-90) scale(0.11 -0.11)">
      <defs>
       <path id="DejaVuSans-56" d="M 1831 0 
L 50 4666 
L 709 4666 
L 2188 738 
L 3669 4666 
L 4325 4666 
L 2547 0 
L 1831 0 
z
" transform="scale(0.015625)"/>
       <path id="DejaVuSans-6c" d="M 603 4863 
L 1178 4863 
L 1178 0 
L 603 0 
L 603 4863 
z
" transform="scale(0.015625)"/>
       <path id="DejaVuSans-64" d="M 2906 2969 
L 2906 4863 
L 3481 4863 
L 3481 0 
L 2906 0 
L 2906 525 
Q 2725 213 2448 61 
Q 2172 -91 1784 -91 
Q 1150 -91 751 415 
Q 353 922 353 1747 
Q 353 2572 751 3078 
Q 1150 3584 1784 3584 
Q 2172 3584 2448 3432 
Q 2725 3281 2906 2969 
z
M 947 1747 
Q 947 1113 1208 752 
Q 1469 391 1925 391 
Q 2381 391 2643 752 
Q 2906 1113 2906 1747 
Q 2906 2381 2643 2742 
Q 2381 3103 1925 3103 
Q 1469 3103 1208 2742 
Q 947 2381 947 1747 
z
" transform="scale(0.015625)"/>
       <path id="DejaVuSans-6f" d="M 1959 3097 
Q 1497 3097 1228 2736 
Q 959 2375 959 1747 
Q 959 1119 1226 758 
Q 1494 397 1959 397 
Q 2419 397 2687 759 
Q 2956 1122 2956 1747 
Q 2956 2369 2687 2733 
Q 2419 3097 1959 3097 
z
M 1959 3584 
Q 2709 3584 3137 3096 
Q 3566 2609 3566 1747 
Q 3566 888 3137 398 
Q 2709 -91 1959 -91 
Q 1206 -91 779 398 
Q 353 888 353 1747 
Q 353 2609 779 3096 
Q 1206 3584 1959 3584 
z
" transform="scale(0.015625)"/>
      </defs>
      <use xlink:href="#DejaVuSans-56"/>
      <use xlink:href="#DejaVuSans-61" transform="translate(60.658203 0)"/>
      <use xlink:href="#DejaVuSans-6c" transform="translate(121.9375 0)"/>
      <use xlink:href="#DejaVuSans-69" transform="translate(149.720703 0)"/>
      <use xlink:href="#DejaVuSans-64" transform="translate(177.503906 0)"/>
      <use xlink:href="#DejaVuSans-61" transform="translate(240.980469 0)"/>
      <use xlink:href="#DejaVuSans-74" transform="translate(302.259766 0)"/>
      <use xlink:href="#DejaVuSans-69" transform="translate(341.46875 0)"/>
      <use xlink:href="#DejaVuSans-6f" transform="translate(369.251953 0)"/>
      <use xlink:href="#DejaVuSans-6e" transform="translate(430.433594 0)"/>
      <use xlink:href="#DejaVuSans-20" transform="translate(493.8125 0)"/>
      <use xlink:href="#DejaVuSans-6c" transform="translate(525.599609 0)"/>
      <use xlink:href="#DejaVuSans-6f" transform="translate(553.382812 0)"/>
      <use xlink:href="#DejaVuSans-73" transform="translate(614.564453 0)"/>
      <use xlink:href="#DejaVuSans-73" transform="translate(666.664062 0)"/>
     </g>
    </g>
   </g>
   <g id="FillBetweenPolyCollection_1">
    <defs>
     <path id="m28072cd6ef" d="M 63.445938 -262.103523 
L 63.445938 -254.102646 
L 69.883856 -250.200304 
L 76.321775 -240.701613 
L 82.759694 -233.213336 
L 89.197613 -225.765126 
L 95.635532 -221.424315 
L 102.07345 -220.871601 
L 108.511369 -211.991382 
L 114.949288 -208.830109 
L 121.387207 -201.354023 
L 127.825126 -196.6403 
L 134.263044 -192.477144 
L 140.700963 -179.756286 
L 147.138882 -186.547071 
L 153.576801 -181.442863 
L 160.01472 -178.204183 
L 166.452638 -164.088476 
L 172.890557 -160.32284 
L 179.328476 -162.513902 
L 185.766395 -161.308182 
L 192.204314 -163.88804 
L 198.642232 -158.310156 
L 205.080151 -159.016142 
L 211.51807 -150.264039 
L 217.955989 -153.596894 
L 224.393908 -153.596894 
L 230.831826 -146.274484 
L 237.269745 -156.137055 
L 243.707664 -150.558173 
L 250.145583 -151.424769 
L 256.583502 -141.446849 
L 263.02142 -139.806135 
L 269.459339 -141.028033 
L 275.897258 -139.410501 
L 282.335177 -144.216865 
L 288.773096 -141.028033 
L 295.211014 -136.044088 
L 301.648933 -131.07927 
L 308.086852 -135.121725 
L 314.524771 -143.031515 
L 320.96269 -130.964374 
L 327.400608 -135.457719 
L 333.838527 -136.169471 
L 340.276446 -124.550114 
L 346.714365 -134.728876 
L 353.152284 -140.933316 
L 359.590202 -121.704408 
L 366.028121 -129.854445 
L 372.46604 -130.576017 
L 378.903959 -128.533132 
L 378.903959 -140.621726 
L 378.903959 -140.621726 
L 372.46604 -146.81109 
L 366.028121 -145.76245 
L 359.590202 -135.457719 
L 353.152284 -153.521596 
L 346.714365 -147.072224 
L 340.276446 -140.838546 
L 333.838527 -151.183084 
L 327.400608 -150.864544 
L 320.96269 -145.011259 
L 314.524771 -155.642018 
L 308.086852 -146.392423 
L 301.648933 -146.798022 
L 295.211014 -148.863016 
L 288.773096 -152.779349 
L 282.335177 -155.157941 
L 275.897258 -153.897748 
L 269.459339 -151.818349 
L 263.02142 -150.953796 
L 256.583502 -152.76674 
L 250.145583 -163.486445 
L 243.707664 -160.599803 
L 237.269745 -168.839647 
L 230.831826 -158.334551 
L 224.393908 -164.688346 
L 217.955989 -167.182229 
L 211.51807 -164.934726 
L 205.080151 -171.396891 
L 198.642232 -170.990353 
L 192.204314 -173.336852 
L 185.766395 -173.615339 
L 179.328476 -173.893364 
L 172.890557 -173.948913 
L 166.452638 -176.965126 
L 160.01472 -188.513306 
L 153.576801 -192.059053 
L 147.138882 -196.911608 
L 140.700963 -190.939001 
L 134.263044 -201.438851 
L 127.825126 -207.435973 
L 121.387207 -210.792857 
L 114.949288 -218.514713 
L 108.511369 -221.181681 
L 102.07345 -227.579987 
L 95.635532 -229.55064 
L 89.197613 -232.627982 
L 82.759694 -241.585772 
L 76.321775 -247.761551 
L 69.883856 -256.064337 
L 63.445938 -262.103523 
z
" style="stroke: #4878cf; stroke-opacity: 0.18"/>
    </defs>
    <g clip-path="url(#p2dce9537e4)">
     <use xlink:href="#m28072cd6ef" x="0" y="279.99625" style="fill: #4878cf; fill-opacity: 0.18; stroke: #4878cf; stroke-opacity: 0.18"/>
    </g>
   </g>
   <g id="FillBetweenPolyCollection_2">
    <defs>
     <path id="m77fa7aa77b" d="M 63.445938 -255.887569 
L 63.445938 -249.424334 
L 69.883856 -242.730436 
L 76.321775 -233.664608 
L 82.759694 -226.853169 
L 89.197613 -215.449597 
L 95.635532 -209.451 
L 102.07345 -205.754856 
L 108.511369 -197.240463 
L 114.949288 -187.081882 
L 121.387207 -185.658802 
L 127.825126 -181.792983 
L 134.263044 -170.355987 
L 140.700963 -162.727873 
L 147.138882 -161.846459 
L 153.576801 -157.539915 
L 160.01472 -150.953796 
L 166.452638 -153.810055 
L 172.890557 -139.642538 
L 179.328476 -146.261374 
L 185.766395 -132.651126 
L 192.204314 -129.637364 
L 198.642232 -132.109791 
L 205.080151 -131.72409 
L 211.51807 -128.02214 
L 217.955989 -123.170956 
L 224.393908 -120.102265 
L 230.831826 -119.518634 
L 237.269745 -118.515569 
L 243.707664 -113.567388 
L 250.145583 -114.980361 
L 256.583502 -114.743055 
L 263.02142 -109.663834 
L 269.459339 -112.013674 
L 275.897258 -108.320183 
L 282.335177 -113.312098 
L 288.773096 -105.600024 
L 295.211014 -98.999921 
L 301.648933 -98.09288 
L 308.086852 -99.173789 
L 314.524771 -105.147916 
L 320.96269 -98.407413 
L 327.400608 -101.434906 
L 333.838527 -108.204979 
L 340.276446 -84.222477 
L 346.714365 -90.122477 
L 353.152284 -95.980722 
L 359.590202 -96.54658 
L 366.028121 -96.528926 
L 372.46604 -91.892542 
L 378.903959 -96.811168 
L 378.903959 -112.287021 
L 378.903959 -112.287021 
L 372.46604 -106.849497 
L 366.028121 -109.957342 
L 359.590202 -112.303086 
L 353.152284 -112.174521 
L 346.714365 -105.030503 
L 340.276446 -96.705383 
L 333.838527 -119.010138 
L 327.400608 -112.8644 
L 320.96269 -110.006209 
L 314.524771 -117.210316 
L 308.086852 -115.422432 
L 301.648933 -114.663878 
L 295.211014 -115.138378 
L 288.773096 -118.128165 
L 282.335177 -128.29973 
L 275.897258 -122.1745 
L 269.459339 -122.975154 
L 263.02142 -120.897627 
L 256.583502 -124.161505 
L 250.145583 -124.385813 
L 243.707664 -124.99739 
L 237.269745 -130.576017 
L 230.831826 -129.811051 
L 224.393908 -133.304088 
L 217.955989 -136.586737 
L 211.51807 -140.987447 
L 205.080151 -144.68072 
L 198.642232 -145.722998 
L 192.204314 -142.50943 
L 185.766395 -142.187335 
L 179.328476 -155.592434 
L 172.890557 -151.640718 
L 166.452638 -163.710984 
L 160.01472 -162.144754 
L 153.576801 -165.508205 
L 147.138882 -170.526143 
L 140.700963 -170.888563 
L 134.263044 -180.034997 
L 127.825126 -191.529964 
L 121.387207 -195.628709 
L 114.949288 -195.218439 
L 108.511369 -203.033116 
L 102.07345 -213.102302 
L 95.635532 -215.258858 
L 89.197613 -222.341462 
L 82.759694 -234.602148 
L 76.321775 -238.338355 
L 69.883856 -247.547171 
L 63.445938 -255.887569 
z
" style="stroke: #6acc65; stroke-opacity: 0.18"/>
    </defs>
    <g clip-path="url(#p2dce9537e4)">
     <use xlink:href="#m77fa7aa77b" x="0" y="279.99625" style="fill: #6acc65; fill-opacity: 0.18; stroke: #6acc65; stroke-opacity: 0.18"/>
    </g>
   </g>
   <g id="FillBetweenPolyCollection_3">
    <defs>
     <path id="m4aa2431acd" d="M 63.445938 -257.188549 
L 63.445938 -252.048058 
L 69.883856 -241.585772 
L 76.321775 -234.215372 
L 82.759694 -220.123367 
L 89.197613 -213.330624 
L 95.635532 -202.153462 
L 102.07345 -199.734059 
L 108.511369 -193.349767 
L 114.949288 -179.186701 
L 121.387207 -179.455615 
L 127.825126 -170.390032 
L 134.263044 -160.009197 
L 140.700963 -147.189602 
L 147.138882 -153.684699 
L 153.576801 -142.066389 
L 160.01472 -133.940396 
L 166.452638 -134.391411 
L 172.890557 -128.576859 
L 179.328476 -129.4345 
L 185.766395 -113.487652 
L 192.204314 -118.314231 
L 198.642232 -116.757314 
L 205.080151 -112.912426 
L 211.51807 -100.850985 
L 217.955989 -94.146246 
L 224.393908 -101.572003 
L 230.831826 -93.536242 
L 237.269745 -91.201347 
L 243.707664 -95.732555 
L 250.145583 -83.613226 
L 256.583502 -69.925701 
L 263.02142 -79.069647 
L 269.459339 -68.365781 
L 275.897258 -81.2892 
L 282.335177 -77.415111 
L 288.773096 -69.718551 
L 295.211014 -71.778583 
L 301.648933 -77.632711 
L 308.086852 -70.957616 
L 314.524771 -76.282986 
L 320.96269 -67.023035 
L 327.400608 -75.042779 
L 333.838527 -76.959211 
L 340.276446 -75.923873 
L 346.714365 -62.084773 
L 353.152284 -70.68993 
L 359.590202 -52.599419 
L 366.028121 -55.355228 
L 372.46604 -48.248977 
L 378.903959 -67.569827 
L 378.903959 -84.90524 
L 378.903959 -84.90524 
L 372.46604 -66.875515 
L 366.028121 -72.514021 
L 359.590202 -66.305287 
L 353.152284 -83.994268 
L 346.714365 -75.062856 
L 340.276446 -89.938926 
L 333.838527 -89.128894 
L 327.400608 -87.459679 
L 320.96269 -84.070372 
L 314.524771 -92.996147 
L 308.086852 -86.055813 
L 301.648933 -90.525583 
L 295.211014 -88.925771 
L 288.773096 -86.693694 
L 282.335177 -92.725444 
L 275.897258 -97.532243 
L 269.459339 -83.231312 
L 263.02142 -93.33841 
L 256.583502 -84.507301 
L 250.145583 -98.355032 
L 243.707664 -108.599634 
L 237.269745 -104.374831 
L 230.831826 -107.065125 
L 224.393908 -113.663021 
L 217.955989 -109.108021 
L 211.51807 -114.521265 
L 205.080151 -124.773902 
L 198.642232 -128.124463 
L 192.204314 -130.734346 
L 185.766395 -124.056724 
L 179.328476 -138.93176 
L 172.890557 -139.410501 
L 166.452638 -143.058245 
L 160.01472 -145.341144 
L 153.576801 -152.059117 
L 147.138882 -162.905972 
L 140.700963 -156.050529 
L 134.263044 -169.011353 
L 127.825126 -179.423369 
L 121.387207 -187.246095 
L 114.949288 -186.062207 
L 108.511369 -201.457696 
L 102.07345 -205.36874 
L 95.635532 -208.179753 
L 89.197613 -219.633944 
L 82.759694 -225.15304 
L 76.321775 -239.984917 
L 69.883856 -247.124755 
L 63.445938 -257.188549 
z
" style="stroke: #d65f5f; stroke-opacity: 0.18"/>
    </defs>
    <g clip-path="url(#p2dce9537e4)">
     <use xlink:href="#m4aa2431acd" x="0" y="279.99625" style="fill: #d65f5f; fill-opacity: 0.18; stroke: #d65f5f; stroke-opacity: 0.18"/>
    </g>
   </g>
   <g id="patch_3">
    <path d="M 63.445938 242.44 
L 63.445938 7.2 
" style="fill: none; stroke: #000000; stroke-width: 0.8; stroke-linejoin: miter; stroke-linecap: square"/>
   </g>
   <g id="patch_4">
    <path d="M 63.445938 242.44 
L 378.903959 242.44 
" style="fill: none; stroke: #000000; stroke-width: 0.8; stroke-linejoin: miter; stroke-linecap: square"/>
   </g>
   <g id="line2d_21">
    <path d="M 63.445938 21.845281 
L 69.883856 26.838206 
L 76.321775 35.727383 
L 82.759694 42.54426 
L 89.197613 50.764463 
L 95.635532 54.459374 
L 102.07345 55.736792 
L 108.511369 63.34654 
L 114.949288 66.253682 
L 121.387207 73.856168 
L 127.825126 77.870939 
L 134.263044 82.978177 
L 140.700963 94.55507 
L 147.138882 88.186558 
L 153.576801 93.160991 
L 160.01472 96.55801 
L 166.452638 109.345436 
L 172.890557 112.72151 
L 179.328476 111.695761 
L 185.766395 112.421201 
L 192.204314 111.317022 
L 198.642232 115.225737 
L 205.080151 114.675087 
L 211.51807 122.235903 
L 217.955989 119.468654 
L 224.393908 120.761614 
L 230.831826 127.582947 
L 237.269745 117.387216 
L 243.707664 124.341838 
L 250.145583 122.431828 
L 256.583502 132.793611 
L 263.02142 134.523333 
L 269.459339 133.485971 
L 275.897258 133.18516 
L 282.335177 130.219308 
L 288.773096 132.989271 
L 295.211014 137.419794 
L 301.648933 140.872829 
L 308.086852 139.144162 
L 314.524771 130.540543 
L 320.96269 141.860863 
L 327.400608 136.657602 
L 333.838527 136.151398 
L 340.276446 147.103514 
L 346.714365 138.981745 
L 353.152284 132.650273 
L 359.590202 151.273718 
L 366.028121 141.998553 
L 372.46604 141.105588 
L 378.903959 145.30952 
" clip-path="url(#p2dce9537e4)" style="fill: none; stroke: #4878cf; stroke-width: 1.6; stroke-linecap: square"/>
   </g>
   <g id="line2d_22">
    <path d="M 63.445938 27.309049 
L 69.883856 34.84009 
L 76.321775 43.978427 
L 82.759694 49.223674 
L 89.197613 61.06519 
L 95.635532 67.616087 
L 102.07345 70.527287 
L 108.511369 79.834359 
L 114.949288 88.796567 
L 121.387207 89.278144 
L 127.825126 93.263858 
L 134.263044 104.730682 
L 140.700963 113.138215 
L 147.138882 113.753595 
L 153.576801 118.424694 
L 160.01472 123.3533 
L 166.452638 121.162405 
L 172.890557 134.24695 
L 179.328476 129.004217 
L 185.766395 142.508996 
L 192.204314 143.798929 
L 198.642232 140.941254 
L 205.080151 141.668287 
L 211.51807 145.365731 
L 217.955989 149.982792 
L 224.393908 153.16272 
L 230.831826 155.252169 
L 237.269745 155.341664 
L 243.707664 160.616143 
L 250.145583 160.246992 
L 256.583502 160.477616 
L 263.02142 164.621126 
L 269.459339 162.411963 
L 275.897258 164.605355 
L 282.335177 159.022345 
L 288.773096 168.014763 
L 295.211014 172.73233 
L 301.648933 173.412525 
L 308.086852 172.500701 
L 314.524771 168.708306 
L 320.96269 175.688814 
L 327.400608 172.748887 
L 333.838527 166.301363 
L 340.276446 189.415774 
L 346.714365 182.253547 
L 353.152284 175.722521 
L 359.590202 175.385754 
L 366.028121 176.618251 
L 372.46604 180.457926 
L 378.903959 175.268045 
" clip-path="url(#p2dce9537e4)" style="fill: none; stroke: #6acc65; stroke-width: 1.6; stroke-linecap: square"/>
   </g>
   <g id="line2d_23">
    <path d="M 63.445938 25.358179 
L 69.883856 35.618035 
L 76.321775 42.871204 
L 82.759694 57.339122 
L 89.197613 63.484244 
L 95.635532 74.802475 
L 102.07345 77.421099 
L 108.511369 82.543344 
L 114.949288 97.336433 
L 121.387207 96.599995 
L 127.825126 105.02851 
L 134.263044 115.425356 
L 140.700963 128.317452 
L 147.138882 121.637309 
L 153.576801 132.858806 
L 160.01472 140.258261 
L 166.452638 141.215235 
L 172.890557 145.914781 
L 179.328476 145.745651 
L 185.766395 161.140508 
L 192.204314 155.356585 
L 198.642232 157.458715 
L 205.080151 161.047853 
L 211.51807 172.170359 
L 217.955989 178.201704 
L 224.393908 172.269393 
L 230.831826 179.558676 
L 237.269745 182.078367 
L 243.707664 177.706327 
L 250.145583 188.849593 
L 256.583502 202.620733 
L 263.02142 193.639954 
L 269.459339 204.032437 
L 275.897258 190.388226 
L 282.335177 194.750672 
L 288.773096 201.574647 
L 295.211014 199.424205 
L 301.648933 195.792778 
L 308.086852 201.319057 
L 314.524771 195.1478 
L 320.96269 204.23223 
L 327.400608 198.629704 
L 333.838527 196.841425 
L 340.276446 196.917948 
L 346.714365 211.296462 
L 353.152284 202.521766 
L 359.590202 220.403403 
L 366.028121 215.84146 
L 372.46604 222.174582 
L 378.903959 203.533997 
" clip-path="url(#p2dce9537e4)" style="fill: none; stroke: #d65f5f; stroke-width: 2.2; stroke-linecap: square"/>
   </g>
   <g id="text_10">
    <!-- $\Delta=0.15$ -->
    <g style="fill: #555555" transform="translate(382.76671 191.011517) scale(0.08 -0.08)">
     <defs>
      <path id="DejaVuSans-394" d="M 2188 4044 
L 906 525 
L 3472 525 
L 2188 4044 
z
M 50 0 
L 1831 4666 
L 2547 4666 
L 4325 0 
L 50 0 
z
" transform="scale(0.015625)"/>
      <path id="DejaVuSans-3d" d="M 678 2906 
L 4684 2906 
L 4684 2381 
L 678 2381 
L 678 2906 
z
M 678 1631 
L 4684 1631 
L 4684 1100 
L 678 1100 
L 678 1631 
z
" transform="scale(0.015625)"/>
      <path id="DejaVuSans-35" d="M 691 4666 
L 3169 4666 
L 3169 4134 
L 1269 4134 
L 1269 2991 
Q 1406 3038 1543 3061 
Q 1681 3084 1819 3084 
Q 2600 3084 3056 2656 
Q 3513 2228 3513 1497 
Q 3513 744 3044 326 
Q 2575 -91 1722 -91 
Q 1428 -91 1123 -41 
Q 819 9 494 109 
L 494 744 
Q 775 591 1075 516 
Q 1375 441 1709 441 
Q 2250 441 2565 725 
Q 2881 1009 2881 1497 
Q 2881 1984 2565 2268 
Q 2250 2553 1709 2553 
Q 1456 2553 1204 2497 
Q 953 2441 691 2322 
L 691 4666 
z
" transform="scale(0.015625)"/>
     </defs>
     <use xlink:href="#DejaVuSans-394" transform="translate(0 0.78125)"/>
     <use xlink:href="#DejaVuSans-3d" transform="translate(87.890625 0.78125)"/>
     <use xlink:href="#DejaVuSans-30" transform="translate(191.162109 0.78125)"/>
     <use xlink:href="#DejaVuSans-2e" transform="translate(254.785156 0.78125)"/>
     <use xlink:href="#DejaVuSans-31" transform="translate(286.572266 0.78125)"/>
     <use xlink:href="#DejaVuSans-35" transform="translate(350.195312 0.78125)"/>
    </g>
   </g>
   <g id="patch_5">
    <path d="M 378.903959 178.607487 
Q 378.903959 189.401078 378.903959 200.194668 
" style="fill: none; stroke: #555555; stroke-width: 1.2; stroke-linecap: round"/>
    <path d="M 376.903959 182.607487 
L 378.903959 178.607487 
L 380.903959 182.607487 
" style="fill: none; stroke: #555555; stroke-width: 1.2; stroke-linecap: round"/>
    <path d="M 380.903959 196.194668 
L 378.903959 200.194668 
L 376.903959 196.194668 
" style="fill: none; stroke: #555555; stroke-width: 1.2; stroke-linecap: round"/>
   </g>
   <g id="legend_1">
    <g id="patch_6">
     <path d="M 300.84724 54.030937 
L 372.603959 54.030937 
Q 374.403959 54.030937 374.403959 52.230937 
L 374.403959 13.5 
Q 374.403959 11.7 372.603959 11.7 
L 300.84724 11.7 
Q 299.04724 11.7 299.04724 13.5 
L 299.04724 52.230937 
Q 299.04724 54.030937 300.84724 54.030937 
z
" style="fill: #ffffff; opacity: 0.85; stroke: #cccccc; stroke-linejoin: miter"/>
    </g>
    <g id="line2d_24">
     <path d="M 302.64724 18.988594 
L 311.64724 18.988594 
L 320.64724 18.988594 
" style="fill: none; stroke: #4878cf; stroke-width: 1.6; stroke-linecap: square"/>
    </g>
    <g id="text_11">
     <!-- Baseline -->
     <g transform="translate(327.84724 22.138594) scale(0.09 -0.09)">
      <defs>
       <path id="DejaVuSans-42" d="M 1259 2228 
L 1259 519 
L 2272 519 
Q 2781 519 3026 730 
Q 3272 941 3272 1375 
Q 3272 1813 3026 2020 
Q 2781 2228 2272 2228 
L 1259 2228 
z
M 1259 4147 
L 1259 2741 
L 2194 2741 
Q 2656 2741 2882 2914 
Q 3109 3088 3109 3444 
Q 3109 3797 2882 3972 
Q 2656 4147 2194 4147 
L 1259 4147 
z
M 628 4666 
L 2241 4666 
Q 2963 4666 3353 4366 
Q 3744 4066 3744 3513 
Q 3744 3084 3544 2831 
Q 3344 2578 2956 2516 
Q 3422 2416 3680 2098 
Q 3938 1781 3938 1306 
Q 3938 681 3513 340 
Q 3088 0 2303 0 
L 628 0 
L 628 4666 
z
" transform="scale(0.015625)"/>
      </defs>
      <use xlink:href="#DejaVuSans-42"/>
      <use xlink:href="#DejaVuSans-61" transform="translate(68.603516 0)"/>
      <use xlink:href="#DejaVuSans-73" transform="translate(129.882812 0)"/>
      <use xlink:href="#DejaVuSans-65" transform="translate(181.982422 0)"/>
      <use xlink:href="#DejaVuSans-6c" transform="translate(243.505859 0)"/>
      <use xlink:href="#DejaVuSans-69" transform="translate(271.289062 0)"/>
      <use xlink:href="#DejaVuSans-6e" transform="translate(299.072266 0)"/>
      <use xlink:href="#DejaVuSans-65" transform="translate(362.451172 0)"/>
     </g>
    </g>
    <g id="line2d_25">
     <path d="M 302.64724 32.198906 
L 311.64724 32.198906 
L 320.64724 32.198906 
" style="fill: none; stroke: #6acc65; stroke-width: 1.6; stroke-linecap: square"/>
    </g>
    <g id="text_12">
     <!-- Method-A -->
     <g transform="translate(327.84724 35.348906) scale(0.09 -0.09)">
      <defs>
       <path id="DejaVuSans-4d" d="M 628 4666 
L 1569 4666 
L 2759 1491 
L 3956 4666 
L 4897 4666 
L 4897 0 
L 4281 0 
L 4281 4097 
L 3078 897 
L 2444 897 
L 1241 4097 
L 1241 0 
L 628 0 
L 628 4666 
z
" transform="scale(0.015625)"/>
       <path id="DejaVuSans-68" d="M 3513 2113 
L 3513 0 
L 2938 0 
L 2938 2094 
Q 2938 2591 2744 2837 
Q 2550 3084 2163 3084 
Q 1697 3084 1428 2787 
Q 1159 2491 1159 1978 
L 1159 0 
L 581 0 
L 581 4863 
L 1159 4863 
L 1159 2956 
Q 1366 3272 1645 3428 
Q 1925 3584 2291 3584 
Q 2894 3584 3203 3211 
Q 3513 2838 3513 2113 
z
" transform="scale(0.015625)"/>
       <path id="DejaVuSans-2d" d="M 313 2009 
L 1997 2009 
L 1997 1497 
L 313 1497 
L 313 2009 
z
" transform="scale(0.015625)"/>
       <path id="DejaVuSans-41" d="M 2188 4044 
L 1331 1722 
L 3047 1722 
L 2188 4044 
z
M 1831 4666 
L 2547 4666 
L 4325 0 
L 3669 0 
L 3244 1197 
L 1141 1197 
L 716 0 
L 50 0 
L 1831 4666 
z
" transform="scale(0.015625)"/>
      </defs>
      <use xlink:href="#DejaVuSans-4d"/>
      <use xlink:href="#DejaVuSans-65" transform="translate(86.279297 0)"/>
      <use xlink:href="#DejaVuSans-74" transform="translate(147.802734 0)"/>
      <use xlink:href="#DejaVuSans-68" transform="translate(187.011719 0)"/>
      <use xlink:href="#DejaVuSans-6f" transform="translate(250.390625 0)"/>
      <use xlink:href="#DejaVuSans-64" transform="translate(311.572266 0)"/>
      <use xlink:href="#DejaVuSans-2d" transform="translate(375.048828 0)"/>
      <use xlink:href="#DejaVuSans-41" transform="translate(408.882812 0)"/>
     </g>
    </g>
    <g id="line2d_26">
     <path d="M 302.64724 45.409219 
L 311.64724 45.409219 
L 320.64724 45.409219 
" style="fill: none; stroke: #d65f5f; stroke-width: 2.2; stroke-linecap: square"/>
    </g>
    <g id="text_13">
     <!-- Ours -->
     <g transform="translate(327.84724 48.559219) scale(0.09 -0.09)">
      <defs>
       <path id="DejaVuSans-4f" d="M 2522 4238 
Q 1834 4238 1429 3725 
Q 1025 3213 1025 2328 
Q 1025 1447 1429 934 
Q 1834 422 2522 422 
Q 3209 422 3611 934 
Q 4013 1447 4013 2328 
Q 4013 3213 3611 3725 
Q 3209 4238 2522 4238 
z
M 2522 4750 
Q 3503 4750 4090 4092 
Q 4678 3434 4678 2328 
Q 4678 1225 4090 567 
Q 3503 -91 2522 -91 
Q 1538 -91 948 565 
Q 359 1222 359 2328 
Q 359 3434 948 4092 
Q 1538 4750 2522 4750 
z
" transform="scale(0.015625)"/>
       <path id="DejaVuSans-75" d="M 544 1381 
L 544 3500 
L 1119 3500 
L 1119 1403 
Q 1119 906 1312 657 
Q 1506 409 1894 409 
Q 2359 409 2629 706 
Q 2900 1003 2900 1516 
L 2900 3500 
L 3475 3500 
L 3475 0 
L 2900 0 
L 2900 538 
Q 2691 219 2414 64 
Q 2138 -91 1772 -91 
Q 1169 -91 856 284 
Q 544 659 544 1381 
z
M 1991 3584 
L 1991 3584 
z
" transform="scale(0.015625)"/>
      </defs>
      <use xlink:href="#DejaVuSans-4f"/>
      <use xlink:href="#DejaVuSans-75" transform="translate(78.710938 0)"/>
      <use xlink:href="#DejaVuSans-72" transform="translate(142.089844 0)"/>
      <use xlink:href="#DejaVuSans-73" transform="translate(183.203125 0)"/>
     </g>
    </g>
   </g>
  </g>
 </g>
 <defs>
  <clipPath id="p2dce9537e4">
   <rect x="63.445938" y="7.2" width="315.458021" height="235.24"/>
  </clipPath>
 </defs>
</svg>
