<?xml version="1.0" encoding="utf-8" standalone="no"?>
<!DOCTYPE svg PUBLIC "-//W3C//DTD SVG 1.1//EN"
  "http://www.w3.org/Graphics/SVG/1.1/DTD/svg11.dtd">
<svg xmlns:xlink="http://www.w3.org/1999/xlink" width="313.945496pt" height="223.092812pt" viewBox="0 0 313.945496 223.092812" xmlns="http://www.w3.org/2000/svg" version="1.1">
 <metadata>
  <rdf:RDF xmlns:dc="http://purl.org/dc/elements/1.1/" xmlns:cc="http://creativecommons.org/ns#" xmlns:rdf="http://www.w3.org/1999/02/22-rdf-syntax-ns#">
   <cc:Work>
    <dc:type rdf:resource="http://purl.org/dc/dcmitype/StillImage"/>
    <dc:date>2026-05-24T23:09:48.149950</dc:date>
    <dc:format>image/svg+xml</dc:format>
    <dc:creator>
     <cc:Agent>
      <dc:title>Matplotlib v3.10.9, https://matplotlib.org/</dc:title>
     </cc:Agent>
    </dc:creator>
   </cc:Work>
  </rdf:RDF>
 </metadata>
 <defs>
  <style type="text/css">*{stroke-linejoin: round; stroke-linecap: butt}</style>
 </defs>
 <g id="figure_1">
  <g id="patch_1">
   <path d="M 0 223.092812 
L 313.945496 223.092812 
L 313.945496 0 
L 0 0 
z
" style="fill: #ffffff"/>
  </g>
  <g id="axes_1">
   <g id="patch_2">
    <path d="M 61.510313 188.44 
L 274.291517 188.44 
L 274.291517 7.2 
L 61.510313 7.2 
z
" style="fill: #ffffff"/>
   </g>
   <g id="FillBetweenPolyCollection_1">
    <defs>
     <path id="m68159a6113" d="M 61.510313 -207.654631 
L 61.510313 -201.490377 
L 65.852786 -198.483829 
L 70.19526 -191.165589 
L 74.537733 -185.396267 
L 78.880207 -179.657814 
L 83.22268 -176.313449 
L 87.565154 -175.887612 
L 91.907627 -169.045872 
L 96.250101 -166.610278 
L 100.592575 -160.850349 
L 104.935048 -157.218674 
L 109.277522 -154.011182 
L 113.619995 -144.210433 
L 117.962469 -149.442374 
L 122.304942 -145.509851 
L 126.647416 -143.014619 
L 130.98989 -132.139212 
L 135.332363 -129.237988 
L 139.674837 -130.926086 
L 144.01731 -129.997142 
L 148.359784 -131.984786 
L 152.702257 -127.687322 
L 157.044731 -128.231247 
L 161.387205 -121.488213 
L 165.729678 -124.056002 
L 170.072152 -124.056002 
L 174.414625 -118.414472 
L 178.757099 -126.013062 
L 183.099572 -121.714828 
L 187.442046 -122.382495 
L 191.78452 -114.695034 
L 196.126993 -113.43095 
L 200.469467 -114.372358 
L 204.81194 -113.126135 
L 209.154414 -116.829185 
L 213.496887 -114.372358 
L 217.839361 -110.532492 
L 222.181835 -106.707362 
L 226.524308 -109.82186 
L 230.866782 -115.915936 
L 235.209255 -106.618841 
L 239.551729 -110.080725 
L 243.894202 -110.629093 
L 248.236676 -101.676992 
L 252.57915 -109.51919 
L 256.921623 -114.299384 
L 261.264097 -99.484526 
L 265.60657 -105.763698 
L 269.949044 -106.319632 
L 274.291517 -104.745697 
L 274.291517 -114.05932 
L 274.291517 -114.05932 
L 269.949044 -118.827898 
L 265.60657 -118.019977 
L 261.264097 -110.080725 
L 256.921623 -123.997989 
L 252.57915 -119.029089 
L 248.236676 -114.226368 
L 243.894202 -122.196289 
L 239.551729 -121.950871 
L 235.209255 -117.441223 
L 230.866782 -125.631662 
L 226.524308 -118.505338 
L 222.181835 -118.81783 
L 217.839361 -120.408799 
L 213.496887 -123.426126 
L 209.154414 -125.258707 
L 204.81194 -124.287795 
L 200.469467 -122.685727 
L 196.126993 -122.019635 
L 191.78452 -123.416412 
L 187.442046 -131.675379 
L 183.099572 -129.451374 
L 178.757099 -135.799738 
L 174.414625 -127.706116 
L 170.072152 -132.60138 
L 165.729678 -134.522785 
L 161.387205 -132.791203 
L 157.044731 -137.76996 
L 152.702257 -137.456744 
L 148.359784 -139.264597 
L 144.01731 -139.479157 
L 139.674837 -139.69336 
L 135.332363 -139.736158 
L 130.98989 -142.059991 
L 126.647416 -150.957254 
L 122.304942 -153.689065 
L 117.962469 -157.427702 
L 113.619995 -152.826124 
L 109.277522 -160.915704 
L 104.935048 -165.53617 
L 100.592575 -168.122472 
L 96.250101 -174.071754 
L 91.907627 -176.126512 
L 87.565154 -181.056069 
L 83.22268 -182.574353 
L 78.880207 -184.945283 
L 74.537733 -191.846787 
L 70.19526 -196.604898 
L 65.852786 -203.001757 
L 61.510313 -207.654631 
z
"/>
    </defs>
    <g clip-path="url(#pac8e065df6)">
     <use xlink:href="#m68159a6113" x="0" y="223.092812" style="fill: #555555; fill-opacity: 0.18"/>
    </g>
   </g>
   <g id="FillBetweenPolyCollection_2">
    <defs>
     <path id="mfd0c26df20" d="M 61.510313 -202.865566 
L 61.510313 -197.885985 
L 65.852786 -192.72869 
L 70.19526 -185.743948 
L 74.537733 -180.496094 
L 78.880207 -171.710244 
L 83.22268 -167.088642 
L 87.565154 -164.240958 
L 91.907627 -157.681067 
L 96.250101 -149.854417 
L 100.592575 -148.75801 
L 104.935048 -145.7796 
L 109.277522 -136.967999 
L 113.619995 -131.090939 
L 117.962469 -130.411856 
L 122.304942 -127.093892 
L 126.647416 -122.019635 
L 130.98989 -124.220232 
L 135.332363 -113.304907 
L 139.674837 -118.404372 
L 144.01731 -107.918394 
L 148.359784 -105.596449 
L 152.702257 -107.501324 
L 157.044731 -107.204162 
L 161.387205 -104.352004 
L 165.729678 -100.614423 
L 170.072152 -98.250159 
L 174.414625 -97.800502 
L 178.757099 -97.027693 
L 183.099572 -93.215381 
L 187.442046 -94.304002 
L 191.78452 -94.121171 
L 196.126993 -90.207899 
L 200.469467 -92.018327 
L 204.81194 -89.172687 
L 209.154414 -93.018694 
L 213.496887 -87.076948 
L 217.839361 -81.991917 
L 222.181835 -81.29309 
L 226.524308 -82.125873 
L 230.866782 -86.728623 
L 235.209255 -81.535421 
L 239.551729 -83.867944 
L 243.894202 -89.083928 
L 248.236676 -70.606677 
L 252.57915 -75.152315 
L 256.921623 -79.665784 
L 261.264097 -80.101747 
L 265.60657 -80.088146 
L 269.949044 -76.516057 
L 274.291517 -80.305598 
L 274.291517 -92.228926 
L 274.291517 -92.228926 
L 269.949044 -88.039601 
L 265.60657 -90.434031 
L 261.264097 -92.241303 
L 256.921623 -92.14225 
L 252.57915 -86.638162 
L 248.236676 -80.224097 
L 243.894202 -97.408733 
L 239.551729 -92.673766 
L 235.209255 -90.471681 
L 230.866782 -96.022065 
L 226.524308 -94.644595 
L 222.181835 -94.060169 
L 217.839361 -94.425746 
L 213.496887 -96.729219 
L 209.154414 -104.565872 
L 204.81194 -99.846706 
L 200.469467 -100.463568 
L 196.126993 -98.862944 
L 191.78452 -101.377589 
L 187.442046 -101.550406 
L 183.099572 -102.021594 
L 178.757099 -106.319632 
L 174.414625 -105.730266 
L 170.072152 -108.421467 
L 165.729678 -110.950574 
L 161.387205 -114.341089 
L 157.044731 -117.186561 
L 152.702257 -117.989581 
L 148.359784 -115.513697 
L 144.01731 -115.265539 
L 139.674837 -125.59346 
L 135.332363 -122.548872 
L 130.98989 -131.848375 
L 126.647416 -130.641677 
L 122.304942 -133.233039 
L 117.962469 -137.099095 
L 113.619995 -137.37832 
L 109.277522 -144.425165 
L 104.935048 -153.28143 
L 100.592575 -156.439296 
L 96.250101 -156.123205 
L 91.907627 -162.144001 
L 87.565154 -169.901778 
L 83.22268 -171.56329 
L 78.880207 -177.020062 
L 74.537733 -186.466273 
L 70.19526 -189.344824 
L 65.852786 -196.439731 
L 61.510313 -202.865566 
z
"/>
    </defs>
    <g clip-path="url(#pac8e065df6)">
     <use xlink:href="#mfd0c26df20" x="0" y="223.092812" style="fill: #0072b2; fill-opacity: 0.18"/>
    </g>
   </g>
   <g id="FillBetweenPolyCollection_3">
    <defs>
     <path id="mf1db95c3af" d="M 61.510313 -203.867903 
L 61.510313 -199.907426 
L 65.852786 -191.846787 
L 70.19526 -186.168283 
L 74.537733 -175.311137 
L 78.880207 -170.077687 
L 83.22268 -161.466274 
L 87.565154 -159.602252 
L 91.907627 -154.683492 
L 96.250101 -143.771598 
L 100.592575 -143.978782 
L 104.935048 -136.994229 
L 109.277522 -128.996343 
L 113.619995 -119.119522 
L 117.962469 -124.123651 
L 122.304942 -115.172356 
L 126.647416 -108.911708 
L 130.98989 -109.259192 
L 135.332363 -104.779386 
L 139.674837 -105.440153 
L 144.01731 -93.153949 
L 148.359784 -96.872573 
L 152.702257 -95.673051 
L 157.044731 -92.710767 
L 161.387205 -83.418064 
L 165.729678 -78.252416 
L 170.072152 -83.97357 
L 174.414625 -77.782441 
L 178.757099 -75.983527 
L 183.099572 -79.474584 
L 187.442046 -70.137281 
L 191.78452 -59.591766 
L 196.126993 -66.636693 
L 200.469467 -58.389929 
L 204.81194 -68.346741 
L 209.154414 -65.36196 
L 213.496887 -59.432168 
L 217.839361 -61.019313 
L 222.181835 -65.52961 
L 226.524308 -60.386801 
L 230.866782 -64.489718 
L 235.209255 -57.355414 
L 239.551729 -63.534204 
L 243.894202 -65.010714 
L 248.236676 -64.213041 
L 252.57915 -53.550744 
L 256.921623 -60.180564 
L 261.264097 -46.24278 
L 265.60657 -48.365985 
L 269.949044 -42.890994 
L 274.291517 -57.776689 
L 274.291517 -71.13271 
L 274.291517 -71.13271 
L 269.949044 -57.241758 
L 265.60657 -61.585929 
L 261.264097 -56.802428 
L 256.921623 -70.430854 
L 252.57915 -63.549672 
L 248.236676 -75.010898 
L 243.894202 -74.386812 
L 239.551729 -73.10077 
L 235.209255 -70.489488 
L 230.866782 -77.366326 
L 226.524308 -72.019165 
L 222.181835 -75.462887 
L 217.839361 -74.230316 
L 213.496887 -72.510619 
L 209.154414 -77.157764 
L 204.81194 -80.861149 
L 200.469467 -69.843036 
L 196.126993 -77.630021 
L 191.78452 -70.826118 
L 187.442046 -81.495064 
L 183.099572 -89.387989 
L 178.757099 -86.133001 
L 174.414625 -88.205731 
L 170.072152 -93.289061 
L 165.729678 -89.779675 
L 161.387205 -93.950293 
L 157.044731 -101.849408 
L 152.702257 -104.430839 
L 148.359784 -106.441616 
L 144.01731 -101.296861 
L 139.674837 -112.757291 
L 135.332363 -113.126135 
L 130.98989 -115.936529 
L 126.647416 -117.695383 
L 122.304942 -122.871226 
L 117.962469 -131.228155 
L 113.619995 -125.946398 
L 109.277522 -135.932029 
L 104.935048 -143.953937 
L 100.592575 -149.980935 
L 96.250101 -149.068812 
L 91.907627 -160.930223 
L 87.565154 -163.943476 
L 83.22268 -166.109213 
L 78.880207 -174.934063 
L 74.537733 -179.186234 
L 70.19526 -190.613413 
L 65.852786 -196.114281 
L 61.510313 -203.867903 
z
"/>
    </defs>
    <g clip-path="url(#pac8e065df6)">
     <use xlink:href="#mf1db95c3af" x="0" y="223.092812" style="fill: #d55e00; fill-opacity: 0.18"/>
    </g>
   </g>
   <g id="matplotlib.axis_1">
    <g id="xtick_1">
     <g id="line2d_1">
      <defs>
       <path id="m9df7d08b2e" d="M 0 0 
L 0 3.5 
" style="stroke: #000000; stroke-width: 0.8"/>
      </defs>
      <g>
       <use xlink:href="#m9df7d08b2e" x="61.510313" y="188.44" style="stroke: #000000; stroke-width: 0.8"/>
      </g>
     </g>
     <g id="text_1">
      <!-- 0 -->
      <g transform="translate(58.965313 201.51875) scale(0.08 -0.08)">
       <defs>
        <path id="DejaVuSans-30" d="M 2034 4250 
Q 1547 4250 1301 3770 
Q 1056 3291 1056 2328 
Q 1056 1369 1301 889 
Q 1547 409 2034 409 
Q 2525 409 2770 889 
Q 3016 1369 3016 2328 
Q 3016 3291 2770 3770 
Q 2525 4250 2034 4250 
z
M 2034 4750 
Q 2819 4750 3233 4129 
Q 3647 3509 3647 2328 
Q 3647 1150 3233 529 
Q 2819 -91 2034 -91 
Q 1250 -91 836 529 
Q 422 1150 422 2328 
Q 422 3509 836 4129 
Q 1250 4750 2034 4750 
z
" transform="scale(0.015625)"/>
       </defs>
       <use xlink:href="#DejaVuSans-30"/>
      </g>
     </g>
    </g>
    <g id="xtick_2">
     <g id="line2d_2">
      <g>
       <use xlink:href="#m9df7d08b2e" x="104.935048" y="188.44" style="stroke: #000000; stroke-width: 0.8"/>
      </g>
     </g>
     <g id="text_2">
      <!-- 10 -->
      <g transform="translate(99.845048 201.51875) scale(0.08 -0.08)">
       <defs>
        <path id="DejaVuSans-31" d="M 794 531 
L 1825 531 
L 1825 4091 
L 703 3866 
L 703 4441 
L 1819 4666 
L 2450 4666 
L 2450 531 
L 3481 531 
L 3481 0 
L 794 0 
L 794 531 
z
" transform="scale(0.015625)"/>
       </defs>
       <use xlink:href="#DejaVuSans-31"/>
       <use xlink:href="#DejaVuSans-30" transform="translate(63.623047 0)"/>
      </g>
     </g>
    </g>
    <g id="xtick_3">
     <g id="line2d_3">
      <g>
       <use xlink:href="#m9df7d08b2e" x="148.359784" y="188.44" style="stroke: #000000; stroke-width: 0.8"/>
      </g>
     </g>
     <g id="text_3">
      <!-- 20 -->
      <g transform="translate(143.269784 201.51875) scale(0.08 -0.08)">
       <defs>
        <path id="DejaVuSans-32" d="M 1228 531 
L 3431 531 
L 3431 0 
L 469 0 
L 469 531 
Q 828 903 1448 1529 
Q 2069 2156 2228 2338 
Q 2531 2678 2651 2914 
Q 2772 3150 2772 3378 
Q 2772 3750 2511 3984 
Q 2250 4219 1831 4219 
Q 1534 4219 1204 4116 
Q 875 4013 500 3803 
L 500 4441 
Q 881 4594 1212 4672 
Q 1544 4750 1819 4750 
Q 2544 4750 2975 4387 
Q 3406 4025 3406 3419 
Q 3406 3131 3298 2873 
Q 3191 2616 2906 2266 
Q 2828 2175 2409 1742 
Q 1991 1309 1228 531 
z
" transform="scale(0.015625)"/>
       </defs>
       <use xlink:href="#DejaVuSans-32"/>
       <use xlink:href="#DejaVuSans-30" transform="translate(63.623047 0)"/>
      </g>
     </g>
    </g>
    <g id="xtick_4">
     <g id="line2d_4">
      <g>
       <use xlink:href="#m9df7d08b2e" x="191.78452" y="188.44" style="stroke: #000000; stroke-width: 0.8"/>
      </g>
     </g>
     <g id="text_4">
      <!-- 30 -->
      <g transform="translate(186.69452 201.51875) scale(0.08 -0.08)">
       <defs>
        <path id="DejaVuSans-33" d="M 2597 2516 
Q 3050 2419 3304 2112 
Q 3559 1806 3559 1356 
Q 3559 666 3084 287 
Q 2609 -91 1734 -91 
Q 1441 -91 1130 -33 
Q 819 25 488 141 
L 488 750 
Q 750 597 1062 519 
Q 1375 441 1716 441 
Q 2309 441 2620 675 
Q 2931 909 2931 1356 
Q 2931 1769 2642 2001 
Q 2353 2234 1838 2234 
L 1294 2234 
L 1294 2753 
L 1863 2753 
Q 2328 2753 2575 2939 
Q 2822 3125 2822 3475 
Q 2822 3834 2567 4026 
Q 2313 4219 1838 4219 
Q 1578 4219 1281 4162 
Q 984 4106 628 3988 
L 628 4550 
Q 988 4650 1302 4700 
Q 1616 4750 1894 4750 
Q 2613 4750 3031 4423 
Q 3450 4097 3450 3541 
Q 3450 3153 3228 2886 
Q 3006 2619 2597 2516 
z
" transform="scale(0.015625)"/>
       </defs>
       <use xlink:href="#DejaVuSans-33"/>
       <use xlink:href="#DejaVuSans-30" transform="translate(63.623047 0)"/>
      </g>
     </g>
    </g>
    <g id="xtick_5">
     <g id="line2d_5">
      <g>
       <use xlink:href="#m9df7d08b2e" x="235.209255" y="188.44" style="stroke: #000000; stroke-width: 0.8"/>
      </g>
     </g>
     <g id="text_5">
      <!-- 40 -->
      <g transform="translate(230.119255 201.51875) scale(0.08 -0.08)">
       <defs>
        <path id="DejaVuSans-34" d="M 2419 4116 
L 825 1625 
L 2419 1625 
L 2419 4116 
z
M 2253 4666 
L 3047 4666 
L 3047 1625 
L 3713 1625 
L 3713 1100 
L 3047 1100 
L 3047 0 
L 2419 0 
L 2419 1100 
L 313 1100 
L 313 1709 
L 2253 4666 
z
" transform="scale(0.015625)"/>
       </defs>
       <use xlink:href="#DejaVuSans-34"/>
       <use xlink:href="#DejaVuSans-30" transform="translate(63.623047 0)"/>
      </g>
     </g>
    </g>
    <g id="text_6">
     <!-- Training Step -->
     <g transform="translate(138.470915 214.021094) scale(0.09 -0.09)">
      <defs>
       <path id="DejaVuSans-54" d="M -19 4666 
L 3928 4666 
L 3928 4134 
L 2272 4134 
L 2272 0 
L 1638 0 
L 1638 4134 
L -19 4134 
L -19 4666 
z
" transform="scale(0.015625)"/>
       <path id="DejaVuSans-72" d="M 2631 2963 
Q 2534 3019 2420 3045 
Q 2306 3072 2169 3072 
Q 1681 3072 1420 2755 
Q 1159 2438 1159 1844 
L 1159 0 
L 581 0 
L 581 3500 
L 1159 3500 
L 1159 2956 
Q 1341 3275 1631 3429 
Q 1922 3584 2338 3584 
Q 2397 3584 2469 3576 
Q 2541 3569 2628 3553 
L 2631 2963 
z
" transform="scale(0.015625)"/>
       <path id="DejaVuSans-61" d="M 2194 1759 
Q 1497 1759 1228 1600 
Q 959 1441 959 1056 
Q 959 750 1161 570 
Q 1363 391 1709 391 
Q 2188 391 2477 730 
Q 2766 1069 2766 1631 
L 2766 1759 
L 2194 1759 
z
M 3341 1997 
L 3341 0 
L 2766 0 
L 2766 531 
Q 2569 213 2275 61 
Q 1981 -91 1556 -91 
Q 1019 -91 701 211 
Q 384 513 384 1019 
Q 384 1609 779 1909 
Q 1175 2209 1959 2209 
L 2766 2209 
L 2766 2266 
Q 2766 2663 2505 2880 
Q 2244 3097 1772 3097 
Q 1472 3097 1187 3025 
Q 903 2953 641 2809 
L 641 3341 
Q 956 3463 1253 3523 
Q 1550 3584 1831 3584 
Q 2591 3584 2966 3190 
Q 3341 2797 3341 1997 
z
" transform="scale(0.015625)"/>
       <path id="DejaVuSans-69" d="M 603 3500 
L 1178 3500 
L 1178 0 
L 603 0 
L 603 3500 
z
M 603 4863 
L 1178 4863 
L 1178 4134 
L 603 4134 
L 603 4863 
z
" transform="scale(0.015625)"/>
       <path id="DejaVuSans-6e" d="M 3513 2113 
L 3513 0 
L 2938 0 
L 2938 2094 
Q 2938 2591 2744 2837 
Q 2550 3084 2163 3084 
Q 1697 3084 1428 2787 
Q 1159 2491 1159 1978 
L 1159 0 
L 581 0 
L 581 3500 
L 1159 3500 
L 1159 2956 
Q 1366 3272 1645 3428 
Q 1925 3584 2291 3584 
Q 2894 3584 3203 3211 
Q 3513 2838 3513 2113 
z
" transform="scale(0.015625)"/>
       <path id="DejaVuSans-67" d="M 2906 1791 
Q 2906 2416 2648 2759 
Q 2391 3103 1925 3103 
Q 1463 3103 1205 2759 
Q 947 2416 947 1791 
Q 947 1169 1205 825 
Q 1463 481 1925 481 
Q 2391 481 2648 825 
Q 2906 1169 2906 1791 
z
M 3481 434 
Q 3481 -459 3084 -895 
Q 2688 -1331 1869 -1331 
Q 1566 -1331 1297 -1286 
Q 1028 -1241 775 -1147 
L 775 -588 
Q 1028 -725 1275 -790 
Q 1522 -856 1778 -856 
Q 2344 -856 2625 -561 
Q 2906 -266 2906 331 
L 2906 616 
Q 2728 306 2450 153 
Q 2172 0 1784 0 
Q 1141 0 747 490 
Q 353 981 353 1791 
Q 353 2603 747 3093 
Q 1141 3584 1784 3584 
Q 2172 3584 2450 3431 
Q 2728 3278 2906 2969 
L 2906 3500 
L 3481 3500 
L 3481 434 
z
" transform="scale(0.015625)"/>
       <path id="DejaVuSans-20" transform="scale(0.015625)"/>
       <path id="DejaVuSans-53" d="M 3425 4513 
L 3425 3897 
Q 3066 4069 2747 4153 
Q 2428 4238 2131 4238 
Q 1616 4238 1336 4038 
Q 1056 3838 1056 3469 
Q 1056 3159 1242 3001 
Q 1428 2844 1947 2747 
L 2328 2669 
Q 3034 2534 3370 2195 
Q 3706 1856 3706 1288 
Q 3706 609 3251 259 
Q 2797 -91 1919 -91 
Q 1588 -91 1214 -16 
Q 841 59 441 206 
L 441 856 
Q 825 641 1194 531 
Q 1563 422 1919 422 
Q 2459 422 2753 634 
Q 3047 847 3047 1241 
Q 3047 1584 2836 1778 
Q 2625 1972 2144 2069 
L 1759 2144 
Q 1053 2284 737 2584 
Q 422 2884 422 3419 
Q 422 4038 858 4394 
Q 1294 4750 2059 4750 
Q 2388 4750 2728 4690 
Q 3069 4631 3425 4513 
z
" transform="scale(0.015625)"/>
       <path id="DejaVuSans-74" d="M 1172 4494 
L 1172 3500 
L 2356 3500 
L 2356 3053 
L 1172 3053 
L 1172 1153 
Q 1172 725 1289 603 
Q 1406 481 1766 481 
L 2356 481 
L 2356 0 
L 1766 0 
Q 1100 0 847 248 
Q 594 497 594 1153 
L 594 3053 
L 172 3053 
L 172 3500 
L 594 3500 
L 594 4494 
L 1172 4494 
z
" transform="scale(0.015625)"/>
       <path id="DejaVuSans-65" d="M 3597 1894 
L 3597 1613 
L 953 1613 
Q 991 1019 1311 708 
Q 1631 397 2203 397 
Q 2534 397 2845 478 
Q 3156 559 3463 722 
L 3463 178 
Q 3153 47 2828 -22 
Q 2503 -91 2169 -91 
Q 1331 -91 842 396 
Q 353 884 353 1716 
Q 353 2575 817 3079 
Q 1281 3584 2069 3584 
Q 2775 3584 3186 3129 
Q 3597 2675 3597 1894 
z
M 3022 2063 
Q 3016 2534 2758 2815 
Q 2500 3097 2075 3097 
Q 1594 3097 1305 2825 
Q 1016 2553 972 2059 
L 3022 2063 
z
" transform="scale(0.015625)"/>
       <path id="DejaVuSans-70" d="M 1159 525 
L 1159 -1331 
L 581 -1331 
L 581 3500 
L 1159 3500 
L 1159 2969 
Q 1341 3281 1617 3432 
Q 1894 3584 2278 3584 
Q 2916 3584 3314 3078 
Q 3713 2572 3713 1747 
Q 3713 922 3314 415 
Q 2916 -91 2278 -91 
Q 1894 -91 1617 61 
Q 1341 213 1159 525 
z
M 3116 1747 
Q 3116 2381 2855 2742 
Q 2594 3103 2138 3103 
Q 1681 3103 1420 2742 
Q 1159 2381 1159 1747 
Q 1159 1113 1420 752 
Q 1681 391 2138 391 
Q 2594 391 2855 752 
Q 3116 1113 3116 1747 
z
" transform="scale(0.015625)"/>
      </defs>
      <use xlink:href="#DejaVuSans-54"/>
      <use xlink:href="#DejaVuSans-72" transform="translate(46.333984 0)"/>
      <use xlink:href="#DejaVuSans-61" transform="translate(87.447266 0)"/>
      <use xlink:href="#DejaVuSans-69" transform="translate(148.726562 0)"/>
      <use xlink:href="#DejaVuSans-6e" transform="translate(176.509766 0)"/>
      <use xlink:href="#DejaVuSans-69" transform="translate(239.888672 0)"/>
      <use xlink:href="#DejaVuSans-6e" transform="translate(267.671875 0)"/>
      <use xlink:href="#DejaVuSans-67" transform="translate(331.050781 0)"/>
      <use xlink:href="#DejaVuSans-20" transform="translate(394.527344 0)"/>
      <use xlink:href="#DejaVuSans-53" transform="translate(426.314453 0)"/>
      <use xlink:href="#DejaVuSans-74" transform="translate(489.791016 0)"/>
      <use xlink:href="#DejaVuSans-65" transform="translate(529 0)"/>
      <use xlink:href="#DejaVuSans-70" transform="translate(590.523438 0)"/>
     </g>
    </g>
   </g>
   <g id="matplotlib.axis_2">
    <g id="ytick_1">
     <g id="line2d_6">
      <defs>
       <path id="mbd194a2dce" d="M 0 0 
L -3.5 0 
" style="stroke: #000000; stroke-width: 0.8"/>
      </defs>
      <g>
       <use xlink:href="#mbd194a2dce" x="61.510313" y="135.912838" style="stroke: #000000; stroke-width: 0.8"/>
      </g>
     </g>
     <g id="text_7">
      <!-- 1 -->
      <g transform="translate(49.420313 138.952213) scale(0.08 -0.08)">
       <use xlink:href="#DejaVuSans-31"/>
      </g>
     </g>
    </g>
    <g id="ytick_2">
     <g id="line2d_7">
      <defs>
       <path id="mcf003b7d35" d="M 0 0 
L -2 0 
" style="stroke: #000000; stroke-width: 0.6"/>
      </defs>
      <g>
       <use xlink:href="#mcf003b7d35" x="61.510313" y="181.828233" style="stroke: #000000; stroke-width: 0.6"/>
      </g>
     </g>
    </g>
    <g id="ytick_3">
     <g id="line2d_8">
      <g>
       <use xlink:href="#mcf003b7d35" x="61.510313" y="164.638501" style="stroke: #000000; stroke-width: 0.6"/>
      </g>
     </g>
    </g>
    <g id="ytick_4">
     <g id="line2d_9">
      <g>
       <use xlink:href="#mcf003b7d35" x="61.510313" y="149.476083" style="stroke: #000000; stroke-width: 0.6"/>
      </g>
     </g>
    </g>
    <g id="ytick_5">
     <g id="line2d_10">
      <g>
       <use xlink:href="#mcf003b7d35" x="61.510313" y="46.682779" style="stroke: #000000; stroke-width: 0.6"/>
      </g>
     </g>
     <g id="text_8">
      <!-- $\mathdefault{2\times10^{0}}$ -->
      <g transform="translate(19.910313 50.481997) scale(0.1 -0.1)">
       <defs>
        <path id="DejaVuSans-d7" d="M 4488 3438 
L 3059 2003 
L 4488 575 
L 4116 197 
L 2681 1631 
L 1247 197 
L 878 575 
L 2303 2003 
L 878 3438 
L 1247 3816 
L 2681 2381 
L 4116 3816 
L 4488 3438 
z
" transform="scale(0.015625)"/>
       </defs>
       <use xlink:href="#DejaVuSans-32" transform="translate(0 0.765625)"/>
       <use xlink:href="#DejaVuSans-d7" transform="translate(83.105469 0.765625)"/>
       <use xlink:href="#DejaVuSans-31" transform="translate(186.376953 0.765625)"/>
       <use xlink:href="#DejaVuSans-30" transform="translate(250 0.765625)"/>
       <use xlink:href="#DejaVuSans-30" transform="translate(314.580078 39.046875) scale(0.7)"/>
      </g>
     </g>
    </g>
    <g id="text_9">
     <!-- Validation Loss -->
     <g transform="translate(14.038594 131.342187) rotate(-90) scale(0.09 -0.09)">
      <defs>
       <path id="DejaVuSans-56" d="M 1831 0 
L 50 4666 
L 709 4666 
L 2188 738 
L 3669 4666 
L 4325 4666 
L 2547 0 
L 1831 0 
z
" transform="scale(0.015625)"/>
       <path id="DejaVuSans-6c" d="M 603 4863 
L 1178 4863 
L 1178 0 
L 603 0 
L 603 4863 
z
" transform="scale(0.015625)"/>
       <path id="DejaVuSans-64" d="M 2906 2969 
L 2906 4863 
L 3481 4863 
L 3481 0 
L 2906 0 
L 2906 525 
Q 2725 213 2448 61 
Q 2172 -91 1784 -91 
Q 1150 -91 751 415 
Q 353 922 353 1747 
Q 353 2572 751 3078 
Q 1150 3584 1784 3584 
Q 2172 3584 2448 3432 
Q 2725 3281 2906 2969 
z
M 947 1747 
Q 947 1113 1208 752 
Q 1469 391 1925 391 
Q 2381 391 2643 752 
Q 2906 1113 2906 1747 
Q 2906 2381 2643 2742 
Q 2381 3103 1925 3103 
Q 1469 3103 1208 2742 
Q 947 2381 947 1747 
z
" transform="scale(0.015625)"/>
       <path id="DejaVuSans-6f" d="M 1959 3097 
Q 1497 3097 1228 2736 
Q 959 2375 959 1747 
Q 959 1119 1226 758 
Q 1494 397 1959 397 
Q 2419 397 2687 759 
Q 2956 1122 2956 1747 
Q 2956 2369 2687 2733 
Q 2419 3097 1959 3097 
z
M 1959 3584 
Q 2709 3584 3137 3096 
Q 3566 2609 3566 1747 
Q 3566 888 3137 398 
Q 2709 -91 1959 -91 
Q 1206 -91 779 398 
Q 353 888 353 1747 
Q 353 2609 779 3096 
Q 1206 3584 1959 3584 
z
" transform="scale(0.015625)"/>
       <path id="DejaVuSans-4c" d="M 628 4666 
L 1259 4666 
L 1259 531 
L 3531 531 
L 3531 0 
L 628 0 
L 628 4666 
z
" transform="scale(0.015625)"/>
       <path id="DejaVuSans-73" d="M 2834 3397 
L 2834 2853 
Q 2591 2978 2328 3040 
Q 2066 3103 1784 3103 
Q 1356 3103 1142 2972 
Q 928 2841 928 2578 
Q 928 2378 1081 2264 
Q 1234 2150 1697 2047 
L 1894 2003 
Q 2506 1872 2764 1633 
Q 3022 1394 3022 966 
Q 3022 478 2636 193 
Q 2250 -91 1575 -91 
Q 1294 -91 989 -36 
Q 684 19 347 128 
L 347 722 
Q 666 556 975 473 
Q 1284 391 1588 391 
Q 1994 391 2212 530 
Q 2431 669 2431 922 
Q 2431 1156 2273 1281 
Q 2116 1406 1581 1522 
L 1381 1569 
Q 847 1681 609 1914 
Q 372 2147 372 2553 
Q 372 3047 722 3315 
Q 1072 3584 1716 3584 
Q 2034 3584 2315 3537 
Q 2597 3491 2834 3397 
z
" transform="scale(0.015625)"/>
      </defs>
      <use xlink:href="#DejaVuSans-56"/>
      <use xlink:href="#DejaVuSans-61" transform="translate(60.658203 0)"/>
      <use xlink:href="#DejaVuSans-6c" transform="translate(121.9375 0)"/>
      <use xlink:href="#DejaVuSans-69" transform="translate(149.720703 0)"/>
      <use xlink:href="#DejaVuSans-64" transform="translate(177.503906 0)"/>
      <use xlink:href="#DejaVuSans-61" transform="translate(240.980469 0)"/>
      <use xlink:href="#DejaVuSans-74" transform="translate(302.259766 0)"/>
      <use xlink:href="#DejaVuSans-69" transform="translate(341.46875 0)"/>
      <use xlink:href="#DejaVuSans-6f" transform="translate(369.251953 0)"/>
      <use xlink:href="#DejaVuSans-6e" transform="translate(430.433594 0)"/>
      <use xlink:href="#DejaVuSans-20" transform="translate(493.8125 0)"/>
      <use xlink:href="#DejaVuSans-4c" transform="translate(525.599609 0)"/>
      <use xlink:href="#DejaVuSans-6f" transform="translate(579.5625 0)"/>
      <use xlink:href="#DejaVuSans-73" transform="translate(640.744141 0)"/>
      <use xlink:href="#DejaVuSans-73" transform="translate(692.84375 0)"/>
     </g>
    </g>
   </g>
   <g id="patch_3">
    <path d="M 61.510313 188.44 
L 61.510313 7.2 
" style="fill: none; stroke: #000000; stroke-width: 0.8; stroke-linejoin: miter; stroke-linecap: square"/>
   </g>
   <g id="patch_4">
    <path d="M 61.510313 188.44 
L 274.291517 188.44 
" style="fill: none; stroke: #000000; stroke-width: 0.8; stroke-linejoin: miter; stroke-linecap: square"/>
   </g>
   <g id="line2d_11">
    <path d="M 61.510313 18.483416 
L 65.852786 22.330201 
L 70.19526 29.178842 
L 74.537733 34.430887 
L 78.880207 40.764119 
L 83.22268 43.610853 
L 87.565154 44.595035 
L 91.907627 50.457944 
L 96.250101 52.697744 
L 100.592575 58.555058 
L 104.935048 61.648227 
L 109.277522 65.583085 
L 113.619995 74.502469 
L 117.962469 69.595867 
L 122.304942 73.428405 
L 126.647416 76.045629 
L 130.98989 85.897666 
L 135.332363 88.498752 
L 139.674837 87.708467 
L 144.01731 88.26738 
L 148.359784 87.416668 
L 152.702257 90.428127 
L 157.044731 90.00388 
L 161.387205 95.82909 
L 165.729678 93.69707 
L 170.072152 94.693228 
L 174.414625 99.948705 
L 178.757099 92.093432 
L 183.099572 97.451601 
L 187.442046 95.98004 
L 191.78452 103.963246 
L 196.126993 105.295906 
L 200.469467 104.496673 
L 204.81194 104.264914 
L 209.154414 101.979882 
L 213.496887 104.113992 
L 217.839361 107.527476 
L 222.181835 110.187857 
L 226.524308 108.856011 
L 230.866782 102.227376 
L 235.209255 110.949085 
L 239.551729 106.940247 
L 243.894202 106.550244 
L 248.236676 114.988271 
L 252.57915 108.730877 
L 256.921623 103.852812 
L 261.264097 118.201193 
L 265.60657 111.055168 
L 269.949044 110.367186 
L 274.291517 113.606094 
" clip-path="url(#pac8e065df6)" style="fill: none; stroke: #555555; stroke-width: 1.4; stroke-linecap: square"/>
   </g>
   <g id="line2d_12">
    <path d="M 61.510313 22.692961 
L 65.852786 28.49523 
L 70.19526 35.535837 
L 74.537733 39.577022 
L 78.880207 48.700285 
L 83.22268 53.747406 
L 87.565154 55.990331 
L 91.907627 63.160939 
L 96.250101 70.065846 
L 100.592575 70.436876 
L 104.935048 73.507659 
L 109.277522 82.342241 
L 113.619995 88.819801 
L 117.962469 89.293919 
L 122.304942 92.892754 
L 126.647416 96.689985 
L 130.98989 95.002016 
L 135.332363 105.082967 
L 139.674837 101.043718 
L 144.01731 111.448437 
L 148.359784 112.442262 
L 152.702257 110.240575 
L 157.044731 110.800716 
L 161.387205 113.649401 
L 165.729678 117.206603 
L 170.072152 119.65657 
L 174.414625 121.26638 
L 178.757099 121.335331 
L 183.099572 125.399038 
L 187.442046 125.114627 
L 191.78452 125.29231 
L 196.126993 128.484667 
L 200.469467 126.782623 
L 204.81194 128.472516 
L 209.154414 124.171101 
L 213.496887 131.099285 
L 217.839361 134.733921 
L 222.181835 135.257975 
L 226.524308 134.555463 
L 230.866782 131.633623 
L 235.209255 137.011735 
L 239.551729 134.746677 
L 243.894202 129.7792 
L 248.236676 147.587633 
L 252.57915 142.069516 
L 256.921623 137.037705 
L 261.264097 136.778243 
L 265.60657 137.727818 
L 269.949044 140.686084 
L 274.291517 136.687555 
" clip-path="url(#pac8e065df6)" style="fill: none; stroke: #0072b2; stroke-width: 1.4; stroke-linecap: square"/>
   </g>
   <g id="line2d_13">
    <path d="M 61.510313 21.189918 
L 65.852786 29.094596 
L 70.19526 34.682779 
L 74.537733 45.829546 
L 78.880207 50.564038 
L 83.22268 59.284138 
L 87.565154 61.30165 
L 91.907627 65.248068 
L 96.250101 76.645363 
L 100.592575 76.077976 
L 104.935048 82.571702 
L 109.277522 90.581923 
L 113.619995 100.514602 
L 117.962469 95.367905 
L 122.304942 104.013475 
L 126.647416 109.714365 
L 130.98989 110.451663 
L 135.332363 114.072415 
L 139.674837 113.942109 
L 144.01731 125.803034 
L 148.359784 121.346826 
L 152.702257 122.966406 
L 157.044731 125.731648 
L 161.387205 134.300952 
L 165.729678 138.947784 
L 170.072152 134.377252 
L 174.414625 139.99326 
L 178.757099 141.934549 
L 183.099572 138.566123 
L 187.442046 147.151421 
L 191.78452 157.761357 
L 196.126993 150.842141 
L 200.469467 158.849001 
L 204.81194 148.336857 
L 209.154414 151.69789 
L 213.496887 156.955403 
L 217.839361 155.298601 
L 222.181835 152.500779 
L 226.524308 156.758484 
L 230.866782 152.003857 
L 235.209255 159.002931 
L 239.551729 154.68648 
L 243.894202 153.308706 
L 248.236676 153.367662 
L 252.57915 164.445548 
L 256.921623 157.685108 
L 261.264097 171.461965 
L 265.60657 167.947229 
L 269.949044 172.826565 
L 274.291517 158.464979 
" clip-path="url(#pac8e065df6)" style="fill: none; stroke: #d55e00; stroke-width: 2; stroke-linecap: square"/>
   </g>
   <g id="text_10">
    <!-- $\Delta=0.15$ -->
    <g style="fill: #d55e00" transform="translate(277.765496 149.047869) scale(0.07 -0.07)">
     <defs>
      <path id="DejaVuSans-394" d="M 2188 4044 
L 906 525 
L 3472 525 
L 2188 4044 
z
M 50 0 
L 1831 4666 
L 2547 4666 
L 4325 0 
L 50 0 
z
" transform="scale(0.015625)"/>
      <path id="DejaVuSans-3d" d="M 678 2906 
L 4684 2906 
L 4684 2381 
L 678 2381 
L 678 2906 
z
M 678 1631 
L 4684 1631 
L 4684 1100 
L 678 1100 
L 678 1631 
z
" transform="scale(0.015625)"/>
      <path id="DejaVuSans-2e" d="M 684 794 
L 1344 794 
L 1344 0 
L 684 0 
L 684 794 
z
" transform="scale(0.015625)"/>
      <path id="DejaVuSans-35" d="M 691 4666 
L 3169 4666 
L 3169 4134 
L 1269 4134 
L 1269 2991 
Q 1406 3038 1543 3061 
Q 1681 3084 1819 3084 
Q 2600 3084 3056 2656 
Q 3513 2228 3513 1497 
Q 3513 744 3044 326 
Q 2575 -91 1722 -91 
Q 1428 -91 1123 -41 
Q 819 9 494 109 
L 494 744 
Q 775 591 1075 516 
Q 1375 441 1709 441 
Q 2250 441 2565 725 
Q 2881 1009 2881 1497 
Q 2881 1984 2565 2268 
Q 2250 2553 1709 2553 
Q 1456 2553 1204 2497 
Q 953 2441 691 2322 
L 691 4666 
z
" transform="scale(0.015625)"/>
     </defs>
     <use xlink:href="#DejaVuSans-394" transform="translate(0 0.78125)"/>
     <use xlink:href="#DejaVuSans-3d" transform="translate(87.890625 0.78125)"/>
     <use xlink:href="#DejaVuSans-30" transform="translate(191.162109 0.78125)"/>
     <use xlink:href="#DejaVuSans-2e" transform="translate(254.785156 0.78125)"/>
     <use xlink:href="#DejaVuSans-31" transform="translate(286.572266 0.78125)"/>
     <use xlink:href="#DejaVuSans-35" transform="translate(350.195312 0.78125)"/>
    </g>
   </g>
   <g id="patch_5">
    <path d="M 274.291517 140.254561 
Q 274.291517 147.575327 274.291517 154.896093 
" style="fill: none; stroke: #d55e00; stroke-width: 1.4; stroke-linecap: round"/>
    <path d="M 272.291517 144.254561 
L 274.291517 140.254561 
L 276.291517 144.254561 
" style="fill: none; stroke: #d55e00; stroke-width: 1.4; stroke-linecap: round"/>
    <path d="M 276.291517 150.896093 
L 274.291517 154.896093 
L 272.291517 150.896093 
" style="fill: none; stroke: #d55e00; stroke-width: 1.4; stroke-linecap: round"/>
   </g>
   <g id="legend_1">
    <g id="line2d_14">
     <path d="M 206.507767 17.67875 
L 214.507767 17.67875 
L 222.507767 17.67875 
" style="fill: none; stroke: #555555; stroke-width: 1.4; stroke-linecap: square"/>
    </g>
    <g id="text_11">
     <!-- Baseline -->
     <g transform="translate(228.907767 20.47875) scale(0.08 -0.08)">
      <defs>
       <path id="DejaVuSans-42" d="M 1259 2228 
L 1259 519 
L 2272 519 
Q 2781 519 3026 730 
Q 3272 941 3272 1375 
Q 3272 1813 3026 2020 
Q 2781 2228 2272 2228 
L 1259 2228 
z
M 1259 4147 
L 1259 2741 
L 2194 2741 
Q 2656 2741 2882 2914 
Q 3109 3088 3109 3444 
Q 3109 3797 2882 3972 
Q 2656 4147 2194 4147 
L 1259 4147 
z
M 628 4666 
L 2241 4666 
Q 2963 4666 3353 4366 
Q 3744 4066 3744 3513 
Q 3744 3084 3544 2831 
Q 3344 2578 2956 2516 
Q 3422 2416 3680 2098 
Q 3938 1781 3938 1306 
Q 3938 681 3513 340 
Q 3088 0 2303 0 
L 628 0 
L 628 4666 
z
" transform="scale(0.015625)"/>
      </defs>
      <use xlink:href="#DejaVuSans-42"/>
      <use xlink:href="#DejaVuSans-61" transform="translate(68.603516 0)"/>
      <use xlink:href="#DejaVuSans-73" transform="translate(129.882812 0)"/>
      <use xlink:href="#DejaVuSans-65" transform="translate(181.982422 0)"/>
      <use xlink:href="#DejaVuSans-6c" transform="translate(243.505859 0)"/>
      <use xlink:href="#DejaVuSans-69" transform="translate(271.289062 0)"/>
      <use xlink:href="#DejaVuSans-6e" transform="translate(299.072266 0)"/>
      <use xlink:href="#DejaVuSans-65" transform="translate(362.451172 0)"/>
     </g>
    </g>
    <g id="line2d_15">
     <path d="M 206.507767 29.42125 
L 214.507767 29.42125 
L 222.507767 29.42125 
" style="fill: none; stroke: #0072b2; stroke-width: 1.4; stroke-linecap: square"/>
    </g>
    <g id="text_12">
     <!-- Method-A -->
     <g transform="translate(228.907767 32.22125) scale(0.08 -0.08)">
      <defs>
       <path id="DejaVuSans-4d" d="M 628 4666 
L 1569 4666 
L 2759 1491 
L 3956 4666 
L 4897 4666 
L 4897 0 
L 4281 0 
L 4281 4097 
L 3078 897 
L 2444 897 
L 1241 4097 
L 1241 0 
L 628 0 
L 628 4666 
z
" transform="scale(0.015625)"/>
       <path id="DejaVuSans-68" d="M 3513 2113 
L 3513 0 
L 2938 0 
L 2938 2094 
Q 2938 2591 2744 2837 
Q 2550 3084 2163 3084 
Q 1697 3084 1428 2787 
Q 1159 2491 1159 1978 
L 1159 0 
L 581 0 
L 581 4863 
L 1159 4863 
L 1159 2956 
Q 1366 3272 1645 3428 
Q 1925 3584 2291 3584 
Q 2894 3584 3203 3211 
Q 3513 2838 3513 2113 
z
" transform="scale(0.015625)"/>
       <path id="DejaVuSans-2d" d="M 313 2009 
L 1997 2009 
L 1997 1497 
L 313 1497 
L 313 2009 
z
" transform="scale(0.015625)"/>
       <path id="DejaVuSans-41" d="M 2188 4044 
L 1331 1722 
L 3047 1722 
L 2188 4044 
z
M 1831 4666 
L 2547 4666 
L 4325 0 
L 3669 0 
L 3244 1197 
L 1141 1197 
L 716 0 
L 50 0 
L 1831 4666 
z
" transform="scale(0.015625)"/>
      </defs>
      <use xlink:href="#DejaVuSans-4d"/>
      <use xlink:href="#DejaVuSans-65" transform="translate(86.279297 0)"/>
      <use xlink:href="#DejaVuSans-74" transform="translate(147.802734 0)"/>
      <use xlink:href="#DejaVuSans-68" transform="translate(187.011719 0)"/>
      <use xlink:href="#DejaVuSans-6f" transform="translate(250.390625 0)"/>
      <use xlink:href="#DejaVuSans-64" transform="translate(311.572266 0)"/>
      <use xlink:href="#DejaVuSans-2d" transform="translate(375.048828 0)"/>
      <use xlink:href="#DejaVuSans-41" transform="translate(408.882812 0)"/>
     </g>
    </g>
    <g id="line2d_16">
     <path d="M 206.507767 41.16375 
L 214.507767 41.16375 
L 222.507767 41.16375 
" style="fill: none; stroke: #d55e00; stroke-width: 2; stroke-linecap: square"/>
    </g>
    <g id="text_13">
     <!-- Ours -->
     <g transform="translate(228.907767 43.96375) scale(0.08 -0.08)">
      <defs>
       <path id="DejaVuSans-4f" d="M 2522 4238 
Q 1834 4238 1429 3725 
Q 1025 3213 1025 2328 
Q 1025 1447 1429 934 
Q 1834 422 2522 422 
Q 3209 422 3611 934 
Q 4013 1447 4013 2328 
Q 4013 3213 3611 3725 
Q 3209 4238 2522 4238 
z
M 2522 4750 
Q 3503 4750 4090 4092 
Q 4678 3434 4678 2328 
Q 4678 1225 4090 567 
Q 3503 -91 2522 -91 
Q 1538 -91 948 565 
Q 359 1222 359 2328 
Q 359 3434 948 4092 
Q 1538 4750 2522 4750 
z
" transform="scale(0.015625)"/>
       <path id="DejaVuSans-75" d="M 544 1381 
L 544 3500 
L 1119 3500 
L 1119 1403 
Q 1119 906 1312 657 
Q 1506 409 1894 409 
Q 2359 409 2629 706 
Q 2900 1003 2900 1516 
L 2900 3500 
L 3475 3500 
L 3475 0 
L 2900 0 
L 2900 538 
Q 2691 219 2414 64 
Q 2138 -91 1772 -91 
Q 1169 -91 856 284 
Q 544 659 544 1381 
z
M 1991 3584 
L 1991 3584 
z
" transform="scale(0.015625)"/>
      </defs>
      <use xlink:href="#DejaVuSans-4f"/>
      <use xlink:href="#DejaVuSans-75" transform="translate(78.710938 0)"/>
      <use xlink:href="#DejaVuSans-72" transform="translate(142.089844 0)"/>
      <use xlink:href="#DejaVuSans-73" transform="translate(183.203125 0)"/>
     </g>
    </g>
   </g>
  </g>
 </g>
 <defs>
  <clipPath id="pac8e065df6">
   <rect x="61.510313" y="7.2" width="212.781205" height="181.24"/>
  </clipPath>
 </defs>
</svg>
