<?xml version="1.0" encoding="utf-8" standalone="no"?>
<!DOCTYPE svg PUBLIC "-//W3C//DTD SVG 1.1//EN"
  "http://www.w3.org/Graphics/SVG/1.1/DTD/svg11.dtd">
<svg xmlns:xlink="http://www.w3.org/1999/xlink" width="387.491086pt" height="265.348437pt" viewBox="0 0 387.491086 265.348437" xmlns="http://www.w3.org/2000/svg" version="1.1">
 <metadata>
  <rdf:RDF xmlns:dc="http://purl.org/dc/elements/1.1/" xmlns:cc="http://creativecommons.org/ns#" xmlns:rdf="http://www.w3.org/1999/02/22-rdf-syntax-ns#">
   <cc:Work>
    <dc:type rdf:resource="http://purl.org/dc/dcmitype/StillImage"/>
    <dc:date>2026-05-24T23:12:05.733357</dc:date>
    <dc:format>image/svg+xml</dc:format>
    <dc:creator>
     <cc:Agent>
      <dc:title>Matplotlib v3.10.9, https://matplotlib.org/</dc:title>
     </cc:Agent>
    </dc:creator>
   </cc:Work>
  </rdf:RDF>
 </metadata>
 <defs>
  <style type="text/css">*{stroke-linejoin: round; stroke-linecap: butt}</style>
 </defs>
 <g id="figure_1">
  <g id="patch_1">
   <path d="M 0 265.348437 
L 387.491086 265.348437 
L 387.491086 0 
L 0 0 
z
" style="fill: #ffffff"/>
  </g>
  <g id="axes_1">
   <g id="patch_2">
    <path d="M 62.478125 228.76 
L 357.3792 228.76 
L 357.3792 7.2 
L 62.478125 7.2 
z
" style="fill: #ffffff"/>
   </g>
   <g id="matplotlib.axis_1">
    <g id="xtick_1">
     <g id="line2d_1">
      <defs>
       <path id="m3308aae9c4" d="M 0 0 
L 0 3.5 
" style="stroke: #000000; stroke-width: 0.8"/>
      </defs>
      <g>
       <use xlink:href="#m3308aae9c4" x="62.478125" y="228.76" style="stroke: #000000; stroke-width: 0.8"/>
      </g>
     </g>
     <g id="text_1">
      <!-- 0 -->
      <g transform="translate(59.615 242.598594) scale(0.09 -0.09)">
       <defs>
        <path id="DejaVuSans-30" d="M 2034 4250 
Q 1547 4250 1301 3770 
Q 1056 3291 1056 2328 
Q 1056 1369 1301 889 
Q 1547 409 2034 409 
Q 2525 409 2770 889 
Q 3016 1369 3016 2328 
Q 3016 3291 2770 3770 
Q 2525 4250 2034 4250 
z
M 2034 4750 
Q 2819 4750 3233 4129 
Q 3647 3509 3647 2328 
Q 3647 1150 3233 529 
Q 2819 -91 2034 -91 
Q 1250 -91 836 529 
Q 422 1150 422 2328 
Q 422 3509 836 4129 
Q 1250 4750 2034 4750 
z
" transform="scale(0.015625)"/>
       </defs>
       <use xlink:href="#DejaVuSans-30"/>
      </g>
     </g>
    </g>
    <g id="xtick_2">
     <g id="line2d_2">
      <g>
       <use xlink:href="#m3308aae9c4" x="119.18987" y="228.76" style="stroke: #000000; stroke-width: 0.8"/>
      </g>
     </g>
     <g id="text_2">
      <!-- 10 -->
      <g transform="translate(113.46362 242.598594) scale(0.09 -0.09)">
       <defs>
        <path id="DejaVuSans-31" d="M 794 531 
L 1825 531 
L 1825 4091 
L 703 3866 
L 703 4441 
L 1819 4666 
L 2450 4666 
L 2450 531 
L 3481 531 
L 3481 0 
L 794 0 
L 794 531 
z
" transform="scale(0.015625)"/>
       </defs>
       <use xlink:href="#DejaVuSans-31"/>
       <use xlink:href="#DejaVuSans-30" transform="translate(63.623047 0)"/>
      </g>
     </g>
    </g>
    <g id="xtick_3">
     <g id="line2d_3">
      <g>
       <use xlink:href="#m3308aae9c4" x="175.901615" y="228.76" style="stroke: #000000; stroke-width: 0.8"/>
      </g>
     </g>
     <g id="text_3">
      <!-- 20 -->
      <g transform="translate(170.175365 242.598594) scale(0.09 -0.09)">
       <defs>
        <path id="DejaVuSans-32" d="M 1228 531 
L 3431 531 
L 3431 0 
L 469 0 
L 469 531 
Q 828 903 1448 1529 
Q 2069 2156 2228 2338 
Q 2531 2678 2651 2914 
Q 2772 3150 2772 3378 
Q 2772 3750 2511 3984 
Q 2250 4219 1831 4219 
Q 1534 4219 1204 4116 
Q 875 4013 500 3803 
L 500 4441 
Q 881 4594 1212 4672 
Q 1544 4750 1819 4750 
Q 2544 4750 2975 4387 
Q 3406 4025 3406 3419 
Q 3406 3131 3298 2873 
Q 3191 2616 2906 2266 
Q 2828 2175 2409 1742 
Q 1991 1309 1228 531 
z
" transform="scale(0.015625)"/>
       </defs>
       <use xlink:href="#DejaVuSans-32"/>
       <use xlink:href="#DejaVuSans-30" transform="translate(63.623047 0)"/>
      </g>
     </g>
    </g>
    <g id="xtick_4">
     <g id="line2d_4">
      <g>
       <use xlink:href="#m3308aae9c4" x="232.61336" y="228.76" style="stroke: #000000; stroke-width: 0.8"/>
      </g>
     </g>
     <g id="text_4">
      <!-- 30 -->
      <g transform="translate(226.88711 242.598594) scale(0.09 -0.09)">
       <defs>
        <path id="DejaVuSans-33" d="M 2597 2516 
Q 3050 2419 3304 2112 
Q 3559 1806 3559 1356 
Q 3559 666 3084 287 
Q 2609 -91 1734 -91 
Q 1441 -91 1130 -33 
Q 819 25 488 141 
L 488 750 
Q 750 597 1062 519 
Q 1375 441 1716 441 
Q 2309 441 2620 675 
Q 2931 909 2931 1356 
Q 2931 1769 2642 2001 
Q 2353 2234 1838 2234 
L 1294 2234 
L 1294 2753 
L 1863 2753 
Q 2328 2753 2575 2939 
Q 2822 3125 2822 3475 
Q 2822 3834 2567 4026 
Q 2313 4219 1838 4219 
Q 1578 4219 1281 4162 
Q 984 4106 628 3988 
L 628 4550 
Q 988 4650 1302 4700 
Q 1616 4750 1894 4750 
Q 2613 4750 3031 4423 
Q 3450 4097 3450 3541 
Q 3450 3153 3228 2886 
Q 3006 2619 2597 2516 
z
" transform="scale(0.015625)"/>
       </defs>
       <use xlink:href="#DejaVuSans-33"/>
       <use xlink:href="#DejaVuSans-30" transform="translate(63.623047 0)"/>
      </g>
     </g>
    </g>
    <g id="xtick_5">
     <g id="line2d_5">
      <g>
       <use xlink:href="#m3308aae9c4" x="289.325105" y="228.76" style="stroke: #000000; stroke-width: 0.8"/>
      </g>
     </g>
     <g id="text_5">
      <!-- 40 -->
      <g transform="translate(283.598855 242.598594) scale(0.09 -0.09)">
       <defs>
        <path id="DejaVuSans-34" d="M 2419 4116 
L 825 1625 
L 2419 1625 
L 2419 4116 
z
M 2253 4666 
L 3047 4666 
L 3047 1625 
L 3713 1625 
L 3713 1100 
L 3047 1100 
L 3047 0 
L 2419 0 
L 2419 1100 
L 313 1100 
L 313 1709 
L 2253 4666 
z
" transform="scale(0.015625)"/>
       </defs>
       <use xlink:href="#DejaVuSans-34"/>
       <use xlink:href="#DejaVuSans-30" transform="translate(63.623047 0)"/>
      </g>
     </g>
    </g>
    <g id="xtick_6">
     <g id="line2d_6">
      <g>
       <use xlink:href="#m3308aae9c4" x="346.036851" y="228.76" style="stroke: #000000; stroke-width: 0.8"/>
      </g>
     </g>
     <g id="text_6">
      <!-- 50 -->
      <g transform="translate(340.310601 242.598594) scale(0.09 -0.09)">
       <defs>
        <path id="DejaVuSans-35" d="M 691 4666 
L 3169 4666 
L 3169 4134 
L 1269 4134 
L 1269 2991 
Q 1406 3038 1543 3061 
Q 1681 3084 1819 3084 
Q 2600 3084 3056 2656 
Q 3513 2228 3513 1497 
Q 3513 744 3044 326 
Q 2575 -91 1722 -91 
Q 1428 -91 1123 -41 
Q 819 9 494 109 
L 494 744 
Q 775 591 1075 516 
Q 1375 441 1709 441 
Q 2250 441 2565 725 
Q 2881 1009 2881 1497 
Q 2881 1984 2565 2268 
Q 2250 2553 1709 2553 
Q 1456 2553 1204 2497 
Q 953 2441 691 2322 
L 691 4666 
z
" transform="scale(0.015625)"/>
       </defs>
       <use xlink:href="#DejaVuSans-35"/>
       <use xlink:href="#DejaVuSans-30" transform="translate(63.623047 0)"/>
      </g>
     </g>
    </g>
    <g id="text_7">
     <!-- training step -->
     <g transform="translate(178.154444 256.06875) scale(0.1 -0.1)">
      <defs>
       <path id="DejaVuSans-74" d="M 1172 4494 
L 1172 3500 
L 2356 3500 
L 2356 3053 
L 1172 3053 
L 1172 1153 
Q 1172 725 1289 603 
Q 1406 481 1766 481 
L 2356 481 
L 2356 0 
L 1766 0 
Q 1100 0 847 248 
Q 594 497 594 1153 
L 594 3053 
L 172 3053 
L 172 3500 
L 594 3500 
L 594 4494 
L 1172 4494 
z
" transform="scale(0.015625)"/>
       <path id="DejaVuSans-72" d="M 2631 2963 
Q 2534 3019 2420 3045 
Q 2306 3072 2169 3072 
Q 1681 3072 1420 2755 
Q 1159 2438 1159 1844 
L 1159 0 
L 581 0 
L 581 3500 
L 1159 3500 
L 1159 2956 
Q 1341 3275 1631 3429 
Q 1922 3584 2338 3584 
Q 2397 3584 2469 3576 
Q 2541 3569 2628 3553 
L 2631 2963 
z
" transform="scale(0.015625)"/>
       <path id="DejaVuSans-61" d="M 2194 1759 
Q 1497 1759 1228 1600 
Q 959 1441 959 1056 
Q 959 750 1161 570 
Q 1363 391 1709 391 
Q 2188 391 2477 730 
Q 2766 1069 2766 1631 
L 2766 1759 
L 2194 1759 
z
M 3341 1997 
L 3341 0 
L 2766 0 
L 2766 531 
Q 2569 213 2275 61 
Q 1981 -91 1556 -91 
Q 1019 -91 701 211 
Q 384 513 384 1019 
Q 384 1609 779 1909 
Q 1175 2209 1959 2209 
L 2766 2209 
L 2766 2266 
Q 2766 2663 2505 2880 
Q 2244 3097 1772 3097 
Q 1472 3097 1187 3025 
Q 903 2953 641 2809 
L 641 3341 
Q 956 3463 1253 3523 
Q 1550 3584 1831 3584 
Q 2591 3584 2966 3190 
Q 3341 2797 3341 1997 
z
" transform="scale(0.015625)"/>
       <path id="DejaVuSans-69" d="M 603 3500 
L 1178 3500 
L 1178 0 
L 603 0 
L 603 3500 
z
M 603 4863 
L 1178 4863 
L 1178 4134 
L 603 4134 
L 603 4863 
z
" transform="scale(0.015625)"/>
       <path id="DejaVuSans-6e" d="M 3513 2113 
L 3513 0 
L 2938 0 
L 2938 2094 
Q 2938 2591 2744 2837 
Q 2550 3084 2163 3084 
Q 1697 3084 1428 2787 
Q 1159 2491 1159 1978 
L 1159 0 
L 581 0 
L 581 3500 
L 1159 3500 
L 1159 2956 
Q 1366 3272 1645 3428 
Q 1925 3584 2291 3584 
Q 2894 3584 3203 3211 
Q 3513 2838 3513 2113 
z
" transform="scale(0.015625)"/>
       <path id="DejaVuSans-67" d="M 2906 1791 
Q 2906 2416 2648 2759 
Q 2391 3103 1925 3103 
Q 1463 3103 1205 2759 
Q 947 2416 947 1791 
Q 947 1169 1205 825 
Q 1463 481 1925 481 
Q 2391 481 2648 825 
Q 2906 1169 2906 1791 
z
M 3481 434 
Q 3481 -459 3084 -895 
Q 2688 -1331 1869 -1331 
Q 1566 -1331 1297 -1286 
Q 1028 -1241 775 -1147 
L 775 -588 
Q 1028 -725 1275 -790 
Q 1522 -856 1778 -856 
Q 2344 -856 2625 -561 
Q 2906 -266 2906 331 
L 2906 616 
Q 2728 306 2450 153 
Q 2172 0 1784 0 
Q 1141 0 747 490 
Q 353 981 353 1791 
Q 353 2603 747 3093 
Q 1141 3584 1784 3584 
Q 2172 3584 2450 3431 
Q 2728 3278 2906 2969 
L 2906 3500 
L 3481 3500 
L 3481 434 
z
" transform="scale(0.015625)"/>
       <path id="DejaVuSans-20" transform="scale(0.015625)"/>
       <path id="DejaVuSans-73" d="M 2834 3397 
L 2834 2853 
Q 2591 2978 2328 3040 
Q 2066 3103 1784 3103 
Q 1356 3103 1142 2972 
Q 928 2841 928 2578 
Q 928 2378 1081 2264 
Q 1234 2150 1697 2047 
L 1894 2003 
Q 2506 1872 2764 1633 
Q 3022 1394 3022 966 
Q 3022 478 2636 193 
Q 2250 -91 1575 -91 
Q 1294 -91 989 -36 
Q 684 19 347 128 
L 347 722 
Q 666 556 975 473 
Q 1284 391 1588 391 
Q 1994 391 2212 530 
Q 2431 669 2431 922 
Q 2431 1156 2273 1281 
Q 2116 1406 1581 1522 
L 1381 1569 
Q 847 1681 609 1914 
Q 372 2147 372 2553 
Q 372 3047 722 3315 
Q 1072 3584 1716 3584 
Q 2034 3584 2315 3537 
Q 2597 3491 2834 3397 
z
" transform="scale(0.015625)"/>
       <path id="DejaVuSans-65" d="M 3597 1894 
L 3597 1613 
L 953 1613 
Q 991 1019 1311 708 
Q 1631 397 2203 397 
Q 2534 397 2845 478 
Q 3156 559 3463 722 
L 3463 178 
Q 3153 47 2828 -22 
Q 2503 -91 2169 -91 
Q 1331 -91 842 396 
Q 353 884 353 1716 
Q 353 2575 817 3079 
Q 1281 3584 2069 3584 
Q 2775 3584 3186 3129 
Q 3597 2675 3597 1894 
z
M 3022 2063 
Q 3016 2534 2758 2815 
Q 2500 3097 2075 3097 
Q 1594 3097 1305 2825 
Q 1016 2553 972 2059 
L 3022 2063 
z
" transform="scale(0.015625)"/>
       <path id="DejaVuSans-70" d="M 1159 525 
L 1159 -1331 
L 581 -1331 
L 581 3500 
L 1159 3500 
L 1159 2969 
Q 1341 3281 1617 3432 
Q 1894 3584 2278 3584 
Q 2916 3584 3314 3078 
Q 3713 2572 3713 1747 
Q 3713 922 3314 415 
Q 2916 -91 2278 -91 
Q 1894 -91 1617 61 
Q 1341 213 1159 525 
z
M 3116 1747 
Q 3116 2381 2855 2742 
Q 2594 3103 2138 3103 
Q 1681 3103 1420 2742 
Q 1159 2381 1159 1747 
Q 1159 1113 1420 752 
Q 1681 391 2138 391 
Q 2594 391 2855 752 
Q 3116 1113 3116 1747 
z
" transform="scale(0.015625)"/>
      </defs>
      <use xlink:href="#DejaVuSans-74"/>
      <use xlink:href="#DejaVuSans-72" transform="translate(39.208984 0)"/>
      <use xlink:href="#DejaVuSans-61" transform="translate(80.322266 0)"/>
      <use xlink:href="#DejaVuSans-69" transform="translate(141.601562 0)"/>
      <use xlink:href="#DejaVuSans-6e" transform="translate(169.384766 0)"/>
      <use xlink:href="#DejaVuSans-69" transform="translate(232.763672 0)"/>
      <use xlink:href="#DejaVuSans-6e" transform="translate(260.546875 0)"/>
      <use xlink:href="#DejaVuSans-67" transform="translate(323.925781 0)"/>
      <use xlink:href="#DejaVuSans-20" transform="translate(387.402344 0)"/>
      <use xlink:href="#DejaVuSans-73" transform="translate(419.189453 0)"/>
      <use xlink:href="#DejaVuSans-74" transform="translate(471.289062 0)"/>
      <use xlink:href="#DejaVuSans-65" transform="translate(510.498047 0)"/>
      <use xlink:href="#DejaVuSans-70" transform="translate(572.021484 0)"/>
     </g>
    </g>
   </g>
   <g id="matplotlib.axis_2">
    <g id="ytick_1">
     <g id="line2d_7">
      <defs>
       <path id="mfa7a396439" d="M 0 0 
L -3.5 0 
" style="stroke: #000000; stroke-width: 0.8"/>
      </defs>
      <g>
       <use xlink:href="#mfa7a396439" x="62.478125" y="164.547255" style="stroke: #000000; stroke-width: 0.8"/>
      </g>
     </g>
     <g id="text_8">
      <!-- $\mathdefault{10^{0}}$ -->
      <g transform="translate(39.638125 167.966552) scale(0.09 -0.09)">
       <use xlink:href="#DejaVuSans-31" transform="translate(0 0.765625)"/>
       <use xlink:href="#DejaVuSans-30" transform="translate(63.623047 0.765625)"/>
       <use xlink:href="#DejaVuSans-30" transform="translate(128.203125 39.046875) scale(0.7)"/>
      </g>
     </g>
    </g>
    <g id="ytick_2">
     <g id="line2d_8">
      <defs>
       <path id="m3316714d97" d="M 0 0 
L -2 0 
" style="stroke: #000000; stroke-width: 0.6"/>
      </defs>
      <g>
       <use xlink:href="#m3316714d97" x="62.478125" y="220.67733" style="stroke: #000000; stroke-width: 0.6"/>
      </g>
     </g>
    </g>
    <g id="ytick_3">
     <g id="line2d_9">
      <g>
       <use xlink:href="#m3316714d97" x="62.478125" y="199.663443" style="stroke: #000000; stroke-width: 0.6"/>
      </g>
     </g>
    </g>
    <g id="ytick_4">
     <g id="line2d_10">
      <g>
       <use xlink:href="#m3316714d97" x="62.478125" y="181.12788" style="stroke: #000000; stroke-width: 0.6"/>
      </g>
     </g>
    </g>
    <g id="ytick_5">
     <g id="line2d_11">
      <g>
       <use xlink:href="#m3316714d97" x="62.478125" y="55.466412" style="stroke: #000000; stroke-width: 0.6"/>
      </g>
     </g>
     <g id="text_9">
      <!-- $\mathdefault{2\times10^{0}}$ -->
      <g transform="translate(20.878125 59.26563) scale(0.1 -0.1)">
       <defs>
        <path id="DejaVuSans-d7" d="M 4488 3438 
L 3059 2003 
L 4488 575 
L 4116 197 
L 2681 1631 
L 1247 197 
L 878 575 
L 2303 2003 
L 878 3438 
L 1247 3816 
L 2681 2381 
L 4116 3816 
L 4488 3438 
z
" transform="scale(0.015625)"/>
       </defs>
       <use xlink:href="#DejaVuSans-32" transform="translate(0 0.765625)"/>
       <use xlink:href="#DejaVuSans-d7" transform="translate(83.105469 0.765625)"/>
       <use xlink:href="#DejaVuSans-31" transform="translate(186.376953 0.765625)"/>
       <use xlink:href="#DejaVuSans-30" transform="translate(250 0.765625)"/>
       <use xlink:href="#DejaVuSans-30" transform="translate(314.580078 39.046875) scale(0.7)"/>
      </g>
     </g>
    </g>
    <g id="text_10">
     <!-- validation loss -->
     <g transform="translate(14.798438 153.844063) rotate(-90) scale(0.1 -0.1)">
      <defs>
       <path id="DejaVuSans-76" d="M 191 3500 
L 800 3500 
L 1894 563 
L 2988 3500 
L 3597 3500 
L 2284 0 
L 1503 0 
L 191 3500 
z
" transform="scale(0.015625)"/>
       <path id="DejaVuSans-6c" d="M 603 4863 
L 1178 4863 
L 1178 0 
L 603 0 
L 603 4863 
z
" transform="scale(0.015625)"/>
       <path id="DejaVuSans-64" d="M 2906 2969 
L 2906 4863 
L 3481 4863 
L 3481 0 
L 2906 0 
L 2906 525 
Q 2725 213 2448 61 
Q 2172 -91 1784 -91 
Q 1150 -91 751 415 
Q 353 922 353 1747 
Q 353 2572 751 3078 
Q 1150 3584 1784 3584 
Q 2172 3584 2448 3432 
Q 2725 3281 2906 2969 
z
M 947 1747 
Q 947 1113 1208 752 
Q 1469 391 1925 391 
Q 2381 391 2643 752 
Q 2906 1113 2906 1747 
Q 2906 2381 2643 2742 
Q 2381 3103 1925 3103 
Q 1469 3103 1208 2742 
Q 947 2381 947 1747 
z
" transform="scale(0.015625)"/>
       <path id="DejaVuSans-6f" d="M 1959 3097 
Q 1497 3097 1228 2736 
Q 959 2375 959 1747 
Q 959 1119 1226 758 
Q 1494 397 1959 397 
Q 2419 397 2687 759 
Q 2956 1122 2956 1747 
Q 2956 2369 2687 2733 
Q 2419 3097 1959 3097 
z
M 1959 3584 
Q 2709 3584 3137 3096 
Q 3566 2609 3566 1747 
Q 3566 888 3137 398 
Q 2709 -91 1959 -91 
Q 1206 -91 779 398 
Q 353 888 353 1747 
Q 353 2609 779 3096 
Q 1206 3584 1959 3584 
z
" transform="scale(0.015625)"/>
      </defs>
      <use xlink:href="#DejaVuSans-76"/>
      <use xlink:href="#DejaVuSans-61" transform="translate(59.179688 0)"/>
      <use xlink:href="#DejaVuSans-6c" transform="translate(120.458984 0)"/>
      <use xlink:href="#DejaVuSans-69" transform="translate(148.242188 0)"/>
      <use xlink:href="#DejaVuSans-64" transform="translate(176.025391 0)"/>
      <use xlink:href="#DejaVuSans-61" transform="translate(239.501953 0)"/>
      <use xlink:href="#DejaVuSans-74" transform="translate(300.78125 0)"/>
      <use xlink:href="#DejaVuSans-69" transform="translate(339.990234 0)"/>
      <use xlink:href="#DejaVuSans-6f" transform="translate(367.773438 0)"/>
      <use xlink:href="#DejaVuSans-6e" transform="translate(428.955078 0)"/>
      <use xlink:href="#DejaVuSans-20" transform="translate(492.333984 0)"/>
      <use xlink:href="#DejaVuSans-6c" transform="translate(524.121094 0)"/>
      <use xlink:href="#DejaVuSans-6f" transform="translate(551.904297 0)"/>
      <use xlink:href="#DejaVuSans-73" transform="translate(613.085938 0)"/>
      <use xlink:href="#DejaVuSans-73" transform="translate(665.185547 0)"/>
     </g>
    </g>
   </g>
   <g id="FillBetweenPolyCollection_1">
    <defs>
     <path id="m8146bb13b7" d="M 62.478125 -248.077528 
L 62.478125 -240.541929 
L 68.1493 -236.866522 
L 73.820474 -227.920212 
L 79.491649 -220.867404 
L 85.162823 -213.852332 
L 90.833998 -209.763954 
L 96.505172 -209.243382 
L 102.176347 -200.879578 
L 107.847521 -197.902143 
L 113.518696 -190.860817 
L 119.18987 -186.421213 
L 124.861045 -182.500159 
L 130.532219 -170.519062 
L 136.203394 -176.914939 
L 141.874568 -172.107558 
L 147.545743 -169.057218 
L 153.216917 -155.762387 
L 158.888092 -152.215736 
L 164.559266 -154.27938 
L 170.230441 -153.143777 
L 175.901615 -155.573607 
L 181.57279 -150.320097 
L 187.243964 -150.985027 
L 192.915139 -142.741888 
L 198.586313 -145.880926 
L 204.257488 -145.880926 
L 209.928662 -138.984339 
L 215.599837 -148.273368 
L 221.271011 -143.018917 
L 226.942186 -143.835118 
L 232.61336 -134.437447 
L 238.284535 -132.892146 
L 243.955709 -134.042987 
L 249.626884 -132.51952 
L 255.298058 -137.046378 
L 260.969233 -134.042987 
L 266.640407 -129.348875 
L 272.311582 -124.672778 
L 277.982756 -128.480151 
L 283.653931 -135.92996 
L 289.325105 -124.564564 
L 294.99628 -128.796606 
L 300.667455 -129.466967 
L 306.338629 -118.523315 
L 312.009804 -128.110147 
L 317.680978 -133.953778 
L 323.352153 -115.843097 
L 329.023327 -123.519181 
L 334.694502 -124.198791 
L 340.365676 -122.274707 
L 340.365676 -133.660308 
L 340.365676 -133.660308 
L 334.694502 -139.489739 
L 329.023327 -138.502082 
L 323.352153 -128.796606 
L 317.680978 -145.810007 
L 312.009804 -139.735688 
L 306.338629 -133.864519 
L 300.667455 -143.607488 
L 294.99628 -143.307472 
L 289.325105 -137.794575 
L 283.653931 -147.80712 
L 277.982756 -139.09542 
L 272.311582 -139.477432 
L 266.640407 -141.42234 
L 260.969233 -145.110924 
L 255.298058 -147.351194 
L 249.626884 -146.164285 
L 243.955709 -144.205809 
L 238.284535 -143.391534 
L 232.61336 -145.099048 
L 226.942186 -155.195366 
L 221.271011 -152.476593 
L 215.599837 -160.237261 
L 209.928662 -150.343072 
L 204.257488 -156.327373 
L 198.586313 -158.676228 
L 192.915139 -156.559425 
L 187.243964 -162.645793 
L 181.57279 -162.262897 
L 175.901615 -164.472939 
L 170.230441 -164.735232 
L 164.559266 -164.997088 
L 158.888092 -165.049407 
L 153.216917 -167.890217 
L 147.545743 -178.766831 
L 141.874568 -182.106381 
L 136.203394 -186.676744 
L 130.532219 -181.051464 
L 124.861045 -190.940712 
L 119.18987 -196.589082 
L 113.518696 -199.750751 
L 107.847521 -207.023555 
L 102.176347 -209.53543 
L 96.505172 -215.561652 
L 90.833998 -217.417706 
L 85.162823 -220.31609 
L 79.491649 -228.752954 
L 73.820474 -234.56959 
L 68.1493 -242.389542 
L 62.478125 -248.077528 
z
" style="stroke: #4878cf; stroke-opacity: 0.18"/>
    </defs>
    <g clip-path="url(#p11ee73442a)">
     <use xlink:href="#m8146bb13b7" x="0" y="265.348437" style="fill: #4878cf; fill-opacity: 0.18; stroke: #4878cf; stroke-opacity: 0.18"/>
    </g>
   </g>
   <g id="FillBetweenPolyCollection_2">
    <defs>
     <path id="m17ac483daf" d="M 62.478125 -242.223053 
L 62.478125 -236.135678 
L 68.1493 -229.831052 
L 73.820474 -221.292432 
L 79.491649 -214.877102 
L 85.162823 -204.136686 
L 90.833998 -198.486928 
L 96.505172 -195.005727 
L 102.176347 -186.986474 
L 107.847521 -177.418649 
L 113.518696 -176.078327 
L 119.18987 -172.437318 
L 124.861045 -161.665422 
L 130.532219 -154.480908 
L 136.203394 -153.650751 
L 141.874568 -149.594647 
L 147.545743 -143.391534 
L 153.216917 -146.081692 
L 158.888092 -132.738063 
L 164.559266 -138.971992 
L 170.230441 -126.153226 
L 175.901615 -123.314724 
L 181.57279 -125.643371 
L 187.243964 -125.2801 
L 192.915139 -121.79343 
L 198.586313 -117.224359 
L 204.257488 -114.334123 
L 209.928662 -113.784432 
L 215.599837 -112.839698 
L 221.271011 -108.179271 
L 226.942186 -109.510075 
L 232.61336 -109.28657 
L 238.284535 -104.502723 
L 243.955709 -106.715911 
L 249.626884 -103.237209 
L 255.298058 -107.938827 
L 260.969233 -100.675236 
L 266.640407 -94.458952 
L 272.311582 -93.604658 
L 277.982756 -94.622709 
L 283.653931 -100.24942 
L 289.325105 -93.9009 
L 294.99628 -96.752334 
L 300.667455 -103.128704 
L 306.338629 -80.540866 
L 312.009804 -86.097761 
L 317.680978 -91.615329 
L 323.352153 -92.148281 
L 329.023327 -92.131653 
L 334.694502 -87.764891 
L 340.365676 -92.397482 
L 340.365676 -106.973362 
L 340.365676 -106.973362 
L 334.694502 -101.852048 
L 329.023327 -104.779161 
L 323.352153 -106.988493 
L 317.680978 -106.867404 
L 312.009804 -100.138835 
L 306.338629 -92.297849 
L 300.667455 -113.305507 
L 294.99628 -107.517165 
L 289.325105 -104.825187 
L 283.653931 -111.61035 
L 277.982756 -109.926439 
L 272.311582 -109.211997 
L 266.640407 -109.658903 
L 260.969233 -112.474824 
L 255.298058 -122.054877 
L 249.626884 -116.285851 
L 243.955709 -117.039944 
L 238.284535 -115.083233 
L 232.61336 -118.157304 
L 226.942186 -118.368568 
L 221.271011 -118.94458 
L 215.599837 -124.198791 
L 209.928662 -123.47831 
L 204.257488 -126.768216 
L 198.586313 -129.859967 
L 192.915139 -134.004761 
L 187.243964 -137.483258 
L 181.57279 -138.464924 
L 175.901615 -135.438236 
L 170.230441 -135.134872 
L 164.559266 -147.760419 
L 158.888092 -144.038509 
L 153.216917 -155.406848 
L 147.545743 -153.9317 
L 141.874568 -157.099555 
L 136.203394 -161.825682 
L 130.532219 -162.167027 
L 124.861045 -170.781565 
L 119.18987 -181.608061 
L 113.518696 -185.468449 
L 107.847521 -185.082038 
L 102.176347 -192.442265 
L 96.505172 -201.925895 
L 90.833998 -203.957039 
L 85.162823 -210.627766 
L 79.491649 -222.175451 
L 73.820474 -225.694385 
L 68.1493 -234.367678 
L 62.478125 -242.223053 
z
" style="stroke: #6acc65; stroke-opacity: 0.18"/>
    </defs>
    <g clip-path="url(#p11ee73442a)">
     <use xlink:href="#m17ac483daf" x="0" y="265.348437" style="fill: #6acc65; fill-opacity: 0.18; stroke: #6acc65; stroke-opacity: 0.18"/>
    </g>
   </g>
   <g id="FillBetweenPolyCollection_3">
    <defs>
     <path id="m2c2da7dcb2" d="M 62.478125 -243.448377 
L 62.478125 -238.606823 
L 68.1493 -228.752954 
L 73.820474 -221.811168 
L 79.491649 -208.53866 
L 85.162823 -202.140938 
L 90.833998 -191.613766 
L 96.505172 -189.33506 
L 102.176347 -183.322036 
L 107.847521 -169.9826 
L 113.518696 -170.235876 
L 119.18987 -161.697487 
L 124.861045 -151.920332 
L 130.532219 -139.84624 
L 136.203394 -145.963625 
L 141.874568 -135.020959 
L 147.545743 -127.36752 
L 153.216917 -127.792307 
L 158.888092 -122.315891 
L 164.559266 -123.123657 
L 170.230441 -108.104172 
L 175.901615 -112.650069 
L 181.57279 -111.183693 
L 187.243964 -107.562397 
L 192.915139 -96.20237 
L 198.586313 -89.887534 
L 204.257488 -96.881458 
L 209.928662 -89.313004 
L 215.599837 -87.113891 
L 221.271011 -91.381594 
L 226.942186 -79.967045 
L 232.61336 -67.075496 
L 238.284535 -75.68769 
L 243.955709 -65.60629 
L 249.626884 -77.778169 
L 255.298058 -74.129371 
L 260.969233 -66.880392 
L 266.640407 -68.820626 
L 272.311582 -74.334317 
L 277.982756 -68.047401 
L 283.653931 -73.063083 
L 289.325105 -64.341629 
L 294.99628 -71.894999 
L 300.667455 -73.699984 
L 306.338629 -72.724854 
L 312.009804 -59.690544 
L 317.680978 -67.795283 
L 323.352153 -50.756795 
L 329.023327 -53.352345 
L 334.694502 -46.659347 
L 340.365676 -64.856624 
L 340.365676 -81.183924 
L 340.365676 -81.183924 
L 334.694502 -64.202688 
L 329.023327 -69.513296 
L 323.352153 -63.665621 
L 317.680978 -80.325928 
L 312.009804 -71.913908 
L 306.338629 -85.924884 
L 300.667455 -85.161958 
L 294.99628 -83.589813 
L 289.325105 -80.397607 
L 283.653931 -88.804318 
L 277.982756 -82.267588 
L 272.311582 -86.477425 
L 266.640407 -84.970648 
L 260.969233 -82.868374 
L 255.298058 -88.549357 
L 249.626884 -93.076625 
L 243.955709 -79.607341 
L 238.284535 -89.126676 
L 232.61336 -80.809126 
L 226.942186 -93.851565 
L 221.271011 -103.500409 
L 215.599837 -99.521292 
L 209.928662 -102.055137 
L 204.257488 -108.269343 
L 198.586313 -103.979232 
L 192.915139 -109.077677 
L 187.243964 -118.734088 
L 181.57279 -121.889804 
L 175.901615 -124.347912 
L 170.230441 -118.058617 
L 164.559266 -132.06862 
L 158.888092 -132.51952 
L 153.216917 -135.955135 
L 147.545743 -138.105276 
L 141.874568 -144.432577 
L 136.203394 -154.64865 
L 130.532219 -148.191874 
L 124.861045 -160.398982 
L 119.18987 -170.205504 
L 113.518696 -177.573313 
L 107.847521 -176.458272 
L 102.176347 -190.958461 
L 96.505172 -194.642065 
L 90.833998 -197.289608 
L 85.162823 -208.077699 
L 79.491649 -213.275841 
L 73.820474 -227.245194 
L 68.1493 -233.969827 
L 62.478125 -243.448377 
z
" style="stroke: #d65f5f; stroke-opacity: 0.18"/>
    </defs>
    <g clip-path="url(#p11ee73442a)">
     <use xlink:href="#m2c2da7dcb2" x="0" y="265.348437" style="fill: #d65f5f; fill-opacity: 0.18; stroke: #d65f5f; stroke-opacity: 0.18"/>
    </g>
   </g>
   <g id="patch_3">
    <path d="M 62.478125 228.76 
L 62.478125 7.2 
" style="fill: none; stroke: #000000; stroke-width: 0.8; stroke-linejoin: miter; stroke-linecap: square"/>
   </g>
   <g id="patch_4">
    <path d="M 62.478125 228.76 
L 357.3792 228.76 
" style="fill: none; stroke: #000000; stroke-width: 0.8; stroke-linejoin: miter; stroke-linecap: square"/>
   </g>
   <g id="line2d_12">
    <path d="M 62.478125 20.993608 
L 68.1493 25.696178 
L 73.820474 34.068419 
L 79.491649 40.488872 
L 85.162823 48.231042 
L 90.833998 51.711082 
L 96.505172 52.914214 
L 102.176347 60.081429 
L 107.847521 62.819511 
L 113.518696 69.979887 
L 119.18987 73.761185 
L 124.861045 78.57142 
L 130.532219 89.475078 
L 136.203394 83.476917 
L 141.874568 88.16207 
L 147.545743 91.36154 
L 153.216917 103.405334 
L 158.888092 106.585078 
L 164.559266 105.61898 
L 170.230441 106.302233 
L 175.901615 105.262265 
L 181.57279 108.943676 
L 187.243964 108.425048 
L 192.915139 115.546177 
L 198.586313 112.939853 
L 204.257488 114.157623 
L 209.928662 120.582272 
L 215.599837 110.979457 
L 221.271011 117.529645 
L 226.942186 115.730708 
L 232.61336 125.489919 
L 238.284535 127.119052 
L 243.955709 126.142015 
L 249.626884 125.858698 
L 255.298058 123.06532 
L 260.969233 125.6742 
L 266.640407 129.847074 
L 272.311582 133.099303 
L 277.982756 131.471164 
L 283.653931 123.367874 
L 289.325105 134.029879 
L 294.99628 129.129205 
L 300.667455 128.652439 
L 306.338629 138.967653 
L 312.009804 131.318191 
L 317.680978 125.354916 
L 323.352153 142.895345 
L 329.023327 134.159562 
L 334.694502 133.318526 
L 340.365676 137.277985 
" clip-path="url(#p11ee73442a)" style="fill: none; stroke: #4878cf; stroke-width: 1.6; stroke-linecap: square"/>
   </g>
   <g id="line2d_13">
    <path d="M 62.478125 26.13964 
L 68.1493 33.232725 
L 73.820474 41.839638 
L 79.491649 46.779855 
L 85.162823 57.932747 
L 90.833998 64.102688 
L 96.505172 66.844592 
L 102.176347 75.610426 
L 107.847521 84.051451 
L 113.518696 84.505023 
L 119.18987 88.258955 
L 124.861045 99.058944 
L 130.532219 106.97755 
L 136.203394 107.557144 
L 141.874568 111.956603 
L 147.545743 116.598594 
L 153.216917 114.535106 
L 158.888092 126.858741 
L 164.559266 121.920891 
L 170.230441 134.640321 
L 175.901615 135.85524 
L 181.57279 133.163749 
L 187.243964 133.848502 
L 192.915139 137.330928 
L 198.586313 141.679491 
L 204.257488 144.674496 
L 209.928662 146.642436 
L 215.599837 146.726727 
L 221.271011 151.694477 
L 226.942186 151.346793 
L 232.61336 151.564005 
L 238.284535 155.466557 
L 243.955709 153.385864 
L 249.626884 155.451703 
L 255.298058 150.193363 
L 260.969233 158.662842 
L 266.640407 163.106066 
L 272.311582 163.746705 
L 277.982756 162.887908 
L 283.653931 159.316053 
L 289.325105 165.89062 
L 294.99628 163.121661 
L 300.667455 157.049082 
L 306.338629 178.819312 
L 312.009804 172.073593 
L 317.680978 165.922367 
L 323.352153 165.605184 
L 329.023327 166.766008 
L 334.694502 170.382393 
L 340.365676 165.494321 
" clip-path="url(#p11ee73442a)" style="fill: none; stroke: #6acc65; stroke-width: 1.6; stroke-linecap: square"/>
   </g>
   <g id="line2d_14">
    <path d="M 62.478125 24.302219 
L 68.1493 33.96543 
L 73.820474 40.796803 
L 79.491649 54.423363 
L 85.162823 60.211125 
L 90.833998 70.871163 
L 96.505172 73.337505 
L 102.176347 78.161874 
L 107.847521 92.094695 
L 113.518696 91.401083 
L 119.18987 99.339452 
L 124.861045 109.131687 
L 130.532219 121.274064 
L 136.203394 114.982393 
L 141.874568 125.551322 
L 147.545743 132.520474 
L 153.216917 133.421796 
L 158.888092 137.848049 
L 164.559266 137.688753 
L 170.230441 152.188348 
L 175.901615 146.740779 
L 181.57279 148.720663 
L 187.243964 152.101081 
L 192.915139 162.576776 
L 198.586313 168.257378 
L 204.257488 162.670051 
L 209.928662 169.535438 
L 215.599837 171.9086 
L 221.271011 167.790809 
L 226.942186 178.286056 
L 232.61336 191.256358 
L 238.284535 182.797841 
L 243.955709 192.585966 
L 249.626884 179.735213 
L 255.298058 183.843967 
L 260.969233 190.271105 
L 266.640407 188.245718 
L 272.311582 184.825472 
L 277.982756 190.030379 
L 283.653931 184.218001 
L 289.325105 192.774141 
L 294.99628 187.49742 
L 300.667455 185.813136 
L 306.338629 185.885209 
L 312.009804 199.427564 
L 317.680978 191.163146 
L 323.352153 208.004905 
L 329.023327 203.708255 
L 334.694502 209.673084 
L 340.365676 192.116512 
" clip-path="url(#p11ee73442a)" style="fill: none; stroke: #d65f5f; stroke-width: 2.2; stroke-linecap: square"/>
   </g>
   <g id="text_11">
    <!-- $\Delta=0.15$ -->
    <g style="fill: #555555" transform="translate(347.171086 180.45063) scale(0.08 -0.08)">
     <defs>
      <path id="DejaVuSans-394" d="M 2188 4044 
L 906 525 
L 3472 525 
L 2188 4044 
z
M 50 0 
L 1831 4666 
L 2547 4666 
L 4325 0 
L 50 0 
z
" transform="scale(0.015625)"/>
      <path id="DejaVuSans-3d" d="M 678 2906 
L 4684 2906 
L 4684 2381 
L 678 2381 
L 678 2906 
z
M 678 1631 
L 4684 1631 
L 4684 1100 
L 678 1100 
L 678 1631 
z
" transform="scale(0.015625)"/>
      <path id="DejaVuSans-2e" d="M 684 794 
L 1344 794 
L 1344 0 
L 684 0 
L 684 794 
z
" transform="scale(0.015625)"/>
     </defs>
     <use xlink:href="#DejaVuSans-394" transform="translate(0 0.78125)"/>
     <use xlink:href="#DejaVuSans-3d" transform="translate(87.890625 0.78125)"/>
     <use xlink:href="#DejaVuSans-30" transform="translate(191.162109 0.78125)"/>
     <use xlink:href="#DejaVuSans-2e" transform="translate(254.785156 0.78125)"/>
     <use xlink:href="#DejaVuSans-31" transform="translate(286.572266 0.78125)"/>
     <use xlink:href="#DejaVuSans-35" transform="translate(350.195312 0.78125)"/>
    </g>
   </g>
   <g id="patch_5">
    <path d="M 343.201263 168.834576 
Q 343.201263 178.805293 343.201263 188.776009 
" style="fill: none; stroke: #555555; stroke-width: 1.2; stroke-linecap: round"/>
    <path d="M 341.201263 172.834576 
L 343.201263 168.834576 
L 345.201263 172.834576 
" style="fill: none; stroke: #555555; stroke-width: 1.2; stroke-linecap: round"/>
    <path d="M 345.201263 184.776009 
L 343.201263 188.776009 
L 341.201263 184.776009 
" style="fill: none; stroke: #555555; stroke-width: 1.2; stroke-linecap: round"/>
   </g>
   <g id="legend_1">
    <g id="line2d_15">
     <path d="M 281.122481 18.988594 
L 290.122481 18.988594 
L 299.122481 18.988594 
" style="fill: none; stroke: #4878cf; stroke-width: 1.6; stroke-linecap: square"/>
    </g>
    <g id="text_12">
     <!-- Baseline -->
     <g transform="translate(306.322481 22.138594) scale(0.09 -0.09)">
      <defs>
       <path id="DejaVuSans-42" d="M 1259 2228 
L 1259 519 
L 2272 519 
Q 2781 519 3026 730 
Q 3272 941 3272 1375 
Q 3272 1813 3026 2020 
Q 2781 2228 2272 2228 
L 1259 2228 
z
M 1259 4147 
L 1259 2741 
L 2194 2741 
Q 2656 2741 2882 2914 
Q 3109 3088 3109 3444 
Q 3109 3797 2882 3972 
Q 2656 4147 2194 4147 
L 1259 4147 
z
M 628 4666 
L 2241 4666 
Q 2963 4666 3353 4366 
Q 3744 4066 3744 3513 
Q 3744 3084 3544 2831 
Q 3344 2578 2956 2516 
Q 3422 2416 3680 2098 
Q 3938 1781 3938 1306 
Q 3938 681 3513 340 
Q 3088 0 2303 0 
L 628 0 
L 628 4666 
z
" transform="scale(0.015625)"/>
      </defs>
      <use xlink:href="#DejaVuSans-42"/>
      <use xlink:href="#DejaVuSans-61" transform="translate(68.603516 0)"/>
      <use xlink:href="#DejaVuSans-73" transform="translate(129.882812 0)"/>
      <use xlink:href="#DejaVuSans-65" transform="translate(181.982422 0)"/>
      <use xlink:href="#DejaVuSans-6c" transform="translate(243.505859 0)"/>
      <use xlink:href="#DejaVuSans-69" transform="translate(271.289062 0)"/>
      <use xlink:href="#DejaVuSans-6e" transform="translate(299.072266 0)"/>
      <use xlink:href="#DejaVuSans-65" transform="translate(362.451172 0)"/>
     </g>
    </g>
    <g id="line2d_16">
     <path d="M 281.122481 32.198906 
L 290.122481 32.198906 
L 299.122481 32.198906 
" style="fill: none; stroke: #6acc65; stroke-width: 1.6; stroke-linecap: square"/>
    </g>
    <g id="text_13">
     <!-- Method-A -->
     <g transform="translate(306.322481 35.348906) scale(0.09 -0.09)">
      <defs>
       <path id="DejaVuSans-4d" d="M 628 4666 
L 1569 4666 
L 2759 1491 
L 3956 4666 
L 4897 4666 
L 4897 0 
L 4281 0 
L 4281 4097 
L 3078 897 
L 2444 897 
L 1241 4097 
L 1241 0 
L 628 0 
L 628 4666 
z
" transform="scale(0.015625)"/>
       <path id="DejaVuSans-68" d="M 3513 2113 
L 3513 0 
L 2938 0 
L 2938 2094 
Q 2938 2591 2744 2837 
Q 2550 3084 2163 3084 
Q 1697 3084 1428 2787 
Q 1159 2491 1159 1978 
L 1159 0 
L 581 0 
L 581 4863 
L 1159 4863 
L 1159 2956 
Q 1366 3272 1645 3428 
Q 1925 3584 2291 3584 
Q 2894 3584 3203 3211 
Q 3513 2838 3513 2113 
z
" transform="scale(0.015625)"/>
       <path id="DejaVuSans-2d" d="M 313 2009 
L 1997 2009 
L 1997 1497 
L 313 1497 
L 313 2009 
z
" transform="scale(0.015625)"/>
       <path id="DejaVuSans-41" d="M 2188 4044 
L 1331 1722 
L 3047 1722 
L 2188 4044 
z
M 1831 4666 
L 2547 4666 
L 4325 0 
L 3669 0 
L 3244 1197 
L 1141 1197 
L 716 0 
L 50 0 
L 1831 4666 
z
" transform="scale(0.015625)"/>
      </defs>
      <use xlink:href="#DejaVuSans-4d"/>
      <use xlink:href="#DejaVuSans-65" transform="translate(86.279297 0)"/>
      <use xlink:href="#DejaVuSans-74" transform="translate(147.802734 0)"/>
      <use xlink:href="#DejaVuSans-68" transform="translate(187.011719 0)"/>
      <use xlink:href="#DejaVuSans-6f" transform="translate(250.390625 0)"/>
      <use xlink:href="#DejaVuSans-64" transform="translate(311.572266 0)"/>
      <use xlink:href="#DejaVuSans-2d" transform="translate(375.048828 0)"/>
      <use xlink:href="#DejaVuSans-41" transform="translate(408.882812 0)"/>
     </g>
    </g>
    <g id="line2d_17">
     <path d="M 281.122481 45.409219 
L 290.122481 45.409219 
L 299.122481 45.409219 
" style="fill: none; stroke: #d65f5f; stroke-width: 2.2; stroke-linecap: square"/>
    </g>
    <g id="text_14">
     <!-- Ours -->
     <g transform="translate(306.322481 48.559219) scale(0.09 -0.09)">
      <defs>
       <path id="DejaVuSans-4f" d="M 2522 4238 
Q 1834 4238 1429 3725 
Q 1025 3213 1025 2328 
Q 1025 1447 1429 934 
Q 1834 422 2522 422 
Q 3209 422 3611 934 
Q 4013 1447 4013 2328 
Q 4013 3213 3611 3725 
Q 3209 4238 2522 4238 
z
M 2522 4750 
Q 3503 4750 4090 4092 
Q 4678 3434 4678 2328 
Q 4678 1225 4090 567 
Q 3503 -91 2522 -91 
Q 1538 -91 948 565 
Q 359 1222 359 2328 
Q 359 3434 948 4092 
Q 1538 4750 2522 4750 
z
" transform="scale(0.015625)"/>
       <path id="DejaVuSans-75" d="M 544 1381 
L 544 3500 
L 1119 3500 
L 1119 1403 
Q 1119 906 1312 657 
Q 1506 409 1894 409 
Q 2359 409 2629 706 
Q 2900 1003 2900 1516 
L 2900 3500 
L 3475 3500 
L 3475 0 
L 2900 0 
L 2900 538 
Q 2691 219 2414 64 
Q 2138 -91 1772 -91 
Q 1169 -91 856 284 
Q 544 659 544 1381 
z
M 1991 3584 
L 1991 3584 
z
" transform="scale(0.015625)"/>
      </defs>
      <use xlink:href="#DejaVuSans-4f"/>
      <use xlink:href="#DejaVuSans-75" transform="translate(78.710938 0)"/>
      <use xlink:href="#DejaVuSans-72" transform="translate(142.089844 0)"/>
      <use xlink:href="#DejaVuSans-73" transform="translate(183.203125 0)"/>
     </g>
    </g>
   </g>
  </g>
 </g>
 <defs>
  <clipPath id="p11ee73442a">
   <rect x="62.478125" y="7.2" width="294.901075" height="221.56"/>
  </clipPath>
 </defs>
</svg>
