<?xml version="1.0" encoding="utf-8" standalone="no"?>
<!DOCTYPE svg PUBLIC "-//W3C//DTD SVG 1.1//EN"
  "http://www.w3.org/Graphics/SVG/1.1/DTD/svg11.dtd">
<svg xmlns:xlink="http://www.w3.org/1999/xlink" width="728.4pt" height="368.4pt" viewBox="0 0 728.4 368.4" xmlns="http://www.w3.org/2000/svg" version="1.1">
 <metadata>
  <rdf:RDF xmlns:dc="http://purl.org/dc/elements/1.1/" xmlns:cc="http://creativecommons.org/ns#" xmlns:rdf="http://www.w3.org/1999/02/22-rdf-syntax-ns#">
   <cc:Work>
    <dc:type rdf:resource="http://purl.org/dc/dcmitype/StillImage"/>
    <dc:date>2026-05-25T09:07:16.664043</dc:date>
    <dc:format>image/svg+xml</dc:format>
    <dc:creator>
     <cc:Agent>
      <dc:title>Matplotlib v3.10.9, https://matplotlib.org/</dc:title>
     </cc:Agent>
    </dc:creator>
   </cc:Work>
  </rdf:RDF>
 </metadata>
 <defs>
  <style type="text/css">*{stroke-linejoin: round; stroke-linecap: butt}</style>
 </defs>
 <g id="figure_1">
  <g id="patch_1">
   <path d="M 0 368.4 
L 728.4 368.4 
L 728.4 0 
L 0 0 
z
" style="fill: #ffffff"/>
  </g>
  <g id="axes_1">
   <g id="patch_2">
    <path d="M 199.98 288.276 
L 339.21 288.276 
Q 347.778 288.276 347.778 279.78 
L 347.778 88.62 
Q 347.778 80.124 339.21 80.124 
L 199.98 80.124 
Q 191.412 80.124 191.412 88.62 
L 191.412 279.78 
Q 191.412 288.276 199.98 288.276 
z
" clip-path="url(#p6061702309)" style="fill: #ebf5fb; opacity: 0.55; stroke-dasharray: 5.55,2.4; stroke-dashoffset: 0; stroke: #2980b9; stroke-width: 1.5; stroke-linejoin: miter"/>
   </g>
   <g id="patch_3">
    <path d="M 403.47 288.276 
L 560.55 288.276 
Q 569.118 288.276 569.118 279.78 
L 569.118 88.62 
Q 569.118 80.124 560.55 80.124 
L 403.47 80.124 
Q 394.902 80.124 394.902 88.62 
L 394.902 279.78 
Q 394.902 288.276 403.47 288.276 
z
" clip-path="url(#p6061702309)" style="fill: #fdf2f8; opacity: 0.55; stroke-dasharray: 5.55,2.4; stroke-dashoffset: 0; stroke: #7d3c98; stroke-width: 1.5; stroke-linejoin: miter"/>
   </g>
   <g id="text_1">
    <text style="font-weight: 700; font-size: 8px; font-family: 'Arial', 'Helvetica', 'DejaVu Sans', 'Liberation Sans', sans-serif; text-anchor: start; fill: #2980b9" x="209.262" y="103.55025" transform="rotate(-0 209.262 103.55025)">Retrieval</text>
   </g>
   <g id="text_2">
    <text style="font-weight: 700; font-size: 8px; font-family: 'Arial', 'Helvetica', 'DejaVu Sans', 'Liberation Sans', sans-serif; text-anchor: start; fill: #7d3c98" x="412.752" y="103.55025" transform="rotate(-0 412.752 103.55025)">Generation</text>
   </g>
   <g id="patch_4">
    <path d="M 42.9 212.874 
L 128.58 212.874 
Q 134.292 212.874 134.292 207.21 
L 134.292 161.19 
Q 134.292 155.526 128.58 155.526 
L 42.9 155.526 
Q 37.188 155.526 37.188 161.19 
L 37.188 207.21 
Q 37.188 212.874 42.9 212.874 
z
" clip-path="url(#p6061702309)" style="fill: #dbeafe; stroke: #1d4ed8; stroke-width: 1.8; stroke-linejoin: miter"/>
   </g>
   <g id="patch_5">
    <path d="M 210.69 163.314 
L 317.79 163.314 
Q 323.502 163.314 323.502 157.65 
L 323.502 111.63 
Q 323.502 105.966 317.79 105.966 
L 210.69 105.966 
Q 204.978 105.966 204.978 111.63 
L 204.978 157.65 
Q 204.978 163.314 210.69 163.314 
z
" clip-path="url(#p6061702309)" style="fill: #ede9fe; stroke: #5b21b6; stroke-width: 1.8; stroke-linejoin: miter"/>
   </g>
   <g id="patch_6">
    <path d="M 210.69 262.434 
L 317.79 262.434 
Q 323.502 262.434 323.502 256.77 
L 323.502 210.75 
Q 323.502 205.086 317.79 205.086 
L 210.69 205.086 
Q 204.978 205.086 204.978 210.75 
L 204.978 256.77 
Q 204.978 262.434 210.69 262.434 
z
" clip-path="url(#p6061702309)" style="fill: #d1fae5; stroke: #065f46; stroke-width: 1.8; stroke-linejoin: miter"/>
   </g>
   <g id="patch_7">
    <path d="M 414.18 163.314 
L 542.7 163.314 
Q 548.412 163.314 548.412 157.65 
L 548.412 111.63 
Q 548.412 105.966 542.7 105.966 
L 414.18 105.966 
Q 408.468 105.966 408.468 111.63 
L 408.468 157.65 
Q 408.468 163.314 414.18 163.314 
z
" clip-path="url(#p6061702309)" style="fill: #ede9fe; stroke: #5b21b6; stroke-width: 1.8; stroke-linejoin: miter"/>
   </g>
   <g id="patch_8">
    <path d="M 414.18 262.434 
L 542.7 262.434 
Q 548.412 262.434 548.412 256.77 
L 548.412 210.75 
Q 548.412 205.086 542.7 205.086 
L 414.18 205.086 
Q 408.468 205.086 408.468 210.75 
L 408.468 256.77 
Q 408.468 262.434 414.18 262.434 
z
" clip-path="url(#p6061702309)" style="fill: #ede9fe; stroke: #5b21b6; stroke-width: 1.8; stroke-linejoin: miter"/>
   </g>
   <g id="patch_9">
    <path d="M 603.39 212.874 
L 710.49 212.874 
Q 716.202 212.874 716.202 207.21 
L 716.202 161.19 
Q 716.202 155.526 710.49 155.526 
L 603.39 155.526 
Q 597.678 155.526 597.678 161.19 
L 597.678 207.21 
Q 597.678 212.874 603.39 212.874 
z
" clip-path="url(#p6061702309)" style="fill: #fef3c7; stroke: #92400e; stroke-width: 1.8; stroke-linejoin: miter"/>
   </g>
   <g id="text_3">
    <text style="font-weight: 700; font-size: 9px; font-family: 'Arial', 'Helvetica', 'DejaVu Sans', 'Liberation Sans', sans-serif; text-anchor: middle; fill: #1a1a2e" x="85.74" y="186.52875" transform="rotate(-0 85.74 186.52875)">Query</text>
   </g>
   <g id="text_4">
    <text style="font-weight: 700; font-size: 9px; font-family: 'Arial', 'Helvetica', 'DejaVu Sans', 'Liberation Sans', sans-serif; text-anchor: middle; fill: #1a1a2e" x="264.24" y="136.972969" transform="rotate(-0 264.24 136.972969)">Retriever</text>
   </g>
   <g id="text_5">
    <text style="font-weight: 700; font-size: 9px; font-family: 'Arial', 'Helvetica', 'DejaVu Sans', 'Liberation Sans', sans-serif; text-anchor: middle; fill: #1a1a2e" x="264.24" y="236.092969" transform="rotate(-0 264.24 236.092969)">KB</text>
   </g>
   <g id="text_6">
    <text style="font-weight: 700; font-size: 9px; font-family: 'Arial', 'Helvetica', 'DejaVu Sans', 'Liberation Sans', sans-serif; fill: #1a1a2e" transform="translate(458.945156 131.897602)">Diffusion</text>
    <text style="font-weight: 700; font-size: 9px; font-family: 'Arial', 'Helvetica', 'DejaVu Sans', 'Liberation Sans', sans-serif; fill: #1a1a2e" transform="translate(460.434375 142.048336)">Decoder</text>
   </g>
   <g id="text_7">
    <text style="font-weight: 700; font-size: 9px; font-family: 'Arial', 'Helvetica', 'DejaVu Sans', 'Liberation Sans', sans-serif; fill: #1a1a2e" transform="translate(467.936719 231.017602)">Prior</text>
    <text style="font-weight: 700; font-size: 9px; font-family: 'Arial', 'Helvetica', 'DejaVu Sans', 'Liberation Sans', sans-serif; fill: #1a1a2e" transform="translate(460.686797 241.168336)">Network</text>
   </g>
   <g id="text_8">
    <text style="font-weight: 700; font-size: 9px; font-family: 'Arial', 'Helvetica', 'DejaVu Sans', 'Liberation Sans', sans-serif; fill: #1a1a2e" transform="translate(634.683281 181.386305)">Generated</text>
    <text style="font-weight: 700; font-size: 9px; font-family: 'Arial', 'Helvetica', 'DejaVu Sans', 'Liberation Sans', sans-serif; fill: #1a1a2e" transform="translate(640.933359 191.679633)">Sample</text>
   </g>
   <g id="text_9">
    <text style="font-size: 7.5px; font-family: 'Arial', 'Helvetica', 'DejaVu Sans', 'Liberation Sans', sans-serif; text-anchor: start; fill: #1a1a2e" x="62.892" y="326.322867" transform="rotate(-0 62.892 326.322867)">data flow</text>
   </g>
   <g id="text_10">
    <text style="font-size: 7.5px; font-family: 'Arial', 'Helvetica', 'DejaVu Sans', 'Liberation Sans', sans-serif; text-anchor: start; fill: #888888" x="62.892" y="347.562867" transform="rotate(-0 62.892 347.562867)">control / feedback</text>
   </g>
   <g id="patch_10">
    <path d="M 130.29146 183.166996 
Q 169.635661 159.419601 207.544076 136.538818 
" style="fill: none; stroke: #1a1a2e; stroke-width: 1.5; stroke-linecap: round"/>
    <path d="M 202.194421 136.964479 
L 207.544076 136.538818 
L 204.674811 141.073939 
z
" style="fill: #1a1a2e; stroke: #1a1a2e; stroke-width: 1.5; stroke-linecap: round"/>
   </g>
   <g id="patch_11">
    <path d="M 255.672 159.649677 
Q 255.672 184.200226 255.672 207.073724 
" style="fill: none; stroke: #1a1a2e; stroke-width: 1.5; stroke-linecap: round"/>
    <path d="M 258.072 202.273724 
L 255.672 207.073724 
L 253.272 202.273724 
z
" style="fill: #1a1a2e; stroke: #1a1a2e; stroke-width: 1.5; stroke-linecap: round"/>
   </g>
   <g id="patch_12">
    <path d="M 272.808 208.750323 
Q 272.808 184.199774 272.808 161.326276 
" style="fill: none; stroke: #1a1a2e; stroke-width: 1.5; stroke-linecap: round"/>
    <path d="M 270.408 166.126276 
L 272.808 161.326276 
L 275.208 166.126276 
z
" style="fill: #1a1a2e; stroke: #1a1a2e; stroke-width: 1.5; stroke-linecap: round"/>
   </g>
   <g id="patch_13">
    <path d="M 319.787339 134.64 
Q 365.982649 134.64 410.500907 134.64 
" style="fill: none; stroke: #1a1a2e; stroke-width: 1.5; stroke-linecap: round"/>
    <path d="M 405.700907 132.24 
L 410.500907 134.64 
L 405.700907 137.04 
z
" style="fill: #1a1a2e; stroke: #1a1a2e; stroke-width: 1.5; stroke-linecap: round"/>
   </g>
   <g id="patch_14">
    <path d="M 544.25207 135.907434 
Q 573.046799 159.421469 600.542561 181.874756 
" style="fill: none; stroke: #1a1a2e; stroke-width: 1.5; stroke-linecap: round"/>
    <path d="M 598.34272 176.979789 
L 600.542561 181.874756 
L 595.306683 180.697648 
z
" style="fill: #1a1a2e; stroke: #1a1a2e; stroke-width: 1.5; stroke-linecap: round"/>
   </g>
   <g id="patch_15">
    <path d="M 469.872 159.649677 
Q 469.872 184.200226 469.872 207.073724 
" style="fill: none; stroke-dasharray: 6,3; stroke-dashoffset: 0; stroke: #888888; stroke-width: 1.5; stroke-linecap: round"/>
    <path d="M 472.272 202.273724 
L 469.872 207.073724 
L 467.472 202.273724 
z
" style="fill: #888888; stroke-dasharray: 6,3; stroke-dashoffset: 0; stroke: #888888; stroke-width: 1.5; stroke-linecap: round"/>
   </g>
   <g id="patch_16">
    <path d="M 487.008 208.750323 
Q 487.008 184.199774 487.008 161.326276 
" style="fill: none; stroke-dasharray: 6,3; stroke-dashoffset: 0; stroke: #888888; stroke-width: 1.5; stroke-linecap: round"/>
    <path d="M 484.608 166.126276 
L 487.008 161.326276 
L 489.408 166.126276 
z
" style="fill: #888888; stroke-dasharray: 6,3; stroke-dashoffset: 0; stroke: #888888; stroke-width: 1.5; stroke-linecap: round"/>
   </g>
   <g id="line2d_1">
    <path d="M 17.91 324.384 
L 55.752 324.384 
" clip-path="url(#p6061702309)" style="fill: none; stroke: #1a1a2e; stroke-width: 1.5; stroke-linecap: square"/>
   </g>
   <g id="patch_17">
    <path d="M 50.609666 324.384 
Q 52.180237 324.384 52.073758 324.384 
" style="fill: none; stroke: #1a1a2e; stroke-width: 1.5; stroke-linecap: round"/>
    <path d="M 48.073758 322.384 
L 52.073758 324.384 
L 48.073758 326.384 
z
" style="fill: #1a1a2e; stroke: #1a1a2e; stroke-width: 1.5; stroke-linecap: round"/>
   </g>
   <g id="line2d_2">
    <path d="M 17.91 345.624 
L 55.752 345.624 
" clip-path="url(#p6061702309)" style="fill: none; stroke-dasharray: 5.55,2.4; stroke-dashoffset: 0; stroke: #888888; stroke-width: 1.5"/>
   </g>
   <g id="patch_18">
    <path d="M 50.609666 345.624 
Q 52.180237 345.624 52.073758 345.624 
" style="fill: none; stroke: #888888; stroke-width: 1.5; stroke-linecap: round"/>
    <path d="M 48.073758 343.624 
L 52.073758 345.624 
L 48.073758 347.624 
z
" style="fill: #888888; stroke: #888888; stroke-width: 1.5; stroke-linecap: round"/>
   </g>
  </g>
 </g>
 <defs>
  <clipPath id="p6061702309">
   <rect x="7.2" y="7.2" width="714" height="354"/>
  </clipPath>
 </defs>
</svg>
