<?xml version="1.0" encoding="utf-8" standalone="no"?>
<!DOCTYPE svg PUBLIC "-//W3C//DTD SVG 1.1//EN"
  "http://www.w3.org/Graphics/SVG/1.1/DTD/svg11.dtd">
<svg xmlns:xlink="http://www.w3.org/1999/xlink" width="424.81625pt" height="317.148pt" viewBox="0 0 424.81625 317.148" xmlns="http://www.w3.org/2000/svg" version="1.1">
 <metadata>
  <rdf:RDF xmlns:dc="http://purl.org/dc/elements/1.1/" xmlns:cc="http://creativecommons.org/ns#" xmlns:rdf="http://www.w3.org/1999/02/22-rdf-syntax-ns#">
   <cc:Work>
    <dc:type rdf:resource="http://purl.org/dc/dcmitype/StillImage"/>
    <dc:date>2026-05-25T02:52:48.291246</dc:date>
    <dc:format>image/svg+xml</dc:format>
    <dc:creator>
     <cc:Agent>
      <dc:title>Matplotlib v3.10.9, https://matplotlib.org/</dc:title>
     </cc:Agent>
    </dc:creator>
   </cc:Work>
  </rdf:RDF>
 </metadata>
 <defs>
  <style type="text/css">*{stroke-linejoin: round; stroke-linecap: butt}</style>
 </defs>
 <g id="figure_1">
  <g id="patch_1">
   <path d="M -0 317.148 
L 424.81625 317.148 
L 424.81625 0 
L -0 0 
z
" style="fill: #ffffff"/>
  </g>
  <g id="axes_1">
   <g id="patch_2">
    <path d="M 36.35625 288.348 
L 417.61625 288.348 
L 417.61625 7.2 
L 36.35625 7.2 
z
" style="fill: #ffffff"/>
   </g>
   <g id="FillBetweenPolyCollection_1">
    <defs>
     <path id="m6d456b4628" d="M 94.422226 -59.359041 
L 87.221702 -59.359041 
L 86.675497 -61.1171 
L 86.07596 -62.875159 
L 85.418854 -64.633218 
L 84.699469 -66.391277 
L 83.912954 -68.149336 
L 83.054793 -69.907395 
L 82.121432 -71.665454 
L 81.111012 -73.423513 
L 80.024159 -75.181572 
L 78.864778 -76.939631 
L 77.640757 -78.69769 
L 76.364487 -80.455749 
L 75.05313 -82.213808 
L 73.728525 -83.971867 
L 72.41669 -85.729926 
L 71.146898 -87.487985 
L 69.950351 -89.246044 
L 68.858536 -91.004103 
L 67.901386 -92.762162 
L 67.105416 -94.520221 
L 66.492013 -96.27828 
L 66.076058 -98.036339 
L 65.865003 -99.794398 
L 65.858512 -101.552457 
L 66.048671 -103.310516 
L 66.420725 -105.068575 
L 66.954253 -106.826634 
L 67.624625 -108.584693 
L 68.404609 -110.342752 
L 69.265962 -112.100811 
L 70.180894 -113.85887 
L 71.12331 -115.616929 
L 72.069783 -117.374988 
L 73.000241 -119.133047 
L 73.898374 -120.891106 
L 74.751801 -122.649165 
L 75.552032 -124.407224 
L 76.294253 -126.165283 
L 76.977 -127.923342 
L 77.601736 -129.681401 
L 78.172379 -131.439461 
L 78.694806 -133.19752 
L 79.176351 -134.955579 
L 79.625319 -136.713638 
L 80.050523 -138.471697 
L 80.46084 -140.229756 
L 80.864784 -141.987815 
L 81.270096 -143.745874 
L 81.683351 -145.503933 
L 82.109582 -147.261992 
L 82.551969 -149.020051 
L 83.011599 -150.77811 
L 83.487345 -152.536169 
L 83.975901 -154.294228 
L 84.471974 -156.052287 
L 84.968658 -157.810346 
L 85.45793 -159.568405 
L 85.931258 -161.326464 
L 86.380235 -163.084523 
L 86.797182 -164.842582 
L 87.175667 -166.600641 
L 87.510896 -168.3587 
L 87.799954 -170.116759 
L 88.0419 -171.874818 
L 88.237742 -173.632877 
L 88.390304 -175.390936 
L 88.504025 -177.148995 
L 88.584701 -178.907054 
L 88.639187 -180.665113 
L 88.675051 -182.423172 
L 88.700194 -184.181231 
L 88.722424 -185.93929 
L 88.749009 -187.697349 
L 88.786226 -189.455408 
L 88.838958 -191.213467 
L 88.910366 -192.971526 
L 89.001702 -194.729585 
L 89.112267 -196.487644 
L 89.239548 -198.245703 
L 89.379515 -200.003762 
L 89.527037 -201.761821 
L 89.676386 -203.51988 
L 89.821748 -205.277939 
L 89.957705 -207.035998 
L 90.079639 -208.794057 
L 90.184016 -210.552116 
L 90.268557 -212.310175 
L 90.332295 -214.068234 
L 90.375523 -215.826293 
L 90.399674 -217.584352 
L 90.407137 -219.342411 
L 90.40104 -221.10047 
L 90.385011 -222.85853 
L 90.36293 -224.616589 
L 90.338673 -226.374648 
L 90.315878 -228.132707 
L 90.29772 -229.890766 
L 90.286736 -231.648825 
L 90.284682 -233.406884 
L 91.359247 -233.406884 
L 91.359247 -233.406884 
L 91.357193 -231.648825 
L 91.346208 -229.890766 
L 91.328051 -228.132707 
L 91.305255 -226.374648 
L 91.280999 -224.616589 
L 91.258917 -222.85853 
L 91.242889 -221.10047 
L 91.236792 -219.342411 
L 91.244255 -217.584352 
L 91.268406 -215.826293 
L 91.311634 -214.068234 
L 91.375372 -212.310175 
L 91.459913 -210.552116 
L 91.564289 -208.794057 
L 91.686223 -207.035998 
L 91.822181 -205.277939 
L 91.967542 -203.51988 
L 92.116891 -201.761821 
L 92.264414 -200.003762 
L 92.40438 -198.245703 
L 92.531662 -196.487644 
L 92.642226 -194.729585 
L 92.733562 -192.971526 
L 92.804971 -191.213467 
L 92.857702 -189.455408 
L 92.894919 -187.697349 
L 92.921504 -185.93929 
L 92.943735 -184.181231 
L 92.968878 -182.423172 
L 93.004742 -180.665113 
L 93.059227 -178.907054 
L 93.139903 -177.148995 
L 93.253624 -175.390936 
L 93.406187 -173.632877 
L 93.602029 -171.874818 
L 93.843975 -170.116759 
L 94.133032 -168.3587 
L 94.468262 -166.600641 
L 94.846747 -164.842582 
L 95.263694 -163.084523 
L 95.712671 -161.326464 
L 96.185999 -159.568405 
L 96.675271 -157.810346 
L 97.171954 -156.052287 
L 97.668028 -154.294228 
L 98.156583 -152.536169 
L 98.63233 -150.77811 
L 99.09196 -149.020051 
L 99.534347 -147.261992 
L 99.960578 -145.503933 
L 100.373832 -143.745874 
L 100.779145 -141.987815 
L 101.183089 -140.229756 
L 101.593405 -138.471697 
L 102.018609 -136.713638 
L 102.467577 -134.955579 
L 102.949122 -133.19752 
L 103.471549 -131.439461 
L 104.042193 -129.681401 
L 104.666929 -127.923342 
L 105.349675 -126.165283 
L 106.091897 -124.407224 
L 106.892127 -122.649165 
L 107.745555 -120.891106 
L 108.643688 -119.133047 
L 109.574145 -117.374988 
L 110.520619 -115.616929 
L 111.463035 -113.85887 
L 112.377967 -112.100811 
L 113.239319 -110.342752 
L 114.019303 -108.584693 
L 114.689675 -106.826634 
L 115.223203 -105.068575 
L 115.595258 -103.310516 
L 115.785417 -101.552457 
L 115.778926 -99.794398 
L 115.567871 -98.036339 
L 115.151915 -96.27828 
L 114.538513 -94.520221 
L 113.742542 -92.762162 
L 112.785392 -91.004103 
L 111.693577 -89.246044 
L 110.497031 -87.487985 
L 109.227239 -85.729926 
L 107.915404 -83.971867 
L 106.590799 -82.213808 
L 105.279442 -80.455749 
L 104.003172 -78.69769 
L 102.77915 -76.939631 
L 101.61977 -75.181572 
L 100.532917 -73.423513 
L 99.522496 -71.665454 
L 98.589135 -69.907395 
L 97.730975 -68.149336 
L 96.944459 -66.391277 
L 96.225075 -64.633218 
L 95.567968 -62.875159 
L 94.968431 -61.1171 
L 94.422226 -59.359041 
z
" style="stroke: #767676; stroke-opacity: 0.3; stroke-width: 0.8"/>
    </defs>
    <g clip-path="url(#pbf8a0069dc)">
     <use xlink:href="#m6d456b4628" x="0" y="317.148" style="fill: #767676; fill-opacity: 0.3; stroke: #767676; stroke-opacity: 0.3; stroke-width: 0.8"/>
    </g>
   </g>
   <g id="FillBetweenPolyCollection_2">
    <defs>
     <path id="mb350fd5d7f" d="M 192.07396 -60.349083 
L 171.12235 -60.349083 
L 169.876187 -61.852846 
L 168.629249 -63.356608 
L 167.402094 -64.86037 
L 166.213634 -66.364133 
L 165.0801 -67.867895 
L 164.014234 -69.371657 
L 163.024817 -70.87542 
L 162.116568 -72.379182 
L 161.290415 -73.882944 
L 160.544121 -75.386707 
L 159.87318 -76.890469 
L 159.271878 -78.394231 
L 158.734408 -79.897994 
L 158.255925 -81.401756 
L 157.833418 -82.905518 
L 157.466346 -84.409281 
L 157.156981 -85.913043 
L 156.910445 -87.416805 
L 156.734455 -88.920568 
L 156.638817 -90.42433 
L 156.634702 -91.928092 
L 156.733774 -93.431855 
L 156.9472 -94.935617 
L 157.284621 -96.43938 
L 157.753135 -97.943142 
L 158.356363 -99.446904 
L 159.093679 -100.950667 
L 159.959681 -102.454429 
L 160.943977 -103.958191 
L 162.031335 -105.461954 
L 163.202237 -106.965716 
L 164.433793 -108.469478 
L 165.700981 -109.973241 
L 166.978073 -111.477003 
L 168.240138 -112.980765 
L 169.464442 -114.484528 
L 170.631617 -115.98829 
L 171.726466 -117.492052 
L 172.738357 -118.995815 
L 173.661171 -120.499577 
L 174.492864 -122.003339 
L 175.234746 -123.507102 
L 175.890587 -125.010864 
L 176.465699 -126.514626 
L 176.966113 -128.018389 
L 177.397951 -129.522151 
L 177.767027 -131.025913 
L 178.078695 -132.529676 
L 178.337907 -134.033438 
L 178.549389 -135.5372 
L 178.717899 -137.040963 
L 178.848438 -138.544725 
L 178.946396 -140.048487 
L 179.017571 -141.55225 
L 179.068068 -143.056012 
L 179.104093 -144.559774 
L 179.131683 -146.063537 
L 179.156424 -147.567299 
L 179.183198 -149.071061 
L 179.21601 -150.574824 
L 179.257886 -152.078586 
L 179.310879 -153.582348 
L 179.376129 -155.086111 
L 179.453982 -156.589873 
L 179.544113 -158.093635 
L 179.645641 -159.597398 
L 179.757223 -161.10116 
L 179.877106 -162.604922 
L 180.003164 -164.108685 
L 180.132927 -165.612447 
L 180.263622 -167.116209 
L 180.392249 -168.619972 
L 180.515686 -170.123734 
L 180.630849 -171.627496 
L 180.734864 -173.131259 
L 180.825264 -174.635021 
L 180.900168 -176.138783 
L 180.958423 -177.642546 
L 180.999699 -179.146308 
L 181.024508 -180.65007 
L 181.034156 -182.153833 
L 181.030618 -183.657595 
L 181.016367 -185.161357 
L 180.994162 -186.66512 
L 180.96682 -188.168882 
L 180.937015 -189.672644 
L 180.907105 -191.176407 
L 180.879022 -192.680169 
L 180.854227 -194.183931 
L 180.83373 -195.687694 
L 180.818168 -197.191456 
L 180.807907 -198.695218 
L 180.803164 -200.198981 
L 180.804105 -201.702743 
L 180.810915 -203.206505 
L 180.823812 -204.710268 
L 180.84302 -206.21403 
L 180.868699 -207.717792 
L 180.900858 -209.221555 
L 182.295451 -209.221555 
L 182.295451 -209.221555 
L 182.327611 -207.717792 
L 182.35329 -206.21403 
L 182.372497 -204.710268 
L 182.385394 -203.206505 
L 182.392204 -201.702743 
L 182.393146 -200.198981 
L 182.388402 -198.695218 
L 182.378141 -197.191456 
L 182.362579 -195.687694 
L 182.342083 -194.183931 
L 182.317288 -192.680169 
L 182.289205 -191.176407 
L 182.259294 -189.672644 
L 182.22949 -188.168882 
L 182.202148 -186.66512 
L 182.179942 -185.161357 
L 182.165692 -183.657595 
L 182.162154 -182.153833 
L 182.171801 -180.65007 
L 182.19661 -179.146308 
L 182.237887 -177.642546 
L 182.296142 -176.138783 
L 182.371045 -174.635021 
L 182.461446 -173.131259 
L 182.565461 -171.627496 
L 182.680623 -170.123734 
L 182.804061 -168.619972 
L 182.932687 -167.116209 
L 183.063382 -165.612447 
L 183.193145 -164.108685 
L 183.319203 -162.604922 
L 183.439086 -161.10116 
L 183.550668 -159.597398 
L 183.652197 -158.093635 
L 183.742327 -156.589873 
L 183.82018 -155.086111 
L 183.885431 -153.582348 
L 183.938423 -152.078586 
L 183.9803 -150.574824 
L 184.013111 -149.071061 
L 184.039886 -147.567299 
L 184.064626 -146.063537 
L 184.092216 -144.559774 
L 184.128241 -143.056012 
L 184.178739 -141.55225 
L 184.249914 -140.048487 
L 184.347872 -138.544725 
L 184.47841 -137.040963 
L 184.64692 -135.5372 
L 184.858403 -134.033438 
L 185.117614 -132.529676 
L 185.429283 -131.025913 
L 185.798358 -129.522151 
L 186.230196 -128.018389 
L 186.730611 -126.514626 
L 187.305722 -125.010864 
L 187.961564 -123.507102 
L 188.703446 -122.003339 
L 189.535139 -120.499577 
L 190.457952 -118.995815 
L 191.469843 -117.492052 
L 192.564693 -115.98829 
L 193.731867 -114.484528 
L 194.956171 -112.980765 
L 196.218237 -111.477003 
L 197.495329 -109.973241 
L 198.762516 -108.469478 
L 199.994073 -106.965716 
L 201.164974 -105.461954 
L 202.252333 -103.958191 
L 203.236628 -102.454429 
L 204.102631 -100.950667 
L 204.839947 -99.446904 
L 205.443174 -97.943142 
L 205.911688 -96.43938 
L 206.249109 -94.935617 
L 206.462535 -93.431855 
L 206.561607 -91.928092 
L 206.557493 -90.42433 
L 206.461854 -88.920568 
L 206.285864 -87.416805 
L 206.039328 -85.913043 
L 205.729964 -84.409281 
L 205.362892 -82.905518 
L 204.940384 -81.401756 
L 204.461901 -79.897994 
L 203.924432 -78.394231 
L 203.323129 -76.890469 
L 202.652188 -75.386707 
L 201.905895 -73.882944 
L 201.079741 -72.379182 
L 200.171492 -70.87542 
L 199.182076 -69.371657 
L 198.116209 -67.867895 
L 196.982675 -66.364133 
L 195.794216 -64.86037 
L 194.56706 -63.356608 
L 193.320123 -61.852846 
L 192.07396 -60.349083 
z
" style="stroke: #56b4e9; stroke-opacity: 0.3; stroke-width: 0.8"/>
    </defs>
    <g clip-path="url(#pbf8a0069dc)">
     <use xlink:href="#mb350fd5d7f" x="0" y="317.148" style="fill: #56b4e9; fill-opacity: 0.3; stroke: #56b4e9; stroke-opacity: 0.3; stroke-width: 0.8"/>
    </g>
   </g>
   <g id="FillBetweenPolyCollection_3">
    <defs>
     <path id="m1f05051e13" d="M 277.43812 -43.426841 
L 267.310571 -43.426841 
L 266.454024 -44.325619 
L 265.510244 -45.224397 
L 264.482961 -46.123176 
L 263.378708 -47.021954 
L 262.206869 -47.920732 
L 260.979584 -48.819511 
L 259.711502 -49.718289 
L 258.419402 -50.617067 
L 257.121689 -51.515845 
L 255.837813 -52.414624 
L 254.587618 -53.313402 
L 253.390699 -54.21218 
L 252.265755 -55.110958 
L 251.230009 -56.009737 
L 250.298695 -56.908515 
L 249.484626 -57.807293 
L 248.797864 -58.706071 
L 248.245483 -59.60485 
L 247.831418 -60.503628 
L 247.556416 -61.402406 
L 247.41806 -62.301184 
L 247.410893 -63.199963 
L 247.52662 -64.098741 
L 247.754405 -64.997519 
L 248.081261 -65.896297 
L 248.492513 -66.795076 
L 248.972354 -67.693854 
L 249.504443 -68.592632 
L 250.072542 -69.491411 
L 250.661151 -70.390189 
L 251.256102 -71.288967 
L 251.84508 -72.187745 
L 252.418029 -73.086524 
L 252.967422 -73.985302 
L 253.488372 -74.88408 
L 253.978584 -75.782858 
L 254.438154 -76.681637 
L 254.869229 -77.580415 
L 255.275567 -78.479193 
L 255.662037 -79.377971 
L 256.034084 -80.27675 
L 256.397224 -81.175528 
L 256.756578 -82.074306 
L 257.116503 -82.973084 
L 257.480323 -83.871863 
L 257.850169 -84.770641 
L 258.226941 -85.669419 
L 258.610377 -86.568197 
L 258.999203 -87.466976 
L 259.391353 -88.365754 
L 259.784229 -89.264532 
L 260.174969 -90.16331 
L 260.560715 -91.062089 
L 260.93884 -91.960867 
L 261.30714 -92.859645 
L 261.66397 -93.758424 
L 262.008329 -94.657202 
L 262.3399 -95.55598 
L 262.659034 -96.454758 
L 262.966713 -97.353537 
L 263.264473 -98.252315 
L 263.554305 -99.151093 
L 263.838546 -100.049871 
L 264.119741 -100.94865 
L 264.400502 -101.847428 
L 264.683351 -102.746206 
L 264.970554 -103.644984 
L 265.263965 -104.543763 
L 265.564863 -105.442541 
L 265.873824 -106.341319 
L 266.19062 -107.240097 
L 266.514164 -108.138876 
L 266.842513 -109.037654 
L 267.172931 -109.936432 
L 267.502011 -110.83521 
L 267.825859 -111.733989 
L 268.140313 -112.632767 
L 268.441201 -113.531545 
L 268.724597 -114.430324 
L 268.987074 -115.329102 
L 269.225915 -116.22788 
L 269.439288 -117.126658 
L 269.626352 -118.025437 
L 269.787299 -118.924215 
L 269.92333 -119.822993 
L 270.036564 -120.721771 
L 270.12989 -121.62055 
L 270.206789 -122.519328 
L 270.271111 -123.418106 
L 270.326853 -124.316884 
L 270.377937 -125.215663 
L 270.428005 -126.114441 
L 270.480249 -127.013219 
L 270.537271 -127.911997 
L 270.601 -128.810776 
L 270.672643 -129.709554 
L 270.75269 -130.608332 
L 270.840963 -131.50711 
L 270.936684 -132.405889 
L 273.812006 -132.405889 
L 273.812006 -132.405889 
L 273.907728 -131.50711 
L 273.996 -130.608332 
L 274.076048 -129.709554 
L 274.14769 -128.810776 
L 274.211419 -127.911997 
L 274.268442 -127.013219 
L 274.320685 -126.114441 
L 274.370754 -125.215663 
L 274.421838 -124.316884 
L 274.47758 -123.418106 
L 274.541901 -122.519328 
L 274.6188 -121.62055 
L 274.712127 -120.721771 
L 274.82536 -119.822993 
L 274.961391 -118.924215 
L 275.122339 -118.025437 
L 275.309403 -117.126658 
L 275.522776 -116.22788 
L 275.761617 -115.329102 
L 276.024093 -114.430324 
L 276.30749 -113.531545 
L 276.608378 -112.632767 
L 276.922832 -111.733989 
L 277.246679 -110.83521 
L 277.57576 -109.936432 
L 277.906177 -109.037654 
L 278.234527 -108.138876 
L 278.558071 -107.240097 
L 278.874867 -106.341319 
L 279.183827 -105.442541 
L 279.484725 -104.543763 
L 279.778136 -103.644984 
L 280.06534 -102.746206 
L 280.348188 -101.847428 
L 280.628949 -100.94865 
L 280.910144 -100.049871 
L 281.194385 -99.151093 
L 281.484218 -98.252315 
L 281.781977 -97.353537 
L 282.089656 -96.454758 
L 282.408791 -95.55598 
L 282.740361 -94.657202 
L 283.084721 -93.758424 
L 283.44155 -92.859645 
L 283.80985 -91.960867 
L 284.187976 -91.062089 
L 284.573722 -90.16331 
L 284.964462 -89.264532 
L 285.357337 -88.365754 
L 285.749487 -87.466976 
L 286.138313 -86.568197 
L 286.521749 -85.669419 
L 286.898522 -84.770641 
L 287.268367 -83.871863 
L 287.632187 -82.973084 
L 287.992113 -82.074306 
L 288.351467 -81.175528 
L 288.714606 -80.27675 
L 289.086654 -79.377971 
L 289.473123 -78.479193 
L 289.879462 -77.580415 
L 290.310536 -76.681637 
L 290.770106 -75.782858 
L 291.260319 -74.88408 
L 291.781269 -73.985302 
L 292.330661 -73.086524 
L 292.90361 -72.187745 
L 293.492589 -71.288967 
L 294.08754 -70.390189 
L 294.676149 -69.491411 
L 295.244247 -68.592632 
L 295.776336 -67.693854 
L 296.256177 -66.795076 
L 296.66743 -65.896297 
L 296.994285 -64.997519 
L 297.222071 -64.098741 
L 297.337798 -63.199963 
L 297.33063 -62.301184 
L 297.192274 -61.402406 
L 296.917272 -60.503628 
L 296.503208 -59.60485 
L 295.950826 -58.706071 
L 295.264065 -57.807293 
L 294.449995 -56.908515 
L 293.518681 -56.009737 
L 292.482936 -55.110958 
L 291.357992 -54.21218 
L 290.161072 -53.313402 
L 288.910878 -52.414624 
L 287.627001 -51.515845 
L 286.329289 -50.617067 
L 285.037188 -49.718289 
L 283.769107 -48.819511 
L 282.541821 -47.920732 
L 281.369983 -47.021954 
L 280.26573 -46.123176 
L 279.238447 -45.224397 
L 278.294667 -44.325619 
L 277.43812 -43.426841 
z
" style="stroke: #0072b2; stroke-opacity: 0.3; stroke-width: 0.8"/>
    </defs>
    <g clip-path="url(#pbf8a0069dc)">
     <use xlink:href="#m1f05051e13" x="0" y="317.148" style="fill: #0072b2; fill-opacity: 0.3; stroke: #0072b2; stroke-opacity: 0.3; stroke-width: 0.8"/>
    </g>
   </g>
   <g id="FillBetweenPolyCollection_4">
    <defs>
     <path id="m94ed6ba547" d="M 367.821705 -38.543185 
L 358.479366 -38.543185 
L 357.83806 -39.126067 
L 357.147143 -39.708949 
L 356.405061 -40.291832 
L 355.610161 -40.874714 
L 354.760997 -41.457596 
L 353.856768 -42.040479 
L 352.897833 -42.623361 
L 351.886254 -43.206243 
L 350.826308 -43.789125 
L 349.724888 -44.372008 
L 348.591733 -44.95489 
L 347.439443 -45.537772 
L 346.283241 -46.120655 
L 345.14049 -46.703537 
L 344.029998 -47.286419 
L 342.971159 -47.869301 
L 341.983016 -48.452184 
L 341.083321 -49.035066 
L 340.287704 -49.617948 
L 339.608992 -50.200831 
L 339.056772 -50.783713 
L 338.637196 -51.366595 
L 338.353042 -51.949477 
L 338.203994 -52.53236 
L 338.187083 -53.115242 
L 338.297221 -53.698124 
L 338.527747 -54.281007 
L 338.870933 -54.863889 
L 339.318373 -55.446771 
L 339.861253 -56.029653 
L 340.490479 -56.612536 
L 341.196697 -57.195418 
L 341.970224 -57.7783 
L 342.800962 -58.361183 
L 343.678311 -58.944065 
L 344.591149 -59.526947 
L 345.527887 -60.109829 
L 346.476616 -60.692712 
L 347.425345 -61.275594 
L 348.362299 -61.858476 
L 349.276268 -62.441359 
L 350.156965 -63.024241 
L 350.995352 -63.607123 
L 351.783937 -64.190005 
L 352.516983 -64.772888 
L 353.190643 -65.35577 
L 353.803002 -65.938652 
L 354.354022 -66.521535 
L 354.84541 -67.104417 
L 355.280403 -67.687299 
L 355.66351 -68.270181 
L 356.000209 -68.853064 
L 356.296638 -69.435946 
L 356.559292 -70.018828 
L 356.794746 -70.60171 
L 357.009422 -71.184593 
L 357.209394 -71.767475 
L 357.400251 -72.350357 
L 357.586993 -72.93324 
L 357.773964 -73.516122 
L 357.964805 -74.099004 
L 358.162424 -74.681886 
L 358.368969 -75.264769 
L 358.585807 -75.847651 
L 358.813509 -76.430533 
L 359.051841 -77.013416 
L 359.299775 -77.596298 
L 359.55552 -78.17918 
L 359.816584 -78.762062 
L 360.07986 -79.344945 
L 360.341749 -79.927827 
L 360.598302 -80.510709 
L 360.84539 -81.093592 
L 361.07888 -81.676474 
L 361.294816 -82.259356 
L 361.489605 -82.842238 
L 361.660182 -83.425121 
L 361.804164 -84.008003 
L 361.919982 -84.590885 
L 362.006975 -85.173768 
L 362.065459 -85.75665 
L 362.096745 -86.339532 
L 362.103111 -86.922414 
L 362.087728 -87.505297 
L 362.05453 -88.088179 
L 362.00804 -88.671061 
L 361.953156 -89.253944 
L 361.894908 -89.836826 
L 361.838208 -90.419708 
L 361.787602 -91.00259 
L 361.747057 -91.585473 
L 361.719774 -92.168355 
L 361.708075 -92.751237 
L 361.71333 -93.33412 
L 361.735967 -93.917002 
L 361.775521 -94.499884 
L 361.830744 -95.082766 
L 361.899749 -95.665649 
L 361.980168 -96.248531 
L 364.320903 -96.248531 
L 364.320903 -96.248531 
L 364.401322 -95.665649 
L 364.470327 -95.082766 
L 364.525551 -94.499884 
L 364.565105 -93.917002 
L 364.587741 -93.33412 
L 364.592997 -92.751237 
L 364.581297 -92.168355 
L 364.554015 -91.585473 
L 364.513469 -91.00259 
L 364.462864 -90.419708 
L 364.406163 -89.836826 
L 364.347915 -89.253944 
L 364.293032 -88.671061 
L 364.246542 -88.088179 
L 364.213344 -87.505297 
L 364.19796 -86.922414 
L 364.204326 -86.339532 
L 364.235612 -85.75665 
L 364.294096 -85.173768 
L 364.38109 -84.590885 
L 364.496907 -84.008003 
L 364.64089 -83.425121 
L 364.811466 -82.842238 
L 365.006255 -82.259356 
L 365.222192 -81.676474 
L 365.455681 -81.093592 
L 365.702769 -80.510709 
L 365.959323 -79.927827 
L 366.221211 -79.344945 
L 366.484487 -78.762062 
L 366.745551 -78.17918 
L 367.001297 -77.596298 
L 367.249231 -77.013416 
L 367.487563 -76.430533 
L 367.715264 -75.847651 
L 367.932103 -75.264769 
L 368.138647 -74.681886 
L 368.336266 -74.099004 
L 368.527107 -73.516122 
L 368.714078 -72.93324 
L 368.90082 -72.350357 
L 369.091678 -71.767475 
L 369.29165 -71.184593 
L 369.506325 -70.60171 
L 369.741779 -70.018828 
L 370.004433 -69.435946 
L 370.300863 -68.853064 
L 370.637562 -68.270181 
L 371.020669 -67.687299 
L 371.455662 -67.104417 
L 371.947049 -66.521535 
L 372.49807 -65.938652 
L 373.110429 -65.35577 
L 373.784089 -64.772888 
L 374.517135 -64.190005 
L 375.305719 -63.607123 
L 376.144107 -63.024241 
L 377.024803 -62.441359 
L 377.938773 -61.858476 
L 378.875727 -61.275594 
L 379.824455 -60.692712 
L 380.773185 -60.109829 
L 381.709923 -59.526947 
L 382.622761 -58.944065 
L 383.50011 -58.361183 
L 384.330847 -57.7783 
L 385.104375 -57.195418 
L 385.810592 -56.612536 
L 386.439819 -56.029653 
L 386.982698 -55.446771 
L 387.430138 -54.863889 
L 387.773324 -54.281007 
L 388.003851 -53.698124 
L 388.113988 -53.115242 
L 388.097077 -52.53236 
L 387.94803 -51.949477 
L 387.663876 -51.366595 
L 387.244299 -50.783713 
L 386.692079 -50.200831 
L 386.013367 -49.617948 
L 385.21775 -49.035066 
L 384.318056 -48.452184 
L 383.329912 -47.869301 
L 382.271074 -47.286419 
L 381.160582 -46.703537 
L 380.017831 -46.120655 
L 378.861628 -45.537772 
L 377.709339 -44.95489 
L 376.576184 -44.372008 
L 375.474763 -43.789125 
L 374.414817 -43.206243 
L 373.403238 -42.623361 
L 372.444303 -42.040479 
L 371.540075 -41.457596 
L 370.690911 -40.874714 
L 369.89601 -40.291832 
L 369.153929 -39.708949 
L 368.463011 -39.126067 
L 367.821705 -38.543185 
z
" style="stroke: #d55e00; stroke-opacity: 0.3; stroke-width: 0.8"/>
    </defs>
    <g clip-path="url(#pbf8a0069dc)">
     <use xlink:href="#m94ed6ba547" x="0" y="317.148" style="fill: #d55e00; fill-opacity: 0.3; stroke: #d55e00; stroke-opacity: 0.3; stroke-width: 0.8"/>
    </g>
   </g>
   <g id="matplotlib.axis_1">
    <g id="xtick_1">
     <g id="line2d_1">
      <defs>
       <path id="mb68483511a" d="M 0 0 
L 0 2.2 
" style="stroke: #000000; stroke-width: 0.6"/>
      </defs>
      <g>
       <use xlink:href="#mb68483511a" x="90.821964" y="288.348" style="stroke: #000000; stroke-width: 0.6"/>
      </g>
     </g>
     <g id="text_1">
      <text style="font-size: 8px; font-family: 'Arial', 'Helvetica', 'DejaVu Sans', 'Liberation Sans', sans-serif; text-anchor: middle" x="90.821964" y="299.77425" transform="rotate(-0 90.821964 299.77425)">Control</text>
     </g>
    </g>
    <g id="xtick_2">
     <g id="line2d_2">
      <g>
       <use xlink:href="#mb68483511a" x="181.598155" y="288.348" style="stroke: #000000; stroke-width: 0.6"/>
      </g>
     </g>
     <g id="text_2">
      <text style="font-size: 8px; font-family: 'Arial', 'Helvetica', 'DejaVu Sans', 'Liberation Sans', sans-serif" transform="translate(168.92878 299.77425)">Drug-A</text>
      <text style="font-size: 8px; font-family: 'Arial', 'Helvetica', 'DejaVu Sans', 'Liberation Sans', sans-serif" transform="translate(170.40128 308.358)">10 µM</text>
     </g>
    </g>
    <g id="xtick_3">
     <g id="line2d_3">
      <g>
       <use xlink:href="#mb68483511a" x="272.374345" y="288.348" style="stroke: #000000; stroke-width: 0.6"/>
      </g>
     </g>
     <g id="text_3">
      <text style="font-size: 8px; font-family: 'Arial', 'Helvetica', 'DejaVu Sans', 'Liberation Sans', sans-serif" transform="translate(259.70497 299.77425)">Drug-A</text>
      <text style="font-size: 8px; font-family: 'Arial', 'Helvetica', 'DejaVu Sans', 'Liberation Sans', sans-serif" transform="translate(261.17747 308.358)">50 µM</text>
     </g>
    </g>
    <g id="xtick_4">
     <g id="line2d_4">
      <g>
       <use xlink:href="#mb68483511a" x="363.150536" y="288.348" style="stroke: #000000; stroke-width: 0.6"/>
      </g>
     </g>
     <g id="text_4">
      <text style="font-size: 8px; font-family: 'Arial', 'Helvetica', 'DejaVu Sans', 'Liberation Sans', sans-serif; text-anchor: middle" x="363.150536" y="299.77425" transform="rotate(-0 363.150536 299.77425)">Combo</text>
     </g>
    </g>
   </g>
   <g id="matplotlib.axis_2">
    <g id="ytick_1">
     <g id="line2d_5">
      <defs>
       <path id="m75792accee" d="M 0 0 
L -2.2 0 
" style="stroke: #000000; stroke-width: 0.6"/>
      </defs>
      <g>
       <use xlink:href="#m75792accee" x="36.35625" y="248.379394" style="stroke: #000000; stroke-width: 0.6"/>
      </g>
     </g>
     <g id="text_5">
      <text style="font-size: 8px; font-family: 'Arial', 'Helvetica', 'DejaVu Sans', 'Liberation Sans', sans-serif; text-anchor: end" x="30.65625" y="251.242519" transform="rotate(-0 30.65625 251.242519)">0.5</text>
     </g>
    </g>
    <g id="ytick_2">
     <g id="line2d_6">
      <g>
       <use xlink:href="#m75792accee" x="36.35625" y="206.780961" style="stroke: #000000; stroke-width: 0.6"/>
      </g>
     </g>
     <g id="text_6">
      <text style="font-size: 8px; font-family: 'Arial', 'Helvetica', 'DejaVu Sans', 'Liberation Sans', sans-serif; text-anchor: end" x="30.65625" y="209.644086" transform="rotate(-0 30.65625 209.644086)">1.0</text>
     </g>
    </g>
    <g id="ytick_3">
     <g id="line2d_7">
      <g>
       <use xlink:href="#m75792accee" x="36.35625" y="165.182528" style="stroke: #000000; stroke-width: 0.6"/>
      </g>
     </g>
     <g id="text_7">
      <text style="font-size: 8px; font-family: 'Arial', 'Helvetica', 'DejaVu Sans', 'Liberation Sans', sans-serif; text-anchor: end" x="30.65625" y="168.045653" transform="rotate(-0 30.65625 168.045653)">1.5</text>
     </g>
    </g>
    <g id="ytick_4">
     <g id="line2d_8">
      <g>
       <use xlink:href="#m75792accee" x="36.35625" y="123.584095" style="stroke: #000000; stroke-width: 0.6"/>
      </g>
     </g>
     <g id="text_8">
      <text style="font-size: 8px; font-family: 'Arial', 'Helvetica', 'DejaVu Sans', 'Liberation Sans', sans-serif; text-anchor: end" x="30.65625" y="126.44722" transform="rotate(-0 30.65625 126.44722)">2.0</text>
     </g>
    </g>
    <g id="ytick_5">
     <g id="line2d_9">
      <g>
       <use xlink:href="#m75792accee" x="36.35625" y="81.985663" style="stroke: #000000; stroke-width: 0.6"/>
      </g>
     </g>
     <g id="text_9">
      <text style="font-size: 8px; font-family: 'Arial', 'Helvetica', 'DejaVu Sans', 'Liberation Sans', sans-serif; text-anchor: end" x="30.65625" y="84.848788" transform="rotate(-0 30.65625 84.848788)">2.5</text>
     </g>
    </g>
    <g id="ytick_6">
     <g id="line2d_10">
      <g>
       <use xlink:href="#m75792accee" x="36.35625" y="40.38723" style="stroke: #000000; stroke-width: 0.6"/>
      </g>
     </g>
     <g id="text_10">
      <text style="font-size: 8px; font-family: 'Arial', 'Helvetica', 'DejaVu Sans', 'Liberation Sans', sans-serif; text-anchor: end" x="30.65625" y="43.250355" transform="rotate(-0 30.65625 43.250355)">3.0</text>
     </g>
    </g>
    <g id="text_11">
     <text style="font-size: 9px; font-family: 'Arial', 'Helvetica', 'DejaVu Sans', 'Liberation Sans', sans-serif; text-anchor: middle" x="13.642031" y="147.774" transform="rotate(-90 13.642031 147.774)">Relative cell viability</text>
    </g>
   </g>
   <g id="PathCollection_1">
    <defs>
     <path id="m9d7c4c0e33" d="M 0 1.581139 
C 0.419323 1.581139 0.821528 1.41454 1.118034 1.118034 
C 1.41454 0.821528 1.581139 0.419323 1.581139 0 
C 1.581139 -0.419323 1.41454 -0.821528 1.118034 -1.118034 
C 0.821528 -1.41454 0.419323 -1.581139 0 -1.581139 
C -0.419323 -1.581139 -0.821528 -1.41454 -1.118034 -1.118034 
C -1.41454 -0.821528 -1.581139 -0.419323 -1.581139 0 
C -1.581139 0.419323 -1.41454 0.821528 -1.118034 1.118034 
C -0.821528 1.41454 -0.419323 1.581139 0 1.581139 
z
"/>
    </defs>
    <g clip-path="url(#pbf8a0069dc)">
     <use xlink:href="#m9d7c4c0e33" x="97.785196" y="218.095735" style="fill: #767676; fill-opacity: 0.35"/>
     <use xlink:href="#m9d7c4c0e33" x="89.268417" y="217.779587" style="fill: #767676; fill-opacity: 0.35"/>
     <use xlink:href="#m9d7c4c0e33" x="99.936567" y="222.19734" style="fill: #767676; fill-opacity: 0.35"/>
     <use xlink:href="#m9d7c4c0e33" x="95.838533" y="206.098747" style="fill: #767676; fill-opacity: 0.35"/>
     <use xlink:href="#m9d7c4c0e33" x="80.507035" y="83.741116" style="fill: #767676; fill-opacity: 0.35"/>
     <use xlink:href="#m9d7c4c0e33" x="102.911016" y="140.339944" style="fill: #767676; fill-opacity: 0.35"/>
     <use xlink:href="#m9d7c4c0e33" x="97.459439" y="194.401267" style="fill: #767676; fill-opacity: 0.35"/>
     <use xlink:href="#m9d7c4c0e33" x="98.092956" y="182.720427" style="fill: #767676; fill-opacity: 0.35"/>
     <use xlink:href="#m9d7c4c0e33" x="81.369605" y="162.495269" style="fill: #767676; fill-opacity: 0.35"/>
     <use xlink:href="#m9d7c4c0e33" x="89.560907" y="217.288725" style="fill: #767676; fill-opacity: 0.35"/>
     <use xlink:href="#m9d7c4c0e33" x="87.537995" y="208.869202" style="fill: #767676; fill-opacity: 0.35"/>
     <use xlink:href="#m9d7c4c0e33" x="101.669192" y="237.730195" style="fill: #767676; fill-opacity: 0.35"/>
     <use xlink:href="#m9d7c4c0e33" x="94.478632" y="194.85053" style="fill: #767676; fill-opacity: 0.35"/>
     <use xlink:href="#m9d7c4c0e33" x="99.025704" y="201.913944" style="fill: #767676; fill-opacity: 0.35"/>
     <use xlink:href="#m9d7c4c0e33" x="89.383704" y="224.418696" style="fill: #767676; fill-opacity: 0.35"/>
     <use xlink:href="#m9d7c4c0e33" x="83.8891" y="206.963994" style="fill: #767676; fill-opacity: 0.35"/>
     <use xlink:href="#m9d7c4c0e33" x="92.209364" y="209.634613" style="fill: #767676; fill-opacity: 0.35"/>
     <use xlink:href="#m9d7c4c0e33" x="79.735362" y="222.072545" style="fill: #767676; fill-opacity: 0.35"/>
     <use xlink:href="#m9d7c4c0e33" x="99.149475" y="215.02577" style="fill: #767676; fill-opacity: 0.35"/>
     <use xlink:href="#m9d7c4c0e33" x="94.168522" y="222.621644" style="fill: #767676; fill-opacity: 0.35"/>
     <use xlink:href="#m9d7c4c0e33" x="97.381866" y="169.442208" style="fill: #767676; fill-opacity: 0.35"/>
     <use xlink:href="#m9d7c4c0e33" x="87.124402" y="182.587312" style="fill: #767676; fill-opacity: 0.35"/>
     <use xlink:href="#m9d7c4c0e33" x="102.785853" y="215.350238" style="fill: #767676; fill-opacity: 0.35"/>
     <use xlink:href="#m9d7c4c0e33" x="100.814055" y="215.57487" style="fill: #767676; fill-opacity: 0.35"/>
     <use xlink:href="#m9d7c4c0e33" x="97.89773" y="232.164325" style="fill: #767676; fill-opacity: 0.35"/>
     <use xlink:href="#m9d7c4c0e33" x="83.060495" y="206.323378" style="fill: #767676; fill-opacity: 0.35"/>
     <use xlink:href="#m9d7c4c0e33" x="89.976101" y="180.133005" style="fill: #767676; fill-opacity: 0.35"/>
     <use xlink:href="#m9d7c4c0e33" x="79.226673" y="220.691477" style="fill: #767676; fill-opacity: 0.35"/>
     <use xlink:href="#m9d7c4c0e33" x="82.034925" y="215.341918" style="fill: #767676; fill-opacity: 0.35"/>
     <use xlink:href="#m9d7c4c0e33" x="95.474581" y="159.358748" style="fill: #767676; fill-opacity: 0.35"/>
     <use xlink:href="#m9d7c4c0e33" x="97.043166" y="255.817194" style="fill: #767676; fill-opacity: 0.35"/>
     <use xlink:href="#m9d7c4c0e33" x="102.704815" y="226.947881" style="fill: #767676; fill-opacity: 0.35"/>
     <use xlink:href="#m9d7c4c0e33" x="86.394909" y="203.195176" style="fill: #767676; fill-opacity: 0.35"/>
     <use xlink:href="#m9d7c4c0e33" x="87.529395" y="168.784952" style="fill: #767676; fill-opacity: 0.35"/>
     <use xlink:href="#m9d7c4c0e33" x="90.048154" y="211.398387" style="fill: #767676; fill-opacity: 0.35"/>
     <use xlink:href="#m9d7c4c0e33" x="82.929154" y="195.65754" style="fill: #767676; fill-opacity: 0.35"/>
     <use xlink:href="#m9d7c4c0e33" x="81.415556" y="228.254072" style="fill: #767676; fill-opacity: 0.35"/>
     <use xlink:href="#m9d7c4c0e33" x="90.204448" y="180.831859" style="fill: #767676; fill-opacity: 0.35"/>
     <use xlink:href="#m9d7c4c0e33" x="83.880728" y="203.802513" style="fill: #767676; fill-opacity: 0.35"/>
     <use xlink:href="#m9d7c4c0e33" x="95.138183" y="213.677981" style="fill: #767676; fill-opacity: 0.35"/>
     <use xlink:href="#m9d7c4c0e33" x="89.224534" y="201.522919" style="fill: #767676; fill-opacity: 0.35"/>
     <use xlink:href="#m9d7c4c0e33" x="99.277757" y="223.278899" style="fill: #767676; fill-opacity: 0.35"/>
     <use xlink:href="#m9d7c4c0e33" x="95.912169" y="160.906209" style="fill: #767676; fill-opacity: 0.35"/>
     <use xlink:href="#m9d7c4c0e33" x="86.052825" y="222.638284" style="fill: #767676; fill-opacity: 0.35"/>
     <use xlink:href="#m9d7c4c0e33" x="99.267122" y="207.038871" style="fill: #767676; fill-opacity: 0.35"/>
     <use xlink:href="#m9d7c4c0e33" x="98.568262" y="211.989085" style="fill: #767676; fill-opacity: 0.35"/>
     <use xlink:href="#m9d7c4c0e33" x="87.961965" y="219.634877" style="fill: #767676; fill-opacity: 0.35"/>
     <use xlink:href="#m9d7c4c0e33" x="85.441829" y="194.59262" style="fill: #767676; fill-opacity: 0.35"/>
     <use xlink:href="#m9d7c4c0e33" x="95.460513" y="125.139877" style="fill: #767676; fill-opacity: 0.35"/>
     <use xlink:href="#m9d7c4c0e33" x="81.665433" y="206.473133" style="fill: #767676; fill-opacity: 0.35"/>
     <use xlink:href="#m9d7c4c0e33" x="83.194431" y="164.633429" style="fill: #767676; fill-opacity: 0.35"/>
     <use xlink:href="#m9d7c4c0e33" x="78.300427" y="183.16969" style="fill: #767676; fill-opacity: 0.35"/>
     <use xlink:href="#m9d7c4c0e33" x="98.114817" y="248.595706" style="fill: #767676; fill-opacity: 0.35"/>
     <use xlink:href="#m9d7c4c0e33" x="95.012033" y="207.038871" style="fill: #767676; fill-opacity: 0.35"/>
     <use xlink:href="#m9d7c4c0e33" x="96.036721" y="227.413784" style="fill: #767676; fill-opacity: 0.35"/>
     <use xlink:href="#m9d7c4c0e33" x="97.957348" y="231.357315" style="fill: #767676; fill-opacity: 0.35"/>
     <use xlink:href="#m9d7c4c0e33" x="89.777713" y="236.149455" style="fill: #767676; fill-opacity: 0.35"/>
     <use xlink:href="#m9d7c4c0e33" x="92.569182" y="167.545319" style="fill: #767676; fill-opacity: 0.35"/>
     <use xlink:href="#m9d7c4c0e33" x="81.666565" y="192.454461" style="fill: #767676; fill-opacity: 0.35"/>
     <use xlink:href="#m9d7c4c0e33" x="81.024347" y="215.691345" style="fill: #767676; fill-opacity: 0.35"/>
     <use xlink:href="#m9d7c4c0e33" x="95.102318" y="222.122463" style="fill: #767676; fill-opacity: 0.35"/>
     <use xlink:href="#m9d7c4c0e33" x="90.087307" y="238.620401" style="fill: #767676; fill-opacity: 0.35"/>
     <use xlink:href="#m9d7c4c0e33" x="92.480092" y="173.011353" style="fill: #767676; fill-opacity: 0.35"/>
     <use xlink:href="#m9d7c4c0e33" x="97.557529" y="240.217781" style="fill: #767676; fill-opacity: 0.35"/>
     <use xlink:href="#m9d7c4c0e33" x="94.246145" y="257.788959" style="fill: #767676; fill-opacity: 0.35"/>
     <use xlink:href="#m9d7c4c0e33" x="92.18381" y="227.721612" style="fill: #767676; fill-opacity: 0.35"/>
     <use xlink:href="#m9d7c4c0e33" x="92.326852" y="227.388825" style="fill: #767676; fill-opacity: 0.35"/>
     <use xlink:href="#m9d7c4c0e33" x="85.838899" y="173.152788" style="fill: #767676; fill-opacity: 0.35"/>
     <use xlink:href="#m9d7c4c0e33" x="78.896605" y="217.122331" style="fill: #767676; fill-opacity: 0.35"/>
     <use xlink:href="#m9d7c4c0e33" x="89.213489" y="239.7186" style="fill: #767676; fill-opacity: 0.35"/>
     <use xlink:href="#m9d7c4c0e33" x="83.567468" y="218.520039" style="fill: #767676; fill-opacity: 0.35"/>
     <use xlink:href="#m9d7c4c0e33" x="88.497006" y="125.231393" style="fill: #767676; fill-opacity: 0.35"/>
     <use xlink:href="#m9d7c4c0e33" x="99.804528" y="228.620138" style="fill: #767676; fill-opacity: 0.35"/>
     <use xlink:href="#m9d7c4c0e33" x="84.059416" y="214.019088" style="fill: #767676; fill-opacity: 0.35"/>
     <use xlink:href="#m9d7c4c0e33" x="79.595198" y="213.411751" style="fill: #767676; fill-opacity: 0.35"/>
     <use xlink:href="#m9d7c4c0e33" x="85.265326" y="176.02308" style="fill: #767676; fill-opacity: 0.35"/>
     <use xlink:href="#m9d7c4c0e33" x="85.575668" y="123.326185" style="fill: #767676; fill-opacity: 0.35"/>
     <use xlink:href="#m9d7c4c0e33" x="94.93745" y="198.419676" style="fill: #767676; fill-opacity: 0.35"/>
     <use xlink:href="#m9d7c4c0e33" x="92.27157" y="219.776311" style="fill: #767676; fill-opacity: 0.35"/>
     <use xlink:href="#m9d7c4c0e33" x="98.0379" y="189.975194" style="fill: #767676; fill-opacity: 0.35"/>
     <use xlink:href="#m9d7c4c0e33" x="94.998376" y="250.101569" style="fill: #767676; fill-opacity: 0.35"/>
     <use xlink:href="#m9d7c4c0e33" x="88.442568" y="219.243851" style="fill: #767676; fill-opacity: 0.35"/>
     <use xlink:href="#m9d7c4c0e33" x="98.803525" y="245.467503" style="fill: #767676; fill-opacity: 0.35"/>
     <use xlink:href="#m9d7c4c0e33" x="82.357304" y="218.661473" style="fill: #767676; fill-opacity: 0.35"/>
     <use xlink:href="#m9d7c4c0e33" x="78.690578" y="238.662" style="fill: #767676; fill-opacity: 0.35"/>
     <use xlink:href="#m9d7c4c0e33" x="80.402074" y="185.499203" style="fill: #767676; fill-opacity: 0.35"/>
     <use xlink:href="#m9d7c4c0e33" x="96.473746" y="226.698291" style="fill: #767676; fill-opacity: 0.35"/>
     <use xlink:href="#m9d7c4c0e33" x="89.852985" y="186.139819" style="fill: #767676; fill-opacity: 0.35"/>
     <use xlink:href="#m9d7c4c0e33" x="82.212396" y="196.888854" style="fill: #767676; fill-opacity: 0.35"/>
     <use xlink:href="#m9d7c4c0e33" x="90.84852" y="178.810175" style="fill: #767676; fill-opacity: 0.35"/>
     <use xlink:href="#m9d7c4c0e33" x="81.984665" y="201.281648" style="fill: #767676; fill-opacity: 0.35"/>
     <use xlink:href="#m9d7c4c0e33" x="95.811905" y="190.524293" style="fill: #767676; fill-opacity: 0.35"/>
     <use xlink:href="#m9d7c4c0e33" x="89.4534" y="221.93111" style="fill: #767676; fill-opacity: 0.35"/>
     <use xlink:href="#m9d7c4c0e33" x="87.797841" y="200.765828" style="fill: #767676; fill-opacity: 0.35"/>
     <use xlink:href="#m9d7c4c0e33" x="85.776931" y="206.306739" style="fill: #767676; fill-opacity: 0.35"/>
     <use xlink:href="#m9d7c4c0e33" x="94.1334" y="148.035654" style="fill: #767676; fill-opacity: 0.35"/>
     <use xlink:href="#m9d7c4c0e33" x="87.309609" y="213.469989" style="fill: #767676; fill-opacity: 0.35"/>
     <use xlink:href="#m9d7c4c0e33" x="80.341125" y="233.686827" style="fill: #767676; fill-opacity: 0.35"/>
     <use xlink:href="#m9d7c4c0e33" x="81.112693" y="227.230751" style="fill: #767676; fill-opacity: 0.35"/>
     <use xlink:href="#m9d7c4c0e33" x="102.562171" y="164.433756" style="fill: #767676; fill-opacity: 0.35"/>
    </g>
   </g>
   <g id="PathCollection_2">
    <defs>
     <path id="mc7c4780dc6" d="M 0 1.581139 
C 0.419323 1.581139 0.821528 1.41454 1.118034 1.118034 
C 1.41454 0.821528 1.581139 0.419323 1.581139 0 
C 1.581139 -0.419323 1.41454 -0.821528 1.118034 -1.118034 
C 0.821528 -1.41454 0.419323 -1.581139 0 -1.581139 
C -0.419323 -1.581139 -0.821528 -1.41454 -1.118034 -1.118034 
C -1.41454 -0.821528 -1.581139 -0.419323 -1.581139 0 
C -1.581139 0.419323 -1.41454 0.821528 -1.118034 1.118034 
C -0.821528 1.41454 -0.419323 1.581139 0 1.581139 
z
"/>
    </defs>
    <g clip-path="url(#pbf8a0069dc)">
     <use xlink:href="#mc7c4780dc6" x="191.983186" y="193.26147" style="fill: #56b4e9; fill-opacity: 0.35"/>
     <use xlink:href="#mc7c4780dc6" x="186.674178" y="256.050145" style="fill: #56b4e9; fill-opacity: 0.35"/>
     <use xlink:href="#mc7c4780dc6" x="175.647194" y="214.435073" style="fill: #56b4e9; fill-opacity: 0.35"/>
     <use xlink:href="#mc7c4780dc6" x="193.523367" y="240.367536" style="fill: #56b4e9; fill-opacity: 0.35"/>
     <use xlink:href="#mc7c4780dc6" x="188.683259" y="240.467372" style="fill: #56b4e9; fill-opacity: 0.35"/>
     <use xlink:href="#mc7c4780dc6" x="187.110925" y="245.03488" style="fill: #56b4e9; fill-opacity: 0.35"/>
     <use xlink:href="#mc7c4780dc6" x="180.311059" y="217.222168" style="fill: #56b4e9; fill-opacity: 0.35"/>
     <use xlink:href="#mc7c4780dc6" x="175.809143" y="248.021647" style="fill: #56b4e9; fill-opacity: 0.35"/>
     <use xlink:href="#mc7c4780dc6" x="171.339489" y="215.974215" style="fill: #56b4e9; fill-opacity: 0.35"/>
     <use xlink:href="#mc7c4780dc6" x="191.831234" y="233.653549" style="fill: #56b4e9; fill-opacity: 0.35"/>
     <use xlink:href="#mc7c4780dc6" x="180.474106" y="193.910406" style="fill: #56b4e9; fill-opacity: 0.35"/>
     <use xlink:href="#mc7c4780dc6" x="174.033025" y="233.545393" style="fill: #56b4e9; fill-opacity: 0.35"/>
     <use xlink:href="#mc7c4780dc6" x="176.66609" y="218.836187" style="fill: #56b4e9; fill-opacity: 0.35"/>
     <use xlink:href="#mc7c4780dc6" x="183.611705" y="256.532687" style="fill: #56b4e9; fill-opacity: 0.35"/>
     <use xlink:href="#mc7c4780dc6" x="173.382581" y="229.809853" style="fill: #56b4e9; fill-opacity: 0.35"/>
     <use xlink:href="#mc7c4780dc6" x="190.662339" y="239.934912" style="fill: #56b4e9; fill-opacity: 0.35"/>
     <use xlink:href="#mc7c4780dc6" x="188.169032" y="233.953057" style="fill: #56b4e9; fill-opacity: 0.35"/>
     <use xlink:href="#mc7c4780dc6" x="187.176318" y="231.373954" style="fill: #56b4e9; fill-opacity: 0.35"/>
     <use xlink:href="#mc7c4780dc6" x="179.872141" y="212.91257" style="fill: #56b4e9; fill-opacity: 0.35"/>
     <use xlink:href="#mc7c4780dc6" x="184.834006" y="239.685321" style="fill: #56b4e9; fill-opacity: 0.35"/>
     <use xlink:href="#mc7c4780dc6" x="183.735701" y="249.843659" style="fill: #56b4e9; fill-opacity: 0.35"/>
     <use xlink:href="#mc7c4780dc6" x="185.406856" y="226.881324" style="fill: #56b4e9; fill-opacity: 0.35"/>
     <use xlink:href="#mc7c4780dc6" x="171.035838" y="124.457662" style="fill: #56b4e9; fill-opacity: 0.35"/>
     <use xlink:href="#mc7c4780dc6" x="179.458203" y="256.208219" style="fill: #56b4e9; fill-opacity: 0.35"/>
     <use xlink:href="#mc7c4780dc6" x="169.947209" y="234.485517" style="fill: #56b4e9; fill-opacity: 0.35"/>
     <use xlink:href="#mc7c4780dc6" x="181.445417" y="241.740284" style="fill: #56b4e9; fill-opacity: 0.35"/>
     <use xlink:href="#mc7c4780dc6" x="177.27368" y="213.020726" style="fill: #56b4e9; fill-opacity: 0.35"/>
     <use xlink:href="#mc7c4780dc6" x="172.562908" y="249.053288" style="fill: #56b4e9; fill-opacity: 0.35"/>
     <use xlink:href="#mc7c4780dc6" x="171.517716" y="237.272612" style="fill: #56b4e9; fill-opacity: 0.35"/>
     <use xlink:href="#mc7c4780dc6" x="183.825846" y="225.791445" style="fill: #56b4e9; fill-opacity: 0.35"/>
     <use xlink:href="#mc7c4780dc6" x="173.225506" y="191.40618" style="fill: #56b4e9; fill-opacity: 0.35"/>
     <use xlink:href="#mc7c4780dc6" x="192.403575" y="166.99622" style="fill: #56b4e9; fill-opacity: 0.35"/>
     <use xlink:href="#mc7c4780dc6" x="183.658513" y="208.13707" style="fill: #56b4e9; fill-opacity: 0.35"/>
     <use xlink:href="#mc7c4780dc6" x="177.705994" y="209.068875" style="fill: #56b4e9; fill-opacity: 0.35"/>
     <use xlink:href="#mc7c4780dc6" x="183.908984" y="245.30111" style="fill: #56b4e9; fill-opacity: 0.35"/>
     <use xlink:href="#mc7c4780dc6" x="169.469102" y="207.321741" style="fill: #56b4e9; fill-opacity: 0.35"/>
     <use xlink:href="#mc7c4780dc6" x="193.253507" y="241.024791" style="fill: #56b4e9; fill-opacity: 0.35"/>
     <use xlink:href="#mc7c4780dc6" x="181.148355" y="223.944474" style="fill: #56b4e9; fill-opacity: 0.35"/>
     <use xlink:href="#mc7c4780dc6" x="188.78453" y="241.931637" style="fill: #56b4e9; fill-opacity: 0.35"/>
     <use xlink:href="#mc7c4780dc6" x="170.992264" y="255.401209" style="fill: #56b4e9; fill-opacity: 0.35"/>
     <use xlink:href="#mc7c4780dc6" x="181.259045" y="208.286824" style="fill: #56b4e9; fill-opacity: 0.35"/>
     <use xlink:href="#mc7c4780dc6" x="181.361951" y="215.866059" style="fill: #56b4e9; fill-opacity: 0.35"/>
     <use xlink:href="#mc7c4780dc6" x="192.726536" y="217.538316" style="fill: #56b4e9; fill-opacity: 0.35"/>
     <use xlink:href="#mc7c4780dc6" x="183.421291" y="232.131046" style="fill: #56b4e9; fill-opacity: 0.35"/>
     <use xlink:href="#mc7c4780dc6" x="180.924326" y="233.037892" style="fill: #56b4e9; fill-opacity: 0.35"/>
     <use xlink:href="#mc7c4780dc6" x="175.675298" y="228.670056" style="fill: #56b4e9; fill-opacity: 0.35"/>
     <use xlink:href="#mc7c4780dc6" x="177.317088" y="225.616731" style="fill: #56b4e9; fill-opacity: 0.35"/>
     <use xlink:href="#mc7c4780dc6" x="182.123592" y="156.754686" style="fill: #56b4e9; fill-opacity: 0.35"/>
     <use xlink:href="#mc7c4780dc6" x="180.045447" y="227.039398" style="fill: #56b4e9; fill-opacity: 0.35"/>
     <use xlink:href="#mc7c4780dc6" x="169.43881" y="226.240708" style="fill: #56b4e9; fill-opacity: 0.35"/>
     <use xlink:href="#mc7c4780dc6" x="189.891625" y="246.116439" style="fill: #56b4e9; fill-opacity: 0.35"/>
     <use xlink:href="#mc7c4780dc6" x="191.667505" y="248.154762" style="fill: #56b4e9; fill-opacity: 0.35"/>
     <use xlink:href="#mc7c4780dc6" x="172.454246" y="224.668287" style="fill: #56b4e9; fill-opacity: 0.35"/>
     <use xlink:href="#mc7c4780dc6" x="182.971609" y="219.02754" style="fill: #56b4e9; fill-opacity: 0.35"/>
     <use xlink:href="#mc7c4780dc6" x="171.649194" y="168.077779" style="fill: #56b4e9; fill-opacity: 0.35"/>
     <use xlink:href="#mc7c4780dc6" x="185.976039" y="224.610049" style="fill: #56b4e9; fill-opacity: 0.35"/>
     <use xlink:href="#mc7c4780dc6" x="176.037701" y="224.834681" style="fill: #56b4e9; fill-opacity: 0.35"/>
     <use xlink:href="#mc7c4780dc6" x="185.650253" y="152.153899" style="fill: #56b4e9; fill-opacity: 0.35"/>
     <use xlink:href="#mc7c4780dc6" x="187.367753" y="231.989611" style="fill: #56b4e9; fill-opacity: 0.35"/>
     <use xlink:href="#mc7c4780dc6" x="188.426458" y="246.557382" style="fill: #56b4e9; fill-opacity: 0.35"/>
     <use xlink:href="#mc7c4780dc6" x="171.627976" y="212.063962" style="fill: #56b4e9; fill-opacity: 0.35"/>
     <use xlink:href="#mc7c4780dc6" x="192.172067" y="199.858982" style="fill: #56b4e9; fill-opacity: 0.35"/>
     <use xlink:href="#mc7c4780dc6" x="174.740914" y="209.010637" style="fill: #56b4e9; fill-opacity: 0.35"/>
     <use xlink:href="#mc7c4780dc6" x="169.840416" y="223.994392" style="fill: #56b4e9; fill-opacity: 0.35"/>
     <use xlink:href="#mc7c4780dc6" x="182.992358" y="238.803435" style="fill: #56b4e9; fill-opacity: 0.35"/>
     <use xlink:href="#mc7c4780dc6" x="178.317343" y="224.743164" style="fill: #56b4e9; fill-opacity: 0.35"/>
     <use xlink:href="#mc7c4780dc6" x="189.980531" y="107.926445" style="fill: #56b4e9; fill-opacity: 0.35"/>
     <use xlink:href="#mc7c4780dc6" x="189.433085" y="250.317881" style="fill: #56b4e9; fill-opacity: 0.35"/>
     <use xlink:href="#mc7c4780dc6" x="176.950313" y="216.232125" style="fill: #56b4e9; fill-opacity: 0.35"/>
     <use xlink:href="#mc7c4780dc6" x="193.10965" y="182.620591" style="fill: #56b4e9; fill-opacity: 0.35"/>
     <use xlink:href="#mc7c4780dc6" x="176.283844" y="192.279747" style="fill: #56b4e9; fill-opacity: 0.35"/>
     <use xlink:href="#mc7c4780dc6" x="181.980867" y="216.173887" style="fill: #56b4e9; fill-opacity: 0.35"/>
     <use xlink:href="#mc7c4780dc6" x="175.395438" y="207.230224" style="fill: #56b4e9; fill-opacity: 0.35"/>
     <use xlink:href="#mc7c4780dc6" x="192.68122" y="244.544018" style="fill: #56b4e9; fill-opacity: 0.35"/>
     <use xlink:href="#mc7c4780dc6" x="173.07338" y="227.76321" style="fill: #56b4e9; fill-opacity: 0.35"/>
     <use xlink:href="#mc7c4780dc6" x="170.030996" y="214.301958" style="fill: #56b4e9; fill-opacity: 0.35"/>
     <use xlink:href="#mc7c4780dc6" x="179.948495" y="206.040509" style="fill: #56b4e9; fill-opacity: 0.35"/>
     <use xlink:href="#mc7c4780dc6" x="194.113029" y="214.335236" style="fill: #56b4e9; fill-opacity: 0.35"/>
     <use xlink:href="#mc7c4780dc6" x="191.553546" y="216.606511" style="fill: #56b4e9; fill-opacity: 0.35"/>
     <use xlink:href="#mc7c4780dc6" x="187.917108" y="220.175656" style="fill: #56b4e9; fill-opacity: 0.35"/>
     <use xlink:href="#mc7c4780dc6" x="191.531058" y="241.224463" style="fill: #56b4e9; fill-opacity: 0.35"/>
     <use xlink:href="#mc7c4780dc6" x="191.598519" y="218.686432" style="fill: #56b4e9; fill-opacity: 0.35"/>
     <use xlink:href="#mc7c4780dc6" x="182.077484" y="249.136485" style="fill: #56b4e9; fill-opacity: 0.35"/>
     <use xlink:href="#mc7c4780dc6" x="176.919562" y="245.051519" style="fill: #56b4e9; fill-opacity: 0.35"/>
     <use xlink:href="#mc7c4780dc6" x="188.511985" y="246.374349" style="fill: #56b4e9; fill-opacity: 0.35"/>
     <use xlink:href="#mc7c4780dc6" x="185.707153" y="220.575001" style="fill: #56b4e9; fill-opacity: 0.35"/>
     <use xlink:href="#mc7c4780dc6" x="178.386871" y="215.208803" style="fill: #56b4e9; fill-opacity: 0.35"/>
     <use xlink:href="#mc7c4780dc6" x="171.290579" y="235.824987" style="fill: #56b4e9; fill-opacity: 0.35"/>
     <use xlink:href="#mc7c4780dc6" x="187.870889" y="256.798917" style="fill: #56b4e9; fill-opacity: 0.35"/>
     <use xlink:href="#mc7c4780dc6" x="175.560535" y="230.076083" style="fill: #56b4e9; fill-opacity: 0.35"/>
     <use xlink:href="#mc7c4780dc6" x="192.70078" y="221.232257" style="fill: #56b4e9; fill-opacity: 0.35"/>
     <use xlink:href="#mc7c4780dc6" x="175.014318" y="214.035728" style="fill: #56b4e9; fill-opacity: 0.35"/>
     <use xlink:href="#mc7c4780dc6" x="172.009667" y="253.803829" style="fill: #56b4e9; fill-opacity: 0.35"/>
     <use xlink:href="#mc7c4780dc6" x="190.014156" y="229.718337" style="fill: #56b4e9; fill-opacity: 0.35"/>
     <use xlink:href="#mc7c4780dc6" x="172.785567" y="249.028329" style="fill: #56b4e9; fill-opacity: 0.35"/>
     <use xlink:href="#mc7c4780dc6" x="173.44601" y="224.32718" style="fill: #56b4e9; fill-opacity: 0.35"/>
     <use xlink:href="#mc7c4780dc6" x="184.1242" y="208.469857" style="fill: #56b4e9; fill-opacity: 0.35"/>
     <use xlink:href="#mc7c4780dc6" x="191.118523" y="234.876542" style="fill: #56b4e9; fill-opacity: 0.35"/>
     <use xlink:href="#mc7c4780dc6" x="173.882333" y="172.087868" style="fill: #56b4e9; fill-opacity: 0.35"/>
     <use xlink:href="#mc7c4780dc6" x="176.777088" y="204.518006" style="fill: #56b4e9; fill-opacity: 0.35"/>
    </g>
   </g>
   <g id="PathCollection_3">
    <defs>
     <path id="mafd0f98105" d="M 0 1.581139 
C 0.419323 1.581139 0.821528 1.41454 1.118034 1.118034 
C 1.41454 0.821528 1.581139 0.419323 1.581139 0 
C 1.581139 -0.419323 1.41454 -0.821528 1.118034 -1.118034 
C 0.821528 -1.41454 0.419323 -1.581139 0 -1.581139 
C -0.419323 -1.581139 -0.821528 -1.41454 -1.118034 -1.118034 
C -1.41454 -0.821528 -1.581139 -0.419323 -1.581139 0 
C -1.581139 0.419323 -1.41454 0.821528 -1.118034 1.118034 
C -0.821528 1.41454 -0.419323 1.581139 0 1.581139 
z
"/>
    </defs>
    <g clip-path="url(#pbf8a0069dc)">
     <use xlink:href="#mafd0f98105" x="279.425236" y="230.325674" style="fill: #0072b2; fill-opacity: 0.35"/>
     <use xlink:href="#mafd0f98105" x="284.366915" y="251.906941" style="fill: #0072b2; fill-opacity: 0.35"/>
     <use xlink:href="#mafd0f98105" x="272.393184" y="259.136749" style="fill: #0072b2; fill-opacity: 0.35"/>
     <use xlink:href="#mafd0f98105" x="263.323169" y="192.387903" style="fill: #0072b2; fill-opacity: 0.35"/>
     <use xlink:href="#mafd0f98105" x="260.019902" y="235.567076" style="fill: #0072b2; fill-opacity: 0.35"/>
     <use xlink:href="#mafd0f98105" x="265.502922" y="241.523972" style="fill: #0072b2; fill-opacity: 0.35"/>
     <use xlink:href="#mafd0f98105" x="263.016248" y="224.177426" style="fill: #0072b2; fill-opacity: 0.35"/>
     <use xlink:href="#mafd0f98105" x="276.889955" y="259.111789" style="fill: #0072b2; fill-opacity: 0.35"/>
     <use xlink:href="#mafd0f98105" x="262.762336" y="252.073335" style="fill: #0072b2; fill-opacity: 0.35"/>
     <use xlink:href="#mafd0f98105" x="272.535235" y="232.987974" style="fill: #0072b2; fill-opacity: 0.35"/>
     <use xlink:href="#mafd0f98105" x="277.311978" y="225.691609" style="fill: #0072b2; fill-opacity: 0.35"/>
     <use xlink:href="#mafd0f98105" x="274.436113" y="230.899732" style="fill: #0072b2; fill-opacity: 0.35"/>
     <use xlink:href="#mafd0f98105" x="264.743443" y="249.161444" style="fill: #0072b2; fill-opacity: 0.35"/>
     <use xlink:href="#mafd0f98105" x="280.10438" y="184.742111" style="fill: #0072b2; fill-opacity: 0.35"/>
     <use xlink:href="#mafd0f98105" x="277.84942" y="250.07661" style="fill: #0072b2; fill-opacity: 0.35"/>
     <use xlink:href="#mafd0f98105" x="278.448681" y="241.340939" style="fill: #0072b2; fill-opacity: 0.35"/>
     <use xlink:href="#mafd0f98105" x="262.996817" y="261.041957" style="fill: #0072b2; fill-opacity: 0.35"/>
     <use xlink:href="#mafd0f98105" x="262.81117" y="248.928493" style="fill: #0072b2; fill-opacity: 0.35"/>
     <use xlink:href="#mafd0f98105" x="283.241845" y="227.222431" style="fill: #0072b2; fill-opacity: 0.35"/>
     <use xlink:href="#mafd0f98105" x="269.771056" y="218.253809" style="fill: #0072b2; fill-opacity: 0.35"/>
     <use xlink:href="#mafd0f98105" x="267.314992" y="265.767539" style="fill: #0072b2; fill-opacity: 0.35"/>
     <use xlink:href="#mafd0f98105" x="272.084182" y="260.784046" style="fill: #0072b2; fill-opacity: 0.35"/>
     <use xlink:href="#mafd0f98105" x="276.513919" y="255.975268" style="fill: #0072b2; fill-opacity: 0.35"/>
     <use xlink:href="#mafd0f98105" x="283.955073" y="217.455119" style="fill: #0072b2; fill-opacity: 0.35"/>
     <use xlink:href="#mafd0f98105" x="266.946378" y="238.853353" style="fill: #0072b2; fill-opacity: 0.35"/>
     <use xlink:href="#mafd0f98105" x="283.171843" y="234.40232" style="fill: #0072b2; fill-opacity: 0.35"/>
     <use xlink:href="#mafd0f98105" x="260.297541" y="252.081654" style="fill: #0072b2; fill-opacity: 0.35"/>
     <use xlink:href="#mafd0f98105" x="273.777332" y="261.066916" style="fill: #0072b2; fill-opacity: 0.35"/>
     <use xlink:href="#mafd0f98105" x="275.779635" y="249.261281" style="fill: #0072b2; fill-opacity: 0.35"/>
     <use xlink:href="#mafd0f98105" x="262.357308" y="209.759409" style="fill: #0072b2; fill-opacity: 0.35"/>
     <use xlink:href="#mafd0f98105" x="263.232737" y="210.449943" style="fill: #0072b2; fill-opacity: 0.35"/>
     <use xlink:href="#mafd0f98105" x="270.318447" y="261.657614" style="fill: #0072b2; fill-opacity: 0.35"/>
     <use xlink:href="#mafd0f98105" x="284.224717" y="251.299604" style="fill: #0072b2; fill-opacity: 0.35"/>
     <use xlink:href="#mafd0f98105" x="274.815491" y="256.466129" style="fill: #0072b2; fill-opacity: 0.35"/>
     <use xlink:href="#mafd0f98105" x="283.380641" y="242.871761" style="fill: #0072b2; fill-opacity: 0.35"/>
     <use xlink:href="#mafd0f98105" x="280.110388" y="232.305759" style="fill: #0072b2; fill-opacity: 0.35"/>
     <use xlink:href="#mafd0f98105" x="271.545273" y="245.359348" style="fill: #0072b2; fill-opacity: 0.35"/>
     <use xlink:href="#mafd0f98105" x="279.612273" y="258.521092" style="fill: #0072b2; fill-opacity: 0.35"/>
     <use xlink:href="#mafd0f98105" x="260.119042" y="263.462986" style="fill: #0072b2; fill-opacity: 0.35"/>
     <use xlink:href="#mafd0f98105" x="262.439828" y="251.191448" style="fill: #0072b2; fill-opacity: 0.35"/>
     <use xlink:href="#mafd0f98105" x="280.747542" y="231.881455" style="fill: #0072b2; fill-opacity: 0.35"/>
     <use xlink:href="#mafd0f98105" x="279.918644" y="265.958891" style="fill: #0072b2; fill-opacity: 0.35"/>
     <use xlink:href="#mafd0f98105" x="265.578786" y="210.225311" style="fill: #0072b2; fill-opacity: 0.35"/>
     <use xlink:href="#mafd0f98105" x="273.156426" y="238.429049" style="fill: #0072b2; fill-opacity: 0.35"/>
     <use xlink:href="#mafd0f98105" x="275.068985" y="248.48755" style="fill: #0072b2; fill-opacity: 0.35"/>
     <use xlink:href="#mafd0f98105" x="281.721289" y="253.961903" style="fill: #0072b2; fill-opacity: 0.35"/>
     <use xlink:href="#mafd0f98105" x="274.995054" y="215.807821" style="fill: #0072b2; fill-opacity: 0.35"/>
     <use xlink:href="#mafd0f98105" x="270.152148" y="265.47635" style="fill: #0072b2; fill-opacity: 0.35"/>
     <use xlink:href="#mafd0f98105" x="269.176439" y="255.966948" style="fill: #0072b2; fill-opacity: 0.35"/>
     <use xlink:href="#mafd0f98105" x="270.490466" y="240.550569" style="fill: #0072b2; fill-opacity: 0.35"/>
     <use xlink:href="#mafd0f98105" x="276.236027" y="219.676475" style="fill: #0072b2; fill-opacity: 0.35"/>
     <use xlink:href="#mafd0f98105" x="281.714977" y="250.001733" style="fill: #0072b2; fill-opacity: 0.35"/>
     <use xlink:href="#mafd0f98105" x="271.202527" y="223.25394" style="fill: #0072b2; fill-opacity: 0.35"/>
     <use xlink:href="#mafd0f98105" x="265.965099" y="257.847197" style="fill: #0072b2; fill-opacity: 0.35"/>
     <use xlink:href="#mafd0f98105" x="265.681005" y="222.388693" style="fill: #0072b2; fill-opacity: 0.35"/>
     <use xlink:href="#mafd0f98105" x="278.627372" y="259.835602" style="fill: #0072b2; fill-opacity: 0.35"/>
     <use xlink:href="#mafd0f98105" x="280.420679" y="227.996162" style="fill: #0072b2; fill-opacity: 0.35"/>
     <use xlink:href="#mafd0f98105" x="262.341567" y="254.877069" style="fill: #0072b2; fill-opacity: 0.35"/>
     <use xlink:href="#mafd0f98105" x="261.357427" y="190.124948" style="fill: #0072b2; fill-opacity: 0.35"/>
     <use xlink:href="#mafd0f98105" x="274.774597" y="254.186535" style="fill: #0072b2; fill-opacity: 0.35"/>
     <use xlink:href="#mafd0f98105" x="263.381013" y="253.437763" style="fill: #0072b2; fill-opacity: 0.35"/>
     <use xlink:href="#mafd0f98105" x="280.626443" y="243.487418" style="fill: #0072b2; fill-opacity: 0.35"/>
     <use xlink:href="#mafd0f98105" x="267.553558" y="249.693904" style="fill: #0072b2; fill-opacity: 0.35"/>
     <use xlink:href="#mafd0f98105" x="263.322519" y="258.945396" style="fill: #0072b2; fill-opacity: 0.35"/>
     <use xlink:href="#mafd0f98105" x="283.074292" y="231.348995" style="fill: #0072b2; fill-opacity: 0.35"/>
     <use xlink:href="#mafd0f98105" x="263.873054" y="262.331508" style="fill: #0072b2; fill-opacity: 0.35"/>
     <use xlink:href="#mafd0f98105" x="266.902504" y="255.991907" style="fill: #0072b2; fill-opacity: 0.35"/>
     <use xlink:href="#mafd0f98105" x="263.570121" y="247.289515" style="fill: #0072b2; fill-opacity: 0.35"/>
     <use xlink:href="#mafd0f98105" x="262.601128" y="255.742316" style="fill: #0072b2; fill-opacity: 0.35"/>
     <use xlink:href="#mafd0f98105" x="260.203205" y="232.239202" style="fill: #0072b2; fill-opacity: 0.35"/>
     <use xlink:href="#mafd0f98105" x="261.073682" y="236.914866" style="fill: #0072b2; fill-opacity: 0.35"/>
     <use xlink:href="#mafd0f98105" x="264.104599" y="263.388108" style="fill: #0072b2; fill-opacity: 0.35"/>
     <use xlink:href="#mafd0f98105" x="261.022505" y="253.288009" style="fill: #0072b2; fill-opacity: 0.35"/>
     <use xlink:href="#mafd0f98105" x="274.690978" y="219.651516" style="fill: #0072b2; fill-opacity: 0.35"/>
     <use xlink:href="#mafd0f98105" x="276.967627" y="235.359084" style="fill: #0072b2; fill-opacity: 0.35"/>
     <use xlink:href="#mafd0f98105" x="269.670715" y="246.940088" style="fill: #0072b2; fill-opacity: 0.35"/>
     <use xlink:href="#mafd0f98105" x="267.748164" y="210.774411" style="fill: #0072b2; fill-opacity: 0.35"/>
     <use xlink:href="#mafd0f98105" x="272.48939" y="201.406443" style="fill: #0072b2; fill-opacity: 0.35"/>
     <use xlink:href="#mafd0f98105" x="281.905971" y="236.515521" style="fill: #0072b2; fill-opacity: 0.35"/>
     <use xlink:href="#mafd0f98105" x="281.299175" y="256.149981" style="fill: #0072b2; fill-opacity: 0.35"/>
     <use xlink:href="#mafd0f98105" x="260.770699" y="259.794004" style="fill: #0072b2; fill-opacity: 0.35"/>
     <use xlink:href="#mafd0f98105" x="264.278884" y="207.33838" style="fill: #0072b2; fill-opacity: 0.35"/>
     <use xlink:href="#mafd0f98105" x="265.683102" y="239.219419" style="fill: #0072b2; fill-opacity: 0.35"/>
     <use xlink:href="#mafd0f98105" x="266.004446" y="247.913491" style="fill: #0072b2; fill-opacity: 0.35"/>
     <use xlink:href="#mafd0f98105" x="274.184889" y="238.204417" style="fill: #0072b2; fill-opacity: 0.35"/>
     <use xlink:href="#mafd0f98105" x="270.245959" y="263.596101" style="fill: #0072b2; fill-opacity: 0.35"/>
     <use xlink:href="#mafd0f98105" x="260.917587" y="229.843132" style="fill: #0072b2; fill-opacity: 0.35"/>
     <use xlink:href="#mafd0f98105" x="269.161954" y="253.995182" style="fill: #0072b2; fill-opacity: 0.35"/>
     <use xlink:href="#mafd0f98105" x="272.978082" y="265.043726" style="fill: #0072b2; fill-opacity: 0.35"/>
     <use xlink:href="#mafd0f98105" x="262.249907" y="210.649615" style="fill: #0072b2; fill-opacity: 0.35"/>
     <use xlink:href="#mafd0f98105" x="280.849972" y="263.920568" style="fill: #0072b2; fill-opacity: 0.35"/>
     <use xlink:href="#mafd0f98105" x="260.986411" y="240.051388" style="fill: #0072b2; fill-opacity: 0.35"/>
     <use xlink:href="#mafd0f98105" x="283.172693" y="243.279426" style="fill: #0072b2; fill-opacity: 0.35"/>
     <use xlink:href="#mafd0f98105" x="262.18487" y="220.824592" style="fill: #0072b2; fill-opacity: 0.35"/>
     <use xlink:href="#mafd0f98105" x="281.107104" y="273.721159" style="fill: #0072b2; fill-opacity: 0.35"/>
     <use xlink:href="#mafd0f98105" x="282.608714" y="263.62106" style="fill: #0072b2; fill-opacity: 0.35"/>
     <use xlink:href="#mafd0f98105" x="284.563753" y="255.11834" style="fill: #0072b2; fill-opacity: 0.35"/>
     <use xlink:href="#mafd0f98105" x="280.051038" y="248.237959" style="fill: #0072b2; fill-opacity: 0.35"/>
     <use xlink:href="#mafd0f98105" x="279.477919" y="253.462722" style="fill: #0072b2; fill-opacity: 0.35"/>
     <use xlink:href="#mafd0f98105" x="275.99589" y="262.298229" style="fill: #0072b2; fill-opacity: 0.35"/>
    </g>
   </g>
   <g id="PathCollection_4">
    <defs>
     <path id="maff2cbcf6f" d="M 0 1.581139 
C 0.419323 1.581139 0.821528 1.41454 1.118034 1.118034 
C 1.41454 0.821528 1.581139 0.419323 1.581139 0 
C 1.581139 -0.419323 1.41454 -0.821528 1.118034 -1.118034 
C 0.821528 -1.41454 0.419323 -1.581139 0 -1.581139 
C -0.419323 -1.581139 -0.821528 -1.41454 -1.118034 -1.118034 
C -1.41454 -0.821528 -1.581139 -0.419323 -1.581139 0 
C -1.581139 0.419323 -1.41454 0.821528 -1.118034 1.118034 
C -0.821528 1.41454 -0.419323 1.581139 0 1.581139 
z
"/>
    </defs>
    <g clip-path="url(#pbf8a0069dc)">
     <use xlink:href="#maff2cbcf6f" x="370.241879" y="267.248443" style="fill: #d55e00; fill-opacity: 0.35"/>
     <use xlink:href="#maff2cbcf6f" x="353.861827" y="266.383196" style="fill: #d55e00; fill-opacity: 0.35"/>
     <use xlink:href="#maff2cbcf6f" x="364.067289" y="275.942515" style="fill: #d55e00; fill-opacity: 0.35"/>
     <use xlink:href="#maff2cbcf6f" x="363.512043" y="243.4375" style="fill: #d55e00; fill-opacity: 0.35"/>
     <use xlink:href="#maff2cbcf6f" x="372.239066" y="278.604815" style="fill: #d55e00; fill-opacity: 0.35"/>
     <use xlink:href="#maff2cbcf6f" x="362.204995" y="265.45971" style="fill: #d55e00; fill-opacity: 0.35"/>
     <use xlink:href="#maff2cbcf6f" x="360.229817" y="245.717094" style="fill: #d55e00; fill-opacity: 0.35"/>
     <use xlink:href="#maff2cbcf6f" x="366.697862" y="264.453028" style="fill: #d55e00; fill-opacity: 0.35"/>
     <use xlink:href="#maff2cbcf6f" x="357.214656" y="269.120372" style="fill: #d55e00; fill-opacity: 0.35"/>
     <use xlink:href="#maff2cbcf6f" x="353.994409" y="264.070323" style="fill: #d55e00; fill-opacity: 0.35"/>
     <use xlink:href="#maff2cbcf6f" x="362.588235" y="262.456303" style="fill: #d55e00; fill-opacity: 0.35"/>
     <use xlink:href="#maff2cbcf6f" x="361.038085" y="253.662395" style="fill: #d55e00; fill-opacity: 0.35"/>
     <use xlink:href="#maff2cbcf6f" x="356.353177" y="254.486044" style="fill: #d55e00; fill-opacity: 0.35"/>
     <use xlink:href="#maff2cbcf6f" x="359.783039" y="265.875695" style="fill: #d55e00; fill-opacity: 0.35"/>
     <use xlink:href="#maff2cbcf6f" x="359.754588" y="264.769176" style="fill: #d55e00; fill-opacity: 0.35"/>
     <use xlink:href="#maff2cbcf6f" x="358.765933" y="267.606189" style="fill: #d55e00; fill-opacity: 0.35"/>
     <use xlink:href="#maff2cbcf6f" x="360.086834" y="268.795905" style="fill: #d55e00; fill-opacity: 0.35"/>
     <use xlink:href="#maff2cbcf6f" x="367.871636" y="266.324958" style="fill: #d55e00; fill-opacity: 0.35"/>
     <use xlink:href="#maff2cbcf6f" x="357.987677" y="259.045232" style="fill: #d55e00; fill-opacity: 0.35"/>
     <use xlink:href="#maff2cbcf6f" x="374.559307" y="261.100195" style="fill: #d55e00; fill-opacity: 0.35"/>
     <use xlink:href="#maff2cbcf6f" x="373.732992" y="259.810643" style="fill: #d55e00; fill-opacity: 0.35"/>
     <use xlink:href="#maff2cbcf6f" x="362.66533" y="276.957517" style="fill: #d55e00; fill-opacity: 0.35"/>
     <use xlink:href="#maff2cbcf6f" x="358.787935" y="266.100326" style="fill: #d55e00; fill-opacity: 0.35"/>
     <use xlink:href="#maff2cbcf6f" x="364.051194" y="254.128297" style="fill: #d55e00; fill-opacity: 0.35"/>
     <use xlink:href="#maff2cbcf6f" x="372.010014" y="220.899469" style="fill: #d55e00; fill-opacity: 0.35"/>
     <use xlink:href="#maff2cbcf6f" x="367.028899" y="275.243662" style="fill: #d55e00; fill-opacity: 0.35"/>
     <use xlink:href="#maff2cbcf6f" x="370.887364" y="261.374744" style="fill: #d55e00; fill-opacity: 0.35"/>
     <use xlink:href="#maff2cbcf6f" x="363.982249" y="270.534719" style="fill: #d55e00; fill-opacity: 0.35"/>
     <use xlink:href="#maff2cbcf6f" x="366.528947" y="262.131836" style="fill: #d55e00; fill-opacity: 0.35"/>
     <use xlink:href="#maff2cbcf6f" x="357.766016" y="267.8641" style="fill: #d55e00; fill-opacity: 0.35"/>
     <use xlink:href="#maff2cbcf6f" x="369.120894" y="263.471305" style="fill: #d55e00; fill-opacity: 0.35"/>
     <use xlink:href="#maff2cbcf6f" x="355.586454" y="263.962167" style="fill: #d55e00; fill-opacity: 0.35"/>
     <use xlink:href="#maff2cbcf6f" x="368.101785" y="263.629379" style="fill: #d55e00; fill-opacity: 0.35"/>
     <use xlink:href="#maff2cbcf6f" x="372.319053" y="258.321419" style="fill: #d55e00; fill-opacity: 0.35"/>
     <use xlink:href="#maff2cbcf6f" x="353.799571" y="264.502946" style="fill: #d55e00; fill-opacity: 0.35"/>
     <use xlink:href="#maff2cbcf6f" x="366.057764" y="240.359216" style="fill: #d55e00; fill-opacity: 0.35"/>
     <use xlink:href="#maff2cbcf6f" x="352.858949" y="266.582868" style="fill: #d55e00; fill-opacity: 0.35"/>
     <use xlink:href="#maff2cbcf6f" x="368.887625" y="256.599244" style="fill: #d55e00; fill-opacity: 0.35"/>
     <use xlink:href="#maff2cbcf6f" x="352.589461" y="263.022042" style="fill: #d55e00; fill-opacity: 0.35"/>
     <use xlink:href="#maff2cbcf6f" x="374.230964" y="252.214769" style="fill: #d55e00; fill-opacity: 0.35"/>
     <use xlink:href="#maff2cbcf6f" x="353.934412" y="276.766164" style="fill: #d55e00; fill-opacity: 0.35"/>
     <use xlink:href="#maff2cbcf6f" x="374.814048" y="267.131967" style="fill: #d55e00; fill-opacity: 0.35"/>
     <use xlink:href="#maff2cbcf6f" x="370.798209" y="261.516179" style="fill: #d55e00; fill-opacity: 0.35"/>
     <use xlink:href="#maff2cbcf6f" x="365.531682" y="270.401604" style="fill: #d55e00; fill-opacity: 0.35"/>
     <use xlink:href="#maff2cbcf6f" x="370.334087" y="265.99217" style="fill: #d55e00; fill-opacity: 0.35"/>
     <use xlink:href="#maff2cbcf6f" x="370.651568" y="254.84379" style="fill: #d55e00; fill-opacity: 0.35"/>
     <use xlink:href="#maff2cbcf6f" x="374.487354" y="252.946902" style="fill: #d55e00; fill-opacity: 0.35"/>
     <use xlink:href="#maff2cbcf6f" x="356.882198" y="263.271633" style="fill: #d55e00; fill-opacity: 0.35"/>
     <use xlink:href="#maff2cbcf6f" x="365.440025" y="258.912117" style="fill: #d55e00; fill-opacity: 0.35"/>
     <use xlink:href="#maff2cbcf6f" x="352.857766" y="248.387713" style="fill: #d55e00; fill-opacity: 0.35"/>
     <use xlink:href="#maff2cbcf6f" x="366.103158" y="267.032131" style="fill: #d55e00; fill-opacity: 0.35"/>
     <use xlink:href="#maff2cbcf6f" x="354.795637" y="270.085456" style="fill: #d55e00; fill-opacity: 0.35"/>
     <use xlink:href="#maff2cbcf6f" x="364.801407" y="251.233046" style="fill: #d55e00; fill-opacity: 0.35"/>
     <use xlink:href="#maff2cbcf6f" x="364.991526" y="245.675496" style="fill: #d55e00; fill-opacity: 0.35"/>
     <use xlink:href="#maff2cbcf6f" x="362.285969" y="271.890828" style="fill: #d55e00; fill-opacity: 0.35"/>
     <use xlink:href="#maff2cbcf6f" x="363.725775" y="239.152861" style="fill: #d55e00; fill-opacity: 0.35"/>
     <use xlink:href="#maff2cbcf6f" x="369.858764" y="248.237959" style="fill: #d55e00; fill-opacity: 0.35"/>
     <use xlink:href="#maff2cbcf6f" x="370.756538" y="239.801797" style="fill: #d55e00; fill-opacity: 0.35"/>
     <use xlink:href="#maff2cbcf6f" x="362.951091" y="257.855517" style="fill: #d55e00; fill-opacity: 0.35"/>
     <use xlink:href="#maff2cbcf6f" x="365.681935" y="254.31965" style="fill: #d55e00; fill-opacity: 0.35"/>
     <use xlink:href="#maff2cbcf6f" x="374.111411" y="259.419618" style="fill: #d55e00; fill-opacity: 0.35"/>
     <use xlink:href="#maff2cbcf6f" x="353.485178" y="257.947033" style="fill: #d55e00; fill-opacity: 0.35"/>
     <use xlink:href="#maff2cbcf6f" x="353.418329" y="258.246542" style="fill: #d55e00; fill-opacity: 0.35"/>
     <use xlink:href="#maff2cbcf6f" x="352.671198" y="259.10347" style="fill: #d55e00; fill-opacity: 0.35"/>
     <use xlink:href="#maff2cbcf6f" x="367.162999" y="261.982081" style="fill: #d55e00; fill-opacity: 0.35"/>
     <use xlink:href="#maff2cbcf6f" x="361.081776" y="268.305043" style="fill: #d55e00; fill-opacity: 0.35"/>
     <use xlink:href="#maff2cbcf6f" x="370.123055" y="267.997215" style="fill: #d55e00; fill-opacity: 0.35"/>
     <use xlink:href="#maff2cbcf6f" x="367.502782" y="275.634687" style="fill: #d55e00; fill-opacity: 0.35"/>
     <use xlink:href="#maff2cbcf6f" x="358.922051" y="248.687222" style="fill: #d55e00; fill-opacity: 0.35"/>
     <use xlink:href="#maff2cbcf6f" x="373.275951" y="248.054926" style="fill: #d55e00; fill-opacity: 0.35"/>
     <use xlink:href="#maff2cbcf6f" x="369.823403" y="273.43829" style="fill: #d55e00; fill-opacity: 0.35"/>
     <use xlink:href="#maff2cbcf6f" x="357.318146" y="225.358821" style="fill: #d55e00; fill-opacity: 0.35"/>
     <use xlink:href="#maff2cbcf6f" x="359.698659" y="243.820206" style="fill: #d55e00; fill-opacity: 0.35"/>
     <use xlink:href="#maff2cbcf6f" x="358.434095" y="264.869013" style="fill: #d55e00; fill-opacity: 0.35"/>
     <use xlink:href="#maff2cbcf6f" x="354.447937" y="260.251587" style="fill: #d55e00; fill-opacity: 0.35"/>
     <use xlink:href="#maff2cbcf6f" x="354.198128" y="258.30478" style="fill: #d55e00; fill-opacity: 0.35"/>
     <use xlink:href="#maff2cbcf6f" x="374.235733" y="258.338059" style="fill: #d55e00; fill-opacity: 0.35"/>
     <use xlink:href="#maff2cbcf6f" x="361.572222" y="225.317223" style="fill: #d55e00; fill-opacity: 0.35"/>
     <use xlink:href="#maff2cbcf6f" x="360.184837" y="259.028593" style="fill: #d55e00; fill-opacity: 0.35"/>
     <use xlink:href="#maff2cbcf6f" x="368.988534" y="255.251455" style="fill: #d55e00; fill-opacity: 0.35"/>
     <use xlink:href="#maff2cbcf6f" x="364.497478" y="271.216933" style="fill: #d55e00; fill-opacity: 0.35"/>
     <use xlink:href="#maff2cbcf6f" x="374.236051" y="272.473206" style="fill: #d55e00; fill-opacity: 0.35"/>
     <use xlink:href="#maff2cbcf6f" x="370.275052" y="263.587781" style="fill: #d55e00; fill-opacity: 0.35"/>
     <use xlink:href="#maff2cbcf6f" x="362.626165" y="267.897378" style="fill: #d55e00; fill-opacity: 0.35"/>
     <use xlink:href="#maff2cbcf6f" x="360.007923" y="266.216802" style="fill: #d55e00; fill-opacity: 0.35"/>
     <use xlink:href="#maff2cbcf6f" x="375.519412" y="268.854142" style="fill: #d55e00; fill-opacity: 0.35"/>
     <use xlink:href="#maff2cbcf6f" x="368.68542" y="259.544413" style="fill: #d55e00; fill-opacity: 0.35"/>
     <use xlink:href="#maff2cbcf6f" x="374.618701" y="270.667834" style="fill: #d55e00; fill-opacity: 0.35"/>
     <use xlink:href="#maff2cbcf6f" x="353.453279" y="261.799048" style="fill: #d55e00; fill-opacity: 0.35"/>
     <use xlink:href="#maff2cbcf6f" x="372.060167" y="235.983061" style="fill: #d55e00; fill-opacity: 0.35"/>
     <use xlink:href="#maff2cbcf6f" x="366.634588" y="269.361643" style="fill: #d55e00; fill-opacity: 0.35"/>
     <use xlink:href="#maff2cbcf6f" x="353.540793" y="260.908842" style="fill: #d55e00; fill-opacity: 0.35"/>
     <use xlink:href="#maff2cbcf6f" x="365.393819" y="271.83259" style="fill: #d55e00; fill-opacity: 0.35"/>
     <use xlink:href="#maff2cbcf6f" x="367.880609" y="268.92902" style="fill: #d55e00; fill-opacity: 0.35"/>
     <use xlink:href="#maff2cbcf6f" x="350.754571" y="242.031473" style="fill: #d55e00; fill-opacity: 0.35"/>
     <use xlink:href="#maff2cbcf6f" x="361.98942" y="255.534324" style="fill: #d55e00; fill-opacity: 0.35"/>
     <use xlink:href="#maff2cbcf6f" x="371.421324" y="266.191843" style="fill: #d55e00; fill-opacity: 0.35"/>
     <use xlink:href="#maff2cbcf6f" x="357.949108" y="261.724171" style="fill: #d55e00; fill-opacity: 0.35"/>
     <use xlink:href="#maff2cbcf6f" x="362.096938" y="265.900654" style="fill: #d55e00; fill-opacity: 0.35"/>
     <use xlink:href="#maff2cbcf6f" x="361.684315" y="258.762363" style="fill: #d55e00; fill-opacity: 0.35"/>
    </g>
   </g>
   <g id="line2d_11">
    <path d="M 90.821964 79.581273 
L 90.821964 74.589461 
L 181.598155 74.589461 
L 181.598155 79.581273 
" clip-path="url(#pbf8a0069dc)" style="fill: none; stroke: #272727; stroke-width: 0.8; stroke-linecap: square"/>
   </g>
   <g id="line2d_12">
    <path d="M 90.821964 64.605837 
L 90.821964 59.614025 
L 272.374345 59.614025 
L 272.374345 64.605837 
" clip-path="url(#pbf8a0069dc)" style="fill: none; stroke: #272727; stroke-width: 0.8; stroke-linecap: square"/>
   </g>
   <g id="line2d_13">
    <path d="M 90.821964 49.630401 
L 90.821964 44.63859 
L 363.150536 44.63859 
L 363.150536 49.630401 
" clip-path="url(#pbf8a0069dc)" style="fill: none; stroke: #272727; stroke-width: 0.8; stroke-linecap: square"/>
   </g>
   <g id="patch_3">
    <path d="M 36.35625 281.65814 
L 36.35625 81.985663 
" style="fill: none; stroke: #000000; stroke-width: 0.8; stroke-linejoin: miter; stroke-linecap: square"/>
   </g>
   <g id="patch_4">
    <path d="M 36.35625 288.348 
L 417.61625 288.348 
" style="fill: none; stroke: #000000; stroke-width: 0.8; stroke-linejoin: miter; stroke-linecap: square"/>
   </g>
   <g id="patch_5">
    <path d="M 82.652107 222.625804 
L 98.991821 222.625804 
L 98.991821 189.01635 
L 82.652107 189.01635 
z
" clip-path="url(#pbf8a0069dc)" style="fill: #ffffff; stroke: #767676; stroke-width: 1.2; stroke-linejoin: miter"/>
   </g>
   <g id="LineCollection_1">
    <path d="M 90.821964 257.788959 
L 90.821964 222.625804 
" clip-path="url(#pbf8a0069dc)" style="fill: none; stroke: #767676"/>
   </g>
   <g id="LineCollection_2">
    <path d="M 90.821964 189.01635 
L 90.821964 140.339944 
" clip-path="url(#pbf8a0069dc)" style="fill: none; stroke: #767676"/>
   </g>
   <g id="LineCollection_3">
    <path d="M 86.737036 257.788959 
L 94.906893 257.788959 
" clip-path="url(#pbf8a0069dc)" style="fill: none; stroke: #767676"/>
    <path d="M 86.737036 140.339944 
L 94.906893 140.339944 
" clip-path="url(#pbf8a0069dc)" style="fill: none; stroke: #767676"/>
   </g>
   <g id="patch_6">
    <path d="M 173.428298 240.392495 
L 189.768012 240.392495 
L 189.768012 213.781977 
L 173.428298 213.781977 
z
" clip-path="url(#pbf8a0069dc)" style="fill: #ffffff; stroke: #56b4e9; stroke-width: 1.2; stroke-linejoin: miter"/>
   </g>
   <g id="LineCollection_4">
    <path d="M 181.598155 256.798917 
L 181.598155 240.392495 
" clip-path="url(#pbf8a0069dc)" style="fill: none; stroke: #56b4e9"/>
   </g>
   <g id="LineCollection_5">
    <path d="M 181.598155 213.781977 
L 181.598155 182.620591 
" clip-path="url(#pbf8a0069dc)" style="fill: none; stroke: #56b4e9"/>
   </g>
   <g id="LineCollection_6">
    <path d="M 177.513226 256.798917 
L 185.683083 256.798917 
" clip-path="url(#pbf8a0069dc)" style="fill: none; stroke: #56b4e9"/>
    <path d="M 177.513226 182.620591 
L 185.683083 182.620591 
" clip-path="url(#pbf8a0069dc)" style="fill: none; stroke: #56b4e9"/>
   </g>
   <g id="patch_7">
    <path d="M 264.204488 256.031425 
L 280.544202 256.031425 
L 280.544202 231.23668 
L 264.204488 231.23668 
z
" clip-path="url(#pbf8a0069dc)" style="fill: #ffffff; stroke: #0072b2; stroke-width: 1.2; stroke-linejoin: miter"/>
   </g>
   <g id="LineCollection_7">
    <path d="M 272.374345 273.721159 
L 272.374345 256.031425 
" clip-path="url(#pbf8a0069dc)" style="fill: none; stroke: #0072b2"/>
   </g>
   <g id="LineCollection_8">
    <path d="M 272.374345 231.23668 
L 272.374345 201.406443 
" clip-path="url(#pbf8a0069dc)" style="fill: none; stroke: #0072b2"/>
   </g>
   <g id="LineCollection_9">
    <path d="M 268.289417 273.721159 
L 276.459274 273.721159 
" clip-path="url(#pbf8a0069dc)" style="fill: none; stroke: #0072b2"/>
    <path d="M 268.289417 201.406443 
L 276.459274 201.406443 
" clip-path="url(#pbf8a0069dc)" style="fill: none; stroke: #0072b2"/>
   </g>
   <g id="patch_8">
    <path d="M 354.980679 267.33788 
L 371.320393 267.33788 
L 371.320393 255.463607 
L 354.980679 255.463607 
z
" clip-path="url(#pbf8a0069dc)" style="fill: #ffffff; stroke: #d55e00; stroke-width: 1.2; stroke-linejoin: miter"/>
   </g>
   <g id="LineCollection_10">
    <path d="M 363.150536 278.604815 
L 363.150536 267.33788 
" clip-path="url(#pbf8a0069dc)" style="fill: none; stroke: #d55e00"/>
   </g>
   <g id="LineCollection_11">
    <path d="M 363.150536 255.463607 
L 363.150536 239.152861 
" clip-path="url(#pbf8a0069dc)" style="fill: none; stroke: #d55e00"/>
   </g>
   <g id="LineCollection_12">
    <path d="M 359.065607 278.604815 
L 367.235464 278.604815 
" clip-path="url(#pbf8a0069dc)" style="fill: none; stroke: #d55e00"/>
    <path d="M 359.065607 239.152861 
L 367.235464 239.152861 
" clip-path="url(#pbf8a0069dc)" style="fill: none; stroke: #d55e00"/>
   </g>
   <g id="text_12">
    <text style="font-size: 8px; font-family: 'Arial', 'Helvetica', 'DejaVu Sans', 'Liberation Sans', sans-serif; text-anchor: middle; fill: #272727" x="136.21006" y="72.167493" transform="rotate(-0 136.21006 72.167493)">***</text>
   </g>
   <g id="text_13">
    <text style="font-size: 8px; font-family: 'Arial', 'Helvetica', 'DejaVu Sans', 'Liberation Sans', sans-serif; text-anchor: middle; fill: #272727" x="181.598155" y="57.192057" transform="rotate(-0 181.598155 57.192057)">***</text>
   </g>
   <g id="text_14">
    <text style="font-size: 8px; font-family: 'Arial', 'Helvetica', 'DejaVu Sans', 'Liberation Sans', sans-serif; text-anchor: middle; fill: #272727" x="226.98625" y="42.216621" transform="rotate(-0 226.98625 42.216621)">***</text>
   </g>
   <g id="LineCollection_13">
    <path d="M 82.652107 211.693736 
L 98.991821 211.693736 
" clip-path="url(#pbf8a0069dc)" style="fill: none; stroke: #767676; stroke-width: 2"/>
   </g>
   <g id="LineCollection_14">
    <path d="M 173.428298 225.225706 
L 189.768012 225.225706 
" clip-path="url(#pbf8a0069dc)" style="fill: none; stroke: #56b4e9; stroke-width: 2"/>
   </g>
   <g id="LineCollection_15">
    <path d="M 264.204488 248.075725 
L 280.544202 248.075725 
" clip-path="url(#pbf8a0069dc)" style="fill: none; stroke: #0072b2; stroke-width: 2"/>
   </g>
   <g id="LineCollection_16">
    <path d="M 354.980679 262.29407 
L 371.320393 262.29407 
" clip-path="url(#pbf8a0069dc)" style="fill: none; stroke: #d55e00; stroke-width: 2"/>
   </g>
  </g>
 </g>
 <defs>
  <clipPath id="pbf8a0069dc">
   <rect x="36.35625" y="7.2" width="381.26" height="281.148"/>
  </clipPath>
 </defs>
</svg>
