<?xml version="1.0" encoding="utf-8" standalone="no"?>
<!DOCTYPE svg PUBLIC "-//W3C//DTD SVG 1.1//EN"
  "http://www.w3.org/Graphics/SVG/1.1/DTD/svg11.dtd">
<svg xmlns:xlink="http://www.w3.org/1999/xlink" width="495.516875pt" height="352.435531pt" viewBox="0 0 495.516875 352.435531" xmlns="http://www.w3.org/2000/svg" version="1.1">
 <metadata>
  <rdf:RDF xmlns:dc="http://purl.org/dc/elements/1.1/" xmlns:cc="http://creativecommons.org/ns#" xmlns:rdf="http://www.w3.org/1999/02/22-rdf-syntax-ns#">
   <cc:Work>
    <dc:type rdf:resource="http://purl.org/dc/dcmitype/StillImage"/>
    <dc:date>2026-05-24T23:04:05.678155</dc:date>
    <dc:format>image/svg+xml</dc:format>
    <dc:creator>
     <cc:Agent>
      <dc:title>Matplotlib v3.9.4, https://matplotlib.org/</dc:title>
     </cc:Agent>
    </dc:creator>
   </cc:Work>
  </rdf:RDF>
 </metadata>
 <defs>
  <style type="text/css">*{stroke-linejoin: round; stroke-linecap: butt}</style>
 </defs>
 <g id="figure_1">
  <g id="patch_1">
   <path d="M 0 352.435531 
L 495.516875 352.435531 
L 495.516875 0 
L 0 0 
z
" style="fill: #ffffff"/>
  </g>
  <g id="axes_1">
   <g id="patch_2">
    <path d="M 45.716875 315.272 
L 488.316875 315.272 
L 488.316875 7.2 
L 45.716875 7.2 
z
" style="fill: #ffffff"/>
   </g>
   <g id="PolyCollection_1">
    <path d="M 113.5049 272.527976 
L 104.385993 272.527976 
L 103.694266 270.460598 
L 102.934999 268.393221 
L 102.102824 266.325843 
L 101.191779 264.258465 
L 100.195718 262.191087 
L 99.108924 260.123709 
L 97.926894 258.056332 
L 96.647274 255.988954 
L 95.270859 253.921576 
L 93.802593 251.854198 
L 92.252464 249.786821 
L 90.636167 247.719443 
L 88.975435 245.652065 
L 87.297925 243.584687 
L 85.636587 241.517309 
L 84.028493 239.449932 
L 82.513159 237.382554 
L 81.13046 235.315176 
L 79.918304 233.247798 
L 78.910268 231.18042 
L 78.133442 229.113043 
L 77.606666 227.045665 
L 77.339381 224.978287 
L 77.331161 222.910909 
L 77.571982 220.843532 
L 78.043161 218.776154 
L 78.718833 216.708776 
L 79.567807 214.641398 
L 80.555596 212.57402 
L 81.646433 210.506643 
L 82.805124 208.439265 
L 83.998621 206.371887 
L 85.197257 204.304509 
L 86.375609 202.237132 
L 87.513025 200.169754 
L 88.593825 198.102376 
L 89.607256 196.034998 
L 90.547222 193.96762 
L 91.411868 191.900243 
L 92.203047 189.832865 
L 92.925723 187.765487 
L 93.587337 185.698109 
L 94.197176 183.630731 
L 94.76576 181.563354 
L 95.304248 179.495976 
L 95.823882 177.428598 
L 96.335446 175.36122 
L 96.848743 173.293843 
L 97.372098 171.226465 
L 97.911886 169.159087 
L 98.472136 167.091709 
L 99.054221 165.024331 
L 99.656717 162.956954 
L 100.275435 160.889576 
L 100.903674 158.822198 
L 101.532685 156.75482 
L 102.15231 154.687443 
L 102.751744 152.620065 
L 103.320339 150.552687 
L 103.84837 148.485309 
L 104.327692 146.417931 
L 104.752234 144.350554 
L 105.118303 142.283176 
L 105.42471 140.215798 
L 105.672728 138.14842 
L 105.865937 136.081042 
L 106.009955 134.013665 
L 106.112125 131.946287 
L 106.181127 129.878909 
L 106.226546 127.811531 
L 106.258388 125.744154 
L 106.286541 123.676776 
L 106.320209 121.609398 
L 106.367342 119.54202 
L 106.434122 117.474642 
L 106.524555 115.407265 
L 106.640225 113.339887 
L 106.780247 111.272509 
L 106.941439 109.205131 
L 107.118695 107.137754 
L 107.305521 105.070376 
L 107.49466 103.002998 
L 107.678749 100.93562 
L 107.850929 98.868242 
L 108.005349 96.800865 
L 108.137534 94.733487 
L 108.244599 92.666109 
L 108.325317 90.598731 
L 108.380063 88.531353 
L 108.410648 86.463976 
L 108.420099 84.396598 
L 108.412378 82.32922 
L 108.392079 80.261842 
L 108.364115 78.194465 
L 108.333395 76.127087 
L 108.304527 74.059709 
L 108.281532 71.992331 
L 108.267621 69.924953 
L 108.26502 67.857576 
L 109.625873 67.857576 
L 109.625873 67.857576 
L 109.623272 69.924953 
L 109.609361 71.992331 
L 109.586366 74.059709 
L 109.557497 76.127087 
L 109.526778 78.194465 
L 109.498813 80.261842 
L 109.478515 82.32922 
L 109.470794 84.396598 
L 109.480245 86.463976 
L 109.51083 88.531353 
L 109.565575 90.598731 
L 109.646294 92.666109 
L 109.753359 94.733487 
L 109.885544 96.800865 
L 110.039964 98.868242 
L 110.212144 100.93562 
L 110.396233 103.002998 
L 110.585372 105.070376 
L 110.772198 107.137754 
L 110.949454 109.205131 
L 111.110646 111.272509 
L 111.250668 113.339887 
L 111.366338 115.407265 
L 111.456771 117.474642 
L 111.523551 119.54202 
L 111.570684 121.609398 
L 111.604352 123.676776 
L 111.632505 125.744154 
L 111.664347 127.811531 
L 111.709766 129.878909 
L 111.778767 131.946287 
L 111.880937 134.013665 
L 112.024956 136.081042 
L 112.218164 138.14842 
L 112.466183 140.215798 
L 112.772589 142.283176 
L 113.138658 144.350554 
L 113.5632 146.417931 
L 114.042523 148.485309 
L 114.570554 150.552687 
L 115.139149 152.620065 
L 115.738582 154.687443 
L 116.358208 156.75482 
L 116.987219 158.822198 
L 117.615458 160.889576 
L 118.234176 162.956954 
L 118.836672 165.024331 
L 119.418757 167.091709 
L 119.979007 169.159087 
L 120.518795 171.226465 
L 121.04215 173.293843 
L 121.555447 175.36122 
L 122.067011 177.428598 
L 122.586645 179.495976 
L 123.125133 181.563354 
L 123.693717 183.630731 
L 124.303556 185.698109 
L 124.965169 187.765487 
L 125.687845 189.832865 
L 126.479025 191.900243 
L 127.343671 193.96762 
L 128.283637 196.034998 
L 129.297067 198.102376 
L 130.377868 200.169754 
L 131.515284 202.237132 
L 132.693636 204.304509 
L 133.892272 206.371887 
L 135.085769 208.439265 
L 136.24446 210.506643 
L 137.335297 212.57402 
L 138.323086 214.641398 
L 139.17206 216.708776 
L 139.847732 218.776154 
L 140.318911 220.843532 
L 140.559732 222.910909 
L 140.551512 224.978287 
L 140.284227 227.045665 
L 139.757451 229.113043 
L 138.980624 231.18042 
L 137.972589 233.247798 
L 136.760433 235.315176 
L 135.377734 237.382554 
L 133.8624 239.449932 
L 132.254306 241.517309 
L 130.592968 243.584687 
L 128.915458 245.652065 
L 127.254726 247.719443 
L 125.638429 249.786821 
L 124.088299 251.854198 
L 122.620034 253.921576 
L 121.243618 255.988954 
L 119.963998 258.056332 
L 118.781969 260.123709 
L 117.695175 262.191087 
L 116.699114 264.258465 
L 115.788069 266.325843 
L 114.955894 268.393221 
L 114.196627 270.460598 
L 113.5049 272.527976 
z
" clip-path="url(#p16dfc5e64f)" style="fill: #4c9be8; fill-opacity: 0.45"/>
   </g>
   <g id="PolyCollection_2">
    <path d="M 227.593197 271.363742 
L 201.0596 271.363742 
L 199.481431 269.595403 
L 197.902281 267.827063 
L 196.348183 266.058724 
L 194.843091 264.290385 
L 193.407557 262.522046 
L 192.05772 260.753706 
L 190.804701 258.985367 
L 189.654473 257.217028 
L 188.608214 255.448688 
L 187.66309 253.680349 
L 186.813395 251.91201 
L 186.051892 250.14367 
L 185.371229 248.375331 
L 184.765267 246.606992 
L 184.230193 244.838653 
L 183.765325 243.070313 
L 183.373539 241.301974 
L 183.06132 239.533635 
L 182.838443 237.765295 
L 182.717324 235.996956 
L 182.712113 234.228617 
L 182.83758 232.460278 
L 183.107867 230.691938 
L 183.535185 228.923599 
L 184.128522 227.15526 
L 184.892463 225.38692 
L 185.826217 223.618581 
L 186.922942 221.850242 
L 188.169476 220.081902 
L 189.546532 218.313563 
L 191.029388 216.545224 
L 192.58906 214.776885 
L 194.193855 213.008545 
L 195.811194 211.240206 
L 197.409502 209.471867 
L 198.959989 207.703527 
L 200.438125 205.935188 
L 201.824667 204.166849 
L 203.106149 202.39851 
L 204.274821 200.63017 
L 205.328096 198.861831 
L 206.267633 197.093492 
L 207.098205 195.325152 
L 207.826539 193.556813 
L 208.460276 191.788474 
L 209.007165 190.020134 
L 209.474571 188.251795 
L 209.869275 186.483456 
L 210.197546 184.715117 
L 210.465373 182.946777 
L 210.678777 181.178438 
L 210.844095 179.410099 
L 210.96815 177.641759 
L 211.058288 175.87342 
L 211.122239 174.105081 
L 211.167863 172.336742 
L 211.202803 170.568402 
L 211.234135 168.800063 
L 211.268043 167.031724 
L 211.309596 165.263384 
L 211.362629 163.495045 
L 211.42974 161.726706 
L 211.512375 159.958366 
L 211.61097 158.190027 
L 211.725113 156.421688 
L 211.853691 154.653349 
L 211.995001 152.885009 
L 212.146824 151.11667 
L 212.306467 149.348331 
L 212.470801 147.579991 
L 212.636317 145.811652 
L 212.799212 144.043313 
L 212.955536 142.274974 
L 213.10138 140.506634 
L 213.233108 138.738295 
L 213.347593 136.969956 
L 213.442452 135.201616 
L 213.516228 133.433277 
L 213.568501 131.664938 
L 213.59992 129.896598 
L 213.612137 128.128259 
L 213.607657 126.35992 
L 213.58961 124.591581 
L 213.561488 122.823241 
L 213.526862 121.054902 
L 213.489116 119.286563 
L 213.451238 117.518223 
L 213.415672 115.749884 
L 213.384271 113.981545 
L 213.358314 112.213206 
L 213.338606 110.444866 
L 213.325611 108.676527 
L 213.319604 106.908188 
L 213.320796 105.139848 
L 213.329421 103.371509 
L 213.345754 101.60317 
L 213.370079 99.83483 
L 213.402599 98.066491 
L 213.443326 96.298152 
L 215.209471 96.298152 
L 215.209471 96.298152 
L 215.250199 98.066491 
L 215.282719 99.83483 
L 215.307044 101.60317 
L 215.323377 103.371509 
L 215.332001 105.139848 
L 215.333193 106.908188 
L 215.327186 108.676527 
L 215.314191 110.444866 
L 215.294483 112.213206 
L 215.268526 113.981545 
L 215.237125 115.749884 
L 215.20156 117.518223 
L 215.163681 119.286563 
L 215.125936 121.054902 
L 215.09131 122.823241 
L 215.063188 124.591581 
L 215.045141 126.35992 
L 215.04066 128.128259 
L 215.052878 129.896598 
L 215.084297 131.664938 
L 215.13657 133.433277 
L 215.210345 135.201616 
L 215.305205 136.969956 
L 215.41969 138.738295 
L 215.551417 140.506634 
L 215.697262 142.274974 
L 215.853586 144.043313 
L 216.016481 145.811652 
L 216.181997 147.579991 
L 216.346331 149.348331 
L 216.505974 151.11667 
L 216.657796 152.885009 
L 216.799107 154.653349 
L 216.927685 156.421688 
L 217.041828 158.190027 
L 217.140422 159.958366 
L 217.223057 161.726706 
L 217.290168 163.495045 
L 217.343202 165.263384 
L 217.384755 167.031724 
L 217.418663 168.800063 
L 217.449994 170.568402 
L 217.484935 172.336742 
L 217.530558 174.105081 
L 217.594509 175.87342 
L 217.684647 177.641759 
L 217.808703 179.410099 
L 217.97402 181.178438 
L 218.187425 182.946777 
L 218.455252 184.715117 
L 218.783522 186.483456 
L 219.178227 188.251795 
L 219.645633 190.020134 
L 220.192522 191.788474 
L 220.826258 193.556813 
L 221.554593 195.325152 
L 222.385165 197.093492 
L 223.324701 198.861831 
L 224.377977 200.63017 
L 225.546648 202.39851 
L 226.82813 204.166849 
L 228.214673 205.935188 
L 229.692809 207.703527 
L 231.243296 209.471867 
L 232.841604 211.240206 
L 234.458943 213.008545 
L 236.063738 214.776885 
L 237.623409 216.545224 
L 239.106266 218.313563 
L 240.483321 220.081902 
L 241.729855 221.850242 
L 242.82658 223.618581 
L 243.760334 225.38692 
L 244.524276 227.15526 
L 245.117612 228.923599 
L 245.54493 230.691938 
L 245.815218 232.460278 
L 245.940685 234.228617 
L 245.935474 235.996956 
L 245.814355 237.765295 
L 245.591478 239.533635 
L 245.279259 241.301974 
L 244.887473 243.070313 
L 244.422604 244.838653 
L 243.887531 246.606992 
L 243.281569 248.375331 
L 242.600906 250.14367 
L 241.839402 251.91201 
L 240.989707 253.680349 
L 240.044584 255.448688 
L 238.998325 257.217028 
L 237.848097 258.985367 
L 236.595078 260.753706 
L 235.24524 262.522046 
L 233.809706 264.290385 
L 232.304614 266.058724 
L 230.750517 267.827063 
L 229.171367 269.595403 
L 227.593197 271.363742 
z
" clip-path="url(#p16dfc5e64f)" style="fill: #f4a460; fill-opacity: 0.45"/>
   </g>
   <g id="PolyCollection_3">
    <path d="M 326.120231 291.26334 
L 313.294472 291.26334 
L 312.209721 290.206428 
L 311.014497 289.149516 
L 309.713522 288.092603 
L 308.315071 287.035691 
L 306.831027 285.978779 
L 305.276765 284.921866 
L 303.670838 283.864954 
L 302.034492 282.808042 
L 300.39104 281.751129 
L 298.765109 280.694217 
L 297.181834 279.637305 
L 295.666028 278.580393 
L 294.241373 277.52348 
L 292.929682 276.466568 
L 291.750244 275.409656 
L 290.719288 274.352743 
L 289.849558 273.295831 
L 289.150009 272.238919 
L 288.625629 271.182006 
L 288.277359 270.125094 
L 288.102142 269.068182 
L 288.093065 268.01127 
L 288.239624 266.954357 
L 288.528098 265.897445 
L 288.942035 264.840533 
L 289.462855 263.78362 
L 290.070536 262.726708 
L 290.744385 261.669796 
L 291.463838 260.612883 
L 292.209266 259.555971 
L 292.962726 258.499059 
L 293.708621 257.442147 
L 294.434217 256.385234 
L 295.129981 255.328322 
L 295.789723 254.27141 
L 296.41054 253.214497 
L 296.99255 252.157585 
L 297.538472 251.100673 
L 298.053068 250.04376 
L 298.542502 248.986848 
L 299.013672 247.929936 
L 299.47356 246.873023 
L 299.928654 245.816111 
L 300.384472 244.759199 
L 300.845222 243.702287 
L 301.313602 242.645374 
L 301.790756 241.588462 
L 302.276348 240.53155 
L 302.768766 239.474637 
L 303.265394 238.417725 
L 303.76294 237.360813 
L 304.257782 236.3039 
L 304.7463 235.246988 
L 305.225166 234.190076 
L 305.69159 233.133164 
L 306.143487 232.076251 
L 306.579592 231.019339 
L 306.999501 229.962427 
L 307.40366 228.905514 
L 307.793312 227.848602 
L 308.170401 226.79169 
L 308.537451 225.734777 
L 308.89742 224.677865 
L 309.253532 223.620953 
L 309.609094 222.564041 
L 309.9673 221.507128 
L 310.331022 220.450216 
L 310.702604 219.393304 
L 311.083668 218.336391 
L 311.474943 217.279479 
L 311.87614 216.222567 
L 312.285883 215.165654 
L 312.701713 214.108742 
L 313.120161 213.05183 
L 313.536916 211.994917 
L 313.947044 210.938005 
L 314.345276 209.881093 
L 314.726327 208.824181 
L 315.085227 207.767268 
L 315.417633 206.710356 
L 315.720107 205.653444 
L 315.990328 204.596531 
L 316.22723 203.539619 
L 316.431057 202.482707 
L 316.60333 201.425794 
L 316.746731 200.368882 
L 316.864922 199.31197 
L 316.962309 198.255058 
L 317.043767 197.198145 
L 317.11436 196.141233 
L 317.179054 195.084321 
L 317.242462 194.027408 
L 317.308624 192.970496 
L 317.380839 191.913584 
L 317.461546 190.856671 
L 317.552276 189.799759 
L 317.653651 188.742847 
L 317.76544 187.685935 
L 317.886665 186.629022 
L 321.528038 186.629022 
L 321.528038 186.629022 
L 321.649262 187.685935 
L 321.761052 188.742847 
L 321.862426 189.799759 
L 321.953156 190.856671 
L 322.033863 191.913584 
L 322.106078 192.970496 
L 322.172241 194.027408 
L 322.235649 195.084321 
L 322.300342 196.141233 
L 322.370935 197.198145 
L 322.452394 198.255058 
L 322.54978 199.31197 
L 322.667971 200.368882 
L 322.811372 201.425794 
L 322.983645 202.482707 
L 323.187473 203.539619 
L 323.424375 204.596531 
L 323.694595 205.653444 
L 323.997069 206.710356 
L 324.329475 207.767268 
L 324.688375 208.824181 
L 325.069426 209.881093 
L 325.467658 210.938005 
L 325.877786 211.994917 
L 326.294541 213.05183 
L 326.71299 214.108742 
L 327.128819 215.165654 
L 327.538562 216.222567 
L 327.93976 217.279479 
L 328.331035 218.336391 
L 328.712099 219.393304 
L 329.083681 220.450216 
L 329.447402 221.507128 
L 329.805608 222.564041 
L 330.16117 223.620953 
L 330.517282 224.677865 
L 330.877251 225.734777 
L 331.244301 226.79169 
L 331.621391 227.848602 
L 332.011043 228.905514 
L 332.415202 229.962427 
L 332.83511 231.019339 
L 333.271215 232.076251 
L 333.723112 233.133164 
L 334.189536 234.190076 
L 334.668402 235.246988 
L 335.15692 236.3039 
L 335.651762 237.360813 
L 336.149308 238.417725 
L 336.645936 239.474637 
L 337.138354 240.53155 
L 337.623947 241.588462 
L 338.1011 242.645374 
L 338.569481 243.702287 
L 339.03023 244.759199 
L 339.486048 245.816111 
L 339.941142 246.873023 
L 340.40103 247.929936 
L 340.8722 248.986848 
L 341.361634 250.04376 
L 341.87623 251.100673 
L 342.422152 252.157585 
L 343.004163 253.214497 
L 343.624979 254.27141 
L 344.284722 255.328322 
L 344.980485 256.385234 
L 345.706081 257.442147 
L 346.451976 258.499059 
L 347.205436 259.555971 
L 347.950864 260.612883 
L 348.670317 261.669796 
L 349.344166 262.726708 
L 349.951848 263.78362 
L 350.472668 264.840533 
L 350.886605 265.897445 
L 351.175078 266.954357 
L 351.321637 268.01127 
L 351.31256 269.068182 
L 351.137343 270.125094 
L 350.789074 271.182006 
L 350.264693 272.238919 
L 349.565145 273.295831 
L 348.695414 274.352743 
L 347.664458 275.409656 
L 346.485021 276.466568 
L 345.173329 277.52348 
L 343.748674 278.580393 
L 342.232868 279.637305 
L 340.649594 280.694217 
L 339.023663 281.751129 
L 337.38021 282.808042 
L 335.743865 283.864954 
L 334.137937 284.921866 
L 332.583675 285.978779 
L 331.099632 287.035691 
L 329.701181 288.092603 
L 328.400206 289.149516 
L 327.204981 290.206428 
L 326.120231 291.26334 
z
" clip-path="url(#p16dfc5e64f)" style="fill: #e86060; fill-opacity: 0.45"/>
   </g>
   <g id="PolyCollection_4">
    <path d="M 431.003979 297.006243 
L 419.172628 297.006243 
L 418.360463 296.320806 
L 417.48547 295.63537 
L 416.545681 294.949933 
L 415.539001 294.264497 
L 414.4636 293.57906 
L 413.318464 292.893624 
L 412.104047 292.208187 
L 410.822961 291.522751 
L 409.480621 290.837314 
L 408.085757 290.151878 
L 406.650703 289.466441 
L 405.191417 288.781005 
L 403.727176 288.095568 
L 402.27997 287.410131 
L 400.873618 286.724695 
L 399.532681 286.039258 
L 398.281273 285.353822 
L 397.14188 284.668385 
L 396.134292 283.982949 
L 395.274756 283.297512 
L 394.575411 282.612076 
L 394.04405 281.926639 
L 393.684191 281.241203 
L 393.495434 280.555766 
L 393.474018 279.87033 
L 393.613498 279.184893 
L 393.905443 278.499457 
L 394.340061 277.81402 
L 394.906709 277.128583 
L 395.594224 276.443147 
L 396.391091 275.75771 
L 397.285461 275.072274 
L 398.265074 274.386837 
L 399.317139 273.701401 
L 400.428233 273.015964 
L 401.584272 272.330528 
L 402.770579 271.645091 
L 403.972072 270.959655 
L 405.173563 270.274218 
L 406.360143 269.588782 
L 407.517615 268.903345 
L 408.632949 268.217908 
L 409.694702 267.532472 
L 410.693383 266.847035 
L 411.621729 266.161599 
L 412.474868 265.476162 
L 413.250373 264.790726 
L 413.948198 264.105289 
L 414.570502 263.419853 
L 415.121388 262.734416 
L 415.606563 262.04898 
L 416.032966 261.363543 
L 416.408371 260.678107 
L 416.741002 259.99267 
L 417.039187 259.307234 
L 417.311057 258.621797 
L 417.564306 257.93636 
L 417.806012 257.250924 
L 418.042507 256.565487 
L 418.279291 255.880051 
L 418.520976 255.194614 
L 418.771245 254.509178 
L 419.032818 253.823741 
L 419.307427 253.138305 
L 419.595794 252.452868 
L 419.897623 251.767432 
L 420.211612 251.081995 
L 420.535494 250.396559 
L 420.866111 249.711122 
L 421.19953 249.025686 
L 421.531192 248.340249 
L 421.856097 247.654812 
L 422.169015 246.969376 
L 422.464711 246.283939 
L 422.738178 245.598503 
L 422.984863 244.913066 
L 423.200885 244.22763 
L 423.383228 243.542193 
L 423.529902 242.856757 
L 423.640072 242.17132 
L 423.714138 241.485884 
L 423.753759 240.800447 
L 423.761821 240.115011 
L 423.742339 239.429574 
L 423.700296 238.744138 
L 423.641421 238.058701 
L 423.571915 237.373264 
L 423.498148 236.687828 
L 423.426341 236.002391 
L 423.362254 235.316955 
L 423.310906 234.631518 
L 423.276355 233.946082 
L 423.261538 233.260645 
L 423.268194 232.575209 
L 423.296861 231.889772 
L 423.346953 231.204336 
L 423.41689 230.518899 
L 423.504279 229.833463 
L 423.606124 229.148026 
L 426.570483 229.148026 
L 426.570483 229.148026 
L 426.672328 229.833463 
L 426.759718 230.518899 
L 426.829654 231.204336 
L 426.879746 231.889772 
L 426.908413 232.575209 
L 426.915069 233.260645 
L 426.900252 233.946082 
L 426.865701 234.631518 
L 426.814353 235.316955 
L 426.750266 236.002391 
L 426.678459 236.687828 
L 426.604693 237.373264 
L 426.535186 238.058701 
L 426.476311 238.744138 
L 426.434268 239.429574 
L 426.414786 240.115011 
L 426.422848 240.800447 
L 426.462469 241.485884 
L 426.536535 242.17132 
L 426.646705 242.856757 
L 426.793379 243.542193 
L 426.975722 244.22763 
L 427.191744 244.913066 
L 427.438429 245.598503 
L 427.711896 246.283939 
L 428.007592 246.969376 
L 428.32051 247.654812 
L 428.645415 248.340249 
L 428.977077 249.025686 
L 429.310496 249.711122 
L 429.641113 250.396559 
L 429.964995 251.081995 
L 430.278984 251.767432 
L 430.580813 252.452868 
L 430.86918 253.138305 
L 431.143789 253.823741 
L 431.405362 254.509178 
L 431.655631 255.194614 
L 431.897316 255.880051 
L 432.134101 256.565487 
L 432.370595 257.250924 
L 432.612301 257.93636 
L 432.865551 258.621797 
L 433.13742 259.307234 
L 433.435605 259.99267 
L 433.768236 260.678107 
L 434.143641 261.363543 
L 434.570044 262.04898 
L 435.05522 262.734416 
L 435.606105 263.419853 
L 436.228409 264.105289 
L 436.926234 264.790726 
L 437.701739 265.476162 
L 438.554878 266.161599 
L 439.483224 266.847035 
L 440.481906 267.532472 
L 441.543659 268.217908 
L 442.658992 268.903345 
L 443.816464 269.588782 
L 445.003044 270.274218 
L 446.204535 270.959655 
L 447.406028 271.645091 
L 448.592335 272.330528 
L 449.748374 273.015964 
L 450.859468 273.701401 
L 451.911533 274.386837 
L 452.891146 275.072274 
L 453.785516 275.75771 
L 454.582383 276.443147 
L 455.269898 277.128583 
L 455.836546 277.81402 
L 456.271165 278.499457 
L 456.563109 279.184893 
L 456.702589 279.87033 
L 456.681173 280.555766 
L 456.492416 281.241203 
L 456.132557 281.926639 
L 455.601196 282.612076 
L 454.901851 283.297512 
L 454.042315 283.982949 
L 453.034727 284.668385 
L 451.895334 285.353822 
L 450.643926 286.039258 
L 449.302989 286.724695 
L 447.896637 287.410131 
L 446.449431 288.095568 
L 444.98519 288.781005 
L 443.525904 289.466441 
L 442.090851 290.151878 
L 440.695986 290.837314 
L 439.353647 291.522751 
L 438.07256 292.208187 
L 436.858143 292.893624 
L 435.713007 293.57906 
L 434.637607 294.264497 
L 433.630926 294.949933 
L 432.691137 295.63537 
L 431.816144 296.320806 
L 431.003979 297.006243 
z
" clip-path="url(#p16dfc5e64f)" style="fill: #7b68ee; fill-opacity: 0.45"/>
   </g>
   <g id="matplotlib.axis_1">
    <g id="xtick_1">
     <g id="line2d_1">
      <defs>
       <path id="m313611e8d1" d="M 0 0 
L 0 3.5 
" style="stroke: #000000; stroke-width: 0.8"/>
      </defs>
      <g>
       <use xlink:href="#m313611e8d1" x="108.945446" y="315.272" style="stroke: #000000; stroke-width: 0.8"/>
      </g>
     </g>
     <g id="text_1">
      <!-- Control -->
      <g transform="translate(89.067243 330.630281) scale(0.11 -0.11)">
       <defs>
        <path id="DejaVuSans-43" d="M 4122 4306 
L 4122 3641 
Q 3803 3938 3442 4084 
Q 3081 4231 2675 4231 
Q 1875 4231 1450 3742 
Q 1025 3253 1025 2328 
Q 1025 1406 1450 917 
Q 1875 428 2675 428 
Q 3081 428 3442 575 
Q 3803 722 4122 1019 
L 4122 359 
Q 3791 134 3420 21 
Q 3050 -91 2638 -91 
Q 1578 -91 968 557 
Q 359 1206 359 2328 
Q 359 3453 968 4101 
Q 1578 4750 2638 4750 
Q 3056 4750 3426 4639 
Q 3797 4528 4122 4306 
z
" transform="scale(0.015625)"/>
        <path id="DejaVuSans-6f" d="M 1959 3097 
Q 1497 3097 1228 2736 
Q 959 2375 959 1747 
Q 959 1119 1226 758 
Q 1494 397 1959 397 
Q 2419 397 2687 759 
Q 2956 1122 2956 1747 
Q 2956 2369 2687 2733 
Q 2419 3097 1959 3097 
z
M 1959 3584 
Q 2709 3584 3137 3096 
Q 3566 2609 3566 1747 
Q 3566 888 3137 398 
Q 2709 -91 1959 -91 
Q 1206 -91 779 398 
Q 353 888 353 1747 
Q 353 2609 779 3096 
Q 1206 3584 1959 3584 
z
" transform="scale(0.015625)"/>
        <path id="DejaVuSans-6e" d="M 3513 2113 
L 3513 0 
L 2938 0 
L 2938 2094 
Q 2938 2591 2744 2837 
Q 2550 3084 2163 3084 
Q 1697 3084 1428 2787 
Q 1159 2491 1159 1978 
L 1159 0 
L 581 0 
L 581 3500 
L 1159 3500 
L 1159 2956 
Q 1366 3272 1645 3428 
Q 1925 3584 2291 3584 
Q 2894 3584 3203 3211 
Q 3513 2838 3513 2113 
z
" transform="scale(0.015625)"/>
        <path id="DejaVuSans-74" d="M 1172 4494 
L 1172 3500 
L 2356 3500 
L 2356 3053 
L 1172 3053 
L 1172 1153 
Q 1172 725 1289 603 
Q 1406 481 1766 481 
L 2356 481 
L 2356 0 
L 1766 0 
Q 1100 0 847 248 
Q 594 497 594 1153 
L 594 3053 
L 172 3053 
L 172 3500 
L 594 3500 
L 594 4494 
L 1172 4494 
z
" transform="scale(0.015625)"/>
        <path id="DejaVuSans-72" d="M 2631 2963 
Q 2534 3019 2420 3045 
Q 2306 3072 2169 3072 
Q 1681 3072 1420 2755 
Q 1159 2438 1159 1844 
L 1159 0 
L 581 0 
L 581 3500 
L 1159 3500 
L 1159 2956 
Q 1341 3275 1631 3429 
Q 1922 3584 2338 3584 
Q 2397 3584 2469 3576 
Q 2541 3569 2628 3553 
L 2631 2963 
z
" transform="scale(0.015625)"/>
        <path id="DejaVuSans-6c" d="M 603 4863 
L 1178 4863 
L 1178 0 
L 603 0 
L 603 4863 
z
" transform="scale(0.015625)"/>
       </defs>
       <use xlink:href="#DejaVuSans-43"/>
       <use xlink:href="#DejaVuSans-6f" x="69.824219"/>
       <use xlink:href="#DejaVuSans-6e" x="131.005859"/>
       <use xlink:href="#DejaVuSans-74" x="194.384766"/>
       <use xlink:href="#DejaVuSans-72" x="233.59375"/>
       <use xlink:href="#DejaVuSans-6f" x="272.457031"/>
       <use xlink:href="#DejaVuSans-6c" x="333.638672"/>
      </g>
     </g>
    </g>
    <g id="xtick_2">
     <g id="line2d_2">
      <g>
       <use xlink:href="#m313611e8d1" x="214.326399" y="315.272" style="stroke: #000000; stroke-width: 0.8"/>
      </g>
     </g>
     <g id="text_2">
      <!-- Drug-A -->
      <g transform="translate(195.230227 330.630281) scale(0.11 -0.11)">
       <defs>
        <path id="DejaVuSans-44" d="M 1259 4147 
L 1259 519 
L 2022 519 
Q 2988 519 3436 956 
Q 3884 1394 3884 2338 
Q 3884 3275 3436 3711 
Q 2988 4147 2022 4147 
L 1259 4147 
z
M 628 4666 
L 1925 4666 
Q 3281 4666 3915 4102 
Q 4550 3538 4550 2338 
Q 4550 1131 3912 565 
Q 3275 0 1925 0 
L 628 0 
L 628 4666 
z
" transform="scale(0.015625)"/>
        <path id="DejaVuSans-75" d="M 544 1381 
L 544 3500 
L 1119 3500 
L 1119 1403 
Q 1119 906 1312 657 
Q 1506 409 1894 409 
Q 2359 409 2629 706 
Q 2900 1003 2900 1516 
L 2900 3500 
L 3475 3500 
L 3475 0 
L 2900 0 
L 2900 538 
Q 2691 219 2414 64 
Q 2138 -91 1772 -91 
Q 1169 -91 856 284 
Q 544 659 544 1381 
z
M 1991 3584 
L 1991 3584 
z
" transform="scale(0.015625)"/>
        <path id="DejaVuSans-67" d="M 2906 1791 
Q 2906 2416 2648 2759 
Q 2391 3103 1925 3103 
Q 1463 3103 1205 2759 
Q 947 2416 947 1791 
Q 947 1169 1205 825 
Q 1463 481 1925 481 
Q 2391 481 2648 825 
Q 2906 1169 2906 1791 
z
M 3481 434 
Q 3481 -459 3084 -895 
Q 2688 -1331 1869 -1331 
Q 1566 -1331 1297 -1286 
Q 1028 -1241 775 -1147 
L 775 -588 
Q 1028 -725 1275 -790 
Q 1522 -856 1778 -856 
Q 2344 -856 2625 -561 
Q 2906 -266 2906 331 
L 2906 616 
Q 2728 306 2450 153 
Q 2172 0 1784 0 
Q 1141 0 747 490 
Q 353 981 353 1791 
Q 353 2603 747 3093 
Q 1141 3584 1784 3584 
Q 2172 3584 2450 3431 
Q 2728 3278 2906 2969 
L 2906 3500 
L 3481 3500 
L 3481 434 
z
" transform="scale(0.015625)"/>
        <path id="DejaVuSans-2d" d="M 313 2009 
L 1997 2009 
L 1997 1497 
L 313 1497 
L 313 2009 
z
" transform="scale(0.015625)"/>
        <path id="DejaVuSans-41" d="M 2188 4044 
L 1331 1722 
L 3047 1722 
L 2188 4044 
z
M 1831 4666 
L 2547 4666 
L 4325 0 
L 3669 0 
L 3244 1197 
L 1141 1197 
L 716 0 
L 50 0 
L 1831 4666 
z
" transform="scale(0.015625)"/>
       </defs>
       <use xlink:href="#DejaVuSans-44"/>
       <use xlink:href="#DejaVuSans-72" x="77.001953"/>
       <use xlink:href="#DejaVuSans-75" x="118.115234"/>
       <use xlink:href="#DejaVuSans-67" x="181.494141"/>
       <use xlink:href="#DejaVuSans-2d" x="244.970703"/>
       <use xlink:href="#DejaVuSans-41" x="278.804688"/>
      </g>
      <!-- 10 µM -->
      <g transform="translate(197.334836 342.947875) scale(0.11 -0.11)">
       <defs>
        <path id="DejaVuSans-31" d="M 794 531 
L 1825 531 
L 1825 4091 
L 703 3866 
L 703 4441 
L 1819 4666 
L 2450 4666 
L 2450 531 
L 3481 531 
L 3481 0 
L 794 0 
L 794 531 
z
" transform="scale(0.015625)"/>
        <path id="DejaVuSans-30" d="M 2034 4250 
Q 1547 4250 1301 3770 
Q 1056 3291 1056 2328 
Q 1056 1369 1301 889 
Q 1547 409 2034 409 
Q 2525 409 2770 889 
Q 3016 1369 3016 2328 
Q 3016 3291 2770 3770 
Q 2525 4250 2034 4250 
z
M 2034 4750 
Q 2819 4750 3233 4129 
Q 3647 3509 3647 2328 
Q 3647 1150 3233 529 
Q 2819 -91 2034 -91 
Q 1250 -91 836 529 
Q 422 1150 422 2328 
Q 422 3509 836 4129 
Q 1250 4750 2034 4750 
z
" transform="scale(0.015625)"/>
        <path id="DejaVuSans-20" transform="scale(0.015625)"/>
        <path id="DejaVuSans-b5" d="M 544 -1331 
L 544 3500 
L 1119 3500 
L 1119 1325 
Q 1119 872 1334 640 
Q 1550 409 1972 409 
Q 2434 409 2667 671 
Q 2900 934 2900 1459 
L 2900 3500 
L 3475 3500 
L 3475 806 
Q 3475 619 3529 530 
Q 3584 441 3700 441 
Q 3728 441 3778 458 
Q 3828 475 3916 513 
L 3916 50 
Q 3788 -22 3673 -56 
Q 3559 -91 3450 -91 
Q 3234 -91 3106 31 
Q 2978 153 2931 403 
Q 2775 156 2548 32 
Q 2322 -91 2016 -91 
Q 1697 -91 1473 31 
Q 1250 153 1119 397 
L 1119 -1331 
L 544 -1331 
z
" transform="scale(0.015625)"/>
        <path id="DejaVuSans-4d" d="M 628 4666 
L 1569 4666 
L 2759 1491 
L 3956 4666 
L 4897 4666 
L 4897 0 
L 4281 0 
L 4281 4097 
L 3078 897 
L 2444 897 
L 1241 4097 
L 1241 0 
L 628 0 
L 628 4666 
z
" transform="scale(0.015625)"/>
       </defs>
       <use xlink:href="#DejaVuSans-31"/>
       <use xlink:href="#DejaVuSans-30" x="63.623047"/>
       <use xlink:href="#DejaVuSans-20" x="127.246094"/>
       <use xlink:href="#DejaVuSans-b5" x="159.033203"/>
       <use xlink:href="#DejaVuSans-4d" x="222.65625"/>
      </g>
     </g>
    </g>
    <g id="xtick_3">
     <g id="line2d_3">
      <g>
       <use xlink:href="#m313611e8d1" x="319.707351" y="315.272" style="stroke: #000000; stroke-width: 0.8"/>
      </g>
     </g>
     <g id="text_3">
      <!-- Drug-A -->
      <g transform="translate(300.611179 330.630281) scale(0.11 -0.11)">
       <use xlink:href="#DejaVuSans-44"/>
       <use xlink:href="#DejaVuSans-72" x="77.001953"/>
       <use xlink:href="#DejaVuSans-75" x="118.115234"/>
       <use xlink:href="#DejaVuSans-67" x="181.494141"/>
       <use xlink:href="#DejaVuSans-2d" x="244.970703"/>
       <use xlink:href="#DejaVuSans-41" x="278.804688"/>
      </g>
      <!-- 50 µM -->
      <g transform="translate(302.715789 342.947875) scale(0.11 -0.11)">
       <defs>
        <path id="DejaVuSans-35" d="M 691 4666 
L 3169 4666 
L 3169 4134 
L 1269 4134 
L 1269 2991 
Q 1406 3038 1543 3061 
Q 1681 3084 1819 3084 
Q 2600 3084 3056 2656 
Q 3513 2228 3513 1497 
Q 3513 744 3044 326 
Q 2575 -91 1722 -91 
Q 1428 -91 1123 -41 
Q 819 9 494 109 
L 494 744 
Q 775 591 1075 516 
Q 1375 441 1709 441 
Q 2250 441 2565 725 
Q 2881 1009 2881 1497 
Q 2881 1984 2565 2268 
Q 2250 2553 1709 2553 
Q 1456 2553 1204 2497 
Q 953 2441 691 2322 
L 691 4666 
z
" transform="scale(0.015625)"/>
       </defs>
       <use xlink:href="#DejaVuSans-35"/>
       <use xlink:href="#DejaVuSans-30" x="63.623047"/>
       <use xlink:href="#DejaVuSans-20" x="127.246094"/>
       <use xlink:href="#DejaVuSans-b5" x="159.033203"/>
       <use xlink:href="#DejaVuSans-4d" x="222.65625"/>
      </g>
     </g>
    </g>
    <g id="xtick_4">
     <g id="line2d_4">
      <g>
       <use xlink:href="#m313611e8d1" x="425.088304" y="315.272" style="stroke: #000000; stroke-width: 0.8"/>
      </g>
     </g>
     <g id="text_4">
      <!-- Combo -->
      <g transform="translate(405.668147 330.630281) scale(0.11 -0.11)">
       <defs>
        <path id="DejaVuSans-6d" d="M 3328 2828 
Q 3544 3216 3844 3400 
Q 4144 3584 4550 3584 
Q 5097 3584 5394 3201 
Q 5691 2819 5691 2113 
L 5691 0 
L 5113 0 
L 5113 2094 
Q 5113 2597 4934 2840 
Q 4756 3084 4391 3084 
Q 3944 3084 3684 2787 
Q 3425 2491 3425 1978 
L 3425 0 
L 2847 0 
L 2847 2094 
Q 2847 2600 2669 2842 
Q 2491 3084 2119 3084 
Q 1678 3084 1418 2786 
Q 1159 2488 1159 1978 
L 1159 0 
L 581 0 
L 581 3500 
L 1159 3500 
L 1159 2956 
Q 1356 3278 1631 3431 
Q 1906 3584 2284 3584 
Q 2666 3584 2933 3390 
Q 3200 3197 3328 2828 
z
" transform="scale(0.015625)"/>
        <path id="DejaVuSans-62" d="M 3116 1747 
Q 3116 2381 2855 2742 
Q 2594 3103 2138 3103 
Q 1681 3103 1420 2742 
Q 1159 2381 1159 1747 
Q 1159 1113 1420 752 
Q 1681 391 2138 391 
Q 2594 391 2855 752 
Q 3116 1113 3116 1747 
z
M 1159 2969 
Q 1341 3281 1617 3432 
Q 1894 3584 2278 3584 
Q 2916 3584 3314 3078 
Q 3713 2572 3713 1747 
Q 3713 922 3314 415 
Q 2916 -91 2278 -91 
Q 1894 -91 1617 61 
Q 1341 213 1159 525 
L 1159 0 
L 581 0 
L 581 4863 
L 1159 4863 
L 1159 2969 
z
" transform="scale(0.015625)"/>
       </defs>
       <use xlink:href="#DejaVuSans-43"/>
       <use xlink:href="#DejaVuSans-6f" x="69.824219"/>
       <use xlink:href="#DejaVuSans-6d" x="131.005859"/>
       <use xlink:href="#DejaVuSans-62" x="228.417969"/>
       <use xlink:href="#DejaVuSans-6f" x="291.894531"/>
      </g>
     </g>
    </g>
   </g>
   <g id="matplotlib.axis_2">
    <g id="ytick_1">
     <g id="line2d_5">
      <defs>
       <path id="m24dbf7ab70" d="M 0 0 
L -3.5 0 
" style="stroke: #000000; stroke-width: 0.8"/>
      </defs>
      <g>
       <use xlink:href="#m24dbf7ab70" x="45.716875" y="310.38026" style="stroke: #000000; stroke-width: 0.8"/>
      </g>
     </g>
     <g id="text_5">
      <!-- 0.0 -->
      <g transform="translate(22.81375 314.179479) scale(0.1 -0.1)">
       <defs>
        <path id="DejaVuSans-2e" d="M 684 794 
L 1344 794 
L 1344 0 
L 684 0 
L 684 794 
z
" transform="scale(0.015625)"/>
       </defs>
       <use xlink:href="#DejaVuSans-30"/>
       <use xlink:href="#DejaVuSans-2e" x="63.623047"/>
       <use xlink:href="#DejaVuSans-30" x="95.410156"/>
      </g>
     </g>
    </g>
    <g id="ytick_2">
     <g id="line2d_6">
      <g>
       <use xlink:href="#m24dbf7ab70" x="45.716875" y="261.46286" style="stroke: #000000; stroke-width: 0.8"/>
      </g>
     </g>
     <g id="text_6">
      <!-- 0.5 -->
      <g transform="translate(22.81375 265.262079) scale(0.1 -0.1)">
       <use xlink:href="#DejaVuSans-30"/>
       <use xlink:href="#DejaVuSans-2e" x="63.623047"/>
       <use xlink:href="#DejaVuSans-35" x="95.410156"/>
      </g>
     </g>
    </g>
    <g id="ytick_3">
     <g id="line2d_7">
      <g>
       <use xlink:href="#m24dbf7ab70" x="45.716875" y="212.545461" style="stroke: #000000; stroke-width: 0.8"/>
      </g>
     </g>
     <g id="text_7">
      <!-- 1.0 -->
      <g transform="translate(22.81375 216.344679) scale(0.1 -0.1)">
       <use xlink:href="#DejaVuSans-31"/>
       <use xlink:href="#DejaVuSans-2e" x="63.623047"/>
       <use xlink:href="#DejaVuSans-30" x="95.410156"/>
      </g>
     </g>
    </g>
    <g id="ytick_4">
     <g id="line2d_8">
      <g>
       <use xlink:href="#m24dbf7ab70" x="45.716875" y="163.628061" style="stroke: #000000; stroke-width: 0.8"/>
      </g>
     </g>
     <g id="text_8">
      <!-- 1.5 -->
      <g transform="translate(22.81375 167.42728) scale(0.1 -0.1)">
       <use xlink:href="#DejaVuSans-31"/>
       <use xlink:href="#DejaVuSans-2e" x="63.623047"/>
       <use xlink:href="#DejaVuSans-35" x="95.410156"/>
      </g>
     </g>
    </g>
    <g id="ytick_5">
     <g id="line2d_9">
      <g>
       <use xlink:href="#m24dbf7ab70" x="45.716875" y="114.710661" style="stroke: #000000; stroke-width: 0.8"/>
      </g>
     </g>
     <g id="text_9">
      <!-- 2.0 -->
      <g transform="translate(22.81375 118.50988) scale(0.1 -0.1)">
       <defs>
        <path id="DejaVuSans-32" d="M 1228 531 
L 3431 531 
L 3431 0 
L 469 0 
L 469 531 
Q 828 903 1448 1529 
Q 2069 2156 2228 2338 
Q 2531 2678 2651 2914 
Q 2772 3150 2772 3378 
Q 2772 3750 2511 3984 
Q 2250 4219 1831 4219 
Q 1534 4219 1204 4116 
Q 875 4013 500 3803 
L 500 4441 
Q 881 4594 1212 4672 
Q 1544 4750 1819 4750 
Q 2544 4750 2975 4387 
Q 3406 4025 3406 3419 
Q 3406 3131 3298 2873 
Q 3191 2616 2906 2266 
Q 2828 2175 2409 1742 
Q 1991 1309 1228 531 
z
" transform="scale(0.015625)"/>
       </defs>
       <use xlink:href="#DejaVuSans-32"/>
       <use xlink:href="#DejaVuSans-2e" x="63.623047"/>
       <use xlink:href="#DejaVuSans-30" x="95.410156"/>
      </g>
     </g>
    </g>
    <g id="ytick_6">
     <g id="line2d_10">
      <g>
       <use xlink:href="#m24dbf7ab70" x="45.716875" y="65.793261" style="stroke: #000000; stroke-width: 0.8"/>
      </g>
     </g>
     <g id="text_10">
      <!-- 2.5 -->
      <g transform="translate(22.81375 69.59248) scale(0.1 -0.1)">
       <use xlink:href="#DejaVuSans-32"/>
       <use xlink:href="#DejaVuSans-2e" x="63.623047"/>
       <use xlink:href="#DejaVuSans-35" x="95.410156"/>
      </g>
     </g>
    </g>
    <g id="ytick_7">
     <g id="line2d_11">
      <g>
       <use xlink:href="#m24dbf7ab70" x="45.716875" y="16.875862" style="stroke: #000000; stroke-width: 0.8"/>
      </g>
     </g>
     <g id="text_11">
      <!-- 3.0 -->
      <g transform="translate(22.81375 20.67508) scale(0.1 -0.1)">
       <defs>
        <path id="DejaVuSans-33" d="M 2597 2516 
Q 3050 2419 3304 2112 
Q 3559 1806 3559 1356 
Q 3559 666 3084 287 
Q 2609 -91 1734 -91 
Q 1441 -91 1130 -33 
Q 819 25 488 141 
L 488 750 
Q 750 597 1062 519 
Q 1375 441 1716 441 
Q 2309 441 2620 675 
Q 2931 909 2931 1356 
Q 2931 1769 2642 2001 
Q 2353 2234 1838 2234 
L 1294 2234 
L 1294 2753 
L 1863 2753 
Q 2328 2753 2575 2939 
Q 2822 3125 2822 3475 
Q 2822 3834 2567 4026 
Q 2313 4219 1838 4219 
Q 1578 4219 1281 4162 
Q 984 4106 628 3988 
L 628 4550 
Q 988 4650 1302 4700 
Q 1616 4750 1894 4750 
Q 2613 4750 3031 4423 
Q 3450 4097 3450 3541 
Q 3450 3153 3228 2886 
Q 3006 2619 2597 2516 
z
" transform="scale(0.015625)"/>
       </defs>
       <use xlink:href="#DejaVuSans-33"/>
       <use xlink:href="#DejaVuSans-2e" x="63.623047"/>
       <use xlink:href="#DejaVuSans-30" x="95.410156"/>
      </g>
     </g>
    </g>
    <g id="text_12">
     <!-- Relative cell viability -->
     <g transform="translate(16.318125 223.179438) rotate(-90) scale(0.12 -0.12)">
      <defs>
       <path id="DejaVuSans-52" d="M 2841 2188 
Q 3044 2119 3236 1894 
Q 3428 1669 3622 1275 
L 4263 0 
L 3584 0 
L 2988 1197 
Q 2756 1666 2539 1819 
Q 2322 1972 1947 1972 
L 1259 1972 
L 1259 0 
L 628 0 
L 628 4666 
L 2053 4666 
Q 2853 4666 3247 4331 
Q 3641 3997 3641 3322 
Q 3641 2881 3436 2590 
Q 3231 2300 2841 2188 
z
M 1259 4147 
L 1259 2491 
L 2053 2491 
Q 2509 2491 2742 2702 
Q 2975 2913 2975 3322 
Q 2975 3731 2742 3939 
Q 2509 4147 2053 4147 
L 1259 4147 
z
" transform="scale(0.015625)"/>
       <path id="DejaVuSans-65" d="M 3597 1894 
L 3597 1613 
L 953 1613 
Q 991 1019 1311 708 
Q 1631 397 2203 397 
Q 2534 397 2845 478 
Q 3156 559 3463 722 
L 3463 178 
Q 3153 47 2828 -22 
Q 2503 -91 2169 -91 
Q 1331 -91 842 396 
Q 353 884 353 1716 
Q 353 2575 817 3079 
Q 1281 3584 2069 3584 
Q 2775 3584 3186 3129 
Q 3597 2675 3597 1894 
z
M 3022 2063 
Q 3016 2534 2758 2815 
Q 2500 3097 2075 3097 
Q 1594 3097 1305 2825 
Q 1016 2553 972 2059 
L 3022 2063 
z
" transform="scale(0.015625)"/>
       <path id="DejaVuSans-61" d="M 2194 1759 
Q 1497 1759 1228 1600 
Q 959 1441 959 1056 
Q 959 750 1161 570 
Q 1363 391 1709 391 
Q 2188 391 2477 730 
Q 2766 1069 2766 1631 
L 2766 1759 
L 2194 1759 
z
M 3341 1997 
L 3341 0 
L 2766 0 
L 2766 531 
Q 2569 213 2275 61 
Q 1981 -91 1556 -91 
Q 1019 -91 701 211 
Q 384 513 384 1019 
Q 384 1609 779 1909 
Q 1175 2209 1959 2209 
L 2766 2209 
L 2766 2266 
Q 2766 2663 2505 2880 
Q 2244 3097 1772 3097 
Q 1472 3097 1187 3025 
Q 903 2953 641 2809 
L 641 3341 
Q 956 3463 1253 3523 
Q 1550 3584 1831 3584 
Q 2591 3584 2966 3190 
Q 3341 2797 3341 1997 
z
" transform="scale(0.015625)"/>
       <path id="DejaVuSans-69" d="M 603 3500 
L 1178 3500 
L 1178 0 
L 603 0 
L 603 3500 
z
M 603 4863 
L 1178 4863 
L 1178 4134 
L 603 4134 
L 603 4863 
z
" transform="scale(0.015625)"/>
       <path id="DejaVuSans-76" d="M 191 3500 
L 800 3500 
L 1894 563 
L 2988 3500 
L 3597 3500 
L 2284 0 
L 1503 0 
L 191 3500 
z
" transform="scale(0.015625)"/>
       <path id="DejaVuSans-63" d="M 3122 3366 
L 3122 2828 
Q 2878 2963 2633 3030 
Q 2388 3097 2138 3097 
Q 1578 3097 1268 2742 
Q 959 2388 959 1747 
Q 959 1106 1268 751 
Q 1578 397 2138 397 
Q 2388 397 2633 464 
Q 2878 531 3122 666 
L 3122 134 
Q 2881 22 2623 -34 
Q 2366 -91 2075 -91 
Q 1284 -91 818 406 
Q 353 903 353 1747 
Q 353 2603 823 3093 
Q 1294 3584 2113 3584 
Q 2378 3584 2631 3529 
Q 2884 3475 3122 3366 
z
" transform="scale(0.015625)"/>
       <path id="DejaVuSans-79" d="M 2059 -325 
Q 1816 -950 1584 -1140 
Q 1353 -1331 966 -1331 
L 506 -1331 
L 506 -850 
L 844 -850 
Q 1081 -850 1212 -737 
Q 1344 -625 1503 -206 
L 1606 56 
L 191 3500 
L 800 3500 
L 1894 763 
L 2988 3500 
L 3597 3500 
L 2059 -325 
z
" transform="scale(0.015625)"/>
      </defs>
      <use xlink:href="#DejaVuSans-52"/>
      <use xlink:href="#DejaVuSans-65" x="64.982422"/>
      <use xlink:href="#DejaVuSans-6c" x="126.505859"/>
      <use xlink:href="#DejaVuSans-61" x="154.289062"/>
      <use xlink:href="#DejaVuSans-74" x="215.568359"/>
      <use xlink:href="#DejaVuSans-69" x="254.777344"/>
      <use xlink:href="#DejaVuSans-76" x="282.560547"/>
      <use xlink:href="#DejaVuSans-65" x="341.740234"/>
      <use xlink:href="#DejaVuSans-20" x="403.263672"/>
      <use xlink:href="#DejaVuSans-63" x="435.050781"/>
      <use xlink:href="#DejaVuSans-65" x="490.03125"/>
      <use xlink:href="#DejaVuSans-6c" x="551.554688"/>
      <use xlink:href="#DejaVuSans-6c" x="579.337891"/>
      <use xlink:href="#DejaVuSans-20" x="607.121094"/>
      <use xlink:href="#DejaVuSans-76" x="638.908203"/>
      <use xlink:href="#DejaVuSans-69" x="698.087891"/>
      <use xlink:href="#DejaVuSans-61" x="725.871094"/>
      <use xlink:href="#DejaVuSans-62" x="787.150391"/>
      <use xlink:href="#DejaVuSans-69" x="850.626953"/>
      <use xlink:href="#DejaVuSans-6c" x="878.410156"/>
      <use xlink:href="#DejaVuSans-69" x="906.193359"/>
      <use xlink:href="#DejaVuSans-74" x="933.976562"/>
      <use xlink:href="#DejaVuSans-79" x="973.185547"/>
     </g>
    </g>
   </g>
   <g id="patch_3">
    <path d="M 99.461161 231.178098 
L 118.429732 231.178098 
L 118.429732 191.655285 
L 99.461161 191.655285 
L 99.461161 231.178098 
z
" clip-path="url(#p16dfc5e64f)" style="fill: #ffffff; stroke: #000000; stroke-width: 1.2; stroke-linejoin: miter"/>
   </g>
   <g id="line2d_12">
    <path d="M 108.945446 231.178098 
L 108.945446 272.527976 
" clip-path="url(#p16dfc5e64f)" style="fill: none; stroke: #000000; stroke-width: 1.2; stroke-linecap: square"/>
   </g>
   <g id="line2d_13">
    <path d="M 108.945446 191.655285 
L 108.945446 134.41459 
" clip-path="url(#p16dfc5e64f)" style="fill: none; stroke: #000000; stroke-width: 1.2; stroke-linecap: square"/>
   </g>
   <g id="line2d_14">
    <path d="M 104.203304 272.527976 
L 113.687589 272.527976 
" clip-path="url(#p16dfc5e64f)" style="fill: none; stroke: #000000; stroke-width: 1.2; stroke-linecap: square"/>
   </g>
   <g id="line2d_15">
    <path d="M 104.203304 134.41459 
L 113.687589 134.41459 
" clip-path="url(#p16dfc5e64f)" style="fill: none; stroke: #000000; stroke-width: 1.2; stroke-linecap: square"/>
   </g>
   <g id="patch_4">
    <path d="M 204.842113 252.07072 
L 223.810685 252.07072 
L 223.810685 220.778259 
L 204.842113 220.778259 
L 204.842113 252.07072 
z
" clip-path="url(#p16dfc5e64f)" style="fill: #ffffff; stroke: #000000; stroke-width: 1.2; stroke-linejoin: miter"/>
   </g>
   <g id="line2d_16">
    <path d="M 214.326399 252.07072 
L 214.326399 271.363742 
" clip-path="url(#p16dfc5e64f)" style="fill: none; stroke: #000000; stroke-width: 1.2; stroke-linecap: square"/>
   </g>
   <g id="line2d_17">
    <path d="M 214.326399 220.778259 
L 214.326399 184.134235 
" clip-path="url(#p16dfc5e64f)" style="fill: none; stroke: #000000; stroke-width: 1.2; stroke-linecap: square"/>
   </g>
   <g id="line2d_18">
    <path d="M 209.584256 271.363742 
L 219.068542 271.363742 
" clip-path="url(#p16dfc5e64f)" style="fill: none; stroke: #000000; stroke-width: 1.2; stroke-linecap: square"/>
   </g>
   <g id="line2d_19">
    <path d="M 209.584256 184.134235 
L 219.068542 184.134235 
" clip-path="url(#p16dfc5e64f)" style="fill: none; stroke: #000000; stroke-width: 1.2; stroke-linecap: square"/>
   </g>
   <g id="patch_5">
    <path d="M 310.223065 270.461216 
L 329.191637 270.461216 
L 329.191637 241.304 
L 310.223065 241.304 
L 310.223065 270.461216 
z
" clip-path="url(#p16dfc5e64f)" style="fill: #ffffff; stroke: #000000; stroke-width: 1.2; stroke-linejoin: miter"/>
   </g>
   <g id="line2d_20">
    <path d="M 319.707351 270.461216 
L 319.707351 291.26334 
" clip-path="url(#p16dfc5e64f)" style="fill: none; stroke: #000000; stroke-width: 1.2; stroke-linecap: square"/>
   </g>
   <g id="line2d_21">
    <path d="M 319.707351 241.304 
L 319.707351 206.225333 
" clip-path="url(#p16dfc5e64f)" style="fill: none; stroke: #000000; stroke-width: 1.2; stroke-linecap: square"/>
   </g>
   <g id="line2d_22">
    <path d="M 314.965208 291.26334 
L 324.449494 291.26334 
" clip-path="url(#p16dfc5e64f)" style="fill: none; stroke: #000000; stroke-width: 1.2; stroke-linecap: square"/>
   </g>
   <g id="line2d_23">
    <path d="M 314.965208 206.225333 
L 324.449494 206.225333 
" clip-path="url(#p16dfc5e64f)" style="fill: none; stroke: #000000; stroke-width: 1.2; stroke-linecap: square"/>
   </g>
   <g id="patch_6">
    <path d="M 415.604018 283.756965 
L 434.572589 283.756965 
L 434.572589 269.793493 
L 415.604018 269.793493 
L 415.604018 283.756965 
z
" clip-path="url(#p16dfc5e64f)" style="fill: #ffffff; stroke: #000000; stroke-width: 1.2; stroke-linejoin: miter"/>
   </g>
   <g id="line2d_24">
    <path d="M 425.088304 283.756965 
L 425.088304 297.006243 
" clip-path="url(#p16dfc5e64f)" style="fill: none; stroke: #000000; stroke-width: 1.2; stroke-linecap: square"/>
   </g>
   <g id="line2d_25">
    <path d="M 425.088304 269.793493 
L 425.088304 250.612981 
" clip-path="url(#p16dfc5e64f)" style="fill: none; stroke: #000000; stroke-width: 1.2; stroke-linecap: square"/>
   </g>
   <g id="line2d_26">
    <path d="M 420.346161 297.006243 
L 429.830446 297.006243 
" clip-path="url(#p16dfc5e64f)" style="fill: none; stroke: #000000; stroke-width: 1.2; stroke-linecap: square"/>
   </g>
   <g id="line2d_27">
    <path d="M 420.346161 250.612981 
L 429.830446 250.612981 
" clip-path="url(#p16dfc5e64f)" style="fill: none; stroke: #000000; stroke-width: 1.2; stroke-linecap: square"/>
   </g>
   <g id="line2d_28">
    <path d="M 108.945446 56.1174 
L 108.945446 53.182356 
L 214.326399 53.182356 
L 214.326399 56.1174 
" clip-path="url(#p16dfc5e64f)" style="fill: none; stroke: #000000; stroke-width: 1.1; stroke-linecap: square"/>
   </g>
   <g id="line2d_29">
    <path d="M 108.945446 46.33392 
L 108.945446 43.398876 
L 319.707351 43.398876 
L 319.707351 46.33392 
" clip-path="url(#p16dfc5e64f)" style="fill: none; stroke: #000000; stroke-width: 1.1; stroke-linecap: square"/>
   </g>
   <g id="line2d_30">
    <path d="M 108.945446 36.55044 
L 108.945446 33.615396 
L 425.088304 33.615396 
L 425.088304 36.55044 
" clip-path="url(#p16dfc5e64f)" style="fill: none; stroke: #000000; stroke-width: 1.1; stroke-linecap: square"/>
   </g>
   <g id="line2d_31">
    <path d="M 99.461161 218.322605 
L 118.429732 218.322605 
" clip-path="url(#p16dfc5e64f)" style="fill: none; stroke: #000000; stroke-width: 2"/>
   </g>
   <g id="line2d_32">
    <path d="M 204.842113 234.235436 
L 223.810685 234.235436 
" clip-path="url(#p16dfc5e64f)" style="fill: none; stroke: #000000; stroke-width: 2"/>
   </g>
   <g id="line2d_33">
    <path d="M 310.223065 261.105763 
L 329.191637 261.105763 
" clip-path="url(#p16dfc5e64f)" style="fill: none; stroke: #000000; stroke-width: 2"/>
   </g>
   <g id="line2d_34">
    <path d="M 415.604018 277.825731 
L 434.572589 277.825731 
" clip-path="url(#p16dfc5e64f)" style="fill: none; stroke: #000000; stroke-width: 2"/>
   </g>
   <g id="patch_7">
    <path d="M 45.716875 315.272 
L 45.716875 7.2 
" style="fill: none; stroke: #000000; stroke-width: 0.8; stroke-linejoin: miter; stroke-linecap: square"/>
   </g>
   <g id="patch_8">
    <path d="M 45.716875 315.272 
L 488.316875 315.272 
" style="fill: none; stroke: #000000; stroke-width: 0.8; stroke-linejoin: miter; stroke-linecap: square"/>
   </g>
   <g id="PathCollection_1">
    <defs>
     <path id="m1cb6e522d7" d="M 0 1.870829 
C 0.49615 1.870829 0.972045 1.673706 1.322876 1.322876 
C 1.673706 0.972045 1.870829 0.49615 1.870829 0 
C 1.870829 -0.49615 1.673706 -0.972045 1.322876 -1.322876 
C 0.972045 -1.673706 0.49615 -1.870829 0 -1.870829 
C -0.49615 -1.870829 -0.972045 -1.673706 -1.322876 -1.322876 
C -1.673706 -0.972045 -1.870829 -0.49615 -1.870829 0 
C -1.870829 0.49615 -1.673706 0.972045 -1.322876 1.322876 
C -0.972045 1.673706 -0.49615 1.870829 0 1.870829 
z
"/>
    </defs>
    <g clip-path="url(#p16dfc5e64f)">
     <use xlink:href="#m1cb6e522d7" x="115.874186" y="225.850993" style="fill: #4c9be8; fill-opacity: 0.35"/>
     <use xlink:href="#m1cb6e522d7" x="107.399595" y="225.479221" style="fill: #4c9be8; fill-opacity: 0.35"/>
     <use xlink:href="#m1cb6e522d7" x="118.0149" y="230.674249" style="fill: #4c9be8; fill-opacity: 0.35"/>
     <use xlink:href="#m1cb6e522d7" x="113.937166" y="211.743215" style="fill: #4c9be8; fill-opacity: 0.35"/>
     <use xlink:href="#m1cb6e522d7" x="98.681612" y="67.857576" style="fill: #4c9be8; fill-opacity: 0.35"/>
     <use xlink:href="#m1cb6e522d7" x="120.974615" y="134.41459" style="fill: #4c9be8; fill-opacity: 0.35"/>
     <use xlink:href="#m1cb6e522d7" x="115.550043" y="197.987642" style="fill: #4c9be8; fill-opacity: 0.35"/>
     <use xlink:href="#m1cb6e522d7" x="116.180421" y="184.251637" style="fill: #4c9be8; fill-opacity: 0.35"/>
     <use xlink:href="#m1cb6e522d7" x="99.539909" y="160.467997" style="fill: #4c9be8; fill-opacity: 0.35"/>
     <use xlink:href="#m1cb6e522d7" x="107.690636" y="224.901996" style="fill: #4c9be8; fill-opacity: 0.35"/>
     <use xlink:href="#m1cb6e522d7" x="105.677744" y="215.001114" style="fill: #4c9be8; fill-opacity: 0.35"/>
     <use xlink:href="#m1cb6e522d7" x="119.738943" y="248.940006" style="fill: #4c9be8; fill-opacity: 0.35"/>
     <use xlink:href="#m1cb6e522d7" x="112.584001" y="198.51595" style="fill: #4c9be8; fill-opacity: 0.35"/>
     <use xlink:href="#m1cb6e522d7" x="117.108549" y="206.822125" style="fill: #4c9be8; fill-opacity: 0.35"/>
     <use xlink:href="#m1cb6e522d7" x="107.514311" y="233.286438" style="fill: #4c9be8; fill-opacity: 0.35"/>
     <use xlink:href="#m1cb6e522d7" x="102.046924" y="212.760697" style="fill: #4c9be8; fill-opacity: 0.35"/>
     <use xlink:href="#m1cb6e522d7" x="110.325974" y="215.901194" style="fill: #4c9be8; fill-opacity: 0.35"/>
     <use xlink:href="#m1cb6e522d7" x="97.913762" y="230.527497" style="fill: #4c9be8; fill-opacity: 0.35"/>
     <use xlink:href="#m1cb6e522d7" x="117.231707" y="222.240889" style="fill: #4c9be8; fill-opacity: 0.35"/>
     <use xlink:href="#m1cb6e522d7" x="112.275427" y="231.173206" style="fill: #4c9be8; fill-opacity: 0.35"/>
     <use xlink:href="#m1cb6e522d7" x="115.472854" y="168.637203" style="fill: #4c9be8; fill-opacity: 0.35"/>
     <use xlink:href="#m1cb6e522d7" x="105.2662" y="184.095101" style="fill: #4c9be8; fill-opacity: 0.35"/>
     <use xlink:href="#m1cb6e522d7" x="120.850072" y="222.622445" style="fill: #4c9be8; fill-opacity: 0.35"/>
     <use xlink:href="#m1cb6e522d7" x="118.888041" y="222.886599" style="fill: #4c9be8; fill-opacity: 0.35"/>
     <use xlink:href="#m1cb6e522d7" x="115.986163" y="242.394858" style="fill: #4c9be8; fill-opacity: 0.35"/>
     <use xlink:href="#m1cb6e522d7" x="101.222423" y="212.007369" style="fill: #4c9be8; fill-opacity: 0.35"/>
     <use xlink:href="#m1cb6e522d7" x="108.103773" y="181.208974" style="fill: #4c9be8; fill-opacity: 0.35"/>
     <use xlink:href="#m1cb6e522d7" x="97.407592" y="228.903439" style="fill: #4c9be8; fill-opacity: 0.35"/>
     <use xlink:href="#m1cb6e522d7" x="100.201934" y="222.612661" style="fill: #4c9be8; fill-opacity: 0.35"/>
     <use xlink:href="#m1cb6e522d7" x="113.575016" y="156.779625" style="fill: #4c9be8; fill-opacity: 0.35"/>
     <use xlink:href="#m1cb6e522d7" x="115.135831" y="270.209291" style="fill: #4c9be8; fill-opacity: 0.35"/>
     <use xlink:href="#m1cb6e522d7" x="120.769435" y="236.260616" style="fill: #4c9be8; fill-opacity: 0.35"/>
     <use xlink:href="#m1cb6e522d7" x="104.540321" y="208.328781" style="fill: #4c9be8; fill-opacity: 0.35"/>
     <use xlink:href="#m1cb6e522d7" x="105.669187" y="167.864308" style="fill: #4c9be8; fill-opacity: 0.35"/>
     <use xlink:href="#m1cb6e522d7" x="108.175469" y="217.975292" style="fill: #4c9be8; fill-opacity: 0.35"/>
     <use xlink:href="#m1cb6e522d7" x="101.091733" y="199.464948" style="fill: #4c9be8; fill-opacity: 0.35"/>
     <use xlink:href="#m1cb6e522d7" x="99.585633" y="237.796622" style="fill: #4c9be8; fill-opacity: 0.35"/>
     <use xlink:href="#m1cb6e522d7" x="108.330989" y="182.030787" style="fill: #4c9be8; fill-opacity: 0.35"/>
     <use xlink:href="#m1cb6e522d7" x="102.038594" y="209.042975" style="fill: #4c9be8; fill-opacity: 0.35"/>
     <use xlink:href="#m1cb6e522d7" x="113.240285" y="220.655965" style="fill: #4c9be8; fill-opacity: 0.35"/>
     <use xlink:href="#m1cb6e522d7" x="107.355929" y="206.362301" style="fill: #4c9be8; fill-opacity: 0.35"/>
     <use xlink:href="#m1cb6e522d7" x="117.359353" y="231.946101" style="fill: #4c9be8; fill-opacity: 0.35"/>
     <use xlink:href="#m1cb6e522d7" x="114.010437" y="158.599352" style="fill: #4c9be8; fill-opacity: 0.35"/>
     <use xlink:href="#m1cb6e522d7" x="104.199931" y="231.192773" style="fill: #4c9be8; fill-opacity: 0.35"/>
     <use xlink:href="#m1cb6e522d7" x="117.348771" y="212.848748" style="fill: #4c9be8; fill-opacity: 0.35"/>
     <use xlink:href="#m1cb6e522d7" x="116.653372" y="218.669919" style="fill: #4c9be8; fill-opacity: 0.35"/>
     <use xlink:href="#m1cb6e522d7" x="106.099614" y="227.660937" style="fill: #4c9be8; fill-opacity: 0.35"/>
     <use xlink:href="#m1cb6e522d7" x="103.591962" y="198.212662" style="fill: #4c9be8; fill-opacity: 0.35"/>
     <use xlink:href="#m1cb6e522d7" x="113.561018" y="116.540172" style="fill: #4c9be8; fill-opacity: 0.35"/>
     <use xlink:href="#m1cb6e522d7" x="99.834272" y="212.183472" style="fill: #4c9be8; fill-opacity: 0.35"/>
     <use xlink:href="#m1cb6e522d7" x="101.355696" y="162.982351" style="fill: #4c9be8; fill-opacity: 0.35"/>
     <use xlink:href="#m1cb6e522d7" x="96.485934" y="184.779944" style="fill: #4c9be8; fill-opacity: 0.35"/>
     <use xlink:href="#m1cb6e522d7" x="116.202174" y="261.717231" style="fill: #4c9be8; fill-opacity: 0.35"/>
     <use xlink:href="#m1cb6e522d7" x="113.11476" y="212.848748" style="fill: #4c9be8; fill-opacity: 0.35"/>
     <use xlink:href="#m1cb6e522d7" x="114.134372" y="236.808491" style="fill: #4c9be8; fill-opacity: 0.35"/>
     <use xlink:href="#m1cb6e522d7" x="116.045485" y="241.44586" style="fill: #4c9be8; fill-opacity: 0.35"/>
     <use xlink:href="#m1cb6e522d7" x="107.906368" y="247.081145" style="fill: #4c9be8; fill-opacity: 0.35"/>
     <use xlink:href="#m1cb6e522d7" x="110.684009" y="166.406569" style="fill: #4c9be8; fill-opacity: 0.35"/>
     <use xlink:href="#m1cb6e522d7" x="99.835398" y="195.698308" style="fill: #4c9be8; fill-opacity: 0.35"/>
     <use xlink:href="#m1cb6e522d7" x="99.196361" y="223.023568" style="fill: #4c9be8; fill-opacity: 0.35"/>
     <use xlink:href="#m1cb6e522d7" x="113.204598" y="230.586198" style="fill: #4c9be8; fill-opacity: 0.35"/>
     <use xlink:href="#m1cb6e522d7" x="108.214428" y="249.986838" style="fill: #4c9be8; fill-opacity: 0.35"/>
     <use xlink:href="#m1cb6e522d7" x="110.595361" y="172.834315" style="fill: #4c9be8; fill-opacity: 0.35"/>
     <use xlink:href="#m1cb6e522d7" x="115.647646" y="251.865266" style="fill: #4c9be8; fill-opacity: 0.35"/>
     <use xlink:href="#m1cb6e522d7" x="112.352665" y="272.527976" style="fill: #4c9be8; fill-opacity: 0.35"/>
     <use xlink:href="#m1cb6e522d7" x="110.300546" y="237.17048" style="fill: #4c9be8; fill-opacity: 0.35"/>
     <use xlink:href="#m1cb6e522d7" x="110.44288" y="236.77914" style="fill: #4c9be8; fill-opacity: 0.35"/>
     <use xlink:href="#m1cb6e522d7" x="103.987064" y="173.000635" style="fill: #4c9be8; fill-opacity: 0.35"/>
     <use xlink:href="#m1cb6e522d7" x="97.079159" y="224.706326" style="fill: #4c9be8; fill-opacity: 0.35"/>
     <use xlink:href="#m1cb6e522d7" x="107.344939" y="251.278258" style="fill: #4c9be8; fill-opacity: 0.35"/>
     <use xlink:href="#m1cb6e522d7" x="101.726885" y="226.349951" style="fill: #4c9be8; fill-opacity: 0.35"/>
     <use xlink:href="#m1cb6e522d7" x="106.632005" y="116.64779" style="fill: #4c9be8; fill-opacity: 0.35"/>
     <use xlink:href="#m1cb6e522d7" x="117.883515" y="238.227095" style="fill: #4c9be8; fill-opacity: 0.35"/>
     <use xlink:href="#m1cb6e522d7" x="102.216396" y="221.057088" style="fill: #4c9be8; fill-opacity: 0.35"/>
     <use xlink:href="#m1cb6e522d7" x="97.774292" y="220.342894" style="fill: #4c9be8; fill-opacity: 0.35"/>
     <use xlink:href="#m1cb6e522d7" x="103.416333" y="176.375935" style="fill: #4c9be8; fill-opacity: 0.35"/>
     <use xlink:href="#m1cb6e522d7" x="103.725138" y="114.407373" style="fill: #4c9be8; fill-opacity: 0.35"/>
     <use xlink:href="#m1cb6e522d7" x="113.040546" y="202.713063" style="fill: #4c9be8; fill-opacity: 0.35"/>
     <use xlink:href="#m1cb6e522d7" x="110.387871" y="227.827256" style="fill: #4c9be8; fill-opacity: 0.35"/>
     <use xlink:href="#m1cb6e522d7" x="116.125638" y="192.782831" style="fill: #4c9be8; fill-opacity: 0.35"/>
     <use xlink:href="#m1cb6e522d7" x="113.101171" y="263.488041" style="fill: #4c9be8; fill-opacity: 0.35"/>
     <use xlink:href="#m1cb6e522d7" x="106.577836" y="227.201114" style="fill: #4c9be8; fill-opacity: 0.35"/>
     <use xlink:href="#m1cb6e522d7" x="116.887471" y="258.038642" style="fill: #4c9be8; fill-opacity: 0.35"/>
     <use xlink:href="#m1cb6e522d7" x="100.522716" y="226.51627" style="fill: #4c9be8; fill-opacity: 0.35"/>
     <use xlink:href="#m1cb6e522d7" x="96.874153" y="250.035756" style="fill: #4c9be8; fill-opacity: 0.35"/>
     <use xlink:href="#m1cb6e522d7" x="98.577171" y="187.519319" style="fill: #4c9be8; fill-opacity: 0.35"/>
     <use xlink:href="#m1cb6e522d7" x="114.569232" y="235.967112" style="fill: #4c9be8; fill-opacity: 0.35"/>
     <use xlink:href="#m1cb6e522d7" x="107.981267" y="188.272647" style="fill: #4c9be8; fill-opacity: 0.35"/>
     <use xlink:href="#m1cb6e522d7" x="100.378526" y="200.912903" style="fill: #4c9be8; fill-opacity: 0.35"/>
     <use xlink:href="#m1cb6e522d7" x="108.97187" y="179.653401" style="fill: #4c9be8; fill-opacity: 0.35"/>
     <use xlink:href="#m1cb6e522d7" x="100.151923" y="206.07858" style="fill: #4c9be8; fill-opacity: 0.35"/>
     <use xlink:href="#m1cb6e522d7" x="113.910669" y="193.428541" style="fill: #4c9be8; fill-opacity: 0.35"/>
     <use xlink:href="#m1cb6e522d7" x="107.583662" y="230.361178" style="fill: #4c9be8; fill-opacity: 0.35"/>
     <use xlink:href="#m1cb6e522d7" x="105.936303" y="205.472005" style="fill: #4c9be8; fill-opacity: 0.35"/>
     <use xlink:href="#m1cb6e522d7" x="103.925404" y="211.987802" style="fill: #4c9be8; fill-opacity: 0.35"/>
     <use xlink:href="#m1cb6e522d7" x="112.240479" y="143.464309" style="fill: #4c9be8; fill-opacity: 0.35"/>
     <use xlink:href="#m1cb6e522d7" x="105.45049" y="220.411378" style="fill: #4c9be8; fill-opacity: 0.35"/>
     <use xlink:href="#m1cb6e522d7" x="98.516524" y="244.185235" style="fill: #4c9be8; fill-opacity: 0.35"/>
     <use xlink:href="#m1cb6e522d7" x="99.28427" y="236.593254" style="fill: #4c9be8; fill-opacity: 0.35"/>
     <use xlink:href="#m1cb6e522d7" x="120.627498" y="162.747548" style="fill: #4c9be8; fill-opacity: 0.35"/>
    </g>
   </g>
   <g id="PathCollection_2">
    <defs>
     <path id="mae9da4100d" d="M 0 1.870829 
C 0.49615 1.870829 0.972045 1.673706 1.322876 1.322876 
C 1.673706 0.972045 1.870829 0.49615 1.870829 0 
C 1.870829 -0.49615 1.673706 -0.972045 1.322876 -1.322876 
C 0.972045 -1.673706 0.49615 -1.870829 0 -1.870829 
C -0.49615 -1.870829 -0.972045 -1.673706 -1.322876 -1.322876 
C -1.673706 -0.972045 -1.870829 -0.49615 -1.870829 0 
C -1.870829 0.49615 -1.673706 0.972045 -1.322876 1.322876 
C -0.972045 1.673706 -0.49615 1.870829 0 1.870829 
z
"/>
    </defs>
    <g clip-path="url(#p16dfc5e64f)">
     <use xlink:href="#mae9da4100d" x="224.659988" y="196.647306" style="fill: #f4a460; fill-opacity: 0.35"/>
     <use xlink:href="#mae9da4100d" x="219.377278" y="270.483229" style="fill: #f4a460; fill-opacity: 0.35"/>
     <use xlink:href="#mae9da4100d" x="208.404916" y="221.546262" style="fill: #f4a460; fill-opacity: 0.35"/>
     <use xlink:href="#mae9da4100d" x="226.19254" y="252.041369" style="fill: #f4a460; fill-opacity: 0.35"/>
     <use xlink:href="#mae9da4100d" x="221.376407" y="252.158771" style="fill: #f4a460; fill-opacity: 0.35"/>
     <use xlink:href="#mae9da4100d" x="219.811862" y="257.529901" style="fill: #f4a460; fill-opacity: 0.35"/>
     <use xlink:href="#mae9da4100d" x="213.045679" y="224.823728" style="fill: #f4a460; fill-opacity: 0.35"/>
     <use xlink:href="#mae9da4100d" x="208.566063" y="261.042171" style="fill: #f4a460; fill-opacity: 0.35"/>
     <use xlink:href="#mae9da4100d" x="204.11855" y="223.356206" style="fill: #f4a460; fill-opacity: 0.35"/>
     <use xlink:href="#mae9da4100d" x="224.508789" y="244.146101" style="fill: #f4a460; fill-opacity: 0.35"/>
     <use xlink:href="#mae9da4100d" x="213.207918" y="197.410417" style="fill: #f4a460; fill-opacity: 0.35"/>
     <use xlink:href="#mae9da4100d" x="206.798743" y="244.018916" style="fill: #f4a460; fill-opacity: 0.35"/>
     <use xlink:href="#mae9da4100d" x="209.418765" y="226.721723" style="fill: #f4a460; fill-opacity: 0.35"/>
     <use xlink:href="#mae9da4100d" x="216.329975" y="271.050671" style="fill: #f4a460; fill-opacity: 0.35"/>
     <use xlink:href="#mae9da4100d" x="206.151521" y="239.626133" style="fill: #f4a460; fill-opacity: 0.35"/>
     <use xlink:href="#mae9da4100d" x="223.345684" y="251.532628" style="fill: #f4a460; fill-opacity: 0.35"/>
     <use xlink:href="#mae9da4100d" x="220.864727" y="244.498306" style="fill: #f4a460; fill-opacity: 0.35"/>
     <use xlink:href="#mae9da4100d" x="219.87693" y="241.465427" style="fill: #f4a460; fill-opacity: 0.35"/>
     <use xlink:href="#mae9da4100d" x="212.608935" y="219.755885" style="fill: #f4a460; fill-opacity: 0.35"/>
     <use xlink:href="#mae9da4100d" x="217.546221" y="251.239124" style="fill: #f4a460; fill-opacity: 0.35"/>
     <use xlink:href="#mae9da4100d" x="216.453357" y="263.184753" style="fill: #f4a460; fill-opacity: 0.35"/>
     <use xlink:href="#mae9da4100d" x="218.116233" y="236.182348" style="fill: #f4a460; fill-opacity: 0.35"/>
     <use xlink:href="#mae9da4100d" x="203.816402" y="115.737927" style="fill: #f4a460; fill-opacity: 0.35"/>
     <use xlink:href="#mae9da4100d" x="212.197048" y="270.669115" style="fill: #f4a460; fill-opacity: 0.35"/>
     <use xlink:href="#mae9da4100d" x="202.733166" y="245.124449" style="fill: #f4a460; fill-opacity: 0.35"/>
     <use xlink:href="#mae9da4100d" x="214.174418" y="253.655643" style="fill: #f4a460; fill-opacity: 0.35"/>
     <use xlink:href="#mae9da4100d" x="210.023346" y="219.883071" style="fill: #f4a460; fill-opacity: 0.35"/>
     <use xlink:href="#mae9da4100d" x="205.335908" y="262.255322" style="fill: #f4a460; fill-opacity: 0.35"/>
     <use xlink:href="#mae9da4100d" x="204.295893" y="248.401915" style="fill: #f4a460; fill-opacity: 0.35"/>
     <use xlink:href="#mae9da4100d" x="216.543055" y="234.900712" style="fill: #f4a460; fill-opacity: 0.35"/>
     <use xlink:href="#mae9da4100d" x="205.995224" y="194.46559" style="fill: #f4a460; fill-opacity: 0.35"/>
     <use xlink:href="#mae9da4100d" x="225.078294" y="165.760859" style="fill: #f4a460; fill-opacity: 0.35"/>
     <use xlink:href="#mae9da4100d" x="216.376551" y="214.140168" style="fill: #f4a460; fill-opacity: 0.35"/>
     <use xlink:href="#mae9da4100d" x="210.453517" y="215.235918" style="fill: #f4a460; fill-opacity: 0.35"/>
     <use xlink:href="#mae9da4100d" x="216.625781" y="257.842973" style="fill: #f4a460; fill-opacity: 0.35"/>
     <use xlink:href="#mae9da4100d" x="202.257427" y="213.181387" style="fill: #f4a460; fill-opacity: 0.35"/>
     <use xlink:href="#mae9da4100d" x="225.924016" y="252.814264" style="fill: #f4a460; fill-opacity: 0.35"/>
     <use xlink:href="#mae9da4100d" x="213.878827" y="232.72878" style="fill: #f4a460; fill-opacity: 0.35"/>
     <use xlink:href="#mae9da4100d" x="221.477177" y="253.880663" style="fill: #f4a460; fill-opacity: 0.35"/>
     <use xlink:href="#mae9da4100d" x="203.773044" y="269.720117" style="fill: #f4a460; fill-opacity: 0.35"/>
     <use xlink:href="#mae9da4100d" x="213.988969" y="214.31627" style="fill: #f4a460; fill-opacity: 0.35"/>
     <use xlink:href="#mae9da4100d" x="214.091365" y="223.229021" style="fill: #f4a460; fill-opacity: 0.35"/>
     <use xlink:href="#mae9da4100d" x="225.399655" y="225.1955" style="fill: #f4a460; fill-opacity: 0.35"/>
     <use xlink:href="#mae9da4100d" x="216.140504" y="242.355724" style="fill: #f4a460; fill-opacity: 0.35"/>
     <use xlink:href="#mae9da4100d" x="213.655908" y="243.422123" style="fill: #f4a460; fill-opacity: 0.35"/>
     <use xlink:href="#mae9da4100d" x="208.43288" y="238.285796" style="fill: #f4a460; fill-opacity: 0.35"/>
     <use xlink:href="#mae9da4100d" x="210.066538" y="234.695259" style="fill: #f4a460; fill-opacity: 0.35"/>
     <use xlink:href="#mae9da4100d" x="214.849233" y="153.717396" style="fill: #f4a460; fill-opacity: 0.35"/>
     <use xlink:href="#mae9da4100d" x="212.781382" y="236.368234" style="fill: #f4a460; fill-opacity: 0.35"/>
     <use xlink:href="#mae9da4100d" x="202.227285" y="235.42902" style="fill: #f4a460; fill-opacity: 0.35"/>
     <use xlink:href="#mae9da4100d" x="222.578788" y="258.801754" style="fill: #f4a460; fill-opacity: 0.35"/>
     <use xlink:href="#mae9da4100d" x="224.345871" y="261.198706" style="fill: #f4a460; fill-opacity: 0.35"/>
     <use xlink:href="#mae9da4100d" x="205.227784" y="233.579942" style="fill: #f4a460; fill-opacity: 0.35"/>
     <use xlink:href="#mae9da4100d" x="215.69305" y="226.946743" style="fill: #f4a460; fill-opacity: 0.35"/>
     <use xlink:href="#mae9da4100d" x="204.42672" y="167.032712" style="fill: #f4a460; fill-opacity: 0.35"/>
     <use xlink:href="#mae9da4100d" x="218.682597" y="233.511458" style="fill: #f4a460; fill-opacity: 0.35"/>
     <use xlink:href="#mae9da4100d" x="208.793489" y="233.775612" style="fill: #f4a460; fill-opacity: 0.35"/>
     <use xlink:href="#mae9da4100d" x="218.358425" y="148.307131" style="fill: #f4a460; fill-opacity: 0.35"/>
     <use xlink:href="#mae9da4100d" x="220.067417" y="242.189405" style="fill: #f4a460; fill-opacity: 0.35"/>
     <use xlink:href="#mae9da4100d" x="221.120878" y="259.320278" style="fill: #f4a460; fill-opacity: 0.35"/>
     <use xlink:href="#mae9da4100d" x="204.405607" y="218.75797" style="fill: #f4a460; fill-opacity: 0.35"/>
     <use xlink:href="#mae9da4100d" x="224.847933" y="204.405605" style="fill: #f4a460; fill-opacity: 0.35"/>
     <use xlink:href="#mae9da4100d" x="207.503125" y="215.167433" style="fill: #f4a460; fill-opacity: 0.35"/>
     <use xlink:href="#mae9da4100d" x="202.626902" y="232.787481" style="fill: #f4a460; fill-opacity: 0.35"/>
     <use xlink:href="#mae9da4100d" x="215.713696" y="250.202075" style="fill: #f4a460; fill-opacity: 0.35"/>
     <use xlink:href="#mae9da4100d" x="211.061839" y="233.667994" style="fill: #f4a460; fill-opacity: 0.35"/>
     <use xlink:href="#mae9da4100d" x="222.667253" y="96.298152" style="fill: #f4a460; fill-opacity: 0.35"/>
     <use xlink:href="#mae9da4100d" x="222.122519" y="263.742411" style="fill: #f4a460; fill-opacity: 0.35"/>
     <use xlink:href="#mae9da4100d" x="209.70158" y="223.659494" style="fill: #f4a460; fill-opacity: 0.35"/>
     <use xlink:href="#mae9da4100d" x="225.780872" y="184.134235" style="fill: #f4a460; fill-opacity: 0.35"/>
     <use xlink:href="#mae9da4100d" x="209.038412" y="195.492855" style="fill: #f4a460; fill-opacity: 0.35"/>
     <use xlink:href="#mae9da4100d" x="214.707215" y="223.591009" style="fill: #f4a460; fill-opacity: 0.35"/>
     <use xlink:href="#mae9da4100d" x="208.154407" y="213.073768" style="fill: #f4a460; fill-opacity: 0.35"/>
     <use xlink:href="#mae9da4100d" x="225.354564" y="256.952676" style="fill: #f4a460; fill-opacity: 0.35"/>
     <use xlink:href="#mae9da4100d" x="205.843851" y="237.219397" style="fill: #f4a460; fill-opacity: 0.35"/>
     <use xlink:href="#mae9da4100d" x="202.816538" y="221.389726" style="fill: #f4a460; fill-opacity: 0.35"/>
     <use xlink:href="#mae9da4100d" x="212.684911" y="211.674731" style="fill: #f4a460; fill-opacity: 0.35"/>
     <use xlink:href="#mae9da4100d" x="226.77928" y="221.42886" style="fill: #f4a460; fill-opacity: 0.35"/>
     <use xlink:href="#mae9da4100d" x="224.232476" y="224.09975" style="fill: #f4a460; fill-opacity: 0.35"/>
     <use xlink:href="#mae9da4100d" x="220.614051" y="228.296863" style="fill: #f4a460; fill-opacity: 0.35"/>
     <use xlink:href="#mae9da4100d" x="224.210099" y="253.049068" style="fill: #f4a460; fill-opacity: 0.35"/>
     <use xlink:href="#mae9da4100d" x="224.277226" y="226.54562" style="fill: #f4a460; fill-opacity: 0.35"/>
     <use xlink:href="#mae9da4100d" x="214.803354" y="262.353157" style="fill: #f4a460; fill-opacity: 0.35"/>
     <use xlink:href="#mae9da4100d" x="209.670982" y="257.549468" style="fill: #f4a460; fill-opacity: 0.35"/>
     <use xlink:href="#mae9da4100d" x="221.205982" y="259.105042" style="fill: #f4a460; fill-opacity: 0.35"/>
     <use xlink:href="#mae9da4100d" x="218.415043" y="228.76647" style="fill: #f4a460; fill-opacity: 0.35"/>
     <use xlink:href="#mae9da4100d" x="211.131022" y="222.456126" style="fill: #f4a460; fill-opacity: 0.35"/>
     <use xlink:href="#mae9da4100d" x="204.069882" y="246.699589" style="fill: #f4a460; fill-opacity: 0.35"/>
     <use xlink:href="#mae9da4100d" x="220.568061" y="271.363742" style="fill: #f4a460; fill-opacity: 0.35"/>
     <use xlink:href="#mae9da4100d" x="208.318686" y="239.939204" style="fill: #f4a460; fill-opacity: 0.35"/>
     <use xlink:href="#mae9da4100d" x="225.374027" y="229.539365" style="fill: #f4a460; fill-opacity: 0.35"/>
     <use xlink:href="#mae9da4100d" x="207.775175" y="221.076655" style="fill: #f4a460; fill-opacity: 0.35"/>
     <use xlink:href="#mae9da4100d" x="204.785408" y="267.841689" style="fill: #f4a460; fill-opacity: 0.35"/>
     <use xlink:href="#mae9da4100d" x="222.700711" y="239.518515" style="fill: #f4a460; fill-opacity: 0.35"/>
     <use xlink:href="#mae9da4100d" x="205.557464" y="262.225972" style="fill: #f4a460; fill-opacity: 0.35"/>
     <use xlink:href="#mae9da4100d" x="206.214636" y="233.17882" style="fill: #f4a460; fill-opacity: 0.35"/>
     <use xlink:href="#mae9da4100d" x="216.839932" y="214.531507" style="fill: #f4a460; fill-opacity: 0.35"/>
     <use xlink:href="#mae9da4100d" x="223.799608" y="245.584272" style="fill: #f4a460; fill-opacity: 0.35"/>
     <use xlink:href="#mae9da4100d" x="206.648798" y="171.748349" style="fill: #f4a460; fill-opacity: 0.35"/>
     <use xlink:href="#mae9da4100d" x="209.529214" y="209.884354" style="fill: #f4a460; fill-opacity: 0.35"/>
    </g>
   </g>
   <g id="PathCollection_3">
    <defs>
     <path id="m491afdf21e" d="M 0 1.870829 
C 0.49615 1.870829 0.972045 1.673706 1.322876 1.322876 
C 1.673706 0.972045 1.870829 0.49615 1.870829 0 
C 1.870829 -0.49615 1.673706 -0.972045 1.322876 -1.322876 
C 0.972045 -1.673706 0.49615 -1.870829 0 -1.870829 
C -0.49615 -1.870829 -0.972045 -1.673706 -1.322876 -1.322876 
C -1.673706 -0.972045 -1.870829 -0.49615 -1.870829 0 
C -1.870829 0.49615 -1.673706 0.972045 -1.322876 1.322876 
C -0.972045 1.673706 -0.49615 1.870829 0 1.870829 
z
"/>
    </defs>
    <g clip-path="url(#p16dfc5e64f)">
     <use xlink:href="#m491afdf21e" x="326.723316" y="240.232709" style="fill: #e86060; fill-opacity: 0.35"/>
     <use xlink:href="#m491afdf21e" x="331.640516" y="265.611056" style="fill: #e86060; fill-opacity: 0.35"/>
     <use xlink:href="#m491afdf21e" x="319.726097" y="274.1129" style="fill: #e86060; fill-opacity: 0.35"/>
     <use xlink:href="#m491afdf21e" x="310.70101" y="195.62004" style="fill: #e86060; fill-opacity: 0.35"/>
     <use xlink:href="#m491afdf21e" x="307.414106" y="246.396301" style="fill: #e86060; fill-opacity: 0.35"/>
     <use xlink:href="#m491afdf21e" x="312.869966" y="253.401273" style="fill: #e86060; fill-opacity: 0.35"/>
     <use xlink:href="#m491afdf21e" x="310.395609" y="233.002717" style="fill: #e86060; fill-opacity: 0.35"/>
     <use xlink:href="#m491afdf21e" x="324.200593" y="274.083549" style="fill: #e86060; fill-opacity: 0.35"/>
     <use xlink:href="#m491afdf21e" x="310.142955" y="265.806725" style="fill: #e86060; fill-opacity: 0.35"/>
     <use xlink:href="#m491afdf21e" x="319.867444" y="243.363422" style="fill: #e86060; fill-opacity: 0.35"/>
     <use xlink:href="#m491afdf21e" x="324.620526" y="234.78331" style="fill: #e86060; fill-opacity: 0.35"/>
     <use xlink:href="#m491afdf21e" x="321.758906" y="240.907769" style="fill: #e86060; fill-opacity: 0.35"/>
     <use xlink:href="#m491afdf21e" x="312.114249" y="262.382507" style="fill: #e86060; fill-opacity: 0.35"/>
     <use xlink:href="#m491afdf21e" x="327.399095" y="186.629022" style="fill: #e86060; fill-opacity: 0.35"/>
     <use xlink:href="#m491afdf21e" x="325.155305" y="263.45869" style="fill: #e86060; fill-opacity: 0.35"/>
     <use xlink:href="#m491afdf21e" x="325.751598" y="253.186036" style="fill: #e86060; fill-opacity: 0.35"/>
     <use xlink:href="#m491afdf21e" x="310.376275" y="276.353317" style="fill: #e86060; fill-opacity: 0.35"/>
     <use xlink:href="#m491afdf21e" x="310.191547" y="262.10857" style="fill: #e86060; fill-opacity: 0.35"/>
     <use xlink:href="#m491afdf21e" x="330.521019" y="236.583471" style="fill: #e86060; fill-opacity: 0.35"/>
     <use xlink:href="#m491afdf21e" x="317.116957" y="226.036879" style="fill: #e86060; fill-opacity: 0.35"/>
     <use xlink:href="#m491afdf21e" x="314.673059" y="281.910333" style="fill: #e86060; fill-opacity: 0.35"/>
     <use xlink:href="#m491afdf21e" x="319.418625" y="276.050029" style="fill: #e86060; fill-opacity: 0.35"/>
     <use xlink:href="#m491afdf21e" x="323.82642" y="270.395177" style="fill: #e86060; fill-opacity: 0.35"/>
     <use xlink:href="#m491afdf21e" x="331.230714" y="225.097665" style="fill: #e86060; fill-opacity: 0.35"/>
     <use xlink:href="#m491afdf21e" x="314.306271" y="250.260776" style="fill: #e86060; fill-opacity: 0.35"/>
     <use xlink:href="#m491afdf21e" x="330.451363" y="245.026614" style="fill: #e86060; fill-opacity: 0.35"/>
     <use xlink:href="#m491afdf21e" x="307.690369" y="265.816509" style="fill: #e86060; fill-opacity: 0.35"/>
     <use xlink:href="#m491afdf21e" x="321.103389" y="276.382667" style="fill: #e86060; fill-opacity: 0.35"/>
     <use xlink:href="#m491afdf21e" x="323.095773" y="262.499909" style="fill: #e86060; fill-opacity: 0.35"/>
     <use xlink:href="#m491afdf21e" x="309.739934" y="216.047946" style="fill: #e86060; fill-opacity: 0.35"/>
     <use xlink:href="#m491afdf21e" x="310.611026" y="216.859975" style="fill: #e86060; fill-opacity: 0.35"/>
     <use xlink:href="#m491afdf21e" x="317.661637" y="277.077294" style="fill: #e86060; fill-opacity: 0.35"/>
     <use xlink:href="#m491afdf21e" x="331.499022" y="264.896862" style="fill: #e86060; fill-opacity: 0.35"/>
     <use xlink:href="#m491afdf21e" x="322.136405" y="270.972403" style="fill: #e86060; fill-opacity: 0.35"/>
     <use xlink:href="#m491afdf21e" x="330.659127" y="254.986197" style="fill: #e86060; fill-opacity: 0.35"/>
     <use xlink:href="#m491afdf21e" x="327.405074" y="242.561177" style="fill: #e86060; fill-opacity: 0.35"/>
     <use xlink:href="#m491afdf21e" x="318.882385" y="257.911457" style="fill: #e86060; fill-opacity: 0.35"/>
     <use xlink:href="#m491afdf21e" x="326.909426" y="273.388922" style="fill: #e86060; fill-opacity: 0.35"/>
     <use xlink:href="#m491afdf21e" x="307.512755" y="279.200309" style="fill: #e86060; fill-opacity: 0.35"/>
     <use xlink:href="#m491afdf21e" x="309.822045" y="264.769677" style="fill: #e86060; fill-opacity: 0.35"/>
     <use xlink:href="#m491afdf21e" x="328.039071" y="242.06222" style="fill: #e86060; fill-opacity: 0.35"/>
     <use xlink:href="#m491afdf21e" x="327.214279" y="282.135353" style="fill: #e86060; fill-opacity: 0.35"/>
     <use xlink:href="#m491afdf21e" x="312.945454" y="216.595821" style="fill: #e86060; fill-opacity: 0.35"/>
     <use xlink:href="#m491afdf21e" x="320.485558" y="249.761818" style="fill: #e86060; fill-opacity: 0.35"/>
     <use xlink:href="#m491afdf21e" x="322.388643" y="261.590046" style="fill: #e86060; fill-opacity: 0.35"/>
     <use xlink:href="#m491afdf21e" x="329.007995" y="268.027575" style="fill: #e86060; fill-opacity: 0.35"/>
     <use xlink:href="#m491afdf21e" x="322.315078" y="223.160536" style="fill: #e86060; fill-opacity: 0.35"/>
     <use xlink:href="#m491afdf21e" x="317.496161" y="281.567912" style="fill: #e86060; fill-opacity: 0.35"/>
     <use xlink:href="#m491afdf21e" x="316.525286" y="270.385394" style="fill: #e86060; fill-opacity: 0.35"/>
     <use xlink:href="#m491afdf21e" x="317.832803" y="252.256606" style="fill: #e86060; fill-opacity: 0.35"/>
     <use xlink:href="#m491afdf21e" x="323.549904" y="227.709854" style="fill: #e86060; fill-opacity: 0.35"/>
     <use xlink:href="#m491afdf21e" x="329.001714" y="263.370639" style="fill: #e86060; fill-opacity: 0.35"/>
     <use xlink:href="#m491afdf21e" x="318.541337" y="231.916751" style="fill: #e86060; fill-opacity: 0.35"/>
     <use xlink:href="#m491afdf21e" x="313.329854" y="272.59646" style="fill: #e86060; fill-opacity: 0.35"/>
     <use xlink:href="#m491afdf21e" x="313.047166" y="230.899269" style="fill: #e86060; fill-opacity: 0.35"/>
     <use xlink:href="#m491afdf21e" x="325.929404" y="274.934712" style="fill: #e86060; fill-opacity: 0.35"/>
     <use xlink:href="#m491afdf21e" x="327.713827" y="237.493334" style="fill: #e86060; fill-opacity: 0.35"/>
     <use xlink:href="#m491afdf21e" x="309.72427" y="269.103758" style="fill: #e86060; fill-opacity: 0.35"/>
     <use xlink:href="#m491afdf21e" x="308.745005" y="192.958934" style="fill: #e86060; fill-opacity: 0.35"/>
     <use xlink:href="#m491afdf21e" x="322.095713" y="268.291729" style="fill: #e86060; fill-opacity: 0.35"/>
     <use xlink:href="#m491afdf21e" x="310.758567" y="267.411216" style="fill: #e86060; fill-opacity: 0.35"/>
     <use xlink:href="#m491afdf21e" x="327.918572" y="255.710174" style="fill: #e86060; fill-opacity: 0.35"/>
     <use xlink:href="#m491afdf21e" x="314.910444" y="263.00865" style="fill: #e86060; fill-opacity: 0.35"/>
     <use xlink:href="#m491afdf21e" x="310.700364" y="273.88788" style="fill: #e86060; fill-opacity: 0.35"/>
     <use xlink:href="#m491afdf21e" x="330.354296" y="241.436077" style="fill: #e86060; fill-opacity: 0.35"/>
     <use xlink:href="#m491afdf21e" x="311.248171" y="277.869756" style="fill: #e86060; fill-opacity: 0.35"/>
     <use xlink:href="#m491afdf21e" x="314.262615" y="270.414744" style="fill: #e86060; fill-opacity: 0.35"/>
     <use xlink:href="#m491afdf21e" x="310.946739" y="260.181224" style="fill: #e86060; fill-opacity: 0.35"/>
     <use xlink:href="#m491afdf21e" x="309.982546" y="270.12124" style="fill: #e86060; fill-opacity: 0.35"/>
     <use xlink:href="#m491afdf21e" x="307.5965" y="242.482909" style="fill: #e86060; fill-opacity: 0.35"/>
     <use xlink:href="#m491afdf21e" x="308.462666" y="247.981225" style="fill: #e86060; fill-opacity: 0.35"/>
     <use xlink:href="#m491afdf21e" x="311.478569" y="279.112258" style="fill: #e86060; fill-opacity: 0.35"/>
     <use xlink:href="#m491afdf21e" x="308.411742" y="267.235113" style="fill: #e86060; fill-opacity: 0.35"/>
     <use xlink:href="#m491afdf21e" x="322.012509" y="227.680504" style="fill: #e86060; fill-opacity: 0.35"/>
     <use xlink:href="#m491afdf21e" x="324.27788" y="246.151714" style="fill: #e86060; fill-opacity: 0.35"/>
     <use xlink:href="#m491afdf21e" x="317.017113" y="259.770318" style="fill: #e86060; fill-opacity: 0.35"/>
     <use xlink:href="#m491afdf21e" x="315.104086" y="217.241531" style="fill: #e86060; fill-opacity: 0.35"/>
     <use xlink:href="#m491afdf21e" x="319.821826" y="206.225333" style="fill: #e86060; fill-opacity: 0.35"/>
     <use xlink:href="#m491afdf21e" x="329.191762" y="247.511618" style="fill: #e86060; fill-opacity: 0.35"/>
     <use xlink:href="#m491afdf21e" x="328.587972" y="270.600631" style="fill: #e86060; fill-opacity: 0.35"/>
     <use xlink:href="#m491afdf21e" x="308.161183" y="274.885795" style="fill: #e86060; fill-opacity: 0.35"/>
     <use xlink:href="#m491afdf21e" x="311.651991" y="213.200954" style="fill: #e86060; fill-opacity: 0.35"/>
     <use xlink:href="#m491afdf21e" x="313.049253" y="250.691249" style="fill: #e86060; fill-opacity: 0.35"/>
     <use xlink:href="#m491afdf21e" x="313.369005" y="260.914985" style="fill: #e86060; fill-opacity: 0.35"/>
     <use xlink:href="#m491afdf21e" x="321.508927" y="249.497664" style="fill: #e86060; fill-opacity: 0.35"/>
     <use xlink:href="#m491afdf21e" x="317.589508" y="279.356845" style="fill: #e86060; fill-opacity: 0.35"/>
     <use xlink:href="#m491afdf21e" x="308.307344" y="239.665267" style="fill: #e86060; fill-opacity: 0.35"/>
     <use xlink:href="#m491afdf21e" x="316.510872" y="268.066709" style="fill: #e86060; fill-opacity: 0.35"/>
     <use xlink:href="#m491afdf21e" x="320.308097" y="281.059171" style="fill: #e86060; fill-opacity: 0.35"/>
     <use xlink:href="#m491afdf21e" x="309.633065" y="217.094779" style="fill: #e86060; fill-opacity: 0.35"/>
     <use xlink:href="#m491afdf21e" x="328.140994" y="279.738401" style="fill: #e86060; fill-opacity: 0.35"/>
     <use xlink:href="#m491afdf21e" x="308.375827" y="251.669597" style="fill: #e86060; fill-opacity: 0.35"/>
     <use xlink:href="#m491afdf21e" x="330.452209" y="255.465587" style="fill: #e86060; fill-opacity: 0.35"/>
     <use xlink:href="#m491afdf21e" x="309.56835" y="229.059975" style="fill: #e86060; fill-opacity: 0.35"/>
     <use xlink:href="#m491afdf21e" x="328.396853" y="291.26334" style="fill: #e86060; fill-opacity: 0.35"/>
     <use xlink:href="#m491afdf21e" x="329.891024" y="279.386196" style="fill: #e86060; fill-opacity: 0.35"/>
     <use xlink:href="#m491afdf21e" x="331.836379" y="269.387479" style="fill: #e86060; fill-opacity: 0.35"/>
     <use xlink:href="#m491afdf21e" x="327.346017" y="261.296541" style="fill: #e86060; fill-opacity: 0.35"/>
     <use xlink:href="#m491afdf21e" x="326.775737" y="267.440567" style="fill: #e86060; fill-opacity: 0.35"/>
     <use xlink:href="#m491afdf21e" x="323.310957" y="277.830622" style="fill: #e86060; fill-opacity: 0.35"/>
    </g>
   </g>
   <g id="PathCollection_4">
    <defs>
     <path id="m6a60a0ef3d" d="M 0 1.870829 
C 0.49615 1.870829 0.972045 1.673706 1.322876 1.322876 
C 1.673706 0.972045 1.870829 0.49615 1.870829 0 
C 1.870829 -0.49615 1.673706 -0.972045 1.322876 -1.322876 
C 0.972045 -1.673706 0.49615 -1.870829 0 -1.870829 
C -0.49615 -1.870829 -0.972045 -1.673706 -1.322876 -1.322876 
C -1.673706 -0.972045 -1.870829 -0.49615 -1.870829 0 
C -1.870829 0.49615 -1.673706 0.972045 -1.322876 1.322876 
C -0.972045 1.673706 -0.49615 1.870829 0 1.870829 
z
"/>
    </defs>
    <g clip-path="url(#p16dfc5e64f)">
     <use xlink:href="#m6a60a0ef3d" x="432.14452" y="283.651793" style="fill: #7b68ee; fill-opacity: 0.35"/>
     <use xlink:href="#m6a60a0ef3d" x="415.845607" y="282.634311" style="fill: #7b68ee; fill-opacity: 0.35"/>
     <use xlink:href="#m6a60a0ef3d" x="426.000516" y="293.875529" style="fill: #7b68ee; fill-opacity: 0.35"/>
     <use xlink:href="#m6a60a0ef3d" x="425.44802" y="255.651473" style="fill: #7b68ee; fill-opacity: 0.35"/>
     <use xlink:href="#m6a60a0ef3d" x="434.131814" y="297.006243" style="fill: #7b68ee; fill-opacity: 0.35"/>
     <use xlink:href="#m6a60a0ef3d" x="424.147446" y="281.548345" style="fill: #7b68ee; fill-opacity: 0.35"/>
     <use xlink:href="#m6a60a0ef3d" x="422.182053" y="258.332147" style="fill: #7b68ee; fill-opacity: 0.35"/>
     <use xlink:href="#m6a60a0ef3d" x="428.618058" y="280.364544" style="fill: #7b68ee; fill-opacity: 0.35"/>
     <use xlink:href="#m6a60a0ef3d" x="419.181827" y="285.853076" style="fill: #7b68ee; fill-opacity: 0.35"/>
     <use xlink:href="#m6a60a0ef3d" x="415.977532" y="279.914503" style="fill: #7b68ee; fill-opacity: 0.35"/>
     <use xlink:href="#m6a60a0ef3d" x="424.528788" y="278.016508" style="fill: #7b68ee; fill-opacity: 0.35"/>
     <use xlink:href="#m6a60a0ef3d" x="422.986317" y="267.67537" style="fill: #7b68ee; fill-opacity: 0.35"/>
     <use xlink:href="#m6a60a0ef3d" x="418.324615" y="268.643935" style="fill: #7b68ee; fill-opacity: 0.35"/>
     <use xlink:href="#m6a60a0ef3d" x="421.737488" y="282.037519" style="fill: #7b68ee; fill-opacity: 0.35"/>
     <use xlink:href="#m6a60a0ef3d" x="421.709178" y="280.736316" style="fill: #7b68ee; fill-opacity: 0.35"/>
     <use xlink:href="#m6a60a0ef3d" x="420.72542" y="284.072482" style="fill: #7b68ee; fill-opacity: 0.35"/>
     <use xlink:href="#m6a60a0ef3d" x="422.039778" y="285.47152" style="fill: #7b68ee; fill-opacity: 0.35"/>
     <use xlink:href="#m6a60a0ef3d" x="429.786018" y="282.565827" style="fill: #7b68ee; fill-opacity: 0.35"/>
     <use xlink:href="#m6a60a0ef3d" x="419.951019" y="274.005282" style="fill: #7b68ee; fill-opacity: 0.35"/>
     <use xlink:href="#m6a60a0ef3d" x="436.440562" y="276.421801" style="fill: #7b68ee; fill-opacity: 0.35"/>
     <use xlink:href="#m6a60a0ef3d" x="435.61834" y="274.905362" style="fill: #7b68ee; fill-opacity: 0.35"/>
     <use xlink:href="#m6a60a0ef3d" x="424.605501" y="295.069114" style="fill: #7b68ee; fill-opacity: 0.35"/>
     <use xlink:href="#m6a60a0ef3d" x="420.747313" y="282.301673" style="fill: #7b68ee; fill-opacity: 0.35"/>
     <use xlink:href="#m6a60a0ef3d" x="425.9845" y="268.223245" style="fill: #7b68ee; fill-opacity: 0.35"/>
     <use xlink:href="#m6a60a0ef3d" x="433.903896" y="229.148026" style="fill: #7b68ee; fill-opacity: 0.35"/>
     <use xlink:href="#m6a60a0ef3d" x="428.947455" y="293.053717" style="fill: #7b68ee; fill-opacity: 0.35"/>
     <use xlink:href="#m6a60a0ef3d" x="432.786808" y="276.744656" style="fill: #7b68ee; fill-opacity: 0.35"/>
     <use xlink:href="#m6a60a0ef3d" x="425.915897" y="287.516267" style="fill: #7b68ee; fill-opacity: 0.35"/>
     <use xlink:href="#m6a60a0ef3d" x="428.44998" y="277.634953" style="fill: #7b68ee; fill-opacity: 0.35"/>
     <use xlink:href="#m6a60a0ef3d" x="419.730456" y="284.37577" style="fill: #7b68ee; fill-opacity: 0.35"/>
     <use xlink:href="#m6a60a0ef3d" x="431.029087" y="279.210093" style="fill: #7b68ee; fill-opacity: 0.35"/>
     <use xlink:href="#m6a60a0ef3d" x="417.561691" y="279.787318" style="fill: #7b68ee; fill-opacity: 0.35"/>
     <use xlink:href="#m6a60a0ef3d" x="430.015027" y="279.395979" style="fill: #7b68ee; fill-opacity: 0.35"/>
     <use xlink:href="#m6a60a0ef3d" x="434.211404" y="273.154119" style="fill: #7b68ee; fill-opacity: 0.35"/>
     <use xlink:href="#m6a60a0ef3d" x="415.783659" y="280.423244" style="fill: #7b68ee; fill-opacity: 0.35"/>
     <use xlink:href="#m6a60a0ef3d" x="427.981131" y="252.031586" style="fill: #7b68ee; fill-opacity: 0.35"/>
     <use xlink:href="#m6a60a0ef3d" x="414.847697" y="282.869114" style="fill: #7b68ee; fill-opacity: 0.35"/>
     <use xlink:href="#m6a60a0ef3d" x="430.796974" y="271.128938" style="fill: #7b68ee; fill-opacity: 0.35"/>
     <use xlink:href="#m6a60a0ef3d" x="414.579543" y="278.681785" style="fill: #7b68ee; fill-opacity: 0.35"/>
     <use xlink:href="#m6a60a0ef3d" x="436.113844" y="265.973045" style="fill: #7b68ee; fill-opacity: 0.35"/>
     <use xlink:href="#m6a60a0ef3d" x="415.917832" y="294.844094" style="fill: #7b68ee; fill-opacity: 0.35"/>
     <use xlink:href="#m6a60a0ef3d" x="436.694041" y="283.514824" style="fill: #7b68ee; fill-opacity: 0.35"/>
     <use xlink:href="#m6a60a0ef3d" x="432.698094" y="276.910975" style="fill: #7b68ee; fill-opacity: 0.35"/>
     <use xlink:href="#m6a60a0ef3d" x="427.457655" y="287.359732" style="fill: #7b68ee; fill-opacity: 0.35"/>
     <use xlink:href="#m6a60a0ef3d" x="432.236271" y="282.174487" style="fill: #7b68ee; fill-opacity: 0.35"/>
     <use xlink:href="#m6a60a0ef3d" x="432.552179" y="269.064624" style="fill: #7b68ee; fill-opacity: 0.35"/>
     <use xlink:href="#m6a60a0ef3d" x="436.368965" y="266.833991" style="fill: #7b68ee; fill-opacity: 0.35"/>
     <use xlink:href="#m6a60a0ef3d" x="418.851016" y="278.975289" style="fill: #7b68ee; fill-opacity: 0.35"/>
     <use xlink:href="#m6a60a0ef3d" x="427.366452" y="273.848746" style="fill: #7b68ee; fill-opacity: 0.35"/>
     <use xlink:href="#m6a60a0ef3d" x="414.846519" y="261.472644" style="fill: #7b68ee; fill-opacity: 0.35"/>
     <use xlink:href="#m6a60a0ef3d" x="428.0263" y="283.397422" style="fill: #7b68ee; fill-opacity: 0.35"/>
     <use xlink:href="#m6a60a0ef3d" x="416.774791" y="286.987959" style="fill: #7b68ee; fill-opacity: 0.35"/>
     <use xlink:href="#m6a60a0ef3d" x="426.730997" y="264.818594" style="fill: #7b68ee; fill-opacity: 0.35"/>
     <use xlink:href="#m6a60a0ef3d" x="426.920175" y="258.283229" style="fill: #7b68ee; fill-opacity: 0.35"/>
     <use xlink:href="#m6a60a0ef3d" x="424.228019" y="289.110975" style="fill: #7b68ee; fill-opacity: 0.35"/>
     <use xlink:href="#m6a60a0ef3d" x="425.660694" y="250.612981" style="fill: #7b68ee; fill-opacity: 0.35"/>
     <use xlink:href="#m6a60a0ef3d" x="431.763303" y="261.296541" style="fill: #7b68ee; fill-opacity: 0.35"/>
     <use xlink:href="#m6a60a0ef3d" x="432.65663" y="251.376092" style="fill: #7b68ee; fill-opacity: 0.35"/>
     <use xlink:href="#m6a60a0ef3d" x="424.889847" y="272.606244" style="fill: #7b68ee; fill-opacity: 0.35"/>
     <use xlink:href="#m6a60a0ef3d" x="427.607164" y="268.448265" style="fill: #7b68ee; fill-opacity: 0.35"/>
     <use xlink:href="#m6a60a0ef3d" x="435.994884" y="274.445538" style="fill: #7b68ee; fill-opacity: 0.35"/>
     <use xlink:href="#m6a60a0ef3d" x="415.470823" y="272.713862" style="fill: #7b68ee; fill-opacity: 0.35"/>
     <use xlink:href="#m6a60a0ef3d" x="415.404306" y="273.066068" style="fill: #7b68ee; fill-opacity: 0.35"/>
     <use xlink:href="#m6a60a0ef3d" x="414.660875" y="274.073766" style="fill: #7b68ee; fill-opacity: 0.35"/>
     <use xlink:href="#m6a60a0ef3d" x="429.080892" y="277.45885" style="fill: #7b68ee; fill-opacity: 0.35"/>
     <use xlink:href="#m6a60a0ef3d" x="423.029791" y="284.894295" style="fill: #7b68ee; fill-opacity: 0.35"/>
     <use xlink:href="#m6a60a0ef3d" x="432.026284" y="284.532306" style="fill: #7b68ee; fill-opacity: 0.35"/>
     <use xlink:href="#m6a60a0ef3d" x="429.418991" y="293.513541" style="fill: #7b68ee; fill-opacity: 0.35"/>
     <use xlink:href="#m6a60a0ef3d" x="420.880765" y="261.824849" style="fill: #7b68ee; fill-opacity: 0.35"/>
     <use xlink:href="#m6a60a0ef3d" x="435.163563" y="261.081305" style="fill: #7b68ee; fill-opacity: 0.35"/>
     <use xlink:href="#m6a60a0ef3d" x="431.728117" y="290.930702" style="fill: #7b68ee; fill-opacity: 0.35"/>
     <use xlink:href="#m6a60a0ef3d" x="419.284804" y="234.391971" style="fill: #7b68ee; fill-opacity: 0.35"/>
     <use xlink:href="#m6a60a0ef3d" x="421.653526" y="256.101513" style="fill: #7b68ee; fill-opacity: 0.35"/>
     <use xlink:href="#m6a60a0ef3d" x="420.395226" y="280.853718" style="fill: #7b68ee; fill-opacity: 0.35"/>
     <use xlink:href="#m6a60a0ef3d" x="416.428813" y="275.423886" style="fill: #7b68ee; fill-opacity: 0.35"/>
     <use xlink:href="#m6a60a0ef3d" x="416.180242" y="273.134552" style="fill: #7b68ee; fill-opacity: 0.35"/>
     <use xlink:href="#m6a60a0ef3d" x="436.11859" y="273.173686" style="fill: #7b68ee; fill-opacity: 0.35"/>
     <use xlink:href="#m6a60a0ef3d" x="423.517808" y="234.343054" style="fill: #7b68ee; fill-opacity: 0.35"/>
     <use xlink:href="#m6a60a0ef3d" x="422.137295" y="273.985715" style="fill: #7b68ee; fill-opacity: 0.35"/>
     <use xlink:href="#m6a60a0ef3d" x="430.897383" y="269.544015" style="fill: #7b68ee; fill-opacity: 0.35"/>
     <use xlink:href="#m6a60a0ef3d" x="426.428574" y="288.318513" style="fill: #7b68ee; fill-opacity: 0.35"/>
     <use xlink:href="#m6a60a0ef3d" x="436.118907" y="289.795818" style="fill: #7b68ee; fill-opacity: 0.35"/>
     <use xlink:href="#m6a60a0ef3d" x="432.177529" y="279.347062" style="fill: #7b68ee; fill-opacity: 0.35"/>
     <use xlink:href="#m6a60a0ef3d" x="424.56653" y="284.414904" style="fill: #7b68ee; fill-opacity: 0.35"/>
     <use xlink:href="#m6a60a0ef3d" x="421.961258" y="282.438641" style="fill: #7b68ee; fill-opacity: 0.35"/>
     <use xlink:href="#m6a60a0ef3d" x="437.395911" y="285.540004" style="fill: #7b68ee; fill-opacity: 0.35"/>
     <use xlink:href="#m6a60a0ef3d" x="430.595771" y="274.59229" style="fill: #7b68ee; fill-opacity: 0.35"/>
     <use xlink:href="#m6a60a0ef3d" x="436.499661" y="287.672803" style="fill: #7b68ee; fill-opacity: 0.35"/>
     <use xlink:href="#m6a60a0ef3d" x="415.439082" y="277.243613" style="fill: #7b68ee; fill-opacity: 0.35"/>
     <use xlink:href="#m6a60a0ef3d" x="433.953801" y="246.885475" style="fill: #7b68ee; fill-opacity: 0.35"/>
     <use xlink:href="#m6a60a0ef3d" x="428.555098" y="286.136797" style="fill: #7b68ee; fill-opacity: 0.35"/>
     <use xlink:href="#m6a60a0ef3d" x="415.526163" y="276.196781" style="fill: #7b68ee; fill-opacity: 0.35"/>
     <use xlink:href="#m6a60a0ef3d" x="427.320474" y="289.04249" style="fill: #7b68ee; fill-opacity: 0.35"/>
     <use xlink:href="#m6a60a0ef3d" x="429.794946" y="285.628056" style="fill: #7b68ee; fill-opacity: 0.35"/>
     <use xlink:href="#m6a60a0ef3d" x="412.753742" y="253.998065" style="fill: #7b68ee; fill-opacity: 0.35"/>
     <use xlink:href="#m6a60a0ef3d" x="423.93294" y="269.876653" style="fill: #7b68ee; fill-opacity: 0.35"/>
     <use xlink:href="#m6a60a0ef3d" x="433.318122" y="282.409291" style="fill: #7b68ee; fill-opacity: 0.35"/>
     <use xlink:href="#m6a60a0ef3d" x="419.912641" y="277.155562" style="fill: #7b68ee; fill-opacity: 0.35"/>
     <use xlink:href="#m6a60a0ef3d" x="424.039925" y="282.066869" style="fill: #7b68ee; fill-opacity: 0.35"/>
     <use xlink:href="#m6a60a0ef3d" x="423.629345" y="273.672643" style="fill: #7b68ee; fill-opacity: 0.35"/>
    </g>
   </g>
   <g id="text_13">
    <!-- *** -->
    <g transform="translate(154.135923 50.12432) scale(0.1 -0.1)">
     <defs>
      <path id="DejaVuSans-2a" d="M 3009 3897 
L 1888 3291 
L 3009 2681 
L 2828 2375 
L 1778 3009 
L 1778 1831 
L 1422 1831 
L 1422 3009 
L 372 2375 
L 191 2681 
L 1313 3291 
L 191 3897 
L 372 4206 
L 1422 3572 
L 1422 4750 
L 1778 4750 
L 1778 3572 
L 2828 4206 
L 3009 3897 
z
" transform="scale(0.015625)"/>
     </defs>
     <use xlink:href="#DejaVuSans-2a"/>
     <use xlink:href="#DejaVuSans-2a" x="50"/>
     <use xlink:href="#DejaVuSans-2a" x="100"/>
    </g>
   </g>
   <g id="text_14">
    <!-- *** -->
    <g transform="translate(206.826399 40.34084) scale(0.1 -0.1)">
     <use xlink:href="#DejaVuSans-2a"/>
     <use xlink:href="#DejaVuSans-2a" x="50"/>
     <use xlink:href="#DejaVuSans-2a" x="100"/>
    </g>
   </g>
   <g id="text_15">
    <!-- *** -->
    <g transform="translate(259.516875 30.55736) scale(0.1 -0.1)">
     <use xlink:href="#DejaVuSans-2a"/>
     <use xlink:href="#DejaVuSans-2a" x="50"/>
     <use xlink:href="#DejaVuSans-2a" x="100"/>
    </g>
   </g>
  </g>
 </g>
 <defs>
  <clipPath id="p16dfc5e64f">
   <rect x="45.716875" y="7.2" width="442.6" height="308.072"/>
  </clipPath>
 </defs>
</svg>
