<?xml version="1.0" encoding="utf-8" standalone="no"?>
<!DOCTYPE svg PUBLIC "-//W3C//DTD SVG 1.1//EN"
  "http://www.w3.org/Graphics/SVG/1.1/DTD/svg11.dtd">
<svg xmlns:xlink="http://www.w3.org/1999/xlink" width="424.367188pt" height="315.466719pt" viewBox="0 0 424.367188 315.466719" xmlns="http://www.w3.org/2000/svg" version="1.1">
 <metadata>
  <rdf:RDF xmlns:dc="http://purl.org/dc/elements/1.1/" xmlns:cc="http://creativecommons.org/ns#" xmlns:rdf="http://www.w3.org/1999/02/22-rdf-syntax-ns#">
   <cc:Work>
    <dc:type rdf:resource="http://purl.org/dc/dcmitype/StillImage"/>
    <dc:date>2026-05-25T00:38:42.603269</dc:date>
    <dc:format>image/svg+xml</dc:format>
    <dc:creator>
     <cc:Agent>
      <dc:title>Matplotlib v3.10.9, https://matplotlib.org/</dc:title>
     </cc:Agent>
    </dc:creator>
   </cc:Work>
  </rdf:RDF>
 </metadata>
 <defs>
  <style type="text/css">*{stroke-linejoin: round; stroke-linecap: butt}</style>
 </defs>
 <g id="figure_1">
  <g id="patch_1">
   <path d="M 0 315.466719 
L 424.367188 315.466719 
L 424.367188 0 
L 0 0 
z
" style="fill: #ffffff"/>
  </g>
  <g id="axes_1">
   <g id="patch_2">
    <path d="M 47.917188 278.878281 
L 417.167187 278.878281 
L 417.167187 21.558281 
L 47.917188 21.558281 
z
" style="fill: #ffffff"/>
   </g>
   <g id="matplotlib.axis_1">
    <g id="xtick_1">
     <g id="line2d_1">
      <defs>
       <path id="m3583bee8c3" d="M 0 0 
L 0 3.5 
" style="stroke: #000000; stroke-width: 0.8"/>
      </defs>
      <g>
       <use xlink:href="#m3583bee8c3" x="108.852694" y="278.878281" style="stroke: #000000; stroke-width: 0.8"/>
      </g>
     </g>
     <g id="text_1">
      <!-- 8 -->
      <g transform="translate(105.989569 292.716875) scale(0.09 -0.09)">
       <defs>
        <path id="DejaVuSans-38" d="M 2034 2216 
Q 1584 2216 1326 1975 
Q 1069 1734 1069 1313 
Q 1069 891 1326 650 
Q 1584 409 2034 409 
Q 2484 409 2743 651 
Q 3003 894 3003 1313 
Q 3003 1734 2745 1975 
Q 2488 2216 2034 2216 
z
M 1403 2484 
Q 997 2584 770 2862 
Q 544 3141 544 3541 
Q 544 4100 942 4425 
Q 1341 4750 2034 4750 
Q 2731 4750 3128 4425 
Q 3525 4100 3525 3541 
Q 3525 3141 3298 2862 
Q 3072 2584 2669 2484 
Q 3125 2378 3379 2068 
Q 3634 1759 3634 1313 
Q 3634 634 3220 271 
Q 2806 -91 2034 -91 
Q 1263 -91 848 271 
Q 434 634 434 1313 
Q 434 1759 690 2068 
Q 947 2378 1403 2484 
z
M 1172 3481 
Q 1172 3119 1398 2916 
Q 1625 2713 2034 2713 
Q 2441 2713 2670 2916 
Q 2900 3119 2900 3481 
Q 2900 3844 2670 4047 
Q 2441 4250 2034 4250 
Q 1625 4250 1398 4047 
Q 1172 3844 1172 3481 
z
" transform="scale(0.015625)"/>
       </defs>
       <use xlink:href="#DejaVuSans-38"/>
      </g>
     </g>
    </g>
    <g id="xtick_2">
     <g id="line2d_2">
      <g>
       <use xlink:href="#m3583bee8c3" x="190.766266" y="278.878281" style="stroke: #000000; stroke-width: 0.8"/>
      </g>
     </g>
     <g id="text_2">
      <!-- 9 -->
      <g transform="translate(187.903141 292.716875) scale(0.09 -0.09)">
       <defs>
        <path id="DejaVuSans-39" d="M 703 97 
L 703 672 
Q 941 559 1184 500 
Q 1428 441 1663 441 
Q 2288 441 2617 861 
Q 2947 1281 2994 2138 
Q 2813 1869 2534 1725 
Q 2256 1581 1919 1581 
Q 1219 1581 811 2004 
Q 403 2428 403 3163 
Q 403 3881 828 4315 
Q 1253 4750 1959 4750 
Q 2769 4750 3195 4129 
Q 3622 3509 3622 2328 
Q 3622 1225 3098 567 
Q 2575 -91 1691 -91 
Q 1453 -91 1209 -44 
Q 966 3 703 97 
z
M 1959 2075 
Q 2384 2075 2632 2365 
Q 2881 2656 2881 3163 
Q 2881 3666 2632 3958 
Q 2384 4250 1959 4250 
Q 1534 4250 1286 3958 
Q 1038 3666 1038 3163 
Q 1038 2656 1286 2365 
Q 1534 2075 1959 2075 
z
" transform="scale(0.015625)"/>
       </defs>
       <use xlink:href="#DejaVuSans-39"/>
      </g>
     </g>
    </g>
    <g id="xtick_3">
     <g id="line2d_3">
      <g>
       <use xlink:href="#m3583bee8c3" x="272.679838" y="278.878281" style="stroke: #000000; stroke-width: 0.8"/>
      </g>
     </g>
     <g id="text_3">
      <!-- 10 -->
      <g transform="translate(266.953588 292.716875) scale(0.09 -0.09)">
       <defs>
        <path id="DejaVuSans-31" d="M 794 531 
L 1825 531 
L 1825 4091 
L 703 3866 
L 703 4441 
L 1819 4666 
L 2450 4666 
L 2450 531 
L 3481 531 
L 3481 0 
L 794 0 
L 794 531 
z
" transform="scale(0.015625)"/>
        <path id="DejaVuSans-30" d="M 2034 4250 
Q 1547 4250 1301 3770 
Q 1056 3291 1056 2328 
Q 1056 1369 1301 889 
Q 1547 409 2034 409 
Q 2525 409 2770 889 
Q 3016 1369 3016 2328 
Q 3016 3291 2770 3770 
Q 2525 4250 2034 4250 
z
M 2034 4750 
Q 2819 4750 3233 4129 
Q 3647 3509 3647 2328 
Q 3647 1150 3233 529 
Q 2819 -91 2034 -91 
Q 1250 -91 836 529 
Q 422 1150 422 2328 
Q 422 3509 836 4129 
Q 1250 4750 2034 4750 
z
" transform="scale(0.015625)"/>
       </defs>
       <use xlink:href="#DejaVuSans-31"/>
       <use xlink:href="#DejaVuSans-30" transform="translate(63.623047 0)"/>
      </g>
     </g>
    </g>
    <g id="xtick_4">
     <g id="line2d_4">
      <g>
       <use xlink:href="#m3583bee8c3" x="354.59341" y="278.878281" style="stroke: #000000; stroke-width: 0.8"/>
      </g>
     </g>
     <g id="text_4">
      <!-- 11 -->
      <g transform="translate(348.86716 292.716875) scale(0.09 -0.09)">
       <use xlink:href="#DejaVuSans-31"/>
       <use xlink:href="#DejaVuSans-31" transform="translate(63.623047 0)"/>
      </g>
     </g>
    </g>
    <g id="text_5">
     <!-- log10(parameters) -->
     <g transform="translate(185.653906 306.187031) scale(0.1 -0.1)">
      <defs>
       <path id="DejaVuSans-6c" d="M 603 4863 
L 1178 4863 
L 1178 0 
L 603 0 
L 603 4863 
z
" transform="scale(0.015625)"/>
       <path id="DejaVuSans-6f" d="M 1959 3097 
Q 1497 3097 1228 2736 
Q 959 2375 959 1747 
Q 959 1119 1226 758 
Q 1494 397 1959 397 
Q 2419 397 2687 759 
Q 2956 1122 2956 1747 
Q 2956 2369 2687 2733 
Q 2419 3097 1959 3097 
z
M 1959 3584 
Q 2709 3584 3137 3096 
Q 3566 2609 3566 1747 
Q 3566 888 3137 398 
Q 2709 -91 1959 -91 
Q 1206 -91 779 398 
Q 353 888 353 1747 
Q 353 2609 779 3096 
Q 1206 3584 1959 3584 
z
" transform="scale(0.015625)"/>
       <path id="DejaVuSans-67" d="M 2906 1791 
Q 2906 2416 2648 2759 
Q 2391 3103 1925 3103 
Q 1463 3103 1205 2759 
Q 947 2416 947 1791 
Q 947 1169 1205 825 
Q 1463 481 1925 481 
Q 2391 481 2648 825 
Q 2906 1169 2906 1791 
z
M 3481 434 
Q 3481 -459 3084 -895 
Q 2688 -1331 1869 -1331 
Q 1566 -1331 1297 -1286 
Q 1028 -1241 775 -1147 
L 775 -588 
Q 1028 -725 1275 -790 
Q 1522 -856 1778 -856 
Q 2344 -856 2625 -561 
Q 2906 -266 2906 331 
L 2906 616 
Q 2728 306 2450 153 
Q 2172 0 1784 0 
Q 1141 0 747 490 
Q 353 981 353 1791 
Q 353 2603 747 3093 
Q 1141 3584 1784 3584 
Q 2172 3584 2450 3431 
Q 2728 3278 2906 2969 
L 2906 3500 
L 3481 3500 
L 3481 434 
z
" transform="scale(0.015625)"/>
       <path id="DejaVuSans-28" d="M 1984 4856 
Q 1566 4138 1362 3434 
Q 1159 2731 1159 2009 
Q 1159 1288 1364 580 
Q 1569 -128 1984 -844 
L 1484 -844 
Q 1016 -109 783 600 
Q 550 1309 550 2009 
Q 550 2706 781 3412 
Q 1013 4119 1484 4856 
L 1984 4856 
z
" transform="scale(0.015625)"/>
       <path id="DejaVuSans-70" d="M 1159 525 
L 1159 -1331 
L 581 -1331 
L 581 3500 
L 1159 3500 
L 1159 2969 
Q 1341 3281 1617 3432 
Q 1894 3584 2278 3584 
Q 2916 3584 3314 3078 
Q 3713 2572 3713 1747 
Q 3713 922 3314 415 
Q 2916 -91 2278 -91 
Q 1894 -91 1617 61 
Q 1341 213 1159 525 
z
M 3116 1747 
Q 3116 2381 2855 2742 
Q 2594 3103 2138 3103 
Q 1681 3103 1420 2742 
Q 1159 2381 1159 1747 
Q 1159 1113 1420 752 
Q 1681 391 2138 391 
Q 2594 391 2855 752 
Q 3116 1113 3116 1747 
z
" transform="scale(0.015625)"/>
       <path id="DejaVuSans-61" d="M 2194 1759 
Q 1497 1759 1228 1600 
Q 959 1441 959 1056 
Q 959 750 1161 570 
Q 1363 391 1709 391 
Q 2188 391 2477 730 
Q 2766 1069 2766 1631 
L 2766 1759 
L 2194 1759 
z
M 3341 1997 
L 3341 0 
L 2766 0 
L 2766 531 
Q 2569 213 2275 61 
Q 1981 -91 1556 -91 
Q 1019 -91 701 211 
Q 384 513 384 1019 
Q 384 1609 779 1909 
Q 1175 2209 1959 2209 
L 2766 2209 
L 2766 2266 
Q 2766 2663 2505 2880 
Q 2244 3097 1772 3097 
Q 1472 3097 1187 3025 
Q 903 2953 641 2809 
L 641 3341 
Q 956 3463 1253 3523 
Q 1550 3584 1831 3584 
Q 2591 3584 2966 3190 
Q 3341 2797 3341 1997 
z
" transform="scale(0.015625)"/>
       <path id="DejaVuSans-72" d="M 2631 2963 
Q 2534 3019 2420 3045 
Q 2306 3072 2169 3072 
Q 1681 3072 1420 2755 
Q 1159 2438 1159 1844 
L 1159 0 
L 581 0 
L 581 3500 
L 1159 3500 
L 1159 2956 
Q 1341 3275 1631 3429 
Q 1922 3584 2338 3584 
Q 2397 3584 2469 3576 
Q 2541 3569 2628 3553 
L 2631 2963 
z
" transform="scale(0.015625)"/>
       <path id="DejaVuSans-6d" d="M 3328 2828 
Q 3544 3216 3844 3400 
Q 4144 3584 4550 3584 
Q 5097 3584 5394 3201 
Q 5691 2819 5691 2113 
L 5691 0 
L 5113 0 
L 5113 2094 
Q 5113 2597 4934 2840 
Q 4756 3084 4391 3084 
Q 3944 3084 3684 2787 
Q 3425 2491 3425 1978 
L 3425 0 
L 2847 0 
L 2847 2094 
Q 2847 2600 2669 2842 
Q 2491 3084 2119 3084 
Q 1678 3084 1418 2786 
Q 1159 2488 1159 1978 
L 1159 0 
L 581 0 
L 581 3500 
L 1159 3500 
L 1159 2956 
Q 1356 3278 1631 3431 
Q 1906 3584 2284 3584 
Q 2666 3584 2933 3390 
Q 3200 3197 3328 2828 
z
" transform="scale(0.015625)"/>
       <path id="DejaVuSans-65" d="M 3597 1894 
L 3597 1613 
L 953 1613 
Q 991 1019 1311 708 
Q 1631 397 2203 397 
Q 2534 397 2845 478 
Q 3156 559 3463 722 
L 3463 178 
Q 3153 47 2828 -22 
Q 2503 -91 2169 -91 
Q 1331 -91 842 396 
Q 353 884 353 1716 
Q 353 2575 817 3079 
Q 1281 3584 2069 3584 
Q 2775 3584 3186 3129 
Q 3597 2675 3597 1894 
z
M 3022 2063 
Q 3016 2534 2758 2815 
Q 2500 3097 2075 3097 
Q 1594 3097 1305 2825 
Q 1016 2553 972 2059 
L 3022 2063 
z
" transform="scale(0.015625)"/>
       <path id="DejaVuSans-74" d="M 1172 4494 
L 1172 3500 
L 2356 3500 
L 2356 3053 
L 1172 3053 
L 1172 1153 
Q 1172 725 1289 603 
Q 1406 481 1766 481 
L 2356 481 
L 2356 0 
L 1766 0 
Q 1100 0 847 248 
Q 594 497 594 1153 
L 594 3053 
L 172 3053 
L 172 3500 
L 594 3500 
L 594 4494 
L 1172 4494 
z
" transform="scale(0.015625)"/>
       <path id="DejaVuSans-73" d="M 2834 3397 
L 2834 2853 
Q 2591 2978 2328 3040 
Q 2066 3103 1784 3103 
Q 1356 3103 1142 2972 
Q 928 2841 928 2578 
Q 928 2378 1081 2264 
Q 1234 2150 1697 2047 
L 1894 2003 
Q 2506 1872 2764 1633 
Q 3022 1394 3022 966 
Q 3022 478 2636 193 
Q 2250 -91 1575 -91 
Q 1294 -91 989 -36 
Q 684 19 347 128 
L 347 722 
Q 666 556 975 473 
Q 1284 391 1588 391 
Q 1994 391 2212 530 
Q 2431 669 2431 922 
Q 2431 1156 2273 1281 
Q 2116 1406 1581 1522 
L 1381 1569 
Q 847 1681 609 1914 
Q 372 2147 372 2553 
Q 372 3047 722 3315 
Q 1072 3584 1716 3584 
Q 2034 3584 2315 3537 
Q 2597 3491 2834 3397 
z
" transform="scale(0.015625)"/>
       <path id="DejaVuSans-29" d="M 513 4856 
L 1013 4856 
Q 1481 4119 1714 3412 
Q 1947 2706 1947 2009 
Q 1947 1309 1714 600 
Q 1481 -109 1013 -844 
L 513 -844 
Q 928 -128 1133 580 
Q 1338 1288 1338 2009 
Q 1338 2731 1133 3434 
Q 928 4138 513 4856 
z
" transform="scale(0.015625)"/>
      </defs>
      <use xlink:href="#DejaVuSans-6c"/>
      <use xlink:href="#DejaVuSans-6f" transform="translate(27.783203 0)"/>
      <use xlink:href="#DejaVuSans-67" transform="translate(88.964844 0)"/>
      <use xlink:href="#DejaVuSans-31" transform="translate(152.441406 0)"/>
      <use xlink:href="#DejaVuSans-30" transform="translate(216.064453 0)"/>
      <use xlink:href="#DejaVuSans-28" transform="translate(279.6875 0)"/>
      <use xlink:href="#DejaVuSans-70" transform="translate(318.701172 0)"/>
      <use xlink:href="#DejaVuSans-61" transform="translate(382.177734 0)"/>
      <use xlink:href="#DejaVuSans-72" transform="translate(443.457031 0)"/>
      <use xlink:href="#DejaVuSans-61" transform="translate(484.570312 0)"/>
      <use xlink:href="#DejaVuSans-6d" transform="translate(545.849609 0)"/>
      <use xlink:href="#DejaVuSans-65" transform="translate(643.261719 0)"/>
      <use xlink:href="#DejaVuSans-74" transform="translate(704.785156 0)"/>
      <use xlink:href="#DejaVuSans-65" transform="translate(743.994141 0)"/>
      <use xlink:href="#DejaVuSans-72" transform="translate(805.517578 0)"/>
      <use xlink:href="#DejaVuSans-73" transform="translate(846.630859 0)"/>
      <use xlink:href="#DejaVuSans-29" transform="translate(898.730469 0)"/>
     </g>
    </g>
   </g>
   <g id="matplotlib.axis_2">
    <g id="ytick_1">
     <g id="line2d_5">
      <defs>
       <path id="mbf7b502cf2" d="M 0 0 
L -3.5 0 
" style="stroke: #000000; stroke-width: 0.8"/>
      </defs>
      <g>
       <use xlink:href="#mbf7b502cf2" x="47.917188" y="246.942123" style="stroke: #000000; stroke-width: 0.8"/>
      </g>
     </g>
     <g id="text_6">
      <!-- 0.10 -->
      <g transform="translate(20.878125 250.36142) scale(0.09 -0.09)">
       <defs>
        <path id="DejaVuSans-2e" d="M 684 794 
L 1344 794 
L 1344 0 
L 684 0 
L 684 794 
z
" transform="scale(0.015625)"/>
       </defs>
       <use xlink:href="#DejaVuSans-30"/>
       <use xlink:href="#DejaVuSans-2e" transform="translate(63.623047 0)"/>
       <use xlink:href="#DejaVuSans-31" transform="translate(95.410156 0)"/>
       <use xlink:href="#DejaVuSans-30" transform="translate(159.033203 0)"/>
      </g>
     </g>
    </g>
    <g id="ytick_2">
     <g id="line2d_6">
      <g>
       <use xlink:href="#mbf7b502cf2" x="47.917188" y="196.088368" style="stroke: #000000; stroke-width: 0.8"/>
      </g>
     </g>
     <g id="text_7">
      <!-- 0.15 -->
      <g transform="translate(20.878125 199.507665) scale(0.09 -0.09)">
       <defs>
        <path id="DejaVuSans-35" d="M 691 4666 
L 3169 4666 
L 3169 4134 
L 1269 4134 
L 1269 2991 
Q 1406 3038 1543 3061 
Q 1681 3084 1819 3084 
Q 2600 3084 3056 2656 
Q 3513 2228 3513 1497 
Q 3513 744 3044 326 
Q 2575 -91 1722 -91 
Q 1428 -91 1123 -41 
Q 819 9 494 109 
L 494 744 
Q 775 591 1075 516 
Q 1375 441 1709 441 
Q 2250 441 2565 725 
Q 2881 1009 2881 1497 
Q 2881 1984 2565 2268 
Q 2250 2553 1709 2553 
Q 1456 2553 1204 2497 
Q 953 2441 691 2322 
L 691 4666 
z
" transform="scale(0.015625)"/>
       </defs>
       <use xlink:href="#DejaVuSans-30"/>
       <use xlink:href="#DejaVuSans-2e" transform="translate(63.623047 0)"/>
       <use xlink:href="#DejaVuSans-31" transform="translate(95.410156 0)"/>
       <use xlink:href="#DejaVuSans-35" transform="translate(159.033203 0)"/>
      </g>
     </g>
    </g>
    <g id="ytick_3">
     <g id="line2d_7">
      <g>
       <use xlink:href="#mbf7b502cf2" x="47.917188" y="145.234613" style="stroke: #000000; stroke-width: 0.8"/>
      </g>
     </g>
     <g id="text_8">
      <!-- 0.20 -->
      <g transform="translate(20.878125 148.65391) scale(0.09 -0.09)">
       <defs>
        <path id="DejaVuSans-32" d="M 1228 531 
L 3431 531 
L 3431 0 
L 469 0 
L 469 531 
Q 828 903 1448 1529 
Q 2069 2156 2228 2338 
Q 2531 2678 2651 2914 
Q 2772 3150 2772 3378 
Q 2772 3750 2511 3984 
Q 2250 4219 1831 4219 
Q 1534 4219 1204 4116 
Q 875 4013 500 3803 
L 500 4441 
Q 881 4594 1212 4672 
Q 1544 4750 1819 4750 
Q 2544 4750 2975 4387 
Q 3406 4025 3406 3419 
Q 3406 3131 3298 2873 
Q 3191 2616 2906 2266 
Q 2828 2175 2409 1742 
Q 1991 1309 1228 531 
z
" transform="scale(0.015625)"/>
       </defs>
       <use xlink:href="#DejaVuSans-30"/>
       <use xlink:href="#DejaVuSans-2e" transform="translate(63.623047 0)"/>
       <use xlink:href="#DejaVuSans-32" transform="translate(95.410156 0)"/>
       <use xlink:href="#DejaVuSans-30" transform="translate(159.033203 0)"/>
      </g>
     </g>
    </g>
    <g id="ytick_4">
     <g id="line2d_8">
      <g>
       <use xlink:href="#mbf7b502cf2" x="47.917188" y="94.380858" style="stroke: #000000; stroke-width: 0.8"/>
      </g>
     </g>
     <g id="text_9">
      <!-- 0.25 -->
      <g transform="translate(20.878125 97.800155) scale(0.09 -0.09)">
       <use xlink:href="#DejaVuSans-30"/>
       <use xlink:href="#DejaVuSans-2e" transform="translate(63.623047 0)"/>
       <use xlink:href="#DejaVuSans-32" transform="translate(95.410156 0)"/>
       <use xlink:href="#DejaVuSans-35" transform="translate(159.033203 0)"/>
      </g>
     </g>
    </g>
    <g id="ytick_5">
     <g id="line2d_9">
      <g>
       <use xlink:href="#mbf7b502cf2" x="47.917188" y="43.527103" style="stroke: #000000; stroke-width: 0.8"/>
      </g>
     </g>
     <g id="text_10">
      <!-- 0.30 -->
      <g transform="translate(20.878125 46.9464) scale(0.09 -0.09)">
       <defs>
        <path id="DejaVuSans-33" d="M 2597 2516 
Q 3050 2419 3304 2112 
Q 3559 1806 3559 1356 
Q 3559 666 3084 287 
Q 2609 -91 1734 -91 
Q 1441 -91 1130 -33 
Q 819 25 488 141 
L 488 750 
Q 750 597 1062 519 
Q 1375 441 1716 441 
Q 2309 441 2620 675 
Q 2931 909 2931 1356 
Q 2931 1769 2642 2001 
Q 2353 2234 1838 2234 
L 1294 2234 
L 1294 2753 
L 1863 2753 
Q 2328 2753 2575 2939 
Q 2822 3125 2822 3475 
Q 2822 3834 2567 4026 
Q 2313 4219 1838 4219 
Q 1578 4219 1281 4162 
Q 984 4106 628 3988 
L 628 4550 
Q 988 4650 1302 4700 
Q 1616 4750 1894 4750 
Q 2613 4750 3031 4423 
Q 3450 4097 3450 3541 
Q 3450 3153 3228 2886 
Q 3006 2619 2597 2516 
z
" transform="scale(0.015625)"/>
       </defs>
       <use xlink:href="#DejaVuSans-30"/>
       <use xlink:href="#DejaVuSans-2e" transform="translate(63.623047 0)"/>
       <use xlink:href="#DejaVuSans-33" transform="translate(95.410156 0)"/>
       <use xlink:href="#DejaVuSans-30" transform="translate(159.033203 0)"/>
      </g>
     </g>
    </g>
    <g id="text_11">
     <!-- log10(validation loss) -->
     <g transform="translate(14.798438 203.969062) rotate(-90) scale(0.1 -0.1)">
      <defs>
       <path id="DejaVuSans-76" d="M 191 3500 
L 800 3500 
L 1894 563 
L 2988 3500 
L 3597 3500 
L 2284 0 
L 1503 0 
L 191 3500 
z
" transform="scale(0.015625)"/>
       <path id="DejaVuSans-69" d="M 603 3500 
L 1178 3500 
L 1178 0 
L 603 0 
L 603 3500 
z
M 603 4863 
L 1178 4863 
L 1178 4134 
L 603 4134 
L 603 4863 
z
" transform="scale(0.015625)"/>
       <path id="DejaVuSans-64" d="M 2906 2969 
L 2906 4863 
L 3481 4863 
L 3481 0 
L 2906 0 
L 2906 525 
Q 2725 213 2448 61 
Q 2172 -91 1784 -91 
Q 1150 -91 751 415 
Q 353 922 353 1747 
Q 353 2572 751 3078 
Q 1150 3584 1784 3584 
Q 2172 3584 2448 3432 
Q 2725 3281 2906 2969 
z
M 947 1747 
Q 947 1113 1208 752 
Q 1469 391 1925 391 
Q 2381 391 2643 752 
Q 2906 1113 2906 1747 
Q 2906 2381 2643 2742 
Q 2381 3103 1925 3103 
Q 1469 3103 1208 2742 
Q 947 2381 947 1747 
z
" transform="scale(0.015625)"/>
       <path id="DejaVuSans-6e" d="M 3513 2113 
L 3513 0 
L 2938 0 
L 2938 2094 
Q 2938 2591 2744 2837 
Q 2550 3084 2163 3084 
Q 1697 3084 1428 2787 
Q 1159 2491 1159 1978 
L 1159 0 
L 581 0 
L 581 3500 
L 1159 3500 
L 1159 2956 
Q 1366 3272 1645 3428 
Q 1925 3584 2291 3584 
Q 2894 3584 3203 3211 
Q 3513 2838 3513 2113 
z
" transform="scale(0.015625)"/>
       <path id="DejaVuSans-20" transform="scale(0.015625)"/>
      </defs>
      <use xlink:href="#DejaVuSans-6c"/>
      <use xlink:href="#DejaVuSans-6f" transform="translate(27.783203 0)"/>
      <use xlink:href="#DejaVuSans-67" transform="translate(88.964844 0)"/>
      <use xlink:href="#DejaVuSans-31" transform="translate(152.441406 0)"/>
      <use xlink:href="#DejaVuSans-30" transform="translate(216.064453 0)"/>
      <use xlink:href="#DejaVuSans-28" transform="translate(279.6875 0)"/>
      <use xlink:href="#DejaVuSans-76" transform="translate(318.701172 0)"/>
      <use xlink:href="#DejaVuSans-61" transform="translate(377.880859 0)"/>
      <use xlink:href="#DejaVuSans-6c" transform="translate(439.160156 0)"/>
      <use xlink:href="#DejaVuSans-69" transform="translate(466.943359 0)"/>
      <use xlink:href="#DejaVuSans-64" transform="translate(494.726562 0)"/>
      <use xlink:href="#DejaVuSans-61" transform="translate(558.203125 0)"/>
      <use xlink:href="#DejaVuSans-74" transform="translate(619.482422 0)"/>
      <use xlink:href="#DejaVuSans-69" transform="translate(658.691406 0)"/>
      <use xlink:href="#DejaVuSans-6f" transform="translate(686.474609 0)"/>
      <use xlink:href="#DejaVuSans-6e" transform="translate(747.65625 0)"/>
      <use xlink:href="#DejaVuSans-20" transform="translate(811.035156 0)"/>
      <use xlink:href="#DejaVuSans-6c" transform="translate(842.822266 0)"/>
      <use xlink:href="#DejaVuSans-6f" transform="translate(870.605469 0)"/>
      <use xlink:href="#DejaVuSans-73" transform="translate(931.787109 0)"/>
      <use xlink:href="#DejaVuSans-73" transform="translate(983.886719 0)"/>
      <use xlink:href="#DejaVuSans-29" transform="translate(1035.986328 0)"/>
     </g>
    </g>
   </g>
   <g id="PathCollection_1">
    <defs>
     <path id="m7094aa1f91" d="M 0 2.345208 
C 0.621956 2.345208 1.218523 2.098102 1.658312 1.658312 
C 2.098102 1.218523 2.345208 0.621956 2.345208 0 
C 2.345208 -0.621956 2.098102 -1.218523 1.658312 -1.658312 
C 1.218523 -2.098102 0.621956 -2.345208 0 -2.345208 
C -0.621956 -2.345208 -1.218523 -2.098102 -1.658312 -1.658312 
C -2.098102 -1.218523 -2.345208 -0.621956 -2.345208 0 
C -2.345208 0.621956 -2.098102 1.218523 -1.658312 1.658312 
C -1.218523 2.098102 -0.621956 2.345208 0 2.345208 
z
"/>
    </defs>
    <g clip-path="url(#pb28ba797d9)">
     <use xlink:href="#m7094aa1f91" x="118.518495" y="81.057175" style="fill: #4878cf; fill-opacity: 0.65"/>
     <use xlink:href="#m7094aa1f91" x="302.496378" y="170.966613" style="fill: #4878cf; fill-opacity: 0.65"/>
     <use xlink:href="#m7094aa1f91" x="284.229651" y="173.407594" style="fill: #4878cf; fill-opacity: 0.65"/>
     <use xlink:href="#m7094aa1f91" x="114.750471" y="91.329633" style="fill: #4878cf; fill-opacity: 0.65"/>
     <use xlink:href="#m7094aa1f91" x="357.132731" y="213.887182" style="fill: #4878cf; fill-opacity: 0.65"/>
     <use xlink:href="#m7094aa1f91" x="384.901431" y="258.129949" style="fill: #4878cf; fill-opacity: 0.65"/>
     <use xlink:href="#m7094aa1f91" x="139.816024" y="140.04753" style="fill: #4878cf; fill-opacity: 0.65"/>
     <use xlink:href="#m7094aa1f91" x="379.986617" y="234.533807" style="fill: #4878cf; fill-opacity: 0.65"/>
     <use xlink:href="#m7094aa1f91" x="198.384228" y="153.167799" style="fill: #4878cf; fill-opacity: 0.65"/>
     <use xlink:href="#m7094aa1f91" x="227.54546" y="135.470692" style="fill: #4878cf; fill-opacity: 0.65"/>
     <use xlink:href="#m7094aa1f91" x="392.191739" y="264.537522" style="fill: #4878cf; fill-opacity: 0.65"/>
     <use xlink:href="#m7094aa1f91" x="340.668103" y="267.181918" style="fill: #4878cf; fill-opacity: 0.65"/>
     <use xlink:href="#m7094aa1f91" x="120.812075" y="112.077965" style="fill: #4878cf; fill-opacity: 0.65"/>
     <use xlink:href="#m7094aa1f91" x="209.278733" y="108.21308" style="fill: #4878cf; fill-opacity: 0.65"/>
     <use xlink:href="#m7094aa1f91" x="236.801693" y="163.440258" style="fill: #4878cf; fill-opacity: 0.65"/>
     <use xlink:href="#m7094aa1f91" x="178.970711" y="151.235356" style="fill: #4878cf; fill-opacity: 0.65"/>
     <use xlink:href="#m7094aa1f91" x="132.034235" y="112.68821" style="fill: #4878cf; fill-opacity: 0.65"/>
     <use xlink:href="#m7094aa1f91" x="172.253798" y="109.02674" style="fill: #4878cf; fill-opacity: 0.65"/>
     <use xlink:href="#m7094aa1f91" x="304.544217" y="183.476637" style="fill: #4878cf; fill-opacity: 0.65"/>
     <use xlink:href="#m7094aa1f91" x="74.285166" y="61.325918" style="fill: #4878cf; fill-opacity: 0.65"/>
     <use xlink:href="#m7094aa1f91" x="249.416383" y="132.521175" style="fill: #4878cf; fill-opacity: 0.65"/>
     <use xlink:href="#m7094aa1f91" x="212.227622" y="127.639214" style="fill: #4878cf; fill-opacity: 0.65"/>
     <use xlink:href="#m7094aa1f91" x="73.793685" y="65.089095" style="fill: #4878cf; fill-opacity: 0.65"/>
     <use xlink:href="#m7094aa1f91" x="176.513304" y="109.8404" style="fill: #4878cf; fill-opacity: 0.65"/>
     <use xlink:href="#m7094aa1f91" x="272.352184" y="141.878265" style="fill: #4878cf; fill-opacity: 0.65"/>
     <use xlink:href="#m7094aa1f91" x="235.736817" y="135.368985" style="fill: #4878cf; fill-opacity: 0.65"/>
     <use xlink:href="#m7094aa1f91" x="88.947696" y="52.273949" style="fill: #4878cf; fill-opacity: 0.65"/>
     <use xlink:href="#m7094aa1f91" x="390.635382" y="263.723862" style="fill: #4878cf; fill-opacity: 0.65"/>
     <use xlink:href="#m7094aa1f91" x="326.1694" y="208.700099" style="fill: #4878cf; fill-opacity: 0.65"/>
     <use xlink:href="#m7094aa1f91" x="386.293962" y="224.363056" style="fill: #4878cf; fill-opacity: 0.65"/>
     <use xlink:href="#m7094aa1f91" x="102.217694" y="86.54938" style="fill: #4878cf; fill-opacity: 0.65"/>
     <use xlink:href="#m7094aa1f91" x="154.888121" y="88.1767" style="fill: #4878cf; fill-opacity: 0.65"/>
     <use xlink:href="#m7094aa1f91" x="80.838252" y="56.443957" style="fill: #4878cf; fill-opacity: 0.65"/>
     <use xlink:href="#m7094aa1f91" x="323.138598" y="185.510787" style="fill: #4878cf; fill-opacity: 0.65"/>
     <use xlink:href="#m7094aa1f91" x="156.526393" y="115.12919" style="fill: #4878cf; fill-opacity: 0.65"/>
     <use xlink:href="#m7094aa1f91" x="110.327138" y="33.254645" style="fill: #4878cf; fill-opacity: 0.65"/>
     <use xlink:href="#m7094aa1f91" x="206.247931" y="113.400163" style="fill: #4878cf; fill-opacity: 0.65"/>
     <use xlink:href="#m7094aa1f91" x="366.552791" y="232.601364" style="fill: #4878cf; fill-opacity: 0.65"/>
     <use xlink:href="#m7094aa1f91" x="336.24477" y="209.412052" style="fill: #4878cf; fill-opacity: 0.65"/>
     <use xlink:href="#m7094aa1f91" x="152.594541" y="55.833712" style="fill: #4878cf; fill-opacity: 0.65"/>
     <use xlink:href="#m7094aa1f91" x="116.79831" y="95.601348" style="fill: #4878cf; fill-opacity: 0.65"/>
     <use xlink:href="#m7094aa1f91" x="369.092112" y="211.853032" style="fill: #4878cf; fill-opacity: 0.65"/>
     <use xlink:href="#m7094aa1f91" x="254.822679" y="145.844858" style="fill: #4878cf; fill-opacity: 0.65"/>
     <use xlink:href="#m7094aa1f91" x="297.417737" y="189.47738" style="fill: #4878cf; fill-opacity: 0.65"/>
     <use xlink:href="#m7094aa1f91" x="97.220967" y="101.500384" style="fill: #4878cf; fill-opacity: 0.65"/>
     <use xlink:href="#m7094aa1f91" x="86.736029" y="68.038613" style="fill: #4878cf; fill-opacity: 0.65"/>
     <use xlink:href="#m7094aa1f91" x="293.403972" y="180.018582" style="fill: #4878cf; fill-opacity: 0.65"/>
     <use xlink:href="#m7094aa1f91" x="207.230894" y="116.247973" style="fill: #4878cf; fill-opacity: 0.65"/>
     <use xlink:href="#m7094aa1f91" x="91.650844" y="58.681522" style="fill: #4878cf; fill-opacity: 0.65"/>
     <use xlink:href="#m7094aa1f91" x="375.317544" y="232.601364" style="fill: #4878cf; fill-opacity: 0.65"/>
     <use xlink:href="#m7094aa1f91" x="275.792554" y="160.08391" style="fill: #4878cf; fill-opacity: 0.65"/>
     <use xlink:href="#m7094aa1f91" x="330.592733" y="197.105443" style="fill: #4878cf; fill-opacity: 0.65"/>
     <use xlink:href="#m7094aa1f91" x="95.336954" y="72.513744" style="fill: #4878cf; fill-opacity: 0.65"/>
     <use xlink:href="#m7094aa1f91" x="348.449892" y="216.938408" style="fill: #4878cf; fill-opacity: 0.65"/>
     <use xlink:href="#m7094aa1f91" x="89.684918" y="78.412779" style="fill: #4878cf; fill-opacity: 0.65"/>
     <use xlink:href="#m7094aa1f91" x="350.579645" y="205.343752" style="fill: #4878cf; fill-opacity: 0.65"/>
     <use xlink:href="#m7094aa1f91" x="216.569041" y="165.881238" style="fill: #4878cf; fill-opacity: 0.65"/>
     <use xlink:href="#m7094aa1f91" x="179.052625" y="136.182645" style="fill: #4878cf; fill-opacity: 0.65"/>
     <use xlink:href="#m7094aa1f91" x="249.088729" y="162.423182" style="fill: #4878cf; fill-opacity: 0.65"/>
     <use xlink:href="#m7094aa1f91" x="371.549519" y="260.774344" style="fill: #4878cf; fill-opacity: 0.65"/>
     <use xlink:href="#m7094aa1f91" x="155.625343" y="119.197491" style="fill: #4878cf; fill-opacity: 0.65"/>
     <use xlink:href="#m7094aa1f91" x="110.245224" y="125.808479" style="fill: #4878cf; fill-opacity: 0.65"/>
     <use xlink:href="#m7094aa1f91" x="240.569718" y="171.678566" style="fill: #4878cf; fill-opacity: 0.65"/>
     <use xlink:href="#m7094aa1f91" x="146.041455" y="93.465491" style="fill: #4878cf; fill-opacity: 0.65"/>
     <use xlink:href="#m7094aa1f91" x="103.774052" y="69.869348" style="fill: #4878cf; fill-opacity: 0.65"/>
     <use xlink:href="#m7094aa1f91" x="120.812075" y="92.041586" style="fill: #4878cf; fill-opacity: 0.65"/>
     <use xlink:href="#m7094aa1f91" x="84.442449" y="75.259846" style="fill: #4878cf; fill-opacity: 0.65"/>
     <use xlink:href="#m7094aa1f91" x="134.00016" y="127.130677" style="fill: #4878cf; fill-opacity: 0.65"/>
     <use xlink:href="#m7094aa1f91" x="170.124046" y="81.26059" style="fill: #4878cf; fill-opacity: 0.65"/>
     <use xlink:href="#m7094aa1f91" x="167.830466" y="106.687467" style="fill: #4878cf; fill-opacity: 0.65"/>
     <use xlink:href="#m7094aa1f91" x="316.74934" y="178.086139" style="fill: #4878cf; fill-opacity: 0.65"/>
     <use xlink:href="#m7094aa1f91" x="162.915651" y="132.31776" style="fill: #4878cf; fill-opacity: 0.65"/>
     <use xlink:href="#m7094aa1f91" x="231.723052" y="156.625854" style="fill: #4878cf; fill-opacity: 0.65"/>
     <use xlink:href="#m7094aa1f91" x="126.218371" y="130.893854" style="fill: #4878cf; fill-opacity: 0.65"/>
     <use xlink:href="#m7094aa1f91" x="181.591946" y="109.02674" style="fill: #4878cf; fill-opacity: 0.65"/>
     <use xlink:href="#m7094aa1f91" x="73.875598" y="45.662961" style="fill: #4878cf; fill-opacity: 0.65"/>
     <use xlink:href="#m7094aa1f91" x="149.973307" y="145.743151" style="fill: #4878cf; fill-opacity: 0.65"/>
     <use xlink:href="#m7094aa1f91" x="72.892636" y="65.190803" style="fill: #4878cf; fill-opacity: 0.65"/>
     <use xlink:href="#m7094aa1f91" x="308.066501" y="182.662977" style="fill: #4878cf; fill-opacity: 0.65"/>
     <use xlink:href="#m7094aa1f91" x="248.43342" y="198.020811" style="fill: #4878cf; fill-opacity: 0.65"/>
    </g>
   </g>
   <g id="patch_3">
    <path d="M 47.917188 278.878281 
L 47.917188 21.558281 
" style="fill: none; stroke: #000000; stroke-width: 0.8; stroke-linejoin: miter; stroke-linecap: square"/>
   </g>
   <g id="patch_4">
    <path d="M 417.167187 278.878281 
L 417.167187 21.558281 
" style="fill: none; stroke: #000000; stroke-width: 0.8; stroke-linejoin: miter; stroke-linecap: square"/>
   </g>
   <g id="patch_5">
    <path d="M 47.917187 278.878281 
L 417.167187 278.878281 
" style="fill: none; stroke: #000000; stroke-width: 0.8; stroke-linejoin: miter; stroke-linecap: square"/>
   </g>
   <g id="patch_6">
    <path d="M 47.917187 21.558281 
L 417.167187 21.558281 
" style="fill: none; stroke: #000000; stroke-width: 0.8; stroke-linejoin: miter; stroke-linecap: square"/>
   </g>
   <g id="patch_7">
    <path d="M 247.119515 127.670499 
Q 238.260773 131.200677 229.402032 134.730855 
" style="fill: none; stroke: #d65f5f; stroke-width: 0.8; stroke-linecap: round"/>
   </g>
   <g id="text_12">
    <!-- OursModel -->
    <g style="fill: #d65f5f" transform="translate(242.289903 123.265791) scale(0.08 -0.08)">
     <defs>
      <path id="DejaVuSans-4f" d="M 2522 4238 
Q 1834 4238 1429 3725 
Q 1025 3213 1025 2328 
Q 1025 1447 1429 934 
Q 1834 422 2522 422 
Q 3209 422 3611 934 
Q 4013 1447 4013 2328 
Q 4013 3213 3611 3725 
Q 3209 4238 2522 4238 
z
M 2522 4750 
Q 3503 4750 4090 4092 
Q 4678 3434 4678 2328 
Q 4678 1225 4090 567 
Q 3503 -91 2522 -91 
Q 1538 -91 948 565 
Q 359 1222 359 2328 
Q 359 3434 948 4092 
Q 1538 4750 2522 4750 
z
" transform="scale(0.015625)"/>
      <path id="DejaVuSans-75" d="M 544 1381 
L 544 3500 
L 1119 3500 
L 1119 1403 
Q 1119 906 1312 657 
Q 1506 409 1894 409 
Q 2359 409 2629 706 
Q 2900 1003 2900 1516 
L 2900 3500 
L 3475 3500 
L 3475 0 
L 2900 0 
L 2900 538 
Q 2691 219 2414 64 
Q 2138 -91 1772 -91 
Q 1169 -91 856 284 
Q 544 659 544 1381 
z
M 1991 3584 
L 1991 3584 
z
" transform="scale(0.015625)"/>
      <path id="DejaVuSans-4d" d="M 628 4666 
L 1569 4666 
L 2759 1491 
L 3956 4666 
L 4897 4666 
L 4897 0 
L 4281 0 
L 4281 4097 
L 3078 897 
L 2444 897 
L 1241 4097 
L 1241 0 
L 628 0 
L 628 4666 
z
" transform="scale(0.015625)"/>
     </defs>
     <use xlink:href="#DejaVuSans-4f"/>
     <use xlink:href="#DejaVuSans-75" transform="translate(78.710938 0)"/>
     <use xlink:href="#DejaVuSans-72" transform="translate(142.089844 0)"/>
     <use xlink:href="#DejaVuSans-73" transform="translate(183.203125 0)"/>
     <use xlink:href="#DejaVuSans-4d" transform="translate(235.302734 0)"/>
     <use xlink:href="#DejaVuSans-6f" transform="translate(321.582031 0)"/>
     <use xlink:href="#DejaVuSans-64" transform="translate(382.763672 0)"/>
     <use xlink:href="#DejaVuSans-65" transform="translate(446.240234 0)"/>
     <use xlink:href="#DejaVuSans-6c" transform="translate(507.763672 0)"/>
    </g>
   </g>
   <g id="line2d_10">
    <path d="M 64.701278 58.105307 
L 400.383097 245.355449 
L 400.383097 245.355449 
" clip-path="url(#pb28ba797d9)" style="fill: none; stroke: #333333; stroke-width: 1.5; stroke-linecap: square"/>
   </g>
   <g id="text_13">
    <g id="patch_8">
     <path d="M 313.949687 49.997428 
L 406.089687 49.997428 
Q 409.064687 49.997428 409.064687 47.022428 
L 409.064687 29.260616 
Q 409.064687 26.285616 406.089687 26.285616 
L 313.949687 26.285616 
Q 310.974687 26.285616 310.974687 29.260616 
L 310.974687 47.022428 
Q 310.974687 49.997428 313.949687 49.997428 
z
" style="fill: #ffffff; opacity: 0.9; stroke: #cccccc; stroke-linejoin: miter"/>
    </g>
    <!-- $y = -0.0449x + 0.621$ -->
    <g transform="translate(313.949687 35.719287) scale(0.085 -0.085)">
     <defs>
      <path id="DejaVuSans-Oblique-79" d="M 1588 -325 
Q 1188 -997 936 -1164 
Q 684 -1331 294 -1331 
L -159 -1331 
L -63 -850 
L 269 -850 
Q 509 -850 678 -719 
Q 847 -588 1056 -206 
L 1234 128 
L 459 3500 
L 1069 3500 
L 1650 819 
L 3256 3500 
L 3859 3500 
L 1588 -325 
z
" transform="scale(0.015625)"/>
      <path id="DejaVuSans-3d" d="M 678 2906 
L 4684 2906 
L 4684 2381 
L 678 2381 
L 678 2906 
z
M 678 1631 
L 4684 1631 
L 4684 1100 
L 678 1100 
L 678 1631 
z
" transform="scale(0.015625)"/>
      <path id="DejaVuSans-2212" d="M 678 2272 
L 4684 2272 
L 4684 1741 
L 678 1741 
L 678 2272 
z
" transform="scale(0.015625)"/>
      <path id="DejaVuSans-34" d="M 2419 4116 
L 825 1625 
L 2419 1625 
L 2419 4116 
z
M 2253 4666 
L 3047 4666 
L 3047 1625 
L 3713 1625 
L 3713 1100 
L 3047 1100 
L 3047 0 
L 2419 0 
L 2419 1100 
L 313 1100 
L 313 1709 
L 2253 4666 
z
" transform="scale(0.015625)"/>
      <path id="DejaVuSans-Oblique-78" d="M 3841 3500 
L 2234 1784 
L 3219 0 
L 2559 0 
L 1819 1388 
L 531 0 
L -166 0 
L 1556 1844 
L 641 3500 
L 1300 3500 
L 1972 2234 
L 3144 3500 
L 3841 3500 
z
" transform="scale(0.015625)"/>
      <path id="DejaVuSans-2b" d="M 2944 4013 
L 2944 2272 
L 4684 2272 
L 4684 1741 
L 2944 1741 
L 2944 0 
L 2419 0 
L 2419 1741 
L 678 1741 
L 678 2272 
L 2419 2272 
L 2419 4013 
L 2944 4013 
z
" transform="scale(0.015625)"/>
      <path id="DejaVuSans-36" d="M 2113 2584 
Q 1688 2584 1439 2293 
Q 1191 2003 1191 1497 
Q 1191 994 1439 701 
Q 1688 409 2113 409 
Q 2538 409 2786 701 
Q 3034 994 3034 1497 
Q 3034 2003 2786 2293 
Q 2538 2584 2113 2584 
z
M 3366 4563 
L 3366 3988 
Q 3128 4100 2886 4159 
Q 2644 4219 2406 4219 
Q 1781 4219 1451 3797 
Q 1122 3375 1075 2522 
Q 1259 2794 1537 2939 
Q 1816 3084 2150 3084 
Q 2853 3084 3261 2657 
Q 3669 2231 3669 1497 
Q 3669 778 3244 343 
Q 2819 -91 2113 -91 
Q 1303 -91 875 529 
Q 447 1150 447 2328 
Q 447 3434 972 4092 
Q 1497 4750 2381 4750 
Q 2619 4750 2861 4703 
Q 3103 4656 3366 4563 
z
" transform="scale(0.015625)"/>
     </defs>
     <use xlink:href="#DejaVuSans-Oblique-79" transform="translate(0 0.78125)"/>
     <use xlink:href="#DejaVuSans-3d" transform="translate(78.662109 0.78125)"/>
     <use xlink:href="#DejaVuSans-2212" transform="translate(181.933594 0.78125)"/>
     <use xlink:href="#DejaVuSans-30" transform="translate(265.722656 0.78125)"/>
     <use xlink:href="#DejaVuSans-2e" transform="translate(329.345703 0.78125)"/>
     <use xlink:href="#DejaVuSans-30" transform="translate(361.132812 0.78125)"/>
     <use xlink:href="#DejaVuSans-34" transform="translate(424.755859 0.78125)"/>
     <use xlink:href="#DejaVuSans-34" transform="translate(488.378906 0.78125)"/>
     <use xlink:href="#DejaVuSans-39" transform="translate(552.001953 0.78125)"/>
     <use xlink:href="#DejaVuSans-Oblique-78" transform="translate(615.625 0.78125)"/>
     <use xlink:href="#DejaVuSans-2b" transform="translate(694.287109 0.78125)"/>
     <use xlink:href="#DejaVuSans-30" transform="translate(797.558594 0.78125)"/>
     <use xlink:href="#DejaVuSans-2e" transform="translate(861.181641 0.78125)"/>
     <use xlink:href="#DejaVuSans-36" transform="translate(892.96875 0.78125)"/>
     <use xlink:href="#DejaVuSans-32" transform="translate(956.591797 0.78125)"/>
     <use xlink:href="#DejaVuSans-31" transform="translate(1020.214844 0.78125)"/>
    </g>
    <!-- $R^2 = 0.877$ -->
    <g transform="translate(361.124687 45.254694) scale(0.085 -0.085)">
     <defs>
      <path id="DejaVuSans-Oblique-52" d="M 1613 4147 
L 1294 2491 
L 2106 2491 
Q 2584 2491 2879 2755 
Q 3175 3019 3175 3444 
Q 3175 3784 2976 3965 
Q 2778 4147 2406 4147 
L 1613 4147 
z
M 2772 2241 
Q 2972 2194 3105 2009 
Q 3238 1825 3413 1275 
L 3809 0 
L 3144 0 
L 2778 1197 
Q 2638 1659 2453 1815 
Q 2269 1972 1888 1972 
L 1191 1972 
L 806 0 
L 172 0 
L 1081 4666 
L 2503 4666 
Q 3150 4666 3495 4373 
Q 3841 4081 3841 3531 
Q 3841 3044 3547 2687 
Q 3253 2331 2772 2241 
z
" transform="scale(0.015625)"/>
      <path id="DejaVuSans-37" d="M 525 4666 
L 3525 4666 
L 3525 4397 
L 1831 0 
L 1172 0 
L 2766 4134 
L 525 4134 
L 525 4666 
z
" transform="scale(0.015625)"/>
     </defs>
     <use xlink:href="#DejaVuSans-Oblique-52" transform="translate(0 0.765625)"/>
     <use xlink:href="#DejaVuSans-32" transform="translate(76.499193 39.046875) scale(0.7)"/>
     <use xlink:href="#DejaVuSans-3d" transform="translate(143.252122 0.765625)"/>
     <use xlink:href="#DejaVuSans-30" transform="translate(246.523607 0.765625)"/>
     <use xlink:href="#DejaVuSans-2e" transform="translate(310.146654 0.765625)"/>
     <use xlink:href="#DejaVuSans-38" transform="translate(339.308763 0.765625)"/>
     <use xlink:href="#DejaVuSans-37" transform="translate(402.93181 0.765625)"/>
     <use xlink:href="#DejaVuSans-37" transform="translate(464.804857 0.765625)"/>
    </g>
   </g>
   <g id="text_14">
    <!-- Scaling Law: Validation Loss vs. Model Size -->
    <g transform="translate(114.754531 15.558281) scale(0.11 -0.11)">
     <defs>
      <path id="DejaVuSans-53" d="M 3425 4513 
L 3425 3897 
Q 3066 4069 2747 4153 
Q 2428 4238 2131 4238 
Q 1616 4238 1336 4038 
Q 1056 3838 1056 3469 
Q 1056 3159 1242 3001 
Q 1428 2844 1947 2747 
L 2328 2669 
Q 3034 2534 3370 2195 
Q 3706 1856 3706 1288 
Q 3706 609 3251 259 
Q 2797 -91 1919 -91 
Q 1588 -91 1214 -16 
Q 841 59 441 206 
L 441 856 
Q 825 641 1194 531 
Q 1563 422 1919 422 
Q 2459 422 2753 634 
Q 3047 847 3047 1241 
Q 3047 1584 2836 1778 
Q 2625 1972 2144 2069 
L 1759 2144 
Q 1053 2284 737 2584 
Q 422 2884 422 3419 
Q 422 4038 858 4394 
Q 1294 4750 2059 4750 
Q 2388 4750 2728 4690 
Q 3069 4631 3425 4513 
z
" transform="scale(0.015625)"/>
      <path id="DejaVuSans-63" d="M 3122 3366 
L 3122 2828 
Q 2878 2963 2633 3030 
Q 2388 3097 2138 3097 
Q 1578 3097 1268 2742 
Q 959 2388 959 1747 
Q 959 1106 1268 751 
Q 1578 397 2138 397 
Q 2388 397 2633 464 
Q 2878 531 3122 666 
L 3122 134 
Q 2881 22 2623 -34 
Q 2366 -91 2075 -91 
Q 1284 -91 818 406 
Q 353 903 353 1747 
Q 353 2603 823 3093 
Q 1294 3584 2113 3584 
Q 2378 3584 2631 3529 
Q 2884 3475 3122 3366 
z
" transform="scale(0.015625)"/>
      <path id="DejaVuSans-4c" d="M 628 4666 
L 1259 4666 
L 1259 531 
L 3531 531 
L 3531 0 
L 628 0 
L 628 4666 
z
" transform="scale(0.015625)"/>
      <path id="DejaVuSans-77" d="M 269 3500 
L 844 3500 
L 1563 769 
L 2278 3500 
L 2956 3500 
L 3675 769 
L 4391 3500 
L 4966 3500 
L 4050 0 
L 3372 0 
L 2619 2869 
L 1863 0 
L 1184 0 
L 269 3500 
z
" transform="scale(0.015625)"/>
      <path id="DejaVuSans-3a" d="M 750 794 
L 1409 794 
L 1409 0 
L 750 0 
L 750 794 
z
M 750 3309 
L 1409 3309 
L 1409 2516 
L 750 2516 
L 750 3309 
z
" transform="scale(0.015625)"/>
      <path id="DejaVuSans-56" d="M 1831 0 
L 50 4666 
L 709 4666 
L 2188 738 
L 3669 4666 
L 4325 4666 
L 2547 0 
L 1831 0 
z
" transform="scale(0.015625)"/>
      <path id="DejaVuSans-7a" d="M 353 3500 
L 3084 3500 
L 3084 2975 
L 922 459 
L 3084 459 
L 3084 0 
L 275 0 
L 275 525 
L 2438 3041 
L 353 3041 
L 353 3500 
z
" transform="scale(0.015625)"/>
     </defs>
     <use xlink:href="#DejaVuSans-53"/>
     <use xlink:href="#DejaVuSans-63" transform="translate(63.476562 0)"/>
     <use xlink:href="#DejaVuSans-61" transform="translate(118.457031 0)"/>
     <use xlink:href="#DejaVuSans-6c" transform="translate(179.736328 0)"/>
     <use xlink:href="#DejaVuSans-69" transform="translate(207.519531 0)"/>
     <use xlink:href="#DejaVuSans-6e" transform="translate(235.302734 0)"/>
     <use xlink:href="#DejaVuSans-67" transform="translate(298.681641 0)"/>
     <use xlink:href="#DejaVuSans-20" transform="translate(362.158203 0)"/>
     <use xlink:href="#DejaVuSans-4c" transform="translate(393.945312 0)"/>
     <use xlink:href="#DejaVuSans-61" transform="translate(449.658203 0)"/>
     <use xlink:href="#DejaVuSans-77" transform="translate(510.9375 0)"/>
     <use xlink:href="#DejaVuSans-3a" transform="translate(587.224609 0)"/>
     <use xlink:href="#DejaVuSans-20" transform="translate(620.916016 0)"/>
     <use xlink:href="#DejaVuSans-56" transform="translate(652.703125 0)"/>
     <use xlink:href="#DejaVuSans-61" transform="translate(713.361328 0)"/>
     <use xlink:href="#DejaVuSans-6c" transform="translate(774.640625 0)"/>
     <use xlink:href="#DejaVuSans-69" transform="translate(802.423828 0)"/>
     <use xlink:href="#DejaVuSans-64" transform="translate(830.207031 0)"/>
     <use xlink:href="#DejaVuSans-61" transform="translate(893.683594 0)"/>
     <use xlink:href="#DejaVuSans-74" transform="translate(954.962891 0)"/>
     <use xlink:href="#DejaVuSans-69" transform="translate(994.171875 0)"/>
     <use xlink:href="#DejaVuSans-6f" transform="translate(1021.955078 0)"/>
     <use xlink:href="#DejaVuSans-6e" transform="translate(1083.136719 0)"/>
     <use xlink:href="#DejaVuSans-20" transform="translate(1146.515625 0)"/>
     <use xlink:href="#DejaVuSans-4c" transform="translate(1178.302734 0)"/>
     <use xlink:href="#DejaVuSans-6f" transform="translate(1232.265625 0)"/>
     <use xlink:href="#DejaVuSans-73" transform="translate(1293.447266 0)"/>
     <use xlink:href="#DejaVuSans-73" transform="translate(1345.546875 0)"/>
     <use xlink:href="#DejaVuSans-20" transform="translate(1397.646484 0)"/>
     <use xlink:href="#DejaVuSans-76" transform="translate(1429.433594 0)"/>
     <use xlink:href="#DejaVuSans-73" transform="translate(1488.613281 0)"/>
     <use xlink:href="#DejaVuSans-2e" transform="translate(1540.712891 0)"/>
     <use xlink:href="#DejaVuSans-20" transform="translate(1572.5 0)"/>
     <use xlink:href="#DejaVuSans-4d" transform="translate(1604.287109 0)"/>
     <use xlink:href="#DejaVuSans-6f" transform="translate(1690.566406 0)"/>
     <use xlink:href="#DejaVuSans-64" transform="translate(1751.748047 0)"/>
     <use xlink:href="#DejaVuSans-65" transform="translate(1815.224609 0)"/>
     <use xlink:href="#DejaVuSans-6c" transform="translate(1876.748047 0)"/>
     <use xlink:href="#DejaVuSans-20" transform="translate(1904.53125 0)"/>
     <use xlink:href="#DejaVuSans-53" transform="translate(1936.318359 0)"/>
     <use xlink:href="#DejaVuSans-69" transform="translate(1999.794922 0)"/>
     <use xlink:href="#DejaVuSans-7a" transform="translate(2027.578125 0)"/>
     <use xlink:href="#DejaVuSans-65" transform="translate(2080.068359 0)"/>
    </g>
   </g>
   <g id="PathCollection_2">
    <defs>
     <path id="m1e0792f712" d="M 0 4.472136 
C 1.186024 4.472136 2.323632 4.000923 3.162278 3.162278 
C 4.000923 2.323632 4.472136 1.186024 4.472136 0 
C 4.472136 -1.186024 4.000923 -2.323632 3.162278 -3.162278 
C 2.323632 -4.000923 1.186024 -4.472136 0 -4.472136 
C -1.186024 -4.472136 -2.323632 -4.000923 -3.162278 -3.162278 
C -4.000923 -2.323632 -4.472136 -1.186024 -4.472136 0 
C -4.472136 1.186024 -4.000923 2.323632 -3.162278 3.162278 
C -2.323632 4.000923 -1.186024 4.472136 0 4.472136 
z
" style="stroke: #ffffff; stroke-width: 0.8"/>
    </defs>
    <g clip-path="url(#pb28ba797d9)">
     <use xlink:href="#m1e0792f712" x="227.54546" y="135.470692" style="fill: #d65f5f; stroke: #ffffff; stroke-width: 0.8"/>
    </g>
   </g>
   <g id="legend_1">
    <g id="patch_9">
     <path d="M 53.867188 274.628281 
L 126.59 274.628281 
Q 128.29 274.628281 128.29 272.928281 
L 128.29 236.349062 
Q 128.29 234.649062 126.59 234.649062 
L 53.867188 234.649062 
Q 52.167188 234.649062 52.167188 236.349062 
L 52.167188 272.928281 
Q 52.167188 274.628281 53.867188 274.628281 
z
" style="fill: #ffffff; opacity: 0.9; stroke: #cccccc; stroke-linejoin: miter"/>
    </g>
    <g id="PathCollection_3">
     <g>
      <use xlink:href="#m7094aa1f91" x="64.067188" y="242.276484" style="fill: #4878cf; fill-opacity: 0.65"/>
     </g>
    </g>
    <g id="text_15">
     <!-- Models -->
     <g transform="translate(79.367188 244.507734) scale(0.085 -0.085)">
      <use xlink:href="#DejaVuSans-4d"/>
      <use xlink:href="#DejaVuSans-6f" transform="translate(86.279297 0)"/>
      <use xlink:href="#DejaVuSans-64" transform="translate(147.460938 0)"/>
      <use xlink:href="#DejaVuSans-65" transform="translate(210.9375 0)"/>
      <use xlink:href="#DejaVuSans-6c" transform="translate(272.460938 0)"/>
      <use xlink:href="#DejaVuSans-73" transform="translate(300.244141 0)"/>
     </g>
    </g>
    <g id="PathCollection_4">
     <g>
      <use xlink:href="#m1e0792f712" x="64.067188" y="254.752891" style="fill: #d65f5f; stroke: #ffffff; stroke-width: 0.8"/>
     </g>
    </g>
    <g id="text_16">
     <!-- OursModel -->
     <g transform="translate(79.367188 256.984141) scale(0.085 -0.085)">
      <use xlink:href="#DejaVuSans-4f"/>
      <use xlink:href="#DejaVuSans-75" transform="translate(78.710938 0)"/>
      <use xlink:href="#DejaVuSans-72" transform="translate(142.089844 0)"/>
      <use xlink:href="#DejaVuSans-73" transform="translate(183.203125 0)"/>
      <use xlink:href="#DejaVuSans-4d" transform="translate(235.302734 0)"/>
      <use xlink:href="#DejaVuSans-6f" transform="translate(321.582031 0)"/>
      <use xlink:href="#DejaVuSans-64" transform="translate(382.763672 0)"/>
      <use xlink:href="#DejaVuSans-65" transform="translate(446.240234 0)"/>
      <use xlink:href="#DejaVuSans-6c" transform="translate(507.763672 0)"/>
     </g>
    </g>
    <g id="line2d_11">
     <path d="M 55.567188 266.485547 
L 64.067188 266.485547 
L 72.567188 266.485547 
" style="fill: none; stroke: #333333; stroke-width: 1.5; stroke-linecap: square"/>
    </g>
    <g id="text_17">
     <!-- OLS fit -->
     <g transform="translate(79.367188 269.460547) scale(0.085 -0.085)">
      <defs>
       <path id="DejaVuSans-66" d="M 2375 4863 
L 2375 4384 
L 1825 4384 
Q 1516 4384 1395 4259 
Q 1275 4134 1275 3809 
L 1275 3500 
L 2222 3500 
L 2222 3053 
L 1275 3053 
L 1275 0 
L 697 0 
L 697 3053 
L 147 3053 
L 147 3500 
L 697 3500 
L 697 3744 
Q 697 4328 969 4595 
Q 1241 4863 1831 4863 
L 2375 4863 
z
" transform="scale(0.015625)"/>
      </defs>
      <use xlink:href="#DejaVuSans-4f"/>
      <use xlink:href="#DejaVuSans-4c" transform="translate(78.710938 0)"/>
      <use xlink:href="#DejaVuSans-53" transform="translate(134.423828 0)"/>
      <use xlink:href="#DejaVuSans-20" transform="translate(197.900391 0)"/>
      <use xlink:href="#DejaVuSans-66" transform="translate(229.6875 0)"/>
      <use xlink:href="#DejaVuSans-69" transform="translate(264.892578 0)"/>
      <use xlink:href="#DejaVuSans-74" transform="translate(292.675781 0)"/>
     </g>
    </g>
   </g>
  </g>
 </g>
 <defs>
  <clipPath id="pb28ba797d9">
   <rect x="47.917188" y="21.558281" width="369.25" height="257.32"/>
  </clipPath>
 </defs>
</svg>
