<?xml version="1.0" encoding="utf-8" standalone="no"?>
<!DOCTYPE svg PUBLIC "-//W3C//DTD SVG 1.1//EN"
  "http://www.w3.org/Graphics/SVG/1.1/DTD/svg11.dtd">
<svg xmlns:xlink="http://www.w3.org/1999/xlink" width="707.269271pt" height="424.597969pt" viewBox="0 0 707.269271 424.597969" xmlns="http://www.w3.org/2000/svg" version="1.1">
 <metadata>
  <rdf:RDF xmlns:dc="http://purl.org/dc/elements/1.1/" xmlns:cc="http://creativecommons.org/ns#" xmlns:rdf="http://www.w3.org/1999/02/22-rdf-syntax-ns#">
   <cc:Work>
    <dc:type rdf:resource="http://purl.org/dc/dcmitype/StillImage"/>
    <dc:date>2026-05-25T00:25:34.324746</dc:date>
    <dc:format>image/svg+xml</dc:format>
    <dc:creator>
     <cc:Agent>
      <dc:title>Matplotlib v3.10.9, https://matplotlib.org/</dc:title>
     </cc:Agent>
    </dc:creator>
   </cc:Work>
  </rdf:RDF>
 </metadata>
 <defs>
  <style type="text/css">*{stroke-linejoin: round; stroke-linecap: butt}</style>
 </defs>
 <g id="figure_1">
  <g id="patch_1">
   <path d="M 0 424.597969 
L 707.269271 424.597969 
L 707.269271 0 
L 0 0 
z
" style="fill: #ffffff"/>
  </g>
  <g id="axes_1">
   <g id="patch_2">
    <path d="M 57.773638 83.105099 
L 62.14187 83.057123 
L 66.377603 82.915788 
L 70.48636 82.684984 
L 74.473659 82.368601 
L 78.345023 81.970529 
L 82.105972 81.494658 
L 85.762026 80.944878 
L 89.318707 80.325079 
L 92.781535 79.639151 
L 96.15603 78.890983 
L 99.447715 78.084466 
L 102.662109 77.22349 
L 105.804733 76.311944 
L 108.881108 75.353719 
L 111.896754 74.352704 
L 114.857194 73.31279 
L 117.767946 72.237866 
L 120.634532 71.131823 
L 123.462473 69.99855 
L 126.25729 68.841937 
L 129.024503 67.665874 
L 131.769632 66.474252 
L 134.4982 65.27096 
L 137.215726 64.059887 
L 139.927731 62.844925 
L 142.639736 61.629963 
L 145.357262 60.418891 
L 148.085829 59.215599 
L 150.830959 58.023976 
L 153.598172 56.847914 
L 156.392988 55.691301 
L 159.220929 54.558028 
L 162.087516 53.451984 
L 164.998268 52.377061 
L 167.958707 51.337146 
L 170.974354 50.336132 
L 174.050729 49.377907 
L 177.193353 48.466361 
L 180.407747 47.605385 
L 183.699431 46.798868 
L 187.073927 46.0507 
L 190.536755 45.364771 
L 194.093436 44.744972 
L 197.74949 44.195192 
L 201.510439 43.719321 
L 205.381802 43.321249 
L 209.369102 43.004866 
L 213.477858 42.774062 
L 217.713592 42.632727 
L 222.081823 42.584751 
L 222.081823 380.254317 
L 217.713592 380.302293 
L 213.477858 380.443628 
L 209.369102 380.674432 
L 205.381802 380.990814 
L 201.510439 381.388886 
L 197.74949 381.864757 
L 194.093436 382.414537 
L 190.536755 383.034337 
L 187.073927 383.720265 
L 183.699431 384.468433 
L 180.407747 385.27495 
L 177.193353 386.135926 
L 174.050729 387.047472 
L 170.974354 388.005697 
L 167.958707 389.006712 
L 164.998268 390.046626 
L 162.087516 391.12155 
L 159.220929 392.227593 
L 156.392988 393.360866 
L 153.598172 394.517479 
L 150.830959 395.693542 
L 148.085829 396.885164 
L 145.357262 398.088456 
L 142.639736 399.299528 
L 139.927731 400.51449 
L 137.215726 401.729453 
L 134.4982 402.940525 
L 131.769632 404.143817 
L 129.024503 405.335439 
L 126.25729 406.511502 
L 123.462473 407.668115 
L 120.634532 408.801388 
L 117.767946 409.907431 
L 114.857194 410.982355 
L 111.896754 412.022269 
L 108.881108 413.023284 
L 105.804733 413.981509 
L 102.662109 414.893055 
L 99.447715 415.754031 
L 96.15603 416.560548 
L 92.781535 417.308716 
L 89.318707 417.994644 
L 85.762026 418.614444 
L 82.105972 419.164224 
L 78.345023 419.640095 
L 74.473659 420.038167 
L 70.48636 420.354549 
L 66.377603 420.585353 
L 62.14187 420.726688 
L 57.773638 420.774664 
z
" clip-path="url(#pb65f6787e7)" style="fill: #4c72b0; opacity: 0.45"/>
   </g>
   <g id="patch_3">
    <path d="M 57.773638 42.584751 
L 73.261005 42.620733 
L 88.278606 42.726735 
L 102.846014 42.899838 
L 116.982804 43.137125 
L 130.708548 43.435679 
L 144.04282 43.792582 
L 157.005195 44.204917 
L 169.615244 44.669766 
L 181.892543 45.184213 
L 193.856665 45.745338 
L 205.527182 46.350226 
L 216.92367 46.995959 
L 228.065701 47.679618 
L 238.972848 48.398287 
L 249.664687 49.149048 
L 260.160789 49.928983 
L 270.480729 50.735176 
L 280.644081 51.564709 
L 290.670417 52.414664 
L 300.579312 53.282123 
L 310.390339 54.16417 
L 320.123072 55.057887 
L 329.797084 55.960356 
L 339.431948 56.86866 
L 349.047239 57.779882 
L 358.66253 58.691103 
L 368.297395 59.599407 
L 377.971407 60.501877 
L 387.70414 61.395593 
L 397.515167 62.27764 
L 407.424061 63.1451 
L 417.450398 63.995055 
L 427.613749 64.824587 
L 437.93369 65.63078 
L 448.429792 66.410716 
L 459.12163 67.161477 
L 470.028778 67.880146 
L 481.170809 68.563805 
L 492.567296 69.209537 
L 504.237814 69.814425 
L 516.201935 70.375551 
L 528.479234 70.889997 
L 541.089284 71.354847 
L 554.051658 71.767182 
L 567.385931 72.124085 
L 581.111675 72.422639 
L 595.248464 72.659926 
L 609.815873 72.833029 
L 624.833474 72.93903 
L 640.32084 72.975012 
L 640.32084 113.49536 
L 624.833474 113.459378 
L 609.815873 113.353377 
L 595.248464 113.180274 
L 581.111675 112.942987 
L 567.385931 112.644433 
L 554.051658 112.28753 
L 541.089284 111.875194 
L 528.479234 111.410345 
L 516.201935 110.895899 
L 504.237814 110.334773 
L 492.567296 109.729885 
L 481.170809 109.084153 
L 470.028778 108.400494 
L 459.12163 107.681825 
L 448.429792 106.931064 
L 437.93369 106.151128 
L 427.613749 105.344935 
L 417.450398 104.515403 
L 407.424061 103.665448 
L 397.515167 102.797988 
L 387.70414 101.915941 
L 377.971407 101.022225 
L 368.297395 100.119755 
L 358.66253 99.211451 
L 349.047239 98.30023 
L 339.431948 97.389008 
L 329.797084 96.480704 
L 320.123072 95.578235 
L 310.390339 94.684518 
L 300.579312 93.802471 
L 290.670417 92.935011 
L 280.644081 92.085057 
L 270.480729 91.255524 
L 260.160789 90.449331 
L 249.664687 89.669396 
L 238.972848 88.918635 
L 228.065701 88.199966 
L 216.92367 87.516306 
L 205.527182 86.870574 
L 193.856665 86.265686 
L 181.892543 85.704561 
L 169.615244 85.190114 
L 157.005195 84.725265 
L 144.04282 84.31293 
L 130.708548 83.956026 
L 116.982804 83.657473 
L 102.846014 83.420185 
L 88.278606 83.247082 
L 73.261005 83.141081 
L 57.773638 83.105099 
z
" clip-path="url(#pb65f6787e7)" style="fill: #4c72b0; opacity: 0.45"/>
   </g>
   <g id="patch_4">
    <path d="M 237.018931 103.365273 
L 241.387163 103.353279 
L 245.622896 103.317945 
L 249.731653 103.260244 
L 253.718952 103.181149 
L 257.590316 103.081631 
L 261.351265 102.962663 
L 265.007319 102.825218 
L 268.564 102.670268 
L 272.026828 102.498786 
L 275.401323 102.311744 
L 278.693008 102.110115 
L 281.907402 101.894871 
L 285.050026 101.666984 
L 288.126401 101.427428 
L 291.142047 101.177174 
L 294.102487 100.917196 
L 297.013239 100.648465 
L 299.879825 100.371954 
L 302.707766 100.088636 
L 305.502583 99.799482 
L 308.269796 99.505467 
L 311.014925 99.207561 
L 313.743493 98.906738 
L 316.461019 98.60397 
L 319.173024 98.30023 
L 321.885029 97.996489 
L 324.602555 97.693721 
L 327.331122 97.392898 
L 330.076252 97.094992 
L 332.843465 96.800977 
L 335.638281 96.511824 
L 338.466222 96.228505 
L 341.332809 95.951994 
L 344.243561 95.683263 
L 347.204 95.423285 
L 350.219647 95.173031 
L 353.296022 94.933475 
L 356.438646 94.705589 
L 359.65304 94.490344 
L 362.944724 94.288715 
L 366.31922 94.101673 
L 369.782048 93.930191 
L 373.338729 93.775241 
L 376.994783 93.637796 
L 380.755732 93.518829 
L 384.627095 93.419311 
L 388.614395 93.340215 
L 392.723151 93.282514 
L 396.958885 93.24718 
L 401.327116 93.235186 
L 401.327116 370.12423 
L 396.958885 370.136224 
L 392.723151 370.171557 
L 388.614395 370.229258 
L 384.627095 370.308354 
L 380.755732 370.407872 
L 376.994783 370.52684 
L 373.338729 370.664285 
L 369.782048 370.819235 
L 366.31922 370.990717 
L 362.944724 371.177759 
L 359.65304 371.379388 
L 356.438646 371.594632 
L 353.296022 371.822518 
L 350.219647 372.062075 
L 347.204 372.312328 
L 344.243561 372.572307 
L 341.332809 372.841038 
L 338.466222 373.117549 
L 335.638281 373.400867 
L 332.843465 373.69002 
L 330.076252 373.984036 
L 327.331122 374.281941 
L 324.602555 374.582765 
L 321.885029 374.885533 
L 319.173024 375.189273 
L 316.461019 375.493014 
L 313.743493 375.795782 
L 311.014925 376.096605 
L 308.269796 376.39451 
L 305.502583 376.688526 
L 302.707766 376.977679 
L 299.879825 377.260997 
L 297.013239 377.537508 
L 294.102487 377.806239 
L 291.142047 378.066218 
L 288.126401 378.316471 
L 285.050026 378.556028 
L 281.907402 378.783914 
L 278.693008 378.999158 
L 275.401323 379.200788 
L 272.026828 379.387829 
L 268.564 379.559312 
L 265.007319 379.714261 
L 261.351265 379.851706 
L 257.590316 379.970674 
L 253.718952 380.070192 
L 249.731653 380.149288 
L 245.622896 380.206989 
L 241.387163 380.242323 
L 237.018931 380.254317 
z
" clip-path="url(#pb65f6787e7)" style="fill: #55a868; opacity: 0.45"/>
   </g>
   <g id="patch_5">
    <path d="M 237.018931 83.105099 
L 247.740954 83.069117 
L 258.137755 82.963116 
L 268.222884 82.790013 
L 278.009892 82.552726 
L 287.51233 82.254172 
L 296.74375 81.897269 
L 305.717701 81.484934 
L 314.447736 81.020084 
L 322.947404 80.505638 
L 331.230257 79.944512 
L 339.309846 79.339624 
L 347.199722 78.693892 
L 354.913436 78.010233 
L 362.464538 77.291564 
L 369.86658 76.540803 
L 377.133113 75.760867 
L 384.277687 74.954674 
L 391.313853 74.125142 
L 398.255163 73.275187 
L 405.115167 72.407727 
L 411.907416 71.52568 
L 418.645462 70.631964 
L 425.342855 69.729494 
L 432.013146 68.82119 
L 438.669886 67.909969 
L 445.326626 66.998747 
L 451.996917 66.090443 
L 458.69431 65.187974 
L 465.432355 64.294257 
L 472.224605 63.41221 
L 479.084609 62.544751 
L 486.025919 61.694796 
L 493.062085 60.865263 
L 500.206659 60.05907 
L 507.473192 59.279135 
L 514.875233 58.528374 
L 522.426336 57.809705 
L 530.140049 57.126045 
L 538.029925 56.480313 
L 546.109514 55.875425 
L 554.392368 55.3143 
L 562.892036 54.799853 
L 571.622071 54.335004 
L 580.596022 53.922669 
L 589.827441 53.565766 
L 599.32988 53.267212 
L 609.116888 53.029925 
L 619.202017 52.856822 
L 629.598817 52.75082 
L 640.32084 52.714838 
L 640.32084 72.975012 
L 629.598817 73.010994 
L 619.202017 73.116996 
L 609.116888 73.290098 
L 599.32988 73.527386 
L 589.827441 73.82594 
L 580.596022 74.182843 
L 571.622071 74.595178 
L 562.892036 75.060027 
L 554.392368 75.574474 
L 546.109514 76.135599 
L 538.029925 76.740487 
L 530.140049 77.386219 
L 522.426336 78.069879 
L 514.875233 78.788548 
L 507.473192 79.539309 
L 500.206659 80.319244 
L 493.062085 81.125437 
L 486.025919 81.95497 
L 479.084609 82.804924 
L 472.224605 83.672384 
L 465.432355 84.554431 
L 458.69431 85.448148 
L 451.996917 86.350617 
L 445.326626 87.258921 
L 438.669886 88.170143 
L 432.013146 89.081364 
L 425.342855 89.989668 
L 418.645462 90.892138 
L 411.907416 91.785854 
L 405.115167 92.667901 
L 398.255163 93.535361 
L 391.313853 94.385316 
L 384.277687 95.214848 
L 377.133113 96.021041 
L 369.86658 96.800977 
L 362.464538 97.551738 
L 354.913436 98.270407 
L 347.199722 98.954066 
L 339.309846 99.599798 
L 331.230257 100.204686 
L 322.947404 100.765812 
L 314.447736 101.280258 
L 305.717701 101.745108 
L 296.74375 102.157443 
L 287.51233 102.514346 
L 278.009892 102.8129 
L 268.222884 103.050187 
L 258.137755 103.22329 
L 247.740954 103.329291 
L 237.018931 103.365273 
z
" clip-path="url(#pb65f6787e7)" style="fill: #55a868; opacity: 0.45"/>
   </g>
   <g id="patch_6">
    <path d="M 416.264224 167.52249 
L 422.220904 167.570467 
L 427.996904 167.711802 
L 433.599753 167.942605 
L 439.03698 168.258988 
L 444.316113 168.65706 
L 449.444679 169.132931 
L 454.430207 169.682711 
L 459.280227 170.302511 
L 464.002265 170.988439 
L 468.60385 171.736607 
L 473.09251 172.543124 
L 477.475775 173.4041 
L 481.761171 174.315646 
L 485.956228 175.273871 
L 490.068474 176.274886 
L 494.105436 177.3148 
L 498.074644 178.389724 
L 501.983625 179.495767 
L 505.839908 180.62904 
L 509.651022 181.785653 
L 513.424494 182.961715 
L 517.167852 184.153338 
L 520.888626 185.35663 
L 524.594343 186.567702 
L 528.292532 187.782664 
L 531.990721 188.997627 
L 535.696438 190.208699 
L 539.417212 191.411991 
L 543.160571 192.603613 
L 546.934043 193.779676 
L 550.745156 194.936289 
L 554.601439 196.069562 
L 558.510421 197.175605 
L 562.479629 198.250529 
L 566.516591 199.290443 
L 570.628837 200.291458 
L 574.823893 201.249683 
L 579.10929 202.161229 
L 583.492554 203.022205 
L 587.981215 203.828722 
L 592.5828 204.57689 
L 597.304838 205.262818 
L 602.154857 205.882618 
L 607.140386 206.432398 
L 612.268952 206.908269 
L 617.548085 207.30634 
L 622.985311 207.622723 
L 628.588161 207.853527 
L 634.364161 207.994862 
L 640.32084 208.042838 
L 640.32084 410.644577 
L 634.364161 410.596601 
L 628.588161 410.455266 
L 622.985311 410.224462 
L 617.548085 409.90808 
L 612.268952 409.510008 
L 607.140386 409.034137 
L 602.154857 408.484357 
L 597.304838 407.864557 
L 592.5828 407.178629 
L 587.981215 406.430461 
L 583.492554 405.623944 
L 579.10929 404.762968 
L 574.823893 403.851422 
L 570.628837 402.893197 
L 566.516591 401.892182 
L 562.479629 400.852268 
L 558.510421 399.777344 
L 554.601439 398.671301 
L 550.745156 397.538028 
L 546.934043 396.381415 
L 543.160571 395.205352 
L 539.417212 394.01373 
L 535.696438 392.810438 
L 531.990721 391.599366 
L 528.292532 390.384404 
L 524.594343 389.169441 
L 520.888626 387.958369 
L 517.167852 386.755077 
L 513.424494 385.563455 
L 509.651022 384.387392 
L 505.839908 383.230779 
L 501.983625 382.097506 
L 498.074644 380.991463 
L 494.105436 379.916539 
L 490.068474 378.876625 
L 485.956228 377.87561 
L 481.761171 376.917385 
L 477.475775 376.005839 
L 473.09251 375.144863 
L 468.60385 374.338346 
L 464.002265 373.590178 
L 459.280227 372.90425 
L 454.430207 372.28445 
L 449.444679 371.73467 
L 444.316113 371.258799 
L 439.03698 370.860727 
L 433.599753 370.544345 
L 427.996904 370.313541 
L 422.220904 370.172206 
L 416.264224 370.12423 
z
" clip-path="url(#pb65f6787e7)" style="fill: #c44e52; opacity: 0.45"/>
   </g>
   <g id="patch_7">
    <path d="M 416.264224 127.002143 
L 422.220904 127.042123 
L 427.996904 127.159902 
L 433.599753 127.352238 
L 439.03698 127.615891 
L 444.316113 127.947617 
L 449.444679 128.344177 
L 454.430207 128.802327 
L 459.280227 129.318826 
L 464.002265 129.890433 
L 468.60385 130.513906 
L 473.09251 131.186004 
L 477.475775 131.903484 
L 481.761171 132.663105 
L 485.956228 133.461626 
L 490.068474 134.295805 
L 494.105436 135.1624 
L 498.074644 136.05817 
L 501.983625 136.979873 
L 505.839908 137.924267 
L 509.651022 138.888111 
L 513.424494 139.868164 
L 517.167852 140.861182 
L 520.888626 141.863926 
L 524.594343 142.873152 
L 528.292532 143.885621 
L 531.990721 144.898089 
L 535.696438 145.907316 
L 539.417212 146.91006 
L 543.160571 147.903078 
L 546.934043 148.88313 
L 550.745156 149.846974 
L 554.601439 150.791369 
L 558.510421 151.713072 
L 562.479629 152.608841 
L 566.516591 153.475437 
L 570.628837 154.309615 
L 574.823893 155.108136 
L 579.10929 155.867758 
L 583.492554 156.585238 
L 587.981215 157.257336 
L 592.5828 157.880809 
L 597.304838 158.452416 
L 602.154857 158.968915 
L 607.140386 159.427065 
L 612.268952 159.823624 
L 617.548085 160.155351 
L 622.985311 160.419003 
L 628.588161 160.61134 
L 634.364161 160.729119 
L 640.32084 160.769099 
L 640.32084 201.289447 
L 634.364161 201.249467 
L 628.588161 201.131688 
L 622.985311 200.939351 
L 617.548085 200.675699 
L 612.268952 200.343972 
L 607.140386 199.947413 
L 602.154857 199.489263 
L 597.304838 198.972764 
L 592.5828 198.401157 
L 587.981215 197.777684 
L 583.492554 197.105586 
L 579.10929 196.388106 
L 574.823893 195.628484 
L 570.628837 194.829963 
L 566.516591 193.995784 
L 562.479629 193.129189 
L 558.510421 192.233419 
L 554.601439 191.311717 
L 550.745156 190.367322 
L 546.934043 189.403478 
L 543.160571 188.423426 
L 539.417212 187.430408 
L 535.696438 186.427664 
L 531.990721 185.418437 
L 528.292532 184.405969 
L 524.594343 183.3935 
L 520.888626 182.384274 
L 517.167852 181.38153 
L 513.424494 180.388511 
L 509.651022 179.408459 
L 505.839908 178.444615 
L 501.983625 177.500221 
L 498.074644 176.578518 
L 494.105436 175.682748 
L 490.068474 174.816153 
L 485.956228 173.981974 
L 481.761171 173.183453 
L 477.475775 172.423832 
L 473.09251 171.706351 
L 468.60385 171.034254 
L 464.002265 170.410781 
L 459.280227 169.839174 
L 454.430207 169.322674 
L 449.444679 168.864524 
L 444.316113 168.467965 
L 439.03698 168.136239 
L 433.599753 167.872586 
L 427.996904 167.68025 
L 422.220904 167.562471 
L 416.264224 167.52249 
z
" clip-path="url(#pb65f6787e7)" style="fill: #c44e52; opacity: 0.45"/>
   </g>
   <g id="patch_8">
    <path d="M 416.264224 93.235186 
L 422.220904 93.26717 
L 427.996904 93.361394 
L 433.599753 93.515263 
L 439.03698 93.726185 
L 444.316113 93.991566 
L 449.444679 94.308813 
L 454.430207 94.675333 
L 459.280227 95.088533 
L 464.002265 95.545818 
L 468.60385 96.044597 
L 473.09251 96.582275 
L 477.475775 97.156259 
L 481.761171 97.763956 
L 485.956228 98.402773 
L 490.068474 99.070116 
L 494.105436 99.763392 
L 498.074644 100.480008 
L 501.983625 101.217371 
L 505.839908 101.972886 
L 509.651022 102.743961 
L 513.424494 103.528003 
L 517.167852 104.322418 
L 520.888626 105.124613 
L 524.594343 105.931994 
L 528.292532 106.741969 
L 531.990721 107.551943 
L 535.696438 108.359325 
L 539.417212 109.16152 
L 543.160571 109.955935 
L 546.934043 110.739976 
L 550.745156 111.511052 
L 554.601439 112.266567 
L 558.510421 113.003929 
L 562.479629 113.720545 
L 566.516591 114.413821 
L 570.628837 115.081164 
L 574.823893 115.719981 
L 579.10929 116.327678 
L 583.492554 116.901663 
L 587.981215 117.439341 
L 592.5828 117.938119 
L 597.304838 118.395405 
L 602.154857 118.808604 
L 607.140386 119.175124 
L 612.268952 119.492372 
L 617.548085 119.757753 
L 622.985311 119.968675 
L 628.588161 120.122544 
L 634.364161 120.216767 
L 640.32084 120.248751 
L 640.32084 154.015708 
L 634.364161 153.983724 
L 628.588161 153.889501 
L 622.985311 153.735631 
L 617.548085 153.524709 
L 612.268952 153.259328 
L 607.140386 152.942081 
L 602.154857 152.575561 
L 597.304838 152.162361 
L 592.5828 151.705076 
L 587.981215 151.206297 
L 583.492554 150.668619 
L 579.10929 150.094635 
L 574.823893 149.486938 
L 570.628837 148.848121 
L 566.516591 148.180778 
L 562.479629 147.487502 
L 558.510421 146.770886 
L 554.601439 146.033524 
L 550.745156 145.278008 
L 546.934043 144.506933 
L 543.160571 143.722891 
L 539.417212 142.928476 
L 535.696438 142.126281 
L 531.990721 141.3189 
L 528.292532 140.508925 
L 524.594343 139.698951 
L 520.888626 138.891569 
L 517.167852 138.089374 
L 513.424494 137.294959 
L 509.651022 136.510918 
L 505.839908 135.739842 
L 501.983625 134.984327 
L 498.074644 134.246965 
L 494.105436 133.530349 
L 490.068474 132.837073 
L 485.956228 132.16973 
L 481.761171 131.530913 
L 477.475775 130.923216 
L 473.09251 130.349231 
L 468.60385 129.811553 
L 464.002265 129.312775 
L 459.280227 128.855489 
L 454.430207 128.44229 
L 449.444679 128.07577 
L 444.316113 127.758522 
L 439.03698 127.493141 
L 433.599753 127.282219 
L 427.996904 127.12835 
L 422.220904 127.034127 
L 416.264224 127.002143 
z
" clip-path="url(#pb65f6787e7)" style="fill: #c44e52; opacity: 0.45"/>
   </g>
   <g id="patch_9">
    <path d="M 42.83653 420.774664 
L 57.773638 420.774664 
L 57.773638 42.584751 
L 42.83653 42.584751 
z
" clip-path="url(#pb65f6787e7)" style="fill: #4c72b0; stroke: #ffffff; stroke-width: 0.8; stroke-linejoin: miter"/>
   </g>
   <g id="patch_10">
    <path d="M 222.081823 380.254317 
L 237.018931 380.254317 
L 237.018931 83.105099 
L 222.081823 83.105099 
z
" clip-path="url(#pb65f6787e7)" style="fill: #55a868; stroke: #ffffff; stroke-width: 0.8; stroke-linejoin: miter"/>
   </g>
   <g id="patch_11">
    <path d="M 401.327116 370.12423 
L 416.264224 370.12423 
L 416.264224 93.235186 
L 401.327116 93.235186 
z
" clip-path="url(#pb65f6787e7)" style="fill: #c44e52; stroke: #ffffff; stroke-width: 0.8; stroke-linejoin: miter"/>
   </g>
   <g id="patch_12">
    <path d="M 640.32084 410.644577 
L 655.257948 410.644577 
L 655.257948 208.042838 
L 640.32084 208.042838 
z
" clip-path="url(#pb65f6787e7)" style="fill: #8172b2; stroke: #ffffff; stroke-width: 0.8; stroke-linejoin: miter"/>
   </g>
   <g id="patch_13">
    <path d="M 640.32084 201.289447 
L 655.257948 201.289447 
L 655.257948 160.769099 
L 640.32084 160.769099 
z
" clip-path="url(#pb65f6787e7)" style="fill: #937860; stroke: #ffffff; stroke-width: 0.8; stroke-linejoin: miter"/>
   </g>
   <g id="patch_14">
    <path d="M 640.32084 154.015708 
L 655.257948 154.015708 
L 655.257948 120.248751 
L 640.32084 120.248751 
z
" clip-path="url(#pb65f6787e7)" style="fill: #da8bc3; stroke: #ffffff; stroke-width: 0.8; stroke-linejoin: miter"/>
   </g>
   <g id="patch_15">
    <path d="M 640.32084 113.49536 
L 655.257948 113.49536 
L 655.257948 52.714838 
L 640.32084 52.714838 
z
" clip-path="url(#pb65f6787e7)" style="fill: #aaaaaa; stroke: #ffffff; stroke-width: 0.8; stroke-linejoin: miter"/>
   </g>
   <g id="text_1">
    <!-- Raw -->
    <g style="fill: #4c72b0" transform="translate(14.347969 229.12413) scale(0.09 -0.09)">
     <defs>
      <path id="DejaVuSans-Bold-52" d="M 2297 2597 
Q 2675 2597 2839 2737 
Q 3003 2878 3003 3200 
Q 3003 3519 2839 3656 
Q 2675 3794 2297 3794 
L 1791 3794 
L 1791 2597 
L 2297 2597 
z
M 1791 1766 
L 1791 0 
L 588 0 
L 588 4666 
L 2425 4666 
Q 3347 4666 3776 4356 
Q 4206 4047 4206 3378 
Q 4206 2916 3982 2619 
Q 3759 2322 3309 2181 
Q 3556 2125 3751 1926 
Q 3947 1728 4147 1325 
L 4800 0 
L 3519 0 
L 2950 1159 
Q 2778 1509 2601 1637 
Q 2425 1766 2131 1766 
L 1791 1766 
z
" transform="scale(0.015625)"/>
      <path id="DejaVuSans-Bold-61" d="M 2106 1575 
Q 1756 1575 1579 1456 
Q 1403 1338 1403 1106 
Q 1403 894 1545 773 
Q 1688 653 1941 653 
Q 2256 653 2472 879 
Q 2688 1106 2688 1447 
L 2688 1575 
L 2106 1575 
z
M 3816 1997 
L 3816 0 
L 2688 0 
L 2688 519 
Q 2463 200 2181 54 
Q 1900 -91 1497 -91 
Q 953 -91 614 226 
Q 275 544 275 1050 
Q 275 1666 698 1953 
Q 1122 2241 2028 2241 
L 2688 2241 
L 2688 2328 
Q 2688 2594 2478 2717 
Q 2269 2841 1825 2841 
Q 1466 2841 1156 2769 
Q 847 2697 581 2553 
L 581 3406 
Q 941 3494 1303 3539 
Q 1666 3584 2028 3584 
Q 2975 3584 3395 3211 
Q 3816 2838 3816 1997 
z
" transform="scale(0.015625)"/>
      <path id="DejaVuSans-Bold-77" d="M 225 3500 
L 1313 3500 
L 1900 1088 
L 2491 3500 
L 3425 3500 
L 4013 1113 
L 4603 3500 
L 5691 3500 
L 4769 0 
L 3547 0 
L 2956 2406 
L 2369 0 
L 1147 0 
L 225 3500 
z
" transform="scale(0.015625)"/>
     </defs>
     <use xlink:href="#DejaVuSans-Bold-52"/>
     <use xlink:href="#DejaVuSans-Bold-61" transform="translate(77.001953 0)"/>
     <use xlink:href="#DejaVuSans-Bold-77" transform="translate(144.482422 0)"/>
    </g>
    <!-- 1,120 -->
    <g style="fill: #4c72b0" transform="translate(7.2 239.202161) scale(0.09 -0.09)">
     <defs>
      <path id="DejaVuSans-Bold-31" d="M 750 831 
L 1813 831 
L 1813 3847 
L 722 3622 
L 722 4441 
L 1806 4666 
L 2950 4666 
L 2950 831 
L 4013 831 
L 4013 0 
L 750 0 
L 750 831 
z
" transform="scale(0.015625)"/>
      <path id="DejaVuSans-Bold-2c" d="M 653 1209 
L 1778 1209 
L 1778 256 
L 1006 -909 
L 341 -909 
L 653 256 
L 653 1209 
z
" transform="scale(0.015625)"/>
      <path id="DejaVuSans-Bold-32" d="M 1844 884 
L 3897 884 
L 3897 0 
L 506 0 
L 506 884 
L 2209 2388 
Q 2438 2594 2547 2791 
Q 2656 2988 2656 3200 
Q 2656 3528 2436 3728 
Q 2216 3928 1850 3928 
Q 1569 3928 1234 3808 
Q 900 3688 519 3450 
L 519 4475 
Q 925 4609 1322 4679 
Q 1719 4750 2100 4750 
Q 2938 4750 3402 4381 
Q 3866 4013 3866 3353 
Q 3866 2972 3669 2642 
Q 3472 2313 2841 1759 
L 1844 884 
z
" transform="scale(0.015625)"/>
      <path id="DejaVuSans-Bold-30" d="M 2944 2338 
Q 2944 3213 2780 3570 
Q 2616 3928 2228 3928 
Q 1841 3928 1675 3570 
Q 1509 3213 1509 2338 
Q 1509 1453 1675 1090 
Q 1841 728 2228 728 
Q 2613 728 2778 1090 
Q 2944 1453 2944 2338 
z
M 4147 2328 
Q 4147 1169 3647 539 
Q 3147 -91 2228 -91 
Q 1306 -91 806 539 
Q 306 1169 306 2328 
Q 306 3491 806 4120 
Q 1306 4750 2228 4750 
Q 3147 4750 3647 4120 
Q 4147 3491 4147 2328 
z
" transform="scale(0.015625)"/>
     </defs>
     <use xlink:href="#DejaVuSans-Bold-31"/>
     <use xlink:href="#DejaVuSans-Bold-2c" transform="translate(69.580078 0)"/>
     <use xlink:href="#DejaVuSans-Bold-31" transform="translate(107.568359 0)"/>
     <use xlink:href="#DejaVuSans-Bold-32" transform="translate(177.148438 0)"/>
     <use xlink:href="#DejaVuSans-Bold-30" transform="translate(246.728516 0)"/>
    </g>
   </g>
   <g id="text_2">
    <!-- Cleaned -->
    <g style="fill: #55a868" transform="translate(174.089981 229.12413) scale(0.09 -0.09)">
     <defs>
      <path id="DejaVuSans-Bold-43" d="M 4288 256 
Q 3956 84 3597 -3 
Q 3238 -91 2847 -91 
Q 1681 -91 1000 561 
Q 319 1213 319 2328 
Q 319 3447 1000 4098 
Q 1681 4750 2847 4750 
Q 3238 4750 3597 4662 
Q 3956 4575 4288 4403 
L 4288 3438 
Q 3953 3666 3628 3772 
Q 3303 3878 2944 3878 
Q 2300 3878 1931 3465 
Q 1563 3053 1563 2328 
Q 1563 1606 1931 1193 
Q 2300 781 2944 781 
Q 3303 781 3628 887 
Q 3953 994 4288 1222 
L 4288 256 
z
" transform="scale(0.015625)"/>
      <path id="DejaVuSans-Bold-6c" d="M 538 4863 
L 1656 4863 
L 1656 0 
L 538 0 
L 538 4863 
z
" transform="scale(0.015625)"/>
      <path id="DejaVuSans-Bold-65" d="M 4031 1759 
L 4031 1441 
L 1416 1441 
Q 1456 1047 1700 850 
Q 1944 653 2381 653 
Q 2734 653 3104 758 
Q 3475 863 3866 1075 
L 3866 213 
Q 3469 63 3072 -14 
Q 2675 -91 2278 -91 
Q 1328 -91 801 392 
Q 275 875 275 1747 
Q 275 2603 792 3093 
Q 1309 3584 2216 3584 
Q 3041 3584 3536 3087 
Q 4031 2591 4031 1759 
z
M 2881 2131 
Q 2881 2450 2695 2645 
Q 2509 2841 2209 2841 
Q 1884 2841 1681 2658 
Q 1478 2475 1428 2131 
L 2881 2131 
z
" transform="scale(0.015625)"/>
      <path id="DejaVuSans-Bold-6e" d="M 4056 2131 
L 4056 0 
L 2931 0 
L 2931 347 
L 2931 1631 
Q 2931 2084 2911 2256 
Q 2891 2428 2841 2509 
Q 2775 2619 2662 2680 
Q 2550 2741 2406 2741 
Q 2056 2741 1856 2470 
Q 1656 2200 1656 1722 
L 1656 0 
L 538 0 
L 538 3500 
L 1656 3500 
L 1656 2988 
Q 1909 3294 2193 3439 
Q 2478 3584 2822 3584 
Q 3428 3584 3742 3212 
Q 4056 2841 4056 2131 
z
" transform="scale(0.015625)"/>
      <path id="DejaVuSans-Bold-64" d="M 2919 2988 
L 2919 4863 
L 4044 4863 
L 4044 0 
L 2919 0 
L 2919 506 
Q 2688 197 2409 53 
Q 2131 -91 1766 -91 
Q 1119 -91 703 423 
Q 288 938 288 1747 
Q 288 2556 703 3070 
Q 1119 3584 1766 3584 
Q 2128 3584 2408 3439 
Q 2688 3294 2919 2988 
z
M 2181 722 
Q 2541 722 2730 984 
Q 2919 1247 2919 1747 
Q 2919 2247 2730 2509 
Q 2541 2772 2181 2772 
Q 1825 2772 1636 2509 
Q 1447 2247 1447 1747 
Q 1447 1247 1636 984 
Q 1825 722 2181 722 
z
" transform="scale(0.015625)"/>
     </defs>
     <use xlink:href="#DejaVuSans-Bold-43"/>
     <use xlink:href="#DejaVuSans-Bold-6c" transform="translate(73.388672 0)"/>
     <use xlink:href="#DejaVuSans-Bold-65" transform="translate(107.666016 0)"/>
     <use xlink:href="#DejaVuSans-Bold-61" transform="translate(175.488281 0)"/>
     <use xlink:href="#DejaVuSans-Bold-6e" transform="translate(242.96875 0)"/>
     <use xlink:href="#DejaVuSans-Bold-65" transform="translate(314.160156 0)"/>
     <use xlink:href="#DejaVuSans-Bold-64" transform="translate(381.982422 0)"/>
    </g>
    <!-- 880 -->
    <g style="fill: #55a868" transform="translate(196.125918 239.202161) scale(0.09 -0.09)">
     <defs>
      <path id="DejaVuSans-Bold-38" d="M 2228 2088 
Q 1891 2088 1709 1903 
Q 1528 1719 1528 1375 
Q 1528 1031 1709 848 
Q 1891 666 2228 666 
Q 2563 666 2741 848 
Q 2919 1031 2919 1375 
Q 2919 1722 2741 1905 
Q 2563 2088 2228 2088 
z
M 1350 2484 
Q 925 2613 709 2878 
Q 494 3144 494 3541 
Q 494 4131 934 4440 
Q 1375 4750 2228 4750 
Q 3075 4750 3515 4442 
Q 3956 4134 3956 3541 
Q 3956 3144 3739 2878 
Q 3522 2613 3097 2484 
Q 3572 2353 3814 2058 
Q 4056 1763 4056 1313 
Q 4056 619 3595 264 
Q 3134 -91 2228 -91 
Q 1319 -91 855 264 
Q 391 619 391 1313 
Q 391 1763 633 2058 
Q 875 2353 1350 2484 
z
M 1631 3419 
Q 1631 3141 1786 2991 
Q 1941 2841 2228 2841 
Q 2509 2841 2662 2991 
Q 2816 3141 2816 3419 
Q 2816 3697 2662 3845 
Q 2509 3994 2228 3994 
Q 1941 3994 1786 3844 
Q 1631 3694 1631 3419 
z
" transform="scale(0.015625)"/>
     </defs>
     <use xlink:href="#DejaVuSans-Bold-38"/>
     <use xlink:href="#DejaVuSans-Bold-38" transform="translate(69.580078 0)"/>
     <use xlink:href="#DejaVuSans-Bold-30" transform="translate(139.160156 0)"/>
    </g>
   </g>
   <g id="text_3">
    <!-- Filtered -->
    <g style="fill: #c44e52" transform="translate(354.447617 229.12413) scale(0.09 -0.09)">
     <defs>
      <path id="DejaVuSans-Bold-46" d="M 588 4666 
L 3834 4666 
L 3834 3756 
L 1791 3756 
L 1791 2888 
L 3713 2888 
L 3713 1978 
L 1791 1978 
L 1791 0 
L 588 0 
L 588 4666 
z
" transform="scale(0.015625)"/>
      <path id="DejaVuSans-Bold-69" d="M 538 3500 
L 1656 3500 
L 1656 0 
L 538 0 
L 538 3500 
z
M 538 4863 
L 1656 4863 
L 1656 3950 
L 538 3950 
L 538 4863 
z
" transform="scale(0.015625)"/>
      <path id="DejaVuSans-Bold-74" d="M 1759 4494 
L 1759 3500 
L 2913 3500 
L 2913 2700 
L 1759 2700 
L 1759 1216 
Q 1759 972 1856 886 
Q 1953 800 2241 800 
L 2816 800 
L 2816 0 
L 1856 0 
Q 1194 0 917 276 
Q 641 553 641 1216 
L 641 2700 
L 84 2700 
L 84 3500 
L 641 3500 
L 641 4494 
L 1759 4494 
z
" transform="scale(0.015625)"/>
      <path id="DejaVuSans-Bold-72" d="M 3138 2547 
Q 2991 2616 2845 2648 
Q 2700 2681 2553 2681 
Q 2122 2681 1889 2404 
Q 1656 2128 1656 1613 
L 1656 0 
L 538 0 
L 538 3500 
L 1656 3500 
L 1656 2925 
Q 1872 3269 2151 3426 
Q 2431 3584 2822 3584 
Q 2878 3584 2943 3579 
Q 3009 3575 3134 3559 
L 3138 2547 
z
" transform="scale(0.015625)"/>
     </defs>
     <use xlink:href="#DejaVuSans-Bold-46"/>
     <use xlink:href="#DejaVuSans-Bold-69" transform="translate(68.310547 0)"/>
     <use xlink:href="#DejaVuSans-Bold-6c" transform="translate(102.587891 0)"/>
     <use xlink:href="#DejaVuSans-Bold-74" transform="translate(136.865234 0)"/>
     <use xlink:href="#DejaVuSans-Bold-65" transform="translate(184.667969 0)"/>
     <use xlink:href="#DejaVuSans-Bold-72" transform="translate(252.490234 0)"/>
     <use xlink:href="#DejaVuSans-Bold-65" transform="translate(301.806641 0)"/>
     <use xlink:href="#DejaVuSans-Bold-64" transform="translate(369.628906 0)"/>
    </g>
    <!-- 820 -->
    <g style="fill: #c44e52" transform="translate(375.371211 239.202161) scale(0.09 -0.09)">
     <use xlink:href="#DejaVuSans-Bold-38"/>
     <use xlink:href="#DejaVuSans-Bold-32" transform="translate(69.580078 0)"/>
     <use xlink:href="#DejaVuSans-Bold-30" transform="translate(139.160156 0)"/>
    </g>
   </g>
   <g id="text_4">
    <!-- Train -->
    <g style="fill: #8172b2" transform="translate(662.42776 306.78813) scale(0.09 -0.09)">
     <defs>
      <path id="DejaVuSans-Bold-54" d="M 31 4666 
L 4331 4666 
L 4331 3756 
L 2784 3756 
L 2784 0 
L 1581 0 
L 1581 3756 
L 31 3756 
L 31 4666 
z
" transform="scale(0.015625)"/>
     </defs>
     <use xlink:href="#DejaVuSans-Bold-54"/>
     <use xlink:href="#DejaVuSans-Bold-72" transform="translate(57.212891 0)"/>
     <use xlink:href="#DejaVuSans-Bold-61" transform="translate(106.529297 0)"/>
     <use xlink:href="#DejaVuSans-Bold-69" transform="translate(174.009766 0)"/>
     <use xlink:href="#DejaVuSans-Bold-6e" transform="translate(208.287109 0)"/>
    </g>
    <!-- 600 -->
    <g style="fill: #8172b2" transform="translate(662.42776 316.866161) scale(0.09 -0.09)">
     <defs>
      <path id="DejaVuSans-Bold-36" d="M 2316 2303 
Q 2000 2303 1842 2098 
Q 1684 1894 1684 1484 
Q 1684 1075 1842 870 
Q 2000 666 2316 666 
Q 2634 666 2792 870 
Q 2950 1075 2950 1484 
Q 2950 1894 2792 2098 
Q 2634 2303 2316 2303 
z
M 3803 4544 
L 3803 3681 
Q 3506 3822 3243 3889 
Q 2981 3956 2731 3956 
Q 2194 3956 1894 3657 
Q 1594 3359 1544 2772 
Q 1750 2925 1990 3001 
Q 2231 3078 2516 3078 
Q 3231 3078 3670 2659 
Q 4109 2241 4109 1563 
Q 4109 813 3618 361 
Q 3128 -91 2303 -91 
Q 1394 -91 895 523 
Q 397 1138 397 2266 
Q 397 3422 980 4083 
Q 1563 4744 2578 4744 
Q 2900 4744 3203 4694 
Q 3506 4644 3803 4544 
z
" transform="scale(0.015625)"/>
     </defs>
     <use xlink:href="#DejaVuSans-Bold-36"/>
     <use xlink:href="#DejaVuSans-Bold-30" transform="translate(69.580078 0)"/>
     <use xlink:href="#DejaVuSans-Bold-30" transform="translate(139.160156 0)"/>
    </g>
   </g>
   <g id="text_5">
    <!-- Val -->
    <g style="fill: #937860" transform="translate(662.42776 178.473695) scale(0.09 -0.09)">
     <defs>
      <path id="DejaVuSans-Bold-56" d="M 31 4666 
L 1241 4666 
L 2478 1222 
L 3713 4666 
L 4922 4666 
L 3194 0 
L 1759 0 
L 31 4666 
z
" transform="scale(0.015625)"/>
     </defs>
     <use xlink:href="#DejaVuSans-Bold-56"/>
     <use xlink:href="#DejaVuSans-Bold-61" transform="translate(71.892578 0)"/>
     <use xlink:href="#DejaVuSans-Bold-6c" transform="translate(139.373047 0)"/>
    </g>
    <!-- 120 -->
    <g style="fill: #937860" transform="translate(662.42776 188.551726) scale(0.09 -0.09)">
     <use xlink:href="#DejaVuSans-Bold-31"/>
     <use xlink:href="#DejaVuSans-Bold-32" transform="translate(69.580078 0)"/>
     <use xlink:href="#DejaVuSans-Bold-30" transform="translate(139.160156 0)"/>
    </g>
   </g>
   <g id="text_6">
    <!-- Test -->
    <g style="fill: #da8bc3" transform="translate(662.42776 134.576651) scale(0.09 -0.09)">
     <defs>
      <path id="DejaVuSans-Bold-73" d="M 3272 3391 
L 3272 2541 
Q 2913 2691 2578 2766 
Q 2244 2841 1947 2841 
Q 1628 2841 1473 2761 
Q 1319 2681 1319 2516 
Q 1319 2381 1436 2309 
Q 1553 2238 1856 2203 
L 2053 2175 
Q 2913 2066 3209 1816 
Q 3506 1566 3506 1031 
Q 3506 472 3093 190 
Q 2681 -91 1863 -91 
Q 1516 -91 1145 -36 
Q 775 19 384 128 
L 384 978 
Q 719 816 1070 734 
Q 1422 653 1784 653 
Q 2113 653 2278 743 
Q 2444 834 2444 1013 
Q 2444 1163 2330 1236 
Q 2216 1309 1875 1350 
L 1678 1375 
Q 931 1469 631 1722 
Q 331 1975 331 2491 
Q 331 3047 712 3315 
Q 1094 3584 1881 3584 
Q 2191 3584 2531 3537 
Q 2872 3491 3272 3391 
z
" transform="scale(0.015625)"/>
     </defs>
     <use xlink:href="#DejaVuSans-Bold-54"/>
     <use xlink:href="#DejaVuSans-Bold-65" transform="translate(54.962891 0)"/>
     <use xlink:href="#DejaVuSans-Bold-73" transform="translate(122.785156 0)"/>
     <use xlink:href="#DejaVuSans-Bold-74" transform="translate(182.306641 0)"/>
    </g>
    <!-- 100 -->
    <g style="fill: #da8bc3" transform="translate(662.42776 144.654683) scale(0.09 -0.09)">
     <use xlink:href="#DejaVuSans-Bold-31"/>
     <use xlink:href="#DejaVuSans-Bold-30" transform="translate(69.580078 0)"/>
     <use xlink:href="#DejaVuSans-Bold-30" transform="translate(139.160156 0)"/>
    </g>
   </g>
   <g id="text_7">
    <!-- Reject -->
    <g style="fill: #aaaaaa" transform="translate(662.42776 80.514365) scale(0.09 -0.09)">
     <defs>
      <path id="DejaVuSans-Bold-6a" d="M 538 3500 
L 1656 3500 
L 1656 63 
Q 1656 -641 1318 -1011 
Q 981 -1381 341 -1381 
L -213 -1381 
L -213 -647 
L -19 -647 
Q 300 -647 419 -503 
Q 538 -359 538 63 
L 538 3500 
z
M 538 4863 
L 1656 4863 
L 1656 3950 
L 538 3950 
L 538 4863 
z
" transform="scale(0.015625)"/>
      <path id="DejaVuSans-Bold-63" d="M 3366 3391 
L 3366 2478 
Q 3138 2634 2908 2709 
Q 2678 2784 2431 2784 
Q 1963 2784 1702 2511 
Q 1441 2238 1441 1747 
Q 1441 1256 1702 982 
Q 1963 709 2431 709 
Q 2694 709 2930 787 
Q 3166 866 3366 1019 
L 3366 103 
Q 3103 6 2833 -42 
Q 2563 -91 2291 -91 
Q 1344 -91 809 395 
Q 275 881 275 1747 
Q 275 2613 809 3098 
Q 1344 3584 2291 3584 
Q 2566 3584 2833 3536 
Q 3100 3488 3366 3391 
z
" transform="scale(0.015625)"/>
     </defs>
     <use xlink:href="#DejaVuSans-Bold-52"/>
     <use xlink:href="#DejaVuSans-Bold-65" transform="translate(77.001953 0)"/>
     <use xlink:href="#DejaVuSans-Bold-6a" transform="translate(144.824219 0)"/>
     <use xlink:href="#DejaVuSans-Bold-65" transform="translate(179.101562 0)"/>
     <use xlink:href="#DejaVuSans-Bold-63" transform="translate(246.923828 0)"/>
     <use xlink:href="#DejaVuSans-Bold-74" transform="translate(306.201172 0)"/>
    </g>
    <!-- 180 -->
    <g style="fill: #aaaaaa" transform="translate(662.42776 90.662709) scale(0.09 -0.09)">
     <use xlink:href="#DejaVuSans-Bold-31"/>
     <use xlink:href="#DejaVuSans-Bold-38" transform="translate(69.580078 0)"/>
     <use xlink:href="#DejaVuSans-Bold-30" transform="translate(139.160156 0)"/>
    </g>
   </g>
   <g id="text_8">
    <!-- Raw Input -->
    <g style="fill: #555555" transform="translate(30.174459 54.427784) scale(0.08 -0.08)">
     <defs>
      <path id="DejaVuSans-Oblique-52" d="M 1613 4147 
L 1294 2491 
L 2106 2491 
Q 2584 2491 2879 2755 
Q 3175 3019 3175 3444 
Q 3175 3784 2976 3965 
Q 2778 4147 2406 4147 
L 1613 4147 
z
M 2772 2241 
Q 2972 2194 3105 2009 
Q 3238 1825 3413 1275 
L 3809 0 
L 3144 0 
L 2778 1197 
Q 2638 1659 2453 1815 
Q 2269 1972 1888 1972 
L 1191 1972 
L 806 0 
L 172 0 
L 1081 4666 
L 2503 4666 
Q 3150 4666 3495 4373 
Q 3841 4081 3841 3531 
Q 3841 3044 3547 2687 
Q 3253 2331 2772 2241 
z
" transform="scale(0.015625)"/>
      <path id="DejaVuSans-Oblique-61" d="M 3438 1997 
L 3047 0 
L 2472 0 
L 2578 531 
Q 2325 219 2001 64 
Q 1678 -91 1281 -91 
Q 834 -91 548 182 
Q 263 456 263 884 
Q 263 1497 752 1853 
Q 1241 2209 2100 2209 
L 2900 2209 
L 2931 2363 
Q 2938 2388 2941 2417 
Q 2944 2447 2944 2509 
Q 2944 2788 2717 2942 
Q 2491 3097 2081 3097 
Q 1800 3097 1504 3025 
Q 1209 2953 897 2809 
L 997 3341 
Q 1322 3463 1633 3523 
Q 1944 3584 2234 3584 
Q 2853 3584 3176 3315 
Q 3500 3047 3500 2534 
Q 3500 2431 3484 2292 
Q 3469 2153 3438 1997 
z
M 2816 1759 
L 2241 1759 
Q 1534 1759 1195 1570 
Q 856 1381 856 984 
Q 856 709 1029 553 
Q 1203 397 1509 397 
Q 1978 397 2328 733 
Q 2678 1069 2791 1631 
L 2816 1759 
z
" transform="scale(0.015625)"/>
      <path id="DejaVuSans-Oblique-77" d="M 544 3500 
L 1113 3500 
L 1259 684 
L 2566 3500 
L 3231 3500 
L 3425 684 
L 4666 3500 
L 5241 3500 
L 3641 0 
L 2969 0 
L 2797 2900 
L 1459 0 
L 781 0 
L 544 3500 
z
" transform="scale(0.015625)"/>
      <path id="DejaVuSans-Oblique-20" transform="scale(0.015625)"/>
      <path id="DejaVuSans-Oblique-49" d="M 1081 4666 
L 1716 4666 
L 806 0 
L 172 0 
L 1081 4666 
z
" transform="scale(0.015625)"/>
      <path id="DejaVuSans-Oblique-6e" d="M 3566 2113 
L 3156 0 
L 2578 0 
L 2988 2091 
Q 3016 2238 3031 2350 
Q 3047 2463 3047 2528 
Q 3047 2791 2881 2937 
Q 2716 3084 2419 3084 
Q 1956 3084 1622 2776 
Q 1288 2469 1184 1941 
L 800 0 
L 225 0 
L 903 3500 
L 1478 3500 
L 1363 2950 
Q 1603 3253 1940 3418 
Q 2278 3584 2650 3584 
Q 3113 3584 3367 3334 
Q 3622 3084 3622 2631 
Q 3622 2519 3608 2391 
Q 3594 2263 3566 2113 
z
" transform="scale(0.015625)"/>
      <path id="DejaVuSans-Oblique-70" d="M 3175 2156 
Q 3175 2616 2975 2859 
Q 2775 3103 2400 3103 
Q 2144 3103 1911 2972 
Q 1678 2841 1497 2591 
Q 1319 2344 1212 1994 
Q 1106 1644 1106 1300 
Q 1106 863 1306 627 
Q 1506 391 1875 391 
Q 2147 391 2380 519 
Q 2613 647 2778 891 
Q 2956 1147 3065 1494 
Q 3175 1841 3175 2156 
z
M 1394 2969 
Q 1625 3272 1939 3428 
Q 2253 3584 2638 3584 
Q 3175 3584 3472 3232 
Q 3769 2881 3769 2247 
Q 3769 1728 3584 1258 
Q 3400 788 3053 416 
Q 2822 169 2531 39 
Q 2241 -91 1919 -91 
Q 1547 -91 1294 64 
Q 1041 219 916 525 
L 556 -1331 
L -19 -1331 
L 922 3500 
L 1497 3500 
L 1394 2969 
z
" transform="scale(0.015625)"/>
      <path id="DejaVuSans-Oblique-75" d="M 428 1388 
L 838 3500 
L 1416 3500 
L 1006 1409 
Q 975 1256 961 1147 
Q 947 1038 947 966 
Q 947 700 1109 554 
Q 1272 409 1569 409 
Q 2031 409 2368 721 
Q 2706 1034 2809 1563 
L 3194 3500 
L 3769 3500 
L 3091 0 
L 2516 0 
L 2631 550 
Q 2388 244 2052 76 
Q 1716 -91 1338 -91 
Q 878 -91 622 161 
Q 366 413 366 863 
Q 366 956 381 1097 
Q 397 1238 428 1388 
z
" transform="scale(0.015625)"/>
      <path id="DejaVuSans-Oblique-74" d="M 2706 3500 
L 2619 3053 
L 1472 3053 
L 1100 1153 
Q 1081 1047 1072 975 
Q 1063 903 1063 863 
Q 1063 663 1183 572 
Q 1303 481 1569 481 
L 2150 481 
L 2053 0 
L 1503 0 
Q 991 0 739 200 
Q 488 400 488 806 
Q 488 878 497 964 
Q 506 1050 525 1153 
L 897 3053 
L 409 3053 
L 500 3500 
L 978 3500 
L 1172 4494 
L 1747 4494 
L 1556 3500 
L 2706 3500 
z
" transform="scale(0.015625)"/>
     </defs>
     <use xlink:href="#DejaVuSans-Oblique-52"/>
     <use xlink:href="#DejaVuSans-Oblique-61" transform="translate(69.482422 0)"/>
     <use xlink:href="#DejaVuSans-Oblique-77" transform="translate(130.761719 0)"/>
     <use xlink:href="#DejaVuSans-Oblique-20" transform="translate(212.548828 0)"/>
     <use xlink:href="#DejaVuSans-Oblique-49" transform="translate(244.335938 0)"/>
     <use xlink:href="#DejaVuSans-Oblique-6e" transform="translate(273.828125 0)"/>
     <use xlink:href="#DejaVuSans-Oblique-70" transform="translate(337.207031 0)"/>
     <use xlink:href="#DejaVuSans-Oblique-75" transform="translate(400.683594 0)"/>
     <use xlink:href="#DejaVuSans-Oblique-74" transform="translate(464.0625 0)"/>
    </g>
   </g>
   <g id="text_9">
    <!-- Cleaned -->
    <g style="fill: #555555" transform="translate(213.197877 54.427784) scale(0.08 -0.08)">
     <defs>
      <path id="DejaVuSans-Oblique-43" d="M 4447 4306 
L 4319 3641 
Q 4019 3944 3683 4091 
Q 3347 4238 2956 4238 
Q 2422 4238 2017 3981 
Q 1613 3725 1319 3200 
Q 1131 2863 1032 2486 
Q 934 2109 934 1728 
Q 934 1091 1264 756 
Q 1594 422 2222 422 
Q 2656 422 3056 561 
Q 3456 700 3834 978 
L 3688 231 
Q 3316 72 2936 -9 
Q 2556 -91 2175 -91 
Q 1278 -91 773 396 
Q 269 884 269 1753 
Q 269 2309 461 2846 
Q 653 3384 1013 3828 
Q 1394 4300 1883 4525 
Q 2372 4750 3022 4750 
Q 3422 4750 3780 4639 
Q 4138 4528 4447 4306 
z
" transform="scale(0.015625)"/>
      <path id="DejaVuSans-Oblique-6c" d="M 1172 4863 
L 1747 4863 
L 800 0 
L 225 0 
L 1172 4863 
z
" transform="scale(0.015625)"/>
      <path id="DejaVuSans-Oblique-65" d="M 3078 2063 
Q 3088 2113 3092 2166 
Q 3097 2219 3097 2272 
Q 3097 2653 2873 2875 
Q 2650 3097 2266 3097 
Q 1838 3097 1509 2826 
Q 1181 2556 1013 2059 
L 3078 2063 
z
M 3578 1613 
L 903 1613 
Q 884 1494 878 1425 
Q 872 1356 872 1306 
Q 872 872 1139 634 
Q 1406 397 1894 397 
Q 2269 397 2603 481 
Q 2938 566 3225 728 
L 3116 159 
Q 2806 34 2476 -28 
Q 2147 -91 1806 -91 
Q 1078 -91 686 257 
Q 294 606 294 1247 
Q 294 1794 489 2264 
Q 684 2734 1063 3103 
Q 1306 3334 1642 3459 
Q 1978 3584 2356 3584 
Q 2950 3584 3301 3228 
Q 3653 2872 3653 2272 
Q 3653 2128 3634 1964 
Q 3616 1800 3578 1613 
z
" transform="scale(0.015625)"/>
      <path id="DejaVuSans-Oblique-64" d="M 2675 525 
Q 2444 222 2128 65 
Q 1813 -91 1428 -91 
Q 903 -91 598 267 
Q 294 625 294 1247 
Q 294 1766 478 2236 
Q 663 2706 1013 3078 
Q 1244 3325 1534 3454 
Q 1825 3584 2144 3584 
Q 2481 3584 2739 3421 
Q 2997 3259 3138 2956 
L 3513 4863 
L 4091 4863 
L 3144 0 
L 2566 0 
L 2675 525 
z
M 891 1350 
Q 891 897 1095 644 
Q 1300 391 1663 391 
Q 1931 391 2161 520 
Q 2391 650 2566 903 
Q 2750 1166 2856 1509 
Q 2963 1853 2963 2188 
Q 2963 2622 2758 2865 
Q 2553 3109 2194 3109 
Q 1922 3109 1687 2981 
Q 1453 2853 1288 2613 
Q 1106 2353 998 2009 
Q 891 1666 891 1350 
z
" transform="scale(0.015625)"/>
     </defs>
     <use xlink:href="#DejaVuSans-Oblique-43"/>
     <use xlink:href="#DejaVuSans-Oblique-6c" transform="translate(69.824219 0)"/>
     <use xlink:href="#DejaVuSans-Oblique-65" transform="translate(97.607422 0)"/>
     <use xlink:href="#DejaVuSans-Oblique-61" transform="translate(159.130859 0)"/>
     <use xlink:href="#DejaVuSans-Oblique-6e" transform="translate(220.410156 0)"/>
     <use xlink:href="#DejaVuSans-Oblique-65" transform="translate(283.789062 0)"/>
     <use xlink:href="#DejaVuSans-Oblique-64" transform="translate(345.3125 0)"/>
    </g>
   </g>
   <g id="text_10">
    <!-- Filtered -->
    <g style="fill: #555555" transform="translate(393.59817 54.427784) scale(0.08 -0.08)">
     <defs>
      <path id="DejaVuSans-Oblique-46" d="M 1081 4666 
L 3756 4666 
L 3653 4134 
L 1606 4134 
L 1338 2759 
L 3188 2759 
L 3084 2228 
L 1234 2228 
L 800 0 
L 172 0 
L 1081 4666 
z
" transform="scale(0.015625)"/>
      <path id="DejaVuSans-Oblique-69" d="M 1172 4863 
L 1747 4863 
L 1606 4134 
L 1031 4134 
L 1172 4863 
z
M 909 3500 
L 1484 3500 
L 800 0 
L 225 0 
L 909 3500 
z
" transform="scale(0.015625)"/>
      <path id="DejaVuSans-Oblique-72" d="M 2853 2969 
Q 2766 3016 2653 3041 
Q 2541 3066 2413 3066 
Q 1953 3066 1609 2717 
Q 1266 2369 1153 1784 
L 800 0 
L 225 0 
L 909 3500 
L 1484 3500 
L 1375 2956 
Q 1603 3259 1920 3421 
Q 2238 3584 2597 3584 
Q 2691 3584 2781 3573 
Q 2872 3563 2963 3538 
L 2853 2969 
z
" transform="scale(0.015625)"/>
     </defs>
     <use xlink:href="#DejaVuSans-Oblique-46"/>
     <use xlink:href="#DejaVuSans-Oblique-69" transform="translate(57.519531 0)"/>
     <use xlink:href="#DejaVuSans-Oblique-6c" transform="translate(85.302734 0)"/>
     <use xlink:href="#DejaVuSans-Oblique-74" transform="translate(113.085938 0)"/>
     <use xlink:href="#DejaVuSans-Oblique-65" transform="translate(152.294922 0)"/>
     <use xlink:href="#DejaVuSans-Oblique-72" transform="translate(213.818359 0)"/>
     <use xlink:href="#DejaVuSans-Oblique-65" transform="translate(254.931641 0)"/>
     <use xlink:href="#DejaVuSans-Oblique-64" transform="translate(316.455078 0)"/>
    </g>
   </g>
   <g id="text_11">
    <!-- Split -->
    <g style="fill: #555555" transform="translate(638.920019 54.427784) scale(0.08 -0.08)">
     <defs>
      <path id="DejaVuSans-Oblique-53" d="M 3859 4513 
L 3738 3897 
Q 3422 4066 3111 4152 
Q 2800 4238 2509 4238 
Q 1944 4238 1609 3991 
Q 1275 3744 1275 3334 
Q 1275 3109 1398 2989 
Q 1522 2869 2034 2731 
L 2413 2638 
Q 3053 2472 3303 2217 
Q 3553 1963 3553 1503 
Q 3553 797 2998 353 
Q 2444 -91 1538 -91 
Q 1166 -91 791 -17 
Q 416 56 38 206 
L 166 856 
Q 513 641 861 531 
Q 1209 422 1556 422 
Q 2147 422 2503 684 
Q 2859 947 2859 1369 
Q 2859 1650 2717 1795 
Q 2575 1941 2106 2059 
L 1728 2156 
Q 1081 2325 845 2545 
Q 609 2766 609 3163 
Q 609 3859 1145 4304 
Q 1681 4750 2541 4750 
Q 2875 4750 3203 4690 
Q 3531 4631 3859 4513 
z
" transform="scale(0.015625)"/>
     </defs>
     <use xlink:href="#DejaVuSans-Oblique-53"/>
     <use xlink:href="#DejaVuSans-Oblique-70" transform="translate(63.476562 0)"/>
     <use xlink:href="#DejaVuSans-Oblique-6c" transform="translate(126.953125 0)"/>
     <use xlink:href="#DejaVuSans-Oblique-69" transform="translate(154.736328 0)"/>
     <use xlink:href="#DejaVuSans-Oblique-74" transform="translate(182.519531 0)"/>
    </g>
   </g>
   <g id="text_12">
    <!-- Dataset Preparation Flow -->
    <g transform="translate(262.753293 17.077969) scale(0.13 -0.13)">
     <defs>
      <path id="DejaVuSans-Bold-44" d="M 1791 3756 
L 1791 909 
L 2222 909 
Q 2959 909 3348 1275 
Q 3738 1641 3738 2338 
Q 3738 3031 3350 3393 
Q 2963 3756 2222 3756 
L 1791 3756 
z
M 588 4666 
L 1856 4666 
Q 2919 4666 3439 4514 
Q 3959 4363 4331 4000 
Q 4659 3684 4818 3271 
Q 4978 2859 4978 2338 
Q 4978 1809 4818 1395 
Q 4659 981 4331 666 
Q 3956 303 3431 151 
Q 2906 0 1856 0 
L 588 0 
L 588 4666 
z
" transform="scale(0.015625)"/>
      <path id="DejaVuSans-Bold-20" transform="scale(0.015625)"/>
      <path id="DejaVuSans-Bold-50" d="M 588 4666 
L 2584 4666 
Q 3475 4666 3951 4270 
Q 4428 3875 4428 3144 
Q 4428 2409 3951 2014 
Q 3475 1619 2584 1619 
L 1791 1619 
L 1791 0 
L 588 0 
L 588 4666 
z
M 1791 3794 
L 1791 2491 
L 2456 2491 
Q 2806 2491 2997 2661 
Q 3188 2831 3188 3144 
Q 3188 3456 2997 3625 
Q 2806 3794 2456 3794 
L 1791 3794 
z
" transform="scale(0.015625)"/>
      <path id="DejaVuSans-Bold-70" d="M 1656 506 
L 1656 -1331 
L 538 -1331 
L 538 3500 
L 1656 3500 
L 1656 2988 
Q 1888 3294 2169 3439 
Q 2450 3584 2816 3584 
Q 3463 3584 3878 3070 
Q 4294 2556 4294 1747 
Q 4294 938 3878 423 
Q 3463 -91 2816 -91 
Q 2450 -91 2169 54 
Q 1888 200 1656 506 
z
M 2400 2772 
Q 2041 2772 1848 2508 
Q 1656 2244 1656 1747 
Q 1656 1250 1848 986 
Q 2041 722 2400 722 
Q 2759 722 2948 984 
Q 3138 1247 3138 1747 
Q 3138 2247 2948 2509 
Q 2759 2772 2400 2772 
z
" transform="scale(0.015625)"/>
      <path id="DejaVuSans-Bold-6f" d="M 2203 2784 
Q 1831 2784 1636 2517 
Q 1441 2250 1441 1747 
Q 1441 1244 1636 976 
Q 1831 709 2203 709 
Q 2569 709 2762 976 
Q 2956 1244 2956 1747 
Q 2956 2250 2762 2517 
Q 2569 2784 2203 2784 
z
M 2203 3584 
Q 3106 3584 3614 3096 
Q 4122 2609 4122 1747 
Q 4122 884 3614 396 
Q 3106 -91 2203 -91 
Q 1297 -91 786 396 
Q 275 884 275 1747 
Q 275 2609 786 3096 
Q 1297 3584 2203 3584 
z
" transform="scale(0.015625)"/>
     </defs>
     <use xlink:href="#DejaVuSans-Bold-44"/>
     <use xlink:href="#DejaVuSans-Bold-61" transform="translate(83.007812 0)"/>
     <use xlink:href="#DejaVuSans-Bold-74" transform="translate(150.488281 0)"/>
     <use xlink:href="#DejaVuSans-Bold-61" transform="translate(198.291016 0)"/>
     <use xlink:href="#DejaVuSans-Bold-73" transform="translate(265.771484 0)"/>
     <use xlink:href="#DejaVuSans-Bold-65" transform="translate(325.292969 0)"/>
     <use xlink:href="#DejaVuSans-Bold-74" transform="translate(393.115234 0)"/>
     <use xlink:href="#DejaVuSans-Bold-20" transform="translate(440.917969 0)"/>
     <use xlink:href="#DejaVuSans-Bold-50" transform="translate(475.732422 0)"/>
     <use xlink:href="#DejaVuSans-Bold-72" transform="translate(549.023438 0)"/>
     <use xlink:href="#DejaVuSans-Bold-65" transform="translate(598.339844 0)"/>
     <use xlink:href="#DejaVuSans-Bold-70" transform="translate(666.162109 0)"/>
     <use xlink:href="#DejaVuSans-Bold-61" transform="translate(737.744141 0)"/>
     <use xlink:href="#DejaVuSans-Bold-72" transform="translate(805.224609 0)"/>
     <use xlink:href="#DejaVuSans-Bold-61" transform="translate(854.541016 0)"/>
     <use xlink:href="#DejaVuSans-Bold-74" transform="translate(922.021484 0)"/>
     <use xlink:href="#DejaVuSans-Bold-69" transform="translate(969.824219 0)"/>
     <use xlink:href="#DejaVuSans-Bold-6f" transform="translate(1004.101562 0)"/>
     <use xlink:href="#DejaVuSans-Bold-6e" transform="translate(1072.802734 0)"/>
     <use xlink:href="#DejaVuSans-Bold-20" transform="translate(1143.994141 0)"/>
     <use xlink:href="#DejaVuSans-Bold-46" transform="translate(1178.808594 0)"/>
     <use xlink:href="#DejaVuSans-Bold-6c" transform="translate(1247.119141 0)"/>
     <use xlink:href="#DejaVuSans-Bold-6f" transform="translate(1281.396484 0)"/>
     <use xlink:href="#DejaVuSans-Bold-77" transform="translate(1350.097656 0)"/>
    </g>
   </g>
  </g>
 </g>
 <defs>
  <clipPath id="pb65f6787e7">
   <rect x="12.962315" y="29.077969" width="687.106957" height="388.32"/>
  </clipPath>
 </defs>
</svg>
