<?xml version="1.0" encoding="utf-8" standalone="no"?>
<!DOCTYPE svg PUBLIC "-//W3C//DTD SVG 1.1//EN"
  "http://www.w3.org/Graphics/SVG/1.1/DTD/svg11.dtd">
<svg xmlns:xlink="http://www.w3.org/1999/xlink" width="602.162407pt" height="290.289804pt" viewBox="0 0 602.162407 290.289804" xmlns="http://www.w3.org/2000/svg" version="1.1">
 <metadata>
  <rdf:RDF xmlns:dc="http://purl.org/dc/elements/1.1/" xmlns:cc="http://creativecommons.org/ns#" xmlns:rdf="http://www.w3.org/1999/02/22-rdf-syntax-ns#">
   <cc:Work>
    <dc:type rdf:resource="http://purl.org/dc/dcmitype/StillImage"/>
    <dc:date>2026-05-24T23:03:49.516475</dc:date>
    <dc:format>image/svg+xml</dc:format>
    <dc:creator>
     <cc:Agent>
      <dc:title>Matplotlib v3.10.9, https://matplotlib.org/</dc:title>
     </cc:Agent>
    </dc:creator>
   </cc:Work>
  </rdf:RDF>
 </metadata>
 <defs>
  <style type="text/css">*{stroke-linejoin: round; stroke-linecap: butt}</style>
 </defs>
 <g id="figure_1">
  <g id="patch_1">
   <path d="M 0 290.289804 
L 602.162407 290.289804 
L 602.162407 0 
L 0 0 
z
" style="fill: #ffffff"/>
  </g>
  <g id="axes_1">
   <g id="patch_2">
    <path d="M 43.78125 252.733554 
L 274.956523 252.733554 
L 274.956523 21.558281 
L 43.78125 21.558281 
z
" style="fill: #ffffff"/>
   </g>
   <g id="line2d_1">
    <path d="M 48.226928 248.287876 
L 270.510844 26.00396 
" clip-path="url(#pf6f8a3e66c)" style="fill: none; stroke-dasharray: 2.96,1.28; stroke-dashoffset: 0; stroke: #808080; stroke-width: 0.8"/>
   </g>
   <g id="matplotlib.axis_1">
    <g id="xtick_1">
     <g id="line2d_2">
      <defs>
       <path id="m100c60e1ee" d="M 0 0 
L 0 3.5 
" style="stroke: #000000; stroke-width: 0.8"/>
      </defs>
      <g>
       <use xlink:href="#m100c60e1ee" x="48.226928" y="252.733554" style="stroke: #000000; stroke-width: 0.8"/>
      </g>
     </g>
     <g id="text_1">
      <!-- 0.0 -->
      <g transform="translate(40.275366 267.331991) scale(0.1 -0.1)">
       <defs>
        <path id="DejaVuSans-30" d="M 2034 4250 
Q 1547 4250 1301 3770 
Q 1056 3291 1056 2328 
Q 1056 1369 1301 889 
Q 1547 409 2034 409 
Q 2525 409 2770 889 
Q 3016 1369 3016 2328 
Q 3016 3291 2770 3770 
Q 2525 4250 2034 4250 
z
M 2034 4750 
Q 2819 4750 3233 4129 
Q 3647 3509 3647 2328 
Q 3647 1150 3233 529 
Q 2819 -91 2034 -91 
Q 1250 -91 836 529 
Q 422 1150 422 2328 
Q 422 3509 836 4129 
Q 1250 4750 2034 4750 
z
" transform="scale(0.015625)"/>
        <path id="DejaVuSans-2e" d="M 684 794 
L 1344 794 
L 1344 0 
L 684 0 
L 684 794 
z
" transform="scale(0.015625)"/>
       </defs>
       <use xlink:href="#DejaVuSans-30"/>
       <use xlink:href="#DejaVuSans-2e" transform="translate(63.623047 0)"/>
       <use xlink:href="#DejaVuSans-30" transform="translate(95.410156 0)"/>
      </g>
     </g>
    </g>
    <g id="xtick_2">
     <g id="line2d_3">
      <g>
       <use xlink:href="#m100c60e1ee" x="92.683712" y="252.733554" style="stroke: #000000; stroke-width: 0.8"/>
      </g>
     </g>
     <g id="text_2">
      <!-- 0.2 -->
      <g transform="translate(84.732149 267.331991) scale(0.1 -0.1)">
       <defs>
        <path id="DejaVuSans-32" d="M 1228 531 
L 3431 531 
L 3431 0 
L 469 0 
L 469 531 
Q 828 903 1448 1529 
Q 2069 2156 2228 2338 
Q 2531 2678 2651 2914 
Q 2772 3150 2772 3378 
Q 2772 3750 2511 3984 
Q 2250 4219 1831 4219 
Q 1534 4219 1204 4116 
Q 875 4013 500 3803 
L 500 4441 
Q 881 4594 1212 4672 
Q 1544 4750 1819 4750 
Q 2544 4750 2975 4387 
Q 3406 4025 3406 3419 
Q 3406 3131 3298 2873 
Q 3191 2616 2906 2266 
Q 2828 2175 2409 1742 
Q 1991 1309 1228 531 
z
" transform="scale(0.015625)"/>
       </defs>
       <use xlink:href="#DejaVuSans-30"/>
       <use xlink:href="#DejaVuSans-2e" transform="translate(63.623047 0)"/>
       <use xlink:href="#DejaVuSans-32" transform="translate(95.410156 0)"/>
      </g>
     </g>
    </g>
    <g id="xtick_3">
     <g id="line2d_4">
      <g>
       <use xlink:href="#m100c60e1ee" x="137.140495" y="252.733554" style="stroke: #000000; stroke-width: 0.8"/>
      </g>
     </g>
     <g id="text_3">
      <!-- 0.4 -->
      <g transform="translate(129.188932 267.331991) scale(0.1 -0.1)">
       <defs>
        <path id="DejaVuSans-34" d="M 2419 4116 
L 825 1625 
L 2419 1625 
L 2419 4116 
z
M 2253 4666 
L 3047 4666 
L 3047 1625 
L 3713 1625 
L 3713 1100 
L 3047 1100 
L 3047 0 
L 2419 0 
L 2419 1100 
L 313 1100 
L 313 1709 
L 2253 4666 
z
" transform="scale(0.015625)"/>
       </defs>
       <use xlink:href="#DejaVuSans-30"/>
       <use xlink:href="#DejaVuSans-2e" transform="translate(63.623047 0)"/>
       <use xlink:href="#DejaVuSans-34" transform="translate(95.410156 0)"/>
      </g>
     </g>
    </g>
    <g id="xtick_4">
     <g id="line2d_5">
      <g>
       <use xlink:href="#m100c60e1ee" x="181.597278" y="252.733554" style="stroke: #000000; stroke-width: 0.8"/>
      </g>
     </g>
     <g id="text_4">
      <!-- 0.6 -->
      <g transform="translate(173.645715 267.331991) scale(0.1 -0.1)">
       <defs>
        <path id="DejaVuSans-36" d="M 2113 2584 
Q 1688 2584 1439 2293 
Q 1191 2003 1191 1497 
Q 1191 994 1439 701 
Q 1688 409 2113 409 
Q 2538 409 2786 701 
Q 3034 994 3034 1497 
Q 3034 2003 2786 2293 
Q 2538 2584 2113 2584 
z
M 3366 4563 
L 3366 3988 
Q 3128 4100 2886 4159 
Q 2644 4219 2406 4219 
Q 1781 4219 1451 3797 
Q 1122 3375 1075 2522 
Q 1259 2794 1537 2939 
Q 1816 3084 2150 3084 
Q 2853 3084 3261 2657 
Q 3669 2231 3669 1497 
Q 3669 778 3244 343 
Q 2819 -91 2113 -91 
Q 1303 -91 875 529 
Q 447 1150 447 2328 
Q 447 3434 972 4092 
Q 1497 4750 2381 4750 
Q 2619 4750 2861 4703 
Q 3103 4656 3366 4563 
z
" transform="scale(0.015625)"/>
       </defs>
       <use xlink:href="#DejaVuSans-30"/>
       <use xlink:href="#DejaVuSans-2e" transform="translate(63.623047 0)"/>
       <use xlink:href="#DejaVuSans-36" transform="translate(95.410156 0)"/>
      </g>
     </g>
    </g>
    <g id="xtick_5">
     <g id="line2d_6">
      <g>
       <use xlink:href="#m100c60e1ee" x="226.054061" y="252.733554" style="stroke: #000000; stroke-width: 0.8"/>
      </g>
     </g>
     <g id="text_5">
      <!-- 0.8 -->
      <g transform="translate(218.102499 267.331991) scale(0.1 -0.1)">
       <defs>
        <path id="DejaVuSans-38" d="M 2034 2216 
Q 1584 2216 1326 1975 
Q 1069 1734 1069 1313 
Q 1069 891 1326 650 
Q 1584 409 2034 409 
Q 2484 409 2743 651 
Q 3003 894 3003 1313 
Q 3003 1734 2745 1975 
Q 2488 2216 2034 2216 
z
M 1403 2484 
Q 997 2584 770 2862 
Q 544 3141 544 3541 
Q 544 4100 942 4425 
Q 1341 4750 2034 4750 
Q 2731 4750 3128 4425 
Q 3525 4100 3525 3541 
Q 3525 3141 3298 2862 
Q 3072 2584 2669 2484 
Q 3125 2378 3379 2068 
Q 3634 1759 3634 1313 
Q 3634 634 3220 271 
Q 2806 -91 2034 -91 
Q 1263 -91 848 271 
Q 434 634 434 1313 
Q 434 1759 690 2068 
Q 947 2378 1403 2484 
z
M 1172 3481 
Q 1172 3119 1398 2916 
Q 1625 2713 2034 2713 
Q 2441 2713 2670 2916 
Q 2900 3119 2900 3481 
Q 2900 3844 2670 4047 
Q 2441 4250 2034 4250 
Q 1625 4250 1398 4047 
Q 1172 3844 1172 3481 
z
" transform="scale(0.015625)"/>
       </defs>
       <use xlink:href="#DejaVuSans-30"/>
       <use xlink:href="#DejaVuSans-2e" transform="translate(63.623047 0)"/>
       <use xlink:href="#DejaVuSans-38" transform="translate(95.410156 0)"/>
      </g>
     </g>
    </g>
    <g id="xtick_6">
     <g id="line2d_7">
      <g>
       <use xlink:href="#m100c60e1ee" x="270.510844" y="252.733554" style="stroke: #000000; stroke-width: 0.8"/>
      </g>
     </g>
     <g id="text_6">
      <!-- 1.0 -->
      <g transform="translate(262.559282 267.331991) scale(0.1 -0.1)">
       <defs>
        <path id="DejaVuSans-31" d="M 794 531 
L 1825 531 
L 1825 4091 
L 703 3866 
L 703 4441 
L 1819 4666 
L 2450 4666 
L 2450 531 
L 3481 531 
L 3481 0 
L 794 0 
L 794 531 
z
" transform="scale(0.015625)"/>
       </defs>
       <use xlink:href="#DejaVuSans-31"/>
       <use xlink:href="#DejaVuSans-2e" transform="translate(63.623047 0)"/>
       <use xlink:href="#DejaVuSans-30" transform="translate(95.410156 0)"/>
      </g>
     </g>
    </g>
    <g id="text_7">
     <!-- False Positive Rate -->
     <g transform="translate(112.90248 281.010116) scale(0.1 -0.1)">
      <defs>
       <path id="DejaVuSans-46" d="M 628 4666 
L 3309 4666 
L 3309 4134 
L 1259 4134 
L 1259 2759 
L 3109 2759 
L 3109 2228 
L 1259 2228 
L 1259 0 
L 628 0 
L 628 4666 
z
" transform="scale(0.015625)"/>
       <path id="DejaVuSans-61" d="M 2194 1759 
Q 1497 1759 1228 1600 
Q 959 1441 959 1056 
Q 959 750 1161 570 
Q 1363 391 1709 391 
Q 2188 391 2477 730 
Q 2766 1069 2766 1631 
L 2766 1759 
L 2194 1759 
z
M 3341 1997 
L 3341 0 
L 2766 0 
L 2766 531 
Q 2569 213 2275 61 
Q 1981 -91 1556 -91 
Q 1019 -91 701 211 
Q 384 513 384 1019 
Q 384 1609 779 1909 
Q 1175 2209 1959 2209 
L 2766 2209 
L 2766 2266 
Q 2766 2663 2505 2880 
Q 2244 3097 1772 3097 
Q 1472 3097 1187 3025 
Q 903 2953 641 2809 
L 641 3341 
Q 956 3463 1253 3523 
Q 1550 3584 1831 3584 
Q 2591 3584 2966 3190 
Q 3341 2797 3341 1997 
z
" transform="scale(0.015625)"/>
       <path id="DejaVuSans-6c" d="M 603 4863 
L 1178 4863 
L 1178 0 
L 603 0 
L 603 4863 
z
" transform="scale(0.015625)"/>
       <path id="DejaVuSans-73" d="M 2834 3397 
L 2834 2853 
Q 2591 2978 2328 3040 
Q 2066 3103 1784 3103 
Q 1356 3103 1142 2972 
Q 928 2841 928 2578 
Q 928 2378 1081 2264 
Q 1234 2150 1697 2047 
L 1894 2003 
Q 2506 1872 2764 1633 
Q 3022 1394 3022 966 
Q 3022 478 2636 193 
Q 2250 -91 1575 -91 
Q 1294 -91 989 -36 
Q 684 19 347 128 
L 347 722 
Q 666 556 975 473 
Q 1284 391 1588 391 
Q 1994 391 2212 530 
Q 2431 669 2431 922 
Q 2431 1156 2273 1281 
Q 2116 1406 1581 1522 
L 1381 1569 
Q 847 1681 609 1914 
Q 372 2147 372 2553 
Q 372 3047 722 3315 
Q 1072 3584 1716 3584 
Q 2034 3584 2315 3537 
Q 2597 3491 2834 3397 
z
" transform="scale(0.015625)"/>
       <path id="DejaVuSans-65" d="M 3597 1894 
L 3597 1613 
L 953 1613 
Q 991 1019 1311 708 
Q 1631 397 2203 397 
Q 2534 397 2845 478 
Q 3156 559 3463 722 
L 3463 178 
Q 3153 47 2828 -22 
Q 2503 -91 2169 -91 
Q 1331 -91 842 396 
Q 353 884 353 1716 
Q 353 2575 817 3079 
Q 1281 3584 2069 3584 
Q 2775 3584 3186 3129 
Q 3597 2675 3597 1894 
z
M 3022 2063 
Q 3016 2534 2758 2815 
Q 2500 3097 2075 3097 
Q 1594 3097 1305 2825 
Q 1016 2553 972 2059 
L 3022 2063 
z
" transform="scale(0.015625)"/>
       <path id="DejaVuSans-20" transform="scale(0.015625)"/>
       <path id="DejaVuSans-50" d="M 1259 4147 
L 1259 2394 
L 2053 2394 
Q 2494 2394 2734 2622 
Q 2975 2850 2975 3272 
Q 2975 3691 2734 3919 
Q 2494 4147 2053 4147 
L 1259 4147 
z
M 628 4666 
L 2053 4666 
Q 2838 4666 3239 4311 
Q 3641 3956 3641 3272 
Q 3641 2581 3239 2228 
Q 2838 1875 2053 1875 
L 1259 1875 
L 1259 0 
L 628 0 
L 628 4666 
z
" transform="scale(0.015625)"/>
       <path id="DejaVuSans-6f" d="M 1959 3097 
Q 1497 3097 1228 2736 
Q 959 2375 959 1747 
Q 959 1119 1226 758 
Q 1494 397 1959 397 
Q 2419 397 2687 759 
Q 2956 1122 2956 1747 
Q 2956 2369 2687 2733 
Q 2419 3097 1959 3097 
z
M 1959 3584 
Q 2709 3584 3137 3096 
Q 3566 2609 3566 1747 
Q 3566 888 3137 398 
Q 2709 -91 1959 -91 
Q 1206 -91 779 398 
Q 353 888 353 1747 
Q 353 2609 779 3096 
Q 1206 3584 1959 3584 
z
" transform="scale(0.015625)"/>
       <path id="DejaVuSans-69" d="M 603 3500 
L 1178 3500 
L 1178 0 
L 603 0 
L 603 3500 
z
M 603 4863 
L 1178 4863 
L 1178 4134 
L 603 4134 
L 603 4863 
z
" transform="scale(0.015625)"/>
       <path id="DejaVuSans-74" d="M 1172 4494 
L 1172 3500 
L 2356 3500 
L 2356 3053 
L 1172 3053 
L 1172 1153 
Q 1172 725 1289 603 
Q 1406 481 1766 481 
L 2356 481 
L 2356 0 
L 1766 0 
Q 1100 0 847 248 
Q 594 497 594 1153 
L 594 3053 
L 172 3053 
L 172 3500 
L 594 3500 
L 594 4494 
L 1172 4494 
z
" transform="scale(0.015625)"/>
       <path id="DejaVuSans-76" d="M 191 3500 
L 800 3500 
L 1894 563 
L 2988 3500 
L 3597 3500 
L 2284 0 
L 1503 0 
L 191 3500 
z
" transform="scale(0.015625)"/>
       <path id="DejaVuSans-52" d="M 2841 2188 
Q 3044 2119 3236 1894 
Q 3428 1669 3622 1275 
L 4263 0 
L 3584 0 
L 2988 1197 
Q 2756 1666 2539 1819 
Q 2322 1972 1947 1972 
L 1259 1972 
L 1259 0 
L 628 0 
L 628 4666 
L 2053 4666 
Q 2853 4666 3247 4331 
Q 3641 3997 3641 3322 
Q 3641 2881 3436 2590 
Q 3231 2300 2841 2188 
z
M 1259 4147 
L 1259 2491 
L 2053 2491 
Q 2509 2491 2742 2702 
Q 2975 2913 2975 3322 
Q 2975 3731 2742 3939 
Q 2509 4147 2053 4147 
L 1259 4147 
z
" transform="scale(0.015625)"/>
      </defs>
      <use xlink:href="#DejaVuSans-46"/>
      <use xlink:href="#DejaVuSans-61" transform="translate(48.394531 0)"/>
      <use xlink:href="#DejaVuSans-6c" transform="translate(109.673828 0)"/>
      <use xlink:href="#DejaVuSans-73" transform="translate(137.457031 0)"/>
      <use xlink:href="#DejaVuSans-65" transform="translate(189.556641 0)"/>
      <use xlink:href="#DejaVuSans-20" transform="translate(251.080078 0)"/>
      <use xlink:href="#DejaVuSans-50" transform="translate(282.867188 0)"/>
      <use xlink:href="#DejaVuSans-6f" transform="translate(339.544922 0)"/>
      <use xlink:href="#DejaVuSans-73" transform="translate(400.726562 0)"/>
      <use xlink:href="#DejaVuSans-69" transform="translate(452.826172 0)"/>
      <use xlink:href="#DejaVuSans-74" transform="translate(480.609375 0)"/>
      <use xlink:href="#DejaVuSans-69" transform="translate(519.818359 0)"/>
      <use xlink:href="#DejaVuSans-76" transform="translate(547.601562 0)"/>
      <use xlink:href="#DejaVuSans-65" transform="translate(606.78125 0)"/>
      <use xlink:href="#DejaVuSans-20" transform="translate(668.304688 0)"/>
      <use xlink:href="#DejaVuSans-52" transform="translate(700.091797 0)"/>
      <use xlink:href="#DejaVuSans-61" transform="translate(767.324219 0)"/>
      <use xlink:href="#DejaVuSans-74" transform="translate(828.603516 0)"/>
      <use xlink:href="#DejaVuSans-65" transform="translate(867.8125 0)"/>
     </g>
    </g>
   </g>
   <g id="matplotlib.axis_2">
    <g id="ytick_1">
     <g id="line2d_8">
      <defs>
       <path id="m6cf90e733d" d="M 0 0 
L -3.5 0 
" style="stroke: #000000; stroke-width: 0.8"/>
      </defs>
      <g>
       <use xlink:href="#m6cf90e733d" x="43.78125" y="248.287876" style="stroke: #000000; stroke-width: 0.8"/>
      </g>
     </g>
     <g id="text_8">
      <!-- 0.0 -->
      <g transform="translate(20.878125 252.087094) scale(0.1 -0.1)">
       <use xlink:href="#DejaVuSans-30"/>
       <use xlink:href="#DejaVuSans-2e" transform="translate(63.623047 0)"/>
       <use xlink:href="#DejaVuSans-30" transform="translate(95.410156 0)"/>
      </g>
     </g>
    </g>
    <g id="ytick_2">
     <g id="line2d_9">
      <g>
       <use xlink:href="#m6cf90e733d" x="43.78125" y="203.831092" style="stroke: #000000; stroke-width: 0.8"/>
      </g>
     </g>
     <g id="text_9">
      <!-- 0.2 -->
      <g transform="translate(20.878125 207.630311) scale(0.1 -0.1)">
       <use xlink:href="#DejaVuSans-30"/>
       <use xlink:href="#DejaVuSans-2e" transform="translate(63.623047 0)"/>
       <use xlink:href="#DejaVuSans-32" transform="translate(95.410156 0)"/>
      </g>
     </g>
    </g>
    <g id="ytick_3">
     <g id="line2d_10">
      <g>
       <use xlink:href="#m6cf90e733d" x="43.78125" y="159.374309" style="stroke: #000000; stroke-width: 0.8"/>
      </g>
     </g>
     <g id="text_10">
      <!-- 0.4 -->
      <g transform="translate(20.878125 163.173528) scale(0.1 -0.1)">
       <use xlink:href="#DejaVuSans-30"/>
       <use xlink:href="#DejaVuSans-2e" transform="translate(63.623047 0)"/>
       <use xlink:href="#DejaVuSans-34" transform="translate(95.410156 0)"/>
      </g>
     </g>
    </g>
    <g id="ytick_4">
     <g id="line2d_11">
      <g>
       <use xlink:href="#m6cf90e733d" x="43.78125" y="114.917526" style="stroke: #000000; stroke-width: 0.8"/>
      </g>
     </g>
     <g id="text_11">
      <!-- 0.6 -->
      <g transform="translate(20.878125 118.716745) scale(0.1 -0.1)">
       <use xlink:href="#DejaVuSans-30"/>
       <use xlink:href="#DejaVuSans-2e" transform="translate(63.623047 0)"/>
       <use xlink:href="#DejaVuSans-36" transform="translate(95.410156 0)"/>
      </g>
     </g>
    </g>
    <g id="ytick_5">
     <g id="line2d_12">
      <g>
       <use xlink:href="#m6cf90e733d" x="43.78125" y="70.460743" style="stroke: #000000; stroke-width: 0.8"/>
      </g>
     </g>
     <g id="text_12">
      <!-- 0.8 -->
      <g transform="translate(20.878125 74.259962) scale(0.1 -0.1)">
       <use xlink:href="#DejaVuSans-30"/>
       <use xlink:href="#DejaVuSans-2e" transform="translate(63.623047 0)"/>
       <use xlink:href="#DejaVuSans-38" transform="translate(95.410156 0)"/>
      </g>
     </g>
    </g>
    <g id="ytick_6">
     <g id="line2d_13">
      <g>
       <use xlink:href="#m6cf90e733d" x="43.78125" y="26.00396" style="stroke: #000000; stroke-width: 0.8"/>
      </g>
     </g>
     <g id="text_13">
      <!-- 1.0 -->
      <g transform="translate(20.878125 29.803178) scale(0.1 -0.1)">
       <use xlink:href="#DejaVuSans-31"/>
       <use xlink:href="#DejaVuSans-2e" transform="translate(63.623047 0)"/>
       <use xlink:href="#DejaVuSans-30" transform="translate(95.410156 0)"/>
      </g>
     </g>
    </g>
    <g id="text_14">
     <!-- True Positive Rate -->
     <g transform="translate(14.798438 181.675605) rotate(-90) scale(0.1 -0.1)">
      <defs>
       <path id="DejaVuSans-54" d="M -19 4666 
L 3928 4666 
L 3928 4134 
L 2272 4134 
L 2272 0 
L 1638 0 
L 1638 4134 
L -19 4134 
L -19 4666 
z
" transform="scale(0.015625)"/>
       <path id="DejaVuSans-72" d="M 2631 2963 
Q 2534 3019 2420 3045 
Q 2306 3072 2169 3072 
Q 1681 3072 1420 2755 
Q 1159 2438 1159 1844 
L 1159 0 
L 581 0 
L 581 3500 
L 1159 3500 
L 1159 2956 
Q 1341 3275 1631 3429 
Q 1922 3584 2338 3584 
Q 2397 3584 2469 3576 
Q 2541 3569 2628 3553 
L 2631 2963 
z
" transform="scale(0.015625)"/>
       <path id="DejaVuSans-75" d="M 544 1381 
L 544 3500 
L 1119 3500 
L 1119 1403 
Q 1119 906 1312 657 
Q 1506 409 1894 409 
Q 2359 409 2629 706 
Q 2900 1003 2900 1516 
L 2900 3500 
L 3475 3500 
L 3475 0 
L 2900 0 
L 2900 538 
Q 2691 219 2414 64 
Q 2138 -91 1772 -91 
Q 1169 -91 856 284 
Q 544 659 544 1381 
z
M 1991 3584 
L 1991 3584 
z
" transform="scale(0.015625)"/>
      </defs>
      <use xlink:href="#DejaVuSans-54"/>
      <use xlink:href="#DejaVuSans-72" transform="translate(46.333984 0)"/>
      <use xlink:href="#DejaVuSans-75" transform="translate(87.447266 0)"/>
      <use xlink:href="#DejaVuSans-65" transform="translate(150.826172 0)"/>
      <use xlink:href="#DejaVuSans-20" transform="translate(212.349609 0)"/>
      <use xlink:href="#DejaVuSans-50" transform="translate(244.136719 0)"/>
      <use xlink:href="#DejaVuSans-6f" transform="translate(300.814453 0)"/>
      <use xlink:href="#DejaVuSans-73" transform="translate(361.996094 0)"/>
      <use xlink:href="#DejaVuSans-69" transform="translate(414.095703 0)"/>
      <use xlink:href="#DejaVuSans-74" transform="translate(441.878906 0)"/>
      <use xlink:href="#DejaVuSans-69" transform="translate(481.087891 0)"/>
      <use xlink:href="#DejaVuSans-76" transform="translate(508.871094 0)"/>
      <use xlink:href="#DejaVuSans-65" transform="translate(568.050781 0)"/>
      <use xlink:href="#DejaVuSans-20" transform="translate(629.574219 0)"/>
      <use xlink:href="#DejaVuSans-52" transform="translate(661.361328 0)"/>
      <use xlink:href="#DejaVuSans-61" transform="translate(728.59375 0)"/>
      <use xlink:href="#DejaVuSans-74" transform="translate(789.873047 0)"/>
      <use xlink:href="#DejaVuSans-65" transform="translate(829.082031 0)"/>
     </g>
    </g>
   </g>
   <g id="line2d_14">
    <path d="M 48.226928 248.287876 
L 48.226928 246.43551 
L 48.226928 214.945288 
L 49.461839 214.945288 
L 49.461839 211.240556 
L 50.69675 211.240556 
L 50.69675 198.273995 
L 51.93166 198.273995 
L 51.93166 190.864531 
L 53.166571 190.864531 
L 53.166571 177.897969 
L 54.401482 177.897969 
L 54.401482 172.340871 
L 55.636392 172.340871 
L 55.636392 164.931407 
L 56.871303 164.931407 
L 56.871303 161.226675 
L 58.106213 161.226675 
L 58.106213 153.817211 
L 60.576035 153.817211 
L 60.576035 151.964845 
L 61.810945 151.964845 
L 61.810945 148.260113 
L 63.045856 148.260113 
L 63.045856 144.555381 
L 64.280767 144.555381 
L 64.280767 142.703016 
L 65.515677 142.703016 
L 65.515677 137.145918 
L 66.750588 137.145918 
L 66.750588 127.884088 
L 67.985499 127.884088 
L 67.985499 116.769892 
L 70.45532 116.769892 
L 70.45532 114.917526 
L 72.925141 114.917526 
L 72.925141 109.360428 
L 75.394963 109.360428 
L 75.394963 103.80333 
L 76.629873 103.80333 
L 76.629873 100.098598 
L 77.864784 100.098598 
L 77.864784 96.393866 
L 81.569516 96.393866 
L 81.569516 94.5415 
L 84.039337 94.5415 
L 84.039337 92.689134 
L 86.509158 92.689134 
L 86.509158 87.132036 
L 88.97898 87.132036 
L 88.97898 79.722573 
L 97.623354 79.722573 
L 97.623354 76.017841 
L 98.858265 76.017841 
L 98.858265 72.313109 
L 101.328086 72.313109 
L 101.328086 70.460743 
L 103.797907 70.460743 
L 103.797907 66.756011 
L 105.032818 66.756011 
L 105.032818 64.903645 
L 107.502639 64.903645 
L 107.502639 63.051279 
L 108.73755 63.051279 
L 108.73755 61.198913 
L 112.442282 61.198913 
L 112.442282 59.346547 
L 118.616835 59.346547 
L 118.616835 57.494181 
L 119.851746 57.494181 
L 119.851746 55.641815 
L 122.321567 55.641815 
L 122.321567 51.937083 
L 123.556478 51.937083 
L 124.791388 50.084717 
L 124.791388 48.232351 
L 127.26121 48.232351 
L 127.26121 44.527619 
L 130.965942 44.527619 
L 130.965942 42.675253 
L 132.200852 42.675253 
L 132.200852 40.822887 
L 133.435763 40.822887 
L 133.435763 38.970521 
L 138.375405 38.970521 
L 138.375405 37.118155 
L 170.483082 37.118155 
L 170.483082 35.265789 
L 175.422725 35.265789 
L 175.422725 31.561057 
L 193.946384 31.561057 
L 193.946384 29.708692 
L 210.000223 29.708692 
L 210.000223 27.856326 
L 227.288972 27.856326 
L 227.288972 26.00396 
L 270.510844 26.00396 
" clip-path="url(#pf6f8a3e66c)" style="fill: none; stroke: #4477aa; stroke-width: 1.8; stroke-linecap: square"/>
   </g>
   <g id="line2d_15">
    <path d="M 48.226928 248.287876 
L 48.226928 246.43551 
L 48.226928 181.602701 
L 49.461839 181.602701 
L 49.461839 164.931407 
L 50.69675 164.931407 
L 50.69675 159.374309 
L 51.93166 159.374309 
L 51.93166 146.407747 
L 53.166571 146.407747 
L 53.166571 142.703016 
L 54.401482 142.703016 
L 54.401482 135.293552 
L 58.106213 135.293552 
L 58.106213 126.031722 
L 60.576035 126.031722 
L 60.576035 111.212794 
L 61.810945 111.212794 
L 61.810945 109.360428 
L 63.045856 109.360428 
L 63.045856 105.655696 
L 64.280767 105.655696 
L 64.280767 103.80333 
L 66.750588 103.80333 
L 66.750588 98.246232 
L 69.220409 98.246232 
L 69.220409 94.5415 
L 70.45532 94.5415 
L 70.45532 88.984402 
L 71.690231 88.984402 
L 71.690231 81.574939 
L 74.160052 81.574939 
L 74.160052 72.313109 
L 75.394963 72.313109 
L 75.394963 70.460743 
L 81.569516 70.460743 
L 81.569516 68.608377 
L 85.274248 68.608377 
L 85.274248 66.756011 
L 88.97898 66.756011 
L 88.97898 63.051279 
L 90.21389 63.051279 
L 90.21389 59.346547 
L 93.918622 59.346547 
L 93.918622 57.494181 
L 97.623354 57.494181 
L 97.623354 55.641815 
L 102.562997 55.641815 
L 102.562997 53.789449 
L 108.73755 53.789449 
L 108.73755 51.937083 
L 111.207371 51.937083 
L 111.207371 50.084717 
L 112.442282 50.084717 
L 112.442282 48.232351 
L 132.200852 48.232351 
L 132.200852 46.379985 
L 134.670673 46.379985 
L 134.670673 44.527619 
L 138.375405 44.527619 
L 138.375405 42.675253 
L 149.489601 42.675253 
L 149.489601 40.822887 
L 150.724512 40.822887 
L 150.724512 38.970521 
L 151.959422 38.970521 
L 151.959422 37.118155 
L 153.194333 37.118155 
L 153.194333 35.265789 
L 184.067099 35.265789 
L 184.067099 33.413423 
L 185.30201 33.413423 
L 185.30201 31.561057 
L 197.651116 31.561057 
L 197.651116 29.708692 
L 207.530402 29.708692 
L 207.530402 27.856326 
L 210.000223 27.856326 
L 210.000223 26.00396 
L 250.752274 26.00396 
L 253.222095 26.00396 
L 270.510844 26.00396 
" clip-path="url(#pf6f8a3e66c)" style="fill: none; stroke-dasharray: 6.66,2.88; stroke-dashoffset: 0; stroke: #ee6677; stroke-width: 1.8"/>
   </g>
   <g id="line2d_16">
    <path d="M 48.226928 248.287876 
L 48.226928 246.43551 
L 48.226928 131.58882 
L 49.461839 131.58882 
L 49.461839 120.474624 
L 50.69675 120.474624 
L 50.69675 109.360428 
L 51.93166 107.508062 
L 51.93166 94.5415 
L 53.166571 94.5415 
L 53.166571 83.427305 
L 55.636392 83.427305 
L 55.636392 68.608377 
L 56.871303 68.608377 
L 56.871303 64.903645 
L 59.341124 64.903645 
L 59.341124 59.346547 
L 61.810945 59.346547 
L 61.810945 57.494181 
L 63.045856 57.494181 
L 63.045856 53.789449 
L 65.515677 53.789449 
L 65.515677 50.084717 
L 67.985499 50.084717 
L 67.985499 48.232351 
L 70.45532 48.232351 
L 70.45532 44.527619 
L 80.334605 44.527619 
L 80.334605 42.675253 
L 82.804426 42.675253 
L 82.804426 40.822887 
L 91.448801 40.822887 
L 91.448801 38.970521 
L 102.562997 38.970521 
L 102.562997 37.118155 
L 107.502639 37.118155 
L 107.502639 35.265789 
L 123.556478 35.265789 
L 123.556478 33.413423 
L 138.375405 33.413423 
L 138.375405 31.561057 
L 140.845227 31.561057 
L 140.845227 29.708692 
L 156.899065 29.708692 
L 156.899065 27.856326 
L 169.248172 27.856326 
L 169.248172 26.00396 
L 270.510844 26.00396 
" clip-path="url(#pf6f8a3e66c)" style="fill: none; stroke-dasharray: 11.52,2.88,1.8,2.88; stroke-dashoffset: 0; stroke: #228833; stroke-width: 1.8"/>
   </g>
   <g id="line2d_17">
    <path d="M 48.226928 248.287876 
L 48.226928 246.43551 
L 48.226928 94.5415 
L 49.461839 94.5415 
L 49.461839 57.494181 
L 53.166571 57.494181 
L 53.166571 53.789449 
L 54.401482 53.789449 
L 54.401482 51.937083 
L 56.871303 51.937083 
L 56.871303 46.379985 
L 58.106213 46.379985 
L 58.106213 38.970521 
L 65.515677 38.970521 
L 65.515677 37.118155 
L 66.750588 37.118155 
L 66.750588 35.265789 
L 69.220409 35.265789 
L 69.220409 33.413423 
L 76.629873 33.413423 
L 76.629873 31.561057 
L 77.864784 31.561057 
L 77.864784 29.708692 
L 82.804426 29.708692 
L 82.804426 27.856326 
L 88.97898 27.856326 
L 88.97898 26.00396 
L 100.093175 26.00396 
L 102.562997 26.00396 
L 270.510844 26.00396 
" clip-path="url(#pf6f8a3e66c)" style="fill: none; stroke-dasharray: 1.8,2.97; stroke-dashoffset: 0; stroke: #ccbb44; stroke-width: 1.8"/>
   </g>
   <g id="patch_3">
    <path d="M 43.78125 252.733554 
L 43.78125 21.558281 
" style="fill: none; stroke: #000000; stroke-width: 0.8; stroke-linejoin: miter; stroke-linecap: square"/>
   </g>
   <g id="patch_4">
    <path d="M 274.956523 252.733554 
L 274.956523 21.558281 
" style="fill: none; stroke: #000000; stroke-width: 0.8; stroke-linejoin: miter; stroke-linecap: square"/>
   </g>
   <g id="patch_5">
    <path d="M 43.78125 252.733554 
L 274.956523 252.733554 
" style="fill: none; stroke: #000000; stroke-width: 0.8; stroke-linejoin: miter; stroke-linecap: square"/>
   </g>
   <g id="patch_6">
    <path d="M 43.78125 21.558281 
L 274.956523 21.558281 
" style="fill: none; stroke: #000000; stroke-width: 0.8; stroke-linejoin: miter; stroke-linecap: square"/>
   </g>
   <g id="text_15">
    <!-- (a) -->
    <g transform="translate(50.716508 37.74055) scale(0.11 -0.11)">
     <defs>
      <path id="DejaVuSans-Bold-28" d="M 2413 -844 
L 1484 -844 
Q 1006 -72 778 623 
Q 550 1319 550 2003 
Q 550 2688 779 3389 
Q 1009 4091 1484 4856 
L 2413 4856 
Q 2013 4116 1813 3408 
Q 1613 2700 1613 2009 
Q 1613 1319 1811 609 
Q 2009 -100 2413 -844 
z
" transform="scale(0.015625)"/>
      <path id="DejaVuSans-Bold-61" d="M 2106 1575 
Q 1756 1575 1579 1456 
Q 1403 1338 1403 1106 
Q 1403 894 1545 773 
Q 1688 653 1941 653 
Q 2256 653 2472 879 
Q 2688 1106 2688 1447 
L 2688 1575 
L 2106 1575 
z
M 3816 1997 
L 3816 0 
L 2688 0 
L 2688 519 
Q 2463 200 2181 54 
Q 1900 -91 1497 -91 
Q 953 -91 614 226 
Q 275 544 275 1050 
Q 275 1666 698 1953 
Q 1122 2241 2028 2241 
L 2688 2241 
L 2688 2328 
Q 2688 2594 2478 2717 
Q 2269 2841 1825 2841 
Q 1466 2841 1156 2769 
Q 847 2697 581 2553 
L 581 3406 
Q 941 3494 1303 3539 
Q 1666 3584 2028 3584 
Q 2975 3584 3395 3211 
Q 3816 2838 3816 1997 
z
" transform="scale(0.015625)"/>
      <path id="DejaVuSans-Bold-29" d="M 513 -844 
Q 913 -100 1113 609 
Q 1313 1319 1313 2009 
Q 1313 2700 1113 3408 
Q 913 4116 513 4856 
L 1441 4856 
Q 1916 4091 2145 3389 
Q 2375 2688 2375 2003 
Q 2375 1319 2147 623 
Q 1919 -72 1441 -844 
L 513 -844 
z
" transform="scale(0.015625)"/>
     </defs>
     <use xlink:href="#DejaVuSans-Bold-28"/>
     <use xlink:href="#DejaVuSans-Bold-61" transform="translate(45.703125 0)"/>
     <use xlink:href="#DejaVuSans-Bold-29" transform="translate(113.183594 0)"/>
    </g>
   </g>
   <g id="text_16">
    <!-- ROC Curve -->
    <g transform="translate(126.527011 15.558281) scale(0.11 -0.11)">
     <defs>
      <path id="DejaVuSans-Bold-52" d="M 2297 2597 
Q 2675 2597 2839 2737 
Q 3003 2878 3003 3200 
Q 3003 3519 2839 3656 
Q 2675 3794 2297 3794 
L 1791 3794 
L 1791 2597 
L 2297 2597 
z
M 1791 1766 
L 1791 0 
L 588 0 
L 588 4666 
L 2425 4666 
Q 3347 4666 3776 4356 
Q 4206 4047 4206 3378 
Q 4206 2916 3982 2619 
Q 3759 2322 3309 2181 
Q 3556 2125 3751 1926 
Q 3947 1728 4147 1325 
L 4800 0 
L 3519 0 
L 2950 1159 
Q 2778 1509 2601 1637 
Q 2425 1766 2131 1766 
L 1791 1766 
z
" transform="scale(0.015625)"/>
      <path id="DejaVuSans-Bold-4f" d="M 2719 3878 
Q 2169 3878 1866 3472 
Q 1563 3066 1563 2328 
Q 1563 1594 1866 1187 
Q 2169 781 2719 781 
Q 3272 781 3575 1187 
Q 3878 1594 3878 2328 
Q 3878 3066 3575 3472 
Q 3272 3878 2719 3878 
z
M 2719 4750 
Q 3844 4750 4481 4106 
Q 5119 3463 5119 2328 
Q 5119 1197 4481 553 
Q 3844 -91 2719 -91 
Q 1597 -91 958 553 
Q 319 1197 319 2328 
Q 319 3463 958 4106 
Q 1597 4750 2719 4750 
z
" transform="scale(0.015625)"/>
      <path id="DejaVuSans-Bold-43" d="M 4288 256 
Q 3956 84 3597 -3 
Q 3238 -91 2847 -91 
Q 1681 -91 1000 561 
Q 319 1213 319 2328 
Q 319 3447 1000 4098 
Q 1681 4750 2847 4750 
Q 3238 4750 3597 4662 
Q 3956 4575 4288 4403 
L 4288 3438 
Q 3953 3666 3628 3772 
Q 3303 3878 2944 3878 
Q 2300 3878 1931 3465 
Q 1563 3053 1563 2328 
Q 1563 1606 1931 1193 
Q 2300 781 2944 781 
Q 3303 781 3628 887 
Q 3953 994 4288 1222 
L 4288 256 
z
" transform="scale(0.015625)"/>
      <path id="DejaVuSans-Bold-20" transform="scale(0.015625)"/>
      <path id="DejaVuSans-Bold-75" d="M 500 1363 
L 500 3500 
L 1625 3500 
L 1625 3150 
Q 1625 2866 1622 2436 
Q 1619 2006 1619 1863 
Q 1619 1441 1641 1255 
Q 1663 1069 1716 984 
Q 1784 875 1895 815 
Q 2006 756 2150 756 
Q 2500 756 2700 1025 
Q 2900 1294 2900 1772 
L 2900 3500 
L 4019 3500 
L 4019 0 
L 2900 0 
L 2900 506 
Q 2647 200 2364 54 
Q 2081 -91 1741 -91 
Q 1134 -91 817 281 
Q 500 653 500 1363 
z
" transform="scale(0.015625)"/>
      <path id="DejaVuSans-Bold-72" d="M 3138 2547 
Q 2991 2616 2845 2648 
Q 2700 2681 2553 2681 
Q 2122 2681 1889 2404 
Q 1656 2128 1656 1613 
L 1656 0 
L 538 0 
L 538 3500 
L 1656 3500 
L 1656 2925 
Q 1872 3269 2151 3426 
Q 2431 3584 2822 3584 
Q 2878 3584 2943 3579 
Q 3009 3575 3134 3559 
L 3138 2547 
z
" transform="scale(0.015625)"/>
      <path id="DejaVuSans-Bold-76" d="M 97 3500 
L 1216 3500 
L 2088 1081 
L 2956 3500 
L 4078 3500 
L 2700 0 
L 1472 0 
L 97 3500 
z
" transform="scale(0.015625)"/>
      <path id="DejaVuSans-Bold-65" d="M 4031 1759 
L 4031 1441 
L 1416 1441 
Q 1456 1047 1700 850 
Q 1944 653 2381 653 
Q 2734 653 3104 758 
Q 3475 863 3866 1075 
L 3866 213 
Q 3469 63 3072 -14 
Q 2675 -91 2278 -91 
Q 1328 -91 801 392 
Q 275 875 275 1747 
Q 275 2603 792 3093 
Q 1309 3584 2216 3584 
Q 3041 3584 3536 3087 
Q 4031 2591 4031 1759 
z
M 2881 2131 
Q 2881 2450 2695 2645 
Q 2509 2841 2209 2841 
Q 1884 2841 1681 2658 
Q 1478 2475 1428 2131 
L 2881 2131 
z
" transform="scale(0.015625)"/>
     </defs>
     <use xlink:href="#DejaVuSans-Bold-52"/>
     <use xlink:href="#DejaVuSans-Bold-4f" transform="translate(77.001953 0)"/>
     <use xlink:href="#DejaVuSans-Bold-43" transform="translate(162.011719 0)"/>
     <use xlink:href="#DejaVuSans-Bold-20" transform="translate(235.400391 0)"/>
     <use xlink:href="#DejaVuSans-Bold-43" transform="translate(270.214844 0)"/>
     <use xlink:href="#DejaVuSans-Bold-75" transform="translate(343.603516 0)"/>
     <use xlink:href="#DejaVuSans-Bold-72" transform="translate(414.794922 0)"/>
     <use xlink:href="#DejaVuSans-Bold-76" transform="translate(464.111328 0)"/>
     <use xlink:href="#DejaVuSans-Bold-65" transform="translate(529.296875 0)"/>
    </g>
   </g>
   <g id="legend_1">
    <g id="patch_7">
     <path d="M 140.19207 248.983554 
L 269.706523 248.983554 
Q 271.206523 248.983554 271.206523 247.483554 
L 271.206523 204.199179 
Q 271.206523 202.699179 269.706523 202.699179 
L 140.19207 202.699179 
Q 138.69207 202.699179 138.69207 204.199179 
L 138.69207 247.483554 
Q 138.69207 248.983554 140.19207 248.983554 
z
" style="fill: #ffffff; opacity: 0.9; stroke: #cccccc; stroke-linejoin: miter"/>
    </g>
    <g id="line2d_18">
     <path d="M 141.69207 208.773007 
L 149.19207 208.773007 
L 156.69207 208.773007 
" style="fill: none; stroke: #4477aa; stroke-width: 1.8; stroke-linecap: square"/>
    </g>
    <g id="text_17">
     <!-- Baseline  (AUROC=0.866) -->
     <g transform="translate(162.69207 211.398007) scale(0.075 -0.075)">
      <defs>
       <path id="DejaVuSans-42" d="M 1259 2228 
L 1259 519 
L 2272 519 
Q 2781 519 3026 730 
Q 3272 941 3272 1375 
Q 3272 1813 3026 2020 
Q 2781 2228 2272 2228 
L 1259 2228 
z
M 1259 4147 
L 1259 2741 
L 2194 2741 
Q 2656 2741 2882 2914 
Q 3109 3088 3109 3444 
Q 3109 3797 2882 3972 
Q 2656 4147 2194 4147 
L 1259 4147 
z
M 628 4666 
L 2241 4666 
Q 2963 4666 3353 4366 
Q 3744 4066 3744 3513 
Q 3744 3084 3544 2831 
Q 3344 2578 2956 2516 
Q 3422 2416 3680 2098 
Q 3938 1781 3938 1306 
Q 3938 681 3513 340 
Q 3088 0 2303 0 
L 628 0 
L 628 4666 
z
" transform="scale(0.015625)"/>
       <path id="DejaVuSans-6e" d="M 3513 2113 
L 3513 0 
L 2938 0 
L 2938 2094 
Q 2938 2591 2744 2837 
Q 2550 3084 2163 3084 
Q 1697 3084 1428 2787 
Q 1159 2491 1159 1978 
L 1159 0 
L 581 0 
L 581 3500 
L 1159 3500 
L 1159 2956 
Q 1366 3272 1645 3428 
Q 1925 3584 2291 3584 
Q 2894 3584 3203 3211 
Q 3513 2838 3513 2113 
z
" transform="scale(0.015625)"/>
       <path id="DejaVuSans-28" d="M 1984 4856 
Q 1566 4138 1362 3434 
Q 1159 2731 1159 2009 
Q 1159 1288 1364 580 
Q 1569 -128 1984 -844 
L 1484 -844 
Q 1016 -109 783 600 
Q 550 1309 550 2009 
Q 550 2706 781 3412 
Q 1013 4119 1484 4856 
L 1984 4856 
z
" transform="scale(0.015625)"/>
       <path id="DejaVuSans-41" d="M 2188 4044 
L 1331 1722 
L 3047 1722 
L 2188 4044 
z
M 1831 4666 
L 2547 4666 
L 4325 0 
L 3669 0 
L 3244 1197 
L 1141 1197 
L 716 0 
L 50 0 
L 1831 4666 
z
" transform="scale(0.015625)"/>
       <path id="DejaVuSans-55" d="M 556 4666 
L 1191 4666 
L 1191 1831 
Q 1191 1081 1462 751 
Q 1734 422 2344 422 
Q 2950 422 3222 751 
Q 3494 1081 3494 1831 
L 3494 4666 
L 4128 4666 
L 4128 1753 
Q 4128 841 3676 375 
Q 3225 -91 2344 -91 
Q 1459 -91 1007 375 
Q 556 841 556 1753 
L 556 4666 
z
" transform="scale(0.015625)"/>
       <path id="DejaVuSans-4f" d="M 2522 4238 
Q 1834 4238 1429 3725 
Q 1025 3213 1025 2328 
Q 1025 1447 1429 934 
Q 1834 422 2522 422 
Q 3209 422 3611 934 
Q 4013 1447 4013 2328 
Q 4013 3213 3611 3725 
Q 3209 4238 2522 4238 
z
M 2522 4750 
Q 3503 4750 4090 4092 
Q 4678 3434 4678 2328 
Q 4678 1225 4090 567 
Q 3503 -91 2522 -91 
Q 1538 -91 948 565 
Q 359 1222 359 2328 
Q 359 3434 948 4092 
Q 1538 4750 2522 4750 
z
" transform="scale(0.015625)"/>
       <path id="DejaVuSans-43" d="M 4122 4306 
L 4122 3641 
Q 3803 3938 3442 4084 
Q 3081 4231 2675 4231 
Q 1875 4231 1450 3742 
Q 1025 3253 1025 2328 
Q 1025 1406 1450 917 
Q 1875 428 2675 428 
Q 3081 428 3442 575 
Q 3803 722 4122 1019 
L 4122 359 
Q 3791 134 3420 21 
Q 3050 -91 2638 -91 
Q 1578 -91 968 557 
Q 359 1206 359 2328 
Q 359 3453 968 4101 
Q 1578 4750 2638 4750 
Q 3056 4750 3426 4639 
Q 3797 4528 4122 4306 
z
" transform="scale(0.015625)"/>
       <path id="DejaVuSans-3d" d="M 678 2906 
L 4684 2906 
L 4684 2381 
L 678 2381 
L 678 2906 
z
M 678 1631 
L 4684 1631 
L 4684 1100 
L 678 1100 
L 678 1631 
z
" transform="scale(0.015625)"/>
       <path id="DejaVuSans-29" d="M 513 4856 
L 1013 4856 
Q 1481 4119 1714 3412 
Q 1947 2706 1947 2009 
Q 1947 1309 1714 600 
Q 1481 -109 1013 -844 
L 513 -844 
Q 928 -128 1133 580 
Q 1338 1288 1338 2009 
Q 1338 2731 1133 3434 
Q 928 4138 513 4856 
z
" transform="scale(0.015625)"/>
      </defs>
      <use xlink:href="#DejaVuSans-42"/>
      <use xlink:href="#DejaVuSans-61" transform="translate(68.603516 0)"/>
      <use xlink:href="#DejaVuSans-73" transform="translate(129.882812 0)"/>
      <use xlink:href="#DejaVuSans-65" transform="translate(181.982422 0)"/>
      <use xlink:href="#DejaVuSans-6c" transform="translate(243.505859 0)"/>
      <use xlink:href="#DejaVuSans-69" transform="translate(271.289062 0)"/>
      <use xlink:href="#DejaVuSans-6e" transform="translate(299.072266 0)"/>
      <use xlink:href="#DejaVuSans-65" transform="translate(362.451172 0)"/>
      <use xlink:href="#DejaVuSans-20" transform="translate(423.974609 0)"/>
      <use xlink:href="#DejaVuSans-20" transform="translate(455.761719 0)"/>
      <use xlink:href="#DejaVuSans-28" transform="translate(487.548828 0)"/>
      <use xlink:href="#DejaVuSans-41" transform="translate(526.5625 0)"/>
      <use xlink:href="#DejaVuSans-55" transform="translate(594.970703 0)"/>
      <use xlink:href="#DejaVuSans-52" transform="translate(668.164062 0)"/>
      <use xlink:href="#DejaVuSans-4f" transform="translate(737.646484 0)"/>
      <use xlink:href="#DejaVuSans-43" transform="translate(816.357422 0)"/>
      <use xlink:href="#DejaVuSans-3d" transform="translate(886.181641 0)"/>
      <use xlink:href="#DejaVuSans-30" transform="translate(969.970703 0)"/>
      <use xlink:href="#DejaVuSans-2e" transform="translate(1033.59375 0)"/>
      <use xlink:href="#DejaVuSans-38" transform="translate(1065.380859 0)"/>
      <use xlink:href="#DejaVuSans-36" transform="translate(1129.003906 0)"/>
      <use xlink:href="#DejaVuSans-36" transform="translate(1192.626953 0)"/>
      <use xlink:href="#DejaVuSans-29" transform="translate(1256.25 0)"/>
     </g>
    </g>
    <g id="line2d_19">
     <path d="M 141.69207 219.781601 
L 149.19207 219.781601 
L 156.69207 219.781601 
" style="fill: none; stroke-dasharray: 6.66,2.88; stroke-dashoffset: 0; stroke: #ee6677; stroke-width: 1.8"/>
    </g>
    <g id="text_18">
     <!-- Method-A  (AUROC=0.899) -->
     <g transform="translate(162.69207 222.406601) scale(0.075 -0.075)">
      <defs>
       <path id="DejaVuSans-4d" d="M 628 4666 
L 1569 4666 
L 2759 1491 
L 3956 4666 
L 4897 4666 
L 4897 0 
L 4281 0 
L 4281 4097 
L 3078 897 
L 2444 897 
L 1241 4097 
L 1241 0 
L 628 0 
L 628 4666 
z
" transform="scale(0.015625)"/>
       <path id="DejaVuSans-68" d="M 3513 2113 
L 3513 0 
L 2938 0 
L 2938 2094 
Q 2938 2591 2744 2837 
Q 2550 3084 2163 3084 
Q 1697 3084 1428 2787 
Q 1159 2491 1159 1978 
L 1159 0 
L 581 0 
L 581 4863 
L 1159 4863 
L 1159 2956 
Q 1366 3272 1645 3428 
Q 1925 3584 2291 3584 
Q 2894 3584 3203 3211 
Q 3513 2838 3513 2113 
z
" transform="scale(0.015625)"/>
       <path id="DejaVuSans-64" d="M 2906 2969 
L 2906 4863 
L 3481 4863 
L 3481 0 
L 2906 0 
L 2906 525 
Q 2725 213 2448 61 
Q 2172 -91 1784 -91 
Q 1150 -91 751 415 
Q 353 922 353 1747 
Q 353 2572 751 3078 
Q 1150 3584 1784 3584 
Q 2172 3584 2448 3432 
Q 2725 3281 2906 2969 
z
M 947 1747 
Q 947 1113 1208 752 
Q 1469 391 1925 391 
Q 2381 391 2643 752 
Q 2906 1113 2906 1747 
Q 2906 2381 2643 2742 
Q 2381 3103 1925 3103 
Q 1469 3103 1208 2742 
Q 947 2381 947 1747 
z
" transform="scale(0.015625)"/>
       <path id="DejaVuSans-2d" d="M 313 2009 
L 1997 2009 
L 1997 1497 
L 313 1497 
L 313 2009 
z
" transform="scale(0.015625)"/>
       <path id="DejaVuSans-39" d="M 703 97 
L 703 672 
Q 941 559 1184 500 
Q 1428 441 1663 441 
Q 2288 441 2617 861 
Q 2947 1281 2994 2138 
Q 2813 1869 2534 1725 
Q 2256 1581 1919 1581 
Q 1219 1581 811 2004 
Q 403 2428 403 3163 
Q 403 3881 828 4315 
Q 1253 4750 1959 4750 
Q 2769 4750 3195 4129 
Q 3622 3509 3622 2328 
Q 3622 1225 3098 567 
Q 2575 -91 1691 -91 
Q 1453 -91 1209 -44 
Q 966 3 703 97 
z
M 1959 2075 
Q 2384 2075 2632 2365 
Q 2881 2656 2881 3163 
Q 2881 3666 2632 3958 
Q 2384 4250 1959 4250 
Q 1534 4250 1286 3958 
Q 1038 3666 1038 3163 
Q 1038 2656 1286 2365 
Q 1534 2075 1959 2075 
z
" transform="scale(0.015625)"/>
      </defs>
      <use xlink:href="#DejaVuSans-4d"/>
      <use xlink:href="#DejaVuSans-65" transform="translate(86.279297 0)"/>
      <use xlink:href="#DejaVuSans-74" transform="translate(147.802734 0)"/>
      <use xlink:href="#DejaVuSans-68" transform="translate(187.011719 0)"/>
      <use xlink:href="#DejaVuSans-6f" transform="translate(250.390625 0)"/>
      <use xlink:href="#DejaVuSans-64" transform="translate(311.572266 0)"/>
      <use xlink:href="#DejaVuSans-2d" transform="translate(375.048828 0)"/>
      <use xlink:href="#DejaVuSans-41" transform="translate(408.882812 0)"/>
      <use xlink:href="#DejaVuSans-20" transform="translate(477.291016 0)"/>
      <use xlink:href="#DejaVuSans-20" transform="translate(509.078125 0)"/>
      <use xlink:href="#DejaVuSans-28" transform="translate(540.865234 0)"/>
      <use xlink:href="#DejaVuSans-41" transform="translate(579.878906 0)"/>
      <use xlink:href="#DejaVuSans-55" transform="translate(648.287109 0)"/>
      <use xlink:href="#DejaVuSans-52" transform="translate(721.480469 0)"/>
      <use xlink:href="#DejaVuSans-4f" transform="translate(790.962891 0)"/>
      <use xlink:href="#DejaVuSans-43" transform="translate(869.673828 0)"/>
      <use xlink:href="#DejaVuSans-3d" transform="translate(939.498047 0)"/>
      <use xlink:href="#DejaVuSans-30" transform="translate(1023.287109 0)"/>
      <use xlink:href="#DejaVuSans-2e" transform="translate(1086.910156 0)"/>
      <use xlink:href="#DejaVuSans-38" transform="translate(1118.697266 0)"/>
      <use xlink:href="#DejaVuSans-39" transform="translate(1182.320312 0)"/>
      <use xlink:href="#DejaVuSans-39" transform="translate(1245.943359 0)"/>
      <use xlink:href="#DejaVuSans-29" transform="translate(1309.566406 0)"/>
     </g>
    </g>
    <g id="line2d_20">
     <path d="M 141.69207 230.790195 
L 149.19207 230.790195 
L 156.69207 230.790195 
" style="fill: none; stroke-dasharray: 11.52,2.88,1.8,2.88; stroke-dashoffset: 0; stroke: #228833; stroke-width: 1.8"/>
    </g>
    <g id="text_19">
     <!-- Method-B  (AUROC=0.961) -->
     <g transform="translate(162.69207 233.415195) scale(0.075 -0.075)">
      <use xlink:href="#DejaVuSans-4d"/>
      <use xlink:href="#DejaVuSans-65" transform="translate(86.279297 0)"/>
      <use xlink:href="#DejaVuSans-74" transform="translate(147.802734 0)"/>
      <use xlink:href="#DejaVuSans-68" transform="translate(187.011719 0)"/>
      <use xlink:href="#DejaVuSans-6f" transform="translate(250.390625 0)"/>
      <use xlink:href="#DejaVuSans-64" transform="translate(311.572266 0)"/>
      <use xlink:href="#DejaVuSans-2d" transform="translate(375.048828 0)"/>
      <use xlink:href="#DejaVuSans-42" transform="translate(407.507812 0)"/>
      <use xlink:href="#DejaVuSans-20" transform="translate(476.111328 0)"/>
      <use xlink:href="#DejaVuSans-20" transform="translate(507.898438 0)"/>
      <use xlink:href="#DejaVuSans-28" transform="translate(539.685547 0)"/>
      <use xlink:href="#DejaVuSans-41" transform="translate(578.699219 0)"/>
      <use xlink:href="#DejaVuSans-55" transform="translate(647.107422 0)"/>
      <use xlink:href="#DejaVuSans-52" transform="translate(720.300781 0)"/>
      <use xlink:href="#DejaVuSans-4f" transform="translate(789.783203 0)"/>
      <use xlink:href="#DejaVuSans-43" transform="translate(868.494141 0)"/>
      <use xlink:href="#DejaVuSans-3d" transform="translate(938.318359 0)"/>
      <use xlink:href="#DejaVuSans-30" transform="translate(1022.107422 0)"/>
      <use xlink:href="#DejaVuSans-2e" transform="translate(1085.730469 0)"/>
      <use xlink:href="#DejaVuSans-39" transform="translate(1117.517578 0)"/>
      <use xlink:href="#DejaVuSans-36" transform="translate(1181.140625 0)"/>
      <use xlink:href="#DejaVuSans-31" transform="translate(1244.763672 0)"/>
      <use xlink:href="#DejaVuSans-29" transform="translate(1308.386719 0)"/>
     </g>
    </g>
    <g id="line2d_21">
     <path d="M 141.69207 241.798788 
L 149.19207 241.798788 
L 156.69207 241.798788 
" style="fill: none; stroke-dasharray: 1.8,2.97; stroke-dashoffset: 0; stroke: #ccbb44; stroke-width: 1.8"/>
    </g>
    <g id="text_20">
     <!-- OursModel  (AUROC=0.989) -->
     <g transform="translate(162.69207 244.423788) scale(0.075 -0.075)">
      <use xlink:href="#DejaVuSans-4f"/>
      <use xlink:href="#DejaVuSans-75" transform="translate(78.710938 0)"/>
      <use xlink:href="#DejaVuSans-72" transform="translate(142.089844 0)"/>
      <use xlink:href="#DejaVuSans-73" transform="translate(183.203125 0)"/>
      <use xlink:href="#DejaVuSans-4d" transform="translate(235.302734 0)"/>
      <use xlink:href="#DejaVuSans-6f" transform="translate(321.582031 0)"/>
      <use xlink:href="#DejaVuSans-64" transform="translate(382.763672 0)"/>
      <use xlink:href="#DejaVuSans-65" transform="translate(446.240234 0)"/>
      <use xlink:href="#DejaVuSans-6c" transform="translate(507.763672 0)"/>
      <use xlink:href="#DejaVuSans-20" transform="translate(535.546875 0)"/>
      <use xlink:href="#DejaVuSans-20" transform="translate(567.333984 0)"/>
      <use xlink:href="#DejaVuSans-28" transform="translate(599.121094 0)"/>
      <use xlink:href="#DejaVuSans-41" transform="translate(638.134766 0)"/>
      <use xlink:href="#DejaVuSans-55" transform="translate(706.542969 0)"/>
      <use xlink:href="#DejaVuSans-52" transform="translate(779.736328 0)"/>
      <use xlink:href="#DejaVuSans-4f" transform="translate(849.21875 0)"/>
      <use xlink:href="#DejaVuSans-43" transform="translate(927.929688 0)"/>
      <use xlink:href="#DejaVuSans-3d" transform="translate(997.753906 0)"/>
      <use xlink:href="#DejaVuSans-30" transform="translate(1081.542969 0)"/>
      <use xlink:href="#DejaVuSans-2e" transform="translate(1145.166016 0)"/>
      <use xlink:href="#DejaVuSans-39" transform="translate(1176.953125 0)"/>
      <use xlink:href="#DejaVuSans-38" transform="translate(1240.576172 0)"/>
      <use xlink:href="#DejaVuSans-39" transform="translate(1304.199219 0)"/>
      <use xlink:href="#DejaVuSans-29" transform="translate(1367.822266 0)"/>
     </g>
    </g>
   </g>
  </g>
  <g id="axes_2">
   <g id="patch_8">
    <path d="M 360.28125 252.733554 
L 591.456523 252.733554 
L 591.456523 21.558281 
L 360.28125 21.558281 
z
" style="fill: #ffffff"/>
   </g>
   <g id="line2d_22">
    <path d="M 360.28125 159.374309 
L 591.456523 159.374309 
" clip-path="url(#p1a36f23d46)" style="fill: none; stroke-dasharray: 2.96,1.28; stroke-dashoffset: 0; stroke: #808080; stroke-width: 0.8"/>
   </g>
   <g id="matplotlib.axis_3">
    <g id="xtick_7">
     <g id="line2d_23">
      <g>
       <use xlink:href="#m100c60e1ee" x="364.726928" y="252.733554" style="stroke: #000000; stroke-width: 0.8"/>
      </g>
     </g>
     <g id="text_21">
      <!-- 0.0 -->
      <g transform="translate(356.775366 267.331991) scale(0.1 -0.1)">
       <use xlink:href="#DejaVuSans-30"/>
       <use xlink:href="#DejaVuSans-2e" transform="translate(63.623047 0)"/>
       <use xlink:href="#DejaVuSans-30" transform="translate(95.410156 0)"/>
      </g>
     </g>
    </g>
    <g id="xtick_8">
     <g id="line2d_24">
      <g>
       <use xlink:href="#m100c60e1ee" x="409.183712" y="252.733554" style="stroke: #000000; stroke-width: 0.8"/>
      </g>
     </g>
     <g id="text_22">
      <!-- 0.2 -->
      <g transform="translate(401.232149 267.331991) scale(0.1 -0.1)">
       <use xlink:href="#DejaVuSans-30"/>
       <use xlink:href="#DejaVuSans-2e" transform="translate(63.623047 0)"/>
       <use xlink:href="#DejaVuSans-32" transform="translate(95.410156 0)"/>
      </g>
     </g>
    </g>
    <g id="xtick_9">
     <g id="line2d_25">
      <g>
       <use xlink:href="#m100c60e1ee" x="453.640495" y="252.733554" style="stroke: #000000; stroke-width: 0.8"/>
      </g>
     </g>
     <g id="text_23">
      <!-- 0.4 -->
      <g transform="translate(445.688932 267.331991) scale(0.1 -0.1)">
       <use xlink:href="#DejaVuSans-30"/>
       <use xlink:href="#DejaVuSans-2e" transform="translate(63.623047 0)"/>
       <use xlink:href="#DejaVuSans-34" transform="translate(95.410156 0)"/>
      </g>
     </g>
    </g>
    <g id="xtick_10">
     <g id="line2d_26">
      <g>
       <use xlink:href="#m100c60e1ee" x="498.097278" y="252.733554" style="stroke: #000000; stroke-width: 0.8"/>
      </g>
     </g>
     <g id="text_24">
      <!-- 0.6 -->
      <g transform="translate(490.145715 267.331991) scale(0.1 -0.1)">
       <use xlink:href="#DejaVuSans-30"/>
       <use xlink:href="#DejaVuSans-2e" transform="translate(63.623047 0)"/>
       <use xlink:href="#DejaVuSans-36" transform="translate(95.410156 0)"/>
      </g>
     </g>
    </g>
    <g id="xtick_11">
     <g id="line2d_27">
      <g>
       <use xlink:href="#m100c60e1ee" x="542.554061" y="252.733554" style="stroke: #000000; stroke-width: 0.8"/>
      </g>
     </g>
     <g id="text_25">
      <!-- 0.8 -->
      <g transform="translate(534.602499 267.331991) scale(0.1 -0.1)">
       <use xlink:href="#DejaVuSans-30"/>
       <use xlink:href="#DejaVuSans-2e" transform="translate(63.623047 0)"/>
       <use xlink:href="#DejaVuSans-38" transform="translate(95.410156 0)"/>
      </g>
     </g>
    </g>
    <g id="xtick_12">
     <g id="line2d_28">
      <g>
       <use xlink:href="#m100c60e1ee" x="587.010844" y="252.733554" style="stroke: #000000; stroke-width: 0.8"/>
      </g>
     </g>
     <g id="text_26">
      <!-- 1.0 -->
      <g transform="translate(579.059282 267.331991) scale(0.1 -0.1)">
       <use xlink:href="#DejaVuSans-31"/>
       <use xlink:href="#DejaVuSans-2e" transform="translate(63.623047 0)"/>
       <use xlink:href="#DejaVuSans-30" transform="translate(95.410156 0)"/>
      </g>
     </g>
    </g>
    <g id="text_27">
     <!-- Recall -->
     <g transform="translate(460.951699 281.010116) scale(0.1 -0.1)">
      <defs>
       <path id="DejaVuSans-63" d="M 3122 3366 
L 3122 2828 
Q 2878 2963 2633 3030 
Q 2388 3097 2138 3097 
Q 1578 3097 1268 2742 
Q 959 2388 959 1747 
Q 959 1106 1268 751 
Q 1578 397 2138 397 
Q 2388 397 2633 464 
Q 2878 531 3122 666 
L 3122 134 
Q 2881 22 2623 -34 
Q 2366 -91 2075 -91 
Q 1284 -91 818 406 
Q 353 903 353 1747 
Q 353 2603 823 3093 
Q 1294 3584 2113 3584 
Q 2378 3584 2631 3529 
Q 2884 3475 3122 3366 
z
" transform="scale(0.015625)"/>
      </defs>
      <use xlink:href="#DejaVuSans-52"/>
      <use xlink:href="#DejaVuSans-65" transform="translate(64.982422 0)"/>
      <use xlink:href="#DejaVuSans-63" transform="translate(126.505859 0)"/>
      <use xlink:href="#DejaVuSans-61" transform="translate(181.486328 0)"/>
      <use xlink:href="#DejaVuSans-6c" transform="translate(242.765625 0)"/>
      <use xlink:href="#DejaVuSans-6c" transform="translate(270.548828 0)"/>
     </g>
    </g>
   </g>
   <g id="matplotlib.axis_4">
    <g id="ytick_7">
     <g id="line2d_29">
      <g>
       <use xlink:href="#m6cf90e733d" x="360.28125" y="248.287876" style="stroke: #000000; stroke-width: 0.8"/>
      </g>
     </g>
     <g id="text_28">
      <!-- 0.0 -->
      <g transform="translate(337.378125 252.087094) scale(0.1 -0.1)">
       <use xlink:href="#DejaVuSans-30"/>
       <use xlink:href="#DejaVuSans-2e" transform="translate(63.623047 0)"/>
       <use xlink:href="#DejaVuSans-30" transform="translate(95.410156 0)"/>
      </g>
     </g>
    </g>
    <g id="ytick_8">
     <g id="line2d_30">
      <g>
       <use xlink:href="#m6cf90e733d" x="360.28125" y="203.831092" style="stroke: #000000; stroke-width: 0.8"/>
      </g>
     </g>
     <g id="text_29">
      <!-- 0.2 -->
      <g transform="translate(337.378125 207.630311) scale(0.1 -0.1)">
       <use xlink:href="#DejaVuSans-30"/>
       <use xlink:href="#DejaVuSans-2e" transform="translate(63.623047 0)"/>
       <use xlink:href="#DejaVuSans-32" transform="translate(95.410156 0)"/>
      </g>
     </g>
    </g>
    <g id="ytick_9">
     <g id="line2d_31">
      <g>
       <use xlink:href="#m6cf90e733d" x="360.28125" y="159.374309" style="stroke: #000000; stroke-width: 0.8"/>
      </g>
     </g>
     <g id="text_30">
      <!-- 0.4 -->
      <g transform="translate(337.378125 163.173528) scale(0.1 -0.1)">
       <use xlink:href="#DejaVuSans-30"/>
       <use xlink:href="#DejaVuSans-2e" transform="translate(63.623047 0)"/>
       <use xlink:href="#DejaVuSans-34" transform="translate(95.410156 0)"/>
      </g>
     </g>
    </g>
    <g id="ytick_10">
     <g id="line2d_32">
      <g>
       <use xlink:href="#m6cf90e733d" x="360.28125" y="114.917526" style="stroke: #000000; stroke-width: 0.8"/>
      </g>
     </g>
     <g id="text_31">
      <!-- 0.6 -->
      <g transform="translate(337.378125 118.716745) scale(0.1 -0.1)">
       <use xlink:href="#DejaVuSans-30"/>
       <use xlink:href="#DejaVuSans-2e" transform="translate(63.623047 0)"/>
       <use xlink:href="#DejaVuSans-36" transform="translate(95.410156 0)"/>
      </g>
     </g>
    </g>
    <g id="ytick_11">
     <g id="line2d_33">
      <g>
       <use xlink:href="#m6cf90e733d" x="360.28125" y="70.460743" style="stroke: #000000; stroke-width: 0.8"/>
      </g>
     </g>
     <g id="text_32">
      <!-- 0.8 -->
      <g transform="translate(337.378125 74.259962) scale(0.1 -0.1)">
       <use xlink:href="#DejaVuSans-30"/>
       <use xlink:href="#DejaVuSans-2e" transform="translate(63.623047 0)"/>
       <use xlink:href="#DejaVuSans-38" transform="translate(95.410156 0)"/>
      </g>
     </g>
    </g>
    <g id="ytick_12">
     <g id="line2d_34">
      <g>
       <use xlink:href="#m6cf90e733d" x="360.28125" y="26.00396" style="stroke: #000000; stroke-width: 0.8"/>
      </g>
     </g>
     <g id="text_33">
      <!-- 1.0 -->
      <g transform="translate(337.378125 29.803178) scale(0.1 -0.1)">
       <use xlink:href="#DejaVuSans-31"/>
       <use xlink:href="#DejaVuSans-2e" transform="translate(63.623047 0)"/>
       <use xlink:href="#DejaVuSans-30" transform="translate(95.410156 0)"/>
      </g>
     </g>
    </g>
    <g id="text_34">
     <!-- Precision -->
     <g transform="translate(331.298438 159.452949) rotate(-90) scale(0.1 -0.1)">
      <use xlink:href="#DejaVuSans-50"/>
      <use xlink:href="#DejaVuSans-72" transform="translate(58.552734 0)"/>
      <use xlink:href="#DejaVuSans-65" transform="translate(97.416016 0)"/>
      <use xlink:href="#DejaVuSans-63" transform="translate(158.939453 0)"/>
      <use xlink:href="#DejaVuSans-69" transform="translate(213.919922 0)"/>
      <use xlink:href="#DejaVuSans-73" transform="translate(241.703125 0)"/>
      <use xlink:href="#DejaVuSans-69" transform="translate(293.802734 0)"/>
      <use xlink:href="#DejaVuSans-6f" transform="translate(321.585938 0)"/>
      <use xlink:href="#DejaVuSans-6e" transform="translate(382.767578 0)"/>
     </g>
    </g>
   </g>
   <g id="line2d_35">
    <path d="M 587.010844 159.374309 
L 587.010844 147.631008 
L 585.158478 148.091717 
L 585.158478 142.480732 
L 583.306112 142.94851 
L 583.306112 137.145918 
L 581.453747 137.618862 
L 581.453747 130.073248 
L 577.749015 131.028012 
L 577.749015 128.836239 
L 575.896649 129.319019 
L 575.896649 112.777895 
L 574.044283 113.244421 
L 574.044283 110.276433 
L 572.191917 110.742027 
L 572.191917 109.977883 
L 570.339551 110.447011 
L 570.339551 109.672625 
L 568.487185 110.145329 
L 568.487185 107.763561 
L 564.782453 108.714254 
L 564.782453 107.072211 
L 562.930087 107.551905 
L 561.077721 107.197486 
L 561.077721 106.347544 
L 557.372989 107.327344 
L 557.372989 105.58709 
L 555.520623 106.081395 
L 555.520623 105.192605 
L 553.668257 105.690646 
L 553.668257 101.060866 
L 551.815891 101.551434 
L 551.815891 98.616705 
L 549.963525 99.104039 
L 549.963525 98.09604 
L 548.111159 98.586463 
L 548.111159 96.521616 
L 546.258793 97.011322 
L 546.258793 95.953444 
L 542.554061 96.945635 
L 542.554061 94.768049 
L 540.701695 95.266339 
L 540.701695 93.016023 
L 536.996963 94.016203 
L 536.996963 92.856265 
L 533.292231 93.876911 
L 533.292231 85.160163 
L 525.882767 87.132036 
L 525.882767 84.400582 
L 520.32567 85.923972 
L 520.32567 83.050274 
L 518.473304 83.559616 
L 518.473304 80.564557 
L 516.620938 81.065113 
L 516.620938 76.332393 
L 512.916206 77.300248 
L 512.916206 75.640174 
L 509.211474 76.623069 
L 509.211474 74.906421 
L 503.654376 76.418868 
L 503.654376 72.800573 
L 498.097278 74.32655 
L 498.097278 70.460743 
L 496.244912 70.960257 
L 496.244912 66.88376 
L 488.835448 68.853871 
L 485.130716 69.911894 
L 485.130716 67.682194 
L 477.721252 69.875785 
L 475.868886 70.460743 
L 475.868886 68.057673 
L 470.311788 69.834591 
L 470.311788 67.285258 
L 468.459422 67.883538 
L 468.459422 65.230533 
L 464.754691 66.419217 
L 464.754691 63.621238 
L 461.049959 64.815437 
L 461.049959 61.856204 
L 459.197593 62.443946 
L 459.197593 56.144152 
L 451.788129 58.336166 
L 451.788129 54.818541 
L 448.083397 55.926794 
L 448.083397 52.155009 
L 442.526299 53.789449 
L 440.673933 54.38063 
L 440.673933 50.165255 
L 435.116835 51.850927 
L 435.116835 47.173856 
L 429.559737 48.80231 
L 424.002639 50.702172 
L 422.150273 51.407836 
L 422.150273 45.617246 
L 416.593175 47.515306 
L 414.740809 48.232351 
L 414.740809 41.333885 
L 411.036078 42.469435 
L 407.331346 43.786673 
L 403.626614 45.332996 
L 401.774248 46.211588 
L 401.774248 36.588908 
L 398.069516 37.703113 
L 398.069516 26.00396 
L 364.726928 26.00396 
L 364.726928 26.00396 
" clip-path="url(#p1a36f23d46)" style="fill: none; stroke: #4477aa; stroke-width: 1.8; stroke-linecap: square"/>
   </g>
   <g id="line2d_36">
    <path d="M 587.010844 159.374309 
L 587.010844 142.016681 
L 585.158478 142.480732 
L 585.158478 141.627448 
L 583.306112 142.095559 
L 583.306112 138.541005 
L 581.453747 139.01385 
L 581.453747 134.221129 
L 579.601381 134.697857 
L 579.601381 134.195246 
L 577.749015 134.676096 
L 577.749015 120.474624 
L 575.896649 120.949351 
L 575.896649 120.306227 
L 574.044283 120.784919 
L 574.044283 120.134393 
L 572.191917 120.617114 
L 572.191917 119.959017 
L 570.339551 120.445831 
L 570.339551 114.192687 
L 568.487185 114.674593 
L 568.487185 112.447705 
L 566.634819 112.930631 
L 566.634819 111.40117 
L 564.782453 111.886382 
L 564.782453 98.246232 
L 562.930087 98.700586 
L 562.930087 97.753831 
L 561.077721 98.210837 
L 561.077721 96.274359 
L 559.225355 96.73066 
L 559.225355 91.644848 
L 557.372989 92.088367 
L 557.372989 87.749492 
L 555.520623 88.181279 
L 555.520623 84.750423 
L 553.668257 85.17306 
L 553.668257 81.574939 
L 549.963525 82.404356 
L 549.963525 81.157112 
L 546.258793 81.999145 
L 546.258793 78.101752 
L 544.406427 78.511971 
L 544.406427 74.40449 
L 542.554061 74.79799 
L 542.554061 67.446724 
L 540.701695 67.800935 
L 540.701695 66.245013 
L 531.439865 68.057673 
L 531.439865 64.750697 
L 524.030402 66.226763 
L 524.030402 64.476176 
L 518.473304 65.618915 
L 518.473304 63.792225 
L 514.768572 64.563414 
L 514.768572 60.735821 
L 509.211474 61.856204 
L 509.211474 57.758805 
L 507.359108 58.111636 
L 507.359108 55.974825 
L 503.654376 56.66381 
L 503.654376 54.435623 
L 501.80201 54.770113 
L 501.80201 52.466331 
L 492.54018 54.141164 
L 486.983082 55.251843 
L 486.983082 50.034653 
L 477.721252 51.776008 
L 477.721252 42.84365 
L 470.311788 43.930082 
L 470.311788 40.579954 
L 466.607057 41.074056 
L 466.607057 37.501404 
L 457.345227 38.586068 
L 453.640495 39.079484 
L 453.640495 34.895316 
L 448.083397 35.46285 
L 448.083397 30.836219 
L 436.969201 31.561057 
L 431.412103 32.011633 
L 431.412103 26.00396 
L 364.726928 26.00396 
L 364.726928 26.00396 
" clip-path="url(#p1a36f23d46)" style="fill: none; stroke-dasharray: 6.66,2.88; stroke-dashoffset: 0; stroke: #ee6677; stroke-width: 1.8"/>
   </g>
   <g id="line2d_37">
    <path d="M 587.010844 159.374309 
L 587.010844 125.929757 
L 585.158478 126.390244 
L 585.158478 120.50147 
L 583.306112 120.960196 
L 583.306112 112.38372 
L 581.453747 112.833614 
L 581.453747 111.40778 
L 579.601381 111.859652 
L 579.601381 102.610281 
L 577.749015 103.045544 
L 577.749015 91.4618 
L 575.896649 91.865861 
L 575.896649 87.90581 
L 574.044283 88.300089 
L 574.044283 78.571102 
L 572.191917 78.928701 
L 572.191917 70.460743 
L 570.339551 70.780576 
L 570.339551 68.189228 
L 568.487185 68.499414 
L 568.487185 57.262635 
L 564.782453 57.758805 
L 564.782453 54.685755 
L 562.930087 54.918941 
L 562.930087 51.72276 
L 559.225355 52.155009 
L 559.225355 48.80231 
L 555.520623 49.198803 
L 555.520623 47.452408 
L 553.668257 47.642217 
L 553.668257 44.02698 
L 548.111159 44.527619 
L 548.111159 40.683086 
L 544.406427 40.965377 
L 544.406427 38.952537 
L 529.587499 40.042944 
L 529.587499 35.564558 
L 518.473304 36.22391 
L 518.473304 33.75805 
L 505.506742 34.445121 
L 503.654376 31.777568 
L 492.54018 32.265478 
L 492.54018 29.179444 
L 481.425984 29.477146 
L 481.425984 26.00396 
L 364.726928 26.00396 
L 364.726928 26.00396 
" clip-path="url(#p1a36f23d46)" style="fill: none; stroke-dasharray: 11.52,2.88,1.8,2.88; stroke-dashoffset: 0; stroke: #228833; stroke-width: 1.8"/>
   </g>
   <g id="line2d_38">
    <path d="M 587.010844 159.374309 
L 587.010844 73.947549 
L 585.158478 74.262968 
L 585.158478 68.343753 
L 583.306112 68.633752 
L 583.306112 63.573072 
L 581.453747 63.83952 
L 581.453747 62.522031 
L 579.601381 62.784751 
L 579.601381 54.416189 
L 577.749015 54.631434 
L 577.749015 51.652104 
L 575.896649 51.850927 
L 575.896649 50.316263 
L 574.044283 50.507698 
L 574.044283 40.700417 
L 566.634819 41.20286 
L 566.634819 39.417644 
L 561.077721 39.77376 
L 561.077721 36.016749 
L 559.225355 36.107774 
L 559.225355 34.161168 
L 555.520623 34.313639 
L 555.520623 28.141305 
L 518.473304 28.650197 
L 518.473304 26.00396 
L 364.726928 26.00396 
L 364.726928 26.00396 
" clip-path="url(#p1a36f23d46)" style="fill: none; stroke-dasharray: 1.8,2.97; stroke-dashoffset: 0; stroke: #ccbb44; stroke-width: 1.8"/>
   </g>
   <g id="patch_9">
    <path d="M 360.28125 252.733554 
L 360.28125 21.558281 
" style="fill: none; stroke: #000000; stroke-width: 0.8; stroke-linejoin: miter; stroke-linecap: square"/>
   </g>
   <g id="patch_10">
    <path d="M 591.456523 252.733554 
L 591.456523 21.558281 
" style="fill: none; stroke: #000000; stroke-width: 0.8; stroke-linejoin: miter; stroke-linecap: square"/>
   </g>
   <g id="patch_11">
    <path d="M 360.28125 252.733554 
L 591.456523 252.733554 
" style="fill: none; stroke: #000000; stroke-width: 0.8; stroke-linejoin: miter; stroke-linecap: square"/>
   </g>
   <g id="patch_12">
    <path d="M 360.28125 21.558281 
L 591.456523 21.558281 
" style="fill: none; stroke: #000000; stroke-width: 0.8; stroke-linejoin: miter; stroke-linecap: square"/>
   </g>
   <g id="text_35">
    <!-- (b) -->
    <g transform="translate(367.216508 37.74055) scale(0.11 -0.11)">
     <defs>
      <path id="DejaVuSans-Bold-62" d="M 2400 722 
Q 2759 722 2948 984 
Q 3138 1247 3138 1747 
Q 3138 2247 2948 2509 
Q 2759 2772 2400 2772 
Q 2041 2772 1848 2508 
Q 1656 2244 1656 1747 
Q 1656 1250 1848 986 
Q 2041 722 2400 722 
z
M 1656 2988 
Q 1888 3294 2169 3439 
Q 2450 3584 2816 3584 
Q 3463 3584 3878 3070 
Q 4294 2556 4294 1747 
Q 4294 938 3878 423 
Q 3463 -91 2816 -91 
Q 2450 -91 2169 54 
Q 1888 200 1656 506 
L 1656 0 
L 538 0 
L 538 4863 
L 1656 4863 
L 1656 2988 
z
" transform="scale(0.015625)"/>
     </defs>
     <use xlink:href="#DejaVuSans-Bold-28"/>
     <use xlink:href="#DejaVuSans-Bold-62" transform="translate(45.703125 0)"/>
     <use xlink:href="#DejaVuSans-Bold-29" transform="translate(117.285156 0)"/>
    </g>
   </g>
   <g id="text_36">
    <!-- Precision-Recall Curve -->
    <g transform="translate(406.510449 15.558281) scale(0.11 -0.11)">
     <defs>
      <path id="DejaVuSans-Bold-50" d="M 588 4666 
L 2584 4666 
Q 3475 4666 3951 4270 
Q 4428 3875 4428 3144 
Q 4428 2409 3951 2014 
Q 3475 1619 2584 1619 
L 1791 1619 
L 1791 0 
L 588 0 
L 588 4666 
z
M 1791 3794 
L 1791 2491 
L 2456 2491 
Q 2806 2491 2997 2661 
Q 3188 2831 3188 3144 
Q 3188 3456 2997 3625 
Q 2806 3794 2456 3794 
L 1791 3794 
z
" transform="scale(0.015625)"/>
      <path id="DejaVuSans-Bold-63" d="M 3366 3391 
L 3366 2478 
Q 3138 2634 2908 2709 
Q 2678 2784 2431 2784 
Q 1963 2784 1702 2511 
Q 1441 2238 1441 1747 
Q 1441 1256 1702 982 
Q 1963 709 2431 709 
Q 2694 709 2930 787 
Q 3166 866 3366 1019 
L 3366 103 
Q 3103 6 2833 -42 
Q 2563 -91 2291 -91 
Q 1344 -91 809 395 
Q 275 881 275 1747 
Q 275 2613 809 3098 
Q 1344 3584 2291 3584 
Q 2566 3584 2833 3536 
Q 3100 3488 3366 3391 
z
" transform="scale(0.015625)"/>
      <path id="DejaVuSans-Bold-69" d="M 538 3500 
L 1656 3500 
L 1656 0 
L 538 0 
L 538 3500 
z
M 538 4863 
L 1656 4863 
L 1656 3950 
L 538 3950 
L 538 4863 
z
" transform="scale(0.015625)"/>
      <path id="DejaVuSans-Bold-73" d="M 3272 3391 
L 3272 2541 
Q 2913 2691 2578 2766 
Q 2244 2841 1947 2841 
Q 1628 2841 1473 2761 
Q 1319 2681 1319 2516 
Q 1319 2381 1436 2309 
Q 1553 2238 1856 2203 
L 2053 2175 
Q 2913 2066 3209 1816 
Q 3506 1566 3506 1031 
Q 3506 472 3093 190 
Q 2681 -91 1863 -91 
Q 1516 -91 1145 -36 
Q 775 19 384 128 
L 384 978 
Q 719 816 1070 734 
Q 1422 653 1784 653 
Q 2113 653 2278 743 
Q 2444 834 2444 1013 
Q 2444 1163 2330 1236 
Q 2216 1309 1875 1350 
L 1678 1375 
Q 931 1469 631 1722 
Q 331 1975 331 2491 
Q 331 3047 712 3315 
Q 1094 3584 1881 3584 
Q 2191 3584 2531 3537 
Q 2872 3491 3272 3391 
z
" transform="scale(0.015625)"/>
      <path id="DejaVuSans-Bold-6f" d="M 2203 2784 
Q 1831 2784 1636 2517 
Q 1441 2250 1441 1747 
Q 1441 1244 1636 976 
Q 1831 709 2203 709 
Q 2569 709 2762 976 
Q 2956 1244 2956 1747 
Q 2956 2250 2762 2517 
Q 2569 2784 2203 2784 
z
M 2203 3584 
Q 3106 3584 3614 3096 
Q 4122 2609 4122 1747 
Q 4122 884 3614 396 
Q 3106 -91 2203 -91 
Q 1297 -91 786 396 
Q 275 884 275 1747 
Q 275 2609 786 3096 
Q 1297 3584 2203 3584 
z
" transform="scale(0.015625)"/>
      <path id="DejaVuSans-Bold-6e" d="M 4056 2131 
L 4056 0 
L 2931 0 
L 2931 347 
L 2931 1631 
Q 2931 2084 2911 2256 
Q 2891 2428 2841 2509 
Q 2775 2619 2662 2680 
Q 2550 2741 2406 2741 
Q 2056 2741 1856 2470 
Q 1656 2200 1656 1722 
L 1656 0 
L 538 0 
L 538 3500 
L 1656 3500 
L 1656 2988 
Q 1909 3294 2193 3439 
Q 2478 3584 2822 3584 
Q 3428 3584 3742 3212 
Q 4056 2841 4056 2131 
z
" transform="scale(0.015625)"/>
      <path id="DejaVuSans-Bold-2d" d="M 347 2297 
L 2309 2297 
L 2309 1388 
L 347 1388 
L 347 2297 
z
" transform="scale(0.015625)"/>
      <path id="DejaVuSans-Bold-6c" d="M 538 4863 
L 1656 4863 
L 1656 0 
L 538 0 
L 538 4863 
z
" transform="scale(0.015625)"/>
     </defs>
     <use xlink:href="#DejaVuSans-Bold-50"/>
     <use xlink:href="#DejaVuSans-Bold-72" transform="translate(73.291016 0)"/>
     <use xlink:href="#DejaVuSans-Bold-65" transform="translate(122.607422 0)"/>
     <use xlink:href="#DejaVuSans-Bold-63" transform="translate(190.429688 0)"/>
     <use xlink:href="#DejaVuSans-Bold-69" transform="translate(249.707031 0)"/>
     <use xlink:href="#DejaVuSans-Bold-73" transform="translate(283.984375 0)"/>
     <use xlink:href="#DejaVuSans-Bold-69" transform="translate(343.505859 0)"/>
     <use xlink:href="#DejaVuSans-Bold-6f" transform="translate(377.783203 0)"/>
     <use xlink:href="#DejaVuSans-Bold-6e" transform="translate(446.484375 0)"/>
     <use xlink:href="#DejaVuSans-Bold-2d" transform="translate(517.675781 0)"/>
     <use xlink:href="#DejaVuSans-Bold-52" transform="translate(559.179688 0)"/>
     <use xlink:href="#DejaVuSans-Bold-65" transform="translate(636.181641 0)"/>
     <use xlink:href="#DejaVuSans-Bold-63" transform="translate(704.003906 0)"/>
     <use xlink:href="#DejaVuSans-Bold-61" transform="translate(763.28125 0)"/>
     <use xlink:href="#DejaVuSans-Bold-6c" transform="translate(830.761719 0)"/>
     <use xlink:href="#DejaVuSans-Bold-6c" transform="translate(865.039062 0)"/>
     <use xlink:href="#DejaVuSans-Bold-20" transform="translate(899.316406 0)"/>
     <use xlink:href="#DejaVuSans-Bold-43" transform="translate(934.130859 0)"/>
     <use xlink:href="#DejaVuSans-Bold-75" transform="translate(1007.519531 0)"/>
     <use xlink:href="#DejaVuSans-Bold-72" transform="translate(1078.710938 0)"/>
     <use xlink:href="#DejaVuSans-Bold-76" transform="translate(1128.027344 0)"/>
     <use xlink:href="#DejaVuSans-Bold-65" transform="translate(1193.212891 0)"/>
    </g>
   </g>
   <g id="legend_2">
    <g id="patch_13">
     <path d="M 474.01121 82.60125 
L 586.206523 82.60125 
Q 587.706523 82.60125 587.706523 81.10125 
L 587.706523 26.808281 
Q 587.706523 25.308281 586.206523 25.308281 
L 474.01121 25.308281 
Q 472.51121 25.308281 472.51121 26.808281 
L 472.51121 81.10125 
Q 472.51121 82.60125 474.01121 82.60125 
z
" style="fill: #ffffff; opacity: 0.9; stroke: #cccccc; stroke-linejoin: miter"/>
    </g>
    <g id="line2d_39">
     <path d="M 475.51121 31.382109 
L 483.01121 31.382109 
L 490.51121 31.382109 
" style="fill: none; stroke-dasharray: 2.96,1.28; stroke-dashoffset: 0; stroke: #808080; stroke-width: 0.8"/>
    </g>
    <g id="text_37">
     <!-- Prevalence (0.40) -->
     <g transform="translate(496.51121 34.007109) scale(0.075 -0.075)">
      <use xlink:href="#DejaVuSans-50"/>
      <use xlink:href="#DejaVuSans-72" transform="translate(58.552734 0)"/>
      <use xlink:href="#DejaVuSans-65" transform="translate(97.416016 0)"/>
      <use xlink:href="#DejaVuSans-76" transform="translate(158.939453 0)"/>
      <use xlink:href="#DejaVuSans-61" transform="translate(218.119141 0)"/>
      <use xlink:href="#DejaVuSans-6c" transform="translate(279.398438 0)"/>
      <use xlink:href="#DejaVuSans-65" transform="translate(307.181641 0)"/>
      <use xlink:href="#DejaVuSans-6e" transform="translate(368.705078 0)"/>
      <use xlink:href="#DejaVuSans-63" transform="translate(432.083984 0)"/>
      <use xlink:href="#DejaVuSans-65" transform="translate(487.064453 0)"/>
      <use xlink:href="#DejaVuSans-20" transform="translate(548.587891 0)"/>
      <use xlink:href="#DejaVuSans-28" transform="translate(580.375 0)"/>
      <use xlink:href="#DejaVuSans-30" transform="translate(619.388672 0)"/>
      <use xlink:href="#DejaVuSans-2e" transform="translate(683.011719 0)"/>
      <use xlink:href="#DejaVuSans-34" transform="translate(714.798828 0)"/>
      <use xlink:href="#DejaVuSans-30" transform="translate(778.421875 0)"/>
      <use xlink:href="#DejaVuSans-29" transform="translate(842.044922 0)"/>
     </g>
    </g>
    <g id="line2d_40">
     <path d="M 475.51121 42.390703 
L 483.01121 42.390703 
L 490.51121 42.390703 
" style="fill: none; stroke: #4477aa; stroke-width: 1.8; stroke-linecap: square"/>
    </g>
    <g id="text_38">
     <!-- Baseline  (AP=0.811) -->
     <g transform="translate(496.51121 45.015703) scale(0.075 -0.075)">
      <use xlink:href="#DejaVuSans-42"/>
      <use xlink:href="#DejaVuSans-61" transform="translate(68.603516 0)"/>
      <use xlink:href="#DejaVuSans-73" transform="translate(129.882812 0)"/>
      <use xlink:href="#DejaVuSans-65" transform="translate(181.982422 0)"/>
      <use xlink:href="#DejaVuSans-6c" transform="translate(243.505859 0)"/>
      <use xlink:href="#DejaVuSans-69" transform="translate(271.289062 0)"/>
      <use xlink:href="#DejaVuSans-6e" transform="translate(299.072266 0)"/>
      <use xlink:href="#DejaVuSans-65" transform="translate(362.451172 0)"/>
      <use xlink:href="#DejaVuSans-20" transform="translate(423.974609 0)"/>
      <use xlink:href="#DejaVuSans-20" transform="translate(455.761719 0)"/>
      <use xlink:href="#DejaVuSans-28" transform="translate(487.548828 0)"/>
      <use xlink:href="#DejaVuSans-41" transform="translate(526.5625 0)"/>
      <use xlink:href="#DejaVuSans-50" transform="translate(594.970703 0)"/>
      <use xlink:href="#DejaVuSans-3d" transform="translate(655.273438 0)"/>
      <use xlink:href="#DejaVuSans-30" transform="translate(739.0625 0)"/>
      <use xlink:href="#DejaVuSans-2e" transform="translate(802.685547 0)"/>
      <use xlink:href="#DejaVuSans-38" transform="translate(834.472656 0)"/>
      <use xlink:href="#DejaVuSans-31" transform="translate(898.095703 0)"/>
      <use xlink:href="#DejaVuSans-31" transform="translate(961.71875 0)"/>
      <use xlink:href="#DejaVuSans-29" transform="translate(1025.341797 0)"/>
     </g>
    </g>
    <g id="line2d_41">
     <path d="M 475.51121 53.399297 
L 483.01121 53.399297 
L 490.51121 53.399297 
" style="fill: none; stroke-dasharray: 6.66,2.88; stroke-dashoffset: 0; stroke: #ee6677; stroke-width: 1.8"/>
    </g>
    <g id="text_39">
     <!-- Method-A  (AP=0.875) -->
     <g transform="translate(496.51121 56.024297) scale(0.075 -0.075)">
      <defs>
       <path id="DejaVuSans-37" d="M 525 4666 
L 3525 4666 
L 3525 4397 
L 1831 0 
L 1172 0 
L 2766 4134 
L 525 4134 
L 525 4666 
z
" transform="scale(0.015625)"/>
       <path id="DejaVuSans-35" d="M 691 4666 
L 3169 4666 
L 3169 4134 
L 1269 4134 
L 1269 2991 
Q 1406 3038 1543 3061 
Q 1681 3084 1819 3084 
Q 2600 3084 3056 2656 
Q 3513 2228 3513 1497 
Q 3513 744 3044 326 
Q 2575 -91 1722 -91 
Q 1428 -91 1123 -41 
Q 819 9 494 109 
L 494 744 
Q 775 591 1075 516 
Q 1375 441 1709 441 
Q 2250 441 2565 725 
Q 2881 1009 2881 1497 
Q 2881 1984 2565 2268 
Q 2250 2553 1709 2553 
Q 1456 2553 1204 2497 
Q 953 2441 691 2322 
L 691 4666 
z
" transform="scale(0.015625)"/>
      </defs>
      <use xlink:href="#DejaVuSans-4d"/>
      <use xlink:href="#DejaVuSans-65" transform="translate(86.279297 0)"/>
      <use xlink:href="#DejaVuSans-74" transform="translate(147.802734 0)"/>
      <use xlink:href="#DejaVuSans-68" transform="translate(187.011719 0)"/>
      <use xlink:href="#DejaVuSans-6f" transform="translate(250.390625 0)"/>
      <use xlink:href="#DejaVuSans-64" transform="translate(311.572266 0)"/>
      <use xlink:href="#DejaVuSans-2d" transform="translate(375.048828 0)"/>
      <use xlink:href="#DejaVuSans-41" transform="translate(408.882812 0)"/>
      <use xlink:href="#DejaVuSans-20" transform="translate(477.291016 0)"/>
      <use xlink:href="#DejaVuSans-20" transform="translate(509.078125 0)"/>
      <use xlink:href="#DejaVuSans-28" transform="translate(540.865234 0)"/>
      <use xlink:href="#DejaVuSans-41" transform="translate(579.878906 0)"/>
      <use xlink:href="#DejaVuSans-50" transform="translate(648.287109 0)"/>
      <use xlink:href="#DejaVuSans-3d" transform="translate(708.589844 0)"/>
      <use xlink:href="#DejaVuSans-30" transform="translate(792.378906 0)"/>
      <use xlink:href="#DejaVuSans-2e" transform="translate(856.001953 0)"/>
      <use xlink:href="#DejaVuSans-38" transform="translate(887.789062 0)"/>
      <use xlink:href="#DejaVuSans-37" transform="translate(951.412109 0)"/>
      <use xlink:href="#DejaVuSans-35" transform="translate(1015.035156 0)"/>
      <use xlink:href="#DejaVuSans-29" transform="translate(1078.658203 0)"/>
     </g>
    </g>
    <g id="line2d_42">
     <path d="M 475.51121 64.407891 
L 483.01121 64.407891 
L 490.51121 64.407891 
" style="fill: none; stroke-dasharray: 11.52,2.88,1.8,2.88; stroke-dashoffset: 0; stroke: #228833; stroke-width: 1.8"/>
    </g>
    <g id="text_40">
     <!-- Method-B  (AP=0.952) -->
     <g transform="translate(496.51121 67.032891) scale(0.075 -0.075)">
      <use xlink:href="#DejaVuSans-4d"/>
      <use xlink:href="#DejaVuSans-65" transform="translate(86.279297 0)"/>
      <use xlink:href="#DejaVuSans-74" transform="translate(147.802734 0)"/>
      <use xlink:href="#DejaVuSans-68" transform="translate(187.011719 0)"/>
      <use xlink:href="#DejaVuSans-6f" transform="translate(250.390625 0)"/>
      <use xlink:href="#DejaVuSans-64" transform="translate(311.572266 0)"/>
      <use xlink:href="#DejaVuSans-2d" transform="translate(375.048828 0)"/>
      <use xlink:href="#DejaVuSans-42" transform="translate(407.507812 0)"/>
      <use xlink:href="#DejaVuSans-20" transform="translate(476.111328 0)"/>
      <use xlink:href="#DejaVuSans-20" transform="translate(507.898438 0)"/>
      <use xlink:href="#DejaVuSans-28" transform="translate(539.685547 0)"/>
      <use xlink:href="#DejaVuSans-41" transform="translate(578.699219 0)"/>
      <use xlink:href="#DejaVuSans-50" transform="translate(647.107422 0)"/>
      <use xlink:href="#DejaVuSans-3d" transform="translate(707.410156 0)"/>
      <use xlink:href="#DejaVuSans-30" transform="translate(791.199219 0)"/>
      <use xlink:href="#DejaVuSans-2e" transform="translate(854.822266 0)"/>
      <use xlink:href="#DejaVuSans-39" transform="translate(886.609375 0)"/>
      <use xlink:href="#DejaVuSans-35" transform="translate(950.232422 0)"/>
      <use xlink:href="#DejaVuSans-32" transform="translate(1013.855469 0)"/>
      <use xlink:href="#DejaVuSans-29" transform="translate(1077.478516 0)"/>
     </g>
    </g>
    <g id="line2d_43">
     <path d="M 475.51121 75.416484 
L 483.01121 75.416484 
L 490.51121 75.416484 
" style="fill: none; stroke-dasharray: 1.8,2.97; stroke-dashoffset: 0; stroke: #ccbb44; stroke-width: 1.8"/>
    </g>
    <g id="text_41">
     <!-- OursModel  (AP=0.984) -->
     <g transform="translate(496.51121 78.041484) scale(0.075 -0.075)">
      <use xlink:href="#DejaVuSans-4f"/>
      <use xlink:href="#DejaVuSans-75" transform="translate(78.710938 0)"/>
      <use xlink:href="#DejaVuSans-72" transform="translate(142.089844 0)"/>
      <use xlink:href="#DejaVuSans-73" transform="translate(183.203125 0)"/>
      <use xlink:href="#DejaVuSans-4d" transform="translate(235.302734 0)"/>
      <use xlink:href="#DejaVuSans-6f" transform="translate(321.582031 0)"/>
      <use xlink:href="#DejaVuSans-64" transform="translate(382.763672 0)"/>
      <use xlink:href="#DejaVuSans-65" transform="translate(446.240234 0)"/>
      <use xlink:href="#DejaVuSans-6c" transform="translate(507.763672 0)"/>
      <use xlink:href="#DejaVuSans-20" transform="translate(535.546875 0)"/>
      <use xlink:href="#DejaVuSans-20" transform="translate(567.333984 0)"/>
      <use xlink:href="#DejaVuSans-28" transform="translate(599.121094 0)"/>
      <use xlink:href="#DejaVuSans-41" transform="translate(638.134766 0)"/>
      <use xlink:href="#DejaVuSans-50" transform="translate(706.542969 0)"/>
      <use xlink:href="#DejaVuSans-3d" transform="translate(766.845703 0)"/>
      <use xlink:href="#DejaVuSans-30" transform="translate(850.634766 0)"/>
      <use xlink:href="#DejaVuSans-2e" transform="translate(914.257812 0)"/>
      <use xlink:href="#DejaVuSans-39" transform="translate(946.044922 0)"/>
      <use xlink:href="#DejaVuSans-38" transform="translate(1009.667969 0)"/>
      <use xlink:href="#DejaVuSans-34" transform="translate(1073.291016 0)"/>
      <use xlink:href="#DejaVuSans-29" transform="translate(1136.914062 0)"/>
     </g>
    </g>
   </g>
  </g>
 </g>
 <defs>
  <clipPath id="pf6f8a3e66c">
   <rect x="43.78125" y="21.558281" width="231.175273" height="231.175273"/>
  </clipPath>
  <clipPath id="p1a36f23d46">
   <rect x="360.28125" y="21.558281" width="231.175273" height="231.175273"/>
  </clipPath>
 </defs>
</svg>
