<?xml version="1.0" encoding="utf-8" standalone="no"?>
<!DOCTYPE svg PUBLIC "-//W3C//DTD SVG 1.1//EN"
  "http://www.w3.org/Graphics/SVG/1.1/DTD/svg11.dtd">
<svg xmlns:xlink="http://www.w3.org/1999/xlink" width="640.312344pt" height="325.660281pt" viewBox="0 0 640.312344 325.660281" xmlns="http://www.w3.org/2000/svg" version="1.1">
 <metadata>
  <rdf:RDF xmlns:dc="http://purl.org/dc/elements/1.1/" xmlns:cc="http://creativecommons.org/ns#" xmlns:rdf="http://www.w3.org/1999/02/22-rdf-syntax-ns#">
   <cc:Work>
    <dc:type rdf:resource="http://purl.org/dc/dcmitype/StillImage"/>
    <dc:date>2026-05-24T23:13:39.493558</dc:date>
    <dc:format>image/svg+xml</dc:format>
    <dc:creator>
     <cc:Agent>
      <dc:title>Matplotlib v3.10.9, https://matplotlib.org/</dc:title>
     </cc:Agent>
    </dc:creator>
   </cc:Work>
  </rdf:RDF>
 </metadata>
 <defs>
  <style type="text/css">*{stroke-linejoin: round; stroke-linecap: butt}</style>
 </defs>
 <g id="figure_1">
  <g id="patch_1">
   <path d="M 0 325.660281 
L 640.312344 325.660281 
L 640.312344 0 
L 0 0 
z
" style="fill: #ffffff"/>
  </g>
  <g id="axes_1">
   <g id="patch_2">
    <path d="M 42.190938 239.134281 
L 307.355937 239.134281 
L 307.355937 21.558281 
L 42.190938 21.558281 
z
" style="fill: #ffffff"/>
   </g>
   <g id="matplotlib.axis_1">
    <g id="xtick_1">
     <g id="line2d_1">
      <defs>
       <path id="mfe9f2af676" d="M 0 0 
L 0 3.5 
" style="stroke: #000000; stroke-width: 0.8"/>
      </defs>
      <g>
       <use xlink:href="#mfe9f2af676" x="42.190938" y="239.134281" style="stroke: #000000; stroke-width: 0.8"/>
      </g>
     </g>
     <g id="text_1">
      <!-- 0.0 -->
      <g transform="translate(35.034531 252.972875) scale(0.09 -0.09)">
       <defs>
        <path id="DejaVuSans-30" d="M 2034 4250 
Q 1547 4250 1301 3770 
Q 1056 3291 1056 2328 
Q 1056 1369 1301 889 
Q 1547 409 2034 409 
Q 2525 409 2770 889 
Q 3016 1369 3016 2328 
Q 3016 3291 2770 3770 
Q 2525 4250 2034 4250 
z
M 2034 4750 
Q 2819 4750 3233 4129 
Q 3647 3509 3647 2328 
Q 3647 1150 3233 529 
Q 2819 -91 2034 -91 
Q 1250 -91 836 529 
Q 422 1150 422 2328 
Q 422 3509 836 4129 
Q 1250 4750 2034 4750 
z
" transform="scale(0.015625)"/>
        <path id="DejaVuSans-2e" d="M 684 794 
L 1344 794 
L 1344 0 
L 684 0 
L 684 794 
z
" transform="scale(0.015625)"/>
       </defs>
       <use xlink:href="#DejaVuSans-30"/>
       <use xlink:href="#DejaVuSans-2e" transform="translate(63.623047 0)"/>
       <use xlink:href="#DejaVuSans-30" transform="translate(95.410156 0)"/>
      </g>
     </g>
    </g>
    <g id="xtick_2">
     <g id="line2d_2">
      <g>
       <use xlink:href="#mfe9f2af676" x="95.223938" y="239.134281" style="stroke: #000000; stroke-width: 0.8"/>
      </g>
     </g>
     <g id="text_2">
      <!-- 0.2 -->
      <g transform="translate(88.067531 252.972875) scale(0.09 -0.09)">
       <defs>
        <path id="DejaVuSans-32" d="M 1228 531 
L 3431 531 
L 3431 0 
L 469 0 
L 469 531 
Q 828 903 1448 1529 
Q 2069 2156 2228 2338 
Q 2531 2678 2651 2914 
Q 2772 3150 2772 3378 
Q 2772 3750 2511 3984 
Q 2250 4219 1831 4219 
Q 1534 4219 1204 4116 
Q 875 4013 500 3803 
L 500 4441 
Q 881 4594 1212 4672 
Q 1544 4750 1819 4750 
Q 2544 4750 2975 4387 
Q 3406 4025 3406 3419 
Q 3406 3131 3298 2873 
Q 3191 2616 2906 2266 
Q 2828 2175 2409 1742 
Q 1991 1309 1228 531 
z
" transform="scale(0.015625)"/>
       </defs>
       <use xlink:href="#DejaVuSans-30"/>
       <use xlink:href="#DejaVuSans-2e" transform="translate(63.623047 0)"/>
       <use xlink:href="#DejaVuSans-32" transform="translate(95.410156 0)"/>
      </g>
     </g>
    </g>
    <g id="xtick_3">
     <g id="line2d_3">
      <g>
       <use xlink:href="#mfe9f2af676" x="148.256937" y="239.134281" style="stroke: #000000; stroke-width: 0.8"/>
      </g>
     </g>
     <g id="text_3">
      <!-- 0.4 -->
      <g transform="translate(141.100531 252.972875) scale(0.09 -0.09)">
       <defs>
        <path id="DejaVuSans-34" d="M 2419 4116 
L 825 1625 
L 2419 1625 
L 2419 4116 
z
M 2253 4666 
L 3047 4666 
L 3047 1625 
L 3713 1625 
L 3713 1100 
L 3047 1100 
L 3047 0 
L 2419 0 
L 2419 1100 
L 313 1100 
L 313 1709 
L 2253 4666 
z
" transform="scale(0.015625)"/>
       </defs>
       <use xlink:href="#DejaVuSans-30"/>
       <use xlink:href="#DejaVuSans-2e" transform="translate(63.623047 0)"/>
       <use xlink:href="#DejaVuSans-34" transform="translate(95.410156 0)"/>
      </g>
     </g>
    </g>
    <g id="xtick_4">
     <g id="line2d_4">
      <g>
       <use xlink:href="#mfe9f2af676" x="201.289938" y="239.134281" style="stroke: #000000; stroke-width: 0.8"/>
      </g>
     </g>
     <g id="text_4">
      <!-- 0.6 -->
      <g transform="translate(194.133531 252.972875) scale(0.09 -0.09)">
       <defs>
        <path id="DejaVuSans-36" d="M 2113 2584 
Q 1688 2584 1439 2293 
Q 1191 2003 1191 1497 
Q 1191 994 1439 701 
Q 1688 409 2113 409 
Q 2538 409 2786 701 
Q 3034 994 3034 1497 
Q 3034 2003 2786 2293 
Q 2538 2584 2113 2584 
z
M 3366 4563 
L 3366 3988 
Q 3128 4100 2886 4159 
Q 2644 4219 2406 4219 
Q 1781 4219 1451 3797 
Q 1122 3375 1075 2522 
Q 1259 2794 1537 2939 
Q 1816 3084 2150 3084 
Q 2853 3084 3261 2657 
Q 3669 2231 3669 1497 
Q 3669 778 3244 343 
Q 2819 -91 2113 -91 
Q 1303 -91 875 529 
Q 447 1150 447 2328 
Q 447 3434 972 4092 
Q 1497 4750 2381 4750 
Q 2619 4750 2861 4703 
Q 3103 4656 3366 4563 
z
" transform="scale(0.015625)"/>
       </defs>
       <use xlink:href="#DejaVuSans-30"/>
       <use xlink:href="#DejaVuSans-2e" transform="translate(63.623047 0)"/>
       <use xlink:href="#DejaVuSans-36" transform="translate(95.410156 0)"/>
      </g>
     </g>
    </g>
    <g id="xtick_5">
     <g id="line2d_5">
      <g>
       <use xlink:href="#mfe9f2af676" x="254.322937" y="239.134281" style="stroke: #000000; stroke-width: 0.8"/>
      </g>
     </g>
     <g id="text_5">
      <!-- 0.8 -->
      <g transform="translate(247.166531 252.972875) scale(0.09 -0.09)">
       <defs>
        <path id="DejaVuSans-38" d="M 2034 2216 
Q 1584 2216 1326 1975 
Q 1069 1734 1069 1313 
Q 1069 891 1326 650 
Q 1584 409 2034 409 
Q 2484 409 2743 651 
Q 3003 894 3003 1313 
Q 3003 1734 2745 1975 
Q 2488 2216 2034 2216 
z
M 1403 2484 
Q 997 2584 770 2862 
Q 544 3141 544 3541 
Q 544 4100 942 4425 
Q 1341 4750 2034 4750 
Q 2731 4750 3128 4425 
Q 3525 4100 3525 3541 
Q 3525 3141 3298 2862 
Q 3072 2584 2669 2484 
Q 3125 2378 3379 2068 
Q 3634 1759 3634 1313 
Q 3634 634 3220 271 
Q 2806 -91 2034 -91 
Q 1263 -91 848 271 
Q 434 634 434 1313 
Q 434 1759 690 2068 
Q 947 2378 1403 2484 
z
M 1172 3481 
Q 1172 3119 1398 2916 
Q 1625 2713 2034 2713 
Q 2441 2713 2670 2916 
Q 2900 3119 2900 3481 
Q 2900 3844 2670 4047 
Q 2441 4250 2034 4250 
Q 1625 4250 1398 4047 
Q 1172 3844 1172 3481 
z
" transform="scale(0.015625)"/>
       </defs>
       <use xlink:href="#DejaVuSans-30"/>
       <use xlink:href="#DejaVuSans-2e" transform="translate(63.623047 0)"/>
       <use xlink:href="#DejaVuSans-38" transform="translate(95.410156 0)"/>
      </g>
     </g>
    </g>
    <g id="xtick_6">
     <g id="line2d_6">
      <g>
       <use xlink:href="#mfe9f2af676" x="307.355937" y="239.134281" style="stroke: #000000; stroke-width: 0.8"/>
      </g>
     </g>
     <g id="text_6">
      <!-- 1.0 -->
      <g transform="translate(300.199531 252.972875) scale(0.09 -0.09)">
       <defs>
        <path id="DejaVuSans-31" d="M 794 531 
L 1825 531 
L 1825 4091 
L 703 3866 
L 703 4441 
L 1819 4666 
L 2450 4666 
L 2450 531 
L 3481 531 
L 3481 0 
L 794 0 
L 794 531 
z
" transform="scale(0.015625)"/>
       </defs>
       <use xlink:href="#DejaVuSans-31"/>
       <use xlink:href="#DejaVuSans-2e" transform="translate(63.623047 0)"/>
       <use xlink:href="#DejaVuSans-30" transform="translate(95.410156 0)"/>
      </g>
     </g>
    </g>
    <g id="text_7">
     <!-- False Positive Rate -->
     <g transform="translate(128.307031 266.443031) scale(0.1 -0.1)">
      <defs>
       <path id="DejaVuSans-46" d="M 628 4666 
L 3309 4666 
L 3309 4134 
L 1259 4134 
L 1259 2759 
L 3109 2759 
L 3109 2228 
L 1259 2228 
L 1259 0 
L 628 0 
L 628 4666 
z
" transform="scale(0.015625)"/>
       <path id="DejaVuSans-61" d="M 2194 1759 
Q 1497 1759 1228 1600 
Q 959 1441 959 1056 
Q 959 750 1161 570 
Q 1363 391 1709 391 
Q 2188 391 2477 730 
Q 2766 1069 2766 1631 
L 2766 1759 
L 2194 1759 
z
M 3341 1997 
L 3341 0 
L 2766 0 
L 2766 531 
Q 2569 213 2275 61 
Q 1981 -91 1556 -91 
Q 1019 -91 701 211 
Q 384 513 384 1019 
Q 384 1609 779 1909 
Q 1175 2209 1959 2209 
L 2766 2209 
L 2766 2266 
Q 2766 2663 2505 2880 
Q 2244 3097 1772 3097 
Q 1472 3097 1187 3025 
Q 903 2953 641 2809 
L 641 3341 
Q 956 3463 1253 3523 
Q 1550 3584 1831 3584 
Q 2591 3584 2966 3190 
Q 3341 2797 3341 1997 
z
" transform="scale(0.015625)"/>
       <path id="DejaVuSans-6c" d="M 603 4863 
L 1178 4863 
L 1178 0 
L 603 0 
L 603 4863 
z
" transform="scale(0.015625)"/>
       <path id="DejaVuSans-73" d="M 2834 3397 
L 2834 2853 
Q 2591 2978 2328 3040 
Q 2066 3103 1784 3103 
Q 1356 3103 1142 2972 
Q 928 2841 928 2578 
Q 928 2378 1081 2264 
Q 1234 2150 1697 2047 
L 1894 2003 
Q 2506 1872 2764 1633 
Q 3022 1394 3022 966 
Q 3022 478 2636 193 
Q 2250 -91 1575 -91 
Q 1294 -91 989 -36 
Q 684 19 347 128 
L 347 722 
Q 666 556 975 473 
Q 1284 391 1588 391 
Q 1994 391 2212 530 
Q 2431 669 2431 922 
Q 2431 1156 2273 1281 
Q 2116 1406 1581 1522 
L 1381 1569 
Q 847 1681 609 1914 
Q 372 2147 372 2553 
Q 372 3047 722 3315 
Q 1072 3584 1716 3584 
Q 2034 3584 2315 3537 
Q 2597 3491 2834 3397 
z
" transform="scale(0.015625)"/>
       <path id="DejaVuSans-65" d="M 3597 1894 
L 3597 1613 
L 953 1613 
Q 991 1019 1311 708 
Q 1631 397 2203 397 
Q 2534 397 2845 478 
Q 3156 559 3463 722 
L 3463 178 
Q 3153 47 2828 -22 
Q 2503 -91 2169 -91 
Q 1331 -91 842 396 
Q 353 884 353 1716 
Q 353 2575 817 3079 
Q 1281 3584 2069 3584 
Q 2775 3584 3186 3129 
Q 3597 2675 3597 1894 
z
M 3022 2063 
Q 3016 2534 2758 2815 
Q 2500 3097 2075 3097 
Q 1594 3097 1305 2825 
Q 1016 2553 972 2059 
L 3022 2063 
z
" transform="scale(0.015625)"/>
       <path id="DejaVuSans-20" transform="scale(0.015625)"/>
       <path id="DejaVuSans-50" d="M 1259 4147 
L 1259 2394 
L 2053 2394 
Q 2494 2394 2734 2622 
Q 2975 2850 2975 3272 
Q 2975 3691 2734 3919 
Q 2494 4147 2053 4147 
L 1259 4147 
z
M 628 4666 
L 2053 4666 
Q 2838 4666 3239 4311 
Q 3641 3956 3641 3272 
Q 3641 2581 3239 2228 
Q 2838 1875 2053 1875 
L 1259 1875 
L 1259 0 
L 628 0 
L 628 4666 
z
" transform="scale(0.015625)"/>
       <path id="DejaVuSans-6f" d="M 1959 3097 
Q 1497 3097 1228 2736 
Q 959 2375 959 1747 
Q 959 1119 1226 758 
Q 1494 397 1959 397 
Q 2419 397 2687 759 
Q 2956 1122 2956 1747 
Q 2956 2369 2687 2733 
Q 2419 3097 1959 3097 
z
M 1959 3584 
Q 2709 3584 3137 3096 
Q 3566 2609 3566 1747 
Q 3566 888 3137 398 
Q 2709 -91 1959 -91 
Q 1206 -91 779 398 
Q 353 888 353 1747 
Q 353 2609 779 3096 
Q 1206 3584 1959 3584 
z
" transform="scale(0.015625)"/>
       <path id="DejaVuSans-69" d="M 603 3500 
L 1178 3500 
L 1178 0 
L 603 0 
L 603 3500 
z
M 603 4863 
L 1178 4863 
L 1178 4134 
L 603 4134 
L 603 4863 
z
" transform="scale(0.015625)"/>
       <path id="DejaVuSans-74" d="M 1172 4494 
L 1172 3500 
L 2356 3500 
L 2356 3053 
L 1172 3053 
L 1172 1153 
Q 1172 725 1289 603 
Q 1406 481 1766 481 
L 2356 481 
L 2356 0 
L 1766 0 
Q 1100 0 847 248 
Q 594 497 594 1153 
L 594 3053 
L 172 3053 
L 172 3500 
L 594 3500 
L 594 4494 
L 1172 4494 
z
" transform="scale(0.015625)"/>
       <path id="DejaVuSans-76" d="M 191 3500 
L 800 3500 
L 1894 563 
L 2988 3500 
L 3597 3500 
L 2284 0 
L 1503 0 
L 191 3500 
z
" transform="scale(0.015625)"/>
       <path id="DejaVuSans-52" d="M 2841 2188 
Q 3044 2119 3236 1894 
Q 3428 1669 3622 1275 
L 4263 0 
L 3584 0 
L 2988 1197 
Q 2756 1666 2539 1819 
Q 2322 1972 1947 1972 
L 1259 1972 
L 1259 0 
L 628 0 
L 628 4666 
L 2053 4666 
Q 2853 4666 3247 4331 
Q 3641 3997 3641 3322 
Q 3641 2881 3436 2590 
Q 3231 2300 2841 2188 
z
M 1259 4147 
L 1259 2491 
L 2053 2491 
Q 2509 2491 2742 2702 
Q 2975 2913 2975 3322 
Q 2975 3731 2742 3939 
Q 2509 4147 2053 4147 
L 1259 4147 
z
" transform="scale(0.015625)"/>
      </defs>
      <use xlink:href="#DejaVuSans-46"/>
      <use xlink:href="#DejaVuSans-61" transform="translate(48.394531 0)"/>
      <use xlink:href="#DejaVuSans-6c" transform="translate(109.673828 0)"/>
      <use xlink:href="#DejaVuSans-73" transform="translate(137.457031 0)"/>
      <use xlink:href="#DejaVuSans-65" transform="translate(189.556641 0)"/>
      <use xlink:href="#DejaVuSans-20" transform="translate(251.080078 0)"/>
      <use xlink:href="#DejaVuSans-50" transform="translate(282.867188 0)"/>
      <use xlink:href="#DejaVuSans-6f" transform="translate(339.544922 0)"/>
      <use xlink:href="#DejaVuSans-73" transform="translate(400.726562 0)"/>
      <use xlink:href="#DejaVuSans-69" transform="translate(452.826172 0)"/>
      <use xlink:href="#DejaVuSans-74" transform="translate(480.609375 0)"/>
      <use xlink:href="#DejaVuSans-69" transform="translate(519.818359 0)"/>
      <use xlink:href="#DejaVuSans-76" transform="translate(547.601562 0)"/>
      <use xlink:href="#DejaVuSans-65" transform="translate(606.78125 0)"/>
      <use xlink:href="#DejaVuSans-20" transform="translate(668.304688 0)"/>
      <use xlink:href="#DejaVuSans-52" transform="translate(700.091797 0)"/>
      <use xlink:href="#DejaVuSans-61" transform="translate(767.324219 0)"/>
      <use xlink:href="#DejaVuSans-74" transform="translate(828.603516 0)"/>
      <use xlink:href="#DejaVuSans-65" transform="translate(867.8125 0)"/>
     </g>
    </g>
   </g>
   <g id="matplotlib.axis_2">
    <g id="ytick_1">
     <g id="line2d_7">
      <defs>
       <path id="m94b649986d" d="M 0 0 
L -3.5 0 
" style="stroke: #000000; stroke-width: 0.8"/>
      </defs>
      <g>
       <use xlink:href="#m94b649986d" x="42.190938" y="239.134281" style="stroke: #000000; stroke-width: 0.8"/>
      </g>
     </g>
     <g id="text_8">
      <!-- 0.0 -->
      <g transform="translate(20.878125 242.553578) scale(0.09 -0.09)">
       <use xlink:href="#DejaVuSans-30"/>
       <use xlink:href="#DejaVuSans-2e" transform="translate(63.623047 0)"/>
       <use xlink:href="#DejaVuSans-30" transform="translate(95.410156 0)"/>
      </g>
     </g>
    </g>
    <g id="ytick_2">
     <g id="line2d_8">
      <g>
       <use xlink:href="#m94b649986d" x="42.190938" y="196.47232" style="stroke: #000000; stroke-width: 0.8"/>
      </g>
     </g>
     <g id="text_9">
      <!-- 0.2 -->
      <g transform="translate(20.878125 199.891617) scale(0.09 -0.09)">
       <use xlink:href="#DejaVuSans-30"/>
       <use xlink:href="#DejaVuSans-2e" transform="translate(63.623047 0)"/>
       <use xlink:href="#DejaVuSans-32" transform="translate(95.410156 0)"/>
      </g>
     </g>
    </g>
    <g id="ytick_3">
     <g id="line2d_9">
      <g>
       <use xlink:href="#m94b649986d" x="42.190938" y="153.81036" style="stroke: #000000; stroke-width: 0.8"/>
      </g>
     </g>
     <g id="text_10">
      <!-- 0.4 -->
      <g transform="translate(20.878125 157.229657) scale(0.09 -0.09)">
       <use xlink:href="#DejaVuSans-30"/>
       <use xlink:href="#DejaVuSans-2e" transform="translate(63.623047 0)"/>
       <use xlink:href="#DejaVuSans-34" transform="translate(95.410156 0)"/>
      </g>
     </g>
    </g>
    <g id="ytick_4">
     <g id="line2d_10">
      <g>
       <use xlink:href="#m94b649986d" x="42.190938" y="111.148399" style="stroke: #000000; stroke-width: 0.8"/>
      </g>
     </g>
     <g id="text_11">
      <!-- 0.6 -->
      <g transform="translate(20.878125 114.567696) scale(0.09 -0.09)">
       <use xlink:href="#DejaVuSans-30"/>
       <use xlink:href="#DejaVuSans-2e" transform="translate(63.623047 0)"/>
       <use xlink:href="#DejaVuSans-36" transform="translate(95.410156 0)"/>
      </g>
     </g>
    </g>
    <g id="ytick_5">
     <g id="line2d_11">
      <g>
       <use xlink:href="#m94b649986d" x="42.190938" y="68.486438" style="stroke: #000000; stroke-width: 0.8"/>
      </g>
     </g>
     <g id="text_12">
      <!-- 0.8 -->
      <g transform="translate(20.878125 71.905735) scale(0.09 -0.09)">
       <use xlink:href="#DejaVuSans-30"/>
       <use xlink:href="#DejaVuSans-2e" transform="translate(63.623047 0)"/>
       <use xlink:href="#DejaVuSans-38" transform="translate(95.410156 0)"/>
      </g>
     </g>
    </g>
    <g id="ytick_6">
     <g id="line2d_12">
      <g>
       <use xlink:href="#m94b649986d" x="42.190938" y="25.824477" style="stroke: #000000; stroke-width: 0.8"/>
      </g>
     </g>
     <g id="text_13">
      <!-- 1.0 -->
      <g transform="translate(20.878125 29.243774) scale(0.09 -0.09)">
       <use xlink:href="#DejaVuSans-31"/>
       <use xlink:href="#DejaVuSans-2e" transform="translate(63.623047 0)"/>
       <use xlink:href="#DejaVuSans-30" transform="translate(95.410156 0)"/>
      </g>
     </g>
    </g>
    <g id="text_14">
     <!-- True Positive Rate -->
     <g transform="translate(14.798438 174.875969) rotate(-90) scale(0.1 -0.1)">
      <defs>
       <path id="DejaVuSans-54" d="M -19 4666 
L 3928 4666 
L 3928 4134 
L 2272 4134 
L 2272 0 
L 1638 0 
L 1638 4134 
L -19 4134 
L -19 4666 
z
" transform="scale(0.015625)"/>
       <path id="DejaVuSans-72" d="M 2631 2963 
Q 2534 3019 2420 3045 
Q 2306 3072 2169 3072 
Q 1681 3072 1420 2755 
Q 1159 2438 1159 1844 
L 1159 0 
L 581 0 
L 581 3500 
L 1159 3500 
L 1159 2956 
Q 1341 3275 1631 3429 
Q 1922 3584 2338 3584 
Q 2397 3584 2469 3576 
Q 2541 3569 2628 3553 
L 2631 2963 
z
" transform="scale(0.015625)"/>
       <path id="DejaVuSans-75" d="M 544 1381 
L 544 3500 
L 1119 3500 
L 1119 1403 
Q 1119 906 1312 657 
Q 1506 409 1894 409 
Q 2359 409 2629 706 
Q 2900 1003 2900 1516 
L 2900 3500 
L 3475 3500 
L 3475 0 
L 2900 0 
L 2900 538 
Q 2691 219 2414 64 
Q 2138 -91 1772 -91 
Q 1169 -91 856 284 
Q 544 659 544 1381 
z
M 1991 3584 
L 1991 3584 
z
" transform="scale(0.015625)"/>
      </defs>
      <use xlink:href="#DejaVuSans-54"/>
      <use xlink:href="#DejaVuSans-72" transform="translate(46.333984 0)"/>
      <use xlink:href="#DejaVuSans-75" transform="translate(87.447266 0)"/>
      <use xlink:href="#DejaVuSans-65" transform="translate(150.826172 0)"/>
      <use xlink:href="#DejaVuSans-20" transform="translate(212.349609 0)"/>
      <use xlink:href="#DejaVuSans-50" transform="translate(244.136719 0)"/>
      <use xlink:href="#DejaVuSans-6f" transform="translate(300.814453 0)"/>
      <use xlink:href="#DejaVuSans-73" transform="translate(361.996094 0)"/>
      <use xlink:href="#DejaVuSans-69" transform="translate(414.095703 0)"/>
      <use xlink:href="#DejaVuSans-74" transform="translate(441.878906 0)"/>
      <use xlink:href="#DejaVuSans-69" transform="translate(481.087891 0)"/>
      <use xlink:href="#DejaVuSans-76" transform="translate(508.871094 0)"/>
      <use xlink:href="#DejaVuSans-65" transform="translate(568.050781 0)"/>
      <use xlink:href="#DejaVuSans-20" transform="translate(629.574219 0)"/>
      <use xlink:href="#DejaVuSans-52" transform="translate(661.361328 0)"/>
      <use xlink:href="#DejaVuSans-61" transform="translate(728.59375 0)"/>
      <use xlink:href="#DejaVuSans-74" transform="translate(789.873047 0)"/>
      <use xlink:href="#DejaVuSans-65" transform="translate(829.082031 0)"/>
     </g>
    </g>
   </g>
   <g id="line2d_13">
    <path d="M 42.190938 239.134281 
L 42.190938 237.3567 
L 42.190938 207.137811 
L 43.664076 207.137811 
L 43.664076 203.582647 
L 45.137215 203.582647 
L 45.137215 191.139575 
L 46.610354 191.139575 
L 46.610354 184.029249 
L 48.083493 184.029249 
L 48.083493 171.586177 
L 49.556632 171.586177 
L 49.556632 166.253432 
L 51.029771 166.253432 
L 51.029771 159.143105 
L 52.50291 159.143105 
L 52.50291 155.587941 
L 53.976049 155.587941 
L 53.976049 148.477615 
L 56.922326 148.477615 
L 56.922326 146.700033 
L 58.395465 146.700033 
L 58.395465 143.144869 
L 59.868604 143.144869 
L 59.868604 139.589706 
L 61.341743 139.589706 
L 61.341743 137.812124 
L 62.814882 137.812124 
L 62.814882 132.479379 
L 64.288021 132.479379 
L 64.288021 123.591471 
L 65.76116 123.591471 
L 65.76116 112.925981 
L 68.707437 112.925981 
L 68.707437 111.148399 
L 71.653715 111.148399 
L 71.653715 105.815654 
L 74.599993 105.815654 
L 74.599993 100.482909 
L 76.073132 100.482909 
L 76.073132 96.927745 
L 77.546271 96.927745 
L 77.546271 93.372582 
L 81.965688 93.372582 
L 81.965688 91.595 
L 84.911965 91.595 
L 84.911965 89.817419 
L 87.858243 89.817419 
L 87.858243 84.484673 
L 90.804521 84.484673 
L 90.804521 77.374347 
L 101.116493 77.374347 
L 101.116493 73.819183 
L 102.589632 73.819183 
L 102.589632 70.26402 
L 105.53591 70.26402 
L 105.53591 68.486438 
L 108.482187 68.486438 
L 108.482187 64.931275 
L 109.955326 64.931275 
L 109.955326 63.153693 
L 112.901604 63.153693 
L 112.901604 61.376111 
L 114.374743 61.376111 
L 114.374743 59.59853 
L 118.79416 59.59853 
L 118.79416 57.820948 
L 126.159854 57.820948 
L 126.159854 56.043366 
L 127.632993 56.043366 
L 127.632993 54.265785 
L 130.579271 54.265785 
L 130.579271 50.710621 
L 132.05241 50.710621 
L 133.525549 48.933039 
L 133.525549 47.155458 
L 136.471826 47.155458 
L 136.471826 43.600294 
L 140.891243 43.600294 
L 140.891243 41.822713 
L 142.364382 41.822713 
L 142.364382 40.045131 
L 143.837521 40.045131 
L 143.837521 38.267549 
L 149.730076 38.267549 
L 149.730076 36.489968 
L 188.031687 36.489968 
L 188.031687 34.712386 
L 193.924243 34.712386 
L 193.924243 31.157222 
L 216.021326 31.157222 
L 216.021326 29.379641 
L 235.172132 29.379641 
L 235.172132 27.602059 
L 255.796076 27.602059 
L 255.796076 25.824477 
L 307.355937 25.824477 
" clip-path="url(#p02a1c27adb)" style="fill: none; stroke: #4477aa; stroke-opacity: 0.9; stroke-width: 1.8; stroke-linecap: square"/>
   </g>
   <g id="line2d_14">
    <path d="M 42.190938 239.134281 
L 42.190938 237.3567 
L 42.190938 175.14134 
L 43.664076 175.14134 
L 43.664076 159.143105 
L 45.137215 159.143105 
L 45.137215 153.81036 
L 46.610354 153.81036 
L 46.610354 141.367288 
L 48.083493 141.367288 
L 48.083493 137.812124 
L 49.556632 137.812124 
L 49.556632 130.701798 
L 53.976049 130.701798 
L 53.976049 121.813889 
L 56.922326 121.813889 
L 56.922326 107.593235 
L 58.395465 107.593235 
L 58.395465 105.815654 
L 59.868604 105.815654 
L 59.868604 102.26049 
L 61.341743 102.26049 
L 61.341743 100.482909 
L 64.288021 100.482909 
L 64.288021 95.150164 
L 67.234299 95.150164 
L 67.234299 91.595 
L 68.707437 91.595 
L 68.707437 86.262255 
L 70.180576 86.262255 
L 70.180576 79.151928 
L 73.126854 79.151928 
L 73.126854 70.26402 
L 74.599993 70.26402 
L 74.599993 68.486438 
L 81.965688 68.486438 
L 81.965688 66.708856 
L 86.385104 66.708856 
L 86.385104 64.931275 
L 90.804521 64.931275 
L 90.804521 61.376111 
L 92.27766 61.376111 
L 92.27766 57.820948 
L 96.697076 57.820948 
L 96.697076 56.043366 
L 101.116493 56.043366 
L 101.116493 54.265785 
L 107.009049 54.265785 
L 107.009049 52.488203 
L 114.374743 52.488203 
L 114.374743 50.710621 
L 117.321021 50.710621 
L 117.321021 48.933039 
L 118.79416 48.933039 
L 118.79416 47.155458 
L 142.364382 47.155458 
L 142.364382 45.377876 
L 145.31066 45.377876 
L 145.31066 43.600294 
L 149.730076 43.600294 
L 149.730076 41.822713 
L 162.988326 41.822713 
L 162.988326 40.045131 
L 164.461465 40.045131 
L 164.461465 38.267549 
L 165.934604 38.267549 
L 165.934604 36.489968 
L 167.407743 36.489968 
L 167.407743 34.712386 
L 204.236215 34.712386 
L 204.236215 32.934804 
L 205.709354 32.934804 
L 205.709354 31.157222 
L 220.440743 31.157222 
L 220.440743 29.379641 
L 232.225854 29.379641 
L 232.225854 27.602059 
L 235.172132 27.602059 
L 235.172132 25.824477 
L 283.785715 25.824477 
L 286.731993 25.824477 
L 307.355937 25.824477 
" clip-path="url(#p02a1c27adb)" style="fill: none; stroke: #ee6677; stroke-opacity: 0.9; stroke-width: 1.8; stroke-linecap: square"/>
   </g>
   <g id="line2d_15">
    <path d="M 42.190938 239.134281 
L 42.190938 237.3567 
L 42.190938 127.146634 
L 43.664076 127.146634 
L 43.664076 116.481144 
L 45.137215 116.481144 
L 45.137215 105.815654 
L 46.610354 104.038072 
L 46.610354 91.595 
L 48.083493 91.595 
L 48.083493 80.92951 
L 51.029771 80.92951 
L 51.029771 66.708856 
L 52.50291 66.708856 
L 52.50291 63.153693 
L 55.449188 63.153693 
L 55.449188 57.820948 
L 58.395465 57.820948 
L 58.395465 56.043366 
L 59.868604 56.043366 
L 59.868604 52.488203 
L 62.814882 52.488203 
L 62.814882 48.933039 
L 65.76116 48.933039 
L 65.76116 47.155458 
L 68.707437 47.155458 
L 68.707437 43.600294 
L 80.492549 43.600294 
L 80.492549 41.822713 
L 83.438826 41.822713 
L 83.438826 40.045131 
L 93.750799 40.045131 
L 93.750799 38.267549 
L 107.009049 38.267549 
L 107.009049 36.489968 
L 112.901604 36.489968 
L 112.901604 34.712386 
L 132.05241 34.712386 
L 132.05241 32.934804 
L 149.730076 32.934804 
L 149.730076 31.157222 
L 152.676354 31.157222 
L 152.676354 29.379641 
L 171.82716 29.379641 
L 171.82716 27.602059 
L 186.558549 27.602059 
L 186.558549 25.824477 
L 307.355937 25.824477 
" clip-path="url(#p02a1c27adb)" style="fill: none; stroke: #228833; stroke-opacity: 0.9; stroke-width: 1.8; stroke-linecap: square"/>
   </g>
   <g id="line2d_16">
    <path d="M 42.190938 239.134281 
L 42.190938 237.3567 
L 42.190938 91.595 
L 43.664076 91.595 
L 43.664076 56.043366 
L 48.083493 56.043366 
L 48.083493 52.488203 
L 49.556632 52.488203 
L 49.556632 50.710621 
L 52.50291 50.710621 
L 52.50291 45.377876 
L 53.976049 45.377876 
L 53.976049 38.267549 
L 62.814882 38.267549 
L 62.814882 36.489968 
L 64.288021 36.489968 
L 64.288021 34.712386 
L 67.234299 34.712386 
L 67.234299 32.934804 
L 76.073132 32.934804 
L 76.073132 31.157222 
L 77.546271 31.157222 
L 77.546271 29.379641 
L 83.438826 29.379641 
L 83.438826 27.602059 
L 90.804521 27.602059 
L 90.804521 25.824477 
L 104.062771 25.824477 
L 107.009049 25.824477 
L 307.355937 25.824477 
" clip-path="url(#p02a1c27adb)" style="fill: none; stroke: #aa3377; stroke-opacity: 0.9; stroke-width: 1.8; stroke-linecap: square"/>
   </g>
   <g id="line2d_17">
    <path d="M 42.190938 239.134281 
L 307.355937 25.824477 
" clip-path="url(#p02a1c27adb)" style="fill: none; stroke-dasharray: 3.33,1.44; stroke-dashoffset: 0; stroke: #000000; stroke-opacity: 0.5; stroke-width: 0.9"/>
   </g>
   <g id="patch_3">
    <path d="M 42.190938 239.134281 
L 42.190938 21.558281 
" style="fill: none; stroke: #000000; stroke-width: 0.8; stroke-linejoin: miter; stroke-linecap: square"/>
   </g>
   <g id="patch_4">
    <path d="M 42.190938 239.134281 
L 307.355937 239.134281 
" style="fill: none; stroke: #000000; stroke-width: 0.8; stroke-linejoin: miter; stroke-linecap: square"/>
   </g>
   <g id="text_15">
    <!-- ROC Curve -->
    <g transform="translate(141.931562 15.558281) scale(0.11 -0.11)">
     <defs>
      <path id="DejaVuSans-Bold-52" d="M 2297 2597 
Q 2675 2597 2839 2737 
Q 3003 2878 3003 3200 
Q 3003 3519 2839 3656 
Q 2675 3794 2297 3794 
L 1791 3794 
L 1791 2597 
L 2297 2597 
z
M 1791 1766 
L 1791 0 
L 588 0 
L 588 4666 
L 2425 4666 
Q 3347 4666 3776 4356 
Q 4206 4047 4206 3378 
Q 4206 2916 3982 2619 
Q 3759 2322 3309 2181 
Q 3556 2125 3751 1926 
Q 3947 1728 4147 1325 
L 4800 0 
L 3519 0 
L 2950 1159 
Q 2778 1509 2601 1637 
Q 2425 1766 2131 1766 
L 1791 1766 
z
" transform="scale(0.015625)"/>
      <path id="DejaVuSans-Bold-4f" d="M 2719 3878 
Q 2169 3878 1866 3472 
Q 1563 3066 1563 2328 
Q 1563 1594 1866 1187 
Q 2169 781 2719 781 
Q 3272 781 3575 1187 
Q 3878 1594 3878 2328 
Q 3878 3066 3575 3472 
Q 3272 3878 2719 3878 
z
M 2719 4750 
Q 3844 4750 4481 4106 
Q 5119 3463 5119 2328 
Q 5119 1197 4481 553 
Q 3844 -91 2719 -91 
Q 1597 -91 958 553 
Q 319 1197 319 2328 
Q 319 3463 958 4106 
Q 1597 4750 2719 4750 
z
" transform="scale(0.015625)"/>
      <path id="DejaVuSans-Bold-43" d="M 4288 256 
Q 3956 84 3597 -3 
Q 3238 -91 2847 -91 
Q 1681 -91 1000 561 
Q 319 1213 319 2328 
Q 319 3447 1000 4098 
Q 1681 4750 2847 4750 
Q 3238 4750 3597 4662 
Q 3956 4575 4288 4403 
L 4288 3438 
Q 3953 3666 3628 3772 
Q 3303 3878 2944 3878 
Q 2300 3878 1931 3465 
Q 1563 3053 1563 2328 
Q 1563 1606 1931 1193 
Q 2300 781 2944 781 
Q 3303 781 3628 887 
Q 3953 994 4288 1222 
L 4288 256 
z
" transform="scale(0.015625)"/>
      <path id="DejaVuSans-Bold-20" transform="scale(0.015625)"/>
      <path id="DejaVuSans-Bold-75" d="M 500 1363 
L 500 3500 
L 1625 3500 
L 1625 3150 
Q 1625 2866 1622 2436 
Q 1619 2006 1619 1863 
Q 1619 1441 1641 1255 
Q 1663 1069 1716 984 
Q 1784 875 1895 815 
Q 2006 756 2150 756 
Q 2500 756 2700 1025 
Q 2900 1294 2900 1772 
L 2900 3500 
L 4019 3500 
L 4019 0 
L 2900 0 
L 2900 506 
Q 2647 200 2364 54 
Q 2081 -91 1741 -91 
Q 1134 -91 817 281 
Q 500 653 500 1363 
z
" transform="scale(0.015625)"/>
      <path id="DejaVuSans-Bold-72" d="M 3138 2547 
Q 2991 2616 2845 2648 
Q 2700 2681 2553 2681 
Q 2122 2681 1889 2404 
Q 1656 2128 1656 1613 
L 1656 0 
L 538 0 
L 538 3500 
L 1656 3500 
L 1656 2925 
Q 1872 3269 2151 3426 
Q 2431 3584 2822 3584 
Q 2878 3584 2943 3579 
Q 3009 3575 3134 3559 
L 3138 2547 
z
" transform="scale(0.015625)"/>
      <path id="DejaVuSans-Bold-76" d="M 97 3500 
L 1216 3500 
L 2088 1081 
L 2956 3500 
L 4078 3500 
L 2700 0 
L 1472 0 
L 97 3500 
z
" transform="scale(0.015625)"/>
      <path id="DejaVuSans-Bold-65" d="M 4031 1759 
L 4031 1441 
L 1416 1441 
Q 1456 1047 1700 850 
Q 1944 653 2381 653 
Q 2734 653 3104 758 
Q 3475 863 3866 1075 
L 3866 213 
Q 3469 63 3072 -14 
Q 2675 -91 2278 -91 
Q 1328 -91 801 392 
Q 275 875 275 1747 
Q 275 2603 792 3093 
Q 1309 3584 2216 3584 
Q 3041 3584 3536 3087 
Q 4031 2591 4031 1759 
z
M 2881 2131 
Q 2881 2450 2695 2645 
Q 2509 2841 2209 2841 
Q 1884 2841 1681 2658 
Q 1478 2475 1428 2131 
L 2881 2131 
z
" transform="scale(0.015625)"/>
     </defs>
     <use xlink:href="#DejaVuSans-Bold-52"/>
     <use xlink:href="#DejaVuSans-Bold-4f" transform="translate(77.001953 0)"/>
     <use xlink:href="#DejaVuSans-Bold-43" transform="translate(162.011719 0)"/>
     <use xlink:href="#DejaVuSans-Bold-20" transform="translate(235.400391 0)"/>
     <use xlink:href="#DejaVuSans-Bold-43" transform="translate(270.214844 0)"/>
     <use xlink:href="#DejaVuSans-Bold-75" transform="translate(343.603516 0)"/>
     <use xlink:href="#DejaVuSans-Bold-72" transform="translate(414.794922 0)"/>
     <use xlink:href="#DejaVuSans-Bold-76" transform="translate(464.111328 0)"/>
     <use xlink:href="#DejaVuSans-Bold-65" transform="translate(529.296875 0)"/>
    </g>
   </g>
  </g>
  <g id="axes_2">
   <g id="patch_5">
    <path d="M 360.790937 239.134281 
L 625.955938 239.134281 
L 625.955938 21.558281 
L 360.790937 21.558281 
z
" style="fill: #ffffff"/>
   </g>
   <g id="matplotlib.axis_3">
    <g id="xtick_7">
     <g id="line2d_18">
      <g>
       <use xlink:href="#mfe9f2af676" x="360.790937" y="239.134281" style="stroke: #000000; stroke-width: 0.8"/>
      </g>
     </g>
     <g id="text_16">
      <!-- 0.0 -->
      <g transform="translate(353.634531 252.972875) scale(0.09 -0.09)">
       <use xlink:href="#DejaVuSans-30"/>
       <use xlink:href="#DejaVuSans-2e" transform="translate(63.623047 0)"/>
       <use xlink:href="#DejaVuSans-30" transform="translate(95.410156 0)"/>
      </g>
     </g>
    </g>
    <g id="xtick_8">
     <g id="line2d_19">
      <g>
       <use xlink:href="#mfe9f2af676" x="413.823937" y="239.134281" style="stroke: #000000; stroke-width: 0.8"/>
      </g>
     </g>
     <g id="text_17">
      <!-- 0.2 -->
      <g transform="translate(406.667531 252.972875) scale(0.09 -0.09)">
       <use xlink:href="#DejaVuSans-30"/>
       <use xlink:href="#DejaVuSans-2e" transform="translate(63.623047 0)"/>
       <use xlink:href="#DejaVuSans-32" transform="translate(95.410156 0)"/>
      </g>
     </g>
    </g>
    <g id="xtick_9">
     <g id="line2d_20">
      <g>
       <use xlink:href="#mfe9f2af676" x="466.856938" y="239.134281" style="stroke: #000000; stroke-width: 0.8"/>
      </g>
     </g>
     <g id="text_18">
      <!-- 0.4 -->
      <g transform="translate(459.700531 252.972875) scale(0.09 -0.09)">
       <use xlink:href="#DejaVuSans-30"/>
       <use xlink:href="#DejaVuSans-2e" transform="translate(63.623047 0)"/>
       <use xlink:href="#DejaVuSans-34" transform="translate(95.410156 0)"/>
      </g>
     </g>
    </g>
    <g id="xtick_10">
     <g id="line2d_21">
      <g>
       <use xlink:href="#mfe9f2af676" x="519.889938" y="239.134281" style="stroke: #000000; stroke-width: 0.8"/>
      </g>
     </g>
     <g id="text_19">
      <!-- 0.6 -->
      <g transform="translate(512.733531 252.972875) scale(0.09 -0.09)">
       <use xlink:href="#DejaVuSans-30"/>
       <use xlink:href="#DejaVuSans-2e" transform="translate(63.623047 0)"/>
       <use xlink:href="#DejaVuSans-36" transform="translate(95.410156 0)"/>
      </g>
     </g>
    </g>
    <g id="xtick_11">
     <g id="line2d_22">
      <g>
       <use xlink:href="#mfe9f2af676" x="572.922937" y="239.134281" style="stroke: #000000; stroke-width: 0.8"/>
      </g>
     </g>
     <g id="text_20">
      <!-- 0.8 -->
      <g transform="translate(565.766531 252.972875) scale(0.09 -0.09)">
       <use xlink:href="#DejaVuSans-30"/>
       <use xlink:href="#DejaVuSans-2e" transform="translate(63.623047 0)"/>
       <use xlink:href="#DejaVuSans-38" transform="translate(95.410156 0)"/>
      </g>
     </g>
    </g>
    <g id="xtick_12">
     <g id="line2d_23">
      <g>
       <use xlink:href="#mfe9f2af676" x="625.955938" y="239.134281" style="stroke: #000000; stroke-width: 0.8"/>
      </g>
     </g>
     <g id="text_21">
      <!-- 1.0 -->
      <g transform="translate(618.799531 252.972875) scale(0.09 -0.09)">
       <use xlink:href="#DejaVuSans-31"/>
       <use xlink:href="#DejaVuSans-2e" transform="translate(63.623047 0)"/>
       <use xlink:href="#DejaVuSans-30" transform="translate(95.410156 0)"/>
      </g>
     </g>
    </g>
    <g id="text_22">
     <!-- Recall -->
     <g transform="translate(478.45625 266.443031) scale(0.1 -0.1)">
      <defs>
       <path id="DejaVuSans-63" d="M 3122 3366 
L 3122 2828 
Q 2878 2963 2633 3030 
Q 2388 3097 2138 3097 
Q 1578 3097 1268 2742 
Q 959 2388 959 1747 
Q 959 1106 1268 751 
Q 1578 397 2138 397 
Q 2388 397 2633 464 
Q 2878 531 3122 666 
L 3122 134 
Q 2881 22 2623 -34 
Q 2366 -91 2075 -91 
Q 1284 -91 818 406 
Q 353 903 353 1747 
Q 353 2603 823 3093 
Q 1294 3584 2113 3584 
Q 2378 3584 2631 3529 
Q 2884 3475 3122 3366 
z
" transform="scale(0.015625)"/>
      </defs>
      <use xlink:href="#DejaVuSans-52"/>
      <use xlink:href="#DejaVuSans-65" transform="translate(64.982422 0)"/>
      <use xlink:href="#DejaVuSans-63" transform="translate(126.505859 0)"/>
      <use xlink:href="#DejaVuSans-61" transform="translate(181.486328 0)"/>
      <use xlink:href="#DejaVuSans-6c" transform="translate(242.765625 0)"/>
      <use xlink:href="#DejaVuSans-6c" transform="translate(270.548828 0)"/>
     </g>
    </g>
   </g>
   <g id="matplotlib.axis_4">
    <g id="ytick_7">
     <g id="line2d_24">
      <g>
       <use xlink:href="#m94b649986d" x="360.790937" y="239.134281" style="stroke: #000000; stroke-width: 0.8"/>
      </g>
     </g>
     <g id="text_23">
      <!-- 0.0 -->
      <g transform="translate(339.478125 242.553578) scale(0.09 -0.09)">
       <use xlink:href="#DejaVuSans-30"/>
       <use xlink:href="#DejaVuSans-2e" transform="translate(63.623047 0)"/>
       <use xlink:href="#DejaVuSans-30" transform="translate(95.410156 0)"/>
      </g>
     </g>
    </g>
    <g id="ytick_8">
     <g id="line2d_25">
      <g>
       <use xlink:href="#m94b649986d" x="360.790937" y="196.47232" style="stroke: #000000; stroke-width: 0.8"/>
      </g>
     </g>
     <g id="text_24">
      <!-- 0.2 -->
      <g transform="translate(339.478125 199.891617) scale(0.09 -0.09)">
       <use xlink:href="#DejaVuSans-30"/>
       <use xlink:href="#DejaVuSans-2e" transform="translate(63.623047 0)"/>
       <use xlink:href="#DejaVuSans-32" transform="translate(95.410156 0)"/>
      </g>
     </g>
    </g>
    <g id="ytick_9">
     <g id="line2d_26">
      <g>
       <use xlink:href="#m94b649986d" x="360.790937" y="153.81036" style="stroke: #000000; stroke-width: 0.8"/>
      </g>
     </g>
     <g id="text_25">
      <!-- 0.4 -->
      <g transform="translate(339.478125 157.229657) scale(0.09 -0.09)">
       <use xlink:href="#DejaVuSans-30"/>
       <use xlink:href="#DejaVuSans-2e" transform="translate(63.623047 0)"/>
       <use xlink:href="#DejaVuSans-34" transform="translate(95.410156 0)"/>
      </g>
     </g>
    </g>
    <g id="ytick_10">
     <g id="line2d_27">
      <g>
       <use xlink:href="#m94b649986d" x="360.790937" y="111.148399" style="stroke: #000000; stroke-width: 0.8"/>
      </g>
     </g>
     <g id="text_26">
      <!-- 0.6 -->
      <g transform="translate(339.478125 114.567696) scale(0.09 -0.09)">
       <use xlink:href="#DejaVuSans-30"/>
       <use xlink:href="#DejaVuSans-2e" transform="translate(63.623047 0)"/>
       <use xlink:href="#DejaVuSans-36" transform="translate(95.410156 0)"/>
      </g>
     </g>
    </g>
    <g id="ytick_11">
     <g id="line2d_28">
      <g>
       <use xlink:href="#m94b649986d" x="360.790937" y="68.486438" style="stroke: #000000; stroke-width: 0.8"/>
      </g>
     </g>
     <g id="text_27">
      <!-- 0.8 -->
      <g transform="translate(339.478125 71.905735) scale(0.09 -0.09)">
       <use xlink:href="#DejaVuSans-30"/>
       <use xlink:href="#DejaVuSans-2e" transform="translate(63.623047 0)"/>
       <use xlink:href="#DejaVuSans-38" transform="translate(95.410156 0)"/>
      </g>
     </g>
    </g>
    <g id="ytick_12">
     <g id="line2d_29">
      <g>
       <use xlink:href="#m94b649986d" x="360.790937" y="25.824477" style="stroke: #000000; stroke-width: 0.8"/>
      </g>
     </g>
     <g id="text_28">
      <!-- 1.0 -->
      <g transform="translate(339.478125 29.243774) scale(0.09 -0.09)">
       <use xlink:href="#DejaVuSans-31"/>
       <use xlink:href="#DejaVuSans-2e" transform="translate(63.623047 0)"/>
       <use xlink:href="#DejaVuSans-30" transform="translate(95.410156 0)"/>
      </g>
     </g>
    </g>
    <g id="text_29">
     <!-- Precision -->
     <g transform="translate(333.398438 152.653312) rotate(-90) scale(0.1 -0.1)">
      <defs>
       <path id="DejaVuSans-6e" d="M 3513 2113 
L 3513 0 
L 2938 0 
L 2938 2094 
Q 2938 2591 2744 2837 
Q 2550 3084 2163 3084 
Q 1697 3084 1428 2787 
Q 1159 2491 1159 1978 
L 1159 0 
L 581 0 
L 581 3500 
L 1159 3500 
L 1159 2956 
Q 1366 3272 1645 3428 
Q 1925 3584 2291 3584 
Q 2894 3584 3203 3211 
Q 3513 2838 3513 2113 
z
" transform="scale(0.015625)"/>
      </defs>
      <use xlink:href="#DejaVuSans-50"/>
      <use xlink:href="#DejaVuSans-72" transform="translate(58.552734 0)"/>
      <use xlink:href="#DejaVuSans-65" transform="translate(97.416016 0)"/>
      <use xlink:href="#DejaVuSans-63" transform="translate(158.939453 0)"/>
      <use xlink:href="#DejaVuSans-69" transform="translate(213.919922 0)"/>
      <use xlink:href="#DejaVuSans-73" transform="translate(241.703125 0)"/>
      <use xlink:href="#DejaVuSans-69" transform="translate(293.802734 0)"/>
      <use xlink:href="#DejaVuSans-6f" transform="translate(321.585938 0)"/>
      <use xlink:href="#DejaVuSans-6e" transform="translate(382.767578 0)"/>
     </g>
    </g>
   </g>
   <g id="line2d_30">
    <path d="M 625.955938 153.81036 
L 625.955938 142.541162 
L 623.746229 142.983271 
L 623.746229 137.598815 
L 621.536521 138.047708 
L 621.536521 132.479379 
L 619.326812 132.93323 
L 619.326812 125.692249 
L 614.907396 126.608467 
L 614.907396 124.505181 
L 612.697688 124.968471 
L 612.697688 109.095149 
L 610.487979 109.542841 
L 610.487979 106.694678 
L 608.278271 107.141474 
L 608.278271 106.408181 
L 606.068562 106.858369 
L 606.068562 106.115246 
L 603.858854 106.568866 
L 603.858854 104.283256 
L 599.439437 105.195567 
L 599.439437 103.619818 
L 597.229729 104.080145 
L 595.020021 103.740034 
L 595.020021 102.924406 
L 590.600604 103.864649 
L 590.600604 102.194654 
L 588.390896 102.669003 
L 588.390896 101.816095 
L 586.181187 102.29403 
L 586.181187 97.851164 
L 583.971479 98.321927 
L 583.971479 95.50568 
L 581.761771 95.973339 
L 581.761771 95.006035 
L 579.552062 95.476658 
L 579.552062 93.495174 
L 577.342354 93.965109 
L 577.342354 92.94994 
L 572.922937 93.902074 
L 572.922937 91.812402 
L 570.713229 92.290576 
L 570.713229 90.131109 
L 566.293813 91.09091 
L 566.293813 89.977802 
L 561.874396 90.957242 
L 561.874396 82.592409 
L 553.035562 84.484673 
L 553.035562 81.863494 
L 546.406438 83.325381 
L 546.406438 80.567701 
L 544.196729 81.05648 
L 544.196729 78.182338 
L 541.987021 78.662686 
L 541.987021 74.121037 
L 537.567604 75.049817 
L 537.567604 73.456764 
L 533.148187 74.399977 
L 533.148187 72.752634 
L 526.519063 74.20402 
L 526.519063 70.731804 
L 519.889937 72.196174 
L 519.889937 68.486438 
L 517.680229 68.965786 
L 517.680229 65.053867 
L 506.631687 67.445902 
L 504.421979 67.959747 
L 504.421979 65.820066 
L 495.583146 67.925097 
L 493.373438 68.486438 
L 493.373438 66.180386 
L 486.744312 67.885565 
L 486.744312 65.439155 
L 484.534604 66.013281 
L 484.534604 63.467384 
L 480.115187 64.608078 
L 480.115187 61.92306 
L 475.695771 63.069046 
L 475.695771 60.229284 
L 473.486063 60.793298 
L 473.486063 54.747841 
L 464.647229 56.851358 
L 464.647229 53.475748 
L 460.227813 54.539259 
L 460.227813 50.919748 
L 453.598687 52.488203 
L 451.388979 53.055516 
L 451.388979 49.010326 
L 444.759854 50.627943 
L 444.759854 46.139697 
L 438.130729 47.702406 
L 431.501604 49.525567 
L 429.291896 50.202741 
L 429.291896 44.645931 
L 422.662771 46.467362 
L 420.453062 47.155458 
L 420.453062 40.535498 
L 416.033646 41.625204 
L 411.614229 42.889262 
L 407.194813 44.373156 
L 404.985104 45.216278 
L 404.985104 35.982087 
L 400.565687 37.051309 
L 400.565687 25.824477 
L 360.790937 25.824477 
L 360.790937 25.824477 
" clip-path="url(#p78a21aa803)" style="fill: none; stroke: #4477aa; stroke-opacity: 0.9; stroke-width: 1.8; stroke-linecap: square"/>
   </g>
   <g id="line2d_31">
    <path d="M 625.955938 153.81036 
L 625.955938 137.153498 
L 623.746229 137.598815 
L 623.746229 136.77998 
L 621.536521 137.229193 
L 621.536521 133.818144 
L 619.326812 134.271899 
L 619.326812 129.672671 
L 617.117104 130.130152 
L 617.117104 129.647833 
L 614.907396 130.10927 
L 614.907396 116.481144 
L 612.697688 116.936705 
L 612.697688 116.319546 
L 610.487979 116.778911 
L 610.487979 116.154649 
L 608.278271 116.617881 
L 608.278271 115.986353 
L 606.068562 116.453513 
L 606.068562 110.452823 
L 603.858854 110.915273 
L 603.858854 108.77829 
L 601.649146 109.241719 
L 601.649146 107.774007 
L 599.439437 108.239629 
L 599.439437 95.150164 
L 597.229729 95.586174 
L 597.229729 94.677642 
L 595.020021 95.116197 
L 595.020021 93.257899 
L 592.810313 93.695779 
L 592.810313 88.815292 
L 590.600604 89.240906 
L 590.600604 85.077201 
L 588.390896 85.491555 
L 588.390896 82.199211 
L 586.181187 82.604785 
L 586.181187 79.151928 
L 581.761771 79.94786 
L 581.761771 78.75097 
L 577.342354 79.559008 
L 577.342354 75.818963 
L 575.132646 76.21262 
L 575.132646 72.270967 
L 572.922937 72.648581 
L 572.922937 65.594102 
L 570.713229 65.934013 
L 570.713229 64.440907 
L 559.664688 66.180386 
L 559.664688 63.00692 
L 550.825854 64.423394 
L 550.825854 62.743482 
L 544.196729 63.840086 
L 544.196729 62.087144 
L 539.777312 62.827198 
L 539.777312 59.154134 
L 533.148187 60.229284 
L 533.148187 56.297306 
L 530.938479 56.635893 
L 530.938479 54.58535 
L 526.519063 55.246519 
L 526.519063 53.108289 
L 524.309354 53.429275 
L 524.309354 51.218502 
L 513.260812 52.825718 
L 506.631687 53.891557 
L 506.631687 48.884997 
L 495.583146 50.556049 
L 495.583146 41.984311 
L 486.744312 43.026881 
L 486.744312 39.812005 
L 482.324896 40.286159 
L 482.324896 36.857743 
L 471.276354 37.898617 
L 466.856938 38.372113 
L 466.856938 34.356869 
L 460.227813 34.90149 
L 460.227813 30.461647 
L 444.759854 31.293959 
L 440.340438 31.589607 
L 440.340438 25.824477 
L 360.790937 25.824477 
L 360.790937 25.824477 
" clip-path="url(#p78a21aa803)" style="fill: none; stroke: #ee6677; stroke-opacity: 0.9; stroke-width: 1.8; stroke-linecap: square"/>
   </g>
   <g id="line2d_32">
    <path d="M 625.955938 153.81036 
L 625.955938 121.716041 
L 623.746229 122.157937 
L 623.746229 116.506906 
L 621.536521 116.947112 
L 621.536521 108.716888 
L 619.326812 109.148619 
L 619.326812 107.780349 
L 617.117104 108.213978 
L 617.117104 99.338026 
L 614.907396 99.755716 
L 614.907396 88.639634 
L 612.697688 89.027382 
L 612.697688 85.227208 
L 610.487979 85.605569 
L 610.487979 76.269363 
L 608.278271 76.612526 
L 608.278271 68.486438 
L 606.068562 68.793359 
L 606.068562 66.30663 
L 603.858854 66.604293 
L 603.858854 55.821169 
L 599.439437 56.297306 
L 599.439437 53.348323 
L 597.229729 53.572094 
L 597.229729 50.504951 
L 592.810313 50.919748 
L 592.810313 47.702406 
L 588.390896 48.082892 
L 588.390896 46.407002 
L 586.181187 46.589149 
L 586.181187 43.119867 
L 579.552062 43.600294 
L 579.552062 39.910974 
L 575.132646 40.181868 
L 575.132646 38.250291 
L 557.454979 39.296675 
L 557.454979 34.999093 
L 544.196729 35.631825 
L 544.196729 33.265517 
L 528.728771 33.92485 
L 526.519063 31.364992 
L 513.260812 31.833204 
L 513.260812 28.87176 
L 500.002563 29.157443 
L 500.002563 25.824477 
L 360.790937 25.824477 
L 360.790937 25.824477 
" clip-path="url(#p78a21aa803)" style="fill: none; stroke: #228833; stroke-opacity: 0.9; stroke-width: 1.8; stroke-linecap: square"/>
   </g>
   <g id="line2d_33">
    <path d="M 625.955938 153.81036 
L 625.955938 71.832474 
L 623.746229 72.135158 
L 623.746229 66.454916 
L 621.536521 66.733207 
L 621.536521 61.876839 
L 619.326812 62.132529 
L 619.326812 60.868231 
L 617.117104 61.120344 
L 617.117104 53.08964 
L 614.907396 53.296195 
L 614.907396 50.437147 
L 612.697688 50.627943 
L 612.697688 49.155237 
L 610.487979 49.338944 
L 610.487979 39.927605 
L 601.649146 40.409763 
L 601.649146 38.696621 
L 595.020021 39.038359 
L 595.020021 35.433027 
L 592.810313 35.520378 
L 592.810313 33.65236 
L 588.390896 33.798676 
L 588.390896 27.875533 
L 544.196729 28.36388 
L 544.196729 25.824477 
L 360.790937 25.824477 
L 360.790937 25.824477 
" clip-path="url(#p78a21aa803)" style="fill: none; stroke: #aa3377; stroke-opacity: 0.9; stroke-width: 1.8; stroke-linecap: square"/>
   </g>
   <g id="line2d_34">
    <path d="M 360.790937 153.81036 
L 625.955938 153.81036 
" clip-path="url(#p78a21aa803)" style="fill: none; stroke-dasharray: 3.33,1.44; stroke-dashoffset: 0; stroke: #000000; stroke-opacity: 0.5; stroke-width: 0.9"/>
   </g>
   <g id="patch_6">
    <path d="M 360.790937 239.134281 
L 360.790937 21.558281 
" style="fill: none; stroke: #000000; stroke-width: 0.8; stroke-linejoin: miter; stroke-linecap: square"/>
   </g>
   <g id="patch_7">
    <path d="M 360.790937 239.134281 
L 625.955938 239.134281 
" style="fill: none; stroke: #000000; stroke-width: 0.8; stroke-linejoin: miter; stroke-linecap: square"/>
   </g>
   <g id="text_30">
    <!-- Precision–Recall Curve -->
    <g transform="translate(423.5475 15.558281) scale(0.11 -0.11)">
     <defs>
      <path id="DejaVuSans-Bold-50" d="M 588 4666 
L 2584 4666 
Q 3475 4666 3951 4270 
Q 4428 3875 4428 3144 
Q 4428 2409 3951 2014 
Q 3475 1619 2584 1619 
L 1791 1619 
L 1791 0 
L 588 0 
L 588 4666 
z
M 1791 3794 
L 1791 2491 
L 2456 2491 
Q 2806 2491 2997 2661 
Q 3188 2831 3188 3144 
Q 3188 3456 2997 3625 
Q 2806 3794 2456 3794 
L 1791 3794 
z
" transform="scale(0.015625)"/>
      <path id="DejaVuSans-Bold-63" d="M 3366 3391 
L 3366 2478 
Q 3138 2634 2908 2709 
Q 2678 2784 2431 2784 
Q 1963 2784 1702 2511 
Q 1441 2238 1441 1747 
Q 1441 1256 1702 982 
Q 1963 709 2431 709 
Q 2694 709 2930 787 
Q 3166 866 3366 1019 
L 3366 103 
Q 3103 6 2833 -42 
Q 2563 -91 2291 -91 
Q 1344 -91 809 395 
Q 275 881 275 1747 
Q 275 2613 809 3098 
Q 1344 3584 2291 3584 
Q 2566 3584 2833 3536 
Q 3100 3488 3366 3391 
z
" transform="scale(0.015625)"/>
      <path id="DejaVuSans-Bold-69" d="M 538 3500 
L 1656 3500 
L 1656 0 
L 538 0 
L 538 3500 
z
M 538 4863 
L 1656 4863 
L 1656 3950 
L 538 3950 
L 538 4863 
z
" transform="scale(0.015625)"/>
      <path id="DejaVuSans-Bold-73" d="M 3272 3391 
L 3272 2541 
Q 2913 2691 2578 2766 
Q 2244 2841 1947 2841 
Q 1628 2841 1473 2761 
Q 1319 2681 1319 2516 
Q 1319 2381 1436 2309 
Q 1553 2238 1856 2203 
L 2053 2175 
Q 2913 2066 3209 1816 
Q 3506 1566 3506 1031 
Q 3506 472 3093 190 
Q 2681 -91 1863 -91 
Q 1516 -91 1145 -36 
Q 775 19 384 128 
L 384 978 
Q 719 816 1070 734 
Q 1422 653 1784 653 
Q 2113 653 2278 743 
Q 2444 834 2444 1013 
Q 2444 1163 2330 1236 
Q 2216 1309 1875 1350 
L 1678 1375 
Q 931 1469 631 1722 
Q 331 1975 331 2491 
Q 331 3047 712 3315 
Q 1094 3584 1881 3584 
Q 2191 3584 2531 3537 
Q 2872 3491 3272 3391 
z
" transform="scale(0.015625)"/>
      <path id="DejaVuSans-Bold-6f" d="M 2203 2784 
Q 1831 2784 1636 2517 
Q 1441 2250 1441 1747 
Q 1441 1244 1636 976 
Q 1831 709 2203 709 
Q 2569 709 2762 976 
Q 2956 1244 2956 1747 
Q 2956 2250 2762 2517 
Q 2569 2784 2203 2784 
z
M 2203 3584 
Q 3106 3584 3614 3096 
Q 4122 2609 4122 1747 
Q 4122 884 3614 396 
Q 3106 -91 2203 -91 
Q 1297 -91 786 396 
Q 275 884 275 1747 
Q 275 2609 786 3096 
Q 1297 3584 2203 3584 
z
" transform="scale(0.015625)"/>
      <path id="DejaVuSans-Bold-6e" d="M 4056 2131 
L 4056 0 
L 2931 0 
L 2931 347 
L 2931 1631 
Q 2931 2084 2911 2256 
Q 2891 2428 2841 2509 
Q 2775 2619 2662 2680 
Q 2550 2741 2406 2741 
Q 2056 2741 1856 2470 
Q 1656 2200 1656 1722 
L 1656 0 
L 538 0 
L 538 3500 
L 1656 3500 
L 1656 2988 
Q 1909 3294 2193 3439 
Q 2478 3584 2822 3584 
Q 3428 3584 3742 3212 
Q 4056 2841 4056 2131 
z
" transform="scale(0.015625)"/>
      <path id="DejaVuSans-Bold-2013" d="M 344 2156 
L 2856 2156 
L 2856 1350 
L 344 1350 
L 344 2156 
z
" transform="scale(0.015625)"/>
      <path id="DejaVuSans-Bold-61" d="M 2106 1575 
Q 1756 1575 1579 1456 
Q 1403 1338 1403 1106 
Q 1403 894 1545 773 
Q 1688 653 1941 653 
Q 2256 653 2472 879 
Q 2688 1106 2688 1447 
L 2688 1575 
L 2106 1575 
z
M 3816 1997 
L 3816 0 
L 2688 0 
L 2688 519 
Q 2463 200 2181 54 
Q 1900 -91 1497 -91 
Q 953 -91 614 226 
Q 275 544 275 1050 
Q 275 1666 698 1953 
Q 1122 2241 2028 2241 
L 2688 2241 
L 2688 2328 
Q 2688 2594 2478 2717 
Q 2269 2841 1825 2841 
Q 1466 2841 1156 2769 
Q 847 2697 581 2553 
L 581 3406 
Q 941 3494 1303 3539 
Q 1666 3584 2028 3584 
Q 2975 3584 3395 3211 
Q 3816 2838 3816 1997 
z
" transform="scale(0.015625)"/>
      <path id="DejaVuSans-Bold-6c" d="M 538 4863 
L 1656 4863 
L 1656 0 
L 538 0 
L 538 4863 
z
" transform="scale(0.015625)"/>
     </defs>
     <use xlink:href="#DejaVuSans-Bold-50"/>
     <use xlink:href="#DejaVuSans-Bold-72" transform="translate(73.291016 0)"/>
     <use xlink:href="#DejaVuSans-Bold-65" transform="translate(122.607422 0)"/>
     <use xlink:href="#DejaVuSans-Bold-63" transform="translate(190.429688 0)"/>
     <use xlink:href="#DejaVuSans-Bold-69" transform="translate(249.707031 0)"/>
     <use xlink:href="#DejaVuSans-Bold-73" transform="translate(283.984375 0)"/>
     <use xlink:href="#DejaVuSans-Bold-69" transform="translate(343.505859 0)"/>
     <use xlink:href="#DejaVuSans-Bold-6f" transform="translate(377.783203 0)"/>
     <use xlink:href="#DejaVuSans-Bold-6e" transform="translate(446.484375 0)"/>
     <use xlink:href="#DejaVuSans-Bold-2013" transform="translate(517.675781 0)"/>
     <use xlink:href="#DejaVuSans-Bold-52" transform="translate(567.675781 0)"/>
     <use xlink:href="#DejaVuSans-Bold-65" transform="translate(644.677734 0)"/>
     <use xlink:href="#DejaVuSans-Bold-63" transform="translate(712.5 0)"/>
     <use xlink:href="#DejaVuSans-Bold-61" transform="translate(771.777344 0)"/>
     <use xlink:href="#DejaVuSans-Bold-6c" transform="translate(839.257812 0)"/>
     <use xlink:href="#DejaVuSans-Bold-6c" transform="translate(873.535156 0)"/>
     <use xlink:href="#DejaVuSans-Bold-20" transform="translate(907.8125 0)"/>
     <use xlink:href="#DejaVuSans-Bold-43" transform="translate(942.626953 0)"/>
     <use xlink:href="#DejaVuSans-Bold-75" transform="translate(1016.015625 0)"/>
     <use xlink:href="#DejaVuSans-Bold-72" transform="translate(1087.207031 0)"/>
     <use xlink:href="#DejaVuSans-Bold-76" transform="translate(1136.523438 0)"/>
     <use xlink:href="#DejaVuSans-Bold-65" transform="translate(1201.708984 0)"/>
    </g>
   </g>
  </g>
  <g id="legend_1">
   <g id="line2d_35">
    <path d="M 129.337617 297.841141 
L 137.837617 297.841141 
L 146.337617 297.841141 
" style="fill: none; stroke: #4477aa; stroke-width: 1.8; stroke-linecap: square"/>
   </g>
   <g id="text_31">
    <!-- Baseline  AUROC=0.866  AP=0.811 -->
    <g transform="translate(153.137617 300.816141) scale(0.085 -0.085)">
     <defs>
      <path id="DejaVuSans-42" d="M 1259 2228 
L 1259 519 
L 2272 519 
Q 2781 519 3026 730 
Q 3272 941 3272 1375 
Q 3272 1813 3026 2020 
Q 2781 2228 2272 2228 
L 1259 2228 
z
M 1259 4147 
L 1259 2741 
L 2194 2741 
Q 2656 2741 2882 2914 
Q 3109 3088 3109 3444 
Q 3109 3797 2882 3972 
Q 2656 4147 2194 4147 
L 1259 4147 
z
M 628 4666 
L 2241 4666 
Q 2963 4666 3353 4366 
Q 3744 4066 3744 3513 
Q 3744 3084 3544 2831 
Q 3344 2578 2956 2516 
Q 3422 2416 3680 2098 
Q 3938 1781 3938 1306 
Q 3938 681 3513 340 
Q 3088 0 2303 0 
L 628 0 
L 628 4666 
z
" transform="scale(0.015625)"/>
      <path id="DejaVuSans-41" d="M 2188 4044 
L 1331 1722 
L 3047 1722 
L 2188 4044 
z
M 1831 4666 
L 2547 4666 
L 4325 0 
L 3669 0 
L 3244 1197 
L 1141 1197 
L 716 0 
L 50 0 
L 1831 4666 
z
" transform="scale(0.015625)"/>
      <path id="DejaVuSans-55" d="M 556 4666 
L 1191 4666 
L 1191 1831 
Q 1191 1081 1462 751 
Q 1734 422 2344 422 
Q 2950 422 3222 751 
Q 3494 1081 3494 1831 
L 3494 4666 
L 4128 4666 
L 4128 1753 
Q 4128 841 3676 375 
Q 3225 -91 2344 -91 
Q 1459 -91 1007 375 
Q 556 841 556 1753 
L 556 4666 
z
" transform="scale(0.015625)"/>
      <path id="DejaVuSans-4f" d="M 2522 4238 
Q 1834 4238 1429 3725 
Q 1025 3213 1025 2328 
Q 1025 1447 1429 934 
Q 1834 422 2522 422 
Q 3209 422 3611 934 
Q 4013 1447 4013 2328 
Q 4013 3213 3611 3725 
Q 3209 4238 2522 4238 
z
M 2522 4750 
Q 3503 4750 4090 4092 
Q 4678 3434 4678 2328 
Q 4678 1225 4090 567 
Q 3503 -91 2522 -91 
Q 1538 -91 948 565 
Q 359 1222 359 2328 
Q 359 3434 948 4092 
Q 1538 4750 2522 4750 
z
" transform="scale(0.015625)"/>
      <path id="DejaVuSans-43" d="M 4122 4306 
L 4122 3641 
Q 3803 3938 3442 4084 
Q 3081 4231 2675 4231 
Q 1875 4231 1450 3742 
Q 1025 3253 1025 2328 
Q 1025 1406 1450 917 
Q 1875 428 2675 428 
Q 3081 428 3442 575 
Q 3803 722 4122 1019 
L 4122 359 
Q 3791 134 3420 21 
Q 3050 -91 2638 -91 
Q 1578 -91 968 557 
Q 359 1206 359 2328 
Q 359 3453 968 4101 
Q 1578 4750 2638 4750 
Q 3056 4750 3426 4639 
Q 3797 4528 4122 4306 
z
" transform="scale(0.015625)"/>
      <path id="DejaVuSans-3d" d="M 678 2906 
L 4684 2906 
L 4684 2381 
L 678 2381 
L 678 2906 
z
M 678 1631 
L 4684 1631 
L 4684 1100 
L 678 1100 
L 678 1631 
z
" transform="scale(0.015625)"/>
     </defs>
     <use xlink:href="#DejaVuSans-42"/>
     <use xlink:href="#DejaVuSans-61" transform="translate(68.603516 0)"/>
     <use xlink:href="#DejaVuSans-73" transform="translate(129.882812 0)"/>
     <use xlink:href="#DejaVuSans-65" transform="translate(181.982422 0)"/>
     <use xlink:href="#DejaVuSans-6c" transform="translate(243.505859 0)"/>
     <use xlink:href="#DejaVuSans-69" transform="translate(271.289062 0)"/>
     <use xlink:href="#DejaVuSans-6e" transform="translate(299.072266 0)"/>
     <use xlink:href="#DejaVuSans-65" transform="translate(362.451172 0)"/>
     <use xlink:href="#DejaVuSans-20" transform="translate(423.974609 0)"/>
     <use xlink:href="#DejaVuSans-20" transform="translate(455.761719 0)"/>
     <use xlink:href="#DejaVuSans-41" transform="translate(487.548828 0)"/>
     <use xlink:href="#DejaVuSans-55" transform="translate(555.957031 0)"/>
     <use xlink:href="#DejaVuSans-52" transform="translate(629.150391 0)"/>
     <use xlink:href="#DejaVuSans-4f" transform="translate(698.632812 0)"/>
     <use xlink:href="#DejaVuSans-43" transform="translate(777.34375 0)"/>
     <use xlink:href="#DejaVuSans-3d" transform="translate(847.167969 0)"/>
     <use xlink:href="#DejaVuSans-30" transform="translate(930.957031 0)"/>
     <use xlink:href="#DejaVuSans-2e" transform="translate(994.580078 0)"/>
     <use xlink:href="#DejaVuSans-38" transform="translate(1026.367188 0)"/>
     <use xlink:href="#DejaVuSans-36" transform="translate(1089.990234 0)"/>
     <use xlink:href="#DejaVuSans-36" transform="translate(1153.613281 0)"/>
     <use xlink:href="#DejaVuSans-20" transform="translate(1217.236328 0)"/>
     <use xlink:href="#DejaVuSans-20" transform="translate(1249.023438 0)"/>
     <use xlink:href="#DejaVuSans-41" transform="translate(1280.810547 0)"/>
     <use xlink:href="#DejaVuSans-50" transform="translate(1349.21875 0)"/>
     <use xlink:href="#DejaVuSans-3d" transform="translate(1409.521484 0)"/>
     <use xlink:href="#DejaVuSans-30" transform="translate(1493.310547 0)"/>
     <use xlink:href="#DejaVuSans-2e" transform="translate(1556.933594 0)"/>
     <use xlink:href="#DejaVuSans-38" transform="translate(1588.720703 0)"/>
     <use xlink:href="#DejaVuSans-31" transform="translate(1652.34375 0)"/>
     <use xlink:href="#DejaVuSans-31" transform="translate(1715.966797 0)"/>
    </g>
   </g>
   <g id="line2d_36">
    <path d="M 129.337617 310.317547 
L 137.837617 310.317547 
L 146.337617 310.317547 
" style="fill: none; stroke: #ee6677; stroke-width: 1.8; stroke-linecap: square"/>
   </g>
   <g id="text_32">
    <!-- Method-A  AUROC=0.899  AP=0.875 -->
    <g transform="translate(153.137617 313.292547) scale(0.085 -0.085)">
     <defs>
      <path id="DejaVuSans-4d" d="M 628 4666 
L 1569 4666 
L 2759 1491 
L 3956 4666 
L 4897 4666 
L 4897 0 
L 4281 0 
L 4281 4097 
L 3078 897 
L 2444 897 
L 1241 4097 
L 1241 0 
L 628 0 
L 628 4666 
z
" transform="scale(0.015625)"/>
      <path id="DejaVuSans-68" d="M 3513 2113 
L 3513 0 
L 2938 0 
L 2938 2094 
Q 2938 2591 2744 2837 
Q 2550 3084 2163 3084 
Q 1697 3084 1428 2787 
Q 1159 2491 1159 1978 
L 1159 0 
L 581 0 
L 581 4863 
L 1159 4863 
L 1159 2956 
Q 1366 3272 1645 3428 
Q 1925 3584 2291 3584 
Q 2894 3584 3203 3211 
Q 3513 2838 3513 2113 
z
" transform="scale(0.015625)"/>
      <path id="DejaVuSans-64" d="M 2906 2969 
L 2906 4863 
L 3481 4863 
L 3481 0 
L 2906 0 
L 2906 525 
Q 2725 213 2448 61 
Q 2172 -91 1784 -91 
Q 1150 -91 751 415 
Q 353 922 353 1747 
Q 353 2572 751 3078 
Q 1150 3584 1784 3584 
Q 2172 3584 2448 3432 
Q 2725 3281 2906 2969 
z
M 947 1747 
Q 947 1113 1208 752 
Q 1469 391 1925 391 
Q 2381 391 2643 752 
Q 2906 1113 2906 1747 
Q 2906 2381 2643 2742 
Q 2381 3103 1925 3103 
Q 1469 3103 1208 2742 
Q 947 2381 947 1747 
z
" transform="scale(0.015625)"/>
      <path id="DejaVuSans-2d" d="M 313 2009 
L 1997 2009 
L 1997 1497 
L 313 1497 
L 313 2009 
z
" transform="scale(0.015625)"/>
      <path id="DejaVuSans-39" d="M 703 97 
L 703 672 
Q 941 559 1184 500 
Q 1428 441 1663 441 
Q 2288 441 2617 861 
Q 2947 1281 2994 2138 
Q 2813 1869 2534 1725 
Q 2256 1581 1919 1581 
Q 1219 1581 811 2004 
Q 403 2428 403 3163 
Q 403 3881 828 4315 
Q 1253 4750 1959 4750 
Q 2769 4750 3195 4129 
Q 3622 3509 3622 2328 
Q 3622 1225 3098 567 
Q 2575 -91 1691 -91 
Q 1453 -91 1209 -44 
Q 966 3 703 97 
z
M 1959 2075 
Q 2384 2075 2632 2365 
Q 2881 2656 2881 3163 
Q 2881 3666 2632 3958 
Q 2384 4250 1959 4250 
Q 1534 4250 1286 3958 
Q 1038 3666 1038 3163 
Q 1038 2656 1286 2365 
Q 1534 2075 1959 2075 
z
" transform="scale(0.015625)"/>
      <path id="DejaVuSans-37" d="M 525 4666 
L 3525 4666 
L 3525 4397 
L 1831 0 
L 1172 0 
L 2766 4134 
L 525 4134 
L 525 4666 
z
" transform="scale(0.015625)"/>
      <path id="DejaVuSans-35" d="M 691 4666 
L 3169 4666 
L 3169 4134 
L 1269 4134 
L 1269 2991 
Q 1406 3038 1543 3061 
Q 1681 3084 1819 3084 
Q 2600 3084 3056 2656 
Q 3513 2228 3513 1497 
Q 3513 744 3044 326 
Q 2575 -91 1722 -91 
Q 1428 -91 1123 -41 
Q 819 9 494 109 
L 494 744 
Q 775 591 1075 516 
Q 1375 441 1709 441 
Q 2250 441 2565 725 
Q 2881 1009 2881 1497 
Q 2881 1984 2565 2268 
Q 2250 2553 1709 2553 
Q 1456 2553 1204 2497 
Q 953 2441 691 2322 
L 691 4666 
z
" transform="scale(0.015625)"/>
     </defs>
     <use xlink:href="#DejaVuSans-4d"/>
     <use xlink:href="#DejaVuSans-65" transform="translate(86.279297 0)"/>
     <use xlink:href="#DejaVuSans-74" transform="translate(147.802734 0)"/>
     <use xlink:href="#DejaVuSans-68" transform="translate(187.011719 0)"/>
     <use xlink:href="#DejaVuSans-6f" transform="translate(250.390625 0)"/>
     <use xlink:href="#DejaVuSans-64" transform="translate(311.572266 0)"/>
     <use xlink:href="#DejaVuSans-2d" transform="translate(375.048828 0)"/>
     <use xlink:href="#DejaVuSans-41" transform="translate(408.882812 0)"/>
     <use xlink:href="#DejaVuSans-20" transform="translate(477.291016 0)"/>
     <use xlink:href="#DejaVuSans-20" transform="translate(509.078125 0)"/>
     <use xlink:href="#DejaVuSans-41" transform="translate(540.865234 0)"/>
     <use xlink:href="#DejaVuSans-55" transform="translate(609.273438 0)"/>
     <use xlink:href="#DejaVuSans-52" transform="translate(682.466797 0)"/>
     <use xlink:href="#DejaVuSans-4f" transform="translate(751.949219 0)"/>
     <use xlink:href="#DejaVuSans-43" transform="translate(830.660156 0)"/>
     <use xlink:href="#DejaVuSans-3d" transform="translate(900.484375 0)"/>
     <use xlink:href="#DejaVuSans-30" transform="translate(984.273438 0)"/>
     <use xlink:href="#DejaVuSans-2e" transform="translate(1047.896484 0)"/>
     <use xlink:href="#DejaVuSans-38" transform="translate(1079.683594 0)"/>
     <use xlink:href="#DejaVuSans-39" transform="translate(1143.306641 0)"/>
     <use xlink:href="#DejaVuSans-39" transform="translate(1206.929688 0)"/>
     <use xlink:href="#DejaVuSans-20" transform="translate(1270.552734 0)"/>
     <use xlink:href="#DejaVuSans-20" transform="translate(1302.339844 0)"/>
     <use xlink:href="#DejaVuSans-41" transform="translate(1334.126953 0)"/>
     <use xlink:href="#DejaVuSans-50" transform="translate(1402.535156 0)"/>
     <use xlink:href="#DejaVuSans-3d" transform="translate(1462.837891 0)"/>
     <use xlink:href="#DejaVuSans-30" transform="translate(1546.626953 0)"/>
     <use xlink:href="#DejaVuSans-2e" transform="translate(1610.25 0)"/>
     <use xlink:href="#DejaVuSans-38" transform="translate(1642.037109 0)"/>
     <use xlink:href="#DejaVuSans-37" transform="translate(1705.660156 0)"/>
     <use xlink:href="#DejaVuSans-35" transform="translate(1769.283203 0)"/>
    </g>
   </g>
   <g id="line2d_37">
    <path d="M 325.934648 297.841141 
L 334.434648 297.841141 
L 342.934648 297.841141 
" style="fill: none; stroke: #228833; stroke-width: 1.8; stroke-linecap: square"/>
   </g>
   <g id="text_33">
    <!-- Method-B  AUROC=0.961  AP=0.952 -->
    <g transform="translate(349.734648 300.816141) scale(0.085 -0.085)">
     <use xlink:href="#DejaVuSans-4d"/>
     <use xlink:href="#DejaVuSans-65" transform="translate(86.279297 0)"/>
     <use xlink:href="#DejaVuSans-74" transform="translate(147.802734 0)"/>
     <use xlink:href="#DejaVuSans-68" transform="translate(187.011719 0)"/>
     <use xlink:href="#DejaVuSans-6f" transform="translate(250.390625 0)"/>
     <use xlink:href="#DejaVuSans-64" transform="translate(311.572266 0)"/>
     <use xlink:href="#DejaVuSans-2d" transform="translate(375.048828 0)"/>
     <use xlink:href="#DejaVuSans-42" transform="translate(407.507812 0)"/>
     <use xlink:href="#DejaVuSans-20" transform="translate(476.111328 0)"/>
     <use xlink:href="#DejaVuSans-20" transform="translate(507.898438 0)"/>
     <use xlink:href="#DejaVuSans-41" transform="translate(539.685547 0)"/>
     <use xlink:href="#DejaVuSans-55" transform="translate(608.09375 0)"/>
     <use xlink:href="#DejaVuSans-52" transform="translate(681.287109 0)"/>
     <use xlink:href="#DejaVuSans-4f" transform="translate(750.769531 0)"/>
     <use xlink:href="#DejaVuSans-43" transform="translate(829.480469 0)"/>
     <use xlink:href="#DejaVuSans-3d" transform="translate(899.304688 0)"/>
     <use xlink:href="#DejaVuSans-30" transform="translate(983.09375 0)"/>
     <use xlink:href="#DejaVuSans-2e" transform="translate(1046.716797 0)"/>
     <use xlink:href="#DejaVuSans-39" transform="translate(1078.503906 0)"/>
     <use xlink:href="#DejaVuSans-36" transform="translate(1142.126953 0)"/>
     <use xlink:href="#DejaVuSans-31" transform="translate(1205.75 0)"/>
     <use xlink:href="#DejaVuSans-20" transform="translate(1269.373047 0)"/>
     <use xlink:href="#DejaVuSans-20" transform="translate(1301.160156 0)"/>
     <use xlink:href="#DejaVuSans-41" transform="translate(1332.947266 0)"/>
     <use xlink:href="#DejaVuSans-50" transform="translate(1401.355469 0)"/>
     <use xlink:href="#DejaVuSans-3d" transform="translate(1461.658203 0)"/>
     <use xlink:href="#DejaVuSans-30" transform="translate(1545.447266 0)"/>
     <use xlink:href="#DejaVuSans-2e" transform="translate(1609.070312 0)"/>
     <use xlink:href="#DejaVuSans-39" transform="translate(1640.857422 0)"/>
     <use xlink:href="#DejaVuSans-35" transform="translate(1704.480469 0)"/>
     <use xlink:href="#DejaVuSans-32" transform="translate(1768.103516 0)"/>
    </g>
   </g>
   <g id="line2d_38">
    <path d="M 325.934648 310.317547 
L 334.434648 310.317547 
L 342.934648 310.317547 
" style="fill: none; stroke: #aa3377; stroke-width: 1.8; stroke-linecap: square"/>
   </g>
   <g id="text_34">
    <!-- OursModel  AUROC=0.989  AP=0.984 -->
    <g transform="translate(349.734648 313.292547) scale(0.085 -0.085)">
     <use xlink:href="#DejaVuSans-4f"/>
     <use xlink:href="#DejaVuSans-75" transform="translate(78.710938 0)"/>
     <use xlink:href="#DejaVuSans-72" transform="translate(142.089844 0)"/>
     <use xlink:href="#DejaVuSans-73" transform="translate(183.203125 0)"/>
     <use xlink:href="#DejaVuSans-4d" transform="translate(235.302734 0)"/>
     <use xlink:href="#DejaVuSans-6f" transform="translate(321.582031 0)"/>
     <use xlink:href="#DejaVuSans-64" transform="translate(382.763672 0)"/>
     <use xlink:href="#DejaVuSans-65" transform="translate(446.240234 0)"/>
     <use xlink:href="#DejaVuSans-6c" transform="translate(507.763672 0)"/>
     <use xlink:href="#DejaVuSans-20" transform="translate(535.546875 0)"/>
     <use xlink:href="#DejaVuSans-20" transform="translate(567.333984 0)"/>
     <use xlink:href="#DejaVuSans-41" transform="translate(599.121094 0)"/>
     <use xlink:href="#DejaVuSans-55" transform="translate(667.529297 0)"/>
     <use xlink:href="#DejaVuSans-52" transform="translate(740.722656 0)"/>
     <use xlink:href="#DejaVuSans-4f" transform="translate(810.205078 0)"/>
     <use xlink:href="#DejaVuSans-43" transform="translate(888.916016 0)"/>
     <use xlink:href="#DejaVuSans-3d" transform="translate(958.740234 0)"/>
     <use xlink:href="#DejaVuSans-30" transform="translate(1042.529297 0)"/>
     <use xlink:href="#DejaVuSans-2e" transform="translate(1106.152344 0)"/>
     <use xlink:href="#DejaVuSans-39" transform="translate(1137.939453 0)"/>
     <use xlink:href="#DejaVuSans-38" transform="translate(1201.5625 0)"/>
     <use xlink:href="#DejaVuSans-39" transform="translate(1265.185547 0)"/>
     <use xlink:href="#DejaVuSans-20" transform="translate(1328.808594 0)"/>
     <use xlink:href="#DejaVuSans-20" transform="translate(1360.595703 0)"/>
     <use xlink:href="#DejaVuSans-41" transform="translate(1392.382812 0)"/>
     <use xlink:href="#DejaVuSans-50" transform="translate(1460.791016 0)"/>
     <use xlink:href="#DejaVuSans-3d" transform="translate(1521.09375 0)"/>
     <use xlink:href="#DejaVuSans-30" transform="translate(1604.882812 0)"/>
     <use xlink:href="#DejaVuSans-2e" transform="translate(1668.505859 0)"/>
     <use xlink:href="#DejaVuSans-39" transform="translate(1700.292969 0)"/>
     <use xlink:href="#DejaVuSans-38" transform="translate(1763.916016 0)"/>
     <use xlink:href="#DejaVuSans-34" transform="translate(1827.539062 0)"/>
    </g>
   </g>
  </g>
 </g>
 <defs>
  <clipPath id="p02a1c27adb">
   <rect x="42.190938" y="21.558281" width="265.165" height="217.576"/>
  </clipPath>
  <clipPath id="p78a21aa803">
   <rect x="360.790937" y="21.558281" width="265.165" height="217.576"/>
  </clipPath>
 </defs>
</svg>
