<?xml version="1.0" encoding="utf-8" standalone="no"?>
<!DOCTYPE svg PUBLIC "-//W3C//DTD SVG 1.1//EN"
  "http://www.w3.org/Graphics/SVG/1.1/DTD/svg11.dtd">
<svg xmlns:xlink="http://www.w3.org/1999/xlink" width="457.377562pt" height="265.844062pt" viewBox="0 0 457.377562 265.844062" xmlns="http://www.w3.org/2000/svg" version="1.1">
 <metadata>
  <rdf:RDF xmlns:dc="http://purl.org/dc/elements/1.1/" xmlns:cc="http://creativecommons.org/ns#" xmlns:rdf="http://www.w3.org/1999/02/22-rdf-syntax-ns#">
   <cc:Work>
    <dc:type rdf:resource="http://purl.org/dc/dcmitype/StillImage"/>
    <dc:date>2026-05-25T00:36:48.184290</dc:date>
    <dc:format>image/svg+xml</dc:format>
    <dc:creator>
     <cc:Agent>
      <dc:title>Matplotlib v3.10.9, https://matplotlib.org/</dc:title>
     </cc:Agent>
    </dc:creator>
   </cc:Work>
  </rdf:RDF>
 </metadata>
 <defs>
  <style type="text/css">*{stroke-linejoin: round; stroke-linecap: butt}</style>
 </defs>
 <g id="figure_1">
  <g id="patch_1">
   <path d="M 0 265.844062 
L 457.377562 265.844062 
L 457.377562 0 
L 0 0 
z
" style="fill: #ffffff"/>
  </g>
  <g id="axes_1">
   <g id="patch_2">
    <path d="M 35.208438 227.32 
L 410.954437 227.32 
L 410.954437 7.2 
L 35.208438 7.2 
z
" style="fill: #ffffff"/>
   </g>
   <g id="matplotlib.axis_1">
    <g id="xtick_1">
     <g id="line2d_1">
      <defs>
       <path id="m58f715cb49" d="M 0 0 
L 0 3.5 
" style="stroke: #000000; stroke-width: 0.8"/>
      </defs>
      <g>
       <use xlink:href="#m58f715cb49" x="35.208438" y="227.32" style="stroke: #000000; stroke-width: 0.8"/>
      </g>
     </g>
     <g id="text_1">
      <!-- 0 -->
      <g transform="translate(32.027188 241.918437) scale(0.1 -0.1)">
       <defs>
        <path id="DejaVuSans-30" d="M 2034 4250 
Q 1547 4250 1301 3770 
Q 1056 3291 1056 2328 
Q 1056 1369 1301 889 
Q 1547 409 2034 409 
Q 2525 409 2770 889 
Q 3016 1369 3016 2328 
Q 3016 3291 2770 3770 
Q 2525 4250 2034 4250 
z
M 2034 4750 
Q 2819 4750 3233 4129 
Q 3647 3509 3647 2328 
Q 3647 1150 3233 529 
Q 2819 -91 2034 -91 
Q 1250 -91 836 529 
Q 422 1150 422 2328 
Q 422 3509 836 4129 
Q 1250 4750 2034 4750 
z
" transform="scale(0.015625)"/>
       </defs>
       <use xlink:href="#DejaVuSans-30"/>
      </g>
     </g>
    </g>
    <g id="xtick_2">
     <g id="line2d_2">
      <g>
       <use xlink:href="#m58f715cb49" x="82.412709" y="227.32" style="stroke: #000000; stroke-width: 0.8"/>
      </g>
     </g>
     <g id="text_2">
      <!-- 25 -->
      <g transform="translate(76.050209 241.918437) scale(0.1 -0.1)">
       <defs>
        <path id="DejaVuSans-32" d="M 1228 531 
L 3431 531 
L 3431 0 
L 469 0 
L 469 531 
Q 828 903 1448 1529 
Q 2069 2156 2228 2338 
Q 2531 2678 2651 2914 
Q 2772 3150 2772 3378 
Q 2772 3750 2511 3984 
Q 2250 4219 1831 4219 
Q 1534 4219 1204 4116 
Q 875 4013 500 3803 
L 500 4441 
Q 881 4594 1212 4672 
Q 1544 4750 1819 4750 
Q 2544 4750 2975 4387 
Q 3406 4025 3406 3419 
Q 3406 3131 3298 2873 
Q 3191 2616 2906 2266 
Q 2828 2175 2409 1742 
Q 1991 1309 1228 531 
z
" transform="scale(0.015625)"/>
        <path id="DejaVuSans-35" d="M 691 4666 
L 3169 4666 
L 3169 4134 
L 1269 4134 
L 1269 2991 
Q 1406 3038 1543 3061 
Q 1681 3084 1819 3084 
Q 2600 3084 3056 2656 
Q 3513 2228 3513 1497 
Q 3513 744 3044 326 
Q 2575 -91 1722 -91 
Q 1428 -91 1123 -41 
Q 819 9 494 109 
L 494 744 
Q 775 591 1075 516 
Q 1375 441 1709 441 
Q 2250 441 2565 725 
Q 2881 1009 2881 1497 
Q 2881 1984 2565 2268 
Q 2250 2553 1709 2553 
Q 1456 2553 1204 2497 
Q 953 2441 691 2322 
L 691 4666 
z
" transform="scale(0.015625)"/>
       </defs>
       <use xlink:href="#DejaVuSans-32"/>
       <use xlink:href="#DejaVuSans-35" transform="translate(63.623047 0)"/>
      </g>
     </g>
    </g>
    <g id="xtick_3">
     <g id="line2d_3">
      <g>
       <use xlink:href="#m58f715cb49" x="129.61698" y="227.32" style="stroke: #000000; stroke-width: 0.8"/>
      </g>
     </g>
     <g id="text_3">
      <!-- 50 -->
      <g transform="translate(123.25448 241.918437) scale(0.1 -0.1)">
       <use xlink:href="#DejaVuSans-35"/>
       <use xlink:href="#DejaVuSans-30" transform="translate(63.623047 0)"/>
      </g>
     </g>
    </g>
    <g id="xtick_4">
     <g id="line2d_4">
      <g>
       <use xlink:href="#m58f715cb49" x="176.821252" y="227.32" style="stroke: #000000; stroke-width: 0.8"/>
      </g>
     </g>
     <g id="text_4">
      <!-- 75 -->
      <g transform="translate(170.458752 241.918437) scale(0.1 -0.1)">
       <defs>
        <path id="DejaVuSans-37" d="M 525 4666 
L 3525 4666 
L 3525 4397 
L 1831 0 
L 1172 0 
L 2766 4134 
L 525 4134 
L 525 4666 
z
" transform="scale(0.015625)"/>
       </defs>
       <use xlink:href="#DejaVuSans-37"/>
       <use xlink:href="#DejaVuSans-35" transform="translate(63.623047 0)"/>
      </g>
     </g>
    </g>
    <g id="xtick_5">
     <g id="line2d_5">
      <g>
       <use xlink:href="#m58f715cb49" x="224.025523" y="227.32" style="stroke: #000000; stroke-width: 0.8"/>
      </g>
     </g>
     <g id="text_5">
      <!-- 100 -->
      <g transform="translate(214.481773 241.918437) scale(0.1 -0.1)">
       <defs>
        <path id="DejaVuSans-31" d="M 794 531 
L 1825 531 
L 1825 4091 
L 703 3866 
L 703 4441 
L 1819 4666 
L 2450 4666 
L 2450 531 
L 3481 531 
L 3481 0 
L 794 0 
L 794 531 
z
" transform="scale(0.015625)"/>
       </defs>
       <use xlink:href="#DejaVuSans-31"/>
       <use xlink:href="#DejaVuSans-30" transform="translate(63.623047 0)"/>
       <use xlink:href="#DejaVuSans-30" transform="translate(127.246094 0)"/>
      </g>
     </g>
    </g>
    <g id="xtick_6">
     <g id="line2d_6">
      <g>
       <use xlink:href="#m58f715cb49" x="271.229794" y="227.32" style="stroke: #000000; stroke-width: 0.8"/>
      </g>
     </g>
     <g id="text_6">
      <!-- 125 -->
      <g transform="translate(261.686044 241.918437) scale(0.1 -0.1)">
       <use xlink:href="#DejaVuSans-31"/>
       <use xlink:href="#DejaVuSans-32" transform="translate(63.623047 0)"/>
       <use xlink:href="#DejaVuSans-35" transform="translate(127.246094 0)"/>
      </g>
     </g>
    </g>
    <g id="xtick_7">
     <g id="line2d_7">
      <g>
       <use xlink:href="#m58f715cb49" x="318.434066" y="227.32" style="stroke: #000000; stroke-width: 0.8"/>
      </g>
     </g>
     <g id="text_7">
      <!-- 150 -->
      <g transform="translate(308.890316 241.918437) scale(0.1 -0.1)">
       <use xlink:href="#DejaVuSans-31"/>
       <use xlink:href="#DejaVuSans-35" transform="translate(63.623047 0)"/>
       <use xlink:href="#DejaVuSans-30" transform="translate(127.246094 0)"/>
      </g>
     </g>
    </g>
    <g id="xtick_8">
     <g id="line2d_8">
      <g>
       <use xlink:href="#m58f715cb49" x="365.638337" y="227.32" style="stroke: #000000; stroke-width: 0.8"/>
      </g>
     </g>
     <g id="text_8">
      <!-- 175 -->
      <g transform="translate(356.094587 241.918437) scale(0.1 -0.1)">
       <use xlink:href="#DejaVuSans-31"/>
       <use xlink:href="#DejaVuSans-37" transform="translate(63.623047 0)"/>
       <use xlink:href="#DejaVuSans-35" transform="translate(127.246094 0)"/>
      </g>
     </g>
    </g>
    <g id="text_9">
     <!-- Step -->
     <g transform="translate(210.557766 256.356406) scale(0.11 -0.11)">
      <defs>
       <path id="DejaVuSans-53" d="M 3425 4513 
L 3425 3897 
Q 3066 4069 2747 4153 
Q 2428 4238 2131 4238 
Q 1616 4238 1336 4038 
Q 1056 3838 1056 3469 
Q 1056 3159 1242 3001 
Q 1428 2844 1947 2747 
L 2328 2669 
Q 3034 2534 3370 2195 
Q 3706 1856 3706 1288 
Q 3706 609 3251 259 
Q 2797 -91 1919 -91 
Q 1588 -91 1214 -16 
Q 841 59 441 206 
L 441 856 
Q 825 641 1194 531 
Q 1563 422 1919 422 
Q 2459 422 2753 634 
Q 3047 847 3047 1241 
Q 3047 1584 2836 1778 
Q 2625 1972 2144 2069 
L 1759 2144 
Q 1053 2284 737 2584 
Q 422 2884 422 3419 
Q 422 4038 858 4394 
Q 1294 4750 2059 4750 
Q 2388 4750 2728 4690 
Q 3069 4631 3425 4513 
z
" transform="scale(0.015625)"/>
       <path id="DejaVuSans-74" d="M 1172 4494 
L 1172 3500 
L 2356 3500 
L 2356 3053 
L 1172 3053 
L 1172 1153 
Q 1172 725 1289 603 
Q 1406 481 1766 481 
L 2356 481 
L 2356 0 
L 1766 0 
Q 1100 0 847 248 
Q 594 497 594 1153 
L 594 3053 
L 172 3053 
L 172 3500 
L 594 3500 
L 594 4494 
L 1172 4494 
z
" transform="scale(0.015625)"/>
       <path id="DejaVuSans-65" d="M 3597 1894 
L 3597 1613 
L 953 1613 
Q 991 1019 1311 708 
Q 1631 397 2203 397 
Q 2534 397 2845 478 
Q 3156 559 3463 722 
L 3463 178 
Q 3153 47 2828 -22 
Q 2503 -91 2169 -91 
Q 1331 -91 842 396 
Q 353 884 353 1716 
Q 353 2575 817 3079 
Q 1281 3584 2069 3584 
Q 2775 3584 3186 3129 
Q 3597 2675 3597 1894 
z
M 3022 2063 
Q 3016 2534 2758 2815 
Q 2500 3097 2075 3097 
Q 1594 3097 1305 2825 
Q 1016 2553 972 2059 
L 3022 2063 
z
" transform="scale(0.015625)"/>
       <path id="DejaVuSans-70" d="M 1159 525 
L 1159 -1331 
L 581 -1331 
L 581 3500 
L 1159 3500 
L 1159 2969 
Q 1341 3281 1617 3432 
Q 1894 3584 2278 3584 
Q 2916 3584 3314 3078 
Q 3713 2572 3713 1747 
Q 3713 922 3314 415 
Q 2916 -91 2278 -91 
Q 1894 -91 1617 61 
Q 1341 213 1159 525 
z
M 3116 1747 
Q 3116 2381 2855 2742 
Q 2594 3103 2138 3103 
Q 1681 3103 1420 2742 
Q 1159 2381 1159 1747 
Q 1159 1113 1420 752 
Q 1681 391 2138 391 
Q 2594 391 2855 752 
Q 3116 1113 3116 1747 
z
" transform="scale(0.015625)"/>
      </defs>
      <use xlink:href="#DejaVuSans-53"/>
      <use xlink:href="#DejaVuSans-74" transform="translate(63.476562 0)"/>
      <use xlink:href="#DejaVuSans-65" transform="translate(102.685547 0)"/>
      <use xlink:href="#DejaVuSans-70" transform="translate(164.208984 0)"/>
     </g>
    </g>
   </g>
   <g id="matplotlib.axis_2">
    <g id="ytick_1">
     <g id="line2d_9">
      <path d="M 35.208438 83.901618 
L 410.954437 83.901618 
" clip-path="url(#p418f44948c)" style="fill: none; stroke-dasharray: 1.48,0.64; stroke-dashoffset: 0; stroke: #1f77b4; stroke-opacity: 0.5; stroke-width: 0.4"/>
     </g>
     <g id="line2d_10">
      <defs>
       <path id="m9c4d3d0530" d="M 0 0 
L -3.5 0 
" style="stroke: #000000; stroke-width: 0.8"/>
      </defs>
      <g>
       <use xlink:href="#m9c4d3d0530" x="35.208438" y="83.901618" style="stroke: #000000; stroke-width: 0.8"/>
      </g>
     </g>
     <g id="text_10">
      <!-- 1 -->
      <g style="fill: #1f77b4" transform="translate(21.845938 87.700837) scale(0.1 -0.1)">
       <use xlink:href="#DejaVuSans-31"/>
      </g>
     </g>
    </g>
    <g id="ytick_2">
     <g id="line2d_11">
      <path d="M 35.208438 220.940135 
L 410.954437 220.940135 
" clip-path="url(#p418f44948c)" style="fill: none; stroke-dasharray: 1.48,0.64; stroke-dashoffset: 0; stroke: #1f77b4; stroke-opacity: 0.5; stroke-width: 0.4"/>
     </g>
     <g id="line2d_12">
      <defs>
       <path id="mcce7529da9" d="M 0 0 
L -2 0 
" style="stroke: #000000; stroke-width: 0.6"/>
      </defs>
      <g>
       <use xlink:href="#mcce7529da9" x="35.208438" y="220.940135" style="stroke: #000000; stroke-width: 0.6"/>
      </g>
     </g>
    </g>
    <g id="ytick_3">
     <g id="line2d_13">
      <path d="M 35.208438 186.416071 
L 410.954437 186.416071 
" clip-path="url(#p418f44948c)" style="fill: none; stroke-dasharray: 1.48,0.64; stroke-dashoffset: 0; stroke: #1f77b4; stroke-opacity: 0.5; stroke-width: 0.4"/>
     </g>
     <g id="line2d_14">
      <g>
       <use xlink:href="#mcce7529da9" x="35.208438" y="186.416071" style="stroke: #000000; stroke-width: 0.6"/>
      </g>
     </g>
    </g>
    <g id="ytick_4">
     <g id="line2d_15">
      <path d="M 35.208438 161.920858 
L 410.954437 161.920858 
" clip-path="url(#p418f44948c)" style="fill: none; stroke-dasharray: 1.48,0.64; stroke-dashoffset: 0; stroke: #1f77b4; stroke-opacity: 0.5; stroke-width: 0.4"/>
     </g>
     <g id="line2d_16">
      <g>
       <use xlink:href="#mcce7529da9" x="35.208438" y="161.920858" style="stroke: #000000; stroke-width: 0.6"/>
      </g>
     </g>
    </g>
    <g id="ytick_5">
     <g id="line2d_17">
      <path d="M 35.208438 142.920895 
L 410.954437 142.920895 
" clip-path="url(#p418f44948c)" style="fill: none; stroke-dasharray: 1.48,0.64; stroke-dashoffset: 0; stroke: #1f77b4; stroke-opacity: 0.5; stroke-width: 0.4"/>
     </g>
     <g id="line2d_18">
      <g>
       <use xlink:href="#mcce7529da9" x="35.208438" y="142.920895" style="stroke: #000000; stroke-width: 0.6"/>
      </g>
     </g>
    </g>
    <g id="ytick_6">
     <g id="line2d_19">
      <path d="M 35.208438 127.396794 
L 410.954437 127.396794 
" clip-path="url(#p418f44948c)" style="fill: none; stroke-dasharray: 1.48,0.64; stroke-dashoffset: 0; stroke: #1f77b4; stroke-opacity: 0.5; stroke-width: 0.4"/>
     </g>
     <g id="line2d_20">
      <g>
       <use xlink:href="#mcce7529da9" x="35.208438" y="127.396794" style="stroke: #000000; stroke-width: 0.6"/>
      </g>
     </g>
    </g>
    <g id="ytick_7">
     <g id="line2d_21">
      <path d="M 35.208438 114.271354 
L 410.954437 114.271354 
" clip-path="url(#p418f44948c)" style="fill: none; stroke-dasharray: 1.48,0.64; stroke-dashoffset: 0; stroke: #1f77b4; stroke-opacity: 0.5; stroke-width: 0.4"/>
     </g>
     <g id="line2d_22">
      <g>
       <use xlink:href="#mcce7529da9" x="35.208438" y="114.271354" style="stroke: #000000; stroke-width: 0.6"/>
      </g>
     </g>
    </g>
    <g id="ytick_8">
     <g id="line2d_23">
      <path d="M 35.208438 102.901581 
L 410.954437 102.901581 
" clip-path="url(#p418f44948c)" style="fill: none; stroke-dasharray: 1.48,0.64; stroke-dashoffset: 0; stroke: #1f77b4; stroke-opacity: 0.5; stroke-width: 0.4"/>
     </g>
     <g id="line2d_24">
      <g>
       <use xlink:href="#mcce7529da9" x="35.208438" y="102.901581" style="stroke: #000000; stroke-width: 0.6"/>
      </g>
     </g>
    </g>
    <g id="ytick_9">
     <g id="line2d_25">
      <path d="M 35.208438 92.872731 
L 410.954437 92.872731 
" clip-path="url(#p418f44948c)" style="fill: none; stroke-dasharray: 1.48,0.64; stroke-dashoffset: 0; stroke: #1f77b4; stroke-opacity: 0.5; stroke-width: 0.4"/>
     </g>
     <g id="line2d_26">
      <g>
       <use xlink:href="#mcce7529da9" x="35.208438" y="92.872731" style="stroke: #000000; stroke-width: 0.6"/>
      </g>
     </g>
    </g>
    <g id="ytick_10">
     <g id="line2d_27">
      <path d="M 35.208438 24.882341 
L 410.954437 24.882341 
" clip-path="url(#p418f44948c)" style="fill: none; stroke-dasharray: 1.48,0.64; stroke-dashoffset: 0; stroke: #1f77b4; stroke-opacity: 0.5; stroke-width: 0.4"/>
     </g>
     <g id="line2d_28">
      <g>
       <use xlink:href="#mcce7529da9" x="35.208438" y="24.882341" style="stroke: #000000; stroke-width: 0.6"/>
      </g>
     </g>
    </g>
    <g id="text_11">
     <!-- Training loss (log scale) -->
     <g style="fill: #1f77b4" transform="translate(15.558281 181.674453) rotate(-90) scale(0.11 -0.11)">
      <defs>
       <path id="DejaVuSans-54" d="M -19 4666 
L 3928 4666 
L 3928 4134 
L 2272 4134 
L 2272 0 
L 1638 0 
L 1638 4134 
L -19 4134 
L -19 4666 
z
" transform="scale(0.015625)"/>
       <path id="DejaVuSans-72" d="M 2631 2963 
Q 2534 3019 2420 3045 
Q 2306 3072 2169 3072 
Q 1681 3072 1420 2755 
Q 1159 2438 1159 1844 
L 1159 0 
L 581 0 
L 581 3500 
L 1159 3500 
L 1159 2956 
Q 1341 3275 1631 3429 
Q 1922 3584 2338 3584 
Q 2397 3584 2469 3576 
Q 2541 3569 2628 3553 
L 2631 2963 
z
" transform="scale(0.015625)"/>
       <path id="DejaVuSans-61" d="M 2194 1759 
Q 1497 1759 1228 1600 
Q 959 1441 959 1056 
Q 959 750 1161 570 
Q 1363 391 1709 391 
Q 2188 391 2477 730 
Q 2766 1069 2766 1631 
L 2766 1759 
L 2194 1759 
z
M 3341 1997 
L 3341 0 
L 2766 0 
L 2766 531 
Q 2569 213 2275 61 
Q 1981 -91 1556 -91 
Q 1019 -91 701 211 
Q 384 513 384 1019 
Q 384 1609 779 1909 
Q 1175 2209 1959 2209 
L 2766 2209 
L 2766 2266 
Q 2766 2663 2505 2880 
Q 2244 3097 1772 3097 
Q 1472 3097 1187 3025 
Q 903 2953 641 2809 
L 641 3341 
Q 956 3463 1253 3523 
Q 1550 3584 1831 3584 
Q 2591 3584 2966 3190 
Q 3341 2797 3341 1997 
z
" transform="scale(0.015625)"/>
       <path id="DejaVuSans-69" d="M 603 3500 
L 1178 3500 
L 1178 0 
L 603 0 
L 603 3500 
z
M 603 4863 
L 1178 4863 
L 1178 4134 
L 603 4134 
L 603 4863 
z
" transform="scale(0.015625)"/>
       <path id="DejaVuSans-6e" d="M 3513 2113 
L 3513 0 
L 2938 0 
L 2938 2094 
Q 2938 2591 2744 2837 
Q 2550 3084 2163 3084 
Q 1697 3084 1428 2787 
Q 1159 2491 1159 1978 
L 1159 0 
L 581 0 
L 581 3500 
L 1159 3500 
L 1159 2956 
Q 1366 3272 1645 3428 
Q 1925 3584 2291 3584 
Q 2894 3584 3203 3211 
Q 3513 2838 3513 2113 
z
" transform="scale(0.015625)"/>
       <path id="DejaVuSans-67" d="M 2906 1791 
Q 2906 2416 2648 2759 
Q 2391 3103 1925 3103 
Q 1463 3103 1205 2759 
Q 947 2416 947 1791 
Q 947 1169 1205 825 
Q 1463 481 1925 481 
Q 2391 481 2648 825 
Q 2906 1169 2906 1791 
z
M 3481 434 
Q 3481 -459 3084 -895 
Q 2688 -1331 1869 -1331 
Q 1566 -1331 1297 -1286 
Q 1028 -1241 775 -1147 
L 775 -588 
Q 1028 -725 1275 -790 
Q 1522 -856 1778 -856 
Q 2344 -856 2625 -561 
Q 2906 -266 2906 331 
L 2906 616 
Q 2728 306 2450 153 
Q 2172 0 1784 0 
Q 1141 0 747 490 
Q 353 981 353 1791 
Q 353 2603 747 3093 
Q 1141 3584 1784 3584 
Q 2172 3584 2450 3431 
Q 2728 3278 2906 2969 
L 2906 3500 
L 3481 3500 
L 3481 434 
z
" transform="scale(0.015625)"/>
       <path id="DejaVuSans-20" transform="scale(0.015625)"/>
       <path id="DejaVuSans-6c" d="M 603 4863 
L 1178 4863 
L 1178 0 
L 603 0 
L 603 4863 
z
" transform="scale(0.015625)"/>
       <path id="DejaVuSans-6f" d="M 1959 3097 
Q 1497 3097 1228 2736 
Q 959 2375 959 1747 
Q 959 1119 1226 758 
Q 1494 397 1959 397 
Q 2419 397 2687 759 
Q 2956 1122 2956 1747 
Q 2956 2369 2687 2733 
Q 2419 3097 1959 3097 
z
M 1959 3584 
Q 2709 3584 3137 3096 
Q 3566 2609 3566 1747 
Q 3566 888 3137 398 
Q 2709 -91 1959 -91 
Q 1206 -91 779 398 
Q 353 888 353 1747 
Q 353 2609 779 3096 
Q 1206 3584 1959 3584 
z
" transform="scale(0.015625)"/>
       <path id="DejaVuSans-73" d="M 2834 3397 
L 2834 2853 
Q 2591 2978 2328 3040 
Q 2066 3103 1784 3103 
Q 1356 3103 1142 2972 
Q 928 2841 928 2578 
Q 928 2378 1081 2264 
Q 1234 2150 1697 2047 
L 1894 2003 
Q 2506 1872 2764 1633 
Q 3022 1394 3022 966 
Q 3022 478 2636 193 
Q 2250 -91 1575 -91 
Q 1294 -91 989 -36 
Q 684 19 347 128 
L 347 722 
Q 666 556 975 473 
Q 1284 391 1588 391 
Q 1994 391 2212 530 
Q 2431 669 2431 922 
Q 2431 1156 2273 1281 
Q 2116 1406 1581 1522 
L 1381 1569 
Q 847 1681 609 1914 
Q 372 2147 372 2553 
Q 372 3047 722 3315 
Q 1072 3584 1716 3584 
Q 2034 3584 2315 3537 
Q 2597 3491 2834 3397 
z
" transform="scale(0.015625)"/>
       <path id="DejaVuSans-28" d="M 1984 4856 
Q 1566 4138 1362 3434 
Q 1159 2731 1159 2009 
Q 1159 1288 1364 580 
Q 1569 -128 1984 -844 
L 1484 -844 
Q 1016 -109 783 600 
Q 550 1309 550 2009 
Q 550 2706 781 3412 
Q 1013 4119 1484 4856 
L 1984 4856 
z
" transform="scale(0.015625)"/>
       <path id="DejaVuSans-63" d="M 3122 3366 
L 3122 2828 
Q 2878 2963 2633 3030 
Q 2388 3097 2138 3097 
Q 1578 3097 1268 2742 
Q 959 2388 959 1747 
Q 959 1106 1268 751 
Q 1578 397 2138 397 
Q 2388 397 2633 464 
Q 2878 531 3122 666 
L 3122 134 
Q 2881 22 2623 -34 
Q 2366 -91 2075 -91 
Q 1284 -91 818 406 
Q 353 903 353 1747 
Q 353 2603 823 3093 
Q 1294 3584 2113 3584 
Q 2378 3584 2631 3529 
Q 2884 3475 3122 3366 
z
" transform="scale(0.015625)"/>
       <path id="DejaVuSans-29" d="M 513 4856 
L 1013 4856 
Q 1481 4119 1714 3412 
Q 1947 2706 1947 2009 
Q 1947 1309 1714 600 
Q 1481 -109 1013 -844 
L 513 -844 
Q 928 -128 1133 580 
Q 1338 1288 1338 2009 
Q 1338 2731 1133 3434 
Q 928 4138 513 4856 
z
" transform="scale(0.015625)"/>
      </defs>
      <use xlink:href="#DejaVuSans-54"/>
      <use xlink:href="#DejaVuSans-72" transform="translate(46.333984 0)"/>
      <use xlink:href="#DejaVuSans-61" transform="translate(87.447266 0)"/>
      <use xlink:href="#DejaVuSans-69" transform="translate(148.726562 0)"/>
      <use xlink:href="#DejaVuSans-6e" transform="translate(176.509766 0)"/>
      <use xlink:href="#DejaVuSans-69" transform="translate(239.888672 0)"/>
      <use xlink:href="#DejaVuSans-6e" transform="translate(267.671875 0)"/>
      <use xlink:href="#DejaVuSans-67" transform="translate(331.050781 0)"/>
      <use xlink:href="#DejaVuSans-20" transform="translate(394.527344 0)"/>
      <use xlink:href="#DejaVuSans-6c" transform="translate(426.314453 0)"/>
      <use xlink:href="#DejaVuSans-6f" transform="translate(454.097656 0)"/>
      <use xlink:href="#DejaVuSans-73" transform="translate(515.279297 0)"/>
      <use xlink:href="#DejaVuSans-73" transform="translate(567.378906 0)"/>
      <use xlink:href="#DejaVuSans-20" transform="translate(619.478516 0)"/>
      <use xlink:href="#DejaVuSans-28" transform="translate(651.265625 0)"/>
      <use xlink:href="#DejaVuSans-6c" transform="translate(690.279297 0)"/>
      <use xlink:href="#DejaVuSans-6f" transform="translate(718.0625 0)"/>
      <use xlink:href="#DejaVuSans-67" transform="translate(779.244141 0)"/>
      <use xlink:href="#DejaVuSans-20" transform="translate(842.720703 0)"/>
      <use xlink:href="#DejaVuSans-73" transform="translate(874.507812 0)"/>
      <use xlink:href="#DejaVuSans-63" transform="translate(926.607422 0)"/>
      <use xlink:href="#DejaVuSans-61" transform="translate(981.587891 0)"/>
      <use xlink:href="#DejaVuSans-6c" transform="translate(1042.867188 0)"/>
      <use xlink:href="#DejaVuSans-65" transform="translate(1070.650391 0)"/>
      <use xlink:href="#DejaVuSans-29" transform="translate(1132.173828 0)"/>
     </g>
    </g>
   </g>
   <g id="line2d_29">
    <path d="M 35.208438 17.205455 
L 37.096608 18.859224 
L 38.984779 20.687477 
L 40.87295 21.309806 
L 42.761121 22.369637 
L 44.649292 24.026672 
L 46.537463 24.635773 
L 48.425633 26.164897 
L 50.313804 28.86527 
L 52.201975 28.749357 
L 54.090146 30.814662 
L 55.978317 30.368509 
L 57.866488 35.713746 
L 59.754659 34.580295 
L 61.642829 35.025152 
L 63.531 35.839545 
L 65.419171 39.091759 
L 67.307342 39.358795 
L 69.195513 40.210829 
L 71.083684 42.478377 
L 72.971855 42.478377 
L 74.860025 45.152976 
L 76.748196 46.481295 
L 78.636367 45.662255 
L 80.524538 49.060265 
L 82.412709 49.827179 
L 84.30088 48.266572 
L 86.189051 50.491721 
L 88.077221 53.595765 
L 89.965392 54.002338 
L 91.853563 56.514261 
L 93.741734 58.191133 
L 95.629905 58.670942 
L 97.518076 58.36759 
L 99.406247 59.933816 
L 101.294417 62.815773 
L 103.182588 65.991669 
L 105.070759 62.590077 
L 106.95893 66.37199 
L 108.847101 65.61304 
L 110.735272 66.809728 
L 112.623443 67.326788 
L 114.511613 71.110121 
L 116.399784 72.887008 
L 118.287955 73.608277 
L 120.176126 73.284453 
L 122.064297 74.663563 
L 123.952468 77.95787 
L 125.840639 76.704587 
L 127.728809 79.999048 
L 129.61698 79.852776 
L 131.505151 81.38478 
L 133.393322 81.359984 
L 135.281493 79.197642 
L 137.169664 85.552335 
L 139.057834 88.054242 
L 140.946005 88.817574 
L 142.834176 87.920244 
L 144.722347 88.745438 
L 146.610518 89.18823 
L 148.498689 93.16652 
L 150.38686 94.85398 
L 152.27503 93.814535 
L 154.163201 92.062968 
L 156.051372 94.169214 
L 157.939543 95.009057 
L 159.827714 97.04125 
L 161.715885 97.160559 
L 163.604056 101.4244 
L 165.492226 99.092595 
L 167.380397 100.996604 
L 169.268568 101.875385 
L 171.156739 105.670828 
L 173.04491 106.688443 
L 174.933081 108.192723 
L 176.821252 104.937318 
L 178.709422 112.228214 
L 180.597593 111.1309 
L 182.485764 110.709901 
L 184.373935 115.434831 
L 186.262106 112.943737 
L 188.150277 111.896349 
L 190.038448 113.979922 
L 191.926618 119.436389 
L 193.814789 117.544728 
L 195.70296 121.107012 
L 197.591131 126.423194 
L 199.479302 118.510871 
L 201.367473 120.046019 
L 203.255644 126.325042 
L 205.143814 120.870091 
L 207.031985 122.435382 
L 208.920156 119.643433 
L 210.808327 125.418993 
L 212.696498 123.337127 
L 214.584669 129.567081 
L 216.47284 130.356838 
L 218.36101 125.211267 
L 220.249181 129.247417 
L 222.137352 127.709573 
L 224.025523 134.157794 
L 225.913694 134.650864 
L 227.801865 132.967764 
L 229.690035 138.669312 
L 231.578206 135.100189 
L 233.466377 142.784769 
L 235.354548 145.901511 
L 237.242719 141.56933 
L 239.13089 139.091556 
L 241.019061 135.411455 
L 242.907231 143.381934 
L 244.795402 143.193802 
L 246.683573 145.444204 
L 248.571744 144.554251 
L 250.459915 142.191763 
L 252.348086 145.268969 
L 254.236257 146.770092 
L 256.124427 147.701647 
L 258.012598 150.838942 
L 259.900769 148.044581 
L 261.78894 144.867291 
L 263.677111 156.698782 
L 265.565282 145.813376 
L 267.453453 163.359147 
L 269.341623 161.899574 
L 271.229794 153.400084 
L 273.117965 158.560874 
L 275.006136 148.971977 
L 276.894307 155.96123 
L 278.782478 165.663222 
L 280.670649 159.756081 
L 282.558819 158.991686 
L 284.44699 156.919292 
L 286.335161 164.86621 
L 288.223332 169.951112 
L 290.111503 169.717513 
L 291.999674 160.548344 
L 293.887845 160.192999 
L 295.776015 174.195546 
L 297.664186 165.15316 
L 299.552357 170.60862 
L 301.440528 167.552452 
L 303.328699 165.574295 
L 305.21687 170.868322 
L 307.105041 170.84468 
L 308.993211 180.734766 
L 310.881382 171.867263 
L 312.769553 165.529867 
L 314.657724 176.160465 
L 316.545895 171.939066 
L 318.434066 172.250916 
L 320.322236 164.054759 
L 322.210407 180.231799 
L 324.098578 172.371163 
L 325.986749 178.58501 
L 327.87492 178.043082 
L 329.763091 178.481519 
L 331.651262 188.426376 
L 333.539432 176.513458 
L 335.427603 184.147596 
L 337.315774 179.968268 
L 339.203945 177.122014 
L 341.092116 183.322523 
L 342.980287 191.353078 
L 344.868458 189.390809 
L 346.756628 180.549117 
L 350.53297 175.608701 
L 352.421141 192.839734 
L 354.309312 185.344318 
L 356.197483 186.217627 
L 358.085654 191.443356 
L 359.973824 189.126697 
L 361.861995 194.290522 
L 363.750166 188.281198 
L 365.638337 192.290595 
L 367.526508 191.744974 
L 369.414679 182.885732 
L 371.30285 197.429784 
L 373.19102 191.262896 
L 375.079191 196.274798 
L 378.855533 193.762911 
L 380.743704 193.762911 
L 382.631875 192.962248 
L 384.520046 199.588828 
L 386.408216 191.563875 
L 388.296387 203.1752 
L 390.184558 203.799497 
L 392.072729 202.281442 
L 393.9609 189.685231 
L 395.849071 190.039887 
L 397.737242 201.566348 
L 399.625412 186.785843 
L 401.513583 196.75414 
L 403.401754 209.708838 
L 405.289925 197.043046 
L 407.178096 207.063858 
L 409.066267 208.707317 
L 410.954437 217.314545 
L 410.954437 217.314545 
" clip-path="url(#p418f44948c)" style="fill: none; stroke: #1f77b4; stroke-width: 1.6; stroke-linecap: square"/>
   </g>
   <g id="patch_3">
    <path d="M 35.208438 227.32 
L 35.208438 7.2 
" style="fill: none; stroke: #000000; stroke-width: 0.8; stroke-linejoin: miter; stroke-linecap: square"/>
   </g>
   <g id="patch_4">
    <path d="M 410.954437 227.32 
L 410.954437 7.2 
" style="fill: none; stroke: #000000; stroke-width: 0.8; stroke-linejoin: miter; stroke-linecap: square"/>
   </g>
   <g id="patch_5">
    <path d="M 35.208438 227.32 
L 410.954437 227.32 
" style="fill: none; stroke: #000000; stroke-width: 0.8; stroke-linejoin: miter; stroke-linecap: square"/>
   </g>
   <g id="patch_6">
    <path d="M 35.208438 7.2 
L 410.954437 7.2 
" style="fill: none; stroke: #000000; stroke-width: 0.8; stroke-linejoin: miter; stroke-linecap: square"/>
   </g>
   <g id="legend_1">
    <g id="patch_7">
     <path d="M 315.638813 40.820625 
L 404.654438 40.820625 
Q 406.454438 40.820625 406.454438 39.020625 
L 406.454438 13.5 
Q 406.454438 11.7 404.654438 11.7 
L 315.638813 11.7 
Q 313.838813 11.7 313.838813 13.5 
L 313.838813 39.020625 
Q 313.838813 40.820625 315.638813 40.820625 
z
" style="fill: #ffffff; opacity: 0.85; stroke: #cccccc; stroke-linejoin: miter"/>
    </g>
    <g id="line2d_30">
     <path d="M 317.438813 18.988594 
L 326.438813 18.988594 
L 335.438813 18.988594 
" style="fill: none; stroke: #1f77b4; stroke-width: 1.6; stroke-linecap: square"/>
    </g>
    <g id="text_12">
     <!-- Training loss -->
     <g transform="translate(342.638813 22.138594) scale(0.09 -0.09)">
      <use xlink:href="#DejaVuSans-54"/>
      <use xlink:href="#DejaVuSans-72" transform="translate(46.333984 0)"/>
      <use xlink:href="#DejaVuSans-61" transform="translate(87.447266 0)"/>
      <use xlink:href="#DejaVuSans-69" transform="translate(148.726562 0)"/>
      <use xlink:href="#DejaVuSans-6e" transform="translate(176.509766 0)"/>
      <use xlink:href="#DejaVuSans-69" transform="translate(239.888672 0)"/>
      <use xlink:href="#DejaVuSans-6e" transform="translate(267.671875 0)"/>
      <use xlink:href="#DejaVuSans-67" transform="translate(331.050781 0)"/>
      <use xlink:href="#DejaVuSans-20" transform="translate(394.527344 0)"/>
      <use xlink:href="#DejaVuSans-6c" transform="translate(426.314453 0)"/>
      <use xlink:href="#DejaVuSans-6f" transform="translate(454.097656 0)"/>
      <use xlink:href="#DejaVuSans-73" transform="translate(515.279297 0)"/>
      <use xlink:href="#DejaVuSans-73" transform="translate(567.378906 0)"/>
     </g>
    </g>
    <g id="line2d_31">
     <path d="M 317.438813 32.198906 
L 326.438813 32.198906 
L 335.438813 32.198906 
" style="fill: none; stroke-dasharray: 5.18,2.24; stroke-dashoffset: 0; stroke: #d62728; stroke-width: 1.4"/>
    </g>
    <g id="text_13">
     <!-- Learning rate -->
     <g transform="translate(342.638813 35.348906) scale(0.09 -0.09)">
      <defs>
       <path id="DejaVuSans-4c" d="M 628 4666 
L 1259 4666 
L 1259 531 
L 3531 531 
L 3531 0 
L 628 0 
L 628 4666 
z
" transform="scale(0.015625)"/>
      </defs>
      <use xlink:href="#DejaVuSans-4c"/>
      <use xlink:href="#DejaVuSans-65" transform="translate(53.962891 0)"/>
      <use xlink:href="#DejaVuSans-61" transform="translate(115.486328 0)"/>
      <use xlink:href="#DejaVuSans-72" transform="translate(176.765625 0)"/>
      <use xlink:href="#DejaVuSans-6e" transform="translate(216.128906 0)"/>
      <use xlink:href="#DejaVuSans-69" transform="translate(279.507812 0)"/>
      <use xlink:href="#DejaVuSans-6e" transform="translate(307.291016 0)"/>
      <use xlink:href="#DejaVuSans-67" transform="translate(370.669922 0)"/>
      <use xlink:href="#DejaVuSans-20" transform="translate(434.146484 0)"/>
      <use xlink:href="#DejaVuSans-72" transform="translate(465.933594 0)"/>
      <use xlink:href="#DejaVuSans-61" transform="translate(507.046875 0)"/>
      <use xlink:href="#DejaVuSans-74" transform="translate(568.326172 0)"/>
      <use xlink:href="#DejaVuSans-65" transform="translate(607.535156 0)"/>
     </g>
    </g>
   </g>
  </g>
  <g id="axes_2">
   <g id="matplotlib.axis_3">
    <g id="ytick_11">
     <g id="line2d_32">
      <defs>
       <path id="mecb3e81cc9" d="M 0 0 
L 3.5 0 
" style="stroke: #000000; stroke-width: 0.8"/>
      </defs>
      <g>
       <use xlink:href="#mecb3e81cc9" x="410.954437" y="227.32" style="stroke: #000000; stroke-width: 0.8"/>
      </g>
     </g>
     <g id="text_14">
      <!-- 0.0 -->
      <g style="fill: #d62728" transform="translate(417.954437 231.119219) scale(0.1 -0.1)">
       <defs>
        <path id="DejaVuSans-2e" d="M 684 794 
L 1344 794 
L 1344 0 
L 684 0 
L 684 794 
z
" transform="scale(0.015625)"/>
       </defs>
       <use xlink:href="#DejaVuSans-30"/>
       <use xlink:href="#DejaVuSans-2e" transform="translate(63.623047 0)"/>
       <use xlink:href="#DejaVuSans-30" transform="translate(95.410156 0)"/>
      </g>
     </g>
    </g>
    <g id="ytick_12">
     <g id="line2d_33">
      <g>
       <use xlink:href="#mecb3e81cc9" x="410.954437" y="185.392381" style="stroke: #000000; stroke-width: 0.8"/>
      </g>
     </g>
     <g id="text_15">
      <!-- 0.2 -->
      <g style="fill: #d62728" transform="translate(417.954437 189.1916) scale(0.1 -0.1)">
       <use xlink:href="#DejaVuSans-30"/>
       <use xlink:href="#DejaVuSans-2e" transform="translate(63.623047 0)"/>
       <use xlink:href="#DejaVuSans-32" transform="translate(95.410156 0)"/>
      </g>
     </g>
    </g>
    <g id="ytick_13">
     <g id="line2d_34">
      <g>
       <use xlink:href="#mecb3e81cc9" x="410.954437" y="143.464762" style="stroke: #000000; stroke-width: 0.8"/>
      </g>
     </g>
     <g id="text_16">
      <!-- 0.4 -->
      <g style="fill: #d62728" transform="translate(417.954437 147.263981) scale(0.1 -0.1)">
       <defs>
        <path id="DejaVuSans-34" d="M 2419 4116 
L 825 1625 
L 2419 1625 
L 2419 4116 
z
M 2253 4666 
L 3047 4666 
L 3047 1625 
L 3713 1625 
L 3713 1100 
L 3047 1100 
L 3047 0 
L 2419 0 
L 2419 1100 
L 313 1100 
L 313 1709 
L 2253 4666 
z
" transform="scale(0.015625)"/>
       </defs>
       <use xlink:href="#DejaVuSans-30"/>
       <use xlink:href="#DejaVuSans-2e" transform="translate(63.623047 0)"/>
       <use xlink:href="#DejaVuSans-34" transform="translate(95.410156 0)"/>
      </g>
     </g>
    </g>
    <g id="ytick_14">
     <g id="line2d_35">
      <g>
       <use xlink:href="#mecb3e81cc9" x="410.954437" y="101.537143" style="stroke: #000000; stroke-width: 0.8"/>
      </g>
     </g>
     <g id="text_17">
      <!-- 0.6 -->
      <g style="fill: #d62728" transform="translate(417.954437 105.336362) scale(0.1 -0.1)">
       <defs>
        <path id="DejaVuSans-36" d="M 2113 2584 
Q 1688 2584 1439 2293 
Q 1191 2003 1191 1497 
Q 1191 994 1439 701 
Q 1688 409 2113 409 
Q 2538 409 2786 701 
Q 3034 994 3034 1497 
Q 3034 2003 2786 2293 
Q 2538 2584 2113 2584 
z
M 3366 4563 
L 3366 3988 
Q 3128 4100 2886 4159 
Q 2644 4219 2406 4219 
Q 1781 4219 1451 3797 
Q 1122 3375 1075 2522 
Q 1259 2794 1537 2939 
Q 1816 3084 2150 3084 
Q 2853 3084 3261 2657 
Q 3669 2231 3669 1497 
Q 3669 778 3244 343 
Q 2819 -91 2113 -91 
Q 1303 -91 875 529 
Q 447 1150 447 2328 
Q 447 3434 972 4092 
Q 1497 4750 2381 4750 
Q 2619 4750 2861 4703 
Q 3103 4656 3366 4563 
z
" transform="scale(0.015625)"/>
       </defs>
       <use xlink:href="#DejaVuSans-30"/>
       <use xlink:href="#DejaVuSans-2e" transform="translate(63.623047 0)"/>
       <use xlink:href="#DejaVuSans-36" transform="translate(95.410156 0)"/>
      </g>
     </g>
    </g>
    <g id="ytick_15">
     <g id="line2d_36">
      <g>
       <use xlink:href="#mecb3e81cc9" x="410.954437" y="59.609524" style="stroke: #000000; stroke-width: 0.8"/>
      </g>
     </g>
     <g id="text_18">
      <!-- 0.8 -->
      <g style="fill: #d62728" transform="translate(417.954437 63.408743) scale(0.1 -0.1)">
       <defs>
        <path id="DejaVuSans-38" d="M 2034 2216 
Q 1584 2216 1326 1975 
Q 1069 1734 1069 1313 
Q 1069 891 1326 650 
Q 1584 409 2034 409 
Q 2484 409 2743 651 
Q 3003 894 3003 1313 
Q 3003 1734 2745 1975 
Q 2488 2216 2034 2216 
z
M 1403 2484 
Q 997 2584 770 2862 
Q 544 3141 544 3541 
Q 544 4100 942 4425 
Q 1341 4750 2034 4750 
Q 2731 4750 3128 4425 
Q 3525 4100 3525 3541 
Q 3525 3141 3298 2862 
Q 3072 2584 2669 2484 
Q 3125 2378 3379 2068 
Q 3634 1759 3634 1313 
Q 3634 634 3220 271 
Q 2806 -91 2034 -91 
Q 1263 -91 848 271 
Q 434 634 434 1313 
Q 434 1759 690 2068 
Q 947 2378 1403 2484 
z
M 1172 3481 
Q 1172 3119 1398 2916 
Q 1625 2713 2034 2713 
Q 2441 2713 2670 2916 
Q 2900 3119 2900 3481 
Q 2900 3844 2670 4047 
Q 2441 4250 2034 4250 
Q 1625 4250 1398 4047 
Q 1172 3844 1172 3481 
z
" transform="scale(0.015625)"/>
       </defs>
       <use xlink:href="#DejaVuSans-30"/>
       <use xlink:href="#DejaVuSans-2e" transform="translate(63.623047 0)"/>
       <use xlink:href="#DejaVuSans-38" transform="translate(95.410156 0)"/>
      </g>
     </g>
    </g>
    <g id="ytick_16">
     <g id="line2d_37">
      <g>
       <use xlink:href="#mecb3e81cc9" x="410.954437" y="17.681905" style="stroke: #000000; stroke-width: 0.8"/>
      </g>
     </g>
     <g id="text_19">
      <!-- 1.0 -->
      <g style="fill: #d62728" transform="translate(417.954437 21.481124) scale(0.1 -0.1)">
       <use xlink:href="#DejaVuSans-31"/>
       <use xlink:href="#DejaVuSans-2e" transform="translate(63.623047 0)"/>
       <use xlink:href="#DejaVuSans-30" transform="translate(95.410156 0)"/>
      </g>
     </g>
    </g>
    <g id="text_20">
     <!-- Learning rate ($\times 10^{-3}$) -->
     <g style="fill: #d62728" transform="translate(447.867562 177.815) rotate(-90) scale(0.11 -0.11)">
      <defs>
       <path id="DejaVuSans-d7" d="M 4488 3438 
L 3059 2003 
L 4488 575 
L 4116 197 
L 2681 1631 
L 1247 197 
L 878 575 
L 2303 2003 
L 878 3438 
L 1247 3816 
L 2681 2381 
L 4116 3816 
L 4488 3438 
z
" transform="scale(0.015625)"/>
       <path id="DejaVuSans-2212" d="M 678 2272 
L 4684 2272 
L 4684 1741 
L 678 1741 
L 678 2272 
z
" transform="scale(0.015625)"/>
       <path id="DejaVuSans-33" d="M 2597 2516 
Q 3050 2419 3304 2112 
Q 3559 1806 3559 1356 
Q 3559 666 3084 287 
Q 2609 -91 1734 -91 
Q 1441 -91 1130 -33 
Q 819 25 488 141 
L 488 750 
Q 750 597 1062 519 
Q 1375 441 1716 441 
Q 2309 441 2620 675 
Q 2931 909 2931 1356 
Q 2931 1769 2642 2001 
Q 2353 2234 1838 2234 
L 1294 2234 
L 1294 2753 
L 1863 2753 
Q 2328 2753 2575 2939 
Q 2822 3125 2822 3475 
Q 2822 3834 2567 4026 
Q 2313 4219 1838 4219 
Q 1578 4219 1281 4162 
Q 984 4106 628 3988 
L 628 4550 
Q 988 4650 1302 4700 
Q 1616 4750 1894 4750 
Q 2613 4750 3031 4423 
Q 3450 4097 3450 3541 
Q 3450 3153 3228 2886 
Q 3006 2619 2597 2516 
z
" transform="scale(0.015625)"/>
      </defs>
      <use xlink:href="#DejaVuSans-4c" transform="translate(0 0.765625)"/>
      <use xlink:href="#DejaVuSans-65" transform="translate(55.712891 0.765625)"/>
      <use xlink:href="#DejaVuSans-61" transform="translate(117.236328 0.765625)"/>
      <use xlink:href="#DejaVuSans-72" transform="translate(178.515625 0.765625)"/>
      <use xlink:href="#DejaVuSans-6e" transform="translate(219.628906 0.765625)"/>
      <use xlink:href="#DejaVuSans-69" transform="translate(283.007812 0.765625)"/>
      <use xlink:href="#DejaVuSans-6e" transform="translate(310.791016 0.765625)"/>
      <use xlink:href="#DejaVuSans-67" transform="translate(374.169922 0.765625)"/>
      <use xlink:href="#DejaVuSans-20" transform="translate(437.646484 0.765625)"/>
      <use xlink:href="#DejaVuSans-72" transform="translate(469.433594 0.765625)"/>
      <use xlink:href="#DejaVuSans-61" transform="translate(510.546875 0.765625)"/>
      <use xlink:href="#DejaVuSans-74" transform="translate(571.826172 0.765625)"/>
      <use xlink:href="#DejaVuSans-65" transform="translate(611.035156 0.765625)"/>
      <use xlink:href="#DejaVuSans-20" transform="translate(672.558594 0.765625)"/>
      <use xlink:href="#DejaVuSans-28" transform="translate(704.345703 0.765625)"/>
      <use xlink:href="#DejaVuSans-d7" transform="translate(743.359375 0.765625)"/>
      <use xlink:href="#DejaVuSans-31" transform="translate(827.148438 0.765625)"/>
      <use xlink:href="#DejaVuSans-30" transform="translate(890.771484 0.765625)"/>
      <use xlink:href="#DejaVuSans-2212" transform="translate(955.351562 39.046875) scale(0.7)"/>
      <use xlink:href="#DejaVuSans-33" transform="translate(1014.003906 39.046875) scale(0.7)"/>
      <use xlink:href="#DejaVuSans-29" transform="translate(1061.274414 0.765625)"/>
     </g>
    </g>
   </g>
   <g id="line2d_38">
    <path d="M 35.208438 17.681905 
L 38.984779 17.681905 
L 40.87295 17.891543 
L 42.761121 17.891543 
L 44.649292 18.101181 
L 46.537463 18.101181 
L 55.978317 19.149371 
L 57.866488 19.568648 
L 59.754659 19.778286 
L 72.971855 22.713219 
L 76.748196 23.971048 
L 78.636367 24.390324 
L 86.189051 26.905981 
L 88.077221 27.744533 
L 91.853563 29.002362 
L 106.95893 35.710781 
L 108.847101 36.758971 
L 110.735272 37.597524 
L 123.952468 44.934857 
L 125.840639 46.192686 
L 129.61698 48.289067 
L 133.393322 50.804724 
L 135.281493 51.852914 
L 142.834176 56.884229 
L 144.722347 58.351695 
L 150.38686 62.125181 
L 152.27503 63.592648 
L 154.163201 64.850476 
L 157.939543 67.78541 
L 159.827714 69.043238 
L 174.933081 80.782971 
L 176.821252 82.460076 
L 180.597593 85.39501 
L 182.485764 87.072114 
L 186.262106 90.007048 
L 190.038448 93.361257 
L 191.926618 94.828724 
L 193.814789 96.505829 
L 195.70296 97.973295 
L 199.479302 101.327505 
L 201.367473 102.794971 
L 207.031985 107.826286 
L 208.920156 109.293752 
L 216.47284 116.002171 
L 218.36101 117.469638 
L 229.690035 127.532267 
L 231.578206 128.999733 
L 239.13089 135.708152 
L 241.019061 137.175619 
L 246.683573 142.206933 
L 248.571744 143.6744 
L 252.348086 147.02861 
L 254.236257 148.496076 
L 256.124427 150.173181 
L 258.012598 151.640648 
L 261.78894 154.994857 
L 265.565282 157.92979 
L 267.453453 159.606895 
L 271.229794 162.541829 
L 273.117965 164.218933 
L 288.223332 175.958667 
L 290.111503 177.216495 
L 293.887845 180.151429 
L 295.776015 181.409257 
L 297.664186 182.876724 
L 303.328699 186.65021 
L 305.21687 188.117676 
L 312.769553 193.14899 
L 314.657724 194.197181 
L 318.434066 196.712838 
L 322.210407 198.809219 
L 324.098578 200.067048 
L 337.315774 207.404381 
L 339.203945 208.242933 
L 341.092116 209.291124 
L 356.197483 215.999543 
L 359.973824 217.257371 
L 361.861995 218.095924 
L 369.414679 220.611581 
L 371.30285 221.030857 
L 375.079191 222.288686 
L 388.296387 225.223619 
L 390.184558 225.433257 
L 392.072729 225.852533 
L 401.513583 226.900724 
L 403.401754 226.900724 
L 405.289925 227.110362 
L 407.178096 227.110362 
L 409.066267 227.32 
L 410.954437 227.32 
L 410.954437 227.32 
" clip-path="url(#p418f44948c)" style="fill: none; stroke-dasharray: 5.18,2.24; stroke-dashoffset: 0; stroke: #d62728; stroke-width: 1.4"/>
   </g>
   <g id="patch_8">
    <path d="M 35.208438 227.32 
L 35.208438 7.2 
" style="fill: none; stroke: #000000; stroke-width: 0.8; stroke-linejoin: miter; stroke-linecap: square"/>
   </g>
   <g id="patch_9">
    <path d="M 410.954437 227.32 
L 410.954437 7.2 
" style="fill: none; stroke: #000000; stroke-width: 0.8; stroke-linejoin: miter; stroke-linecap: square"/>
   </g>
   <g id="patch_10">
    <path d="M 35.208438 227.32 
L 410.954437 227.32 
" style="fill: none; stroke: #000000; stroke-width: 0.8; stroke-linejoin: miter; stroke-linecap: square"/>
   </g>
   <g id="patch_11">
    <path d="M 35.208438 7.2 
L 410.954437 7.2 
" style="fill: none; stroke: #000000; stroke-width: 0.8; stroke-linejoin: miter; stroke-linecap: square"/>
   </g>
  </g>
 </g>
 <defs>
  <clipPath id="p418f44948c">
   <rect x="35.208438" y="7.2" width="375.746" height="220.12"/>
  </clipPath>
 </defs>
</svg>
