<?xml version="1.0" encoding="utf-8" standalone="no"?>
<!DOCTYPE svg PUBLIC "-//W3C//DTD SVG 1.1//EN"
  "http://www.w3.org/Graphics/SVG/1.1/DTD/svg11.dtd">
<svg xmlns:xlink="http://www.w3.org/1999/xlink" width="460.55875pt" height="315.428344pt" viewBox="0 0 460.55875 315.428344" xmlns="http://www.w3.org/2000/svg" version="1.1">
 <metadata>
  <rdf:RDF xmlns:dc="http://purl.org/dc/elements/1.1/" xmlns:cc="http://creativecommons.org/ns#" xmlns:rdf="http://www.w3.org/1999/02/22-rdf-syntax-ns#">
   <cc:Work>
    <dc:type rdf:resource="http://purl.org/dc/dcmitype/StillImage"/>
    <dc:date>2026-05-25T00:27:32.685345</dc:date>
    <dc:format>image/svg+xml</dc:format>
    <dc:creator>
     <cc:Agent>
      <dc:title>Matplotlib v3.10.9, https://matplotlib.org/</dc:title>
     </cc:Agent>
    </dc:creator>
   </cc:Work>
  </rdf:RDF>
 </metadata>
 <defs>
  <style type="text/css">*{stroke-linejoin: round; stroke-linecap: butt}</style>
 </defs>
 <g id="figure_1">
  <g id="patch_1">
   <path d="M 0 315.428344 
L 460.55875 315.428344 
L 460.55875 0 
L 0 0 
z
" style="fill: #ffffff"/>
  </g>
  <g id="axes_1">
   <g id="patch_2">
    <path d="M 43.15875 282.44 
L 453.35875 282.44 
L 453.35875 7.2 
L 43.15875 7.2 
z
" style="fill: #ffffff"/>
   </g>
   <g id="FillBetweenPolyCollection_1">
    <defs>
     <path id="m95a12b4e56" d="M 112.451449 -66.97567 
L 104.384233 -66.97567 
L 103.772284 -68.831956 
L 103.100584 -70.688241 
L 102.364384 -72.544527 
L 101.558411 -74.400812 
L 100.677227 -76.257097 
L 99.715773 -78.113383 
L 98.670068 -79.969668 
L 97.538028 -81.825954 
L 96.320356 -83.682239 
L 95.021427 -85.538525 
L 93.650075 -87.39481 
L 92.220187 -89.251096 
L 90.750989 -91.107381 
L 89.266947 -92.963666 
L 87.797213 -94.819952 
L 86.374582 -96.676237 
L 85.034013 -98.532523 
L 83.810782 -100.388808 
L 82.738424 -102.245094 
L 81.846647 -104.101379 
L 81.159412 -105.957665 
L 80.69339 -107.81395 
L 80.456931 -109.670235 
L 80.449659 -111.526521 
L 80.662707 -113.382806 
L 81.079544 -115.239092 
L 81.677289 -117.095377 
L 82.428351 -118.951663 
L 83.302218 -120.807948 
L 84.267247 -122.664234 
L 85.292305 -124.520519 
L 86.348155 -126.376805 
L 87.408551 -128.23309 
L 88.451003 -130.089375 
L 89.45724 -131.945661 
L 90.413391 -133.801946 
L 91.309941 -135.658232 
L 92.1415 -137.514517 
L 92.906425 -139.370803 
L 93.606358 -141.227088 
L 94.245687 -143.083374 
L 94.830996 -144.939659 
L 95.370502 -146.795944 
L 95.87351 -148.65223 
L 96.349894 -150.508515 
L 96.809598 -152.364801 
L 97.262163 -154.221086 
L 97.716261 -156.077372 
L 98.179257 -157.933657 
L 98.656791 -159.789943 
L 99.152426 -161.646228 
L 99.66738 -163.502513 
L 100.200389 -165.358799 
L 100.74775 -167.215084 
L 101.303534 -169.07137 
L 101.86 -170.927655 
L 102.408163 -172.783941 
L 102.938464 -174.640226 
L 103.441482 -176.496512 
L 103.908615 -178.352797 
L 104.332657 -180.209082 
L 104.708236 -182.065368 
L 105.032086 -183.921653 
L 105.303154 -185.777939 
L 105.522568 -187.634224 
L 105.693494 -189.49051 
L 105.820903 -191.346795 
L 105.911289 -193.203081 
L 105.972333 -195.059366 
L 106.012514 -196.915651 
L 106.040683 -198.771937 
L 106.06559 -200.628222 
L 106.095374 -202.484508 
L 106.137071 -204.340793 
L 106.196149 -206.197079 
L 106.276153 -208.053364 
L 106.378483 -209.90965 
L 106.502356 -211.765935 
L 106.644957 -213.62222 
L 106.801771 -215.478506 
L 106.96705 -217.334791 
L 107.134375 -219.191077 
L 107.297233 -221.047362 
L 107.449555 -222.903648 
L 107.586166 -224.759933 
L 107.703105 -226.616219 
L 107.797823 -228.472504 
L 107.869232 -230.328789 
L 107.917663 -232.185075 
L 107.944721 -234.04136 
L 107.953082 -235.897646 
L 107.946252 -237.753931 
L 107.928294 -239.610217 
L 107.903555 -241.466502 
L 107.876378 -243.322788 
L 107.850839 -245.179073 
L 107.830496 -247.035358 
L 107.818189 -248.891644 
L 107.815888 -250.747929 
L 109.019793 -250.747929 
L 109.019793 -250.747929 
L 109.017493 -248.891644 
L 109.005186 -247.035358 
L 108.984843 -245.179073 
L 108.959304 -243.322788 
L 108.932127 -241.466502 
L 108.907388 -239.610217 
L 108.88943 -237.753931 
L 108.882599 -235.897646 
L 108.89096 -234.04136 
L 108.918018 -232.185075 
L 108.96645 -230.328789 
L 109.037859 -228.472504 
L 109.132576 -226.616219 
L 109.249516 -224.759933 
L 109.386126 -222.903648 
L 109.538449 -221.047362 
L 109.701307 -219.191077 
L 109.868632 -217.334791 
L 110.033911 -215.478506 
L 110.190725 -213.62222 
L 110.333326 -211.765935 
L 110.457199 -209.90965 
L 110.559529 -208.053364 
L 110.639532 -206.197079 
L 110.698611 -204.340793 
L 110.740307 -202.484508 
L 110.770092 -200.628222 
L 110.794999 -198.771937 
L 110.823168 -196.915651 
L 110.863349 -195.059366 
L 110.924392 -193.203081 
L 111.014779 -191.346795 
L 111.142188 -189.49051 
L 111.313113 -187.634224 
L 111.532528 -185.777939 
L 111.803596 -183.921653 
L 112.127446 -182.065368 
L 112.503025 -180.209082 
L 112.927067 -178.352797 
L 113.3942 -176.496512 
L 113.897218 -174.640226 
L 114.427518 -172.783941 
L 114.975682 -170.927655 
L 115.532148 -169.07137 
L 116.087932 -167.215084 
L 116.635293 -165.358799 
L 117.168302 -163.502513 
L 117.683255 -161.646228 
L 118.178891 -159.789943 
L 118.656425 -157.933657 
L 119.119421 -156.077372 
L 119.573519 -154.221086 
L 120.026083 -152.364801 
L 120.485788 -150.508515 
L 120.962172 -148.65223 
L 121.46518 -146.795944 
L 122.004686 -144.939659 
L 122.589995 -143.083374 
L 123.229324 -141.227088 
L 123.929256 -139.370803 
L 124.694182 -137.514517 
L 125.525741 -135.658232 
L 126.422291 -133.801946 
L 127.378442 -131.945661 
L 128.384678 -130.089375 
L 129.427131 -128.23309 
L 130.487527 -126.376805 
L 131.543377 -124.520519 
L 132.568435 -122.664234 
L 133.533464 -120.807948 
L 134.407331 -118.951663 
L 135.158392 -117.095377 
L 135.756138 -115.239092 
L 136.172975 -113.382806 
L 136.386023 -111.526521 
L 136.378751 -109.670235 
L 136.142292 -107.81395 
L 135.67627 -105.957665 
L 134.989035 -104.101379 
L 134.097257 -102.245094 
L 133.0249 -100.388808 
L 131.801669 -98.532523 
L 130.4611 -96.676237 
L 129.038469 -94.819952 
L 127.568735 -92.963666 
L 126.084693 -91.107381 
L 124.615495 -89.251096 
L 123.185607 -87.39481 
L 121.814255 -85.538525 
L 120.515326 -83.682239 
L 119.297654 -81.825954 
L 118.165613 -79.969668 
L 117.119909 -78.113383 
L 116.158455 -76.257097 
L 115.277271 -74.400812 
L 114.471298 -72.544527 
L 113.735098 -70.688241 
L 113.063398 -68.831956 
L 112.451449 -66.97567 
z
" style="stroke: #4c72b0; stroke-opacity: 0.35; stroke-width: 1.2"/>
    </defs>
    <g clip-path="url(#pe5107c8092)">
     <use xlink:href="#m95a12b4e56" x="0" y="315.428344" style="fill: #4c72b0; fill-opacity: 0.35; stroke: #4c72b0; stroke-opacity: 0.35; stroke-width: 1.2"/>
    </g>
   </g>
   <g id="FillBetweenPolyCollection_2">
    <defs>
     <path id="m69d2111ec5" d="M 213.38184 -68.021029 
L 189.908387 -68.021029 
L 188.512229 -69.608809 
L 187.115204 -71.19659 
L 185.740342 -72.784371 
L 184.408833 -74.372151 
L 183.138861 -75.959932 
L 181.944701 -77.547713 
L 180.836194 -79.135493 
L 179.818623 -80.723274 
L 178.89303 -82.311055 
L 178.056908 -83.898835 
L 177.305209 -85.486616 
L 176.631531 -87.074397 
L 176.029369 -88.662178 
L 175.493293 -90.249958 
L 175.019931 -91.837739 
L 174.608676 -93.42552 
L 174.262075 -95.0133 
L 173.985864 -96.601081 
L 173.788692 -98.188862 
L 173.681542 -99.776642 
L 173.676932 -101.364423 
L 173.787929 -102.952204 
L 174.027043 -104.539984 
L 174.405078 -106.127765 
L 174.929985 -107.715546 
L 175.60582 -109.303326 
L 176.431883 -110.891107 
L 177.402122 -112.478888 
L 178.504893 -114.066668 
L 179.723131 -115.654449 
L 181.034968 -117.24223 
L 182.414761 -118.83001 
L 183.834474 -120.417791 
L 185.265284 -122.005572 
L 186.679257 -123.593352 
L 188.050925 -125.181133 
L 189.358587 -126.768914 
L 190.585218 -128.356694 
L 191.718906 -129.944475 
L 192.752793 -131.532256 
L 193.684593 -133.120036 
L 194.515772 -134.707817 
L 195.250554 -136.295598 
L 195.894889 -137.883378 
L 196.455536 -139.471159 
L 196.939352 -141.05894 
L 197.352851 -142.646721 
L 197.702034 -144.234501 
L 197.992445 -145.822282 
L 198.229383 -147.410063 
L 198.418176 -148.997843 
L 198.564427 -150.585624 
L 198.674175 -152.173405 
L 198.753917 -153.761185 
L 198.810493 -155.348966 
L 198.850854 -156.936747 
L 198.881765 -158.524527 
L 198.909483 -160.112308 
L 198.939481 -161.700089 
L 198.976241 -163.287869 
L 199.023158 -164.87565 
L 199.082529 -166.463431 
L 199.155634 -168.051211 
L 199.242858 -169.638992 
L 199.343836 -171.226773 
L 199.457585 -172.814553 
L 199.582598 -174.402334 
L 199.716911 -175.990115 
L 199.858142 -177.577895 
L 200.003524 -179.165676 
L 200.14995 -180.753457 
L 200.294058 -182.341237 
L 200.432354 -183.929018 
L 200.561378 -185.516799 
L 200.677913 -187.104579 
L 200.779194 -188.69236 
L 200.863113 -190.280141 
L 200.92838 -191.867922 
L 200.974625 -193.455702 
L 201.00242 -195.043483 
L 201.013229 -196.631264 
L 201.009265 -198.219044 
L 200.993299 -199.806825 
L 200.968421 -201.394606 
L 200.937788 -202.982386 
L 200.904396 -204.570167 
L 200.870886 -206.157948 
L 200.839422 -207.745728 
L 200.811642 -209.333509 
L 200.788679 -210.92129 
L 200.771244 -212.50907 
L 200.759748 -214.096851 
L 200.754434 -215.684632 
L 200.755488 -217.272412 
L 200.763118 -218.860193 
L 200.777567 -220.447974 
L 200.799087 -222.035754 
L 200.827856 -223.623535 
L 200.863887 -225.211316 
L 202.426341 -225.211316 
L 202.426341 -225.211316 
L 202.462371 -223.623535 
L 202.491141 -222.035754 
L 202.51266 -220.447974 
L 202.527109 -218.860193 
L 202.534739 -217.272412 
L 202.535794 -215.684632 
L 202.530479 -214.096851 
L 202.518983 -212.50907 
L 202.501548 -210.92129 
L 202.478585 -209.333509 
L 202.450805 -207.745728 
L 202.419342 -206.157948 
L 202.385832 -204.570167 
L 202.352439 -202.982386 
L 202.321807 -201.394606 
L 202.296928 -199.806825 
L 202.280963 -198.219044 
L 202.276999 -196.631264 
L 202.287807 -195.043483 
L 202.315603 -193.455702 
L 202.361847 -191.867922 
L 202.427114 -190.280141 
L 202.511033 -188.69236 
L 202.612315 -187.104579 
L 202.72885 -185.516799 
L 202.857874 -183.929018 
L 202.996169 -182.341237 
L 203.140277 -180.753457 
L 203.286704 -179.165676 
L 203.432085 -177.577895 
L 203.573316 -175.990115 
L 203.707629 -174.402334 
L 203.832642 -172.814553 
L 203.946391 -171.226773 
L 204.04737 -169.638992 
L 204.134593 -168.051211 
L 204.207698 -166.463431 
L 204.267069 -164.87565 
L 204.313986 -163.287869 
L 204.350747 -161.700089 
L 204.380744 -160.112308 
L 204.408462 -158.524527 
L 204.439373 -156.936747 
L 204.479734 -155.348966 
L 204.53631 -153.761185 
L 204.616052 -152.173405 
L 204.725801 -150.585624 
L 204.872052 -148.997843 
L 205.060844 -147.410063 
L 205.297782 -145.822282 
L 205.588193 -144.234501 
L 205.937376 -142.646721 
L 206.350875 -141.05894 
L 206.834692 -139.471159 
L 207.395339 -137.883378 
L 208.039674 -136.295598 
L 208.774455 -134.707817 
L 209.605634 -133.120036 
L 210.537434 -131.532256 
L 211.571322 -129.944475 
L 212.705009 -128.356694 
L 213.931641 -126.768914 
L 215.239302 -125.181133 
L 216.61097 -123.593352 
L 218.024944 -122.005572 
L 219.455753 -120.417791 
L 220.875466 -118.83001 
L 222.255259 -117.24223 
L 223.567096 -115.654449 
L 224.785335 -114.066668 
L 225.888105 -112.478888 
L 226.858344 -110.891107 
L 227.684407 -109.303326 
L 228.360242 -107.715546 
L 228.885149 -106.127765 
L 229.263184 -104.539984 
L 229.502299 -102.952204 
L 229.613295 -101.364423 
L 229.608686 -99.776642 
L 229.501536 -98.188862 
L 229.304363 -96.601081 
L 229.028153 -95.0133 
L 228.681551 -93.42552 
L 228.270297 -91.837739 
L 227.796934 -90.249958 
L 227.260858 -88.662178 
L 226.658696 -87.074397 
L 225.985018 -85.486616 
L 225.233319 -83.898835 
L 224.397198 -82.311055 
L 223.471604 -80.723274 
L 222.454033 -79.135493 
L 221.345526 -77.547713 
L 220.151366 -75.959932 
L 218.881394 -74.372151 
L 217.549886 -72.784371 
L 216.175023 -71.19659 
L 214.777998 -69.608809 
L 213.38184 -68.021029 
z
" style="stroke: #55a868; stroke-opacity: 0.35; stroke-width: 1.2"/>
    </defs>
    <g clip-path="url(#pe5107c8092)">
     <use xlink:href="#m69d2111ec5" x="0" y="315.428344" style="fill: #55a868; fill-opacity: 0.35; stroke: #55a868; stroke-opacity: 0.35; stroke-width: 1.2"/>
    </g>
   </g>
   <g id="FillBetweenPolyCollection_3">
    <defs>
     <path id="ma41fa9618b" d="M 300.545663 -50.153305 
L 289.19911 -50.153305 
L 288.239465 -51.1023 
L 287.182086 -52.051295 
L 286.031154 -53.00029 
L 284.793988 -53.949285 
L 283.481101 -54.89828 
L 282.106093 -55.847275 
L 280.685378 -56.796269 
L 279.237754 -57.745264 
L 277.783843 -58.694259 
L 276.345432 -59.643254 
L 274.944758 -60.592249 
L 273.603771 -61.541244 
L 272.343422 -62.490239 
L 271.183009 -63.439234 
L 270.139597 -64.388228 
L 269.227543 -65.337223 
L 268.458119 -66.286218 
L 267.83925 -67.235213 
L 267.375347 -68.184208 
L 267.067244 -69.133203 
L 266.912235 -70.082198 
L 266.904205 -71.031193 
L 267.033861 -71.980187 
L 267.289064 -72.929182 
L 267.655262 -73.878177 
L 268.116015 -74.827172 
L 268.653612 -75.776167 
L 269.249745 -76.725162 
L 269.886223 -77.674157 
L 270.54568 -78.623152 
L 271.212243 -79.572146 
L 271.872113 -80.521141 
L 272.514026 -81.470136 
L 273.129546 -82.419131 
L 273.7132 -83.368126 
L 274.262417 -84.317121 
L 274.777303 -85.266116 
L 275.260264 -86.215111 
L 275.715511 -87.164105 
L 276.148499 -88.1131 
L 276.565328 -89.062095 
L 276.972176 -90.01109 
L 277.374784 -90.960085 
L 277.778032 -91.90908 
L 278.185643 -92.858075 
L 278.600005 -93.80707 
L 279.022128 -94.756064 
L 279.451716 -95.705059 
L 279.887344 -96.654054 
L 280.326695 -97.603049 
L 280.766859 -98.552044 
L 281.20463 -99.501039 
L 281.636807 -100.450034 
L 282.060445 -101.399029 
L 282.473075 -102.348024 
L 282.872855 -103.297018 
L 283.258664 -104.246013 
L 283.630144 -105.195008 
L 283.987691 -106.144003 
L 284.332404 -107.092998 
L 284.666003 -108.041993 
L 284.990721 -108.990988 
L 285.309175 -109.939983 
L 285.624216 -110.888977 
L 285.93877 -111.837972 
L 286.255664 -112.786967 
L 286.577437 -113.735962 
L 286.906164 -114.684957 
L 287.24328 -115.633952 
L 287.589429 -116.582947 
L 287.944356 -117.531942 
L 288.306843 -118.480936 
L 288.674714 -119.429931 
L 289.044903 -120.378926 
L 289.413593 -121.327921 
L 289.776421 -122.276916 
L 290.128724 -123.225911 
L 290.465829 -124.174906 
L 290.783336 -125.123901 
L 291.077406 -126.072895 
L 291.344995 -127.02189 
L 291.58405 -127.970885 
L 291.79363 -128.91988 
L 291.97395 -129.868875 
L 292.126355 -130.81787 
L 292.253217 -131.766865 
L 292.357777 -132.71586 
L 292.443932 -133.664854 
L 292.515996 -134.613849 
L 292.578447 -135.562844 
L 292.63568 -136.511839 
L 292.691775 -137.460834 
L 292.750307 -138.409829 
L 292.814193 -139.358824 
L 292.885592 -140.307819 
L 292.965858 -141.256813 
L 293.055541 -142.205808 
L 293.154438 -143.154803 
L 293.261681 -144.103798 
L 296.483092 -144.103798 
L 296.483092 -144.103798 
L 296.590335 -143.154803 
L 296.689232 -142.205808 
L 296.778915 -141.256813 
L 296.85918 -140.307819 
L 296.93058 -139.358824 
L 296.994466 -138.409829 
L 297.052998 -137.460834 
L 297.109093 -136.511839 
L 297.166326 -135.562844 
L 297.228777 -134.613849 
L 297.300841 -133.664854 
L 297.386995 -132.71586 
L 297.491556 -131.766865 
L 297.618418 -130.81787 
L 297.770822 -129.868875 
L 297.951142 -128.91988 
L 298.160722 -127.970885 
L 298.399778 -127.02189 
L 298.667367 -126.072895 
L 298.961437 -125.123901 
L 299.278944 -124.174906 
L 299.616049 -123.225911 
L 299.968352 -122.276916 
L 300.331179 -121.327921 
L 300.69987 -120.378926 
L 301.070058 -119.429931 
L 301.43793 -118.480936 
L 301.800417 -117.531942 
L 302.155344 -116.582947 
L 302.501493 -115.633952 
L 302.838608 -114.684957 
L 303.167335 -113.735962 
L 303.489109 -112.786967 
L 303.806002 -111.837972 
L 304.120557 -110.888977 
L 304.435598 -109.939983 
L 304.754052 -108.990988 
L 305.07877 -108.041993 
L 305.412369 -107.092998 
L 305.757082 -106.144003 
L 306.114629 -105.195008 
L 306.486109 -104.246013 
L 306.871918 -103.297018 
L 307.271697 -102.348024 
L 307.684328 -101.399029 
L 308.107966 -100.450034 
L 308.540143 -99.501039 
L 308.977914 -98.552044 
L 309.418078 -97.603049 
L 309.857429 -96.654054 
L 310.293056 -95.705059 
L 310.722645 -94.756064 
L 311.144768 -93.80707 
L 311.55913 -92.858075 
L 311.96674 -91.90908 
L 312.369989 -90.960085 
L 312.772596 -90.01109 
L 313.179445 -89.062095 
L 313.596274 -88.1131 
L 314.029261 -87.164105 
L 314.484509 -86.215111 
L 314.967469 -85.266116 
L 315.482356 -84.317121 
L 316.031573 -83.368126 
L 316.615227 -82.419131 
L 317.230747 -81.470136 
L 317.872659 -80.521141 
L 318.53253 -79.572146 
L 319.199093 -78.623152 
L 319.858549 -77.674157 
L 320.495028 -76.725162 
L 321.091161 -75.776167 
L 321.628758 -74.827172 
L 322.089511 -73.878177 
L 322.455709 -72.929182 
L 322.710912 -71.980187 
L 322.840568 -71.031193 
L 322.832538 -70.082198 
L 322.677529 -69.133203 
L 322.369426 -68.184208 
L 321.905523 -67.235213 
L 321.286654 -66.286218 
L 320.51723 -65.337223 
L 319.605175 -64.388228 
L 318.561763 -63.439234 
L 317.40135 -62.490239 
L 316.141002 -61.541244 
L 314.800015 -60.592249 
L 313.399341 -59.643254 
L 311.96093 -58.694259 
L 310.507019 -57.745264 
L 309.059394 -56.796269 
L 307.63868 -55.847275 
L 306.263672 -54.89828 
L 304.950785 -53.949285 
L 303.713618 -53.00029 
L 302.562686 -52.051295 
L 301.505308 -51.1023 
L 300.545663 -50.153305 
z
" style="stroke: #c44e52; stroke-opacity: 0.35; stroke-width: 1.2"/>
    </defs>
    <g clip-path="url(#pe5107c8092)">
     <use xlink:href="#ma41fa9618b" x="0" y="315.428344" style="fill: #c44e52; fill-opacity: 0.35; stroke: #c44e52; stroke-opacity: 0.35; stroke-width: 1.2"/>
    </g>
   </g>
   <g id="FillBetweenPolyCollection_4">
    <defs>
     <path id="m18291ac86e" d="M 393.333074 -44.996789 
L 382.866244 -44.996789 
L 382.147746 -45.612238 
L 381.373667 -46.227687 
L 380.542265 -46.843137 
L 379.651686 -47.458586 
L 378.700312 -48.074035 
L 377.687246 -48.689484 
L 376.612888 -49.304933 
L 375.479551 -49.920382 
L 374.292024 -50.535831 
L 373.058031 -51.15128 
L 371.788484 -51.76673 
L 370.497498 -52.382179 
L 369.20213 -52.997628 
L 367.921831 -53.613077 
L 366.677675 -54.228526 
L 365.491389 -54.843975 
L 364.384307 -55.459424 
L 363.376321 -56.074874 
L 362.484939 -56.690323 
L 361.724534 -57.305772 
L 361.105846 -57.921221 
L 360.635767 -58.53667 
L 360.317411 -59.152119 
L 360.150423 -59.767568 
L 360.131477 -60.383017 
L 360.254871 -60.998467 
L 360.513145 -61.613916 
L 360.897639 -62.229365 
L 361.398935 -62.844814 
L 362.007158 -63.460263 
L 362.712122 -64.075712 
L 363.503343 -64.691161 
L 364.369976 -65.306611 
L 365.300706 -65.92206 
L 366.283657 -66.537509 
L 367.306369 -67.152958 
L 368.355858 -67.768407 
L 369.418781 -68.383856 
L 370.481703 -68.999305 
L 371.531434 -69.614754 
L 372.555414 -70.230204 
L 373.542115 -70.845653 
L 374.481415 -71.461102 
L 375.364918 -72.076551 
L 376.186197 -72.692 
L 376.940942 -73.307449 
L 377.627008 -73.922898 
L 378.244352 -74.538348 
L 378.794885 -75.153797 
L 379.282236 -75.769246 
L 379.711456 -76.384695 
L 380.088682 -77.000144 
L 380.420791 -77.615593 
L 380.715059 -78.231042 
L 380.978854 -78.846491 
L 381.219369 -79.461941 
L 381.443411 -80.07739 
L 381.65724 -80.692839 
L 381.86646 -81.308288 
L 382.075936 -81.923737 
L 382.289748 -82.539186 
L 382.511153 -83.154635 
L 382.742558 -83.770085 
L 382.985496 -84.385534 
L 383.240605 -85.000983 
L 383.507624 -85.616432 
L 383.785401 -86.231881 
L 384.071929 -86.84733 
L 384.364416 -87.462779 
L 384.659381 -88.078228 
L 384.952792 -88.693678 
L 385.240226 -89.309127 
L 385.517055 -89.924576 
L 385.778648 -90.540025 
L 386.020576 -91.155474 
L 386.23881 -91.770923 
L 386.429919 -92.386372 
L 386.591231 -93.001821 
L 386.720989 -93.617271 
L 386.818454 -94.23272 
L 386.883977 -94.848169 
L 386.919029 -95.463618 
L 386.926161 -96.079067 
L 386.908926 -96.694516 
L 386.871732 -97.309965 
L 386.819647 -97.925415 
L 386.758157 -98.540864 
L 386.692898 -99.156313 
L 386.629373 -99.771762 
L 386.572676 -100.387211 
L 386.52725 -101.00266 
L 386.496684 -101.618109 
L 386.483576 -102.233558 
L 386.489464 -102.849008 
L 386.514825 -103.464457 
L 386.55914 -104.079906 
L 386.621011 -104.695355 
L 386.698321 -105.310804 
L 386.78842 -105.926253 
L 389.410898 -105.926253 
L 389.410898 -105.926253 
L 389.500997 -105.310804 
L 389.578307 -104.695355 
L 389.640178 -104.079906 
L 389.684493 -103.464457 
L 389.709854 -102.849008 
L 389.715742 -102.233558 
L 389.702634 -101.618109 
L 389.672068 -101.00266 
L 389.626642 -100.387211 
L 389.569946 -99.771762 
L 389.506421 -99.156313 
L 389.441162 -98.540864 
L 389.379672 -97.925415 
L 389.327586 -97.309965 
L 389.290392 -96.694516 
L 389.273157 -96.079067 
L 389.280289 -95.463618 
L 389.315341 -94.848169 
L 389.380865 -94.23272 
L 389.478329 -93.617271 
L 389.608087 -93.001821 
L 389.7694 -92.386372 
L 389.960508 -91.770923 
L 390.178743 -91.155474 
L 390.42067 -90.540025 
L 390.682264 -89.924576 
L 390.959093 -89.309127 
L 391.246526 -88.693678 
L 391.539937 -88.078228 
L 391.834902 -87.462779 
L 392.127389 -86.84733 
L 392.413917 -86.231881 
L 392.691694 -85.616432 
L 392.958713 -85.000983 
L 393.213822 -84.385534 
L 393.45676 -83.770085 
L 393.688165 -83.154635 
L 393.909571 -82.539186 
L 394.123382 -81.923737 
L 394.332858 -81.308288 
L 394.542078 -80.692839 
L 394.755908 -80.07739 
L 394.979949 -79.461941 
L 395.220464 -78.846491 
L 395.484259 -78.231042 
L 395.778527 -77.615593 
L 396.110636 -77.000144 
L 396.487862 -76.384695 
L 396.917082 -75.769246 
L 397.404433 -75.153797 
L 397.954966 -74.538348 
L 398.57231 -73.922898 
L 399.258376 -73.307449 
L 400.013121 -72.692 
L 400.8344 -72.076551 
L 401.717903 -71.461102 
L 402.657203 -70.845653 
L 403.643905 -70.230204 
L 404.667884 -69.614754 
L 405.717615 -68.999305 
L 406.780537 -68.383856 
L 407.843461 -67.768407 
L 408.892949 -67.152958 
L 409.915661 -66.537509 
L 410.898612 -65.92206 
L 411.829342 -65.306611 
L 412.695975 -64.691161 
L 413.487197 -64.075712 
L 414.19216 -63.460263 
L 414.800383 -62.844814 
L 415.301679 -62.229365 
L 415.686173 -61.613916 
L 415.944447 -60.998467 
L 416.067841 -60.383017 
L 416.048895 -59.767568 
L 415.881907 -59.152119 
L 415.563551 -58.53667 
L 415.093472 -57.921221 
L 414.474784 -57.305772 
L 413.714379 -56.690323 
L 412.822997 -56.074874 
L 411.815011 -55.459424 
L 410.707929 -54.843975 
L 409.521643 -54.228526 
L 408.277487 -53.613077 
L 406.997189 -52.997628 
L 405.70182 -52.382179 
L 404.410834 -51.76673 
L 403.141287 -51.15128 
L 401.907294 -50.535831 
L 400.719767 -49.920382 
L 399.58643 -49.304933 
L 398.512072 -48.689484 
L 397.499006 -48.074035 
L 396.547632 -47.458586 
L 395.657054 -46.843137 
L 394.825651 -46.227687 
L 394.051572 -45.612238 
L 393.333074 -44.996789 
z
" style="stroke: #8172b2; stroke-opacity: 0.35; stroke-width: 1.2"/>
    </defs>
    <g clip-path="url(#pe5107c8092)">
     <use xlink:href="#m18291ac86e" x="0" y="315.428344" style="fill: #8172b2; fill-opacity: 0.35; stroke: #8172b2; stroke-opacity: 0.35; stroke-width: 1.2"/>
    </g>
   </g>
   <g id="matplotlib.axis_1">
    <g id="xtick_1">
     <g id="line2d_1">
      <defs>
       <path id="m0961d20df4" d="M 0 0 
L 0 3.5 
" style="stroke: #000000; stroke-width: 0.8"/>
      </defs>
      <g>
       <use xlink:href="#m0961d20df4" x="108.417841" y="282.44" style="stroke: #000000; stroke-width: 0.8"/>
      </g>
     </g>
     <g id="text_1">
      <!-- Control -->
      <g transform="translate(92.153857 296.278594) scale(0.09 -0.09)">
       <defs>
        <path id="DejaVuSans-43" d="M 4122 4306 
L 4122 3641 
Q 3803 3938 3442 4084 
Q 3081 4231 2675 4231 
Q 1875 4231 1450 3742 
Q 1025 3253 1025 2328 
Q 1025 1406 1450 917 
Q 1875 428 2675 428 
Q 3081 428 3442 575 
Q 3803 722 4122 1019 
L 4122 359 
Q 3791 134 3420 21 
Q 3050 -91 2638 -91 
Q 1578 -91 968 557 
Q 359 1206 359 2328 
Q 359 3453 968 4101 
Q 1578 4750 2638 4750 
Q 3056 4750 3426 4639 
Q 3797 4528 4122 4306 
z
" transform="scale(0.015625)"/>
        <path id="DejaVuSans-6f" d="M 1959 3097 
Q 1497 3097 1228 2736 
Q 959 2375 959 1747 
Q 959 1119 1226 758 
Q 1494 397 1959 397 
Q 2419 397 2687 759 
Q 2956 1122 2956 1747 
Q 2956 2369 2687 2733 
Q 2419 3097 1959 3097 
z
M 1959 3584 
Q 2709 3584 3137 3096 
Q 3566 2609 3566 1747 
Q 3566 888 3137 398 
Q 2709 -91 1959 -91 
Q 1206 -91 779 398 
Q 353 888 353 1747 
Q 353 2609 779 3096 
Q 1206 3584 1959 3584 
z
" transform="scale(0.015625)"/>
        <path id="DejaVuSans-6e" d="M 3513 2113 
L 3513 0 
L 2938 0 
L 2938 2094 
Q 2938 2591 2744 2837 
Q 2550 3084 2163 3084 
Q 1697 3084 1428 2787 
Q 1159 2491 1159 1978 
L 1159 0 
L 581 0 
L 581 3500 
L 1159 3500 
L 1159 2956 
Q 1366 3272 1645 3428 
Q 1925 3584 2291 3584 
Q 2894 3584 3203 3211 
Q 3513 2838 3513 2113 
z
" transform="scale(0.015625)"/>
        <path id="DejaVuSans-74" d="M 1172 4494 
L 1172 3500 
L 2356 3500 
L 2356 3053 
L 1172 3053 
L 1172 1153 
Q 1172 725 1289 603 
Q 1406 481 1766 481 
L 2356 481 
L 2356 0 
L 1766 0 
Q 1100 0 847 248 
Q 594 497 594 1153 
L 594 3053 
L 172 3053 
L 172 3500 
L 594 3500 
L 594 4494 
L 1172 4494 
z
" transform="scale(0.015625)"/>
        <path id="DejaVuSans-72" d="M 2631 2963 
Q 2534 3019 2420 3045 
Q 2306 3072 2169 3072 
Q 1681 3072 1420 2755 
Q 1159 2438 1159 1844 
L 1159 0 
L 581 0 
L 581 3500 
L 1159 3500 
L 1159 2956 
Q 1341 3275 1631 3429 
Q 1922 3584 2338 3584 
Q 2397 3584 2469 3576 
Q 2541 3569 2628 3553 
L 2631 2963 
z
" transform="scale(0.015625)"/>
        <path id="DejaVuSans-6c" d="M 603 4863 
L 1178 4863 
L 1178 0 
L 603 0 
L 603 4863 
z
" transform="scale(0.015625)"/>
       </defs>
       <use xlink:href="#DejaVuSans-43"/>
       <use xlink:href="#DejaVuSans-6f" transform="translate(69.824219 0)"/>
       <use xlink:href="#DejaVuSans-6e" transform="translate(131.005859 0)"/>
       <use xlink:href="#DejaVuSans-74" transform="translate(194.384766 0)"/>
       <use xlink:href="#DejaVuSans-72" transform="translate(233.59375 0)"/>
       <use xlink:href="#DejaVuSans-6f" transform="translate(272.457031 0)"/>
       <use xlink:href="#DejaVuSans-6c" transform="translate(333.638672 0)"/>
      </g>
     </g>
    </g>
    <g id="xtick_2">
     <g id="line2d_2">
      <g>
       <use xlink:href="#m0961d20df4" x="201.645114" y="282.44" style="stroke: #000000; stroke-width: 0.8"/>
      </g>
     </g>
     <g id="text_2">
      <!-- Drug-A -->
      <g transform="translate(186.020973 296.278594) scale(0.09 -0.09)">
       <defs>
        <path id="DejaVuSans-44" d="M 1259 4147 
L 1259 519 
L 2022 519 
Q 2988 519 3436 956 
Q 3884 1394 3884 2338 
Q 3884 3275 3436 3711 
Q 2988 4147 2022 4147 
L 1259 4147 
z
M 628 4666 
L 1925 4666 
Q 3281 4666 3915 4102 
Q 4550 3538 4550 2338 
Q 4550 1131 3912 565 
Q 3275 0 1925 0 
L 628 0 
L 628 4666 
z
" transform="scale(0.015625)"/>
        <path id="DejaVuSans-75" d="M 544 1381 
L 544 3500 
L 1119 3500 
L 1119 1403 
Q 1119 906 1312 657 
Q 1506 409 1894 409 
Q 2359 409 2629 706 
Q 2900 1003 2900 1516 
L 2900 3500 
L 3475 3500 
L 3475 0 
L 2900 0 
L 2900 538 
Q 2691 219 2414 64 
Q 2138 -91 1772 -91 
Q 1169 -91 856 284 
Q 544 659 544 1381 
z
M 1991 3584 
L 1991 3584 
z
" transform="scale(0.015625)"/>
        <path id="DejaVuSans-67" d="M 2906 1791 
Q 2906 2416 2648 2759 
Q 2391 3103 1925 3103 
Q 1463 3103 1205 2759 
Q 947 2416 947 1791 
Q 947 1169 1205 825 
Q 1463 481 1925 481 
Q 2391 481 2648 825 
Q 2906 1169 2906 1791 
z
M 3481 434 
Q 3481 -459 3084 -895 
Q 2688 -1331 1869 -1331 
Q 1566 -1331 1297 -1286 
Q 1028 -1241 775 -1147 
L 775 -588 
Q 1028 -725 1275 -790 
Q 1522 -856 1778 -856 
Q 2344 -856 2625 -561 
Q 2906 -266 2906 331 
L 2906 616 
Q 2728 306 2450 153 
Q 2172 0 1784 0 
Q 1141 0 747 490 
Q 353 981 353 1791 
Q 353 2603 747 3093 
Q 1141 3584 1784 3584 
Q 2172 3584 2450 3431 
Q 2728 3278 2906 2969 
L 2906 3500 
L 3481 3500 
L 3481 434 
z
" transform="scale(0.015625)"/>
        <path id="DejaVuSans-2d" d="M 313 2009 
L 1997 2009 
L 1997 1497 
L 313 1497 
L 313 2009 
z
" transform="scale(0.015625)"/>
        <path id="DejaVuSans-41" d="M 2188 4044 
L 1331 1722 
L 3047 1722 
L 2188 4044 
z
M 1831 4666 
L 2547 4666 
L 4325 0 
L 3669 0 
L 3244 1197 
L 1141 1197 
L 716 0 
L 50 0 
L 1831 4666 
z
" transform="scale(0.015625)"/>
       </defs>
       <use xlink:href="#DejaVuSans-44"/>
       <use xlink:href="#DejaVuSans-72" transform="translate(77.001953 0)"/>
       <use xlink:href="#DejaVuSans-75" transform="translate(118.115234 0)"/>
       <use xlink:href="#DejaVuSans-67" transform="translate(181.494141 0)"/>
       <use xlink:href="#DejaVuSans-2d" transform="translate(244.970703 0)"/>
       <use xlink:href="#DejaVuSans-41" transform="translate(278.804688 0)"/>
      </g>
      <!-- 10 µM -->
      <g transform="translate(187.742926 306.356625) scale(0.09 -0.09)">
       <defs>
        <path id="DejaVuSans-31" d="M 794 531 
L 1825 531 
L 1825 4091 
L 703 3866 
L 703 4441 
L 1819 4666 
L 2450 4666 
L 2450 531 
L 3481 531 
L 3481 0 
L 794 0 
L 794 531 
z
" transform="scale(0.015625)"/>
        <path id="DejaVuSans-30" d="M 2034 4250 
Q 1547 4250 1301 3770 
Q 1056 3291 1056 2328 
Q 1056 1369 1301 889 
Q 1547 409 2034 409 
Q 2525 409 2770 889 
Q 3016 1369 3016 2328 
Q 3016 3291 2770 3770 
Q 2525 4250 2034 4250 
z
M 2034 4750 
Q 2819 4750 3233 4129 
Q 3647 3509 3647 2328 
Q 3647 1150 3233 529 
Q 2819 -91 2034 -91 
Q 1250 -91 836 529 
Q 422 1150 422 2328 
Q 422 3509 836 4129 
Q 1250 4750 2034 4750 
z
" transform="scale(0.015625)"/>
        <path id="DejaVuSans-20" transform="scale(0.015625)"/>
        <path id="DejaVuSans-b5" d="M 544 -1331 
L 544 3500 
L 1119 3500 
L 1119 1325 
Q 1119 872 1334 640 
Q 1550 409 1972 409 
Q 2434 409 2667 671 
Q 2900 934 2900 1459 
L 2900 3500 
L 3475 3500 
L 3475 806 
Q 3475 619 3529 530 
Q 3584 441 3700 441 
Q 3728 441 3778 458 
Q 3828 475 3916 513 
L 3916 50 
Q 3788 -22 3673 -56 
Q 3559 -91 3450 -91 
Q 3234 -91 3106 31 
Q 2978 153 2931 403 
Q 2775 156 2548 32 
Q 2322 -91 2016 -91 
Q 1697 -91 1473 31 
Q 1250 153 1119 397 
L 1119 -1331 
L 544 -1331 
z
" transform="scale(0.015625)"/>
        <path id="DejaVuSans-4d" d="M 628 4666 
L 1569 4666 
L 2759 1491 
L 3956 4666 
L 4897 4666 
L 4897 0 
L 4281 0 
L 4281 4097 
L 3078 897 
L 2444 897 
L 1241 4097 
L 1241 0 
L 628 0 
L 628 4666 
z
" transform="scale(0.015625)"/>
       </defs>
       <use xlink:href="#DejaVuSans-31"/>
       <use xlink:href="#DejaVuSans-30" transform="translate(63.623047 0)"/>
       <use xlink:href="#DejaVuSans-20" transform="translate(127.246094 0)"/>
       <use xlink:href="#DejaVuSans-b5" transform="translate(159.033203 0)"/>
       <use xlink:href="#DejaVuSans-4d" transform="translate(222.65625 0)"/>
      </g>
     </g>
    </g>
    <g id="xtick_3">
     <g id="line2d_3">
      <g>
       <use xlink:href="#m0961d20df4" x="294.872386" y="282.44" style="stroke: #000000; stroke-width: 0.8"/>
      </g>
     </g>
     <g id="text_3">
      <!-- Drug-A -->
      <g transform="translate(279.248246 296.278594) scale(0.09 -0.09)">
       <use xlink:href="#DejaVuSans-44"/>
       <use xlink:href="#DejaVuSans-72" transform="translate(77.001953 0)"/>
       <use xlink:href="#DejaVuSans-75" transform="translate(118.115234 0)"/>
       <use xlink:href="#DejaVuSans-67" transform="translate(181.494141 0)"/>
       <use xlink:href="#DejaVuSans-2d" transform="translate(244.970703 0)"/>
       <use xlink:href="#DejaVuSans-41" transform="translate(278.804688 0)"/>
      </g>
      <!-- 50 µM -->
      <g transform="translate(280.970199 306.356625) scale(0.09 -0.09)">
       <defs>
        <path id="DejaVuSans-35" d="M 691 4666 
L 3169 4666 
L 3169 4134 
L 1269 4134 
L 1269 2991 
Q 1406 3038 1543 3061 
Q 1681 3084 1819 3084 
Q 2600 3084 3056 2656 
Q 3513 2228 3513 1497 
Q 3513 744 3044 326 
Q 2575 -91 1722 -91 
Q 1428 -91 1123 -41 
Q 819 9 494 109 
L 494 744 
Q 775 591 1075 516 
Q 1375 441 1709 441 
Q 2250 441 2565 725 
Q 2881 1009 2881 1497 
Q 2881 1984 2565 2268 
Q 2250 2553 1709 2553 
Q 1456 2553 1204 2497 
Q 953 2441 691 2322 
L 691 4666 
z
" transform="scale(0.015625)"/>
       </defs>
       <use xlink:href="#DejaVuSans-35"/>
       <use xlink:href="#DejaVuSans-30" transform="translate(63.623047 0)"/>
       <use xlink:href="#DejaVuSans-20" transform="translate(127.246094 0)"/>
       <use xlink:href="#DejaVuSans-b5" transform="translate(159.033203 0)"/>
       <use xlink:href="#DejaVuSans-4d" transform="translate(222.65625 0)"/>
      </g>
     </g>
    </g>
    <g id="xtick_4">
     <g id="line2d_4">
      <g>
       <use xlink:href="#m0961d20df4" x="388.099659" y="282.44" style="stroke: #000000; stroke-width: 0.8"/>
      </g>
     </g>
     <g id="text_4">
      <!-- Combo -->
      <g transform="translate(372.21044 296.278594) scale(0.09 -0.09)">
       <defs>
        <path id="DejaVuSans-6d" d="M 3328 2828 
Q 3544 3216 3844 3400 
Q 4144 3584 4550 3584 
Q 5097 3584 5394 3201 
Q 5691 2819 5691 2113 
L 5691 0 
L 5113 0 
L 5113 2094 
Q 5113 2597 4934 2840 
Q 4756 3084 4391 3084 
Q 3944 3084 3684 2787 
Q 3425 2491 3425 1978 
L 3425 0 
L 2847 0 
L 2847 2094 
Q 2847 2600 2669 2842 
Q 2491 3084 2119 3084 
Q 1678 3084 1418 2786 
Q 1159 2488 1159 1978 
L 1159 0 
L 581 0 
L 581 3500 
L 1159 3500 
L 1159 2956 
Q 1356 3278 1631 3431 
Q 1906 3584 2284 3584 
Q 2666 3584 2933 3390 
Q 3200 3197 3328 2828 
z
" transform="scale(0.015625)"/>
        <path id="DejaVuSans-62" d="M 3116 1747 
Q 3116 2381 2855 2742 
Q 2594 3103 2138 3103 
Q 1681 3103 1420 2742 
Q 1159 2381 1159 1747 
Q 1159 1113 1420 752 
Q 1681 391 2138 391 
Q 2594 391 2855 752 
Q 3116 1113 3116 1747 
z
M 1159 2969 
Q 1341 3281 1617 3432 
Q 1894 3584 2278 3584 
Q 2916 3584 3314 3078 
Q 3713 2572 3713 1747 
Q 3713 922 3314 415 
Q 2916 -91 2278 -91 
Q 1894 -91 1617 61 
Q 1341 213 1159 525 
L 1159 0 
L 581 0 
L 581 4863 
L 1159 4863 
L 1159 2969 
z
" transform="scale(0.015625)"/>
       </defs>
       <use xlink:href="#DejaVuSans-43"/>
       <use xlink:href="#DejaVuSans-6f" transform="translate(69.824219 0)"/>
       <use xlink:href="#DejaVuSans-6d" transform="translate(131.005859 0)"/>
       <use xlink:href="#DejaVuSans-62" transform="translate(228.417969 0)"/>
       <use xlink:href="#DejaVuSans-6f" transform="translate(291.894531 0)"/>
      </g>
     </g>
    </g>
   </g>
   <g id="matplotlib.axis_2">
    <g id="ytick_1">
     <g id="line2d_5">
      <defs>
       <path id="m19ad138091" d="M 0 0 
L -3.5 0 
" style="stroke: #000000; stroke-width: 0.8"/>
      </defs>
      <g>
       <use xlink:href="#m19ad138091" x="43.15875" y="282.44" style="stroke: #000000; stroke-width: 0.8"/>
      </g>
     </g>
     <g id="text_5">
      <!-- 0.0 -->
      <g transform="translate(21.845938 285.859297) scale(0.09 -0.09)">
       <defs>
        <path id="DejaVuSans-2e" d="M 684 794 
L 1344 794 
L 1344 0 
L 684 0 
L 684 794 
z
" transform="scale(0.015625)"/>
       </defs>
       <use xlink:href="#DejaVuSans-30"/>
       <use xlink:href="#DejaVuSans-2e" transform="translate(63.623047 0)"/>
       <use xlink:href="#DejaVuSans-30" transform="translate(95.410156 0)"/>
      </g>
     </g>
    </g>
    <g id="ytick_2">
     <g id="line2d_6">
      <g>
       <use xlink:href="#m19ad138091" x="43.15875" y="238.517376" style="stroke: #000000; stroke-width: 0.8"/>
      </g>
     </g>
     <g id="text_6">
      <!-- 0.5 -->
      <g transform="translate(21.845938 241.936673) scale(0.09 -0.09)">
       <use xlink:href="#DejaVuSans-30"/>
       <use xlink:href="#DejaVuSans-2e" transform="translate(63.623047 0)"/>
       <use xlink:href="#DejaVuSans-35" transform="translate(95.410156 0)"/>
      </g>
     </g>
    </g>
    <g id="ytick_3">
     <g id="line2d_7">
      <g>
       <use xlink:href="#m19ad138091" x="43.15875" y="194.594752" style="stroke: #000000; stroke-width: 0.8"/>
      </g>
     </g>
     <g id="text_7">
      <!-- 1.0 -->
      <g transform="translate(21.845938 198.014049) scale(0.09 -0.09)">
       <use xlink:href="#DejaVuSans-31"/>
       <use xlink:href="#DejaVuSans-2e" transform="translate(63.623047 0)"/>
       <use xlink:href="#DejaVuSans-30" transform="translate(95.410156 0)"/>
      </g>
     </g>
    </g>
    <g id="ytick_4">
     <g id="line2d_8">
      <g>
       <use xlink:href="#m19ad138091" x="43.15875" y="150.672128" style="stroke: #000000; stroke-width: 0.8"/>
      </g>
     </g>
     <g id="text_8">
      <!-- 1.5 -->
      <g transform="translate(21.845938 154.091425) scale(0.09 -0.09)">
       <use xlink:href="#DejaVuSans-31"/>
       <use xlink:href="#DejaVuSans-2e" transform="translate(63.623047 0)"/>
       <use xlink:href="#DejaVuSans-35" transform="translate(95.410156 0)"/>
      </g>
     </g>
    </g>
    <g id="ytick_5">
     <g id="line2d_9">
      <g>
       <use xlink:href="#m19ad138091" x="43.15875" y="106.749504" style="stroke: #000000; stroke-width: 0.8"/>
      </g>
     </g>
     <g id="text_9">
      <!-- 2.0 -->
      <g transform="translate(21.845938 110.168801) scale(0.09 -0.09)">
       <defs>
        <path id="DejaVuSans-32" d="M 1228 531 
L 3431 531 
L 3431 0 
L 469 0 
L 469 531 
Q 828 903 1448 1529 
Q 2069 2156 2228 2338 
Q 2531 2678 2651 2914 
Q 2772 3150 2772 3378 
Q 2772 3750 2511 3984 
Q 2250 4219 1831 4219 
Q 1534 4219 1204 4116 
Q 875 4013 500 3803 
L 500 4441 
Q 881 4594 1212 4672 
Q 1544 4750 1819 4750 
Q 2544 4750 2975 4387 
Q 3406 4025 3406 3419 
Q 3406 3131 3298 2873 
Q 3191 2616 2906 2266 
Q 2828 2175 2409 1742 
Q 1991 1309 1228 531 
z
" transform="scale(0.015625)"/>
       </defs>
       <use xlink:href="#DejaVuSans-32"/>
       <use xlink:href="#DejaVuSans-2e" transform="translate(63.623047 0)"/>
       <use xlink:href="#DejaVuSans-30" transform="translate(95.410156 0)"/>
      </g>
     </g>
    </g>
    <g id="ytick_6">
     <g id="line2d_10">
      <g>
       <use xlink:href="#m19ad138091" x="43.15875" y="62.82688" style="stroke: #000000; stroke-width: 0.8"/>
      </g>
     </g>
     <g id="text_10">
      <!-- 2.5 -->
      <g transform="translate(21.845938 66.246177) scale(0.09 -0.09)">
       <use xlink:href="#DejaVuSans-32"/>
       <use xlink:href="#DejaVuSans-2e" transform="translate(63.623047 0)"/>
       <use xlink:href="#DejaVuSans-35" transform="translate(95.410156 0)"/>
      </g>
     </g>
    </g>
    <g id="ytick_7">
     <g id="line2d_11">
      <g>
       <use xlink:href="#m19ad138091" x="43.15875" y="18.904256" style="stroke: #000000; stroke-width: 0.8"/>
      </g>
     </g>
     <g id="text_11">
      <!-- 3.0 -->
      <g transform="translate(21.845938 22.323552) scale(0.09 -0.09)">
       <defs>
        <path id="DejaVuSans-33" d="M 2597 2516 
Q 3050 2419 3304 2112 
Q 3559 1806 3559 1356 
Q 3559 666 3084 287 
Q 2609 -91 1734 -91 
Q 1441 -91 1130 -33 
Q 819 25 488 141 
L 488 750 
Q 750 597 1062 519 
Q 1375 441 1716 441 
Q 2309 441 2620 675 
Q 2931 909 2931 1356 
Q 2931 1769 2642 2001 
Q 2353 2234 1838 2234 
L 1294 2234 
L 1294 2753 
L 1863 2753 
Q 2328 2753 2575 2939 
Q 2822 3125 2822 3475 
Q 2822 3834 2567 4026 
Q 2313 4219 1838 4219 
Q 1578 4219 1281 4162 
Q 984 4106 628 3988 
L 628 4550 
Q 988 4650 1302 4700 
Q 1616 4750 1894 4750 
Q 2613 4750 3031 4423 
Q 3450 4097 3450 3541 
Q 3450 3153 3228 2886 
Q 3006 2619 2597 2516 
z
" transform="scale(0.015625)"/>
       </defs>
       <use xlink:href="#DejaVuSans-33"/>
       <use xlink:href="#DejaVuSans-2e" transform="translate(63.623047 0)"/>
       <use xlink:href="#DejaVuSans-30" transform="translate(95.410156 0)"/>
      </g>
     </g>
    </g>
    <g id="text_12">
     <!-- Relative cell viability -->
     <g transform="translate(15.558281 201.601484) rotate(-90) scale(0.11 -0.11)">
      <defs>
       <path id="DejaVuSans-52" d="M 2841 2188 
Q 3044 2119 3236 1894 
Q 3428 1669 3622 1275 
L 4263 0 
L 3584 0 
L 2988 1197 
Q 2756 1666 2539 1819 
Q 2322 1972 1947 1972 
L 1259 1972 
L 1259 0 
L 628 0 
L 628 4666 
L 2053 4666 
Q 2853 4666 3247 4331 
Q 3641 3997 3641 3322 
Q 3641 2881 3436 2590 
Q 3231 2300 2841 2188 
z
M 1259 4147 
L 1259 2491 
L 2053 2491 
Q 2509 2491 2742 2702 
Q 2975 2913 2975 3322 
Q 2975 3731 2742 3939 
Q 2509 4147 2053 4147 
L 1259 4147 
z
" transform="scale(0.015625)"/>
       <path id="DejaVuSans-65" d="M 3597 1894 
L 3597 1613 
L 953 1613 
Q 991 1019 1311 708 
Q 1631 397 2203 397 
Q 2534 397 2845 478 
Q 3156 559 3463 722 
L 3463 178 
Q 3153 47 2828 -22 
Q 2503 -91 2169 -91 
Q 1331 -91 842 396 
Q 353 884 353 1716 
Q 353 2575 817 3079 
Q 1281 3584 2069 3584 
Q 2775 3584 3186 3129 
Q 3597 2675 3597 1894 
z
M 3022 2063 
Q 3016 2534 2758 2815 
Q 2500 3097 2075 3097 
Q 1594 3097 1305 2825 
Q 1016 2553 972 2059 
L 3022 2063 
z
" transform="scale(0.015625)"/>
       <path id="DejaVuSans-61" d="M 2194 1759 
Q 1497 1759 1228 1600 
Q 959 1441 959 1056 
Q 959 750 1161 570 
Q 1363 391 1709 391 
Q 2188 391 2477 730 
Q 2766 1069 2766 1631 
L 2766 1759 
L 2194 1759 
z
M 3341 1997 
L 3341 0 
L 2766 0 
L 2766 531 
Q 2569 213 2275 61 
Q 1981 -91 1556 -91 
Q 1019 -91 701 211 
Q 384 513 384 1019 
Q 384 1609 779 1909 
Q 1175 2209 1959 2209 
L 2766 2209 
L 2766 2266 
Q 2766 2663 2505 2880 
Q 2244 3097 1772 3097 
Q 1472 3097 1187 3025 
Q 903 2953 641 2809 
L 641 3341 
Q 956 3463 1253 3523 
Q 1550 3584 1831 3584 
Q 2591 3584 2966 3190 
Q 3341 2797 3341 1997 
z
" transform="scale(0.015625)"/>
       <path id="DejaVuSans-69" d="M 603 3500 
L 1178 3500 
L 1178 0 
L 603 0 
L 603 3500 
z
M 603 4863 
L 1178 4863 
L 1178 4134 
L 603 4134 
L 603 4863 
z
" transform="scale(0.015625)"/>
       <path id="DejaVuSans-76" d="M 191 3500 
L 800 3500 
L 1894 563 
L 2988 3500 
L 3597 3500 
L 2284 0 
L 1503 0 
L 191 3500 
z
" transform="scale(0.015625)"/>
       <path id="DejaVuSans-63" d="M 3122 3366 
L 3122 2828 
Q 2878 2963 2633 3030 
Q 2388 3097 2138 3097 
Q 1578 3097 1268 2742 
Q 959 2388 959 1747 
Q 959 1106 1268 751 
Q 1578 397 2138 397 
Q 2388 397 2633 464 
Q 2878 531 3122 666 
L 3122 134 
Q 2881 22 2623 -34 
Q 2366 -91 2075 -91 
Q 1284 -91 818 406 
Q 353 903 353 1747 
Q 353 2603 823 3093 
Q 1294 3584 2113 3584 
Q 2378 3584 2631 3529 
Q 2884 3475 3122 3366 
z
" transform="scale(0.015625)"/>
       <path id="DejaVuSans-79" d="M 2059 -325 
Q 1816 -950 1584 -1140 
Q 1353 -1331 966 -1331 
L 506 -1331 
L 506 -850 
L 844 -850 
Q 1081 -850 1212 -737 
Q 1344 -625 1503 -206 
L 1606 56 
L 191 3500 
L 800 3500 
L 1894 763 
L 2988 3500 
L 3597 3500 
L 2059 -325 
z
" transform="scale(0.015625)"/>
      </defs>
      <use xlink:href="#DejaVuSans-52"/>
      <use xlink:href="#DejaVuSans-65" transform="translate(64.982422 0)"/>
      <use xlink:href="#DejaVuSans-6c" transform="translate(126.505859 0)"/>
      <use xlink:href="#DejaVuSans-61" transform="translate(154.289062 0)"/>
      <use xlink:href="#DejaVuSans-74" transform="translate(215.568359 0)"/>
      <use xlink:href="#DejaVuSans-69" transform="translate(254.777344 0)"/>
      <use xlink:href="#DejaVuSans-76" transform="translate(282.560547 0)"/>
      <use xlink:href="#DejaVuSans-65" transform="translate(341.740234 0)"/>
      <use xlink:href="#DejaVuSans-20" transform="translate(403.263672 0)"/>
      <use xlink:href="#DejaVuSans-63" transform="translate(435.050781 0)"/>
      <use xlink:href="#DejaVuSans-65" transform="translate(490.03125 0)"/>
      <use xlink:href="#DejaVuSans-6c" transform="translate(551.554688 0)"/>
      <use xlink:href="#DejaVuSans-6c" transform="translate(579.337891 0)"/>
      <use xlink:href="#DejaVuSans-20" transform="translate(607.121094 0)"/>
      <use xlink:href="#DejaVuSans-76" transform="translate(638.908203 0)"/>
      <use xlink:href="#DejaVuSans-69" transform="translate(698.087891 0)"/>
      <use xlink:href="#DejaVuSans-61" transform="translate(725.871094 0)"/>
      <use xlink:href="#DejaVuSans-62" transform="translate(787.150391 0)"/>
      <use xlink:href="#DejaVuSans-69" transform="translate(850.626953 0)"/>
      <use xlink:href="#DejaVuSans-6c" transform="translate(878.410156 0)"/>
      <use xlink:href="#DejaVuSans-69" transform="translate(906.193359 0)"/>
      <use xlink:href="#DejaVuSans-74" transform="translate(933.976562 0)"/>
      <use xlink:href="#DejaVuSans-79" transform="translate(973.185547 0)"/>
     </g>
    </g>
   </g>
   <g id="patch_3">
    <path d="M 98.162841 211.324879 
L 118.672841 211.324879 
L 118.672841 175.837595 
L 98.162841 175.837595 
L 98.162841 211.324879 
z
" clip-path="url(#pe5107c8092)" style="fill: #4c72b0; opacity: 0.85; stroke: #4c72b0; stroke-linejoin: miter"/>
   </g>
   <g id="line2d_12">
    <path d="M 108.417841 211.324879 
L 108.417841 248.452673 
" clip-path="url(#pe5107c8092)" style="fill: none; stroke: #333333; stroke-width: 1.2; stroke-linecap: square"/>
   </g>
   <g id="line2d_13">
    <path d="M 108.417841 175.837595 
L 108.417841 124.441537 
" clip-path="url(#pe5107c8092)" style="fill: none; stroke: #333333; stroke-width: 1.2; stroke-linecap: square"/>
   </g>
   <g id="line2d_14">
    <path d="M 103.290341 248.452673 
L 113.545341 248.452673 
" clip-path="url(#pe5107c8092)" style="fill: none; stroke: #333333; stroke-width: 1.2; stroke-linecap: square"/>
   </g>
   <g id="line2d_15">
    <path d="M 103.290341 124.441537 
L 113.545341 124.441537 
" clip-path="url(#pe5107c8092)" style="fill: none; stroke: #333333; stroke-width: 1.2; stroke-linecap: square"/>
   </g>
   <g id="line2d_16"/>
   <g id="patch_4">
    <path d="M 191.390114 230.084232 
L 211.900114 230.084232 
L 211.900114 201.986929 
L 191.390114 201.986929 
L 191.390114 230.084232 
z
" clip-path="url(#pe5107c8092)" style="fill: #55a868; opacity: 0.85; stroke: #55a868; stroke-linejoin: miter"/>
   </g>
   <g id="line2d_17">
    <path d="M 201.645114 230.084232 
L 201.645114 247.407315 
" clip-path="url(#pe5107c8092)" style="fill: none; stroke: #333333; stroke-width: 1.2; stroke-linecap: square"/>
   </g>
   <g id="line2d_18">
    <path d="M 201.645114 201.986929 
L 201.645114 169.084492 
" clip-path="url(#pe5107c8092)" style="fill: none; stroke: #333333; stroke-width: 1.2; stroke-linecap: square"/>
   </g>
   <g id="line2d_19">
    <path d="M 196.517614 247.407315 
L 206.772614 247.407315 
" clip-path="url(#pe5107c8092)" style="fill: none; stroke: #333333; stroke-width: 1.2; stroke-linecap: square"/>
   </g>
   <g id="line2d_20">
    <path d="M 196.517614 169.084492 
L 206.772614 169.084492 
" clip-path="url(#pe5107c8092)" style="fill: none; stroke: #333333; stroke-width: 1.2; stroke-linecap: square"/>
   </g>
   <g id="line2d_21"/>
   <g id="patch_5">
    <path d="M 284.617386 246.596943 
L 305.127386 246.596943 
L 305.127386 220.416863 
L 284.617386 220.416863 
L 284.617386 246.596943 
z
" clip-path="url(#pe5107c8092)" style="fill: #c44e52; opacity: 0.85; stroke: #c44e52; stroke-linejoin: miter"/>
   </g>
   <g id="line2d_22">
    <path d="M 294.872386 246.596943 
L 294.872386 265.275039 
" clip-path="url(#pe5107c8092)" style="fill: none; stroke: #333333; stroke-width: 1.2; stroke-linecap: square"/>
   </g>
   <g id="line2d_23">
    <path d="M 294.872386 220.416863 
L 294.872386 188.919949 
" clip-path="url(#pe5107c8092)" style="fill: none; stroke: #333333; stroke-width: 1.2; stroke-linecap: square"/>
   </g>
   <g id="line2d_24">
    <path d="M 289.744886 265.275039 
L 299.999886 265.275039 
" clip-path="url(#pe5107c8092)" style="fill: none; stroke: #333333; stroke-width: 1.2; stroke-linecap: square"/>
   </g>
   <g id="line2d_25">
    <path d="M 289.744886 188.919949 
L 299.999886 188.919949 
" clip-path="url(#pe5107c8092)" style="fill: none; stroke: #333333; stroke-width: 1.2; stroke-linecap: square"/>
   </g>
   <g id="line2d_26"/>
   <g id="patch_6">
    <path d="M 377.844659 258.535112 
L 398.354659 258.535112 
L 398.354659 245.997399 
L 377.844659 245.997399 
L 377.844659 258.535112 
z
" clip-path="url(#pe5107c8092)" style="fill: #8172b2; opacity: 0.85; stroke: #8172b2; stroke-linejoin: miter"/>
   </g>
   <g id="line2d_27">
    <path d="M 388.099659 258.535112 
L 388.099659 270.431555 
" clip-path="url(#pe5107c8092)" style="fill: none; stroke: #333333; stroke-width: 1.2; stroke-linecap: square"/>
   </g>
   <g id="line2d_28">
    <path d="M 388.099659 245.997399 
L 388.099659 228.775338 
" clip-path="url(#pe5107c8092)" style="fill: none; stroke: #333333; stroke-width: 1.2; stroke-linecap: square"/>
   </g>
   <g id="line2d_29">
    <path d="M 382.972159 270.431555 
L 393.227159 270.431555 
" clip-path="url(#pe5107c8092)" style="fill: none; stroke: #333333; stroke-width: 1.2; stroke-linecap: square"/>
   </g>
   <g id="line2d_30">
    <path d="M 382.972159 228.775338 
L 393.227159 228.775338 
" clip-path="url(#pe5107c8092)" style="fill: none; stroke: #333333; stroke-width: 1.2; stroke-linecap: square"/>
   </g>
   <g id="line2d_31"/>
   <g id="line2d_32">
    <path d="M 108.417841 60.49943 
L 108.417841 55.970031 
L 201.645114 55.970031 
L 201.645114 60.49943 
" clip-path="url(#pe5107c8092)" style="fill: none; stroke: #555555; stroke-width: 1.2; stroke-linecap: square"/>
   </g>
   <g id="line2d_33">
    <path d="M 108.417841 42.381833 
L 108.417841 37.852433 
L 294.872386 37.852433 
L 294.872386 42.381833 
" clip-path="url(#pe5107c8092)" style="fill: none; stroke: #555555; stroke-width: 1.2; stroke-linecap: square"/>
   </g>
   <g id="line2d_34">
    <path d="M 108.417841 24.264235 
L 108.417841 19.734836 
L 388.099659 19.734836 
L 388.099659 24.264235 
" clip-path="url(#pe5107c8092)" style="fill: none; stroke: #555555; stroke-width: 1.2; stroke-linecap: square"/>
   </g>
   <g id="line2d_35">
    <path d="M 98.162841 199.782014 
L 118.672841 199.782014 
" clip-path="url(#pe5107c8092)" style="fill: none; stroke: #ffffff; stroke-width: 2.5"/>
   </g>
   <g id="line2d_36">
    <path d="M 191.390114 214.070043 
L 211.900114 214.070043 
" clip-path="url(#pe5107c8092)" style="fill: none; stroke: #ffffff; stroke-width: 2.5"/>
   </g>
   <g id="line2d_37">
    <path d="M 284.617386 238.196741 
L 305.127386 238.196741 
" clip-path="url(#pe5107c8092)" style="fill: none; stroke: #ffffff; stroke-width: 2.5"/>
   </g>
   <g id="line2d_38">
    <path d="M 377.844659 253.209494 
L 398.354659 253.209494 
" clip-path="url(#pe5107c8092)" style="fill: none; stroke: #ffffff; stroke-width: 2.5"/>
   </g>
   <g id="patch_7">
    <path d="M 43.15875 282.44 
L 43.15875 7.2 
" style="fill: none; stroke: #000000; stroke-width: 0.8; stroke-linejoin: miter; stroke-linecap: square"/>
   </g>
   <g id="patch_8">
    <path d="M 43.15875 282.44 
L 453.35875 282.44 
" style="fill: none; stroke: #000000; stroke-width: 0.8; stroke-linejoin: miter; stroke-linecap: square"/>
   </g>
   <g id="PathCollection_1">
    <defs>
     <path id="mfe5c557702" d="M 0 1.732051 
C 0.459345 1.732051 0.899939 1.549551 1.224745 1.224745 
C 1.549551 0.899939 1.732051 0.459345 1.732051 0 
C 1.732051 -0.459345 1.549551 -0.899939 1.224745 -1.224745 
C 0.899939 -1.549551 0.459345 -1.732051 0 -1.732051 
C -0.459345 -1.732051 -0.899939 -1.549551 -1.224745 -1.224745 
C -1.549551 -0.899939 -1.732051 -0.459345 -1.732051 0 
C -1.732051 0.459345 -1.549551 0.899939 -1.224745 1.224745 
C -0.899939 1.549551 -0.459345 1.732051 0 1.732051 
z
"/>
    </defs>
    <g clip-path="url(#pe5107c8092)">
     <use xlink:href="#mfe5c557702" x="115.058286" y="206.541706" style="fill: #4c72b0; fill-opacity: 0.35"/>
     <use xlink:href="#mfe5c557702" x="106.93631" y="206.207894" style="fill: #4c72b0; fill-opacity: 0.35"/>
     <use xlink:href="#mfe5c557702" x="117.109928" y="210.872476" style="fill: #4c72b0; fill-opacity: 0.35"/>
     <use xlink:href="#mfe5c557702" x="113.201863" y="193.874421" style="fill: #4c72b0; fill-opacity: 0.35"/>
     <use xlink:href="#mfe5c557702" x="98.581069" y="64.680414" style="fill: #4c72b0; fill-opacity: 0.35"/>
     <use xlink:href="#mfe5c557702" x="119.946494" y="124.441537" style="fill: #4c72b0; fill-opacity: 0.35"/>
     <use xlink:href="#mfe5c557702" x="114.74763" y="181.523379" style="fill: #4c72b0; fill-opacity: 0.35"/>
     <use xlink:href="#mfe5c557702" x="115.35178" y="169.189906" style="fill: #4c72b0; fill-opacity: 0.35"/>
     <use xlink:href="#mfe5c557702" x="99.403653" y="147.834726" style="fill: #4c72b0; fill-opacity: 0.35"/>
     <use xlink:href="#mfe5c557702" x="107.215241" y="205.689607" style="fill: #4c72b0; fill-opacity: 0.35"/>
     <use xlink:href="#mfe5c557702" x="105.286102" y="196.799668" style="fill: #4c72b0; fill-opacity: 0.35"/>
     <use xlink:href="#mfe5c557702" x="118.762236" y="227.273184" style="fill: #4c72b0; fill-opacity: 0.35"/>
     <use xlink:href="#mfe5c557702" x="111.905001" y="181.997743" style="fill: #4c72b0; fill-opacity: 0.35"/>
     <use xlink:href="#mfe5c557702" x="116.241289" y="189.455805" style="fill: #4c72b0; fill-opacity: 0.35"/>
     <use xlink:href="#mfe5c557702" x="107.046253" y="213.217944" style="fill: #4c72b0; fill-opacity: 0.35"/>
     <use xlink:href="#mfe5c557702" x="101.806355" y="194.788011" style="fill: #4c72b0; fill-opacity: 0.35"/>
     <use xlink:href="#mfe5c557702" x="109.740927" y="197.607844" style="fill: #4c72b0; fill-opacity: 0.35"/>
     <use xlink:href="#mfe5c557702" x="97.845168" y="210.740708" style="fill: #4c72b0; fill-opacity: 0.35"/>
     <use xlink:href="#mfe5c557702" x="116.359323" y="203.300216" style="fill: #4c72b0; fill-opacity: 0.35"/>
     <use xlink:href="#mfe5c557702" x="111.609266" y="211.320487" style="fill: #4c72b0; fill-opacity: 0.35"/>
     <use xlink:href="#mfe5c557702" x="114.673653" y="155.169805" style="fill: #4c72b0; fill-opacity: 0.35"/>
     <use xlink:href="#mfe5c557702" x="104.891683" y="169.049354" style="fill: #4c72b0; fill-opacity: 0.35"/>
     <use xlink:href="#mfe5c557702" x="119.827133" y="203.642812" style="fill: #4c72b0; fill-opacity: 0.35"/>
     <use xlink:href="#mfe5c557702" x="117.94674" y="203.879995" style="fill: #4c72b0; fill-opacity: 0.35"/>
     <use xlink:href="#mfe5c557702" x="115.165604" y="221.396337" style="fill: #4c72b0; fill-opacity: 0.35"/>
     <use xlink:href="#mfe5c557702" x="101.016161" y="194.111603" style="fill: #4c72b0; fill-opacity: 0.35"/>
     <use xlink:href="#mfe5c557702" x="107.611188" y="166.457919" style="fill: #4c72b0; fill-opacity: 0.35"/>
     <use xlink:href="#mfe5c557702" x="97.360059" y="209.282477" style="fill: #4c72b0; fill-opacity: 0.35"/>
     <use xlink:href="#mfe5c557702" x="100.038132" y="203.634028" style="fill: #4c72b0; fill-opacity: 0.35"/>
     <use xlink:href="#mfe5c557702" x="112.854781" y="144.52296" style="fill: #4c72b0; fill-opacity: 0.35"/>
     <use xlink:href="#mfe5c557702" x="114.350653" y="246.370741" style="fill: #4c72b0; fill-opacity: 0.35"/>
     <use xlink:href="#mfe5c557702" x="119.749852" y="215.88844" style="fill: #4c72b0; fill-opacity: 0.35"/>
     <use xlink:href="#mfe5c557702" x="104.196006" y="190.808622" style="fill: #4c72b0; fill-opacity: 0.35"/>
     <use xlink:href="#mfe5c557702" x="105.277902" y="154.475827" style="fill: #4c72b0; fill-opacity: 0.35"/>
     <use xlink:href="#mfe5c557702" x="107.679901" y="199.470163" style="fill: #4c72b0; fill-opacity: 0.35"/>
     <use xlink:href="#mfe5c557702" x="100.890909" y="182.849842" style="fill: #4c72b0; fill-opacity: 0.35"/>
     <use xlink:href="#mfe5c557702" x="99.447475" y="217.26761" style="fill: #4c72b0; fill-opacity: 0.35"/>
     <use xlink:href="#mfe5c557702" x="107.82895" y="167.195819" style="fill: #4c72b0; fill-opacity: 0.35"/>
     <use xlink:href="#mfe5c557702" x="101.798372" y="191.449892" style="fill: #4c72b0; fill-opacity: 0.35"/>
     <use xlink:href="#mfe5c557702" x="112.533978" y="201.877123" style="fill: #4c72b0; fill-opacity: 0.35"/>
     <use xlink:href="#mfe5c557702" x="106.894461" y="189.042932" style="fill: #4c72b0; fill-opacity: 0.35"/>
     <use xlink:href="#mfe5c557702" x="116.481658" y="212.014465" style="fill: #4c72b0; fill-opacity: 0.35"/>
     <use xlink:href="#mfe5c557702" x="113.272085" y="146.156882" style="fill: #4c72b0; fill-opacity: 0.35"/>
     <use xlink:href="#mfe5c557702" x="103.869779" y="211.338056" style="fill: #4c72b0; fill-opacity: 0.35"/>
     <use xlink:href="#mfe5c557702" x="116.471516" y="194.867072" style="fill: #4c72b0; fill-opacity: 0.35"/>
     <use xlink:href="#mfe5c557702" x="115.805052" y="200.093864" style="fill: #4c72b0; fill-opacity: 0.35"/>
     <use xlink:href="#mfe5c557702" x="105.690419" y="208.166843" style="fill: #4c72b0; fill-opacity: 0.35"/>
     <use xlink:href="#mfe5c557702" x="103.287107" y="181.725423" style="fill: #4c72b0; fill-opacity: 0.35"/>
     <use xlink:href="#mfe5c557702" x="112.841366" y="108.39221" style="fill: #4c72b0; fill-opacity: 0.35"/>
     <use xlink:href="#mfe5c557702" x="99.685769" y="194.269724" style="fill: #4c72b0; fill-opacity: 0.35"/>
     <use xlink:href="#mfe5c557702" x="101.143889" y="150.092349" style="fill: #4c72b0; fill-opacity: 0.35"/>
     <use xlink:href="#mfe5c557702" x="96.47675" y="169.66427" style="fill: #4c72b0; fill-opacity: 0.35"/>
     <use xlink:href="#mfe5c557702" x="115.372627" y="238.745774" style="fill: #4c72b0; fill-opacity: 0.35"/>
     <use xlink:href="#mfe5c557702" x="112.413676" y="194.867072" style="fill: #4c72b0; fill-opacity: 0.35"/>
     <use xlink:href="#mfe5c557702" x="113.390863" y="216.380373" style="fill: #4c72b0; fill-opacity: 0.35"/>
     <use xlink:href="#mfe5c557702" x="115.222457" y="220.544238" style="fill: #4c72b0; fill-opacity: 0.35"/>
     <use xlink:href="#mfe5c557702" x="107.421997" y="225.604124" style="fill: #4c72b0; fill-opacity: 0.35"/>
     <use xlink:href="#mfe5c557702" x="110.084065" y="153.166933" style="fill: #4c72b0; fill-opacity: 0.35"/>
     <use xlink:href="#mfe5c557702" x="99.686848" y="179.4678" style="fill: #4c72b0; fill-opacity: 0.35"/>
     <use xlink:href="#mfe5c557702" x="99.0744" y="204.002978" style="fill: #4c72b0; fill-opacity: 0.35"/>
     <use xlink:href="#mfe5c557702" x="112.499776" y="210.793416" style="fill: #4c72b0; fill-opacity: 0.35"/>
     <use xlink:href="#mfe5c557702" x="107.717239" y="228.213128" style="fill: #4c72b0; fill-opacity: 0.35"/>
     <use xlink:href="#mfe5c557702" x="109.999105" y="158.938366" style="fill: #4c72b0; fill-opacity: 0.35"/>
     <use xlink:href="#mfe5c557702" x="114.841172" y="229.899757" style="fill: #4c72b0; fill-opacity: 0.35"/>
     <use xlink:href="#mfe5c557702" x="111.683291" y="248.452673" style="fill: #4c72b0; fill-opacity: 0.35"/>
     <use xlink:href="#mfe5c557702" x="109.716557" y="216.705401" style="fill: #4c72b0; fill-opacity: 0.35"/>
     <use xlink:href="#mfe5c557702" x="109.852969" y="216.35402" style="fill: #4c72b0; fill-opacity: 0.35"/>
     <use xlink:href="#mfe5c557702" x="103.66577" y="159.087703" style="fill: #4c72b0; fill-opacity: 0.35"/>
     <use xlink:href="#mfe5c557702" x="97.045292" y="205.513916" style="fill: #4c72b0; fill-opacity: 0.35"/>
     <use xlink:href="#mfe5c557702" x="106.883928" y="229.372686" style="fill: #4c72b0; fill-opacity: 0.35"/>
     <use xlink:href="#mfe5c557702" x="101.499633" y="206.989716" style="fill: #4c72b0; fill-opacity: 0.35"/>
     <use xlink:href="#mfe5c557702" x="106.200658" y="108.48884" style="fill: #4c72b0; fill-opacity: 0.35"/>
     <use xlink:href="#mfe5c557702" x="116.98401" y="217.65413" style="fill: #4c72b0; fill-opacity: 0.35"/>
     <use xlink:href="#mfe5c557702" x="101.968776" y="202.237288" style="fill: #4c72b0; fill-opacity: 0.35"/>
     <use xlink:href="#mfe5c557702" x="97.711501" y="201.596018" style="fill: #4c72b0; fill-opacity: 0.35"/>
     <use xlink:href="#mfe5c557702" x="103.118785" y="162.118364" style="fill: #4c72b0; fill-opacity: 0.35"/>
     <use xlink:href="#mfe5c557702" x="103.414741" y="106.477183" style="fill: #4c72b0; fill-opacity: 0.35"/>
     <use xlink:href="#mfe5c557702" x="112.34255" y="185.766304" style="fill: #4c72b0; fill-opacity: 0.35"/>
     <use xlink:href="#mfe5c557702" x="109.800248" y="208.31618" style="fill: #4c72b0; fill-opacity: 0.35"/>
     <use xlink:href="#mfe5c557702" x="115.299275" y="176.850012" style="fill: #4c72b0; fill-opacity: 0.35"/>
     <use xlink:href="#mfe5c557702" x="112.400652" y="240.335773" style="fill: #4c72b0; fill-opacity: 0.35"/>
     <use xlink:href="#mfe5c557702" x="106.148744" y="207.75397" style="fill: #4c72b0; fill-opacity: 0.35"/>
     <use xlink:href="#mfe5c557702" x="116.02941" y="235.442792" style="fill: #4c72b0; fill-opacity: 0.35"/>
     <use xlink:href="#mfe5c557702" x="100.345567" y="207.139053" style="fill: #4c72b0; fill-opacity: 0.35"/>
     <use xlink:href="#mfe5c557702" x="96.848815" y="228.257051" style="fill: #4c72b0; fill-opacity: 0.35"/>
     <use xlink:href="#mfe5c557702" x="98.480974" y="172.123937" style="fill: #4c72b0; fill-opacity: 0.35"/>
     <use xlink:href="#mfe5c557702" x="113.807629" y="215.624904" style="fill: #4c72b0; fill-opacity: 0.35"/>
     <use xlink:href="#mfe5c557702" x="107.49378" y="172.800346" style="fill: #4c72b0; fill-opacity: 0.35"/>
     <use xlink:href="#mfe5c557702" x="100.207377" y="184.149952" style="fill: #4c72b0; fill-opacity: 0.35"/>
     <use xlink:href="#mfe5c557702" x="108.443165" y="165.061179" style="fill: #4c72b0; fill-opacity: 0.35"/>
     <use xlink:href="#mfe5c557702" x="99.990202" y="188.788181" style="fill: #4c72b0; fill-opacity: 0.35"/>
     <use xlink:href="#mfe5c557702" x="113.176468" y="177.42979" style="fill: #4c72b0; fill-opacity: 0.35"/>
     <use xlink:href="#mfe5c557702" x="107.112718" y="210.591372" style="fill: #4c72b0; fill-opacity: 0.35"/>
     <use xlink:href="#mfe5c557702" x="105.533904" y="188.24354" style="fill: #4c72b0; fill-opacity: 0.35"/>
     <use xlink:href="#mfe5c557702" x="103.606674" y="194.094034" style="fill: #4c72b0; fill-opacity: 0.35"/>
     <use xlink:href="#mfe5c557702" x="111.575773" y="132.567222" style="fill: #4c72b0; fill-opacity: 0.35"/>
     <use xlink:href="#mfe5c557702" x="105.068304" y="201.65751" style="fill: #4c72b0; fill-opacity: 0.35"/>
     <use xlink:href="#mfe5c557702" x="98.42285" y="223.003905" style="fill: #4c72b0; fill-opacity: 0.35"/>
     <use xlink:href="#mfe5c557702" x="99.158651" y="216.187114" style="fill: #4c72b0; fill-opacity: 0.35"/>
     <use xlink:href="#mfe5c557702" x="119.61382" y="149.881521" style="fill: #4c72b0; fill-opacity: 0.35"/>
    </g>
   </g>
   <g id="PathCollection_2">
    <defs>
     <path id="m8605c04c3f" d="M 0 1.732051 
C 0.459345 1.732051 0.899939 1.549551 1.224745 1.224745 
C 1.549551 0.899939 1.732051 0.459345 1.732051 0 
C 1.732051 -0.459345 1.549551 -0.899939 1.224745 -1.224745 
C 0.899939 -1.549551 0.459345 -1.732051 0 -1.732051 
C -0.459345 -1.732051 -0.899939 -1.549551 -1.224745 -1.224745 
C -1.549551 -0.899939 -1.732051 -0.459345 -1.732051 0 
C -1.732051 0.459345 -1.549551 0.899939 -1.224745 1.224745 
C -0.899939 1.549551 -0.459345 1.732051 0 1.732051 
z
"/>
    </defs>
    <g clip-path="url(#pe5107c8092)">
     <use xlink:href="#m8605c04c3f" x="211.548738" y="180.319899" style="fill: #55a868; fill-opacity: 0.35"/>
     <use xlink:href="#m8605c04c3f" x="206.485833" y="246.616708" style="fill: #55a868; fill-opacity: 0.35"/>
     <use xlink:href="#m8605c04c3f" x="195.970014" y="202.676515" style="fill: #55a868; fill-opacity: 0.35"/>
     <use xlink:href="#m8605c04c3f" x="213.017522" y="230.057879" style="fill: #55a868; fill-opacity: 0.35"/>
     <use xlink:href="#m8605c04c3f" x="208.401782" y="230.163293" style="fill: #55a868; fill-opacity: 0.35"/>
     <use xlink:href="#m8605c04c3f" x="206.902335" y="234.985997" style="fill: #55a868; fill-opacity: 0.35"/>
     <use xlink:href="#m8605c04c3f" x="200.417682" y="205.619331" style="fill: #55a868; fill-opacity: 0.35"/>
     <use xlink:href="#m8605c04c3f" x="196.124456" y="238.139641" style="fill: #55a868; fill-opacity: 0.35"/>
     <use xlink:href="#m8605c04c3f" x="191.861997" y="204.301652" style="fill: #55a868; fill-opacity: 0.35"/>
     <use xlink:href="#m8605c04c3f" x="211.40383" y="222.968767" style="fill: #55a868; fill-opacity: 0.35"/>
     <use xlink:href="#m8605c04c3f" x="200.573171" y="181.005092" style="fill: #55a868; fill-opacity: 0.35"/>
     <use xlink:href="#m8605c04c3f" x="194.430672" y="222.854568" style="fill: #55a868; fill-opacity: 0.35"/>
     <use xlink:href="#m8605c04c3f" x="196.941679" y="207.323528" style="fill: #55a868; fill-opacity: 0.35"/>
     <use xlink:href="#m8605c04c3f" x="203.565324" y="247.12621" style="fill: #55a868; fill-opacity: 0.35"/>
     <use xlink:href="#m8605c04c3f" x="193.81038" y="218.910317" style="fill: #55a868; fill-opacity: 0.35"/>
     <use xlink:href="#m8605c04c3f" x="210.28912" y="229.601083" style="fill: #55a868; fill-opacity: 0.35"/>
     <use xlink:href="#m8605c04c3f" x="207.911392" y="223.28501" style="fill: #55a868; fill-opacity: 0.35"/>
     <use xlink:href="#m8605c04c3f" x="206.964696" y="220.561807" style="fill: #55a868; fill-opacity: 0.35"/>
     <use xlink:href="#m8605c04c3f" x="199.999111" y="201.068947" style="fill: #55a868; fill-opacity: 0.35"/>
     <use xlink:href="#m8605c04c3f" x="204.730964" y="229.337548" style="fill: #55a868; fill-opacity: 0.35"/>
     <use xlink:href="#m8605c04c3f" x="203.683572" y="240.063452" style="fill: #55a868; fill-opacity: 0.35"/>
     <use xlink:href="#m8605c04c3f" x="205.277259" y="215.818164" style="fill: #55a868; fill-opacity: 0.35"/>
     <use xlink:href="#m8605c04c3f" x="191.572422" y="107.671879" style="fill: #55a868; fill-opacity: 0.35"/>
     <use xlink:href="#m8605c04c3f" x="199.604362" y="246.783614" style="fill: #55a868; fill-opacity: 0.35"/>
     <use xlink:href="#m8605c04c3f" x="190.534258" y="223.847219" style="fill: #55a868; fill-opacity: 0.35"/>
     <use xlink:href="#m8605c04c3f" x="201.499457" y="231.507325" style="fill: #55a868; fill-opacity: 0.35"/>
     <use xlink:href="#m8605c04c3f" x="197.521104" y="201.183145" style="fill: #55a868; fill-opacity: 0.35"/>
     <use xlink:href="#m8605c04c3f" x="193.028703" y="239.228922" style="fill: #55a868; fill-opacity: 0.35"/>
     <use xlink:href="#m8605c04c3f" x="192.031962" y="226.790035" style="fill: #55a868; fill-opacity: 0.35"/>
     <use xlink:href="#m8605c04c3f" x="203.769538" y="214.667391" style="fill: #55a868; fill-opacity: 0.35"/>
     <use xlink:href="#m8605c04c3f" x="193.660587" y="178.36095" style="fill: #55a868; fill-opacity: 0.35"/>
     <use xlink:href="#m8605c04c3f" x="211.949639" y="152.587154" style="fill: #55a868; fill-opacity: 0.35"/>
     <use xlink:href="#m8605c04c3f" x="203.609962" y="196.026629" style="fill: #55a868; fill-opacity: 0.35"/>
     <use xlink:href="#m8605c04c3f" x="197.933377" y="197.010496" style="fill: #55a868; fill-opacity: 0.35"/>
     <use xlink:href="#m8605c04c3f" x="203.848822" y="235.267102" style="fill: #55a868; fill-opacity: 0.35"/>
     <use xlink:href="#m8605c04c3f" x="190.078313" y="195.165746" style="fill: #55a868; fill-opacity: 0.35"/>
     <use xlink:href="#m8605c04c3f" x="212.760172" y="230.751856" style="fill: #55a868; fill-opacity: 0.35"/>
     <use xlink:href="#m8605c04c3f" x="201.216165" y="212.717227" style="fill: #55a868; fill-opacity: 0.35"/>
     <use xlink:href="#m8605c04c3f" x="208.498359" y="231.709369" style="fill: #55a868; fill-opacity: 0.35"/>
     <use xlink:href="#m8605c04c3f" x="191.530868" y="245.931515" style="fill: #55a868; fill-opacity: 0.35"/>
     <use xlink:href="#m8605c04c3f" x="201.321724" y="196.184751" style="fill: #55a868; fill-opacity: 0.35"/>
     <use xlink:href="#m8605c04c3f" x="201.41986" y="204.187453" style="fill: #55a868; fill-opacity: 0.35"/>
     <use xlink:href="#m8605c04c3f" x="212.257629" y="205.953142" style="fill: #55a868; fill-opacity: 0.35"/>
     <use xlink:href="#m8605c04c3f" x="203.383736" y="221.361199" style="fill: #55a868; fill-opacity: 0.35"/>
     <use xlink:href="#m8605c04c3f" x="201.002521" y="222.318712" style="fill: #55a868; fill-opacity: 0.35"/>
     <use xlink:href="#m8605c04c3f" x="195.996816" y="217.706837" style="fill: #55a868; fill-opacity: 0.35"/>
     <use xlink:href="#m8605c04c3f" x="197.562499" y="214.482916" style="fill: #55a868; fill-opacity: 0.35"/>
     <use xlink:href="#m8605c04c3f" x="202.146194" y="141.773404" style="fill: #55a868; fill-opacity: 0.35"/>
     <use xlink:href="#m8605c04c3f" x="200.164383" y="215.98507" style="fill: #55a868; fill-opacity: 0.35"/>
     <use xlink:href="#m8605c04c3f" x="190.049425" y="215.141755" style="fill: #55a868; fill-opacity: 0.35"/>
     <use xlink:href="#m8605c04c3f" x="209.554133" y="236.127985" style="fill: #55a868; fill-opacity: 0.35"/>
     <use xlink:href="#m8605c04c3f" x="211.247691" y="238.280194" style="fill: #55a868; fill-opacity: 0.35"/>
     <use xlink:href="#m8605c04c3f" x="192.925079" y="213.48148" style="fill: #55a868; fill-opacity: 0.35"/>
     <use xlink:href="#m8605c04c3f" x="202.954901" y="207.525572" style="fill: #55a868; fill-opacity: 0.35"/>
     <use xlink:href="#m8605c04c3f" x="192.157345" y="153.729142" style="fill: #55a868; fill-opacity: 0.35"/>
     <use xlink:href="#m8605c04c3f" x="205.820057" y="213.419989" style="fill: #55a868; fill-opacity: 0.35"/>
     <use xlink:href="#m8605c04c3f" x="196.342419" y="213.657171" style="fill: #55a868; fill-opacity: 0.35"/>
     <use xlink:href="#m8605c04c3f" x="205.509373" y="136.915562" style="fill: #55a868; fill-opacity: 0.35"/>
     <use xlink:href="#m8605c04c3f" x="207.147257" y="221.211862" style="fill: #55a868; fill-opacity: 0.35"/>
     <use xlink:href="#m8605c04c3f" x="208.156885" y="236.593565" style="fill: #55a868; fill-opacity: 0.35"/>
     <use xlink:href="#m8605c04c3f" x="192.137111" y="200.172925" style="fill: #55a868; fill-opacity: 0.35"/>
     <use xlink:href="#m8605c04c3f" x="211.728863" y="187.286027" style="fill: #55a868; fill-opacity: 0.35"/>
     <use xlink:href="#m8605c04c3f" x="195.105746" y="196.949005" style="fill: #55a868; fill-opacity: 0.35"/>
     <use xlink:href="#m8605c04c3f" x="190.432415" y="212.769934" style="fill: #55a868; fill-opacity: 0.35"/>
     <use xlink:href="#m8605c04c3f" x="202.974688" y="228.406388" style="fill: #55a868; fill-opacity: 0.35"/>
     <use xlink:href="#m8605c04c3f" x="198.516387" y="213.560541" style="fill: #55a868; fill-opacity: 0.35"/>
     <use xlink:href="#m8605c04c3f" x="209.638917" y="90.217028" style="fill: #55a868; fill-opacity: 0.35"/>
     <use xlink:href="#m8605c04c3f" x="209.116849" y="240.56417" style="fill: #55a868; fill-opacity: 0.35"/>
     <use xlink:href="#m8605c04c3f" x="197.212727" y="204.573972" style="fill: #55a868; fill-opacity: 0.35"/>
     <use xlink:href="#m8605c04c3f" x="212.622983" y="169.084492" style="fill: #55a868; fill-opacity: 0.35"/>
     <use xlink:href="#m8605c04c3f" x="196.577152" y="179.283325" style="fill: #55a868; fill-opacity: 0.35"/>
     <use xlink:href="#m8605c04c3f" x="202.010085" y="204.51248" style="fill: #55a868; fill-opacity: 0.35"/>
     <use xlink:href="#m8605c04c3f" x="195.729929" y="195.069116" style="fill: #55a868; fill-opacity: 0.35"/>
     <use xlink:href="#m8605c04c3f" x="212.214413" y="234.46771" style="fill: #55a868; fill-opacity: 0.35"/>
     <use xlink:href="#m8605c04c3f" x="193.515512" y="216.749323" style="fill: #55a868; fill-opacity: 0.35"/>
     <use xlink:href="#m8605c04c3f" x="190.614161" y="202.535962" style="fill: #55a868; fill-opacity: 0.35"/>
     <use xlink:href="#m8605c04c3f" x="200.071925" y="193.812929" style="fill: #55a868; fill-opacity: 0.35"/>
     <use xlink:href="#m8605c04c3f" x="213.57985" y="202.5711" style="fill: #55a868; fill-opacity: 0.35"/>
     <use xlink:href="#m8605c04c3f" x="211.139015" y="204.969276" style="fill: #55a868; fill-opacity: 0.35"/>
     <use xlink:href="#m8605c04c3f" x="207.671146" y="208.737837" style="fill: #55a868; fill-opacity: 0.35"/>
     <use xlink:href="#m8605c04c3f" x="211.117568" y="230.962685" style="fill: #55a868; fill-opacity: 0.35"/>
     <use xlink:href="#m8605c04c3f" x="211.181903" y="207.165407" style="fill: #55a868; fill-opacity: 0.35"/>
     <use xlink:href="#m8605c04c3f" x="202.102223" y="239.316768" style="fill: #55a868; fill-opacity: 0.35"/>
     <use xlink:href="#m8605c04c3f" x="197.183401" y="235.003566" style="fill: #55a868; fill-opacity: 0.35"/>
     <use xlink:href="#m8605c04c3f" x="208.238448" y="236.400305" style="fill: #55a868; fill-opacity: 0.35"/>
     <use xlink:href="#m8605c04c3f" x="205.563636" y="209.159494" style="fill: #55a868; fill-opacity: 0.35"/>
     <use xlink:href="#m8605c04c3f" x="198.582692" y="203.493476" style="fill: #55a868; fill-opacity: 0.35"/>
     <use xlink:href="#m8605c04c3f" x="191.815354" y="225.261528" style="fill: #55a868; fill-opacity: 0.35"/>
     <use xlink:href="#m8605c04c3f" x="207.627069" y="247.407315" style="fill: #55a868; fill-opacity: 0.35"/>
     <use xlink:href="#m8605c04c3f" x="195.887372" y="219.191421" style="fill: #55a868; fill-opacity: 0.35"/>
     <use xlink:href="#m8605c04c3f" x="212.233067" y="209.853471" style="fill: #55a868; fill-opacity: 0.35"/>
     <use xlink:href="#m8605c04c3f" x="195.366476" y="202.254858" style="fill: #55a868; fill-opacity: 0.35"/>
     <use xlink:href="#m8605c04c3f" x="192.501109" y="244.244886" style="fill: #55a868; fill-opacity: 0.35"/>
     <use xlink:href="#m8605c04c3f" x="209.670984" y="218.813687" style="fill: #55a868; fill-opacity: 0.35"/>
     <use xlink:href="#m8605c04c3f" x="193.241041" y="239.202569" style="fill: #55a868; fill-opacity: 0.35"/>
     <use xlink:href="#m8605c04c3f" x="193.870869" y="213.121315" style="fill: #55a868; fill-opacity: 0.35"/>
     <use xlink:href="#m8605c04c3f" x="204.054062" y="196.37801" style="fill: #55a868; fill-opacity: 0.35"/>
     <use xlink:href="#m8605c04c3f" x="210.724157" y="224.260092" style="fill: #55a868; fill-opacity: 0.35"/>
     <use xlink:href="#m8605c04c3f" x="194.286966" y="157.963283" style="fill: #55a868; fill-opacity: 0.35"/>
     <use xlink:href="#m8605c04c3f" x="197.047532" y="192.205361" style="fill: #55a868; fill-opacity: 0.35"/>
    </g>
   </g>
   <g id="PathCollection_3">
    <defs>
     <path id="mc4e6ceaa81" d="M 0 1.732051 
C 0.459345 1.732051 0.899939 1.549551 1.224745 1.224745 
C 1.549551 0.899939 1.732051 0.459345 1.732051 0 
C 1.732051 -0.459345 1.549551 -0.899939 1.224745 -1.224745 
C 0.899939 -1.549551 0.459345 -1.732051 0 -1.732051 
C -0.459345 -1.732051 -0.899939 -1.549551 -1.224745 -1.224745 
C -1.549551 -0.899939 -1.732051 -0.459345 -1.732051 0 
C -1.732051 0.459345 -1.549551 0.899939 -1.224745 1.224745 
C -0.899939 1.549551 -0.459345 1.732051 0 1.732051 
z
"/>
    </defs>
    <g clip-path="url(#pe5107c8092)">
     <use xlink:href="#mc4e6ceaa81" x="301.596427" y="219.454957" style="fill: #c44e52; fill-opacity: 0.35"/>
     <use xlink:href="#mc4e6ceaa81" x="306.30903" y="242.242014" style="fill: #c44e52; fill-opacity: 0.35"/>
     <use xlink:href="#mc4e6ceaa81" x="294.890352" y="249.875767" style="fill: #c44e52; fill-opacity: 0.35"/>
     <use xlink:href="#mc4e6ceaa81" x="286.240786" y="179.397524" style="fill: #c44e52; fill-opacity: 0.35"/>
     <use xlink:href="#mc4e6ceaa81" x="283.090644" y="224.989208" style="fill: #c44e52; fill-opacity: 0.35"/>
     <use xlink:href="#mc4e6ceaa81" x="288.319494" y="231.278927" style="fill: #c44e52; fill-opacity: 0.35"/>
     <use xlink:href="#mc4e6ceaa81" x="285.948092" y="212.963193" style="fill: #c44e52; fill-opacity: 0.35"/>
     <use xlink:href="#mc4e6ceaa81" x="299.178671" y="249.849413" style="fill: #c44e52; fill-opacity: 0.35"/>
     <use xlink:href="#mc4e6ceaa81" x="285.70595" y="242.417705" style="fill: #c44e52; fill-opacity: 0.35"/>
     <use xlink:href="#mc4e6ceaa81" x="295.025818" y="222.266005" style="fill: #c44e52; fill-opacity: 0.35"/>
     <use xlink:href="#mc4e6ceaa81" x="299.581131" y="214.561977" style="fill: #c44e52; fill-opacity: 0.35"/>
     <use xlink:href="#mc4e6ceaa81" x="296.838579" y="220.061089" style="fill: #c44e52; fill-opacity: 0.35"/>
     <use xlink:href="#mc4e6ceaa81" x="287.595221" y="239.343121" style="fill: #c44e52; fill-opacity: 0.35"/>
     <use xlink:href="#mc4e6ceaa81" x="302.244088" y="171.324546" style="fill: #c44e52; fill-opacity: 0.35"/>
     <use xlink:href="#mc4e6ceaa81" x="300.093659" y="240.309419" style="fill: #c44e52; fill-opacity: 0.35"/>
     <use xlink:href="#mc4e6ceaa81" x="300.665141" y="231.085668" style="fill: #c44e52; fill-opacity: 0.35"/>
     <use xlink:href="#mc4e6ceaa81" x="285.929562" y="251.887423" style="fill: #c44e52; fill-opacity: 0.35"/>
     <use xlink:href="#mc4e6ceaa81" x="285.752521" y="239.097155" style="fill: #c44e52; fill-opacity: 0.35"/>
     <use xlink:href="#mc4e6ceaa81" x="305.236114" y="216.178329" style="fill: #c44e52; fill-opacity: 0.35"/>
     <use xlink:href="#mc4e6ceaa81" x="292.389775" y="206.708612" style="fill: #c44e52; fill-opacity: 0.35"/>
     <use xlink:href="#mc4e6ceaa81" x="290.047564" y="256.877033" style="fill: #c44e52; fill-opacity: 0.35"/>
     <use xlink:href="#mc4e6ceaa81" x="294.595674" y="251.615102" style="fill: #c44e52; fill-opacity: 0.35"/>
     <use xlink:href="#mc4e6ceaa81" x="298.820067" y="246.537647" style="fill: #c44e52; fill-opacity: 0.35"/>
     <use xlink:href="#mc4e6ceaa81" x="305.91628" y="205.865297" style="fill: #c44e52; fill-opacity: 0.35"/>
     <use xlink:href="#mc4e6ceaa81" x="289.696037" y="228.459095" style="fill: #c44e52; fill-opacity: 0.35"/>
     <use xlink:href="#mc4e6ceaa81" x="305.169357" y="223.759374" style="fill: #c44e52; fill-opacity: 0.35"/>
     <use xlink:href="#mc4e6ceaa81" x="283.355412" y="242.426489" style="fill: #c44e52; fill-opacity: 0.35"/>
     <use xlink:href="#mc4e6ceaa81" x="296.210337" y="251.913776" style="fill: #c44e52; fill-opacity: 0.35"/>
     <use xlink:href="#mc4e6ceaa81" x="298.119821" y="239.448536" style="fill: #c44e52; fill-opacity: 0.35"/>
     <use xlink:href="#mc4e6ceaa81" x="285.319698" y="197.739612" style="fill: #c44e52; fill-opacity: 0.35"/>
     <use xlink:href="#mc4e6ceaa81" x="286.154545" y="198.468727" style="fill: #c44e52; fill-opacity: 0.35"/>
     <use xlink:href="#mc4e6ceaa81" x="292.911791" y="252.537478" style="fill: #c44e52; fill-opacity: 0.35"/>
     <use xlink:href="#mc4e6ceaa81" x="306.173424" y="241.600744" style="fill: #c44e52; fill-opacity: 0.35"/>
     <use xlink:href="#mc4e6ceaa81" x="297.200371" y="247.055934" style="fill: #c44e52; fill-opacity: 0.35"/>
     <use xlink:href="#mc4e6ceaa81" x="305.368476" y="232.702021" style="fill: #c44e52; fill-opacity: 0.35"/>
     <use xlink:href="#mc4e6ceaa81" x="302.249818" y="221.545674" style="fill: #c44e52; fill-opacity: 0.35"/>
     <use xlink:href="#mc4e6ceaa81" x="294.081746" y="235.328593" style="fill: #c44e52; fill-opacity: 0.35"/>
     <use xlink:href="#mc4e6ceaa81" x="301.774793" y="249.225712" style="fill: #c44e52; fill-opacity: 0.35"/>
     <use xlink:href="#mc4e6ceaa81" x="283.185188" y="254.443719" style="fill: #c44e52; fill-opacity: 0.35"/>
     <use xlink:href="#mc4e6ceaa81" x="285.398392" y="241.486545" style="fill: #c44e52; fill-opacity: 0.35"/>
     <use xlink:href="#mc4e6ceaa81" x="302.857437" y="221.097663" style="fill: #c44e52; fill-opacity: 0.35"/>
     <use xlink:href="#mc4e6ceaa81" x="302.066963" y="257.079077" style="fill: #c44e52; fill-opacity: 0.35"/>
     <use xlink:href="#mc4e6ceaa81" x="288.391841" y="198.231545" style="fill: #c44e52; fill-opacity: 0.35"/>
     <use xlink:href="#mc4e6ceaa81" x="295.618213" y="228.011084" style="fill: #c44e52; fill-opacity: 0.35"/>
     <use xlink:href="#mc4e6ceaa81" x="297.442113" y="238.631575" style="fill: #c44e52; fill-opacity: 0.35"/>
     <use xlink:href="#mc4e6ceaa81" x="303.786044" y="244.411792" style="fill: #c44e52; fill-opacity: 0.35"/>
     <use xlink:href="#mc4e6ceaa81" x="297.37161" y="204.125961" style="fill: #c44e52; fill-opacity: 0.35"/>
     <use xlink:href="#mc4e6ceaa81" x="292.753201" y="256.569574" style="fill: #c44e52; fill-opacity: 0.35"/>
     <use xlink:href="#mc4e6ceaa81" x="291.822722" y="246.528863" style="fill: #c44e52; fill-opacity: 0.35"/>
     <use xlink:href="#mc4e6ceaa81" x="293.075836" y="230.251138" style="fill: #c44e52; fill-opacity: 0.35"/>
     <use xlink:href="#mc4e6ceaa81" x="298.555056" y="208.210765" style="fill: #c44e52; fill-opacity: 0.35"/>
     <use xlink:href="#mc4e6ceaa81" x="303.780025" y="240.230358" style="fill: #c44e52; fill-opacity: 0.35"/>
     <use xlink:href="#mc4e6ceaa81" x="293.754889" y="211.988111" style="fill: #c44e52; fill-opacity: 0.35"/>
     <use xlink:href="#mc4e6ceaa81" x="288.760247" y="248.514165" style="fill: #c44e52; fill-opacity: 0.35"/>
     <use xlink:href="#mc4e6ceaa81" x="288.489321" y="211.07452" style="fill: #c44e52; fill-opacity: 0.35"/>
     <use xlink:href="#mc4e6ceaa81" x="300.835549" y="250.613667" style="fill: #c44e52; fill-opacity: 0.35"/>
     <use xlink:href="#mc4e6ceaa81" x="302.545725" y="216.99529" style="fill: #c44e52; fill-opacity: 0.35"/>
     <use xlink:href="#mc4e6ceaa81" x="285.304686" y="245.37809" style="fill: #c44e52; fill-opacity: 0.35"/>
     <use xlink:href="#mc4e6ceaa81" x="284.366167" y="177.008133" style="fill: #c44e52; fill-opacity: 0.35"/>
     <use xlink:href="#mc4e6ceaa81" x="297.161373" y="244.648974" style="fill: #c44e52; fill-opacity: 0.35"/>
     <use xlink:href="#mc4e6ceaa81" x="286.295947" y="243.858367" style="fill: #c44e52; fill-opacity: 0.35"/>
     <use xlink:href="#mc4e6ceaa81" x="302.741951" y="233.352075" style="fill: #c44e52; fill-opacity: 0.35"/>
     <use xlink:href="#mc4e6ceaa81" x="290.275071" y="239.905331" style="fill: #c44e52; fill-opacity: 0.35"/>
     <use xlink:href="#mc4e6ceaa81" x="286.240166" y="249.673722" style="fill: #c44e52; fill-opacity: 0.35"/>
     <use xlink:href="#mc4e6ceaa81" x="305.076328" y="220.535454" style="fill: #c44e52; fill-opacity: 0.35"/>
     <use xlink:href="#mc4e6ceaa81" x="286.765179" y="253.249024" style="fill: #c44e52; fill-opacity: 0.35"/>
     <use xlink:href="#mc4e6ceaa81" x="289.654197" y="246.555216" style="fill: #c44e52; fill-opacity: 0.35"/>
     <use xlink:href="#mc4e6ceaa81" x="286.47629" y="237.366603" style="fill: #c44e52; fill-opacity: 0.35"/>
     <use xlink:href="#mc4e6ceaa81" x="285.552215" y="246.29168" style="fill: #c44e52; fill-opacity: 0.35"/>
     <use xlink:href="#mc4e6ceaa81" x="283.26545" y="221.475398" style="fill: #c44e52; fill-opacity: 0.35"/>
     <use xlink:href="#mc4e6ceaa81" x="284.095575" y="226.412301" style="fill: #c44e52; fill-opacity: 0.35"/>
     <use xlink:href="#mc4e6ceaa81" x="286.985991" y="254.364659" style="fill: #c44e52; fill-opacity: 0.35"/>
     <use xlink:href="#mc4e6ceaa81" x="284.04677" y="243.700246" style="fill: #c44e52; fill-opacity: 0.35"/>
     <use xlink:href="#mc4e6ceaa81" x="297.08163" y="208.184412" style="fill: #c44e52; fill-opacity: 0.35"/>
     <use xlink:href="#mc4e6ceaa81" x="299.252742" y="224.769595" style="fill: #c44e52; fill-opacity: 0.35"/>
     <use xlink:href="#mc4e6ceaa81" x="292.294085" y="236.997653" style="fill: #c44e52; fill-opacity: 0.35"/>
     <use xlink:href="#mc4e6ceaa81" x="290.460656" y="198.811324" style="fill: #c44e52; fill-opacity: 0.35"/>
     <use xlink:href="#mc4e6ceaa81" x="294.982098" y="188.919949" style="fill: #c44e52; fill-opacity: 0.35"/>
     <use xlink:href="#mc4e6ceaa81" x="303.962165" y="225.990644" style="fill: #c44e52; fill-opacity: 0.35"/>
     <use xlink:href="#mc4e6ceaa81" x="303.383498" y="246.722122" style="fill: #c44e52; fill-opacity: 0.35"/>
     <use xlink:href="#mc4e6ceaa81" x="283.806637" y="250.569744" style="fill: #c44e52; fill-opacity: 0.35"/>
     <use xlink:href="#mc4e6ceaa81" x="287.152197" y="195.183315" style="fill: #c44e52; fill-opacity: 0.35"/>
     <use xlink:href="#mc4e6ceaa81" x="288.491321" y="228.845614" style="fill: #c44e52; fill-opacity: 0.35"/>
     <use xlink:href="#mc4e6ceaa81" x="288.797769" y="238.025443" style="fill: #c44e52; fill-opacity: 0.35"/>
     <use xlink:href="#mc4e6ceaa81" x="296.599001" y="227.773902" style="fill: #c44e52; fill-opacity: 0.35"/>
     <use xlink:href="#mc4e6ceaa81" x="292.842664" y="254.584272" style="fill: #c44e52; fill-opacity: 0.35"/>
     <use xlink:href="#mc4e6ceaa81" x="283.946716" y="218.945455" style="fill: #c44e52; fill-opacity: 0.35"/>
     <use xlink:href="#mc4e6ceaa81" x="291.808908" y="244.44693" style="fill: #c44e52; fill-opacity: 0.35"/>
     <use xlink:href="#mc4e6ceaa81" x="295.448136" y="256.112779" style="fill: #c44e52; fill-opacity: 0.35"/>
     <use xlink:href="#mc4e6ceaa81" x="285.217275" y="198.679556" style="fill: #c44e52; fill-opacity: 0.35"/>
     <use xlink:href="#mc4e6ceaa81" x="302.955119" y="254.926868" style="fill: #c44e52; fill-opacity: 0.35"/>
     <use xlink:href="#mc4e6ceaa81" x="284.012349" y="229.724067" style="fill: #c44e52; fill-opacity: 0.35"/>
     <use xlink:href="#mc4e6ceaa81" x="305.170167" y="233.132462" style="fill: #c44e52; fill-opacity: 0.35"/>
     <use xlink:href="#mc4e6ceaa81" x="285.155253" y="209.42303" style="fill: #c44e52; fill-opacity: 0.35"/>
     <use xlink:href="#mc4e6ceaa81" x="303.200331" y="265.275039" style="fill: #c44e52; fill-opacity: 0.35"/>
     <use xlink:href="#mc4e6ceaa81" x="304.632333" y="254.610625" style="fill: #c44e52; fill-opacity: 0.35"/>
     <use xlink:href="#mc4e6ceaa81" x="306.496744" y="245.632841" style="fill: #c44e52; fill-opacity: 0.35"/>
     <use xlink:href="#mc4e6ceaa81" x="302.193219" y="238.368039" style="fill: #c44e52; fill-opacity: 0.35"/>
     <use xlink:href="#mc4e6ceaa81" x="301.646668" y="243.884721" style="fill: #c44e52; fill-opacity: 0.35"/>
     <use xlink:href="#mc4e6ceaa81" x="298.326051" y="253.213886" style="fill: #c44e52; fill-opacity: 0.35"/>
    </g>
   </g>
   <g id="PathCollection_4">
    <defs>
     <path id="mb91ec17ea7" d="M 0 1.732051 
C 0.459345 1.732051 0.899939 1.549551 1.224745 1.224745 
C 1.549551 0.899939 1.732051 0.459345 1.732051 0 
C 1.732051 -0.459345 1.549551 -0.899939 1.224745 -1.224745 
C 0.899939 -1.549551 0.459345 -1.732051 0 -1.732051 
C -0.459345 -1.732051 -0.899939 -1.549551 -1.224745 -1.224745 
C -1.549551 -0.899939 -1.732051 -0.459345 -1.732051 0 
C -1.732051 0.459345 -1.549551 0.899939 -1.224745 1.224745 
C -0.899939 1.549551 -0.459345 1.732051 0 1.732051 
z
"/>
    </defs>
    <g clip-path="url(#pe5107c8092)">
     <use xlink:href="#mb91ec17ea7" x="394.862277" y="258.440678" style="fill: #8172b2; fill-opacity: 0.35"/>
     <use xlink:href="#mb91ec17ea7" x="379.241537" y="257.527088" style="fill: #8172b2; fill-opacity: 0.35"/>
     <use xlink:href="#mb91ec17ea7" x="388.973915" y="267.620507" style="fill: #8172b2; fill-opacity: 0.35"/>
     <use xlink:href="#mb91ec17ea7" x="388.444409" y="233.299368" style="fill: #8172b2; fill-opacity: 0.35"/>
     <use xlink:href="#mb91ec17ea7" x="396.766883" y="270.431555" style="fill: #8172b2; fill-opacity: 0.35"/>
     <use xlink:href="#mb91ec17ea7" x="387.19795" y="256.552005" style="fill: #8172b2; fill-opacity: 0.35"/>
     <use xlink:href="#mb91ec17ea7" x="385.314333" y="235.706328" style="fill: #8172b2; fill-opacity: 0.35"/>
     <use xlink:href="#mb91ec17ea7" x="391.482546" y="255.489078" style="fill: #8172b2; fill-opacity: 0.35"/>
     <use xlink:href="#mb91ec17ea7" x="382.438942" y="260.417196" style="fill: #8172b2; fill-opacity: 0.35"/>
     <use xlink:href="#mb91ec17ea7" x="379.367973" y="255.08499" style="fill: #8172b2; fill-opacity: 0.35"/>
     <use xlink:href="#mb91ec17ea7" x="387.563424" y="253.380792" style="fill: #8172b2; fill-opacity: 0.35"/>
     <use xlink:href="#mb91ec17ea7" x="386.085133" y="244.095549" style="fill: #8172b2; fill-opacity: 0.35"/>
     <use xlink:href="#mb91ec17ea7" x="381.617398" y="244.965217" style="fill: #8172b2; fill-opacity: 0.35"/>
     <use xlink:href="#mb91ec17ea7" x="384.888266" y="256.991232" style="fill: #8172b2; fill-opacity: 0.35"/>
     <use xlink:href="#mb91ec17ea7" x="384.861134" y="255.82289" style="fill: #8172b2; fill-opacity: 0.35"/>
     <use xlink:href="#mb91ec17ea7" x="383.918308" y="258.818413" style="fill: #8172b2; fill-opacity: 0.35"/>
     <use xlink:href="#mb91ec17ea7" x="385.177978" y="260.0746" style="fill: #8172b2; fill-opacity: 0.35"/>
     <use xlink:href="#mb91ec17ea7" x="392.601909" y="257.465596" style="fill: #8172b2; fill-opacity: 0.35"/>
     <use xlink:href="#mb91ec17ea7" x="383.176129" y="249.779137" style="fill: #8172b2; fill-opacity: 0.35"/>
     <use xlink:href="#mb91ec17ea7" x="398.979567" y="251.948914" style="fill: #8172b2; fill-opacity: 0.35"/>
     <use xlink:href="#mb91ec17ea7" x="398.191557" y="250.587313" style="fill: #8172b2; fill-opacity: 0.35"/>
     <use xlink:href="#mb91ec17ea7" x="387.636945" y="268.692219" style="fill: #8172b2; fill-opacity: 0.35"/>
     <use xlink:href="#mb91ec17ea7" x="383.939291" y="257.228414" style="fill: #8172b2; fill-opacity: 0.35"/>
     <use xlink:href="#mb91ec17ea7" x="388.958566" y="244.587483" style="fill: #8172b2; fill-opacity: 0.35"/>
     <use xlink:href="#mb91ec17ea7" x="396.548448" y="209.50209" style="fill: #8172b2; fill-opacity: 0.35"/>
     <use xlink:href="#mb91ec17ea7" x="391.798238" y="266.882607" style="fill: #8172b2; fill-opacity: 0.35"/>
     <use xlink:href="#mb91ec17ea7" x="395.47784" y="252.238804" style="fill: #8172b2; fill-opacity: 0.35"/>
     <use xlink:href="#mb91ec17ea7" x="388.892817" y="261.910566" style="fill: #8172b2; fill-opacity: 0.35"/>
     <use xlink:href="#mb91ec17ea7" x="391.321462" y="253.038195" style="fill: #8172b2; fill-opacity: 0.35"/>
     <use xlink:href="#mb91ec17ea7" x="382.964744" y="259.090733" style="fill: #8172b2; fill-opacity: 0.35"/>
     <use xlink:href="#mb91ec17ea7" x="393.793256" y="254.452504" style="fill: #8172b2; fill-opacity: 0.35"/>
     <use xlink:href="#mb91ec17ea7" x="380.886217" y="254.970791" style="fill: #8172b2; fill-opacity: 0.35"/>
     <use xlink:href="#mb91ec17ea7" x="392.821389" y="254.61941" style="fill: #8172b2; fill-opacity: 0.35"/>
     <use xlink:href="#mb91ec17ea7" x="396.843161" y="249.014883" style="fill: #8172b2; fill-opacity: 0.35"/>
     <use xlink:href="#mb91ec17ea7" x="379.182166" y="255.541785" style="fill: #8172b2; fill-opacity: 0.35"/>
     <use xlink:href="#mb91ec17ea7" x="390.87212" y="230.049094" style="fill: #8172b2; fill-opacity: 0.35"/>
     <use xlink:href="#mb91ec17ea7" x="378.285148" y="257.737916" style="fill: #8172b2; fill-opacity: 0.35"/>
     <use xlink:href="#mb91ec17ea7" x="393.570801" y="247.196486" style="fill: #8172b2; fill-opacity: 0.35"/>
     <use xlink:href="#mb91ec17ea7" x="378.028152" y="253.97814" style="fill: #8172b2; fill-opacity: 0.35"/>
     <use xlink:href="#mb91ec17ea7" x="398.666444" y="242.567042" style="fill: #8172b2; fill-opacity: 0.35"/>
     <use xlink:href="#mb91ec17ea7" x="379.310757" y="268.490175" style="fill: #8172b2; fill-opacity: 0.35"/>
     <use xlink:href="#mb91ec17ea7" x="399.222499" y="258.317695" style="fill: #8172b2; fill-opacity: 0.35"/>
     <use xlink:href="#mb91ec17ea7" x="395.392818" y="252.388141" style="fill: #8172b2; fill-opacity: 0.35"/>
     <use xlink:href="#mb91ec17ea7" x="390.370426" y="261.770013" style="fill: #8172b2; fill-opacity: 0.35"/>
     <use xlink:href="#mb91ec17ea7" x="394.95021" y="257.114215" style="fill: #8172b2; fill-opacity: 0.35"/>
     <use xlink:href="#mb91ec17ea7" x="395.252975" y="245.342952" style="fill: #8172b2; fill-opacity: 0.35"/>
     <use xlink:href="#mb91ec17ea7" x="398.91095" y="243.34008" style="fill: #8172b2; fill-opacity: 0.35"/>
     <use xlink:href="#mb91ec17ea7" x="382.121896" y="254.241675" style="fill: #8172b2; fill-opacity: 0.35"/>
     <use xlink:href="#mb91ec17ea7" x="390.283017" y="249.638584" style="fill: #8172b2; fill-opacity: 0.35"/>
     <use xlink:href="#mb91ec17ea7" x="378.28402" y="238.52616" style="fill: #8172b2; fill-opacity: 0.35"/>
     <use xlink:href="#mb91ec17ea7" x="390.91541" y="258.212281" style="fill: #8172b2; fill-opacity: 0.35"/>
     <use xlink:href="#mb91ec17ea7" x="380.132059" y="261.436201" style="fill: #8172b2; fill-opacity: 0.35"/>
     <use xlink:href="#mb91ec17ea7" x="389.674003" y="241.530468" style="fill: #8172b2; fill-opacity: 0.35"/>
     <use xlink:href="#mb91ec17ea7" x="389.855309" y="235.662405" style="fill: #8172b2; fill-opacity: 0.35"/>
     <use xlink:href="#mb91ec17ea7" x="387.27517" y="263.342443" style="fill: #8172b2; fill-opacity: 0.35"/>
     <use xlink:href="#mb91ec17ea7" x="388.648233" y="228.775338" style="fill: #8172b2; fill-opacity: 0.35"/>
     <use xlink:href="#mb91ec17ea7" x="394.496922" y="238.368039" style="fill: #8172b2; fill-opacity: 0.35"/>
     <use xlink:href="#mb91ec17ea7" x="395.353079" y="229.460531" style="fill: #8172b2; fill-opacity: 0.35"/>
     <use xlink:href="#mb91ec17ea7" x="387.90946" y="248.52295" style="fill: #8172b2; fill-opacity: 0.35"/>
     <use xlink:href="#mb91ec17ea7" x="390.513714" y="244.789527" style="fill: #8172b2; fill-opacity: 0.35"/>
     <use xlink:href="#mb91ec17ea7" x="398.552433" y="250.17444" style="fill: #8172b2; fill-opacity: 0.35"/>
     <use xlink:href="#mb91ec17ea7" x="378.882347" y="248.619579" style="fill: #8172b2; fill-opacity: 0.35"/>
     <use xlink:href="#mb91ec17ea7" x="378.818598" y="248.935822" style="fill: #8172b2; fill-opacity: 0.35"/>
     <use xlink:href="#mb91ec17ea7" x="378.1061" y="249.840628" style="fill: #8172b2; fill-opacity: 0.35"/>
     <use xlink:href="#mb91ec17ea7" x="391.926122" y="252.880074" style="fill: #8172b2; fill-opacity: 0.35"/>
     <use xlink:href="#mb91ec17ea7" x="386.126798" y="259.556313" style="fill: #8172b2; fill-opacity: 0.35"/>
     <use xlink:href="#mb91ec17ea7" x="394.748961" y="259.231285" style="fill: #8172b2; fill-opacity: 0.35"/>
     <use xlink:href="#mb91ec17ea7" x="392.250153" y="267.295479" style="fill: #8172b2; fill-opacity: 0.35"/>
     <use xlink:href="#mb91ec17ea7" x="384.06719" y="238.842403" style="fill: #8172b2; fill-opacity: 0.35"/>
     <use xlink:href="#mb91ec17ea7" x="397.755702" y="238.174779" style="fill: #8172b2; fill-opacity: 0.35"/>
     <use xlink:href="#mb91ec17ea7" x="394.4632" y="264.976365" style="fill: #8172b2; fill-opacity: 0.35"/>
     <use xlink:href="#mb91ec17ea7" x="382.537635" y="214.210596" style="fill: #8172b2; fill-opacity: 0.35"/>
     <use xlink:href="#mb91ec17ea7" x="384.807797" y="233.703456" style="fill: #8172b2; fill-opacity: 0.35"/>
     <use xlink:href="#mb91ec17ea7" x="383.601853" y="255.928304" style="fill: #8172b2; fill-opacity: 0.35"/>
     <use xlink:href="#mb91ec17ea7" x="379.800477" y="251.052893" style="fill: #8172b2; fill-opacity: 0.35"/>
     <use xlink:href="#mb91ec17ea7" x="379.562248" y="248.997314" style="fill: #8172b2; fill-opacity: 0.35"/>
     <use xlink:href="#mb91ec17ea7" x="398.670992" y="249.032452" style="fill: #8172b2; fill-opacity: 0.35"/>
     <use xlink:href="#mb91ec17ea7" x="386.594509" y="214.166673" style="fill: #8172b2; fill-opacity: 0.35"/>
     <use xlink:href="#mb91ec17ea7" x="385.271438" y="249.761568" style="fill: #8172b2; fill-opacity: 0.35"/>
     <use xlink:href="#mb91ec17ea7" x="393.667032" y="245.773393" style="fill: #8172b2; fill-opacity: 0.35"/>
     <use xlink:href="#mb91ec17ea7" x="389.384163" y="262.630897" style="fill: #8172b2; fill-opacity: 0.35"/>
     <use xlink:href="#mb91ec17ea7" x="398.671296" y="263.95736" style="fill: #8172b2; fill-opacity: 0.35"/>
     <use xlink:href="#mb91ec17ea7" x="394.893912" y="254.575487" style="fill: #8172b2; fill-opacity: 0.35"/>
     <use xlink:href="#mb91ec17ea7" x="387.599596" y="259.125871" style="fill: #8172b2; fill-opacity: 0.35"/>
     <use xlink:href="#mb91ec17ea7" x="385.102725" y="257.351397" style="fill: #8172b2; fill-opacity: 0.35"/>
     <use xlink:href="#mb91ec17ea7" x="399.895165" y="260.136091" style="fill: #8172b2; fill-opacity: 0.35"/>
     <use xlink:href="#mb91ec17ea7" x="393.377969" y="250.306208" style="fill: #8172b2; fill-opacity: 0.35"/>
     <use xlink:href="#mb91ec17ea7" x="399.036207" y="262.051118" style="fill: #8172b2; fill-opacity: 0.35"/>
     <use xlink:href="#mb91ec17ea7" x="378.851927" y="252.686814" style="fill: #8172b2; fill-opacity: 0.35"/>
     <use xlink:href="#mb91ec17ea7" x="396.596277" y="225.428434" style="fill: #8172b2; fill-opacity: 0.35"/>
     <use xlink:href="#mb91ec17ea7" x="391.422205" y="260.671948" style="fill: #8172b2; fill-opacity: 0.35"/>
     <use xlink:href="#mb91ec17ea7" x="378.935384" y="251.74687" style="fill: #8172b2; fill-opacity: 0.35"/>
     <use xlink:href="#mb91ec17ea7" x="390.238953" y="263.280951" style="fill: #8172b2; fill-opacity: 0.35"/>
     <use xlink:href="#mb91ec17ea7" x="392.610466" y="260.215152" style="fill: #8172b2; fill-opacity: 0.35"/>
     <use xlink:href="#mb91ec17ea7" x="376.27832" y="231.814784" style="fill: #8172b2; fill-opacity: 0.35"/>
     <use xlink:href="#mb91ec17ea7" x="386.992368" y="246.072067" style="fill: #8172b2; fill-opacity: 0.35"/>
     <use xlink:href="#mb91ec17ea7" x="395.987047" y="257.325044" style="fill: #8172b2; fill-opacity: 0.35"/>
     <use xlink:href="#mb91ec17ea7" x="383.139348" y="252.607754" style="fill: #8172b2; fill-opacity: 0.35"/>
     <use xlink:href="#mb91ec17ea7" x="387.094902" y="257.017585" style="fill: #8172b2; fill-opacity: 0.35"/>
     <use xlink:href="#mb91ec17ea7" x="386.701406" y="249.480463" style="fill: #8172b2; fill-opacity: 0.35"/>
    </g>
   </g>
   <g id="text_13">
    <!-- *** -->
    <g style="fill: #333333" transform="translate(148.281477 53.192432) scale(0.09 -0.09)">
     <defs>
      <path id="DejaVuSans-2a" d="M 3009 3897 
L 1888 3291 
L 3009 2681 
L 2828 2375 
L 1778 3009 
L 1778 1831 
L 1422 1831 
L 1422 3009 
L 372 2375 
L 191 2681 
L 1313 3291 
L 191 3897 
L 372 4206 
L 1422 3572 
L 1422 4750 
L 1778 4750 
L 1778 3572 
L 2828 4206 
L 3009 3897 
z
" transform="scale(0.015625)"/>
     </defs>
     <use xlink:href="#DejaVuSans-2a"/>
     <use xlink:href="#DejaVuSans-2a" transform="translate(50 0)"/>
     <use xlink:href="#DejaVuSans-2a" transform="translate(100 0)"/>
    </g>
   </g>
   <g id="text_14">
    <!-- *** -->
    <g style="fill: #333333" transform="translate(194.895114 35.074835) scale(0.09 -0.09)">
     <use xlink:href="#DejaVuSans-2a"/>
     <use xlink:href="#DejaVuSans-2a" transform="translate(50 0)"/>
     <use xlink:href="#DejaVuSans-2a" transform="translate(100 0)"/>
    </g>
   </g>
   <g id="text_15">
    <!-- *** -->
    <g style="fill: #333333" transform="translate(241.50875 16.957237) scale(0.09 -0.09)">
     <use xlink:href="#DejaVuSans-2a"/>
     <use xlink:href="#DejaVuSans-2a" transform="translate(50 0)"/>
     <use xlink:href="#DejaVuSans-2a" transform="translate(100 0)"/>
    </g>
   </g>
  </g>
 </g>
 <defs>
  <clipPath id="pe5107c8092">
   <rect x="43.15875" y="7.2" width="410.2" height="275.24"/>
  </clipPath>
 </defs>
</svg>
