<?xml version="1.0" encoding="utf-8" standalone="no"?>
<!DOCTYPE svg PUBLIC "-//W3C//DTD SVG 1.1//EN"
  "http://www.w3.org/Graphics/SVG/1.1/DTD/svg11.dtd">
<svg xmlns:xlink="http://www.w3.org/1999/xlink" width="327.28315pt" height="368.449638pt" viewBox="0 0 327.28315 368.449638" xmlns="http://www.w3.org/2000/svg" version="1.1">
 <metadata>
  <rdf:RDF xmlns:dc="http://purl.org/dc/elements/1.1/" xmlns:cc="http://creativecommons.org/ns#" xmlns:rdf="http://www.w3.org/1999/02/22-rdf-syntax-ns#">
   <cc:Work>
    <dc:type rdf:resource="http://purl.org/dc/dcmitype/StillImage"/>
    <dc:date>2026-05-17T01:03:52.534886</dc:date>
    <dc:format>image/svg+xml</dc:format>
    <dc:creator>
     <cc:Agent>
      <dc:title>Matplotlib v3.10.8, https://matplotlib.org/</dc:title>
     </cc:Agent>
    </dc:creator>
   </cc:Work>
  </rdf:RDF>
 </metadata>
 <defs>
  <style type="text/css">*{stroke-linejoin: round; stroke-linecap: butt}</style>
 </defs>
 <g id="figure_1">
  <g id="patch_1">
   <path d="M 0 368.449638
L 327.28315 368.449638
L 327.28315 0
L 0 0
z
" style="fill: #ffffff"/>
  </g>
  <g id="axes_1">
   <g id="patch_2">
    <path d="M 305.895929 173.117635
C 305.895929 154.053329 302.140676 135.174399 294.845082 117.561277
C 287.549488 99.948155 276.855433 83.943371 263.374933 70.462871
C 249.894433 56.98237 233.889649 46.288316 216.276527 38.992722
C 198.663405 31.697128 179.784475 27.941875 160.720169 27.941875
C 141.655863 27.941875 122.776933 31.697128 105.163811 38.992722
C 87.550688 46.288316 71.545905 56.98237 58.065405 70.462871
C 44.584904 83.943371 33.89085 99.948155 26.595256 117.561277
C 19.299661 135.174399 15.544409 154.053329 15.544409 173.117635
C 15.544409 192.181941 19.299661 211.060871 26.595256 228.673993
C 33.89085 246.287115 44.584904 262.291899 58.065405 275.772399
C 71.545905 289.2529 87.550688 299.946954 105.163811 307.242548
C 122.776933 314.538142 141.655863 318.293395 160.720169 318.293395
C 179.784475 318.293395 198.663405 314.538142 216.276527 307.242548
C 233.889649 299.946954 249.894433 289.2529 263.374933 275.772399
C 276.855433 262.291899 287.549488 246.287115 294.845082 228.673993
C 302.140676 211.060871 305.895929 192.181941 305.895929 173.117635
M 160.720169 173.117635
C 160.720169 173.117635 160.720169 173.117635 160.720169 173.117635
C 160.720169 173.117635 160.720169 173.117635 160.720169 173.117635
C 160.720169 173.117635 160.720169 173.117635 160.720169 173.117635
C 160.720169 173.117635 160.720169 173.117635 160.720169 173.117635
C 160.720169 173.117635 160.720169 173.117635 160.720169 173.117635
C 160.720169 173.117635 160.720169 173.117635 160.720169 173.117635
C 160.720169 173.117635 160.720169 173.117635 160.720169 173.117635
C 160.720169 173.117635 160.720169 173.117635 160.720169 173.117635
C 160.720169 173.117635 160.720169 173.117635 160.720169 173.117635
C 160.720169 173.117635 160.720169 173.117635 160.720169 173.117635
C 160.720169 173.117635 160.720169 173.117635 160.720169 173.117635
C 160.720169 173.117635 160.720169 173.117635 160.720169 173.117635
C 160.720169 173.117635 160.720169 173.117635 160.720169 173.117635
C 160.720169 173.117635 160.720169 173.117635 160.720169 173.117635
C 160.720169 173.117635 160.720169 173.117635 160.720169 173.117635
C 160.720169 173.117635 160.720169 173.117635 160.720169 173.117635
z
" style="fill: #fafafa"/>
   </g>
   <g id="matplotlib.axis_1">
    <g id="xtick_1">
     <g id="line2d_1">
      <path d="M 160.720169 173.117635
L 160.720169 27.941875
" clip-path="url(#p257c31d74f)" style="fill: none; stroke: #c8c8c8; stroke-width: 0.7; stroke-linecap: square"/>
     </g>
     <g id="text_1">
      <text style="font-size: 7px; font-family: 'Arial'; text-anchor: middle; fill: #626262" x="160.720169" y="12.210469" transform="rotate(-0 160.720169 12.210469)">Accuracy</text>
     </g>
    </g>
    <g id="xtick_2">
     <g id="line2d_2">
      <path d="M 160.720169 173.117635
L 286.446065 100.529755
" clip-path="url(#p257c31d74f)" style="fill: none; stroke: #c8c8c8; stroke-width: 0.7; stroke-linecap: square"/>
     </g>
     <g id="text_2">
      <text style="font-size: 7px; font-family: 'Arial'; text-anchor: middle; fill: #626262" x="301.60151" y="93.589364" transform="rotate(-0 301.60151 93.589364)">F1</text>
     </g>
    </g>
    <g id="xtick_3">
     <g id="line2d_3">
      <path d="M 160.720169 173.117635
L 286.446065 245.705515
" clip-path="url(#p257c31d74f)" style="fill: none; stroke: #c8c8c8; stroke-width: 0.7; stroke-linecap: square"/>
     </g>
     <g id="text_3">
      <text style="font-size: 7px; font-family: 'Arial'; text-anchor: middle; fill: #626262" x="301.60151" y="256.265124" transform="rotate(-0 301.60151 256.265124)">Robustness</text>
     </g>
    </g>
    <g id="xtick_4">
     <g id="line2d_4">
      <path d="M 160.720169 173.117635
L 160.720169 318.293395
" clip-path="url(#p257c31d74f)" style="fill: none; stroke: #c8c8c8; stroke-width: 0.7; stroke-linecap: square"/>
     </g>
     <g id="text_4">
      <text style="font-size: 7px; font-family: 'Arial'; text-anchor: middle; fill: #626262" x="160.720169" y="337.603004" transform="rotate(-0 160.720169 337.603004)">Calibration</text>
     </g>
    </g>
    <g id="xtick_5">
     <g id="line2d_5">
      <path d="M 160.720169 173.117635
L 34.994273 245.705515
" clip-path="url(#p257c31d74f)" style="fill: none; stroke: #c8c8c8; stroke-width: 0.7; stroke-linecap: square"/>
     </g>
     <g id="text_5">
      <text style="font-size: 7px; font-family: 'Arial'; text-anchor: middle; fill: #626262" x="19.838828" y="256.307781" transform="rotate(-0 19.838828 256.307781)">Speed</text>
     </g>
    </g>
    <g id="xtick_6">
     <g id="line2d_6">
      <path d="M 160.720169 173.117635
L 34.994273 100.529755
" clip-path="url(#p257c31d74f)" style="fill: none; stroke: #c8c8c8; stroke-width: 0.7; stroke-linecap: square"/>
     </g>
     <g id="text_6">
      <text style="font-size: 7px; font-family: 'Arial'; text-anchor: middle; fill: #626262" x="19.838828" y="93.548349" transform="rotate(-0 19.838828 93.548349)">Memory</text>
     </g>
    </g>
   </g>
   <g id="matplotlib.axis_2">
    <g id="ytick_1">
     <g id="line2d_7">
      <path d="M 160.720169 144.082483
C 164.53303 144.082483 168.308816 144.833534 171.83144 146.292652
C 175.354065 147.751771 178.555022 149.890582 181.251122 152.586682
C 183.947222 155.282782 186.086033 158.483739 187.545152 162.006363
C 189.00427 165.528988 189.755321 169.304774 189.755321 173.117635
C 189.755321 176.930496 189.00427 180.706282 187.545152 184.228907
C 186.086033 187.751531 183.947222 190.952488 181.251122 193.648588
C 178.555022 196.344688 175.354065 198.483499 171.83144 199.942618
C 168.308816 201.401736 164.53303 202.152787 160.720169 202.152787
C 156.907308 202.152787 153.131522 201.401736 149.608897 199.942618
C 146.086273 198.483499 142.885316 196.344688 140.189216 193.648588
C 137.493116 190.952488 135.354305 187.751531 133.895186 184.228907
C 132.436067 180.706282 131.685017 176.930496 131.685017 173.117635
C 131.685017 169.304774 132.436067 165.528988 133.895186 162.006363
C 135.354305 158.483739 137.493116 155.282782 140.189216 152.586682
C 142.885316 149.890582 146.086273 147.751771 149.608897 146.292652
C 153.131522 144.833534 156.907308 144.082483 160.720169 144.082483
" clip-path="url(#p257c31d74f)" style="fill: none; stroke: #c8c8c8; stroke-width: 0.7; stroke-linecap: square"/>
     </g>
     <g id="text_7">
      <text style="font-size: 7px; font-family: 'Arial'; text-anchor: start; fill: #777777" x="189.755321" y="171.726385" transform="rotate(-0 189.755321 171.726385)">0.2</text>
     </g>
    </g>
    <g id="ytick_2">
     <g id="line2d_8">
      <path d="M 160.720169 115.047331
C 168.345891 115.047331 175.897463 116.549432 182.942712 119.46767
C 189.987961 122.385907 196.389875 126.663529 201.782075 132.055729
C 207.174275 137.447929 211.451897 143.849843 214.370134 150.895092
C 217.288372 157.940341 218.790473 165.491913 218.790473 173.117635
C 218.790473 180.743357 217.288372 188.294929 214.370134 195.340178
C 211.451897 202.385427 207.174275 208.787341 201.782075 214.179541
C 196.389875 219.571741 189.987961 223.849363 182.942712 226.7676
C 175.897463 229.685838 168.345891 231.187939 160.720169 231.187939
C 153.094446 231.187939 145.542875 229.685838 138.497626 226.7676
C 131.452377 223.849363 125.050463 219.571741 119.658263 214.179541
C 114.266063 208.787341 109.988441 202.385427 107.070204 195.340178
C 104.151966 188.294929 102.649865 180.743357 102.649865 173.117635
C 102.649865 165.491913 104.151966 157.940341 107.070204 150.895092
C 109.988441 143.849843 114.266063 137.447929 119.658263 132.055729
C 125.050463 126.663529 131.452377 122.385907 138.497626 119.46767
C 145.542875 116.549432 153.094446 115.047331 160.720169 115.047331
" clip-path="url(#p257c31d74f)" style="fill: none; stroke: #c8c8c8; stroke-width: 0.7; stroke-linecap: square"/>
     </g>
     <g id="text_8">
      <text style="font-size: 7px; font-family: 'Arial'; text-anchor: start; fill: #777777" x="218.790473" y="171.726385" transform="rotate(-0 218.790473 171.726385)">0.4</text>
     </g>
    </g>
    <g id="ytick_3">
     <g id="line2d_9">
      <path d="M 160.720169 86.012179
C 172.158753 86.012179 183.48611 88.265331 194.053984 92.642687
C 204.621857 97.020043 214.224727 103.436476 222.313027 111.524776
C 230.401328 119.613076 236.81776 129.215947 241.195117 139.78382
C 245.572473 150.351693 247.825625 161.679051 247.825625 173.117635
C 247.825625 184.556219 245.572473 195.883577 241.195117 206.45145
C 236.81776 217.019323 230.401328 226.622194 222.313027 234.710494
C 214.224727 242.798794 204.621857 249.215227 194.053984 253.592583
C 183.48611 257.969939 172.158753 260.223091 160.720169 260.223091
C 149.281585 260.223091 137.954227 257.969939 127.386354 253.592583
C 116.818481 249.215227 107.21561 242.798794 99.12731 234.710494
C 91.03901 226.622194 84.622577 217.019323 80.245221 206.45145
C 75.867864 195.883577 73.614713 184.556219 73.614713 173.117635
C 73.614713 161.679051 75.867864 150.351693 80.245221 139.78382
C 84.622577 129.215947 91.03901 119.613076 99.12731 111.524776
C 107.21561 103.436476 116.818481 97.020043 127.386354 92.642687
C 137.954227 88.265331 149.281585 86.012179 160.720169 86.012179
" clip-path="url(#p257c31d74f)" style="fill: none; stroke: #c8c8c8; stroke-width: 0.7; stroke-linecap: square"/>
     </g>
     <g id="text_9">
      <text style="font-size: 7px; font-family: 'Arial'; text-anchor: start; fill: #777777" x="247.825625" y="171.726385" transform="rotate(-0 247.825625 171.726385)">0.6</text>
     </g>
    </g>
    <g id="ytick_4">
     <g id="line2d_10">
      <path d="M 160.720169 56.977027
C 175.971614 56.977027 191.074758 59.981229 205.165255 65.817704
C 219.255753 71.65418 232.05958 80.209423 242.84398 90.993824
C 253.62838 101.778224 262.183624 114.582051 268.020099 128.672548
C 273.856575 142.763046 276.860777 157.86619 276.860777 173.117635
C 276.860777 188.36908 273.856575 203.472224 268.020099 217.562722
C 262.183624 231.653219 253.62838 244.457046 242.84398 255.241446
C 232.05958 266.025847 219.255753 274.58109 205.165255 280.417566
C 191.074758 286.254041 175.971614 289.258243 160.720169 289.258243
C 145.468724 289.258243 130.36558 286.254041 116.275082 280.417566
C 102.184585 274.58109 89.380757 266.025847 78.596357 255.241446
C 67.811957 244.457046 59.256714 231.653219 53.420238 217.562722
C 47.583763 203.472224 44.579561 188.36908 44.579561 173.117635
C 44.579561 157.86619 47.583763 142.763046 53.420238 128.672548
C 59.256714 114.582051 67.811957 101.778224 78.596357 90.993824
C 89.380757 80.209423 102.184585 71.65418 116.275082 65.817704
C 130.36558 59.981229 145.468724 56.977027 160.720169 56.977027
" clip-path="url(#p257c31d74f)" style="fill: none; stroke: #c8c8c8; stroke-width: 0.7; stroke-linecap: square"/>
     </g>
     <g id="text_10">
      <text style="font-size: 7px; font-family: 'Arial'; text-anchor: start; fill: #777777" x="276.860777" y="171.726385" transform="rotate(-0 276.860777 171.726385)">0.8</text>
     </g>
    </g>
    <g id="ytick_5">
     <g id="line2d_11">
      <path d="M 160.720169 27.941875
C 179.784475 27.941875 198.663405 31.697128 216.276527 38.992722
C 233.889649 46.288316 249.894433 56.98237 263.374933 70.462871
C 276.855433 83.943371 287.549488 99.948155 294.845082 117.561277
C 302.140676 135.174399 305.895929 154.053329 305.895929 173.117635
C 305.895929 192.181941 302.140676 211.060871 294.845082 228.673993
C 287.549488 246.287115 276.855433 262.291899 263.374933 275.772399
C 249.894433 289.2529 233.889649 299.946954 216.276527 307.242548
C 198.663405 314.538142 179.784475 318.293395 160.720169 318.293395
C 141.655863 318.293395 122.776933 314.538142 105.163811 307.242548
C 87.550688 299.946954 71.545905 289.2529 58.065405 275.772399
C 44.584904 262.291899 33.89085 246.287115 26.595256 228.673993
C 19.299661 211.060871 15.544409 192.181941 15.544409 173.117635
C 15.544409 154.053329 19.299661 135.174399 26.595256 117.561277
C 33.89085 99.948155 44.584904 83.943371 58.065405 70.462871
C 71.545905 56.98237 87.550688 46.288316 105.163811 38.992722
C 122.776933 31.697128 141.655863 27.941875 160.720169 27.941875
" clip-path="url(#p257c31d74f)" style="fill: none; stroke: #c8c8c8; stroke-width: 0.7; stroke-linecap: square"/>
     </g>
     <g id="text_11">
      <text style="font-size: 7px; font-family: 'Arial'; text-anchor: start; fill: #777777" x="305.895929" y="171.726385" transform="rotate(-0 305.895929 171.726385)">1.0</text>
     </g>
    </g>
   </g>
   <g id="patch_3">
    <path d="M 160.720169 39.555936
L 272.616216 108.514422
L 267.587181 234.817333
L 160.720169 286.354728
L 70.197524 225.380909
L 53.853157 111.417937
z
" clip-path="url(#p257c31d74f)" style="fill: #2f9aa0; opacity: 0.24; stroke: #2f9aa0; stroke-linejoin: miter"/>
   </g>
   <g id="patch_4">
    <path d="M 160.720169 49.718239
L 263.815404 113.595573
L 242.442001 220.299757
L 160.720169 271.837152
L 50.08138 236.994969
L 45.052344 106.336785
z
" clip-path="url(#p257c31d74f)" style="fill: #98cfd0; opacity: 0.16; stroke: #98cfd0; stroke-linejoin: miter"/>
   </g>
   <g id="patch_5">
    <path d="M 160.720169 45.362966
L 268.84444 110.692058
L 251.242814 225.380909
L 160.720169 283.451213
L 104.143516 205.782181
L 91.570926 133.194301
z
" clip-path="url(#p257c31d74f)" style="fill: #84bfc7; opacity: 0.16; stroke: #84bfc7; stroke-linejoin: miter"/>
   </g>
   <g id="patch_6">
    <path d="M 160.720169 48.266481
L 266.329922 112.143816
L 248.728296 223.929151
L 160.720169 277.644182
L 53.853157 234.817333
L 50.08138 109.240301
z
" clip-path="url(#p257c31d74f)" style="fill: #b4ddd8; opacity: 0.16; stroke: #b4ddd8; stroke-linejoin: miter"/>
   </g>
   <g id="patch_7">
    <path d="M 160.720169 54.073512
L 261.300886 115.047331
L 246.213778 222.477393
L 160.720169 280.547697
L 72.712042 223.929151
L 62.65397 116.499089
z
" clip-path="url(#p257c31d74f)" style="fill: #cfe9e2; opacity: 0.16; stroke: #cfe9e2; stroke-linejoin: miter"/>
   </g>
   <g id="patch_8">
    <path d="M 160.720169 27.941875
C 141.655863 27.941875 122.776933 31.697128 105.163811 38.992722
C 87.550688 46.288316 71.545905 56.98237 58.065405 70.462871
C 44.584904 83.943371 33.89085 99.948155 26.595256 117.561277
C 19.299661 135.174399 15.544409 154.053329 15.544409 173.117635
C 15.544409 192.181941 19.299661 211.060871 26.595256 228.673993
C 33.89085 246.287115 44.584904 262.291899 58.065405 275.772399
C 71.545905 289.2529 87.550688 299.946954 105.163811 307.242548
C 122.776933 314.538142 141.655863 318.293395 160.720169 318.293395
C 179.784475 318.293395 198.663405 314.538142 216.276527 307.242548
C 233.889649 299.946954 249.894433 289.2529 263.374933 275.772399
C 276.855433 262.291899 287.549488 246.287115 294.845082 228.673993
C 302.140676 211.060871 305.895929 192.181941 305.895929 173.117635
C 305.895929 154.053329 302.140676 135.174399 294.845082 117.561277
C 287.549488 99.948155 276.855433 83.943371 263.374933 70.462871
C 249.894433 56.98237 233.889649 46.288316 216.276527 38.992722
C 198.663405 31.697128 179.784475 27.941875 160.720169 27.941875
" style="fill: none; stroke: #b8b8b8; stroke-width: 0.8; stroke-linejoin: miter; stroke-linecap: square"/>
   </g>
   <g id="line2d_12">
    <path d="M 160.720169 39.555936
L 272.616216 108.514422
L 267.587181 234.817333
L 160.720169 286.354728
L 70.197524 225.380909
L 53.853157 111.417937
L 160.720169 39.555936
" clip-path="url(#p257c31d74f)" style="fill: none; stroke: #2f9aa0; stroke-width: 2.45; stroke-linecap: square"/>
   </g>
   <g id="line2d_13">
    <path d="M 160.720169 49.718239
L 263.815404 113.595573
L 242.442001 220.299757
L 160.720169 271.837152
L 50.08138 236.994969
L 45.052344 106.336785
L 160.720169 49.718239
" clip-path="url(#p257c31d74f)" style="fill: none; stroke: #98cfd0; stroke-width: 2.05; stroke-linecap: square"/>
   </g>
   <g id="line2d_14">
    <path d="M 160.720169 45.362966
L 268.84444 110.692058
L 251.242814 225.380909
L 160.720169 283.451213
L 104.143516 205.782181
L 91.570926 133.194301
L 160.720169 45.362966
" clip-path="url(#p257c31d74f)" style="fill: none; stroke: #84bfc7; stroke-width: 2.05; stroke-linecap: square"/>
   </g>
   <g id="line2d_15">
    <path d="M 160.720169 48.266481
L 266.329922 112.143816
L 248.728296 223.929151
L 160.720169 277.644182
L 53.853157 234.817333
L 50.08138 109.240301
L 160.720169 48.266481
" clip-path="url(#p257c31d74f)" style="fill: none; stroke: #b4ddd8; stroke-width: 2.05; stroke-linecap: square"/>
   </g>
   <g id="line2d_16">
    <path d="M 160.720169 54.073512
L 261.300886 115.047331
L 246.213778 222.477393
L 160.720169 280.547697
L 72.712042 223.929151
L 62.65397 116.499089
L 160.720169 54.073512
" clip-path="url(#p257c31d74f)" style="fill: none; stroke: #cfe9e2; stroke-width: 2.05; stroke-linecap: square"/>
   </g>
   <g id="legend_1">
    <g id="line2d_17">
     <path d="M 97.771028 334.722919
L 104.421028 334.722919
L 111.071028 334.722919
" style="fill: none; stroke: #2f9aa0; stroke-width: 2.45; stroke-linecap: square"/>
    </g>
    <g id="text_12">
     <text style="font-size: 7px; font-family: 'Arial'; text-anchor: start" x="116.671028" y="337.172919" transform="rotate(-0 116.671028 337.172919)">MethodX (Ours)</text>
    </g>
    <g id="line2d_18">
     <path d="M 97.771028 344.706669
L 104.421028 344.706669
L 111.071028 344.706669
" style="fill: none; stroke: #98cfd0; stroke-width: 2.05; stroke-linecap: square"/>
    </g>
    <g id="text_13">
     <text style="font-size: 7px; font-family: 'Arial'; text-anchor: start" x="116.671028" y="347.156669" transform="rotate(-0 116.671028 347.156669)">BERT-base</text>
    </g>
    <g id="line2d_19">
     <path d="M 97.771028 354.608388
L 104.421028 354.608388
L 111.071028 354.608388
" style="fill: none; stroke: #84bfc7; stroke-width: 2.05; stroke-linecap: square"/>
    </g>
    <g id="text_14">
     <text style="font-size: 7px; font-family: 'Arial'; text-anchor: start" x="116.671028" y="357.058388" transform="rotate(-0 116.671028 357.058388)">GPT-3.5</text>
    </g>
    <g id="line2d_20">
     <path d="M 174.160716 334.722919
L 180.810716 334.722919
L 187.460716 334.722919
" style="fill: none; stroke: #b4ddd8; stroke-width: 2.05; stroke-linecap: square"/>
    </g>
    <g id="text_15">
     <text style="font-size: 7px; font-family: 'Arial'; text-anchor: start" x="193.060716" y="337.172919" transform="rotate(-0 193.060716 337.172919)">RoBERTa</text>
    </g>
    <g id="line2d_21">
     <path d="M 174.160716 344.624638
L 180.810716 344.624638
L 187.460716 344.624638
" style="fill: none; stroke: #cfe9e2; stroke-width: 2.05; stroke-linecap: square"/>
    </g>
    <g id="text_16">
     <text style="font-size: 7px; font-family: 'Arial'; text-anchor: start" x="193.060716" y="347.074638" transform="rotate(-0 193.060716 347.074638)">T5</text>
    </g>
   </g>
  </g>
 </g>
 <defs>
  <clipPath id="p257c31d74f">
   <path d="M 305.895929 173.117635
C 305.895929 154.053329 302.140676 135.174399 294.845082 117.561277
C 287.549488 99.948155 276.855433 83.943371 263.374933 70.462871
C 249.894433 56.98237 233.889649 46.288316 216.276527 38.992722
C 198.663405 31.697128 179.784475 27.941875 160.720169 27.941875
C 141.655863 27.941875 122.776933 31.697128 105.163811 38.992722
C 87.550688 46.288316 71.545905 56.98237 58.065405 70.462871
C 44.584904 83.943371 33.89085 99.948155 26.595256 117.561277
C 19.299661 135.174399 15.544409 154.053329 15.544409 173.117635
C 15.544409 192.181941 19.299661 211.060871 26.595256 228.673993
C 33.89085 246.287115 44.584904 262.291899 58.065405 275.772399
C 71.545905 289.2529 87.550688 299.946954 105.163811 307.242548
C 122.776933 314.538142 141.655863 318.293395 160.720169 318.293395
C 179.784475 318.293395 198.663405 314.538142 216.276527 307.242548
C 233.889649 299.946954 249.894433 289.2529 263.374933 275.772399
C 276.855433 262.291899 287.549488 246.287115 294.845082 228.673993
C 302.140676 211.060871 305.895929 192.181941 305.895929 173.117635
M 160.720169 173.117635
C 160.720169 173.117635 160.720169 173.117635 160.720169 173.117635
C 160.720169 173.117635 160.720169 173.117635 160.720169 173.117635
C 160.720169 173.117635 160.720169 173.117635 160.720169 173.117635
C 160.720169 173.117635 160.720169 173.117635 160.720169 173.117635
C 160.720169 173.117635 160.720169 173.117635 160.720169 173.117635
C 160.720169 173.117635 160.720169 173.117635 160.720169 173.117635
C 160.720169 173.117635 160.720169 173.117635 160.720169 173.117635
C 160.720169 173.117635 160.720169 173.117635 160.720169 173.117635
C 160.720169 173.117635 160.720169 173.117635 160.720169 173.117635
C 160.720169 173.117635 160.720169 173.117635 160.720169 173.117635
C 160.720169 173.117635 160.720169 173.117635 160.720169 173.117635
C 160.720169 173.117635 160.720169 173.117635 160.720169 173.117635
C 160.720169 173.117635 160.720169 173.117635 160.720169 173.117635
C 160.720169 173.117635 160.720169 173.117635 160.720169 173.117635
C 160.720169 173.117635 160.720169 173.117635 160.720169 173.117635
C 160.720169 173.117635 160.720169 173.117635 160.720169 173.117635
z
"/>
  </clipPath>
 </defs>
</svg>
