<?xml version="1.0" encoding="utf-8" standalone="no"?>
<!DOCTYPE svg PUBLIC "-//W3C//DTD SVG 1.1//EN"
  "http://www.w3.org/Graphics/SVG/1.1/DTD/svg11.dtd">
<svg xmlns:xlink="http://www.w3.org/1999/xlink" width="432pt" height="288pt" viewBox="0 0 432 288" xmlns="http://www.w3.org/2000/svg" version="1.1">
 <metadata>
  <rdf:RDF xmlns:dc="http://purl.org/dc/elements/1.1/" xmlns:cc="http://creativecommons.org/ns#" xmlns:rdf="http://www.w3.org/1999/02/22-rdf-syntax-ns#">
   <cc:Work>
    <dc:type rdf:resource="http://purl.org/dc/dcmitype/StillImage"/>
    <dc:date>2026-05-25T09:03:57.692848</dc:date>
    <dc:format>image/svg+xml</dc:format>
    <dc:creator>
     <cc:Agent>
      <dc:title>Matplotlib v3.10.9, https://matplotlib.org/</dc:title>
     </cc:Agent>
    </dc:creator>
   </cc:Work>
  </rdf:RDF>
 </metadata>
 <defs>
  <style type="text/css">*{stroke-linejoin: round; stroke-linecap: butt}</style>
 </defs>
 <g id="figure_1">
  <g id="patch_1">
   <path d="M 0 288 
L 432 288 
L 432 0 
L 0 0 
z
" style="fill: #ffffff"/>
  </g>
  <g id="axes_1">
   <g id="patch_2">
    <path d="M 44.5 269.1 
L 426 269.1 
L 426 8.88 
L 44.5 8.88 
z
" style="fill: #ffffff"/>
   </g>
   <g id="patch_3">
    <path d="M 61.6675 269.1 
L 103.6325 269.1 
L 103.6325 218.74743 
L 61.6675 218.74743 
z
" clip-path="url(#pfcb2eb0208)" style="fill: #0072b2"/>
   </g>
   <g id="patch_4">
    <path d="M 137.9675 269.1 
L 179.9325 269.1 
L 179.9325 231.62832 
L 137.9675 231.62832 
z
" clip-path="url(#pfcb2eb0208)" style="fill: #0072b2"/>
   </g>
   <g id="patch_5">
    <path d="M 214.2675 269.1 
L 256.2325 269.1 
L 256.2325 221.297586 
L 214.2675 221.297586 
z
" clip-path="url(#pfcb2eb0208)" style="fill: #0072b2"/>
   </g>
   <g id="patch_6">
    <path d="M 290.5675 269.1 
L 332.5325 269.1 
L 332.5325 205.372122 
L 290.5675 205.372122 
z
" clip-path="url(#pfcb2eb0208)" style="fill: #0072b2"/>
   </g>
   <g id="patch_7">
    <path d="M 366.8675 269.1 
L 408.8325 269.1 
L 408.8325 172.142028 
L 366.8675 172.142028 
z
" clip-path="url(#pfcb2eb0208)" style="fill: #0072b2"/>
   </g>
   <g id="patch_8">
    <path d="M 61.6675 218.74743 
L 103.6325 218.74743 
L 103.6325 179.84454 
L 61.6675 179.84454 
z
" clip-path="url(#pfcb2eb0208)" style="fill: #e69f00"/>
   </g>
   <g id="patch_9">
    <path d="M 137.9675 231.62832 
L 179.9325 231.62832 
L 179.9325 186.428106 
L 137.9675 186.428106 
z
" clip-path="url(#pfcb2eb0208)" style="fill: #e69f00"/>
   </g>
   <g id="patch_10">
    <path d="M 214.2675 221.297586 
L 256.2325 221.297586 
L 256.2325 168.837234 
L 214.2675 168.837234 
z
" clip-path="url(#pfcb2eb0208)" style="fill: #e69f00"/>
   </g>
   <g id="patch_11">
    <path d="M 290.5675 205.372122 
L 332.5325 205.372122 
L 332.5325 135.711228 
L 290.5675 135.711228 
z
" clip-path="url(#pfcb2eb0208)" style="fill: #e69f00"/>
   </g>
   <g id="patch_12">
    <path d="M 366.8675 172.142028 
L 408.8325 172.142028 
L 408.8325 151.87089 
L 366.8675 151.87089 
z
" clip-path="url(#pfcb2eb0208)" style="fill: #e69f00"/>
   </g>
   <g id="patch_13">
    <path d="M 61.6675 179.84454 
L 103.6325 179.84454 
L 103.6325 100.685616 
L 61.6675 100.685616 
z
" clip-path="url(#pfcb2eb0208)" style="fill: #009e73"/>
   </g>
   <g id="patch_14">
    <path d="M 137.9675 186.428106 
L 179.9325 186.428106 
L 179.9325 71.98335 
L 137.9675 71.98335 
z
" clip-path="url(#pfcb2eb0208)" style="fill: #009e73"/>
   </g>
   <g id="patch_15">
    <path d="M 214.2675 168.837234 
L 256.2325 168.837234 
L 256.2325 62.329188 
L 214.2675 62.329188 
z
" clip-path="url(#pfcb2eb0208)" style="fill: #009e73"/>
   </g>
   <g id="patch_16">
    <path d="M 290.5675 135.711228 
L 332.5325 135.711228 
L 332.5325 75.314166 
L 290.5675 75.314166 
z
" clip-path="url(#pfcb2eb0208)" style="fill: #009e73"/>
   </g>
   <g id="patch_17">
    <path d="M 366.8675 151.87089 
L 408.8325 151.87089 
L 408.8325 46.195548 
L 366.8675 46.195548 
z
" clip-path="url(#pfcb2eb0208)" style="fill: #009e73"/>
   </g>
   <g id="patch_18">
    <path d="M 61.6675 100.685616 
L 103.6325 100.685616 
L 103.6325 8.88 
L 61.6675 8.88 
z
" clip-path="url(#pfcb2eb0208)" style="fill: #cc79a7"/>
   </g>
   <g id="patch_19">
    <path d="M 137.9675 71.98335 
L 179.9325 71.98335 
L 179.9325 8.88 
L 137.9675 8.88 
z
" clip-path="url(#pfcb2eb0208)" style="fill: #cc79a7"/>
   </g>
   <g id="patch_20">
    <path d="M 214.2675 62.329188 
L 256.2325 62.329188 
L 256.2325 8.906022 
L 214.2675 8.906022 
z
" clip-path="url(#pfcb2eb0208)" style="fill: #cc79a7"/>
   </g>
   <g id="patch_21">
    <path d="M 290.5675 75.314166 
L 332.5325 75.314166 
L 332.5325 8.88 
L 290.5675 8.88 
z
" clip-path="url(#pfcb2eb0208)" style="fill: #cc79a7"/>
   </g>
   <g id="patch_22">
    <path d="M 366.8675 46.195548 
L 408.8325 46.195548 
L 408.8325 8.853978 
L 366.8675 8.853978 
z
" clip-path="url(#pfcb2eb0208)" style="fill: #cc79a7"/>
   </g>
   <g id="matplotlib.axis_1">
    <g id="xtick_1">
     <g id="line2d_1">
      <defs>
       <path id="m0331b5173e" d="M 0 0 
L 0 2.2 
" style="stroke: #000000; stroke-width: 0.6"/>
      </defs>
      <g>
       <use xlink:href="#m0331b5173e" x="82.65" y="269.1" style="stroke: #000000; stroke-width: 0.6"/>
      </g>
     </g>
     <g id="text_1">
      <text style="font-size: 8px; font-family: 'Arial', 'Helvetica', 'DejaVu Sans', 'Liberation Sans', sans-serif; text-anchor: middle" x="82.65" y="280.52625" transform="rotate(-0 82.65 280.52625)">Cond1</text>
     </g>
    </g>
    <g id="xtick_2">
     <g id="line2d_2">
      <g>
       <use xlink:href="#m0331b5173e" x="158.95" y="269.1" style="stroke: #000000; stroke-width: 0.6"/>
      </g>
     </g>
     <g id="text_2">
      <text style="font-size: 8px; font-family: 'Arial', 'Helvetica', 'DejaVu Sans', 'Liberation Sans', sans-serif; text-anchor: middle" x="158.95" y="280.52625" transform="rotate(-0 158.95 280.52625)">Cond2</text>
     </g>
    </g>
    <g id="xtick_3">
     <g id="line2d_3">
      <g>
       <use xlink:href="#m0331b5173e" x="235.25" y="269.1" style="stroke: #000000; stroke-width: 0.6"/>
      </g>
     </g>
     <g id="text_3">
      <text style="font-size: 8px; font-family: 'Arial', 'Helvetica', 'DejaVu Sans', 'Liberation Sans', sans-serif; text-anchor: middle" x="235.25" y="280.52625" transform="rotate(-0 235.25 280.52625)">Cond3</text>
     </g>
    </g>
    <g id="xtick_4">
     <g id="line2d_4">
      <g>
       <use xlink:href="#m0331b5173e" x="311.55" y="269.1" style="stroke: #000000; stroke-width: 0.6"/>
      </g>
     </g>
     <g id="text_4">
      <text style="font-size: 8px; font-family: 'Arial', 'Helvetica', 'DejaVu Sans', 'Liberation Sans', sans-serif; text-anchor: middle" x="311.55" y="280.52625" transform="rotate(-0 311.55 280.52625)">Cond4</text>
     </g>
    </g>
    <g id="xtick_5">
     <g id="line2d_5">
      <g>
       <use xlink:href="#m0331b5173e" x="387.85" y="269.1" style="stroke: #000000; stroke-width: 0.6"/>
      </g>
     </g>
     <g id="text_5">
      <text style="font-size: 8px; font-family: 'Arial', 'Helvetica', 'DejaVu Sans', 'Liberation Sans', sans-serif; text-anchor: middle" x="387.85" y="280.52625" transform="rotate(-0 387.85 280.52625)">Cond5</text>
     </g>
    </g>
   </g>
   <g id="matplotlib.axis_2">
    <g id="ytick_1">
     <g id="line2d_6">
      <defs>
       <path id="m72ea924db9" d="M 0 0 
L -2.2 0 
" style="stroke: #000000; stroke-width: 0.6"/>
      </defs>
      <g>
       <use xlink:href="#m72ea924db9" x="44.5" y="269.1" style="stroke: #000000; stroke-width: 0.6"/>
      </g>
     </g>
     <g id="text_6">
      <text style="font-size: 8px; font-family: 'Arial', 'Helvetica', 'DejaVu Sans', 'Liberation Sans', sans-serif; text-anchor: end" x="38.8" y="271.963125" transform="rotate(-0 38.8 271.963125)">0%</text>
     </g>
    </g>
    <g id="ytick_2">
     <g id="line2d_7">
      <g>
       <use xlink:href="#m72ea924db9" x="44.5" y="204.045" style="stroke: #000000; stroke-width: 0.6"/>
      </g>
     </g>
     <g id="text_7">
      <text style="font-size: 8px; font-family: 'Arial', 'Helvetica', 'DejaVu Sans', 'Liberation Sans', sans-serif; text-anchor: end" x="38.8" y="206.908125" transform="rotate(-0 38.8 206.908125)">25%</text>
     </g>
    </g>
    <g id="ytick_3">
     <g id="line2d_8">
      <g>
       <use xlink:href="#m72ea924db9" x="44.5" y="138.99" style="stroke: #000000; stroke-width: 0.6"/>
      </g>
     </g>
     <g id="text_8">
      <text style="font-size: 8px; font-family: 'Arial', 'Helvetica', 'DejaVu Sans', 'Liberation Sans', sans-serif; text-anchor: end" x="38.8" y="141.853125" transform="rotate(-0 38.8 141.853125)">50%</text>
     </g>
    </g>
    <g id="ytick_4">
     <g id="line2d_9">
      <g>
       <use xlink:href="#m72ea924db9" x="44.5" y="73.935" style="stroke: #000000; stroke-width: 0.6"/>
      </g>
     </g>
     <g id="text_9">
      <text style="font-size: 8px; font-family: 'Arial', 'Helvetica', 'DejaVu Sans', 'Liberation Sans', sans-serif; text-anchor: end" x="38.8" y="76.798125" transform="rotate(-0 38.8 76.798125)">75%</text>
     </g>
    </g>
    <g id="ytick_5">
     <g id="line2d_10">
      <g>
       <use xlink:href="#m72ea924db9" x="44.5" y="8.88" style="stroke: #000000; stroke-width: 0.6"/>
      </g>
     </g>
     <g id="text_10">
      <text style="font-size: 8px; font-family: 'Arial', 'Helvetica', 'DejaVu Sans', 'Liberation Sans', sans-serif; text-anchor: end" x="38.8" y="11.743125" transform="rotate(-0 38.8 11.743125)">100%</text>
     </g>
    </g>
    <g id="text_11">
     <text style="font-size: 9px; font-family: 'Arial', 'Helvetica', 'DejaVu Sans', 'Liberation Sans', sans-serif; text-anchor: middle" x="12.55125" y="138.99" transform="rotate(-90 12.55125 138.99)">Proportion</text>
    </g>
   </g>
   <g id="patch_23">
    <path d="M 44.5 269.1 
L 44.5 8.88 
" style="fill: none; stroke: #000000; stroke-width: 0.8; stroke-linejoin: miter; stroke-linecap: square"/>
   </g>
   <g id="patch_24">
    <path d="M 44.5 269.1 
L 426 269.1 
" style="fill: none; stroke: #000000; stroke-width: 0.8; stroke-linejoin: miter; stroke-linecap: square"/>
   </g>
   <g id="legend_1">
    <g id="patch_25">
     <path d="M 377.19625 21.80625 
L 386.79625 21.80625 
L 386.79625 16.20625 
L 377.19625 16.20625 
z
" style="fill: #0072b2"/>
    </g>
    <g id="text_12">
     <text style="font-size: 8px; font-family: 'Arial', 'Helvetica', 'DejaVu Sans', 'Liberation Sans', sans-serif; text-anchor: start" x="390.79625" y="21.80625" transform="rotate(-0 390.79625 21.80625)">Class A</text>
    </g>
    <g id="patch_26">
     <path d="M 377.19625 31.5225 
L 386.79625 31.5225 
L 386.79625 25.9225 
L 377.19625 25.9225 
z
" style="fill: #e69f00"/>
    </g>
    <g id="text_13">
     <text style="font-size: 8px; font-family: 'Arial', 'Helvetica', 'DejaVu Sans', 'Liberation Sans', sans-serif; text-anchor: start" x="390.79625" y="31.5225" transform="rotate(-0 390.79625 31.5225)">Class B</text>
    </g>
    <g id="patch_27">
     <path d="M 377.19625 41.23875 
L 386.79625 41.23875 
L 386.79625 35.63875 
L 377.19625 35.63875 
z
" style="fill: #009e73"/>
    </g>
    <g id="text_14">
     <text style="font-size: 8px; font-family: 'Arial', 'Helvetica', 'DejaVu Sans', 'Liberation Sans', sans-serif; text-anchor: start" x="390.79625" y="41.23875" transform="rotate(-0 390.79625 41.23875)">Class C</text>
    </g>
    <g id="patch_28">
     <path d="M 377.19625 50.955 
L 386.79625 50.955 
L 386.79625 45.355 
L 377.19625 45.355 
z
" style="fill: #cc79a7"/>
    </g>
    <g id="text_15">
     <text style="font-size: 8px; font-family: 'Arial', 'Helvetica', 'DejaVu Sans', 'Liberation Sans', sans-serif; text-anchor: start" x="390.79625" y="50.955" transform="rotate(-0 390.79625 50.955)">Class D</text>
    </g>
   </g>
  </g>
 </g>
 <defs>
  <clipPath id="pfcb2eb0208">
   <rect x="44.5" y="8.88" width="381.5" height="260.22"/>
  </clipPath>
 </defs>
</svg>
