<?xml version="1.0" encoding="utf-8" standalone="no"?>
<!DOCTYPE svg PUBLIC "-//W3C//DTD SVG 1.1//EN"
  "http://www.w3.org/Graphics/SVG/1.1/DTD/svg11.dtd">
<svg xmlns:xlink="http://www.w3.org/1999/xlink" width="656.4pt" height="368.749755pt" viewBox="0 0 656.4 368.749755" xmlns="http://www.w3.org/2000/svg" version="1.1">
 <metadata>
  <rdf:RDF xmlns:dc="http://purl.org/dc/elements/1.1/" xmlns:cc="http://creativecommons.org/ns#" xmlns:rdf="http://www.w3.org/1999/02/22-rdf-syntax-ns#">
   <cc:Work>
    <dc:type rdf:resource="http://purl.org/dc/dcmitype/StillImage"/>
    <dc:date>2026-05-25T02:56:16.698280</dc:date>
    <dc:format>image/svg+xml</dc:format>
    <dc:creator>
     <cc:Agent>
      <dc:title>Matplotlib v3.10.9, https://matplotlib.org/</dc:title>
     </cc:Agent>
    </dc:creator>
   </cc:Work>
  </rdf:RDF>
 </metadata>
 <defs>
  <style type="text/css">*{stroke-linejoin: round; stroke-linecap: butt}</style>
 </defs>
 <g id="figure_1">
  <g id="patch_1">
   <path d="M 0 368.749755 
L 656.4 368.749755 
L 656.4 0 
L 0 0 
z
" style="fill: #fafafa"/>
  </g>
  <g id="axes_1">
   <g id="patch_2">
    <path d="M 64.98 83.226491 
L 67.002233 83.222037 
L 68.984032 83.208797 
L 70.926231 83.186952 
L 72.829664 83.156682 
L 74.695165 83.11817 
L 76.523566 83.071596 
L 78.315703 83.017141 
L 80.072408 82.954986 
L 81.794515 82.885314 
L 83.482859 82.808304 
L 85.138272 82.724138 
L 86.761588 82.632998 
L 88.353641 82.535064 
L 89.915265 82.430517 
L 91.447293 82.319539 
L 92.950559 82.202311 
L 94.425897 82.079014 
L 95.87414 81.949829 
L 97.296122 81.814937 
L 98.692677 81.67452 
L 100.064638 81.528759 
L 101.41284 81.377834 
L 102.738115 81.221928 
L 104.041297 81.06122 
L 105.323221 80.895893 
L 106.58472 80.726127 
L 107.826627 80.552104 
L 109.049776 80.374005 
L 110.255001 80.192011 
L 111.443135 80.006303 
L 112.615013 79.817062 
L 113.771468 79.62447 
L 114.913333 79.428707 
L 116.041443 79.229956 
L 117.15663 79.028396 
L 118.25973 78.824209 
L 119.351574 78.617576 
L 120.432997 78.408679 
L 121.504833 78.197699 
L 122.567916 77.984816 
L 123.623078 77.770213 
L 124.671155 77.554069 
L 125.712978 77.336567 
L 126.749383 77.117887 
L 127.781202 76.898211 
L 128.80927 76.677719 
L 129.83442 76.456593 
L 130.857486 76.235015 
L 131.879301 76.013165 
L 132.900699 75.791224 
L 133.922514 75.569374 
L 134.94558 75.347795 
L 135.97073 75.12667 
L 136.998798 74.906178 
L 138.030617 74.686502 
L 139.067022 74.467822 
L 140.108845 74.25032 
L 141.156922 74.034176 
L 142.212084 73.819572 
L 143.275167 73.60669 
L 144.347003 73.395709 
L 145.428426 73.186812 
L 146.52027 72.98018 
L 147.62337 72.775993 
L 148.738557 72.574433 
L 149.866667 72.375681 
L 151.008532 72.179919 
L 152.164987 71.987326 
L 153.336865 71.798086 
L 154.524999 71.612377 
L 155.730224 71.430383 
L 156.953373 71.252284 
L 158.19528 71.078261 
L 159.456779 70.908495 
L 160.738703 70.743168 
L 162.041885 70.582461 
L 163.36716 70.426554 
L 164.715362 70.27563 
L 166.087323 70.129868 
L 167.483878 69.989451 
L 168.90586 69.85456 
L 170.354103 69.725375 
L 171.829441 69.602078 
L 173.332707 69.484849 
L 174.864735 69.373871 
L 176.426359 69.269325 
L 178.018412 69.171391 
L 179.641728 69.08025 
L 181.297141 68.996084 
L 182.985485 68.919075 
L 184.707592 68.849402 
L 186.464297 68.787248 
L 188.256434 68.732793 
L 190.084835 68.686219 
L 191.950336 68.647706 
L 193.853769 68.617437 
L 195.795968 68.595592 
L 197.777767 68.582351 
L 199.8 68.577898 
L 199.8 312.721112 
L 197.777767 312.725566 
L 195.795968 312.738806 
L 193.853769 312.760651 
L 191.950336 312.790921 
L 190.084835 312.829433 
L 188.256434 312.876007 
L 186.464297 312.930462 
L 184.707592 312.992616 
L 182.985485 313.062289 
L 181.297141 313.139299 
L 179.641728 313.223464 
L 178.018412 313.314605 
L 176.426359 313.412539 
L 174.864735 313.517086 
L 173.332707 313.628064 
L 171.829441 313.745292 
L 170.354103 313.868589 
L 168.90586 313.997774 
L 167.483878 314.132665 
L 166.087323 314.273083 
L 164.715362 314.418844 
L 163.36716 314.569769 
L 162.041885 314.725675 
L 160.738703 314.886383 
L 159.456779 315.05171 
L 158.19528 315.221475 
L 156.953373 315.395498 
L 155.730224 315.573598 
L 154.524999 315.755592 
L 153.336865 315.9413 
L 152.164987 316.130541 
L 151.008532 316.323133 
L 149.866667 316.518895 
L 148.738557 316.717647 
L 147.62337 316.919207 
L 146.52027 317.123394 
L 145.428426 317.330026 
L 144.347003 317.538924 
L 143.275167 317.749904 
L 142.212084 317.962787 
L 141.156922 318.17739 
L 140.108845 318.393534 
L 139.067022 318.611036 
L 138.030617 318.829716 
L 136.998798 319.049392 
L 135.97073 319.269884 
L 134.94558 319.491009 
L 133.922514 319.712588 
L 132.900699 319.934438 
L 131.879301 320.156379 
L 130.857486 320.378229 
L 129.83442 320.599808 
L 128.80927 320.820933 
L 127.781202 321.041425 
L 126.749383 321.261101 
L 125.712978 321.479781 
L 124.671155 321.697283 
L 123.623078 321.913427 
L 122.567916 322.128031 
L 121.504833 322.340913 
L 120.432997 322.551894 
L 119.351574 322.760791 
L 118.25973 322.967423 
L 117.15663 323.17161 
L 116.041443 323.37317 
L 114.913333 323.571922 
L 113.771468 323.767684 
L 112.615013 323.960277 
L 111.443135 324.149517 
L 110.255001 324.335225 
L 109.049776 324.51722 
L 107.826627 324.695319 
L 106.58472 324.869342 
L 105.323221 325.039107 
L 104.041297 325.204435 
L 102.738115 325.365142 
L 101.41284 325.521049 
L 100.064638 325.671973 
L 98.692677 325.817735 
L 97.296122 325.958152 
L 95.87414 326.093043 
L 94.425897 326.222228 
L 92.950559 326.345525 
L 91.447293 326.462753 
L 89.915265 326.573731 
L 88.353641 326.678278 
L 86.761588 326.776212 
L 85.138272 326.867353 
L 83.482859 326.951518 
L 81.794515 327.028528 
L 80.072408 327.098201 
L 78.315703 327.160355 
L 76.523566 327.21481 
L 74.695165 327.261384 
L 72.829664 327.299897 
L 70.926231 327.330166 
L 68.984032 327.352011 
L 67.002233 327.365251 
L 64.98 327.369705 
z
" clip-path="url(#pfc204cb0b9)" style="fill: #0f4d92; opacity: 0.3"/>
   </g>
   <g id="patch_3">
    <path d="M 64.98 52.391203 
L 72.009666 52.398239 
L 78.898777 52.419159 
L 85.650231 52.453674 
L 92.266927 52.5015 
L 98.751762 52.56235 
L 105.107635 52.635937 
L 111.337443 52.721976 
L 117.444085 52.820179 
L 123.430458 52.930262 
L 129.299461 53.051938 
L 135.053992 53.184919 
L 140.696948 53.328921 
L 146.231228 53.483657 
L 151.65973 53.648841 
L 156.985351 53.824186 
L 162.21099 54.009407 
L 167.339545 54.204216 
L 172.373914 54.408328 
L 177.316995 54.621457 
L 182.171686 54.843316 
L 186.940885 55.073619 
L 191.62749 55.31208 
L 196.234399 55.558412 
L 200.76451 55.81233 
L 205.220721 56.073547 
L 209.60593 56.341777 
L 213.923035 56.616733 
L 218.174935 56.89813 
L 222.364527 57.185681 
L 226.494709 57.479099 
L 230.56838 57.7781 
L 234.588436 58.082395 
L 238.557778 58.3917 
L 242.479301 58.705728 
L 246.355906 59.024193 
L 250.190488 59.346808 
L 253.985948 59.673287 
L 257.745181 60.003345 
L 261.471088 60.336694 
L 265.166565 60.673048 
L 268.83451 61.012122 
L 272.477823 61.353629 
L 276.0994 61.697283 
L 279.70214 62.042797 
L 283.288941 62.389885 
L 286.8627 62.738262 
L 290.426317 63.08764 
L 293.982688 63.437734 
L 297.534712 63.788258 
L 301.085288 64.138924 
L 304.637312 64.489448 
L 308.193683 64.839542 
L 311.7573 65.18892 
L 315.331059 65.537297 
L 318.91786 65.884385 
L 322.5206 66.2299 
L 326.142177 66.573553 
L 329.78549 66.91506 
L 333.453435 67.254134 
L 337.148912 67.590488 
L 340.874819 67.923838 
L 344.634052 68.253895 
L 348.429512 68.580374 
L 352.264094 68.902989 
L 356.140699 69.221454 
L 360.062222 69.535482 
L 364.031564 69.844787 
L 368.05162 70.149083 
L 372.125291 70.448083 
L 376.255473 70.741502 
L 380.445065 71.029053 
L 384.696965 71.310449 
L 389.01407 71.585406 
L 393.399279 71.853635 
L 397.85549 72.114852 
L 402.385601 72.36877 
L 406.99251 72.615102 
L 411.679115 72.853563 
L 416.448314 73.083866 
L 421.303005 73.305725 
L 426.246086 73.518854 
L 431.280455 73.722966 
L 436.40901 73.917776 
L 441.634649 74.102996 
L 446.96027 74.278341 
L 452.388772 74.443525 
L 457.923052 74.598261 
L 463.566008 74.742263 
L 469.320539 74.875245 
L 475.189542 74.99692 
L 481.175915 75.107003 
L 487.282557 75.205207 
L 493.512365 75.291245 
L 499.868238 75.364832 
L 506.353073 75.425682 
L 512.969769 75.473508 
L 519.721223 75.508023 
L 526.610334 75.528943 
L 533.64 75.535979 
L 533.64 104.833165 
L 526.610334 104.826128 
L 519.721223 104.805209 
L 512.969769 104.770694 
L 506.353073 104.722868 
L 499.868238 104.662018 
L 493.512365 104.588431 
L 487.282557 104.502392 
L 481.175915 104.404188 
L 475.189542 104.294106 
L 469.320539 104.17243 
L 463.566008 104.039449 
L 457.923052 103.895447 
L 452.388772 103.740711 
L 446.96027 103.575527 
L 441.634649 103.400182 
L 436.40901 103.214961 
L 431.280455 103.020152 
L 426.246086 102.81604 
L 421.303005 102.602911 
L 416.448314 102.381052 
L 411.679115 102.150749 
L 406.99251 101.912288 
L 402.385601 101.665956 
L 397.85549 101.412038 
L 393.399279 101.150821 
L 389.01407 100.882591 
L 384.696965 100.607635 
L 380.445065 100.326238 
L 376.255473 100.038687 
L 372.125291 99.745269 
L 368.05162 99.446268 
L 364.031564 99.141972 
L 360.062222 98.832668 
L 356.140699 98.51864 
L 352.264094 98.200175 
L 348.429512 97.87756 
L 344.634052 97.551081 
L 340.874819 97.221023 
L 337.148912 96.887674 
L 333.453435 96.55132 
L 329.78549 96.212246 
L 326.142177 95.870739 
L 322.5206 95.527085 
L 318.91786 95.181571 
L 315.331059 94.834483 
L 311.7573 94.486106 
L 308.193683 94.136727 
L 304.637312 93.786633 
L 301.085288 93.43611 
L 297.534712 93.085444 
L 293.982688 92.73492 
L 290.426317 92.384826 
L 286.8627 92.035448 
L 283.288941 91.687071 
L 279.70214 91.339983 
L 276.0994 90.994468 
L 272.477823 90.650815 
L 268.83451 90.309308 
L 265.166565 89.970234 
L 261.471088 89.633879 
L 257.745181 89.30053 
L 253.985948 88.970473 
L 250.190488 88.643994 
L 246.355906 88.321379 
L 242.479301 88.002914 
L 238.557778 87.688886 
L 234.588436 87.379581 
L 230.56838 87.075285 
L 226.494709 86.776285 
L 222.364527 86.482866 
L 218.174935 86.195315 
L 213.923035 85.913919 
L 209.60593 85.638962 
L 205.220721 85.370733 
L 200.76451 85.109516 
L 196.234399 84.855598 
L 191.62749 84.609266 
L 186.940885 84.370805 
L 182.171686 84.140502 
L 177.316995 83.918643 
L 172.373914 83.705514 
L 167.339545 83.501402 
L 162.21099 83.306592 
L 156.985351 83.121372 
L 151.65973 82.946027 
L 146.231228 82.780843 
L 140.696948 82.626107 
L 135.053992 82.482105 
L 129.299461 82.349123 
L 123.430458 82.227448 
L 117.444085 82.117365 
L 111.337443 82.019161 
L 105.107635 81.933123 
L 98.751762 81.859535 
L 92.266927 81.798686 
L 85.650231 81.75086 
L 78.898777 81.716344 
L 72.009666 81.695425 
L 64.98 81.688388 
z
" clip-path="url(#pfc204cb0b9)" style="fill: #0f4d92; opacity: 0.3"/>
   </g>
   <g id="patch_4">
    <path d="M 225.48 112.523676 
L 227.502233 112.516996 
L 229.484032 112.497136 
L 231.426231 112.464368 
L 233.329664 112.418964 
L 235.195165 112.361195 
L 237.023566 112.291334 
L 238.815703 112.209652 
L 240.572408 112.11642 
L 242.294515 112.011911 
L 243.982859 111.896397 
L 245.638272 111.770148 
L 247.261588 111.633437 
L 248.853641 111.486536 
L 250.415265 111.329716 
L 251.947293 111.163249 
L 253.450559 110.987407 
L 254.925897 110.802461 
L 256.37414 110.608684 
L 257.796122 110.406346 
L 259.192677 110.195721 
L 260.564638 109.977079 
L 261.91284 109.750692 
L 263.238115 109.516832 
L 264.541297 109.275771 
L 265.823221 109.02778 
L 267.08472 108.773132 
L 268.326627 108.512097 
L 269.549776 108.244948 
L 270.755001 107.971957 
L 271.943135 107.693395 
L 273.115013 107.409534 
L 274.271468 107.120645 
L 275.413333 106.827001 
L 276.541443 106.528874 
L 277.65663 106.226534 
L 278.75973 105.920254 
L 279.851574 105.610305 
L 280.932997 105.296959 
L 282.004833 104.980489 
L 283.067916 104.661165 
L 284.123078 104.339259 
L 285.171155 104.015044 
L 286.212978 103.68879 
L 287.249383 103.360771 
L 288.281202 103.031256 
L 289.30927 102.700519 
L 290.33442 102.368831 
L 291.357486 102.036463 
L 292.379301 101.703687 
L 293.400699 101.370776 
L 294.422514 101.038001 
L 295.44558 100.705633 
L 296.47073 100.373945 
L 297.498798 100.043207 
L 298.530617 99.713693 
L 299.567022 99.385673 
L 300.608845 99.05942 
L 301.656922 98.735204 
L 302.712084 98.413299 
L 303.775167 98.093975 
L 304.847003 97.777504 
L 305.928426 97.464159 
L 307.02027 97.15421 
L 308.12337 96.84793 
L 309.238557 96.54559 
L 310.366667 96.247462 
L 311.508532 95.953818 
L 312.664987 95.66493 
L 313.836865 95.381069 
L 315.024999 95.102507 
L 316.230224 94.829515 
L 317.453373 94.562366 
L 318.69528 94.301332 
L 319.956779 94.046684 
L 321.238703 93.798693 
L 322.541885 93.557632 
L 323.86716 93.323772 
L 325.215362 93.097385 
L 326.587323 92.878743 
L 327.983878 92.668117 
L 329.40586 92.46578 
L 330.854103 92.272002 
L 332.329441 92.087057 
L 333.832707 91.911215 
L 335.364735 91.744748 
L 336.926359 91.587928 
L 338.518412 91.441026 
L 340.141728 91.304316 
L 341.797141 91.178067 
L 343.485485 91.062552 
L 345.207592 90.958044 
L 346.964297 90.864812 
L 348.756434 90.78313 
L 350.584835 90.713268 
L 352.450336 90.6555 
L 354.353769 90.610096 
L 356.295968 90.577328 
L 358.277767 90.557468 
L 360.3 90.550787 
L 360.3 290.748223 
L 358.277767 290.754903 
L 356.295968 290.774763 
L 354.353769 290.807531 
L 352.450336 290.852936 
L 350.584835 290.910704 
L 348.756434 290.980566 
L 346.964297 291.062248 
L 345.207592 291.155479 
L 343.485485 291.259988 
L 341.797141 291.375503 
L 340.141728 291.501751 
L 338.518412 291.638462 
L 336.926359 291.785363 
L 335.364735 291.942183 
L 333.832707 292.10865 
L 332.329441 292.284492 
L 330.854103 292.469438 
L 329.40586 292.663215 
L 327.983878 292.865553 
L 326.587323 293.076178 
L 325.215362 293.294821 
L 323.86716 293.521208 
L 322.541885 293.755067 
L 321.238703 293.996129 
L 319.956779 294.244119 
L 318.69528 294.498768 
L 317.453373 294.759802 
L 316.230224 295.026951 
L 315.024999 295.299942 
L 313.836865 295.578504 
L 312.664987 295.862365 
L 311.508532 296.151254 
L 310.366667 296.444898 
L 309.238557 296.743026 
L 308.12337 297.045365 
L 307.02027 297.351646 
L 305.928426 297.661594 
L 304.847003 297.97494 
L 303.775167 298.291411 
L 302.712084 298.610734 
L 301.656922 298.93264 
L 300.608845 299.256855 
L 299.567022 299.583109 
L 298.530617 299.911129 
L 297.498798 300.240643 
L 296.47073 300.57138 
L 295.44558 300.903069 
L 294.422514 301.235437 
L 293.400699 301.568212 
L 292.379301 301.901123 
L 291.357486 302.233898 
L 290.33442 302.566266 
L 289.30927 302.897955 
L 288.281202 303.228692 
L 287.249383 303.558206 
L 286.212978 303.886226 
L 285.171155 304.21248 
L 284.123078 304.536695 
L 283.067916 304.858601 
L 282.004833 305.177924 
L 280.932997 305.494395 
L 279.851574 305.807741 
L 278.75973 306.117689 
L 277.65663 306.42397 
L 276.541443 306.726309 
L 275.413333 307.024437 
L 274.271468 307.318081 
L 273.115013 307.60697 
L 271.943135 307.890831 
L 270.755001 308.169393 
L 269.549776 308.442384 
L 268.326627 308.709533 
L 267.08472 308.970567 
L 265.823221 309.225216 
L 264.541297 309.473206 
L 263.238115 309.714268 
L 261.91284 309.948127 
L 260.564638 310.174514 
L 259.192677 310.393157 
L 257.796122 310.603782 
L 256.37414 310.80612 
L 254.925897 310.999897 
L 253.450559 311.184843 
L 251.947293 311.360685 
L 250.415265 311.527152 
L 248.853641 311.683972 
L 247.261588 311.830873 
L 245.638272 311.967584 
L 243.982859 312.093832 
L 242.294515 312.209347 
L 240.572408 312.313856 
L 238.815703 312.407087 
L 237.023566 312.488769 
L 235.195165 312.558631 
L 233.329664 312.616399 
L 231.426231 312.661804 
L 229.484032 312.694572 
L 227.502233 312.714432 
L 225.48 312.721112 
z
" clip-path="url(#pfc204cb0b9)" style="fill: #2e86c1; opacity: 0.3"/>
   </g>
   <g id="patch_5">
    <path d="M 225.48 96.336981 
L 230.102246 96.325736 
L 234.632072 96.292305 
L 239.071385 96.237145 
L 243.422089 96.160715 
L 247.68609 96.063471 
L 251.865294 95.945871 
L 255.961607 95.808373 
L 259.976933 95.651433 
L 263.913178 95.47551 
L 267.772248 95.28106 
L 271.556049 95.068542 
L 275.266486 94.838412 
L 278.905465 94.591128 
L 282.474891 94.327148 
L 285.976669 94.046929 
L 289.412706 93.750928 
L 292.784907 93.439602 
L 296.095177 93.11341 
L 299.345422 92.772809 
L 302.537547 92.418256 
L 305.673459 92.050208 
L 308.755062 91.669124 
L 311.784262 91.27546 
L 314.762965 90.869673 
L 317.693077 90.452222 
L 320.576502 90.023564 
L 323.415147 89.584156 
L 326.210916 89.134456 
L 328.965716 88.67492 
L 331.681453 88.206008 
L 334.36003 87.728175 
L 337.003356 87.241879 
L 339.613333 86.747578 
L 342.191869 86.24573 
L 344.740869 85.736791 
L 347.262239 85.22122 
L 349.757883 84.699473 
L 352.229708 84.172008 
L 354.679619 83.639282 
L 357.109522 83.101753 
L 359.521322 82.559879 
L 361.916925 82.014117 
L 364.298236 81.464923 
L 366.66716 80.912757 
L 369.025605 80.358074 
L 371.375474 79.801333 
L 373.718674 79.242991 
L 376.05711 78.683505 
L 378.392688 78.123333 
L 380.727312 77.562933 
L 383.06289 77.002761 
L 385.401326 76.443275 
L 387.744526 75.884933 
L 390.094395 75.328192 
L 392.45284 74.773509 
L 394.821764 74.221342 
L 397.203075 73.672149 
L 399.598678 73.126387 
L 402.010478 72.584512 
L 404.440381 72.046984 
L 406.890292 71.514258 
L 409.362117 70.986793 
L 411.857761 70.465046 
L 414.379131 69.949474 
L 416.928131 69.440536 
L 419.506667 68.938687 
L 422.116644 68.444387 
L 424.75997 67.958091 
L 427.438547 67.480258 
L 430.154284 67.011345 
L 432.909084 66.55181 
L 435.704853 66.10211 
L 438.543498 65.662702 
L 441.426923 65.234043 
L 444.357035 64.816592 
L 447.335738 64.410806 
L 450.364938 64.017142 
L 453.446541 63.636057 
L 456.582453 63.26801 
L 459.774578 62.913457 
L 463.024823 62.572855 
L 466.335093 62.246663 
L 469.707294 61.935338 
L 473.143331 61.639337 
L 476.645109 61.359118 
L 480.214535 61.095137 
L 483.853514 60.847854 
L 487.563951 60.617724 
L 491.347752 60.405205 
L 495.206822 60.210756 
L 499.143067 60.034833 
L 503.158393 59.877893 
L 507.254706 59.740394 
L 511.43391 59.622795 
L 515.697911 59.525551 
L 520.048615 59.44912 
L 524.487928 59.393961 
L 529.017754 59.36053 
L 533.64 59.349284 
L 533.64 73.997877 
L 529.017754 74.009123 
L 524.487928 74.042554 
L 520.048615 74.097713 
L 515.697911 74.174144 
L 511.43391 74.271387 
L 507.254706 74.388987 
L 503.158393 74.526486 
L 499.143067 74.683425 
L 495.206822 74.859349 
L 491.347752 75.053798 
L 487.563951 75.266317 
L 483.853514 75.496447 
L 480.214535 75.74373 
L 476.645109 76.007711 
L 473.143331 76.28793 
L 469.707294 76.583931 
L 466.335093 76.895256 
L 463.024823 77.221448 
L 459.774578 77.562049 
L 456.582453 77.916603 
L 453.446541 78.28465 
L 450.364938 78.665735 
L 447.335738 79.059399 
L 444.357035 79.465185 
L 441.426923 79.882636 
L 438.543498 80.311294 
L 435.704853 80.750702 
L 432.909084 81.200403 
L 430.154284 81.659938 
L 427.438547 82.128851 
L 424.75997 82.606684 
L 422.116644 83.092979 
L 419.506667 83.58728 
L 416.928131 84.089129 
L 414.379131 84.598067 
L 411.857761 85.113639 
L 409.362117 85.635386 
L 406.890292 86.162851 
L 404.440381 86.695576 
L 402.010478 87.233105 
L 399.598678 87.774979 
L 397.203075 88.320742 
L 394.821764 88.869935 
L 392.45284 89.422102 
L 390.094395 89.976785 
L 387.744526 90.533526 
L 385.401326 91.091868 
L 383.06289 91.651354 
L 380.727312 92.211525 
L 378.392688 92.771926 
L 376.05711 93.332098 
L 373.718674 93.891584 
L 371.375474 94.449926 
L 369.025605 95.006667 
L 366.66716 95.561349 
L 364.298236 96.113516 
L 361.916925 96.662709 
L 359.521322 97.208472 
L 357.109522 97.750346 
L 354.679619 98.287875 
L 352.229708 98.8206 
L 349.757883 99.348065 
L 347.262239 99.869813 
L 344.740869 100.385384 
L 342.191869 100.894323 
L 339.613333 101.396171 
L 337.003356 101.890472 
L 334.36003 102.376767 
L 331.681453 102.8546 
L 328.965716 103.323513 
L 326.210916 103.783049 
L 323.415147 104.232749 
L 320.576502 104.672157 
L 317.693077 105.100815 
L 314.762965 105.518266 
L 311.784262 105.924053 
L 308.755062 106.317717 
L 305.673459 106.698801 
L 302.537547 107.066849 
L 299.345422 107.421402 
L 296.095177 107.762003 
L 292.784907 108.088195 
L 289.412706 108.39952 
L 285.976669 108.695521 
L 282.474891 108.975741 
L 278.905465 109.239721 
L 275.266486 109.487005 
L 271.556049 109.717135 
L 267.772248 109.929653 
L 263.913178 110.124103 
L 259.976933 110.300026 
L 255.961607 110.456966 
L 251.865294 110.594464 
L 247.68609 110.712064 
L 243.422089 110.809308 
L 239.071385 110.885738 
L 234.632072 110.940898 
L 230.102246 110.974329 
L 225.48 110.985574 
z
" clip-path="url(#pfc204cb0b9)" style="fill: #2e86c1; opacity: 0.3"/>
   </g>
   <g id="patch_6">
    <path d="M 385.98 144.262294 
L 388.194826 144.271313 
L 390.365368 144.298124 
L 392.492539 144.342361 
L 394.577251 144.403656 
L 396.620418 144.481644 
L 398.622954 144.575957 
L 400.58577 144.686228 
L 402.50978 144.81209 
L 404.395898 144.953177 
L 406.245036 145.109122 
L 408.058107 145.279558 
L 409.836025 145.464117 
L 411.579702 145.662434 
L 413.290052 145.874141 
L 414.967987 146.098871 
L 416.614422 146.336258 
L 418.230268 146.585935 
L 419.816439 146.847534 
L 421.373848 147.12069 
L 422.903408 147.405034 
L 424.406032 147.700201 
L 425.882634 148.005824 
L 427.334126 148.321534 
L 428.761421 148.646967 
L 430.165433 148.981754 
L 431.547074 149.32553 
L 432.907258 149.677926 
L 434.246897 150.038577 
L 435.566906 150.407115 
L 436.868196 150.783174 
L 438.151681 151.166387 
L 439.418275 151.556386 
L 440.668889 151.952806 
L 441.904437 152.355278 
L 443.125833 152.763437 
L 444.333989 153.176915 
L 445.529819 153.595346 
L 446.714235 154.018362 
L 447.888151 154.445598 
L 449.052479 154.876685 
L 450.208133 155.311257 
L 451.356026 155.748948 
L 452.497071 156.18939 
L 453.632181 156.632217 
L 454.762269 157.077062 
L 455.888248 157.523557 
L 457.011031 157.971336 
L 458.131532 158.420033 
L 459.250663 158.869279 
L 460.369337 159.31871 
L 461.488468 159.767956 
L 462.608969 160.216653 
L 463.731752 160.664432 
L 464.857731 161.110927 
L 465.987819 161.555772 
L 467.122929 161.998599 
L 468.263974 162.439041 
L 469.411867 162.876732 
L 470.567521 163.311304 
L 471.731849 163.742391 
L 472.905765 164.169627 
L 474.090181 164.592643 
L 475.286011 165.011074 
L 476.494167 165.424552 
L 477.715563 165.832711 
L 478.951111 166.235184 
L 480.201725 166.631603 
L 481.468319 167.021602 
L 482.751804 167.404815 
L 484.053094 167.780874 
L 485.373103 168.149412 
L 486.712742 168.510063 
L 488.072926 168.862459 
L 489.454567 169.206235 
L 490.858579 169.541022 
L 492.285874 169.866455 
L 493.737366 170.182166 
L 495.213968 170.487788 
L 496.716592 170.782955 
L 498.246152 171.067299 
L 499.803561 171.340455 
L 501.389732 171.602054 
L 503.005578 171.851731 
L 504.652013 172.089118 
L 506.329948 172.313848 
L 508.040298 172.525555 
L 509.783975 172.723872 
L 511.561893 172.908431 
L 513.374964 173.078867 
L 515.224102 173.234812 
L 517.11022 173.375899 
L 519.03423 173.501761 
L 520.997046 173.612032 
L 522.999582 173.706345 
L 525.042749 173.784333 
L 527.127461 173.845628 
L 529.254632 173.889865 
L 531.425174 173.916676 
L 533.64 173.925695 
L 533.64 320.411623 
L 531.425174 320.402605 
L 529.254632 320.375794 
L 527.127461 320.331557 
L 525.042749 320.270261 
L 522.999582 320.192274 
L 520.997046 320.097961 
L 519.03423 319.98769 
L 517.11022 319.861827 
L 515.224102 319.72074 
L 513.374964 319.564796 
L 511.561893 319.39436 
L 509.783975 319.2098 
L 508.040298 319.011484 
L 506.329948 318.799777 
L 504.652013 318.575046 
L 503.005578 318.337659 
L 501.389732 318.087983 
L 499.803561 317.826383 
L 498.246152 317.553228 
L 496.716592 317.268883 
L 495.213968 316.973716 
L 493.737366 316.668094 
L 492.285874 316.352383 
L 490.858579 316.026951 
L 489.454567 315.692163 
L 488.072926 315.348388 
L 486.712742 314.995991 
L 485.373103 314.63534 
L 484.053094 314.266802 
L 482.751804 313.890743 
L 481.468319 313.507531 
L 480.201725 313.117532 
L 478.951111 312.721112 
L 477.715563 312.31864 
L 476.494167 311.910481 
L 475.286011 311.497003 
L 474.090181 311.078572 
L 472.905765 310.655555 
L 471.731849 310.22832 
L 470.567521 309.797233 
L 469.411867 309.36266 
L 468.263974 308.924969 
L 467.122929 308.484527 
L 465.987819 308.041701 
L 464.857731 307.596856 
L 463.731752 307.150361 
L 462.608969 306.702581 
L 461.488468 306.253885 
L 460.369337 305.804638 
L 459.250663 305.355208 
L 458.131532 304.905961 
L 457.011031 304.457265 
L 455.888248 304.009486 
L 454.762269 303.56299 
L 453.632181 303.118146 
L 452.497071 302.675319 
L 451.356026 302.234877 
L 450.208133 301.797186 
L 449.052479 301.362614 
L 447.888151 300.931526 
L 446.714235 300.504291 
L 445.529819 300.081274 
L 444.333989 299.662844 
L 443.125833 299.249365 
L 441.904437 298.841207 
L 440.668889 298.438734 
L 439.418275 298.042315 
L 438.151681 297.652315 
L 436.868196 297.269103 
L 435.566906 296.893044 
L 434.246897 296.524506 
L 432.907258 296.163855 
L 431.547074 295.811458 
L 430.165433 295.467683 
L 428.761421 295.132896 
L 427.334126 294.807463 
L 425.882634 294.491752 
L 424.406032 294.18613 
L 422.903408 293.890963 
L 421.373848 293.606618 
L 419.816439 293.333463 
L 418.230268 293.071863 
L 416.614422 292.822187 
L 414.967987 292.5848 
L 413.290052 292.360069 
L 411.579702 292.148362 
L 409.836025 291.950046 
L 408.058107 291.765486 
L 406.245036 291.595051 
L 404.395898 291.439106 
L 402.50978 291.298019 
L 400.58577 291.172156 
L 398.622954 291.061885 
L 396.620418 290.967573 
L 394.577251 290.889585 
L 392.492539 290.828289 
L 390.365368 290.784053 
L 388.194826 290.757241 
L 385.98 290.748223 
z
" clip-path="url(#pfc204cb0b9)" style="fill: #1a7a4a; opacity: 0.3"/>
   </g>
   <g id="patch_7">
    <path d="M 385.98 113.427006 
L 388.194826 113.434934 
L 390.365368 113.458501 
L 392.492539 113.497386 
L 394.577251 113.551265 
L 396.620418 113.619818 
L 398.622954 113.70272 
L 400.58577 113.799649 
L 402.50978 113.910284 
L 404.395898 114.034301 
L 406.245036 114.171378 
L 408.058107 114.321193 
L 409.836025 114.483424 
L 411.579702 114.657746 
L 413.290052 114.843839 
L 414.967987 115.04138 
L 416.614422 115.250046 
L 418.230268 115.469515 
L 419.816439 115.699464 
L 421.373848 115.939571 
L 422.903408 116.189514 
L 424.406032 116.448969 
L 425.882634 116.717615 
L 427.334126 116.995129 
L 428.761421 117.281188 
L 430.165433 117.57547 
L 431.547074 117.877653 
L 432.907258 118.187414 
L 434.246897 118.50443 
L 435.566906 118.82838 
L 436.868196 119.15894 
L 438.151681 119.495789 
L 439.418275 119.838603 
L 440.668889 120.187061 
L 441.904437 120.540839 
L 443.125833 120.899616 
L 444.333989 121.263068 
L 445.529819 121.630874 
L 446.714235 122.002711 
L 447.888151 122.378256 
L 449.052479 122.757187 
L 450.208133 123.139181 
L 451.356026 123.523917 
L 452.497071 123.911071 
L 453.632181 124.300321 
L 454.762269 124.691345 
L 455.888248 125.08382 
L 457.011031 125.477423 
L 458.131532 125.871833 
L 459.250663 126.266727 
L 460.369337 126.661781 
L 461.488468 127.056675 
L 462.608969 127.451084 
L 463.731752 127.844688 
L 464.857731 128.237163 
L 465.987819 128.628187 
L 467.122929 129.017437 
L 468.263974 129.404591 
L 469.411867 129.789327 
L 470.567521 130.171321 
L 471.731849 130.550252 
L 472.905765 130.925797 
L 474.090181 131.297634 
L 475.286011 131.66544 
L 476.494167 132.028892 
L 477.715563 132.387669 
L 478.951111 132.741447 
L 480.201725 133.089905 
L 481.468319 133.432719 
L 482.751804 133.769568 
L 484.053094 134.100128 
L 485.373103 134.424078 
L 486.712742 134.741094 
L 488.072926 135.050855 
L 489.454567 135.353038 
L 490.858579 135.64732 
L 492.285874 135.933379 
L 493.737366 136.210893 
L 495.213968 136.479539 
L 496.716592 136.738994 
L 498.246152 136.988937 
L 499.803561 137.229044 
L 501.389732 137.458993 
L 503.005578 137.678462 
L 504.652013 137.887128 
L 506.329948 138.084669 
L 508.040298 138.270762 
L 509.783975 138.445084 
L 511.561893 138.607315 
L 513.374964 138.757129 
L 515.224102 138.894207 
L 517.11022 139.018224 
L 519.03423 139.128859 
L 520.997046 139.225788 
L 522.999582 139.30869 
L 525.042749 139.377243 
L 527.127461 139.431122 
L 529.254632 139.470007 
L 531.425174 139.493574 
L 533.64 139.501502 
L 533.64 168.798687 
L 531.425174 168.79076 
L 529.254632 168.767193 
L 527.127461 168.728308 
L 525.042749 168.674428 
L 522.999582 168.605876 
L 520.997046 168.522974 
L 519.03423 168.426044 
L 517.11022 168.31541 
L 515.224102 168.191393 
L 513.374964 168.054315 
L 511.561893 167.9045 
L 509.783975 167.74227 
L 508.040298 167.567947 
L 506.329948 167.381854 
L 504.652013 167.184314 
L 503.005578 166.975647 
L 501.389732 166.756179 
L 499.803561 166.526229 
L 498.246152 166.286122 
L 496.716592 166.03618 
L 495.213968 165.776725 
L 493.737366 165.508079 
L 492.285874 165.230565 
L 490.858579 164.944506 
L 489.454567 164.650224 
L 488.072926 164.348041 
L 486.712742 164.03828 
L 485.373103 163.721263 
L 484.053094 163.397314 
L 482.751804 163.066753 
L 481.468319 162.729905 
L 480.201725 162.387091 
L 478.951111 162.038633 
L 477.715563 161.684855 
L 476.494167 161.326078 
L 475.286011 160.962626 
L 474.090181 160.59482 
L 472.905765 160.222983 
L 471.731849 159.847438 
L 470.567521 159.468507 
L 469.411867 159.086512 
L 468.263974 158.701777 
L 467.122929 158.314623 
L 465.987819 157.925372 
L 464.857731 157.534349 
L 463.731752 157.141874 
L 462.608969 156.74827 
L 461.488468 156.35386 
L 460.369337 155.958967 
L 459.250663 155.563912 
L 458.131532 155.169019 
L 457.011031 154.774609 
L 455.888248 154.381006 
L 454.762269 153.988531 
L 453.632181 153.597507 
L 452.497071 153.208257 
L 451.356026 152.821103 
L 450.208133 152.436367 
L 449.052479 152.054372 
L 447.888151 151.675441 
L 446.714235 151.299896 
L 445.529819 150.92806 
L 444.333989 150.560254 
L 443.125833 150.196801 
L 441.904437 149.838025 
L 440.668889 149.484246 
L 439.418275 149.135789 
L 438.151681 148.792975 
L 436.868196 148.456126 
L 435.566906 148.125566 
L 434.246897 147.801616 
L 432.907258 147.4846 
L 431.547074 147.174839 
L 430.165433 146.872656 
L 428.761421 146.578373 
L 427.334126 146.292314 
L 425.882634 146.0148 
L 424.406032 145.746155 
L 422.903408 145.486699 
L 421.373848 145.236757 
L 419.816439 144.99665 
L 418.230268 144.766701 
L 416.614422 144.547232 
L 414.967987 144.338566 
L 413.290052 144.141025 
L 411.579702 143.954932 
L 409.836025 143.780609 
L 408.058107 143.618379 
L 406.245036 143.468564 
L 404.395898 143.331487 
L 402.50978 143.20747 
L 400.58577 143.096835 
L 398.622954 142.999905 
L 396.620418 142.917003 
L 394.577251 142.848451 
L 392.492539 142.794571 
L 390.365368 142.755687 
L 388.194826 142.732119 
L 385.98 142.724192 
z
" clip-path="url(#pfc204cb0b9)" style="fill: #1a7a4a; opacity: 0.3"/>
   </g>
   <g id="patch_8">
    <path d="M 385.98 87.474583 
L 388.194826 87.481419 
L 390.365368 87.501742 
L 392.492539 87.535275 
L 394.577251 87.581739 
L 396.620418 87.640855 
L 398.622954 87.712347 
L 400.58577 87.795935 
L 402.50978 87.891342 
L 404.395898 87.998289 
L 406.245036 88.116499 
L 408.058107 88.245693 
L 409.836025 88.385594 
L 411.579702 88.535923 
L 413.290052 88.696402 
L 414.967987 88.866753 
L 416.614422 89.046698 
L 418.230268 89.23596 
L 419.816439 89.434258 
L 421.373848 89.641317 
L 422.903408 89.856857 
L 424.406032 90.080601 
L 425.882634 90.31227 
L 427.334126 90.551587 
L 428.761421 90.798273 
L 430.165433 91.05205 
L 431.547074 91.31264 
L 432.907258 91.579765 
L 434.246897 91.853148 
L 435.566906 92.132509 
L 436.868196 92.417571 
L 438.151681 92.708055 
L 439.418275 93.003684 
L 440.668889 93.30418 
L 441.904437 93.609264 
L 443.125833 93.918659 
L 444.333989 94.232085 
L 445.529819 94.549266 
L 446.714235 94.869923 
L 447.888151 95.193778 
L 449.052479 95.520553 
L 450.208133 95.84997 
L 451.356026 96.18175 
L 452.497071 96.515616 
L 453.632181 96.85129 
L 454.762269 97.188493 
L 455.888248 97.526947 
L 457.011031 97.866375 
L 458.131532 98.206498 
L 459.250663 98.547038 
L 460.369337 98.887717 
L 461.488468 99.228257 
L 462.608969 99.56838 
L 463.731752 99.907808 
L 464.857731 100.246263 
L 465.987819 100.583466 
L 467.122929 100.919139 
L 468.263974 101.253005 
L 469.411867 101.584786 
L 470.567521 101.914202 
L 471.731849 102.240977 
L 472.905765 102.564832 
L 474.090181 102.885489 
L 475.286011 103.20267 
L 476.494167 103.516097 
L 477.715563 103.825491 
L 478.951111 104.130575 
L 480.201725 104.431071 
L 481.468319 104.7267 
L 482.751804 105.017185 
L 484.053094 105.302247 
L 485.373103 105.581608 
L 486.712742 105.85499 
L 488.072926 106.122115 
L 489.454567 106.382705 
L 490.858579 106.636482 
L 492.285874 106.883168 
L 493.737366 107.122485 
L 495.213968 107.354154 
L 496.716592 107.577898 
L 498.246152 107.793438 
L 499.803561 108.000497 
L 501.389732 108.198796 
L 503.005578 108.388057 
L 504.652013 108.568002 
L 506.329948 108.738353 
L 508.040298 108.898832 
L 509.783975 109.049161 
L 511.561893 109.189062 
L 513.374964 109.318256 
L 515.224102 109.436466 
L 517.11022 109.543414 
L 519.03423 109.638821 
L 520.997046 109.722409 
L 522.999582 109.7939 
L 525.042749 109.853017 
L 527.127461 109.89948 
L 529.254632 109.933013 
L 531.425174 109.953336 
L 533.64 109.960173 
L 533.64 134.374494 
L 531.425174 134.367658 
L 529.254632 134.347334 
L 527.127461 134.313802 
L 525.042749 134.267338 
L 522.999582 134.208222 
L 520.997046 134.13673 
L 519.03423 134.053142 
L 517.11022 133.957735 
L 515.224102 133.850788 
L 513.374964 133.732578 
L 511.561893 133.603383 
L 509.783975 133.463483 
L 508.040298 133.313154 
L 506.329948 133.152675 
L 504.652013 132.982323 
L 503.005578 132.802378 
L 501.389732 132.613117 
L 499.803561 132.414818 
L 498.246152 132.20776 
L 496.716592 131.99222 
L 495.213968 131.768476 
L 493.737366 131.536806 
L 492.285874 131.29749 
L 490.858579 131.050804 
L 489.454567 130.797027 
L 488.072926 130.536437 
L 486.712742 130.269311 
L 485.373103 129.995929 
L 484.053094 129.716568 
L 482.751804 129.431506 
L 481.468319 129.141022 
L 480.201725 128.845392 
L 478.951111 128.544897 
L 477.715563 128.239813 
L 476.494167 127.930418 
L 475.286011 127.616991 
L 474.090181 127.299811 
L 472.905765 126.979154 
L 471.731849 126.655299 
L 470.567521 126.328524 
L 469.411867 125.999107 
L 468.263974 125.667327 
L 467.122929 125.333461 
L 465.987819 124.997787 
L 464.857731 124.660584 
L 463.731752 124.32213 
L 462.608969 123.982702 
L 461.488468 123.642579 
L 460.369337 123.302039 
L 459.250663 122.96136 
L 458.131532 122.620819 
L 457.011031 122.280696 
L 455.888248 121.941269 
L 454.762269 121.602814 
L 453.632181 121.265611 
L 452.497071 120.929937 
L 451.356026 120.596071 
L 450.208133 120.264291 
L 449.052479 119.934874 
L 447.888151 119.608099 
L 446.714235 119.284245 
L 445.529819 118.963588 
L 444.333989 118.646407 
L 443.125833 118.33298 
L 441.904437 118.023586 
L 440.668889 117.718501 
L 439.418275 117.418006 
L 438.151681 117.122377 
L 436.868196 116.831892 
L 435.566906 116.54683 
L 434.246897 116.267469 
L 432.907258 115.994087 
L 431.547074 115.726962 
L 430.165433 115.466371 
L 428.761421 115.212594 
L 427.334126 114.965908 
L 425.882634 114.726592 
L 424.406032 114.494922 
L 422.903408 114.271179 
L 421.373848 114.055638 
L 419.816439 113.84858 
L 418.230268 113.650281 
L 416.614422 113.46102 
L 414.967987 113.281075 
L 413.290052 113.110724 
L 411.579702 112.950244 
L 409.836025 112.799916 
L 408.058107 112.660015 
L 406.245036 112.53082 
L 404.395898 112.412611 
L 402.50978 112.305663 
L 400.58577 112.210256 
L 398.622954 112.126668 
L 396.620418 112.055177 
L 394.577251 111.99606 
L 392.492539 111.949596 
L 390.365368 111.916064 
L 388.194826 111.89574 
L 385.98 111.888904 
z
" clip-path="url(#pfc204cb0b9)" style="fill: #1a7a4a; opacity: 0.3"/>
   </g>
   <g id="line2d_1">
    <path d="M 64.98 83.226491 
L 67.002233 83.222037 
L 68.984032 83.208797 
L 70.926231 83.186952 
L 72.829664 83.156682 
L 74.695165 83.11817 
L 76.523566 83.071596 
L 78.315703 83.017141 
L 80.072408 82.954986 
L 81.794515 82.885314 
L 83.482859 82.808304 
L 85.138272 82.724138 
L 86.761588 82.632998 
L 88.353641 82.535064 
L 89.915265 82.430517 
L 91.447293 82.319539 
L 92.950559 82.202311 
L 94.425897 82.079014 
L 95.87414 81.949829 
L 97.296122 81.814937 
L 98.692677 81.67452 
L 100.064638 81.528759 
L 101.41284 81.377834 
L 102.738115 81.221928 
L 104.041297 81.06122 
L 105.323221 80.895893 
L 106.58472 80.726127 
L 107.826627 80.552104 
L 109.049776 80.374005 
L 110.255001 80.192011 
L 111.443135 80.006303 
L 112.615013 79.817062 
L 113.771468 79.62447 
L 114.913333 79.428707 
L 116.041443 79.229956 
L 117.15663 79.028396 
L 118.25973 78.824209 
L 119.351574 78.617576 
L 120.432997 78.408679 
L 121.504833 78.197699 
L 122.567916 77.984816 
L 123.623078 77.770213 
L 124.671155 77.554069 
L 125.712978 77.336567 
L 126.749383 77.117887 
L 127.781202 76.898211 
L 128.80927 76.677719 
L 129.83442 76.456593 
L 130.857486 76.235015 
L 131.879301 76.013165 
L 132.900699 75.791224 
L 133.922514 75.569374 
L 134.94558 75.347795 
L 135.97073 75.12667 
L 136.998798 74.906178 
L 138.030617 74.686502 
L 139.067022 74.467822 
L 140.108845 74.25032 
L 141.156922 74.034176 
L 142.212084 73.819572 
L 143.275167 73.60669 
L 144.347003 73.395709 
L 145.428426 73.186812 
L 146.52027 72.98018 
L 147.62337 72.775993 
L 148.738557 72.574433 
L 149.866667 72.375681 
L 151.008532 72.179919 
L 152.164987 71.987326 
L 153.336865 71.798086 
L 154.524999 71.612377 
L 155.730224 71.430383 
L 156.953373 71.252284 
L 158.19528 71.078261 
L 159.456779 70.908495 
L 160.738703 70.743168 
L 162.041885 70.582461 
L 163.36716 70.426554 
L 164.715362 70.27563 
L 166.087323 70.129868 
L 167.483878 69.989451 
L 168.90586 69.85456 
L 170.354103 69.725375 
L 171.829441 69.602078 
L 173.332707 69.484849 
L 174.864735 69.373871 
L 176.426359 69.269325 
L 178.018412 69.171391 
L 179.641728 69.08025 
L 181.297141 68.996084 
L 182.985485 68.919075 
L 184.707592 68.849402 
L 186.464297 68.787248 
L 188.256434 68.732793 
L 190.084835 68.686219 
L 191.950336 68.647706 
L 193.853769 68.617437 
L 195.795968 68.595592 
L 197.777767 68.582351 
L 199.8 68.577898 
" clip-path="url(#pfc204cb0b9)" style="fill: none; stroke: #0f4d92; stroke-opacity: 0.55; stroke-width: 0.5; stroke-linecap: square"/>
   </g>
   <g id="line2d_2">
    <path d="M 64.98 327.369705 
L 67.002233 327.365251 
L 68.984032 327.352011 
L 70.926231 327.330166 
L 72.829664 327.299897 
L 74.695165 327.261384 
L 76.523566 327.21481 
L 78.315703 327.160355 
L 80.072408 327.098201 
L 81.794515 327.028528 
L 83.482859 326.951518 
L 85.138272 326.867353 
L 86.761588 326.776212 
L 88.353641 326.678278 
L 89.915265 326.573731 
L 91.447293 326.462753 
L 92.950559 326.345525 
L 94.425897 326.222228 
L 95.87414 326.093043 
L 97.296122 325.958152 
L 98.692677 325.817735 
L 100.064638 325.671973 
L 101.41284 325.521049 
L 102.738115 325.365142 
L 104.041297 325.204435 
L 105.323221 325.039107 
L 106.58472 324.869342 
L 107.826627 324.695319 
L 109.049776 324.51722 
L 110.255001 324.335225 
L 111.443135 324.149517 
L 112.615013 323.960277 
L 113.771468 323.767684 
L 114.913333 323.571922 
L 116.041443 323.37317 
L 117.15663 323.17161 
L 118.25973 322.967423 
L 119.351574 322.760791 
L 120.432997 322.551894 
L 121.504833 322.340913 
L 122.567916 322.128031 
L 123.623078 321.913427 
L 124.671155 321.697283 
L 125.712978 321.479781 
L 126.749383 321.261101 
L 127.781202 321.041425 
L 128.80927 320.820933 
L 129.83442 320.599808 
L 130.857486 320.378229 
L 131.879301 320.156379 
L 132.900699 319.934438 
L 133.922514 319.712588 
L 134.94558 319.491009 
L 135.97073 319.269884 
L 136.998798 319.049392 
L 138.030617 318.829716 
L 139.067022 318.611036 
L 140.108845 318.393534 
L 141.156922 318.17739 
L 142.212084 317.962787 
L 143.275167 317.749904 
L 144.347003 317.538924 
L 145.428426 317.330026 
L 146.52027 317.123394 
L 147.62337 316.919207 
L 148.738557 316.717647 
L 149.866667 316.518895 
L 151.008532 316.323133 
L 152.164987 316.130541 
L 153.336865 315.9413 
L 154.524999 315.755592 
L 155.730224 315.573598 
L 156.953373 315.395498 
L 158.19528 315.221475 
L 159.456779 315.05171 
L 160.738703 314.886383 
L 162.041885 314.725675 
L 163.36716 314.569769 
L 164.715362 314.418844 
L 166.087323 314.273083 
L 167.483878 314.132665 
L 168.90586 313.997774 
L 170.354103 313.868589 
L 171.829441 313.745292 
L 173.332707 313.628064 
L 174.864735 313.517086 
L 176.426359 313.412539 
L 178.018412 313.314605 
L 179.641728 313.223464 
L 181.297141 313.139299 
L 182.985485 313.062289 
L 184.707592 312.992616 
L 186.464297 312.930462 
L 188.256434 312.876007 
L 190.084835 312.829433 
L 191.950336 312.790921 
L 193.853769 312.760651 
L 195.795968 312.738806 
L 197.777767 312.725566 
L 199.8 312.721112 
" clip-path="url(#pfc204cb0b9)" style="fill: none; stroke: #0f4d92; stroke-opacity: 0.55; stroke-width: 0.5; stroke-linecap: square"/>
   </g>
   <g id="line2d_3">
    <path d="M 64.98 52.391203 
L 72.009666 52.398239 
L 78.898777 52.419159 
L 85.650231 52.453674 
L 92.266927 52.5015 
L 98.751762 52.56235 
L 105.107635 52.635937 
L 111.337443 52.721976 
L 117.444085 52.820179 
L 123.430458 52.930262 
L 129.299461 53.051938 
L 135.053992 53.184919 
L 140.696948 53.328921 
L 146.231228 53.483657 
L 151.65973 53.648841 
L 156.985351 53.824186 
L 162.21099 54.009407 
L 167.339545 54.204216 
L 172.373914 54.408328 
L 177.316995 54.621457 
L 182.171686 54.843316 
L 186.940885 55.073619 
L 191.62749 55.31208 
L 196.234399 55.558412 
L 200.76451 55.81233 
L 205.220721 56.073547 
L 209.60593 56.341777 
L 213.923035 56.616733 
L 218.174935 56.89813 
L 222.364527 57.185681 
L 226.494709 57.479099 
L 230.56838 57.7781 
L 234.588436 58.082395 
L 238.557778 58.3917 
L 242.479301 58.705728 
L 246.355906 59.024193 
L 250.190488 59.346808 
L 253.985948 59.673287 
L 257.745181 60.003345 
L 261.471088 60.336694 
L 265.166565 60.673048 
L 268.83451 61.012122 
L 272.477823 61.353629 
L 276.0994 61.697283 
L 279.70214 62.042797 
L 283.288941 62.389885 
L 286.8627 62.738262 
L 290.426317 63.08764 
L 293.982688 63.437734 
L 297.534712 63.788258 
L 301.085288 64.138924 
L 304.637312 64.489448 
L 308.193683 64.839542 
L 311.7573 65.18892 
L 315.331059 65.537297 
L 318.91786 65.884385 
L 322.5206 66.2299 
L 326.142177 66.573553 
L 329.78549 66.91506 
L 333.453435 67.254134 
L 337.148912 67.590488 
L 340.874819 67.923838 
L 344.634052 68.253895 
L 348.429512 68.580374 
L 352.264094 68.902989 
L 356.140699 69.221454 
L 360.062222 69.535482 
L 364.031564 69.844787 
L 368.05162 70.149083 
L 372.125291 70.448083 
L 376.255473 70.741502 
L 380.445065 71.029053 
L 384.696965 71.310449 
L 389.01407 71.585406 
L 393.399279 71.853635 
L 397.85549 72.114852 
L 402.385601 72.36877 
L 406.99251 72.615102 
L 411.679115 72.853563 
L 416.448314 73.083866 
L 421.303005 73.305725 
L 426.246086 73.518854 
L 431.280455 73.722966 
L 436.40901 73.917776 
L 441.634649 74.102996 
L 446.96027 74.278341 
L 452.388772 74.443525 
L 457.923052 74.598261 
L 463.566008 74.742263 
L 469.320539 74.875245 
L 475.189542 74.99692 
L 481.175915 75.107003 
L 487.282557 75.205207 
L 493.512365 75.291245 
L 499.868238 75.364832 
L 506.353073 75.425682 
L 512.969769 75.473508 
L 519.721223 75.508023 
L 526.610334 75.528943 
L 533.64 75.535979 
" clip-path="url(#pfc204cb0b9)" style="fill: none; stroke: #0f4d92; stroke-opacity: 0.55; stroke-width: 0.5; stroke-linecap: square"/>
   </g>
   <g id="line2d_4">
    <path d="M 64.98 81.688388 
L 72.009666 81.695425 
L 78.898777 81.716344 
L 85.650231 81.75086 
L 92.266927 81.798686 
L 98.751762 81.859535 
L 105.107635 81.933123 
L 111.337443 82.019161 
L 117.444085 82.117365 
L 123.430458 82.227448 
L 129.299461 82.349123 
L 135.053992 82.482105 
L 140.696948 82.626107 
L 146.231228 82.780843 
L 151.65973 82.946027 
L 156.985351 83.121372 
L 162.21099 83.306592 
L 167.339545 83.501402 
L 172.373914 83.705514 
L 177.316995 83.918643 
L 182.171686 84.140502 
L 186.940885 84.370805 
L 191.62749 84.609266 
L 196.234399 84.855598 
L 200.76451 85.109516 
L 205.220721 85.370733 
L 209.60593 85.638962 
L 213.923035 85.913919 
L 218.174935 86.195315 
L 222.364527 86.482866 
L 226.494709 86.776285 
L 230.56838 87.075285 
L 234.588436 87.379581 
L 238.557778 87.688886 
L 242.479301 88.002914 
L 246.355906 88.321379 
L 250.190488 88.643994 
L 253.985948 88.970473 
L 257.745181 89.30053 
L 261.471088 89.633879 
L 265.166565 89.970234 
L 268.83451 90.309308 
L 272.477823 90.650815 
L 276.0994 90.994468 
L 279.70214 91.339983 
L 283.288941 91.687071 
L 286.8627 92.035448 
L 290.426317 92.384826 
L 293.982688 92.73492 
L 297.534712 93.085444 
L 301.085288 93.43611 
L 304.637312 93.786633 
L 308.193683 94.136727 
L 311.7573 94.486106 
L 315.331059 94.834483 
L 318.91786 95.181571 
L 322.5206 95.527085 
L 326.142177 95.870739 
L 329.78549 96.212246 
L 333.453435 96.55132 
L 337.148912 96.887674 
L 340.874819 97.221023 
L 344.634052 97.551081 
L 348.429512 97.87756 
L 352.264094 98.200175 
L 356.140699 98.51864 
L 360.062222 98.832668 
L 364.031564 99.141972 
L 368.05162 99.446268 
L 372.125291 99.745269 
L 376.255473 100.038687 
L 380.445065 100.326238 
L 384.696965 100.607635 
L 389.01407 100.882591 
L 393.399279 101.150821 
L 397.85549 101.412038 
L 402.385601 101.665956 
L 406.99251 101.912288 
L 411.679115 102.150749 
L 416.448314 102.381052 
L 421.303005 102.602911 
L 426.246086 102.81604 
L 431.280455 103.020152 
L 436.40901 103.214961 
L 441.634649 103.400182 
L 446.96027 103.575527 
L 452.388772 103.740711 
L 457.923052 103.895447 
L 463.566008 104.039449 
L 469.320539 104.17243 
L 475.189542 104.294106 
L 481.175915 104.404188 
L 487.282557 104.502392 
L 493.512365 104.588431 
L 499.868238 104.662018 
L 506.353073 104.722868 
L 512.969769 104.770694 
L 519.721223 104.805209 
L 526.610334 104.826128 
L 533.64 104.833165 
" clip-path="url(#pfc204cb0b9)" style="fill: none; stroke: #0f4d92; stroke-opacity: 0.55; stroke-width: 0.5; stroke-linecap: square"/>
   </g>
   <g id="line2d_5">
    <path d="M 225.48 112.523676 
L 227.502233 112.516996 
L 229.484032 112.497136 
L 231.426231 112.464368 
L 233.329664 112.418964 
L 235.195165 112.361195 
L 237.023566 112.291334 
L 238.815703 112.209652 
L 240.572408 112.11642 
L 242.294515 112.011911 
L 243.982859 111.896397 
L 245.638272 111.770148 
L 247.261588 111.633437 
L 248.853641 111.486536 
L 250.415265 111.329716 
L 251.947293 111.163249 
L 253.450559 110.987407 
L 254.925897 110.802461 
L 256.37414 110.608684 
L 257.796122 110.406346 
L 259.192677 110.195721 
L 260.564638 109.977079 
L 261.91284 109.750692 
L 263.238115 109.516832 
L 264.541297 109.275771 
L 265.823221 109.02778 
L 267.08472 108.773132 
L 268.326627 108.512097 
L 269.549776 108.244948 
L 270.755001 107.971957 
L 271.943135 107.693395 
L 273.115013 107.409534 
L 274.271468 107.120645 
L 275.413333 106.827001 
L 276.541443 106.528874 
L 277.65663 106.226534 
L 278.75973 105.920254 
L 279.851574 105.610305 
L 280.932997 105.296959 
L 282.004833 104.980489 
L 283.067916 104.661165 
L 284.123078 104.339259 
L 285.171155 104.015044 
L 286.212978 103.68879 
L 287.249383 103.360771 
L 288.281202 103.031256 
L 289.30927 102.700519 
L 290.33442 102.368831 
L 291.357486 102.036463 
L 292.379301 101.703687 
L 293.400699 101.370776 
L 294.422514 101.038001 
L 295.44558 100.705633 
L 296.47073 100.373945 
L 297.498798 100.043207 
L 298.530617 99.713693 
L 299.567022 99.385673 
L 300.608845 99.05942 
L 301.656922 98.735204 
L 302.712084 98.413299 
L 303.775167 98.093975 
L 304.847003 97.777504 
L 305.928426 97.464159 
L 307.02027 97.15421 
L 308.12337 96.84793 
L 309.238557 96.54559 
L 310.366667 96.247462 
L 311.508532 95.953818 
L 312.664987 95.66493 
L 313.836865 95.381069 
L 315.024999 95.102507 
L 316.230224 94.829515 
L 317.453373 94.562366 
L 318.69528 94.301332 
L 319.956779 94.046684 
L 321.238703 93.798693 
L 322.541885 93.557632 
L 323.86716 93.323772 
L 325.215362 93.097385 
L 326.587323 92.878743 
L 327.983878 92.668117 
L 329.40586 92.46578 
L 330.854103 92.272002 
L 332.329441 92.087057 
L 333.832707 91.911215 
L 335.364735 91.744748 
L 336.926359 91.587928 
L 338.518412 91.441026 
L 340.141728 91.304316 
L 341.797141 91.178067 
L 343.485485 91.062552 
L 345.207592 90.958044 
L 346.964297 90.864812 
L 348.756434 90.78313 
L 350.584835 90.713268 
L 352.450336 90.6555 
L 354.353769 90.610096 
L 356.295968 90.577328 
L 358.277767 90.557468 
L 360.3 90.550787 
" clip-path="url(#pfc204cb0b9)" style="fill: none; stroke: #2e86c1; stroke-opacity: 0.55; stroke-width: 0.5; stroke-linecap: square"/>
   </g>
   <g id="line2d_6">
    <path d="M 225.48 312.721112 
L 227.502233 312.714432 
L 229.484032 312.694572 
L 231.426231 312.661804 
L 233.329664 312.616399 
L 235.195165 312.558631 
L 237.023566 312.488769 
L 238.815703 312.407087 
L 240.572408 312.313856 
L 242.294515 312.209347 
L 243.982859 312.093832 
L 245.638272 311.967584 
L 247.261588 311.830873 
L 248.853641 311.683972 
L 250.415265 311.527152 
L 251.947293 311.360685 
L 253.450559 311.184843 
L 254.925897 310.999897 
L 256.37414 310.80612 
L 257.796122 310.603782 
L 259.192677 310.393157 
L 260.564638 310.174514 
L 261.91284 309.948127 
L 263.238115 309.714268 
L 264.541297 309.473206 
L 265.823221 309.225216 
L 267.08472 308.970567 
L 268.326627 308.709533 
L 269.549776 308.442384 
L 270.755001 308.169393 
L 271.943135 307.890831 
L 273.115013 307.60697 
L 274.271468 307.318081 
L 275.413333 307.024437 
L 276.541443 306.726309 
L 277.65663 306.42397 
L 278.75973 306.117689 
L 279.851574 305.807741 
L 280.932997 305.494395 
L 282.004833 305.177924 
L 283.067916 304.858601 
L 284.123078 304.536695 
L 285.171155 304.21248 
L 286.212978 303.886226 
L 287.249383 303.558206 
L 288.281202 303.228692 
L 289.30927 302.897955 
L 290.33442 302.566266 
L 291.357486 302.233898 
L 292.379301 301.901123 
L 293.400699 301.568212 
L 294.422514 301.235437 
L 295.44558 300.903069 
L 296.47073 300.57138 
L 297.498798 300.240643 
L 298.530617 299.911129 
L 299.567022 299.583109 
L 300.608845 299.256855 
L 301.656922 298.93264 
L 302.712084 298.610734 
L 303.775167 298.291411 
L 304.847003 297.97494 
L 305.928426 297.661594 
L 307.02027 297.351646 
L 308.12337 297.045365 
L 309.238557 296.743026 
L 310.366667 296.444898 
L 311.508532 296.151254 
L 312.664987 295.862365 
L 313.836865 295.578504 
L 315.024999 295.299942 
L 316.230224 295.026951 
L 317.453373 294.759802 
L 318.69528 294.498768 
L 319.956779 294.244119 
L 321.238703 293.996129 
L 322.541885 293.755067 
L 323.86716 293.521208 
L 325.215362 293.294821 
L 326.587323 293.076178 
L 327.983878 292.865553 
L 329.40586 292.663215 
L 330.854103 292.469438 
L 332.329441 292.284492 
L 333.832707 292.10865 
L 335.364735 291.942183 
L 336.926359 291.785363 
L 338.518412 291.638462 
L 340.141728 291.501751 
L 341.797141 291.375503 
L 343.485485 291.259988 
L 345.207592 291.155479 
L 346.964297 291.062248 
L 348.756434 290.980566 
L 350.584835 290.910704 
L 352.450336 290.852936 
L 354.353769 290.807531 
L 356.295968 290.774763 
L 358.277767 290.754903 
L 360.3 290.748223 
" clip-path="url(#pfc204cb0b9)" style="fill: none; stroke: #2e86c1; stroke-opacity: 0.55; stroke-width: 0.5; stroke-linecap: square"/>
   </g>
   <g id="line2d_7">
    <path d="M 225.48 96.336981 
L 230.102246 96.325736 
L 234.632072 96.292305 
L 239.071385 96.237145 
L 243.422089 96.160715 
L 247.68609 96.063471 
L 251.865294 95.945871 
L 255.961607 95.808373 
L 259.976933 95.651433 
L 263.913178 95.47551 
L 267.772248 95.28106 
L 271.556049 95.068542 
L 275.266486 94.838412 
L 278.905465 94.591128 
L 282.474891 94.327148 
L 285.976669 94.046929 
L 289.412706 93.750928 
L 292.784907 93.439602 
L 296.095177 93.11341 
L 299.345422 92.772809 
L 302.537547 92.418256 
L 305.673459 92.050208 
L 308.755062 91.669124 
L 311.784262 91.27546 
L 314.762965 90.869673 
L 317.693077 90.452222 
L 320.576502 90.023564 
L 323.415147 89.584156 
L 326.210916 89.134456 
L 328.965716 88.67492 
L 331.681453 88.206008 
L 334.36003 87.728175 
L 337.003356 87.241879 
L 339.613333 86.747578 
L 342.191869 86.24573 
L 344.740869 85.736791 
L 347.262239 85.22122 
L 349.757883 84.699473 
L 352.229708 84.172008 
L 354.679619 83.639282 
L 357.109522 83.101753 
L 359.521322 82.559879 
L 361.916925 82.014117 
L 364.298236 81.464923 
L 366.66716 80.912757 
L 369.025605 80.358074 
L 371.375474 79.801333 
L 373.718674 79.242991 
L 376.05711 78.683505 
L 378.392688 78.123333 
L 380.727312 77.562933 
L 383.06289 77.002761 
L 385.401326 76.443275 
L 387.744526 75.884933 
L 390.094395 75.328192 
L 392.45284 74.773509 
L 394.821764 74.221342 
L 397.203075 73.672149 
L 399.598678 73.126387 
L 402.010478 72.584512 
L 404.440381 72.046984 
L 406.890292 71.514258 
L 409.362117 70.986793 
L 411.857761 70.465046 
L 414.379131 69.949474 
L 416.928131 69.440536 
L 419.506667 68.938687 
L 422.116644 68.444387 
L 424.75997 67.958091 
L 427.438547 67.480258 
L 430.154284 67.011345 
L 432.909084 66.55181 
L 435.704853 66.10211 
L 438.543498 65.662702 
L 441.426923 65.234043 
L 444.357035 64.816592 
L 447.335738 64.410806 
L 450.364938 64.017142 
L 453.446541 63.636057 
L 456.582453 63.26801 
L 459.774578 62.913457 
L 463.024823 62.572855 
L 466.335093 62.246663 
L 469.707294 61.935338 
L 473.143331 61.639337 
L 476.645109 61.359118 
L 480.214535 61.095137 
L 483.853514 60.847854 
L 487.563951 60.617724 
L 491.347752 60.405205 
L 495.206822 60.210756 
L 499.143067 60.034833 
L 503.158393 59.877893 
L 507.254706 59.740394 
L 511.43391 59.622795 
L 515.697911 59.525551 
L 520.048615 59.44912 
L 524.487928 59.393961 
L 529.017754 59.36053 
L 533.64 59.349284 
" clip-path="url(#pfc204cb0b9)" style="fill: none; stroke: #2e86c1; stroke-opacity: 0.55; stroke-width: 0.5; stroke-linecap: square"/>
   </g>
   <g id="line2d_8">
    <path d="M 225.48 110.985574 
L 230.102246 110.974329 
L 234.632072 110.940898 
L 239.071385 110.885738 
L 243.422089 110.809308 
L 247.68609 110.712064 
L 251.865294 110.594464 
L 255.961607 110.456966 
L 259.976933 110.300026 
L 263.913178 110.124103 
L 267.772248 109.929653 
L 271.556049 109.717135 
L 275.266486 109.487005 
L 278.905465 109.239721 
L 282.474891 108.975741 
L 285.976669 108.695521 
L 289.412706 108.39952 
L 292.784907 108.088195 
L 296.095177 107.762003 
L 299.345422 107.421402 
L 302.537547 107.066849 
L 305.673459 106.698801 
L 308.755062 106.317717 
L 311.784262 105.924053 
L 314.762965 105.518266 
L 317.693077 105.100815 
L 320.576502 104.672157 
L 323.415147 104.232749 
L 326.210916 103.783049 
L 328.965716 103.323513 
L 331.681453 102.8546 
L 334.36003 102.376767 
L 337.003356 101.890472 
L 339.613333 101.396171 
L 342.191869 100.894323 
L 344.740869 100.385384 
L 347.262239 99.869813 
L 349.757883 99.348065 
L 352.229708 98.8206 
L 354.679619 98.287875 
L 357.109522 97.750346 
L 359.521322 97.208472 
L 361.916925 96.662709 
L 364.298236 96.113516 
L 366.66716 95.561349 
L 369.025605 95.006667 
L 371.375474 94.449926 
L 373.718674 93.891584 
L 376.05711 93.332098 
L 378.392688 92.771926 
L 380.727312 92.211525 
L 383.06289 91.651354 
L 385.401326 91.091868 
L 387.744526 90.533526 
L 390.094395 89.976785 
L 392.45284 89.422102 
L 394.821764 88.869935 
L 397.203075 88.320742 
L 399.598678 87.774979 
L 402.010478 87.233105 
L 404.440381 86.695576 
L 406.890292 86.162851 
L 409.362117 85.635386 
L 411.857761 85.113639 
L 414.379131 84.598067 
L 416.928131 84.089129 
L 419.506667 83.58728 
L 422.116644 83.092979 
L 424.75997 82.606684 
L 427.438547 82.128851 
L 430.154284 81.659938 
L 432.909084 81.200403 
L 435.704853 80.750702 
L 438.543498 80.311294 
L 441.426923 79.882636 
L 444.357035 79.465185 
L 447.335738 79.059399 
L 450.364938 78.665735 
L 453.446541 78.28465 
L 456.582453 77.916603 
L 459.774578 77.562049 
L 463.024823 77.221448 
L 466.335093 76.895256 
L 469.707294 76.583931 
L 473.143331 76.28793 
L 476.645109 76.007711 
L 480.214535 75.74373 
L 483.853514 75.496447 
L 487.563951 75.266317 
L 491.347752 75.053798 
L 495.206822 74.859349 
L 499.143067 74.683425 
L 503.158393 74.526486 
L 507.254706 74.388987 
L 511.43391 74.271387 
L 515.697911 74.174144 
L 520.048615 74.097713 
L 524.487928 74.042554 
L 529.017754 74.009123 
L 533.64 73.997877 
" clip-path="url(#pfc204cb0b9)" style="fill: none; stroke: #2e86c1; stroke-opacity: 0.55; stroke-width: 0.5; stroke-linecap: square"/>
   </g>
   <g id="line2d_9">
    <path d="M 385.98 144.262294 
L 388.194826 144.271313 
L 390.365368 144.298124 
L 392.492539 144.342361 
L 394.577251 144.403656 
L 396.620418 144.481644 
L 398.622954 144.575957 
L 400.58577 144.686228 
L 402.50978 144.81209 
L 404.395898 144.953177 
L 406.245036 145.109122 
L 408.058107 145.279558 
L 409.836025 145.464117 
L 411.579702 145.662434 
L 413.290052 145.874141 
L 414.967987 146.098871 
L 416.614422 146.336258 
L 418.230268 146.585935 
L 419.816439 146.847534 
L 421.373848 147.12069 
L 422.903408 147.405034 
L 424.406032 147.700201 
L 425.882634 148.005824 
L 427.334126 148.321534 
L 428.761421 148.646967 
L 430.165433 148.981754 
L 431.547074 149.32553 
L 432.907258 149.677926 
L 434.246897 150.038577 
L 435.566906 150.407115 
L 436.868196 150.783174 
L 438.151681 151.166387 
L 439.418275 151.556386 
L 440.668889 151.952806 
L 441.904437 152.355278 
L 443.125833 152.763437 
L 444.333989 153.176915 
L 445.529819 153.595346 
L 446.714235 154.018362 
L 447.888151 154.445598 
L 449.052479 154.876685 
L 450.208133 155.311257 
L 451.356026 155.748948 
L 452.497071 156.18939 
L 453.632181 156.632217 
L 454.762269 157.077062 
L 455.888248 157.523557 
L 457.011031 157.971336 
L 458.131532 158.420033 
L 459.250663 158.869279 
L 460.369337 159.31871 
L 461.488468 159.767956 
L 462.608969 160.216653 
L 463.731752 160.664432 
L 464.857731 161.110927 
L 465.987819 161.555772 
L 467.122929 161.998599 
L 468.263974 162.439041 
L 469.411867 162.876732 
L 470.567521 163.311304 
L 471.731849 163.742391 
L 472.905765 164.169627 
L 474.090181 164.592643 
L 475.286011 165.011074 
L 476.494167 165.424552 
L 477.715563 165.832711 
L 478.951111 166.235184 
L 480.201725 166.631603 
L 481.468319 167.021602 
L 482.751804 167.404815 
L 484.053094 167.780874 
L 485.373103 168.149412 
L 486.712742 168.510063 
L 488.072926 168.862459 
L 489.454567 169.206235 
L 490.858579 169.541022 
L 492.285874 169.866455 
L 493.737366 170.182166 
L 495.213968 170.487788 
L 496.716592 170.782955 
L 498.246152 171.067299 
L 499.803561 171.340455 
L 501.389732 171.602054 
L 503.005578 171.851731 
L 504.652013 172.089118 
L 506.329948 172.313848 
L 508.040298 172.525555 
L 509.783975 172.723872 
L 511.561893 172.908431 
L 513.374964 173.078867 
L 515.224102 173.234812 
L 517.11022 173.375899 
L 519.03423 173.501761 
L 520.997046 173.612032 
L 522.999582 173.706345 
L 525.042749 173.784333 
L 527.127461 173.845628 
L 529.254632 173.889865 
L 531.425174 173.916676 
L 533.64 173.925695 
" clip-path="url(#pfc204cb0b9)" style="fill: none; stroke: #1a7a4a; stroke-opacity: 0.55; stroke-width: 0.5; stroke-linecap: square"/>
   </g>
   <g id="line2d_10">
    <path d="M 385.98 290.748223 
L 388.194826 290.757241 
L 390.365368 290.784053 
L 392.492539 290.828289 
L 394.577251 290.889585 
L 396.620418 290.967573 
L 398.622954 291.061885 
L 400.58577 291.172156 
L 402.50978 291.298019 
L 404.395898 291.439106 
L 406.245036 291.595051 
L 408.058107 291.765486 
L 409.836025 291.950046 
L 411.579702 292.148362 
L 413.290052 292.360069 
L 414.967987 292.5848 
L 416.614422 292.822187 
L 418.230268 293.071863 
L 419.816439 293.333463 
L 421.373848 293.606618 
L 422.903408 293.890963 
L 424.406032 294.18613 
L 425.882634 294.491752 
L 427.334126 294.807463 
L 428.761421 295.132896 
L 430.165433 295.467683 
L 431.547074 295.811458 
L 432.907258 296.163855 
L 434.246897 296.524506 
L 435.566906 296.893044 
L 436.868196 297.269103 
L 438.151681 297.652315 
L 439.418275 298.042315 
L 440.668889 298.438734 
L 441.904437 298.841207 
L 443.125833 299.249365 
L 444.333989 299.662844 
L 445.529819 300.081274 
L 446.714235 300.504291 
L 447.888151 300.931526 
L 449.052479 301.362614 
L 450.208133 301.797186 
L 451.356026 302.234877 
L 452.497071 302.675319 
L 453.632181 303.118146 
L 454.762269 303.56299 
L 455.888248 304.009486 
L 457.011031 304.457265 
L 458.131532 304.905961 
L 459.250663 305.355208 
L 460.369337 305.804638 
L 461.488468 306.253885 
L 462.608969 306.702581 
L 463.731752 307.150361 
L 464.857731 307.596856 
L 465.987819 308.041701 
L 467.122929 308.484527 
L 468.263974 308.924969 
L 469.411867 309.36266 
L 470.567521 309.797233 
L 471.731849 310.22832 
L 472.905765 310.655555 
L 474.090181 311.078572 
L 475.286011 311.497003 
L 476.494167 311.910481 
L 477.715563 312.31864 
L 478.951111 312.721112 
L 480.201725 313.117532 
L 481.468319 313.507531 
L 482.751804 313.890743 
L 484.053094 314.266802 
L 485.373103 314.63534 
L 486.712742 314.995991 
L 488.072926 315.348388 
L 489.454567 315.692163 
L 490.858579 316.026951 
L 492.285874 316.352383 
L 493.737366 316.668094 
L 495.213968 316.973716 
L 496.716592 317.268883 
L 498.246152 317.553228 
L 499.803561 317.826383 
L 501.389732 318.087983 
L 503.005578 318.337659 
L 504.652013 318.575046 
L 506.329948 318.799777 
L 508.040298 319.011484 
L 509.783975 319.2098 
L 511.561893 319.39436 
L 513.374964 319.564796 
L 515.224102 319.72074 
L 517.11022 319.861827 
L 519.03423 319.98769 
L 520.997046 320.097961 
L 522.999582 320.192274 
L 525.042749 320.270261 
L 527.127461 320.331557 
L 529.254632 320.375794 
L 531.425174 320.402605 
L 533.64 320.411623 
" clip-path="url(#pfc204cb0b9)" style="fill: none; stroke: #1a7a4a; stroke-opacity: 0.55; stroke-width: 0.5; stroke-linecap: square"/>
   </g>
   <g id="line2d_11">
    <path d="M 385.98 113.427006 
L 388.194826 113.434934 
L 390.365368 113.458501 
L 392.492539 113.497386 
L 394.577251 113.551265 
L 396.620418 113.619818 
L 398.622954 113.70272 
L 400.58577 113.799649 
L 402.50978 113.910284 
L 404.395898 114.034301 
L 406.245036 114.171378 
L 408.058107 114.321193 
L 409.836025 114.483424 
L 411.579702 114.657746 
L 413.290052 114.843839 
L 414.967987 115.04138 
L 416.614422 115.250046 
L 418.230268 115.469515 
L 419.816439 115.699464 
L 421.373848 115.939571 
L 422.903408 116.189514 
L 424.406032 116.448969 
L 425.882634 116.717615 
L 427.334126 116.995129 
L 428.761421 117.281188 
L 430.165433 117.57547 
L 431.547074 117.877653 
L 432.907258 118.187414 
L 434.246897 118.50443 
L 435.566906 118.82838 
L 436.868196 119.15894 
L 438.151681 119.495789 
L 439.418275 119.838603 
L 440.668889 120.187061 
L 441.904437 120.540839 
L 443.125833 120.899616 
L 444.333989 121.263068 
L 445.529819 121.630874 
L 446.714235 122.002711 
L 447.888151 122.378256 
L 449.052479 122.757187 
L 450.208133 123.139181 
L 451.356026 123.523917 
L 452.497071 123.911071 
L 453.632181 124.300321 
L 454.762269 124.691345 
L 455.888248 125.08382 
L 457.011031 125.477423 
L 458.131532 125.871833 
L 459.250663 126.266727 
L 460.369337 126.661781 
L 461.488468 127.056675 
L 462.608969 127.451084 
L 463.731752 127.844688 
L 464.857731 128.237163 
L 465.987819 128.628187 
L 467.122929 129.017437 
L 468.263974 129.404591 
L 469.411867 129.789327 
L 470.567521 130.171321 
L 471.731849 130.550252 
L 472.905765 130.925797 
L 474.090181 131.297634 
L 475.286011 131.66544 
L 476.494167 132.028892 
L 477.715563 132.387669 
L 478.951111 132.741447 
L 480.201725 133.089905 
L 481.468319 133.432719 
L 482.751804 133.769568 
L 484.053094 134.100128 
L 485.373103 134.424078 
L 486.712742 134.741094 
L 488.072926 135.050855 
L 489.454567 135.353038 
L 490.858579 135.64732 
L 492.285874 135.933379 
L 493.737366 136.210893 
L 495.213968 136.479539 
L 496.716592 136.738994 
L 498.246152 136.988937 
L 499.803561 137.229044 
L 501.389732 137.458993 
L 503.005578 137.678462 
L 504.652013 137.887128 
L 506.329948 138.084669 
L 508.040298 138.270762 
L 509.783975 138.445084 
L 511.561893 138.607315 
L 513.374964 138.757129 
L 515.224102 138.894207 
L 517.11022 139.018224 
L 519.03423 139.128859 
L 520.997046 139.225788 
L 522.999582 139.30869 
L 525.042749 139.377243 
L 527.127461 139.431122 
L 529.254632 139.470007 
L 531.425174 139.493574 
L 533.64 139.501502 
" clip-path="url(#pfc204cb0b9)" style="fill: none; stroke: #1a7a4a; stroke-opacity: 0.55; stroke-width: 0.5; stroke-linecap: square"/>
   </g>
   <g id="line2d_12">
    <path d="M 385.98 142.724192 
L 388.194826 142.732119 
L 390.365368 142.755687 
L 392.492539 142.794571 
L 394.577251 142.848451 
L 396.620418 142.917003 
L 398.622954 142.999905 
L 400.58577 143.096835 
L 402.50978 143.20747 
L 404.395898 143.331487 
L 406.245036 143.468564 
L 408.058107 143.618379 
L 409.836025 143.780609 
L 411.579702 143.954932 
L 413.290052 144.141025 
L 414.967987 144.338566 
L 416.614422 144.547232 
L 418.230268 144.766701 
L 419.816439 144.99665 
L 421.373848 145.236757 
L 422.903408 145.486699 
L 424.406032 145.746155 
L 425.882634 146.0148 
L 427.334126 146.292314 
L 428.761421 146.578373 
L 430.165433 146.872656 
L 431.547074 147.174839 
L 432.907258 147.4846 
L 434.246897 147.801616 
L 435.566906 148.125566 
L 436.868196 148.456126 
L 438.151681 148.792975 
L 439.418275 149.135789 
L 440.668889 149.484246 
L 441.904437 149.838025 
L 443.125833 150.196801 
L 444.333989 150.560254 
L 445.529819 150.92806 
L 446.714235 151.299896 
L 447.888151 151.675441 
L 449.052479 152.054372 
L 450.208133 152.436367 
L 451.356026 152.821103 
L 452.497071 153.208257 
L 453.632181 153.597507 
L 454.762269 153.988531 
L 455.888248 154.381006 
L 457.011031 154.774609 
L 458.131532 155.169019 
L 459.250663 155.563912 
L 460.369337 155.958967 
L 461.488468 156.35386 
L 462.608969 156.74827 
L 463.731752 157.141874 
L 464.857731 157.534349 
L 465.987819 157.925372 
L 467.122929 158.314623 
L 468.263974 158.701777 
L 469.411867 159.086512 
L 470.567521 159.468507 
L 471.731849 159.847438 
L 472.905765 160.222983 
L 474.090181 160.59482 
L 475.286011 160.962626 
L 476.494167 161.326078 
L 477.715563 161.684855 
L 478.951111 162.038633 
L 480.201725 162.387091 
L 481.468319 162.729905 
L 482.751804 163.066753 
L 484.053094 163.397314 
L 485.373103 163.721263 
L 486.712742 164.03828 
L 488.072926 164.348041 
L 489.454567 164.650224 
L 490.858579 164.944506 
L 492.285874 165.230565 
L 493.737366 165.508079 
L 495.213968 165.776725 
L 496.716592 166.03618 
L 498.246152 166.286122 
L 499.803561 166.526229 
L 501.389732 166.756179 
L 503.005578 166.975647 
L 504.652013 167.184314 
L 506.329948 167.381854 
L 508.040298 167.567947 
L 509.783975 167.74227 
L 511.561893 167.9045 
L 513.374964 168.054315 
L 515.224102 168.191393 
L 517.11022 168.31541 
L 519.03423 168.426044 
L 520.997046 168.522974 
L 522.999582 168.605876 
L 525.042749 168.674428 
L 527.127461 168.728308 
L 529.254632 168.767193 
L 531.425174 168.79076 
L 533.64 168.798687 
" clip-path="url(#pfc204cb0b9)" style="fill: none; stroke: #1a7a4a; stroke-opacity: 0.55; stroke-width: 0.5; stroke-linecap: square"/>
   </g>
   <g id="line2d_13">
    <path d="M 385.98 87.474583 
L 388.194826 87.481419 
L 390.365368 87.501742 
L 392.492539 87.535275 
L 394.577251 87.581739 
L 396.620418 87.640855 
L 398.622954 87.712347 
L 400.58577 87.795935 
L 402.50978 87.891342 
L 404.395898 87.998289 
L 406.245036 88.116499 
L 408.058107 88.245693 
L 409.836025 88.385594 
L 411.579702 88.535923 
L 413.290052 88.696402 
L 414.967987 88.866753 
L 416.614422 89.046698 
L 418.230268 89.23596 
L 419.816439 89.434258 
L 421.373848 89.641317 
L 422.903408 89.856857 
L 424.406032 90.080601 
L 425.882634 90.31227 
L 427.334126 90.551587 
L 428.761421 90.798273 
L 430.165433 91.05205 
L 431.547074 91.31264 
L 432.907258 91.579765 
L 434.246897 91.853148 
L 435.566906 92.132509 
L 436.868196 92.417571 
L 438.151681 92.708055 
L 439.418275 93.003684 
L 440.668889 93.30418 
L 441.904437 93.609264 
L 443.125833 93.918659 
L 444.333989 94.232085 
L 445.529819 94.549266 
L 446.714235 94.869923 
L 447.888151 95.193778 
L 449.052479 95.520553 
L 450.208133 95.84997 
L 451.356026 96.18175 
L 452.497071 96.515616 
L 453.632181 96.85129 
L 454.762269 97.188493 
L 455.888248 97.526947 
L 457.011031 97.866375 
L 458.131532 98.206498 
L 459.250663 98.547038 
L 460.369337 98.887717 
L 461.488468 99.228257 
L 462.608969 99.56838 
L 463.731752 99.907808 
L 464.857731 100.246263 
L 465.987819 100.583466 
L 467.122929 100.919139 
L 468.263974 101.253005 
L 469.411867 101.584786 
L 470.567521 101.914202 
L 471.731849 102.240977 
L 472.905765 102.564832 
L 474.090181 102.885489 
L 475.286011 103.20267 
L 476.494167 103.516097 
L 477.715563 103.825491 
L 478.951111 104.130575 
L 480.201725 104.431071 
L 481.468319 104.7267 
L 482.751804 105.017185 
L 484.053094 105.302247 
L 485.373103 105.581608 
L 486.712742 105.85499 
L 488.072926 106.122115 
L 489.454567 106.382705 
L 490.858579 106.636482 
L 492.285874 106.883168 
L 493.737366 107.122485 
L 495.213968 107.354154 
L 496.716592 107.577898 
L 498.246152 107.793438 
L 499.803561 108.000497 
L 501.389732 108.198796 
L 503.005578 108.388057 
L 504.652013 108.568002 
L 506.329948 108.738353 
L 508.040298 108.898832 
L 509.783975 109.049161 
L 511.561893 109.189062 
L 513.374964 109.318256 
L 515.224102 109.436466 
L 517.11022 109.543414 
L 519.03423 109.638821 
L 520.997046 109.722409 
L 522.999582 109.7939 
L 525.042749 109.853017 
L 527.127461 109.89948 
L 529.254632 109.933013 
L 531.425174 109.953336 
L 533.64 109.960173 
" clip-path="url(#pfc204cb0b9)" style="fill: none; stroke: #1a7a4a; stroke-opacity: 0.55; stroke-width: 0.5; stroke-linecap: square"/>
   </g>
   <g id="line2d_14">
    <path d="M 385.98 111.888904 
L 388.194826 111.89574 
L 390.365368 111.916064 
L 392.492539 111.949596 
L 394.577251 111.99606 
L 396.620418 112.055177 
L 398.622954 112.126668 
L 400.58577 112.210256 
L 402.50978 112.305663 
L 404.395898 112.412611 
L 406.245036 112.53082 
L 408.058107 112.660015 
L 409.836025 112.799916 
L 411.579702 112.950244 
L 413.290052 113.110724 
L 414.967987 113.281075 
L 416.614422 113.46102 
L 418.230268 113.650281 
L 419.816439 113.84858 
L 421.373848 114.055638 
L 422.903408 114.271179 
L 424.406032 114.494922 
L 425.882634 114.726592 
L 427.334126 114.965908 
L 428.761421 115.212594 
L 430.165433 115.466371 
L 431.547074 115.726962 
L 432.907258 115.994087 
L 434.246897 116.267469 
L 435.566906 116.54683 
L 436.868196 116.831892 
L 438.151681 117.122377 
L 439.418275 117.418006 
L 440.668889 117.718501 
L 441.904437 118.023586 
L 443.125833 118.33298 
L 444.333989 118.646407 
L 445.529819 118.963588 
L 446.714235 119.284245 
L 447.888151 119.608099 
L 449.052479 119.934874 
L 450.208133 120.264291 
L 451.356026 120.596071 
L 452.497071 120.929937 
L 453.632181 121.265611 
L 454.762269 121.602814 
L 455.888248 121.941269 
L 457.011031 122.280696 
L 458.131532 122.620819 
L 459.250663 122.96136 
L 460.369337 123.302039 
L 461.488468 123.642579 
L 462.608969 123.982702 
L 463.731752 124.32213 
L 464.857731 124.660584 
L 465.987819 124.997787 
L 467.122929 125.333461 
L 468.263974 125.667327 
L 469.411867 125.999107 
L 470.567521 126.328524 
L 471.731849 126.655299 
L 472.905765 126.979154 
L 474.090181 127.299811 
L 475.286011 127.616991 
L 476.494167 127.930418 
L 477.715563 128.239813 
L 478.951111 128.544897 
L 480.201725 128.845392 
L 481.468319 129.141022 
L 482.751804 129.431506 
L 484.053094 129.716568 
L 485.373103 129.995929 
L 486.712742 130.269311 
L 488.072926 130.536437 
L 489.454567 130.797027 
L 490.858579 131.050804 
L 492.285874 131.29749 
L 493.737366 131.536806 
L 495.213968 131.768476 
L 496.716592 131.99222 
L 498.246152 132.20776 
L 499.803561 132.414818 
L 501.389732 132.613117 
L 503.005578 132.802378 
L 504.652013 132.982323 
L 506.329948 133.152675 
L 508.040298 133.313154 
L 509.783975 133.463483 
L 511.561893 133.603383 
L 513.374964 133.732578 
L 515.224102 133.850788 
L 517.11022 133.957735 
L 519.03423 134.053142 
L 520.997046 134.13673 
L 522.999582 134.208222 
L 525.042749 134.267338 
L 527.127461 134.313802 
L 529.254632 134.347334 
L 531.425174 134.367658 
L 533.64 134.374494 
" clip-path="url(#pfc204cb0b9)" style="fill: none; stroke: #1a7a4a; stroke-opacity: 0.55; stroke-width: 0.5; stroke-linecap: square"/>
   </g>
   <g id="patch_9">
    <path d="M 39.3 328.395106 
L 64.98 328.395106 
Q 66.906 328.395106 66.906 327.369705 
L 66.906 53.929305 
Q 66.906 52.903904 64.98 52.903904 
L 39.3 52.903904 
Q 37.374 52.903904 37.374 53.929305 
L 37.374 327.369705 
Q 37.374 328.395106 39.3 328.395106 
z
" clip-path="url(#pfc204cb0b9)" style="fill: #0f4d92"/>
   </g>
   <g id="patch_10">
    <path d="M 199.8 313.746514 
L 225.48 313.746514 
Q 227.406 313.746514 227.406 312.721112 
L 227.406 68.577898 
Q 227.406 67.552496 225.48 67.552496 
L 199.8 67.552496 
Q 197.874 67.552496 197.874 68.577898 
L 197.874 312.721112 
Q 197.874 313.746514 199.8 313.746514 
z
" clip-path="url(#pfc204cb0b9)" style="fill: #2e86c1"/>
   </g>
   <g id="patch_11">
    <path d="M 360.3 291.773624 
L 385.98 291.773624 
Q 387.906 291.773624 387.906 290.748223 
L 387.906 90.550787 
Q 387.906 89.525386 385.98 89.525386 
L 360.3 89.525386 
Q 358.374 89.525386 358.374 90.550787 
L 358.374 290.748223 
Q 358.374 291.773624 360.3 291.773624 
z
" clip-path="url(#pfc204cb0b9)" style="fill: #1a7a4a"/>
   </g>
   <g id="patch_12">
    <path d="M 533.64 321.437025 
L 559.32 321.437025 
Q 561.246 321.437025 561.246 320.411623 
L 561.246 173.925695 
Q 561.246 172.900293 559.32 172.900293 
L 533.64 172.900293 
Q 531.714 172.900293 531.714 173.925695 
L 531.714 320.411623 
Q 531.714 321.437025 533.64 321.437025 
z
" clip-path="url(#pfc204cb0b9)" style="fill: #117a65"/>
   </g>
   <g id="patch_13">
    <path d="M 533.64 169.824089 
L 559.32 169.824089 
Q 561.246 169.824089 561.246 168.798687 
L 561.246 139.501502 
Q 561.246 138.4761 559.32 138.4761 
L 533.64 138.4761 
Q 531.714 138.4761 531.714 139.501502 
L 531.714 168.798687 
Q 531.714 169.824089 533.64 169.824089 
z
" clip-path="url(#pfc204cb0b9)" style="fill: #1e8449"/>
   </g>
   <g id="patch_14">
    <path d="M 533.64 135.399896 
L 559.32 135.399896 
Q 561.246 135.399896 561.246 134.374494 
L 561.246 109.960173 
Q 561.246 108.934771 559.32 108.934771 
L 533.64 108.934771 
Q 531.714 108.934771 531.714 109.960173 
L 531.714 134.374494 
Q 531.714 135.399896 533.64 135.399896 
z
" clip-path="url(#pfc204cb0b9)" style="fill: #27ae60"/>
   </g>
   <g id="patch_15">
    <path d="M 533.64 105.858567 
L 559.32 105.858567 
Q 561.246 105.858567 561.246 104.833165 
L 561.246 60.887387 
Q 561.246 59.861985 559.32 59.861985 
L 533.64 59.861985 
Q 531.714 59.861985 531.714 60.887387 
L 531.714 104.833165 
Q 531.714 105.858567 533.64 105.858567 
z
" clip-path="url(#pfc204cb0b9)" style="fill: #c0392b"/>
   </g>
   <g id="text_1">
    <text style="font-style: italic; font-size: 8px; font-family: 'Arial', 'Helvetica', 'DejaVu Sans', 'Liberation Sans', sans-serif; text-anchor: middle; fill: #666666" x="52.14" y="39.147525" transform="rotate(-0 52.14 39.147525)">Ingestion</text>
   </g>
   <g id="text_2">
    <text style="font-style: italic; font-size: 8px; font-family: 'Arial', 'Helvetica', 'DejaVu Sans', 'Liberation Sans', sans-serif; text-anchor: middle; fill: #666666" x="212.64" y="39.245025" transform="rotate(-0 212.64 39.245025)">Cleaning</text>
   </g>
   <g id="text_3">
    <text style="font-style: italic; font-size: 8px; font-family: 'Arial', 'Helvetica', 'DejaVu Sans', 'Liberation Sans', sans-serif; text-anchor: middle; fill: #666666" x="373.14" y="39.147525" transform="rotate(-0 373.14 39.147525)">Filtering</text>
   </g>
   <g id="text_4">
    <text style="font-style: italic; font-size: 8px; font-family: 'Arial', 'Helvetica', 'DejaVu Sans', 'Liberation Sans', sans-serif; text-anchor: middle; fill: #666666" x="546.48" y="39.245025" transform="rotate(-0 546.48 39.245025)">Split</text>
   </g>
   <g id="text_5">
    <text style="font-weight: 700; font-size: 10px; font-family: 'Arial', 'Helvetica', 'DejaVu Sans', 'Liberation Sans', sans-serif; text-anchor: middle; fill: #222222" x="328.2" y="14.357813" transform="rotate(-0 328.2 14.357813)">Dataset Preparation Flow</text>
   </g>
   <g id="text_6">
    <text style="font-weight: 700; font-size: 8px; font-family: 'Arial', 'Helvetica', 'DejaVu Sans', 'Liberation Sans', sans-serif; text-anchor: middle; fill: #ffffff" x="52.14" y="192.723255" transform="rotate(-0 52.14 192.723255)">Raw</text>
   </g>
   <g id="text_7">
    <text style="font-size: 7.5px; font-family: 'Arial', 'Helvetica', 'DejaVu Sans', 'Liberation Sans', sans-serif; text-anchor: start; fill: #444444" x="72.684" y="192.588372" transform="rotate(-0 72.684 192.588372)">1,120</text>
   </g>
   <g id="text_8">
    <text style="font-weight: 700; font-size: 8px; font-family: 'Arial', 'Helvetica', 'DejaVu Sans', 'Liberation Sans', sans-serif; text-anchor: middle; fill: #ffffff" x="212.64" y="192.723255" transform="rotate(-0 212.64 192.723255)">Cleaned</text>
   </g>
   <g id="text_9">
    <text style="font-size: 7.5px; font-family: 'Arial', 'Helvetica', 'DejaVu Sans', 'Liberation Sans', sans-serif; text-anchor: start; fill: #444444" x="233.184" y="192.588372" transform="rotate(-0 233.184 192.588372)">1,000</text>
   </g>
   <g id="text_10">
    <text style="font-weight: 700; font-size: 8px; font-family: 'Arial', 'Helvetica', 'DejaVu Sans', 'Liberation Sans', sans-serif; text-anchor: middle; fill: #ffffff" x="373.14" y="192.723255" transform="rotate(-0 373.14 192.723255)">Filtered</text>
   </g>
   <g id="text_11">
    <text style="font-size: 7.5px; font-family: 'Arial', 'Helvetica', 'DejaVu Sans', 'Liberation Sans', sans-serif; text-anchor: start; fill: #444444" x="393.684" y="192.588372" transform="rotate(-0 393.684 192.588372)">820</text>
   </g>
   <g id="text_12">
    <text style="font-weight: 700; font-size: 8px; font-family: 'Arial', 'Helvetica', 'DejaVu Sans', 'Liberation Sans', sans-serif; text-anchor: middle; fill: #ffffff" x="546.48" y="249.242409" transform="rotate(-0 546.48 249.242409)">Train</text>
   </g>
   <g id="text_13">
    <text style="font-size: 7.5px; font-family: 'Arial', 'Helvetica', 'DejaVu Sans', 'Liberation Sans', sans-serif; text-anchor: start; fill: #444444" x="567.024" y="249.107526" transform="rotate(-0 567.024 249.107526)">600</text>
   </g>
   <g id="text_14">
    <text style="font-weight: 700; font-size: 8px; font-family: 'Arial', 'Helvetica', 'DejaVu Sans', 'Liberation Sans', sans-serif; text-anchor: middle; fill: #ffffff" x="546.48" y="156.223844" transform="rotate(-0 546.48 156.223844)">Val</text>
   </g>
   <g id="text_15">
    <text style="font-size: 7.5px; font-family: 'Arial', 'Helvetica', 'DejaVu Sans', 'Liberation Sans', sans-serif; text-anchor: start; fill: #444444" x="567.024" y="156.088962" transform="rotate(-0 567.024 156.088962)">120</text>
   </g>
   <g id="text_16">
    <text style="font-weight: 700; font-size: 8px; font-family: 'Arial', 'Helvetica', 'DejaVu Sans', 'Liberation Sans', sans-serif; text-anchor: middle; fill: #ffffff" x="546.48" y="124.241083" transform="rotate(-0 546.48 124.241083)">Test</text>
   </g>
   <g id="text_17">
    <text style="font-size: 7.5px; font-family: 'Arial', 'Helvetica', 'DejaVu Sans', 'Liberation Sans', sans-serif; text-anchor: start; fill: #444444" x="567.024" y="124.106201" transform="rotate(-0 567.024 124.106201)">100</text>
   </g>
   <g id="text_18">
    <text style="font-weight: 700; font-size: 8px; font-family: 'Arial', 'Helvetica', 'DejaVu Sans', 'Liberation Sans', sans-serif; text-anchor: middle; fill: #ffffff" x="546.48" y="84.881526" transform="rotate(-0 546.48 84.881526)">Reject</text>
   </g>
   <g id="text_19">
    <text style="font-size: 7.5px; font-family: 'Arial', 'Helvetica', 'DejaVu Sans', 'Liberation Sans', sans-serif; text-anchor: start; fill: #444444" x="567.024" y="84.799143" transform="rotate(-0 567.024 84.799143)">180</text>
   </g>
  </g>
 </g>
 <defs>
  <clipPath id="pfc204cb0b9">
   <rect x="7.2" y="19.749255" width="642" height="341.8005"/>
  </clipPath>
 </defs>
</svg>
