<?xml version="1.0" encoding="utf-8" standalone="no"?>
<!DOCTYPE svg PUBLIC "-//W3C//DTD SVG 1.1//EN"
  "http://www.w3.org/Graphics/SVG/1.1/DTD/svg11.dtd">
<svg xmlns:xlink="http://www.w3.org/1999/xlink" width="640.8pt" height="300.814401pt" viewBox="0 0 640.8 300.814401" xmlns="http://www.w3.org/2000/svg" version="1.1">
 <metadata>
  <rdf:RDF xmlns:dc="http://purl.org/dc/elements/1.1/" xmlns:cc="http://creativecommons.org/ns#" xmlns:rdf="http://www.w3.org/1999/02/22-rdf-syntax-ns#">
   <cc:Work>
    <dc:type rdf:resource="http://purl.org/dc/dcmitype/StillImage"/>
    <dc:date>2026-05-25T00:40:06.608682</dc:date>
    <dc:format>image/svg+xml</dc:format>
    <dc:creator>
     <cc:Agent>
      <dc:title>Matplotlib v3.10.9, https://matplotlib.org/</dc:title>
     </cc:Agent>
    </dc:creator>
   </cc:Work>
  </rdf:RDF>
 </metadata>
 <defs>
  <style type="text/css">*{stroke-linejoin: round; stroke-linecap: butt}</style>
 </defs>
 <g id="figure_1">
  <g id="patch_1">
   <path d="M 0 300.814401 
L 640.8 300.814401 
L 640.8 0 
L 0 0 
z
" style="fill: #ffffff"/>
  </g>
  <g id="axes_1">
   <g id="patch_2">
    <path d="M 145.008 234.990609 
L 345.456 234.990609 
Q 357.984 234.990609 357.984 229.792793 
L 357.984 84.253945 
Q 357.984 79.056129 345.456 79.056129 
L 145.008 79.056129 
Q 132.48 79.056129 132.48 84.253945 
L 132.48 229.792793 
Q 132.48 234.990609 145.008 234.990609 
z
" clip-path="url(#pf6688c7a9c)" style="fill: #d6eaf8; stroke-dasharray: 5.55,2.4; stroke-dashoffset: 0; stroke: #2e86c1; stroke-width: 1.5; stroke-linejoin: miter"/>
   </g>
   <g id="patch_3">
    <path d="M 314.136 234.990609 
L 514.584 234.990609 
Q 527.112 234.990609 527.112 229.792793 
L 527.112 84.253945 
Q 527.112 79.056129 514.584 79.056129 
L 314.136 79.056129 
Q 301.608 79.056129 301.608 84.253945 
L 301.608 229.792793 
Q 301.608 234.990609 314.136 234.990609 
z
" clip-path="url(#pf6688c7a9c)" style="fill: #d5f5e3; stroke-dasharray: 5.55,2.4; stroke-dashoffset: 0; stroke: #1e8449; stroke-width: 1.5; stroke-linejoin: miter"/>
   </g>
   <g id="patch_4">
    <path d="M 146.948678 141.565142 
Q 163.797892 137.532063 178.907396 133.915407 
" style="fill: none; stroke: #2c3e50; stroke-width: 1.6; stroke-linecap: round"/>
    <path d="M 172.809437 132.495937 
L 178.907396 133.915407 
L 174.113045 137.942092 
z
" style="fill: #2c3e50; stroke: #2c3e50; stroke-width: 1.6; stroke-linecap: round"/>
   </g>
   <g id="patch_5">
    <path d="M 245.232 138.234584 
Q 245.232 157.026893 245.232 174.030349 
" style="fill: none; stroke: #2c3e50; stroke-width: 1.6; stroke-linecap: round"/>
    <path d="M 248.032 168.430349 
L 245.232 174.030349 
L 242.432 168.430349 
z
" style="fill: #2c3e50; stroke: #2c3e50; stroke-width: 1.6; stroke-linecap: round"/>
   </g>
   <g id="patch_6">
    <path d="M 309.871173 118.039749 
Q 329.795598 118.039749 347.931168 118.039749 
" style="fill: none; stroke: #2c3e50; stroke-width: 1.6; stroke-linecap: round"/>
    <path d="M 342.331168 115.239749 
L 347.931168 118.039749 
L 342.331168 120.839749 
z
" style="fill: #2c3e50; stroke: #2c3e50; stroke-width: 1.6; stroke-linecap: round"/>
   </g>
   <g id="patch_7">
    <path d="M 414.36 138.234584 
Q 414.36 157.026893 414.36 174.030349 
" style="fill: none; stroke: #2c3e50; stroke-width: 1.6; stroke-linecap: round"/>
    <path d="M 417.16 168.430349 
L 414.36 174.030349 
L 411.56 168.430349 
z
" style="fill: #2c3e50; stroke: #2c3e50; stroke-width: 1.6; stroke-linecap: round"/>
   </g>
   <g id="patch_8">
    <path d="M 478.931502 135.511783 
Q 486.396471 137.531686 492.134682 139.084356 
" style="fill: none; stroke: #2c3e50; stroke-width: 1.6; stroke-linecap: round"/>
    <path d="M 487.460411 134.91888 
L 492.134682 139.084356 
L 485.997739 140.324487 
z
" style="fill: #2c3e50; stroke: #2c3e50; stroke-width: 1.6; stroke-linecap: round"/>
   </g>
   <g id="patch_9">
    <path d="M 413.24285 176.152245 
Q 400.922264 157.021814 412.457787 139.113278 
" style="fill: none; stroke-dasharray: 4.81,2.08; stroke-dashoffset: 0; stroke: #7f8c8d; stroke-width: 1.3; stroke-linecap: round"/>
    <path d="M 407.840847 141.848944 
L 412.457787 139.113278 
L 411.876156 144.448229 
z
" style="fill: #7f8c8d; stroke-dasharray: 4.81,2.08; stroke-dashoffset: 0; stroke: #7f8c8d; stroke-width: 1.3; stroke-linecap: round"/>
   </g>
   <g id="text_1">
    <!-- RetroDiff — System Architecture -->
    <g transform="translate(200.903594 17.077969) scale(0.13 -0.13)">
     <defs>
      <path id="DejaVuSans-Bold-52" d="M 2297 2597 
Q 2675 2597 2839 2737 
Q 3003 2878 3003 3200 
Q 3003 3519 2839 3656 
Q 2675 3794 2297 3794 
L 1791 3794 
L 1791 2597 
L 2297 2597 
z
M 1791 1766 
L 1791 0 
L 588 0 
L 588 4666 
L 2425 4666 
Q 3347 4666 3776 4356 
Q 4206 4047 4206 3378 
Q 4206 2916 3982 2619 
Q 3759 2322 3309 2181 
Q 3556 2125 3751 1926 
Q 3947 1728 4147 1325 
L 4800 0 
L 3519 0 
L 2950 1159 
Q 2778 1509 2601 1637 
Q 2425 1766 2131 1766 
L 1791 1766 
z
" transform="scale(0.015625)"/>
      <path id="DejaVuSans-Bold-65" d="M 4031 1759 
L 4031 1441 
L 1416 1441 
Q 1456 1047 1700 850 
Q 1944 653 2381 653 
Q 2734 653 3104 758 
Q 3475 863 3866 1075 
L 3866 213 
Q 3469 63 3072 -14 
Q 2675 -91 2278 -91 
Q 1328 -91 801 392 
Q 275 875 275 1747 
Q 275 2603 792 3093 
Q 1309 3584 2216 3584 
Q 3041 3584 3536 3087 
Q 4031 2591 4031 1759 
z
M 2881 2131 
Q 2881 2450 2695 2645 
Q 2509 2841 2209 2841 
Q 1884 2841 1681 2658 
Q 1478 2475 1428 2131 
L 2881 2131 
z
" transform="scale(0.015625)"/>
      <path id="DejaVuSans-Bold-74" d="M 1759 4494 
L 1759 3500 
L 2913 3500 
L 2913 2700 
L 1759 2700 
L 1759 1216 
Q 1759 972 1856 886 
Q 1953 800 2241 800 
L 2816 800 
L 2816 0 
L 1856 0 
Q 1194 0 917 276 
Q 641 553 641 1216 
L 641 2700 
L 84 2700 
L 84 3500 
L 641 3500 
L 641 4494 
L 1759 4494 
z
" transform="scale(0.015625)"/>
      <path id="DejaVuSans-Bold-72" d="M 3138 2547 
Q 2991 2616 2845 2648 
Q 2700 2681 2553 2681 
Q 2122 2681 1889 2404 
Q 1656 2128 1656 1613 
L 1656 0 
L 538 0 
L 538 3500 
L 1656 3500 
L 1656 2925 
Q 1872 3269 2151 3426 
Q 2431 3584 2822 3584 
Q 2878 3584 2943 3579 
Q 3009 3575 3134 3559 
L 3138 2547 
z
" transform="scale(0.015625)"/>
      <path id="DejaVuSans-Bold-6f" d="M 2203 2784 
Q 1831 2784 1636 2517 
Q 1441 2250 1441 1747 
Q 1441 1244 1636 976 
Q 1831 709 2203 709 
Q 2569 709 2762 976 
Q 2956 1244 2956 1747 
Q 2956 2250 2762 2517 
Q 2569 2784 2203 2784 
z
M 2203 3584 
Q 3106 3584 3614 3096 
Q 4122 2609 4122 1747 
Q 4122 884 3614 396 
Q 3106 -91 2203 -91 
Q 1297 -91 786 396 
Q 275 884 275 1747 
Q 275 2609 786 3096 
Q 1297 3584 2203 3584 
z
" transform="scale(0.015625)"/>
      <path id="DejaVuSans-Bold-44" d="M 1791 3756 
L 1791 909 
L 2222 909 
Q 2959 909 3348 1275 
Q 3738 1641 3738 2338 
Q 3738 3031 3350 3393 
Q 2963 3756 2222 3756 
L 1791 3756 
z
M 588 4666 
L 1856 4666 
Q 2919 4666 3439 4514 
Q 3959 4363 4331 4000 
Q 4659 3684 4818 3271 
Q 4978 2859 4978 2338 
Q 4978 1809 4818 1395 
Q 4659 981 4331 666 
Q 3956 303 3431 151 
Q 2906 0 1856 0 
L 588 0 
L 588 4666 
z
" transform="scale(0.015625)"/>
      <path id="DejaVuSans-Bold-69" d="M 538 3500 
L 1656 3500 
L 1656 0 
L 538 0 
L 538 3500 
z
M 538 4863 
L 1656 4863 
L 1656 3950 
L 538 3950 
L 538 4863 
z
" transform="scale(0.015625)"/>
      <path id="DejaVuSans-Bold-66" d="M 2841 4863 
L 2841 4128 
L 2222 4128 
Q 1984 4128 1890 4042 
Q 1797 3956 1797 3744 
L 1797 3500 
L 2753 3500 
L 2753 2700 
L 1797 2700 
L 1797 0 
L 678 0 
L 678 2700 
L 122 2700 
L 122 3500 
L 678 3500 
L 678 3744 
Q 678 4316 997 4589 
Q 1316 4863 1984 4863 
L 2841 4863 
z
" transform="scale(0.015625)"/>
      <path id="DejaVuSans-Bold-20" transform="scale(0.015625)"/>
      <path id="DejaVuSans-Bold-2014" d="M 344 2156 
L 6056 2156 
L 6056 1350 
L 344 1350 
L 344 2156 
z
" transform="scale(0.015625)"/>
      <path id="DejaVuSans-Bold-53" d="M 3834 4519 
L 3834 3531 
Q 3450 3703 3084 3790 
Q 2719 3878 2394 3878 
Q 1963 3878 1756 3759 
Q 1550 3641 1550 3391 
Q 1550 3203 1689 3098 
Q 1828 2994 2194 2919 
L 2706 2816 
Q 3484 2659 3812 2340 
Q 4141 2022 4141 1434 
Q 4141 663 3683 286 
Q 3225 -91 2284 -91 
Q 1841 -91 1394 -6 
Q 947 78 500 244 
L 500 1259 
Q 947 1022 1364 901 
Q 1781 781 2169 781 
Q 2563 781 2772 912 
Q 2981 1044 2981 1288 
Q 2981 1506 2839 1625 
Q 2697 1744 2272 1838 
L 1806 1941 
Q 1106 2091 782 2419 
Q 459 2747 459 3303 
Q 459 4000 909 4375 
Q 1359 4750 2203 4750 
Q 2588 4750 2994 4692 
Q 3400 4634 3834 4519 
z
" transform="scale(0.015625)"/>
      <path id="DejaVuSans-Bold-79" d="M 78 3500 
L 1197 3500 
L 2138 1125 
L 2938 3500 
L 4056 3500 
L 2584 -331 
Q 2363 -916 2067 -1148 
Q 1772 -1381 1288 -1381 
L 641 -1381 
L 641 -647 
L 991 -647 
Q 1275 -647 1404 -556 
Q 1534 -466 1606 -231 
L 1638 -134 
L 78 3500 
z
" transform="scale(0.015625)"/>
      <path id="DejaVuSans-Bold-73" d="M 3272 3391 
L 3272 2541 
Q 2913 2691 2578 2766 
Q 2244 2841 1947 2841 
Q 1628 2841 1473 2761 
Q 1319 2681 1319 2516 
Q 1319 2381 1436 2309 
Q 1553 2238 1856 2203 
L 2053 2175 
Q 2913 2066 3209 1816 
Q 3506 1566 3506 1031 
Q 3506 472 3093 190 
Q 2681 -91 1863 -91 
Q 1516 -91 1145 -36 
Q 775 19 384 128 
L 384 978 
Q 719 816 1070 734 
Q 1422 653 1784 653 
Q 2113 653 2278 743 
Q 2444 834 2444 1013 
Q 2444 1163 2330 1236 
Q 2216 1309 1875 1350 
L 1678 1375 
Q 931 1469 631 1722 
Q 331 1975 331 2491 
Q 331 3047 712 3315 
Q 1094 3584 1881 3584 
Q 2191 3584 2531 3537 
Q 2872 3491 3272 3391 
z
" transform="scale(0.015625)"/>
      <path id="DejaVuSans-Bold-6d" d="M 3781 2919 
Q 3994 3244 4286 3414 
Q 4578 3584 4928 3584 
Q 5531 3584 5847 3212 
Q 6163 2841 6163 2131 
L 6163 0 
L 5038 0 
L 5038 1825 
Q 5041 1866 5042 1909 
Q 5044 1953 5044 2034 
Q 5044 2406 4934 2573 
Q 4825 2741 4581 2741 
Q 4263 2741 4089 2478 
Q 3916 2216 3909 1719 
L 3909 0 
L 2784 0 
L 2784 1825 
Q 2784 2406 2684 2573 
Q 2584 2741 2328 2741 
Q 2006 2741 1831 2477 
Q 1656 2213 1656 1722 
L 1656 0 
L 531 0 
L 531 3500 
L 1656 3500 
L 1656 2988 
Q 1863 3284 2130 3434 
Q 2397 3584 2719 3584 
Q 3081 3584 3359 3409 
Q 3638 3234 3781 2919 
z
" transform="scale(0.015625)"/>
      <path id="DejaVuSans-Bold-41" d="M 3419 850 
L 1538 850 
L 1241 0 
L 31 0 
L 1759 4666 
L 3194 4666 
L 4922 0 
L 3713 0 
L 3419 850 
z
M 1838 1716 
L 3116 1716 
L 2478 3572 
L 1838 1716 
z
" transform="scale(0.015625)"/>
      <path id="DejaVuSans-Bold-63" d="M 3366 3391 
L 3366 2478 
Q 3138 2634 2908 2709 
Q 2678 2784 2431 2784 
Q 1963 2784 1702 2511 
Q 1441 2238 1441 1747 
Q 1441 1256 1702 982 
Q 1963 709 2431 709 
Q 2694 709 2930 787 
Q 3166 866 3366 1019 
L 3366 103 
Q 3103 6 2833 -42 
Q 2563 -91 2291 -91 
Q 1344 -91 809 395 
Q 275 881 275 1747 
Q 275 2613 809 3098 
Q 1344 3584 2291 3584 
Q 2566 3584 2833 3536 
Q 3100 3488 3366 3391 
z
" transform="scale(0.015625)"/>
      <path id="DejaVuSans-Bold-68" d="M 4056 2131 
L 4056 0 
L 2931 0 
L 2931 347 
L 2931 1625 
Q 2931 2084 2911 2256 
Q 2891 2428 2841 2509 
Q 2775 2619 2662 2680 
Q 2550 2741 2406 2741 
Q 2056 2741 1856 2470 
Q 1656 2200 1656 1722 
L 1656 0 
L 538 0 
L 538 4863 
L 1656 4863 
L 1656 2988 
Q 1909 3294 2193 3439 
Q 2478 3584 2822 3584 
Q 3428 3584 3742 3212 
Q 4056 2841 4056 2131 
z
" transform="scale(0.015625)"/>
      <path id="DejaVuSans-Bold-75" d="M 500 1363 
L 500 3500 
L 1625 3500 
L 1625 3150 
Q 1625 2866 1622 2436 
Q 1619 2006 1619 1863 
Q 1619 1441 1641 1255 
Q 1663 1069 1716 984 
Q 1784 875 1895 815 
Q 2006 756 2150 756 
Q 2500 756 2700 1025 
Q 2900 1294 2900 1772 
L 2900 3500 
L 4019 3500 
L 4019 0 
L 2900 0 
L 2900 506 
Q 2647 200 2364 54 
Q 2081 -91 1741 -91 
Q 1134 -91 817 281 
Q 500 653 500 1363 
z
" transform="scale(0.015625)"/>
     </defs>
     <use xlink:href="#DejaVuSans-Bold-52"/>
     <use xlink:href="#DejaVuSans-Bold-65" transform="translate(77.001953 0)"/>
     <use xlink:href="#DejaVuSans-Bold-74" transform="translate(144.824219 0)"/>
     <use xlink:href="#DejaVuSans-Bold-72" transform="translate(192.626953 0)"/>
     <use xlink:href="#DejaVuSans-Bold-6f" transform="translate(241.943359 0)"/>
     <use xlink:href="#DejaVuSans-Bold-44" transform="translate(310.644531 0)"/>
     <use xlink:href="#DejaVuSans-Bold-69" transform="translate(393.652344 0)"/>
     <use xlink:href="#DejaVuSans-Bold-66" transform="translate(427.929688 0)"/>
     <use xlink:href="#DejaVuSans-Bold-66" transform="translate(471.435547 0)"/>
     <use xlink:href="#DejaVuSans-Bold-20" transform="translate(514.941406 0)"/>
     <use xlink:href="#DejaVuSans-Bold-2014" transform="translate(549.755859 0)"/>
     <use xlink:href="#DejaVuSans-Bold-20" transform="translate(649.755859 0)"/>
     <use xlink:href="#DejaVuSans-Bold-53" transform="translate(684.570312 0)"/>
     <use xlink:href="#DejaVuSans-Bold-79" transform="translate(756.591797 0)"/>
     <use xlink:href="#DejaVuSans-Bold-73" transform="translate(821.777344 0)"/>
     <use xlink:href="#DejaVuSans-Bold-74" transform="translate(881.298828 0)"/>
     <use xlink:href="#DejaVuSans-Bold-65" transform="translate(929.101562 0)"/>
     <use xlink:href="#DejaVuSans-Bold-6d" transform="translate(996.923828 0)"/>
     <use xlink:href="#DejaVuSans-Bold-20" transform="translate(1101.123047 0)"/>
     <use xlink:href="#DejaVuSans-Bold-41" transform="translate(1135.9375 0)"/>
     <use xlink:href="#DejaVuSans-Bold-72" transform="translate(1213.330078 0)"/>
     <use xlink:href="#DejaVuSans-Bold-63" transform="translate(1262.646484 0)"/>
     <use xlink:href="#DejaVuSans-Bold-68" transform="translate(1321.923828 0)"/>
     <use xlink:href="#DejaVuSans-Bold-69" transform="translate(1393.115234 0)"/>
     <use xlink:href="#DejaVuSans-Bold-74" transform="translate(1427.392578 0)"/>
     <use xlink:href="#DejaVuSans-Bold-65" transform="translate(1475.195312 0)"/>
     <use xlink:href="#DejaVuSans-Bold-63" transform="translate(1543.017578 0)"/>
     <use xlink:href="#DejaVuSans-Bold-74" transform="translate(1602.294922 0)"/>
     <use xlink:href="#DejaVuSans-Bold-75" transform="translate(1650.097656 0)"/>
     <use xlink:href="#DejaVuSans-Bold-72" transform="translate(1721.289062 0)"/>
     <use xlink:href="#DejaVuSans-Bold-65" transform="translate(1770.605469 0)"/>
    </g>
   </g>
   <g id="patch_10">
    <path d="M 19.728 188.210265 
L 145.008 188.210265 
Q 176.328 188.210265 176.328 175.215725 
L 176.328 138.831013 
Q 176.328 125.836473 145.008 125.836473 
L 19.728 125.836473 
Q -11.592 125.836473 -11.592 138.831013 
L -11.592 175.215725 
Q -11.592 188.210265 19.728 188.210265 
z
" clip-path="url(#pf6688c7a9c)" style="fill: #f0f0f0; stroke: #555555; stroke-width: 1.8; stroke-linejoin: miter"/>
   </g>
   <g id="patch_11">
    <path d="M 182.592 149.226645 
L 307.872 149.226645 
Q 339.192 149.226645 339.192 136.232105 
L 339.192 99.847393 
Q 339.192 86.852853 307.872 86.852853 
L 182.592 86.852853 
Q 151.272 86.852853 151.272 99.847393 
L 151.272 136.232105 
Q 151.272 149.226645 182.592 149.226645 
z
" clip-path="url(#pf6688c7a9c)" style="fill: #fdfefe; stroke: #2c3e50; stroke-width: 1.8; stroke-linejoin: miter"/>
   </g>
   <g id="patch_12">
    <path d="M 182.592 227.193885 
L 307.872 227.193885 
Q 339.192 227.193885 339.192 214.199345 
L 339.192 177.814633 
Q 339.192 164.820093 307.872 164.820093 
L 182.592 164.820093 
Q 151.272 164.820093 151.272 177.814633 
L 151.272 214.199345 
Q 151.272 227.193885 182.592 227.193885 
z
" clip-path="url(#pf6688c7a9c)" style="fill: #ebf5fb; stroke: #1a5276; stroke-width: 1.8; stroke-linejoin: miter"/>
   </g>
   <g id="patch_13">
    <path d="M 245.232 181.712995 
C 261.844322 181.712995 277.778483 181.302239 289.525169 180.571191 
C 301.271854 179.840143 307.872 178.84849 307.872 177.814633 
C 307.872 176.780775 301.271854 175.789122 289.525169 175.058075 
C 277.778483 174.327027 261.844322 173.916271 245.232 173.916271 
C 228.619678 173.916271 212.685517 174.327027 200.938831 175.058075 
C 189.192146 175.789122 182.592 176.780775 182.592 177.814633 
C 182.592 178.84849 189.192146 179.840143 200.938831 180.571191 
C 212.685517 181.302239 228.619678 181.712995 245.232 181.712995 
z
" clip-path="url(#pf6688c7a9c)" style="fill: #1a5276; opacity: 0.25"/>
   </g>
   <g id="patch_14">
    <path d="M 351.72 149.226645 
L 477 149.226645 
Q 508.32 149.226645 508.32 136.232105 
L 508.32 99.847393 
Q 508.32 86.852853 477 86.852853 
L 351.72 86.852853 
Q 320.4 86.852853 320.4 99.847393 
L 320.4 136.232105 
Q 320.4 149.226645 351.72 149.226645 
z
" clip-path="url(#pf6688c7a9c)" style="fill: #fdfefe; stroke: #2c3e50; stroke-width: 1.8; stroke-linejoin: miter"/>
   </g>
   <g id="patch_15">
    <path d="M 351.72 227.193885 
L 477 227.193885 
Q 508.32 227.193885 508.32 214.199345 
L 508.32 177.814633 
Q 508.32 164.820093 477 164.820093 
L 351.72 164.820093 
Q 320.4 164.820093 320.4 177.814633 
L 320.4 214.199345 
Q 320.4 227.193885 351.72 227.193885 
z
" clip-path="url(#pf6688c7a9c)" style="fill: #fdfefe; stroke: #2c3e50; stroke-width: 1.8; stroke-linejoin: miter"/>
   </g>
   <g id="patch_16">
    <path d="M 495.792 188.210265 
L 621.072 188.210265 
Q 652.392 188.210265 652.392 175.215725 
L 652.392 138.831013 
Q 652.392 125.836473 621.072 125.836473 
L 495.792 125.836473 
Q 464.472 125.836473 464.472 138.831013 
L 464.472 175.215725 
Q 464.472 188.210265 495.792 188.210265 
z
" clip-path="url(#pf6688c7a9c)" style="fill: #fff3cd; stroke: #d4a017; stroke-width: 1.8; stroke-linejoin: miter"/>
   </g>
   <g id="text_2">
    <!-- Retrieval -->
    <g style="fill: #2e86c1" transform="translate(222.237 93.691446) scale(0.09 -0.09)">
     <defs>
      <path id="DejaVuSans-Bold-76" d="M 97 3500 
L 1216 3500 
L 2088 1081 
L 2956 3500 
L 4078 3500 
L 2700 0 
L 1472 0 
L 97 3500 
z
" transform="scale(0.015625)"/>
      <path id="DejaVuSans-Bold-61" d="M 2106 1575 
Q 1756 1575 1579 1456 
Q 1403 1338 1403 1106 
Q 1403 894 1545 773 
Q 1688 653 1941 653 
Q 2256 653 2472 879 
Q 2688 1106 2688 1447 
L 2688 1575 
L 2106 1575 
z
M 3816 1997 
L 3816 0 
L 2688 0 
L 2688 519 
Q 2463 200 2181 54 
Q 1900 -91 1497 -91 
Q 953 -91 614 226 
Q 275 544 275 1050 
Q 275 1666 698 1953 
Q 1122 2241 2028 2241 
L 2688 2241 
L 2688 2328 
Q 2688 2594 2478 2717 
Q 2269 2841 1825 2841 
Q 1466 2841 1156 2769 
Q 847 2697 581 2553 
L 581 3406 
Q 941 3494 1303 3539 
Q 1666 3584 2028 3584 
Q 2975 3584 3395 3211 
Q 3816 2838 3816 1997 
z
" transform="scale(0.015625)"/>
      <path id="DejaVuSans-Bold-6c" d="M 538 4863 
L 1656 4863 
L 1656 0 
L 538 0 
L 538 4863 
z
" transform="scale(0.015625)"/>
     </defs>
     <use xlink:href="#DejaVuSans-Bold-52"/>
     <use xlink:href="#DejaVuSans-Bold-65" transform="translate(77.001953 0)"/>
     <use xlink:href="#DejaVuSans-Bold-74" transform="translate(144.824219 0)"/>
     <use xlink:href="#DejaVuSans-Bold-72" transform="translate(192.626953 0)"/>
     <use xlink:href="#DejaVuSans-Bold-69" transform="translate(241.943359 0)"/>
     <use xlink:href="#DejaVuSans-Bold-65" transform="translate(276.220703 0)"/>
     <use xlink:href="#DejaVuSans-Bold-76" transform="translate(344.042969 0)"/>
     <use xlink:href="#DejaVuSans-Bold-61" transform="translate(409.228516 0)"/>
     <use xlink:href="#DejaVuSans-Bold-6c" transform="translate(476.708984 0)"/>
    </g>
   </g>
   <g id="text_3">
    <!-- Generation -->
    <g style="fill: #1e8449" transform="translate(386.114062 93.691446) scale(0.09 -0.09)">
     <defs>
      <path id="DejaVuSans-Bold-47" d="M 4781 347 
Q 4331 128 3847 18 
Q 3363 -91 2847 -91 
Q 1681 -91 1000 561 
Q 319 1213 319 2328 
Q 319 3456 1012 4103 
Q 1706 4750 2913 4750 
Q 3378 4750 3804 4662 
Q 4231 4575 4609 4403 
L 4609 3438 
Q 4219 3659 3833 3768 
Q 3447 3878 3059 3878 
Q 2341 3878 1952 3476 
Q 1563 3075 1563 2328 
Q 1563 1588 1938 1184 
Q 2313 781 3003 781 
Q 3191 781 3352 804 
Q 3513 828 3641 878 
L 3641 1784 
L 2906 1784 
L 2906 2591 
L 4781 2591 
L 4781 347 
z
" transform="scale(0.015625)"/>
      <path id="DejaVuSans-Bold-6e" d="M 4056 2131 
L 4056 0 
L 2931 0 
L 2931 347 
L 2931 1631 
Q 2931 2084 2911 2256 
Q 2891 2428 2841 2509 
Q 2775 2619 2662 2680 
Q 2550 2741 2406 2741 
Q 2056 2741 1856 2470 
Q 1656 2200 1656 1722 
L 1656 0 
L 538 0 
L 538 3500 
L 1656 3500 
L 1656 2988 
Q 1909 3294 2193 3439 
Q 2478 3584 2822 3584 
Q 3428 3584 3742 3212 
Q 4056 2841 4056 2131 
z
" transform="scale(0.015625)"/>
     </defs>
     <use xlink:href="#DejaVuSans-Bold-47"/>
     <use xlink:href="#DejaVuSans-Bold-65" transform="translate(82.080078 0)"/>
     <use xlink:href="#DejaVuSans-Bold-6e" transform="translate(149.902344 0)"/>
     <use xlink:href="#DejaVuSans-Bold-65" transform="translate(221.09375 0)"/>
     <use xlink:href="#DejaVuSans-Bold-72" transform="translate(288.916016 0)"/>
     <use xlink:href="#DejaVuSans-Bold-61" transform="translate(338.232422 0)"/>
     <use xlink:href="#DejaVuSans-Bold-74" transform="translate(405.712891 0)"/>
     <use xlink:href="#DejaVuSans-Bold-69" transform="translate(453.515625 0)"/>
     <use xlink:href="#DejaVuSans-Bold-6f" transform="translate(487.792969 0)"/>
     <use xlink:href="#DejaVuSans-Bold-6e" transform="translate(556.494141 0)"/>
    </g>
   </g>
   <g id="text_4">
    <!-- Query -->
    <g style="fill: #1a1a1a" transform="translate(65.441437 159.704619) scale(0.1 -0.1)">
     <defs>
      <path id="DejaVuSans-Bold-51" d="M 2847 -84 
L 2753 -84 
Q 1600 -84 959 553 
Q 319 1191 319 2328 
Q 319 3463 958 4106 
Q 1597 4750 2719 4750 
Q 3853 4750 4486 4112 
Q 5119 3475 5119 2328 
Q 5119 1541 4783 972 
Q 4447 403 3816 116 
L 4756 -934 
L 3609 -934 
L 2847 -84 
z
M 2719 3878 
Q 2169 3878 1866 3472 
Q 1563 3066 1563 2328 
Q 1563 1578 1859 1179 
Q 2156 781 2719 781 
Q 3272 781 3575 1187 
Q 3878 1594 3878 2328 
Q 3878 3066 3575 3472 
Q 3272 3878 2719 3878 
z
" transform="scale(0.015625)"/>
     </defs>
     <use xlink:href="#DejaVuSans-Bold-51"/>
     <use xlink:href="#DejaVuSans-Bold-75" transform="translate(85.009766 0)"/>
     <use xlink:href="#DejaVuSans-Bold-65" transform="translate(156.201172 0)"/>
     <use xlink:href="#DejaVuSans-Bold-72" transform="translate(224.023438 0)"/>
     <use xlink:href="#DejaVuSans-Bold-79" transform="translate(273.339844 0)"/>
    </g>
   </g>
   <g id="text_5">
    <!-- Retriever -->
    <g style="fill: #1a1a1a" transform="translate(218.91325 120.799124) scale(0.1 -0.1)">
     <use xlink:href="#DejaVuSans-Bold-52"/>
     <use xlink:href="#DejaVuSans-Bold-65" transform="translate(77.001953 0)"/>
     <use xlink:href="#DejaVuSans-Bold-74" transform="translate(144.824219 0)"/>
     <use xlink:href="#DejaVuSans-Bold-72" transform="translate(192.626953 0)"/>
     <use xlink:href="#DejaVuSans-Bold-69" transform="translate(241.943359 0)"/>
     <use xlink:href="#DejaVuSans-Bold-65" transform="translate(276.220703 0)"/>
     <use xlink:href="#DejaVuSans-Bold-76" transform="translate(344.042969 0)"/>
     <use xlink:href="#DejaVuSans-Bold-65" transform="translate(409.228516 0)"/>
     <use xlink:href="#DejaVuSans-Bold-72" transform="translate(477.050781 0)"/>
    </g>
   </g>
   <g id="text_6">
    <!-- KB -->
    <g style="fill: #1a1a1a" transform="translate(237.546844 198.766364) scale(0.1 -0.1)">
     <defs>
      <path id="DejaVuSans-Bold-4b" d="M 588 4666 
L 1791 4666 
L 1791 2963 
L 3525 4666 
L 4922 4666 
L 2675 2456 
L 5153 0 
L 3647 0 
L 1791 1838 
L 1791 0 
L 588 0 
L 588 4666 
z
" transform="scale(0.015625)"/>
      <path id="DejaVuSans-Bold-42" d="M 2456 2859 
Q 2741 2859 2887 2984 
Q 3034 3109 3034 3353 
Q 3034 3594 2887 3720 
Q 2741 3847 2456 3847 
L 1791 3847 
L 1791 2859 
L 2456 2859 
z
M 2497 819 
Q 2859 819 3042 972 
Q 3225 1125 3225 1434 
Q 3225 1738 3044 1889 
Q 2863 2041 2497 2041 
L 1791 2041 
L 1791 819 
L 2497 819 
z
M 3616 2497 
Q 4003 2384 4215 2081 
Q 4428 1778 4428 1338 
Q 4428 663 3972 331 
Q 3516 0 2584 0 
L 588 0 
L 588 4666 
L 2394 4666 
Q 3366 4666 3802 4372 
Q 4238 4078 4238 3431 
Q 4238 3091 4078 2852 
Q 3919 2613 3616 2497 
z
" transform="scale(0.015625)"/>
     </defs>
     <use xlink:href="#DejaVuSans-Bold-4b"/>
     <use xlink:href="#DejaVuSans-Bold-42" transform="translate(77.490234 0)"/>
    </g>
   </g>
   <g id="text_7">
    <!-- Diffusion Decoder -->
    <g style="fill: #1a1a1a" transform="translate(363.783437 120.799124) scale(0.1 -0.1)">
     <defs>
      <path id="DejaVuSans-Bold-64" d="M 2919 2988 
L 2919 4863 
L 4044 4863 
L 4044 0 
L 2919 0 
L 2919 506 
Q 2688 197 2409 53 
Q 2131 -91 1766 -91 
Q 1119 -91 703 423 
Q 288 938 288 1747 
Q 288 2556 703 3070 
Q 1119 3584 1766 3584 
Q 2128 3584 2408 3439 
Q 2688 3294 2919 2988 
z
M 2181 722 
Q 2541 722 2730 984 
Q 2919 1247 2919 1747 
Q 2919 2247 2730 2509 
Q 2541 2772 2181 2772 
Q 1825 2772 1636 2509 
Q 1447 2247 1447 1747 
Q 1447 1247 1636 984 
Q 1825 722 2181 722 
z
" transform="scale(0.015625)"/>
     </defs>
     <use xlink:href="#DejaVuSans-Bold-44"/>
     <use xlink:href="#DejaVuSans-Bold-69" transform="translate(83.007812 0)"/>
     <use xlink:href="#DejaVuSans-Bold-66" transform="translate(117.285156 0)"/>
     <use xlink:href="#DejaVuSans-Bold-66" transform="translate(160.791016 0)"/>
     <use xlink:href="#DejaVuSans-Bold-75" transform="translate(204.296875 0)"/>
     <use xlink:href="#DejaVuSans-Bold-73" transform="translate(275.488281 0)"/>
     <use xlink:href="#DejaVuSans-Bold-69" transform="translate(335.009766 0)"/>
     <use xlink:href="#DejaVuSans-Bold-6f" transform="translate(369.287109 0)"/>
     <use xlink:href="#DejaVuSans-Bold-6e" transform="translate(437.988281 0)"/>
     <use xlink:href="#DejaVuSans-Bold-20" transform="translate(509.179688 0)"/>
     <use xlink:href="#DejaVuSans-Bold-44" transform="translate(543.994141 0)"/>
     <use xlink:href="#DejaVuSans-Bold-65" transform="translate(627.001953 0)"/>
     <use xlink:href="#DejaVuSans-Bold-63" transform="translate(694.824219 0)"/>
     <use xlink:href="#DejaVuSans-Bold-6f" transform="translate(754.101562 0)"/>
     <use xlink:href="#DejaVuSans-Bold-64" transform="translate(822.802734 0)"/>
     <use xlink:href="#DejaVuSans-Bold-65" transform="translate(894.384766 0)"/>
     <use xlink:href="#DejaVuSans-Bold-72" transform="translate(962.207031 0)"/>
    </g>
   </g>
   <g id="text_8">
    <!-- Prior Network -->
    <g style="fill: #1a1a1a" transform="translate(375.063125 198.766364) scale(0.1 -0.1)">
     <defs>
      <path id="DejaVuSans-Bold-50" d="M 588 4666 
L 2584 4666 
Q 3475 4666 3951 4270 
Q 4428 3875 4428 3144 
Q 4428 2409 3951 2014 
Q 3475 1619 2584 1619 
L 1791 1619 
L 1791 0 
L 588 0 
L 588 4666 
z
M 1791 3794 
L 1791 2491 
L 2456 2491 
Q 2806 2491 2997 2661 
Q 3188 2831 3188 3144 
Q 3188 3456 2997 3625 
Q 2806 3794 2456 3794 
L 1791 3794 
z
" transform="scale(0.015625)"/>
      <path id="DejaVuSans-Bold-4e" d="M 588 4666 
L 1931 4666 
L 3628 1466 
L 3628 4666 
L 4769 4666 
L 4769 0 
L 3425 0 
L 1728 3200 
L 1728 0 
L 588 0 
L 588 4666 
z
" transform="scale(0.015625)"/>
      <path id="DejaVuSans-Bold-77" d="M 225 3500 
L 1313 3500 
L 1900 1088 
L 2491 3500 
L 3425 3500 
L 4013 1113 
L 4603 3500 
L 5691 3500 
L 4769 0 
L 3547 0 
L 2956 2406 
L 2369 0 
L 1147 0 
L 225 3500 
z
" transform="scale(0.015625)"/>
      <path id="DejaVuSans-Bold-6b" d="M 538 4863 
L 1656 4863 
L 1656 2216 
L 2944 3500 
L 4244 3500 
L 2534 1894 
L 4378 0 
L 3022 0 
L 1656 1459 
L 1656 0 
L 538 0 
L 538 4863 
z
" transform="scale(0.015625)"/>
     </defs>
     <use xlink:href="#DejaVuSans-Bold-50"/>
     <use xlink:href="#DejaVuSans-Bold-72" transform="translate(73.291016 0)"/>
     <use xlink:href="#DejaVuSans-Bold-69" transform="translate(122.607422 0)"/>
     <use xlink:href="#DejaVuSans-Bold-6f" transform="translate(156.884766 0)"/>
     <use xlink:href="#DejaVuSans-Bold-72" transform="translate(225.585938 0)"/>
     <use xlink:href="#DejaVuSans-Bold-20" transform="translate(274.902344 0)"/>
     <use xlink:href="#DejaVuSans-Bold-4e" transform="translate(309.716797 0)"/>
     <use xlink:href="#DejaVuSans-Bold-65" transform="translate(393.408203 0)"/>
     <use xlink:href="#DejaVuSans-Bold-74" transform="translate(461.230469 0)"/>
     <use xlink:href="#DejaVuSans-Bold-77" transform="translate(509.033203 0)"/>
     <use xlink:href="#DejaVuSans-Bold-6f" transform="translate(601.416016 0)"/>
     <use xlink:href="#DejaVuSans-Bold-72" transform="translate(670.117188 0)"/>
     <use xlink:href="#DejaVuSans-Bold-6b" transform="translate(719.433594 0)"/>
    </g>
   </g>
   <g id="text_9">
    <!-- Generated Sample -->
    <g style="fill: #1a1a1a" transform="translate(506.17575 159.782744) scale(0.1 -0.1)">
     <defs>
      <path id="DejaVuSans-Bold-70" d="M 1656 506 
L 1656 -1331 
L 538 -1331 
L 538 3500 
L 1656 3500 
L 1656 2988 
Q 1888 3294 2169 3439 
Q 2450 3584 2816 3584 
Q 3463 3584 3878 3070 
Q 4294 2556 4294 1747 
Q 4294 938 3878 423 
Q 3463 -91 2816 -91 
Q 2450 -91 2169 54 
Q 1888 200 1656 506 
z
M 2400 2772 
Q 2041 2772 1848 2508 
Q 1656 2244 1656 1747 
Q 1656 1250 1848 986 
Q 2041 722 2400 722 
Q 2759 722 2948 984 
Q 3138 1247 3138 1747 
Q 3138 2247 2948 2509 
Q 2759 2772 2400 2772 
z
" transform="scale(0.015625)"/>
     </defs>
     <use xlink:href="#DejaVuSans-Bold-47"/>
     <use xlink:href="#DejaVuSans-Bold-65" transform="translate(82.080078 0)"/>
     <use xlink:href="#DejaVuSans-Bold-6e" transform="translate(149.902344 0)"/>
     <use xlink:href="#DejaVuSans-Bold-65" transform="translate(221.09375 0)"/>
     <use xlink:href="#DejaVuSans-Bold-72" transform="translate(288.916016 0)"/>
     <use xlink:href="#DejaVuSans-Bold-61" transform="translate(338.232422 0)"/>
     <use xlink:href="#DejaVuSans-Bold-74" transform="translate(405.712891 0)"/>
     <use xlink:href="#DejaVuSans-Bold-65" transform="translate(453.515625 0)"/>
     <use xlink:href="#DejaVuSans-Bold-64" transform="translate(521.337891 0)"/>
     <use xlink:href="#DejaVuSans-Bold-20" transform="translate(592.919922 0)"/>
     <use xlink:href="#DejaVuSans-Bold-53" transform="translate(627.734375 0)"/>
     <use xlink:href="#DejaVuSans-Bold-61" transform="translate(699.755859 0)"/>
     <use xlink:href="#DejaVuSans-Bold-6d" transform="translate(767.236328 0)"/>
     <use xlink:href="#DejaVuSans-Bold-70" transform="translate(871.435547 0)"/>
     <use xlink:href="#DejaVuSans-Bold-6c" transform="translate(943.017578 0)"/>
     <use xlink:href="#DejaVuSans-Bold-65" transform="translate(977.294922 0)"/>
    </g>
   </g>
   <g id="legend_1">
    <g id="patch_17">
     <path d="M 125.016797 293.614401 
L 515.783203 293.614401 
Q 517.283203 293.614401 517.283203 292.114401 
L 517.283203 281.855807 
Q 517.283203 280.355807 515.783203 280.355807 
L 125.016797 280.355807 
Q 123.516797 280.355807 123.516797 281.855807 
L 123.516797 292.114401 
Q 123.516797 293.614401 125.016797 293.614401 
z
" style="fill: #ffffff; opacity: 0.85; stroke: #cccccc; stroke-linejoin: miter"/>
    </g>
    <g id="patch_18">
     <path d="M 126.516797 289.054635 
L 141.516797 289.054635 
L 141.516797 283.804635 
L 126.516797 283.804635 
z
" style="fill: #fdfefe; stroke: #2c3e50; stroke-linejoin: miter"/>
    </g>
    <g id="text_10">
     <!-- Module -->
     <g transform="translate(147.516797 289.054635) scale(0.075 -0.075)">
      <defs>
       <path id="DejaVuSans-4d" d="M 628 4666 
L 1569 4666 
L 2759 1491 
L 3956 4666 
L 4897 4666 
L 4897 0 
L 4281 0 
L 4281 4097 
L 3078 897 
L 2444 897 
L 1241 4097 
L 1241 0 
L 628 0 
L 628 4666 
z
" transform="scale(0.015625)"/>
       <path id="DejaVuSans-6f" d="M 1959 3097 
Q 1497 3097 1228 2736 
Q 959 2375 959 1747 
Q 959 1119 1226 758 
Q 1494 397 1959 397 
Q 2419 397 2687 759 
Q 2956 1122 2956 1747 
Q 2956 2369 2687 2733 
Q 2419 3097 1959 3097 
z
M 1959 3584 
Q 2709 3584 3137 3096 
Q 3566 2609 3566 1747 
Q 3566 888 3137 398 
Q 2709 -91 1959 -91 
Q 1206 -91 779 398 
Q 353 888 353 1747 
Q 353 2609 779 3096 
Q 1206 3584 1959 3584 
z
" transform="scale(0.015625)"/>
       <path id="DejaVuSans-64" d="M 2906 2969 
L 2906 4863 
L 3481 4863 
L 3481 0 
L 2906 0 
L 2906 525 
Q 2725 213 2448 61 
Q 2172 -91 1784 -91 
Q 1150 -91 751 415 
Q 353 922 353 1747 
Q 353 2572 751 3078 
Q 1150 3584 1784 3584 
Q 2172 3584 2448 3432 
Q 2725 3281 2906 2969 
z
M 947 1747 
Q 947 1113 1208 752 
Q 1469 391 1925 391 
Q 2381 391 2643 752 
Q 2906 1113 2906 1747 
Q 2906 2381 2643 2742 
Q 2381 3103 1925 3103 
Q 1469 3103 1208 2742 
Q 947 2381 947 1747 
z
" transform="scale(0.015625)"/>
       <path id="DejaVuSans-75" d="M 544 1381 
L 544 3500 
L 1119 3500 
L 1119 1403 
Q 1119 906 1312 657 
Q 1506 409 1894 409 
Q 2359 409 2629 706 
Q 2900 1003 2900 1516 
L 2900 3500 
L 3475 3500 
L 3475 0 
L 2900 0 
L 2900 538 
Q 2691 219 2414 64 
Q 2138 -91 1772 -91 
Q 1169 -91 856 284 
Q 544 659 544 1381 
z
M 1991 3584 
L 1991 3584 
z
" transform="scale(0.015625)"/>
       <path id="DejaVuSans-6c" d="M 603 4863 
L 1178 4863 
L 1178 0 
L 603 0 
L 603 4863 
z
" transform="scale(0.015625)"/>
       <path id="DejaVuSans-65" d="M 3597 1894 
L 3597 1613 
L 953 1613 
Q 991 1019 1311 708 
Q 1631 397 2203 397 
Q 2534 397 2845 478 
Q 3156 559 3463 722 
L 3463 178 
Q 3153 47 2828 -22 
Q 2503 -91 2169 -91 
Q 1331 -91 842 396 
Q 353 884 353 1716 
Q 353 2575 817 3079 
Q 1281 3584 2069 3584 
Q 2775 3584 3186 3129 
Q 3597 2675 3597 1894 
z
M 3022 2063 
Q 3016 2534 2758 2815 
Q 2500 3097 2075 3097 
Q 1594 3097 1305 2825 
Q 1016 2553 972 2059 
L 3022 2063 
z
" transform="scale(0.015625)"/>
      </defs>
      <use xlink:href="#DejaVuSans-4d"/>
      <use xlink:href="#DejaVuSans-6f" transform="translate(86.279297 0)"/>
      <use xlink:href="#DejaVuSans-64" transform="translate(147.460938 0)"/>
      <use xlink:href="#DejaVuSans-75" transform="translate(210.9375 0)"/>
      <use xlink:href="#DejaVuSans-6c" transform="translate(274.316406 0)"/>
      <use xlink:href="#DejaVuSans-65" transform="translate(302.099609 0)"/>
     </g>
    </g>
    <g id="patch_19">
     <path d="M 189.789844 289.054635 
L 204.789844 289.054635 
L 204.789844 283.804635 
L 189.789844 283.804635 
z
" style="fill: #ebf5fb; stroke: #1a5276; stroke-linejoin: miter"/>
    </g>
    <g id="text_11">
     <!-- Datastore -->
     <g transform="translate(210.789844 289.054635) scale(0.075 -0.075)">
      <defs>
       <path id="DejaVuSans-44" d="M 1259 4147 
L 1259 519 
L 2022 519 
Q 2988 519 3436 956 
Q 3884 1394 3884 2338 
Q 3884 3275 3436 3711 
Q 2988 4147 2022 4147 
L 1259 4147 
z
M 628 4666 
L 1925 4666 
Q 3281 4666 3915 4102 
Q 4550 3538 4550 2338 
Q 4550 1131 3912 565 
Q 3275 0 1925 0 
L 628 0 
L 628 4666 
z
" transform="scale(0.015625)"/>
       <path id="DejaVuSans-61" d="M 2194 1759 
Q 1497 1759 1228 1600 
Q 959 1441 959 1056 
Q 959 750 1161 570 
Q 1363 391 1709 391 
Q 2188 391 2477 730 
Q 2766 1069 2766 1631 
L 2766 1759 
L 2194 1759 
z
M 3341 1997 
L 3341 0 
L 2766 0 
L 2766 531 
Q 2569 213 2275 61 
Q 1981 -91 1556 -91 
Q 1019 -91 701 211 
Q 384 513 384 1019 
Q 384 1609 779 1909 
Q 1175 2209 1959 2209 
L 2766 2209 
L 2766 2266 
Q 2766 2663 2505 2880 
Q 2244 3097 1772 3097 
Q 1472 3097 1187 3025 
Q 903 2953 641 2809 
L 641 3341 
Q 956 3463 1253 3523 
Q 1550 3584 1831 3584 
Q 2591 3584 2966 3190 
Q 3341 2797 3341 1997 
z
" transform="scale(0.015625)"/>
       <path id="DejaVuSans-74" d="M 1172 4494 
L 1172 3500 
L 2356 3500 
L 2356 3053 
L 1172 3053 
L 1172 1153 
Q 1172 725 1289 603 
Q 1406 481 1766 481 
L 2356 481 
L 2356 0 
L 1766 0 
Q 1100 0 847 248 
Q 594 497 594 1153 
L 594 3053 
L 172 3053 
L 172 3500 
L 594 3500 
L 594 4494 
L 1172 4494 
z
" transform="scale(0.015625)"/>
       <path id="DejaVuSans-73" d="M 2834 3397 
L 2834 2853 
Q 2591 2978 2328 3040 
Q 2066 3103 1784 3103 
Q 1356 3103 1142 2972 
Q 928 2841 928 2578 
Q 928 2378 1081 2264 
Q 1234 2150 1697 2047 
L 1894 2003 
Q 2506 1872 2764 1633 
Q 3022 1394 3022 966 
Q 3022 478 2636 193 
Q 2250 -91 1575 -91 
Q 1294 -91 989 -36 
Q 684 19 347 128 
L 347 722 
Q 666 556 975 473 
Q 1284 391 1588 391 
Q 1994 391 2212 530 
Q 2431 669 2431 922 
Q 2431 1156 2273 1281 
Q 2116 1406 1581 1522 
L 1381 1569 
Q 847 1681 609 1914 
Q 372 2147 372 2553 
Q 372 3047 722 3315 
Q 1072 3584 1716 3584 
Q 2034 3584 2315 3537 
Q 2597 3491 2834 3397 
z
" transform="scale(0.015625)"/>
       <path id="DejaVuSans-72" d="M 2631 2963 
Q 2534 3019 2420 3045 
Q 2306 3072 2169 3072 
Q 1681 3072 1420 2755 
Q 1159 2438 1159 1844 
L 1159 0 
L 581 0 
L 581 3500 
L 1159 3500 
L 1159 2956 
Q 1341 3275 1631 3429 
Q 1922 3584 2338 3584 
Q 2397 3584 2469 3576 
Q 2541 3569 2628 3553 
L 2631 2963 
z
" transform="scale(0.015625)"/>
      </defs>
      <use xlink:href="#DejaVuSans-44"/>
      <use xlink:href="#DejaVuSans-61" transform="translate(77.001953 0)"/>
      <use xlink:href="#DejaVuSans-74" transform="translate(138.28125 0)"/>
      <use xlink:href="#DejaVuSans-61" transform="translate(177.490234 0)"/>
      <use xlink:href="#DejaVuSans-73" transform="translate(238.769531 0)"/>
      <use xlink:href="#DejaVuSans-74" transform="translate(290.869141 0)"/>
      <use xlink:href="#DejaVuSans-6f" transform="translate(330.078125 0)"/>
      <use xlink:href="#DejaVuSans-72" transform="translate(391.259766 0)"/>
      <use xlink:href="#DejaVuSans-65" transform="translate(430.123047 0)"/>
     </g>
    </g>
    <g id="patch_20">
     <path d="M 262.662891 289.054635 
L 277.662891 289.054635 
L 277.662891 283.804635 
L 262.662891 283.804635 
z
" style="fill: #f0f0f0; stroke: #555555; stroke-linejoin: miter"/>
    </g>
    <g id="text_12">
     <!-- Input / Output -->
     <g transform="translate(283.662891 289.054635) scale(0.075 -0.075)">
      <defs>
       <path id="DejaVuSans-49" d="M 628 4666 
L 1259 4666 
L 1259 0 
L 628 0 
L 628 4666 
z
" transform="scale(0.015625)"/>
       <path id="DejaVuSans-6e" d="M 3513 2113 
L 3513 0 
L 2938 0 
L 2938 2094 
Q 2938 2591 2744 2837 
Q 2550 3084 2163 3084 
Q 1697 3084 1428 2787 
Q 1159 2491 1159 1978 
L 1159 0 
L 581 0 
L 581 3500 
L 1159 3500 
L 1159 2956 
Q 1366 3272 1645 3428 
Q 1925 3584 2291 3584 
Q 2894 3584 3203 3211 
Q 3513 2838 3513 2113 
z
" transform="scale(0.015625)"/>
       <path id="DejaVuSans-70" d="M 1159 525 
L 1159 -1331 
L 581 -1331 
L 581 3500 
L 1159 3500 
L 1159 2969 
Q 1341 3281 1617 3432 
Q 1894 3584 2278 3584 
Q 2916 3584 3314 3078 
Q 3713 2572 3713 1747 
Q 3713 922 3314 415 
Q 2916 -91 2278 -91 
Q 1894 -91 1617 61 
Q 1341 213 1159 525 
z
M 3116 1747 
Q 3116 2381 2855 2742 
Q 2594 3103 2138 3103 
Q 1681 3103 1420 2742 
Q 1159 2381 1159 1747 
Q 1159 1113 1420 752 
Q 1681 391 2138 391 
Q 2594 391 2855 752 
Q 3116 1113 3116 1747 
z
" transform="scale(0.015625)"/>
       <path id="DejaVuSans-20" transform="scale(0.015625)"/>
       <path id="DejaVuSans-2f" d="M 1625 4666 
L 2156 4666 
L 531 -594 
L 0 -594 
L 1625 4666 
z
" transform="scale(0.015625)"/>
       <path id="DejaVuSans-4f" d="M 2522 4238 
Q 1834 4238 1429 3725 
Q 1025 3213 1025 2328 
Q 1025 1447 1429 934 
Q 1834 422 2522 422 
Q 3209 422 3611 934 
Q 4013 1447 4013 2328 
Q 4013 3213 3611 3725 
Q 3209 4238 2522 4238 
z
M 2522 4750 
Q 3503 4750 4090 4092 
Q 4678 3434 4678 2328 
Q 4678 1225 4090 567 
Q 3503 -91 2522 -91 
Q 1538 -91 948 565 
Q 359 1222 359 2328 
Q 359 3434 948 4092 
Q 1538 4750 2522 4750 
z
" transform="scale(0.015625)"/>
      </defs>
      <use xlink:href="#DejaVuSans-49"/>
      <use xlink:href="#DejaVuSans-6e" transform="translate(29.492188 0)"/>
      <use xlink:href="#DejaVuSans-70" transform="translate(92.871094 0)"/>
      <use xlink:href="#DejaVuSans-75" transform="translate(156.347656 0)"/>
      <use xlink:href="#DejaVuSans-74" transform="translate(219.726562 0)"/>
      <use xlink:href="#DejaVuSans-20" transform="translate(258.935547 0)"/>
      <use xlink:href="#DejaVuSans-2f" transform="translate(290.722656 0)"/>
      <use xlink:href="#DejaVuSans-20" transform="translate(324.414062 0)"/>
      <use xlink:href="#DejaVuSans-4f" transform="translate(356.201172 0)"/>
      <use xlink:href="#DejaVuSans-75" transform="translate(434.912109 0)"/>
      <use xlink:href="#DejaVuSans-74" transform="translate(498.291016 0)"/>
      <use xlink:href="#DejaVuSans-70" transform="translate(537.5 0)"/>
      <use xlink:href="#DejaVuSans-75" transform="translate(600.976562 0)"/>
      <use xlink:href="#DejaVuSans-74" transform="translate(664.355469 0)"/>
     </g>
    </g>
    <g id="line2d_1">
     <path d="M 351.428906 286.429635 
L 358.928906 286.429635 
L 366.428906 286.429635 
" style="fill: none; stroke: #2c3e50; stroke-width: 1.6; stroke-linecap: square"/>
    </g>
    <g id="text_13">
     <!-- Data flow -->
     <g transform="translate(372.428906 289.054635) scale(0.075 -0.075)">
      <defs>
       <path id="DejaVuSans-66" d="M 2375 4863 
L 2375 4384 
L 1825 4384 
Q 1516 4384 1395 4259 
Q 1275 4134 1275 3809 
L 1275 3500 
L 2222 3500 
L 2222 3053 
L 1275 3053 
L 1275 0 
L 697 0 
L 697 3053 
L 147 3053 
L 147 3500 
L 697 3500 
L 697 3744 
Q 697 4328 969 4595 
Q 1241 4863 1831 4863 
L 2375 4863 
z
" transform="scale(0.015625)"/>
       <path id="DejaVuSans-77" d="M 269 3500 
L 844 3500 
L 1563 769 
L 2278 3500 
L 2956 3500 
L 3675 769 
L 4391 3500 
L 4966 3500 
L 4050 0 
L 3372 0 
L 2619 2869 
L 1863 0 
L 1184 0 
L 269 3500 
z
" transform="scale(0.015625)"/>
      </defs>
      <use xlink:href="#DejaVuSans-44"/>
      <use xlink:href="#DejaVuSans-61" transform="translate(77.001953 0)"/>
      <use xlink:href="#DejaVuSans-74" transform="translate(138.28125 0)"/>
      <use xlink:href="#DejaVuSans-61" transform="translate(177.490234 0)"/>
      <use xlink:href="#DejaVuSans-20" transform="translate(238.769531 0)"/>
      <use xlink:href="#DejaVuSans-66" transform="translate(270.556641 0)"/>
      <use xlink:href="#DejaVuSans-6c" transform="translate(305.761719 0)"/>
      <use xlink:href="#DejaVuSans-6f" transform="translate(333.544922 0)"/>
      <use xlink:href="#DejaVuSans-77" transform="translate(394.726562 0)"/>
     </g>
    </g>
    <g id="line2d_2">
     <path d="M 423.166406 286.429635 
L 430.666406 286.429635 
L 438.166406 286.429635 
" style="fill: none; stroke-dasharray: 4.81,2.08; stroke-dashoffset: 0; stroke: #7f8c8d; stroke-width: 1.3"/>
    </g>
    <g id="text_14">
     <!-- Control / Feedback -->
     <g transform="translate(444.166406 289.054635) scale(0.075 -0.075)">
      <defs>
       <path id="DejaVuSans-43" d="M 4122 4306 
L 4122 3641 
Q 3803 3938 3442 4084 
Q 3081 4231 2675 4231 
Q 1875 4231 1450 3742 
Q 1025 3253 1025 2328 
Q 1025 1406 1450 917 
Q 1875 428 2675 428 
Q 3081 428 3442 575 
Q 3803 722 4122 1019 
L 4122 359 
Q 3791 134 3420 21 
Q 3050 -91 2638 -91 
Q 1578 -91 968 557 
Q 359 1206 359 2328 
Q 359 3453 968 4101 
Q 1578 4750 2638 4750 
Q 3056 4750 3426 4639 
Q 3797 4528 4122 4306 
z
" transform="scale(0.015625)"/>
       <path id="DejaVuSans-46" d="M 628 4666 
L 3309 4666 
L 3309 4134 
L 1259 4134 
L 1259 2759 
L 3109 2759 
L 3109 2228 
L 1259 2228 
L 1259 0 
L 628 0 
L 628 4666 
z
" transform="scale(0.015625)"/>
       <path id="DejaVuSans-62" d="M 3116 1747 
Q 3116 2381 2855 2742 
Q 2594 3103 2138 3103 
Q 1681 3103 1420 2742 
Q 1159 2381 1159 1747 
Q 1159 1113 1420 752 
Q 1681 391 2138 391 
Q 2594 391 2855 752 
Q 3116 1113 3116 1747 
z
M 1159 2969 
Q 1341 3281 1617 3432 
Q 1894 3584 2278 3584 
Q 2916 3584 3314 3078 
Q 3713 2572 3713 1747 
Q 3713 922 3314 415 
Q 2916 -91 2278 -91 
Q 1894 -91 1617 61 
Q 1341 213 1159 525 
L 1159 0 
L 581 0 
L 581 4863 
L 1159 4863 
L 1159 2969 
z
" transform="scale(0.015625)"/>
       <path id="DejaVuSans-63" d="M 3122 3366 
L 3122 2828 
Q 2878 2963 2633 3030 
Q 2388 3097 2138 3097 
Q 1578 3097 1268 2742 
Q 959 2388 959 1747 
Q 959 1106 1268 751 
Q 1578 397 2138 397 
Q 2388 397 2633 464 
Q 2878 531 3122 666 
L 3122 134 
Q 2881 22 2623 -34 
Q 2366 -91 2075 -91 
Q 1284 -91 818 406 
Q 353 903 353 1747 
Q 353 2603 823 3093 
Q 1294 3584 2113 3584 
Q 2378 3584 2631 3529 
Q 2884 3475 3122 3366 
z
" transform="scale(0.015625)"/>
       <path id="DejaVuSans-6b" d="M 581 4863 
L 1159 4863 
L 1159 1991 
L 2875 3500 
L 3609 3500 
L 1753 1863 
L 3688 0 
L 2938 0 
L 1159 1709 
L 1159 0 
L 581 0 
L 581 4863 
z
" transform="scale(0.015625)"/>
      </defs>
      <use xlink:href="#DejaVuSans-43"/>
      <use xlink:href="#DejaVuSans-6f" transform="translate(69.824219 0)"/>
      <use xlink:href="#DejaVuSans-6e" transform="translate(131.005859 0)"/>
      <use xlink:href="#DejaVuSans-74" transform="translate(194.384766 0)"/>
      <use xlink:href="#DejaVuSans-72" transform="translate(233.59375 0)"/>
      <use xlink:href="#DejaVuSans-6f" transform="translate(272.457031 0)"/>
      <use xlink:href="#DejaVuSans-6c" transform="translate(333.638672 0)"/>
      <use xlink:href="#DejaVuSans-20" transform="translate(361.421875 0)"/>
      <use xlink:href="#DejaVuSans-2f" transform="translate(393.208984 0)"/>
      <use xlink:href="#DejaVuSans-20" transform="translate(426.900391 0)"/>
      <use xlink:href="#DejaVuSans-46" transform="translate(458.6875 0)"/>
      <use xlink:href="#DejaVuSans-65" transform="translate(510.707031 0)"/>
      <use xlink:href="#DejaVuSans-65" transform="translate(572.230469 0)"/>
      <use xlink:href="#DejaVuSans-64" transform="translate(633.753906 0)"/>
      <use xlink:href="#DejaVuSans-62" transform="translate(697.230469 0)"/>
      <use xlink:href="#DejaVuSans-61" transform="translate(760.707031 0)"/>
      <use xlink:href="#DejaVuSans-63" transform="translate(821.986328 0)"/>
      <use xlink:href="#DejaVuSans-6b" transform="translate(876.966797 0)"/>
     </g>
    </g>
   </g>
  </g>
 </g>
 <defs>
  <clipPath id="pf6688c7a9c">
   <rect x="7.2" y="27.077969" width="626.4" height="259.8908"/>
  </clipPath>
 </defs>
</svg>
