<?xml version="1.0" encoding="utf-8" standalone="no"?>
<!DOCTYPE svg PUBLIC "-//W3C//DTD SVG 1.1//EN"
  "http://www.w3.org/Graphics/SVG/1.1/DTD/svg11.dtd">
<svg xmlns:xlink="http://www.w3.org/1999/xlink" width="460.709062pt" height="315.931938pt" viewBox="0 0 460.709062 315.931938" xmlns="http://www.w3.org/2000/svg" version="1.1">
 <metadata>
  <rdf:RDF xmlns:dc="http://purl.org/dc/elements/1.1/" xmlns:cc="http://creativecommons.org/ns#" xmlns:rdf="http://www.w3.org/1999/02/22-rdf-syntax-ns#">
   <cc:Work>
    <dc:type rdf:resource="http://purl.org/dc/dcmitype/StillImage"/>
    <dc:date>2026-05-24T23:16:04.033589</dc:date>
    <dc:format>image/svg+xml</dc:format>
    <dc:creator>
     <cc:Agent>
      <dc:title>Matplotlib v3.10.9, https://matplotlib.org/</dc:title>
     </cc:Agent>
    </dc:creator>
   </cc:Work>
  </rdf:RDF>
 </metadata>
 <defs>
  <style type="text/css">*{stroke-linejoin: round; stroke-linecap: butt}</style>
 </defs>
 <g id="figure_1">
  <g id="patch_1">
   <path d="M 0 315.931938 
L 460.709062 315.931938 
L 460.709062 0 
L 0 0 
z
" style="fill: #ffffff"/>
  </g>
  <g id="axes_1">
   <g id="patch_2">
    <path d="M 44.249063 281.356 
L 453.509062 281.356 
L 453.509062 7.2 
L 44.249063 7.2 
z
" style="fill: #ffffff"/>
   </g>
   <g id="FillBetweenPolyCollection_1">
    <path d="M 106.930778 245.047304 
L 98.498776 245.047304 
L 97.859155 243.291181 
L 97.157082 241.535057 
L 96.387593 239.778933 
L 95.545174 238.02281 
L 94.624145 236.266686 
L 93.619216 234.510562 
L 92.526226 232.754439 
L 91.342997 230.998315 
L 90.070263 229.242191 
L 88.712599 227.486068 
L 87.279237 225.729944 
L 85.784692 223.973821 
L 84.249059 222.217697 
L 82.697911 220.461573 
L 81.161718 218.70545 
L 79.674758 216.949326 
L 78.273571 215.193202 
L 76.995027 213.437079 
L 75.874179 211.680955 
L 74.942077 209.924831 
L 74.223767 208.168708 
L 73.736672 206.412584 
L 73.48952 204.65646 
L 73.48192 202.900337 
L 73.704601 201.144213 
L 74.140286 199.38809 
L 74.765061 197.631966 
L 75.550085 195.875842 
L 76.463466 194.119719 
L 77.472133 192.363595 
L 78.543542 190.607471 
L 79.647136 188.851348 
L 80.755481 187.095224 
L 81.845072 185.3391 
L 82.896808 183.582977 
L 83.896195 181.826853 
L 84.833286 180.070729 
L 85.702446 178.314606 
L 86.501961 176.558482 
L 87.233543 174.802359 
L 87.901781 173.046235 
L 88.513557 171.290111 
L 89.077459 169.533988 
L 89.603212 167.777864 
L 90.101137 166.02174 
L 90.581629 164.265617 
L 91.054657 162.509493 
L 91.529289 160.753369 
L 92.013221 158.997246 
L 92.512348 157.241122 
L 93.030395 155.484999 
L 93.568634 153.728875 
L 94.125745 151.972751 
L 94.697857 150.216628 
L 95.278772 148.460504 
L 95.860401 146.70438 
L 96.433351 144.948257 
L 96.987631 143.192133 
L 97.513395 141.436009 
L 98.001651 139.679886 
L 98.444867 137.923762 
L 98.837429 136.167638 
L 99.175923 134.411515 
L 99.459249 132.655391 
L 99.688585 130.899268 
L 99.867239 129.143144 
L 100.000409 127.38702 
L 100.094883 125.630897 
L 100.158687 123.874773 
L 100.200685 122.118649 
L 100.230128 120.362526 
L 100.256161 118.606402 
L 100.287292 116.850278 
L 100.330874 115.094155 
L 100.392624 113.338031 
L 100.476245 111.581907 
L 100.583202 109.825784 
L 100.712676 108.06966 
L 100.861726 106.313537 
L 101.02563 104.557413 
L 101.198383 102.801289 
L 101.373275 101.045166 
L 101.543497 99.289042 
L 101.702707 97.532918 
L 101.845495 95.776795 
L 101.967722 94.020671 
L 102.066722 92.264547 
L 102.141361 90.508424 
L 102.191982 88.7523 
L 102.220264 86.996176 
L 102.229003 85.240053 
L 102.221863 83.483929 
L 102.203094 81.727806 
L 102.177236 79.971682 
L 102.14883 78.215558 
L 102.122136 76.459435 
L 102.100873 74.703311 
L 102.08801 72.947187 
L 102.085605 71.191064 
L 103.343948 71.191064 
L 103.343948 71.191064 
L 103.341544 72.947187 
L 103.32868 74.703311 
L 103.307418 76.459435 
L 103.280723 78.215558 
L 103.252318 79.971682 
L 103.22646 81.727806 
L 103.20769 83.483929 
L 103.200551 85.240053 
L 103.20929 86.996176 
L 103.237571 88.7523 
L 103.288193 90.508424 
L 103.362831 92.264547 
L 103.461831 94.020671 
L 103.584059 95.776795 
L 103.726847 97.532918 
L 103.886057 99.289042 
L 104.056279 101.045166 
L 104.23117 102.801289 
L 104.403923 104.557413 
L 104.567828 106.313537 
L 104.716877 108.06966 
L 104.846351 109.825784 
L 104.953308 111.581907 
L 105.03693 113.338031 
L 105.098679 115.094155 
L 105.142261 116.850278 
L 105.173393 118.606402 
L 105.199426 120.362526 
L 105.228869 122.118649 
L 105.270867 123.874773 
L 105.33467 125.630897 
L 105.429144 127.38702 
L 105.562315 129.143144 
L 105.740969 130.899268 
L 105.970305 132.655391 
L 106.25363 134.411515 
L 106.592124 136.167638 
L 106.984686 137.923762 
L 107.427903 139.679886 
L 107.916159 141.436009 
L 108.441922 143.192133 
L 108.996202 144.948257 
L 109.569152 146.70438 
L 110.150782 148.460504 
L 110.731697 150.216628 
L 111.303808 151.972751 
L 111.86092 153.728875 
L 112.399158 155.484999 
L 112.917205 157.241122 
L 113.416333 158.997246 
L 113.900264 160.753369 
L 114.374896 162.509493 
L 114.847925 164.265617 
L 115.328417 166.02174 
L 115.826342 167.777864 
L 116.352095 169.533988 
L 116.915996 171.290111 
L 117.527772 173.046235 
L 118.196011 174.802359 
L 118.927593 176.558482 
L 119.727107 178.314606 
L 120.596268 180.070729 
L 121.533359 181.826853 
L 122.532745 183.582977 
L 123.584482 185.3391 
L 124.674072 187.095224 
L 125.782418 188.851348 
L 126.886012 190.607471 
L 127.957421 192.363595 
L 128.966087 194.119719 
L 129.879469 195.875842 
L 130.664492 197.631966 
L 131.289267 199.38809 
L 131.724953 201.144213 
L 131.947634 202.900337 
L 131.940033 204.65646 
L 131.692882 206.412584 
L 131.205787 208.168708 
L 130.487477 209.924831 
L 129.555374 211.680955 
L 128.434526 213.437079 
L 127.155983 215.193202 
L 125.754796 216.949326 
L 124.267836 218.70545 
L 122.731642 220.461573 
L 121.180495 222.217697 
L 119.644862 223.973821 
L 118.150317 225.729944 
L 116.716955 227.486068 
L 115.35929 229.242191 
L 114.086557 230.998315 
L 112.903328 232.754439 
L 111.810338 234.510562 
L 110.805409 236.266686 
L 109.884379 238.02281 
L 109.041961 239.778933 
L 108.272472 241.535057 
L 107.570398 243.291181 
L 106.930778 245.047304 
z
" clip-path="url(#p432dd9f69b)" style="fill: #4c72b0; fill-opacity: 0.35"/>
   </g>
   <g id="FillBetweenPolyCollection_2">
    <path d="M 212.425076 244.058351 
L 187.890192 244.058351 
L 186.430902 242.556245 
L 184.970705 241.054138 
L 183.533674 239.552031 
L 182.141957 238.049924 
L 180.814559 236.547817 
L 179.566401 235.04571 
L 178.407769 233.543603 
L 177.344185 232.041496 
L 176.376738 230.539389 
L 175.502809 229.037282 
L 174.717119 227.535175 
L 174.012978 226.033069 
L 173.383588 224.530962 
L 172.823271 223.028855 
L 172.328504 221.526748 
L 171.898653 220.024641 
L 171.536379 218.522534 
L 171.247679 217.020427 
L 171.04159 215.51832 
L 170.929595 214.016213 
L 170.924777 212.514106 
L 171.040793 211.012 
L 171.29072 209.509893 
L 171.685849 208.007786 
L 172.234491 206.505679 
L 172.940886 205.003572 
L 173.804303 203.501465 
L 174.818414 201.999358 
L 175.97105 200.497251 
L 177.244375 198.995144 
L 178.615531 197.493037 
L 180.057717 195.99093 
L 181.541626 194.488824 
L 183.037135 192.986717 
L 184.515046 191.48461 
L 185.948739 189.982503 
L 187.31553 188.480396 
L 188.597628 186.978289 
L 189.782579 185.476182 
L 190.863217 183.974075 
L 191.837152 182.471968 
L 192.705915 180.969861 
L 193.473923 179.467755 
L 194.147393 177.965648 
L 194.733392 176.463541 
L 195.239085 174.961434 
L 195.671282 173.459327 
L 196.036255 171.95722 
L 196.339798 170.455113 
L 196.58745 168.953006 
L 196.784779 167.450899 
L 196.937643 165.948792 
L 197.052354 164.446685 
L 197.135702 162.944579 
L 197.194836 161.442472 
L 197.237023 159.940365 
L 197.269331 158.438258 
L 197.298303 156.936151 
L 197.329657 155.434044 
L 197.368079 153.931937 
L 197.417118 152.42983 
L 197.479174 150.927723 
L 197.555584 149.425616 
L 197.646752 147.92351 
L 197.752297 146.421403 
L 197.871189 144.919296 
L 198.001855 143.417189 
L 198.142241 141.915082 
L 198.289858 140.412975 
L 198.441814 138.910868 
L 198.594862 137.408761 
L 198.745486 135.906654 
L 198.890035 134.404547 
L 199.024893 132.90244 
L 199.146698 131.400334 
L 199.252559 129.898227 
L 199.340273 128.39612 
L 199.408491 126.894013 
L 199.456827 125.391906 
L 199.485879 123.889799 
L 199.497176 122.387692 
L 199.493033 120.885585 
L 199.476345 119.383478 
L 199.450342 117.881371 
L 199.418324 116.379265 
L 199.383422 114.877158 
L 199.348396 113.375051 
L 199.31551 111.872944 
L 199.286474 110.370837 
L 199.262473 108.86873 
L 199.244249 107.366623 
L 199.232234 105.864516 
L 199.226679 104.362409 
L 199.227781 102.860302 
L 199.235756 101.358195 
L 199.250859 99.856089 
L 199.273351 98.353982 
L 199.303422 96.851875 
L 199.341081 95.349768 
L 200.974187 95.349768 
L 200.974187 95.349768 
L 201.011846 96.851875 
L 201.041917 98.353982 
L 201.064409 99.856089 
L 201.079512 101.358195 
L 201.087487 102.860302 
L 201.088589 104.362409 
L 201.083034 105.864516 
L 201.071018 107.366623 
L 201.052795 108.86873 
L 201.028793 110.370837 
L 200.999758 111.872944 
L 200.966871 113.375051 
L 200.931846 114.877158 
L 200.896944 116.379265 
L 200.864926 117.881371 
L 200.838923 119.383478 
L 200.822235 120.885585 
L 200.818092 122.387692 
L 200.829389 123.889799 
L 200.858441 125.391906 
L 200.906777 126.894013 
L 200.974995 128.39612 
L 201.062709 129.898227 
L 201.16857 131.400334 
L 201.290375 132.90244 
L 201.425233 134.404547 
L 201.569782 135.906654 
L 201.720406 137.408761 
L 201.873454 138.910868 
L 202.02541 140.412975 
L 202.173027 141.915082 
L 202.313413 143.417189 
L 202.444079 144.919296 
L 202.562971 146.421403 
L 202.668516 147.92351 
L 202.759684 149.425616 
L 202.836094 150.927723 
L 202.89815 152.42983 
L 202.947188 153.931937 
L 202.985611 155.434044 
L 203.016965 156.936151 
L 203.045936 158.438258 
L 203.078245 159.940365 
L 203.120432 161.442472 
L 203.179566 162.944579 
L 203.262914 164.446685 
L 203.377625 165.948792 
L 203.530489 167.450899 
L 203.727818 168.953006 
L 203.97547 170.455113 
L 204.279013 171.95722 
L 204.643986 173.459327 
L 205.076183 174.961434 
L 205.581876 176.463541 
L 206.167875 177.965648 
L 206.841345 179.467755 
L 207.609352 180.969861 
L 208.478116 182.471968 
L 209.45205 183.974075 
L 210.532689 185.476182 
L 211.71764 186.978289 
L 212.999737 188.480396 
L 214.366529 189.982503 
L 215.800222 191.48461 
L 217.278133 192.986717 
L 218.773642 194.488824 
L 220.257551 195.99093 
L 221.699736 197.493037 
L 223.070893 198.995144 
L 224.344218 200.497251 
L 225.496854 201.999358 
L 226.510965 203.501465 
L 227.374381 205.003572 
L 228.080777 206.505679 
L 228.629419 208.007786 
L 229.024548 209.509893 
L 229.274475 211.012 
L 229.390491 212.514106 
L 229.385673 214.016213 
L 229.273678 215.51832 
L 229.067589 217.020427 
L 228.778889 218.522534 
L 228.416615 220.024641 
L 227.986764 221.526748 
L 227.491997 223.028855 
L 226.93168 224.530962 
L 226.30229 226.033069 
L 225.598149 227.535175 
L 224.812459 229.037282 
L 223.93853 230.539389 
L 222.971083 232.041496 
L 221.907499 233.543603 
L 220.748866 235.04571 
L 219.500709 236.547817 
L 218.17331 238.049924 
L 216.781594 239.552031 
L 215.344562 241.054138 
L 213.884366 242.556245 
L 212.425076 244.058351 
z
" clip-path="url(#p432dd9f69b)" style="fill: #55a868; fill-opacity: 0.35"/>
   </g>
   <g id="FillBetweenPolyCollection_3">
    <path d="M 303.530304 260.961965 
L 291.670678 260.961965 
L 290.66764 260.064176 
L 289.562448 259.166387 
L 288.359473 258.268598 
L 287.066364 257.37081 
L 285.69411 256.473021 
L 284.256927 255.575232 
L 282.77197 254.677443 
L 281.258886 253.779654 
L 279.739231 252.881865 
L 278.235778 251.984077 
L 276.771768 251.086288 
L 275.370143 250.188499 
L 274.052804 249.29071 
L 272.839919 248.392921 
L 271.749326 247.495132 
L 270.79603 246.597344 
L 269.991814 245.699555 
L 269.344961 244.801766 
L 268.86008 243.903977 
L 268.538045 243.006188 
L 268.376027 242.108399 
L 268.367634 241.210611 
L 268.503153 240.312822 
L 268.769896 239.415033 
L 269.152652 238.517244 
L 269.63424 237.619455 
L 270.196146 236.721666 
L 270.819236 235.823878 
L 271.484495 234.926089 
L 272.173771 234.0283 
L 272.870475 233.130511 
L 273.560183 232.232722 
L 274.231122 231.334933 
L 274.874475 230.437145 
L 275.484521 229.539356 
L 276.058573 228.641567 
L 276.596741 227.743778 
L 277.101541 226.845989 
L 277.577374 225.9482 
L 278.02994 225.050412 
L 278.465617 224.152623 
L 278.890863 223.254834 
L 279.311676 222.357045 
L 279.733158 221.459256 
L 280.159201 220.561467 
L 280.592299 219.663679 
L 281.03351 218.76589 
L 281.482524 217.868101 
L 281.937849 216.970312 
L 282.397067 216.072523 
L 282.857134 215.174734 
L 283.314701 214.276946 
L 283.76642 213.379157 
L 284.209215 212.481368 
L 284.640504 211.583579 
L 285.058361 210.68579 
L 285.461615 209.788002 
L 285.849893 208.890213 
L 286.223607 207.992424 
L 286.583908 207.094635 
L 286.932592 206.196846 
L 287.271993 205.299057 
L 287.604847 204.401269 
L 287.934133 203.50348 
L 288.262912 202.605691 
L 288.594135 201.707902 
L 288.930458 200.810113 
L 289.27405 199.912324 
L 289.626409 199.014536 
L 289.98821 198.116747 
L 290.359186 197.218958 
L 290.738065 196.321169 
L 291.122571 195.42338 
L 291.509499 194.525591 
L 291.89486 193.627803 
L 292.274094 192.730014 
L 292.642328 191.832225 
L 292.994676 190.934436 
L 293.326541 190.036647 
L 293.633907 189.138858 
L 293.913597 188.24107 
L 294.163462 187.343281 
L 294.382519 186.445492 
L 294.570992 185.547703 
L 294.730288 184.649914 
L 294.862887 183.752125 
L 294.972176 182.854337 
L 295.062226 181.956548 
L 295.137549 181.058759 
L 295.202824 180.16097 
L 295.262644 179.263181 
L 295.321276 178.365392 
L 295.382455 177.467604 
L 295.44923 176.569815 
L 295.523857 175.672026 
L 295.607753 174.774237 
L 295.701491 173.876448 
L 295.80486 172.978659 
L 295.916952 172.080871 
L 299.28403 172.080871 
L 299.28403 172.080871 
L 299.396122 172.978659 
L 299.499491 173.876448 
L 299.593229 174.774237 
L 299.677125 175.672026 
L 299.751753 176.569815 
L 299.818528 177.467604 
L 299.879706 178.365392 
L 299.938338 179.263181 
L 299.998158 180.16097 
L 300.063434 181.058759 
L 300.138756 181.956548 
L 300.228807 182.854337 
L 300.338095 183.752125 
L 300.470694 184.649914 
L 300.62999 185.547703 
L 300.818463 186.445492 
L 301.03752 187.343281 
L 301.287386 188.24107 
L 301.567075 189.138858 
L 301.874441 190.036647 
L 302.206306 190.934436 
L 302.558654 191.832225 
L 302.926888 192.730014 
L 303.306122 193.627803 
L 303.691484 194.525591 
L 304.078412 195.42338 
L 304.462917 196.321169 
L 304.841796 197.218958 
L 305.212772 198.116747 
L 305.574573 199.014536 
L 305.926932 199.912324 
L 306.270524 200.810113 
L 306.606848 201.707902 
L 306.93807 202.605691 
L 307.266849 203.50348 
L 307.596136 204.401269 
L 307.928989 205.299057 
L 308.26839 206.196846 
L 308.617075 207.094635 
L 308.977375 207.992424 
L 309.35109 208.890213 
L 309.739367 209.788002 
L 310.142621 210.68579 
L 310.560478 211.583579 
L 310.991767 212.481368 
L 311.434562 213.379157 
L 311.886281 214.276946 
L 312.343848 215.174734 
L 312.803915 216.072523 
L 313.263133 216.970312 
L 313.718458 217.868101 
L 314.167472 218.76589 
L 314.608683 219.663679 
L 315.041781 220.561467 
L 315.467824 221.459256 
L 315.889306 222.357045 
L 316.310119 223.254834 
L 316.735365 224.152623 
L 317.171042 225.050412 
L 317.623608 225.9482 
L 318.099441 226.845989 
L 318.604241 227.743778 
L 319.142409 228.641567 
L 319.716461 229.539356 
L 320.326507 230.437145 
L 320.96986 231.334933 
L 321.640799 232.232722 
L 322.330508 233.130511 
L 323.027211 234.0283 
L 323.716488 234.926089 
L 324.381746 235.823878 
L 325.004836 236.721666 
L 325.566742 237.619455 
L 326.04833 238.517244 
L 326.431086 239.415033 
L 326.697829 240.312822 
L 326.833348 241.210611 
L 326.824955 242.108399 
L 326.662937 243.006188 
L 326.340902 243.903977 
L 325.856021 244.801766 
L 325.209168 245.699555 
L 324.404952 246.597344 
L 323.451656 247.495132 
L 322.361063 248.392921 
L 321.148178 249.29071 
L 319.830839 250.188499 
L 318.429215 251.086288 
L 316.965204 251.984077 
L 315.461751 252.881865 
L 313.942096 253.779654 
L 312.429012 254.677443 
L 310.944055 255.575232 
L 309.506872 256.473021 
L 308.134618 257.37081 
L 306.841509 258.268598 
L 305.638534 259.166387 
L 304.533342 260.064176 
L 303.530304 260.961965 
z
" clip-path="url(#p432dd9f69b)" style="fill: #c44e52; fill-opacity: 0.35"/>
   </g>
   <g id="FillBetweenPolyCollection_4">
    <path d="M 400.51341 265.840245 
L 389.573286 265.840245 
L 388.8223 265.258004 
L 388.013218 264.675763 
L 387.144221 264.093523 
L 386.213371 263.511282 
L 385.218978 262.929042 
L 384.160103 262.346801 
L 383.037165 261.76456 
L 381.852579 261.18232 
L 380.611355 260.600079 
L 379.321562 260.017839 
L 377.994608 259.435598 
L 376.645247 258.853357 
L 375.291303 258.271117 
L 373.953112 257.688876 
L 372.652697 257.106636 
L 371.412769 256.524395 
L 370.255627 255.942154 
L 369.202062 255.359914 
L 368.270373 254.777673 
L 367.475584 254.195432 
L 366.828919 253.613192 
L 366.337584 253.030951 
L 366.004833 252.448711 
L 365.830294 251.86647 
L 365.810491 251.284229 
L 365.939465 250.701989 
L 366.209418 250.119748 
L 366.611297 249.537508 
L 367.135261 248.955267 
L 367.770987 248.373026 
L 368.507828 247.790786 
L 369.334827 247.208545 
L 370.240648 246.626305 
L 371.213464 246.044064 
L 372.240862 245.461823 
L 373.30982 244.879583 
L 374.406764 244.297342 
L 375.517752 243.715101 
L 376.628737 243.132861 
L 377.725935 242.55062 
L 378.796217 241.96838 
L 379.827536 241.386139 
L 380.80931 240.803898 
L 381.732763 240.221658 
L 382.591179 239.639417 
L 383.380053 239.057177 
L 384.097141 238.474936 
L 384.7424 237.892695 
L 385.317828 237.310455 
L 385.827216 236.728214 
L 386.275844 236.145974 
L 386.670128 235.563733 
L 387.017254 234.981492 
L 387.324829 234.399252 
L 387.600552 233.817011 
L 387.851943 233.23477 
L 388.086115 232.65253 
L 388.309614 232.070289 
L 388.528294 231.488049 
L 388.747242 230.905808 
L 388.970722 230.323567 
L 389.202139 229.741327 
L 389.444008 229.159086 
L 389.697931 228.576846 
L 389.964576 227.994605 
L 390.243669 227.412364 
L 390.534006 226.830124 
L 390.833491 226.247883 
L 391.139204 225.665643 
L 391.447507 225.083402 
L 391.754185 224.501161 
L 392.054616 223.918921 
L 392.343963 223.33668 
L 392.617385 222.754439 
L 392.870252 222.172199 
L 393.098355 221.589958 
L 393.298105 221.007718 
L 393.466712 220.425477 
L 393.602337 219.843236 
L 393.704209 219.260996 
L 393.772695 218.678755 
L 393.809332 218.096515 
L 393.816786 217.514274 
L 393.798772 216.932033 
L 393.759896 216.349793 
L 393.705456 215.767552 
L 393.641185 215.185312 
L 393.572975 214.603071 
L 393.506578 214.02083 
L 393.447318 213.43859 
L 393.399838 212.856349 
L 393.367889 212.274108 
L 393.354189 211.691868 
L 393.360343 211.109627 
L 393.386851 210.527387 
L 393.433169 209.945146 
L 393.497838 209.362905 
L 393.578644 208.780665 
L 393.672817 208.198424 
L 396.413879 208.198424 
L 396.413879 208.198424 
L 396.508052 208.780665 
L 396.588859 209.362905 
L 396.653527 209.945146 
L 396.699845 210.527387 
L 396.726354 211.109627 
L 396.732508 211.691868 
L 396.718807 212.274108 
L 396.686859 212.856349 
L 396.639379 213.43859 
L 396.580119 214.02083 
L 396.513721 214.603071 
L 396.445511 215.185312 
L 396.381241 215.767552 
L 396.3268 216.349793 
L 396.287924 216.932033 
L 396.26991 217.514274 
L 396.277365 218.096515 
L 396.314001 218.678755 
L 396.382488 219.260996 
L 396.484359 219.843236 
L 396.619985 220.425477 
L 396.788592 221.007718 
L 396.988342 221.589958 
L 397.216444 222.172199 
L 397.469312 222.754439 
L 397.742734 223.33668 
L 398.032081 223.918921 
L 398.332511 224.501161 
L 398.63919 225.083402 
L 398.947493 225.665643 
L 399.253206 226.247883 
L 399.55269 226.830124 
L 399.843027 227.412364 
L 400.12212 227.994605 
L 400.388765 228.576846 
L 400.642688 229.159086 
L 400.884558 229.741327 
L 401.115974 230.323567 
L 401.339454 230.905808 
L 401.558402 231.488049 
L 401.777082 232.070289 
L 402.000581 232.65253 
L 402.234754 233.23477 
L 402.486144 233.817011 
L 402.761867 234.399252 
L 403.069442 234.981492 
L 403.416568 235.563733 
L 403.810852 236.145974 
L 404.25948 236.728214 
L 404.768869 237.310455 
L 405.344296 237.892695 
L 405.989555 238.474936 
L 406.706644 239.057177 
L 407.495518 239.639417 
L 408.353933 240.221658 
L 409.277387 240.803898 
L 410.259161 241.386139 
L 411.290479 241.96838 
L 412.360762 242.55062 
L 413.457959 243.132861 
L 414.568945 243.715101 
L 415.679932 244.297342 
L 416.776877 244.879583 
L 417.845834 245.461823 
L 418.873233 246.044064 
L 419.846048 246.626305 
L 420.751869 247.208545 
L 421.578869 247.790786 
L 422.315709 248.373026 
L 422.951436 248.955267 
L 423.475399 249.537508 
L 423.877279 250.119748 
L 424.147231 250.701989 
L 424.276205 251.284229 
L 424.256403 251.86647 
L 424.081864 252.448711 
L 423.749112 253.030951 
L 423.257777 253.613192 
L 422.611113 254.195432 
L 421.816324 254.777673 
L 420.884635 255.359914 
L 419.831069 255.942154 
L 418.673927 256.524395 
L 417.433999 257.106636 
L 416.133584 257.688876 
L 414.795393 258.271117 
L 413.44145 258.853357 
L 412.092088 259.435598 
L 410.765134 260.017839 
L 409.475342 260.600079 
L 408.234117 261.18232 
L 407.049532 261.76456 
L 405.926594 262.346801 
L 404.867718 262.929042 
L 403.873325 263.511282 
L 402.942476 264.093523 
L 402.073479 264.675763 
L 401.264397 265.258004 
L 400.51341 265.840245 
z
" clip-path="url(#p432dd9f69b)" style="fill: #8172b2; fill-opacity: 0.35"/>
   </g>
   <g id="matplotlib.axis_1">
    <g id="xtick_1">
     <g id="line2d_1">
      <defs>
       <path id="med429a22f9" d="M 0 0 
L 0 3 
" style="stroke: #000000; stroke-width: 0.8"/>
      </defs>
      <g>
       <use xlink:href="#med429a22f9" x="102.714777" y="281.356" style="stroke: #000000; stroke-width: 0.8"/>
      </g>
     </g>
     <g id="text_1">
      <!-- Control -->
      <g transform="translate(84.643683 295.454438) scale(0.1 -0.1)">
       <defs>
        <path id="DejaVuSans-43" d="M 4122 4306 
L 4122 3641 
Q 3803 3938 3442 4084 
Q 3081 4231 2675 4231 
Q 1875 4231 1450 3742 
Q 1025 3253 1025 2328 
Q 1025 1406 1450 917 
Q 1875 428 2675 428 
Q 3081 428 3442 575 
Q 3803 722 4122 1019 
L 4122 359 
Q 3791 134 3420 21 
Q 3050 -91 2638 -91 
Q 1578 -91 968 557 
Q 359 1206 359 2328 
Q 359 3453 968 4101 
Q 1578 4750 2638 4750 
Q 3056 4750 3426 4639 
Q 3797 4528 4122 4306 
z
" transform="scale(0.015625)"/>
        <path id="DejaVuSans-6f" d="M 1959 3097 
Q 1497 3097 1228 2736 
Q 959 2375 959 1747 
Q 959 1119 1226 758 
Q 1494 397 1959 397 
Q 2419 397 2687 759 
Q 2956 1122 2956 1747 
Q 2956 2369 2687 2733 
Q 2419 3097 1959 3097 
z
M 1959 3584 
Q 2709 3584 3137 3096 
Q 3566 2609 3566 1747 
Q 3566 888 3137 398 
Q 2709 -91 1959 -91 
Q 1206 -91 779 398 
Q 353 888 353 1747 
Q 353 2609 779 3096 
Q 1206 3584 1959 3584 
z
" transform="scale(0.015625)"/>
        <path id="DejaVuSans-6e" d="M 3513 2113 
L 3513 0 
L 2938 0 
L 2938 2094 
Q 2938 2591 2744 2837 
Q 2550 3084 2163 3084 
Q 1697 3084 1428 2787 
Q 1159 2491 1159 1978 
L 1159 0 
L 581 0 
L 581 3500 
L 1159 3500 
L 1159 2956 
Q 1366 3272 1645 3428 
Q 1925 3584 2291 3584 
Q 2894 3584 3203 3211 
Q 3513 2838 3513 2113 
z
" transform="scale(0.015625)"/>
        <path id="DejaVuSans-74" d="M 1172 4494 
L 1172 3500 
L 2356 3500 
L 2356 3053 
L 1172 3053 
L 1172 1153 
Q 1172 725 1289 603 
Q 1406 481 1766 481 
L 2356 481 
L 2356 0 
L 1766 0 
Q 1100 0 847 248 
Q 594 497 594 1153 
L 594 3053 
L 172 3053 
L 172 3500 
L 594 3500 
L 594 4494 
L 1172 4494 
z
" transform="scale(0.015625)"/>
        <path id="DejaVuSans-72" d="M 2631 2963 
Q 2534 3019 2420 3045 
Q 2306 3072 2169 3072 
Q 1681 3072 1420 2755 
Q 1159 2438 1159 1844 
L 1159 0 
L 581 0 
L 581 3500 
L 1159 3500 
L 1159 2956 
Q 1341 3275 1631 3429 
Q 1922 3584 2338 3584 
Q 2397 3584 2469 3576 
Q 2541 3569 2628 3553 
L 2631 2963 
z
" transform="scale(0.015625)"/>
        <path id="DejaVuSans-6c" d="M 603 4863 
L 1178 4863 
L 1178 0 
L 603 0 
L 603 4863 
z
" transform="scale(0.015625)"/>
       </defs>
       <use xlink:href="#DejaVuSans-43"/>
       <use xlink:href="#DejaVuSans-6f" transform="translate(69.824219 0)"/>
       <use xlink:href="#DejaVuSans-6e" transform="translate(131.005859 0)"/>
       <use xlink:href="#DejaVuSans-74" transform="translate(194.384766 0)"/>
       <use xlink:href="#DejaVuSans-72" transform="translate(233.59375 0)"/>
       <use xlink:href="#DejaVuSans-6f" transform="translate(272.457031 0)"/>
       <use xlink:href="#DejaVuSans-6c" transform="translate(333.638672 0)"/>
      </g>
     </g>
    </g>
    <g id="xtick_2">
     <g id="line2d_2">
      <g>
       <use xlink:href="#med429a22f9" x="200.157634" y="281.356" style="stroke: #000000; stroke-width: 0.8"/>
      </g>
     </g>
     <g id="text_2">
      <!-- Drug-A -->
      <g transform="translate(182.797478 295.454438) scale(0.1 -0.1)">
       <defs>
        <path id="DejaVuSans-44" d="M 1259 4147 
L 1259 519 
L 2022 519 
Q 2988 519 3436 956 
Q 3884 1394 3884 2338 
Q 3884 3275 3436 3711 
Q 2988 4147 2022 4147 
L 1259 4147 
z
M 628 4666 
L 1925 4666 
Q 3281 4666 3915 4102 
Q 4550 3538 4550 2338 
Q 4550 1131 3912 565 
Q 3275 0 1925 0 
L 628 0 
L 628 4666 
z
" transform="scale(0.015625)"/>
        <path id="DejaVuSans-75" d="M 544 1381 
L 544 3500 
L 1119 3500 
L 1119 1403 
Q 1119 906 1312 657 
Q 1506 409 1894 409 
Q 2359 409 2629 706 
Q 2900 1003 2900 1516 
L 2900 3500 
L 3475 3500 
L 3475 0 
L 2900 0 
L 2900 538 
Q 2691 219 2414 64 
Q 2138 -91 1772 -91 
Q 1169 -91 856 284 
Q 544 659 544 1381 
z
M 1991 3584 
L 1991 3584 
z
" transform="scale(0.015625)"/>
        <path id="DejaVuSans-67" d="M 2906 1791 
Q 2906 2416 2648 2759 
Q 2391 3103 1925 3103 
Q 1463 3103 1205 2759 
Q 947 2416 947 1791 
Q 947 1169 1205 825 
Q 1463 481 1925 481 
Q 2391 481 2648 825 
Q 2906 1169 2906 1791 
z
M 3481 434 
Q 3481 -459 3084 -895 
Q 2688 -1331 1869 -1331 
Q 1566 -1331 1297 -1286 
Q 1028 -1241 775 -1147 
L 775 -588 
Q 1028 -725 1275 -790 
Q 1522 -856 1778 -856 
Q 2344 -856 2625 -561 
Q 2906 -266 2906 331 
L 2906 616 
Q 2728 306 2450 153 
Q 2172 0 1784 0 
Q 1141 0 747 490 
Q 353 981 353 1791 
Q 353 2603 747 3093 
Q 1141 3584 1784 3584 
Q 2172 3584 2450 3431 
Q 2728 3278 2906 2969 
L 2906 3500 
L 3481 3500 
L 3481 434 
z
" transform="scale(0.015625)"/>
        <path id="DejaVuSans-2d" d="M 313 2009 
L 1997 2009 
L 1997 1497 
L 313 1497 
L 313 2009 
z
" transform="scale(0.015625)"/>
        <path id="DejaVuSans-41" d="M 2188 4044 
L 1331 1722 
L 3047 1722 
L 2188 4044 
z
M 1831 4666 
L 2547 4666 
L 4325 0 
L 3669 0 
L 3244 1197 
L 1141 1197 
L 716 0 
L 50 0 
L 1831 4666 
z
" transform="scale(0.015625)"/>
       </defs>
       <use xlink:href="#DejaVuSans-44"/>
       <use xlink:href="#DejaVuSans-72" transform="translate(77.001953 0)"/>
       <use xlink:href="#DejaVuSans-75" transform="translate(118.115234 0)"/>
       <use xlink:href="#DejaVuSans-67" transform="translate(181.494141 0)"/>
       <use xlink:href="#DejaVuSans-2d" transform="translate(244.970703 0)"/>
       <use xlink:href="#DejaVuSans-41" transform="translate(278.804688 0)"/>
      </g>
      <!-- 10μM -->
      <g transform="translate(186.299821 306.65225) scale(0.1 -0.1)">
       <defs>
        <path id="DejaVuSans-31" d="M 794 531 
L 1825 531 
L 1825 4091 
L 703 3866 
L 703 4441 
L 1819 4666 
L 2450 4666 
L 2450 531 
L 3481 531 
L 3481 0 
L 794 0 
L 794 531 
z
" transform="scale(0.015625)"/>
        <path id="DejaVuSans-30" d="M 2034 4250 
Q 1547 4250 1301 3770 
Q 1056 3291 1056 2328 
Q 1056 1369 1301 889 
Q 1547 409 2034 409 
Q 2525 409 2770 889 
Q 3016 1369 3016 2328 
Q 3016 3291 2770 3770 
Q 2525 4250 2034 4250 
z
M 2034 4750 
Q 2819 4750 3233 4129 
Q 3647 3509 3647 2328 
Q 3647 1150 3233 529 
Q 2819 -91 2034 -91 
Q 1250 -91 836 529 
Q 422 1150 422 2328 
Q 422 3509 836 4129 
Q 1250 4750 2034 4750 
z
" transform="scale(0.015625)"/>
        <path id="DejaVuSans-3bc" d="M 544 -1331 
L 544 3500 
L 1119 3500 
L 1119 1325 
Q 1119 872 1334 640 
Q 1550 409 1972 409 
Q 2434 409 2667 671 
Q 2900 934 2900 1459 
L 2900 3500 
L 3475 3500 
L 3475 806 
Q 3475 619 3529 530 
Q 3584 441 3700 441 
Q 3728 441 3778 458 
Q 3828 475 3916 513 
L 3916 50 
Q 3788 -22 3673 -56 
Q 3559 -91 3450 -91 
Q 3234 -91 3106 31 
Q 2978 153 2931 403 
Q 2775 156 2548 32 
Q 2322 -91 2016 -91 
Q 1697 -91 1473 31 
Q 1250 153 1119 397 
L 1119 -1331 
L 544 -1331 
z
" transform="scale(0.015625)"/>
        <path id="DejaVuSans-4d" d="M 628 4666 
L 1569 4666 
L 2759 1491 
L 3956 4666 
L 4897 4666 
L 4897 0 
L 4281 0 
L 4281 4097 
L 3078 897 
L 2444 897 
L 1241 4097 
L 1241 0 
L 628 0 
L 628 4666 
z
" transform="scale(0.015625)"/>
       </defs>
       <use xlink:href="#DejaVuSans-31"/>
       <use xlink:href="#DejaVuSans-30" transform="translate(63.623047 0)"/>
       <use xlink:href="#DejaVuSans-3bc" transform="translate(127.246094 0)"/>
       <use xlink:href="#DejaVuSans-4d" transform="translate(190.869141 0)"/>
      </g>
     </g>
    </g>
    <g id="xtick_3">
     <g id="line2d_3">
      <g>
       <use xlink:href="#med429a22f9" x="297.600491" y="281.356" style="stroke: #000000; stroke-width: 0.8"/>
      </g>
     </g>
     <g id="text_3">
      <!-- Drug-A -->
      <g transform="translate(280.240335 295.454438) scale(0.1 -0.1)">
       <use xlink:href="#DejaVuSans-44"/>
       <use xlink:href="#DejaVuSans-72" transform="translate(77.001953 0)"/>
       <use xlink:href="#DejaVuSans-75" transform="translate(118.115234 0)"/>
       <use xlink:href="#DejaVuSans-67" transform="translate(181.494141 0)"/>
       <use xlink:href="#DejaVuSans-2d" transform="translate(244.970703 0)"/>
       <use xlink:href="#DejaVuSans-41" transform="translate(278.804688 0)"/>
      </g>
      <!-- 50μM -->
      <g transform="translate(283.742679 306.65225) scale(0.1 -0.1)">
       <defs>
        <path id="DejaVuSans-35" d="M 691 4666 
L 3169 4666 
L 3169 4134 
L 1269 4134 
L 1269 2991 
Q 1406 3038 1543 3061 
Q 1681 3084 1819 3084 
Q 2600 3084 3056 2656 
Q 3513 2228 3513 1497 
Q 3513 744 3044 326 
Q 2575 -91 1722 -91 
Q 1428 -91 1123 -41 
Q 819 9 494 109 
L 494 744 
Q 775 591 1075 516 
Q 1375 441 1709 441 
Q 2250 441 2565 725 
Q 2881 1009 2881 1497 
Q 2881 1984 2565 2268 
Q 2250 2553 1709 2553 
Q 1456 2553 1204 2497 
Q 953 2441 691 2322 
L 691 4666 
z
" transform="scale(0.015625)"/>
       </defs>
       <use xlink:href="#DejaVuSans-35"/>
       <use xlink:href="#DejaVuSans-30" transform="translate(63.623047 0)"/>
       <use xlink:href="#DejaVuSans-3bc" transform="translate(127.246094 0)"/>
       <use xlink:href="#DejaVuSans-4d" transform="translate(190.869141 0)"/>
      </g>
     </g>
    </g>
    <g id="xtick_4">
     <g id="line2d_4">
      <g>
       <use xlink:href="#med429a22f9" x="395.043348" y="281.356" style="stroke: #000000; stroke-width: 0.8"/>
      </g>
     </g>
     <g id="text_4">
      <!-- Combo -->
      <g transform="translate(377.388661 295.454438) scale(0.1 -0.1)">
       <defs>
        <path id="DejaVuSans-6d" d="M 3328 2828 
Q 3544 3216 3844 3400 
Q 4144 3584 4550 3584 
Q 5097 3584 5394 3201 
Q 5691 2819 5691 2113 
L 5691 0 
L 5113 0 
L 5113 2094 
Q 5113 2597 4934 2840 
Q 4756 3084 4391 3084 
Q 3944 3084 3684 2787 
Q 3425 2491 3425 1978 
L 3425 0 
L 2847 0 
L 2847 2094 
Q 2847 2600 2669 2842 
Q 2491 3084 2119 3084 
Q 1678 3084 1418 2786 
Q 1159 2488 1159 1978 
L 1159 0 
L 581 0 
L 581 3500 
L 1159 3500 
L 1159 2956 
Q 1356 3278 1631 3431 
Q 1906 3584 2284 3584 
Q 2666 3584 2933 3390 
Q 3200 3197 3328 2828 
z
" transform="scale(0.015625)"/>
        <path id="DejaVuSans-62" d="M 3116 1747 
Q 3116 2381 2855 2742 
Q 2594 3103 2138 3103 
Q 1681 3103 1420 2742 
Q 1159 2381 1159 1747 
Q 1159 1113 1420 752 
Q 1681 391 2138 391 
Q 2594 391 2855 752 
Q 3116 1113 3116 1747 
z
M 1159 2969 
Q 1341 3281 1617 3432 
Q 1894 3584 2278 3584 
Q 2916 3584 3314 3078 
Q 3713 2572 3713 1747 
Q 3713 922 3314 415 
Q 2916 -91 2278 -91 
Q 1894 -91 1617 61 
Q 1341 213 1159 525 
L 1159 0 
L 581 0 
L 581 4863 
L 1159 4863 
L 1159 2969 
z
" transform="scale(0.015625)"/>
       </defs>
       <use xlink:href="#DejaVuSans-43"/>
       <use xlink:href="#DejaVuSans-6f" transform="translate(69.824219 0)"/>
       <use xlink:href="#DejaVuSans-6d" transform="translate(131.005859 0)"/>
       <use xlink:href="#DejaVuSans-62" transform="translate(228.417969 0)"/>
       <use xlink:href="#DejaVuSans-6f" transform="translate(291.894531 0)"/>
      </g>
     </g>
    </g>
   </g>
   <g id="matplotlib.axis_2">
    <g id="ytick_1">
     <g id="line2d_5">
      <defs>
       <path id="m597fa664e6" d="M 0 0 
L -3 0 
" style="stroke: #000000; stroke-width: 0.8"/>
      </defs>
      <g>
       <use xlink:href="#m597fa664e6" x="44.249063" y="277.200736" style="stroke: #000000; stroke-width: 0.8"/>
      </g>
     </g>
     <g id="text_5">
      <!-- 0.0 -->
      <g transform="translate(21.845938 280.999955) scale(0.1 -0.1)">
       <defs>
        <path id="DejaVuSans-2e" d="M 684 794 
L 1344 794 
L 1344 0 
L 684 0 
L 684 794 
z
" transform="scale(0.015625)"/>
       </defs>
       <use xlink:href="#DejaVuSans-30"/>
       <use xlink:href="#DejaVuSans-2e" transform="translate(63.623047 0)"/>
       <use xlink:href="#DejaVuSans-30" transform="translate(95.410156 0)"/>
      </g>
     </g>
    </g>
    <g id="ytick_2">
     <g id="line2d_6">
      <g>
       <use xlink:href="#m597fa664e6" x="44.249063" y="235.648097" style="stroke: #000000; stroke-width: 0.8"/>
      </g>
     </g>
     <g id="text_6">
      <!-- 0.5 -->
      <g transform="translate(21.845938 239.447316) scale(0.1 -0.1)">
       <use xlink:href="#DejaVuSans-30"/>
       <use xlink:href="#DejaVuSans-2e" transform="translate(63.623047 0)"/>
       <use xlink:href="#DejaVuSans-35" transform="translate(95.410156 0)"/>
      </g>
     </g>
    </g>
    <g id="ytick_3">
     <g id="line2d_7">
      <g>
       <use xlink:href="#m597fa664e6" x="44.249063" y="194.095459" style="stroke: #000000; stroke-width: 0.8"/>
      </g>
     </g>
     <g id="text_7">
      <!-- 1.0 -->
      <g transform="translate(21.845938 197.894677) scale(0.1 -0.1)">
       <use xlink:href="#DejaVuSans-31"/>
       <use xlink:href="#DejaVuSans-2e" transform="translate(63.623047 0)"/>
       <use xlink:href="#DejaVuSans-30" transform="translate(95.410156 0)"/>
      </g>
     </g>
    </g>
    <g id="ytick_4">
     <g id="line2d_8">
      <g>
       <use xlink:href="#m597fa664e6" x="44.249063" y="152.54282" style="stroke: #000000; stroke-width: 0.8"/>
      </g>
     </g>
     <g id="text_8">
      <!-- 1.5 -->
      <g transform="translate(21.845938 156.342039) scale(0.1 -0.1)">
       <use xlink:href="#DejaVuSans-31"/>
       <use xlink:href="#DejaVuSans-2e" transform="translate(63.623047 0)"/>
       <use xlink:href="#DejaVuSans-35" transform="translate(95.410156 0)"/>
      </g>
     </g>
    </g>
    <g id="ytick_5">
     <g id="line2d_9">
      <g>
       <use xlink:href="#m597fa664e6" x="44.249063" y="110.990181" style="stroke: #000000; stroke-width: 0.8"/>
      </g>
     </g>
     <g id="text_9">
      <!-- 2.0 -->
      <g transform="translate(21.845938 114.7894) scale(0.1 -0.1)">
       <defs>
        <path id="DejaVuSans-32" d="M 1228 531 
L 3431 531 
L 3431 0 
L 469 0 
L 469 531 
Q 828 903 1448 1529 
Q 2069 2156 2228 2338 
Q 2531 2678 2651 2914 
Q 2772 3150 2772 3378 
Q 2772 3750 2511 3984 
Q 2250 4219 1831 4219 
Q 1534 4219 1204 4116 
Q 875 4013 500 3803 
L 500 4441 
Q 881 4594 1212 4672 
Q 1544 4750 1819 4750 
Q 2544 4750 2975 4387 
Q 3406 4025 3406 3419 
Q 3406 3131 3298 2873 
Q 3191 2616 2906 2266 
Q 2828 2175 2409 1742 
Q 1991 1309 1228 531 
z
" transform="scale(0.015625)"/>
       </defs>
       <use xlink:href="#DejaVuSans-32"/>
       <use xlink:href="#DejaVuSans-2e" transform="translate(63.623047 0)"/>
       <use xlink:href="#DejaVuSans-30" transform="translate(95.410156 0)"/>
      </g>
     </g>
    </g>
    <g id="ytick_6">
     <g id="line2d_10">
      <g>
       <use xlink:href="#m597fa664e6" x="44.249063" y="69.437542" style="stroke: #000000; stroke-width: 0.8"/>
      </g>
     </g>
     <g id="text_10">
      <!-- 2.5 -->
      <g transform="translate(21.845938 73.236761) scale(0.1 -0.1)">
       <use xlink:href="#DejaVuSans-32"/>
       <use xlink:href="#DejaVuSans-2e" transform="translate(63.623047 0)"/>
       <use xlink:href="#DejaVuSans-35" transform="translate(95.410156 0)"/>
      </g>
     </g>
    </g>
    <g id="ytick_7">
     <g id="line2d_11">
      <g>
       <use xlink:href="#m597fa664e6" x="44.249063" y="27.884904" style="stroke: #000000; stroke-width: 0.8"/>
      </g>
     </g>
     <g id="text_11">
      <!-- 3.0 -->
      <g transform="translate(21.845938 31.684122) scale(0.1 -0.1)">
       <defs>
        <path id="DejaVuSans-33" d="M 2597 2516 
Q 3050 2419 3304 2112 
Q 3559 1806 3559 1356 
Q 3559 666 3084 287 
Q 2609 -91 1734 -91 
Q 1441 -91 1130 -33 
Q 819 25 488 141 
L 488 750 
Q 750 597 1062 519 
Q 1375 441 1716 441 
Q 2309 441 2620 675 
Q 2931 909 2931 1356 
Q 2931 1769 2642 2001 
Q 2353 2234 1838 2234 
L 1294 2234 
L 1294 2753 
L 1863 2753 
Q 2328 2753 2575 2939 
Q 2822 3125 2822 3475 
Q 2822 3834 2567 4026 
Q 2313 4219 1838 4219 
Q 1578 4219 1281 4162 
Q 984 4106 628 3988 
L 628 4550 
Q 988 4650 1302 4700 
Q 1616 4750 1894 4750 
Q 2613 4750 3031 4423 
Q 3450 4097 3450 3541 
Q 3450 3153 3228 2886 
Q 3006 2619 2597 2516 
z
" transform="scale(0.015625)"/>
       </defs>
       <use xlink:href="#DejaVuSans-33"/>
       <use xlink:href="#DejaVuSans-2e" transform="translate(63.623047 0)"/>
       <use xlink:href="#DejaVuSans-30" transform="translate(95.410156 0)"/>
      </g>
     </g>
    </g>
    <g id="text_12">
     <!-- Relative cell viability -->
     <g transform="translate(15.558281 201.059484) rotate(-90) scale(0.11 -0.11)">
      <defs>
       <path id="DejaVuSans-52" d="M 2841 2188 
Q 3044 2119 3236 1894 
Q 3428 1669 3622 1275 
L 4263 0 
L 3584 0 
L 2988 1197 
Q 2756 1666 2539 1819 
Q 2322 1972 1947 1972 
L 1259 1972 
L 1259 0 
L 628 0 
L 628 4666 
L 2053 4666 
Q 2853 4666 3247 4331 
Q 3641 3997 3641 3322 
Q 3641 2881 3436 2590 
Q 3231 2300 2841 2188 
z
M 1259 4147 
L 1259 2491 
L 2053 2491 
Q 2509 2491 2742 2702 
Q 2975 2913 2975 3322 
Q 2975 3731 2742 3939 
Q 2509 4147 2053 4147 
L 1259 4147 
z
" transform="scale(0.015625)"/>
       <path id="DejaVuSans-65" d="M 3597 1894 
L 3597 1613 
L 953 1613 
Q 991 1019 1311 708 
Q 1631 397 2203 397 
Q 2534 397 2845 478 
Q 3156 559 3463 722 
L 3463 178 
Q 3153 47 2828 -22 
Q 2503 -91 2169 -91 
Q 1331 -91 842 396 
Q 353 884 353 1716 
Q 353 2575 817 3079 
Q 1281 3584 2069 3584 
Q 2775 3584 3186 3129 
Q 3597 2675 3597 1894 
z
M 3022 2063 
Q 3016 2534 2758 2815 
Q 2500 3097 2075 3097 
Q 1594 3097 1305 2825 
Q 1016 2553 972 2059 
L 3022 2063 
z
" transform="scale(0.015625)"/>
       <path id="DejaVuSans-61" d="M 2194 1759 
Q 1497 1759 1228 1600 
Q 959 1441 959 1056 
Q 959 750 1161 570 
Q 1363 391 1709 391 
Q 2188 391 2477 730 
Q 2766 1069 2766 1631 
L 2766 1759 
L 2194 1759 
z
M 3341 1997 
L 3341 0 
L 2766 0 
L 2766 531 
Q 2569 213 2275 61 
Q 1981 -91 1556 -91 
Q 1019 -91 701 211 
Q 384 513 384 1019 
Q 384 1609 779 1909 
Q 1175 2209 1959 2209 
L 2766 2209 
L 2766 2266 
Q 2766 2663 2505 2880 
Q 2244 3097 1772 3097 
Q 1472 3097 1187 3025 
Q 903 2953 641 2809 
L 641 3341 
Q 956 3463 1253 3523 
Q 1550 3584 1831 3584 
Q 2591 3584 2966 3190 
Q 3341 2797 3341 1997 
z
" transform="scale(0.015625)"/>
       <path id="DejaVuSans-69" d="M 603 3500 
L 1178 3500 
L 1178 0 
L 603 0 
L 603 3500 
z
M 603 4863 
L 1178 4863 
L 1178 4134 
L 603 4134 
L 603 4863 
z
" transform="scale(0.015625)"/>
       <path id="DejaVuSans-76" d="M 191 3500 
L 800 3500 
L 1894 563 
L 2988 3500 
L 3597 3500 
L 2284 0 
L 1503 0 
L 191 3500 
z
" transform="scale(0.015625)"/>
       <path id="DejaVuSans-20" transform="scale(0.015625)"/>
       <path id="DejaVuSans-63" d="M 3122 3366 
L 3122 2828 
Q 2878 2963 2633 3030 
Q 2388 3097 2138 3097 
Q 1578 3097 1268 2742 
Q 959 2388 959 1747 
Q 959 1106 1268 751 
Q 1578 397 2138 397 
Q 2388 397 2633 464 
Q 2878 531 3122 666 
L 3122 134 
Q 2881 22 2623 -34 
Q 2366 -91 2075 -91 
Q 1284 -91 818 406 
Q 353 903 353 1747 
Q 353 2603 823 3093 
Q 1294 3584 2113 3584 
Q 2378 3584 2631 3529 
Q 2884 3475 3122 3366 
z
" transform="scale(0.015625)"/>
       <path id="DejaVuSans-79" d="M 2059 -325 
Q 1816 -950 1584 -1140 
Q 1353 -1331 966 -1331 
L 506 -1331 
L 506 -850 
L 844 -850 
Q 1081 -850 1212 -737 
Q 1344 -625 1503 -206 
L 1606 56 
L 191 3500 
L 800 3500 
L 1894 763 
L 2988 3500 
L 3597 3500 
L 2059 -325 
z
" transform="scale(0.015625)"/>
      </defs>
      <use xlink:href="#DejaVuSans-52"/>
      <use xlink:href="#DejaVuSans-65" transform="translate(64.982422 0)"/>
      <use xlink:href="#DejaVuSans-6c" transform="translate(126.505859 0)"/>
      <use xlink:href="#DejaVuSans-61" transform="translate(154.289062 0)"/>
      <use xlink:href="#DejaVuSans-74" transform="translate(215.568359 0)"/>
      <use xlink:href="#DejaVuSans-69" transform="translate(254.777344 0)"/>
      <use xlink:href="#DejaVuSans-76" transform="translate(282.560547 0)"/>
      <use xlink:href="#DejaVuSans-65" transform="translate(341.740234 0)"/>
      <use xlink:href="#DejaVuSans-20" transform="translate(403.263672 0)"/>
      <use xlink:href="#DejaVuSans-63" transform="translate(435.050781 0)"/>
      <use xlink:href="#DejaVuSans-65" transform="translate(490.03125 0)"/>
      <use xlink:href="#DejaVuSans-6c" transform="translate(551.554688 0)"/>
      <use xlink:href="#DejaVuSans-6c" transform="translate(579.337891 0)"/>
      <use xlink:href="#DejaVuSans-20" transform="translate(607.121094 0)"/>
      <use xlink:href="#DejaVuSans-76" transform="translate(638.908203 0)"/>
      <use xlink:href="#DejaVuSans-69" transform="translate(698.087891 0)"/>
      <use xlink:href="#DejaVuSans-61" transform="translate(725.871094 0)"/>
      <use xlink:href="#DejaVuSans-62" transform="translate(787.150391 0)"/>
      <use xlink:href="#DejaVuSans-69" transform="translate(850.626953 0)"/>
      <use xlink:href="#DejaVuSans-6c" transform="translate(878.410156 0)"/>
      <use xlink:href="#DejaVuSans-69" transform="translate(906.193359 0)"/>
      <use xlink:href="#DejaVuSans-74" transform="translate(933.976562 0)"/>
      <use xlink:href="#DejaVuSans-79" transform="translate(973.185547 0)"/>
     </g>
    </g>
   </g>
   <g id="patch_3">
    <path d="M 93.94492 209.922859 
L 111.484634 209.922859 
L 111.484634 176.350404 
L 93.94492 176.350404 
L 93.94492 209.922859 
z
" clip-path="url(#p432dd9f69b)" style="fill: #ffffff; stroke: #000000; stroke-linejoin: miter"/>
   </g>
   <g id="line2d_12">
    <path d="M 102.714777 209.922859 
L 102.714777 245.047304 
" clip-path="url(#p432dd9f69b)" style="fill: none; stroke: #000000; stroke-linecap: square"/>
   </g>
   <g id="line2d_13">
    <path d="M 102.714777 176.350404 
L 102.714777 127.727584 
" clip-path="url(#p432dd9f69b)" style="fill: none; stroke: #000000; stroke-linecap: square"/>
   </g>
   <g id="line2d_14">
    <path d="M 98.329848 245.047304 
L 107.099705 245.047304 
" clip-path="url(#p432dd9f69b)" style="fill: none; stroke: #000000; stroke-linecap: square"/>
   </g>
   <g id="line2d_15">
    <path d="M 98.329848 127.727584 
L 107.099705 127.727584 
" clip-path="url(#p432dd9f69b)" style="fill: none; stroke: #000000; stroke-linecap: square"/>
   </g>
   <g id="patch_4">
    <path d="M 191.387777 227.669991 
L 208.927491 227.669991 
L 208.927491 201.088768 
L 191.387777 201.088768 
L 191.387777 227.669991 
z
" clip-path="url(#p432dd9f69b)" style="fill: #ffffff; stroke: #000000; stroke-linejoin: miter"/>
   </g>
   <g id="line2d_16">
    <path d="M 200.157634 227.669991 
L 200.157634 244.058351 
" clip-path="url(#p432dd9f69b)" style="fill: none; stroke: #000000; stroke-linecap: square"/>
   </g>
   <g id="line2d_17">
    <path d="M 200.157634 201.088768 
L 200.157634 169.961686 
" clip-path="url(#p432dd9f69b)" style="fill: none; stroke: #000000; stroke-linecap: square"/>
   </g>
   <g id="line2d_18">
    <path d="M 195.772705 244.058351 
L 204.542562 244.058351 
" clip-path="url(#p432dd9f69b)" style="fill: none; stroke: #000000; stroke-linecap: square"/>
   </g>
   <g id="line2d_19">
    <path d="M 195.772705 169.961686 
L 204.542562 169.961686 
" clip-path="url(#p432dd9f69b)" style="fill: none; stroke: #000000; stroke-linecap: square"/>
   </g>
   <g id="patch_5">
    <path d="M 288.830634 243.291705 
L 306.370348 243.291705 
L 306.370348 218.524255 
L 288.830634 218.524255 
L 288.830634 243.291705 
z
" clip-path="url(#p432dd9f69b)" style="fill: #ffffff; stroke: #000000; stroke-linejoin: miter"/>
   </g>
   <g id="line2d_20">
    <path d="M 297.600491 243.291705 
L 297.600491 260.961965 
" clip-path="url(#p432dd9f69b)" style="fill: none; stroke: #000000; stroke-linecap: square"/>
   </g>
   <g id="line2d_21">
    <path d="M 297.600491 218.524255 
L 297.600491 188.726858 
" clip-path="url(#p432dd9f69b)" style="fill: none; stroke: #000000; stroke-linecap: square"/>
   </g>
   <g id="line2d_22">
    <path d="M 293.215562 260.961965 
L 301.98542 260.961965 
" clip-path="url(#p432dd9f69b)" style="fill: none; stroke: #000000; stroke-linecap: square"/>
   </g>
   <g id="line2d_23">
    <path d="M 293.215562 188.726858 
L 301.98542 188.726858 
" clip-path="url(#p432dd9f69b)" style="fill: none; stroke: #000000; stroke-linecap: square"/>
   </g>
   <g id="patch_6">
    <path d="M 386.273491 254.585712 
L 403.813205 254.585712 
L 403.813205 242.724512 
L 386.273491 242.724512 
L 386.273491 254.585712 
z
" clip-path="url(#p432dd9f69b)" style="fill: #ffffff; stroke: #000000; stroke-linejoin: miter"/>
   </g>
   <g id="line2d_24">
    <path d="M 395.043348 254.585712 
L 395.043348 265.840245 
" clip-path="url(#p432dd9f69b)" style="fill: none; stroke: #000000; stroke-linecap: square"/>
   </g>
   <g id="line2d_25">
    <path d="M 395.043348 242.724512 
L 395.043348 226.431722 
" clip-path="url(#p432dd9f69b)" style="fill: none; stroke: #000000; stroke-linecap: square"/>
   </g>
   <g id="line2d_26">
    <path d="M 390.65842 265.840245 
L 399.428277 265.840245 
" clip-path="url(#p432dd9f69b)" style="fill: none; stroke: #000000; stroke-linecap: square"/>
   </g>
   <g id="line2d_27">
    <path d="M 390.65842 226.431722 
L 399.428277 226.431722 
" clip-path="url(#p432dd9f69b)" style="fill: none; stroke: #000000; stroke-linecap: square"/>
   </g>
   <g id="line2d_28">
    <path d="M 102.714777 64.542641 
L 102.714777 60.387378 
L 200.157634 60.387378 
L 200.157634 64.542641 
" clip-path="url(#p432dd9f69b)" style="fill: none; stroke: #000000; stroke-linecap: square"/>
   </g>
   <g id="line2d_29">
    <path d="M 102.714777 49.583692 
L 102.714777 45.428428 
L 297.600491 45.428428 
L 297.600491 49.583692 
" clip-path="url(#p432dd9f69b)" style="fill: none; stroke: #000000; stroke-linecap: square"/>
   </g>
   <g id="line2d_30">
    <path d="M 102.714777 34.624742 
L 102.714777 30.469478 
L 395.043348 30.469478 
L 395.043348 34.624742 
" clip-path="url(#p432dd9f69b)" style="fill: none; stroke: #000000; stroke-linecap: square"/>
   </g>
   <g id="line2d_31">
    <path d="M 93.94492 199.002825 
L 111.484634 199.002825 
" clip-path="url(#p432dd9f69b)" style="fill: none; stroke: #000000; stroke-width: 2"/>
   </g>
   <g id="line2d_32">
    <path d="M 191.387777 212.519899 
L 208.927491 212.519899 
" clip-path="url(#p432dd9f69b)" style="fill: none; stroke: #000000; stroke-width: 2"/>
   </g>
   <g id="line2d_33">
    <path d="M 288.830634 235.344763 
L 306.370348 235.344763 
" clip-path="url(#p432dd9f69b)" style="fill: none; stroke: #000000; stroke-width: 2"/>
   </g>
   <g id="line2d_34">
    <path d="M 386.273491 249.547455 
L 403.813205 249.547455 
" clip-path="url(#p432dd9f69b)" style="fill: none; stroke: #000000; stroke-width: 2"/>
   </g>
   <g id="patch_7">
    <path d="M 44.249063 281.356 
L 44.249063 7.2 
" style="fill: none; stroke: #000000; stroke-width: 0.8; stroke-linejoin: miter; stroke-linecap: square"/>
   </g>
   <g id="patch_8">
    <path d="M 44.249063 281.356 
L 453.509062 281.356 
" style="fill: none; stroke: #000000; stroke-width: 0.8; stroke-linejoin: miter; stroke-linecap: square"/>
   </g>
   <g id="PathCollection_1">
    <defs>
     <path id="m71f2c0395f" d="M 0 1.732051 
C 0.459345 1.732051 0.899939 1.549551 1.224745 1.224745 
C 1.549551 0.899939 1.732051 0.459345 1.732051 0 
C 1.732051 -0.459345 1.549551 -0.899939 1.224745 -1.224745 
C 0.899939 -1.549551 0.459345 -1.732051 0 -1.732051 
C -0.459345 -1.732051 -0.899939 -1.549551 -1.224745 -1.224745 
C -1.549551 -0.899939 -1.732051 -0.459345 -1.732051 0 
C -1.732051 0.459345 -1.549551 0.899939 -1.224745 1.224745 
C -0.899939 1.549551 -0.459345 1.732051 0 1.732051 
z
"/>
    </defs>
    <g clip-path="url(#p432dd9f69b)">
     <use xlink:href="#m71f2c0395f" x="106.985986" y="205.397776" style="fill: #4c72b0; fill-opacity: 0.35"/>
     <use xlink:href="#m71f2c0395f" x="101.761839" y="205.081976" style="fill: #4c72b0; fill-opacity: 0.35"/>
     <use xlink:href="#m71f2c0395f" x="108.305626" y="209.494867" style="fill: #4c72b0; fill-opacity: 0.35"/>
     <use xlink:href="#m71f2c0395f" x="105.791914" y="193.413995" style="fill: #4c72b0; fill-opacity: 0.35"/>
     <use xlink:href="#m71f2c0395f" x="96.387654" y="71.191064" style="fill: #4c72b0; fill-opacity: 0.35"/>
     <use xlink:href="#m71f2c0395f" x="110.130137" y="127.727584" style="fill: #4c72b0; fill-opacity: 0.35"/>
     <use xlink:href="#m71f2c0395f" x="106.786169" y="181.729393" style="fill: #4c72b0; fill-opacity: 0.35"/>
     <use xlink:href="#m71f2c0395f" x="107.174765" y="170.061412" style="fill: #4c72b0; fill-opacity: 0.35"/>
     <use xlink:href="#m71f2c0395f" x="96.91675" y="149.858519" style="fill: #4c72b0; fill-opacity: 0.35"/>
     <use xlink:href="#m71f2c0395f" x="101.941251" y="204.591655" style="fill: #4c72b0; fill-opacity: 0.35"/>
     <use xlink:href="#m71f2c0395f" x="100.700407" y="196.181401" style="fill: #4c72b0; fill-opacity: 0.35"/>
     <use xlink:href="#m71f2c0395f" x="109.368409" y="225.010622" style="fill: #4c72b0; fill-opacity: 0.35"/>
     <use xlink:href="#m71f2c0395f" x="104.957757" y="182.178162" style="fill: #4c72b0; fill-opacity: 0.35"/>
     <use xlink:href="#m71f2c0395f" x="107.746907" y="189.2338" style="fill: #4c72b0; fill-opacity: 0.35"/>
     <use xlink:href="#m71f2c0395f" x="101.832556" y="211.713777" style="fill: #4c72b0; fill-opacity: 0.35"/>
     <use xlink:href="#m71f2c0395f" x="98.462195" y="194.27829" style="fill: #4c72b0; fill-opacity: 0.35"/>
     <use xlink:href="#m71f2c0395f" x="103.5658" y="196.94597" style="fill: #4c72b0; fill-opacity: 0.35"/>
     <use xlink:href="#m71f2c0395f" x="95.914314" y="209.370209" style="fill: #4c72b0; fill-opacity: 0.35"/>
     <use xlink:href="#m71f2c0395f" x="107.822828" y="202.331192" style="fill: #4c72b0; fill-opacity: 0.35"/>
     <use xlink:href="#m71f2c0395f" x="104.767538" y="209.918703" style="fill: #4c72b0; fill-opacity: 0.35"/>
     <use xlink:href="#m71f2c0395f" x="106.738586" y="156.79781" style="fill: #4c72b0; fill-opacity: 0.35"/>
     <use xlink:href="#m71f2c0395f" x="100.446712" y="169.928444" style="fill: #4c72b0; fill-opacity: 0.35"/>
     <use xlink:href="#m71f2c0395f" x="110.053362" y="202.655302" style="fill: #4c72b0; fill-opacity: 0.35"/>
     <use xlink:href="#m71f2c0395f" x="108.843872" y="202.879686" style="fill: #4c72b0; fill-opacity: 0.35"/>
     <use xlink:href="#m71f2c0395f" x="107.055014" y="219.450879" style="fill: #4c72b0; fill-opacity: 0.35"/>
     <use xlink:href="#m71f2c0395f" x="97.953933" y="193.63838" style="fill: #4c72b0; fill-opacity: 0.35"/>
     <use xlink:href="#m71f2c0395f" x="102.195929" y="167.476838" style="fill: #4c72b0; fill-opacity: 0.35"/>
     <use xlink:href="#m71f2c0395f" x="95.602286" y="207.990661" style="fill: #4c72b0; fill-opacity: 0.35"/>
     <use xlink:href="#m71f2c0395f" x="97.324854" y="202.646992" style="fill: #4c72b0; fill-opacity: 0.35"/>
     <use xlink:href="#m71f2c0395f" x="105.568667" y="146.72545" style="fill: #4c72b0; fill-opacity: 0.35"/>
     <use xlink:href="#m71f2c0395f" x="106.530829" y="243.077709" style="fill: #4c72b0; fill-opacity: 0.35"/>
     <use xlink:href="#m71f2c0395f" x="110.003654" y="214.240178" style="fill: #4c72b0; fill-opacity: 0.35"/>
     <use xlink:href="#m71f2c0395f" x="99.999245" y="190.513621" style="fill: #4c72b0; fill-opacity: 0.35"/>
     <use xlink:href="#m71f2c0395f" x="100.695133" y="156.141278" style="fill: #4c72b0; fill-opacity: 0.35"/>
     <use xlink:href="#m71f2c0395f" x="102.240126" y="198.707802" style="fill: #4c72b0; fill-opacity: 0.35"/>
     <use xlink:href="#m71f2c0395f" x="97.873369" y="182.984283" style="fill: #4c72b0; fill-opacity: 0.35"/>
     <use xlink:href="#m71f2c0395f" x="96.944936" y="215.544931" style="fill: #4c72b0; fill-opacity: 0.35"/>
     <use xlink:href="#m71f2c0395f" x="102.335996" y="168.174923" style="fill: #4c72b0; fill-opacity: 0.35"/>
     <use xlink:href="#m71f2c0395f" x="98.457059" y="191.12029" style="fill: #4c72b0; fill-opacity: 0.35"/>
     <use xlink:href="#m71f2c0395f" x="105.362323" y="200.984886" style="fill: #4c72b0; fill-opacity: 0.35"/>
     <use xlink:href="#m71f2c0395f" x="101.734921" y="188.843205" style="fill: #4c72b0; fill-opacity: 0.35"/>
     <use xlink:href="#m71f2c0395f" x="107.901515" y="210.575235" style="fill: #4c72b0; fill-opacity: 0.35"/>
     <use xlink:href="#m71f2c0395f" x="105.837081" y="148.271209" style="fill: #4c72b0; fill-opacity: 0.35"/>
     <use xlink:href="#m71f2c0395f" x="99.789412" y="209.935325" style="fill: #4c72b0; fill-opacity: 0.35"/>
     <use xlink:href="#m71f2c0395f" x="107.894992" y="194.353085" style="fill: #4c72b0; fill-opacity: 0.35"/>
     <use xlink:href="#m71f2c0395f" x="107.466314" y="199.297849" style="fill: #4c72b0; fill-opacity: 0.35"/>
     <use xlink:href="#m71f2c0395f" x="100.960468" y="206.935224" style="fill: #4c72b0; fill-opacity: 0.35"/>
     <use xlink:href="#m71f2c0395f" x="99.41463" y="181.920535" style="fill: #4c72b0; fill-opacity: 0.35"/>
     <use xlink:href="#m71f2c0395f" x="105.560038" y="112.54425" style="fill: #4c72b0; fill-opacity: 0.35"/>
     <use xlink:href="#m71f2c0395f" x="97.098209" y="193.787969" style="fill: #4c72b0; fill-opacity: 0.35"/>
     <use xlink:href="#m71f2c0395f" x="98.036088" y="151.994325" style="fill: #4c72b0; fill-opacity: 0.35"/>
     <use xlink:href="#m71f2c0395f" x="95.034132" y="170.510181" style="fill: #4c72b0; fill-opacity: 0.35"/>
     <use xlink:href="#m71f2c0395f" x="107.188174" y="235.864171" style="fill: #4c72b0; fill-opacity: 0.35"/>
     <use xlink:href="#m71f2c0395f" x="105.284943" y="194.353085" style="fill: #4c72b0; fill-opacity: 0.35"/>
     <use xlink:href="#m71f2c0395f" x="105.913481" y="214.705567" style="fill: #4c72b0; fill-opacity: 0.35"/>
     <use xlink:href="#m71f2c0395f" x="107.091583" y="218.644758" style="fill: #4c72b0; fill-opacity: 0.35"/>
     <use xlink:href="#m71f2c0395f" x="102.074239" y="223.431622" style="fill: #4c72b0; fill-opacity: 0.35"/>
     <use xlink:href="#m71f2c0395f" x="103.786511" y="154.90301" style="fill: #4c72b0; fill-opacity: 0.35"/>
     <use xlink:href="#m71f2c0395f" x="97.098903" y="179.78473" style="fill: #4c72b0; fill-opacity: 0.35"/>
     <use xlink:href="#m71f2c0395f" x="96.70497" y="202.996034" style="fill: #4c72b0; fill-opacity: 0.35"/>
     <use xlink:href="#m71f2c0395f" x="105.340323" y="209.420072" style="fill: #4c72b0; fill-opacity: 0.35"/>
     <use xlink:href="#m71f2c0395f" x="102.264142" y="225.899848" style="fill: #4c72b0; fill-opacity: 0.35"/>
     <use xlink:href="#m71f2c0395f" x="103.731864" y="160.363026" style="fill: #4c72b0; fill-opacity: 0.35"/>
     <use xlink:href="#m71f2c0395f" x="106.846336" y="227.49547" style="fill: #4c72b0; fill-opacity: 0.35"/>
     <use xlink:href="#m71f2c0395f" x="104.815151" y="245.047304" style="fill: #4c72b0; fill-opacity: 0.35"/>
     <use xlink:href="#m71f2c0395f" x="103.550126" y="215.013057" style="fill: #4c72b0; fill-opacity: 0.35"/>
     <use xlink:href="#m71f2c0395f" x="103.637867" y="214.680636" style="fill: #4c72b0; fill-opacity: 0.35"/>
     <use xlink:href="#m71f2c0395f" x="99.658191" y="160.504305" style="fill: #4c72b0; fill-opacity: 0.35"/>
     <use xlink:href="#m71f2c0395f" x="95.399825" y="204.425445" style="fill: #4c72b0; fill-opacity: 0.35"/>
     <use xlink:href="#m71f2c0395f" x="101.728147" y="226.996838" style="fill: #4c72b0; fill-opacity: 0.35"/>
     <use xlink:href="#m71f2c0395f" x="98.264907" y="205.821613" style="fill: #4c72b0; fill-opacity: 0.35"/>
     <use xlink:href="#m71f2c0395f" x="101.28866" y="112.635666" style="fill: #4c72b0; fill-opacity: 0.35"/>
     <use xlink:href="#m71f2c0395f" x="108.224634" y="215.910594" style="fill: #4c72b0; fill-opacity: 0.35"/>
     <use xlink:href="#m71f2c0395f" x="98.566665" y="201.325618" style="fill: #4c72b0; fill-opacity: 0.35"/>
     <use xlink:href="#m71f2c0395f" x="95.828338" y="200.718949" style="fill: #4c72b0; fill-opacity: 0.35"/>
     <use xlink:href="#m71f2c0395f" x="99.306364" y="163.371438" style="fill: #4c72b0; fill-opacity: 0.35"/>
     <use xlink:href="#m71f2c0395f" x="99.496727" y="110.732555" style="fill: #4c72b0; fill-opacity: 0.35"/>
     <use xlink:href="#m71f2c0395f" x="105.239194" y="185.743378" style="fill: #4c72b0; fill-opacity: 0.35"/>
     <use xlink:href="#m71f2c0395f" x="103.603957" y="207.076503" style="fill: #4c72b0; fill-opacity: 0.35"/>
     <use xlink:href="#m71f2c0395f" x="107.140993" y="177.308193" style="fill: #4c72b0; fill-opacity: 0.35"/>
     <use xlink:href="#m71f2c0395f" x="105.276566" y="237.368377" style="fill: #4c72b0; fill-opacity: 0.35"/>
     <use xlink:href="#m71f2c0395f" x="101.255268" y="206.544629" style="fill: #4c72b0; fill-opacity: 0.35"/>
     <use xlink:href="#m71f2c0395f" x="107.610624" y="232.739413" style="fill: #4c72b0; fill-opacity: 0.35"/>
     <use xlink:href="#m71f2c0395f" x="97.522599" y="205.962892" style="fill: #4c72b0; fill-opacity: 0.35"/>
     <use xlink:href="#m71f2c0395f" x="95.273449" y="225.941401" style="fill: #4c72b0; fill-opacity: 0.35"/>
     <use xlink:href="#m71f2c0395f" x="96.323272" y="172.837129" style="fill: #4c72b0; fill-opacity: 0.35"/>
     <use xlink:href="#m71f2c0395f" x="106.18155" y="213.990862" style="fill: #4c72b0; fill-opacity: 0.35"/>
     <use xlink:href="#m71f2c0395f" x="102.12041" y="173.477039" style="fill: #4c72b0; fill-opacity: 0.35"/>
     <use xlink:href="#m71f2c0395f" x="97.433713" y="184.214241" style="fill: #4c72b0; fill-opacity: 0.35"/>
     <use xlink:href="#m71f2c0395f" x="102.731066" y="166.155464" style="fill: #4c72b0; fill-opacity: 0.35"/>
     <use xlink:href="#m71f2c0395f" x="97.294024" y="188.6022" style="fill: #4c72b0; fill-opacity: 0.35"/>
     <use xlink:href="#m71f2c0395f" x="105.77558" y="177.856687" style="fill: #4c72b0; fill-opacity: 0.35"/>
     <use xlink:href="#m71f2c0395f" x="101.875307" y="209.22893" style="fill: #4c72b0; fill-opacity: 0.35"/>
     <use xlink:href="#m71f2c0395f" x="100.859796" y="188.086947" style="fill: #4c72b0; fill-opacity: 0.35"/>
     <use xlink:href="#m71f2c0395f" x="99.62018" y="193.621759" style="fill: #4c72b0; fill-opacity: 0.35"/>
     <use xlink:href="#m71f2c0395f" x="104.745994" y="135.414822" style="fill: #4c72b0; fill-opacity: 0.35"/>
     <use xlink:href="#m71f2c0395f" x="100.560317" y="200.777123" style="fill: #4c72b0; fill-opacity: 0.35"/>
     <use xlink:href="#m71f2c0395f" x="96.285886" y="220.971705" style="fill: #4c72b0; fill-opacity: 0.35"/>
     <use xlink:href="#m71f2c0395f" x="96.759161" y="214.522736" style="fill: #4c72b0; fill-opacity: 0.35"/>
     <use xlink:href="#m71f2c0395f" x="109.916157" y="151.794872" style="fill: #4c72b0; fill-opacity: 0.35"/>
    </g>
   </g>
   <g id="PathCollection_2">
    <defs>
     <path id="m13e64c33d6" d="M 0 1.732051 
C 0.459345 1.732051 0.899939 1.549551 1.224745 1.224745 
C 1.549551 0.899939 1.732051 0.459345 1.732051 0 
C 1.732051 -0.459345 1.549551 -0.899939 1.224745 -1.224745 
C 0.899939 -1.549551 0.459345 -1.732051 0 -1.732051 
C -0.459345 -1.732051 -0.899939 -1.549551 -1.224745 -1.224745 
C -1.549551 -0.899939 -1.732051 -0.459345 -1.732051 0 
C -1.732051 0.459345 -1.549551 0.899939 -1.224745 1.224745 
C -0.899939 1.549551 -0.459345 1.732051 0 1.732051 
z
"/>
    </defs>
    <g clip-path="url(#p432dd9f69b)">
     <use xlink:href="#m13e64c33d6" x="206.527757" y="180.590851" style="fill: #55a868; fill-opacity: 0.35"/>
     <use xlink:href="#m13e64c33d6" x="203.271239" y="243.310404" style="fill: #55a868; fill-opacity: 0.35"/>
     <use xlink:href="#m13e64c33d6" x="196.507346" y="201.741144" style="fill: #55a868; fill-opacity: 0.35"/>
     <use xlink:href="#m13e64c33d6" x="207.472496" y="227.645059" style="fill: #55a868; fill-opacity: 0.35"/>
     <use xlink:href="#m13e64c33d6" x="204.503599" y="227.744785" style="fill: #55a868; fill-opacity: 0.35"/>
     <use xlink:href="#m13e64c33d6" x="203.539138" y="232.307265" style="fill: #55a868; fill-opacity: 0.35"/>
     <use xlink:href="#m13e64c33d6" x="199.368136" y="204.525171" style="fill: #55a868; fill-opacity: 0.35"/>
     <use xlink:href="#m13e64c33d6" x="196.606685" y="235.290745" style="fill: #55a868; fill-opacity: 0.35"/>
     <use xlink:href="#m13e64c33d6" x="193.865023" y="203.278592" style="fill: #55a868; fill-opacity: 0.35"/>
     <use xlink:href="#m13e64c33d6" x="206.43455" y="220.938463" style="fill: #55a868; fill-opacity: 0.35"/>
     <use xlink:href="#m13e64c33d6" x="199.468148" y="181.239072" style="fill: #55a868; fill-opacity: 0.35"/>
     <use xlink:href="#m13e64c33d6" x="195.517224" y="220.830426" style="fill: #55a868; fill-opacity: 0.35"/>
     <use xlink:href="#m13e64c33d6" x="197.132331" y="206.137413" style="fill: #55a868; fill-opacity: 0.35"/>
     <use xlink:href="#m13e64c33d6" x="201.392735" y="243.792415" style="fill: #55a868; fill-opacity: 0.35"/>
     <use xlink:href="#m13e64c33d6" x="195.118245" y="217.098999" style="fill: #55a868; fill-opacity: 0.35"/>
     <use xlink:href="#m13e64c33d6" x="205.717556" y="227.212912" style="fill: #55a868; fill-opacity: 0.35"/>
     <use xlink:href="#m13e64c33d6" x="204.188175" y="221.237642" style="fill: #55a868; fill-opacity: 0.35"/>
     <use xlink:href="#m13e64c33d6" x="203.57925" y="218.661379" style="fill: #55a868; fill-opacity: 0.35"/>
     <use xlink:href="#m13e64c33d6" x="199.098906" y="200.220318" style="fill: #55a868; fill-opacity: 0.35"/>
     <use xlink:href="#m13e64c33d6" x="202.142488" y="226.963596" style="fill: #55a868; fill-opacity: 0.35"/>
     <use xlink:href="#m13e64c33d6" x="201.468793" y="237.11075" style="fill: #55a868; fill-opacity: 0.35"/>
     <use xlink:href="#m13e64c33d6" x="202.493871" y="214.173694" style="fill: #55a868; fill-opacity: 0.35"/>
     <use xlink:href="#m13e64c33d6" x="193.678765" y="111.862787" style="fill: #55a868; fill-opacity: 0.35"/>
     <use xlink:href="#m13e64c33d6" x="198.844999" y="243.468304" style="fill: #55a868; fill-opacity: 0.35"/>
     <use xlink:href="#m13e64c33d6" x="193.011006" y="221.769516" style="fill: #55a868; fill-opacity: 0.35"/>
     <use xlink:href="#m13e64c33d6" x="200.063946" y="229.016296" style="fill: #55a868; fill-opacity: 0.35"/>
     <use xlink:href="#m13e64c33d6" x="197.505024" y="200.328354" style="fill: #55a868; fill-opacity: 0.35"/>
     <use xlink:href="#m13e64c33d6" x="194.615461" y="236.32125" style="fill: #55a868; fill-opacity: 0.35"/>
     <use xlink:href="#m13e64c33d6" x="193.974346" y="224.553543" style="fill: #55a868; fill-opacity: 0.35"/>
     <use xlink:href="#m13e64c33d6" x="201.524088" y="213.085015" style="fill: #55a868; fill-opacity: 0.35"/>
     <use xlink:href="#m13e64c33d6" x="195.021896" y="178.737603" style="fill: #55a868; fill-opacity: 0.35"/>
     <use xlink:href="#m13e64c33d6" x="206.785621" y="154.354515" style="fill: #55a868; fill-opacity: 0.35"/>
     <use xlink:href="#m13e64c33d6" x="201.421447" y="195.450075" style="fill: #55a868; fill-opacity: 0.35"/>
     <use xlink:href="#m13e64c33d6" x="197.770203" y="196.380854" style="fill: #55a868; fill-opacity: 0.35"/>
     <use xlink:href="#m13e64c33d6" x="201.575084" y="232.573202" style="fill: #55a868; fill-opacity: 0.35"/>
     <use xlink:href="#m13e64c33d6" x="192.717737" y="194.635643" style="fill: #55a868; fill-opacity: 0.35"/>
     <use xlink:href="#m13e64c33d6" x="207.306965" y="228.301591" style="fill: #55a868; fill-opacity: 0.35"/>
     <use xlink:href="#m13e64c33d6" x="199.881729" y="211.240077" style="fill: #55a868; fill-opacity: 0.35"/>
     <use xlink:href="#m13e64c33d6" x="204.565718" y="229.207438" style="fill: #55a868; fill-opacity: 0.35"/>
     <use xlink:href="#m13e64c33d6" x="193.652037" y="242.662183" style="fill: #55a868; fill-opacity: 0.35"/>
     <use xlink:href="#m13e64c33d6" x="199.949626" y="195.599664" style="fill: #55a868; fill-opacity: 0.35"/>
     <use xlink:href="#m13e64c33d6" x="200.012748" y="203.170555" style="fill: #55a868; fill-opacity: 0.35"/>
     <use xlink:href="#m13e64c33d6" x="206.983724" y="204.840971" style="fill: #55a868; fill-opacity: 0.35"/>
     <use xlink:href="#m13e64c33d6" x="201.275936" y="219.417637" style="fill: #55a868; fill-opacity: 0.35"/>
     <use xlink:href="#m13e64c33d6" x="199.744311" y="220.323484" style="fill: #55a868; fill-opacity: 0.35"/>
     <use xlink:href="#m13e64c33d6" x="196.524585" y="215.960457" style="fill: #55a868; fill-opacity: 0.35"/>
     <use xlink:href="#m13e64c33d6" x="197.53165" y="212.910493" style="fill: #55a868; fill-opacity: 0.35"/>
     <use xlink:href="#m13e64c33d6" x="200.479934" y="144.124255" style="fill: #55a868; fill-opacity: 0.35"/>
     <use xlink:href="#m13e64c33d6" x="199.205211" y="214.331594" style="fill: #55a868; fill-opacity: 0.35"/>
     <use xlink:href="#m13e64c33d6" x="192.699156" y="213.533783" style="fill: #55a868; fill-opacity: 0.35"/>
     <use xlink:href="#m13e64c33d6" x="205.244805" y="233.387634" style="fill: #55a868; fill-opacity: 0.35"/>
     <use xlink:href="#m13e64c33d6" x="206.33412" y="235.423713" style="fill: #55a868; fill-opacity: 0.35"/>
     <use xlink:href="#m13e64c33d6" x="194.548809" y="211.963093" style="fill: #55a868; fill-opacity: 0.35"/>
     <use xlink:href="#m13e64c33d6" x="201.000104" y="206.328555" style="fill: #55a868; fill-opacity: 0.35"/>
     <use xlink:href="#m13e64c33d6" x="194.054994" y="155.434884" style="fill: #55a868; fill-opacity: 0.35"/>
     <use xlink:href="#m13e64c33d6" x="202.843005" y="211.90492" style="fill: #55a868; fill-opacity: 0.35"/>
     <use xlink:href="#m13e64c33d6" x="196.746881" y="212.129304" style="fill: #55a868; fill-opacity: 0.35"/>
     <use xlink:href="#m13e64c33d6" x="202.643169" y="139.528533" style="fill: #55a868; fill-opacity: 0.35"/>
     <use xlink:href="#m13e64c33d6" x="203.696675" y="219.276358" style="fill: #55a868; fill-opacity: 0.35"/>
     <use xlink:href="#m13e64c33d6" x="204.346079" y="233.828092" style="fill: #55a868; fill-opacity: 0.35"/>
     <use xlink:href="#m13e64c33d6" x="194.041979" y="199.372644" style="fill: #55a868; fill-opacity: 0.35"/>
     <use xlink:href="#m13e64c33d6" x="206.643615" y="187.1811" style="fill: #55a868; fill-opacity: 0.35"/>
     <use xlink:href="#m13e64c33d6" x="195.951439" y="196.32268" style="fill: #55a868; fill-opacity: 0.35"/>
     <use xlink:href="#m13e64c33d6" x="192.945499" y="211.289941" style="fill: #55a868; fill-opacity: 0.35"/>
     <use xlink:href="#m13e64c33d6" x="201.012831" y="226.08268" style="fill: #55a868; fill-opacity: 0.35"/>
     <use xlink:href="#m13e64c33d6" x="198.145202" y="212.037888" style="fill: #55a868; fill-opacity: 0.35"/>
     <use xlink:href="#m13e64c33d6" x="205.299339" y="95.349768" style="fill: #55a868; fill-opacity: 0.35"/>
     <use xlink:href="#m13e64c33d6" x="204.963539" y="237.58445" style="fill: #55a868; fill-opacity: 0.35"/>
     <use xlink:href="#m13e64c33d6" x="197.306673" y="203.536218" style="fill: #55a868; fill-opacity: 0.35"/>
     <use xlink:href="#m13e64c33d6" x="207.218724" y="169.961686" style="fill: #55a868; fill-opacity: 0.35"/>
     <use xlink:href="#m13e64c33d6" x="196.897864" y="179.610209" style="fill: #55a868; fill-opacity: 0.35"/>
     <use xlink:href="#m13e64c33d6" x="200.392387" y="203.478044" style="fill: #55a868; fill-opacity: 0.35"/>
     <use xlink:href="#m13e64c33d6" x="196.352921" y="194.544227" style="fill: #55a868; fill-opacity: 0.35"/>
     <use xlink:href="#m13e64c33d6" x="206.955927" y="231.816944" style="fill: #55a868; fill-opacity: 0.35"/>
     <use xlink:href="#m13e64c33d6" x="194.928582" y="215.05461" style="fill: #55a868; fill-opacity: 0.35"/>
     <use xlink:href="#m13e64c33d6" x="193.0624" y="201.608176" style="fill: #55a868; fill-opacity: 0.35"/>
     <use xlink:href="#m13e64c33d6" x="199.145741" y="193.355822" style="fill: #55a868; fill-opacity: 0.35"/>
     <use xlink:href="#m13e64c33d6" x="207.834191" y="201.641418" style="fill: #55a868; fill-opacity: 0.35"/>
     <use xlink:href="#m13e64c33d6" x="206.264218" y="203.910192" style="fill: #55a868; fill-opacity: 0.35"/>
     <use xlink:href="#m13e64c33d6" x="204.033646" y="207.475408" style="fill: #55a868; fill-opacity: 0.35"/>
     <use xlink:href="#m13e64c33d6" x="206.250424" y="228.501043" style="fill: #55a868; fill-opacity: 0.35"/>
     <use xlink:href="#m13e64c33d6" x="206.291804" y="205.987824" style="fill: #55a868; fill-opacity: 0.35"/>
     <use xlink:href="#m13e64c33d6" x="200.451652" y="236.404355" style="fill: #55a868; fill-opacity: 0.35"/>
     <use xlink:href="#m13e64c33d6" x="197.28781" y="232.323886" style="fill: #55a868; fill-opacity: 0.35"/>
     <use xlink:href="#m13e64c33d6" x="204.398541" y="233.64526" style="fill: #55a868; fill-opacity: 0.35"/>
     <use xlink:href="#m13e64c33d6" x="202.678072" y="207.874314" style="fill: #55a868; fill-opacity: 0.35"/>
     <use xlink:href="#m13e64c33d6" x="198.18785" y="202.514023" style="fill: #55a868; fill-opacity: 0.35"/>
     <use xlink:href="#m13e64c33d6" x="193.835022" y="223.107511" style="fill: #55a868; fill-opacity: 0.35"/>
     <use xlink:href="#m13e64c33d6" x="204.005296" y="244.058351" style="fill: #55a868; fill-opacity: 0.35"/>
     <use xlink:href="#m13e64c33d6" x="196.45419" y="217.364936" style="fill: #55a868; fill-opacity: 0.35"/>
     <use xlink:href="#m13e64c33d6" x="206.967925" y="208.530845" style="fill: #55a868; fill-opacity: 0.35"/>
     <use xlink:href="#m13e64c33d6" x="196.119143" y="201.342239" style="fill: #55a868; fill-opacity: 0.35"/>
     <use xlink:href="#m13e64c33d6" x="194.276107" y="241.066561" style="fill: #55a868; fill-opacity: 0.35"/>
     <use xlink:href="#m13e64c33d6" x="205.319964" y="217.007584" style="fill: #55a868; fill-opacity: 0.35"/>
     <use xlink:href="#m13e64c33d6" x="194.752039" y="236.296319" style="fill: #55a868; fill-opacity: 0.35"/>
     <use xlink:href="#m13e64c33d6" x="195.157152" y="211.622362" style="fill: #55a868; fill-opacity: 0.35"/>
     <use xlink:href="#m13e64c33d6" x="201.707097" y="195.782496" style="fill: #55a868; fill-opacity: 0.35"/>
     <use xlink:href="#m13e64c33d6" x="205.997377" y="222.160111" style="fill: #55a868; fill-opacity: 0.35"/>
     <use xlink:href="#m13e64c33d6" x="195.42479" y="159.440558" style="fill: #55a868; fill-opacity: 0.35"/>
     <use xlink:href="#m13e64c33d6" x="197.200417" y="191.834995" style="fill: #55a868; fill-opacity: 0.35"/>
    </g>
   </g>
   <g id="PathCollection_3">
    <defs>
     <path id="m1932ac06ad" d="M 0 1.732051 
C 0.459345 1.732051 0.899939 1.549551 1.224745 1.224745 
C 1.549551 0.899939 1.732051 0.459345 1.732051 0 
C 1.732051 -0.459345 1.549551 -0.899939 1.224745 -1.224745 
C 0.899939 -1.549551 0.459345 -1.732051 0 -1.732051 
C -0.459345 -1.732051 -0.899939 -1.549551 -1.224745 -1.224745 
C -1.549551 -0.899939 -1.732051 -0.459345 -1.732051 0 
C -1.732051 0.459345 -1.549551 0.899939 -1.224745 1.224745 
C -0.899939 1.549551 -0.459345 1.732051 0 1.732051 
z
"/>
    </defs>
    <g clip-path="url(#p432dd9f69b)">
     <use xlink:href="#m1932ac06ad" x="301.92547" y="217.614252" style="fill: #c44e52; fill-opacity: 0.35"/>
     <use xlink:href="#m1932ac06ad" x="304.956669" y="239.171761" style="fill: #c44e52; fill-opacity: 0.35"/>
     <use xlink:href="#m1932ac06ad" x="297.612047" y="246.39361" style="fill: #c44e52; fill-opacity: 0.35"/>
     <use xlink:href="#m1932ac06ad" x="292.048548" y="179.718246" style="fill: #c44e52; fill-opacity: 0.35"/>
     <use xlink:href="#m1932ac06ad" x="290.022341" y="222.849885" style="fill: #c44e52; fill-opacity: 0.35"/>
     <use xlink:href="#m1932ac06ad" x="293.385597" y="228.800222" style="fill: #c44e52; fill-opacity: 0.35"/>
     <use xlink:href="#m1932ac06ad" x="291.860284" y="211.472772" style="fill: #c44e52; fill-opacity: 0.35"/>
     <use xlink:href="#m1932ac06ad" x="300.370342" y="246.368678" style="fill: #c44e52; fill-opacity: 0.35"/>
     <use xlink:href="#m1932ac06ad" x="291.704536" y="239.337972" style="fill: #c44e52; fill-opacity: 0.35"/>
     <use xlink:href="#m1932ac06ad" x="297.69918" y="220.273621" style="fill: #c44e52; fill-opacity: 0.35"/>
     <use xlink:href="#m1932ac06ad" x="300.629209" y="212.985288" style="fill: #c44e52; fill-opacity: 0.35"/>
     <use xlink:href="#m1932ac06ad" x="298.865169" y="218.187679" style="fill: #c44e52; fill-opacity: 0.35"/>
     <use xlink:href="#m1932ac06ad" x="292.919736" y="236.429287" style="fill: #c44e52; fill-opacity: 0.35"/>
     <use xlink:href="#m1932ac06ad" x="302.342053" y="172.080871" style="fill: #c44e52; fill-opacity: 0.35"/>
     <use xlink:href="#m1932ac06ad" x="300.958873" y="237.343445" style="fill: #c44e52; fill-opacity: 0.35"/>
     <use xlink:href="#m1932ac06ad" x="301.326457" y="228.617391" style="fill: #c44e52; fill-opacity: 0.35"/>
     <use xlink:href="#m1932ac06ad" x="291.848365" y="248.296721" style="fill: #c44e52; fill-opacity: 0.35"/>
     <use xlink:href="#m1932ac06ad" x="291.73449" y="236.196592" style="fill: #c44e52; fill-opacity: 0.35"/>
     <use xlink:href="#m1932ac06ad" x="304.266558" y="214.514425" style="fill: #c44e52; fill-opacity: 0.35"/>
     <use xlink:href="#m1932ac06ad" x="296.003647" y="205.555676" style="fill: #c44e52; fill-opacity: 0.35"/>
     <use xlink:href="#m1932ac06ad" x="294.497111" y="253.0171" style="fill: #c44e52; fill-opacity: 0.35"/>
     <use xlink:href="#m1932ac06ad" x="297.422507" y="248.039094" style="fill: #c44e52; fill-opacity: 0.35"/>
     <use xlink:href="#m1932ac06ad" x="300.139684" y="243.235609" style="fill: #c44e52; fill-opacity: 0.35"/>
     <use xlink:href="#m1932ac06ad" x="304.704048" y="204.757866" style="fill: #c44e52; fill-opacity: 0.35"/>
     <use xlink:href="#m1932ac06ad" x="294.271005" y="226.132543" style="fill: #c44e52; fill-opacity: 0.35"/>
     <use xlink:href="#m1932ac06ad" x="304.223619" y="221.686411" style="fill: #c44e52; fill-opacity: 0.35"/>
     <use xlink:href="#m1932ac06ad" x="290.192643" y="239.346282" style="fill: #c44e52; fill-opacity: 0.35"/>
     <use xlink:href="#m1932ac06ad" x="298.461076" y="248.321652" style="fill: #c44e52; fill-opacity: 0.35"/>
     <use xlink:href="#m1932ac06ad" x="299.689278" y="236.529013" style="fill: #c44e52; fill-opacity: 0.35"/>
     <use xlink:href="#m1932ac06ad" x="291.456094" y="197.070628" style="fill: #c44e52; fill-opacity: 0.35"/>
     <use xlink:href="#m1932ac06ad" x="291.993077" y="197.760401" style="fill: #c44e52; fill-opacity: 0.35"/>
     <use xlink:href="#m1932ac06ad" x="296.339414" y="248.9117" style="fill: #c44e52; fill-opacity: 0.35"/>
     <use xlink:href="#m1932ac06ad" x="304.869446" y="238.565093" style="fill: #c44e52; fill-opacity: 0.35"/>
     <use xlink:href="#m1932ac06ad" x="299.097877" y="243.72593" style="fill: #c44e52; fill-opacity: 0.35"/>
     <use xlink:href="#m1932ac06ad" x="304.351694" y="230.146528" style="fill: #c44e52; fill-opacity: 0.35"/>
     <use xlink:href="#m1932ac06ad" x="302.345739" y="219.592158" style="fill: #c44e52; fill-opacity: 0.35"/>
     <use xlink:href="#m1932ac06ad" x="297.091942" y="232.631376" style="fill: #c44e52; fill-opacity: 0.35"/>
     <use xlink:href="#m1932ac06ad" x="302.040197" y="245.778631" style="fill: #c44e52; fill-opacity: 0.35"/>
     <use xlink:href="#m1932ac06ad" x="290.083153" y="250.715084" style="fill: #c44e52; fill-opacity: 0.35"/>
     <use xlink:href="#m1932ac06ad" x="291.506711" y="238.457056" style="fill: #c44e52; fill-opacity: 0.35"/>
     <use xlink:href="#m1932ac06ad" x="302.736566" y="219.168321" style="fill: #c44e52; fill-opacity: 0.35"/>
     <use xlink:href="#m1932ac06ad" x="302.228124" y="253.208243" style="fill: #c44e52; fill-opacity: 0.35"/>
     <use xlink:href="#m1932ac06ad" x="293.432131" y="197.536017" style="fill: #c44e52; fill-opacity: 0.35"/>
     <use xlink:href="#m1932ac06ad" x="298.080215" y="225.708706" style="fill: #c44e52; fill-opacity: 0.35"/>
     <use xlink:href="#m1932ac06ad" x="299.253369" y="235.756134" style="fill: #c44e52; fill-opacity: 0.35"/>
     <use xlink:href="#m1932ac06ad" x="303.333857" y="241.224461" style="fill: #c44e52; fill-opacity: 0.35"/>
     <use xlink:href="#m1932ac06ad" x="299.20802" y="203.112381" style="fill: #c44e52; fill-opacity: 0.35"/>
     <use xlink:href="#m1932ac06ad" x="296.237407" y="252.726232" style="fill: #c44e52; fill-opacity: 0.35"/>
     <use xlink:href="#m1932ac06ad" x="295.638912" y="243.227299" style="fill: #c44e52; fill-opacity: 0.35"/>
     <use xlink:href="#m1932ac06ad" x="296.444929" y="227.827891" style="fill: #c44e52; fill-opacity: 0.35"/>
     <use xlink:href="#m1932ac06ad" x="299.969226" y="206.976777" style="fill: #c44e52; fill-opacity: 0.35"/>
     <use xlink:href="#m1932ac06ad" x="303.329985" y="237.26865" style="fill: #c44e52; fill-opacity: 0.35"/>
     <use xlink:href="#m1932ac06ad" x="296.881704" y="210.550304" style="fill: #c44e52; fill-opacity: 0.35"/>
     <use xlink:href="#m1932ac06ad" x="293.669094" y="245.105478" style="fill: #c44e52; fill-opacity: 0.35"/>
     <use xlink:href="#m1932ac06ad" x="293.494832" y="209.686009" style="fill: #c44e52; fill-opacity: 0.35"/>
     <use xlink:href="#m1932ac06ad" x="301.436065" y="247.091694" style="fill: #c44e52; fill-opacity: 0.35"/>
     <use xlink:href="#m1932ac06ad" x="302.536069" y="215.287304" style="fill: #c44e52; fill-opacity: 0.35"/>
     <use xlink:href="#m1932ac06ad" x="291.446438" y="242.13862" style="fill: #c44e52; fill-opacity: 0.35"/>
     <use xlink:href="#m1932ac06ad" x="290.842772" y="177.457782" style="fill: #c44e52; fill-opacity: 0.35"/>
     <use xlink:href="#m1932ac06ad" x="299.072793" y="241.448846" style="fill: #c44e52; fill-opacity: 0.35"/>
     <use xlink:href="#m1932ac06ad" x="292.084029" y="240.700898" style="fill: #c44e52; fill-opacity: 0.35"/>
     <use xlink:href="#m1932ac06ad" x="302.662284" y="230.761507" style="fill: #c44e52; fill-opacity: 0.35"/>
     <use xlink:href="#m1932ac06ad" x="294.643446" y="236.961161" style="fill: #c44e52; fill-opacity: 0.35"/>
     <use xlink:href="#m1932ac06ad" x="292.048149" y="246.202468" style="fill: #c44e52; fill-opacity: 0.35"/>
     <use xlink:href="#m1932ac06ad" x="304.163782" y="218.636447" style="fill: #c44e52; fill-opacity: 0.35"/>
     <use xlink:href="#m1932ac06ad" x="292.385844" y="249.584852" style="fill: #c44e52; fill-opacity: 0.35"/>
     <use xlink:href="#m1932ac06ad" x="294.244093" y="243.25223" style="fill: #c44e52; fill-opacity: 0.35"/>
     <use xlink:href="#m1932ac06ad" x="292.200027" y="234.559418" style="fill: #c44e52; fill-opacity: 0.35"/>
     <use xlink:href="#m1932ac06ad" x="291.605652" y="243.002914" style="fill: #c44e52; fill-opacity: 0.35"/>
     <use xlink:href="#m1932ac06ad" x="290.134778" y="219.525674" style="fill: #c44e52; fill-opacity: 0.35"/>
     <use xlink:href="#m1932ac06ad" x="290.668724" y="224.19619" style="fill: #c44e52; fill-opacity: 0.35"/>
     <use xlink:href="#m1932ac06ad" x="292.527873" y="250.640289" style="fill: #c44e52; fill-opacity: 0.35"/>
     <use xlink:href="#m1932ac06ad" x="290.637333" y="240.551309" style="fill: #c44e52; fill-opacity: 0.35"/>
     <use xlink:href="#m1932ac06ad" x="299.021501" y="206.951845" style="fill: #c44e52; fill-opacity: 0.35"/>
     <use xlink:href="#m1932ac06ad" x="300.417985" y="222.642121" style="fill: #c44e52; fill-opacity: 0.35"/>
     <use xlink:href="#m1932ac06ad" x="295.942099" y="234.210376" style="fill: #c44e52; fill-opacity: 0.35"/>
     <use xlink:href="#m1932ac06ad" x="294.762816" y="198.084512" style="fill: #c44e52; fill-opacity: 0.35"/>
     <use xlink:href="#m1932ac06ad" x="297.671059" y="188.726858" style="fill: #c44e52; fill-opacity: 0.35"/>
     <use xlink:href="#m1932ac06ad" x="303.44714" y="223.797285" style="fill: #c44e52; fill-opacity: 0.35"/>
     <use xlink:href="#m1932ac06ad" x="303.074934" y="243.41013" style="fill: #c44e52; fill-opacity: 0.35"/>
     <use xlink:href="#m1932ac06ad" x="290.482876" y="247.050141" style="fill: #c44e52; fill-opacity: 0.35"/>
     <use xlink:href="#m1932ac06ad" x="292.634778" y="194.652264" style="fill: #c44e52; fill-opacity: 0.35"/>
     <use xlink:href="#m1932ac06ad" x="293.496118" y="226.498206" style="fill: #c44e52; fill-opacity: 0.35"/>
     <use xlink:href="#m1932ac06ad" x="293.693229" y="235.182708" style="fill: #c44e52; fill-opacity: 0.35"/>
     <use xlink:href="#m1932ac06ad" x="298.711069" y="225.484322" style="fill: #c44e52; fill-opacity: 0.35"/>
     <use xlink:href="#m1932ac06ad" x="296.294951" y="250.848053" style="fill: #c44e52; fill-opacity: 0.35"/>
     <use xlink:href="#m1932ac06ad" x="290.572976" y="217.132242" style="fill: #c44e52; fill-opacity: 0.35"/>
     <use xlink:href="#m1932ac06ad" x="295.630027" y="241.257704" style="fill: #c44e52; fill-opacity: 0.35"/>
     <use xlink:href="#m1932ac06ad" x="297.97082" y="252.294084" style="fill: #c44e52; fill-opacity: 0.35"/>
     <use xlink:href="#m1932ac06ad" x="291.390215" y="197.959854" style="fill: #c44e52; fill-opacity: 0.35"/>
     <use xlink:href="#m1932ac06ad" x="302.799396" y="251.172163" style="fill: #c44e52; fill-opacity: 0.35"/>
     <use xlink:href="#m1932ac06ad" x="290.615193" y="227.329259" style="fill: #c44e52; fill-opacity: 0.35"/>
     <use xlink:href="#m1932ac06ad" x="304.22414" y="230.553744" style="fill: #c44e52; fill-opacity: 0.35"/>
     <use xlink:href="#m1932ac06ad" x="291.350321" y="208.123629" style="fill: #c44e52; fill-opacity: 0.35"/>
     <use xlink:href="#m1932ac06ad" x="302.957119" y="260.961965" style="fill: #c44e52; fill-opacity: 0.35"/>
     <use xlink:href="#m1932ac06ad" x="303.878199" y="250.872984" style="fill: #c44e52; fill-opacity: 0.35"/>
     <use xlink:href="#m1932ac06ad" x="305.077409" y="242.379625" style="fill: #c44e52; fill-opacity: 0.35"/>
     <use xlink:href="#m1932ac06ad" x="302.309333" y="235.506818" style="fill: #c44e52; fill-opacity: 0.35"/>
     <use xlink:href="#m1932ac06ad" x="301.957785" y="240.72583" style="fill: #c44e52; fill-opacity: 0.35"/>
     <use xlink:href="#m1932ac06ad" x="299.821927" y="249.55161" style="fill: #c44e52; fill-opacity: 0.35"/>
    </g>
   </g>
   <g id="PathCollection_4">
    <defs>
     <path id="mfa05b00dc9" d="M 0 1.732051 
C 0.459345 1.732051 0.899939 1.549551 1.224745 1.224745 
C 1.549551 0.899939 1.732051 0.459345 1.732051 0 
C 1.732051 -0.459345 1.549551 -0.899939 1.224745 -1.224745 
C 0.899939 -1.549551 0.459345 -1.732051 0 -1.732051 
C -0.459345 -1.732051 -0.899939 -1.549551 -1.224745 -1.224745 
C -1.549551 -0.899939 -1.732051 -0.459345 -1.732051 0 
C -1.732051 0.459345 -1.549551 0.899939 -1.224745 1.224745 
C -0.899939 1.549551 -0.459345 1.732051 0 1.732051 
z
"/>
    </defs>
    <g clip-path="url(#p432dd9f69b)">
     <use xlink:href="#mfa05b00dc9" x="399.393141" y="254.496374" style="fill: #8172b2; fill-opacity: 0.35"/>
     <use xlink:href="#mfa05b00dc9" x="389.345704" y="253.632079" style="fill: #8172b2; fill-opacity: 0.35"/>
     <use xlink:href="#mfa05b00dc9" x="395.60568" y="263.180876" style="fill: #8172b2; fill-opacity: 0.35"/>
     <use xlink:href="#mfa05b00dc9" x="395.265095" y="230.711644" style="fill: #8172b2; fill-opacity: 0.35"/>
     <use xlink:href="#mfa05b00dc9" x="400.618204" y="265.840245" style="fill: #8172b2; fill-opacity: 0.35"/>
     <use xlink:href="#mfa05b00dc9" x="394.463358" y="252.709611" style="fill: #8172b2; fill-opacity: 0.35"/>
     <use xlink:href="#mfa05b00dc9" x="393.251795" y="232.988728" style="fill: #8172b2; fill-opacity: 0.35"/>
     <use xlink:href="#mfa05b00dc9" x="397.219259" y="251.704037" style="fill: #8172b2; fill-opacity: 0.35"/>
     <use xlink:href="#mfa05b00dc9" x="391.402311" y="256.366243" style="fill: #8172b2; fill-opacity: 0.35"/>
     <use xlink:href="#mfa05b00dc9" x="389.427029" y="251.321753" style="fill: #8172b2; fill-opacity: 0.35"/>
     <use xlink:href="#mfa05b00dc9" x="394.698436" y="249.70951" style="fill: #8172b2; fill-opacity: 0.35"/>
     <use xlink:href="#mfa05b00dc9" x="393.747582" y="240.925282" style="fill: #8172b2; fill-opacity: 0.35"/>
     <use xlink:href="#mfa05b00dc9" x="390.873884" y="241.748025" style="fill: #8172b2; fill-opacity: 0.35"/>
     <use xlink:href="#mfa05b00dc9" x="392.977744" y="253.125137" style="fill: #8172b2; fill-opacity: 0.35"/>
     <use xlink:href="#mfa05b00dc9" x="392.960292" y="252.019837" style="fill: #8172b2; fill-opacity: 0.35"/>
     <use xlink:href="#mfa05b00dc9" x="392.353856" y="254.853727" style="fill: #8172b2; fill-opacity: 0.35"/>
     <use xlink:href="#mfa05b00dc9" x="393.16409" y="256.042132" style="fill: #8172b2; fill-opacity: 0.35"/>
     <use xlink:href="#mfa05b00dc9" x="397.939246" y="253.573906" style="fill: #8172b2; fill-opacity: 0.35"/>
     <use xlink:href="#mfa05b00dc9" x="391.876478" y="246.302194" style="fill: #8172b2; fill-opacity: 0.35"/>
     <use xlink:href="#mfa05b00dc9" x="402.041428" y="248.354894" style="fill: #8172b2; fill-opacity: 0.35"/>
     <use xlink:href="#mfa05b00dc9" x="401.534571" y="247.066762" style="fill: #8172b2; fill-opacity: 0.35"/>
     <use xlink:href="#mfa05b00dc9" x="394.745725" y="264.19476" style="fill: #8172b2; fill-opacity: 0.35"/>
     <use xlink:href="#mfa05b00dc9" x="392.367352" y="253.349521" style="fill: #8172b2; fill-opacity: 0.35"/>
     <use xlink:href="#mfa05b00dc9" x="395.595807" y="241.390672" style="fill: #8172b2; fill-opacity: 0.35"/>
     <use xlink:href="#mfa05b00dc9" x="400.477705" y="208.198424" style="fill: #8172b2; fill-opacity: 0.35"/>
     <use xlink:href="#mfa05b00dc9" x="397.422316" y="262.482791" style="fill: #8172b2; fill-opacity: 0.35"/>
     <use xlink:href="#mfa05b00dc9" x="399.789078" y="248.629142" style="fill: #8172b2; fill-opacity: 0.35"/>
     <use xlink:href="#mfa05b00dc9" x="395.553517" y="257.779033" style="fill: #8172b2; fill-opacity: 0.35"/>
     <use xlink:href="#mfa05b00dc9" x="397.115648" y="249.3854" style="fill: #8172b2; fill-opacity: 0.35"/>
     <use xlink:href="#mfa05b00dc9" x="391.740513" y="255.111353" style="fill: #8172b2; fill-opacity: 0.35"/>
     <use xlink:href="#mfa05b00dc9" x="398.705534" y="250.723395" style="fill: #8172b2; fill-opacity: 0.35"/>
     <use xlink:href="#mfa05b00dc9" x="390.403581" y="251.213716" style="fill: #8172b2; fill-opacity: 0.35"/>
     <use xlink:href="#mfa05b00dc9" x="398.080418" y="250.881295" style="fill: #8172b2; fill-opacity: 0.35"/>
     <use xlink:href="#mfa05b00dc9" x="400.667268" y="245.579178" style="fill: #8172b2; fill-opacity: 0.35"/>
     <use xlink:href="#mfa05b00dc9" x="389.307516" y="251.7539" style="fill: #8172b2; fill-opacity: 0.35"/>
     <use xlink:href="#mfa05b00dc9" x="396.826626" y="227.636749" style="fill: #8172b2; fill-opacity: 0.35"/>
     <use xlink:href="#mfa05b00dc9" x="388.730544" y="253.831532" style="fill: #8172b2; fill-opacity: 0.35"/>
     <use xlink:href="#mfa05b00dc9" x="398.562448" y="243.858899" style="fill: #8172b2; fill-opacity: 0.35"/>
     <use xlink:href="#mfa05b00dc9" x="388.565241" y="250.274626" style="fill: #8172b2; fill-opacity: 0.35"/>
     <use xlink:href="#mfa05b00dc9" x="401.840024" y="239.479251" style="fill: #8172b2; fill-opacity: 0.35"/>
     <use xlink:href="#mfa05b00dc9" x="389.390227" y="264.003618" style="fill: #8172b2; fill-opacity: 0.35"/>
     <use xlink:href="#mfa05b00dc9" x="402.197685" y="254.380027" style="fill: #8172b2; fill-opacity: 0.35"/>
     <use xlink:href="#mfa05b00dc9" x="399.73439" y="248.770421" style="fill: #8172b2; fill-opacity: 0.35"/>
     <use xlink:href="#mfa05b00dc9" x="396.503931" y="257.646064" style="fill: #8172b2; fill-opacity: 0.35"/>
     <use xlink:href="#mfa05b00dc9" x="399.4497" y="253.241485" style="fill: #8172b2; fill-opacity: 0.35"/>
     <use xlink:href="#mfa05b00dc9" x="399.644442" y="242.105377" style="fill: #8172b2; fill-opacity: 0.35"/>
     <use xlink:href="#mfa05b00dc9" x="401.997292" y="240.210577" style="fill: #8172b2; fill-opacity: 0.35"/>
     <use xlink:href="#mfa05b00dc9" x="391.198383" y="250.523942" style="fill: #8172b2; fill-opacity: 0.35"/>
     <use xlink:href="#mfa05b00dc9" x="396.447709" y="246.169225" style="fill: #8172b2; fill-opacity: 0.35"/>
     <use xlink:href="#mfa05b00dc9" x="388.729818" y="235.656408" style="fill: #8172b2; fill-opacity: 0.35"/>
     <use xlink:href="#mfa05b00dc9" x="396.854471" y="254.280301" style="fill: #8172b2; fill-opacity: 0.35"/>
     <use xlink:href="#mfa05b00dc9" x="389.918498" y="257.330264" style="fill: #8172b2; fill-opacity: 0.35"/>
     <use xlink:href="#mfa05b00dc9" x="396.055984" y="238.498608" style="fill: #8172b2; fill-opacity: 0.35"/>
     <use xlink:href="#mfa05b00dc9" x="396.172602" y="232.947176" style="fill: #8172b2; fill-opacity: 0.35"/>
     <use xlink:href="#mfa05b00dc9" x="394.513028" y="259.133649" style="fill: #8172b2; fill-opacity: 0.35"/>
     <use xlink:href="#mfa05b00dc9" x="395.396197" y="226.431722" style="fill: #8172b2; fill-opacity: 0.35"/>
     <use xlink:href="#mfa05b00dc9" x="399.15814" y="235.506818" style="fill: #8172b2; fill-opacity: 0.35"/>
     <use xlink:href="#mfa05b00dc9" x="399.70883" y="227.079943" style="fill: #8172b2; fill-opacity: 0.35"/>
     <use xlink:href="#mfa05b00dc9" x="394.92101" y="245.113788" style="fill: #8172b2; fill-opacity: 0.35"/>
     <use xlink:href="#mfa05b00dc9" x="396.596095" y="241.581814" style="fill: #8172b2; fill-opacity: 0.35"/>
     <use xlink:href="#mfa05b00dc9" x="401.766691" y="246.676168" style="fill: #8172b2; fill-opacity: 0.35"/>
     <use xlink:href="#mfa05b00dc9" x="389.114669" y="245.205204" style="fill: #8172b2; fill-opacity: 0.35"/>
     <use xlink:href="#mfa05b00dc9" x="389.073665" y="245.504383" style="fill: #8172b2; fill-opacity: 0.35"/>
     <use xlink:href="#mfa05b00dc9" x="388.615378" y="246.360368" style="fill: #8172b2; fill-opacity: 0.35"/>
     <use xlink:href="#mfa05b00dc9" x="397.504572" y="249.23581" style="fill: #8172b2; fill-opacity: 0.35"/>
     <use xlink:href="#mfa05b00dc9" x="393.774382" y="255.551811" style="fill: #8172b2; fill-opacity: 0.35"/>
     <use xlink:href="#mfa05b00dc9" x="399.320254" y="255.244322" style="fill: #8172b2; fill-opacity: 0.35"/>
     <use xlink:href="#mfa05b00dc9" x="397.712993" y="262.873386" style="fill: #8172b2; fill-opacity: 0.35"/>
     <use xlink:href="#mfa05b00dc9" x="392.449618" y="235.955587" style="fill: #8172b2; fill-opacity: 0.35"/>
     <use xlink:href="#mfa05b00dc9" x="401.254224" y="235.323987" style="fill: #8172b2; fill-opacity: 0.35"/>
     <use xlink:href="#mfa05b00dc9" x="399.136449" y="260.679407" style="fill: #8172b2; fill-opacity: 0.35"/>
     <use xlink:href="#mfa05b00dc9" x="391.465791" y="212.652867" style="fill: #8172b2; fill-opacity: 0.35"/>
     <use xlink:href="#mfa05b00dc9" x="392.925985" y="231.093928" style="fill: #8172b2; fill-opacity: 0.35"/>
     <use xlink:href="#mfa05b00dc9" x="392.150308" y="252.119563" style="fill: #8172b2; fill-opacity: 0.35"/>
     <use xlink:href="#mfa05b00dc9" x="389.70522" y="247.50722" style="fill: #8172b2; fill-opacity: 0.35"/>
     <use xlink:href="#mfa05b00dc9" x="389.551989" y="245.562557" style="fill: #8172b2; fill-opacity: 0.35"/>
     <use xlink:href="#mfa05b00dc9" x="401.842949" y="245.595799" style="fill: #8172b2; fill-opacity: 0.35"/>
     <use xlink:href="#mfa05b00dc9" x="394.075219" y="212.611314" style="fill: #8172b2; fill-opacity: 0.35"/>
     <use xlink:href="#mfa05b00dc9" x="393.224204" y="246.285573" style="fill: #8172b2; fill-opacity: 0.35"/>
     <use xlink:href="#mfa05b00dc9" x="398.624345" y="242.512593" style="fill: #8172b2; fill-opacity: 0.35"/>
     <use xlink:href="#mfa05b00dc9" x="395.869556" y="258.460496" style="fill: #8172b2; fill-opacity: 0.35"/>
     <use xlink:href="#mfa05b00dc9" x="401.843144" y="259.715386" style="fill: #8172b2; fill-opacity: 0.35"/>
     <use xlink:href="#mfa05b00dc9" x="399.413489" y="250.839742" style="fill: #8172b2; fill-opacity: 0.35"/>
     <use xlink:href="#mfa05b00dc9" x="394.721702" y="255.144595" style="fill: #8172b2; fill-opacity: 0.35"/>
     <use xlink:href="#mfa05b00dc9" x="393.115686" y="253.465869" style="fill: #8172b2; fill-opacity: 0.35"/>
     <use xlink:href="#mfa05b00dc9" x="402.630351" y="256.100306" style="fill: #8172b2; fill-opacity: 0.35"/>
     <use xlink:href="#mfa05b00dc9" x="398.438417" y="246.800826" style="fill: #8172b2; fill-opacity: 0.35"/>
     <use xlink:href="#mfa05b00dc9" x="402.07786" y="257.912001" style="fill: #8172b2; fill-opacity: 0.35"/>
     <use xlink:href="#mfa05b00dc9" x="389.095102" y="249.052979" style="fill: #8172b2; fill-opacity: 0.35"/>
     <use xlink:href="#mfa05b00dc9" x="400.508469" y="223.265411" style="fill: #8172b2; fill-opacity: 0.35"/>
     <use xlink:href="#mfa05b00dc9" x="397.180448" y="256.607248" style="fill: #8172b2; fill-opacity: 0.35"/>
     <use xlink:href="#mfa05b00dc9" x="389.148783" y="248.163752" style="fill: #8172b2; fill-opacity: 0.35"/>
     <use xlink:href="#mfa05b00dc9" x="396.419366" y="259.075475" style="fill: #8172b2; fill-opacity: 0.35"/>
     <use xlink:href="#mfa05b00dc9" x="397.94475" y="256.175101" style="fill: #8172b2; fill-opacity: 0.35"/>
     <use xlink:href="#mfa05b00dc9" x="387.439729" y="229.307165" style="fill: #8172b2; fill-opacity: 0.35"/>
     <use xlink:href="#mfa05b00dc9" x="394.331126" y="242.795151" style="fill: #8172b2; fill-opacity: 0.35"/>
     <use xlink:href="#mfa05b00dc9" x="400.116606" y="253.440937" style="fill: #8172b2; fill-opacity: 0.35"/>
     <use xlink:href="#mfa05b00dc9" x="391.85282" y="248.978184" style="fill: #8172b2; fill-opacity: 0.35"/>
     <use xlink:href="#mfa05b00dc9" x="394.397077" y="253.150069" style="fill: #8172b2; fill-opacity: 0.35"/>
     <use xlink:href="#mfa05b00dc9" x="394.143976" y="246.019636" style="fill: #8172b2; fill-opacity: 0.35"/>
    </g>
   </g>
   <g id="text_13">
    <!-- *** -->
    <g transform="translate(144.686205 57.684606) scale(0.09 -0.09)">
     <defs>
      <path id="DejaVuSans-2a" d="M 3009 3897 
L 1888 3291 
L 3009 2681 
L 2828 2375 
L 1778 3009 
L 1778 1831 
L 1422 1831 
L 1422 3009 
L 372 2375 
L 191 2681 
L 1313 3291 
L 191 3897 
L 372 4206 
L 1422 3572 
L 1422 4750 
L 1778 4750 
L 1778 3572 
L 2828 4206 
L 3009 3897 
z
" transform="scale(0.015625)"/>
     </defs>
     <use xlink:href="#DejaVuSans-2a"/>
     <use xlink:href="#DejaVuSans-2a" transform="translate(50 0)"/>
     <use xlink:href="#DejaVuSans-2a" transform="translate(100 0)"/>
    </g>
   </g>
   <g id="text_14">
    <!-- *** -->
    <g transform="translate(193.407634 42.725656) scale(0.09 -0.09)">
     <use xlink:href="#DejaVuSans-2a"/>
     <use xlink:href="#DejaVuSans-2a" transform="translate(50 0)"/>
     <use xlink:href="#DejaVuSans-2a" transform="translate(100 0)"/>
    </g>
   </g>
   <g id="text_15">
    <!-- *** -->
    <g transform="translate(242.129062 27.766706) scale(0.09 -0.09)">
     <use xlink:href="#DejaVuSans-2a"/>
     <use xlink:href="#DejaVuSans-2a" transform="translate(50 0)"/>
     <use xlink:href="#DejaVuSans-2a" transform="translate(100 0)"/>
    </g>
   </g>
  </g>
 </g>
 <defs>
  <clipPath id="p432dd9f69b">
   <rect x="44.249063" y="7.2" width="409.26" height="274.156"/>
  </clipPath>
 </defs>
</svg>
