<?xml version="1.0" encoding="utf-8" standalone="no"?>
<!DOCTYPE svg PUBLIC "-//W3C//DTD SVG 1.1//EN"
  "http://www.w3.org/Graphics/SVG/1.1/DTD/svg11.dtd">
<svg xmlns:xlink="http://www.w3.org/1999/xlink" width="424.55875pt" height="315.931938pt" viewBox="0 0 424.55875 315.931938" xmlns="http://www.w3.org/2000/svg" version="1.1">
 <metadata>
  <rdf:RDF xmlns:dc="http://purl.org/dc/elements/1.1/" xmlns:cc="http://creativecommons.org/ns#" xmlns:rdf="http://www.w3.org/1999/02/22-rdf-syntax-ns#">
   <cc:Work>
    <dc:type rdf:resource="http://purl.org/dc/dcmitype/StillImage"/>
    <dc:date>2026-05-24T23:06:29.184958</dc:date>
    <dc:format>image/svg+xml</dc:format>
    <dc:creator>
     <cc:Agent>
      <dc:title>Matplotlib v3.10.9, https://matplotlib.org/</dc:title>
     </cc:Agent>
    </dc:creator>
   </cc:Work>
  </rdf:RDF>
 </metadata>
 <defs>
  <style type="text/css">*{stroke-linejoin: round; stroke-linecap: butt}</style>
 </defs>
 <g id="figure_1">
  <g id="patch_1">
   <path d="M 0 315.931938 
L 424.55875 315.931938 
L 424.55875 0 
L 0 0 
z
" style="fill: #ffffff"/>
  </g>
  <g id="axes_1">
   <g id="patch_2">
    <path d="M 43.15875 280.856 
L 417.35875 280.856 
L 417.35875 7.2 
L 43.15875 7.2 
z
" style="fill: #ffffff"/>
   </g>
   <g id="FillBetweenPolyCollection_1">
    <defs>
     <path id="mffd6ec4dbc" d="M 100.470722 -69.641929 
L 92.761063 -69.641929 
L 92.176237 -71.313764 
L 91.534308 -72.985599 
L 90.830738 -74.657434 
L 90.060487 -76.329269 
L 89.218359 -78.001104 
L 88.29952 -79.672939 
L 87.300163 -81.344775 
L 86.218297 -83.01661 
L 85.054595 -84.688445 
L 83.813237 -86.36028 
L 82.502667 -88.032115 
L 81.136154 -89.70395 
L 79.732074 -91.375786 
L 78.313808 -93.047621 
L 76.909216 -94.719456 
L 75.549639 -96.391291 
L 74.268487 -98.063126 
L 73.099472 -99.734961 
L 72.074644 -101.406797 
L 71.222392 -103.078632 
L 70.565617 -104.750467 
L 70.12025 -106.422302 
L 69.894271 -108.094137 
L 69.887321 -109.765972 
L 70.090926 -111.437807 
L 70.489288 -113.109643 
L 71.060541 -114.781478 
L 71.778313 -116.453313 
L 72.613448 -118.125148 
L 73.535706 -119.796983 
L 74.515331 -121.468818 
L 75.524383 -123.140654 
L 76.53778 -124.812489 
L 77.534029 -126.484324 
L 78.495667 -128.156159 
L 79.409439 -129.827994 
L 80.266252 -131.499829 
L 81.060954 -133.171665 
L 81.791977 -134.8435 
L 82.460887 -136.515335 
L 83.071879 -138.18717 
L 83.631246 -139.859005 
L 84.14684 -141.53084 
L 84.627554 -143.202675 
L 85.082823 -144.874511 
L 85.522153 -146.546346 
L 85.954659 -148.218181 
L 86.38863 -149.890016 
L 86.831105 -151.561851 
L 87.287474 -153.233686 
L 87.761142 -154.905522 
L 88.253271 -156.577357 
L 88.762656 -158.249192 
L 89.285757 -159.921027 
L 89.816907 -161.592862 
L 90.34871 -163.264697 
L 90.872577 -164.936533 
L 91.379374 -166.608368 
L 91.860097 -168.280203 
L 92.306525 -169.952038 
L 92.711773 -171.623873 
L 93.070705 -173.295708 
L 93.380202 -174.967543 
L 93.639255 -176.639379 
L 93.848945 -178.311214 
L 94.012295 -179.983049 
L 94.134057 -181.654884 
L 94.220437 -183.326719 
L 94.278775 -184.998554 
L 94.317175 -186.67039 
L 94.344096 -188.342225 
L 94.367898 -190.01406 
L 94.396363 -191.685895 
L 94.436212 -193.35773 
L 94.492672 -195.029565 
L 94.569129 -196.701401 
L 94.666923 -198.373236 
L 94.785306 -200.045071 
L 94.921587 -201.716906 
L 95.07145 -203.388741 
L 95.229404 -205.060576 
L 95.389313 -206.732411 
L 95.544953 -208.404247 
L 95.690524 -210.076082 
L 95.821079 -211.747917 
L 95.932836 -213.419752 
L 96.023355 -215.091587 
L 96.091599 -216.763422 
L 96.137884 -218.435258 
L 96.163743 -220.107093 
L 96.171734 -221.778928 
L 96.165206 -223.450763 
L 96.148044 -225.122598 
L 96.124401 -226.794433 
L 96.098429 -228.466268 
L 96.074022 -230.138104 
L 96.054581 -231.809939 
L 96.042819 -233.481774 
L 96.04062 -235.153609 
L 97.191165 -235.153609 
L 97.191165 -235.153609 
L 97.188967 -233.481774 
L 97.177205 -231.809939 
L 97.157764 -230.138104 
L 97.133357 -228.466268 
L 97.107385 -226.794433 
L 97.083742 -225.122598 
L 97.06658 -223.450763 
L 97.060052 -221.778928 
L 97.068043 -220.107093 
L 97.093901 -218.435258 
L 97.140186 -216.763422 
L 97.208431 -215.091587 
L 97.29895 -213.419752 
L 97.410706 -211.747917 
L 97.541262 -210.076082 
L 97.686833 -208.404247 
L 97.842473 -206.732411 
L 98.002382 -205.060576 
L 98.160335 -203.388741 
L 98.310199 -201.716906 
L 98.44648 -200.045071 
L 98.564862 -198.373236 
L 98.662656 -196.701401 
L 98.739114 -195.029565 
L 98.795574 -193.35773 
L 98.835423 -191.685895 
L 98.863887 -190.01406 
L 98.88769 -188.342225 
L 98.914611 -186.67039 
L 98.953011 -184.998554 
L 99.011349 -183.326719 
L 99.097729 -181.654884 
L 99.219491 -179.983049 
L 99.382841 -178.311214 
L 99.59253 -176.639379 
L 99.851584 -174.967543 
L 100.16108 -173.295708 
L 100.520013 -171.623873 
L 100.92526 -169.952038 
L 101.371689 -168.280203 
L 101.852412 -166.608368 
L 102.359208 -164.936533 
L 102.883076 -163.264697 
L 103.414879 -161.592862 
L 103.946029 -159.921027 
L 104.469129 -158.249192 
L 104.978515 -156.577357 
L 105.470644 -154.905522 
L 105.944312 -153.233686 
L 106.400681 -151.561851 
L 106.843155 -149.890016 
L 107.277127 -148.218181 
L 107.709633 -146.546346 
L 108.148962 -144.874511 
L 108.604232 -143.202675 
L 109.084945 -141.53084 
L 109.600539 -139.859005 
L 110.159906 -138.18717 
L 110.770899 -136.515335 
L 111.439809 -134.8435 
L 112.170831 -133.171665 
L 112.965534 -131.499829 
L 113.822347 -129.827994 
L 114.736119 -128.156159 
L 115.697757 -126.484324 
L 116.694005 -124.812489 
L 117.707402 -123.140654 
L 118.716455 -121.468818 
L 119.69608 -119.796983 
L 120.618337 -118.125148 
L 121.453472 -116.453313 
L 122.171245 -114.781478 
L 122.742498 -113.109643 
L 123.14086 -111.437807 
L 123.344464 -109.765972 
L 123.337515 -108.094137 
L 123.111536 -106.422302 
L 122.666169 -104.750467 
L 122.009394 -103.078632 
L 121.157142 -101.406797 
L 120.132314 -99.734961 
L 118.963299 -98.063126 
L 117.682147 -96.391291 
L 116.32257 -94.719456 
L 114.917977 -93.047621 
L 113.499712 -91.375786 
L 112.095632 -89.70395 
L 110.729119 -88.032115 
L 109.418549 -86.36028 
L 108.177191 -84.688445 
L 107.013489 -83.01661 
L 105.931623 -81.344775 
L 104.932266 -79.672939 
L 104.013426 -78.001104 
L 103.171298 -76.329269 
L 102.401047 -74.657434 
L 101.697478 -72.985599 
L 101.055549 -71.313764 
L 100.470722 -69.641929 
z
" style="stroke: #4c72b0; stroke-opacity: 0.35; stroke-width: 0.8"/>
    </defs>
    <g clip-path="url(#p164b09dd9b)">
     <use xlink:href="#mffd6ec4dbc" x="0" y="315.931938" style="fill: #4c72b0; fill-opacity: 0.35; stroke: #4c72b0; stroke-opacity: 0.35; stroke-width: 0.8"/>
    </g>
   </g>
   <g id="FillBetweenPolyCollection_2">
    <defs>
     <path id="m2d364aab71" d="M 196.92766 -70.583415 
L 174.494601 -70.583415 
L 173.160325 -72.013425 
L 171.825218 -73.443436 
L 170.511293 -74.873446 
L 169.2388 -76.303456 
L 168.025115 -77.733467 
L 166.883884 -79.163477 
L 165.824508 -80.593488 
L 164.852038 -82.023498 
L 163.967469 -83.453509 
L 163.168406 -84.883519 
L 162.450024 -86.313529 
L 161.806204 -87.74354 
L 161.230732 -89.17355 
L 160.718416 -90.603561 
L 160.266034 -92.033571 
L 159.873007 -93.463582 
L 159.541768 -94.893592 
L 159.2778 -96.323603 
L 159.089366 -97.753613 
L 158.986965 -99.183623 
L 158.98256 -100.613634 
L 159.088637 -102.043644 
L 159.317153 -103.473655 
L 159.678433 -104.903665 
L 160.180075 -106.333676 
L 160.825955 -107.763686 
L 161.615406 -109.193696 
L 162.542641 -110.623707 
L 163.596535 -112.053717 
L 164.760778 -113.483728 
L 166.014472 -114.913738 
L 167.333109 -116.343749 
L 168.689897 -117.773759 
L 170.057291 -119.203769 
L 171.408594 -120.63378 
L 172.719466 -122.06379 
L 173.969169 -123.493801 
L 175.141434 -124.923811 
L 176.224874 -126.353822 
L 177.212938 -127.783832 
L 178.103438 -129.213843 
L 178.897777 -130.643853 
L 179.599992 -132.073863 
L 180.215768 -133.503874 
L 180.751566 -134.933884 
L 181.213939 -136.363895 
L 181.609111 -137.793905 
L 181.942817 -139.223916 
L 182.220357 -140.653926 
L 182.446793 -142.083936 
L 182.627218 -143.513947 
L 182.766987 -144.943957 
L 182.871871 -146.373968 
L 182.948079 -147.803978 
L 183.002147 -149.233989 
L 183.040719 -150.663999 
L 183.07026 -152.094009 
L 183.09675 -153.52402 
L 183.125417 -154.95403 
L 183.160549 -156.384041 
L 183.205386 -157.814051 
L 183.262126 -159.244062 
L 183.33199 -160.674072 
L 183.415348 -162.104083 
L 183.511851 -163.534093 
L 183.620559 -164.964103 
L 183.740031 -166.394114 
L 183.86839 -167.824124 
L 184.003362 -169.254135 
L 184.1423 -170.684145 
L 184.282236 -172.114156 
L 184.419957 -173.544166 
L 184.552123 -174.974176 
L 184.675429 -176.404187 
L 184.786798 -177.834197 
L 184.883591 -179.264208 
L 184.963791 -180.694218 
L 185.026165 -182.124229 
L 185.07036 -183.554239 
L 185.096923 -184.98425 
L 185.107253 -186.41426 
L 185.103464 -187.84427 
L 185.088206 -189.274281 
L 185.06443 -190.704291 
L 185.035156 -192.134302 
L 185.003243 -193.564312 
L 184.971218 -194.994323 
L 184.941149 -196.424333 
L 184.914601 -197.854343 
L 184.892656 -199.284354 
L 184.875993 -200.714364 
L 184.865007 -202.144375 
L 184.859928 -203.574385 
L 184.860936 -205.004396 
L 184.868227 -206.434406 
L 184.882036 -207.864416 
L 184.902602 -209.294427 
L 184.930096 -210.724437 
L 184.96453 -212.154448 
L 186.457732 -212.154448 
L 186.457732 -212.154448 
L 186.492166 -210.724437 
L 186.51966 -209.294427 
L 186.540226 -207.864416 
L 186.554035 -206.434406 
L 186.561326 -205.004396 
L 186.562334 -203.574385 
L 186.557255 -202.144375 
L 186.546269 -200.714364 
L 186.529606 -199.284354 
L 186.507661 -197.854343 
L 186.481113 -196.424333 
L 186.451044 -194.994323 
L 186.419019 -193.564312 
L 186.387106 -192.134302 
L 186.357831 -190.704291 
L 186.334056 -189.274281 
L 186.318798 -187.84427 
L 186.315009 -186.41426 
L 186.325339 -184.98425 
L 186.351902 -183.554239 
L 186.396097 -182.124229 
L 186.458471 -180.694218 
L 186.538671 -179.264208 
L 186.635464 -177.834197 
L 186.746833 -176.404187 
L 186.870139 -174.974176 
L 187.002304 -173.544166 
L 187.140026 -172.114156 
L 187.279962 -170.684145 
L 187.4189 -169.254135 
L 187.553871 -167.824124 
L 187.682231 -166.394114 
L 187.801703 -164.964103 
L 187.910411 -163.534093 
L 188.006914 -162.104083 
L 188.090272 -160.674072 
L 188.160136 -159.244062 
L 188.216876 -157.814051 
L 188.261713 -156.384041 
L 188.296844 -154.95403 
L 188.325512 -153.52402 
L 188.352002 -152.094009 
L 188.381543 -150.663999 
L 188.420115 -149.233989 
L 188.474183 -147.803978 
L 188.550391 -146.373968 
L 188.655275 -144.943957 
L 188.795044 -143.513947 
L 188.975469 -142.083936 
L 189.201905 -140.653926 
L 189.479445 -139.223916 
L 189.813151 -137.793905 
L 190.208323 -136.363895 
L 190.670696 -134.933884 
L 191.206493 -133.503874 
L 191.82227 -132.073863 
L 192.524484 -130.643853 
L 193.318824 -129.213843 
L 194.209324 -127.783832 
L 195.197388 -126.353822 
L 196.280828 -124.923811 
L 197.453092 -123.493801 
L 198.702795 -122.06379 
L 200.013668 -120.63378 
L 201.364971 -119.203769 
L 202.732364 -117.773759 
L 204.089152 -116.343749 
L 205.40779 -114.913738 
L 206.661484 -113.483728 
L 207.825727 -112.053717 
L 208.87962 -110.623707 
L 209.806856 -109.193696 
L 210.596306 -107.763686 
L 211.242187 -106.333676 
L 211.743829 -104.903665 
L 212.105108 -103.473655 
L 212.333625 -102.043644 
L 212.439702 -100.613634 
L 212.435297 -99.183623 
L 212.332896 -97.753613 
L 212.144462 -96.323603 
L 211.880494 -94.893592 
L 211.549255 -93.463582 
L 211.156228 -92.033571 
L 210.703846 -90.603561 
L 210.19153 -89.17355 
L 209.616057 -87.74354 
L 208.972238 -86.313529 
L 208.253856 -84.883519 
L 207.454793 -83.453509 
L 206.570224 -82.023498 
L 205.597754 -80.593488 
L 204.538378 -79.163477 
L 203.397146 -77.733467 
L 202.183462 -76.303456 
L 200.910969 -74.873446 
L 199.597044 -73.443436 
L 198.261937 -72.013425 
L 196.92766 -70.583415 
z
" style="stroke: #dd8452; stroke-opacity: 0.35; stroke-width: 0.8"/>
    </defs>
    <g clip-path="url(#p164b09dd9b)">
     <use xlink:href="#m2d364aab71" x="0" y="315.931938" style="fill: #dd8452; fill-opacity: 0.35; stroke: #dd8452; stroke-opacity: 0.35; stroke-width: 0.8"/>
    </g>
   </g>
   <g id="FillBetweenPolyCollection_3">
    <defs>
     <path id="m45d8a0a771" d="M 280.228194 -54.491122 
L 269.384544 -54.491122 
L 268.467433 -55.34582 
L 267.45692 -56.200518 
L 266.357 -57.055215 
L 265.174667 -57.909913 
L 263.91997 -58.764611 
L 262.605905 -59.619309 
L 261.24816 -60.474006 
L 259.864698 -61.328704 
L 258.475226 -62.183402 
L 257.100569 -63.0381 
L 255.761976 -63.892798 
L 254.480424 -64.747495 
L 253.275938 -65.602193 
L 252.166957 -66.456891 
L 251.169791 -67.311589 
L 250.29816 -68.166286 
L 249.562839 -69.020984 
L 248.9714 -69.875682 
L 248.528058 -70.73038 
L 248.23361 -71.585077 
L 248.085472 -72.439775 
L 248.077798 -73.294473 
L 248.201707 -74.149171 
L 248.445599 -75.003868 
L 248.795566 -75.858566 
L 249.235898 -76.713264 
L 249.749667 -77.567962 
L 250.319379 -78.422659 
L 250.927647 -79.277357 
L 251.557875 -80.132055 
L 252.194894 -80.986753 
L 252.825518 -81.84145 
L 253.438979 -82.696148 
L 254.027218 -83.550846 
L 254.585004 -84.405544 
L 255.109878 -85.260241 
L 255.601944 -86.114939 
L 256.063499 -86.969637 
L 256.498568 -87.824335 
L 256.912365 -88.679032 
L 257.310719 -89.53373 
L 257.699535 -90.388428 
L 258.084298 -91.243126 
L 258.469674 -92.097823 
L 258.859219 -92.952521 
L 259.255215 -93.807219 
L 259.658628 -94.661917 
L 260.069177 -95.516614 
L 260.485496 -96.371312 
L 260.905374 -97.22601 
L 261.326029 -98.080708 
L 261.744397 -98.935405 
L 262.157419 -99.790103 
L 262.562281 -100.644801 
L 262.956622 -101.499499 
L 263.338683 -102.354196 
L 263.707392 -103.208894 
L 264.062407 -104.063592 
L 264.404106 -104.91829 
L 264.733541 -105.772987 
L 265.052355 -106.627685 
L 265.362681 -107.482383 
L 265.66702 -108.337081 
L 265.968097 -109.191778 
L 266.26871 -110.046476 
L 266.571558 -110.901174 
L 266.87907 -111.755872 
L 267.193227 -112.610569 
L 267.515401 -113.465267 
L 267.846208 -114.319965 
L 268.185404 -115.174663 
L 268.531825 -116.02936 
L 268.883391 -116.884058 
L 269.237172 -117.738756 
L 269.589521 -118.593454 
L 269.936268 -119.448152 
L 270.272956 -120.302849 
L 270.595119 -121.157547 
L 270.898554 -122.012245 
L 271.17959 -122.866943 
L 271.435319 -123.72164 
L 271.663779 -124.576338 
L 271.86407 -125.431036 
L 272.036398 -126.285734 
L 272.182048 -127.140431 
L 272.303287 -127.995129 
L 272.403213 -128.849827 
L 272.485549 -129.704525 
L 272.554419 -130.559222 
L 272.614102 -131.41392 
L 272.668798 -132.268618 
L 272.722407 -133.123316 
L 272.778345 -133.978013 
L 272.839399 -134.832711 
L 272.907634 -135.687409 
L 272.984342 -136.542107 
L 273.07005 -137.396804 
L 273.164564 -138.251502 
L 273.267054 -139.1062 
L 276.345684 -139.1062 
L 276.345684 -139.1062 
L 276.448174 -138.251502 
L 276.542688 -137.396804 
L 276.628396 -136.542107 
L 276.705104 -135.687409 
L 276.773339 -134.832711 
L 276.834393 -133.978013 
L 276.890331 -133.123316 
L 276.94394 -132.268618 
L 276.998636 -131.41392 
L 277.058319 -130.559222 
L 277.127189 -129.704525 
L 277.209525 -128.849827 
L 277.309451 -127.995129 
L 277.430691 -127.140431 
L 277.57634 -126.285734 
L 277.748668 -125.431036 
L 277.948959 -124.576338 
L 278.177419 -123.72164 
L 278.433148 -122.866943 
L 278.714184 -122.012245 
L 279.017619 -121.157547 
L 279.339782 -120.302849 
L 279.676471 -119.448152 
L 280.023217 -118.593454 
L 280.375566 -117.738756 
L 280.729347 -116.884058 
L 281.080913 -116.02936 
L 281.427334 -115.174663 
L 281.76653 -114.319965 
L 282.097337 -113.465267 
L 282.419511 -112.610569 
L 282.733668 -111.755872 
L 283.04118 -110.901174 
L 283.344028 -110.046476 
L 283.644641 -109.191778 
L 283.945718 -108.337081 
L 284.250057 -107.482383 
L 284.560384 -106.627685 
L 284.879197 -105.772987 
L 285.208632 -104.91829 
L 285.550331 -104.063592 
L 285.905346 -103.208894 
L 286.274055 -102.354196 
L 286.656116 -101.499499 
L 287.050457 -100.644801 
L 287.455319 -99.790103 
L 287.868341 -98.935405 
L 288.286709 -98.080708 
L 288.707364 -97.22601 
L 289.127242 -96.371312 
L 289.543561 -95.516614 
L 289.95411 -94.661917 
L 290.357523 -93.807219 
L 290.75352 -92.952521 
L 291.143064 -92.097823 
L 291.52844 -91.243126 
L 291.913203 -90.388428 
L 292.302019 -89.53373 
L 292.700374 -88.679032 
L 293.11417 -87.824335 
L 293.549239 -86.969637 
L 294.010794 -86.114939 
L 294.50286 -85.260241 
L 295.027735 -84.405544 
L 295.58552 -83.550846 
L 296.173759 -82.696148 
L 296.78722 -81.84145 
L 297.417844 -80.986753 
L 298.054863 -80.132055 
L 298.685091 -79.277357 
L 299.293359 -78.422659 
L 299.863071 -77.567962 
L 300.37684 -76.713264 
L 300.817172 -75.858566 
L 301.167139 -75.003868 
L 301.411031 -74.149171 
L 301.53494 -73.294473 
L 301.527266 -72.439775 
L 301.379128 -71.585077 
L 301.08468 -70.73038 
L 300.641338 -69.875682 
L 300.049899 -69.020984 
L 299.314578 -68.166286 
L 298.442947 -67.311589 
L 297.445781 -66.456891 
L 296.336801 -65.602193 
L 295.132314 -64.747495 
L 293.850762 -63.892798 
L 292.512169 -63.0381 
L 291.137512 -62.183402 
L 289.748041 -61.328704 
L 288.364578 -60.474006 
L 287.006833 -59.619309 
L 285.692768 -58.764611 
L 284.438071 -57.909913 
L 283.255739 -57.055215 
L 282.155818 -56.200518 
L 281.145305 -55.34582 
L 280.228194 -54.491122 
z
" style="stroke: #55a868; stroke-opacity: 0.35; stroke-width: 0.8"/>
    </defs>
    <g clip-path="url(#p164b09dd9b)">
     <use xlink:href="#m45d8a0a771" x="0" y="315.931938" style="fill: #55a868; fill-opacity: 0.35; stroke: #55a868; stroke-opacity: 0.35; stroke-width: 0.8"/>
    </g>
   </g>
   <g id="FillBetweenPolyCollection_4">
    <defs>
     <path id="m5a2a481f85" d="M 368.903066 -49.846985 
L 358.900148 -49.846985 
L 358.213496 -50.40128 
L 357.473725 -50.955574 
L 356.679173 -51.509869 
L 355.828066 -52.064164 
L 354.918859 -52.618459 
L 353.950695 -53.172754 
L 352.923955 -53.727049 
L 351.840849 -54.281344 
L 350.705957 -54.835639 
L 349.526657 -55.389933 
L 348.313379 -55.944228 
L 347.079612 -56.498523 
L 345.841657 -57.052818 
L 344.618104 -57.607113 
L 343.429092 -58.161408 
L 342.295385 -58.715703 
L 341.237371 -59.269997 
L 340.274061 -59.824292 
L 339.422187 -60.378587 
L 338.695485 -60.932882 
L 338.104218 -61.487177 
L 337.654975 -62.041472 
L 337.350729 -62.595767 
L 337.191142 -63.150062 
L 337.173036 -63.704356 
L 337.290961 -64.258651 
L 337.537788 -64.812946 
L 337.905239 -65.367241 
L 338.384317 -65.921536 
L 338.965582 -66.475831 
L 339.6393 -67.030126 
L 340.395453 -67.584421 
L 341.223675 -68.138715 
L 342.113153 -68.69301 
L 343.052537 -69.247305 
L 344.029921 -69.8016 
L 345.032894 -70.355895 
L 346.048706 -70.91019 
L 347.064517 -71.464485 
L 348.067721 -72.018779 
L 349.046316 -72.573074 
L 349.989285 -73.127369 
L 350.886953 -73.681664 
L 351.731297 -74.235959 
L 352.516175 -74.790254 
L 353.237469 -75.344549 
L 353.893127 -75.898844 
L 354.483109 -76.453138 
L 355.009241 -77.007433 
L 355.474992 -77.561728 
L 355.885187 -78.116023 
L 356.245694 -78.670318 
L 356.563083 -79.224613 
L 356.844309 -79.778908 
L 357.096412 -80.333202 
L 357.326266 -80.887497 
L 357.540378 -81.441792 
L 357.74473 -81.996087 
L 357.944677 -82.550382 
L 358.144868 -83.104677 
L 358.349203 -83.658972 
L 358.560796 -84.213267 
L 358.781945 -84.767561 
L 359.014115 -85.321856 
L 359.257917 -85.876151 
L 359.513101 -86.430446 
L 359.778566 -86.984741 
L 360.052395 -87.539036 
L 360.331918 -88.093331 
L 360.61381 -88.647626 
L 360.894216 -89.20192 
L 361.16891 -89.756215 
L 361.433469 -90.31051 
L 361.683468 -90.864805 
L 361.914673 -91.4191 
L 362.123235 -91.973395 
L 362.305873 -92.52769 
L 362.460036 -93.081984 
L 362.584043 -93.636279 
L 362.677187 -94.190574 
L 362.739807 -94.744869 
L 362.773305 -95.299164 
L 362.780121 -95.853459 
L 362.76365 -96.407754 
L 362.728104 -96.962049 
L 362.678328 -97.516343 
L 362.619563 -98.070638 
L 362.557196 -98.624933 
L 362.496487 -99.179228 
L 362.442303 -99.733523 
L 362.398891 -100.287818 
L 362.369679 -100.842113 
L 362.357152 -101.396407 
L 362.36278 -101.950702 
L 362.387017 -102.504997 
L 362.429367 -103.059292 
L 362.488496 -103.613587 
L 362.56238 -104.167882 
L 362.648485 -104.722177 
L 365.154729 -104.722177 
L 365.154729 -104.722177 
L 365.240835 -104.167882 
L 365.314719 -103.613587 
L 365.373847 -103.059292 
L 365.416198 -102.504997 
L 365.440435 -101.950702 
L 365.446062 -101.396407 
L 365.433535 -100.842113 
L 365.404323 -100.287818 
L 365.360911 -99.733523 
L 365.306727 -99.179228 
L 365.246018 -98.624933 
L 365.183651 -98.070638 
L 365.124887 -97.516343 
L 365.07511 -96.962049 
L 365.039564 -96.407754 
L 365.023093 -95.853459 
L 365.029909 -95.299164 
L 365.063407 -94.744869 
L 365.126027 -94.190574 
L 365.219171 -93.636279 
L 365.343178 -93.081984 
L 365.497341 -92.52769 
L 365.679979 -91.973395 
L 365.888541 -91.4191 
L 366.119746 -90.864805 
L 366.369745 -90.31051 
L 366.634304 -89.756215 
L 366.908998 -89.20192 
L 367.189404 -88.647626 
L 367.471296 -88.093331 
L 367.750819 -87.539036 
L 368.024648 -86.984741 
L 368.290113 -86.430446 
L 368.545297 -85.876151 
L 368.789099 -85.321856 
L 369.02127 -84.767561 
L 369.242419 -84.213267 
L 369.454011 -83.658972 
L 369.658346 -83.104677 
L 369.858537 -82.550382 
L 370.058484 -81.996087 
L 370.262836 -81.441792 
L 370.476948 -80.887497 
L 370.706802 -80.333202 
L 370.958905 -79.778908 
L 371.240131 -79.224613 
L 371.55752 -78.670318 
L 371.918027 -78.116023 
L 372.328223 -77.561728 
L 372.793973 -77.007433 
L 373.320106 -76.453138 
L 373.910088 -75.898844 
L 374.565745 -75.344549 
L 375.287039 -74.790254 
L 376.071917 -74.235959 
L 376.916261 -73.681664 
L 377.813929 -73.127369 
L 378.756898 -72.573074 
L 379.735493 -72.018779 
L 380.738697 -71.464485 
L 381.754508 -70.91019 
L 382.770321 -70.355895 
L 383.773294 -69.8016 
L 384.750677 -69.247305 
L 385.690061 -68.69301 
L 386.579539 -68.138715 
L 387.407761 -67.584421 
L 388.163914 -67.030126 
L 388.837632 -66.475831 
L 389.418898 -65.921536 
L 389.897975 -65.367241 
L 390.265427 -64.812946 
L 390.512253 -64.258651 
L 390.630179 -63.704356 
L 390.612072 -63.150062 
L 390.452486 -62.595767 
L 390.14824 -62.041472 
L 389.698996 -61.487177 
L 389.107729 -60.932882 
L 388.381027 -60.378587 
L 387.529153 -59.824292 
L 386.565843 -59.269997 
L 385.50783 -58.715703 
L 384.374123 -58.161408 
L 383.18511 -57.607113 
L 381.961557 -57.052818 
L 380.723602 -56.498523 
L 379.489836 -55.944228 
L 378.276558 -55.389933 
L 377.097258 -54.835639 
L 375.962365 -54.281344 
L 374.879259 -53.727049 
L 373.85252 -53.172754 
L 372.884355 -52.618459 
L 371.975148 -52.064164 
L 371.124041 -51.509869 
L 370.329489 -50.955574 
L 369.589718 -50.40128 
L 368.903066 -49.846985 
z
" style="stroke: #c44e52; stroke-opacity: 0.35; stroke-width: 0.8"/>
    </defs>
    <g clip-path="url(#p164b09dd9b)">
     <use xlink:href="#m5a2a481f85" x="0" y="315.931938" style="fill: #c44e52; fill-opacity: 0.35; stroke: #c44e52; stroke-opacity: 0.35; stroke-width: 0.8"/>
    </g>
   </g>
   <g id="matplotlib.axis_1">
    <g id="xtick_1">
     <g id="line2d_1">
      <defs>
       <path id="ma7b6c8db97" d="M 0 0 
L 0 3.5 
" style="stroke: #000000; stroke-width: 0.8"/>
      </defs>
      <g>
       <use xlink:href="#ma7b6c8db97" x="96.615893" y="280.856" style="stroke: #000000; stroke-width: 0.8"/>
      </g>
     </g>
     <g id="text_1">
      <!-- Control -->
      <g transform="translate(78.544799 295.454438) scale(0.1 -0.1)">
       <defs>
        <path id="DejaVuSans-43" d="M 4122 4306 
L 4122 3641 
Q 3803 3938 3442 4084 
Q 3081 4231 2675 4231 
Q 1875 4231 1450 3742 
Q 1025 3253 1025 2328 
Q 1025 1406 1450 917 
Q 1875 428 2675 428 
Q 3081 428 3442 575 
Q 3803 722 4122 1019 
L 4122 359 
Q 3791 134 3420 21 
Q 3050 -91 2638 -91 
Q 1578 -91 968 557 
Q 359 1206 359 2328 
Q 359 3453 968 4101 
Q 1578 4750 2638 4750 
Q 3056 4750 3426 4639 
Q 3797 4528 4122 4306 
z
" transform="scale(0.015625)"/>
        <path id="DejaVuSans-6f" d="M 1959 3097 
Q 1497 3097 1228 2736 
Q 959 2375 959 1747 
Q 959 1119 1226 758 
Q 1494 397 1959 397 
Q 2419 397 2687 759 
Q 2956 1122 2956 1747 
Q 2956 2369 2687 2733 
Q 2419 3097 1959 3097 
z
M 1959 3584 
Q 2709 3584 3137 3096 
Q 3566 2609 3566 1747 
Q 3566 888 3137 398 
Q 2709 -91 1959 -91 
Q 1206 -91 779 398 
Q 353 888 353 1747 
Q 353 2609 779 3096 
Q 1206 3584 1959 3584 
z
" transform="scale(0.015625)"/>
        <path id="DejaVuSans-6e" d="M 3513 2113 
L 3513 0 
L 2938 0 
L 2938 2094 
Q 2938 2591 2744 2837 
Q 2550 3084 2163 3084 
Q 1697 3084 1428 2787 
Q 1159 2491 1159 1978 
L 1159 0 
L 581 0 
L 581 3500 
L 1159 3500 
L 1159 2956 
Q 1366 3272 1645 3428 
Q 1925 3584 2291 3584 
Q 2894 3584 3203 3211 
Q 3513 2838 3513 2113 
z
" transform="scale(0.015625)"/>
        <path id="DejaVuSans-74" d="M 1172 4494 
L 1172 3500 
L 2356 3500 
L 2356 3053 
L 1172 3053 
L 1172 1153 
Q 1172 725 1289 603 
Q 1406 481 1766 481 
L 2356 481 
L 2356 0 
L 1766 0 
Q 1100 0 847 248 
Q 594 497 594 1153 
L 594 3053 
L 172 3053 
L 172 3500 
L 594 3500 
L 594 4494 
L 1172 4494 
z
" transform="scale(0.015625)"/>
        <path id="DejaVuSans-72" d="M 2631 2963 
Q 2534 3019 2420 3045 
Q 2306 3072 2169 3072 
Q 1681 3072 1420 2755 
Q 1159 2438 1159 1844 
L 1159 0 
L 581 0 
L 581 3500 
L 1159 3500 
L 1159 2956 
Q 1341 3275 1631 3429 
Q 1922 3584 2338 3584 
Q 2397 3584 2469 3576 
Q 2541 3569 2628 3553 
L 2631 2963 
z
" transform="scale(0.015625)"/>
        <path id="DejaVuSans-6c" d="M 603 4863 
L 1178 4863 
L 1178 0 
L 603 0 
L 603 4863 
z
" transform="scale(0.015625)"/>
       </defs>
       <use xlink:href="#DejaVuSans-43"/>
       <use xlink:href="#DejaVuSans-6f" transform="translate(69.824219 0)"/>
       <use xlink:href="#DejaVuSans-6e" transform="translate(131.005859 0)"/>
       <use xlink:href="#DejaVuSans-74" transform="translate(194.384766 0)"/>
       <use xlink:href="#DejaVuSans-72" transform="translate(233.59375 0)"/>
       <use xlink:href="#DejaVuSans-6f" transform="translate(272.457031 0)"/>
       <use xlink:href="#DejaVuSans-6c" transform="translate(333.638672 0)"/>
      </g>
     </g>
    </g>
    <g id="xtick_2">
     <g id="line2d_2">
      <g>
       <use xlink:href="#ma7b6c8db97" x="185.711131" y="280.856" style="stroke: #000000; stroke-width: 0.8"/>
      </g>
     </g>
     <g id="text_2">
      <!-- Drug-A -->
      <g transform="translate(168.350975 295.454438) scale(0.1 -0.1)">
       <defs>
        <path id="DejaVuSans-44" d="M 1259 4147 
L 1259 519 
L 2022 519 
Q 2988 519 3436 956 
Q 3884 1394 3884 2338 
Q 3884 3275 3436 3711 
Q 2988 4147 2022 4147 
L 1259 4147 
z
M 628 4666 
L 1925 4666 
Q 3281 4666 3915 4102 
Q 4550 3538 4550 2338 
Q 4550 1131 3912 565 
Q 3275 0 1925 0 
L 628 0 
L 628 4666 
z
" transform="scale(0.015625)"/>
        <path id="DejaVuSans-75" d="M 544 1381 
L 544 3500 
L 1119 3500 
L 1119 1403 
Q 1119 906 1312 657 
Q 1506 409 1894 409 
Q 2359 409 2629 706 
Q 2900 1003 2900 1516 
L 2900 3500 
L 3475 3500 
L 3475 0 
L 2900 0 
L 2900 538 
Q 2691 219 2414 64 
Q 2138 -91 1772 -91 
Q 1169 -91 856 284 
Q 544 659 544 1381 
z
M 1991 3584 
L 1991 3584 
z
" transform="scale(0.015625)"/>
        <path id="DejaVuSans-67" d="M 2906 1791 
Q 2906 2416 2648 2759 
Q 2391 3103 1925 3103 
Q 1463 3103 1205 2759 
Q 947 2416 947 1791 
Q 947 1169 1205 825 
Q 1463 481 1925 481 
Q 2391 481 2648 825 
Q 2906 1169 2906 1791 
z
M 3481 434 
Q 3481 -459 3084 -895 
Q 2688 -1331 1869 -1331 
Q 1566 -1331 1297 -1286 
Q 1028 -1241 775 -1147 
L 775 -588 
Q 1028 -725 1275 -790 
Q 1522 -856 1778 -856 
Q 2344 -856 2625 -561 
Q 2906 -266 2906 331 
L 2906 616 
Q 2728 306 2450 153 
Q 2172 0 1784 0 
Q 1141 0 747 490 
Q 353 981 353 1791 
Q 353 2603 747 3093 
Q 1141 3584 1784 3584 
Q 2172 3584 2450 3431 
Q 2728 3278 2906 2969 
L 2906 3500 
L 3481 3500 
L 3481 434 
z
" transform="scale(0.015625)"/>
        <path id="DejaVuSans-2d" d="M 313 2009 
L 1997 2009 
L 1997 1497 
L 313 1497 
L 313 2009 
z
" transform="scale(0.015625)"/>
        <path id="DejaVuSans-41" d="M 2188 4044 
L 1331 1722 
L 3047 1722 
L 2188 4044 
z
M 1831 4666 
L 2547 4666 
L 4325 0 
L 3669 0 
L 3244 1197 
L 1141 1197 
L 716 0 
L 50 0 
L 1831 4666 
z
" transform="scale(0.015625)"/>
       </defs>
       <use xlink:href="#DejaVuSans-44"/>
       <use xlink:href="#DejaVuSans-72" transform="translate(77.001953 0)"/>
       <use xlink:href="#DejaVuSans-75" transform="translate(118.115234 0)"/>
       <use xlink:href="#DejaVuSans-67" transform="translate(181.494141 0)"/>
       <use xlink:href="#DejaVuSans-2d" transform="translate(244.970703 0)"/>
       <use xlink:href="#DejaVuSans-41" transform="translate(278.804688 0)"/>
      </g>
      <!-- 10 µM -->
      <g transform="translate(170.264256 306.65225) scale(0.1 -0.1)">
       <defs>
        <path id="DejaVuSans-31" d="M 794 531 
L 1825 531 
L 1825 4091 
L 703 3866 
L 703 4441 
L 1819 4666 
L 2450 4666 
L 2450 531 
L 3481 531 
L 3481 0 
L 794 0 
L 794 531 
z
" transform="scale(0.015625)"/>
        <path id="DejaVuSans-30" d="M 2034 4250 
Q 1547 4250 1301 3770 
Q 1056 3291 1056 2328 
Q 1056 1369 1301 889 
Q 1547 409 2034 409 
Q 2525 409 2770 889 
Q 3016 1369 3016 2328 
Q 3016 3291 2770 3770 
Q 2525 4250 2034 4250 
z
M 2034 4750 
Q 2819 4750 3233 4129 
Q 3647 3509 3647 2328 
Q 3647 1150 3233 529 
Q 2819 -91 2034 -91 
Q 1250 -91 836 529 
Q 422 1150 422 2328 
Q 422 3509 836 4129 
Q 1250 4750 2034 4750 
z
" transform="scale(0.015625)"/>
        <path id="DejaVuSans-20" transform="scale(0.015625)"/>
        <path id="DejaVuSans-b5" d="M 544 -1331 
L 544 3500 
L 1119 3500 
L 1119 1325 
Q 1119 872 1334 640 
Q 1550 409 1972 409 
Q 2434 409 2667 671 
Q 2900 934 2900 1459 
L 2900 3500 
L 3475 3500 
L 3475 806 
Q 3475 619 3529 530 
Q 3584 441 3700 441 
Q 3728 441 3778 458 
Q 3828 475 3916 513 
L 3916 50 
Q 3788 -22 3673 -56 
Q 3559 -91 3450 -91 
Q 3234 -91 3106 31 
Q 2978 153 2931 403 
Q 2775 156 2548 32 
Q 2322 -91 2016 -91 
Q 1697 -91 1473 31 
Q 1250 153 1119 397 
L 1119 -1331 
L 544 -1331 
z
" transform="scale(0.015625)"/>
        <path id="DejaVuSans-4d" d="M 628 4666 
L 1569 4666 
L 2759 1491 
L 3956 4666 
L 4897 4666 
L 4897 0 
L 4281 0 
L 4281 4097 
L 3078 897 
L 2444 897 
L 1241 4097 
L 1241 0 
L 628 0 
L 628 4666 
z
" transform="scale(0.015625)"/>
       </defs>
       <use xlink:href="#DejaVuSans-31"/>
       <use xlink:href="#DejaVuSans-30" transform="translate(63.623047 0)"/>
       <use xlink:href="#DejaVuSans-20" transform="translate(127.246094 0)"/>
       <use xlink:href="#DejaVuSans-b5" transform="translate(159.033203 0)"/>
       <use xlink:href="#DejaVuSans-4d" transform="translate(222.65625 0)"/>
      </g>
     </g>
    </g>
    <g id="xtick_3">
     <g id="line2d_3">
      <g>
       <use xlink:href="#ma7b6c8db97" x="274.806369" y="280.856" style="stroke: #000000; stroke-width: 0.8"/>
      </g>
     </g>
     <g id="text_3">
      <!-- Drug-A -->
      <g transform="translate(257.446213 295.454438) scale(0.1 -0.1)">
       <use xlink:href="#DejaVuSans-44"/>
       <use xlink:href="#DejaVuSans-72" transform="translate(77.001953 0)"/>
       <use xlink:href="#DejaVuSans-75" transform="translate(118.115234 0)"/>
       <use xlink:href="#DejaVuSans-67" transform="translate(181.494141 0)"/>
       <use xlink:href="#DejaVuSans-2d" transform="translate(244.970703 0)"/>
       <use xlink:href="#DejaVuSans-41" transform="translate(278.804688 0)"/>
      </g>
      <!-- 50 µM -->
      <g transform="translate(259.359494 306.65225) scale(0.1 -0.1)">
       <defs>
        <path id="DejaVuSans-35" d="M 691 4666 
L 3169 4666 
L 3169 4134 
L 1269 4134 
L 1269 2991 
Q 1406 3038 1543 3061 
Q 1681 3084 1819 3084 
Q 2600 3084 3056 2656 
Q 3513 2228 3513 1497 
Q 3513 744 3044 326 
Q 2575 -91 1722 -91 
Q 1428 -91 1123 -41 
Q 819 9 494 109 
L 494 744 
Q 775 591 1075 516 
Q 1375 441 1709 441 
Q 2250 441 2565 725 
Q 2881 1009 2881 1497 
Q 2881 1984 2565 2268 
Q 2250 2553 1709 2553 
Q 1456 2553 1204 2497 
Q 953 2441 691 2322 
L 691 4666 
z
" transform="scale(0.015625)"/>
       </defs>
       <use xlink:href="#DejaVuSans-35"/>
       <use xlink:href="#DejaVuSans-30" transform="translate(63.623047 0)"/>
       <use xlink:href="#DejaVuSans-20" transform="translate(127.246094 0)"/>
       <use xlink:href="#DejaVuSans-b5" transform="translate(159.033203 0)"/>
       <use xlink:href="#DejaVuSans-4d" transform="translate(222.65625 0)"/>
      </g>
     </g>
    </g>
    <g id="xtick_4">
     <g id="line2d_4">
      <g>
       <use xlink:href="#ma7b6c8db97" x="363.901607" y="280.856" style="stroke: #000000; stroke-width: 0.8"/>
      </g>
     </g>
     <g id="text_4">
      <!-- Combo -->
      <g transform="translate(346.24692 295.454438) scale(0.1 -0.1)">
       <defs>
        <path id="DejaVuSans-6d" d="M 3328 2828 
Q 3544 3216 3844 3400 
Q 4144 3584 4550 3584 
Q 5097 3584 5394 3201 
Q 5691 2819 5691 2113 
L 5691 0 
L 5113 0 
L 5113 2094 
Q 5113 2597 4934 2840 
Q 4756 3084 4391 3084 
Q 3944 3084 3684 2787 
Q 3425 2491 3425 1978 
L 3425 0 
L 2847 0 
L 2847 2094 
Q 2847 2600 2669 2842 
Q 2491 3084 2119 3084 
Q 1678 3084 1418 2786 
Q 1159 2488 1159 1978 
L 1159 0 
L 581 0 
L 581 3500 
L 1159 3500 
L 1159 2956 
Q 1356 3278 1631 3431 
Q 1906 3584 2284 3584 
Q 2666 3584 2933 3390 
Q 3200 3197 3328 2828 
z
" transform="scale(0.015625)"/>
        <path id="DejaVuSans-62" d="M 3116 1747 
Q 3116 2381 2855 2742 
Q 2594 3103 2138 3103 
Q 1681 3103 1420 2742 
Q 1159 2381 1159 1747 
Q 1159 1113 1420 752 
Q 1681 391 2138 391 
Q 2594 391 2855 752 
Q 3116 1113 3116 1747 
z
M 1159 2969 
Q 1341 3281 1617 3432 
Q 1894 3584 2278 3584 
Q 2916 3584 3314 3078 
Q 3713 2572 3713 1747 
Q 3713 922 3314 415 
Q 2916 -91 2278 -91 
Q 1894 -91 1617 61 
Q 1341 213 1159 525 
L 1159 0 
L 581 0 
L 581 4863 
L 1159 4863 
L 1159 2969 
z
" transform="scale(0.015625)"/>
       </defs>
       <use xlink:href="#DejaVuSans-43"/>
       <use xlink:href="#DejaVuSans-6f" transform="translate(69.824219 0)"/>
       <use xlink:href="#DejaVuSans-6d" transform="translate(131.005859 0)"/>
       <use xlink:href="#DejaVuSans-62" transform="translate(228.417969 0)"/>
       <use xlink:href="#DejaVuSans-6f" transform="translate(291.894531 0)"/>
      </g>
     </g>
    </g>
   </g>
   <g id="matplotlib.axis_2">
    <g id="ytick_1">
     <g id="line2d_5">
      <defs>
       <path id="m65899d946b" d="M 0 0 
L -3.5 0 
" style="stroke: #000000; stroke-width: 0.8"/>
      </defs>
      <g>
       <use xlink:href="#m65899d946b" x="43.15875" y="276.900176" style="stroke: #000000; stroke-width: 0.8"/>
      </g>
     </g>
     <g id="text_5">
      <!-- 0.0 -->
      <g transform="translate(21.845938 280.319473) scale(0.09 -0.09)">
       <defs>
        <path id="DejaVuSans-2e" d="M 684 794 
L 1344 794 
L 1344 0 
L 684 0 
L 684 794 
z
" transform="scale(0.015625)"/>
       </defs>
       <use xlink:href="#DejaVuSans-30"/>
       <use xlink:href="#DejaVuSans-2e" transform="translate(63.623047 0)"/>
       <use xlink:href="#DejaVuSans-30" transform="translate(95.410156 0)"/>
      </g>
     </g>
    </g>
    <g id="ytick_2">
     <g id="line2d_6">
      <g>
       <use xlink:href="#m65899d946b" x="43.15875" y="237.341935" style="stroke: #000000; stroke-width: 0.8"/>
      </g>
     </g>
     <g id="text_6">
      <!-- 0.5 -->
      <g transform="translate(21.845938 240.761232) scale(0.09 -0.09)">
       <use xlink:href="#DejaVuSans-30"/>
       <use xlink:href="#DejaVuSans-2e" transform="translate(63.623047 0)"/>
       <use xlink:href="#DejaVuSans-35" transform="translate(95.410156 0)"/>
      </g>
     </g>
    </g>
    <g id="ytick_3">
     <g id="line2d_7">
      <g>
       <use xlink:href="#m65899d946b" x="43.15875" y="197.783694" style="stroke: #000000; stroke-width: 0.8"/>
      </g>
     </g>
     <g id="text_7">
      <!-- 1.0 -->
      <g transform="translate(21.845938 201.202991) scale(0.09 -0.09)">
       <use xlink:href="#DejaVuSans-31"/>
       <use xlink:href="#DejaVuSans-2e" transform="translate(63.623047 0)"/>
       <use xlink:href="#DejaVuSans-30" transform="translate(95.410156 0)"/>
      </g>
     </g>
    </g>
    <g id="ytick_4">
     <g id="line2d_8">
      <g>
       <use xlink:href="#m65899d946b" x="43.15875" y="158.225453" style="stroke: #000000; stroke-width: 0.8"/>
      </g>
     </g>
     <g id="text_8">
      <!-- 1.5 -->
      <g transform="translate(21.845938 161.64475) scale(0.09 -0.09)">
       <use xlink:href="#DejaVuSans-31"/>
       <use xlink:href="#DejaVuSans-2e" transform="translate(63.623047 0)"/>
       <use xlink:href="#DejaVuSans-35" transform="translate(95.410156 0)"/>
      </g>
     </g>
    </g>
    <g id="ytick_5">
     <g id="line2d_9">
      <g>
       <use xlink:href="#m65899d946b" x="43.15875" y="118.667212" style="stroke: #000000; stroke-width: 0.8"/>
      </g>
     </g>
     <g id="text_9">
      <!-- 2.0 -->
      <g transform="translate(21.845938 122.086509) scale(0.09 -0.09)">
       <defs>
        <path id="DejaVuSans-32" d="M 1228 531 
L 3431 531 
L 3431 0 
L 469 0 
L 469 531 
Q 828 903 1448 1529 
Q 2069 2156 2228 2338 
Q 2531 2678 2651 2914 
Q 2772 3150 2772 3378 
Q 2772 3750 2511 3984 
Q 2250 4219 1831 4219 
Q 1534 4219 1204 4116 
Q 875 4013 500 3803 
L 500 4441 
Q 881 4594 1212 4672 
Q 1544 4750 1819 4750 
Q 2544 4750 2975 4387 
Q 3406 4025 3406 3419 
Q 3406 3131 3298 2873 
Q 3191 2616 2906 2266 
Q 2828 2175 2409 1742 
Q 1991 1309 1228 531 
z
" transform="scale(0.015625)"/>
       </defs>
       <use xlink:href="#DejaVuSans-32"/>
       <use xlink:href="#DejaVuSans-2e" transform="translate(63.623047 0)"/>
       <use xlink:href="#DejaVuSans-30" transform="translate(95.410156 0)"/>
      </g>
     </g>
    </g>
    <g id="ytick_6">
     <g id="line2d_10">
      <g>
       <use xlink:href="#m65899d946b" x="43.15875" y="79.108971" style="stroke: #000000; stroke-width: 0.8"/>
      </g>
     </g>
     <g id="text_10">
      <!-- 2.5 -->
      <g transform="translate(21.845938 82.528267) scale(0.09 -0.09)">
       <use xlink:href="#DejaVuSans-32"/>
       <use xlink:href="#DejaVuSans-2e" transform="translate(63.623047 0)"/>
       <use xlink:href="#DejaVuSans-35" transform="translate(95.410156 0)"/>
      </g>
     </g>
    </g>
    <g id="ytick_7">
     <g id="line2d_11">
      <g>
       <use xlink:href="#m65899d946b" x="43.15875" y="39.55073" style="stroke: #000000; stroke-width: 0.8"/>
      </g>
     </g>
     <g id="text_11">
      <!-- 3.0 -->
      <g transform="translate(21.845938 42.970026) scale(0.09 -0.09)">
       <defs>
        <path id="DejaVuSans-33" d="M 2597 2516 
Q 3050 2419 3304 2112 
Q 3559 1806 3559 1356 
Q 3559 666 3084 287 
Q 2609 -91 1734 -91 
Q 1441 -91 1130 -33 
Q 819 25 488 141 
L 488 750 
Q 750 597 1062 519 
Q 1375 441 1716 441 
Q 2309 441 2620 675 
Q 2931 909 2931 1356 
Q 2931 1769 2642 2001 
Q 2353 2234 1838 2234 
L 1294 2234 
L 1294 2753 
L 1863 2753 
Q 2328 2753 2575 2939 
Q 2822 3125 2822 3475 
Q 2822 3834 2567 4026 
Q 2313 4219 1838 4219 
Q 1578 4219 1281 4162 
Q 984 4106 628 3988 
L 628 4550 
Q 988 4650 1302 4700 
Q 1616 4750 1894 4750 
Q 2613 4750 3031 4423 
Q 3450 4097 3450 3541 
Q 3450 3153 3228 2886 
Q 3006 2619 2597 2516 
z
" transform="scale(0.015625)"/>
       </defs>
       <use xlink:href="#DejaVuSans-33"/>
       <use xlink:href="#DejaVuSans-2e" transform="translate(63.623047 0)"/>
       <use xlink:href="#DejaVuSans-30" transform="translate(95.410156 0)"/>
      </g>
     </g>
    </g>
    <g id="text_12">
     <!-- Relative cell viability -->
     <g transform="translate(15.558281 200.809484) rotate(-90) scale(0.11 -0.11)">
      <defs>
       <path id="DejaVuSans-52" d="M 2841 2188 
Q 3044 2119 3236 1894 
Q 3428 1669 3622 1275 
L 4263 0 
L 3584 0 
L 2988 1197 
Q 2756 1666 2539 1819 
Q 2322 1972 1947 1972 
L 1259 1972 
L 1259 0 
L 628 0 
L 628 4666 
L 2053 4666 
Q 2853 4666 3247 4331 
Q 3641 3997 3641 3322 
Q 3641 2881 3436 2590 
Q 3231 2300 2841 2188 
z
M 1259 4147 
L 1259 2491 
L 2053 2491 
Q 2509 2491 2742 2702 
Q 2975 2913 2975 3322 
Q 2975 3731 2742 3939 
Q 2509 4147 2053 4147 
L 1259 4147 
z
" transform="scale(0.015625)"/>
       <path id="DejaVuSans-65" d="M 3597 1894 
L 3597 1613 
L 953 1613 
Q 991 1019 1311 708 
Q 1631 397 2203 397 
Q 2534 397 2845 478 
Q 3156 559 3463 722 
L 3463 178 
Q 3153 47 2828 -22 
Q 2503 -91 2169 -91 
Q 1331 -91 842 396 
Q 353 884 353 1716 
Q 353 2575 817 3079 
Q 1281 3584 2069 3584 
Q 2775 3584 3186 3129 
Q 3597 2675 3597 1894 
z
M 3022 2063 
Q 3016 2534 2758 2815 
Q 2500 3097 2075 3097 
Q 1594 3097 1305 2825 
Q 1016 2553 972 2059 
L 3022 2063 
z
" transform="scale(0.015625)"/>
       <path id="DejaVuSans-61" d="M 2194 1759 
Q 1497 1759 1228 1600 
Q 959 1441 959 1056 
Q 959 750 1161 570 
Q 1363 391 1709 391 
Q 2188 391 2477 730 
Q 2766 1069 2766 1631 
L 2766 1759 
L 2194 1759 
z
M 3341 1997 
L 3341 0 
L 2766 0 
L 2766 531 
Q 2569 213 2275 61 
Q 1981 -91 1556 -91 
Q 1019 -91 701 211 
Q 384 513 384 1019 
Q 384 1609 779 1909 
Q 1175 2209 1959 2209 
L 2766 2209 
L 2766 2266 
Q 2766 2663 2505 2880 
Q 2244 3097 1772 3097 
Q 1472 3097 1187 3025 
Q 903 2953 641 2809 
L 641 3341 
Q 956 3463 1253 3523 
Q 1550 3584 1831 3584 
Q 2591 3584 2966 3190 
Q 3341 2797 3341 1997 
z
" transform="scale(0.015625)"/>
       <path id="DejaVuSans-69" d="M 603 3500 
L 1178 3500 
L 1178 0 
L 603 0 
L 603 3500 
z
M 603 4863 
L 1178 4863 
L 1178 4134 
L 603 4134 
L 603 4863 
z
" transform="scale(0.015625)"/>
       <path id="DejaVuSans-76" d="M 191 3500 
L 800 3500 
L 1894 563 
L 2988 3500 
L 3597 3500 
L 2284 0 
L 1503 0 
L 191 3500 
z
" transform="scale(0.015625)"/>
       <path id="DejaVuSans-63" d="M 3122 3366 
L 3122 2828 
Q 2878 2963 2633 3030 
Q 2388 3097 2138 3097 
Q 1578 3097 1268 2742 
Q 959 2388 959 1747 
Q 959 1106 1268 751 
Q 1578 397 2138 397 
Q 2388 397 2633 464 
Q 2878 531 3122 666 
L 3122 134 
Q 2881 22 2623 -34 
Q 2366 -91 2075 -91 
Q 1284 -91 818 406 
Q 353 903 353 1747 
Q 353 2603 823 3093 
Q 1294 3584 2113 3584 
Q 2378 3584 2631 3529 
Q 2884 3475 3122 3366 
z
" transform="scale(0.015625)"/>
       <path id="DejaVuSans-79" d="M 2059 -325 
Q 1816 -950 1584 -1140 
Q 1353 -1331 966 -1331 
L 506 -1331 
L 506 -850 
L 844 -850 
Q 1081 -850 1212 -737 
Q 1344 -625 1503 -206 
L 1606 56 
L 191 3500 
L 800 3500 
L 1894 763 
L 2988 3500 
L 3597 3500 
L 2059 -325 
z
" transform="scale(0.015625)"/>
      </defs>
      <use xlink:href="#DejaVuSans-52"/>
      <use xlink:href="#DejaVuSans-65" transform="translate(64.982422 0)"/>
      <use xlink:href="#DejaVuSans-6c" transform="translate(126.505859 0)"/>
      <use xlink:href="#DejaVuSans-61" transform="translate(154.289062 0)"/>
      <use xlink:href="#DejaVuSans-74" transform="translate(215.568359 0)"/>
      <use xlink:href="#DejaVuSans-69" transform="translate(254.777344 0)"/>
      <use xlink:href="#DejaVuSans-76" transform="translate(282.560547 0)"/>
      <use xlink:href="#DejaVuSans-65" transform="translate(341.740234 0)"/>
      <use xlink:href="#DejaVuSans-20" transform="translate(403.263672 0)"/>
      <use xlink:href="#DejaVuSans-63" transform="translate(435.050781 0)"/>
      <use xlink:href="#DejaVuSans-65" transform="translate(490.03125 0)"/>
      <use xlink:href="#DejaVuSans-6c" transform="translate(551.554688 0)"/>
      <use xlink:href="#DejaVuSans-6c" transform="translate(579.337891 0)"/>
      <use xlink:href="#DejaVuSans-20" transform="translate(607.121094 0)"/>
      <use xlink:href="#DejaVuSans-76" transform="translate(638.908203 0)"/>
      <use xlink:href="#DejaVuSans-69" transform="translate(698.087891 0)"/>
      <use xlink:href="#DejaVuSans-61" transform="translate(725.871094 0)"/>
      <use xlink:href="#DejaVuSans-62" transform="translate(787.150391 0)"/>
      <use xlink:href="#DejaVuSans-69" transform="translate(850.626953 0)"/>
      <use xlink:href="#DejaVuSans-6c" transform="translate(878.410156 0)"/>
      <use xlink:href="#DejaVuSans-69" transform="translate(906.193359 0)"/>
      <use xlink:href="#DejaVuSans-74" transform="translate(933.976562 0)"/>
      <use xlink:href="#DejaVuSans-79" transform="translate(973.185547 0)"/>
     </g>
    </g>
   </g>
   <g id="patch_3">
    <path d="M 86.815417 212.851428 
L 106.416369 212.851428 
L 106.416369 180.890347 
L 86.815417 180.890347 
L 86.815417 212.851428 
z
" clip-path="url(#p164b09dd9b)" style="fill: #4c72b0; opacity: 0.8; stroke: #000000; stroke-linejoin: miter"/>
   </g>
   <g id="line2d_12">
    <path d="M 96.615893 212.851428 
L 96.615893 246.290009 
" clip-path="url(#p164b09dd9b)" style="fill: none; stroke: #000000; stroke-width: 1.2; stroke-linecap: square"/>
   </g>
   <g id="line2d_13">
    <path d="M 96.615893 180.890347 
L 96.615893 134.601271 
" clip-path="url(#p164b09dd9b)" style="fill: none; stroke: #000000; stroke-width: 1.2; stroke-linecap: square"/>
   </g>
   <g id="line2d_14">
    <path d="M 91.715655 246.290009 
L 101.516131 246.290009 
" clip-path="url(#p164b09dd9b)" style="fill: none; stroke: #000000; stroke-width: 1.2; stroke-linecap: square"/>
   </g>
   <g id="line2d_15">
    <path d="M 91.715655 134.601271 
L 101.516131 134.601271 
" clip-path="url(#p164b09dd9b)" style="fill: none; stroke: #000000; stroke-width: 1.2; stroke-linecap: square"/>
   </g>
   <g id="patch_4">
    <path d="M 175.910655 229.746753 
L 195.511607 229.746753 
L 195.511607 204.441346 
L 175.910655 204.441346 
L 175.910655 229.746753 
z
" clip-path="url(#p164b09dd9b)" style="fill: #dd8452; opacity: 0.8; stroke: #000000; stroke-linejoin: miter"/>
   </g>
   <g id="line2d_16">
    <path d="M 185.711131 229.746753 
L 185.711131 245.348523 
" clip-path="url(#p164b09dd9b)" style="fill: none; stroke: #000000; stroke-width: 1.2; stroke-linecap: square"/>
   </g>
   <g id="line2d_17">
    <path d="M 185.711131 204.441346 
L 185.711131 174.808267 
" clip-path="url(#p164b09dd9b)" style="fill: none; stroke: #000000; stroke-width: 1.2; stroke-linecap: square"/>
   </g>
   <g id="line2d_18">
    <path d="M 180.810893 245.348523 
L 190.611369 245.348523 
" clip-path="url(#p164b09dd9b)" style="fill: none; stroke: #000000; stroke-width: 1.2; stroke-linecap: square"/>
   </g>
   <g id="line2d_19">
    <path d="M 180.810893 174.808267 
L 190.611369 174.808267 
" clip-path="url(#p164b09dd9b)" style="fill: none; stroke: #000000; stroke-width: 1.2; stroke-linecap: square"/>
   </g>
   <g id="patch_5">
    <path d="M 265.005893 244.618673 
L 284.606845 244.618673 
L 284.606845 221.039984 
L 265.005893 221.039984 
L 265.005893 244.618673 
z
" clip-path="url(#p164b09dd9b)" style="fill: #55a868; opacity: 0.8; stroke: #000000; stroke-linejoin: miter"/>
   </g>
   <g id="line2d_20">
    <path d="M 274.806369 244.618673 
L 274.806369 261.440815 
" clip-path="url(#p164b09dd9b)" style="fill: none; stroke: #000000; stroke-width: 1.2; stroke-linecap: square"/>
   </g>
   <g id="line2d_21">
    <path d="M 274.806369 221.039984 
L 274.806369 192.672769 
" clip-path="url(#p164b09dd9b)" style="fill: none; stroke: #000000; stroke-width: 1.2; stroke-linecap: square"/>
   </g>
   <g id="line2d_22">
    <path d="M 269.906131 261.440815 
L 279.706607 261.440815 
" clip-path="url(#p164b09dd9b)" style="fill: none; stroke: #000000; stroke-width: 1.2; stroke-linecap: square"/>
   </g>
   <g id="line2d_23">
    <path d="M 269.906131 192.672769 
L 279.706607 192.672769 
" clip-path="url(#p164b09dd9b)" style="fill: none; stroke: #000000; stroke-width: 1.2; stroke-linecap: square"/>
   </g>
   <g id="patch_6">
    <path d="M 354.101131 255.370603 
L 373.702083 255.370603 
L 373.702083 244.078703 
L 354.101131 244.078703 
L 354.101131 255.370603 
z
" clip-path="url(#p164b09dd9b)" style="fill: #c44e52; opacity: 0.8; stroke: #000000; stroke-linejoin: miter"/>
   </g>
   <g id="line2d_24">
    <path d="M 363.901607 255.370603 
L 363.901607 266.084953 
" clip-path="url(#p164b09dd9b)" style="fill: none; stroke: #000000; stroke-width: 1.2; stroke-linecap: square"/>
   </g>
   <g id="line2d_25">
    <path d="M 363.901607 244.078703 
L 363.901607 228.567917 
" clip-path="url(#p164b09dd9b)" style="fill: none; stroke: #000000; stroke-width: 1.2; stroke-linecap: square"/>
   </g>
   <g id="line2d_26">
    <path d="M 359.001369 266.084953 
L 368.801845 266.084953 
" clip-path="url(#p164b09dd9b)" style="fill: none; stroke: #000000; stroke-width: 1.2; stroke-linecap: square"/>
   </g>
   <g id="line2d_27">
    <path d="M 359.001369 228.567917 
L 368.801845 228.567917 
" clip-path="url(#p164b09dd9b)" style="fill: none; stroke: #000000; stroke-width: 1.2; stroke-linecap: square"/>
   </g>
   <g id="line2d_28">
    <path d="M 96.615893 74.44901 
L 96.615893 68.910856 
L 185.711131 68.910856 
L 185.711131 74.44901 
" clip-path="url(#p164b09dd9b)" style="fill: none; stroke: #000000; stroke-linecap: square"/>
   </g>
   <g id="line2d_29">
    <path d="M 96.615893 58.625713 
L 96.615893 53.08756 
L 274.806369 53.08756 
L 274.806369 58.625713 
" clip-path="url(#p164b09dd9b)" style="fill: none; stroke: #000000; stroke-linecap: square"/>
   </g>
   <g id="line2d_30">
    <path d="M 96.615893 42.802417 
L 96.615893 37.264263 
L 363.901607 37.264263 
L 363.901607 42.802417 
" clip-path="url(#p164b09dd9b)" style="fill: none; stroke: #000000; stroke-linecap: square"/>
   </g>
   <g id="line2d_31">
    <path d="M 86.815417 202.455522 
L 106.416369 202.455522 
" clip-path="url(#p164b09dd9b)" style="fill: none; stroke: #ffffff; stroke-width: 2.5"/>
   </g>
   <g id="line2d_32">
    <path d="M 175.910655 215.323818 
L 195.511607 215.323818 
" clip-path="url(#p164b09dd9b)" style="fill: none; stroke: #ffffff; stroke-width: 2.5"/>
   </g>
   <g id="line2d_33">
    <path d="M 265.005893 237.05316 
L 284.606845 237.05316 
" clip-path="url(#p164b09dd9b)" style="fill: none; stroke: #ffffff; stroke-width: 2.5"/>
   </g>
   <g id="line2d_34">
    <path d="M 354.101131 250.574166 
L 373.702083 250.574166 
" clip-path="url(#p164b09dd9b)" style="fill: none; stroke: #ffffff; stroke-width: 2.5"/>
   </g>
   <g id="patch_7">
    <path d="M 43.15875 280.856 
L 43.15875 7.2 
" style="fill: none; stroke: #000000; stroke-width: 0.8; stroke-linejoin: miter; stroke-linecap: square"/>
   </g>
   <g id="patch_8">
    <path d="M 43.15875 280.856 
L 417.35875 280.856 
" style="fill: none; stroke: #000000; stroke-width: 0.8; stroke-linejoin: miter; stroke-linecap: square"/>
   </g>
   <g id="PathCollection_1">
    <defs>
     <path id="m4a2a00b9c9" d="M 0 1.581139 
C 0.419323 1.581139 0.821528 1.41454 1.118034 1.118034 
C 1.41454 0.821528 1.581139 0.419323 1.581139 0 
C 1.581139 -0.419323 1.41454 -0.821528 1.118034 -1.118034 
C 0.821528 -1.41454 0.419323 -1.581139 0 -1.581139 
C -0.419323 -1.581139 -0.821528 -1.41454 -1.118034 -1.118034 
C -1.41454 -0.821528 -1.581139 -0.419323 -1.581139 0 
C -1.581139 0.419323 -1.41454 0.821528 -1.118034 1.118034 
C -0.821528 1.41454 -0.419323 1.581139 0 1.581139 
z
"/>
    </defs>
    <g clip-path="url(#p164b09dd9b)">
     <use xlink:href="#m4a2a00b9c9" x="107.355492" y="208.543535" style="fill: #4c72b0; fill-opacity: 0.35"/>
     <use xlink:href="#m4a2a00b9c9" x="94.219811" y="208.242893" style="fill: #4c72b0; fill-opacity: 0.35"/>
     <use xlink:href="#m4a2a00b9c9" x="110.673614" y="212.443978" style="fill: #4c72b0; fill-opacity: 0.35"/>
     <use xlink:href="#m4a2a00b9c9" x="104.353096" y="197.134939" style="fill: #4c72b0; fill-opacity: 0.35"/>
     <use xlink:href="#m4a2a00b9c9" x="80.706872" y="80.778328" style="fill: #4c72b0; fill-opacity: 0.35"/>
     <use xlink:href="#m4a2a00b9c9" x="115.261195" y="134.601271" style="fill: #4c72b0; fill-opacity: 0.35"/>
     <use xlink:href="#m4a2a00b9c9" x="106.853067" y="186.011161" style="fill: #4c72b0; fill-opacity: 0.35"/>
     <use xlink:href="#m4a2a00b9c9" x="107.830159" y="174.903207" style="fill: #4c72b0; fill-opacity: 0.35"/>
     <use xlink:href="#m4a2a00b9c9" x="82.037239" y="155.66999" style="fill: #4c72b0; fill-opacity: 0.35"/>
     <use xlink:href="#m4a2a00b9c9" x="94.670927" y="207.776105" style="fill: #4c72b0; fill-opacity: 0.35"/>
     <use xlink:href="#m4a2a00b9c9" x="91.550929" y="199.769517" style="fill: #4c72b0; fill-opacity: 0.35"/>
     <use xlink:href="#m4a2a00b9c9" x="113.345893" y="227.215025" style="fill: #4c72b0; fill-opacity: 0.35"/>
     <use xlink:href="#m4a2a00b9c9" x="102.25568" y="186.43839" style="fill: #4c72b0; fill-opacity: 0.35"/>
     <use xlink:href="#m4a2a00b9c9" x="109.268763" y="193.15538" style="fill: #4c72b0; fill-opacity: 0.35"/>
     <use xlink:href="#m4a2a00b9c9" x="94.397622" y="214.556388" style="fill: #4c72b0; fill-opacity: 0.35"/>
     <use xlink:href="#m4a2a00b9c9" x="85.923131" y="197.95775" style="fill: #4c72b0; fill-opacity: 0.35"/>
     <use xlink:href="#m4a2a00b9c9" x="98.75572" y="200.497389" style="fill: #4c72b0; fill-opacity: 0.35"/>
     <use xlink:href="#m4a2a00b9c9" x="79.516698" y="212.325303" style="fill: #4c72b0; fill-opacity: 0.35"/>
     <use xlink:href="#m4a2a00b9c9" x="109.459659" y="205.624137" style="fill: #4c72b0; fill-opacity: 0.35"/>
     <use xlink:href="#m4a2a00b9c9" x="101.777388" y="212.847472" style="fill: #4c72b0; fill-opacity: 0.35"/>
     <use xlink:href="#m4a2a00b9c9" x="106.733424" y="162.276217" style="fill: #4c72b0; fill-opacity: 0.35"/>
     <use xlink:href="#m4a2a00b9c9" x="90.913034" y="174.776621" style="fill: #4c72b0; fill-opacity: 0.35"/>
     <use xlink:href="#m4a2a00b9c9" x="115.068152" y="205.932691" style="fill: #4c72b0; fill-opacity: 0.35"/>
     <use xlink:href="#m4a2a00b9c9" x="112.02699" y="206.146306" style="fill: #4c72b0; fill-opacity: 0.35"/>
     <use xlink:href="#m4a2a00b9c9" x="107.529056" y="221.922132" style="fill: #4c72b0; fill-opacity: 0.35"/>
     <use xlink:href="#m4a2a00b9c9" x="84.645149" y="197.348553" style="fill: #4c72b0; fill-opacity: 0.35"/>
     <use xlink:href="#m4a2a00b9c9" x="95.311293" y="172.442685" style="fill: #4c72b0; fill-opacity: 0.35"/>
     <use xlink:href="#m4a2a00b9c9" x="78.732132" y="211.01197" style="fill: #4c72b0; fill-opacity: 0.35"/>
     <use xlink:href="#m4a2a00b9c9" x="83.063382" y="205.92478" style="fill: #4c72b0; fill-opacity: 0.35"/>
     <use xlink:href="#m4a2a00b9c9" x="103.79176" y="152.687299" style="fill: #4c72b0; fill-opacity: 0.35"/>
     <use xlink:href="#m4a2a00b9c9" x="106.211036" y="244.414948" style="fill: #4c72b0; fill-opacity: 0.35"/>
     <use xlink:href="#m4a2a00b9c9" x="114.943165" y="216.961529" style="fill: #4c72b0; fill-opacity: 0.35"/>
     <use xlink:href="#m4a2a00b9c9" x="89.787915" y="194.373773" style="fill: #4c72b0; fill-opacity: 0.35"/>
     <use xlink:href="#m4a2a00b9c9" x="91.537667" y="161.651196" style="fill: #4c72b0; fill-opacity: 0.35"/>
     <use xlink:href="#m4a2a00b9c9" x="95.422423" y="202.174659" style="fill: #4c72b0; fill-opacity: 0.35"/>
     <use xlink:href="#m4a2a00b9c9" x="84.442579" y="187.20582" style="fill: #4c72b0; fill-opacity: 0.35"/>
     <use xlink:href="#m4a2a00b9c9" x="82.108111" y="218.203658" style="fill: #4c72b0; fill-opacity: 0.35"/>
     <use xlink:href="#m4a2a00b9c9" x="95.66348" y="173.107263" style="fill: #4c72b0; fill-opacity: 0.35"/>
     <use xlink:href="#m4a2a00b9c9" x="85.910219" y="194.951324" style="fill: #4c72b0; fill-opacity: 0.35"/>
     <use xlink:href="#m4a2a00b9c9" x="103.272925" y="204.34245" style="fill: #4c72b0; fill-opacity: 0.35"/>
     <use xlink:href="#m4a2a00b9c9" x="94.152128" y="192.783532" style="fill: #4c72b0; fill-opacity: 0.35"/>
     <use xlink:href="#m4a2a00b9c9" x="109.657512" y="213.472492" style="fill: #4c72b0; fill-opacity: 0.35"/>
     <use xlink:href="#m4a2a00b9c9" x="104.466666" y="154.158866" style="fill: #4c72b0; fill-opacity: 0.35"/>
     <use xlink:href="#m4a2a00b9c9" x="89.260308" y="212.863295" style="fill: #4c72b0; fill-opacity: 0.35"/>
     <use xlink:href="#m4a2a00b9c9" x="109.64111" y="198.028955" style="fill: #4c72b0; fill-opacity: 0.35"/>
     <use xlink:href="#m4a2a00b9c9" x="108.563236" y="202.736386" style="fill: #4c72b0; fill-opacity: 0.35"/>
     <use xlink:href="#m4a2a00b9c9" x="92.204831" y="210.00719" style="fill: #4c72b0; fill-opacity: 0.35"/>
     <use xlink:href="#m4a2a00b9c9" x="88.317951" y="186.193129" style="fill: #4c72b0; fill-opacity: 0.35"/>
     <use xlink:href="#m4a2a00b9c9" x="103.770064" y="120.14669" style="fill: #4c72b0; fill-opacity: 0.35"/>
     <use xlink:href="#m4a2a00b9c9" x="82.493504" y="197.490963" style="fill: #4c72b0; fill-opacity: 0.35"/>
     <use xlink:href="#m4a2a00b9c9" x="84.851723" y="157.703284" style="fill: #4c72b0; fill-opacity: 0.35"/>
     <use xlink:href="#m4a2a00b9c9" x="77.303555" y="175.330436" style="fill: #4c72b0; fill-opacity: 0.35"/>
     <use xlink:href="#m4a2a00b9c9" x="107.863875" y="237.547638" style="fill: #4c72b0; fill-opacity: 0.35"/>
     <use xlink:href="#m4a2a00b9c9" x="103.07836" y="198.028955" style="fill: #4c72b0; fill-opacity: 0.35"/>
     <use xlink:href="#m4a2a00b9c9" x="104.658766" y="217.404581" style="fill: #4c72b0; fill-opacity: 0.35"/>
     <use xlink:href="#m4a2a00b9c9" x="107.621006" y="221.154703" style="fill: #4c72b0; fill-opacity: 0.35"/>
     <use xlink:href="#m4a2a00b9c9" x="95.005313" y="225.711812" style="fill: #4c72b0; fill-opacity: 0.35"/>
     <use xlink:href="#m4a2a00b9c9" x="99.310679" y="160.472361" style="fill: #4c72b0; fill-opacity: 0.35"/>
     <use xlink:href="#m4a2a00b9c9" x="82.495249" y="184.159836" style="fill: #4c72b0; fill-opacity: 0.35"/>
     <use xlink:href="#m4a2a00b9c9" x="81.504738" y="206.257069" style="fill: #4c72b0; fill-opacity: 0.35"/>
     <use xlink:href="#m4a2a00b9c9" x="103.21761" y="212.372773" style="fill: #4c72b0; fill-opacity: 0.35"/>
     <use xlink:href="#m4a2a00b9c9" x="95.482809" y="228.061571" style="fill: #4c72b0; fill-opacity: 0.35"/>
     <use xlink:href="#m4a2a00b9c9" x="99.173272" y="165.670314" style="fill: #4c72b0; fill-opacity: 0.35"/>
     <use xlink:href="#m4a2a00b9c9" x="107.004353" y="229.580608" style="fill: #4c72b0; fill-opacity: 0.35"/>
     <use xlink:href="#m4a2a00b9c9" x="101.897108" y="246.290009" style="fill: #4c72b0; fill-opacity: 0.35"/>
     <use xlink:href="#m4a2a00b9c9" x="98.716307" y="217.697312" style="fill: #4c72b0; fill-opacity: 0.35"/>
     <use xlink:href="#m4a2a00b9c9" x="98.936926" y="217.380846" style="fill: #4c72b0; fill-opacity: 0.35"/>
     <use xlink:href="#m4a2a00b9c9" x="88.930363" y="165.804812" style="fill: #4c72b0; fill-opacity: 0.35"/>
     <use xlink:href="#m4a2a00b9c9" x="78.223058" y="207.617873" style="fill: #4c72b0; fill-opacity: 0.35"/>
     <use xlink:href="#m4a2a00b9c9" x="94.135094" y="229.105909" style="fill: #4c72b0; fill-opacity: 0.35"/>
     <use xlink:href="#m4a2a00b9c9" x="85.427068" y="208.947029" style="fill: #4c72b0; fill-opacity: 0.35"/>
     <use xlink:href="#m4a2a00b9c9" x="93.030041" y="120.233718" style="fill: #4c72b0; fill-opacity: 0.35"/>
     <use xlink:href="#m4a2a00b9c9" x="110.469966" y="218.55177" style="fill: #4c72b0; fill-opacity: 0.35"/>
     <use xlink:href="#m4a2a00b9c9" x="86.185814" y="204.666828" style="fill: #4c72b0; fill-opacity: 0.35"/>
     <use xlink:href="#m4a2a00b9c9" x="79.300519" y="204.089277" style="fill: #4c72b0; fill-opacity: 0.35"/>
     <use xlink:href="#m4a2a00b9c9" x="88.045725" y="168.53433" style="fill: #4c72b0; fill-opacity: 0.35"/>
     <use xlink:href="#m4a2a00b9c9" x="88.524375" y="118.421951" style="fill: #4c72b0; fill-opacity: 0.35"/>
     <use xlink:href="#m4a2a00b9c9" x="102.963329" y="189.832487" style="fill: #4c72b0; fill-opacity: 0.35"/>
     <use xlink:href="#m4a2a00b9c9" x="98.851662" y="210.141688" style="fill: #4c72b0; fill-opacity: 0.35"/>
     <use xlink:href="#m4a2a00b9c9" x="107.745243" y="181.802164" style="fill: #4c72b0; fill-opacity: 0.35"/>
     <use xlink:href="#m4a2a00b9c9" x="103.057297" y="238.979646" style="fill: #4c72b0; fill-opacity: 0.35"/>
     <use xlink:href="#m4a2a00b9c9" x="92.94608" y="209.635343" style="fill: #4c72b0; fill-opacity: 0.35"/>
     <use xlink:href="#m4a2a00b9c9" x="108.92609" y="234.572858" style="fill: #4c72b0; fill-opacity: 0.35"/>
     <use xlink:href="#m4a2a00b9c9" x="83.560597" y="209.081527" style="fill: #4c72b0; fill-opacity: 0.35"/>
     <use xlink:href="#m4a2a00b9c9" x="77.905297" y="228.10113" style="fill: #4c72b0; fill-opacity: 0.35"/>
     <use xlink:href="#m4a2a00b9c9" x="80.544988" y="177.545698" style="fill: #4c72b0; fill-opacity: 0.35"/>
     <use xlink:href="#m4a2a00b9c9" x="105.332803" y="216.72418" style="fill: #4c72b0; fill-opacity: 0.35"/>
     <use xlink:href="#m4a2a00b9c9" x="95.121408" y="178.154895" style="fill: #4c72b0; fill-opacity: 0.35"/>
     <use xlink:href="#m4a2a00b9c9" x="83.337101" y="188.376744" style="fill: #4c72b0; fill-opacity: 0.35"/>
     <use xlink:href="#m4a2a00b9c9" x="96.65685" y="171.184732" style="fill: #4c72b0; fill-opacity: 0.35"/>
     <use xlink:href="#m4a2a00b9c9" x="82.985865" y="192.554094" style="fill: #4c72b0; fill-opacity: 0.35"/>
     <use xlink:href="#m4a2a00b9c9" x="104.312026" y="182.324333" style="fill: #4c72b0; fill-opacity: 0.35"/>
     <use xlink:href="#m4a2a00b9c9" x="94.505116" y="212.190805" style="fill: #4c72b0; fill-opacity: 0.35"/>
     <use xlink:href="#m4a2a00b9c9" x="91.951698" y="192.063572" style="fill: #4c72b0; fill-opacity: 0.35"/>
     <use xlink:href="#m4a2a00b9c9" x="88.834789" y="197.33273" style="fill: #4c72b0; fill-opacity: 0.35"/>
     <use xlink:href="#m4a2a00b9c9" x="101.723219" y="141.919546" style="fill: #4c72b0; fill-opacity: 0.35"/>
     <use xlink:href="#m4a2a00b9c9" x="91.198684" y="204.144659" style="fill: #4c72b0; fill-opacity: 0.35"/>
     <use xlink:href="#m4a2a00b9c9" x="80.450984" y="223.369964" style="fill: #4c72b0; fill-opacity: 0.35"/>
     <use xlink:href="#m4a2a00b9c9" x="81.640997" y="217.230525" style="fill: #4c72b0; fill-opacity: 0.35"/>
     <use xlink:href="#m4a2a00b9c9" x="114.723161" y="157.513404" style="fill: #4c72b0; fill-opacity: 0.35"/>
    </g>
   </g>
   <g id="PathCollection_2">
    <defs>
     <path id="m1e5d1cd0c2" d="M 0 1.581139 
C 0.419323 1.581139 0.821528 1.41454 1.118034 1.118034 
C 1.41454 0.821528 1.581139 0.419323 1.581139 0 
C 1.581139 -0.419323 1.41454 -0.821528 1.118034 -1.118034 
C 0.821528 -1.41454 0.419323 -1.581139 0 -1.581139 
C -0.419323 -1.581139 -0.821528 -1.41454 -1.118034 -1.118034 
C -1.41454 -0.821528 -1.581139 -0.419323 -1.581139 0 
C -1.581139 0.419323 -1.41454 0.821528 -1.118034 1.118034 
C -0.821528 1.41454 -0.419323 1.581139 0 1.581139 
z
"/>
    </defs>
    <g clip-path="url(#p164b09dd9b)">
     <use xlink:href="#m1e5d1cd0c2" x="201.728272" y="184.927265" style="fill: #dd8452; fill-opacity: 0.35"/>
     <use xlink:href="#m1e5d1cd0c2" x="193.540031" y="244.636474" style="fill: #dd8452; fill-opacity: 0.35"/>
     <use xlink:href="#m1e5d1cd0c2" x="176.532787" y="205.06241" style="fill: #dd8452; fill-opacity: 0.35"/>
     <use xlink:href="#m1e5d1cd0c2" x="204.103739" y="229.723018" style="fill: #dd8452; fill-opacity: 0.35"/>
     <use xlink:href="#m1e5d1cd0c2" x="196.638697" y="229.817957" style="fill: #dd8452; fill-opacity: 0.35"/>
     <use xlink:href="#m1e5d1cd0c2" x="194.213639" y="234.161452" style="fill: #dd8452; fill-opacity: 0.35"/>
     <use xlink:href="#m1e5d1cd0c2" x="183.726005" y="207.712812" style="fill: #dd8452; fill-opacity: 0.35"/>
     <use xlink:href="#m1e5d1cd0c2" x="176.782566" y="237.001734" style="fill: #dd8452; fill-opacity: 0.35"/>
     <use xlink:href="#m1e5d1cd0c2" x="169.888888" y="206.526065" style="fill: #dd8452; fill-opacity: 0.35"/>
     <use xlink:href="#m1e5d1cd0c2" x="201.493912" y="223.338317" style="fill: #dd8452; fill-opacity: 0.35"/>
     <use xlink:href="#m1e5d1cd0c2" x="183.977477" y="185.544374" style="fill: #dd8452; fill-opacity: 0.35"/>
     <use xlink:href="#m1e5d1cd0c2" x="174.043208" y="223.235466" style="fill: #dd8452; fill-opacity: 0.35"/>
     <use xlink:href="#m1e5d1cd0c2" x="178.104261" y="209.247672" style="fill: #dd8452; fill-opacity: 0.35"/>
     <use xlink:href="#m1e5d1cd0c2" x="188.816689" y="245.09535" style="fill: #dd8452; fill-opacity: 0.35"/>
     <use xlink:href="#m1e5d1cd0c2" x="173.040008" y="219.683136" style="fill: #dd8452; fill-opacity: 0.35"/>
     <use xlink:href="#m1e5d1cd0c2" x="199.69109" y="229.311612" style="fill: #dd8452; fill-opacity: 0.35"/>
     <use xlink:href="#m1e5d1cd0c2" x="195.845589" y="223.623137" style="fill: #dd8452; fill-opacity: 0.35"/>
     <use xlink:href="#m1e5d1cd0c2" x="194.314497" y="221.170526" style="fill: #dd8452; fill-opacity: 0.35"/>
     <use xlink:href="#m1e5d1cd0c2" x="183.049049" y="203.614579" style="fill: #dd8452; fill-opacity: 0.35"/>
     <use xlink:href="#m1e5d1cd0c2" x="190.70188" y="229.074262" style="fill: #dd8452; fill-opacity: 0.35"/>
     <use xlink:href="#m1e5d1cd0c2" x="189.007932" y="238.734385" style="fill: #dd8452; fill-opacity: 0.35"/>
     <use xlink:href="#m1e5d1cd0c2" x="191.585403" y="216.898236" style="fill: #dd8452; fill-opacity: 0.35"/>
     <use xlink:href="#m1e5d1cd0c2" x="169.420557" y="119.497935" style="fill: #dd8452; fill-opacity: 0.35"/>
     <use xlink:href="#m1e5d1cd0c2" x="182.410621" y="244.786796" style="fill: #dd8452; fill-opacity: 0.35"/>
     <use xlink:href="#m1e5d1cd0c2" x="167.741533" y="224.129482" style="fill: #dd8452; fill-opacity: 0.35"/>
     <use xlink:href="#m1e5d1cd0c2" x="185.47556" y="231.02844" style="fill: #dd8452; fill-opacity: 0.35"/>
     <use xlink:href="#m1e5d1cd0c2" x="179.041366" y="203.71743" style="fill: #dd8452; fill-opacity: 0.35"/>
     <use xlink:href="#m1e5d1cd0c2" x="171.775802" y="237.982778" style="fill: #dd8452; fill-opacity: 0.35"/>
     <use xlink:href="#m1e5d1cd0c2" x="170.163772" y="226.779884" style="fill: #dd8452; fill-opacity: 0.35"/>
     <use xlink:href="#m1e5d1cd0c2" x="189.146965" y="215.86181" style="fill: #dd8452; fill-opacity: 0.35"/>
     <use xlink:href="#m1e5d1cd0c2" x="172.797748" y="183.162968" style="fill: #dd8452; fill-opacity: 0.35"/>
     <use xlink:href="#m1e5d1cd0c2" x="202.376649" y="159.950192" style="fill: #dd8452; fill-opacity: 0.35"/>
     <use xlink:href="#m1e5d1cd0c2" x="188.888882" y="199.073292" style="fill: #dd8452; fill-opacity: 0.35"/>
     <use xlink:href="#m1e5d1cd0c2" x="179.708136" y="199.959397" style="fill: #dd8452; fill-opacity: 0.35"/>
     <use xlink:href="#m1e5d1cd0c2" x="189.275191" y="234.414625" style="fill: #dd8452; fill-opacity: 0.35"/>
     <use xlink:href="#m1e5d1cd0c2" x="167.004134" y="198.297951" style="fill: #dd8452; fill-opacity: 0.35"/>
     <use xlink:href="#m1e5d1cd0c2" x="203.687526" y="230.348038" style="fill: #dd8452; fill-opacity: 0.35"/>
     <use xlink:href="#m1e5d1cd0c2" x="185.017392" y="214.105424" style="fill: #dd8452; fill-opacity: 0.35"/>
     <use xlink:href="#m1e5d1cd0c2" x="196.79489" y="231.210407" style="fill: #dd8452; fill-opacity: 0.35"/>
     <use xlink:href="#m1e5d1cd0c2" x="169.353352" y="244.019366" style="fill: #dd8452; fill-opacity: 0.35"/>
     <use xlink:href="#m1e5d1cd0c2" x="185.188112" y="199.215702" style="fill: #dd8452; fill-opacity: 0.35"/>
     <use xlink:href="#m1e5d1cd0c2" x="185.346827" y="206.423214" style="fill: #dd8452; fill-opacity: 0.35"/>
     <use xlink:href="#m1e5d1cd0c2" x="202.874762" y="208.013455" style="fill: #dd8452; fill-opacity: 0.35"/>
     <use xlink:href="#m1e5d1cd0c2" x="188.523007" y="221.890486" style="fill: #dd8452; fill-opacity: 0.35"/>
     <use xlink:href="#m1e5d1cd0c2" x="184.671865" y="222.752856" style="fill: #dd8452; fill-opacity: 0.35"/>
     <use xlink:href="#m1e5d1cd0c2" x="176.576133" y="218.59924" style="fill: #dd8452; fill-opacity: 0.35"/>
     <use xlink:href="#m1e5d1cd0c2" x="179.108315" y="215.695665" style="fill: #dd8452; fill-opacity: 0.35"/>
     <use xlink:href="#m1e5d1cd0c2" x="186.521529" y="150.210953" style="fill: #dd8452; fill-opacity: 0.35"/>
     <use xlink:href="#m1e5d1cd0c2" x="183.316344" y="217.048557" style="fill: #dd8452; fill-opacity: 0.35"/>
     <use xlink:href="#m1e5d1cd0c2" x="166.957413" y="216.289039" style="fill: #dd8452; fill-opacity: 0.35"/>
     <use xlink:href="#m1e5d1cd0c2" x="198.502396" y="235.189967" style="fill: #dd8452; fill-opacity: 0.35"/>
     <use xlink:href="#m1e5d1cd0c2" x="201.241388" y="237.12832" style="fill: #dd8452; fill-opacity: 0.35"/>
     <use xlink:href="#m1e5d1cd0c2" x="171.60821" y="214.793737" style="fill: #dd8452; fill-opacity: 0.35"/>
     <use xlink:href="#m1e5d1cd0c2" x="187.829451" y="209.42964" style="fill: #dd8452; fill-opacity: 0.35"/>
     <use xlink:href="#m1e5d1cd0c2" x="170.366554" y="160.978706" style="fill: #dd8452; fill-opacity: 0.35"/>
     <use xlink:href="#m1e5d1cd0c2" x="192.463271" y="214.738356" style="fill: #dd8452; fill-opacity: 0.35"/>
     <use xlink:href="#m1e5d1cd0c2" x="177.135079" y="214.95197" style="fill: #dd8452; fill-opacity: 0.35"/>
     <use xlink:href="#m1e5d1cd0c2" x="191.960802" y="145.835812" style="fill: #dd8452; fill-opacity: 0.35"/>
     <use xlink:href="#m1e5d1cd0c2" x="194.609752" y="221.755988" style="fill: #dd8452; fill-opacity: 0.35"/>
     <use xlink:href="#m1e5d1cd0c2" x="196.242624" y="235.609284" style="fill: #dd8452; fill-opacity: 0.35"/>
     <use xlink:href="#m1e5d1cd0c2" x="170.333829" y="202.80759" style="fill: #dd8452; fill-opacity: 0.35"/>
     <use xlink:href="#m1e5d1cd0c2" x="202.019588" y="191.201202" style="fill: #dd8452; fill-opacity: 0.35"/>
     <use xlink:href="#m1e5d1cd0c2" x="175.135006" y="199.904015" style="fill: #dd8452; fill-opacity: 0.35"/>
     <use xlink:href="#m1e5d1cd0c2" x="167.576822" y="214.152894" style="fill: #dd8452; fill-opacity: 0.35"/>
     <use xlink:href="#m1e5d1cd0c2" x="187.861452" y="228.235628" style="fill: #dd8452; fill-opacity: 0.35"/>
     <use xlink:href="#m1e5d1cd0c2" x="180.651039" y="214.864942" style="fill: #dd8452; fill-opacity: 0.35"/>
     <use xlink:href="#m1e5d1cd0c2" x="198.639517" y="103.77749" style="fill: #dd8452; fill-opacity: 0.35"/>
     <use xlink:href="#m1e5d1cd0c2" x="197.795176" y="239.185349" style="fill: #dd8452; fill-opacity: 0.35"/>
     <use xlink:href="#m1e5d1cd0c2" x="178.542627" y="206.771326" style="fill: #dd8452; fill-opacity: 0.35"/>
     <use xlink:href="#m1e5d1cd0c2" x="203.46565" y="174.808267" style="fill: #dd8452; fill-opacity: 0.35"/>
     <use xlink:href="#m1e5d1cd0c2" x="177.514712" y="183.993691" style="fill: #dd8452; fill-opacity: 0.35"/>
     <use xlink:href="#m1e5d1cd0c2" x="186.301399" y="206.715945" style="fill: #dd8452; fill-opacity: 0.35"/>
     <use xlink:href="#m1e5d1cd0c2" x="176.144498" y="198.210923" style="fill: #dd8452; fill-opacity: 0.35"/>
     <use xlink:href="#m1e5d1cd0c2" x="202.804869" y="233.694665" style="fill: #dd8452; fill-opacity: 0.35"/>
     <use xlink:href="#m1e5d1cd0c2" x="172.563119" y="217.736871" style="fill: #dd8452; fill-opacity: 0.35"/>
     <use xlink:href="#m1e5d1cd0c2" x="167.87076" y="204.935824" style="fill: #dd8452; fill-opacity: 0.35"/>
     <use xlink:href="#m1e5d1cd0c2" x="183.166812" y="197.079557" style="fill: #dd8452; fill-opacity: 0.35"/>
     <use xlink:href="#m1e5d1cd0c2" x="205.013191" y="204.96747" style="fill: #dd8452; fill-opacity: 0.35"/>
     <use xlink:href="#m1e5d1cd0c2" x="201.065626" y="207.12735" style="fill: #dd8452; fill-opacity: 0.35"/>
     <use xlink:href="#m1e5d1cd0c2" x="195.457039" y="210.521447" style="fill: #dd8452; fill-opacity: 0.35"/>
     <use xlink:href="#m1e5d1cd0c2" x="201.030941" y="230.537917" style="fill: #dd8452; fill-opacity: 0.35"/>
     <use xlink:href="#m1e5d1cd0c2" x="201.134989" y="209.105262" style="fill: #dd8452; fill-opacity: 0.35"/>
     <use xlink:href="#m1e5d1cd0c2" x="186.450415" y="238.061895" style="fill: #dd8452; fill-opacity: 0.35"/>
     <use xlink:href="#m1e5d1cd0c2" x="178.495199" y="234.177276" style="fill: #dd8452; fill-opacity: 0.35"/>
     <use xlink:href="#m1e5d1cd0c2" x="196.374536" y="235.435228" style="fill: #dd8452; fill-opacity: 0.35"/>
     <use xlink:href="#m1e5d1cd0c2" x="192.04856" y="210.901207" style="fill: #dd8452; fill-opacity: 0.35"/>
     <use xlink:href="#m1e5d1cd0c2" x="180.758273" y="205.798193" style="fill: #dd8452; fill-opacity: 0.35"/>
     <use xlink:href="#m1e5d1cd0c2" x="169.813452" y="225.403258" style="fill: #dd8452; fill-opacity: 0.35"/>
     <use xlink:href="#m1e5d1cd0c2" x="195.385754" y="245.348523" style="fill: #dd8452; fill-opacity: 0.35"/>
     <use xlink:href="#m1e5d1cd0c2" x="176.399131" y="219.936309" style="fill: #dd8452; fill-opacity: 0.35"/>
     <use xlink:href="#m1e5d1cd0c2" x="202.835038" y="211.526227" style="fill: #dd8452; fill-opacity: 0.35"/>
     <use xlink:href="#m1e5d1cd0c2" x="175.556684" y="204.682651" style="fill: #dd8452; fill-opacity: 0.35"/>
     <use xlink:href="#m1e5d1cd0c2" x="170.922523" y="242.500329" style="fill: #dd8452; fill-opacity: 0.35"/>
     <use xlink:href="#m1e5d1cd0c2" x="198.691378" y="219.596108" style="fill: #dd8452; fill-opacity: 0.35"/>
     <use xlink:href="#m1e5d1cd0c2" x="172.119216" y="237.959043" style="fill: #dd8452; fill-opacity: 0.35"/>
     <use xlink:href="#m1e5d1cd0c2" x="173.137838" y="214.46936" style="fill: #dd8452; fill-opacity: 0.35"/>
     <use xlink:href="#m1e5d1cd0c2" x="189.607126" y="199.389758" style="fill: #dd8452; fill-opacity: 0.35"/>
     <use xlink:href="#m1e5d1cd0c2" x="200.394676" y="224.50133" style="fill: #dd8452; fill-opacity: 0.35"/>
     <use xlink:href="#m1e5d1cd0c2" x="173.810792" y="164.792121" style="fill: #dd8452; fill-opacity: 0.35"/>
     <use xlink:href="#m1e5d1cd0c2" x="178.275458" y="195.631725" style="fill: #dd8452; fill-opacity: 0.35"/>
    </g>
   </g>
   <g id="PathCollection_3">
    <defs>
     <path id="md92acca90d" d="M 0 1.581139 
C 0.419323 1.581139 0.821528 1.41454 1.118034 1.118034 
C 1.41454 0.821528 1.581139 0.419323 1.581139 0 
C 1.581139 -0.419323 1.41454 -0.821528 1.118034 -1.118034 
C 0.821528 -1.41454 0.419323 -1.581139 0 -1.581139 
C -0.419323 -1.581139 -0.821528 -1.41454 -1.118034 -1.118034 
C -1.41454 -0.821528 -1.581139 -0.419323 -1.581139 0 
C -1.581139 0.419323 -1.41454 0.821528 -1.118034 1.118034 
C -0.821528 1.41454 -0.419323 1.581139 0 1.581139 
z
"/>
    </defs>
    <g clip-path="url(#p164b09dd9b)">
     <use xlink:href="#md92acca90d" x="285.681167" y="220.173658" style="fill: #55a868; fill-opacity: 0.35"/>
     <use xlink:href="#md92acca90d" x="293.302864" y="240.696474" style="fill: #55a868; fill-opacity: 0.35"/>
     <use xlink:href="#md92acca90d" x="274.835425" y="247.571696" style="fill: #55a868; fill-opacity: 0.35"/>
     <use xlink:href="#md92acca90d" x="260.846473" y="184.096542" style="fill: #55a868; fill-opacity: 0.35"/>
     <use xlink:href="#md92acca90d" x="255.751746" y="225.157997" style="fill: #55a868; fill-opacity: 0.35"/>
     <use xlink:href="#md92acca90d" x="264.20837" y="230.822737" style="fill: #55a868; fill-opacity: 0.35"/>
     <use xlink:href="#md92acca90d" x="260.373099" y="214.32695" style="fill: #55a868; fill-opacity: 0.35"/>
     <use xlink:href="#md92acca90d" x="281.770927" y="247.547961" style="fill: #55a868; fill-opacity: 0.35"/>
     <use xlink:href="#md92acca90d" x="259.981483" y="240.854707" style="fill: #55a868; fill-opacity: 0.35"/>
     <use xlink:href="#md92acca90d" x="275.054514" y="222.705386" style="fill: #55a868; fill-opacity: 0.35"/>
     <use xlink:href="#md92acca90d" x="282.421827" y="215.76687" style="fill: #55a868; fill-opacity: 0.35"/>
     <use xlink:href="#md92acca90d" x="277.986295" y="220.719562" style="fill: #55a868; fill-opacity: 0.35"/>
     <use xlink:href="#md92acca90d" x="263.037003" y="238.08563" style="fill: #55a868; fill-opacity: 0.35"/>
     <use xlink:href="#md92acca90d" x="286.72863" y="176.825738" style="fill: #55a868; fill-opacity: 0.35"/>
     <use xlink:href="#md92acca90d" x="283.250739" y="238.955911" style="fill: #55a868; fill-opacity: 0.35"/>
     <use xlink:href="#md92acca90d" x="284.174997" y="230.64868" style="fill: #55a868; fill-opacity: 0.35"/>
     <use xlink:href="#md92acca90d" x="260.34313" y="249.383463" style="fill: #55a868; fill-opacity: 0.35"/>
     <use xlink:href="#md92acca90d" x="260.056801" y="237.864104" style="fill: #55a868; fill-opacity: 0.35"/>
     <use xlink:href="#md92acca90d" x="291.567635" y="217.222613" style="fill: #55a868; fill-opacity: 0.35"/>
     <use xlink:href="#md92acca90d" x="270.791239" y="208.693857" style="fill: #55a868; fill-opacity: 0.35"/>
     <use xlink:href="#md92acca90d" x="267.003179" y="253.87728" style="fill: #55a868; fill-opacity: 0.35"/>
     <use xlink:href="#md92acca90d" x="274.358842" y="249.138202" style="fill: #55a868; fill-opacity: 0.35"/>
     <use xlink:href="#md92acca90d" x="281.190956" y="244.56527" style="fill: #55a868; fill-opacity: 0.35"/>
     <use xlink:href="#md92acca90d" x="292.667669" y="207.934338" style="fill: #55a868; fill-opacity: 0.35"/>
     <use xlink:href="#md92acca90d" x="266.434654" y="228.283098" style="fill: #55a868; fill-opacity: 0.35"/>
     <use xlink:href="#md92acca90d" x="291.459669" y="224.050366" style="fill: #55a868; fill-opacity: 0.35"/>
     <use xlink:href="#md92acca90d" x="256.179956" y="240.862618" style="fill: #55a868; fill-opacity: 0.35"/>
     <use xlink:href="#md92acca90d" x="276.970237" y="249.407198" style="fill: #55a868; fill-opacity: 0.35"/>
     <use xlink:href="#md92acca90d" x="280.058449" y="238.18057" style="fill: #55a868; fill-opacity: 0.35"/>
     <use xlink:href="#md92acca90d" x="259.356797" y="200.616064" style="fill: #55a868; fill-opacity: 0.35"/>
     <use xlink:href="#md92acca90d" x="260.706996" y="201.272731" style="fill: #55a868; fill-opacity: 0.35"/>
     <use xlink:href="#md92acca90d" x="271.635496" y="249.968925" style="fill: #55a868; fill-opacity: 0.35"/>
     <use xlink:href="#md92acca90d" x="293.083548" y="240.118923" style="fill: #55a868; fill-opacity: 0.35"/>
     <use xlink:href="#md92acca90d" x="278.57142" y="245.032057" style="fill: #55a868; fill-opacity: 0.35"/>
     <use xlink:href="#md92acca90d" x="291.781704" y="232.104424" style="fill: #55a868; fill-opacity: 0.35"/>
     <use xlink:href="#md92acca90d" x="286.737897" y="222.05663" style="fill: #55a868; fill-opacity: 0.35"/>
     <use xlink:href="#md92acca90d" x="273.527666" y="234.470007" style="fill: #55a868; fill-opacity: 0.35"/>
     <use xlink:href="#md92acca90d" x="285.969639" y="246.986234" style="fill: #55a868; fill-opacity: 0.35"/>
     <use xlink:href="#md92acca90d" x="255.904653" y="251.685753" style="fill: #55a868; fill-opacity: 0.35"/>
     <use xlink:href="#md92acca90d" x="259.484069" y="240.016072" style="fill: #55a868; fill-opacity: 0.35"/>
     <use xlink:href="#md92acca90d" x="287.720598" y="221.653136" style="fill: #55a868; fill-opacity: 0.35"/>
     <use xlink:href="#md92acca90d" x="286.442164" y="254.059248" style="fill: #55a868; fill-opacity: 0.35"/>
     <use xlink:href="#md92acca90d" x="264.325377" y="201.059116" style="fill: #55a868; fill-opacity: 0.35"/>
     <use xlink:href="#md92acca90d" x="276.012596" y="227.879604" style="fill: #55a868; fill-opacity: 0.35"/>
     <use xlink:href="#md92acca90d" x="278.962391" y="237.444786" style="fill: #55a868; fill-opacity: 0.35"/>
     <use xlink:href="#md92acca90d" x="289.222436" y="242.650651" style="fill: #55a868; fill-opacity: 0.35"/>
     <use xlink:href="#md92acca90d" x="278.848366" y="206.367832" style="fill: #55a868; fill-opacity: 0.35"/>
     <use xlink:href="#md92acca90d" x="271.379008" y="253.600372" style="fill: #55a868; fill-opacity: 0.35"/>
     <use xlink:href="#md92acca90d" x="269.874144" y="244.557358" style="fill: #55a868; fill-opacity: 0.35"/>
     <use xlink:href="#md92acca90d" x="271.900806" y="229.897074" style="fill: #55a868; fill-opacity: 0.35"/>
     <use xlink:href="#md92acca90d" x="280.762355" y="210.046749" style="fill: #55a868; fill-opacity: 0.35"/>
     <use xlink:href="#md92acca90d" x="289.212702" y="238.884706" style="fill: #55a868; fill-opacity: 0.35"/>
     <use xlink:href="#md92acca90d" x="272.999039" y="213.448757" style="fill: #55a868; fill-opacity: 0.35"/>
     <use xlink:href="#md92acca90d" x="264.9212" y="246.34539" style="fill: #55a868; fill-opacity: 0.35"/>
     <use xlink:href="#md92acca90d" x="264.483032" y="212.625946" style="fill: #55a868; fill-opacity: 0.35"/>
     <use xlink:href="#md92acca90d" x="284.450597" y="248.236274" style="fill: #55a868; fill-opacity: 0.35"/>
     <use xlink:href="#md92acca90d" x="287.216468" y="217.958397" style="fill: #55a868; fill-opacity: 0.35"/>
     <use xlink:href="#md92acca90d" x="259.332518" y="243.520932" style="fill: #55a868; fill-opacity: 0.35"/>
     <use xlink:href="#md92acca90d" x="257.814651" y="181.944574" style="fill: #55a868; fill-opacity: 0.35"/>
     <use xlink:href="#md92acca90d" x="278.508349" y="242.864265" style="fill: #55a868; fill-opacity: 0.35"/>
     <use xlink:href="#md92acca90d" x="260.935686" y="242.152217" style="fill: #55a868; fill-opacity: 0.35"/>
     <use xlink:href="#md92acca90d" x="287.533824" y="232.689886" style="fill: #55a868; fill-opacity: 0.35"/>
     <use xlink:href="#md92acca90d" x="267.371127" y="238.591975" style="fill: #55a868; fill-opacity: 0.35"/>
     <use xlink:href="#md92acca90d" x="260.84547" y="247.389728" style="fill: #55a868; fill-opacity: 0.35"/>
     <use xlink:href="#md92acca90d" x="291.309213" y="221.146791" style="fill: #55a868; fill-opacity: 0.35"/>
     <use xlink:href="#md92acca90d" x="261.694575" y="250.609769" style="fill: #55a868; fill-opacity: 0.35"/>
     <use xlink:href="#md92acca90d" x="266.366986" y="244.581093" style="fill: #55a868; fill-opacity: 0.35"/>
     <use xlink:href="#md92acca90d" x="261.227354" y="236.305509" style="fill: #55a868; fill-opacity: 0.35"/>
     <use xlink:href="#md92acca90d" x="259.732847" y="244.343744" style="fill: #55a868; fill-opacity: 0.35"/>
     <use xlink:href="#md92acca90d" x="256.034459" y="221.993337" style="fill: #55a868; fill-opacity: 0.35"/>
     <use xlink:href="#md92acca90d" x="257.377022" y="226.439684" style="fill: #55a868; fill-opacity: 0.35"/>
     <use xlink:href="#md92acca90d" x="262.051695" y="251.614548" style="fill: #55a868; fill-opacity: 0.35"/>
     <use xlink:href="#md92acca90d" x="257.29809" y="242.009807" style="fill: #55a868; fill-opacity: 0.35"/>
     <use xlink:href="#md92acca90d" x="278.37938" y="210.023014" style="fill: #55a868; fill-opacity: 0.35"/>
     <use xlink:href="#md92acca90d" x="281.890723" y="224.960205" style="fill: #55a868; fill-opacity: 0.35"/>
     <use xlink:href="#md92acca90d" x="270.63648" y="235.97322" style="fill: #55a868; fill-opacity: 0.35"/>
     <use xlink:href="#md92acca90d" x="267.671273" y="201.581285" style="fill: #55a868; fill-opacity: 0.35"/>
     <use xlink:href="#md92acca90d" x="274.983806" y="192.672769" style="fill: #55a868; fill-opacity: 0.35"/>
     <use xlink:href="#md92acca90d" x="289.507277" y="226.059924" style="fill: #55a868; fill-opacity: 0.35"/>
     <use xlink:href="#md92acca90d" x="288.571398" y="244.731414" style="fill: #55a868; fill-opacity: 0.35"/>
     <use xlink:href="#md92acca90d" x="256.909722" y="248.196716" style="fill: #55a868; fill-opacity: 0.35"/>
     <use xlink:href="#md92acca90d" x="262.3205" y="198.313774" style="fill: #55a868; fill-opacity: 0.35"/>
     <use xlink:href="#md92acca90d" x="264.486267" y="228.63121" style="fill: #55a868; fill-opacity: 0.35"/>
     <use xlink:href="#md92acca90d" x="264.981885" y="236.898883" style="fill: #55a868; fill-opacity: 0.35"/>
     <use xlink:href="#md92acca90d" x="277.598825" y="227.665989" style="fill: #55a868; fill-opacity: 0.35"/>
     <use xlink:href="#md92acca90d" x="271.523697" y="251.812339" style="fill: #55a868; fill-opacity: 0.35"/>
     <use xlink:href="#md92acca90d" x="257.136272" y="219.714783" style="fill: #55a868; fill-opacity: 0.35"/>
     <use xlink:href="#md92acca90d" x="269.851803" y="242.682297" style="fill: #55a868; fill-opacity: 0.35"/>
     <use xlink:href="#md92acca90d" x="275.73753" y="253.188966" style="fill: #55a868; fill-opacity: 0.35"/>
     <use xlink:href="#md92acca90d" x="259.191149" y="201.46261" style="fill: #55a868; fill-opacity: 0.35"/>
     <use xlink:href="#md92acca90d" x="287.87858" y="252.120894" style="fill: #55a868; fill-opacity: 0.35"/>
     <use xlink:href="#md92acca90d" x="257.242421" y="229.422375" style="fill: #55a868; fill-opacity: 0.35"/>
     <use xlink:href="#md92acca90d" x="291.46098" y="232.492094" style="fill: #55a868; fill-opacity: 0.35"/>
     <use xlink:href="#md92acca90d" x="259.090841" y="211.138556" style="fill: #55a868; fill-opacity: 0.35"/>
     <use xlink:href="#md92acca90d" x="288.275162" y="261.440815" style="fill: #55a868; fill-opacity: 0.35"/>
     <use xlink:href="#md92acca90d" x="290.591139" y="251.836074" style="fill: #55a868; fill-opacity: 0.35"/>
     <use xlink:href="#md92acca90d" x="293.606453" y="243.75037" style="fill: #55a868; fill-opacity: 0.35"/>
     <use xlink:href="#md92acca90d" x="286.646359" y="237.207437" style="fill: #55a868; fill-opacity: 0.35"/>
     <use xlink:href="#md92acca90d" x="285.762421" y="242.175952" style="fill: #55a868; fill-opacity: 0.35"/>
     <use xlink:href="#md92acca90d" x="280.391985" y="250.578122" style="fill: #55a868; fill-opacity: 0.35"/>
    </g>
   </g>
   <g id="PathCollection_4">
    <defs>
     <path id="m50c4288052" d="M 0 1.581139 
C 0.419323 1.581139 0.821528 1.41454 1.118034 1.118034 
C 1.41454 0.821528 1.581139 0.419323 1.581139 0 
C 1.581139 -0.419323 1.41454 -0.821528 1.118034 -1.118034 
C 0.821528 -1.41454 0.419323 -1.581139 0 -1.581139 
C -0.419323 -1.581139 -0.821528 -1.41454 -1.118034 -1.118034 
C -1.41454 -0.821528 -1.581139 -0.419323 -1.581139 0 
C -1.581139 0.419323 -1.41454 0.821528 -1.118034 1.118034 
C -0.821528 1.41454 -0.419323 1.581139 0 1.581139 
z
"/>
    </defs>
    <g clip-path="url(#p164b09dd9b)">
     <use xlink:href="#m50c4288052" x="374.838796" y="255.285553" style="fill: #c44e52; fill-opacity: 0.35"/>
     <use xlink:href="#m50c4288052" x="349.575358" y="254.462742" style="fill: #c44e52; fill-opacity: 0.35"/>
     <use xlink:href="#m50c4288052" x="365.315543" y="263.553225" style="fill: #c44e52; fill-opacity: 0.35"/>
     <use xlink:href="#m50c4288052" x="364.459171" y="232.642416" style="fill: #c44e52; fill-opacity: 0.35"/>
     <use xlink:href="#m50c4288052" x="377.919116" y="266.084953" style="fill: #c44e52; fill-opacity: 0.35"/>
     <use xlink:href="#m50c4288052" x="362.443271" y="253.584549" style="fill: #c44e52; fill-opacity: 0.35"/>
     <use xlink:href="#m50c4288052" x="359.396897" y="234.810207" style="fill: #c44e52; fill-opacity: 0.35"/>
     <use xlink:href="#m50c4288052" x="369.372753" y="252.627239" style="fill: #c44e52; fill-opacity: 0.35"/>
     <use xlink:href="#m50c4288052" x="354.746524" y="257.065674" style="fill: #c44e52; fill-opacity: 0.35"/>
     <use xlink:href="#m50c4288052" x="349.779843" y="252.263303" style="fill: #c44e52; fill-opacity: 0.35"/>
     <use xlink:href="#m50c4288052" x="363.034354" y="250.728444" style="fill: #c44e52; fill-opacity: 0.35"/>
     <use xlink:href="#m50c4288052" x="360.643512" y="242.365831" style="fill: #c44e52; fill-opacity: 0.35"/>
     <use xlink:href="#m50c4288052" x="353.417839" y="243.149085" style="fill: #c44e52; fill-opacity: 0.35"/>
     <use xlink:href="#m50c4288052" x="358.707818" y="253.980131" style="fill: #c44e52; fill-opacity: 0.35"/>
     <use xlink:href="#m50c4288052" x="358.663937" y="252.927882" style="fill: #c44e52; fill-opacity: 0.35"/>
     <use xlink:href="#m50c4288052" x="357.139105" y="255.625754" style="fill: #c44e52; fill-opacity: 0.35"/>
     <use xlink:href="#m50c4288052" x="359.176369" y="256.75712" style="fill: #c44e52; fill-opacity: 0.35"/>
     <use xlink:href="#m50c4288052" x="371.1831" y="254.40736" style="fill: #c44e52; fill-opacity: 0.35"/>
     <use xlink:href="#m50c4288052" x="355.938778" y="247.484668" style="fill: #c44e52; fill-opacity: 0.35"/>
     <use xlink:href="#m50c4288052" x="381.497693" y="249.438845" style="fill: #c44e52; fill-opacity: 0.35"/>
     <use xlink:href="#m50c4288052" x="380.223243" y="248.212539" style="fill: #c44e52; fill-opacity: 0.35"/>
     <use xlink:href="#m50c4288052" x="363.15326" y="264.518446" style="fill: #c44e52; fill-opacity: 0.35"/>
     <use xlink:href="#m50c4288052" x="357.173039" y="254.193746" style="fill: #c44e52; fill-opacity: 0.35"/>
     <use xlink:href="#m50c4288052" x="365.290718" y="242.808884" style="fill: #c44e52; fill-opacity: 0.35"/>
     <use xlink:href="#m50c4288052" x="377.565842" y="211.209761" style="fill: #c44e52; fill-opacity: 0.35"/>
     <use xlink:href="#m50c4288052" x="369.883322" y="262.888647" style="fill: #c44e52; fill-opacity: 0.35"/>
     <use xlink:href="#m50c4288052" x="375.834347" y="249.699929" style="fill: #c44e52; fill-opacity: 0.35"/>
     <use xlink:href="#m50c4288052" x="365.184383" y="258.410654" style="fill: #c44e52; fill-opacity: 0.35"/>
     <use xlink:href="#m50c4288052" x="369.112231" y="250.419889" style="fill: #c44e52; fill-opacity: 0.35"/>
     <use xlink:href="#m50c4288052" x="355.596904" y="255.871015" style="fill: #c44e52; fill-opacity: 0.35"/>
     <use xlink:href="#m50c4288052" x="373.109867" y="251.693665" style="fill: #c44e52; fill-opacity: 0.35"/>
     <use xlink:href="#m50c4288052" x="352.2353" y="252.160452" style="fill: #c44e52; fill-opacity: 0.35"/>
     <use xlink:href="#m50c4288052" x="371.538065" y="251.843986" style="fill: #c44e52; fill-opacity: 0.35"/>
     <use xlink:href="#m50c4288052" x="378.042482" y="246.796354" style="fill: #c44e52; fill-opacity: 0.35"/>
     <use xlink:href="#m50c4288052" x="349.479338" y="252.674709" style="fill: #c44e52; fill-opacity: 0.35"/>
     <use xlink:href="#m50c4288052" x="368.385511" y="229.715106" style="fill: #c44e52; fill-opacity: 0.35"/>
     <use xlink:href="#m50c4288052" x="348.028589" y="254.652621" style="fill: #c44e52; fill-opacity: 0.35"/>
     <use xlink:href="#m50c4288052" x="372.75009" y="245.158643" style="fill: #c44e52; fill-opacity: 0.35"/>
     <use xlink:href="#m50c4288052" x="347.61295" y="251.266436" style="fill: #c44e52; fill-opacity: 0.35"/>
     <use xlink:href="#m50c4288052" x="380.991279" y="240.989205" style="fill: #c44e52; fill-opacity: 0.35"/>
     <use xlink:href="#m50c4288052" x="349.687307" y="264.336479" style="fill: #c44e52; fill-opacity: 0.35"/>
     <use xlink:href="#m50c4288052" x="381.890587" y="255.17479" style="fill: #c44e52; fill-opacity: 0.35"/>
     <use xlink:href="#m50c4288052" x="375.69684" y="249.834427" style="fill: #c44e52; fill-opacity: 0.35"/>
     <use xlink:href="#m50c4288052" x="367.57412" y="258.284068" style="fill: #c44e52; fill-opacity: 0.35"/>
     <use xlink:href="#m50c4288052" x="374.98101" y="254.090894" style="fill: #c44e52; fill-opacity: 0.35"/>
     <use xlink:href="#m50c4288052" x="375.470671" y="243.489285" style="fill: #c44e52; fill-opacity: 0.35"/>
     <use xlink:href="#m50c4288052" x="381.386718" y="241.68543" style="fill: #c44e52; fill-opacity: 0.35"/>
     <use xlink:href="#m50c4288052" x="354.233765" y="251.503785" style="fill: #c44e52; fill-opacity: 0.35"/>
     <use xlink:href="#m50c4288052" x="367.432754" y="247.358081" style="fill: #c44e52; fill-opacity: 0.35"/>
     <use xlink:href="#m50c4288052" x="348.026764" y="237.349846" style="fill: #c44e52; fill-opacity: 0.35"/>
     <use xlink:href="#m50c4288052" x="368.455524" y="255.07985" style="fill: #c44e52; fill-opacity: 0.35"/>
     <use xlink:href="#m50c4288052" x="351.0156" y="257.983425" style="fill: #c44e52; fill-opacity: 0.35"/>
     <use xlink:href="#m50c4288052" x="366.447795" y="240.05563" style="fill: #c44e52; fill-opacity: 0.35"/>
     <use xlink:href="#m50c4288052" x="366.741021" y="234.770649" style="fill: #c44e52; fill-opacity: 0.35"/>
     <use xlink:href="#m50c4288052" x="362.56816" y="259.700253" style="fill: #c44e52; fill-opacity: 0.35"/>
     <use xlink:href="#m50c4288052" x="364.788816" y="228.567917" style="fill: #c44e52; fill-opacity: 0.35"/>
     <use xlink:href="#m50c4288052" x="374.247907" y="237.207437" style="fill: #c44e52; fill-opacity: 0.35"/>
     <use xlink:href="#m50c4288052" x="375.63257" y="229.185026" style="fill: #c44e52; fill-opacity: 0.35"/>
     <use xlink:href="#m50c4288052" x="363.593998" y="246.353302" style="fill: #c44e52; fill-opacity: 0.35"/>
     <use xlink:href="#m50c4288052" x="367.80586" y="242.990852" style="fill: #c44e52; fill-opacity: 0.35"/>
     <use xlink:href="#m50c4288052" x="380.806889" y="247.840692" style="fill: #c44e52; fill-opacity: 0.35"/>
     <use xlink:href="#m50c4288052" x="348.994439" y="246.44033" style="fill: #c44e52; fill-opacity: 0.35"/>
     <use xlink:href="#m50c4288052" x="348.891338" y="246.72515" style="fill: #c44e52; fill-opacity: 0.35"/>
     <use xlink:href="#m50c4288052" x="347.739015" y="247.540049" style="fill: #c44e52; fill-opacity: 0.35"/>
     <use xlink:href="#m50c4288052" x="370.090149" y="250.27748" style="fill: #c44e52; fill-opacity: 0.35"/>
     <use xlink:href="#m50c4288052" x="360.710898" y="256.290332" style="fill: #c44e52; fill-opacity: 0.35"/>
     <use xlink:href="#m50c4288052" x="374.655529" y="255.997601" style="fill: #c44e52; fill-opacity: 0.35"/>
     <use xlink:href="#m50c4288052" x="370.614205" y="263.260494" style="fill: #c44e52; fill-opacity: 0.35"/>
     <use xlink:href="#m50c4288052" x="357.37989" y="237.634666" style="fill: #c44e52; fill-opacity: 0.35"/>
     <use xlink:href="#m50c4288052" x="379.518335" y="237.033381" style="fill: #c44e52; fill-opacity: 0.35"/>
     <use xlink:href="#m50c4288052" x="374.193367" y="261.171819" style="fill: #c44e52; fill-opacity: 0.35"/>
     <use xlink:href="#m50c4288052" x="354.90614" y="215.450404" style="fill: #c44e52; fill-opacity: 0.35"/>
     <use xlink:href="#m50c4288052" x="358.577676" y="233.006352" style="fill: #c44e52; fill-opacity: 0.35"/>
     <use xlink:href="#m50c4288052" x="356.627301" y="253.022822" style="fill: #c44e52; fill-opacity: 0.35"/>
     <use xlink:href="#m50c4288052" x="350.479332" y="248.631857" style="fill: #c44e52; fill-opacity: 0.35"/>
     <use xlink:href="#m50c4288052" x="350.094044" y="246.780531" style="fill: #c44e52; fill-opacity: 0.35"/>
     <use xlink:href="#m50c4288052" x="380.998634" y="246.812178" style="fill: #c44e52; fill-opacity: 0.35"/>
     <use xlink:href="#m50c4288052" x="361.467327" y="215.410846" style="fill: #c44e52; fill-opacity: 0.35"/>
     <use xlink:href="#m50c4288052" x="359.327522" y="247.468845" style="fill: #c44e52; fill-opacity: 0.35"/>
     <use xlink:href="#m50c4288052" x="372.905724" y="243.876956" style="fill: #c44e52; fill-opacity: 0.35"/>
     <use xlink:href="#m50c4288052" x="365.979036" y="259.059409" style="fill: #c44e52; fill-opacity: 0.35"/>
     <use xlink:href="#m50c4288052" x="380.999125" y="260.254068" style="fill: #c44e52; fill-opacity: 0.35"/>
     <use xlink:href="#m50c4288052" x="374.88996" y="251.804428" style="fill: #c44e52; fill-opacity: 0.35"/>
     <use xlink:href="#m50c4288052" x="363.092855" y="255.902662" style="fill: #c44e52; fill-opacity: 0.35"/>
     <use xlink:href="#m50c4288052" x="359.054663" y="254.304509" style="fill: #c44e52; fill-opacity: 0.35"/>
     <use xlink:href="#m50c4288052" x="382.978491" y="256.812501" style="fill: #c44e52; fill-opacity: 0.35"/>
     <use xlink:href="#m50c4288052" x="372.438223" y="247.959367" style="fill: #c44e52; fill-opacity: 0.35"/>
     <use xlink:href="#m50c4288052" x="381.589297" y="258.53724" style="fill: #c44e52; fill-opacity: 0.35"/>
     <use xlink:href="#m50c4288052" x="348.945241" y="250.103423" style="fill: #c44e52; fill-opacity: 0.35"/>
     <use xlink:href="#m50c4288052" x="377.643195" y="225.553579" style="fill: #c44e52; fill-opacity: 0.35"/>
     <use xlink:href="#m50c4288052" x="369.275164" y="257.295112" style="fill: #c44e52; fill-opacity: 0.35"/>
     <use xlink:href="#m50c4288052" x="349.080217" y="249.256877" style="fill: #c44e52; fill-opacity: 0.35"/>
     <use xlink:href="#m50c4288052" x="367.361489" y="259.644871" style="fill: #c44e52; fill-opacity: 0.35"/>
     <use xlink:href="#m50c4288052" x="371.196939" y="256.883706" style="fill: #c44e52; fill-opacity: 0.35"/>
     <use xlink:href="#m50c4288052" x="344.782943" y="231.305347" style="fill: #c44e52; fill-opacity: 0.35"/>
     <use xlink:href="#m50c4288052" x="362.110784" y="244.145952" style="fill: #c44e52; fill-opacity: 0.35"/>
     <use xlink:href="#m50c4288052" x="376.657888" y="254.280774" style="fill: #c44e52; fill-opacity: 0.35"/>
     <use xlink:href="#m50c4288052" x="355.879291" y="250.032219" style="fill: #c44e52; fill-opacity: 0.35"/>
     <use xlink:href="#m50c4288052" x="362.276613" y="254.003866" style="fill: #c44e52; fill-opacity: 0.35"/>
     <use xlink:href="#m50c4288052" x="361.640211" y="247.215672" style="fill: #c44e52; fill-opacity: 0.35"/>
    </g>
   </g>
   <g id="text_13">
    <!-- *** -->
    <g transform="translate(134.413512 66.247972) scale(0.09 -0.09)">
     <defs>
      <path id="DejaVuSans-2a" d="M 3009 3897 
L 1888 3291 
L 3009 2681 
L 2828 2375 
L 1778 3009 
L 1778 1831 
L 1422 1831 
L 1422 3009 
L 372 2375 
L 191 2681 
L 1313 3291 
L 191 3897 
L 372 4206 
L 1422 3572 
L 1422 4750 
L 1778 4750 
L 1778 3572 
L 2828 4206 
L 3009 3897 
z
" transform="scale(0.015625)"/>
     </defs>
     <use xlink:href="#DejaVuSans-2a"/>
     <use xlink:href="#DejaVuSans-2a" transform="translate(50 0)"/>
     <use xlink:href="#DejaVuSans-2a" transform="translate(100 0)"/>
    </g>
   </g>
   <g id="text_14">
    <!-- *** -->
    <g transform="translate(178.961131 50.424676) scale(0.09 -0.09)">
     <use xlink:href="#DejaVuSans-2a"/>
     <use xlink:href="#DejaVuSans-2a" transform="translate(50 0)"/>
     <use xlink:href="#DejaVuSans-2a" transform="translate(100 0)"/>
    </g>
   </g>
   <g id="text_15">
    <!-- *** -->
    <g transform="translate(223.50875 34.60138) scale(0.09 -0.09)">
     <use xlink:href="#DejaVuSans-2a"/>
     <use xlink:href="#DejaVuSans-2a" transform="translate(50 0)"/>
     <use xlink:href="#DejaVuSans-2a" transform="translate(100 0)"/>
    </g>
   </g>
  </g>
 </g>
 <defs>
  <clipPath id="p164b09dd9b">
   <rect x="43.15875" y="7.2" width="374.2" height="273.656"/>
  </clipPath>
 </defs>
</svg>
