<?xml version="1.0" encoding="utf-8" standalone="no"?>
<!DOCTYPE svg PUBLIC "-//W3C//DTD SVG 1.1//EN"
  "http://www.w3.org/Graphics/SVG/1.1/DTD/svg11.dtd">
<svg xmlns:xlink="http://www.w3.org/1999/xlink" width="424.310937pt" height="315.428344pt" viewBox="0 0 424.310937 315.428344" xmlns="http://www.w3.org/2000/svg" version="1.1">
 <metadata>
  <rdf:RDF xmlns:dc="http://purl.org/dc/elements/1.1/" xmlns:cc="http://creativecommons.org/ns#" xmlns:rdf="http://www.w3.org/1999/02/22-rdf-syntax-ns#">
   <cc:Work>
    <dc:type rdf:resource="http://purl.org/dc/dcmitype/StillImage"/>
    <dc:date>2026-05-24T23:19:29.421914</dc:date>
    <dc:format>image/svg+xml</dc:format>
    <dc:creator>
     <cc:Agent>
      <dc:title>Matplotlib v3.10.9, https://matplotlib.org/</dc:title>
     </cc:Agent>
    </dc:creator>
   </cc:Work>
  </rdf:RDF>
 </metadata>
 <defs>
  <style type="text/css">*{stroke-linejoin: round; stroke-linecap: butt}</style>
 </defs>
 <g id="figure_1">
  <g id="patch_1">
   <path d="M 0 315.428344 
L 424.310937 315.428344 
L 424.310937 0 
L 0 0 
z
" style="fill: #ffffff"/>
  </g>
  <g id="axes_1">
   <g id="patch_2">
    <path d="M 42.190938 282.44 
L 417.110937 282.44 
L 417.110937 7.2 
L 42.190938 7.2 
z
" style="fill: #ffffff"/>
   </g>
   <g id="FillBetweenPolyCollection_1">
    <path d="M 99.613184 248.650935 
L 91.888691 248.650935 
L 91.302739 246.853832 
L 90.659575 245.056728 
L 89.954652 243.259624 
L 89.182919 241.46252 
L 88.33917 239.665416 
L 87.418563 237.868313 
L 86.417283 236.071209 
L 85.333336 234.274105 
L 84.167394 232.477001 
L 82.923648 230.679898 
L 81.610556 228.882794 
L 80.241414 227.08569 
L 78.834632 225.288586 
L 77.413638 223.491482 
L 76.006343 221.694379 
L 74.64415 219.897275 
L 73.360533 218.100171 
L 72.189269 216.303067 
L 71.162468 214.505964 
L 70.308577 212.70886 
L 69.650538 210.911756 
L 69.204314 209.114652 
L 68.977901 207.317548 
L 68.970937 205.520445 
L 69.174934 203.723341 
L 69.574062 201.926237 
L 70.146414 200.129133 
L 70.865568 198.332029 
L 71.70231 196.534926 
L 72.626342 194.737822 
L 73.607852 192.940718 
L 74.618846 191.143614 
L 75.634192 189.346511 
L 76.632358 187.549407 
L 77.595846 185.752303 
L 78.511376 183.955199 
L 79.369838 182.158095 
L 80.16607 180.360992 
L 80.898499 178.563888 
L 81.568696 176.766784 
L 82.180864 174.96968 
L 82.741307 173.172577 
L 83.257893 171.375473 
L 83.739532 169.578369 
L 84.195677 167.781265 
L 84.635852 165.984161 
L 85.06919 164.187058 
L 85.503997 162.389954 
L 85.947323 160.59285 
L 86.40457 158.795746 
L 86.879149 156.998642 
L 87.372225 155.201539 
L 87.882591 153.404435 
L 88.406697 151.607331 
L 88.93887 149.810227 
L 89.471696 148.013124 
L 89.996571 146.21602 
L 90.504343 144.418916 
L 90.985991 142.621812 
L 91.433278 140.824708 
L 91.839305 139.027605 
L 92.198929 137.230501 
L 92.509021 135.433397 
L 92.768573 133.636293 
L 92.978666 131.83919 
L 93.14233 130.042086 
L 93.264326 128.244982 
L 93.350873 126.447878 
L 93.409323 124.650774 
L 93.447797 122.853671 
L 93.474769 121.056567 
L 93.498618 119.259463 
L 93.527137 117.462359 
L 93.567062 115.665255 
L 93.623631 113.868152 
L 93.700236 112.071048 
L 93.798218 110.273944 
L 93.916828 108.47684 
L 94.053372 106.679737 
L 94.203523 104.882633 
L 94.361781 103.085529 
L 94.521998 101.288425 
L 94.677937 99.491321 
L 94.823788 97.694218 
L 94.954595 95.897114 
L 95.066566 94.10001 
L 95.15726 92.302906 
L 95.225635 90.505802 
L 95.272009 88.708699 
L 95.297918 86.911595 
L 95.305924 85.114491 
L 95.299383 83.317387 
L 95.282188 81.520284 
L 95.2585 79.72318 
L 95.232478 77.926076 
L 95.208024 76.128972 
L 95.188545 74.331868 
L 95.176761 72.534765 
L 95.174558 70.737661 
L 96.327317 70.737661 
L 96.327317 70.737661 
L 96.325114 72.534765 
L 96.31333 74.331868 
L 96.293851 76.128972 
L 96.269397 77.926076 
L 96.243375 79.72318 
L 96.219687 81.520284 
L 96.202492 83.317387 
L 96.195951 85.114491 
L 96.203957 86.911595 
L 96.229866 88.708699 
L 96.27624 90.505802 
L 96.344615 92.302906 
L 96.435309 94.10001 
L 96.54728 95.897114 
L 96.678087 97.694218 
L 96.823938 99.491321 
L 96.979877 101.288425 
L 97.140094 103.085529 
L 97.298352 104.882633 
L 97.448503 106.679737 
L 97.585047 108.47684 
L 97.703657 110.273944 
L 97.801639 112.071048 
L 97.878244 113.868152 
L 97.934813 115.665255 
L 97.974738 117.462359 
L 98.003257 119.259463 
L 98.027106 121.056567 
L 98.054078 122.853671 
L 98.092552 124.650774 
L 98.151002 126.447878 
L 98.237549 128.244982 
L 98.359545 130.042086 
L 98.523209 131.83919 
L 98.733302 133.636293 
L 98.992854 135.433397 
L 99.302946 137.230501 
L 99.66257 139.027605 
L 100.068597 140.824708 
L 100.515884 142.621812 
L 100.997532 144.418916 
L 101.505304 146.21602 
L 102.030179 148.013124 
L 102.563005 149.810227 
L 103.095178 151.607331 
L 103.619284 153.404435 
L 104.12965 155.201539 
L 104.622726 156.998642 
L 105.097305 158.795746 
L 105.554552 160.59285 
L 105.997878 162.389954 
L 106.432685 164.187058 
L 106.866023 165.984161 
L 107.306198 167.781265 
L 107.762343 169.578369 
L 108.243982 171.375473 
L 108.760568 173.172577 
L 109.321011 174.96968 
L 109.933179 176.766784 
L 110.603376 178.563888 
L 111.335805 180.360992 
L 112.132037 182.158095 
L 112.990499 183.955199 
L 113.906029 185.752303 
L 114.869517 187.549407 
L 115.867683 189.346511 
L 116.883029 191.143614 
L 117.894023 192.940718 
L 118.875533 194.737822 
L 119.799565 196.534926 
L 120.636307 198.332029 
L 121.355461 200.129133 
L 121.927813 201.926237 
L 122.326941 203.723341 
L 122.530937 205.520445 
L 122.523974 207.317548 
L 122.297561 209.114652 
L 121.851337 210.911756 
L 121.193298 212.70886 
L 120.339407 214.505964 
L 119.312606 216.303067 
L 118.141342 218.100171 
L 116.857725 219.897275 
L 115.495532 221.694379 
L 114.088237 223.491482 
L 112.667243 225.288586 
L 111.260461 227.08569 
L 109.891319 228.882794 
L 108.578227 230.679898 
L 107.334481 232.477001 
L 106.168539 234.274105 
L 105.084592 236.071209 
L 104.083312 237.868313 
L 103.162705 239.665416 
L 102.318956 241.46252 
L 101.547223 243.259624 
L 100.8423 245.056728 
L 100.199136 246.853832 
L 99.613184 248.650935 
z
" clip-path="url(#p20a0960c28)" style="fill: #4878cf; fill-opacity: 0.35"/>
   </g>
   <g id="FillBetweenPolyCollection_2">
    <path d="M 196.255715 247.638905 
L 173.779493 247.638905 
L 172.442649 246.101745 
L 171.104974 244.564586 
L 169.78852 243.027427 
L 168.513579 241.490267 
L 167.297559 239.953108 
L 166.154131 238.415948 
L 165.092717 236.878789 
L 164.118376 235.341629 
L 163.232105 233.80447 
L 162.431505 232.267311 
L 161.71174 230.730151 
L 161.066682 229.192992 
L 160.490102 227.655832 
L 159.976801 226.118673 
L 159.523548 224.581514 
L 159.129765 223.044354 
L 158.797888 221.507195 
L 158.533412 219.970035 
L 158.344616 218.432876 
L 158.242018 216.895716 
L 158.237604 215.358557 
L 158.343885 213.821398 
L 158.572842 212.284238 
L 158.934817 210.747079 
L 159.437423 209.209919 
L 160.084547 207.67276 
L 160.875516 206.1356 
L 161.804536 204.598441 
L 162.860457 203.061282 
L 164.026941 201.524122 
L 165.283047 199.986963 
L 166.604221 198.449803 
L 167.96362 196.912644 
L 169.333644 195.375485 
L 170.687547 193.838325 
L 172.000942 192.301166 
L 173.25305 190.764006 
L 174.42757 189.226847 
L 175.513095 187.689687 
L 176.503059 186.152528 
L 177.395273 184.615369 
L 178.191141 183.078209 
L 178.894707 181.54105 
L 179.511668 180.00389 
L 180.048497 178.466731 
L 180.511759 176.929571 
L 180.907691 175.392412 
L 181.24204 173.855253 
L 181.520113 172.318093 
L 181.746985 170.780934 
L 181.927757 169.243774 
L 182.067795 167.706615 
L 182.172881 166.169455 
L 182.249235 164.632296 
L 182.303407 163.095137 
L 182.342054 161.557977 
L 182.371652 160.020818 
L 182.398193 158.483658 
L 182.426915 156.946499 
L 182.462114 155.40934 
L 182.507038 153.87218 
L 182.563887 152.335021 
L 182.633886 150.797861 
L 182.717404 149.260702 
L 182.814093 147.723542 
L 182.923009 146.186383 
L 183.042711 144.649224 
L 183.171318 143.112064 
L 183.306549 141.574905 
L 183.445754 140.037745 
L 183.58596 138.500586 
L 183.723946 136.963426 
L 183.856366 135.426267 
L 183.979909 133.889108 
L 184.091493 132.351948 
L 184.188472 130.814789 
L 184.268826 129.277629 
L 184.33132 127.74047 
L 184.3756 126.203311 
L 184.402215 124.666151 
L 184.412564 123.128992 
L 184.408768 121.591832 
L 184.393481 120.054673 
L 184.369659 118.517513 
L 184.340328 116.980354 
L 184.308354 115.443195 
L 184.276268 113.906035 
L 184.246141 112.368876 
L 184.219542 110.831716 
L 184.197554 109.294557 
L 184.180859 107.757397 
L 184.169852 106.220238 
L 184.164763 104.683079 
L 184.165773 103.145919 
L 184.173079 101.60876 
L 184.186914 100.0716 
L 184.207519 98.534441 
L 184.235067 96.997282 
L 184.269566 95.460122 
L 185.765642 95.460122 
L 185.765642 95.460122 
L 185.800142 96.997282 
L 185.827689 98.534441 
L 185.848294 100.0716 
L 185.86213 101.60876 
L 185.869435 103.145919 
L 185.870445 104.683079 
L 185.865357 106.220238 
L 185.854349 107.757397 
L 185.837654 109.294557 
L 185.815667 110.831716 
L 185.789067 112.368876 
L 185.75894 113.906035 
L 185.726854 115.443195 
L 185.69488 116.980354 
L 185.665549 118.517513 
L 185.641728 120.054673 
L 185.62644 121.591832 
L 185.622645 123.128992 
L 185.632994 124.666151 
L 185.659608 126.203311 
L 185.703888 127.74047 
L 185.766382 129.277629 
L 185.846737 130.814789 
L 185.943715 132.351948 
L 186.055299 133.889108 
L 186.178842 135.426267 
L 186.311262 136.963426 
L 186.449248 138.500586 
L 186.589454 140.037745 
L 186.728659 141.574905 
L 186.86389 143.112064 
L 186.992497 144.649224 
L 187.112199 146.186383 
L 187.221115 147.723542 
L 187.317804 149.260702 
L 187.401322 150.797861 
L 187.471321 152.335021 
L 187.52817 153.87218 
L 187.573094 155.40934 
L 187.608293 156.946499 
L 187.637016 158.483658 
L 187.663556 160.020818 
L 187.693154 161.557977 
L 187.731801 163.095137 
L 187.785973 164.632296 
L 187.862327 166.169455 
L 187.967413 167.706615 
L 188.107451 169.243774 
L 188.288223 170.780934 
L 188.515095 172.318093 
L 188.793168 173.855253 
L 189.127517 175.392412 
L 189.52345 176.929571 
L 189.986711 178.466731 
L 190.52354 180.00389 
L 191.140502 181.54105 
L 191.844067 183.078209 
L 192.639935 184.615369 
L 193.532149 186.152528 
L 194.522114 187.689687 
L 195.607639 189.226847 
L 196.782158 190.764006 
L 198.034266 192.301166 
L 199.347661 193.838325 
L 200.701564 195.375485 
L 202.071588 196.912644 
L 203.430987 198.449803 
L 204.752162 199.986963 
L 206.008268 201.524122 
L 207.174751 203.061282 
L 208.230672 204.598441 
L 209.159692 206.1356 
L 209.950661 207.67276 
L 210.597785 209.209919 
L 211.100392 210.747079 
L 211.462366 212.284238 
L 211.691323 213.821398 
L 211.797604 215.358557 
L 211.79319 216.895716 
L 211.690592 218.432876 
L 211.501796 219.970035 
L 211.23732 221.507195 
L 210.905444 223.044354 
L 210.51166 224.581514 
L 210.058408 226.118673 
L 209.545106 227.655832 
L 208.968526 229.192992 
L 208.323468 230.730151 
L 207.603704 232.267311 
L 206.803103 233.80447 
L 205.916832 235.341629 
L 204.942491 236.878789 
L 203.881077 238.415948 
L 202.737649 239.953108 
L 201.52163 241.490267 
L 200.246688 243.027427 
L 198.930235 244.564586 
L 197.59256 246.101745 
L 196.255715 247.638905 
z
" clip-path="url(#p20a0960c28)" style="fill: #6acc65; fill-opacity: 0.35"/>
   </g>
   <g id="FillBetweenPolyCollection_3">
    <path d="M 279.716528 264.936974 
L 268.852014 264.936974 
L 267.933138 264.018234 
L 266.920681 263.099495 
L 265.818644 262.180756 
L 264.634036 261.262017 
L 263.376925 260.343277 
L 262.060332 259.424538 
L 260.699974 258.505799 
L 259.31385 257.58706 
L 257.921705 256.668321 
L 256.544403 255.749581 
L 255.203234 254.830842 
L 253.919217 253.912103 
L 252.712413 252.993364 
L 251.601298 252.074624 
L 250.602213 251.155885 
L 249.728906 250.237146 
L 248.99217 249.318407 
L 248.399593 248.399667 
L 247.955397 247.480928 
L 247.660383 246.562189 
L 247.51196 245.64345 
L 247.504271 244.72471 
L 247.628419 243.805971 
L 247.87278 242.887232 
L 248.22342 241.968493 
L 248.664599 241.049753 
L 249.179357 240.131014 
L 249.750165 239.212275 
L 250.359603 238.293536 
L 250.991044 237.374796 
L 251.629289 236.456057 
L 252.261126 235.537318 
L 252.875768 234.618579 
L 253.465139 233.699839 
L 254.023997 232.7811 
L 254.549882 231.862361 
L 255.042894 230.943622 
L 255.505337 230.024882 
L 255.941244 229.106143 
L 256.355836 228.187404 
L 256.754957 227.268665 
L 257.144522 226.349925 
L 257.530025 225.431186 
L 257.916142 224.512447 
L 258.306436 223.593708 
L 258.703195 222.674969 
L 259.107384 221.756229 
L 259.518723 220.83749 
L 259.935843 219.918751 
L 260.356529 219.000012 
L 260.777993 218.081272 
L 261.197167 217.162533 
L 261.610983 216.243794 
L 262.016624 215.325055 
L 262.411724 214.406315 
L 262.79452 213.487576 
L 263.163938 212.568837 
L 263.519636 211.650098 
L 263.861993 210.731358 
L 264.192062 209.812619 
L 264.511489 208.89388 
L 264.822412 207.975141 
L 265.127336 207.056401 
L 265.428993 206.137662 
L 265.730185 205.218923 
L 266.033616 204.300184 
L 266.341719 203.381444 
L 266.656481 202.462705 
L 266.979274 201.543966 
L 267.310718 200.625227 
L 267.650566 199.706487 
L 267.997654 198.787748 
L 268.349897 197.869009 
L 268.704359 196.95027 
L 269.057386 196.03153 
L 269.404799 195.112791 
L 269.742135 194.194052 
L 270.064918 193.275313 
L 270.368937 192.356574 
L 270.650513 191.437834 
L 270.906735 190.519095 
L 271.135634 189.600356 
L 271.336311 188.681617 
L 271.50897 187.762877 
L 271.6549 186.844138 
L 271.776373 185.925399 
L 271.876491 185.00666 
L 271.958985 184.08792 
L 272.027988 183.169181 
L 272.087786 182.250442 
L 272.142587 181.331703 
L 272.196299 180.412963 
L 272.252344 179.494224 
L 272.313516 178.575485 
L 272.381882 177.656746 
L 272.458738 176.738006 
L 272.544611 175.819267 
L 272.639306 174.900528 
L 272.741994 173.981789 
L 275.826548 173.981789 
L 275.826548 173.981789 
L 275.929235 174.900528 
L 276.023931 175.819267 
L 276.109803 176.738006 
L 276.186659 177.656746 
L 276.255025 178.575485 
L 276.316197 179.494224 
L 276.372243 180.412963 
L 276.425955 181.331703 
L 276.480756 182.250442 
L 276.540554 183.169181 
L 276.609556 184.08792 
L 276.692051 185.00666 
L 276.792169 185.925399 
L 276.913642 186.844138 
L 277.059572 187.762877 
L 277.232231 188.681617 
L 277.432907 189.600356 
L 277.661807 190.519095 
L 277.918028 191.437834 
L 278.199605 192.356574 
L 278.503623 193.275313 
L 278.826406 194.194052 
L 279.163743 195.112791 
L 279.511156 196.03153 
L 279.864183 196.95027 
L 280.218645 197.869009 
L 280.570888 198.787748 
L 280.917976 199.706487 
L 281.257824 200.625227 
L 281.589267 201.543966 
L 281.912061 202.462705 
L 282.226823 203.381444 
L 282.534926 204.300184 
L 282.838357 205.218923 
L 283.139548 206.137662 
L 283.441205 207.056401 
L 283.74613 207.975141 
L 284.057053 208.89388 
L 284.37648 209.812619 
L 284.706548 210.731358 
L 285.048906 211.650098 
L 285.404604 212.568837 
L 285.774022 213.487576 
L 286.156818 214.406315 
L 286.551918 215.325055 
L 286.957559 216.243794 
L 287.371375 217.162533 
L 287.790549 218.081272 
L 288.212013 219.000012 
L 288.632699 219.918751 
L 289.049819 220.83749 
L 289.461157 221.756229 
L 289.865347 222.674969 
L 290.262105 223.593708 
L 290.6524 224.512447 
L 291.038517 225.431186 
L 291.42402 226.349925 
L 291.813584 227.268665 
L 292.212705 228.187404 
L 292.627298 229.106143 
L 293.063205 230.024882 
L 293.525647 230.943622 
L 294.01866 231.862361 
L 294.544544 232.7811 
L 295.103403 233.699839 
L 295.692774 234.618579 
L 296.307415 235.537318 
L 296.939252 236.456057 
L 297.577497 237.374796 
L 298.208938 238.293536 
L 298.818377 239.212275 
L 299.389184 240.131014 
L 299.903943 241.049753 
L 300.345121 241.968493 
L 300.695761 242.887232 
L 300.940123 243.805971 
L 301.064271 244.72471 
L 301.056582 245.64345 
L 300.908158 246.562189 
L 300.613144 247.480928 
L 300.168949 248.399667 
L 299.576372 249.318407 
L 298.839636 250.237146 
L 297.966328 251.155885 
L 296.967244 252.074624 
L 295.856129 252.993364 
L 294.649325 253.912103 
L 293.365307 254.830842 
L 292.024139 255.749581 
L 290.646836 256.668321 
L 289.254692 257.58706 
L 287.868567 258.505799 
L 286.508209 259.424538 
L 285.191617 260.343277 
L 283.934505 261.262017 
L 282.749898 262.180756 
L 281.647861 263.099495 
L 280.635404 264.018234 
L 279.716528 264.936974 
z
" clip-path="url(#p20a0960c28)" style="fill: #d65f5f; fill-opacity: 0.35"/>
   </g>
   <g id="FillBetweenPolyCollection_4">
    <path d="M 368.56202 269.929091 
L 358.539855 269.929091 
L 357.851882 269.333263 
L 357.110688 268.737436 
L 356.314606 268.141608 
L 355.461862 267.545781 
L 354.550906 266.949953 
L 353.580878 266.354126 
L 352.552163 265.758298 
L 351.466974 265.162471 
L 350.329897 264.566643 
L 349.148328 263.970816 
L 347.932715 263.374988 
L 346.696575 262.779161 
L 345.456238 262.183333 
L 344.230331 261.587506 
L 343.039031 260.991678 
L 341.903142 260.39585 
L 340.843093 259.800023 
L 339.87793 259.204195 
L 339.024417 258.608368 
L 338.296316 258.01254 
L 337.703912 257.416713 
L 337.253804 256.820885 
L 336.948972 256.225058 
L 336.789079 255.62923 
L 336.770938 255.033403 
L 336.889089 254.437575 
L 337.136391 253.841748 
L 337.50455 253.24592 
L 337.984549 252.650093 
L 338.566933 252.054265 
L 339.241947 251.458438 
L 339.999555 250.86261 
L 340.829371 250.266783 
L 341.72056 249.670955 
L 342.661752 249.075128 
L 343.641016 248.4793 
L 344.645919 247.883472 
L 345.663686 247.287645 
L 346.681451 246.691817 
L 347.686586 246.09599 
L 348.667064 245.500162 
L 349.611846 244.904335 
L 350.511242 244.308507 
L 351.357211 243.71268 
L 352.143599 243.116852 
L 352.86628 242.521025 
L 353.5232 241.925197 
L 354.114317 241.32937 
L 354.641462 240.733542 
L 355.108108 240.137715 
L 355.519093 239.541887 
L 355.880294 238.94606 
L 356.198293 238.350232 
L 356.48006 237.754405 
L 356.732648 237.158577 
L 356.962945 236.562749 
L 357.177469 235.966922 
L 357.382214 235.371094 
L 357.582546 234.775267 
L 357.783122 234.179439 
L 357.98785 233.583612 
L 358.19985 232.987784 
L 358.421424 232.391957 
L 358.654041 231.796129 
L 358.898313 231.200302 
L 359.153988 230.604474 
L 359.419963 230.008647 
L 359.694319 229.412819 
L 359.97438 228.816992 
L 360.256814 228.221164 
L 360.53776 227.625337 
L 360.812982 227.029509 
L 361.078051 226.433682 
L 361.328531 225.837854 
L 361.56018 225.242026 
L 361.769144 224.646199 
L 361.952133 224.050371 
L 362.106593 223.454544 
L 362.230838 222.858716 
L 362.324162 222.262889 
L 362.386902 221.667061 
L 362.420464 221.071234 
L 362.427293 220.475406 
L 362.410791 219.879579 
L 362.375177 219.283751 
L 362.325304 218.687924 
L 362.266426 218.092096 
L 362.20394 217.496269 
L 362.143114 216.900441 
L 362.088826 216.304614 
L 362.04533 215.708786 
L 362.016062 215.112959 
L 362.003511 214.517131 
L 362.009149 213.921303 
L 362.033433 213.325476 
L 362.075865 212.729648 
L 362.135107 212.133821 
L 362.209133 211.537993 
L 362.295405 210.942166 
L 364.80647 210.942166 
L 364.80647 210.942166 
L 364.892742 211.537993 
L 364.966768 212.133821 
L 365.02601 212.729648 
L 365.068442 213.325476 
L 365.092726 213.921303 
L 365.098364 214.517131 
L 365.085813 215.112959 
L 365.056545 215.708786 
L 365.013049 216.304614 
L 364.958761 216.900441 
L 364.897935 217.496269 
L 364.835449 218.092096 
L 364.776571 218.687924 
L 364.726698 219.283751 
L 364.691084 219.879579 
L 364.674582 220.475406 
L 364.681411 221.071234 
L 364.714973 221.667061 
L 364.777713 222.262889 
L 364.871037 222.858716 
L 364.995282 223.454544 
L 365.149742 224.050371 
L 365.332731 224.646199 
L 365.541695 225.242026 
L 365.773344 225.837854 
L 366.023824 226.433682 
L 366.288893 227.029509 
L 366.564115 227.625337 
L 366.845061 228.221164 
L 367.127495 228.816992 
L 367.407556 229.412819 
L 367.681912 230.008647 
L 367.947887 230.604474 
L 368.203562 231.200302 
L 368.447834 231.796129 
L 368.680451 232.391957 
L 368.902025 232.987784 
L 369.114025 233.583612 
L 369.318753 234.179439 
L 369.519329 234.775267 
L 369.719661 235.371094 
L 369.924406 235.966922 
L 370.13893 236.562749 
L 370.369227 237.158577 
L 370.621815 237.754405 
L 370.903582 238.350232 
L 371.221581 238.94606 
L 371.582782 239.541887 
L 371.993767 240.137715 
L 372.460413 240.733542 
L 372.987558 241.32937 
L 373.578675 241.925197 
L 374.235595 242.521025 
L 374.958276 243.116852 
L 375.744664 243.71268 
L 376.590633 244.308507 
L 377.490029 244.904335 
L 378.434811 245.500162 
L 379.415289 246.09599 
L 380.420424 246.691817 
L 381.438189 247.287645 
L 382.455956 247.883472 
L 383.460859 248.4793 
L 384.440123 249.075128 
L 385.381315 249.670955 
L 386.272504 250.266783 
L 387.10232 250.86261 
L 387.859928 251.458438 
L 388.534942 252.054265 
L 389.117326 252.650093 
L 389.597325 253.24592 
L 389.965484 253.841748 
L 390.212786 254.437575 
L 390.330937 255.033403 
L 390.312796 255.62923 
L 390.152903 256.225058 
L 389.848071 256.820885 
L 389.397963 257.416713 
L 388.805559 258.01254 
L 388.077458 258.608368 
L 387.223945 259.204195 
L 386.258782 259.800023 
L 385.198733 260.39585 
L 384.062844 260.991678 
L 382.871544 261.587506 
L 381.645637 262.183333 
L 380.4053 262.779161 
L 379.16916 263.374988 
L 377.953547 263.970816 
L 376.771978 264.566643 
L 375.634901 265.162471 
L 374.549712 265.758298 
L 373.520997 266.354126 
L 372.550969 266.949953 
L 371.640013 267.545781 
L 370.787269 268.141608 
L 369.991187 268.737436 
L 369.249993 269.333263 
L 368.56202 269.929091 
z
" clip-path="url(#p20a0960c28)" style="fill: #b47cc7; fill-opacity: 0.35"/>
   </g>
   <g id="matplotlib.axis_1">
    <g id="xtick_1">
     <g id="line2d_1">
      <defs>
       <path id="mf2d6c6239e" d="M 0 0 
L 0 3.5 
" style="stroke: #000000; stroke-width: 0.8"/>
      </defs>
      <g>
       <use xlink:href="#mf2d6c6239e" x="95.750937" y="282.44" style="stroke: #000000; stroke-width: 0.8"/>
      </g>
     </g>
     <g id="text_1">
      <!-- Control -->
      <g transform="translate(79.486953 296.278594) scale(0.09 -0.09)">
       <defs>
        <path id="DejaVuSans-43" d="M 4122 4306 
L 4122 3641 
Q 3803 3938 3442 4084 
Q 3081 4231 2675 4231 
Q 1875 4231 1450 3742 
Q 1025 3253 1025 2328 
Q 1025 1406 1450 917 
Q 1875 428 2675 428 
Q 3081 428 3442 575 
Q 3803 722 4122 1019 
L 4122 359 
Q 3791 134 3420 21 
Q 3050 -91 2638 -91 
Q 1578 -91 968 557 
Q 359 1206 359 2328 
Q 359 3453 968 4101 
Q 1578 4750 2638 4750 
Q 3056 4750 3426 4639 
Q 3797 4528 4122 4306 
z
" transform="scale(0.015625)"/>
        <path id="DejaVuSans-6f" d="M 1959 3097 
Q 1497 3097 1228 2736 
Q 959 2375 959 1747 
Q 959 1119 1226 758 
Q 1494 397 1959 397 
Q 2419 397 2687 759 
Q 2956 1122 2956 1747 
Q 2956 2369 2687 2733 
Q 2419 3097 1959 3097 
z
M 1959 3584 
Q 2709 3584 3137 3096 
Q 3566 2609 3566 1747 
Q 3566 888 3137 398 
Q 2709 -91 1959 -91 
Q 1206 -91 779 398 
Q 353 888 353 1747 
Q 353 2609 779 3096 
Q 1206 3584 1959 3584 
z
" transform="scale(0.015625)"/>
        <path id="DejaVuSans-6e" d="M 3513 2113 
L 3513 0 
L 2938 0 
L 2938 2094 
Q 2938 2591 2744 2837 
Q 2550 3084 2163 3084 
Q 1697 3084 1428 2787 
Q 1159 2491 1159 1978 
L 1159 0 
L 581 0 
L 581 3500 
L 1159 3500 
L 1159 2956 
Q 1366 3272 1645 3428 
Q 1925 3584 2291 3584 
Q 2894 3584 3203 3211 
Q 3513 2838 3513 2113 
z
" transform="scale(0.015625)"/>
        <path id="DejaVuSans-74" d="M 1172 4494 
L 1172 3500 
L 2356 3500 
L 2356 3053 
L 1172 3053 
L 1172 1153 
Q 1172 725 1289 603 
Q 1406 481 1766 481 
L 2356 481 
L 2356 0 
L 1766 0 
Q 1100 0 847 248 
Q 594 497 594 1153 
L 594 3053 
L 172 3053 
L 172 3500 
L 594 3500 
L 594 4494 
L 1172 4494 
z
" transform="scale(0.015625)"/>
        <path id="DejaVuSans-72" d="M 2631 2963 
Q 2534 3019 2420 3045 
Q 2306 3072 2169 3072 
Q 1681 3072 1420 2755 
Q 1159 2438 1159 1844 
L 1159 0 
L 581 0 
L 581 3500 
L 1159 3500 
L 1159 2956 
Q 1341 3275 1631 3429 
Q 1922 3584 2338 3584 
Q 2397 3584 2469 3576 
Q 2541 3569 2628 3553 
L 2631 2963 
z
" transform="scale(0.015625)"/>
        <path id="DejaVuSans-6c" d="M 603 4863 
L 1178 4863 
L 1178 0 
L 603 0 
L 603 4863 
z
" transform="scale(0.015625)"/>
       </defs>
       <use xlink:href="#DejaVuSans-43"/>
       <use xlink:href="#DejaVuSans-6f" transform="translate(69.824219 0)"/>
       <use xlink:href="#DejaVuSans-6e" transform="translate(131.005859 0)"/>
       <use xlink:href="#DejaVuSans-74" transform="translate(194.384766 0)"/>
       <use xlink:href="#DejaVuSans-72" transform="translate(233.59375 0)"/>
       <use xlink:href="#DejaVuSans-6f" transform="translate(272.457031 0)"/>
       <use xlink:href="#DejaVuSans-6c" transform="translate(333.638672 0)"/>
      </g>
     </g>
    </g>
    <g id="xtick_2">
     <g id="line2d_2">
      <g>
       <use xlink:href="#mf2d6c6239e" x="185.017604" y="282.44" style="stroke: #000000; stroke-width: 0.8"/>
      </g>
     </g>
     <g id="text_2">
      <!-- Drug-A -->
      <g transform="translate(169.393464 296.278594) scale(0.09 -0.09)">
       <defs>
        <path id="DejaVuSans-44" d="M 1259 4147 
L 1259 519 
L 2022 519 
Q 2988 519 3436 956 
Q 3884 1394 3884 2338 
Q 3884 3275 3436 3711 
Q 2988 4147 2022 4147 
L 1259 4147 
z
M 628 4666 
L 1925 4666 
Q 3281 4666 3915 4102 
Q 4550 3538 4550 2338 
Q 4550 1131 3912 565 
Q 3275 0 1925 0 
L 628 0 
L 628 4666 
z
" transform="scale(0.015625)"/>
        <path id="DejaVuSans-75" d="M 544 1381 
L 544 3500 
L 1119 3500 
L 1119 1403 
Q 1119 906 1312 657 
Q 1506 409 1894 409 
Q 2359 409 2629 706 
Q 2900 1003 2900 1516 
L 2900 3500 
L 3475 3500 
L 3475 0 
L 2900 0 
L 2900 538 
Q 2691 219 2414 64 
Q 2138 -91 1772 -91 
Q 1169 -91 856 284 
Q 544 659 544 1381 
z
M 1991 3584 
L 1991 3584 
z
" transform="scale(0.015625)"/>
        <path id="DejaVuSans-67" d="M 2906 1791 
Q 2906 2416 2648 2759 
Q 2391 3103 1925 3103 
Q 1463 3103 1205 2759 
Q 947 2416 947 1791 
Q 947 1169 1205 825 
Q 1463 481 1925 481 
Q 2391 481 2648 825 
Q 2906 1169 2906 1791 
z
M 3481 434 
Q 3481 -459 3084 -895 
Q 2688 -1331 1869 -1331 
Q 1566 -1331 1297 -1286 
Q 1028 -1241 775 -1147 
L 775 -588 
Q 1028 -725 1275 -790 
Q 1522 -856 1778 -856 
Q 2344 -856 2625 -561 
Q 2906 -266 2906 331 
L 2906 616 
Q 2728 306 2450 153 
Q 2172 0 1784 0 
Q 1141 0 747 490 
Q 353 981 353 1791 
Q 353 2603 747 3093 
Q 1141 3584 1784 3584 
Q 2172 3584 2450 3431 
Q 2728 3278 2906 2969 
L 2906 3500 
L 3481 3500 
L 3481 434 
z
" transform="scale(0.015625)"/>
        <path id="DejaVuSans-2d" d="M 313 2009 
L 1997 2009 
L 1997 1497 
L 313 1497 
L 313 2009 
z
" transform="scale(0.015625)"/>
        <path id="DejaVuSans-41" d="M 2188 4044 
L 1331 1722 
L 3047 1722 
L 2188 4044 
z
M 1831 4666 
L 2547 4666 
L 4325 0 
L 3669 0 
L 3244 1197 
L 1141 1197 
L 716 0 
L 50 0 
L 1831 4666 
z
" transform="scale(0.015625)"/>
       </defs>
       <use xlink:href="#DejaVuSans-44"/>
       <use xlink:href="#DejaVuSans-72" transform="translate(77.001953 0)"/>
       <use xlink:href="#DejaVuSans-75" transform="translate(118.115234 0)"/>
       <use xlink:href="#DejaVuSans-67" transform="translate(181.494141 0)"/>
       <use xlink:href="#DejaVuSans-2d" transform="translate(244.970703 0)"/>
       <use xlink:href="#DejaVuSans-41" transform="translate(278.804688 0)"/>
      </g>
      <!-- 10 µM -->
      <g transform="translate(171.115417 306.356625) scale(0.09 -0.09)">
       <defs>
        <path id="DejaVuSans-31" d="M 794 531 
L 1825 531 
L 1825 4091 
L 703 3866 
L 703 4441 
L 1819 4666 
L 2450 4666 
L 2450 531 
L 3481 531 
L 3481 0 
L 794 0 
L 794 531 
z
" transform="scale(0.015625)"/>
        <path id="DejaVuSans-30" d="M 2034 4250 
Q 1547 4250 1301 3770 
Q 1056 3291 1056 2328 
Q 1056 1369 1301 889 
Q 1547 409 2034 409 
Q 2525 409 2770 889 
Q 3016 1369 3016 2328 
Q 3016 3291 2770 3770 
Q 2525 4250 2034 4250 
z
M 2034 4750 
Q 2819 4750 3233 4129 
Q 3647 3509 3647 2328 
Q 3647 1150 3233 529 
Q 2819 -91 2034 -91 
Q 1250 -91 836 529 
Q 422 1150 422 2328 
Q 422 3509 836 4129 
Q 1250 4750 2034 4750 
z
" transform="scale(0.015625)"/>
        <path id="DejaVuSans-20" transform="scale(0.015625)"/>
        <path id="DejaVuSans-b5" d="M 544 -1331 
L 544 3500 
L 1119 3500 
L 1119 1325 
Q 1119 872 1334 640 
Q 1550 409 1972 409 
Q 2434 409 2667 671 
Q 2900 934 2900 1459 
L 2900 3500 
L 3475 3500 
L 3475 806 
Q 3475 619 3529 530 
Q 3584 441 3700 441 
Q 3728 441 3778 458 
Q 3828 475 3916 513 
L 3916 50 
Q 3788 -22 3673 -56 
Q 3559 -91 3450 -91 
Q 3234 -91 3106 31 
Q 2978 153 2931 403 
Q 2775 156 2548 32 
Q 2322 -91 2016 -91 
Q 1697 -91 1473 31 
Q 1250 153 1119 397 
L 1119 -1331 
L 544 -1331 
z
" transform="scale(0.015625)"/>
        <path id="DejaVuSans-4d" d="M 628 4666 
L 1569 4666 
L 2759 1491 
L 3956 4666 
L 4897 4666 
L 4897 0 
L 4281 0 
L 4281 4097 
L 3078 897 
L 2444 897 
L 1241 4097 
L 1241 0 
L 628 0 
L 628 4666 
z
" transform="scale(0.015625)"/>
       </defs>
       <use xlink:href="#DejaVuSans-31"/>
       <use xlink:href="#DejaVuSans-30" transform="translate(63.623047 0)"/>
       <use xlink:href="#DejaVuSans-20" transform="translate(127.246094 0)"/>
       <use xlink:href="#DejaVuSans-b5" transform="translate(159.033203 0)"/>
       <use xlink:href="#DejaVuSans-4d" transform="translate(222.65625 0)"/>
      </g>
     </g>
    </g>
    <g id="xtick_3">
     <g id="line2d_3">
      <g>
       <use xlink:href="#mf2d6c6239e" x="274.284271" y="282.44" style="stroke: #000000; stroke-width: 0.8"/>
      </g>
     </g>
     <g id="text_3">
      <!-- Drug-A -->
      <g transform="translate(258.66013 296.278594) scale(0.09 -0.09)">
       <use xlink:href="#DejaVuSans-44"/>
       <use xlink:href="#DejaVuSans-72" transform="translate(77.001953 0)"/>
       <use xlink:href="#DejaVuSans-75" transform="translate(118.115234 0)"/>
       <use xlink:href="#DejaVuSans-67" transform="translate(181.494141 0)"/>
       <use xlink:href="#DejaVuSans-2d" transform="translate(244.970703 0)"/>
       <use xlink:href="#DejaVuSans-41" transform="translate(278.804688 0)"/>
      </g>
      <!-- 50 µM -->
      <g transform="translate(260.382083 306.356625) scale(0.09 -0.09)">
       <defs>
        <path id="DejaVuSans-35" d="M 691 4666 
L 3169 4666 
L 3169 4134 
L 1269 4134 
L 1269 2991 
Q 1406 3038 1543 3061 
Q 1681 3084 1819 3084 
Q 2600 3084 3056 2656 
Q 3513 2228 3513 1497 
Q 3513 744 3044 326 
Q 2575 -91 1722 -91 
Q 1428 -91 1123 -41 
Q 819 9 494 109 
L 494 744 
Q 775 591 1075 516 
Q 1375 441 1709 441 
Q 2250 441 2565 725 
Q 2881 1009 2881 1497 
Q 2881 1984 2565 2268 
Q 2250 2553 1709 2553 
Q 1456 2553 1204 2497 
Q 953 2441 691 2322 
L 691 4666 
z
" transform="scale(0.015625)"/>
       </defs>
       <use xlink:href="#DejaVuSans-35"/>
       <use xlink:href="#DejaVuSans-30" transform="translate(63.623047 0)"/>
       <use xlink:href="#DejaVuSans-20" transform="translate(127.246094 0)"/>
       <use xlink:href="#DejaVuSans-b5" transform="translate(159.033203 0)"/>
       <use xlink:href="#DejaVuSans-4d" transform="translate(222.65625 0)"/>
      </g>
     </g>
    </g>
    <g id="xtick_4">
     <g id="line2d_4">
      <g>
       <use xlink:href="#mf2d6c6239e" x="363.550937" y="282.44" style="stroke: #000000; stroke-width: 0.8"/>
      </g>
     </g>
     <g id="text_4">
      <!-- Combo -->
      <g transform="translate(347.661719 296.278594) scale(0.09 -0.09)">
       <defs>
        <path id="DejaVuSans-6d" d="M 3328 2828 
Q 3544 3216 3844 3400 
Q 4144 3584 4550 3584 
Q 5097 3584 5394 3201 
Q 5691 2819 5691 2113 
L 5691 0 
L 5113 0 
L 5113 2094 
Q 5113 2597 4934 2840 
Q 4756 3084 4391 3084 
Q 3944 3084 3684 2787 
Q 3425 2491 3425 1978 
L 3425 0 
L 2847 0 
L 2847 2094 
Q 2847 2600 2669 2842 
Q 2491 3084 2119 3084 
Q 1678 3084 1418 2786 
Q 1159 2488 1159 1978 
L 1159 0 
L 581 0 
L 581 3500 
L 1159 3500 
L 1159 2956 
Q 1356 3278 1631 3431 
Q 1906 3584 2284 3584 
Q 2666 3584 2933 3390 
Q 3200 3197 3328 2828 
z
" transform="scale(0.015625)"/>
        <path id="DejaVuSans-62" d="M 3116 1747 
Q 3116 2381 2855 2742 
Q 2594 3103 2138 3103 
Q 1681 3103 1420 2742 
Q 1159 2381 1159 1747 
Q 1159 1113 1420 752 
Q 1681 391 2138 391 
Q 2594 391 2855 752 
Q 3116 1113 3116 1747 
z
M 1159 2969 
Q 1341 3281 1617 3432 
Q 1894 3584 2278 3584 
Q 2916 3584 3314 3078 
Q 3713 2572 3713 1747 
Q 3713 922 3314 415 
Q 2916 -91 2278 -91 
Q 1894 -91 1617 61 
Q 1341 213 1159 525 
L 1159 0 
L 581 0 
L 581 4863 
L 1159 4863 
L 1159 2969 
z
" transform="scale(0.015625)"/>
       </defs>
       <use xlink:href="#DejaVuSans-43"/>
       <use xlink:href="#DejaVuSans-6f" transform="translate(69.824219 0)"/>
       <use xlink:href="#DejaVuSans-6d" transform="translate(131.005859 0)"/>
       <use xlink:href="#DejaVuSans-62" transform="translate(228.417969 0)"/>
       <use xlink:href="#DejaVuSans-6f" transform="translate(291.894531 0)"/>
      </g>
     </g>
    </g>
   </g>
   <g id="matplotlib.axis_2">
    <g id="ytick_1">
     <g id="line2d_5">
      <defs>
       <path id="mb28a3f38aa" d="M 0 0 
L -3.5 0 
" style="stroke: #000000; stroke-width: 0.8"/>
      </defs>
      <g>
       <use xlink:href="#mb28a3f38aa" x="42.190938" y="281.554686" style="stroke: #000000; stroke-width: 0.8"/>
      </g>
     </g>
     <g id="text_5">
      <!-- 0.0 -->
      <g transform="translate(20.878125 284.973983) scale(0.09 -0.09)">
       <defs>
        <path id="DejaVuSans-2e" d="M 684 794 
L 1344 794 
L 1344 0 
L 684 0 
L 684 794 
z
" transform="scale(0.015625)"/>
       </defs>
       <use xlink:href="#DejaVuSans-30"/>
       <use xlink:href="#DejaVuSans-2e" transform="translate(63.623047 0)"/>
       <use xlink:href="#DejaVuSans-30" transform="translate(95.410156 0)"/>
      </g>
     </g>
    </g>
    <g id="ytick_2">
     <g id="line2d_6">
      <g>
       <use xlink:href="#mb28a3f38aa" x="42.190938" y="239.032393" style="stroke: #000000; stroke-width: 0.8"/>
      </g>
     </g>
     <g id="text_6">
      <!-- 0.5 -->
      <g transform="translate(20.878125 242.45169) scale(0.09 -0.09)">
       <use xlink:href="#DejaVuSans-30"/>
       <use xlink:href="#DejaVuSans-2e" transform="translate(63.623047 0)"/>
       <use xlink:href="#DejaVuSans-35" transform="translate(95.410156 0)"/>
      </g>
     </g>
    </g>
    <g id="ytick_3">
     <g id="line2d_7">
      <g>
       <use xlink:href="#mb28a3f38aa" x="42.190938" y="196.5101" style="stroke: #000000; stroke-width: 0.8"/>
      </g>
     </g>
     <g id="text_7">
      <!-- 1.0 -->
      <g transform="translate(20.878125 199.929396) scale(0.09 -0.09)">
       <use xlink:href="#DejaVuSans-31"/>
       <use xlink:href="#DejaVuSans-2e" transform="translate(63.623047 0)"/>
       <use xlink:href="#DejaVuSans-30" transform="translate(95.410156 0)"/>
      </g>
     </g>
    </g>
    <g id="ytick_4">
     <g id="line2d_8">
      <g>
       <use xlink:href="#mb28a3f38aa" x="42.190938" y="153.987806" style="stroke: #000000; stroke-width: 0.8"/>
      </g>
     </g>
     <g id="text_8">
      <!-- 1.5 -->
      <g transform="translate(20.878125 157.407103) scale(0.09 -0.09)">
       <use xlink:href="#DejaVuSans-31"/>
       <use xlink:href="#DejaVuSans-2e" transform="translate(63.623047 0)"/>
       <use xlink:href="#DejaVuSans-35" transform="translate(95.410156 0)"/>
      </g>
     </g>
    </g>
    <g id="ytick_5">
     <g id="line2d_9">
      <g>
       <use xlink:href="#mb28a3f38aa" x="42.190938" y="111.465513" style="stroke: #000000; stroke-width: 0.8"/>
      </g>
     </g>
     <g id="text_9">
      <!-- 2.0 -->
      <g transform="translate(20.878125 114.88481) scale(0.09 -0.09)">
       <defs>
        <path id="DejaVuSans-32" d="M 1228 531 
L 3431 531 
L 3431 0 
L 469 0 
L 469 531 
Q 828 903 1448 1529 
Q 2069 2156 2228 2338 
Q 2531 2678 2651 2914 
Q 2772 3150 2772 3378 
Q 2772 3750 2511 3984 
Q 2250 4219 1831 4219 
Q 1534 4219 1204 4116 
Q 875 4013 500 3803 
L 500 4441 
Q 881 4594 1212 4672 
Q 1544 4750 1819 4750 
Q 2544 4750 2975 4387 
Q 3406 4025 3406 3419 
Q 3406 3131 3298 2873 
Q 3191 2616 2906 2266 
Q 2828 2175 2409 1742 
Q 1991 1309 1228 531 
z
" transform="scale(0.015625)"/>
       </defs>
       <use xlink:href="#DejaVuSans-32"/>
       <use xlink:href="#DejaVuSans-2e" transform="translate(63.623047 0)"/>
       <use xlink:href="#DejaVuSans-30" transform="translate(95.410156 0)"/>
      </g>
     </g>
    </g>
    <g id="ytick_6">
     <g id="line2d_10">
      <g>
       <use xlink:href="#mb28a3f38aa" x="42.190938" y="68.94322" style="stroke: #000000; stroke-width: 0.8"/>
      </g>
     </g>
     <g id="text_10">
      <!-- 2.5 -->
      <g transform="translate(20.878125 72.362517) scale(0.09 -0.09)">
       <use xlink:href="#DejaVuSans-32"/>
       <use xlink:href="#DejaVuSans-2e" transform="translate(63.623047 0)"/>
       <use xlink:href="#DejaVuSans-35" transform="translate(95.410156 0)"/>
      </g>
     </g>
    </g>
    <g id="ytick_7">
     <g id="line2d_11">
      <g>
       <use xlink:href="#mb28a3f38aa" x="42.190938" y="26.420927" style="stroke: #000000; stroke-width: 0.8"/>
      </g>
     </g>
     <g id="text_11">
      <!-- 3.0 -->
      <g transform="translate(20.878125 29.840224) scale(0.09 -0.09)">
       <defs>
        <path id="DejaVuSans-33" d="M 2597 2516 
Q 3050 2419 3304 2112 
Q 3559 1806 3559 1356 
Q 3559 666 3084 287 
Q 2609 -91 1734 -91 
Q 1441 -91 1130 -33 
Q 819 25 488 141 
L 488 750 
Q 750 597 1062 519 
Q 1375 441 1716 441 
Q 2309 441 2620 675 
Q 2931 909 2931 1356 
Q 2931 1769 2642 2001 
Q 2353 2234 1838 2234 
L 1294 2234 
L 1294 2753 
L 1863 2753 
Q 2328 2753 2575 2939 
Q 2822 3125 2822 3475 
Q 2822 3834 2567 4026 
Q 2313 4219 1838 4219 
Q 1578 4219 1281 4162 
Q 984 4106 628 3988 
L 628 4550 
Q 988 4650 1302 4700 
Q 1616 4750 1894 4750 
Q 2613 4750 3031 4423 
Q 3450 4097 3450 3541 
Q 3450 3153 3228 2886 
Q 3006 2619 2597 2516 
z
" transform="scale(0.015625)"/>
       </defs>
       <use xlink:href="#DejaVuSans-33"/>
       <use xlink:href="#DejaVuSans-2e" transform="translate(63.623047 0)"/>
       <use xlink:href="#DejaVuSans-30" transform="translate(95.410156 0)"/>
      </g>
     </g>
    </g>
    <g id="text_12">
     <!-- Relative cell viability -->
     <g transform="translate(14.798438 196.439531) rotate(-90) scale(0.1 -0.1)">
      <defs>
       <path id="DejaVuSans-52" d="M 2841 2188 
Q 3044 2119 3236 1894 
Q 3428 1669 3622 1275 
L 4263 0 
L 3584 0 
L 2988 1197 
Q 2756 1666 2539 1819 
Q 2322 1972 1947 1972 
L 1259 1972 
L 1259 0 
L 628 0 
L 628 4666 
L 2053 4666 
Q 2853 4666 3247 4331 
Q 3641 3997 3641 3322 
Q 3641 2881 3436 2590 
Q 3231 2300 2841 2188 
z
M 1259 4147 
L 1259 2491 
L 2053 2491 
Q 2509 2491 2742 2702 
Q 2975 2913 2975 3322 
Q 2975 3731 2742 3939 
Q 2509 4147 2053 4147 
L 1259 4147 
z
" transform="scale(0.015625)"/>
       <path id="DejaVuSans-65" d="M 3597 1894 
L 3597 1613 
L 953 1613 
Q 991 1019 1311 708 
Q 1631 397 2203 397 
Q 2534 397 2845 478 
Q 3156 559 3463 722 
L 3463 178 
Q 3153 47 2828 -22 
Q 2503 -91 2169 -91 
Q 1331 -91 842 396 
Q 353 884 353 1716 
Q 353 2575 817 3079 
Q 1281 3584 2069 3584 
Q 2775 3584 3186 3129 
Q 3597 2675 3597 1894 
z
M 3022 2063 
Q 3016 2534 2758 2815 
Q 2500 3097 2075 3097 
Q 1594 3097 1305 2825 
Q 1016 2553 972 2059 
L 3022 2063 
z
" transform="scale(0.015625)"/>
       <path id="DejaVuSans-61" d="M 2194 1759 
Q 1497 1759 1228 1600 
Q 959 1441 959 1056 
Q 959 750 1161 570 
Q 1363 391 1709 391 
Q 2188 391 2477 730 
Q 2766 1069 2766 1631 
L 2766 1759 
L 2194 1759 
z
M 3341 1997 
L 3341 0 
L 2766 0 
L 2766 531 
Q 2569 213 2275 61 
Q 1981 -91 1556 -91 
Q 1019 -91 701 211 
Q 384 513 384 1019 
Q 384 1609 779 1909 
Q 1175 2209 1959 2209 
L 2766 2209 
L 2766 2266 
Q 2766 2663 2505 2880 
Q 2244 3097 1772 3097 
Q 1472 3097 1187 3025 
Q 903 2953 641 2809 
L 641 3341 
Q 956 3463 1253 3523 
Q 1550 3584 1831 3584 
Q 2591 3584 2966 3190 
Q 3341 2797 3341 1997 
z
" transform="scale(0.015625)"/>
       <path id="DejaVuSans-69" d="M 603 3500 
L 1178 3500 
L 1178 0 
L 603 0 
L 603 3500 
z
M 603 4863 
L 1178 4863 
L 1178 4134 
L 603 4134 
L 603 4863 
z
" transform="scale(0.015625)"/>
       <path id="DejaVuSans-76" d="M 191 3500 
L 800 3500 
L 1894 563 
L 2988 3500 
L 3597 3500 
L 2284 0 
L 1503 0 
L 191 3500 
z
" transform="scale(0.015625)"/>
       <path id="DejaVuSans-63" d="M 3122 3366 
L 3122 2828 
Q 2878 2963 2633 3030 
Q 2388 3097 2138 3097 
Q 1578 3097 1268 2742 
Q 959 2388 959 1747 
Q 959 1106 1268 751 
Q 1578 397 2138 397 
Q 2388 397 2633 464 
Q 2878 531 3122 666 
L 3122 134 
Q 2881 22 2623 -34 
Q 2366 -91 2075 -91 
Q 1284 -91 818 406 
Q 353 903 353 1747 
Q 353 2603 823 3093 
Q 1294 3584 2113 3584 
Q 2378 3584 2631 3529 
Q 2884 3475 3122 3366 
z
" transform="scale(0.015625)"/>
       <path id="DejaVuSans-79" d="M 2059 -325 
Q 1816 -950 1584 -1140 
Q 1353 -1331 966 -1331 
L 506 -1331 
L 506 -850 
L 844 -850 
Q 1081 -850 1212 -737 
Q 1344 -625 1503 -206 
L 1606 56 
L 191 3500 
L 800 3500 
L 1894 763 
L 2988 3500 
L 3597 3500 
L 2059 -325 
z
" transform="scale(0.015625)"/>
      </defs>
      <use xlink:href="#DejaVuSans-52"/>
      <use xlink:href="#DejaVuSans-65" transform="translate(64.982422 0)"/>
      <use xlink:href="#DejaVuSans-6c" transform="translate(126.505859 0)"/>
      <use xlink:href="#DejaVuSans-61" transform="translate(154.289062 0)"/>
      <use xlink:href="#DejaVuSans-74" transform="translate(215.568359 0)"/>
      <use xlink:href="#DejaVuSans-69" transform="translate(254.777344 0)"/>
      <use xlink:href="#DejaVuSans-76" transform="translate(282.560547 0)"/>
      <use xlink:href="#DejaVuSans-65" transform="translate(341.740234 0)"/>
      <use xlink:href="#DejaVuSans-20" transform="translate(403.263672 0)"/>
      <use xlink:href="#DejaVuSans-63" transform="translate(435.050781 0)"/>
      <use xlink:href="#DejaVuSans-65" transform="translate(490.03125 0)"/>
      <use xlink:href="#DejaVuSans-6c" transform="translate(551.554688 0)"/>
      <use xlink:href="#DejaVuSans-6c" transform="translate(579.337891 0)"/>
      <use xlink:href="#DejaVuSans-20" transform="translate(607.121094 0)"/>
      <use xlink:href="#DejaVuSans-76" transform="translate(638.908203 0)"/>
      <use xlink:href="#DejaVuSans-69" transform="translate(698.087891 0)"/>
      <use xlink:href="#DejaVuSans-61" transform="translate(725.871094 0)"/>
      <use xlink:href="#DejaVuSans-62" transform="translate(787.150391 0)"/>
      <use xlink:href="#DejaVuSans-69" transform="translate(850.626953 0)"/>
      <use xlink:href="#DejaVuSans-6c" transform="translate(878.410156 0)"/>
      <use xlink:href="#DejaVuSans-69" transform="translate(906.193359 0)"/>
      <use xlink:href="#DejaVuSans-74" transform="translate(933.976562 0)"/>
      <use xlink:href="#DejaVuSans-79" transform="translate(973.185547 0)"/>
     </g>
    </g>
   </g>
   <g id="patch_3">
    <path d="M 87.716938 212.706841 
L 103.784938 212.706841 
L 103.784938 178.350954 
L 87.716938 178.350954 
L 87.716938 212.706841 
z
" clip-path="url(#p20a0960c28)" style="fill: #ffffff; opacity: 0.85; stroke: #333333; stroke-linejoin: miter"/>
   </g>
   <g id="line2d_12">
    <path d="M 95.750937 212.706841 
L 95.750937 248.650935 
" clip-path="url(#p20a0960c28)" style="fill: none; stroke: #333333; stroke-linecap: square"/>
   </g>
   <g id="line2d_13">
    <path d="M 95.750937 178.350954 
L 95.750937 128.593493 
" clip-path="url(#p20a0960c28)" style="fill: none; stroke: #333333; stroke-linecap: square"/>
   </g>
   <g id="line2d_14">
    <path d="M 91.733937 248.650935 
L 99.767937 248.650935 
" clip-path="url(#p20a0960c28)" style="fill: none; stroke: #333333; stroke-linecap: square"/>
   </g>
   <g id="line2d_15">
    <path d="M 91.733937 128.593493 
L 99.767937 128.593493 
" clip-path="url(#p20a0960c28)" style="fill: none; stroke: #333333; stroke-linecap: square"/>
   </g>
   <g id="patch_4">
    <path d="M 176.983604 230.868112 
L 193.051604 230.868112 
L 193.051604 203.666601 
L 176.983604 203.666601 
L 176.983604 230.868112 
z
" clip-path="url(#p20a0960c28)" style="fill: #ffffff; opacity: 0.85; stroke: #333333; stroke-linejoin: miter"/>
   </g>
   <g id="line2d_16">
    <path d="M 185.017604 230.868112 
L 185.017604 247.638905 
" clip-path="url(#p20a0960c28)" style="fill: none; stroke: #333333; stroke-linecap: square"/>
   </g>
   <g id="line2d_17">
    <path d="M 185.017604 203.666601 
L 185.017604 171.813152 
" clip-path="url(#p20a0960c28)" style="fill: none; stroke: #333333; stroke-linecap: square"/>
   </g>
   <g id="line2d_18">
    <path d="M 181.000604 247.638905 
L 189.034604 247.638905 
" clip-path="url(#p20a0960c28)" style="fill: none; stroke: #333333; stroke-linecap: square"/>
   </g>
   <g id="line2d_19">
    <path d="M 181.000604 171.813152 
L 189.034604 171.813152 
" clip-path="url(#p20a0960c28)" style="fill: none; stroke: #333333; stroke-linecap: square"/>
   </g>
   <g id="patch_5">
    <path d="M 266.250271 246.854369 
L 282.318271 246.854369 
L 282.318271 221.508956 
L 266.250271 221.508956 
L 266.250271 246.854369 
z
" clip-path="url(#p20a0960c28)" style="fill: #ffffff; opacity: 0.85; stroke: #333333; stroke-linejoin: miter"/>
   </g>
   <g id="line2d_20">
    <path d="M 274.284271 246.854369 
L 274.284271 264.936974 
" clip-path="url(#p20a0960c28)" style="fill: none; stroke: #333333; stroke-linecap: square"/>
   </g>
   <g id="line2d_21">
    <path d="M 274.284271 221.508956 
L 274.284271 191.016219 
" clip-path="url(#p20a0960c28)" style="fill: none; stroke: #333333; stroke-linecap: square"/>
   </g>
   <g id="line2d_22">
    <path d="M 270.267271 264.936974 
L 278.301271 264.936974 
" clip-path="url(#p20a0960c28)" style="fill: none; stroke: #333333; stroke-linecap: square"/>
   </g>
   <g id="line2d_23">
    <path d="M 270.267271 191.016219 
L 278.301271 191.016219 
" clip-path="url(#p20a0960c28)" style="fill: none; stroke: #333333; stroke-linecap: square"/>
   </g>
   <g id="patch_6">
    <path d="M 355.516937 258.411928 
L 371.584937 258.411928 
L 371.584937 246.273939 
L 355.516937 246.273939 
L 355.516937 258.411928 
z
" clip-path="url(#p20a0960c28)" style="fill: #ffffff; opacity: 0.85; stroke: #333333; stroke-linejoin: miter"/>
   </g>
   <g id="line2d_24">
    <path d="M 363.550937 258.411928 
L 363.550937 269.929091 
" clip-path="url(#p20a0960c28)" style="fill: none; stroke: #333333; stroke-linecap: square"/>
   </g>
   <g id="line2d_25">
    <path d="M 363.550937 246.273939 
L 363.550937 229.600948 
" clip-path="url(#p20a0960c28)" style="fill: none; stroke: #333333; stroke-linecap: square"/>
   </g>
   <g id="line2d_26">
    <path d="M 359.533937 269.929091 
L 367.567937 269.929091 
" clip-path="url(#p20a0960c28)" style="fill: none; stroke: #333333; stroke-linecap: square"/>
   </g>
   <g id="line2d_27">
    <path d="M 359.533937 229.600948 
L 367.567937 229.600948 
" clip-path="url(#p20a0960c28)" style="fill: none; stroke: #333333; stroke-linecap: square"/>
   </g>
   <g id="line2d_28">
    <path d="M 95.750937 60.532311 
L 95.750937 57.130527 
L 185.017604 57.130527 
L 185.017604 60.532311 
" clip-path="url(#p20a0960c28)" style="fill: none; stroke: #000000; stroke-linecap: square"/>
   </g>
   <g id="line2d_29">
    <path d="M 95.750937 41.822502 
L 95.750937 38.420718 
L 274.284271 38.420718 
L 274.284271 41.822502 
" clip-path="url(#p20a0960c28)" style="fill: none; stroke: #000000; stroke-linecap: square"/>
   </g>
   <g id="line2d_30">
    <path d="M 95.750937 23.112693 
L 95.750937 19.710909 
L 363.550937 19.710909 
L 363.550937 23.112693 
" clip-path="url(#p20a0960c28)" style="fill: none; stroke: #000000; stroke-linecap: square"/>
   </g>
   <g id="line2d_31">
    <path d="M 87.716938 201.531982 
L 103.784938 201.531982 
" clip-path="url(#p20a0960c28)" style="fill: none; stroke: #000000; stroke-width: 2"/>
   </g>
   <g id="line2d_32">
    <path d="M 176.983604 215.364484 
L 193.051604 215.364484 
" clip-path="url(#p20a0960c28)" style="fill: none; stroke: #000000; stroke-width: 2"/>
   </g>
   <g id="line2d_33">
    <path d="M 266.250271 238.72198 
L 282.318271 238.72198 
" clip-path="url(#p20a0960c28)" style="fill: none; stroke: #000000; stroke-width: 2"/>
   </g>
   <g id="line2d_34">
    <path d="M 355.516937 253.2561 
L 371.584937 253.2561 
" clip-path="url(#p20a0960c28)" style="fill: none; stroke: #000000; stroke-width: 2"/>
   </g>
   <g id="patch_7">
    <path d="M 42.190938 282.44 
L 42.190938 7.2 
" style="fill: none; stroke: #000000; stroke-width: 0.8; stroke-linejoin: miter; stroke-linecap: square"/>
   </g>
   <g id="patch_8">
    <path d="M 42.190938 282.44 
L 417.110937 282.44 
" style="fill: none; stroke: #000000; stroke-width: 0.8; stroke-linejoin: miter; stroke-linecap: square"/>
   </g>
   <g id="PathCollection_1">
    <defs>
     <path id="mc9d2cf9e73" d="M 0 1.870829 
C 0.49615 1.870829 0.972045 1.673706 1.322876 1.322876 
C 1.673706 0.972045 1.870829 0.49615 1.870829 0 
C 1.870829 -0.49615 1.673706 -0.972045 1.322876 -1.322876 
C 0.972045 -1.673706 0.49615 -1.870829 0 -1.870829 
C -0.49615 -1.870829 -0.972045 -1.673706 -1.322876 -1.322876 
C -1.673706 -0.972045 -1.870829 -0.49615 -1.870829 0 
C -1.870829 0.49615 -1.673706 0.972045 -1.322876 1.322876 
C -0.972045 1.673706 -0.49615 1.870829 0 1.870829 
z
"/>
    </defs>
    <g clip-path="url(#p20a0960c28)">
     <use xlink:href="#mc9d2cf9e73" x="101.620172" y="208.076163" style="fill: #4878cf; fill-opacity: 0.35"/>
     <use xlink:href="#mc9d2cf9e73" x="94.441469" y="207.752994" style="fill: #4878cf; fill-opacity: 0.35"/>
     <use xlink:href="#mc9d2cf9e73" x="103.433539" y="212.268861" style="fill: #4878cf; fill-opacity: 0.35"/>
     <use xlink:href="#mc9d2cf9e73" x="99.97935" y="195.812734" style="fill: #4878cf; fill-opacity: 0.35"/>
     <use xlink:href="#mc9d2cf9e73" x="87.056593" y="70.737661" style="fill: #4878cf; fill-opacity: 0.35"/>
     <use xlink:href="#mc9d2cf9e73" x="105.940671" y="128.593493" style="fill: #4878cf; fill-opacity: 0.35"/>
     <use xlink:href="#mc9d2cf9e73" x="101.345594" y="183.855465" style="fill: #4878cf; fill-opacity: 0.35"/>
     <use xlink:href="#mc9d2cf9e73" x="101.879579" y="171.915205" style="fill: #4878cf; fill-opacity: 0.35"/>
     <use xlink:href="#mc9d2cf9e73" x="87.783644" y="151.240866" style="fill: #4878cf; fill-opacity: 0.35"/>
     <use xlink:href="#mc9d2cf9e73" x="94.688006" y="207.251231" style="fill: #4878cf; fill-opacity: 0.35"/>
     <use xlink:href="#mc9d2cf9e73" x="92.982914" y="198.644719" style="fill: #4878cf; fill-opacity: 0.35"/>
     <use xlink:href="#mc9d2cf9e73" x="104.893951" y="228.146686" style="fill: #4878cf; fill-opacity: 0.35"/>
     <use xlink:href="#mc9d2cf9e73" x="98.833104" y="184.314706" style="fill: #4878cf; fill-opacity: 0.35"/>
     <use xlink:href="#mc9d2cf9e73" x="102.665782" y="191.534991" style="fill: #4878cf; fill-opacity: 0.35"/>
     <use xlink:href="#mc9d2cf9e73" x="94.538643" y="214.539552" style="fill: #4878cf; fill-opacity: 0.35"/>
     <use xlink:href="#mc9d2cf9e73" x="89.9073" y="196.697198" style="fill: #4878cf; fill-opacity: 0.35"/>
     <use xlink:href="#mc9d2cf9e73" x="96.920362" y="199.427129" style="fill: #4878cf; fill-opacity: 0.35"/>
     <use xlink:href="#mc9d2cf9e73" x="86.406158" y="212.141295" style="fill: #4878cf; fill-opacity: 0.35"/>
     <use xlink:href="#mc9d2cf9e73" x="102.770108" y="204.938018" style="fill: #4878cf; fill-opacity: 0.35"/>
     <use xlink:href="#mc9d2cf9e73" x="98.571716" y="212.702589" style="fill: #4878cf; fill-opacity: 0.35"/>
     <use xlink:href="#mc9d2cf9e73" x="101.280209" y="158.342089" style="fill: #4878cf; fill-opacity: 0.35"/>
     <use xlink:href="#mc9d2cf9e73" x="92.634302" y="171.779134" style="fill: #4878cf; fill-opacity: 0.35"/>
     <use xlink:href="#mc9d2cf9e73" x="105.835172" y="205.269692" style="fill: #4878cf; fill-opacity: 0.35"/>
     <use xlink:href="#mc9d2cf9e73" x="104.173164" y="205.499312" style="fill: #4878cf; fill-opacity: 0.35"/>
     <use xlink:href="#mc9d2cf9e73" x="101.715026" y="222.457203" style="fill: #4878cf; fill-opacity: 0.35"/>
     <use xlink:href="#mc9d2cf9e73" x="89.208877" y="196.042354" style="fill: #4878cf; fill-opacity: 0.35"/>
     <use xlink:href="#mc9d2cf9e73" x="95.037968" y="169.270319" style="fill: #4878cf; fill-opacity: 0.35"/>
     <use xlink:href="#mc9d2cf9e73" x="85.977389" y="210.729554" style="fill: #4878cf; fill-opacity: 0.35"/>
     <use xlink:href="#mc9d2cf9e73" x="88.344436" y="205.261187" style="fill: #4878cf; fill-opacity: 0.35"/>
     <use xlink:href="#mc9d2cf9e73" x="99.672578" y="148.034685" style="fill: #4878cf; fill-opacity: 0.35"/>
     <use xlink:href="#mc9d2cf9e73" x="100.994722" y="246.635379" style="fill: #4878cf; fill-opacity: 0.35"/>
     <use xlink:href="#mc9d2cf9e73" x="105.766866" y="217.124907" style="fill: #4878cf; fill-opacity: 0.35"/>
     <use xlink:href="#mc9d2cf9e73" x="92.01942" y="192.844678" style="fill: #4878cf; fill-opacity: 0.35"/>
     <use xlink:href="#mc9d2cf9e73" x="92.975666" y="157.670237" style="fill: #4878cf; fill-opacity: 0.35"/>
     <use xlink:href="#mc9d2cf9e73" x="95.098701" y="201.230074" style="fill: #4878cf; fill-opacity: 0.35"/>
     <use xlink:href="#mc9d2cf9e73" x="89.098172" y="185.139638" style="fill: #4878cf; fill-opacity: 0.35"/>
     <use xlink:href="#mc9d2cf9e73" x="87.822376" y="218.460107" style="fill: #4878cf; fill-opacity: 0.35"/>
     <use xlink:href="#mc9d2cf9e73" x="95.23044" y="169.984693" style="fill: #4878cf; fill-opacity: 0.35"/>
     <use xlink:href="#mc9d2cf9e73" x="89.900243" y="193.465503" style="fill: #4878cf; fill-opacity: 0.35"/>
     <use xlink:href="#mc9d2cf9e73" x="99.389033" y="203.560296" style="fill: #4878cf; fill-opacity: 0.35"/>
     <use xlink:href="#mc9d2cf9e73" x="94.40448" y="191.135282" style="fill: #4878cf; fill-opacity: 0.35"/>
     <use xlink:href="#mc9d2cf9e73" x="102.878235" y="213.374441" style="fill: #4878cf; fill-opacity: 0.35"/>
     <use xlink:href="#mc9d2cf9e73" x="100.041417" y="149.616515" style="fill: #4878cf; fill-opacity: 0.35"/>
     <use xlink:href="#mc9d2cf9e73" x="91.73108" y="212.719598" style="fill: #4878cf; fill-opacity: 0.35"/>
     <use xlink:href="#mc9d2cf9e73" x="102.869271" y="196.773738" style="fill: #4878cf; fill-opacity: 0.35"/>
     <use xlink:href="#mc9d2cf9e73" x="102.280209" y="201.833891" style="fill: #4878cf; fill-opacity: 0.35"/>
     <use xlink:href="#mc9d2cf9e73" x="93.340274" y="209.649488" style="fill: #4878cf; fill-opacity: 0.35"/>
     <use xlink:href="#mc9d2cf9e73" x="91.216079" y="184.051068" style="fill: #4878cf; fill-opacity: 0.35"/>
     <use xlink:href="#mc9d2cf9e73" x="99.660721" y="113.055847" style="fill: #4878cf; fill-opacity: 0.35"/>
     <use xlink:href="#mc9d2cf9e73" x="88.032995" y="196.195435" style="fill: #4878cf; fill-opacity: 0.35"/>
     <use xlink:href="#mc9d2cf9e73" x="89.321771" y="153.426512" style="fill: #4878cf; fill-opacity: 0.35"/>
     <use xlink:href="#mc9d2cf9e73" x="85.196667" y="172.374446" style="fill: #4878cf; fill-opacity: 0.35"/>
     <use xlink:href="#mc9d2cf9e73" x="101.898005" y="239.253509" style="fill: #4878cf; fill-opacity: 0.35"/>
     <use xlink:href="#mc9d2cf9e73" x="99.282702" y="196.773738" style="fill: #4878cf; fill-opacity: 0.35"/>
     <use xlink:href="#mc9d2cf9e73" x="100.146401" y="217.601157" style="fill: #4878cf; fill-opacity: 0.35"/>
     <use xlink:href="#mc9d2cf9e73" x="101.765276" y="221.63227" style="fill: #4878cf; fill-opacity: 0.35"/>
     <use xlink:href="#mc9d2cf9e73" x="94.870749" y="226.530839" style="fill: #4878cf; fill-opacity: 0.35"/>
     <use xlink:href="#mc9d2cf9e73" x="97.223649" y="156.403073" style="fill: #4878cf; fill-opacity: 0.35"/>
     <use xlink:href="#mc9d2cf9e73" x="88.033948" y="181.865422" style="fill: #4878cf; fill-opacity: 0.35"/>
     <use xlink:href="#mc9d2cf9e73" x="87.49263" y="205.618375" style="fill: #4878cf; fill-opacity: 0.35"/>
     <use xlink:href="#mc9d2cf9e73" x="99.358803" y="212.192321" style="fill: #4878cf; fill-opacity: 0.35"/>
     <use xlink:href="#mc9d2cf9e73" x="95.131703" y="229.056663" style="fill: #4878cf; fill-opacity: 0.35"/>
     <use xlink:href="#mc9d2cf9e73" x="97.148556" y="161.990502" style="fill: #4878cf; fill-opacity: 0.35"/>
     <use xlink:href="#mc9d2cf9e73" x="101.428273" y="230.689519" style="fill: #4878cf; fill-opacity: 0.35"/>
     <use xlink:href="#mc9d2cf9e73" x="98.637143" y="248.650935" style="fill: #4878cf; fill-opacity: 0.35"/>
     <use xlink:href="#mc9d2cf9e73" x="96.898823" y="217.915822" style="fill: #4878cf; fill-opacity: 0.35"/>
     <use xlink:href="#mc9d2cf9e73" x="97.019392" y="217.575644" style="fill: #4878cf; fill-opacity: 0.35"/>
     <use xlink:href="#mc9d2cf9e73" x="91.550764" y="162.135078" style="fill: #4878cf; fill-opacity: 0.35"/>
     <use xlink:href="#mc9d2cf9e73" x="85.699179" y="207.081142" style="fill: #4878cf; fill-opacity: 0.35"/>
     <use xlink:href="#mc9d2cf9e73" x="94.395171" y="230.179251" style="fill: #4878cf; fill-opacity: 0.35"/>
     <use xlink:href="#mc9d2cf9e73" x="89.6362" y="208.509891" style="fill: #4878cf; fill-opacity: 0.35"/>
     <use xlink:href="#mc9d2cf9e73" x="93.791255" y="113.149396" style="fill: #4878cf; fill-opacity: 0.35"/>
     <use xlink:href="#mc9d2cf9e73" x="103.322245" y="218.834303" style="fill: #4878cf; fill-opacity: 0.35"/>
     <use xlink:href="#mc9d2cf9e73" x="90.050857" y="203.908979" style="fill: #4878cf; fill-opacity: 0.35"/>
     <use xlink:href="#mc9d2cf9e73" x="86.288015" y="203.288153" style="fill: #4878cf; fill-opacity: 0.35"/>
     <use xlink:href="#mc9d2cf9e73" x="91.067306" y="165.069116" style="fill: #4878cf; fill-opacity: 0.35"/>
     <use xlink:href="#mc9d2cf9e73" x="91.32889" y="111.201875" style="fill: #4878cf; fill-opacity: 0.35"/>
     <use xlink:href="#mc9d2cf9e73" x="99.219837" y="187.963119" style="fill: #4878cf; fill-opacity: 0.35"/>
     <use xlink:href="#mc9d2cf9e73" x="96.972794" y="209.794064" style="fill: #4878cf; fill-opacity: 0.35"/>
     <use xlink:href="#mc9d2cf9e73" x="101.833173" y="179.331093" style="fill: #4878cf; fill-opacity: 0.35"/>
     <use xlink:href="#mc9d2cf9e73" x="99.271191" y="240.792816" style="fill: #4878cf; fill-opacity: 0.35"/>
     <use xlink:href="#mc9d2cf9e73" x="93.74537" y="209.249779" style="fill: #4878cf; fill-opacity: 0.35"/>
     <use xlink:href="#mc9d2cf9e73" x="102.47851" y="236.055832" style="fill: #4878cf; fill-opacity: 0.35"/>
     <use xlink:href="#mc9d2cf9e73" x="88.616165" y="208.654466" style="fill: #4878cf; fill-opacity: 0.35"/>
     <use xlink:href="#mc9d2cf9e73" x="85.525521" y="229.099185" style="fill: #4878cf; fill-opacity: 0.35"/>
     <use xlink:href="#mc9d2cf9e73" x="86.968123" y="174.755694" style="fill: #4878cf; fill-opacity: 0.35"/>
     <use xlink:href="#mc9d2cf9e73" x="100.514764" y="216.869774" style="fill: #4878cf; fill-opacity: 0.35"/>
     <use xlink:href="#mc9d2cf9e73" x="94.934195" y="175.410538" style="fill: #4878cf; fill-opacity: 0.35"/>
     <use xlink:href="#mc9d2cf9e73" x="88.494024" y="186.398298" style="fill: #4878cf; fill-opacity: 0.35"/>
     <use xlink:href="#mc9d2cf9e73" x="95.773321" y="167.91811" style="fill: #4878cf; fill-opacity: 0.35"/>
     <use xlink:href="#mc9d2cf9e73" x="88.302072" y="190.888652" style="fill: #4878cf; fill-opacity: 0.35"/>
     <use xlink:href="#mc9d2cf9e73" x="99.956905" y="179.892387" style="fill: #4878cf; fill-opacity: 0.35"/>
     <use xlink:href="#mc9d2cf9e73" x="94.59739" y="211.996719" style="fill: #4878cf; fill-opacity: 0.35"/>
     <use xlink:href="#mc9d2cf9e73" x="93.201936" y="190.361376" style="fill: #4878cf; fill-opacity: 0.35"/>
     <use xlink:href="#mc9d2cf9e73" x="91.498532" y="196.025345" style="fill: #4878cf; fill-opacity: 0.35"/>
     <use xlink:href="#mc9d2cf9e73" x="98.542112" y="136.460117" style="fill: #4878cf; fill-opacity: 0.35"/>
     <use xlink:href="#mc9d2cf9e73" x="92.790411" y="203.347684" style="fill: #4878cf; fill-opacity: 0.35"/>
     <use xlink:href="#mc9d2cf9e73" x="86.916749" y="224.013519" style="fill: #4878cf; fill-opacity: 0.35"/>
     <use xlink:href="#mc9d2cf9e73" x="87.567096" y="217.414059" style="fill: #4878cf; fill-opacity: 0.35"/>
     <use xlink:href="#mc9d2cf9e73" x="105.646633" y="153.222405" style="fill: #4878cf; fill-opacity: 0.35"/>
    </g>
   </g>
   <g id="PathCollection_2">
    <defs>
     <path id="m2841a0325a" d="M 0 1.870829 
C 0.49615 1.870829 0.972045 1.673706 1.322876 1.322876 
C 1.673706 0.972045 1.870829 0.49615 1.870829 0 
C 1.870829 -0.49615 1.673706 -0.972045 1.322876 -1.322876 
C 0.972045 -1.673706 0.49615 -1.870829 0 -1.870829 
C -0.49615 -1.870829 -0.972045 -1.673706 -1.322876 -1.322876 
C -1.673706 -0.972045 -1.870829 -0.49615 -1.870829 0 
C -1.870829 0.49615 -1.673706 0.972045 -1.322876 1.322876 
C -0.972045 1.673706 -0.49615 1.870829 0 1.870829 
z
"/>
    </defs>
    <g clip-path="url(#p20a0960c28)">
     <use xlink:href="#m2841a0325a" x="193.771037" y="182.690354" style="fill: #6acc65; fill-opacity: 0.35"/>
     <use xlink:href="#m2841a0325a" x="189.29613" y="246.873504" style="fill: #6acc65; fill-opacity: 0.35"/>
     <use xlink:href="#m2841a0325a" x="180.001602" y="204.334201" style="fill: #6acc65; fill-opacity: 0.35"/>
     <use xlink:href="#m2841a0325a" x="195.069239" y="230.842599" style="fill: #6acc65; fill-opacity: 0.35"/>
     <use xlink:href="#m2841a0325a" x="190.989564" y="230.944653" style="fill: #6acc65; fill-opacity: 0.35"/>
     <use xlink:href="#m2841a0325a" x="189.66426" y="235.6136" style="fill: #6acc65; fill-opacity: 0.35"/>
     <use xlink:href="#m2841a0325a" x="183.932725" y="207.183195" style="fill: #6acc65; fill-opacity: 0.35"/>
     <use xlink:href="#m2841a0325a" x="180.138107" y="238.666701" style="fill: #6acc65; fill-opacity: 0.35"/>
     <use xlink:href="#m2841a0325a" x="176.370684" y="205.907526" style="fill: #6acc65; fill-opacity: 0.35"/>
     <use xlink:href="#m2841a0325a" x="193.642958" y="223.979501" style="fill: #6acc65; fill-opacity: 0.35"/>
     <use xlink:href="#m2841a0325a" x="184.070155" y="183.353702" style="fill: #6acc65; fill-opacity: 0.35"/>
     <use xlink:href="#m2841a0325a" x="178.641037" y="223.868943" style="fill: #6acc65; fill-opacity: 0.35"/>
     <use xlink:href="#m2841a0325a" x="180.860419" y="208.83306" style="fill: #6acc65; fill-opacity: 0.35"/>
     <use xlink:href="#m2841a0325a" x="186.714804" y="247.366762" style="fill: #6acc65; fill-opacity: 0.35"/>
     <use xlink:href="#m2841a0325a" x="178.092784" y="220.050441" style="fill: #6acc65; fill-opacity: 0.35"/>
     <use xlink:href="#m2841a0325a" x="192.657709" y="230.400367" style="fill: #6acc65; fill-opacity: 0.35"/>
     <use xlink:href="#m2841a0325a" x="190.556127" y="224.285661" style="fill: #6acc65; fill-opacity: 0.35"/>
     <use xlink:href="#m2841a0325a" x="189.719379" y="221.649279" style="fill: #6acc65; fill-opacity: 0.35"/>
     <use xlink:href="#m2841a0325a" x="183.562765" y="202.777886" style="fill: #6acc65; fill-opacity: 0.35"/>
     <use xlink:href="#m2841a0325a" x="187.745069" y="230.145233" style="fill: #6acc65; fill-opacity: 0.35"/>
     <use xlink:href="#m2841a0325a" x="186.819319" y="240.529177" style="fill: #6acc65; fill-opacity: 0.35"/>
     <use xlink:href="#m2841a0325a" x="188.227918" y="217.056872" style="fill: #6acc65; fill-opacity: 0.35"/>
     <use xlink:href="#m2841a0325a" x="176.114739" y="112.358481" style="fill: #6acc65; fill-opacity: 0.35"/>
     <use xlink:href="#m2841a0325a" x="183.213862" y="247.035088" style="fill: #6acc65; fill-opacity: 0.35"/>
     <use xlink:href="#m2841a0325a" x="175.197146" y="224.829947" style="fill: #6acc65; fill-opacity: 0.35"/>
     <use xlink:href="#m2841a0325a" x="184.888863" y="232.245835" style="fill: #6acc65; fill-opacity: 0.35"/>
     <use xlink:href="#m2841a0325a" x="181.372551" y="202.888444" style="fill: #6acc65; fill-opacity: 0.35"/>
     <use xlink:href="#m2841a0325a" x="177.40189" y="239.721254" style="fill: #6acc65; fill-opacity: 0.35"/>
     <use xlink:href="#m2841a0325a" x="176.520909" y="227.67894" style="fill: #6acc65; fill-opacity: 0.35"/>
     <use xlink:href="#m2841a0325a" x="186.895301" y="215.942788" style="fill: #6acc65; fill-opacity: 0.35"/>
     <use xlink:href="#m2841a0325a" x="177.960388" y="180.79386" style="fill: #6acc65; fill-opacity: 0.35"/>
     <use xlink:href="#m2841a0325a" x="194.125378" y="155.841778" style="fill: #6acc65; fill-opacity: 0.35"/>
     <use xlink:href="#m2841a0325a" x="186.754258" y="197.896326" style="fill: #6acc65; fill-opacity: 0.35"/>
     <use xlink:href="#m2841a0325a" x="181.736943" y="198.848826" style="fill: #6acc65; fill-opacity: 0.35"/>
     <use xlink:href="#m2841a0325a" x="186.965378" y="235.885743" style="fill: #6acc65; fill-opacity: 0.35"/>
     <use xlink:href="#m2841a0325a" x="174.794154" y="197.062889" style="fill: #6acc65; fill-opacity: 0.35"/>
     <use xlink:href="#m2841a0325a" x="194.841777" y="231.514451" style="fill: #6acc65; fill-opacity: 0.35"/>
     <use xlink:href="#m2841a0325a" x="184.638473" y="214.054798" style="fill: #6acc65; fill-opacity: 0.35"/>
     <use xlink:href="#m2841a0325a" x="191.074924" y="232.441437" style="fill: #6acc65; fill-opacity: 0.35"/>
     <use xlink:href="#m2841a0325a" x="176.078012" y="246.210156" style="fill: #6acc65; fill-opacity: 0.35"/>
     <use xlink:href="#m2841a0325a" x="184.731772" y="198.049407" style="fill: #6acc65; fill-opacity: 0.35"/>
     <use xlink:href="#m2841a0325a" x="184.818511" y="205.796968" style="fill: #6acc65; fill-opacity: 0.35"/>
     <use xlink:href="#m2841a0325a" x="194.397598" y="207.506365" style="fill: #6acc65; fill-opacity: 0.35"/>
     <use xlink:href="#m2841a0325a" x="186.554306" y="222.423185" style="fill: #6acc65; fill-opacity: 0.35"/>
     <use xlink:href="#m2841a0325a" x="184.449641" y="223.350171" style="fill: #6acc65; fill-opacity: 0.35"/>
     <use xlink:href="#m2841a0325a" x="180.025291" y="218.88533" style="fill: #6acc65; fill-opacity: 0.35"/>
     <use xlink:href="#m2841a0325a" x="181.409138" y="215.764194" style="fill: #6acc65; fill-opacity: 0.35"/>
     <use xlink:href="#m2841a0325a" x="185.46049" y="145.37279" style="fill: #6acc65; fill-opacity: 0.35"/>
     <use xlink:href="#m2841a0325a" x="183.708843" y="217.218456" style="fill: #6acc65; fill-opacity: 0.35"/>
     <use xlink:href="#m2841a0325a" x="174.768621" y="216.402028" style="fill: #6acc65; fill-opacity: 0.35"/>
     <use xlink:href="#m2841a0325a" x="192.008082" y="236.71918" style="fill: #6acc65; fill-opacity: 0.35"/>
     <use xlink:href="#m2841a0325a" x="193.504953" y="238.802772" style="fill: #6acc65; fill-opacity: 0.35"/>
     <use xlink:href="#m2841a0325a" x="177.310301" y="214.794686" style="fill: #6acc65; fill-opacity: 0.35"/>
     <use xlink:href="#m2841a0325a" x="186.175275" y="209.028663" style="fill: #6acc65; fill-opacity: 0.35"/>
     <use xlink:href="#m2841a0325a" x="176.631731" y="156.947358" style="fill: #6acc65; fill-opacity: 0.35"/>
     <use xlink:href="#m2841a0325a" x="188.707676" y="214.735154" style="fill: #6acc65; fill-opacity: 0.35"/>
     <use xlink:href="#m2841a0325a" x="180.330757" y="214.964775" style="fill: #6acc65; fill-opacity: 0.35"/>
     <use xlink:href="#m2841a0325a" x="188.433075" y="140.669824" style="fill: #6acc65; fill-opacity: 0.35"/>
     <use xlink:href="#m2841a0325a" x="189.880737" y="222.278609" style="fill: #6acc65; fill-opacity: 0.35"/>
     <use xlink:href="#m2841a0325a" x="190.773108" y="237.169916" style="fill: #6acc65; fill-opacity: 0.35"/>
     <use xlink:href="#m2841a0325a" x="176.613846" y="201.910431" style="fill: #6acc65; fill-opacity: 0.35"/>
     <use xlink:href="#m2841a0325a" x="193.930242" y="189.43439" style="fill: #6acc65; fill-opacity: 0.35"/>
     <use xlink:href="#m2841a0325a" x="179.237709" y="198.789294" style="fill: #6acc65; fill-opacity: 0.35"/>
     <use xlink:href="#m2841a0325a" x="175.107131" y="214.105824" style="fill: #6acc65; fill-opacity: 0.35"/>
     <use xlink:href="#m2841a0325a" x="186.192763" y="229.243761" style="fill: #6acc65; fill-opacity: 0.35"/>
     <use xlink:href="#m2841a0325a" x="182.252243" y="214.871226" style="fill: #6acc65; fill-opacity: 0.35"/>
     <use xlink:href="#m2841a0325a" x="192.08302" y="95.460122" style="fill: #6acc65; fill-opacity: 0.35"/>
     <use xlink:href="#m2841a0325a" x="191.621584" y="241.013932" style="fill: #6acc65; fill-opacity: 0.35"/>
     <use xlink:href="#m2841a0325a" x="181.099988" y="206.171165" style="fill: #6acc65; fill-opacity: 0.35"/>
     <use xlink:href="#m2841a0325a" x="194.720521" y="171.813152" style="fill: #6acc65; fill-opacity: 0.35"/>
     <use xlink:href="#m2841a0325a" x="180.538228" y="181.686828" style="fill: #6acc65; fill-opacity: 0.35"/>
     <use xlink:href="#m2841a0325a" x="185.340188" y="206.111633" style="fill: #6acc65; fill-opacity: 0.35"/>
     <use xlink:href="#m2841a0325a" x="179.7894" y="196.96934" style="fill: #6acc65; fill-opacity: 0.35"/>
     <use xlink:href="#m2841a0325a" x="194.359402" y="235.111837" style="fill: #6acc65; fill-opacity: 0.35"/>
     <use xlink:href="#m2841a0325a" x="177.832162" y="217.958344" style="fill: #6acc65; fill-opacity: 0.35"/>
     <use xlink:href="#m2841a0325a" x="175.267769" y="204.19813" style="fill: #6acc65; fill-opacity: 0.35"/>
     <use xlink:href="#m2841a0325a" x="183.627124" y="195.753203" style="fill: #6acc65; fill-opacity: 0.35"/>
     <use xlink:href="#m2841a0325a" x="195.566258" y="204.232148" style="fill: #6acc65; fill-opacity: 0.35"/>
     <use xlink:href="#m2841a0325a" x="193.408898" y="206.553865" style="fill: #6acc65; fill-opacity: 0.35"/>
     <use xlink:href="#m2841a0325a" x="190.343782" y="210.202278" style="fill: #6acc65; fill-opacity: 0.35"/>
     <use xlink:href="#m2841a0325a" x="193.389942" y="231.718558" style="fill: #6acc65; fill-opacity: 0.35"/>
     <use xlink:href="#m2841a0325a" x="193.446805" y="208.67998" style="fill: #6acc65; fill-opacity: 0.35"/>
     <use xlink:href="#m2841a0325a" x="185.421626" y="239.806298" style="fill: #6acc65; fill-opacity: 0.35"/>
     <use xlink:href="#m2841a0325a" x="181.074068" y="235.630609" style="fill: #6acc65; fill-opacity: 0.35"/>
     <use xlink:href="#m2841a0325a" x="190.845199" y="236.982818" style="fill: #6acc65; fill-opacity: 0.35"/>
     <use xlink:href="#m2841a0325a" x="188.481035" y="210.610492" style="fill: #6acc65; fill-opacity: 0.35"/>
     <use xlink:href="#m2841a0325a" x="182.310847" y="205.125116" style="fill: #6acc65; fill-opacity: 0.35"/>
     <use xlink:href="#m2841a0325a" x="176.329458" y="226.199165" style="fill: #6acc65; fill-opacity: 0.35"/>
     <use xlink:href="#m2841a0325a" x="190.304825" y="247.638905" style="fill: #6acc65; fill-opacity: 0.35"/>
     <use xlink:href="#m2841a0325a" x="179.928558" y="220.322584" style="fill: #6acc65; fill-opacity: 0.35"/>
     <use xlink:href="#m2841a0325a" x="194.375889" y="211.282344" style="fill: #6acc65; fill-opacity: 0.35"/>
     <use xlink:href="#m2841a0325a" x="179.468158" y="203.925987" style="fill: #6acc65; fill-opacity: 0.35"/>
     <use xlink:href="#m2841a0325a" x="176.93557" y="244.5773" style="fill: #6acc65; fill-opacity: 0.35"/>
     <use xlink:href="#m2841a0325a" x="192.111362" y="219.956892" style="fill: #6acc65; fill-opacity: 0.35"/>
     <use xlink:href="#m2841a0325a" x="177.589567" y="239.69574" style="fill: #6acc65; fill-opacity: 0.35"/>
     <use xlink:href="#m2841a0325a" x="178.146248" y="214.446003" style="fill: #6acc65; fill-opacity: 0.35"/>
     <use xlink:href="#m2841a0325a" x="187.146781" y="198.236505" style="fill: #6acc65; fill-opacity: 0.35"/>
     <use xlink:href="#m2841a0325a" x="193.042221" y="225.229656" style="fill: #6acc65; fill-opacity: 0.35"/>
     <use xlink:href="#m2841a0325a" x="178.51402" y="161.046507" style="fill: #6acc65; fill-opacity: 0.35"/>
     <use xlink:href="#m2841a0325a" x="180.953979" y="194.196887" style="fill: #6acc65; fill-opacity: 0.35"/>
    </g>
   </g>
   <g id="PathCollection_3">
    <defs>
     <path id="m19c9ca8550" d="M 0 1.870829 
C 0.49615 1.870829 0.972045 1.673706 1.322876 1.322876 
C 1.673706 0.972045 1.870829 0.49615 1.870829 0 
C 1.870829 -0.49615 1.673706 -0.972045 1.322876 -1.322876 
C 0.972045 -1.673706 0.49615 -1.870829 0 -1.870829 
C -0.49615 -1.870829 -0.972045 -1.673706 -1.322876 -1.322876 
C -1.673706 -0.972045 -1.870829 -0.49615 -1.870829 0 
C -1.870829 0.49615 -1.673706 0.972045 -1.322876 1.322876 
C -0.972045 1.673706 -0.49615 1.870829 0 1.870829 
z
"/>
    </defs>
    <g clip-path="url(#p20a0960c28)">
     <use xlink:href="#m19c9ca8550" x="280.227392" y="220.577717" style="fill: #d65f5f; fill-opacity: 0.35"/>
     <use xlink:href="#m19c9ca8550" x="284.39268" y="242.638283" style="fill: #d65f5f; fill-opacity: 0.35"/>
     <use xlink:href="#m19c9ca8550" x="274.30015" y="250.028658" style="fill: #d65f5f; fill-opacity: 0.35"/>
     <use xlink:href="#m19c9ca8550" x="266.655131" y="181.797386" style="fill: #d65f5f; fill-opacity: 0.35"/>
     <use xlink:href="#m19c9ca8550" x="263.870842" y="225.935526" style="fill: #d65f5f; fill-opacity: 0.35"/>
     <use xlink:href="#m19c9ca8550" x="268.492422" y="232.024719" style="fill: #d65f5f; fill-opacity: 0.35"/>
     <use xlink:href="#m19c9ca8550" x="266.39643" y="214.292923" style="fill: #d65f5f; fill-opacity: 0.35"/>
     <use xlink:href="#m19c9ca8550" x="278.09043" y="250.003144" style="fill: #d65f5f; fill-opacity: 0.35"/>
     <use xlink:href="#m19c9ca8550" x="266.18241" y="242.808372" style="fill: #d65f5f; fill-opacity: 0.35"/>
     <use xlink:href="#m19c9ca8550" x="274.419883" y="223.299144" style="fill: #d65f5f; fill-opacity: 0.35"/>
     <use xlink:href="#m19c9ca8550" x="278.446149" y="215.840734" style="fill: #d65f5f; fill-opacity: 0.35"/>
     <use xlink:href="#m19c9ca8550" x="276.022113" y="221.164525" style="fill: #d65f5f; fill-opacity: 0.35"/>
     <use xlink:href="#m19c9ca8550" x="267.852264" y="239.831812" style="fill: #d65f5f; fill-opacity: 0.35"/>
     <use xlink:href="#m19c9ca8550" x="280.799835" y="173.981789" style="fill: #d65f5f; fill-opacity: 0.35"/>
     <use xlink:href="#m19c9ca8550" x="278.899153" y="240.767302" style="fill: #d65f5f; fill-opacity: 0.35"/>
     <use xlink:href="#m19c9ca8550" x="279.404264" y="231.837621" style="fill: #d65f5f; fill-opacity: 0.35"/>
     <use xlink:href="#m19c9ca8550" x="266.380052" y="251.976179" style="fill: #d65f5f; fill-opacity: 0.35"/>
     <use xlink:href="#m19c9ca8550" x="266.223572" y="239.593687" style="fill: #d65f5f; fill-opacity: 0.35"/>
     <use xlink:href="#m19c9ca8550" x="283.444371" y="217.405554" style="fill: #d65f5f; fill-opacity: 0.35"/>
     <use xlink:href="#m19c9ca8550" x="272.089986" y="208.237748" style="fill: #d65f5f; fill-opacity: 0.35"/>
     <use xlink:href="#m19c9ca8550" x="270.019796" y="256.806711" style="fill: #d65f5f; fill-opacity: 0.35"/>
     <use xlink:href="#m19c9ca8550" x="274.039695" y="251.712541" style="fill: #d65f5f; fill-opacity: 0.35"/>
     <use xlink:href="#m19c9ca8550" x="277.773474" y="246.796963" style="fill: #d65f5f; fill-opacity: 0.35"/>
     <use xlink:href="#m19c9ca8550" x="284.045543" y="207.42132" style="fill: #d65f5f; fill-opacity: 0.35"/>
     <use xlink:href="#m19c9ca8550" x="269.709095" y="229.294788" style="fill: #d65f5f; fill-opacity: 0.35"/>
     <use xlink:href="#m19c9ca8550" x="283.385367" y="224.744902" style="fill: #d65f5f; fill-opacity: 0.35"/>
     <use xlink:href="#m19c9ca8550" x="264.104861" y="242.816877" style="fill: #d65f5f; fill-opacity: 0.35"/>
     <use xlink:href="#m19c9ca8550" x="275.466834" y="252.001692" style="fill: #d65f5f; fill-opacity: 0.35"/>
     <use xlink:href="#m19c9ca8550" x="277.154554" y="239.933865" style="fill: #d65f5f; fill-opacity: 0.35"/>
     <use xlink:href="#m19c9ca8550" x="265.841017" y="199.554696" style="fill: #d65f5f; fill-opacity: 0.35"/>
     <use xlink:href="#m19c9ca8550" x="266.578906" y="200.260566" style="fill: #d65f5f; fill-opacity: 0.35"/>
     <use xlink:href="#m19c9ca8550" x="272.551376" y="252.605509" style="fill: #d65f5f; fill-opacity: 0.35"/>
     <use xlink:href="#m19c9ca8550" x="284.272823" y="242.017458" style="fill: #d65f5f; fill-opacity: 0.35"/>
     <use xlink:href="#m19c9ca8550" x="276.341886" y="247.298726" style="fill: #d65f5f; fill-opacity: 0.35"/>
     <use xlink:href="#m19c9ca8550" x="283.56136" y="233.402441" style="fill: #d65f5f; fill-opacity: 0.35"/>
     <use xlink:href="#m19c9ca8550" x="280.804899" y="222.601779" style="fill: #d65f5f; fill-opacity: 0.35"/>
     <use xlink:href="#m19c9ca8550" x="273.585454" y="235.945274" style="fill: #d65f5f; fill-opacity: 0.35"/>
     <use xlink:href="#m19c9ca8550" x="280.385043" y="249.399328" style="fill: #d65f5f; fill-opacity: 0.35"/>
     <use xlink:href="#m19c9ca8550" x="263.954406" y="254.450976" style="fill: #d65f5f; fill-opacity: 0.35"/>
     <use xlink:href="#m19c9ca8550" x="265.910572" y="241.9069" style="fill: #d65f5f; fill-opacity: 0.35"/>
     <use xlink:href="#m19c9ca8550" x="281.341949" y="222.168051" style="fill: #d65f5f; fill-opacity: 0.35"/>
     <use xlink:href="#m19c9ca8550" x="280.64328" y="257.002314" style="fill: #d65f5f; fill-opacity: 0.35"/>
     <use xlink:href="#m19c9ca8550" x="268.556366" y="200.030945" style="fill: #d65f5f; fill-opacity: 0.35"/>
     <use xlink:href="#m19c9ca8550" x="274.943479" y="228.86106" style="fill: #d65f5f; fill-opacity: 0.35"/>
     <use xlink:href="#m19c9ca8550" x="276.555554" y="239.142951" style="fill: #d65f5f; fill-opacity: 0.35"/>
     <use xlink:href="#m19c9ca8550" x="282.16271" y="244.738884" style="fill: #d65f5f; fill-opacity: 0.35"/>
     <use xlink:href="#m19c9ca8550" x="276.493239" y="205.737437" style="fill: #d65f5f; fill-opacity: 0.35"/>
     <use xlink:href="#m19c9ca8550" x="272.411204" y="256.509055" style="fill: #d65f5f; fill-opacity: 0.35"/>
     <use xlink:href="#m19c9ca8550" x="271.58879" y="246.788459" style="fill: #d65f5f; fill-opacity: 0.35"/>
     <use xlink:href="#m19c9ca8550" x="272.696369" y="231.029697" style="fill: #d65f5f; fill-opacity: 0.35"/>
     <use xlink:href="#m19c9ca8550" x="277.539241" y="209.69201" style="fill: #d65f5f; fill-opacity: 0.35"/>
     <use xlink:href="#m19c9ca8550" x="282.15739" y="240.690762" style="fill: #d65f5f; fill-opacity: 0.35"/>
     <use xlink:href="#m19c9ca8550" x="273.296558" y="213.348928" style="fill: #d65f5f; fill-opacity: 0.35"/>
     <use xlink:href="#m19c9ca8550" x="268.881986" y="248.710467" style="fill: #d65f5f; fill-opacity: 0.35"/>
     <use xlink:href="#m19c9ca8550" x="268.642525" y="212.464464" style="fill: #d65f5f; fill-opacity: 0.35"/>
     <use xlink:href="#m19c9ca8550" x="279.554881" y="250.743032" style="fill: #d65f5f; fill-opacity: 0.35"/>
     <use xlink:href="#m19c9ca8550" x="281.06644" y="218.196469" style="fill: #d65f5f; fill-opacity: 0.35"/>
     <use xlink:href="#m19c9ca8550" x="265.827748" y="245.674375" style="fill: #d65f5f; fill-opacity: 0.35"/>
     <use xlink:href="#m19c9ca8550" x="264.998228" y="179.484173" style="fill: #d65f5f; fill-opacity: 0.35"/>
     <use xlink:href="#m19c9ca8550" x="276.307418" y="244.968505" style="fill: #d65f5f; fill-opacity: 0.35"/>
     <use xlink:href="#m19c9ca8550" x="266.703886" y="244.203104" style="fill: #d65f5f; fill-opacity: 0.35"/>
     <use xlink:href="#m19c9ca8550" x="281.239876" y="234.031771" style="fill: #d65f5f; fill-opacity: 0.35"/>
     <use xlink:href="#m19c9ca8550" x="270.220881" y="240.376097" style="fill: #d65f5f; fill-opacity: 0.35"/>
     <use xlink:href="#m19c9ca8550" x="266.654583" y="249.833055" style="fill: #d65f5f; fill-opacity: 0.35"/>
     <use xlink:href="#m19c9ca8550" x="283.303142" y="221.623766" style="fill: #d65f5f; fill-opacity: 0.35"/>
     <use xlink:href="#m19c9ca8550" x="267.118622" y="253.29437" style="fill: #d65f5f; fill-opacity: 0.35"/>
     <use xlink:href="#m19c9ca8550" x="269.672114" y="246.813972" style="fill: #d65f5f; fill-opacity: 0.35"/>
     <use xlink:href="#m19c9ca8550" x="266.863284" y="237.918309" style="fill: #d65f5f; fill-opacity: 0.35"/>
     <use xlink:href="#m19c9ca8550" x="266.04653" y="246.558839" style="fill: #d65f5f; fill-opacity: 0.35"/>
     <use xlink:href="#m19c9ca8550" x="264.025346" y="222.533743" style="fill: #d65f5f; fill-opacity: 0.35"/>
     <use xlink:href="#m19c9ca8550" x="264.759062" y="227.313249" style="fill: #d65f5f; fill-opacity: 0.35"/>
     <use xlink:href="#m19c9ca8550" x="267.31379" y="254.374436" style="fill: #d65f5f; fill-opacity: 0.35"/>
     <use xlink:href="#m19c9ca8550" x="264.715925" y="244.050023" style="fill: #d65f5f; fill-opacity: 0.35"/>
     <use xlink:href="#m19c9ca8550" x="276.236936" y="209.666497" style="fill: #d65f5f; fill-opacity: 0.35"/>
     <use xlink:href="#m19c9ca8550" x="278.155899" y="225.722915" style="fill: #d65f5f; fill-opacity: 0.35"/>
     <use xlink:href="#m19c9ca8550" x="272.00541" y="237.561121" style="fill: #d65f5f; fill-opacity: 0.35"/>
     <use xlink:href="#m19c9ca8550" x="270.384912" y="200.59224" style="fill: #d65f5f; fill-opacity: 0.35"/>
     <use xlink:href="#m19c9ca8550" x="274.381241" y="191.016219" style="fill: #d65f5f; fill-opacity: 0.35"/>
     <use xlink:href="#m19c9ca8550" x="282.318377" y="226.905035" style="fill: #d65f5f; fill-opacity: 0.35"/>
     <use xlink:href="#m19c9ca8550" x="281.806915" y="246.975557" style="fill: #d65f5f; fill-opacity: 0.35"/>
     <use xlink:href="#m19c9ca8550" x="264.503681" y="250.70051" style="fill: #d65f5f; fill-opacity: 0.35"/>
     <use xlink:href="#m19c9ca8550" x="267.460693" y="197.079898" style="fill: #d65f5f; fill-opacity: 0.35"/>
     <use xlink:href="#m19c9ca8550" x="268.644293" y="229.668984" style="fill: #d65f5f; fill-opacity: 0.35"/>
     <use xlink:href="#m19c9ca8550" x="268.91515" y="238.556143" style="fill: #d65f5f; fill-opacity: 0.35"/>
     <use xlink:href="#m19c9ca8550" x="275.810359" y="228.63144" style="fill: #d65f5f; fill-opacity: 0.35"/>
     <use xlink:href="#m19c9ca8550" x="272.490277" y="254.587048" style="fill: #d65f5f; fill-opacity: 0.35"/>
     <use xlink:href="#m19c9ca8550" x="264.627491" y="220.084459" style="fill: #d65f5f; fill-opacity: 0.35"/>
     <use xlink:href="#m19c9ca8550" x="271.57658" y="244.772902" style="fill: #d65f5f; fill-opacity: 0.35"/>
     <use xlink:href="#m19c9ca8550" x="274.793154" y="256.066823" style="fill: #d65f5f; fill-opacity: 0.35"/>
     <use xlink:href="#m19c9ca8550" x="265.75049" y="200.464673" style="fill: #d65f5f; fill-opacity: 0.35"/>
     <use xlink:href="#m19c9ca8550" x="281.428287" y="254.918721" style="fill: #d65f5f; fill-opacity: 0.35"/>
     <use xlink:href="#m19c9ca8550" x="264.685502" y="230.51943" style="fill: #d65f5f; fill-opacity: 0.35"/>
     <use xlink:href="#m19c9ca8550" x="283.386083" y="233.81916" style="fill: #d65f5f; fill-opacity: 0.35"/>
     <use xlink:href="#m19c9ca8550" x="265.695671" y="210.865626" style="fill: #d65f5f; fill-opacity: 0.35"/>
     <use xlink:href="#m19c9ca8550" x="281.645021" y="264.936974" style="fill: #d65f5f; fill-opacity: 0.35"/>
     <use xlink:href="#m19c9ca8550" x="282.910712" y="254.612561" style="fill: #d65f5f; fill-opacity: 0.35"/>
     <use xlink:href="#m19c9ca8550" x="284.558593" y="245.921004" style="fill: #d65f5f; fill-opacity: 0.35"/>
     <use xlink:href="#m19c9ca8550" x="280.754873" y="238.887817" style="fill: #d65f5f; fill-opacity: 0.35"/>
     <use xlink:href="#m19c9ca8550" x="280.271798" y="244.228617" style="fill: #d65f5f; fill-opacity: 0.35"/>
     <use xlink:href="#m19c9ca8550" x="277.336833" y="253.260352" style="fill: #d65f5f; fill-opacity: 0.35"/>
    </g>
   </g>
   <g id="PathCollection_4">
    <defs>
     <path id="m4dd3deefd8" d="M 0 1.870829 
C 0.49615 1.870829 0.972045 1.673706 1.322876 1.322876 
C 1.673706 0.972045 1.870829 0.49615 1.870829 0 
C 1.870829 -0.49615 1.673706 -0.972045 1.322876 -1.322876 
C 0.972045 -1.673706 0.49615 -1.870829 0 -1.870829 
C -0.49615 -1.870829 -0.972045 -1.673706 -1.322876 -1.322876 
C -1.673706 -0.972045 -1.870829 -0.49615 -1.870829 0 
C -1.870829 0.49615 -1.673706 0.972045 -1.322876 1.322876 
C -0.972045 1.673706 -0.49615 1.870829 0 1.870829 
z
"/>
    </defs>
    <g clip-path="url(#p20a0960c28)">
     <use xlink:href="#m4dd3deefd8" x="369.528155" y="258.320505" style="fill: #b47cc7; fill-opacity: 0.35"/>
     <use xlink:href="#m4dd3deefd8" x="355.721584" y="257.436041" style="fill: #b47cc7; fill-opacity: 0.35"/>
     <use xlink:href="#m4dd3deefd8" x="364.323659" y="267.207664" style="fill: #b47cc7; fill-opacity: 0.35"/>
     <use xlink:href="#m4dd3deefd8" x="363.855648" y="233.980744" style="fill: #b47cc7; fill-opacity: 0.35"/>
     <use xlink:href="#m4dd3deefd8" x="371.211563" y="269.929091" style="fill: #b47cc7; fill-opacity: 0.35"/>
     <use xlink:href="#m4dd3deefd8" x="362.753951" y="256.492046" style="fill: #b47cc7; fill-opacity: 0.35"/>
     <use xlink:href="#m4dd3deefd8" x="361.089095" y="236.310966" style="fill: #b47cc7; fill-opacity: 0.35"/>
     <use xlink:href="#m4dd3deefd8" x="366.540941" y="255.463007" style="fill: #b47cc7; fill-opacity: 0.35"/>
     <use xlink:href="#m4dd3deefd8" x="358.547648" y="260.234008" style="fill: #b47cc7; fill-opacity: 0.35"/>
     <use xlink:href="#m4dd3deefd8" x="355.833336" y="255.071802" style="fill: #b47cc7; fill-opacity: 0.35"/>
     <use xlink:href="#m4dd3deefd8" x="363.07698" y="253.421937" style="fill: #b47cc7; fill-opacity: 0.35"/>
     <use xlink:href="#m4dd3deefd8" x="361.770375" y="244.432724" style="fill: #b47cc7; fill-opacity: 0.35"/>
     <use xlink:href="#m4dd3deefd8" x="357.821516" y="245.274665" style="fill: #b47cc7; fill-opacity: 0.35"/>
     <use xlink:href="#m4dd3deefd8" x="360.712511" y="256.917269" style="fill: #b47cc7; fill-opacity: 0.35"/>
     <use xlink:href="#m4dd3deefd8" x="360.688529" y="255.786176" style="fill: #b47cc7; fill-opacity: 0.35"/>
     <use xlink:href="#m4dd3deefd8" x="359.855202" y="258.686197" style="fill: #b47cc7; fill-opacity: 0.35"/>
     <use xlink:href="#m4dd3deefd8" x="360.968576" y="259.902334" style="fill: #b47cc7; fill-opacity: 0.35"/>
     <use xlink:href="#m4dd3deefd8" x="367.530303" y="257.37651" style="fill: #b47cc7; fill-opacity: 0.35"/>
     <use xlink:href="#m4dd3deefd8" x="359.199219" y="249.935109" style="fill: #b47cc7; fill-opacity: 0.35"/>
     <use xlink:href="#m4dd3deefd8" x="373.16727" y="252.03571" style="fill: #b47cc7; fill-opacity: 0.35"/>
     <use xlink:href="#m4dd3deefd8" x="372.470777" y="250.717519" style="fill: #b47cc7; fill-opacity: 0.35"/>
     <use xlink:href="#m4dd3deefd8" x="363.141963" y="268.245208" style="fill: #b47cc7; fill-opacity: 0.35"/>
     <use xlink:href="#m4dd3deefd8" x="359.873748" y="257.14689" style="fill: #b47cc7; fill-opacity: 0.35"/>
     <use xlink:href="#m4dd3deefd8" x="364.310092" y="244.908974" style="fill: #b47cc7; fill-opacity: 0.35"/>
     <use xlink:href="#m4dd3deefd8" x="371.018497" y="210.942166" style="fill: #b47cc7; fill-opacity: 0.35"/>
     <use xlink:href="#m4dd3deefd8" x="366.819969" y="266.49329" style="fill: #b47cc7; fill-opacity: 0.35"/>
     <use xlink:href="#m4dd3deefd8" x="370.072228" y="252.316357" style="fill: #b47cc7; fill-opacity: 0.35"/>
     <use xlink:href="#m4dd3deefd8" x="364.25198" y="261.679766" style="fill: #b47cc7; fill-opacity: 0.35"/>
     <use xlink:href="#m4dd3deefd8" x="366.398565" y="253.090263" style="fill: #b47cc7; fill-opacity: 0.35"/>
     <use xlink:href="#m4dd3deefd8" x="359.012383" y="258.949835" style="fill: #b47cc7; fill-opacity: 0.35"/>
     <use xlink:href="#m4dd3deefd8" x="368.583289" y="254.459481" style="fill: #b47cc7; fill-opacity: 0.35"/>
     <use xlink:href="#m4dd3deefd8" x="357.175254" y="254.961244" style="fill: #b47cc7; fill-opacity: 0.35"/>
     <use xlink:href="#m4dd3deefd8" x="367.724293" y="254.621065" style="fill: #b47cc7; fill-opacity: 0.35"/>
     <use xlink:href="#m4dd3deefd8" x="371.278983" y="249.195221" style="fill: #b47cc7; fill-opacity: 0.35"/>
     <use xlink:href="#m4dd3deefd8" x="355.669109" y="255.514034" style="fill: #b47cc7; fill-opacity: 0.35"/>
     <use xlink:href="#m4dd3deefd8" x="366.001409" y="230.834095" style="fill: #b47cc7; fill-opacity: 0.35"/>
     <use xlink:href="#m4dd3deefd8" x="354.876269" y="257.640148" style="fill: #b47cc7; fill-opacity: 0.35"/>
     <use xlink:href="#m4dd3deefd8" x="368.386669" y="247.434798" style="fill: #b47cc7; fill-opacity: 0.35"/>
     <use xlink:href="#m4dd3deefd8" x="354.64912" y="254.00024" style="fill: #b47cc7; fill-opacity: 0.35"/>
     <use xlink:href="#m4dd3deefd8" x="372.890512" y="242.952948" style="fill: #b47cc7; fill-opacity: 0.35"/>
     <use xlink:href="#m4dd3deefd8" x="355.782765" y="268.049606" style="fill: #b47cc7; fill-opacity: 0.35"/>
     <use xlink:href="#m4dd3deefd8" x="373.381988" y="258.201442" style="fill: #b47cc7; fill-opacity: 0.35"/>
     <use xlink:href="#m4dd3deefd8" x="369.99708" y="252.460933" style="fill: #b47cc7; fill-opacity: 0.35"/>
     <use xlink:href="#m4dd3deefd8" x="365.557981" y="261.543695" style="fill: #b47cc7; fill-opacity: 0.35"/>
     <use xlink:href="#m4dd3deefd8" x="369.605876" y="257.036332" style="fill: #b47cc7; fill-opacity: 0.35"/>
     <use xlink:href="#m4dd3deefd8" x="369.873478" y="245.640357" style="fill: #b47cc7; fill-opacity: 0.35"/>
     <use xlink:href="#m4dd3deefd8" x="373.106621" y="243.70134" style="fill: #b47cc7; fill-opacity: 0.35"/>
     <use xlink:href="#m4dd3deefd8" x="358.267422" y="254.255374" style="fill: #b47cc7; fill-opacity: 0.35"/>
     <use xlink:href="#m4dd3deefd8" x="365.480723" y="249.799037" style="fill: #b47cc7; fill-opacity: 0.35"/>
     <use xlink:href="#m4dd3deefd8" x="354.875272" y="239.040897" style="fill: #b47cc7; fill-opacity: 0.35"/>
     <use xlink:href="#m4dd3deefd8" x="366.039671" y="258.099389" style="fill: #b47cc7; fill-opacity: 0.35"/>
     <use xlink:href="#m4dd3deefd8" x="356.508682" y="261.220525" style="fill: #b47cc7; fill-opacity: 0.35"/>
     <use xlink:href="#m4dd3deefd8" x="364.942439" y="241.949422" style="fill: #b47cc7; fill-opacity: 0.35"/>
     <use xlink:href="#m4dd3deefd8" x="365.102689" y="236.268444" style="fill: #b47cc7; fill-opacity: 0.35"/>
     <use xlink:href="#m4dd3deefd8" x="362.822203" y="263.065993" style="fill: #b47cc7; fill-opacity: 0.35"/>
     <use xlink:href="#m4dd3deefd8" x="364.035801" y="229.600948" style="fill: #b47cc7; fill-opacity: 0.35"/>
     <use xlink:href="#m4dd3deefd8" x="369.205232" y="238.887817" style="fill: #b47cc7; fill-opacity: 0.35"/>
     <use xlink:href="#m4dd3deefd8" x="369.961956" y="230.264296" style="fill: #b47cc7; fill-opacity: 0.35"/>
     <use xlink:href="#m4dd3deefd8" x="363.382828" y="248.718971" style="fill: #b47cc7; fill-opacity: 0.35"/>
     <use xlink:href="#m4dd3deefd8" x="365.684627" y="245.104576" style="fill: #b47cc7; fill-opacity: 0.35"/>
     <use xlink:href="#m4dd3deefd8" x="372.789743" y="250.317809" style="fill: #b47cc7; fill-opacity: 0.35"/>
     <use xlink:href="#m4dd3deefd8" x="355.40411" y="248.81252" style="fill: #b47cc7; fill-opacity: 0.35"/>
     <use xlink:href="#m4dd3deefd8" x="355.347764" y="249.118681" style="fill: #b47cc7; fill-opacity: 0.35"/>
     <use xlink:href="#m4dd3deefd8" x="354.718015" y="249.99464" style="fill: #b47cc7; fill-opacity: 0.35"/>
     <use xlink:href="#m4dd3deefd8" x="366.933001" y="252.937183" style="fill: #b47cc7; fill-opacity: 0.35"/>
     <use xlink:href="#m4dd3deefd8" x="361.807202" y="259.400571" style="fill: #b47cc7; fill-opacity: 0.35"/>
     <use xlink:href="#m4dd3deefd8" x="369.428" y="259.085906" style="fill: #b47cc7; fill-opacity: 0.35"/>
     <use xlink:href="#m4dd3deefd8" x="367.219399" y="266.892999" style="fill: #b47cc7; fill-opacity: 0.35"/>
     <use xlink:href="#m4dd3deefd8" x="359.986793" y="239.347058" style="fill: #b47cc7; fill-opacity: 0.35"/>
     <use xlink:href="#m4dd3deefd8" x="372.085542" y="238.700719" style="fill: #b47cc7; fill-opacity: 0.35"/>
     <use xlink:href="#m4dd3deefd8" x="369.175426" y="264.647822" style="fill: #b47cc7; fill-opacity: 0.35"/>
     <use xlink:href="#m4dd3deefd8" x="358.634878" y="215.500556" style="fill: #b47cc7; fill-opacity: 0.35"/>
     <use xlink:href="#m4dd3deefd8" x="360.641387" y="234.371949" style="fill: #b47cc7; fill-opacity: 0.35"/>
     <use xlink:href="#m4dd3deefd8" x="359.5755" y="255.88823" style="fill: #b47cc7; fill-opacity: 0.35"/>
     <use xlink:href="#m4dd3deefd8" x="356.215609" y="251.168255" style="fill: #b47cc7; fill-opacity: 0.35"/>
     <use xlink:href="#m4dd3deefd8" x="356.005048" y="249.178212" style="fill: #b47cc7; fill-opacity: 0.35"/>
     <use xlink:href="#m4dd3deefd8" x="372.894532" y="249.21223" style="fill: #b47cc7; fill-opacity: 0.35"/>
     <use xlink:href="#m4dd3deefd8" x="362.220594" y="215.458033" style="fill: #b47cc7; fill-opacity: 0.35"/>
     <use xlink:href="#m4dd3deefd8" x="361.051181" y="249.9181" style="fill: #b47cc7; fill-opacity: 0.35"/>
     <use xlink:href="#m4dd3deefd8" x="368.471724" y="246.057076" style="fill: #b47cc7; fill-opacity: 0.35"/>
     <use xlink:href="#m4dd3deefd8" x="364.686261" y="262.377132" style="fill: #b47cc7; fill-opacity: 0.35"/>
     <use xlink:href="#m4dd3deefd8" x="372.894801" y="263.661305" style="fill: #b47cc7; fill-opacity: 0.35"/>
     <use xlink:href="#m4dd3deefd8" x="369.556117" y="254.578543" style="fill: #b47cc7; fill-opacity: 0.35"/>
     <use xlink:href="#m4dd3deefd8" x="363.108951" y="258.983853" style="fill: #b47cc7; fill-opacity: 0.35"/>
     <use xlink:href="#m4dd3deefd8" x="360.902063" y="257.265952" style="fill: #b47cc7; fill-opacity: 0.35"/>
     <use xlink:href="#m4dd3deefd8" x="373.976532" y="259.961865" style="fill: #b47cc7; fill-opacity: 0.35"/>
     <use xlink:href="#m4dd3deefd8" x="368.216233" y="250.445376" style="fill: #b47cc7; fill-opacity: 0.35"/>
     <use xlink:href="#m4dd3deefd8" x="373.217332" y="261.815837" style="fill: #b47cc7; fill-opacity: 0.35"/>
     <use xlink:href="#m4dd3deefd8" x="355.377223" y="252.750084" style="fill: #b47cc7; fill-opacity: 0.35"/>
     <use xlink:href="#m4dd3deefd8" x="371.060771" y="226.360749" style="fill: #b47cc7; fill-opacity: 0.35"/>
     <use xlink:href="#m4dd3deefd8" x="366.487608" y="260.480637" style="fill: #b47cc7; fill-opacity: 0.35"/>
     <use xlink:href="#m4dd3deefd8" x="355.450988" y="251.840107" style="fill: #b47cc7; fill-opacity: 0.35"/>
     <use xlink:href="#m4dd3deefd8" x="365.441777" y="263.006462" style="fill: #b47cc7; fill-opacity: 0.35"/>
     <use xlink:href="#m4dd3deefd8" x="367.537866" y="260.038406" style="fill: #b47cc7; fill-opacity: 0.35"/>
     <use xlink:href="#m4dd3deefd8" x="353.10251" y="232.543491" style="fill: #b47cc7; fill-opacity: 0.35"/>
     <use xlink:href="#m4dd3deefd8" x="362.572246" y="246.346227" style="fill: #b47cc7; fill-opacity: 0.35"/>
     <use xlink:href="#m4dd3deefd8" x="370.522297" y="257.240439" style="fill: #b47cc7; fill-opacity: 0.35"/>
     <use xlink:href="#m4dd3deefd8" x="359.166709" y="252.673544" style="fill: #b47cc7; fill-opacity: 0.35"/>
     <use xlink:href="#m4dd3deefd8" x="362.662872" y="256.942783" style="fill: #b47cc7; fill-opacity: 0.35"/>
     <use xlink:href="#m4dd3deefd8" x="362.315075" y="249.645957" style="fill: #b47cc7; fill-opacity: 0.35"/>
    </g>
   </g>
   <g id="text_13">
    <!-- **** -->
    <g transform="translate(132.384271 55.466777) scale(0.08 -0.08)">
     <defs>
      <path id="DejaVuSans-2a" d="M 3009 3897 
L 1888 3291 
L 3009 2681 
L 2828 2375 
L 1778 3009 
L 1778 1831 
L 1422 1831 
L 1422 3009 
L 372 2375 
L 191 2681 
L 1313 3291 
L 191 3897 
L 372 4206 
L 1422 3572 
L 1422 4750 
L 1778 4750 
L 1778 3572 
L 2828 4206 
L 3009 3897 
z
" transform="scale(0.015625)"/>
     </defs>
     <use xlink:href="#DejaVuSans-2a"/>
     <use xlink:href="#DejaVuSans-2a" transform="translate(50 0)"/>
     <use xlink:href="#DejaVuSans-2a" transform="translate(100 0)"/>
     <use xlink:href="#DejaVuSans-2a" transform="translate(150 0)"/>
    </g>
   </g>
   <g id="text_14">
    <!-- **** -->
    <g transform="translate(177.017604 36.756968) scale(0.08 -0.08)">
     <use xlink:href="#DejaVuSans-2a"/>
     <use xlink:href="#DejaVuSans-2a" transform="translate(50 0)"/>
     <use xlink:href="#DejaVuSans-2a" transform="translate(100 0)"/>
     <use xlink:href="#DejaVuSans-2a" transform="translate(150 0)"/>
    </g>
   </g>
   <g id="text_15">
    <!-- **** -->
    <g transform="translate(221.650937 18.047159) scale(0.08 -0.08)">
     <use xlink:href="#DejaVuSans-2a"/>
     <use xlink:href="#DejaVuSans-2a" transform="translate(50 0)"/>
     <use xlink:href="#DejaVuSans-2a" transform="translate(100 0)"/>
     <use xlink:href="#DejaVuSans-2a" transform="translate(150 0)"/>
    </g>
   </g>
  </g>
 </g>
 <defs>
  <clipPath id="p20a0960c28">
   <rect x="42.190938" y="7.2" width="374.92" height="275.24"/>
  </clipPath>
 </defs>
</svg>
