<?xml version="1.0" encoding="utf-8" standalone="no"?>
<!DOCTYPE svg PUBLIC "-//W3C//DTD SVG 1.1//EN"
  "http://www.w3.org/Graphics/SVG/1.1/DTD/svg11.dtd">
<svg xmlns:xlink="http://www.w3.org/1999/xlink" width="438.4pt" height="402.078437pt" viewBox="0 0 438.4 402.078437" xmlns="http://www.w3.org/2000/svg" version="1.1">
 <metadata>
  <rdf:RDF xmlns:dc="http://purl.org/dc/elements/1.1/" xmlns:cc="http://creativecommons.org/ns#" xmlns:rdf="http://www.w3.org/1999/02/22-rdf-syntax-ns#">
   <cc:Work>
    <dc:type rdf:resource="http://purl.org/dc/dcmitype/StillImage"/>
    <dc:date>2026-05-25T00:29:15.380831</dc:date>
    <dc:format>image/svg+xml</dc:format>
    <dc:creator>
     <cc:Agent>
      <dc:title>Matplotlib v3.10.9, https://matplotlib.org/</dc:title>
     </cc:Agent>
    </dc:creator>
   </cc:Work>
  </rdf:RDF>
 </metadata>
 <defs>
  <style type="text/css">*{stroke-linejoin: round; stroke-linecap: butt}</style>
 </defs>
 <g id="figure_1">
  <g id="patch_1">
   <path d="M 0 402.078437 
L 438.4 402.078437 
L 438.4 -0 
L 0 -0 
z
" style="fill: #ffffff"/>
  </g>
  <g id="axes_1">
   <g id="LineCollection_1">
    <path d="M 62.920316 78.516569 
L 113.44805 55.086371 
" clip-path="url(#pfbd930a061)" style="fill: none; stroke: #555555; stroke-opacity: 0.25; stroke-width: 0.8"/>
    <path d="M 62.920316 78.516569 
L 153.744309 77.206301 
" clip-path="url(#pfbd930a061)" style="fill: none; stroke: #555555; stroke-opacity: 0.25; stroke-width: 0.8"/>
    <path d="M 62.920316 78.516569 
L 50.139559 139.015923 
" clip-path="url(#pfbd930a061)" style="fill: none; stroke: #555555; stroke-opacity: 0.25; stroke-width: 0.8"/>
    <path d="M 62.920316 78.516569 
L 90.921109 114.146126 
" clip-path="url(#pfbd930a061)" style="fill: none; stroke: #555555; stroke-opacity: 0.25; stroke-width: 0.8"/>
    <path d="M 113.44805 55.086371 
L 153.744309 77.206301 
" clip-path="url(#pfbd930a061)" style="fill: none; stroke: #555555; stroke-opacity: 0.25; stroke-width: 0.8"/>
    <path d="M 113.44805 55.086371 
L 207.013773 65.223757 
" clip-path="url(#pfbd930a061)" style="fill: none; stroke: #555555; stroke-opacity: 0.25; stroke-width: 0.8"/>
    <path d="M 113.44805 55.086371 
L 90.921109 114.146126 
" clip-path="url(#pfbd930a061)" style="fill: none; stroke: #555555; stroke-opacity: 0.25; stroke-width: 0.8"/>
    <path d="M 153.744309 77.206301 
L 207.013773 65.223757 
" clip-path="url(#pfbd930a061)" style="fill: none; stroke: #555555; stroke-opacity: 0.25; stroke-width: 0.8"/>
    <path d="M 153.744309 77.206301 
L 261.909324 82.303186 
" clip-path="url(#pfbd930a061)" style="fill: none; stroke: #555555; stroke-opacity: 0.25; stroke-width: 0.8"/>
    <path d="M 153.744309 77.206301 
L 125.70856 143.211277 
" clip-path="url(#pfbd930a061)" style="fill: none; stroke: #555555; stroke-opacity: 0.25; stroke-width: 0.8"/>
    <path d="M 207.013773 65.223757 
L 261.909324 82.303186 
" clip-path="url(#pfbd930a061)" style="fill: none; stroke: #555555; stroke-opacity: 0.25; stroke-width: 0.8"/>
    <path d="M 207.013773 65.223757 
L 247.744234 131.210516 
" clip-path="url(#pfbd930a061)" style="fill: none; stroke: #555555; stroke-opacity: 0.25; stroke-width: 0.8"/>
    <path d="M 261.909324 82.303186 
L 247.744234 131.210516 
" clip-path="url(#pfbd930a061)" style="fill: none; stroke: #555555; stroke-opacity: 0.25; stroke-width: 0.8"/>
    <path d="M 261.909324 82.303186 
L 341.906865 122.838731 
" clip-path="url(#pfbd930a061)" style="fill: none; stroke: #555555; stroke-opacity: 0.25; stroke-width: 0.8"/>
    <path d="M 247.744234 131.210516 
L 341.906865 122.838731 
" clip-path="url(#pfbd930a061)" style="fill: none; stroke: #555555; stroke-opacity: 0.25; stroke-width: 0.8"/>
    <path d="M 247.744234 131.210516 
L 359.429777 155.953657 
" clip-path="url(#pfbd930a061)" style="fill: none; stroke: #555555; stroke-opacity: 0.25; stroke-width: 0.8"/>
    <path d="M 247.744234 131.210516 
L 192.334509 211.728038 
" clip-path="url(#pfbd930a061)" style="fill: none; stroke: #555555; stroke-opacity: 0.25; stroke-width: 0.8"/>
    <path d="M 247.744234 131.210516 
L 125.70856 143.211277 
" clip-path="url(#pfbd930a061)" style="fill: none; stroke: #555555; stroke-opacity: 0.25; stroke-width: 0.8"/>
    <path d="M 341.906865 122.838731 
L 359.429777 155.953657 
" clip-path="url(#pfbd930a061)" style="fill: none; stroke: #555555; stroke-opacity: 0.25; stroke-width: 0.8"/>
    <path d="M 341.906865 122.838731 
L 394.406612 184.883189 
" clip-path="url(#pfbd930a061)" style="fill: none; stroke: #555555; stroke-opacity: 0.25; stroke-width: 0.8"/>
    <path d="M 359.429777 155.953657 
L 394.406612 184.883189 
" clip-path="url(#pfbd930a061)" style="fill: none; stroke: #555555; stroke-opacity: 0.25; stroke-width: 0.8"/>
    <path d="M 359.429777 155.953657 
L 376.40076 215.741793 
" clip-path="url(#pfbd930a061)" style="fill: none; stroke: #555555; stroke-opacity: 0.25; stroke-width: 0.8"/>
    <path d="M 394.406612 184.883189 
L 376.40076 215.741793 
" clip-path="url(#pfbd930a061)" style="fill: none; stroke: #555555; stroke-opacity: 0.25; stroke-width: 0.8"/>
    <path d="M 394.406612 184.883189 
L 353.09639 255.615008 
" clip-path="url(#pfbd930a061)" style="fill: none; stroke: #555555; stroke-opacity: 0.25; stroke-width: 0.8"/>
    <path d="M 376.40076 215.741793 
L 353.09639 255.615008 
" clip-path="url(#pfbd930a061)" style="fill: none; stroke: #555555; stroke-opacity: 0.25; stroke-width: 0.8"/>
    <path d="M 376.40076 215.741793 
L 288.200516 255.607384 
" clip-path="url(#pfbd930a061)" style="fill: none; stroke: #555555; stroke-opacity: 0.25; stroke-width: 0.8"/>
    <path d="M 353.09639 255.615008 
L 288.200516 255.607384 
" clip-path="url(#pfbd930a061)" style="fill: none; stroke: #555555; stroke-opacity: 0.25; stroke-width: 0.8"/>
    <path d="M 353.09639 255.615008 
L 336.293072 308.725297 
" clip-path="url(#pfbd930a061)" style="fill: none; stroke: #555555; stroke-opacity: 0.25; stroke-width: 0.8"/>
    <path d="M 353.09639 255.615008 
L 241.046284 293.113955 
" clip-path="url(#pfbd930a061)" style="fill: none; stroke: #555555; stroke-opacity: 0.25; stroke-width: 0.8"/>
    <path d="M 288.200516 255.607384 
L 336.293072 308.725297 
" clip-path="url(#pfbd930a061)" style="fill: none; stroke: #555555; stroke-opacity: 0.25; stroke-width: 0.8"/>
    <path d="M 288.200516 255.607384 
L 295.606526 331.450638 
" clip-path="url(#pfbd930a061)" style="fill: none; stroke: #555555; stroke-opacity: 0.25; stroke-width: 0.8"/>
    <path d="M 288.200516 255.607384 
L 142.427775 190.526863 
" clip-path="url(#pfbd930a061)" style="fill: none; stroke: #555555; stroke-opacity: 0.25; stroke-width: 0.8"/>
    <path d="M 336.293072 308.725297 
L 295.606526 331.450638 
" clip-path="url(#pfbd930a061)" style="fill: none; stroke: #555555; stroke-opacity: 0.25; stroke-width: 0.8"/>
    <path d="M 336.293072 308.725297 
L 261.735736 350.28964 
" clip-path="url(#pfbd930a061)" style="fill: none; stroke: #555555; stroke-opacity: 0.25; stroke-width: 0.8"/>
    <path d="M 295.606526 331.450638 
L 261.735736 350.28964 
" clip-path="url(#pfbd930a061)" style="fill: none; stroke: #555555; stroke-opacity: 0.25; stroke-width: 0.8"/>
    <path d="M 295.606526 331.450638 
L 216.036063 362.590504 
" clip-path="url(#pfbd930a061)" style="fill: none; stroke: #555555; stroke-opacity: 0.25; stroke-width: 0.8"/>
    <path d="M 261.735736 350.28964 
L 216.036063 362.590504 
" clip-path="url(#pfbd930a061)" style="fill: none; stroke: #555555; stroke-opacity: 0.25; stroke-width: 0.8"/>
    <path d="M 261.735736 350.28964 
L 165.677846 307.176628 
" clip-path="url(#pfbd930a061)" style="fill: none; stroke: #555555; stroke-opacity: 0.25; stroke-width: 0.8"/>
    <path d="M 216.036063 362.590504 
L 165.677846 307.176628 
" clip-path="url(#pfbd930a061)" style="fill: none; stroke: #555555; stroke-opacity: 0.25; stroke-width: 0.8"/>
    <path d="M 216.036063 362.590504 
L 193.691786 333.268295 
" clip-path="url(#pfbd930a061)" style="fill: none; stroke: #555555; stroke-opacity: 0.25; stroke-width: 0.8"/>
    <path d="M 165.677846 307.176628 
L 193.691786 333.268295 
" clip-path="url(#pfbd930a061)" style="fill: none; stroke: #555555; stroke-opacity: 0.25; stroke-width: 0.8"/>
    <path d="M 165.677846 307.176628 
L 241.046284 293.113955 
" clip-path="url(#pfbd930a061)" style="fill: none; stroke: #555555; stroke-opacity: 0.25; stroke-width: 0.8"/>
    <path d="M 165.677846 307.176628 
L 88.341137 209.40045 
" clip-path="url(#pfbd930a061)" style="fill: none; stroke: #555555; stroke-opacity: 0.25; stroke-width: 0.8"/>
    <path d="M 193.691786 333.268295 
L 241.046284 293.113955 
" clip-path="url(#pfbd930a061)" style="fill: none; stroke: #555555; stroke-opacity: 0.25; stroke-width: 0.8"/>
    <path d="M 193.691786 333.268295 
L 190.366111 280.807389 
" clip-path="url(#pfbd930a061)" style="fill: none; stroke: #555555; stroke-opacity: 0.25; stroke-width: 0.8"/>
    <path d="M 241.046284 293.113955 
L 190.366111 280.807389 
" clip-path="url(#pfbd930a061)" style="fill: none; stroke: #555555; stroke-opacity: 0.25; stroke-width: 0.8"/>
    <path d="M 241.046284 293.113955 
L 170.763261 258.373392 
" clip-path="url(#pfbd930a061)" style="fill: none; stroke: #555555; stroke-opacity: 0.25; stroke-width: 0.8"/>
    <path d="M 190.366111 280.807389 
L 170.763261 258.373392 
" clip-path="url(#pfbd930a061)" style="fill: none; stroke: #555555; stroke-opacity: 0.25; stroke-width: 0.8"/>
    <path d="M 190.366111 280.807389 
L 192.334509 211.728038 
" clip-path="url(#pfbd930a061)" style="fill: none; stroke: #555555; stroke-opacity: 0.25; stroke-width: 0.8"/>
    <path d="M 170.763261 258.373392 
L 192.334509 211.728038 
" clip-path="url(#pfbd930a061)" style="fill: none; stroke: #555555; stroke-opacity: 0.25; stroke-width: 0.8"/>
    <path d="M 170.763261 258.373392 
L 113.092027 231.189228 
" clip-path="url(#pfbd930a061)" style="fill: none; stroke: #555555; stroke-opacity: 0.25; stroke-width: 0.8"/>
    <path d="M 192.334509 211.728038 
L 113.092027 231.189228 
" clip-path="url(#pfbd930a061)" style="fill: none; stroke: #555555; stroke-opacity: 0.25; stroke-width: 0.8"/>
    <path d="M 192.334509 211.728038 
L 142.427775 190.526863 
" clip-path="url(#pfbd930a061)" style="fill: none; stroke: #555555; stroke-opacity: 0.25; stroke-width: 0.8"/>
    <path d="M 113.092027 231.189228 
L 142.427775 190.526863 
" clip-path="url(#pfbd930a061)" style="fill: none; stroke: #555555; stroke-opacity: 0.25; stroke-width: 0.8"/>
    <path d="M 113.092027 231.189228 
L 43.993388 209.135202 
" clip-path="url(#pfbd930a061)" style="fill: none; stroke: #555555; stroke-opacity: 0.25; stroke-width: 0.8"/>
    <path d="M 142.427775 190.526863 
L 43.993388 209.135202 
" clip-path="url(#pfbd930a061)" style="fill: none; stroke: #555555; stroke-opacity: 0.25; stroke-width: 0.8"/>
    <path d="M 142.427775 190.526863 
L 59.185378 173.572332 
" clip-path="url(#pfbd930a061)" style="fill: none; stroke: #555555; stroke-opacity: 0.25; stroke-width: 0.8"/>
    <path d="M 142.427775 190.526863 
L 125.70856 143.211277 
" clip-path="url(#pfbd930a061)" style="fill: none; stroke: #555555; stroke-opacity: 0.25; stroke-width: 0.8"/>
    <path d="M 142.427775 190.526863 
L 90.921109 114.146126 
" clip-path="url(#pfbd930a061)" style="fill: none; stroke: #555555; stroke-opacity: 0.25; stroke-width: 0.8"/>
    <path d="M 43.993388 209.135202 
L 59.185378 173.572332 
" clip-path="url(#pfbd930a061)" style="fill: none; stroke: #555555; stroke-opacity: 0.25; stroke-width: 0.8"/>
    <path d="M 43.993388 209.135202 
L 88.341137 209.40045 
" clip-path="url(#pfbd930a061)" style="fill: none; stroke: #555555; stroke-opacity: 0.25; stroke-width: 0.8"/>
    <path d="M 59.185378 173.572332 
L 88.341137 209.40045 
" clip-path="url(#pfbd930a061)" style="fill: none; stroke: #555555; stroke-opacity: 0.25; stroke-width: 0.8"/>
    <path d="M 59.185378 173.572332 
L 125.70856 143.211277 
" clip-path="url(#pfbd930a061)" style="fill: none; stroke: #555555; stroke-opacity: 0.25; stroke-width: 0.8"/>
    <path d="M 59.185378 173.572332 
L 50.139559 139.015923 
" clip-path="url(#pfbd930a061)" style="fill: none; stroke: #555555; stroke-opacity: 0.25; stroke-width: 0.8"/>
    <path d="M 88.341137 209.40045 
L 125.70856 143.211277 
" clip-path="url(#pfbd930a061)" style="fill: none; stroke: #555555; stroke-opacity: 0.25; stroke-width: 0.8"/>
    <path d="M 88.341137 209.40045 
L 50.139559 139.015923 
" clip-path="url(#pfbd930a061)" style="fill: none; stroke: #555555; stroke-opacity: 0.25; stroke-width: 0.8"/>
    <path d="M 125.70856 143.211277 
L 50.139559 139.015923 
" clip-path="url(#pfbd930a061)" style="fill: none; stroke: #555555; stroke-opacity: 0.25; stroke-width: 0.8"/>
    <path d="M 125.70856 143.211277 
L 90.921109 114.146126 
" clip-path="url(#pfbd930a061)" style="fill: none; stroke: #555555; stroke-opacity: 0.25; stroke-width: 0.8"/>
    <path d="M 50.139559 139.015923 
L 90.921109 114.146126 
" clip-path="url(#pfbd930a061)" style="fill: none; stroke: #555555; stroke-opacity: 0.25; stroke-width: 0.8"/>
   </g>
   <g id="PathCollection_1">
    <defs>
     <path id="C0_0_f6874d1b37" d="M 0 7.416198 
C 1.966799 7.416198 3.853307 6.634781 5.244044 5.244044 
C 6.634781 3.853307 7.416198 1.966799 7.416198 -0 
C 7.416198 -1.966799 6.634781 -3.853307 5.244044 -5.244044 
C 3.853307 -6.634781 1.966799 -7.416198 0 -7.416198 
C -1.966799 -7.416198 -3.853307 -6.634781 -5.244044 -5.244044 
C -6.634781 -3.853307 -7.416198 -1.966799 -7.416198 0 
C -7.416198 1.966799 -6.634781 3.853307 -5.244044 5.244044 
C -3.853307 6.634781 -1.966799 7.416198 0 7.416198 
z
"/>
    </defs>
    <g clip-path="url(#pfbd930a061)">
     <use xlink:href="#C0_0_f6874d1b37" x="62.920316" y="78.516569" style="fill: #e63946; stroke: #ffffff; stroke-width: 0.6"/>
    </g>
    <g clip-path="url(#pfbd930a061)">
     <use xlink:href="#C0_0_f6874d1b37" x="113.44805" y="55.086371" style="fill: #457b9d; stroke: #ffffff; stroke-width: 0.6"/>
    </g>
    <g clip-path="url(#pfbd930a061)">
     <use xlink:href="#C0_0_f6874d1b37" x="153.744309" y="77.206301" style="fill: #2a9d8f; stroke: #ffffff; stroke-width: 0.6"/>
    </g>
    <g clip-path="url(#pfbd930a061)">
     <use xlink:href="#C0_0_f6874d1b37" x="207.013773" y="65.223757" style="fill: #e9c46a; stroke: #ffffff; stroke-width: 0.6"/>
    </g>
    <g clip-path="url(#pfbd930a061)">
     <use xlink:href="#C0_0_f6874d1b37" x="261.909324" y="82.303186" style="fill: #e63946; stroke: #ffffff; stroke-width: 0.6"/>
    </g>
    <g clip-path="url(#pfbd930a061)">
     <use xlink:href="#C0_0_f6874d1b37" x="247.744234" y="131.210516" style="fill: #457b9d; stroke: #ffffff; stroke-width: 0.6"/>
    </g>
    <g clip-path="url(#pfbd930a061)">
     <use xlink:href="#C0_0_f6874d1b37" x="341.906865" y="122.838731" style="fill: #2a9d8f; stroke: #ffffff; stroke-width: 0.6"/>
    </g>
    <g clip-path="url(#pfbd930a061)">
     <use xlink:href="#C0_0_f6874d1b37" x="359.429777" y="155.953657" style="fill: #e9c46a; stroke: #ffffff; stroke-width: 0.6"/>
    </g>
    <g clip-path="url(#pfbd930a061)">
     <use xlink:href="#C0_0_f6874d1b37" x="394.406612" y="184.883189" style="fill: #e63946; stroke: #ffffff; stroke-width: 0.6"/>
    </g>
    <g clip-path="url(#pfbd930a061)">
     <use xlink:href="#C0_0_f6874d1b37" x="376.40076" y="215.741793" style="fill: #457b9d; stroke: #ffffff; stroke-width: 0.6"/>
    </g>
    <g clip-path="url(#pfbd930a061)">
     <use xlink:href="#C0_0_f6874d1b37" x="353.09639" y="255.615008" style="fill: #2a9d8f; stroke: #ffffff; stroke-width: 0.6"/>
    </g>
    <g clip-path="url(#pfbd930a061)">
     <use xlink:href="#C0_0_f6874d1b37" x="288.200516" y="255.607384" style="fill: #e9c46a; stroke: #ffffff; stroke-width: 0.6"/>
    </g>
    <g clip-path="url(#pfbd930a061)">
     <use xlink:href="#C0_0_f6874d1b37" x="336.293072" y="308.725297" style="fill: #e63946; stroke: #ffffff; stroke-width: 0.6"/>
    </g>
    <g clip-path="url(#pfbd930a061)">
     <use xlink:href="#C0_0_f6874d1b37" x="295.606526" y="331.450638" style="fill: #457b9d; stroke: #ffffff; stroke-width: 0.6"/>
    </g>
    <g clip-path="url(#pfbd930a061)">
     <use xlink:href="#C0_0_f6874d1b37" x="261.735736" y="350.28964" style="fill: #2a9d8f; stroke: #ffffff; stroke-width: 0.6"/>
    </g>
    <g clip-path="url(#pfbd930a061)">
     <use xlink:href="#C0_0_f6874d1b37" x="216.036063" y="362.590504" style="fill: #e9c46a; stroke: #ffffff; stroke-width: 0.6"/>
    </g>
    <g clip-path="url(#pfbd930a061)">
     <use xlink:href="#C0_0_f6874d1b37" x="165.677846" y="307.176628" style="fill: #e63946; stroke: #ffffff; stroke-width: 0.6"/>
    </g>
    <g clip-path="url(#pfbd930a061)">
     <use xlink:href="#C0_0_f6874d1b37" x="193.691786" y="333.268295" style="fill: #457b9d; stroke: #ffffff; stroke-width: 0.6"/>
    </g>
    <g clip-path="url(#pfbd930a061)">
     <use xlink:href="#C0_0_f6874d1b37" x="241.046284" y="293.113955" style="fill: #2a9d8f; stroke: #ffffff; stroke-width: 0.6"/>
    </g>
    <g clip-path="url(#pfbd930a061)">
     <use xlink:href="#C0_0_f6874d1b37" x="190.366111" y="280.807389" style="fill: #e9c46a; stroke: #ffffff; stroke-width: 0.6"/>
    </g>
    <g clip-path="url(#pfbd930a061)">
     <use xlink:href="#C0_0_f6874d1b37" x="170.763261" y="258.373392" style="fill: #e63946; stroke: #ffffff; stroke-width: 0.6"/>
    </g>
    <g clip-path="url(#pfbd930a061)">
     <use xlink:href="#C0_0_f6874d1b37" x="192.334509" y="211.728038" style="fill: #457b9d; stroke: #ffffff; stroke-width: 0.6"/>
    </g>
    <g clip-path="url(#pfbd930a061)">
     <use xlink:href="#C0_0_f6874d1b37" x="113.092027" y="231.189228" style="fill: #2a9d8f; stroke: #ffffff; stroke-width: 0.6"/>
    </g>
    <g clip-path="url(#pfbd930a061)">
     <use xlink:href="#C0_0_f6874d1b37" x="142.427775" y="190.526863" style="fill: #e9c46a; stroke: #ffffff; stroke-width: 0.6"/>
    </g>
    <g clip-path="url(#pfbd930a061)">
     <use xlink:href="#C0_0_f6874d1b37" x="43.993388" y="209.135202" style="fill: #e63946; stroke: #ffffff; stroke-width: 0.6"/>
    </g>
    <g clip-path="url(#pfbd930a061)">
     <use xlink:href="#C0_0_f6874d1b37" x="59.185378" y="173.572332" style="fill: #457b9d; stroke: #ffffff; stroke-width: 0.6"/>
    </g>
    <g clip-path="url(#pfbd930a061)">
     <use xlink:href="#C0_0_f6874d1b37" x="88.341137" y="209.40045" style="fill: #2a9d8f; stroke: #ffffff; stroke-width: 0.6"/>
    </g>
    <g clip-path="url(#pfbd930a061)">
     <use xlink:href="#C0_0_f6874d1b37" x="125.70856" y="143.211277" style="fill: #e9c46a; stroke: #ffffff; stroke-width: 0.6"/>
    </g>
    <g clip-path="url(#pfbd930a061)">
     <use xlink:href="#C0_0_f6874d1b37" x="50.139559" y="139.015923" style="fill: #e63946; stroke: #ffffff; stroke-width: 0.6"/>
    </g>
    <g clip-path="url(#pfbd930a061)">
     <use xlink:href="#C0_0_f6874d1b37" x="90.921109" y="114.146126" style="fill: #457b9d; stroke: #ffffff; stroke-width: 0.6"/>
    </g>
   </g>
   <g id="text_1">
    <g clip-path="url(#pfbd930a061)">
     <!-- 0 -->
     <g style="fill: #ffffff" transform="translate(60.659027 80.310163) scale(0.065 -0.065)">
      <defs>
       <path id="DejaVuSans-Bold-30" d="M 2944 2338 
Q 2944 3213 2780 3570 
Q 2616 3928 2228 3928 
Q 1841 3928 1675 3570 
Q 1509 3213 1509 2338 
Q 1509 1453 1675 1090 
Q 1841 728 2228 728 
Q 2613 728 2778 1090 
Q 2944 1453 2944 2338 
z
M 4147 2328 
Q 4147 1169 3647 539 
Q 3147 -91 2228 -91 
Q 1306 -91 806 539 
Q 306 1169 306 2328 
Q 306 3491 806 4120 
Q 1306 4750 2228 4750 
Q 3147 4750 3647 4120 
Q 4147 3491 4147 2328 
z
" transform="scale(0.015625)"/>
      </defs>
      <use xlink:href="#DejaVuSans-Bold-30"/>
     </g>
    </g>
   </g>
   <g id="text_2">
    <g clip-path="url(#pfbd930a061)">
     <!-- 1 -->
     <g style="fill: #ffffff" transform="translate(111.18676 56.879965) scale(0.065 -0.065)">
      <defs>
       <path id="DejaVuSans-Bold-31" d="M 750 831 
L 1813 831 
L 1813 3847 
L 722 3622 
L 722 4441 
L 1806 4666 
L 2950 4666 
L 2950 831 
L 4013 831 
L 4013 0 
L 750 0 
L 750 831 
z
" transform="scale(0.015625)"/>
      </defs>
      <use xlink:href="#DejaVuSans-Bold-31"/>
     </g>
    </g>
   </g>
   <g id="text_3">
    <g clip-path="url(#pfbd930a061)">
     <!-- 2 -->
     <g style="fill: #ffffff" transform="translate(151.48302 78.999895) scale(0.065 -0.065)">
      <defs>
       <path id="DejaVuSans-Bold-32" d="M 1844 884 
L 3897 884 
L 3897 0 
L 506 0 
L 506 884 
L 2209 2388 
Q 2438 2594 2547 2791 
Q 2656 2988 2656 3200 
Q 2656 3528 2436 3728 
Q 2216 3928 1850 3928 
Q 1569 3928 1234 3808 
Q 900 3688 519 3450 
L 519 4475 
Q 925 4609 1322 4679 
Q 1719 4750 2100 4750 
Q 2938 4750 3402 4381 
Q 3866 4013 3866 3353 
Q 3866 2972 3669 2642 
Q 3472 2313 2841 1759 
L 1844 884 
z
" transform="scale(0.015625)"/>
      </defs>
      <use xlink:href="#DejaVuSans-Bold-32"/>
     </g>
    </g>
   </g>
   <g id="text_4">
    <g clip-path="url(#pfbd930a061)">
     <!-- 3 -->
     <g style="fill: #ffffff" transform="translate(204.752484 67.017351) scale(0.065 -0.065)">
      <defs>
       <path id="DejaVuSans-Bold-33" d="M 2981 2516 
Q 3453 2394 3698 2092 
Q 3944 1791 3944 1325 
Q 3944 631 3412 270 
Q 2881 -91 1863 -91 
Q 1503 -91 1142 -33 
Q 781 25 428 141 
L 428 1069 
Q 766 900 1098 814 
Q 1431 728 1753 728 
Q 2231 728 2486 893 
Q 2741 1059 2741 1369 
Q 2741 1688 2480 1852 
Q 2219 2016 1709 2016 
L 1228 2016 
L 1228 2791 
L 1734 2791 
Q 2188 2791 2409 2933 
Q 2631 3075 2631 3366 
Q 2631 3634 2415 3781 
Q 2200 3928 1806 3928 
Q 1516 3928 1219 3862 
Q 922 3797 628 3669 
L 628 4550 
Q 984 4650 1334 4700 
Q 1684 4750 2022 4750 
Q 2931 4750 3382 4451 
Q 3834 4153 3834 3553 
Q 3834 3144 3618 2883 
Q 3403 2622 2981 2516 
z
" transform="scale(0.015625)"/>
      </defs>
      <use xlink:href="#DejaVuSans-Bold-33"/>
     </g>
    </g>
   </g>
   <g id="text_5">
    <g clip-path="url(#pfbd930a061)">
     <!-- 4 -->
     <g style="fill: #ffffff" transform="translate(259.648035 84.09678) scale(0.065 -0.065)">
      <defs>
       <path id="DejaVuSans-Bold-34" d="M 2356 3675 
L 1038 1722 
L 2356 1722 
L 2356 3675 
z
M 2156 4666 
L 3494 4666 
L 3494 1722 
L 4159 1722 
L 4159 850 
L 3494 850 
L 3494 0 
L 2356 0 
L 2356 850 
L 288 850 
L 288 1881 
L 2156 4666 
z
" transform="scale(0.015625)"/>
      </defs>
      <use xlink:href="#DejaVuSans-Bold-34"/>
     </g>
    </g>
   </g>
   <g id="text_6">
    <g clip-path="url(#pfbd930a061)">
     <!-- 5 -->
     <g style="fill: #ffffff" transform="translate(245.482945 133.00411) scale(0.065 -0.065)">
      <defs>
       <path id="DejaVuSans-Bold-35" d="M 678 4666 
L 3669 4666 
L 3669 3781 
L 1638 3781 
L 1638 3059 
Q 1775 3097 1914 3117 
Q 2053 3138 2203 3138 
Q 3056 3138 3531 2711 
Q 4006 2284 4006 1522 
Q 4006 766 3489 337 
Q 2972 -91 2053 -91 
Q 1656 -91 1267 -14 
Q 878 63 494 219 
L 494 1166 
Q 875 947 1217 837 
Q 1559 728 1863 728 
Q 2300 728 2551 942 
Q 2803 1156 2803 1522 
Q 2803 1891 2551 2103 
Q 2300 2316 1863 2316 
Q 1603 2316 1309 2248 
Q 1016 2181 678 2041 
L 678 4666 
z
" transform="scale(0.015625)"/>
      </defs>
      <use xlink:href="#DejaVuSans-Bold-35"/>
     </g>
    </g>
   </g>
   <g id="text_7">
    <g clip-path="url(#pfbd930a061)">
     <!-- 6 -->
     <g style="fill: #ffffff" transform="translate(339.645576 124.632325) scale(0.065 -0.065)">
      <defs>
       <path id="DejaVuSans-Bold-36" d="M 2316 2303 
Q 2000 2303 1842 2098 
Q 1684 1894 1684 1484 
Q 1684 1075 1842 870 
Q 2000 666 2316 666 
Q 2634 666 2792 870 
Q 2950 1075 2950 1484 
Q 2950 1894 2792 2098 
Q 2634 2303 2316 2303 
z
M 3803 4544 
L 3803 3681 
Q 3506 3822 3243 3889 
Q 2981 3956 2731 3956 
Q 2194 3956 1894 3657 
Q 1594 3359 1544 2772 
Q 1750 2925 1990 3001 
Q 2231 3078 2516 3078 
Q 3231 3078 3670 2659 
Q 4109 2241 4109 1563 
Q 4109 813 3618 361 
Q 3128 -91 2303 -91 
Q 1394 -91 895 523 
Q 397 1138 397 2266 
Q 397 3422 980 4083 
Q 1563 4744 2578 4744 
Q 2900 4744 3203 4694 
Q 3506 4644 3803 4544 
z
" transform="scale(0.015625)"/>
      </defs>
      <use xlink:href="#DejaVuSans-Bold-36"/>
     </g>
    </g>
   </g>
   <g id="text_8">
    <g clip-path="url(#pfbd930a061)">
     <!-- 7 -->
     <g style="fill: #ffffff" transform="translate(357.168488 157.747251) scale(0.065 -0.065)">
      <defs>
       <path id="DejaVuSans-Bold-37" d="M 428 4666 
L 3944 4666 
L 3944 3988 
L 2125 0 
L 953 0 
L 2675 3781 
L 428 3781 
L 428 4666 
z
" transform="scale(0.015625)"/>
      </defs>
      <use xlink:href="#DejaVuSans-Bold-37"/>
     </g>
    </g>
   </g>
   <g id="text_9">
    <g clip-path="url(#pfbd930a061)">
     <!-- 8 -->
     <g style="fill: #ffffff" transform="translate(392.145323 186.676783) scale(0.065 -0.065)">
      <defs>
       <path id="DejaVuSans-Bold-38" d="M 2228 2088 
Q 1891 2088 1709 1903 
Q 1528 1719 1528 1375 
Q 1528 1031 1709 848 
Q 1891 666 2228 666 
Q 2563 666 2741 848 
Q 2919 1031 2919 1375 
Q 2919 1722 2741 1905 
Q 2563 2088 2228 2088 
z
M 1350 2484 
Q 925 2613 709 2878 
Q 494 3144 494 3541 
Q 494 4131 934 4440 
Q 1375 4750 2228 4750 
Q 3075 4750 3515 4442 
Q 3956 4134 3956 3541 
Q 3956 3144 3739 2878 
Q 3522 2613 3097 2484 
Q 3572 2353 3814 2058 
Q 4056 1763 4056 1313 
Q 4056 619 3595 264 
Q 3134 -91 2228 -91 
Q 1319 -91 855 264 
Q 391 619 391 1313 
Q 391 1763 633 2058 
Q 875 2353 1350 2484 
z
M 1631 3419 
Q 1631 3141 1786 2991 
Q 1941 2841 2228 2841 
Q 2509 2841 2662 2991 
Q 2816 3141 2816 3419 
Q 2816 3697 2662 3845 
Q 2509 3994 2228 3994 
Q 1941 3994 1786 3844 
Q 1631 3694 1631 3419 
z
" transform="scale(0.015625)"/>
      </defs>
      <use xlink:href="#DejaVuSans-Bold-38"/>
     </g>
    </g>
   </g>
   <g id="text_10">
    <g clip-path="url(#pfbd930a061)">
     <!-- 9 -->
     <g style="fill: #ffffff" transform="translate(374.139471 217.535387) scale(0.065 -0.065)">
      <defs>
       <path id="DejaVuSans-Bold-39" d="M 641 103 
L 641 966 
Q 928 831 1190 764 
Q 1453 697 1709 697 
Q 2247 697 2547 995 
Q 2847 1294 2900 1881 
Q 2688 1725 2447 1647 
Q 2206 1569 1925 1569 
Q 1209 1569 770 1986 
Q 331 2403 331 3084 
Q 331 3838 820 4291 
Q 1309 4744 2131 4744 
Q 3044 4744 3544 4128 
Q 4044 3513 4044 2388 
Q 4044 1231 3459 570 
Q 2875 -91 1856 -91 
Q 1528 -91 1228 -42 
Q 928 6 641 103 
z
M 2125 2350 
Q 2441 2350 2600 2554 
Q 2759 2759 2759 3169 
Q 2759 3575 2600 3781 
Q 2441 3988 2125 3988 
Q 1809 3988 1650 3781 
Q 1491 3575 1491 3169 
Q 1491 2759 1650 2554 
Q 1809 2350 2125 2350 
z
" transform="scale(0.015625)"/>
      </defs>
      <use xlink:href="#DejaVuSans-Bold-39"/>
     </g>
    </g>
   </g>
   <g id="text_11">
    <g clip-path="url(#pfbd930a061)">
     <!-- 10 -->
     <g style="fill: #ffffff" transform="translate(348.573812 257.408602) scale(0.065 -0.065)">
      <use xlink:href="#DejaVuSans-Bold-31"/>
      <use xlink:href="#DejaVuSans-Bold-30" transform="translate(69.580078 0)"/>
     </g>
    </g>
   </g>
   <g id="text_12">
    <g clip-path="url(#pfbd930a061)">
     <!-- 11 -->
     <g style="fill: #ffffff" transform="translate(283.677938 257.400977) scale(0.065 -0.065)">
      <use xlink:href="#DejaVuSans-Bold-31"/>
      <use xlink:href="#DejaVuSans-Bold-31" transform="translate(69.580078 0)"/>
     </g>
    </g>
   </g>
   <g id="text_13">
    <g clip-path="url(#pfbd930a061)">
     <!-- 12 -->
     <g style="fill: #ffffff" transform="translate(331.770493 310.518891) scale(0.065 -0.065)">
      <use xlink:href="#DejaVuSans-Bold-31"/>
      <use xlink:href="#DejaVuSans-Bold-32" transform="translate(69.580078 0)"/>
     </g>
    </g>
   </g>
   <g id="text_14">
    <g clip-path="url(#pfbd930a061)">
     <!-- 13 -->
     <g style="fill: #ffffff" transform="translate(291.083948 333.244232) scale(0.065 -0.065)">
      <use xlink:href="#DejaVuSans-Bold-31"/>
      <use xlink:href="#DejaVuSans-Bold-33" transform="translate(69.580078 0)"/>
     </g>
    </g>
   </g>
   <g id="text_15">
    <g clip-path="url(#pfbd930a061)">
     <!-- 14 -->
     <g style="fill: #ffffff" transform="translate(257.213158 352.083234) scale(0.065 -0.065)">
      <use xlink:href="#DejaVuSans-Bold-31"/>
      <use xlink:href="#DejaVuSans-Bold-34" transform="translate(69.580078 0)"/>
     </g>
    </g>
   </g>
   <g id="text_16">
    <g clip-path="url(#pfbd930a061)">
     <!-- 15 -->
     <g style="fill: #ffffff" transform="translate(211.513485 364.384097) scale(0.065 -0.065)">
      <use xlink:href="#DejaVuSans-Bold-31"/>
      <use xlink:href="#DejaVuSans-Bold-35" transform="translate(69.580078 0)"/>
     </g>
    </g>
   </g>
   <g id="text_17">
    <g clip-path="url(#pfbd930a061)">
     <!-- 16 -->
     <g style="fill: #ffffff" transform="translate(161.155268 308.970222) scale(0.065 -0.065)">
      <use xlink:href="#DejaVuSans-Bold-31"/>
      <use xlink:href="#DejaVuSans-Bold-36" transform="translate(69.580078 0)"/>
     </g>
    </g>
   </g>
   <g id="text_18">
    <g clip-path="url(#pfbd930a061)">
     <!-- 17 -->
     <g style="fill: #ffffff" transform="translate(189.169208 335.061889) scale(0.065 -0.065)">
      <use xlink:href="#DejaVuSans-Bold-31"/>
      <use xlink:href="#DejaVuSans-Bold-37" transform="translate(69.580078 0)"/>
     </g>
    </g>
   </g>
   <g id="text_19">
    <g clip-path="url(#pfbd930a061)">
     <!-- 18 -->
     <g style="fill: #ffffff" transform="translate(236.523706 294.907549) scale(0.065 -0.065)">
      <use xlink:href="#DejaVuSans-Bold-31"/>
      <use xlink:href="#DejaVuSans-Bold-38" transform="translate(69.580078 0)"/>
     </g>
    </g>
   </g>
   <g id="text_20">
    <g clip-path="url(#pfbd930a061)">
     <!-- 19 -->
     <g style="fill: #ffffff" transform="translate(185.843533 282.600982) scale(0.065 -0.065)">
      <use xlink:href="#DejaVuSans-Bold-31"/>
      <use xlink:href="#DejaVuSans-Bold-39" transform="translate(69.580078 0)"/>
     </g>
    </g>
   </g>
   <g id="text_21">
    <g clip-path="url(#pfbd930a061)">
     <!-- 20 -->
     <g style="fill: #ffffff" transform="translate(166.240683 260.166986) scale(0.065 -0.065)">
      <use xlink:href="#DejaVuSans-Bold-32"/>
      <use xlink:href="#DejaVuSans-Bold-30" transform="translate(69.580078 0)"/>
     </g>
    </g>
   </g>
   <g id="text_22">
    <g clip-path="url(#pfbd930a061)">
     <!-- 21 -->
     <g style="fill: #ffffff" transform="translate(187.81193 213.521631) scale(0.065 -0.065)">
      <use xlink:href="#DejaVuSans-Bold-32"/>
      <use xlink:href="#DejaVuSans-Bold-31" transform="translate(69.580078 0)"/>
     </g>
    </g>
   </g>
   <g id="text_23">
    <g clip-path="url(#pfbd930a061)">
     <!-- 22 -->
     <g style="fill: #ffffff" transform="translate(108.569449 232.982822) scale(0.065 -0.065)">
      <use xlink:href="#DejaVuSans-Bold-32"/>
      <use xlink:href="#DejaVuSans-Bold-32" transform="translate(69.580078 0)"/>
     </g>
    </g>
   </g>
   <g id="text_24">
    <g clip-path="url(#pfbd930a061)">
     <!-- 23 -->
     <g style="fill: #ffffff" transform="translate(137.905197 192.320456) scale(0.065 -0.065)">
      <use xlink:href="#DejaVuSans-Bold-32"/>
      <use xlink:href="#DejaVuSans-Bold-33" transform="translate(69.580078 0)"/>
     </g>
    </g>
   </g>
   <g id="text_25">
    <g clip-path="url(#pfbd930a061)">
     <!-- 24 -->
     <g style="fill: #ffffff" transform="translate(39.47081 210.928796) scale(0.065 -0.065)">
      <use xlink:href="#DejaVuSans-Bold-32"/>
      <use xlink:href="#DejaVuSans-Bold-34" transform="translate(69.580078 0)"/>
     </g>
    </g>
   </g>
   <g id="text_26">
    <g clip-path="url(#pfbd930a061)">
     <!-- 25 -->
     <g style="fill: #ffffff" transform="translate(54.662799 175.365926) scale(0.065 -0.065)">
      <use xlink:href="#DejaVuSans-Bold-32"/>
      <use xlink:href="#DejaVuSans-Bold-35" transform="translate(69.580078 0)"/>
     </g>
    </g>
   </g>
   <g id="text_27">
    <g clip-path="url(#pfbd930a061)">
     <!-- 26 -->
     <g style="fill: #ffffff" transform="translate(83.818558 211.194044) scale(0.065 -0.065)">
      <use xlink:href="#DejaVuSans-Bold-32"/>
      <use xlink:href="#DejaVuSans-Bold-36" transform="translate(69.580078 0)"/>
     </g>
    </g>
   </g>
   <g id="text_28">
    <g clip-path="url(#pfbd930a061)">
     <!-- 27 -->
     <g style="fill: #ffffff" transform="translate(121.185982 145.004871) scale(0.065 -0.065)">
      <use xlink:href="#DejaVuSans-Bold-32"/>
      <use xlink:href="#DejaVuSans-Bold-37" transform="translate(69.580078 0)"/>
     </g>
    </g>
   </g>
   <g id="text_29">
    <g clip-path="url(#pfbd930a061)">
     <!-- 28 -->
     <g style="fill: #ffffff" transform="translate(45.616981 140.809517) scale(0.065 -0.065)">
      <use xlink:href="#DejaVuSans-Bold-32"/>
      <use xlink:href="#DejaVuSans-Bold-38" transform="translate(69.580078 0)"/>
     </g>
    </g>
   </g>
   <g id="text_30">
    <g clip-path="url(#pfbd930a061)">
     <!-- 29 -->
     <g style="fill: #ffffff" transform="translate(86.398531 115.93972) scale(0.065 -0.065)">
      <use xlink:href="#DejaVuSans-Bold-32"/>
      <use xlink:href="#DejaVuSans-Bold-39" transform="translate(69.580078 0)"/>
     </g>
    </g>
   </g>
   <g id="text_31">
    <!-- Community Structure of a 30-Node Network -->
    <g transform="translate(109.083594 14.798437) scale(0.1 -0.1)">
     <defs>
      <path id="DejaVuSans-43" d="M 4122 4306 
L 4122 3641 
Q 3803 3938 3442 4084 
Q 3081 4231 2675 4231 
Q 1875 4231 1450 3742 
Q 1025 3253 1025 2328 
Q 1025 1406 1450 917 
Q 1875 428 2675 428 
Q 3081 428 3442 575 
Q 3803 722 4122 1019 
L 4122 359 
Q 3791 134 3420 21 
Q 3050 -91 2638 -91 
Q 1578 -91 968 557 
Q 359 1206 359 2328 
Q 359 3453 968 4101 
Q 1578 4750 2638 4750 
Q 3056 4750 3426 4639 
Q 3797 4528 4122 4306 
z
" transform="scale(0.015625)"/>
      <path id="DejaVuSans-6f" d="M 1959 3097 
Q 1497 3097 1228 2736 
Q 959 2375 959 1747 
Q 959 1119 1226 758 
Q 1494 397 1959 397 
Q 2419 397 2687 759 
Q 2956 1122 2956 1747 
Q 2956 2369 2687 2733 
Q 2419 3097 1959 3097 
z
M 1959 3584 
Q 2709 3584 3137 3096 
Q 3566 2609 3566 1747 
Q 3566 888 3137 398 
Q 2709 -91 1959 -91 
Q 1206 -91 779 398 
Q 353 888 353 1747 
Q 353 2609 779 3096 
Q 1206 3584 1959 3584 
z
" transform="scale(0.015625)"/>
      <path id="DejaVuSans-6d" d="M 3328 2828 
Q 3544 3216 3844 3400 
Q 4144 3584 4550 3584 
Q 5097 3584 5394 3201 
Q 5691 2819 5691 2113 
L 5691 0 
L 5113 0 
L 5113 2094 
Q 5113 2597 4934 2840 
Q 4756 3084 4391 3084 
Q 3944 3084 3684 2787 
Q 3425 2491 3425 1978 
L 3425 0 
L 2847 0 
L 2847 2094 
Q 2847 2600 2669 2842 
Q 2491 3084 2119 3084 
Q 1678 3084 1418 2786 
Q 1159 2488 1159 1978 
L 1159 0 
L 581 0 
L 581 3500 
L 1159 3500 
L 1159 2956 
Q 1356 3278 1631 3431 
Q 1906 3584 2284 3584 
Q 2666 3584 2933 3390 
Q 3200 3197 3328 2828 
z
" transform="scale(0.015625)"/>
      <path id="DejaVuSans-75" d="M 544 1381 
L 544 3500 
L 1119 3500 
L 1119 1403 
Q 1119 906 1312 657 
Q 1506 409 1894 409 
Q 2359 409 2629 706 
Q 2900 1003 2900 1516 
L 2900 3500 
L 3475 3500 
L 3475 0 
L 2900 0 
L 2900 538 
Q 2691 219 2414 64 
Q 2138 -91 1772 -91 
Q 1169 -91 856 284 
Q 544 659 544 1381 
z
M 1991 3584 
L 1991 3584 
z
" transform="scale(0.015625)"/>
      <path id="DejaVuSans-6e" d="M 3513 2113 
L 3513 0 
L 2938 0 
L 2938 2094 
Q 2938 2591 2744 2837 
Q 2550 3084 2163 3084 
Q 1697 3084 1428 2787 
Q 1159 2491 1159 1978 
L 1159 0 
L 581 0 
L 581 3500 
L 1159 3500 
L 1159 2956 
Q 1366 3272 1645 3428 
Q 1925 3584 2291 3584 
Q 2894 3584 3203 3211 
Q 3513 2838 3513 2113 
z
" transform="scale(0.015625)"/>
      <path id="DejaVuSans-69" d="M 603 3500 
L 1178 3500 
L 1178 0 
L 603 0 
L 603 3500 
z
M 603 4863 
L 1178 4863 
L 1178 4134 
L 603 4134 
L 603 4863 
z
" transform="scale(0.015625)"/>
      <path id="DejaVuSans-74" d="M 1172 4494 
L 1172 3500 
L 2356 3500 
L 2356 3053 
L 1172 3053 
L 1172 1153 
Q 1172 725 1289 603 
Q 1406 481 1766 481 
L 2356 481 
L 2356 0 
L 1766 0 
Q 1100 0 847 248 
Q 594 497 594 1153 
L 594 3053 
L 172 3053 
L 172 3500 
L 594 3500 
L 594 4494 
L 1172 4494 
z
" transform="scale(0.015625)"/>
      <path id="DejaVuSans-79" d="M 2059 -325 
Q 1816 -950 1584 -1140 
Q 1353 -1331 966 -1331 
L 506 -1331 
L 506 -850 
L 844 -850 
Q 1081 -850 1212 -737 
Q 1344 -625 1503 -206 
L 1606 56 
L 191 3500 
L 800 3500 
L 1894 763 
L 2988 3500 
L 3597 3500 
L 2059 -325 
z
" transform="scale(0.015625)"/>
      <path id="DejaVuSans-20" transform="scale(0.015625)"/>
      <path id="DejaVuSans-53" d="M 3425 4513 
L 3425 3897 
Q 3066 4069 2747 4153 
Q 2428 4238 2131 4238 
Q 1616 4238 1336 4038 
Q 1056 3838 1056 3469 
Q 1056 3159 1242 3001 
Q 1428 2844 1947 2747 
L 2328 2669 
Q 3034 2534 3370 2195 
Q 3706 1856 3706 1288 
Q 3706 609 3251 259 
Q 2797 -91 1919 -91 
Q 1588 -91 1214 -16 
Q 841 59 441 206 
L 441 856 
Q 825 641 1194 531 
Q 1563 422 1919 422 
Q 2459 422 2753 634 
Q 3047 847 3047 1241 
Q 3047 1584 2836 1778 
Q 2625 1972 2144 2069 
L 1759 2144 
Q 1053 2284 737 2584 
Q 422 2884 422 3419 
Q 422 4038 858 4394 
Q 1294 4750 2059 4750 
Q 2388 4750 2728 4690 
Q 3069 4631 3425 4513 
z
" transform="scale(0.015625)"/>
      <path id="DejaVuSans-72" d="M 2631 2963 
Q 2534 3019 2420 3045 
Q 2306 3072 2169 3072 
Q 1681 3072 1420 2755 
Q 1159 2438 1159 1844 
L 1159 0 
L 581 0 
L 581 3500 
L 1159 3500 
L 1159 2956 
Q 1341 3275 1631 3429 
Q 1922 3584 2338 3584 
Q 2397 3584 2469 3576 
Q 2541 3569 2628 3553 
L 2631 2963 
z
" transform="scale(0.015625)"/>
      <path id="DejaVuSans-63" d="M 3122 3366 
L 3122 2828 
Q 2878 2963 2633 3030 
Q 2388 3097 2138 3097 
Q 1578 3097 1268 2742 
Q 959 2388 959 1747 
Q 959 1106 1268 751 
Q 1578 397 2138 397 
Q 2388 397 2633 464 
Q 2878 531 3122 666 
L 3122 134 
Q 2881 22 2623 -34 
Q 2366 -91 2075 -91 
Q 1284 -91 818 406 
Q 353 903 353 1747 
Q 353 2603 823 3093 
Q 1294 3584 2113 3584 
Q 2378 3584 2631 3529 
Q 2884 3475 3122 3366 
z
" transform="scale(0.015625)"/>
      <path id="DejaVuSans-65" d="M 3597 1894 
L 3597 1613 
L 953 1613 
Q 991 1019 1311 708 
Q 1631 397 2203 397 
Q 2534 397 2845 478 
Q 3156 559 3463 722 
L 3463 178 
Q 3153 47 2828 -22 
Q 2503 -91 2169 -91 
Q 1331 -91 842 396 
Q 353 884 353 1716 
Q 353 2575 817 3079 
Q 1281 3584 2069 3584 
Q 2775 3584 3186 3129 
Q 3597 2675 3597 1894 
z
M 3022 2063 
Q 3016 2534 2758 2815 
Q 2500 3097 2075 3097 
Q 1594 3097 1305 2825 
Q 1016 2553 972 2059 
L 3022 2063 
z
" transform="scale(0.015625)"/>
      <path id="DejaVuSans-66" d="M 2375 4863 
L 2375 4384 
L 1825 4384 
Q 1516 4384 1395 4259 
Q 1275 4134 1275 3809 
L 1275 3500 
L 2222 3500 
L 2222 3053 
L 1275 3053 
L 1275 0 
L 697 0 
L 697 3053 
L 147 3053 
L 147 3500 
L 697 3500 
L 697 3744 
Q 697 4328 969 4595 
Q 1241 4863 1831 4863 
L 2375 4863 
z
" transform="scale(0.015625)"/>
      <path id="DejaVuSans-61" d="M 2194 1759 
Q 1497 1759 1228 1600 
Q 959 1441 959 1056 
Q 959 750 1161 570 
Q 1363 391 1709 391 
Q 2188 391 2477 730 
Q 2766 1069 2766 1631 
L 2766 1759 
L 2194 1759 
z
M 3341 1997 
L 3341 0 
L 2766 0 
L 2766 531 
Q 2569 213 2275 61 
Q 1981 -91 1556 -91 
Q 1019 -91 701 211 
Q 384 513 384 1019 
Q 384 1609 779 1909 
Q 1175 2209 1959 2209 
L 2766 2209 
L 2766 2266 
Q 2766 2663 2505 2880 
Q 2244 3097 1772 3097 
Q 1472 3097 1187 3025 
Q 903 2953 641 2809 
L 641 3341 
Q 956 3463 1253 3523 
Q 1550 3584 1831 3584 
Q 2591 3584 2966 3190 
Q 3341 2797 3341 1997 
z
" transform="scale(0.015625)"/>
      <path id="DejaVuSans-33" d="M 2597 2516 
Q 3050 2419 3304 2112 
Q 3559 1806 3559 1356 
Q 3559 666 3084 287 
Q 2609 -91 1734 -91 
Q 1441 -91 1130 -33 
Q 819 25 488 141 
L 488 750 
Q 750 597 1062 519 
Q 1375 441 1716 441 
Q 2309 441 2620 675 
Q 2931 909 2931 1356 
Q 2931 1769 2642 2001 
Q 2353 2234 1838 2234 
L 1294 2234 
L 1294 2753 
L 1863 2753 
Q 2328 2753 2575 2939 
Q 2822 3125 2822 3475 
Q 2822 3834 2567 4026 
Q 2313 4219 1838 4219 
Q 1578 4219 1281 4162 
Q 984 4106 628 3988 
L 628 4550 
Q 988 4650 1302 4700 
Q 1616 4750 1894 4750 
Q 2613 4750 3031 4423 
Q 3450 4097 3450 3541 
Q 3450 3153 3228 2886 
Q 3006 2619 2597 2516 
z
" transform="scale(0.015625)"/>
      <path id="DejaVuSans-30" d="M 2034 4250 
Q 1547 4250 1301 3770 
Q 1056 3291 1056 2328 
Q 1056 1369 1301 889 
Q 1547 409 2034 409 
Q 2525 409 2770 889 
Q 3016 1369 3016 2328 
Q 3016 3291 2770 3770 
Q 2525 4250 2034 4250 
z
M 2034 4750 
Q 2819 4750 3233 4129 
Q 3647 3509 3647 2328 
Q 3647 1150 3233 529 
Q 2819 -91 2034 -91 
Q 1250 -91 836 529 
Q 422 1150 422 2328 
Q 422 3509 836 4129 
Q 1250 4750 2034 4750 
z
" transform="scale(0.015625)"/>
      <path id="DejaVuSans-2d" d="M 313 2009 
L 1997 2009 
L 1997 1497 
L 313 1497 
L 313 2009 
z
" transform="scale(0.015625)"/>
      <path id="DejaVuSans-4e" d="M 628 4666 
L 1478 4666 
L 3547 763 
L 3547 4666 
L 4159 4666 
L 4159 0 
L 3309 0 
L 1241 3903 
L 1241 0 
L 628 0 
L 628 4666 
z
" transform="scale(0.015625)"/>
      <path id="DejaVuSans-64" d="M 2906 2969 
L 2906 4863 
L 3481 4863 
L 3481 0 
L 2906 0 
L 2906 525 
Q 2725 213 2448 61 
Q 2172 -91 1784 -91 
Q 1150 -91 751 415 
Q 353 922 353 1747 
Q 353 2572 751 3078 
Q 1150 3584 1784 3584 
Q 2172 3584 2448 3432 
Q 2725 3281 2906 2969 
z
M 947 1747 
Q 947 1113 1208 752 
Q 1469 391 1925 391 
Q 2381 391 2643 752 
Q 2906 1113 2906 1747 
Q 2906 2381 2643 2742 
Q 2381 3103 1925 3103 
Q 1469 3103 1208 2742 
Q 947 2381 947 1747 
z
" transform="scale(0.015625)"/>
      <path id="DejaVuSans-77" d="M 269 3500 
L 844 3500 
L 1563 769 
L 2278 3500 
L 2956 3500 
L 3675 769 
L 4391 3500 
L 4966 3500 
L 4050 0 
L 3372 0 
L 2619 2869 
L 1863 0 
L 1184 0 
L 269 3500 
z
" transform="scale(0.015625)"/>
      <path id="DejaVuSans-6b" d="M 581 4863 
L 1159 4863 
L 1159 1991 
L 2875 3500 
L 3609 3500 
L 1753 1863 
L 3688 0 
L 2938 0 
L 1159 1709 
L 1159 0 
L 581 0 
L 581 4863 
z
" transform="scale(0.015625)"/>
     </defs>
     <use xlink:href="#DejaVuSans-43"/>
     <use xlink:href="#DejaVuSans-6f" transform="translate(69.824219 0)"/>
     <use xlink:href="#DejaVuSans-6d" transform="translate(131.005859 0)"/>
     <use xlink:href="#DejaVuSans-6d" transform="translate(228.417969 0)"/>
     <use xlink:href="#DejaVuSans-75" transform="translate(325.830078 0)"/>
     <use xlink:href="#DejaVuSans-6e" transform="translate(389.208984 0)"/>
     <use xlink:href="#DejaVuSans-69" transform="translate(452.587891 0)"/>
     <use xlink:href="#DejaVuSans-74" transform="translate(480.371094 0)"/>
     <use xlink:href="#DejaVuSans-79" transform="translate(519.580078 0)"/>
     <use xlink:href="#DejaVuSans-20" transform="translate(578.759766 0)"/>
     <use xlink:href="#DejaVuSans-53" transform="translate(610.546875 0)"/>
     <use xlink:href="#DejaVuSans-74" transform="translate(674.023438 0)"/>
     <use xlink:href="#DejaVuSans-72" transform="translate(713.232422 0)"/>
     <use xlink:href="#DejaVuSans-75" transform="translate(754.345703 0)"/>
     <use xlink:href="#DejaVuSans-63" transform="translate(817.724609 0)"/>
     <use xlink:href="#DejaVuSans-74" transform="translate(872.705078 0)"/>
     <use xlink:href="#DejaVuSans-75" transform="translate(911.914062 0)"/>
     <use xlink:href="#DejaVuSans-72" transform="translate(975.292969 0)"/>
     <use xlink:href="#DejaVuSans-65" transform="translate(1014.15625 0)"/>
     <use xlink:href="#DejaVuSans-20" transform="translate(1075.679688 0)"/>
     <use xlink:href="#DejaVuSans-6f" transform="translate(1107.466797 0)"/>
     <use xlink:href="#DejaVuSans-66" transform="translate(1168.648438 0)"/>
     <use xlink:href="#DejaVuSans-20" transform="translate(1203.853516 0)"/>
     <use xlink:href="#DejaVuSans-61" transform="translate(1235.640625 0)"/>
     <use xlink:href="#DejaVuSans-20" transform="translate(1296.919922 0)"/>
     <use xlink:href="#DejaVuSans-33" transform="translate(1328.707031 0)"/>
     <use xlink:href="#DejaVuSans-30" transform="translate(1392.330078 0)"/>
     <use xlink:href="#DejaVuSans-2d" transform="translate(1455.953125 0)"/>
     <use xlink:href="#DejaVuSans-4e" transform="translate(1492.037109 0)"/>
     <use xlink:href="#DejaVuSans-6f" transform="translate(1566.841797 0)"/>
     <use xlink:href="#DejaVuSans-64" transform="translate(1628.023438 0)"/>
     <use xlink:href="#DejaVuSans-65" transform="translate(1691.5 0)"/>
     <use xlink:href="#DejaVuSans-20" transform="translate(1753.023438 0)"/>
     <use xlink:href="#DejaVuSans-4e" transform="translate(1784.810547 0)"/>
     <use xlink:href="#DejaVuSans-65" transform="translate(1859.615234 0)"/>
     <use xlink:href="#DejaVuSans-74" transform="translate(1921.138672 0)"/>
     <use xlink:href="#DejaVuSans-77" transform="translate(1960.347656 0)"/>
     <use xlink:href="#DejaVuSans-6f" transform="translate(2042.134766 0)"/>
     <use xlink:href="#DejaVuSans-72" transform="translate(2103.316406 0)"/>
     <use xlink:href="#DejaVuSans-6b" transform="translate(2144.429688 0)"/>
    </g>
   </g>
   <g id="legend_1">
    <g id="patch_2">
     <path d="M 352.4675 77.133437 
L 425.6 77.133437 
Q 427.2 77.133437 427.2 75.533437 
L 427.2 28.398437 
Q 427.2 26.798437 425.6 26.798437 
L 352.4675 26.798437 
Q 350.8675 26.798437 350.8675 28.398437 
L 350.8675 75.533437 
Q 350.8675 77.133437 352.4675 77.133437 
z
" style="fill: #ffffff; opacity: 0.85; stroke: #cccccc; stroke-linejoin: miter"/>
    </g>
    <g id="patch_3">
     <path d="M 354.0675 37.158437 
L 363.6675 37.158437 
L 363.6675 29.998437 
L 354.0675 29.998437 
z
" style="fill: #e63946; stroke: #e63946; stroke-linejoin: miter"/>
    </g>
    <g id="text_32">
     <!-- Community 0 -->
     <g transform="translate(370.0675 36.318437) scale(0.08 -0.08)">
      <use xlink:href="#DejaVuSans-43"/>
      <use xlink:href="#DejaVuSans-6f" transform="translate(69.824219 0)"/>
      <use xlink:href="#DejaVuSans-6d" transform="translate(131.005859 0)"/>
      <use xlink:href="#DejaVuSans-6d" transform="translate(228.417969 0)"/>
      <use xlink:href="#DejaVuSans-75" transform="translate(325.830078 0)"/>
      <use xlink:href="#DejaVuSans-6e" transform="translate(389.208984 0)"/>
      <use xlink:href="#DejaVuSans-69" transform="translate(452.587891 0)"/>
      <use xlink:href="#DejaVuSans-74" transform="translate(480.371094 0)"/>
      <use xlink:href="#DejaVuSans-79" transform="translate(519.580078 0)"/>
      <use xlink:href="#DejaVuSans-20" transform="translate(578.759766 0)"/>
      <use xlink:href="#DejaVuSans-30" transform="translate(610.546875 0)"/>
     </g>
    </g>
    <g id="patch_4">
     <path d="M 354.0675 49.142187 
L 363.6675 49.142187 
L 363.6675 41.982187 
L 354.0675 41.982187 
z
" style="fill: #457b9d; stroke: #457b9d; stroke-linejoin: miter"/>
    </g>
    <g id="text_33">
     <!-- Community 1 -->
     <g transform="translate(370.0675 48.302187) scale(0.08 -0.08)">
      <defs>
       <path id="DejaVuSans-31" d="M 794 531 
L 1825 531 
L 1825 4091 
L 703 3866 
L 703 4441 
L 1819 4666 
L 2450 4666 
L 2450 531 
L 3481 531 
L 3481 0 
L 794 0 
L 794 531 
z
" transform="scale(0.015625)"/>
      </defs>
      <use xlink:href="#DejaVuSans-43"/>
      <use xlink:href="#DejaVuSans-6f" transform="translate(69.824219 0)"/>
      <use xlink:href="#DejaVuSans-6d" transform="translate(131.005859 0)"/>
      <use xlink:href="#DejaVuSans-6d" transform="translate(228.417969 0)"/>
      <use xlink:href="#DejaVuSans-75" transform="translate(325.830078 0)"/>
      <use xlink:href="#DejaVuSans-6e" transform="translate(389.208984 0)"/>
      <use xlink:href="#DejaVuSans-69" transform="translate(452.587891 0)"/>
      <use xlink:href="#DejaVuSans-74" transform="translate(480.371094 0)"/>
      <use xlink:href="#DejaVuSans-79" transform="translate(519.580078 0)"/>
      <use xlink:href="#DejaVuSans-20" transform="translate(578.759766 0)"/>
      <use xlink:href="#DejaVuSans-31" transform="translate(610.546875 0)"/>
     </g>
    </g>
    <g id="patch_5">
     <path d="M 354.0675 61.125937 
L 363.6675 61.125937 
L 363.6675 53.965937 
L 354.0675 53.965937 
z
" style="fill: #2a9d8f; stroke: #2a9d8f; stroke-linejoin: miter"/>
    </g>
    <g id="text_34">
     <!-- Community 2 -->
     <g transform="translate(370.0675 60.285937) scale(0.08 -0.08)">
      <defs>
       <path id="DejaVuSans-32" d="M 1228 531 
L 3431 531 
L 3431 0 
L 469 0 
L 469 531 
Q 828 903 1448 1529 
Q 2069 2156 2228 2338 
Q 2531 2678 2651 2914 
Q 2772 3150 2772 3378 
Q 2772 3750 2511 3984 
Q 2250 4219 1831 4219 
Q 1534 4219 1204 4116 
Q 875 4013 500 3803 
L 500 4441 
Q 881 4594 1212 4672 
Q 1544 4750 1819 4750 
Q 2544 4750 2975 4387 
Q 3406 4025 3406 3419 
Q 3406 3131 3298 2873 
Q 3191 2616 2906 2266 
Q 2828 2175 2409 1742 
Q 1991 1309 1228 531 
z
" transform="scale(0.015625)"/>
      </defs>
      <use xlink:href="#DejaVuSans-43"/>
      <use xlink:href="#DejaVuSans-6f" transform="translate(69.824219 0)"/>
      <use xlink:href="#DejaVuSans-6d" transform="translate(131.005859 0)"/>
      <use xlink:href="#DejaVuSans-6d" transform="translate(228.417969 0)"/>
      <use xlink:href="#DejaVuSans-75" transform="translate(325.830078 0)"/>
      <use xlink:href="#DejaVuSans-6e" transform="translate(389.208984 0)"/>
      <use xlink:href="#DejaVuSans-69" transform="translate(452.587891 0)"/>
      <use xlink:href="#DejaVuSans-74" transform="translate(480.371094 0)"/>
      <use xlink:href="#DejaVuSans-79" transform="translate(519.580078 0)"/>
      <use xlink:href="#DejaVuSans-20" transform="translate(578.759766 0)"/>
      <use xlink:href="#DejaVuSans-32" transform="translate(610.546875 0)"/>
     </g>
    </g>
    <g id="patch_6">
     <path d="M 354.0675 73.109687 
L 363.6675 73.109687 
L 363.6675 65.949687 
L 354.0675 65.949687 
z
" style="fill: #e9c46a; stroke: #e9c46a; stroke-linejoin: miter"/>
    </g>
    <g id="text_35">
     <!-- Community 3 -->
     <g transform="translate(370.0675 72.269687) scale(0.08 -0.08)">
      <use xlink:href="#DejaVuSans-43"/>
      <use xlink:href="#DejaVuSans-6f" transform="translate(69.824219 0)"/>
      <use xlink:href="#DejaVuSans-6d" transform="translate(131.005859 0)"/>
      <use xlink:href="#DejaVuSans-6d" transform="translate(228.417969 0)"/>
      <use xlink:href="#DejaVuSans-75" transform="translate(325.830078 0)"/>
      <use xlink:href="#DejaVuSans-6e" transform="translate(389.208984 0)"/>
      <use xlink:href="#DejaVuSans-69" transform="translate(452.587891 0)"/>
      <use xlink:href="#DejaVuSans-74" transform="translate(480.371094 0)"/>
      <use xlink:href="#DejaVuSans-79" transform="translate(519.580078 0)"/>
      <use xlink:href="#DejaVuSans-20" transform="translate(578.759766 0)"/>
      <use xlink:href="#DejaVuSans-33" transform="translate(610.546875 0)"/>
     </g>
    </g>
   </g>
  </g>
 </g>
 <defs>
  <clipPath id="pfbd930a061">
   <rect x="7.2" y="22.798437" width="424" height="372.08"/>
  </clipPath>
 </defs>
</svg>
