<?xml version="1.0" encoding="utf-8" standalone="no"?>
<!DOCTYPE svg PUBLIC "-//W3C//DTD SVG 1.1//EN"
  "http://www.w3.org/Graphics/SVG/1.1/DTD/svg11.dtd">
<svg xmlns:xlink="http://www.w3.org/1999/xlink" width="402.941541pt" height="440.4pt" viewBox="0 0 402.941541 440.4" xmlns="http://www.w3.org/2000/svg" version="1.1">
 <metadata>
  <rdf:RDF xmlns:dc="http://purl.org/dc/elements/1.1/" xmlns:cc="http://creativecommons.org/ns#" xmlns:rdf="http://www.w3.org/1999/02/22-rdf-syntax-ns#">
   <cc:Work>
    <dc:type rdf:resource="http://purl.org/dc/dcmitype/StillImage"/>
    <dc:date>2026-05-25T08:57:33.289306</dc:date>
    <dc:format>image/svg+xml</dc:format>
    <dc:creator>
     <cc:Agent>
      <dc:title>Matplotlib v3.10.9, https://matplotlib.org/</dc:title>
     </cc:Agent>
    </dc:creator>
   </cc:Work>
  </rdf:RDF>
 </metadata>
 <defs>
  <style type="text/css">*{stroke-linejoin: round; stroke-linecap: butt}</style>
 </defs>
 <g id="figure_1">
  <g id="patch_1">
   <path d="M 0 440.4 
L 402.941541 440.4 
L 402.941541 0 
L 0 0 
z
" style="fill: #ffffff"/>
  </g>
  <g id="axes_1">
   <g id="LineCollection_1">
    <path d="M 130.068923 44.166942 
L 81.242364 56.823347 
" clip-path="url(#p3dcbbe7d2b)" style="fill: none; stroke: #555555; stroke-opacity: 0.3; stroke-width: 0.6"/>
    <path d="M 130.068923 44.166942 
L 85.715583 99.459975 
" clip-path="url(#p3dcbbe7d2b)" style="fill: none; stroke: #555555; stroke-opacity: 0.3; stroke-width: 0.6"/>
    <path d="M 130.068923 44.166942 
L 200.510003 84.156418 
" clip-path="url(#p3dcbbe7d2b)" style="fill: none; stroke: #555555; stroke-opacity: 0.3; stroke-width: 0.6"/>
    <path d="M 130.068923 44.166942 
L 153.377719 90.548753 
" clip-path="url(#p3dcbbe7d2b)" style="fill: none; stroke: #555555; stroke-opacity: 0.3; stroke-width: 0.6"/>
    <path d="M 81.242364 56.823347 
L 85.715583 99.459975 
" clip-path="url(#p3dcbbe7d2b)" style="fill: none; stroke: #555555; stroke-opacity: 0.3; stroke-width: 0.6"/>
    <path d="M 81.242364 56.823347 
L 48.244789 123.022494 
" clip-path="url(#p3dcbbe7d2b)" style="fill: none; stroke: #555555; stroke-opacity: 0.3; stroke-width: 0.6"/>
    <path d="M 81.242364 56.823347 
L 153.377719 90.548753 
" clip-path="url(#p3dcbbe7d2b)" style="fill: none; stroke: #555555; stroke-opacity: 0.3; stroke-width: 0.6"/>
    <path d="M 85.715583 99.459975 
L 48.244789 123.022494 
" clip-path="url(#p3dcbbe7d2b)" style="fill: none; stroke: #555555; stroke-opacity: 0.3; stroke-width: 0.6"/>
    <path d="M 85.715583 99.459975 
L 40.916415 170.770253 
" clip-path="url(#p3dcbbe7d2b)" style="fill: none; stroke: #555555; stroke-opacity: 0.3; stroke-width: 0.6"/>
    <path d="M 85.715583 99.459975 
L 168.481501 134.989294 
" clip-path="url(#p3dcbbe7d2b)" style="fill: none; stroke: #555555; stroke-opacity: 0.3; stroke-width: 0.6"/>
    <path d="M 48.244789 123.022494 
L 40.916415 170.770253 
" clip-path="url(#p3dcbbe7d2b)" style="fill: none; stroke: #555555; stroke-opacity: 0.3; stroke-width: 0.6"/>
    <path d="M 48.244789 123.022494 
L 98.96257 201.225976 
" clip-path="url(#p3dcbbe7d2b)" style="fill: none; stroke: #555555; stroke-opacity: 0.3; stroke-width: 0.6"/>
    <path d="M 40.916415 170.770253 
L 98.96257 201.225976 
" clip-path="url(#p3dcbbe7d2b)" style="fill: none; stroke: #555555; stroke-opacity: 0.3; stroke-width: 0.6"/>
    <path d="M 40.916415 170.770253 
L 47.837697 253.353601 
" clip-path="url(#p3dcbbe7d2b)" style="fill: none; stroke: #555555; stroke-opacity: 0.3; stroke-width: 0.6"/>
    <path d="M 98.96257 201.225976 
L 47.837697 253.353601 
" clip-path="url(#p3dcbbe7d2b)" style="fill: none; stroke: #555555; stroke-opacity: 0.3; stroke-width: 0.6"/>
    <path d="M 98.96257 201.225976 
L 74.822719 290.795514 
" clip-path="url(#p3dcbbe7d2b)" style="fill: none; stroke: #555555; stroke-opacity: 0.3; stroke-width: 0.6"/>
    <path d="M 98.96257 201.225976 
L 208.391506 232.26024 
" clip-path="url(#p3dcbbe7d2b)" style="fill: none; stroke: #555555; stroke-opacity: 0.3; stroke-width: 0.6"/>
    <path d="M 98.96257 201.225976 
L 168.481501 134.989294 
" clip-path="url(#p3dcbbe7d2b)" style="fill: none; stroke: #555555; stroke-opacity: 0.3; stroke-width: 0.6"/>
    <path d="M 47.837697 253.353601 
L 74.822719 290.795514 
" clip-path="url(#p3dcbbe7d2b)" style="fill: none; stroke: #555555; stroke-opacity: 0.3; stroke-width: 0.6"/>
    <path d="M 47.837697 253.353601 
L 91.001485 334.910351 
" clip-path="url(#p3dcbbe7d2b)" style="fill: none; stroke: #555555; stroke-opacity: 0.3; stroke-width: 0.6"/>
    <path d="M 74.822719 290.795514 
L 91.001485 334.910351 
" clip-path="url(#p3dcbbe7d2b)" style="fill: none; stroke: #555555; stroke-opacity: 0.3; stroke-width: 0.6"/>
    <path d="M 74.822719 290.795514 
L 131.433089 349.343621 
" clip-path="url(#p3dcbbe7d2b)" style="fill: none; stroke: #555555; stroke-opacity: 0.3; stroke-width: 0.6"/>
    <path d="M 91.001485 334.910351 
L 131.433089 349.343621 
" clip-path="url(#p3dcbbe7d2b)" style="fill: none; stroke: #555555; stroke-opacity: 0.3; stroke-width: 0.6"/>
    <path d="M 91.001485 334.910351 
L 186.579199 364.641834 
" clip-path="url(#p3dcbbe7d2b)" style="fill: none; stroke: #555555; stroke-opacity: 0.3; stroke-width: 0.6"/>
    <path d="M 131.433089 349.343621 
L 186.579199 364.641834 
" clip-path="url(#p3dcbbe7d2b)" style="fill: none; stroke: #555555; stroke-opacity: 0.3; stroke-width: 0.6"/>
    <path d="M 131.433089 349.343621 
L 213.650814 325.8507 
" clip-path="url(#p3dcbbe7d2b)" style="fill: none; stroke: #555555; stroke-opacity: 0.3; stroke-width: 0.6"/>
    <path d="M 186.579199 364.641834 
L 213.650814 325.8507 
" clip-path="url(#p3dcbbe7d2b)" style="fill: none; stroke: #555555; stroke-opacity: 0.3; stroke-width: 0.6"/>
    <path d="M 186.579199 364.641834 
L 249.64318 396.233058 
" clip-path="url(#p3dcbbe7d2b)" style="fill: none; stroke: #555555; stroke-opacity: 0.3; stroke-width: 0.6"/>
    <path d="M 186.579199 364.641834 
L 280.558254 323.139573 
" clip-path="url(#p3dcbbe7d2b)" style="fill: none; stroke: #555555; stroke-opacity: 0.3; stroke-width: 0.6"/>
    <path d="M 213.650814 325.8507 
L 249.64318 396.233058 
" clip-path="url(#p3dcbbe7d2b)" style="fill: none; stroke: #555555; stroke-opacity: 0.3; stroke-width: 0.6"/>
    <path d="M 213.650814 325.8507 
L 291.007172 390.701102 
" clip-path="url(#p3dcbbe7d2b)" style="fill: none; stroke: #555555; stroke-opacity: 0.3; stroke-width: 0.6"/>
    <path d="M 213.650814 325.8507 
L 206.426909 184.825721 
" clip-path="url(#p3dcbbe7d2b)" style="fill: none; stroke: #555555; stroke-opacity: 0.3; stroke-width: 0.6"/>
    <path d="M 249.64318 396.233058 
L 291.007172 390.701102 
" clip-path="url(#p3dcbbe7d2b)" style="fill: none; stroke: #555555; stroke-opacity: 0.3; stroke-width: 0.6"/>
    <path d="M 249.64318 396.233058 
L 327.581285 380.24282 
" clip-path="url(#p3dcbbe7d2b)" style="fill: none; stroke: #555555; stroke-opacity: 0.3; stroke-width: 0.6"/>
    <path d="M 291.007172 390.701102 
L 327.581285 380.24282 
" clip-path="url(#p3dcbbe7d2b)" style="fill: none; stroke: #555555; stroke-opacity: 0.3; stroke-width: 0.6"/>
    <path d="M 291.007172 390.701102 
L 362.025127 362.680776 
" clip-path="url(#p3dcbbe7d2b)" style="fill: none; stroke: #555555; stroke-opacity: 0.3; stroke-width: 0.6"/>
    <path d="M 327.581285 380.24282 
L 362.025127 362.680776 
" clip-path="url(#p3dcbbe7d2b)" style="fill: none; stroke: #555555; stroke-opacity: 0.3; stroke-width: 0.6"/>
    <path d="M 327.581285 380.24282 
L 328.920092 287.033067 
" clip-path="url(#p3dcbbe7d2b)" style="fill: none; stroke: #555555; stroke-opacity: 0.3; stroke-width: 0.6"/>
    <path d="M 362.025127 362.680776 
L 328.920092 287.033067 
" clip-path="url(#p3dcbbe7d2b)" style="fill: none; stroke: #555555; stroke-opacity: 0.3; stroke-width: 0.6"/>
    <path d="M 362.025127 362.680776 
L 351.085778 319.304508 
" clip-path="url(#p3dcbbe7d2b)" style="fill: none; stroke: #555555; stroke-opacity: 0.3; stroke-width: 0.6"/>
    <path d="M 328.920092 287.033067 
L 351.085778 319.304508 
" clip-path="url(#p3dcbbe7d2b)" style="fill: none; stroke: #555555; stroke-opacity: 0.3; stroke-width: 0.6"/>
    <path d="M 328.920092 287.033067 
L 280.558254 323.139573 
" clip-path="url(#p3dcbbe7d2b)" style="fill: none; stroke: #555555; stroke-opacity: 0.3; stroke-width: 0.6"/>
    <path d="M 328.920092 287.033067 
L 261.391874 163.790969 
" clip-path="url(#p3dcbbe7d2b)" style="fill: none; stroke: #555555; stroke-opacity: 0.3; stroke-width: 0.6"/>
    <path d="M 351.085778 319.304508 
L 280.558254 323.139573 
" clip-path="url(#p3dcbbe7d2b)" style="fill: none; stroke: #555555; stroke-opacity: 0.3; stroke-width: 0.6"/>
    <path d="M 351.085778 319.304508 
L 291.318288 279.193878 
" clip-path="url(#p3dcbbe7d2b)" style="fill: none; stroke: #555555; stroke-opacity: 0.3; stroke-width: 0.6"/>
    <path d="M 280.558254 323.139573 
L 291.318288 279.193878 
" clip-path="url(#p3dcbbe7d2b)" style="fill: none; stroke: #555555; stroke-opacity: 0.3; stroke-width: 0.6"/>
    <path d="M 280.558254 323.139573 
L 265.695105 256.670573 
" clip-path="url(#p3dcbbe7d2b)" style="fill: none; stroke: #555555; stroke-opacity: 0.3; stroke-width: 0.6"/>
    <path d="M 291.318288 279.193878 
L 265.695105 256.670573 
" clip-path="url(#p3dcbbe7d2b)" style="fill: none; stroke: #555555; stroke-opacity: 0.3; stroke-width: 0.6"/>
    <path d="M 291.318288 279.193878 
L 208.391506 232.26024 
" clip-path="url(#p3dcbbe7d2b)" style="fill: none; stroke: #555555; stroke-opacity: 0.3; stroke-width: 0.6"/>
    <path d="M 265.695105 256.670573 
L 208.391506 232.26024 
" clip-path="url(#p3dcbbe7d2b)" style="fill: none; stroke: #555555; stroke-opacity: 0.3; stroke-width: 0.6"/>
    <path d="M 265.695105 256.670573 
L 258.027023 199.281009 
" clip-path="url(#p3dcbbe7d2b)" style="fill: none; stroke: #555555; stroke-opacity: 0.3; stroke-width: 0.6"/>
    <path d="M 208.391506 232.26024 
L 258.027023 199.281009 
" clip-path="url(#p3dcbbe7d2b)" style="fill: none; stroke: #555555; stroke-opacity: 0.3; stroke-width: 0.6"/>
    <path d="M 208.391506 232.26024 
L 206.426909 184.825721 
" clip-path="url(#p3dcbbe7d2b)" style="fill: none; stroke: #555555; stroke-opacity: 0.3; stroke-width: 0.6"/>
    <path d="M 258.027023 199.281009 
L 206.426909 184.825721 
" clip-path="url(#p3dcbbe7d2b)" style="fill: none; stroke: #555555; stroke-opacity: 0.3; stroke-width: 0.6"/>
    <path d="M 258.027023 199.281009 
L 261.751171 137.550975 
" clip-path="url(#p3dcbbe7d2b)" style="fill: none; stroke: #555555; stroke-opacity: 0.3; stroke-width: 0.6"/>
    <path d="M 206.426909 184.825721 
L 261.751171 137.550975 
" clip-path="url(#p3dcbbe7d2b)" style="fill: none; stroke: #555555; stroke-opacity: 0.3; stroke-width: 0.6"/>
    <path d="M 206.426909 184.825721 
L 227.923395 118.755174 
" clip-path="url(#p3dcbbe7d2b)" style="fill: none; stroke: #555555; stroke-opacity: 0.3; stroke-width: 0.6"/>
    <path d="M 206.426909 184.825721 
L 168.481501 134.989294 
" clip-path="url(#p3dcbbe7d2b)" style="fill: none; stroke: #555555; stroke-opacity: 0.3; stroke-width: 0.6"/>
    <path d="M 206.426909 184.825721 
L 153.377719 90.548753 
" clip-path="url(#p3dcbbe7d2b)" style="fill: none; stroke: #555555; stroke-opacity: 0.3; stroke-width: 0.6"/>
    <path d="M 261.751171 137.550975 
L 227.923395 118.755174 
" clip-path="url(#p3dcbbe7d2b)" style="fill: none; stroke: #555555; stroke-opacity: 0.3; stroke-width: 0.6"/>
    <path d="M 261.751171 137.550975 
L 261.391874 163.790969 
" clip-path="url(#p3dcbbe7d2b)" style="fill: none; stroke: #555555; stroke-opacity: 0.3; stroke-width: 0.6"/>
    <path d="M 227.923395 118.755174 
L 261.391874 163.790969 
" clip-path="url(#p3dcbbe7d2b)" style="fill: none; stroke: #555555; stroke-opacity: 0.3; stroke-width: 0.6"/>
    <path d="M 227.923395 118.755174 
L 168.481501 134.989294 
" clip-path="url(#p3dcbbe7d2b)" style="fill: none; stroke: #555555; stroke-opacity: 0.3; stroke-width: 0.6"/>
    <path d="M 227.923395 118.755174 
L 200.510003 84.156418 
" clip-path="url(#p3dcbbe7d2b)" style="fill: none; stroke: #555555; stroke-opacity: 0.3; stroke-width: 0.6"/>
    <path d="M 261.391874 163.790969 
L 168.481501 134.989294 
" clip-path="url(#p3dcbbe7d2b)" style="fill: none; stroke: #555555; stroke-opacity: 0.3; stroke-width: 0.6"/>
    <path d="M 261.391874 163.790969 
L 200.510003 84.156418 
" clip-path="url(#p3dcbbe7d2b)" style="fill: none; stroke: #555555; stroke-opacity: 0.3; stroke-width: 0.6"/>
    <path d="M 168.481501 134.989294 
L 200.510003 84.156418 
" clip-path="url(#p3dcbbe7d2b)" style="fill: none; stroke: #555555; stroke-opacity: 0.3; stroke-width: 0.6"/>
    <path d="M 168.481501 134.989294 
L 153.377719 90.548753 
" clip-path="url(#p3dcbbe7d2b)" style="fill: none; stroke: #555555; stroke-opacity: 0.3; stroke-width: 0.6"/>
    <path d="M 200.510003 84.156418 
L 153.377719 90.548753 
" clip-path="url(#p3dcbbe7d2b)" style="fill: none; stroke: #555555; stroke-opacity: 0.3; stroke-width: 0.6"/>
   </g>
   <g id="PathCollection_1">
    <path d="M 130.068923 49.644168 
C 131.5215 49.644168 132.914779 49.067053 133.941906 48.039925 
C 134.969033 47.012798 135.546148 45.619519 135.546148 44.166942 
C 135.546148 42.714365 134.969033 41.321086 133.941906 40.293959 
C 132.914779 39.266832 131.5215 38.689717 130.068923 38.689717 
C 128.616345 38.689717 127.223066 39.266832 126.195939 40.293959 
C 125.168812 41.321086 124.591697 42.714365 124.591697 44.166942 
C 124.591697 45.619519 125.168812 47.012798 126.195939 48.039925 
C 127.223066 49.067053 128.616345 49.644168 130.068923 49.644168 
z
" clip-path="url(#p3dcbbe7d2b)" style="fill: #66c2a5; stroke: #333333; stroke-width: 0.5"/>
    <path d="M 81.242364 62.300573 
C 82.694941 62.300573 84.08822 61.723458 85.115347 60.696331 
C 86.142474 59.669204 86.719589 58.275925 86.719589 56.823347 
C 86.719589 55.37077 86.142474 53.977491 85.115347 52.950364 
C 84.08822 51.923237 82.694941 51.346122 81.242364 51.346122 
C 79.789787 51.346122 78.396508 51.923237 77.369381 52.950364 
C 76.342253 53.977491 75.765138 55.37077 75.765138 56.823347 
C 75.765138 58.275925 76.342253 59.669204 77.369381 60.696331 
C 78.396508 61.723458 79.789787 62.300573 81.242364 62.300573 
z
" clip-path="url(#p3dcbbe7d2b)" style="fill: #fc8d62; stroke: #333333; stroke-width: 0.5"/>
    <path d="M 85.715583 104.937201 
C 87.16816 104.937201 88.561439 104.360086 89.588566 103.332959 
C 90.615693 102.305831 91.192808 100.912552 91.192808 99.459975 
C 91.192808 98.007398 90.615693 96.614119 89.588566 95.586992 
C 88.561439 94.559865 87.16816 93.98275 85.715583 93.98275 
C 84.263006 93.98275 82.869727 94.559865 81.842599 95.586992 
C 80.815472 96.614119 80.238357 98.007398 80.238357 99.459975 
C 80.238357 100.912552 80.815472 102.305831 81.842599 103.332959 
C 82.869727 104.360086 84.263006 104.937201 85.715583 104.937201 
z
" clip-path="url(#p3dcbbe7d2b)" style="fill: #8da0cb; stroke: #333333; stroke-width: 0.5"/>
    <path d="M 48.244789 128.49972 
C 49.697366 128.49972 51.090645 127.922605 52.117772 126.895478 
C 53.1449 125.868351 53.722015 124.475072 53.722015 123.022494 
C 53.722015 121.569917 53.1449 120.176638 52.117772 119.149511 
C 51.090645 118.122384 49.697366 117.545269 48.244789 117.545269 
C 46.792212 117.545269 45.398933 118.122384 44.371806 119.149511 
C 43.344679 120.176638 42.767564 121.569917 42.767564 123.022494 
C 42.767564 124.475072 43.344679 125.868351 44.371806 126.895478 
C 45.398933 127.922605 46.792212 128.49972 48.244789 128.49972 
z
" clip-path="url(#p3dcbbe7d2b)" style="fill: #e78ac3; stroke: #333333; stroke-width: 0.5"/>
    <path d="M 40.916415 176.247479 
C 42.368992 176.247479 43.762271 175.670364 44.789398 174.643237 
C 45.816525 173.616109 46.39364 172.22283 46.39364 170.770253 
C 46.39364 169.317676 45.816525 167.924397 44.789398 166.89727 
C 43.762271 165.870143 42.368992 165.293028 40.916415 165.293028 
C 39.463838 165.293028 38.070559 165.870143 37.043431 166.89727 
C 36.016304 167.924397 35.439189 169.317676 35.439189 170.770253 
C 35.439189 172.22283 36.016304 173.616109 37.043431 174.643237 
C 38.070559 175.670364 39.463838 176.247479 40.916415 176.247479 
z
" clip-path="url(#p3dcbbe7d2b)" style="fill: #66c2a5; stroke: #333333; stroke-width: 0.5"/>
    <path d="M 98.96257 206.703202 
C 100.415147 206.703202 101.808426 206.126087 102.835554 205.09896 
C 103.862681 204.071833 104.439796 202.678554 104.439796 201.225976 
C 104.439796 199.773399 103.862681 198.38012 102.835554 197.352993 
C 101.808426 196.325866 100.415147 195.748751 98.96257 195.748751 
C 97.509993 195.748751 96.116714 196.325866 95.089587 197.352993 
C 94.06246 198.38012 93.485345 199.773399 93.485345 201.225976 
C 93.485345 202.678554 94.06246 204.071833 95.089587 205.09896 
C 96.116714 206.126087 97.509993 206.703202 98.96257 206.703202 
z
" clip-path="url(#p3dcbbe7d2b)" style="fill: #fc8d62; stroke: #333333; stroke-width: 0.5"/>
    <path d="M 47.837697 258.830827 
C 49.290274 258.830827 50.683553 258.253712 51.71068 257.226585 
C 52.737807 256.199457 53.314922 254.806179 53.314922 253.353601 
C 53.314922 251.901024 52.737807 250.507745 51.71068 249.480618 
C 50.683553 248.453491 49.290274 247.876376 47.837697 247.876376 
C 46.38512 247.876376 44.991841 248.453491 43.964713 249.480618 
C 42.937586 250.507745 42.360471 251.901024 42.360471 253.353601 
C 42.360471 254.806179 42.937586 256.199457 43.964713 257.226585 
C 44.991841 258.253712 46.38512 258.830827 47.837697 258.830827 
z
" clip-path="url(#p3dcbbe7d2b)" style="fill: #8da0cb; stroke: #333333; stroke-width: 0.5"/>
    <path d="M 74.822719 296.27274 
C 76.275296 296.27274 77.668575 295.695625 78.695702 294.668497 
C 79.722829 293.64137 80.299944 292.248091 80.299944 290.795514 
C 80.299944 289.342937 79.722829 287.949658 78.695702 286.922531 
C 77.668575 285.895403 76.275296 285.318288 74.822719 285.318288 
C 73.370141 285.318288 71.976862 285.895403 70.949735 286.922531 
C 69.922608 287.949658 69.345493 289.342937 69.345493 290.795514 
C 69.345493 292.248091 69.922608 293.64137 70.949735 294.668497 
C 71.976862 295.695625 73.370141 296.27274 74.822719 296.27274 
z
" clip-path="url(#p3dcbbe7d2b)" style="fill: #e78ac3; stroke: #333333; stroke-width: 0.5"/>
    <path d="M 91.001485 340.387577 
C 92.454062 340.387577 93.847341 339.810462 94.874468 338.783334 
C 95.901595 337.756207 96.47871 336.362928 96.47871 334.910351 
C 96.47871 333.457774 95.901595 332.064495 94.874468 331.037368 
C 93.847341 330.010241 92.454062 329.433126 91.001485 329.433126 
C 89.548907 329.433126 88.155628 330.010241 87.128501 331.037368 
C 86.101374 332.064495 85.524259 333.457774 85.524259 334.910351 
C 85.524259 336.362928 86.101374 337.756207 87.128501 338.783334 
C 88.155628 339.810462 89.548907 340.387577 91.001485 340.387577 
z
" clip-path="url(#p3dcbbe7d2b)" style="fill: #66c2a5; stroke: #333333; stroke-width: 0.5"/>
    <path d="M 131.433089 354.820846 
C 132.885666 354.820846 134.278945 354.243731 135.306072 353.216604 
C 136.333199 352.189477 136.910314 350.796198 136.910314 349.343621 
C 136.910314 347.891043 136.333199 346.497764 135.306072 345.470637 
C 134.278945 344.44351 132.885666 343.866395 131.433089 343.866395 
C 129.980512 343.866395 128.587233 344.44351 127.560106 345.470637 
C 126.532978 346.497764 125.955863 347.891043 125.955863 349.343621 
C 125.955863 350.796198 126.532978 352.189477 127.560106 353.216604 
C 128.587233 354.243731 129.980512 354.820846 131.433089 354.820846 
z
" clip-path="url(#p3dcbbe7d2b)" style="fill: #fc8d62; stroke: #333333; stroke-width: 0.5"/>
    <path d="M 186.579199 370.119059 
C 188.031777 370.119059 189.425056 369.541944 190.452183 368.514817 
C 191.47931 367.48769 192.056425 366.094411 192.056425 364.641834 
C 192.056425 363.189256 191.47931 361.795978 190.452183 360.76885 
C 189.425056 359.741723 188.031777 359.164608 186.579199 359.164608 
C 185.126622 359.164608 183.733343 359.741723 182.706216 360.76885 
C 181.679089 361.795978 181.101974 363.189256 181.101974 364.641834 
C 181.101974 366.094411 181.679089 367.48769 182.706216 368.514817 
C 183.733343 369.541944 185.126622 370.119059 186.579199 370.119059 
z
" clip-path="url(#p3dcbbe7d2b)" style="fill: #8da0cb; stroke: #333333; stroke-width: 0.5"/>
    <path d="M 213.650814 331.327926 
C 215.103391 331.327926 216.49667 330.750811 217.523797 329.723684 
C 218.550924 328.696557 219.128039 327.303278 219.128039 325.8507 
C 219.128039 324.398123 218.550924 323.004844 217.523797 321.977717 
C 216.49667 320.95059 215.103391 320.373475 213.650814 320.373475 
C 212.198237 320.373475 210.804958 320.95059 209.77783 321.977717 
C 208.750703 323.004844 208.173588 324.398123 208.173588 325.8507 
C 208.173588 327.303278 208.750703 328.696557 209.77783 329.723684 
C 210.804958 330.750811 212.198237 331.327926 213.650814 331.327926 
z
" clip-path="url(#p3dcbbe7d2b)" style="fill: #e78ac3; stroke: #333333; stroke-width: 0.5"/>
    <path d="M 249.64318 401.710283 
C 251.095758 401.710283 252.489037 401.133168 253.516164 400.106041 
C 254.543291 399.078914 255.120406 397.685635 255.120406 396.233058 
C 255.120406 394.780481 254.543291 393.387202 253.516164 392.360075 
C 252.489037 391.332947 251.095758 390.755832 249.64318 390.755832 
C 248.190603 390.755832 246.797324 391.332947 245.770197 392.360075 
C 244.74307 393.387202 244.165955 394.780481 244.165955 396.233058 
C 244.165955 397.685635 244.74307 399.078914 245.770197 400.106041 
C 246.797324 401.133168 248.190603 401.710283 249.64318 401.710283 
z
" clip-path="url(#p3dcbbe7d2b)" style="fill: #66c2a5; stroke: #333333; stroke-width: 0.5"/>
    <path d="M 291.007172 396.178328 
C 292.459749 396.178328 293.853028 395.601212 294.880155 394.574085 
C 295.907282 393.546958 296.484398 392.153679 296.484398 390.701102 
C 296.484398 389.248525 295.907282 387.855246 294.880155 386.828119 
C 293.853028 385.800991 292.459749 385.223876 291.007172 385.223876 
C 289.554595 385.223876 288.161316 385.800991 287.134189 386.828119 
C 286.107061 387.855246 285.529946 389.248525 285.529946 390.701102 
C 285.529946 392.153679 286.107061 393.546958 287.134189 394.574085 
C 288.161316 395.601212 289.554595 396.178328 291.007172 396.178328 
z
" clip-path="url(#p3dcbbe7d2b)" style="fill: #fc8d62; stroke: #333333; stroke-width: 0.5"/>
    <path d="M 327.581285 385.720046 
C 329.033862 385.720046 330.427141 385.142931 331.454268 384.115804 
C 332.481395 383.088677 333.05851 381.695398 333.05851 380.24282 
C 333.05851 378.790243 332.481395 377.396964 331.454268 376.369837 
C 330.427141 375.34271 329.033862 374.765595 327.581285 374.765595 
C 326.128707 374.765595 324.735428 375.34271 323.708301 376.369837 
C 322.681174 377.396964 322.104059 378.790243 322.104059 380.24282 
C 322.104059 381.695398 322.681174 383.088677 323.708301 384.115804 
C 324.735428 385.142931 326.128707 385.720046 327.581285 385.720046 
z
" clip-path="url(#p3dcbbe7d2b)" style="fill: #8da0cb; stroke: #333333; stroke-width: 0.5"/>
    <path d="M 362.025127 368.158001 
C 363.477704 368.158001 364.870983 367.580886 365.89811 366.553759 
C 366.925237 365.526632 367.502352 364.133353 367.502352 362.680776 
C 367.502352 361.228198 366.925237 359.834919 365.89811 358.807792 
C 364.870983 357.780665 363.477704 357.20355 362.025127 357.20355 
C 360.572549 357.20355 359.17927 357.780665 358.152143 358.807792 
C 357.125016 359.834919 356.547901 361.228198 356.547901 362.680776 
C 356.547901 364.133353 357.125016 365.526632 358.152143 366.553759 
C 359.17927 367.580886 360.572549 368.158001 362.025127 368.158001 
z
" clip-path="url(#p3dcbbe7d2b)" style="fill: #e78ac3; stroke: #333333; stroke-width: 0.5"/>
    <path d="M 328.920092 292.510293 
C 330.372669 292.510293 331.765948 291.933178 332.793075 290.906051 
C 333.820202 289.878923 334.397317 288.485645 334.397317 287.033067 
C 334.397317 285.58049 333.820202 284.187211 332.793075 283.160084 
C 331.765948 282.132957 330.372669 281.555842 328.920092 281.555842 
C 327.467515 281.555842 326.074236 282.132957 325.047108 283.160084 
C 324.019981 284.187211 323.442866 285.58049 323.442866 287.033067 
C 323.442866 288.485645 324.019981 289.878923 325.047108 290.906051 
C 326.074236 291.933178 327.467515 292.510293 328.920092 292.510293 
z
" clip-path="url(#p3dcbbe7d2b)" style="fill: #66c2a5; stroke: #333333; stroke-width: 0.5"/>
    <path d="M 351.085778 324.781733 
C 352.538355 324.781733 353.931634 324.204618 354.958761 323.177491 
C 355.985889 322.150364 356.563004 320.757085 356.563004 319.304508 
C 356.563004 317.85193 355.985889 316.458651 354.958761 315.431524 
C 353.931634 314.404397 352.538355 313.827282 351.085778 313.827282 
C 349.633201 313.827282 348.239922 314.404397 347.212795 315.431524 
C 346.185667 316.458651 345.608552 317.85193 345.608552 319.304508 
C 345.608552 320.757085 346.185667 322.150364 347.212795 323.177491 
C 348.239922 324.204618 349.633201 324.781733 351.085778 324.781733 
z
" clip-path="url(#p3dcbbe7d2b)" style="fill: #fc8d62; stroke: #333333; stroke-width: 0.5"/>
    <path d="M 280.558254 328.616799 
C 282.010831 328.616799 283.40411 328.039684 284.431237 327.012556 
C 285.458365 325.985429 286.03548 324.59215 286.03548 323.139573 
C 286.03548 321.686996 285.458365 320.293717 284.431237 319.26659 
C 283.40411 318.239463 282.010831 317.662348 280.558254 317.662348 
C 279.105677 317.662348 277.712398 318.239463 276.685271 319.26659 
C 275.658143 320.293717 275.081028 321.686996 275.081028 323.139573 
C 275.081028 324.59215 275.658143 325.985429 276.685271 327.012556 
C 277.712398 328.039684 279.105677 328.616799 280.558254 328.616799 
z
" clip-path="url(#p3dcbbe7d2b)" style="fill: #8da0cb; stroke: #333333; stroke-width: 0.5"/>
    <path d="M 291.318288 284.671104 
C 292.770865 284.671104 294.164144 284.093989 295.191272 283.066862 
C 296.218399 282.039734 296.795514 280.646455 296.795514 279.193878 
C 296.795514 277.741301 296.218399 276.348022 295.191272 275.320895 
C 294.164144 274.293768 292.770865 273.716653 291.318288 273.716653 
C 289.865711 273.716653 288.472432 274.293768 287.445305 275.320895 
C 286.418178 276.348022 285.841063 277.741301 285.841063 279.193878 
C 285.841063 280.646455 286.418178 282.039734 287.445305 283.066862 
C 288.472432 284.093989 289.865711 284.671104 291.318288 284.671104 
z
" clip-path="url(#p3dcbbe7d2b)" style="fill: #e78ac3; stroke: #333333; stroke-width: 0.5"/>
    <path d="M 265.695105 262.147798 
C 267.147683 262.147798 268.540961 261.570683 269.568089 260.543556 
C 270.595216 259.516429 271.172331 258.12315 271.172331 256.670573 
C 271.172331 255.217996 270.595216 253.824717 269.568089 252.797589 
C 268.540961 251.770462 267.147683 251.193347 265.695105 251.193347 
C 264.242528 251.193347 262.849249 251.770462 261.822122 252.797589 
C 260.794995 253.824717 260.21788 255.217996 260.21788 256.670573 
C 260.21788 258.12315 260.794995 259.516429 261.822122 260.543556 
C 262.849249 261.570683 264.242528 262.147798 265.695105 262.147798 
z
" clip-path="url(#p3dcbbe7d2b)" style="fill: #66c2a5; stroke: #333333; stroke-width: 0.5"/>
    <path d="M 208.391506 237.737465 
C 209.844083 237.737465 211.237362 237.16035 212.26449 236.133223 
C 213.291617 235.106096 213.868732 233.712817 213.868732 232.26024 
C 213.868732 230.807662 213.291617 229.414383 212.26449 228.387256 
C 211.237362 227.360129 209.844083 226.783014 208.391506 226.783014 
C 206.938929 226.783014 205.54565 227.360129 204.518523 228.387256 
C 203.491396 229.414383 202.914281 230.807662 202.914281 232.26024 
C 202.914281 233.712817 203.491396 235.106096 204.518523 236.133223 
C 205.54565 237.16035 206.938929 237.737465 208.391506 237.737465 
z
" clip-path="url(#p3dcbbe7d2b)" style="fill: #fc8d62; stroke: #333333; stroke-width: 0.5"/>
    <path d="M 258.027023 204.758234 
C 259.4796 204.758234 260.872879 204.181119 261.900006 203.153992 
C 262.927133 202.126865 263.504248 200.733586 263.504248 199.281009 
C 263.504248 197.828432 262.927133 196.435153 261.900006 195.408025 
C 260.872879 194.380898 259.4796 193.803783 258.027023 193.803783 
C 256.574445 193.803783 255.181167 194.380898 254.154039 195.408025 
C 253.126912 196.435153 252.549797 197.828432 252.549797 199.281009 
C 252.549797 200.733586 253.126912 202.126865 254.154039 203.153992 
C 255.181167 204.181119 256.574445 204.758234 258.027023 204.758234 
z
" clip-path="url(#p3dcbbe7d2b)" style="fill: #8da0cb; stroke: #333333; stroke-width: 0.5"/>
    <path d="M 206.426909 190.302947 
C 207.879486 190.302947 209.272765 189.725832 210.299892 188.698705 
C 211.327019 187.671577 211.904134 186.278298 211.904134 184.825721 
C 211.904134 183.373144 211.327019 181.979865 210.299892 180.952738 
C 209.272765 179.925611 207.879486 179.348496 206.426909 179.348496 
C 204.974332 179.348496 203.581053 179.925611 202.553925 180.952738 
C 201.526798 181.979865 200.949683 183.373144 200.949683 184.825721 
C 200.949683 186.278298 201.526798 187.671577 202.553925 188.698705 
C 203.581053 189.725832 204.974332 190.302947 206.426909 190.302947 
z
" clip-path="url(#p3dcbbe7d2b)" style="fill: #e78ac3; stroke: #333333; stroke-width: 0.5"/>
    <path d="M 261.751171 143.028201 
C 263.203749 143.028201 264.597028 142.451086 265.624155 141.423959 
C 266.651282 140.396831 267.228397 139.003553 267.228397 137.550975 
C 267.228397 136.098398 266.651282 134.705119 265.624155 133.677992 
C 264.597028 132.650865 263.203749 132.07375 261.751171 132.07375 
C 260.298594 132.07375 258.905315 132.650865 257.878188 133.677992 
C 256.851061 134.705119 256.273946 136.098398 256.273946 137.550975 
C 256.273946 139.003553 256.851061 140.396831 257.878188 141.423959 
C 258.905315 142.451086 260.298594 143.028201 261.751171 143.028201 
z
" clip-path="url(#p3dcbbe7d2b)" style="fill: #66c2a5; stroke: #333333; stroke-width: 0.5"/>
    <path d="M 227.923395 124.232399 
C 229.375972 124.232399 230.769251 123.655284 231.796379 122.628157 
C 232.823506 121.60103 233.400621 120.207751 233.400621 118.755174 
C 233.400621 117.302596 232.823506 115.909317 231.796379 114.88219 
C 230.769251 113.855063 229.375972 113.277948 227.923395 113.277948 
C 226.470818 113.277948 225.077539 113.855063 224.050412 114.88219 
C 223.023285 115.909317 222.44617 117.302596 222.44617 118.755174 
C 222.44617 120.207751 223.023285 121.60103 224.050412 122.628157 
C 225.077539 123.655284 226.470818 124.232399 227.923395 124.232399 
z
" clip-path="url(#p3dcbbe7d2b)" style="fill: #fc8d62; stroke: #333333; stroke-width: 0.5"/>
    <path d="M 261.391874 169.268194 
C 262.844451 169.268194 264.23773 168.691079 265.264857 167.663952 
C 266.291984 166.636825 266.869099 165.243546 266.869099 163.790969 
C 266.869099 162.338391 266.291984 160.945112 265.264857 159.917985 
C 264.23773 158.890858 262.844451 158.313743 261.391874 158.313743 
C 259.939296 158.313743 258.546017 158.890858 257.51889 159.917985 
C 256.491763 160.945112 255.914648 162.338391 255.914648 163.790969 
C 255.914648 165.243546 256.491763 166.636825 257.51889 167.663952 
C 258.546017 168.691079 259.939296 169.268194 261.391874 169.268194 
z
" clip-path="url(#p3dcbbe7d2b)" style="fill: #8da0cb; stroke: #333333; stroke-width: 0.5"/>
    <path d="M 168.481501 140.46652 
C 169.934078 140.46652 171.327357 139.889405 172.354484 138.862277 
C 173.381611 137.83515 173.958726 136.441871 173.958726 134.989294 
C 173.958726 133.536717 173.381611 132.143438 172.354484 131.116311 
C 171.327357 130.089184 169.934078 129.512069 168.481501 129.512069 
C 167.028923 129.512069 165.635644 130.089184 164.608517 131.116311 
C 163.58139 132.143438 163.004275 133.536717 163.004275 134.989294 
C 163.004275 136.441871 163.58139 137.83515 164.608517 138.862277 
C 165.635644 139.889405 167.028923 140.46652 168.481501 140.46652 
z
" clip-path="url(#p3dcbbe7d2b)" style="fill: #e78ac3; stroke: #333333; stroke-width: 0.5"/>
    <path d="M 200.510003 89.633643 
C 201.96258 89.633643 203.355859 89.056528 204.382986 88.029401 
C 205.410113 87.002274 205.987229 85.608995 205.987229 84.156418 
C 205.987229 82.70384 205.410113 81.310561 204.382986 80.283434 
C 203.355859 79.256307 201.96258 78.679192 200.510003 78.679192 
C 199.057426 78.679192 197.664147 79.256307 196.63702 80.283434 
C 195.609892 81.310561 195.032777 82.70384 195.032777 84.156418 
C 195.032777 85.608995 195.609892 87.002274 196.63702 88.029401 
C 197.664147 89.056528 199.057426 89.633643 200.510003 89.633643 
z
" clip-path="url(#p3dcbbe7d2b)" style="fill: #66c2a5; stroke: #333333; stroke-width: 0.5"/>
    <path d="M 153.377719 96.025978 
C 154.830296 96.025978 156.223575 95.448863 157.250702 94.421736 
C 158.277829 93.394609 158.854944 92.00133 158.854944 90.548753 
C 158.854944 89.096176 158.277829 87.702897 157.250702 86.675769 
C 156.223575 85.648642 154.830296 85.071527 153.377719 85.071527 
C 151.925141 85.071527 150.531862 85.648642 149.504735 86.675769 
C 148.477608 87.702897 147.900493 89.096176 147.900493 90.548753 
C 147.900493 92.00133 148.477608 93.394609 149.504735 94.421736 
C 150.531862 95.448863 151.925141 96.025978 153.377719 96.025978 
z
" clip-path="url(#p3dcbbe7d2b)" style="fill: #fc8d62; stroke: #333333; stroke-width: 0.5"/>
   </g>
   <g id="legend_1">
    <g id="patch_2">
     <path d="M 326.219041 388.785 
L 334.219041 388.785 
L 334.219041 382.145 
L 326.219041 382.145 
z
" style="fill: #66c2a5; stroke: #333333; stroke-width: 0.5; stroke-linejoin: miter"/>
    </g>
    <g id="text_1">
     <text style="font-size: 8px; font-family: 'Arial', 'Helvetica', 'DejaVu Sans', 'Liberation Sans', sans-serif; text-anchor: start" x="340.619041" y="388.225" transform="rotate(-0 340.619041 388.225)">Community 0</text>
    </g>
    <g id="patch_3">
     <path d="M 326.219041 400.54875 
L 334.219041 400.54875 
L 334.219041 393.90875 
L 326.219041 393.90875 
z
" style="fill: #fc8d62; stroke: #333333; stroke-width: 0.5; stroke-linejoin: miter"/>
    </g>
    <g id="text_2">
     <text style="font-size: 8px; font-family: 'Arial', 'Helvetica', 'DejaVu Sans', 'Liberation Sans', sans-serif; text-anchor: start" x="340.619041" y="399.98875" transform="rotate(-0 340.619041 399.98875)">Community 1</text>
    </g>
    <g id="patch_4">
     <path d="M 326.219041 412.3125 
L 334.219041 412.3125 
L 334.219041 405.6725 
L 326.219041 405.6725 
z
" style="fill: #8da0cb; stroke: #333333; stroke-width: 0.5; stroke-linejoin: miter"/>
    </g>
    <g id="text_3">
     <text style="font-size: 8px; font-family: 'Arial', 'Helvetica', 'DejaVu Sans', 'Liberation Sans', sans-serif; text-anchor: start" x="340.619041" y="411.7525" transform="rotate(-0 340.619041 411.7525)">Community 2</text>
    </g>
    <g id="patch_5">
     <path d="M 326.219041 424.07625 
L 334.219041 424.07625 
L 334.219041 417.43625 
L 326.219041 417.43625 
z
" style="fill: #e78ac3; stroke: #333333; stroke-width: 0.5; stroke-linejoin: miter"/>
    </g>
    <g id="text_4">
     <text style="font-size: 8px; font-family: 'Arial', 'Helvetica', 'DejaVu Sans', 'Liberation Sans', sans-serif; text-anchor: start" x="340.619041" y="423.51625" transform="rotate(-0 340.619041 423.51625)">Community 3</text>
    </g>
   </g>
  </g>
 </g>
 <defs>
  <clipPath id="p3dcbbe7d2b">
   <rect x="7.2" y="7.2" width="388.541541" height="426"/>
  </clipPath>
 </defs>
</svg>
