<?xml version="1.0" encoding="utf-8" standalone="no"?>
<!DOCTYPE svg PUBLIC "-//W3C//DTD SVG 1.1//EN"
  "http://www.w3.org/Graphics/SVG/1.1/DTD/svg11.dtd">
<svg xmlns:xlink="http://www.w3.org/1999/xlink" width="728.4pt" height="315.031579pt" viewBox="0 0 728.4 315.031579" xmlns="http://www.w3.org/2000/svg" version="1.1">
 <metadata>
  <rdf:RDF xmlns:dc="http://purl.org/dc/elements/1.1/" xmlns:cc="http://creativecommons.org/ns#" xmlns:rdf="http://www.w3.org/1999/02/22-rdf-syntax-ns#">
   <cc:Work>
    <dc:type rdf:resource="http://purl.org/dc/dcmitype/StillImage"/>
    <dc:date>2026-05-24T23:07:20.018682</dc:date>
    <dc:format>image/svg+xml</dc:format>
    <dc:creator>
     <cc:Agent>
      <dc:title>Matplotlib v3.10.9, https://matplotlib.org/</dc:title>
     </cc:Agent>
    </dc:creator>
   </cc:Work>
  </rdf:RDF>
 </metadata>
 <defs>
  <style type="text/css">*{stroke-linejoin: round; stroke-linecap: butt}</style>
 </defs>
 <g id="figure_1">
  <g id="patch_1">
   <path d="M 0 315.031579 
L 728.4 315.031579 
L 728.4 0 
L 0 0 
z
" style="fill: #ffffff"/>
  </g>
  <g id="axes_1">
   <g id="patch_2">
    <path d="M 150 294.678947 
L 315.347368 294.678947 
Q 319.105263 294.678947 319.105263 290.921053 
L 319.105263 61.689474 
Q 319.105263 57.931579 315.347368 57.931579 
L 150 57.931579 
Q 146.242105 57.931579 146.242105 61.689474 
L 146.242105 290.921053 
Q 146.242105 294.678947 150 294.678947 
z
" clip-path="url(#pe973686d92)" style="fill: #e8f4fd; opacity: 0.55; stroke-dasharray: 4.44,1.92; stroke-dashoffset: 0; stroke: #2176ae; stroke-width: 1.2; stroke-linejoin: miter"/>
   </g>
   <g id="patch_3">
    <path d="M 337.894737 294.678947 
L 503.242105 294.678947 
Q 507 294.678947 507 290.921053 
L 507 61.689474 
Q 507 57.931579 503.242105 57.931579 
L 337.894737 57.931579 
Q 334.136842 57.931579 334.136842 61.689474 
L 334.136842 290.921053 
Q 334.136842 294.678947 337.894737 294.678947 
z
" clip-path="url(#pe973686d92)" style="fill: #fef9e7; opacity: 0.55; stroke-dasharray: 4.44,1.92; stroke-dashoffset: 0; stroke: #b5862a; stroke-width: 1.2; stroke-linejoin: miter"/>
   </g>
   <g id="text_1">
    <!-- RetroDiff -->
    <g style="fill: #222222" transform="translate(330.729062 33.334556) scale(0.13 -0.13)">
     <defs>
      <path id="DejaVuSans-Bold-52" d="M 2297 2597 
Q 2675 2597 2839 2737 
Q 3003 2878 3003 3200 
Q 3003 3519 2839 3656 
Q 2675 3794 2297 3794 
L 1791 3794 
L 1791 2597 
L 2297 2597 
z
M 1791 1766 
L 1791 0 
L 588 0 
L 588 4666 
L 2425 4666 
Q 3347 4666 3776 4356 
Q 4206 4047 4206 3378 
Q 4206 2916 3982 2619 
Q 3759 2322 3309 2181 
Q 3556 2125 3751 1926 
Q 3947 1728 4147 1325 
L 4800 0 
L 3519 0 
L 2950 1159 
Q 2778 1509 2601 1637 
Q 2425 1766 2131 1766 
L 1791 1766 
z
" transform="scale(0.015625)"/>
      <path id="DejaVuSans-Bold-65" d="M 4031 1759 
L 4031 1441 
L 1416 1441 
Q 1456 1047 1700 850 
Q 1944 653 2381 653 
Q 2734 653 3104 758 
Q 3475 863 3866 1075 
L 3866 213 
Q 3469 63 3072 -14 
Q 2675 -91 2278 -91 
Q 1328 -91 801 392 
Q 275 875 275 1747 
Q 275 2603 792 3093 
Q 1309 3584 2216 3584 
Q 3041 3584 3536 3087 
Q 4031 2591 4031 1759 
z
M 2881 2131 
Q 2881 2450 2695 2645 
Q 2509 2841 2209 2841 
Q 1884 2841 1681 2658 
Q 1478 2475 1428 2131 
L 2881 2131 
z
" transform="scale(0.015625)"/>
      <path id="DejaVuSans-Bold-74" d="M 1759 4494 
L 1759 3500 
L 2913 3500 
L 2913 2700 
L 1759 2700 
L 1759 1216 
Q 1759 972 1856 886 
Q 1953 800 2241 800 
L 2816 800 
L 2816 0 
L 1856 0 
Q 1194 0 917 276 
Q 641 553 641 1216 
L 641 2700 
L 84 2700 
L 84 3500 
L 641 3500 
L 641 4494 
L 1759 4494 
z
" transform="scale(0.015625)"/>
      <path id="DejaVuSans-Bold-72" d="M 3138 2547 
Q 2991 2616 2845 2648 
Q 2700 2681 2553 2681 
Q 2122 2681 1889 2404 
Q 1656 2128 1656 1613 
L 1656 0 
L 538 0 
L 538 3500 
L 1656 3500 
L 1656 2925 
Q 1872 3269 2151 3426 
Q 2431 3584 2822 3584 
Q 2878 3584 2943 3579 
Q 3009 3575 3134 3559 
L 3138 2547 
z
" transform="scale(0.015625)"/>
      <path id="DejaVuSans-Bold-6f" d="M 2203 2784 
Q 1831 2784 1636 2517 
Q 1441 2250 1441 1747 
Q 1441 1244 1636 976 
Q 1831 709 2203 709 
Q 2569 709 2762 976 
Q 2956 1244 2956 1747 
Q 2956 2250 2762 2517 
Q 2569 2784 2203 2784 
z
M 2203 3584 
Q 3106 3584 3614 3096 
Q 4122 2609 4122 1747 
Q 4122 884 3614 396 
Q 3106 -91 2203 -91 
Q 1297 -91 786 396 
Q 275 884 275 1747 
Q 275 2609 786 3096 
Q 1297 3584 2203 3584 
z
" transform="scale(0.015625)"/>
      <path id="DejaVuSans-Bold-44" d="M 1791 3756 
L 1791 909 
L 2222 909 
Q 2959 909 3348 1275 
Q 3738 1641 3738 2338 
Q 3738 3031 3350 3393 
Q 2963 3756 2222 3756 
L 1791 3756 
z
M 588 4666 
L 1856 4666 
Q 2919 4666 3439 4514 
Q 3959 4363 4331 4000 
Q 4659 3684 4818 3271 
Q 4978 2859 4978 2338 
Q 4978 1809 4818 1395 
Q 4659 981 4331 666 
Q 3956 303 3431 151 
Q 2906 0 1856 0 
L 588 0 
L 588 4666 
z
" transform="scale(0.015625)"/>
      <path id="DejaVuSans-Bold-69" d="M 538 3500 
L 1656 3500 
L 1656 0 
L 538 0 
L 538 3500 
z
M 538 4863 
L 1656 4863 
L 1656 3950 
L 538 3950 
L 538 4863 
z
" transform="scale(0.015625)"/>
      <path id="DejaVuSans-Bold-66" d="M 2841 4863 
L 2841 4128 
L 2222 4128 
Q 1984 4128 1890 4042 
Q 1797 3956 1797 3744 
L 1797 3500 
L 2753 3500 
L 2753 2700 
L 1797 2700 
L 1797 0 
L 678 0 
L 678 2700 
L 122 2700 
L 122 3500 
L 678 3500 
L 678 3744 
Q 678 4316 997 4589 
Q 1316 4863 1984 4863 
L 2841 4863 
z
" transform="scale(0.015625)"/>
     </defs>
     <use xlink:href="#DejaVuSans-Bold-52"/>
     <use xlink:href="#DejaVuSans-Bold-65" transform="translate(77.001953 0)"/>
     <use xlink:href="#DejaVuSans-Bold-74" transform="translate(144.824219 0)"/>
     <use xlink:href="#DejaVuSans-Bold-72" transform="translate(192.626953 0)"/>
     <use xlink:href="#DejaVuSans-Bold-6f" transform="translate(241.943359 0)"/>
     <use xlink:href="#DejaVuSans-Bold-44" transform="translate(310.644531 0)"/>
     <use xlink:href="#DejaVuSans-Bold-69" transform="translate(393.652344 0)"/>
     <use xlink:href="#DejaVuSans-Bold-66" transform="translate(427.929688 0)"/>
     <use xlink:href="#DejaVuSans-Bold-66" transform="translate(471.435547 0)"/>
    </g>
   </g>
   <g id="text_2">
    <!-- Retrieval -->
    <g style="fill: #2176ae" transform="translate(214.718059 55.51625) scale(0.08 -0.08)">
     <defs>
      <path id="DejaVuSans-Oblique-52" d="M 1613 4147 
L 1294 2491 
L 2106 2491 
Q 2584 2491 2879 2755 
Q 3175 3019 3175 3444 
Q 3175 3784 2976 3965 
Q 2778 4147 2406 4147 
L 1613 4147 
z
M 2772 2241 
Q 2972 2194 3105 2009 
Q 3238 1825 3413 1275 
L 3809 0 
L 3144 0 
L 2778 1197 
Q 2638 1659 2453 1815 
Q 2269 1972 1888 1972 
L 1191 1972 
L 806 0 
L 172 0 
L 1081 4666 
L 2503 4666 
Q 3150 4666 3495 4373 
Q 3841 4081 3841 3531 
Q 3841 3044 3547 2687 
Q 3253 2331 2772 2241 
z
" transform="scale(0.015625)"/>
      <path id="DejaVuSans-Oblique-65" d="M 3078 2063 
Q 3088 2113 3092 2166 
Q 3097 2219 3097 2272 
Q 3097 2653 2873 2875 
Q 2650 3097 2266 3097 
Q 1838 3097 1509 2826 
Q 1181 2556 1013 2059 
L 3078 2063 
z
M 3578 1613 
L 903 1613 
Q 884 1494 878 1425 
Q 872 1356 872 1306 
Q 872 872 1139 634 
Q 1406 397 1894 397 
Q 2269 397 2603 481 
Q 2938 566 3225 728 
L 3116 159 
Q 2806 34 2476 -28 
Q 2147 -91 1806 -91 
Q 1078 -91 686 257 
Q 294 606 294 1247 
Q 294 1794 489 2264 
Q 684 2734 1063 3103 
Q 1306 3334 1642 3459 
Q 1978 3584 2356 3584 
Q 2950 3584 3301 3228 
Q 3653 2872 3653 2272 
Q 3653 2128 3634 1964 
Q 3616 1800 3578 1613 
z
" transform="scale(0.015625)"/>
      <path id="DejaVuSans-Oblique-74" d="M 2706 3500 
L 2619 3053 
L 1472 3053 
L 1100 1153 
Q 1081 1047 1072 975 
Q 1063 903 1063 863 
Q 1063 663 1183 572 
Q 1303 481 1569 481 
L 2150 481 
L 2053 0 
L 1503 0 
Q 991 0 739 200 
Q 488 400 488 806 
Q 488 878 497 964 
Q 506 1050 525 1153 
L 897 3053 
L 409 3053 
L 500 3500 
L 978 3500 
L 1172 4494 
L 1747 4494 
L 1556 3500 
L 2706 3500 
z
" transform="scale(0.015625)"/>
      <path id="DejaVuSans-Oblique-72" d="M 2853 2969 
Q 2766 3016 2653 3041 
Q 2541 3066 2413 3066 
Q 1953 3066 1609 2717 
Q 1266 2369 1153 1784 
L 800 0 
L 225 0 
L 909 3500 
L 1484 3500 
L 1375 2956 
Q 1603 3259 1920 3421 
Q 2238 3584 2597 3584 
Q 2691 3584 2781 3573 
Q 2872 3563 2963 3538 
L 2853 2969 
z
" transform="scale(0.015625)"/>
      <path id="DejaVuSans-Oblique-69" d="M 1172 4863 
L 1747 4863 
L 1606 4134 
L 1031 4134 
L 1172 4863 
z
M 909 3500 
L 1484 3500 
L 800 0 
L 225 0 
L 909 3500 
z
" transform="scale(0.015625)"/>
      <path id="DejaVuSans-Oblique-76" d="M 459 3500 
L 1069 3500 
L 1581 525 
L 3256 3500 
L 3866 3500 
L 1875 0 
L 1100 0 
L 459 3500 
z
" transform="scale(0.015625)"/>
      <path id="DejaVuSans-Oblique-61" d="M 3438 1997 
L 3047 0 
L 2472 0 
L 2578 531 
Q 2325 219 2001 64 
Q 1678 -91 1281 -91 
Q 834 -91 548 182 
Q 263 456 263 884 
Q 263 1497 752 1853 
Q 1241 2209 2100 2209 
L 2900 2209 
L 2931 2363 
Q 2938 2388 2941 2417 
Q 2944 2447 2944 2509 
Q 2944 2788 2717 2942 
Q 2491 3097 2081 3097 
Q 1800 3097 1504 3025 
Q 1209 2953 897 2809 
L 997 3341 
Q 1322 3463 1633 3523 
Q 1944 3584 2234 3584 
Q 2853 3584 3176 3315 
Q 3500 3047 3500 2534 
Q 3500 2431 3484 2292 
Q 3469 2153 3438 1997 
z
M 2816 1759 
L 2241 1759 
Q 1534 1759 1195 1570 
Q 856 1381 856 984 
Q 856 709 1029 553 
Q 1203 397 1509 397 
Q 1978 397 2328 733 
Q 2678 1069 2791 1631 
L 2816 1759 
z
" transform="scale(0.015625)"/>
      <path id="DejaVuSans-Oblique-6c" d="M 1172 4863 
L 1747 4863 
L 800 0 
L 225 0 
L 1172 4863 
z
" transform="scale(0.015625)"/>
     </defs>
     <use xlink:href="#DejaVuSans-Oblique-52"/>
     <use xlink:href="#DejaVuSans-Oblique-65" transform="translate(69.482422 0)"/>
     <use xlink:href="#DejaVuSans-Oblique-74" transform="translate(131.005859 0)"/>
     <use xlink:href="#DejaVuSans-Oblique-72" transform="translate(170.214844 0)"/>
     <use xlink:href="#DejaVuSans-Oblique-69" transform="translate(211.328125 0)"/>
     <use xlink:href="#DejaVuSans-Oblique-65" transform="translate(239.111328 0)"/>
     <use xlink:href="#DejaVuSans-Oblique-76" transform="translate(300.634766 0)"/>
     <use xlink:href="#DejaVuSans-Oblique-61" transform="translate(359.814453 0)"/>
     <use xlink:href="#DejaVuSans-Oblique-6c" transform="translate(421.09375 0)"/>
    </g>
   </g>
   <g id="text_3">
    <!-- Generation -->
    <g style="fill: #b5862a" transform="translate(398.254046 55.51625) scale(0.08 -0.08)">
     <defs>
      <path id="DejaVuSans-Oblique-47" d="M 3494 697 
L 3738 1919 
L 2700 1919 
L 2797 2438 
L 4453 2438 
L 4050 384 
Q 3634 156 3143 32 
Q 2653 -91 2156 -91 
Q 1278 -91 783 396 
Q 288 884 288 1753 
Q 288 2475 589 3126 
Q 891 3778 1422 4213 
Q 1756 4484 2153 4617 
Q 2550 4750 3034 4750 
Q 3472 4750 3873 4639 
Q 4275 4528 4641 4306 
L 4513 3634 
Q 4231 3928 3853 4083 
Q 3475 4238 3047 4238 
Q 2550 4238 2172 4048 
Q 1794 3859 1497 3463 
Q 1244 3125 1098 2667 
Q 953 2209 953 1734 
Q 953 1081 1287 751 
Q 1622 422 2284 422 
Q 2616 422 2925 492 
Q 3234 563 3494 697 
z
" transform="scale(0.015625)"/>
      <path id="DejaVuSans-Oblique-6e" d="M 3566 2113 
L 3156 0 
L 2578 0 
L 2988 2091 
Q 3016 2238 3031 2350 
Q 3047 2463 3047 2528 
Q 3047 2791 2881 2937 
Q 2716 3084 2419 3084 
Q 1956 3084 1622 2776 
Q 1288 2469 1184 1941 
L 800 0 
L 225 0 
L 903 3500 
L 1478 3500 
L 1363 2950 
Q 1603 3253 1940 3418 
Q 2278 3584 2650 3584 
Q 3113 3584 3367 3334 
Q 3622 3084 3622 2631 
Q 3622 2519 3608 2391 
Q 3594 2263 3566 2113 
z
" transform="scale(0.015625)"/>
      <path id="DejaVuSans-Oblique-6f" d="M 1625 -91 
Q 1009 -91 651 289 
Q 294 669 294 1325 
Q 294 1706 417 2101 
Q 541 2497 738 2766 
Q 1047 3184 1428 3384 
Q 1809 3584 2291 3584 
Q 2888 3584 3255 3212 
Q 3622 2841 3622 2241 
Q 3622 1825 3500 1412 
Q 3378 1000 3181 728 
Q 2875 309 2494 109 
Q 2113 -91 1625 -91 
z
M 891 1344 
Q 891 869 1089 633 
Q 1288 397 1691 397 
Q 2269 397 2648 901 
Q 3028 1406 3028 2181 
Q 3028 2634 2825 2865 
Q 2622 3097 2228 3097 
Q 1903 3097 1650 2945 
Q 1397 2794 1197 2484 
Q 1050 2253 970 1956 
Q 891 1659 891 1344 
z
" transform="scale(0.015625)"/>
     </defs>
     <use xlink:href="#DejaVuSans-Oblique-47"/>
     <use xlink:href="#DejaVuSans-Oblique-65" transform="translate(77.490234 0)"/>
     <use xlink:href="#DejaVuSans-Oblique-6e" transform="translate(139.013672 0)"/>
     <use xlink:href="#DejaVuSans-Oblique-65" transform="translate(202.392578 0)"/>
     <use xlink:href="#DejaVuSans-Oblique-72" transform="translate(263.916016 0)"/>
     <use xlink:href="#DejaVuSans-Oblique-61" transform="translate(305.029297 0)"/>
     <use xlink:href="#DejaVuSans-Oblique-74" transform="translate(366.308594 0)"/>
     <use xlink:href="#DejaVuSans-Oblique-69" transform="translate(405.517578 0)"/>
     <use xlink:href="#DejaVuSans-Oblique-6f" transform="translate(433.300781 0)"/>
     <use xlink:href="#DejaVuSans-Oblique-6e" transform="translate(494.482422 0)"/>
    </g>
   </g>
   <g id="patch_4">
    <path d="M 133.211036 119.936842 
Q 157.516756 119.936842 180.257228 119.936842 
" style="fill: none; stroke: #444444; stroke-width: 1.4; stroke-linecap: round"/>
    <path d="M 174.657228 117.136842 
L 180.257228 119.936842 
L 174.657228 122.736842 
z
" style="fill: #444444; stroke: #444444; stroke-width: 1.4; stroke-linecap: round"/>
   </g>
   <g id="patch_5">
    <path d="M 232.673684 146.363439 
Q 232.673684 176.306362 232.673684 204.684037 
" style="fill: none; stroke: #444444; stroke-width: 1.4; stroke-linecap: round"/>
    <path d="M 235.473684 199.084037 
L 232.673684 204.684037 
L 229.873684 199.084037 
z
" style="fill: #444444; stroke: #444444; stroke-width: 1.4; stroke-linecap: round"/>
   </g>
   <g id="patch_6">
    <path d="M 283.527285 119.936842 
Q 326.621719 119.936842 368.150906 119.936842 
" style="fill: none; stroke: #444444; stroke-width: 1.4; stroke-linecap: round"/>
    <path d="M 362.550906 117.136842 
L 368.150906 119.936842 
L 362.550906 122.736842 
z
" style="fill: #444444; stroke: #444444; stroke-width: 1.4; stroke-linecap: round"/>
   </g>
   <g id="patch_7">
    <path d="M 420.568421 146.363439 
Q 420.568421 176.306362 420.568421 204.684037 
" style="fill: none; stroke: #444444; stroke-width: 1.4; stroke-linecap: round"/>
    <path d="M 423.368421 199.084037 
L 420.568421 204.684037 
L 417.768421 199.084037 
z
" style="fill: #444444; stroke: #444444; stroke-width: 1.4; stroke-linecap: round"/>
   </g>
   <g id="patch_8">
    <path d="M 471.422021 119.936842 
Q 514.516456 119.936842 556.045643 119.936842 
" style="fill: none; stroke: #444444; stroke-width: 1.4; stroke-linecap: round"/>
    <path d="M 550.445643 117.136842 
L 556.045643 119.936842 
L 550.445643 122.736842 
z
" style="fill: #444444; stroke: #444444; stroke-width: 1.4; stroke-linecap: round"/>
   </g>
   <g id="patch_9">
    <path d="M 420.568421 206.247088 
Q 420.568421 176.304164 420.568421 147.702882 
" style="fill: none; stroke-dasharray: 4.44,1.92; stroke-dashoffset: 0; stroke: #888888; stroke-width: 1.2; stroke-linecap: round"/>
    <path d="M 418.168421 152.502882 
L 420.568421 147.702882 
L 422.968421 152.502882 
z
" style="fill: #888888; stroke-dasharray: 4.44,1.92; stroke-dashoffset: 0; stroke: #888888; stroke-width: 1.2; stroke-linecap: round"/>
   </g>
   <g id="text_4">
    <!-- guidance -->
    <g style="fill: #888888" transform="translate(405.641273 197.778984) scale(0.065 -0.065)">
     <defs>
      <path id="DejaVuSans-Oblique-67" d="M 3816 3500 
L 3219 434 
Q 3047 -456 2561 -893 
Q 2075 -1331 1253 -1331 
Q 950 -1331 690 -1286 
Q 431 -1241 206 -1147 
L 313 -588 
Q 525 -725 762 -790 
Q 1000 -856 1269 -856 
Q 1816 -856 2167 -557 
Q 2519 -259 2631 300 
L 2681 563 
Q 2441 288 2122 144 
Q 1803 0 1434 0 
Q 903 0 598 351 
Q 294 703 294 1319 
Q 294 1803 478 2267 
Q 663 2731 997 3091 
Q 1219 3328 1514 3456 
Q 1809 3584 2131 3584 
Q 2484 3584 2746 3420 
Q 3009 3256 3138 2956 
L 3238 3500 
L 3816 3500 
z
M 2950 2216 
Q 2950 2641 2750 2872 
Q 2550 3103 2181 3103 
Q 1953 3103 1747 3012 
Q 1541 2922 1394 2759 
Q 1156 2491 1023 2127 
Q 891 1763 891 1375 
Q 891 944 1092 712 
Q 1294 481 1672 481 
Q 2219 481 2584 976 
Q 2950 1472 2950 2216 
z
" transform="scale(0.015625)"/>
      <path id="DejaVuSans-Oblique-75" d="M 428 1388 
L 838 3500 
L 1416 3500 
L 1006 1409 
Q 975 1256 961 1147 
Q 947 1038 947 966 
Q 947 700 1109 554 
Q 1272 409 1569 409 
Q 2031 409 2368 721 
Q 2706 1034 2809 1563 
L 3194 3500 
L 3769 3500 
L 3091 0 
L 2516 0 
L 2631 550 
Q 2388 244 2052 76 
Q 1716 -91 1338 -91 
Q 878 -91 622 161 
Q 366 413 366 863 
Q 366 956 381 1097 
Q 397 1238 428 1388 
z
" transform="scale(0.015625)"/>
      <path id="DejaVuSans-Oblique-64" d="M 2675 525 
Q 2444 222 2128 65 
Q 1813 -91 1428 -91 
Q 903 -91 598 267 
Q 294 625 294 1247 
Q 294 1766 478 2236 
Q 663 2706 1013 3078 
Q 1244 3325 1534 3454 
Q 1825 3584 2144 3584 
Q 2481 3584 2739 3421 
Q 2997 3259 3138 2956 
L 3513 4863 
L 4091 4863 
L 3144 0 
L 2566 0 
L 2675 525 
z
M 891 1350 
Q 891 897 1095 644 
Q 1300 391 1663 391 
Q 1931 391 2161 520 
Q 2391 650 2566 903 
Q 2750 1166 2856 1509 
Q 2963 1853 2963 2188 
Q 2963 2622 2758 2865 
Q 2553 3109 2194 3109 
Q 1922 3109 1687 2981 
Q 1453 2853 1288 2613 
Q 1106 2353 998 2009 
Q 891 1666 891 1350 
z
" transform="scale(0.015625)"/>
      <path id="DejaVuSans-Oblique-63" d="M 3431 3366 
L 3316 2797 
Q 3109 2947 2876 3022 
Q 2644 3097 2394 3097 
Q 2119 3097 1870 3000 
Q 1622 2903 1453 2725 
Q 1184 2453 1037 2087 
Q 891 1722 891 1331 
Q 891 859 1127 628 
Q 1363 397 1844 397 
Q 2081 397 2348 469 
Q 2616 541 2906 684 
L 2797 116 
Q 2547 13 2283 -39 
Q 2019 -91 1741 -91 
Q 1044 -91 669 257 
Q 294 606 294 1253 
Q 294 1797 489 2255 
Q 684 2713 1069 3078 
Q 1331 3328 1684 3456 
Q 2038 3584 2456 3584 
Q 2700 3584 2940 3529 
Q 3181 3475 3431 3366 
z
" transform="scale(0.015625)"/>
     </defs>
     <use xlink:href="#DejaVuSans-Oblique-67"/>
     <use xlink:href="#DejaVuSans-Oblique-75" transform="translate(63.476562 0)"/>
     <use xlink:href="#DejaVuSans-Oblique-69" transform="translate(126.855469 0)"/>
     <use xlink:href="#DejaVuSans-Oblique-64" transform="translate(154.638672 0)"/>
     <use xlink:href="#DejaVuSans-Oblique-61" transform="translate(218.115234 0)"/>
     <use xlink:href="#DejaVuSans-Oblique-6e" transform="translate(279.394531 0)"/>
     <use xlink:href="#DejaVuSans-Oblique-63" transform="translate(342.773438 0)"/>
     <use xlink:href="#DejaVuSans-Oblique-65" transform="translate(397.753906 0)"/>
    </g>
   </g>
   <g id="patch_10">
    <path d="M 20.476029 266.494737 
Q 35.385222 266.494737 48.729168 266.494737 
" style="fill: none; stroke: #444444; stroke-width: 1.4; stroke-linecap: round"/>
    <path d="M 43.929168 264.094737 
L 48.729168 266.494737 
L 43.929168 268.894737 
z
" style="fill: #444444; stroke: #444444; stroke-width: 1.4; stroke-linecap: round"/>
   </g>
   <g id="text_5">
    <!-- data flow -->
    <g style="fill: #444444" transform="translate(57.555789 268.426299) scale(0.07 -0.07)">
     <defs>
      <path id="DejaVuSans-64" d="M 2906 2969 
L 2906 4863 
L 3481 4863 
L 3481 0 
L 2906 0 
L 2906 525 
Q 2725 213 2448 61 
Q 2172 -91 1784 -91 
Q 1150 -91 751 415 
Q 353 922 353 1747 
Q 353 2572 751 3078 
Q 1150 3584 1784 3584 
Q 2172 3584 2448 3432 
Q 2725 3281 2906 2969 
z
M 947 1747 
Q 947 1113 1208 752 
Q 1469 391 1925 391 
Q 2381 391 2643 752 
Q 2906 1113 2906 1747 
Q 2906 2381 2643 2742 
Q 2381 3103 1925 3103 
Q 1469 3103 1208 2742 
Q 947 2381 947 1747 
z
" transform="scale(0.015625)"/>
      <path id="DejaVuSans-61" d="M 2194 1759 
Q 1497 1759 1228 1600 
Q 959 1441 959 1056 
Q 959 750 1161 570 
Q 1363 391 1709 391 
Q 2188 391 2477 730 
Q 2766 1069 2766 1631 
L 2766 1759 
L 2194 1759 
z
M 3341 1997 
L 3341 0 
L 2766 0 
L 2766 531 
Q 2569 213 2275 61 
Q 1981 -91 1556 -91 
Q 1019 -91 701 211 
Q 384 513 384 1019 
Q 384 1609 779 1909 
Q 1175 2209 1959 2209 
L 2766 2209 
L 2766 2266 
Q 2766 2663 2505 2880 
Q 2244 3097 1772 3097 
Q 1472 3097 1187 3025 
Q 903 2953 641 2809 
L 641 3341 
Q 956 3463 1253 3523 
Q 1550 3584 1831 3584 
Q 2591 3584 2966 3190 
Q 3341 2797 3341 1997 
z
" transform="scale(0.015625)"/>
      <path id="DejaVuSans-74" d="M 1172 4494 
L 1172 3500 
L 2356 3500 
L 2356 3053 
L 1172 3053 
L 1172 1153 
Q 1172 725 1289 603 
Q 1406 481 1766 481 
L 2356 481 
L 2356 0 
L 1766 0 
Q 1100 0 847 248 
Q 594 497 594 1153 
L 594 3053 
L 172 3053 
L 172 3500 
L 594 3500 
L 594 4494 
L 1172 4494 
z
" transform="scale(0.015625)"/>
      <path id="DejaVuSans-20" transform="scale(0.015625)"/>
      <path id="DejaVuSans-66" d="M 2375 4863 
L 2375 4384 
L 1825 4384 
Q 1516 4384 1395 4259 
Q 1275 4134 1275 3809 
L 1275 3500 
L 2222 3500 
L 2222 3053 
L 1275 3053 
L 1275 0 
L 697 0 
L 697 3053 
L 147 3053 
L 147 3500 
L 697 3500 
L 697 3744 
Q 697 4328 969 4595 
Q 1241 4863 1831 4863 
L 2375 4863 
z
" transform="scale(0.015625)"/>
      <path id="DejaVuSans-6c" d="M 603 4863 
L 1178 4863 
L 1178 0 
L 603 0 
L 603 4863 
z
" transform="scale(0.015625)"/>
      <path id="DejaVuSans-6f" d="M 1959 3097 
Q 1497 3097 1228 2736 
Q 959 2375 959 1747 
Q 959 1119 1226 758 
Q 1494 397 1959 397 
Q 2419 397 2687 759 
Q 2956 1122 2956 1747 
Q 2956 2369 2687 2733 
Q 2419 3097 1959 3097 
z
M 1959 3584 
Q 2709 3584 3137 3096 
Q 3566 2609 3566 1747 
Q 3566 888 3137 398 
Q 2709 -91 1959 -91 
Q 1206 -91 779 398 
Q 353 888 353 1747 
Q 353 2609 779 3096 
Q 1206 3584 1959 3584 
z
" transform="scale(0.015625)"/>
      <path id="DejaVuSans-77" d="M 269 3500 
L 844 3500 
L 1563 769 
L 2278 3500 
L 2956 3500 
L 3675 769 
L 4391 3500 
L 4966 3500 
L 4050 0 
L 3372 0 
L 2619 2869 
L 1863 0 
L 1184 0 
L 269 3500 
z
" transform="scale(0.015625)"/>
     </defs>
     <use xlink:href="#DejaVuSans-64"/>
     <use xlink:href="#DejaVuSans-61" transform="translate(63.476562 0)"/>
     <use xlink:href="#DejaVuSans-74" transform="translate(124.755859 0)"/>
     <use xlink:href="#DejaVuSans-61" transform="translate(163.964844 0)"/>
     <use xlink:href="#DejaVuSans-20" transform="translate(225.244141 0)"/>
     <use xlink:href="#DejaVuSans-66" transform="translate(257.03125 0)"/>
     <use xlink:href="#DejaVuSans-6c" transform="translate(292.236328 0)"/>
     <use xlink:href="#DejaVuSans-6f" transform="translate(320.019531 0)"/>
     <use xlink:href="#DejaVuSans-77" transform="translate(381.201172 0)"/>
    </g>
   </g>
   <g id="patch_11">
    <path d="M 20.476029 289.042105 
Q 35.385222 289.042105 48.952774 289.042105 
" style="fill: none; stroke-dasharray: 4.44,1.92; stroke-dashoffset: 0; stroke: #888888; stroke-width: 1.2; stroke-linecap: round"/>
    <path d="M 44.152774 286.642105 
L 48.952774 289.042105 
L 44.152774 291.442105 
z
" style="fill: #888888; stroke-dasharray: 4.44,1.92; stroke-dashoffset: 0; stroke: #888888; stroke-width: 1.2; stroke-linecap: round"/>
   </g>
   <g id="text_6">
    <!-- control / feedback -->
    <g style="fill: #888888" transform="translate(57.555789 290.973668) scale(0.07 -0.07)">
     <defs>
      <path id="DejaVuSans-63" d="M 3122 3366 
L 3122 2828 
Q 2878 2963 2633 3030 
Q 2388 3097 2138 3097 
Q 1578 3097 1268 2742 
Q 959 2388 959 1747 
Q 959 1106 1268 751 
Q 1578 397 2138 397 
Q 2388 397 2633 464 
Q 2878 531 3122 666 
L 3122 134 
Q 2881 22 2623 -34 
Q 2366 -91 2075 -91 
Q 1284 -91 818 406 
Q 353 903 353 1747 
Q 353 2603 823 3093 
Q 1294 3584 2113 3584 
Q 2378 3584 2631 3529 
Q 2884 3475 3122 3366 
z
" transform="scale(0.015625)"/>
      <path id="DejaVuSans-6e" d="M 3513 2113 
L 3513 0 
L 2938 0 
L 2938 2094 
Q 2938 2591 2744 2837 
Q 2550 3084 2163 3084 
Q 1697 3084 1428 2787 
Q 1159 2491 1159 1978 
L 1159 0 
L 581 0 
L 581 3500 
L 1159 3500 
L 1159 2956 
Q 1366 3272 1645 3428 
Q 1925 3584 2291 3584 
Q 2894 3584 3203 3211 
Q 3513 2838 3513 2113 
z
" transform="scale(0.015625)"/>
      <path id="DejaVuSans-72" d="M 2631 2963 
Q 2534 3019 2420 3045 
Q 2306 3072 2169 3072 
Q 1681 3072 1420 2755 
Q 1159 2438 1159 1844 
L 1159 0 
L 581 0 
L 581 3500 
L 1159 3500 
L 1159 2956 
Q 1341 3275 1631 3429 
Q 1922 3584 2338 3584 
Q 2397 3584 2469 3576 
Q 2541 3569 2628 3553 
L 2631 2963 
z
" transform="scale(0.015625)"/>
      <path id="DejaVuSans-2f" d="M 1625 4666 
L 2156 4666 
L 531 -594 
L 0 -594 
L 1625 4666 
z
" transform="scale(0.015625)"/>
      <path id="DejaVuSans-65" d="M 3597 1894 
L 3597 1613 
L 953 1613 
Q 991 1019 1311 708 
Q 1631 397 2203 397 
Q 2534 397 2845 478 
Q 3156 559 3463 722 
L 3463 178 
Q 3153 47 2828 -22 
Q 2503 -91 2169 -91 
Q 1331 -91 842 396 
Q 353 884 353 1716 
Q 353 2575 817 3079 
Q 1281 3584 2069 3584 
Q 2775 3584 3186 3129 
Q 3597 2675 3597 1894 
z
M 3022 2063 
Q 3016 2534 2758 2815 
Q 2500 3097 2075 3097 
Q 1594 3097 1305 2825 
Q 1016 2553 972 2059 
L 3022 2063 
z
" transform="scale(0.015625)"/>
      <path id="DejaVuSans-62" d="M 3116 1747 
Q 3116 2381 2855 2742 
Q 2594 3103 2138 3103 
Q 1681 3103 1420 2742 
Q 1159 2381 1159 1747 
Q 1159 1113 1420 752 
Q 1681 391 2138 391 
Q 2594 391 2855 752 
Q 3116 1113 3116 1747 
z
M 1159 2969 
Q 1341 3281 1617 3432 
Q 1894 3584 2278 3584 
Q 2916 3584 3314 3078 
Q 3713 2572 3713 1747 
Q 3713 922 3314 415 
Q 2916 -91 2278 -91 
Q 1894 -91 1617 61 
Q 1341 213 1159 525 
L 1159 0 
L 581 0 
L 581 4863 
L 1159 4863 
L 1159 2969 
z
" transform="scale(0.015625)"/>
      <path id="DejaVuSans-6b" d="M 581 4863 
L 1159 4863 
L 1159 1991 
L 2875 3500 
L 3609 3500 
L 1753 1863 
L 3688 0 
L 2938 0 
L 1159 1709 
L 1159 0 
L 581 0 
L 581 4863 
z
" transform="scale(0.015625)"/>
     </defs>
     <use xlink:href="#DejaVuSans-63"/>
     <use xlink:href="#DejaVuSans-6f" transform="translate(54.980469 0)"/>
     <use xlink:href="#DejaVuSans-6e" transform="translate(116.162109 0)"/>
     <use xlink:href="#DejaVuSans-74" transform="translate(179.541016 0)"/>
     <use xlink:href="#DejaVuSans-72" transform="translate(218.75 0)"/>
     <use xlink:href="#DejaVuSans-6f" transform="translate(257.613281 0)"/>
     <use xlink:href="#DejaVuSans-6c" transform="translate(318.794922 0)"/>
     <use xlink:href="#DejaVuSans-20" transform="translate(346.578125 0)"/>
     <use xlink:href="#DejaVuSans-2f" transform="translate(378.365234 0)"/>
     <use xlink:href="#DejaVuSans-20" transform="translate(412.056641 0)"/>
     <use xlink:href="#DejaVuSans-66" transform="translate(443.84375 0)"/>
     <use xlink:href="#DejaVuSans-65" transform="translate(479.048828 0)"/>
     <use xlink:href="#DejaVuSans-65" transform="translate(540.572266 0)"/>
     <use xlink:href="#DejaVuSans-64" transform="translate(602.095703 0)"/>
     <use xlink:href="#DejaVuSans-62" transform="translate(665.572266 0)"/>
     <use xlink:href="#DejaVuSans-61" transform="translate(729.048828 0)"/>
     <use xlink:href="#DejaVuSans-63" transform="translate(790.328125 0)"/>
     <use xlink:href="#DejaVuSans-6b" transform="translate(845.308594 0)"/>
    </g>
   </g>
   <g id="patch_12">
    <path d="M 33.505263 149.624211 
L 131.210526 149.624211 
Q 136.471579 149.624211 136.471579 144.363158 
L 136.471579 95.510526 
Q 136.471579 90.249474 131.210526 90.249474 
L 33.505263 90.249474 
Q 28.244211 90.249474 28.244211 95.510526 
L 28.244211 144.363158 
Q 28.244211 149.624211 33.505263 149.624211 
z
" clip-path="url(#pe973686d92)" style="fill: #d0e8ff; stroke: #2176ae; stroke-width: 1.5; stroke-linejoin: miter"/>
   </g>
   <g id="patch_13">
    <path d="M 178.56 149.624211 
L 286.787368 149.624211 
L 286.787368 90.249474 
L 178.56 90.249474 
z
" clip-path="url(#pe973686d92)" style="fill: #fff3cd; stroke: #b5862a; stroke-width: 1.5; stroke-linejoin: miter"/>
   </g>
   <g id="patch_14">
    <path d="M 183.821053 262.361053 
L 281.526316 262.361053 
Q 286.787368 262.361053 286.787368 257.1 
L 286.787368 208.247368 
Q 286.787368 202.986316 281.526316 202.986316 
L 183.821053 202.986316 
Q 178.56 202.986316 178.56 208.247368 
L 178.56 257.1 
Q 178.56 262.361053 183.821053 262.361053 
z
" clip-path="url(#pe973686d92)" style="fill: #f0e6ff; stroke: #6a3fbf; stroke-width: 1.5; stroke-linejoin: miter"/>
   </g>
   <g id="patch_15">
    <path d="M 366.454737 149.624211 
L 474.682105 149.624211 
L 474.682105 90.249474 
L 366.454737 90.249474 
z
" clip-path="url(#pe973686d92)" style="fill: #fff3cd; stroke: #b5862a; stroke-width: 1.5; stroke-linejoin: miter"/>
   </g>
   <g id="patch_16">
    <path d="M 366.454737 262.361053 
L 474.682105 262.361053 
L 474.682105 202.986316 
L 366.454737 202.986316 
z
" clip-path="url(#pe973686d92)" style="fill: #fff3cd; stroke: #b5862a; stroke-width: 1.5; stroke-linejoin: miter"/>
   </g>
   <g id="patch_17">
    <path d="M 559.610526 149.624211 
L 657.315789 149.624211 
Q 662.576842 149.624211 662.576842 144.363158 
L 662.576842 95.510526 
Q 662.576842 90.249474 657.315789 90.249474 
L 559.610526 90.249474 
Q 554.349474 90.249474 554.349474 95.510526 
L 554.349474 144.363158 
Q 554.349474 149.624211 559.610526 149.624211 
z
" clip-path="url(#pe973686d92)" style="fill: #d5f5e3; stroke: #1a7a46; stroke-width: 1.5; stroke-linejoin: miter"/>
   </g>
   <g id="patch_18">
    <path d="M 232.673684 222.527368 
C 245.629554 222.527368 258.056528 221.656266 267.217711 220.105912 
C 276.378894 218.555558 281.526316 216.452532 281.526316 214.26 
C 281.526316 212.067468 276.378894 209.964442 267.217711 208.414088 
C 258.056528 206.863734 245.629554 205.992632 232.673684 205.992632 
C 219.717815 205.992632 207.29084 206.863734 198.129657 208.414088 
C 188.968474 209.964442 183.821053 212.067468 183.821053 214.26 
C 183.821053 216.452532 188.968474 218.555558 198.129657 220.105912 
C 207.29084 221.656266 219.717815 222.527368 232.673684 222.527368 
z
" clip-path="url(#pe973686d92)" style="fill: #f0e6ff; stroke: #6a3fbf; stroke-width: 1.5; stroke-linejoin: miter"/>
   </g>
   <g id="text_7">
    <!-- Query -->
    <g style="fill: #222222" transform="translate(67.970317 122.215905) scale(0.085 -0.085)">
     <defs>
      <path id="DejaVuSans-Bold-51" d="M 2847 -84 
L 2753 -84 
Q 1600 -84 959 553 
Q 319 1191 319 2328 
Q 319 3463 958 4106 
Q 1597 4750 2719 4750 
Q 3853 4750 4486 4112 
Q 5119 3475 5119 2328 
Q 5119 1541 4783 972 
Q 4447 403 3816 116 
L 4756 -934 
L 3609 -934 
L 2847 -84 
z
M 2719 3878 
Q 2169 3878 1866 3472 
Q 1563 3066 1563 2328 
Q 1563 1578 1859 1179 
Q 2156 781 2719 781 
Q 3272 781 3575 1187 
Q 3878 1594 3878 2328 
Q 3878 3066 3575 3472 
Q 3272 3878 2719 3878 
z
" transform="scale(0.015625)"/>
      <path id="DejaVuSans-Bold-75" d="M 500 1363 
L 500 3500 
L 1625 3500 
L 1625 3150 
Q 1625 2866 1622 2436 
Q 1619 2006 1619 1863 
Q 1619 1441 1641 1255 
Q 1663 1069 1716 984 
Q 1784 875 1895 815 
Q 2006 756 2150 756 
Q 2500 756 2700 1025 
Q 2900 1294 2900 1772 
L 2900 3500 
L 4019 3500 
L 4019 0 
L 2900 0 
L 2900 506 
Q 2647 200 2364 54 
Q 2081 -91 1741 -91 
Q 1134 -91 817 281 
Q 500 653 500 1363 
z
" transform="scale(0.015625)"/>
      <path id="DejaVuSans-Bold-79" d="M 78 3500 
L 1197 3500 
L 2138 1125 
L 2938 3500 
L 4056 3500 
L 2584 -331 
Q 2363 -916 2067 -1148 
Q 1772 -1381 1288 -1381 
L 641 -1381 
L 641 -647 
L 991 -647 
Q 1275 -647 1404 -556 
Q 1534 -466 1606 -231 
L 1638 -134 
L 78 3500 
z
" transform="scale(0.015625)"/>
     </defs>
     <use xlink:href="#DejaVuSans-Bold-51"/>
     <use xlink:href="#DejaVuSans-Bold-75" transform="translate(85.009766 0)"/>
     <use xlink:href="#DejaVuSans-Bold-65" transform="translate(156.201172 0)"/>
     <use xlink:href="#DejaVuSans-Bold-72" transform="translate(224.023438 0)"/>
     <use xlink:href="#DejaVuSans-Bold-79" transform="translate(273.339844 0)"/>
    </g>
   </g>
   <g id="text_8">
    <!-- Retriever -->
    <g style="fill: #222222" transform="translate(210.302747 122.282311) scale(0.085 -0.085)">
     <defs>
      <path id="DejaVuSans-Bold-76" d="M 97 3500 
L 1216 3500 
L 2088 1081 
L 2956 3500 
L 4078 3500 
L 2700 0 
L 1472 0 
L 97 3500 
z
" transform="scale(0.015625)"/>
     </defs>
     <use xlink:href="#DejaVuSans-Bold-52"/>
     <use xlink:href="#DejaVuSans-Bold-65" transform="translate(77.001953 0)"/>
     <use xlink:href="#DejaVuSans-Bold-74" transform="translate(144.824219 0)"/>
     <use xlink:href="#DejaVuSans-Bold-72" transform="translate(192.626953 0)"/>
     <use xlink:href="#DejaVuSans-Bold-69" transform="translate(241.943359 0)"/>
     <use xlink:href="#DejaVuSans-Bold-65" transform="translate(276.220703 0)"/>
     <use xlink:href="#DejaVuSans-Bold-76" transform="translate(344.042969 0)"/>
     <use xlink:href="#DejaVuSans-Bold-65" transform="translate(409.228516 0)"/>
     <use xlink:href="#DejaVuSans-Bold-72" transform="translate(477.050781 0)"/>
    </g>
   </g>
   <g id="text_9">
    <!-- KB -->
    <g style="fill: #222222" transform="translate(226.141301 235.019153) scale(0.085 -0.085)">
     <defs>
      <path id="DejaVuSans-Bold-4b" d="M 588 4666 
L 1791 4666 
L 1791 2963 
L 3525 4666 
L 4922 4666 
L 2675 2456 
L 5153 0 
L 3647 0 
L 1791 1838 
L 1791 0 
L 588 0 
L 588 4666 
z
" transform="scale(0.015625)"/>
      <path id="DejaVuSans-Bold-42" d="M 2456 2859 
Q 2741 2859 2887 2984 
Q 3034 3109 3034 3353 
Q 3034 3594 2887 3720 
Q 2741 3847 2456 3847 
L 1791 3847 
L 1791 2859 
L 2456 2859 
z
M 2497 819 
Q 2859 819 3042 972 
Q 3225 1125 3225 1434 
Q 3225 1738 3044 1889 
Q 2863 2041 2497 2041 
L 1791 2041 
L 1791 819 
L 2497 819 
z
M 3616 2497 
Q 4003 2384 4215 2081 
Q 4428 1778 4428 1338 
Q 4428 663 3972 331 
Q 3516 0 2584 0 
L 588 0 
L 588 4666 
L 2394 4666 
Q 3366 4666 3802 4372 
Q 4238 4078 4238 3431 
Q 4238 3091 4078 2852 
Q 3919 2613 3616 2497 
z
" transform="scale(0.015625)"/>
     </defs>
     <use xlink:href="#DejaVuSans-Bold-4b"/>
     <use xlink:href="#DejaVuSans-Bold-42" transform="translate(77.490234 0)"/>
    </g>
   </g>
   <g id="text_10">
    <!-- Diffusion Decoder -->
    <g style="fill: #222222" transform="translate(377.578343 122.282311) scale(0.085 -0.085)">
     <defs>
      <path id="DejaVuSans-Bold-73" d="M 3272 3391 
L 3272 2541 
Q 2913 2691 2578 2766 
Q 2244 2841 1947 2841 
Q 1628 2841 1473 2761 
Q 1319 2681 1319 2516 
Q 1319 2381 1436 2309 
Q 1553 2238 1856 2203 
L 2053 2175 
Q 2913 2066 3209 1816 
Q 3506 1566 3506 1031 
Q 3506 472 3093 190 
Q 2681 -91 1863 -91 
Q 1516 -91 1145 -36 
Q 775 19 384 128 
L 384 978 
Q 719 816 1070 734 
Q 1422 653 1784 653 
Q 2113 653 2278 743 
Q 2444 834 2444 1013 
Q 2444 1163 2330 1236 
Q 2216 1309 1875 1350 
L 1678 1375 
Q 931 1469 631 1722 
Q 331 1975 331 2491 
Q 331 3047 712 3315 
Q 1094 3584 1881 3584 
Q 2191 3584 2531 3537 
Q 2872 3491 3272 3391 
z
" transform="scale(0.015625)"/>
      <path id="DejaVuSans-Bold-6e" d="M 4056 2131 
L 4056 0 
L 2931 0 
L 2931 347 
L 2931 1631 
Q 2931 2084 2911 2256 
Q 2891 2428 2841 2509 
Q 2775 2619 2662 2680 
Q 2550 2741 2406 2741 
Q 2056 2741 1856 2470 
Q 1656 2200 1656 1722 
L 1656 0 
L 538 0 
L 538 3500 
L 1656 3500 
L 1656 2988 
Q 1909 3294 2193 3439 
Q 2478 3584 2822 3584 
Q 3428 3584 3742 3212 
Q 4056 2841 4056 2131 
z
" transform="scale(0.015625)"/>
      <path id="DejaVuSans-Bold-20" transform="scale(0.015625)"/>
      <path id="DejaVuSans-Bold-63" d="M 3366 3391 
L 3366 2478 
Q 3138 2634 2908 2709 
Q 2678 2784 2431 2784 
Q 1963 2784 1702 2511 
Q 1441 2238 1441 1747 
Q 1441 1256 1702 982 
Q 1963 709 2431 709 
Q 2694 709 2930 787 
Q 3166 866 3366 1019 
L 3366 103 
Q 3103 6 2833 -42 
Q 2563 -91 2291 -91 
Q 1344 -91 809 395 
Q 275 881 275 1747 
Q 275 2613 809 3098 
Q 1344 3584 2291 3584 
Q 2566 3584 2833 3536 
Q 3100 3488 3366 3391 
z
" transform="scale(0.015625)"/>
      <path id="DejaVuSans-Bold-64" d="M 2919 2988 
L 2919 4863 
L 4044 4863 
L 4044 0 
L 2919 0 
L 2919 506 
Q 2688 197 2409 53 
Q 2131 -91 1766 -91 
Q 1119 -91 703 423 
Q 288 938 288 1747 
Q 288 2556 703 3070 
Q 1119 3584 1766 3584 
Q 2128 3584 2408 3439 
Q 2688 3294 2919 2988 
z
M 2181 722 
Q 2541 722 2730 984 
Q 2919 1247 2919 1747 
Q 2919 2247 2730 2509 
Q 2541 2772 2181 2772 
Q 1825 2772 1636 2509 
Q 1447 2247 1447 1747 
Q 1447 1247 1636 984 
Q 1825 722 2181 722 
z
" transform="scale(0.015625)"/>
     </defs>
     <use xlink:href="#DejaVuSans-Bold-44"/>
     <use xlink:href="#DejaVuSans-Bold-69" transform="translate(83.007812 0)"/>
     <use xlink:href="#DejaVuSans-Bold-66" transform="translate(117.285156 0)"/>
     <use xlink:href="#DejaVuSans-Bold-66" transform="translate(160.791016 0)"/>
     <use xlink:href="#DejaVuSans-Bold-75" transform="translate(204.296875 0)"/>
     <use xlink:href="#DejaVuSans-Bold-73" transform="translate(275.488281 0)"/>
     <use xlink:href="#DejaVuSans-Bold-69" transform="translate(335.009766 0)"/>
     <use xlink:href="#DejaVuSans-Bold-6f" transform="translate(369.287109 0)"/>
     <use xlink:href="#DejaVuSans-Bold-6e" transform="translate(437.988281 0)"/>
     <use xlink:href="#DejaVuSans-Bold-20" transform="translate(509.179688 0)"/>
     <use xlink:href="#DejaVuSans-Bold-44" transform="translate(543.994141 0)"/>
     <use xlink:href="#DejaVuSans-Bold-65" transform="translate(627.001953 0)"/>
     <use xlink:href="#DejaVuSans-Bold-63" transform="translate(694.824219 0)"/>
     <use xlink:href="#DejaVuSans-Bold-6f" transform="translate(754.101562 0)"/>
     <use xlink:href="#DejaVuSans-Bold-64" transform="translate(822.802734 0)"/>
     <use xlink:href="#DejaVuSans-Bold-65" transform="translate(894.384766 0)"/>
     <use xlink:href="#DejaVuSans-Bold-72" transform="translate(962.207031 0)"/>
    </g>
   </g>
   <g id="text_11">
    <!-- Prior Network -->
    <g style="fill: #222222" transform="translate(387.166077 235.019153) scale(0.085 -0.085)">
     <defs>
      <path id="DejaVuSans-Bold-50" d="M 588 4666 
L 2584 4666 
Q 3475 4666 3951 4270 
Q 4428 3875 4428 3144 
Q 4428 2409 3951 2014 
Q 3475 1619 2584 1619 
L 1791 1619 
L 1791 0 
L 588 0 
L 588 4666 
z
M 1791 3794 
L 1791 2491 
L 2456 2491 
Q 2806 2491 2997 2661 
Q 3188 2831 3188 3144 
Q 3188 3456 2997 3625 
Q 2806 3794 2456 3794 
L 1791 3794 
z
" transform="scale(0.015625)"/>
      <path id="DejaVuSans-Bold-4e" d="M 588 4666 
L 1931 4666 
L 3628 1466 
L 3628 4666 
L 4769 4666 
L 4769 0 
L 3425 0 
L 1728 3200 
L 1728 0 
L 588 0 
L 588 4666 
z
" transform="scale(0.015625)"/>
      <path id="DejaVuSans-Bold-77" d="M 225 3500 
L 1313 3500 
L 1900 1088 
L 2491 3500 
L 3425 3500 
L 4013 1113 
L 4603 3500 
L 5691 3500 
L 4769 0 
L 3547 0 
L 2956 2406 
L 2369 0 
L 1147 0 
L 225 3500 
z
" transform="scale(0.015625)"/>
      <path id="DejaVuSans-Bold-6b" d="M 538 4863 
L 1656 4863 
L 1656 2216 
L 2944 3500 
L 4244 3500 
L 2534 1894 
L 4378 0 
L 3022 0 
L 1656 1459 
L 1656 0 
L 538 0 
L 538 4863 
z
" transform="scale(0.015625)"/>
     </defs>
     <use xlink:href="#DejaVuSans-Bold-50"/>
     <use xlink:href="#DejaVuSans-Bold-72" transform="translate(73.291016 0)"/>
     <use xlink:href="#DejaVuSans-Bold-69" transform="translate(122.607422 0)"/>
     <use xlink:href="#DejaVuSans-Bold-6f" transform="translate(156.884766 0)"/>
     <use xlink:href="#DejaVuSans-Bold-72" transform="translate(225.585938 0)"/>
     <use xlink:href="#DejaVuSans-Bold-20" transform="translate(274.902344 0)"/>
     <use xlink:href="#DejaVuSans-Bold-4e" transform="translate(309.716797 0)"/>
     <use xlink:href="#DejaVuSans-Bold-65" transform="translate(393.408203 0)"/>
     <use xlink:href="#DejaVuSans-Bold-74" transform="translate(461.230469 0)"/>
     <use xlink:href="#DejaVuSans-Bold-77" transform="translate(509.033203 0)"/>
     <use xlink:href="#DejaVuSans-Bold-6f" transform="translate(601.416016 0)"/>
     <use xlink:href="#DejaVuSans-Bold-72" transform="translate(670.117188 0)"/>
     <use xlink:href="#DejaVuSans-Bold-6b" transform="translate(719.433594 0)"/>
    </g>
   </g>
   <g id="text_12">
    <!-- Generated Sample -->
    <g style="fill: #222222" transform="translate(564.045345 122.282311) scale(0.085 -0.085)">
     <defs>
      <path id="DejaVuSans-Bold-47" d="M 4781 347 
Q 4331 128 3847 18 
Q 3363 -91 2847 -91 
Q 1681 -91 1000 561 
Q 319 1213 319 2328 
Q 319 3456 1012 4103 
Q 1706 4750 2913 4750 
Q 3378 4750 3804 4662 
Q 4231 4575 4609 4403 
L 4609 3438 
Q 4219 3659 3833 3768 
Q 3447 3878 3059 3878 
Q 2341 3878 1952 3476 
Q 1563 3075 1563 2328 
Q 1563 1588 1938 1184 
Q 2313 781 3003 781 
Q 3191 781 3352 804 
Q 3513 828 3641 878 
L 3641 1784 
L 2906 1784 
L 2906 2591 
L 4781 2591 
L 4781 347 
z
" transform="scale(0.015625)"/>
      <path id="DejaVuSans-Bold-61" d="M 2106 1575 
Q 1756 1575 1579 1456 
Q 1403 1338 1403 1106 
Q 1403 894 1545 773 
Q 1688 653 1941 653 
Q 2256 653 2472 879 
Q 2688 1106 2688 1447 
L 2688 1575 
L 2106 1575 
z
M 3816 1997 
L 3816 0 
L 2688 0 
L 2688 519 
Q 2463 200 2181 54 
Q 1900 -91 1497 -91 
Q 953 -91 614 226 
Q 275 544 275 1050 
Q 275 1666 698 1953 
Q 1122 2241 2028 2241 
L 2688 2241 
L 2688 2328 
Q 2688 2594 2478 2717 
Q 2269 2841 1825 2841 
Q 1466 2841 1156 2769 
Q 847 2697 581 2553 
L 581 3406 
Q 941 3494 1303 3539 
Q 1666 3584 2028 3584 
Q 2975 3584 3395 3211 
Q 3816 2838 3816 1997 
z
" transform="scale(0.015625)"/>
      <path id="DejaVuSans-Bold-53" d="M 3834 4519 
L 3834 3531 
Q 3450 3703 3084 3790 
Q 2719 3878 2394 3878 
Q 1963 3878 1756 3759 
Q 1550 3641 1550 3391 
Q 1550 3203 1689 3098 
Q 1828 2994 2194 2919 
L 2706 2816 
Q 3484 2659 3812 2340 
Q 4141 2022 4141 1434 
Q 4141 663 3683 286 
Q 3225 -91 2284 -91 
Q 1841 -91 1394 -6 
Q 947 78 500 244 
L 500 1259 
Q 947 1022 1364 901 
Q 1781 781 2169 781 
Q 2563 781 2772 912 
Q 2981 1044 2981 1288 
Q 2981 1506 2839 1625 
Q 2697 1744 2272 1838 
L 1806 1941 
Q 1106 2091 782 2419 
Q 459 2747 459 3303 
Q 459 4000 909 4375 
Q 1359 4750 2203 4750 
Q 2588 4750 2994 4692 
Q 3400 4634 3834 4519 
z
" transform="scale(0.015625)"/>
      <path id="DejaVuSans-Bold-6d" d="M 3781 2919 
Q 3994 3244 4286 3414 
Q 4578 3584 4928 3584 
Q 5531 3584 5847 3212 
Q 6163 2841 6163 2131 
L 6163 0 
L 5038 0 
L 5038 1825 
Q 5041 1866 5042 1909 
Q 5044 1953 5044 2034 
Q 5044 2406 4934 2573 
Q 4825 2741 4581 2741 
Q 4263 2741 4089 2478 
Q 3916 2216 3909 1719 
L 3909 0 
L 2784 0 
L 2784 1825 
Q 2784 2406 2684 2573 
Q 2584 2741 2328 2741 
Q 2006 2741 1831 2477 
Q 1656 2213 1656 1722 
L 1656 0 
L 531 0 
L 531 3500 
L 1656 3500 
L 1656 2988 
Q 1863 3284 2130 3434 
Q 2397 3584 2719 3584 
Q 3081 3584 3359 3409 
Q 3638 3234 3781 2919 
z
" transform="scale(0.015625)"/>
      <path id="DejaVuSans-Bold-70" d="M 1656 506 
L 1656 -1331 
L 538 -1331 
L 538 3500 
L 1656 3500 
L 1656 2988 
Q 1888 3294 2169 3439 
Q 2450 3584 2816 3584 
Q 3463 3584 3878 3070 
Q 4294 2556 4294 1747 
Q 4294 938 3878 423 
Q 3463 -91 2816 -91 
Q 2450 -91 2169 54 
Q 1888 200 1656 506 
z
M 2400 2772 
Q 2041 2772 1848 2508 
Q 1656 2244 1656 1747 
Q 1656 1250 1848 986 
Q 2041 722 2400 722 
Q 2759 722 2948 984 
Q 3138 1247 3138 1747 
Q 3138 2247 2948 2509 
Q 2759 2772 2400 2772 
z
" transform="scale(0.015625)"/>
      <path id="DejaVuSans-Bold-6c" d="M 538 4863 
L 1656 4863 
L 1656 0 
L 538 0 
L 538 4863 
z
" transform="scale(0.015625)"/>
     </defs>
     <use xlink:href="#DejaVuSans-Bold-47"/>
     <use xlink:href="#DejaVuSans-Bold-65" transform="translate(82.080078 0)"/>
     <use xlink:href="#DejaVuSans-Bold-6e" transform="translate(149.902344 0)"/>
     <use xlink:href="#DejaVuSans-Bold-65" transform="translate(221.09375 0)"/>
     <use xlink:href="#DejaVuSans-Bold-72" transform="translate(288.916016 0)"/>
     <use xlink:href="#DejaVuSans-Bold-61" transform="translate(338.232422 0)"/>
     <use xlink:href="#DejaVuSans-Bold-74" transform="translate(405.712891 0)"/>
     <use xlink:href="#DejaVuSans-Bold-65" transform="translate(453.515625 0)"/>
     <use xlink:href="#DejaVuSans-Bold-64" transform="translate(521.337891 0)"/>
     <use xlink:href="#DejaVuSans-Bold-20" transform="translate(592.919922 0)"/>
     <use xlink:href="#DejaVuSans-Bold-53" transform="translate(627.734375 0)"/>
     <use xlink:href="#DejaVuSans-Bold-61" transform="translate(699.755859 0)"/>
     <use xlink:href="#DejaVuSans-Bold-6d" transform="translate(767.236328 0)"/>
     <use xlink:href="#DejaVuSans-Bold-70" transform="translate(871.435547 0)"/>
     <use xlink:href="#DejaVuSans-Bold-6c" transform="translate(943.017578 0)"/>
     <use xlink:href="#DejaVuSans-Bold-65" transform="translate(977.294922 0)"/>
    </g>
   </g>
  </g>
 </g>
 <defs>
  <clipPath id="pe973686d92">
   <rect x="7.2" y="7.2" width="714" height="300.631579"/>
  </clipPath>
 </defs>
</svg>
