<?xml version="1.0" encoding="utf-8" standalone="no"?>
<!DOCTYPE svg PUBLIC "-//W3C//DTD SVG 1.1//EN"
  "http://www.w3.org/Graphics/SVG/1.1/DTD/svg11.dtd">
<svg xmlns:xlink="http://www.w3.org/1999/xlink" width="388.310937pt" height="315.428344pt" viewBox="0 0 388.310937 315.428344" xmlns="http://www.w3.org/2000/svg" version="1.1">
 <metadata>
  <rdf:RDF xmlns:dc="http://purl.org/dc/elements/1.1/" xmlns:cc="http://creativecommons.org/ns#" xmlns:rdf="http://www.w3.org/1999/02/22-rdf-syntax-ns#">
   <cc:Work>
    <dc:type rdf:resource="http://purl.org/dc/dcmitype/StillImage"/>
    <dc:date>2026-05-24T23:09:48.601696</dc:date>
    <dc:format>image/svg+xml</dc:format>
    <dc:creator>
     <cc:Agent>
      <dc:title>Matplotlib v3.10.9, https://matplotlib.org/</dc:title>
     </cc:Agent>
    </dc:creator>
   </cc:Work>
  </rdf:RDF>
 </metadata>
 <defs>
  <style type="text/css">*{stroke-linejoin: round; stroke-linecap: butt}</style>
 </defs>
 <g id="figure_1">
  <g id="patch_1">
   <path d="M 0 315.428344 
L 388.310937 315.428344 
L 388.310937 0 
L 0 0 
z
" style="fill: #ffffff"/>
  </g>
  <g id="axes_1">
   <g id="patch_2">
    <path d="M 42.190938 282.44 
L 381.110938 282.44 
L 381.110938 7.2 
L 42.190938 7.2 
z
" style="fill: #ffffff"/>
   </g>
   <g id="FillBetweenPolyCollection_1">
    <defs>
     <path id="mb0a920149a" d="M 94.099472 -69.551437 
L 87.116688 -69.551437 
L 86.587 -71.319865 
L 86.005593 -73.088292 
L 85.368357 -74.85672 
L 84.670726 -76.625148 
L 83.907995 -78.393576 
L 83.075784 -80.162004 
L 82.170648 -81.930432 
L 81.190782 -83.69886 
L 80.136794 -85.467288 
L 79.012473 -87.235716 
L 77.825465 -89.004144 
L 76.587789 -90.772572 
L 75.316087 -92.541 
L 74.031537 -94.309428 
L 72.759371 -96.077856 
L 71.527977 -97.846283 
L 70.367613 -99.614711 
L 69.308814 -101.383139 
L 68.380608 -103.151567 
L 67.608707 -104.919995 
L 67.013854 -106.688423 
L 66.610476 -108.456851 
L 66.405803 -110.225279 
L 66.399509 -111.993707 
L 66.583918 -113.762135 
L 66.944721 -115.530563 
L 67.462116 -117.298991 
L 68.112216 -119.067419 
L 68.868614 -120.835847 
L 69.70392 -122.604275 
L 70.591184 -124.372702 
L 71.505102 -126.14113 
L 72.422955 -127.909558 
L 73.325276 -129.677986 
L 74.19625 -131.446414 
L 75.02387 -133.214842 
L 75.799902 -134.98327 
L 76.519679 -136.751698 
L 77.18178 -138.520126 
L 77.787624 -140.288554 
L 78.341012 -142.056982 
L 78.847641 -143.82541 
L 79.314624 -145.593838 
L 79.750016 -147.362266 
L 80.162362 -149.130694 
L 80.560271 -150.899121 
L 80.951999 -152.667549 
L 81.345056 -154.435977 
L 81.745813 -156.204405 
L 82.159155 -157.972833 
L 82.588165 -159.741261 
L 83.033896 -161.509689 
L 83.495256 -163.278117 
L 83.969038 -165.046545 
L 84.450111 -166.814973 
L 84.931774 -168.583401 
L 85.406251 -170.351829 
L 85.865266 -172.120257 
L 86.300666 -173.888685 
L 86.705005 -175.657113 
L 87.072045 -177.42554 
L 87.397137 -179.193968 
L 87.677454 -180.962396 
L 87.912084 -182.730824 
L 88.102004 -184.499252 
L 88.249952 -186.26768 
L 88.360234 -188.036108 
L 88.438471 -189.804536 
L 88.491309 -191.572964 
L 88.526088 -193.341392 
L 88.550471 -195.10982 
L 88.572029 -196.878248 
L 88.59781 -198.646676 
L 88.633902 -200.415104 
L 88.685039 -202.183531 
L 88.754288 -203.951959 
L 88.842862 -205.720387 
L 88.950083 -207.488815 
L 89.073516 -209.257243 
L 89.20925 -211.025671 
L 89.352311 -212.794099 
L 89.497144 -214.562527 
L 89.63811 -216.330955 
L 89.769956 -218.099383 
L 89.888203 -219.867811 
L 89.989423 -221.636239 
L 90.071408 -223.404667 
L 90.133218 -225.173095 
L 90.175139 -226.941523 
L 90.19856 -228.70995 
L 90.205797 -230.478378 
L 90.199884 -232.246806 
L 90.184341 -234.015234 
L 90.162927 -235.783662 
L 90.139404 -237.55209 
L 90.117297 -239.320518 
L 90.099689 -241.088946 
L 90.089037 -242.857374 
L 90.087045 -244.625802 
L 91.129116 -244.625802 
L 91.129116 -244.625802 
L 91.127124 -242.857374 
L 91.116471 -241.088946 
L 91.098863 -239.320518 
L 91.076757 -237.55209 
L 91.053234 -235.783662 
L 91.03182 -234.015234 
L 91.016276 -232.246806 
L 91.010364 -230.478378 
L 91.017601 -228.70995 
L 91.041022 -226.941523 
L 91.082943 -225.173095 
L 91.144753 -223.404667 
L 91.226738 -221.636239 
L 91.327958 -219.867811 
L 91.446204 -218.099383 
L 91.578051 -216.330955 
L 91.719017 -214.562527 
L 91.86385 -212.794099 
L 92.006911 -211.025671 
L 92.142645 -209.257243 
L 92.266077 -207.488815 
L 92.373299 -205.720387 
L 92.461873 -203.951959 
L 92.531122 -202.183531 
L 92.582259 -200.415104 
L 92.61835 -198.646676 
L 92.644131 -196.878248 
L 92.66569 -195.10982 
L 92.690073 -193.341392 
L 92.724852 -191.572964 
L 92.77769 -189.804536 
L 92.855926 -188.036108 
L 92.966208 -186.26768 
L 93.114157 -184.499252 
L 93.304077 -182.730824 
L 93.538707 -180.962396 
L 93.819023 -179.193968 
L 94.144116 -177.42554 
L 94.511156 -175.657113 
L 94.915494 -173.888685 
L 95.350895 -172.120257 
L 95.80991 -170.351829 
L 96.284386 -168.583401 
L 96.76605 -166.814973 
L 97.247123 -165.046545 
L 97.720905 -163.278117 
L 98.182265 -161.509689 
L 98.627996 -159.741261 
L 99.057005 -157.972833 
L 99.470347 -156.204405 
L 99.871105 -154.435977 
L 100.264161 -152.667549 
L 100.65589 -150.899121 
L 101.053799 -149.130694 
L 101.466145 -147.362266 
L 101.901537 -145.593838 
L 102.36852 -143.82541 
L 102.875149 -142.056982 
L 103.428536 -140.288554 
L 104.034381 -138.520126 
L 104.696482 -136.751698 
L 105.416258 -134.98327 
L 106.192291 -133.214842 
L 107.019911 -131.446414 
L 107.890885 -129.677986 
L 108.793206 -127.909558 
L 109.711059 -126.14113 
L 110.624977 -124.372702 
L 111.512241 -122.604275 
L 112.347547 -120.835847 
L 113.103945 -119.067419 
L 113.754045 -117.298991 
L 114.271439 -115.530563 
L 114.632243 -113.762135 
L 114.816652 -111.993707 
L 114.810357 -110.225279 
L 114.605684 -108.456851 
L 114.202307 -106.688423 
L 113.607453 -104.919995 
L 112.835553 -103.151567 
L 111.907346 -101.383139 
L 110.848548 -99.614711 
L 109.688184 -97.846283 
L 108.45679 -96.077856 
L 107.184624 -94.309428 
L 105.900074 -92.541 
L 104.628372 -90.772572 
L 103.390696 -89.004144 
L 102.203688 -87.235716 
L 101.079366 -85.467288 
L 100.025379 -83.69886 
L 99.045513 -81.930432 
L 98.140377 -80.162004 
L 97.308166 -78.393576 
L 96.545435 -76.625148 
L 95.847804 -74.85672 
L 95.210568 -73.088292 
L 94.62916 -71.319865 
L 94.099472 -69.551437 
z
" style="stroke: #4878cf; stroke-opacity: 0.35; stroke-width: 0.8"/>
    </defs>
    <g clip-path="url(#pf67da13c0e)">
     <use xlink:href="#mb0a920149a" x="0" y="315.428344" style="fill: #4878cf; fill-opacity: 0.35; stroke: #4878cf; stroke-opacity: 0.35; stroke-width: 0.8"/>
    </g>
   </g>
   <g id="FillBetweenPolyCollection_2">
    <defs>
     <path id="m1820ae683f" d="M 181.462341 -70.547318 
L 161.144296 -70.547318 
L 159.935816 -72.05995 
L 158.726585 -73.572581 
L 157.536538 -75.085213 
L 156.384018 -76.597844 
L 155.284761 -78.110476 
L 154.251125 -79.623107 
L 153.291629 -81.135738 
L 152.410844 -82.64837 
L 151.609673 -84.161001 
L 150.885947 -85.673633 
L 150.235295 -87.186264 
L 149.652176 -88.698896 
L 149.130959 -90.211527 
L 148.666945 -91.724158 
L 148.257214 -93.23679 
L 147.901242 -94.749421 
L 147.601232 -96.262053 
L 147.362152 -97.774684 
L 147.191484 -99.287316 
L 147.098737 -100.799947 
L 147.094747 -102.312578 
L 147.190823 -103.82521 
L 147.397795 -105.337841 
L 147.725013 -106.850473 
L 148.179359 -108.363104 
L 148.764345 -109.875736 
L 149.479366 -111.388367 
L 150.31918 -112.900998 
L 151.273711 -114.41363 
L 152.328189 -115.926261 
L 153.463683 -117.438893 
L 154.657998 -118.951524 
L 155.886866 -120.464156 
L 157.12534 -121.976787 
L 158.349241 -123.489418 
L 159.536523 -125.00205 
L 160.668402 -126.514681 
L 161.730144 -128.027313 
L 162.711437 -129.539944 
L 163.606344 -131.052575 
L 164.412887 -132.565207 
L 165.132336 -134.077838 
L 165.768344 -135.59047 
L 166.326065 -137.103101 
L 166.811347 -138.615733 
L 167.230127 -140.128364 
L 167.588041 -141.640995 
L 167.890286 -143.153627 
L 168.141658 -144.666258 
L 168.346746 -146.17889 
L 168.51016 -147.691521 
L 168.636751 -149.204153 
L 168.731747 -150.716784 
L 168.80077 -152.229415 
L 168.84974 -153.742047 
L 168.884676 -155.254678 
L 168.911432 -156.76731 
L 168.935424 -158.279941 
L 168.961389 -159.792573 
L 168.993208 -161.305204 
L 169.033818 -162.817835 
L 169.085209 -164.330467 
L 169.148486 -165.843098 
L 169.223985 -167.35573 
L 169.311389 -168.868361 
L 169.409848 -170.380993 
L 169.518056 -171.893624 
L 169.634314 -173.406255 
L 169.75656 -174.918887 
L 169.882398 -176.431518 
L 170.009142 -177.94415 
L 170.133878 -179.456781 
L 170.253583 -180.969413 
L 170.365263 -182.482044 
L 170.466133 -183.994675 
L 170.5538 -185.507307 
L 170.626438 -187.019938 
L 170.682932 -188.53257 
L 170.72296 -190.045201 
L 170.747019 -191.557833 
L 170.756374 -193.070464 
L 170.752943 -194.583095 
L 170.739124 -196.095727 
L 170.71759 -197.608358 
L 170.691075 -199.12099 
L 170.662171 -200.633621 
L 170.633166 -202.146252 
L 170.605932 -203.658884 
L 170.581886 -205.171515 
L 170.56201 -206.684147 
L 170.546918 -208.196778 
L 170.536968 -209.70941 
L 170.532368 -211.222041 
L 170.533281 -212.734672 
L 170.539885 -214.247304 
L 170.552392 -215.759935 
L 170.571018 -217.272567 
L 170.595921 -218.785198 
L 170.627108 -220.29783 
L 171.979529 -220.29783 
L 171.979529 -220.29783 
L 172.010716 -218.785198 
L 172.035619 -217.272567 
L 172.054245 -215.759935 
L 172.066752 -214.247304 
L 172.073356 -212.734672 
L 172.074269 -211.222041 
L 172.069669 -209.70941 
L 172.059718 -208.196778 
L 172.044627 -206.684147 
L 172.024751 -205.171515 
L 172.000705 -203.658884 
L 171.973471 -202.146252 
L 171.944466 -200.633621 
L 171.915562 -199.12099 
L 171.889047 -197.608358 
L 171.867513 -196.095727 
L 171.853694 -194.583095 
L 171.850263 -193.070464 
L 171.859618 -191.557833 
L 171.883677 -190.045201 
L 171.923705 -188.53257 
L 171.980199 -187.019938 
L 172.052837 -185.507307 
L 172.140504 -183.994675 
L 172.241374 -182.482044 
L 172.353054 -180.969413 
L 172.472759 -179.456781 
L 172.597495 -177.94415 
L 172.724239 -176.431518 
L 172.850077 -174.918887 
L 172.972323 -173.406255 
L 173.088581 -171.893624 
L 173.196789 -170.380993 
L 173.295248 -168.868361 
L 173.382652 -167.35573 
L 173.458151 -165.843098 
L 173.521428 -164.330467 
L 173.572819 -162.817835 
L 173.613429 -161.305204 
L 173.645248 -159.792573 
L 173.671213 -158.279941 
L 173.695205 -156.76731 
L 173.721961 -155.254678 
L 173.756897 -153.742047 
L 173.805867 -152.229415 
L 173.87489 -150.716784 
L 173.969885 -149.204153 
L 174.096477 -147.691521 
L 174.259891 -146.17889 
L 174.464979 -144.666258 
L 174.716351 -143.153627 
L 175.018596 -141.640995 
L 175.37651 -140.128364 
L 175.79529 -138.615733 
L 176.280572 -137.103101 
L 176.838292 -135.59047 
L 177.474301 -134.077838 
L 178.193749 -132.565207 
L 179.000293 -131.052575 
L 179.8952 -129.539944 
L 180.876493 -128.027313 
L 181.938234 -126.514681 
L 183.070114 -125.00205 
L 184.257396 -123.489418 
L 185.481297 -121.976787 
L 186.719771 -120.464156 
L 187.948639 -118.951524 
L 189.142954 -117.438893 
L 190.278448 -115.926261 
L 191.332926 -114.41363 
L 192.287456 -112.900998 
L 193.127271 -111.388367 
L 193.842291 -109.875736 
L 194.427278 -108.363104 
L 194.881624 -106.850473 
L 195.208842 -105.337841 
L 195.415814 -103.82521 
L 195.51189 -102.312578 
L 195.5079 -100.799947 
L 195.415153 -99.287316 
L 195.244485 -97.774684 
L 195.005405 -96.262053 
L 194.705395 -94.749421 
L 194.349423 -93.23679 
L 193.939692 -91.724158 
L 193.475678 -90.211527 
L 192.954461 -88.698896 
L 192.371342 -87.186264 
L 191.72069 -85.673633 
L 190.996964 -84.161001 
L 190.195793 -82.64837 
L 189.315008 -81.135738 
L 188.355511 -79.623107 
L 187.321876 -78.110476 
L 186.222619 -76.597844 
L 185.070098 -75.085213 
L 183.880052 -73.572581 
L 182.670821 -72.05995 
L 181.462341 -70.547318 
z
" style="stroke: #6acc65; stroke-opacity: 0.35; stroke-width: 0.8"/>
    </defs>
    <g clip-path="url(#pf67da13c0e)">
     <use xlink:href="#m1820ae683f" x="0" y="315.428344" style="fill: #6acc65; fill-opacity: 0.35; stroke: #6acc65; stroke-opacity: 0.35; stroke-width: 0.8"/>
    </g>
   </g>
   <g id="FillBetweenPolyCollection_3">
    <defs>
     <path id="md5c179b66d" d="M 256.909205 -53.52527 
L 247.087908 -53.52527 
L 246.257262 -54.429349 
L 245.342022 -55.333428 
L 244.345803 -56.237507 
L 243.274942 -57.141587 
L 242.138539 -58.045666 
L 240.948366 -58.949745 
L 239.718631 -59.853824 
L 238.465603 -60.757903 
L 237.207133 -61.661983 
L 235.962079 -62.566062 
L 234.74969 -63.470141 
L 233.588965 -64.37422 
L 232.498039 -65.278299 
L 231.493614 -66.182378 
L 230.590462 -67.086458 
L 229.80101 -67.990537 
L 229.135015 -68.894616 
L 228.599338 -69.798695 
L 228.197794 -70.702774 
L 227.931108 -71.606854 
L 227.796936 -72.510933 
L 227.789985 -73.415012 
L 227.902212 -74.319091 
L 228.12311 -75.22317 
L 228.440082 -76.12725 
L 228.838898 -77.031329 
L 229.304229 -77.935408 
L 229.820228 -78.839487 
L 230.371147 -79.743566 
L 230.941957 -80.647646 
L 231.518917 -81.551725 
L 232.090085 -82.455804 
L 232.645708 -83.359883 
L 233.178488 -84.263962 
L 233.683684 -85.168042 
L 234.159073 -86.072121 
L 234.604746 -86.9762 
L 235.022785 -87.880279 
L 235.416836 -88.784358 
L 235.791619 -89.688438 
L 236.152416 -90.592517 
L 236.504574 -91.496596 
L 236.853062 -92.400675 
L 237.202103 -93.304754 
L 237.554921 -94.208833 
L 237.913583 -95.112913 
L 238.278962 -96.016992 
L 238.650803 -96.921071 
L 239.027872 -97.82515 
L 239.408163 -98.729229 
L 239.789158 -99.633309 
L 240.168082 -100.537388 
L 240.542164 -101.441467 
L 240.908855 -102.345546 
L 241.266017 -103.249625 
L 241.612057 -104.153705 
L 241.946003 -105.057784 
L 242.267547 -105.961863 
L 242.577031 -106.865942 
L 242.875406 -107.770021 
L 243.164162 -108.674101 
L 243.44523 -109.57818 
L 243.720875 -110.482259 
L 243.993567 -111.386338 
L 244.265838 -112.290417 
L 244.540133 -113.194497 
L 244.818652 -114.098576 
L 245.10319 -115.002655 
L 245.394989 -115.906734 
L 245.694607 -116.810813 
L 246.001823 -117.714893 
L 246.315584 -118.618972 
L 246.634004 -119.523051 
L 246.95443 -120.42713 
L 247.273559 -121.331209 
L 247.587614 -122.235289 
L 247.892559 -123.139368 
L 248.184348 -124.043447 
L 248.459175 -124.947526 
L 248.713714 -125.851605 
L 248.945333 -126.755684 
L 249.152254 -127.659764 
L 249.333661 -128.563843 
L 249.489741 -129.467922 
L 249.621659 -130.372001 
L 249.731468 -131.27608 
L 249.821973 -132.18016 
L 249.896546 -133.084239 
L 249.958923 -133.988318 
L 250.012979 -134.892397 
L 250.062518 -135.796476 
L 250.111073 -136.700556 
L 250.161737 -137.604635 
L 250.217035 -138.508714 
L 250.278836 -139.412793 
L 250.348312 -140.316872 
L 250.42594 -141.220952 
L 250.511542 -142.125031 
L 250.60437 -143.02911 
L 253.392743 -143.02911 
L 253.392743 -143.02911 
L 253.485571 -142.125031 
L 253.571173 -141.220952 
L 253.648801 -140.316872 
L 253.718277 -139.412793 
L 253.780078 -138.508714 
L 253.835376 -137.604635 
L 253.88604 -136.700556 
L 253.934595 -135.796476 
L 253.984134 -134.892397 
L 254.03819 -133.988318 
L 254.100567 -133.084239 
L 254.17514 -132.18016 
L 254.265645 -131.27608 
L 254.375454 -130.372001 
L 254.507372 -129.467922 
L 254.663452 -128.563843 
L 254.844859 -127.659764 
L 255.05178 -126.755684 
L 255.283399 -125.851605 
L 255.537938 -124.947526 
L 255.812765 -124.043447 
L 256.104554 -123.139368 
L 256.409499 -122.235289 
L 256.723554 -121.331209 
L 257.042683 -120.42713 
L 257.363109 -119.523051 
L 257.68153 -118.618972 
L 257.99529 -117.714893 
L 258.302506 -116.810813 
L 258.602124 -115.906734 
L 258.893923 -115.002655 
L 259.178461 -114.098576 
L 259.45698 -113.194497 
L 259.731275 -112.290417 
L 260.003546 -111.386338 
L 260.276238 -110.482259 
L 260.551883 -109.57818 
L 260.832951 -108.674101 
L 261.121707 -107.770021 
L 261.420082 -106.865942 
L 261.729566 -105.961863 
L 262.05111 -105.057784 
L 262.385056 -104.153705 
L 262.731096 -103.249625 
L 263.088258 -102.345546 
L 263.454949 -101.441467 
L 263.829031 -100.537388 
L 264.207955 -99.633309 
L 264.58895 -98.729229 
L 264.969242 -97.82515 
L 265.34631 -96.921071 
L 265.718151 -96.016992 
L 266.08353 -95.112913 
L 266.442192 -94.208833 
L 266.79501 -93.304754 
L 267.144051 -92.400675 
L 267.492539 -91.496596 
L 267.844697 -90.592517 
L 268.205494 -89.688438 
L 268.580277 -88.784358 
L 268.974328 -87.880279 
L 269.392367 -86.9762 
L 269.83804 -86.072121 
L 270.313429 -85.168042 
L 270.818625 -84.263962 
L 271.351405 -83.359883 
L 271.907028 -82.455804 
L 272.478196 -81.551725 
L 273.055156 -80.647646 
L 273.625966 -79.743566 
L 274.176886 -78.839487 
L 274.692884 -77.935408 
L 275.158215 -77.031329 
L 275.557031 -76.12725 
L 275.874003 -75.22317 
L 276.094901 -74.319091 
L 276.207128 -73.415012 
L 276.200177 -72.510933 
L 276.066005 -71.606854 
L 275.799319 -70.702774 
L 275.397775 -69.798695 
L 274.862098 -68.894616 
L 274.196103 -67.990537 
L 273.406651 -67.086458 
L 272.5035 -66.182378 
L 271.499075 -65.278299 
L 270.408148 -64.37422 
L 269.247423 -63.470141 
L 268.035034 -62.566062 
L 266.78998 -61.661983 
L 265.53151 -60.757903 
L 264.278482 -59.853824 
L 263.048747 -58.949745 
L 261.858574 -58.045666 
L 260.722171 -57.141587 
L 259.65131 -56.237507 
L 258.655091 -55.333428 
L 257.739851 -54.429349 
L 256.909205 -53.52527 
z
" style="stroke: #d65f5f; stroke-opacity: 0.35; stroke-width: 0.8"/>
    </defs>
    <g clip-path="url(#pf67da13c0e)">
     <use xlink:href="#md5c179b66d" x="0" y="315.428344" style="fill: #d65f5f; fill-opacity: 0.35; stroke: #d65f5f; stroke-opacity: 0.35; stroke-width: 0.8"/>
    </g>
   </g>
   <g id="FillBetweenPolyCollection_4">
    <defs>
     <path id="m10dfb065ed" d="M 337.22371 -48.61281 
L 328.163879 -48.61281 
L 327.541965 -49.19913 
L 326.871941 -49.78545 
L 326.1523 -50.371771 
L 325.381436 -50.958091 
L 324.557951 -51.544411 
L 323.681065 -52.130731 
L 322.751128 -52.717051 
L 321.770139 -53.303371 
L 320.742245 -53.889691 
L 319.674131 -54.476011 
L 318.575242 -55.062331 
L 317.457797 -55.648651 
L 316.336557 -56.234971 
L 315.228362 -56.821291 
L 314.151451 -57.407612 
L 313.124631 -57.993932 
L 312.166369 -58.580252 
L 311.293881 -59.166572 
L 310.522322 -59.752892 
L 309.864134 -60.339212 
L 309.328613 -60.925532 
L 308.921724 -61.511852 
L 308.646163 -62.098172 
L 308.501622 -62.684492 
L 308.485223 -63.270812 
L 308.59203 -63.857132 
L 308.815586 -64.443453 
L 309.148394 -65.029773 
L 309.582303 -65.616093 
L 310.108767 -66.202413 
L 310.718966 -66.788733 
L 311.403827 -67.375053 
L 312.153964 -67.961373 
L 312.959581 -68.547693 
L 313.810399 -69.134013 
L 314.695633 -69.720333 
L 315.604045 -70.306653 
L 316.524085 -70.892973 
L 317.444125 -71.479294 
L 318.352746 -72.065614 
L 319.239077 -72.651934 
L 320.093142 -73.238254 
L 320.906177 -73.824574 
L 321.670915 -74.410894 
L 322.381794 -74.997214 
L 323.035083 -75.583534 
L 323.628925 -76.169854 
L 324.163283 -76.756174 
L 324.639811 -77.342494 
L 325.06165 -77.928814 
L 325.433172 -78.515135 
L 325.75969 -79.101455 
L 326.047155 -79.687775 
L 326.301867 -80.274095 
L 326.530201 -80.860415 
L 326.738384 -81.446735 
L 326.932309 -82.033055 
L 327.117395 -82.619375 
L 327.298491 -83.205695 
L 327.479808 -83.792015 
L 327.664878 -84.378335 
L 327.856521 -84.964655 
L 328.05682 -85.550976 
L 328.267101 -86.137296 
L 328.487917 -86.723616 
L 328.719042 -87.309936 
L 328.959479 -87.896256 
L 329.20749 -88.482576 
L 329.46066 -89.068896 
L 329.715975 -89.655216 
L 329.969944 -90.241536 
L 330.218739 -90.827856 
L 330.458356 -91.414176 
L 330.684784 -92.000496 
L 330.894191 -92.586817 
L 331.08309 -93.173137 
L 331.248508 -93.759457 
L 331.388137 -94.345777 
L 331.500452 -94.932097 
L 331.584815 -95.518417 
L 331.64153 -96.104737 
L 331.67187 -96.691057 
L 331.678043 -97.277377 
L 331.663125 -97.863697 
L 331.630931 -98.450017 
L 331.585847 -99.036337 
L 331.532623 -99.622658 
L 331.476137 -100.208978 
L 331.421151 -100.795298 
L 331.372076 -101.381618 
L 331.332756 -101.967938 
L 331.306299 -102.554258 
L 331.294953 -103.140578 
L 331.300049 -103.726898 
L 331.322002 -104.313218 
L 331.360359 -104.899538 
L 331.413913 -105.485858 
L 331.480831 -106.072178 
L 331.558819 -106.658499 
L 333.828771 -106.658499 
L 333.828771 -106.658499 
L 333.906758 -106.072178 
L 333.973676 -105.485858 
L 334.02723 -104.899538 
L 334.065588 -104.313218 
L 334.08754 -103.726898 
L 334.092636 -103.140578 
L 334.081291 -102.554258 
L 334.054833 -101.967938 
L 334.015514 -101.381618 
L 333.966439 -100.795298 
L 333.911453 -100.208978 
L 333.854966 -99.622658 
L 333.801742 -99.036337 
L 333.756658 -98.450017 
L 333.724464 -97.863697 
L 333.709546 -97.277377 
L 333.715719 -96.691057 
L 333.746059 -96.104737 
L 333.802775 -95.518417 
L 333.887138 -94.932097 
L 333.999453 -94.345777 
L 334.139081 -93.759457 
L 334.3045 -93.173137 
L 334.493398 -92.586817 
L 334.702805 -92.000496 
L 334.929234 -91.414176 
L 335.16885 -90.827856 
L 335.417645 -90.241536 
L 335.671615 -89.655216 
L 335.926929 -89.068896 
L 336.180099 -88.482576 
L 336.428111 -87.896256 
L 336.668547 -87.309936 
L 336.899672 -86.723616 
L 337.120488 -86.137296 
L 337.33077 -85.550976 
L 337.531068 -84.964655 
L 337.722711 -84.378335 
L 337.907782 -83.792015 
L 338.089099 -83.205695 
L 338.270194 -82.619375 
L 338.45528 -82.033055 
L 338.649205 -81.446735 
L 338.857388 -80.860415 
L 339.085723 -80.274095 
L 339.340434 -79.687775 
L 339.6279 -79.101455 
L 339.954417 -78.515135 
L 340.325939 -77.928814 
L 340.747778 -77.342494 
L 341.224306 -76.756174 
L 341.758664 -76.169854 
L 342.352506 -75.583534 
L 343.005795 -74.997214 
L 343.716674 -74.410894 
L 344.481412 -73.824574 
L 345.294447 -73.238254 
L 346.148512 -72.651934 
L 347.034844 -72.065614 
L 347.943464 -71.479294 
L 348.863504 -70.892973 
L 349.783544 -70.306653 
L 350.691956 -69.720333 
L 351.57719 -69.134013 
L 352.428009 -68.547693 
L 353.233625 -67.961373 
L 353.983762 -67.375053 
L 354.668624 -66.788733 
L 355.278823 -66.202413 
L 355.805286 -65.616093 
L 356.239196 -65.029773 
L 356.572003 -64.443453 
L 356.795559 -63.857132 
L 356.902366 -63.270812 
L 356.885967 -62.684492 
L 356.741426 -62.098172 
L 356.465865 -61.511852 
L 356.058976 -60.925532 
L 355.523455 -60.339212 
L 354.865267 -59.752892 
L 354.093709 -59.166572 
L 353.221221 -58.580252 
L 352.262958 -57.993932 
L 351.236138 -57.407612 
L 350.159227 -56.821291 
L 349.051032 -56.234971 
L 347.929793 -55.648651 
L 346.812347 -55.062331 
L 345.713459 -54.476011 
L 344.645344 -53.889691 
L 343.61745 -53.303371 
L 342.636461 -52.717051 
L 341.706524 -52.130731 
L 340.829639 -51.544411 
L 340.006153 -50.958091 
L 339.23529 -50.371771 
L 338.515648 -49.78545 
L 337.845624 -49.19913 
L 337.22371 -48.61281 
z
" style="stroke: #b47cc7; stroke-opacity: 0.35; stroke-width: 0.8"/>
    </defs>
    <g clip-path="url(#pf67da13c0e)">
     <use xlink:href="#m10dfb065ed" x="0" y="315.428344" style="fill: #b47cc7; fill-opacity: 0.35; stroke: #b47cc7; stroke-opacity: 0.35; stroke-width: 0.8"/>
    </g>
   </g>
   <g id="matplotlib.axis_1">
    <g id="xtick_1">
     <g id="line2d_1">
      <defs>
       <path id="m44723cf357" d="M 0 0 
L 0 3.5 
" style="stroke: #000000; stroke-width: 0.8"/>
      </defs>
      <g>
       <use xlink:href="#m44723cf357" x="90.60808" y="282.44" style="stroke: #000000; stroke-width: 0.8"/>
      </g>
     </g>
     <g id="text_1">
      <!-- Control -->
      <g transform="translate(74.344096 296.278594) scale(0.09 -0.09)">
       <defs>
        <path id="DejaVuSans-43" d="M 4122 4306 
L 4122 3641 
Q 3803 3938 3442 4084 
Q 3081 4231 2675 4231 
Q 1875 4231 1450 3742 
Q 1025 3253 1025 2328 
Q 1025 1406 1450 917 
Q 1875 428 2675 428 
Q 3081 428 3442 575 
Q 3803 722 4122 1019 
L 4122 359 
Q 3791 134 3420 21 
Q 3050 -91 2638 -91 
Q 1578 -91 968 557 
Q 359 1206 359 2328 
Q 359 3453 968 4101 
Q 1578 4750 2638 4750 
Q 3056 4750 3426 4639 
Q 3797 4528 4122 4306 
z
" transform="scale(0.015625)"/>
        <path id="DejaVuSans-6f" d="M 1959 3097 
Q 1497 3097 1228 2736 
Q 959 2375 959 1747 
Q 959 1119 1226 758 
Q 1494 397 1959 397 
Q 2419 397 2687 759 
Q 2956 1122 2956 1747 
Q 2956 2369 2687 2733 
Q 2419 3097 1959 3097 
z
M 1959 3584 
Q 2709 3584 3137 3096 
Q 3566 2609 3566 1747 
Q 3566 888 3137 398 
Q 2709 -91 1959 -91 
Q 1206 -91 779 398 
Q 353 888 353 1747 
Q 353 2609 779 3096 
Q 1206 3584 1959 3584 
z
" transform="scale(0.015625)"/>
        <path id="DejaVuSans-6e" d="M 3513 2113 
L 3513 0 
L 2938 0 
L 2938 2094 
Q 2938 2591 2744 2837 
Q 2550 3084 2163 3084 
Q 1697 3084 1428 2787 
Q 1159 2491 1159 1978 
L 1159 0 
L 581 0 
L 581 3500 
L 1159 3500 
L 1159 2956 
Q 1366 3272 1645 3428 
Q 1925 3584 2291 3584 
Q 2894 3584 3203 3211 
Q 3513 2838 3513 2113 
z
" transform="scale(0.015625)"/>
        <path id="DejaVuSans-74" d="M 1172 4494 
L 1172 3500 
L 2356 3500 
L 2356 3053 
L 1172 3053 
L 1172 1153 
Q 1172 725 1289 603 
Q 1406 481 1766 481 
L 2356 481 
L 2356 0 
L 1766 0 
Q 1100 0 847 248 
Q 594 497 594 1153 
L 594 3053 
L 172 3053 
L 172 3500 
L 594 3500 
L 594 4494 
L 1172 4494 
z
" transform="scale(0.015625)"/>
        <path id="DejaVuSans-72" d="M 2631 2963 
Q 2534 3019 2420 3045 
Q 2306 3072 2169 3072 
Q 1681 3072 1420 2755 
Q 1159 2438 1159 1844 
L 1159 0 
L 581 0 
L 581 3500 
L 1159 3500 
L 1159 2956 
Q 1341 3275 1631 3429 
Q 1922 3584 2338 3584 
Q 2397 3584 2469 3576 
Q 2541 3569 2628 3553 
L 2631 2963 
z
" transform="scale(0.015625)"/>
        <path id="DejaVuSans-6c" d="M 603 4863 
L 1178 4863 
L 1178 0 
L 603 0 
L 603 4863 
z
" transform="scale(0.015625)"/>
       </defs>
       <use xlink:href="#DejaVuSans-43"/>
       <use xlink:href="#DejaVuSans-6f" transform="translate(69.824219 0)"/>
       <use xlink:href="#DejaVuSans-6e" transform="translate(131.005859 0)"/>
       <use xlink:href="#DejaVuSans-74" transform="translate(194.384766 0)"/>
       <use xlink:href="#DejaVuSans-72" transform="translate(233.59375 0)"/>
       <use xlink:href="#DejaVuSans-6f" transform="translate(272.457031 0)"/>
       <use xlink:href="#DejaVuSans-6c" transform="translate(333.638672 0)"/>
      </g>
     </g>
    </g>
    <g id="xtick_2">
     <g id="line2d_2">
      <g>
       <use xlink:href="#m44723cf357" x="171.303318" y="282.44" style="stroke: #000000; stroke-width: 0.8"/>
      </g>
     </g>
     <g id="text_2">
      <!-- Drug-A -->
      <g transform="translate(155.679178 296.278594) scale(0.09 -0.09)">
       <defs>
        <path id="DejaVuSans-44" d="M 1259 4147 
L 1259 519 
L 2022 519 
Q 2988 519 3436 956 
Q 3884 1394 3884 2338 
Q 3884 3275 3436 3711 
Q 2988 4147 2022 4147 
L 1259 4147 
z
M 628 4666 
L 1925 4666 
Q 3281 4666 3915 4102 
Q 4550 3538 4550 2338 
Q 4550 1131 3912 565 
Q 3275 0 1925 0 
L 628 0 
L 628 4666 
z
" transform="scale(0.015625)"/>
        <path id="DejaVuSans-75" d="M 544 1381 
L 544 3500 
L 1119 3500 
L 1119 1403 
Q 1119 906 1312 657 
Q 1506 409 1894 409 
Q 2359 409 2629 706 
Q 2900 1003 2900 1516 
L 2900 3500 
L 3475 3500 
L 3475 0 
L 2900 0 
L 2900 538 
Q 2691 219 2414 64 
Q 2138 -91 1772 -91 
Q 1169 -91 856 284 
Q 544 659 544 1381 
z
M 1991 3584 
L 1991 3584 
z
" transform="scale(0.015625)"/>
        <path id="DejaVuSans-67" d="M 2906 1791 
Q 2906 2416 2648 2759 
Q 2391 3103 1925 3103 
Q 1463 3103 1205 2759 
Q 947 2416 947 1791 
Q 947 1169 1205 825 
Q 1463 481 1925 481 
Q 2391 481 2648 825 
Q 2906 1169 2906 1791 
z
M 3481 434 
Q 3481 -459 3084 -895 
Q 2688 -1331 1869 -1331 
Q 1566 -1331 1297 -1286 
Q 1028 -1241 775 -1147 
L 775 -588 
Q 1028 -725 1275 -790 
Q 1522 -856 1778 -856 
Q 2344 -856 2625 -561 
Q 2906 -266 2906 331 
L 2906 616 
Q 2728 306 2450 153 
Q 2172 0 1784 0 
Q 1141 0 747 490 
Q 353 981 353 1791 
Q 353 2603 747 3093 
Q 1141 3584 1784 3584 
Q 2172 3584 2450 3431 
Q 2728 3278 2906 2969 
L 2906 3500 
L 3481 3500 
L 3481 434 
z
" transform="scale(0.015625)"/>
        <path id="DejaVuSans-2d" d="M 313 2009 
L 1997 2009 
L 1997 1497 
L 313 1497 
L 313 2009 
z
" transform="scale(0.015625)"/>
        <path id="DejaVuSans-41" d="M 2188 4044 
L 1331 1722 
L 3047 1722 
L 2188 4044 
z
M 1831 4666 
L 2547 4666 
L 4325 0 
L 3669 0 
L 3244 1197 
L 1141 1197 
L 716 0 
L 50 0 
L 1831 4666 
z
" transform="scale(0.015625)"/>
       </defs>
       <use xlink:href="#DejaVuSans-44"/>
       <use xlink:href="#DejaVuSans-72" transform="translate(77.001953 0)"/>
       <use xlink:href="#DejaVuSans-75" transform="translate(118.115234 0)"/>
       <use xlink:href="#DejaVuSans-67" transform="translate(181.494141 0)"/>
       <use xlink:href="#DejaVuSans-2d" transform="translate(244.970703 0)"/>
       <use xlink:href="#DejaVuSans-41" transform="translate(278.804688 0)"/>
      </g>
      <!-- 10 µM -->
      <g transform="translate(157.401131 306.356625) scale(0.09 -0.09)">
       <defs>
        <path id="DejaVuSans-31" d="M 794 531 
L 1825 531 
L 1825 4091 
L 703 3866 
L 703 4441 
L 1819 4666 
L 2450 4666 
L 2450 531 
L 3481 531 
L 3481 0 
L 794 0 
L 794 531 
z
" transform="scale(0.015625)"/>
        <path id="DejaVuSans-30" d="M 2034 4250 
Q 1547 4250 1301 3770 
Q 1056 3291 1056 2328 
Q 1056 1369 1301 889 
Q 1547 409 2034 409 
Q 2525 409 2770 889 
Q 3016 1369 3016 2328 
Q 3016 3291 2770 3770 
Q 2525 4250 2034 4250 
z
M 2034 4750 
Q 2819 4750 3233 4129 
Q 3647 3509 3647 2328 
Q 3647 1150 3233 529 
Q 2819 -91 2034 -91 
Q 1250 -91 836 529 
Q 422 1150 422 2328 
Q 422 3509 836 4129 
Q 1250 4750 2034 4750 
z
" transform="scale(0.015625)"/>
        <path id="DejaVuSans-20" transform="scale(0.015625)"/>
        <path id="DejaVuSans-b5" d="M 544 -1331 
L 544 3500 
L 1119 3500 
L 1119 1325 
Q 1119 872 1334 640 
Q 1550 409 1972 409 
Q 2434 409 2667 671 
Q 2900 934 2900 1459 
L 2900 3500 
L 3475 3500 
L 3475 806 
Q 3475 619 3529 530 
Q 3584 441 3700 441 
Q 3728 441 3778 458 
Q 3828 475 3916 513 
L 3916 50 
Q 3788 -22 3673 -56 
Q 3559 -91 3450 -91 
Q 3234 -91 3106 31 
Q 2978 153 2931 403 
Q 2775 156 2548 32 
Q 2322 -91 2016 -91 
Q 1697 -91 1473 31 
Q 1250 153 1119 397 
L 1119 -1331 
L 544 -1331 
z
" transform="scale(0.015625)"/>
        <path id="DejaVuSans-4d" d="M 628 4666 
L 1569 4666 
L 2759 1491 
L 3956 4666 
L 4897 4666 
L 4897 0 
L 4281 0 
L 4281 4097 
L 3078 897 
L 2444 897 
L 1241 4097 
L 1241 0 
L 628 0 
L 628 4666 
z
" transform="scale(0.015625)"/>
       </defs>
       <use xlink:href="#DejaVuSans-31"/>
       <use xlink:href="#DejaVuSans-30" transform="translate(63.623047 0)"/>
       <use xlink:href="#DejaVuSans-20" transform="translate(127.246094 0)"/>
       <use xlink:href="#DejaVuSans-b5" transform="translate(159.033203 0)"/>
       <use xlink:href="#DejaVuSans-4d" transform="translate(222.65625 0)"/>
      </g>
     </g>
    </g>
    <g id="xtick_3">
     <g id="line2d_3">
      <g>
       <use xlink:href="#m44723cf357" x="251.998557" y="282.44" style="stroke: #000000; stroke-width: 0.8"/>
      </g>
     </g>
     <g id="text_3">
      <!-- Drug-A -->
      <g transform="translate(236.374416 296.278594) scale(0.09 -0.09)">
       <use xlink:href="#DejaVuSans-44"/>
       <use xlink:href="#DejaVuSans-72" transform="translate(77.001953 0)"/>
       <use xlink:href="#DejaVuSans-75" transform="translate(118.115234 0)"/>
       <use xlink:href="#DejaVuSans-67" transform="translate(181.494141 0)"/>
       <use xlink:href="#DejaVuSans-2d" transform="translate(244.970703 0)"/>
       <use xlink:href="#DejaVuSans-41" transform="translate(278.804688 0)"/>
      </g>
      <!-- 50 µM -->
      <g transform="translate(238.096369 306.356625) scale(0.09 -0.09)">
       <defs>
        <path id="DejaVuSans-35" d="M 691 4666 
L 3169 4666 
L 3169 4134 
L 1269 4134 
L 1269 2991 
Q 1406 3038 1543 3061 
Q 1681 3084 1819 3084 
Q 2600 3084 3056 2656 
Q 3513 2228 3513 1497 
Q 3513 744 3044 326 
Q 2575 -91 1722 -91 
Q 1428 -91 1123 -41 
Q 819 9 494 109 
L 494 744 
Q 775 591 1075 516 
Q 1375 441 1709 441 
Q 2250 441 2565 725 
Q 2881 1009 2881 1497 
Q 2881 1984 2565 2268 
Q 2250 2553 1709 2553 
Q 1456 2553 1204 2497 
Q 953 2441 691 2322 
L 691 4666 
z
" transform="scale(0.015625)"/>
       </defs>
       <use xlink:href="#DejaVuSans-35"/>
       <use xlink:href="#DejaVuSans-30" transform="translate(63.623047 0)"/>
       <use xlink:href="#DejaVuSans-20" transform="translate(127.246094 0)"/>
       <use xlink:href="#DejaVuSans-b5" transform="translate(159.033203 0)"/>
       <use xlink:href="#DejaVuSans-4d" transform="translate(222.65625 0)"/>
      </g>
     </g>
    </g>
    <g id="xtick_4">
     <g id="line2d_4">
      <g>
       <use xlink:href="#m44723cf357" x="332.693795" y="282.44" style="stroke: #000000; stroke-width: 0.8"/>
      </g>
     </g>
     <g id="text_4">
      <!-- Combo -->
      <g transform="translate(316.804576 296.278594) scale(0.09 -0.09)">
       <defs>
        <path id="DejaVuSans-6d" d="M 3328 2828 
Q 3544 3216 3844 3400 
Q 4144 3584 4550 3584 
Q 5097 3584 5394 3201 
Q 5691 2819 5691 2113 
L 5691 0 
L 5113 0 
L 5113 2094 
Q 5113 2597 4934 2840 
Q 4756 3084 4391 3084 
Q 3944 3084 3684 2787 
Q 3425 2491 3425 1978 
L 3425 0 
L 2847 0 
L 2847 2094 
Q 2847 2600 2669 2842 
Q 2491 3084 2119 3084 
Q 1678 3084 1418 2786 
Q 1159 2488 1159 1978 
L 1159 0 
L 581 0 
L 581 3500 
L 1159 3500 
L 1159 2956 
Q 1356 3278 1631 3431 
Q 1906 3584 2284 3584 
Q 2666 3584 2933 3390 
Q 3200 3197 3328 2828 
z
" transform="scale(0.015625)"/>
        <path id="DejaVuSans-62" d="M 3116 1747 
Q 3116 2381 2855 2742 
Q 2594 3103 2138 3103 
Q 1681 3103 1420 2742 
Q 1159 2381 1159 1747 
Q 1159 1113 1420 752 
Q 1681 391 2138 391 
Q 2594 391 2855 752 
Q 3116 1113 3116 1747 
z
M 1159 2969 
Q 1341 3281 1617 3432 
Q 1894 3584 2278 3584 
Q 2916 3584 3314 3078 
Q 3713 2572 3713 1747 
Q 3713 922 3314 415 
Q 2916 -91 2278 -91 
Q 1894 -91 1617 61 
Q 1341 213 1159 525 
L 1159 0 
L 581 0 
L 581 4863 
L 1159 4863 
L 1159 2969 
z
" transform="scale(0.015625)"/>
       </defs>
       <use xlink:href="#DejaVuSans-43"/>
       <use xlink:href="#DejaVuSans-6f" transform="translate(69.824219 0)"/>
       <use xlink:href="#DejaVuSans-6d" transform="translate(131.005859 0)"/>
       <use xlink:href="#DejaVuSans-62" transform="translate(228.417969 0)"/>
       <use xlink:href="#DejaVuSans-6f" transform="translate(291.894531 0)"/>
      </g>
     </g>
    </g>
   </g>
   <g id="matplotlib.axis_2">
    <g id="ytick_1">
     <g id="line2d_5">
      <defs>
       <path id="mcbbc8ee9a0" d="M 0 0 
L -3.5 0 
" style="stroke: #000000; stroke-width: 0.8"/>
      </defs>
      <g>
       <use xlink:href="#mcbbc8ee9a0" x="42.190938" y="278.255622" style="stroke: #000000; stroke-width: 0.8"/>
      </g>
     </g>
     <g id="text_5">
      <!-- 0.0 -->
      <g transform="translate(20.878125 281.674919) scale(0.09 -0.09)">
       <defs>
        <path id="DejaVuSans-2e" d="M 684 794 
L 1344 794 
L 1344 0 
L 684 0 
L 684 794 
z
" transform="scale(0.015625)"/>
       </defs>
       <use xlink:href="#DejaVuSans-30"/>
       <use xlink:href="#DejaVuSans-2e" transform="translate(63.623047 0)"/>
       <use xlink:href="#DejaVuSans-30" transform="translate(95.410156 0)"/>
      </g>
     </g>
    </g>
    <g id="ytick_2">
     <g id="line2d_6">
      <g>
       <use xlink:href="#mcbbc8ee9a0" x="42.190938" y="236.411845" style="stroke: #000000; stroke-width: 0.8"/>
      </g>
     </g>
     <g id="text_6">
      <!-- 0.5 -->
      <g transform="translate(20.878125 239.831142) scale(0.09 -0.09)">
       <use xlink:href="#DejaVuSans-30"/>
       <use xlink:href="#DejaVuSans-2e" transform="translate(63.623047 0)"/>
       <use xlink:href="#DejaVuSans-35" transform="translate(95.410156 0)"/>
      </g>
     </g>
    </g>
    <g id="ytick_3">
     <g id="line2d_7">
      <g>
       <use xlink:href="#mcbbc8ee9a0" x="42.190938" y="194.568067" style="stroke: #000000; stroke-width: 0.8"/>
      </g>
     </g>
     <g id="text_7">
      <!-- 1.0 -->
      <g transform="translate(20.878125 197.987364) scale(0.09 -0.09)">
       <use xlink:href="#DejaVuSans-31"/>
       <use xlink:href="#DejaVuSans-2e" transform="translate(63.623047 0)"/>
       <use xlink:href="#DejaVuSans-30" transform="translate(95.410156 0)"/>
      </g>
     </g>
    </g>
    <g id="ytick_4">
     <g id="line2d_8">
      <g>
       <use xlink:href="#mcbbc8ee9a0" x="42.190938" y="152.72429" style="stroke: #000000; stroke-width: 0.8"/>
      </g>
     </g>
     <g id="text_8">
      <!-- 1.5 -->
      <g transform="translate(20.878125 156.143586) scale(0.09 -0.09)">
       <use xlink:href="#DejaVuSans-31"/>
       <use xlink:href="#DejaVuSans-2e" transform="translate(63.623047 0)"/>
       <use xlink:href="#DejaVuSans-35" transform="translate(95.410156 0)"/>
      </g>
     </g>
    </g>
    <g id="ytick_5">
     <g id="line2d_9">
      <g>
       <use xlink:href="#mcbbc8ee9a0" x="42.190938" y="110.880512" style="stroke: #000000; stroke-width: 0.8"/>
      </g>
     </g>
     <g id="text_9">
      <!-- 2.0 -->
      <g transform="translate(20.878125 114.299809) scale(0.09 -0.09)">
       <defs>
        <path id="DejaVuSans-32" d="M 1228 531 
L 3431 531 
L 3431 0 
L 469 0 
L 469 531 
Q 828 903 1448 1529 
Q 2069 2156 2228 2338 
Q 2531 2678 2651 2914 
Q 2772 3150 2772 3378 
Q 2772 3750 2511 3984 
Q 2250 4219 1831 4219 
Q 1534 4219 1204 4116 
Q 875 4013 500 3803 
L 500 4441 
Q 881 4594 1212 4672 
Q 1544 4750 1819 4750 
Q 2544 4750 2975 4387 
Q 3406 4025 3406 3419 
Q 3406 3131 3298 2873 
Q 3191 2616 2906 2266 
Q 2828 2175 2409 1742 
Q 1991 1309 1228 531 
z
" transform="scale(0.015625)"/>
       </defs>
       <use xlink:href="#DejaVuSans-32"/>
       <use xlink:href="#DejaVuSans-2e" transform="translate(63.623047 0)"/>
       <use xlink:href="#DejaVuSans-30" transform="translate(95.410156 0)"/>
      </g>
     </g>
    </g>
    <g id="ytick_6">
     <g id="line2d_10">
      <g>
       <use xlink:href="#mcbbc8ee9a0" x="42.190938" y="69.036734" style="stroke: #000000; stroke-width: 0.8"/>
      </g>
     </g>
     <g id="text_10">
      <!-- 2.5 -->
      <g transform="translate(20.878125 72.456031) scale(0.09 -0.09)">
       <use xlink:href="#DejaVuSans-32"/>
       <use xlink:href="#DejaVuSans-2e" transform="translate(63.623047 0)"/>
       <use xlink:href="#DejaVuSans-35" transform="translate(95.410156 0)"/>
      </g>
     </g>
    </g>
    <g id="ytick_7">
     <g id="line2d_11">
      <g>
       <use xlink:href="#mcbbc8ee9a0" x="42.190938" y="27.192957" style="stroke: #000000; stroke-width: 0.8"/>
      </g>
     </g>
     <g id="text_11">
      <!-- 3.0 -->
      <g transform="translate(20.878125 30.612254) scale(0.09 -0.09)">
       <defs>
        <path id="DejaVuSans-33" d="M 2597 2516 
Q 3050 2419 3304 2112 
Q 3559 1806 3559 1356 
Q 3559 666 3084 287 
Q 2609 -91 1734 -91 
Q 1441 -91 1130 -33 
Q 819 25 488 141 
L 488 750 
Q 750 597 1062 519 
Q 1375 441 1716 441 
Q 2309 441 2620 675 
Q 2931 909 2931 1356 
Q 2931 1769 2642 2001 
Q 2353 2234 1838 2234 
L 1294 2234 
L 1294 2753 
L 1863 2753 
Q 2328 2753 2575 2939 
Q 2822 3125 2822 3475 
Q 2822 3834 2567 4026 
Q 2313 4219 1838 4219 
Q 1578 4219 1281 4162 
Q 984 4106 628 3988 
L 628 4550 
Q 988 4650 1302 4700 
Q 1616 4750 1894 4750 
Q 2613 4750 3031 4423 
Q 3450 4097 3450 3541 
Q 3450 3153 3228 2886 
Q 3006 2619 2597 2516 
z
" transform="scale(0.015625)"/>
       </defs>
       <use xlink:href="#DejaVuSans-33"/>
       <use xlink:href="#DejaVuSans-2e" transform="translate(63.623047 0)"/>
       <use xlink:href="#DejaVuSans-30" transform="translate(95.410156 0)"/>
      </g>
     </g>
    </g>
    <g id="text_12">
     <!-- Relative cell viability -->
     <g transform="translate(14.798438 196.439531) rotate(-90) scale(0.1 -0.1)">
      <defs>
       <path id="DejaVuSans-52" d="M 2841 2188 
Q 3044 2119 3236 1894 
Q 3428 1669 3622 1275 
L 4263 0 
L 3584 0 
L 2988 1197 
Q 2756 1666 2539 1819 
Q 2322 1972 1947 1972 
L 1259 1972 
L 1259 0 
L 628 0 
L 628 4666 
L 2053 4666 
Q 2853 4666 3247 4331 
Q 3641 3997 3641 3322 
Q 3641 2881 3436 2590 
Q 3231 2300 2841 2188 
z
M 1259 4147 
L 1259 2491 
L 2053 2491 
Q 2509 2491 2742 2702 
Q 2975 2913 2975 3322 
Q 2975 3731 2742 3939 
Q 2509 4147 2053 4147 
L 1259 4147 
z
" transform="scale(0.015625)"/>
       <path id="DejaVuSans-65" d="M 3597 1894 
L 3597 1613 
L 953 1613 
Q 991 1019 1311 708 
Q 1631 397 2203 397 
Q 2534 397 2845 478 
Q 3156 559 3463 722 
L 3463 178 
Q 3153 47 2828 -22 
Q 2503 -91 2169 -91 
Q 1331 -91 842 396 
Q 353 884 353 1716 
Q 353 2575 817 3079 
Q 1281 3584 2069 3584 
Q 2775 3584 3186 3129 
Q 3597 2675 3597 1894 
z
M 3022 2063 
Q 3016 2534 2758 2815 
Q 2500 3097 2075 3097 
Q 1594 3097 1305 2825 
Q 1016 2553 972 2059 
L 3022 2063 
z
" transform="scale(0.015625)"/>
       <path id="DejaVuSans-61" d="M 2194 1759 
Q 1497 1759 1228 1600 
Q 959 1441 959 1056 
Q 959 750 1161 570 
Q 1363 391 1709 391 
Q 2188 391 2477 730 
Q 2766 1069 2766 1631 
L 2766 1759 
L 2194 1759 
z
M 3341 1997 
L 3341 0 
L 2766 0 
L 2766 531 
Q 2569 213 2275 61 
Q 1981 -91 1556 -91 
Q 1019 -91 701 211 
Q 384 513 384 1019 
Q 384 1609 779 1909 
Q 1175 2209 1959 2209 
L 2766 2209 
L 2766 2266 
Q 2766 2663 2505 2880 
Q 2244 3097 1772 3097 
Q 1472 3097 1187 3025 
Q 903 2953 641 2809 
L 641 3341 
Q 956 3463 1253 3523 
Q 1550 3584 1831 3584 
Q 2591 3584 2966 3190 
Q 3341 2797 3341 1997 
z
" transform="scale(0.015625)"/>
       <path id="DejaVuSans-69" d="M 603 3500 
L 1178 3500 
L 1178 0 
L 603 0 
L 603 3500 
z
M 603 4863 
L 1178 4863 
L 1178 4134 
L 603 4134 
L 603 4863 
z
" transform="scale(0.015625)"/>
       <path id="DejaVuSans-76" d="M 191 3500 
L 800 3500 
L 1894 563 
L 2988 3500 
L 3597 3500 
L 2284 0 
L 1503 0 
L 191 3500 
z
" transform="scale(0.015625)"/>
       <path id="DejaVuSans-63" d="M 3122 3366 
L 3122 2828 
Q 2878 2963 2633 3030 
Q 2388 3097 2138 3097 
Q 1578 3097 1268 2742 
Q 959 2388 959 1747 
Q 959 1106 1268 751 
Q 1578 397 2138 397 
Q 2388 397 2633 464 
Q 2878 531 3122 666 
L 3122 134 
Q 2881 22 2623 -34 
Q 2366 -91 2075 -91 
Q 1284 -91 818 406 
Q 353 903 353 1747 
Q 353 2603 823 3093 
Q 1294 3584 2113 3584 
Q 2378 3584 2631 3529 
Q 2884 3475 3122 3366 
z
" transform="scale(0.015625)"/>
       <path id="DejaVuSans-79" d="M 2059 -325 
Q 1816 -950 1584 -1140 
Q 1353 -1331 966 -1331 
L 506 -1331 
L 506 -850 
L 844 -850 
Q 1081 -850 1212 -737 
Q 1344 -625 1503 -206 
L 1606 56 
L 191 3500 
L 800 3500 
L 1894 763 
L 2988 3500 
L 3597 3500 
L 2059 -325 
z
" transform="scale(0.015625)"/>
      </defs>
      <use xlink:href="#DejaVuSans-52"/>
      <use xlink:href="#DejaVuSans-65" transform="translate(64.982422 0)"/>
      <use xlink:href="#DejaVuSans-6c" transform="translate(126.505859 0)"/>
      <use xlink:href="#DejaVuSans-61" transform="translate(154.289062 0)"/>
      <use xlink:href="#DejaVuSans-74" transform="translate(215.568359 0)"/>
      <use xlink:href="#DejaVuSans-69" transform="translate(254.777344 0)"/>
      <use xlink:href="#DejaVuSans-76" transform="translate(282.560547 0)"/>
      <use xlink:href="#DejaVuSans-65" transform="translate(341.740234 0)"/>
      <use xlink:href="#DejaVuSans-20" transform="translate(403.263672 0)"/>
      <use xlink:href="#DejaVuSans-63" transform="translate(435.050781 0)"/>
      <use xlink:href="#DejaVuSans-65" transform="translate(490.03125 0)"/>
      <use xlink:href="#DejaVuSans-6c" transform="translate(551.554688 0)"/>
      <use xlink:href="#DejaVuSans-6c" transform="translate(579.337891 0)"/>
      <use xlink:href="#DejaVuSans-20" transform="translate(607.121094 0)"/>
      <use xlink:href="#DejaVuSans-76" transform="translate(638.908203 0)"/>
      <use xlink:href="#DejaVuSans-69" transform="translate(698.087891 0)"/>
      <use xlink:href="#DejaVuSans-61" transform="translate(725.871094 0)"/>
      <use xlink:href="#DejaVuSans-62" transform="translate(787.150391 0)"/>
      <use xlink:href="#DejaVuSans-69" transform="translate(850.626953 0)"/>
      <use xlink:href="#DejaVuSans-6c" transform="translate(878.410156 0)"/>
      <use xlink:href="#DejaVuSans-69" transform="translate(906.193359 0)"/>
      <use xlink:href="#DejaVuSans-74" transform="translate(933.976562 0)"/>
      <use xlink:href="#DejaVuSans-79" transform="translate(973.185547 0)"/>
     </g>
    </g>
   </g>
   <g id="PathCollection_1">
    <defs>
     <path id="ma7c13815b7" d="M 0 1.414214 
C 0.375054 1.414214 0.734797 1.265203 1 1 
C 1.265203 0.734797 1.414214 0.375054 1.414214 0 
C 1.414214 -0.375054 1.265203 -0.734797 1 -1 
C 0.734797 -1.265203 0.375054 -1.414214 0 -1.414214 
C -0.375054 -1.414214 -0.734797 -1.265203 -1 -1 
C -1.265203 -0.734797 -1.414214 -0.375054 -1.414214 0 
C -1.414214 0.375054 -1.265203 0.734797 -1 1 
C -0.734797 1.265203 -0.375054 1.414214 0 1.414214 
z
"/>
    </defs>
    <g clip-path="url(#pf67da13c0e)">
     <use xlink:href="#ma7c13815b7" x="95.913748" y="205.949575" style="fill: #4878cf; fill-opacity: 0.35"/>
     <use xlink:href="#ma7c13815b7" x="89.424348" y="205.631562" style="fill: #4878cf; fill-opacity: 0.35"/>
     <use xlink:href="#ma7c13815b7" x="97.552995" y="210.075371" style="fill: #4878cf; fill-opacity: 0.35"/>
     <use xlink:href="#ma7c13815b7" x="94.430479" y="193.881829" style="fill: #4878cf; fill-opacity: 0.35"/>
     <use xlink:href="#ma7c13815b7" x="82.748571" y="70.802542" style="fill: #4878cf; fill-opacity: 0.35"/>
     <use xlink:href="#ma7c13815b7" x="99.81939" y="127.735186" style="fill: #4878cf; fill-opacity: 0.35"/>
     <use xlink:href="#ma7c13815b7" x="95.665536" y="182.115359" style="fill: #4878cf; fill-opacity: 0.35"/>
     <use xlink:href="#ma7c13815b7" x="96.148247" y="170.365626" style="fill: #4878cf; fill-opacity: 0.35"/>
     <use xlink:href="#ma7c13815b7" x="83.40581" y="150.021182" style="fill: #4878cf; fill-opacity: 0.35"/>
     <use xlink:href="#ma7c13815b7" x="89.647212" y="205.137805" style="fill: #4878cf; fill-opacity: 0.35"/>
     <use xlink:href="#ma7c13815b7" x="88.105844" y="196.668625" style="fill: #4878cf; fill-opacity: 0.35"/>
     <use xlink:href="#ma7c13815b7" x="98.873177" y="225.699838" style="fill: #4878cf; fill-opacity: 0.35"/>
     <use xlink:href="#ma7c13815b7" x="93.394296" y="182.567272" style="fill: #4878cf; fill-opacity: 0.35"/>
     <use xlink:href="#ma7c13815b7" x="96.858958" y="189.672345" style="fill: #4878cf; fill-opacity: 0.35"/>
     <use xlink:href="#ma7c13815b7" x="89.512191" y="212.309829" style="fill: #4878cf; fill-opacity: 0.35"/>
     <use xlink:href="#ma7c13815b7" x="85.325552" y="194.75218" style="fill: #4878cf; fill-opacity: 0.35"/>
     <use xlink:href="#ma7c13815b7" x="91.665216" y="197.43855" style="fill: #4878cf; fill-opacity: 0.35"/>
     <use xlink:href="#ma7c13815b7" x="82.160591" y="209.94984" style="fill: #4878cf; fill-opacity: 0.35"/>
     <use xlink:href="#ma7c13815b7" x="96.953266" y="202.861504" style="fill: #4878cf; fill-opacity: 0.35"/>
     <use xlink:href="#ma7c13815b7" x="93.158006" y="210.502178" style="fill: #4878cf; fill-opacity: 0.35"/>
     <use xlink:href="#ma7c13815b7" x="95.606429" y="157.009092" style="fill: #4878cf; fill-opacity: 0.35"/>
     <use xlink:href="#ma7c13815b7" x="87.790706" y="170.231726" style="fill: #4878cf; fill-opacity: 0.35"/>
     <use xlink:href="#ma7c13815b7" x="99.724022" y="203.187885" style="fill: #4878cf; fill-opacity: 0.35"/>
     <use xlink:href="#ma7c13815b7" x="98.221601" y="203.413842" style="fill: #4878cf; fill-opacity: 0.35"/>
     <use xlink:href="#ma7c13815b7" x="95.999494" y="220.10114" style="fill: #4878cf; fill-opacity: 0.35"/>
     <use xlink:href="#ma7c13815b7" x="84.694192" y="194.107786" style="fill: #4878cf; fill-opacity: 0.35"/>
     <use xlink:href="#ma7c13815b7" x="89.963571" y="167.762943" style="fill: #4878cf; fill-opacity: 0.35"/>
     <use xlink:href="#ma7c13815b7" x="81.772993" y="208.560626" style="fill: #4878cf; fill-opacity: 0.35"/>
     <use xlink:href="#ma7c13815b7" x="83.912754" y="203.179517" style="fill: #4878cf; fill-opacity: 0.35"/>
     <use xlink:href="#ma7c13815b7" x="94.153163" y="146.866161" style="fill: #4878cf; fill-opacity: 0.35"/>
     <use xlink:href="#ma7c13815b7" x="95.348354" y="243.893512" style="fill: #4878cf; fill-opacity: 0.35"/>
     <use xlink:href="#ma7c13815b7" x="99.662275" y="214.85393" style="fill: #4878cf; fill-opacity: 0.35"/>
     <use xlink:href="#ma7c13815b7" x="87.234865" y="190.961134" style="fill: #4878cf; fill-opacity: 0.35"/>
     <use xlink:href="#ma7c13815b7" x="88.099292" y="156.347961" style="fill: #4878cf; fill-opacity: 0.35"/>
     <use xlink:href="#ma7c13815b7" x="90.018472" y="199.212726" style="fill: #4878cf; fill-opacity: 0.35"/>
     <use xlink:href="#ma7c13815b7" x="84.594117" y="183.379041" style="fill: #4878cf; fill-opacity: 0.35"/>
     <use xlink:href="#ma7c13815b7" x="83.440823" y="216.167825" style="fill: #4878cf; fill-opacity: 0.35"/>
     <use xlink:href="#ma7c13815b7" x="90.137561" y="168.465919" style="fill: #4878cf; fill-opacity: 0.35"/>
     <use xlink:href="#ma7c13815b7" x="85.319173" y="191.572053" style="fill: #4878cf; fill-opacity: 0.35"/>
     <use xlink:href="#ma7c13815b7" x="93.896844" y="201.505765" style="fill: #4878cf; fill-opacity: 0.35"/>
     <use xlink:href="#ma7c13815b7" x="89.390911" y="189.279014" style="fill: #4878cf; fill-opacity: 0.35"/>
     <use xlink:href="#ma7c13815b7" x="97.051011" y="211.163309" style="fill: #4878cf; fill-opacity: 0.35"/>
     <use xlink:href="#ma7c13815b7" x="94.486586" y="148.422749" style="fill: #4878cf; fill-opacity: 0.35"/>
     <use xlink:href="#ma7c13815b7" x="86.974212" y="210.518915" style="fill: #4878cf; fill-opacity: 0.35"/>
     <use xlink:href="#ma7c13815b7" x="97.042908" y="194.827499" style="fill: #4878cf; fill-opacity: 0.35"/>
     <use xlink:href="#ma7c13815b7" x="96.510408" y="199.806908" style="fill: #4878cf; fill-opacity: 0.35"/>
     <use xlink:href="#ma7c13815b7" x="88.42889" y="207.497794" style="fill: #4878cf; fill-opacity: 0.35"/>
     <use xlink:href="#ma7c13815b7" x="86.508661" y="182.30784" style="fill: #4878cf; fill-opacity: 0.35"/>
     <use xlink:href="#ma7c13815b7" x="94.142445" y="112.445469" style="fill: #4878cf; fill-opacity: 0.35"/>
     <use xlink:href="#ma7c13815b7" x="83.631218" y="194.258423" style="fill: #4878cf; fill-opacity: 0.35"/>
     <use xlink:href="#ma7c13815b7" x="84.796245" y="152.171952" style="fill: #4878cf; fill-opacity: 0.35"/>
     <use xlink:href="#ma7c13815b7" x="81.067236" y="170.817539" style="fill: #4878cf; fill-opacity: 0.35"/>
     <use xlink:href="#ma7c13815b7" x="96.164904" y="236.629432" style="fill: #4878cf; fill-opacity: 0.35"/>
     <use xlink:href="#ma7c13815b7" x="93.800723" y="194.827499" style="fill: #4878cf; fill-opacity: 0.35"/>
     <use xlink:href="#ma7c13815b7" x="94.581489" y="215.322581" style="fill: #4878cf; fill-opacity: 0.35"/>
     <use xlink:href="#ma7c13815b7" x="96.044919" y="219.289371" style="fill: #4878cf; fill-opacity: 0.35"/>
     <use xlink:href="#ma7c13815b7" x="89.812408" y="224.109774" style="fill: #4878cf; fill-opacity: 0.35"/>
     <use xlink:href="#ma7c13815b7" x="91.939381" y="155.101016" style="fill: #4878cf; fill-opacity: 0.35"/>
     <use xlink:href="#ma7c13815b7" x="83.63208" y="180.15707" style="fill: #4878cf; fill-opacity: 0.35"/>
     <use xlink:href="#ma7c13815b7" x="83.142739" y="203.531004" style="fill: #4878cf; fill-opacity: 0.35"/>
     <use xlink:href="#ma7c13815b7" x="93.869516" y="210.000052" style="fill: #4878cf; fill-opacity: 0.35"/>
     <use xlink:href="#ma7c13815b7" x="90.048305" y="226.595294" style="fill: #4878cf; fill-opacity: 0.35"/>
     <use xlink:href="#ma7c13815b7" x="91.871499" y="160.599289" style="fill: #4878cf; fill-opacity: 0.35"/>
     <use xlink:href="#ma7c13815b7" x="95.740275" y="228.202096" style="fill: #4878cf; fill-opacity: 0.35"/>
     <use xlink:href="#ma7c13815b7" x="93.217151" y="245.876907" style="fill: #4878cf; fill-opacity: 0.35"/>
     <use xlink:href="#ma7c13815b7" x="91.645745" y="215.632225" style="fill: #4878cf; fill-opacity: 0.35"/>
     <use xlink:href="#ma7c13815b7" x="91.754737" y="215.297475" style="fill: #4878cf; fill-opacity: 0.35"/>
     <use xlink:href="#ma7c13815b7" x="86.81121" y="160.741557" style="fill: #4878cf; fill-opacity: 0.35"/>
     <use xlink:href="#ma7c13815b7" x="81.521496" y="204.97043" style="fill: #4878cf; fill-opacity: 0.35"/>
     <use xlink:href="#ma7c13815b7" x="89.382495" y="227.69997" style="fill: #4878cf; fill-opacity: 0.35"/>
     <use xlink:href="#ma7c13815b7" x="85.080482" y="206.376381" style="fill: #4878cf; fill-opacity: 0.35"/>
     <use xlink:href="#ma7c13815b7" x="88.836568" y="112.537526" style="fill: #4878cf; fill-opacity: 0.35"/>
     <use xlink:href="#ma7c13815b7" x="97.452387" y="216.53605" style="fill: #4878cf; fill-opacity: 0.35"/>
     <use xlink:href="#ma7c13815b7" x="85.455324" y="201.848884" style="fill: #4878cf; fill-opacity: 0.35"/>
     <use xlink:href="#ma7c13815b7" x="82.053793" y="201.237965" style="fill: #4878cf; fill-opacity: 0.35"/>
     <use xlink:href="#ma7c13815b7" x="86.374173" y="163.628778" style="fill: #4878cf; fill-opacity: 0.35"/>
     <use xlink:href="#ma7c13815b7" x="86.61064" y="110.621081" style="fill: #4878cf; fill-opacity: 0.35"/>
     <use xlink:href="#ma7c13815b7" x="93.743894" y="186.157468" style="fill: #4878cf; fill-opacity: 0.35"/>
     <use xlink:href="#ma7c13815b7" x="91.712614" y="207.640063" style="fill: #4878cf; fill-opacity: 0.35"/>
     <use xlink:href="#ma7c13815b7" x="96.106296" y="177.663181" style="fill: #4878cf; fill-opacity: 0.35"/>
     <use xlink:href="#ma7c13815b7" x="93.790317" y="238.144177" style="fill: #4878cf; fill-opacity: 0.35"/>
     <use xlink:href="#ma7c13815b7" x="88.795088" y="207.104463" style="fill: #4878cf; fill-opacity: 0.35"/>
     <use xlink:href="#ma7c13815b7" x="96.689668" y="233.48278" style="fill: #4878cf; fill-opacity: 0.35"/>
     <use xlink:href="#ma7c13815b7" x="84.158392" y="206.51865" style="fill: #4878cf; fill-opacity: 0.35"/>
     <use xlink:href="#ma7c13815b7" x="81.364513" y="226.637138" style="fill: #4878cf; fill-opacity: 0.35"/>
     <use xlink:href="#ma7c13815b7" x="82.668596" y="173.160791" style="fill: #4878cf; fill-opacity: 0.35"/>
     <use xlink:href="#ma7c13815b7" x="94.914482" y="214.602868" style="fill: #4878cf; fill-opacity: 0.35"/>
     <use xlink:href="#ma7c13815b7" x="89.869762" y="173.805185" style="fill: #4878cf; fill-opacity: 0.35"/>
     <use xlink:href="#ma7c13815b7" x="84.047979" y="184.617617" style="fill: #4878cf; fill-opacity: 0.35"/>
     <use xlink:href="#ma7c13815b7" x="90.628314" y="166.432311" style="fill: #4878cf; fill-opacity: 0.35"/>
     <use xlink:href="#ma7c13815b7" x="83.874459" y="189.03632" style="fill: #4878cf; fill-opacity: 0.35"/>
     <use xlink:href="#ma7c13815b7" x="94.410189" y="178.215519" style="fill: #4878cf; fill-opacity: 0.35"/>
     <use xlink:href="#ma7c13815b7" x="89.565297" y="209.807571" style="fill: #4878cf; fill-opacity: 0.35"/>
     <use xlink:href="#ma7c13815b7" x="88.303835" y="188.517457" style="fill: #4878cf; fill-opacity: 0.35"/>
     <use xlink:href="#ma7c13815b7" x="86.763993" y="194.091048" style="fill: #4878cf; fill-opacity: 0.35"/>
     <use xlink:href="#ma7c13815b7" x="93.131245" y="135.476284" style="fill: #4878cf; fill-opacity: 0.35"/>
     <use xlink:href="#ma7c13815b7" x="87.931825" y="201.296547" style="fill: #4878cf; fill-opacity: 0.35"/>
     <use xlink:href="#ma7c13815b7" x="82.622155" y="221.632622" style="fill: #4878cf; fill-opacity: 0.35"/>
     <use xlink:href="#ma7c13815b7" x="83.210055" y="215.138468" style="fill: #4878cf; fill-opacity: 0.35"/>
     <use xlink:href="#ma7c13815b7" x="99.553586" y="151.971102" style="fill: #4878cf; fill-opacity: 0.35"/>
    </g>
   </g>
   <g id="PathCollection_2">
    <defs>
     <path id="m8b184ed30a" d="M 0 1.414214 
C 0.375054 1.414214 0.734797 1.265203 1 1 
C 1.265203 0.734797 1.414214 0.375054 1.414214 0 
C 1.414214 -0.375054 1.265203 -0.734797 1 -1 
C 0.734797 -1.265203 0.375054 -1.414214 0 -1.414214 
C -0.375054 -1.414214 -0.734797 -1.265203 -1 -1 
C -1.265203 -0.734797 -1.414214 -0.375054 -1.414214 0 
C -1.414214 0.375054 -1.265203 0.734797 -1 1 
C -0.734797 1.265203 -0.375054 1.414214 0 1.414214 
z
"/>
    </defs>
    <g clip-path="url(#pf67da13c0e)">
     <use xlink:href="#m8b184ed30a" x="179.216242" y="180.968839" style="fill: #6acc65; fill-opacity: 0.35"/>
     <use xlink:href="#m8b184ed30a" x="175.171018" y="244.127837" style="fill: #6acc65; fill-opacity: 0.35"/>
     <use xlink:href="#m8b184ed30a" x="166.768955" y="202.267322" style="fill: #6acc65; fill-opacity: 0.35"/>
     <use xlink:href="#m8b184ed30a" x="180.38979" y="228.352733" style="fill: #6acc65; fill-opacity: 0.35"/>
     <use xlink:href="#m8b184ed30a" x="176.701847" y="228.453158" style="fill: #6acc65; fill-opacity: 0.35"/>
     <use xlink:href="#m8b184ed30a" x="175.5038" y="233.047605" style="fill: #6acc65; fill-opacity: 0.35"/>
     <use xlink:href="#m8b184ed30a" x="170.32261" y="205.070855" style="fill: #6acc65; fill-opacity: 0.35"/>
     <use xlink:href="#m8b184ed30a" x="166.892353" y="236.051988" style="fill: #6acc65; fill-opacity: 0.35"/>
     <use xlink:href="#m8b184ed30a" x="163.48668" y="203.815542" style="fill: #6acc65; fill-opacity: 0.35"/>
     <use xlink:href="#m8b184ed30a" x="179.100462" y="221.599147" style="fill: #6acc65; fill-opacity: 0.35"/>
     <use xlink:href="#m8b184ed30a" x="170.446844" y="181.621602" style="fill: #6acc65; fill-opacity: 0.35"/>
     <use xlink:href="#m8b184ed30a" x="165.539032" y="221.490354" style="fill: #6acc65; fill-opacity: 0.35"/>
     <use xlink:href="#m8b184ed30a" x="167.545308" y="206.694394" style="fill: #6acc65; fill-opacity: 0.35"/>
     <use xlink:href="#m8b184ed30a" x="172.837553" y="244.613225" style="fill: #6acc65; fill-opacity: 0.35"/>
     <use xlink:href="#m8b184ed30a" x="165.043423" y="217.732782" style="fill: #6acc65; fill-opacity: 0.35"/>
     <use xlink:href="#m8b184ed30a" x="178.209816" y="227.917558" style="fill: #6acc65; fill-opacity: 0.35"/>
     <use xlink:href="#m8b184ed30a" x="176.310029" y="221.900423" style="fill: #6acc65; fill-opacity: 0.35"/>
     <use xlink:href="#m8b184ed30a" x="175.553626" y="219.306108" style="fill: #6acc65; fill-opacity: 0.35"/>
     <use xlink:href="#m8b184ed30a" x="169.988174" y="200.73584" style="fill: #6acc65; fill-opacity: 0.35"/>
     <use xlink:href="#m8b184ed30a" x="173.768891" y="227.666495" style="fill: #6acc65; fill-opacity: 0.35"/>
     <use xlink:href="#m8b184ed30a" x="172.932032" y="237.884746" style="fill: #6acc65; fill-opacity: 0.35"/>
     <use xlink:href="#m8b184ed30a" x="174.205376" y="214.78698" style="fill: #6acc65; fill-opacity: 0.35"/>
     <use xlink:href="#m8b184ed30a" x="163.255311" y="111.759231" style="fill: #6acc65; fill-opacity: 0.35"/>
     <use xlink:href="#m8b184ed30a" x="169.672772" y="244.286844" style="fill: #6acc65; fill-opacity: 0.35"/>
     <use xlink:href="#m8b184ed30a" x="162.425826" y="222.436023" style="fill: #6acc65; fill-opacity: 0.35"/>
     <use xlink:href="#m8b184ed30a" x="171.18694" y="229.733578" style="fill: #6acc65; fill-opacity: 0.35"/>
     <use xlink:href="#m8b184ed30a" x="168.008265" y="200.844634" style="fill: #6acc65; fill-opacity: 0.35"/>
     <use xlink:href="#m8b184ed30a" x="164.418869" y="237.089714" style="fill: #6acc65; fill-opacity: 0.35"/>
     <use xlink:href="#m8b184ed30a" x="163.62248" y="225.239556" style="fill: #6acc65; fill-opacity: 0.35"/>
     <use xlink:href="#m8b184ed30a" x="173.000718" y="213.690673" style="fill: #6acc65; fill-opacity: 0.35"/>
     <use xlink:href="#m8b184ed30a" x="164.92374" y="179.102607" style="fill: #6acc65; fill-opacity: 0.35"/>
     <use xlink:href="#m8b184ed30a" x="179.536559" y="154.548678" style="fill: #6acc65; fill-opacity: 0.35"/>
     <use xlink:href="#m8b184ed30a" x="172.873218" y="195.932174" style="fill: #6acc65; fill-opacity: 0.35"/>
     <use xlink:href="#m8b184ed30a" x="168.337668" y="196.869475" style="fill: #6acc65; fill-opacity: 0.35"/>
     <use xlink:href="#m8b184ed30a" x="173.064066" y="233.315405" style="fill: #6acc65; fill-opacity: 0.35"/>
     <use xlink:href="#m8b184ed30a" x="162.061529" y="195.112036" style="fill: #6acc65; fill-opacity: 0.35"/>
     <use xlink:href="#m8b184ed30a" x="180.184169" y="229.013865" style="fill: #6acc65; fill-opacity: 0.35"/>
     <use xlink:href="#m8b184ed30a" x="170.960592" y="211.83281" style="fill: #6acc65; fill-opacity: 0.35"/>
     <use xlink:href="#m8b184ed30a" x="176.779011" y="229.926059" style="fill: #6acc65; fill-opacity: 0.35"/>
     <use xlink:href="#m8b184ed30a" x="163.22211" y="243.475074" style="fill: #6acc65; fill-opacity: 0.35"/>
     <use xlink:href="#m8b184ed30a" x="171.044932" y="196.082812" style="fill: #6acc65; fill-opacity: 0.35"/>
     <use xlink:href="#m8b184ed30a" x="171.123342" y="203.706748" style="fill: #6acc65; fill-opacity: 0.35"/>
     <use xlink:href="#m8b184ed30a" x="179.782641" y="205.388868" style="fill: #6acc65; fill-opacity: 0.35"/>
     <use xlink:href="#m8b184ed30a" x="172.692465" y="220.067665" style="fill: #6acc65; fill-opacity: 0.35"/>
     <use xlink:href="#m8b184ed30a" x="170.789891" y="220.97986" style="fill: #6acc65; fill-opacity: 0.35"/>
     <use xlink:href="#m8b184ed30a" x="166.790369" y="216.586263" style="fill: #6acc65; fill-opacity: 0.35"/>
     <use xlink:href="#m8b184ed30a" x="168.041339" y="213.51493" style="fill: #6acc65; fill-opacity: 0.35"/>
     <use xlink:href="#m8b184ed30a" x="171.703678" y="144.24674" style="fill: #6acc65; fill-opacity: 0.35"/>
     <use xlink:href="#m8b184ed30a" x="170.120225" y="214.945987" style="fill: #6acc65; fill-opacity: 0.35"/>
     <use xlink:href="#m8b184ed30a" x="162.038448" y="214.142586" style="fill: #6acc65; fill-opacity: 0.35"/>
     <use xlink:href="#m8b184ed30a" x="177.622568" y="234.135543" style="fill: #6acc65; fill-opacity: 0.35"/>
     <use xlink:href="#m8b184ed30a" x="178.975708" y="236.185888" style="fill: #6acc65; fill-opacity: 0.35"/>
     <use xlink:href="#m8b184ed30a" x="164.336074" y="212.560891" style="fill: #6acc65; fill-opacity: 0.35"/>
     <use xlink:href="#m8b184ed30a" x="172.349829" y="206.886875" style="fill: #6acc65; fill-opacity: 0.35"/>
     <use xlink:href="#m8b184ed30a" x="163.722661" y="155.636616" style="fill: #6acc65; fill-opacity: 0.35"/>
     <use xlink:href="#m8b184ed30a" x="174.639068" y="212.50231" style="fill: #6acc65; fill-opacity: 0.35"/>
     <use xlink:href="#m8b184ed30a" x="167.066504" y="212.728267" style="fill: #6acc65; fill-opacity: 0.35"/>
     <use xlink:href="#m8b184ed30a" x="174.390834" y="139.618818" style="fill: #6acc65; fill-opacity: 0.35"/>
     <use xlink:href="#m8b184ed30a" x="175.699491" y="219.925396" style="fill: #6acc65; fill-opacity: 0.35"/>
     <use xlink:href="#m8b184ed30a" x="176.506176" y="234.579087" style="fill: #6acc65; fill-opacity: 0.35"/>
     <use xlink:href="#m8b184ed30a" x="163.706493" y="199.882227" style="fill: #6acc65; fill-opacity: 0.35"/>
     <use xlink:href="#m8b184ed30a" x="179.36016" y="187.605263" style="fill: #6acc65; fill-opacity: 0.35"/>
     <use xlink:href="#m8b184ed30a" x="166.078411" y="196.810894" style="fill: #6acc65; fill-opacity: 0.35"/>
     <use xlink:href="#m8b184ed30a" x="162.344454" y="211.883022" style="fill: #6acc65; fill-opacity: 0.35"/>
     <use xlink:href="#m8b184ed30a" x="172.365638" y="226.779407" style="fill: #6acc65; fill-opacity: 0.35"/>
     <use xlink:href="#m8b184ed30a" x="168.803489" y="212.63621" style="fill: #6acc65; fill-opacity: 0.35"/>
     <use xlink:href="#m8b184ed30a" x="177.690309" y="95.130514" style="fill: #6acc65; fill-opacity: 0.35"/>
     <use xlink:href="#m8b184ed30a" x="177.273181" y="238.361765" style="fill: #6acc65; fill-opacity: 0.35"/>
     <use xlink:href="#m8b184ed30a" x="167.761874" y="204.074973" style="fill: #6acc65; fill-opacity: 0.35"/>
     <use xlink:href="#m8b184ed30a" x="180.074556" y="170.265201" style="fill: #6acc65; fill-opacity: 0.35"/>
     <use xlink:href="#m8b184ed30a" x="167.254054" y="179.981326" style="fill: #6acc65; fill-opacity: 0.35"/>
     <use xlink:href="#m8b184ed30a" x="171.594928" y="204.016392" style="fill: #6acc65; fill-opacity: 0.35"/>
     <use xlink:href="#m8b184ed30a" x="166.577129" y="195.01998" style="fill: #6acc65; fill-opacity: 0.35"/>
     <use xlink:href="#m8b184ed30a" x="179.748112" y="232.553848" style="fill: #6acc65; fill-opacity: 0.35"/>
     <use xlink:href="#m8b184ed30a" x="164.807826" y="215.674069" style="fill: #6acc65; fill-opacity: 0.35"/>
     <use xlink:href="#m8b184ed30a" x="162.489667" y="202.133422" style="fill: #6acc65; fill-opacity: 0.35"/>
     <use xlink:href="#m8b184ed30a" x="170.046352" y="193.823248" style="fill: #6acc65; fill-opacity: 0.35"/>
     <use xlink:href="#m8b184ed30a" x="180.839086" y="202.166897" style="fill: #6acc65; fill-opacity: 0.35"/>
     <use xlink:href="#m8b184ed30a" x="178.888876" y="204.451567" style="fill: #6acc65; fill-opacity: 0.35"/>
     <use xlink:href="#m8b184ed30a" x="176.118074" y="208.041764" style="fill: #6acc65; fill-opacity: 0.35"/>
     <use xlink:href="#m8b184ed30a" x="178.871741" y="229.214715" style="fill: #6acc65; fill-opacity: 0.35"/>
     <use xlink:href="#m8b184ed30a" x="178.923143" y="206.543756" style="fill: #6acc65; fill-opacity: 0.35"/>
     <use xlink:href="#m8b184ed30a" x="171.668546" y="237.173401" style="fill: #6acc65; fill-opacity: 0.35"/>
     <use xlink:href="#m8b184ed30a" x="167.738443" y="233.064342" style="fill: #6acc65; fill-opacity: 0.35"/>
     <use xlink:href="#m8b184ed30a" x="176.571344" y="234.394975" style="fill: #6acc65; fill-opacity: 0.35"/>
     <use xlink:href="#m8b184ed30a" x="174.434189" y="208.443464" style="fill: #6acc65; fill-opacity: 0.35"/>
     <use xlink:href="#m8b184ed30a" x="168.856466" y="203.045616" style="fill: #6acc65; fill-opacity: 0.35"/>
     <use xlink:href="#m8b184ed30a" x="163.449412" y="223.783393" style="fill: #6acc65; fill-opacity: 0.35"/>
     <use xlink:href="#m8b184ed30a" x="176.082858" y="244.881025" style="fill: #6acc65; fill-opacity: 0.35"/>
     <use xlink:href="#m8b184ed30a" x="166.702925" y="218.000583" style="fill: #6acc65; fill-opacity: 0.35"/>
     <use xlink:href="#m8b184ed30a" x="179.763016" y="209.104595" style="fill: #6acc65; fill-opacity: 0.35"/>
     <use xlink:href="#m8b184ed30a" x="166.286733" y="201.865622" style="fill: #6acc65; fill-opacity: 0.35"/>
     <use xlink:href="#m8b184ed30a" x="163.997325" y="241.868273" style="fill: #6acc65; fill-opacity: 0.35"/>
     <use xlink:href="#m8b184ed30a" x="177.71593" y="217.640726" style="fill: #6acc65; fill-opacity: 0.35"/>
     <use xlink:href="#m8b184ed30a" x="164.588525" y="237.064608" style="fill: #6acc65; fill-opacity: 0.35"/>
     <use xlink:href="#m8b184ed30a" x="165.091754" y="212.217773" style="fill: #6acc65; fill-opacity: 0.35"/>
     <use xlink:href="#m8b184ed30a" x="173.228051" y="196.266925" style="fill: #6acc65; fill-opacity: 0.35"/>
     <use xlink:href="#m8b184ed30a" x="178.557408" y="222.829354" style="fill: #6acc65; fill-opacity: 0.35"/>
     <use xlink:href="#m8b184ed30a" x="165.424212" y="159.670357" style="fill: #6acc65; fill-opacity: 0.35"/>
     <use xlink:href="#m8b184ed30a" x="167.629884" y="192.291766" style="fill: #6acc65; fill-opacity: 0.35"/>
    </g>
   </g>
   <g id="PathCollection_3">
    <defs>
     <path id="md45db774fc" d="M 0 1.414214 
C 0.375054 1.414214 0.734797 1.265203 1 1 
C 1.265203 0.734797 1.414214 0.375054 1.414214 0 
C 1.414214 -0.375054 1.265203 -0.734797 1 -1 
C 0.734797 -1.265203 0.375054 -1.414214 0 -1.414214 
C -0.375054 -1.414214 -0.734797 -1.265203 -1 -1 
C -1.265203 -0.734797 -1.414214 -0.375054 -1.414214 0 
C -1.414214 0.375054 -1.265203 0.734797 -1 1 
C -0.734797 1.265203 -0.375054 1.414214 0 1.414214 
z
"/>
    </defs>
    <g clip-path="url(#pf67da13c0e)">
     <use xlink:href="#md45db774fc" x="257.371016" y="218.251645" style="fill: #d65f5f; fill-opacity: 0.35"/>
     <use xlink:href="#md45db774fc" x="261.136352" y="239.960197" style="fill: #d65f5f; fill-opacity: 0.35"/>
     <use xlink:href="#md45db774fc" x="252.012911" y="247.232646" style="fill: #d65f5f; fill-opacity: 0.35"/>
     <use xlink:href="#md45db774fc" x="245.10197" y="180.09012" style="fill: #d65f5f; fill-opacity: 0.35"/>
     <use xlink:href="#md45db774fc" x="242.58503" y="223.523961" style="fill: #d65f5f; fill-opacity: 0.35"/>
     <use xlink:href="#md45db774fc" x="246.762844" y="229.51599" style="fill: #d65f5f; fill-opacity: 0.35"/>
     <use xlink:href="#md45db774fc" x="244.86811" y="212.067135" style="fill: #d65f5f; fill-opacity: 0.35"/>
     <use xlink:href="#md45db774fc" x="255.439247" y="247.207539" style="fill: #d65f5f; fill-opacity: 0.35"/>
     <use xlink:href="#md45db774fc" x="244.674641" y="240.127572" style="fill: #d65f5f; fill-opacity: 0.35"/>
     <use xlink:href="#md45db774fc" x="252.121147" y="220.929647" style="fill: #d65f5f; fill-opacity: 0.35"/>
     <use xlink:href="#md45db774fc" x="255.760809" y="213.590248" style="fill: #d65f5f; fill-opacity: 0.35"/>
     <use xlink:href="#md45db774fc" x="253.56953" y="218.829089" style="fill: #d65f5f; fill-opacity: 0.35"/>
     <use xlink:href="#md45db774fc" x="246.184154" y="237.198508" style="fill: #d65f5f; fill-opacity: 0.35"/>
     <use xlink:href="#md45db774fc" x="257.888493" y="172.399234" style="fill: #d65f5f; fill-opacity: 0.35"/>
     <use xlink:href="#md45db774fc" x="256.170316" y="238.119071" style="fill: #d65f5f; fill-opacity: 0.35"/>
     <use xlink:href="#md45db774fc" x="256.626926" y="229.331878" style="fill: #d65f5f; fill-opacity: 0.35"/>
     <use xlink:href="#md45db774fc" x="244.853305" y="249.149091" style="fill: #d65f5f; fill-opacity: 0.35"/>
     <use xlink:href="#md45db774fc" x="244.71185" y="236.964183" style="fill: #d65f5f; fill-opacity: 0.35"/>
     <use xlink:href="#md45db774fc" x="260.279099" y="215.130099" style="fill: #d65f5f; fill-opacity: 0.35"/>
     <use xlink:href="#md45db774fc" x="250.014968" y="206.108581" style="fill: #d65f5f; fill-opacity: 0.35"/>
     <use xlink:href="#md45db774fc" x="248.143558" y="253.902544" style="fill: #d65f5f; fill-opacity: 0.35"/>
     <use xlink:href="#md45db774fc" x="251.777465" y="248.889659" style="fill: #d65f5f; fill-opacity: 0.35"/>
     <use xlink:href="#md45db774fc" x="255.152724" y="244.052518" style="fill: #d65f5f; fill-opacity: 0.35"/>
     <use xlink:href="#md45db774fc" x="260.822547" y="205.30518" style="fill: #d65f5f; fill-opacity: 0.35"/>
     <use xlink:href="#md45db774fc" x="247.862691" y="226.82962" style="fill: #d65f5f; fill-opacity: 0.35"/>
     <use xlink:href="#md45db774fc" x="260.225761" y="222.352335" style="fill: #d65f5f; fill-opacity: 0.35"/>
     <use xlink:href="#md45db774fc" x="242.796578" y="240.135941" style="fill: #d65f5f; fill-opacity: 0.35"/>
     <use xlink:href="#md45db774fc" x="253.067569" y="249.174197" style="fill: #d65f5f; fill-opacity: 0.35"/>
     <use xlink:href="#md45db774fc" x="254.593233" y="237.298933" style="fill: #d65f5f; fill-opacity: 0.35"/>
     <use xlink:href="#md45db774fc" x="244.366028" y="197.564082" style="fill: #d65f5f; fill-opacity: 0.35"/>
     <use xlink:href="#md45db774fc" x="245.033065" y="198.258688" style="fill: #d65f5f; fill-opacity: 0.35"/>
     <use xlink:href="#md45db774fc" x="250.432055" y="249.768378" style="fill: #d65f5f; fill-opacity: 0.35"/>
     <use xlink:href="#md45db774fc" x="261.028003" y="239.349278" style="fill: #d65f5f; fill-opacity: 0.35"/>
     <use xlink:href="#md45db774fc" x="253.858599" y="244.546275" style="fill: #d65f5f; fill-opacity: 0.35"/>
     <use xlink:href="#md45db774fc" x="260.384855" y="230.871729" style="fill: #d65f5f; fill-opacity: 0.35"/>
     <use xlink:href="#md45db774fc" x="257.893071" y="220.243409" style="fill: #d65f5f; fill-opacity: 0.35"/>
     <use xlink:href="#md45db774fc" x="251.366841" y="233.373986" style="fill: #d65f5f; fill-opacity: 0.35"/>
     <use xlink:href="#md45db774fc" x="257.51353" y="246.613358" style="fill: #d65f5f; fill-opacity: 0.35"/>
     <use xlink:href="#md45db774fc" x="242.66057" y="251.584398" style="fill: #d65f5f; fill-opacity: 0.35"/>
     <use xlink:href="#md45db774fc" x="244.428904" y="239.240484" style="fill: #d65f5f; fill-opacity: 0.35"/>
     <use xlink:href="#md45db774fc" x="258.378553" y="219.816603" style="fill: #d65f5f; fill-opacity: 0.35"/>
     <use xlink:href="#md45db774fc" x="257.746971" y="254.095025" style="fill: #d65f5f; fill-opacity: 0.35"/>
     <use xlink:href="#md45db774fc" x="246.820648" y="198.032732" style="fill: #d65f5f; fill-opacity: 0.35"/>
     <use xlink:href="#md45db774fc" x="252.594467" y="226.402813" style="fill: #d65f5f; fill-opacity: 0.35"/>
     <use xlink:href="#md45db774fc" x="254.05175" y="236.520639" style="fill: #d65f5f; fill-opacity: 0.35"/>
     <use xlink:href="#md45db774fc" x="259.120504" y="242.02728" style="fill: #d65f5f; fill-opacity: 0.35"/>
     <use xlink:href="#md45db774fc" x="253.995418" y="203.648167" style="fill: #d65f5f; fill-opacity: 0.35"/>
     <use xlink:href="#md45db774fc" x="250.305343" y="253.609637" style="fill: #d65f5f; fill-opacity: 0.35"/>
     <use xlink:href="#md45db774fc" x="249.561897" y="244.04415" style="fill: #d65f5f; fill-opacity: 0.35"/>
     <use xlink:href="#md45db774fc" x="250.563126" y="228.536846" style="fill: #d65f5f; fill-opacity: 0.35"/>
     <use xlink:href="#md45db774fc" x="254.940983" y="207.539638" style="fill: #d65f5f; fill-opacity: 0.35"/>
     <use xlink:href="#md45db774fc" x="259.115695" y="238.043752" style="fill: #d65f5f; fill-opacity: 0.35"/>
     <use xlink:href="#md45db774fc" x="251.105684" y="211.138203" style="fill: #d65f5f; fill-opacity: 0.35"/>
     <use xlink:href="#md45db774fc" x="247.115001" y="245.935488" style="fill: #d65f5f; fill-opacity: 0.35"/>
     <use xlink:href="#md45db774fc" x="246.898534" y="210.267852" style="fill: #d65f5f; fill-opacity: 0.35"/>
     <use xlink:href="#md45db774fc" x="256.76308" y="247.935621" style="fill: #d65f5f; fill-opacity: 0.35"/>
     <use xlink:href="#md45db774fc" x="258.129499" y="215.908394" style="fill: #d65f5f; fill-opacity: 0.35"/>
     <use xlink:href="#md45db774fc" x="244.354034" y="242.947843" style="fill: #d65f5f; fill-opacity: 0.35"/>
     <use xlink:href="#md45db774fc" x="243.604164" y="177.813819" style="fill: #d65f5f; fill-opacity: 0.35"/>
     <use xlink:href="#md45db774fc" x="253.82744" y="242.253236" style="fill: #d65f5f; fill-opacity: 0.35"/>
     <use xlink:href="#md45db774fc" x="245.146044" y="241.500048" style="fill: #d65f5f; fill-opacity: 0.35"/>
     <use xlink:href="#md45db774fc" x="258.286282" y="231.491016" style="fill: #d65f5f; fill-opacity: 0.35"/>
     <use xlink:href="#md45db774fc" x="248.325335" y="237.734108" style="fill: #d65f5f; fill-opacity: 0.35"/>
     <use xlink:href="#md45db774fc" x="245.101475" y="247.040164" style="fill: #d65f5f; fill-opacity: 0.35"/>
     <use xlink:href="#md45db774fc" x="260.151432" y="219.281002" style="fill: #d65f5f; fill-opacity: 0.35"/>
     <use xlink:href="#md45db774fc" x="245.520957" y="250.446248" style="fill: #d65f5f; fill-opacity: 0.35"/>
     <use xlink:href="#md45db774fc" x="247.829261" y="244.069256" style="fill: #d65f5f; fill-opacity: 0.35"/>
     <use xlink:href="#md45db774fc" x="245.290137" y="235.315538" style="fill: #d65f5f; fill-opacity: 0.35"/>
     <use xlink:href="#md45db774fc" x="244.551808" y="243.818193" style="fill: #d65f5f; fill-opacity: 0.35"/>
     <use xlink:href="#md45db774fc" x="242.724699" y="220.176459" style="fill: #d65f5f; fill-opacity: 0.35"/>
     <use xlink:href="#md45db774fc" x="243.387963" y="224.8797" style="fill: #d65f5f; fill-opacity: 0.35"/>
     <use xlink:href="#md45db774fc" x="245.697384" y="251.50908" style="fill: #d65f5f; fill-opacity: 0.35"/>
     <use xlink:href="#md45db774fc" x="243.348968" y="241.34941" style="fill: #d65f5f; fill-opacity: 0.35"/>
     <use xlink:href="#md45db774fc" x="253.763726" y="207.514532" style="fill: #d65f5f; fill-opacity: 0.35"/>
     <use xlink:href="#md45db774fc" x="255.498429" y="223.314742" style="fill: #d65f5f; fill-opacity: 0.35"/>
     <use xlink:href="#md45db774fc" x="249.938513" y="234.96405" style="fill: #d65f5f; fill-opacity: 0.35"/>
     <use xlink:href="#md45db774fc" x="248.473616" y="198.58507" style="fill: #d65f5f; fill-opacity: 0.35"/>
     <use xlink:href="#md45db774fc" x="252.086216" y="189.161851" style="fill: #d65f5f; fill-opacity: 0.35"/>
     <use xlink:href="#md45db774fc" x="259.261224" y="224.477999" style="fill: #d65f5f; fill-opacity: 0.35"/>
     <use xlink:href="#md45db774fc" x="258.798873" y="244.228262" style="fill: #d65f5f; fill-opacity: 0.35"/>
     <use xlink:href="#md45db774fc" x="243.157103" y="247.893777" style="fill: #d65f5f; fill-opacity: 0.35"/>
     <use xlink:href="#md45db774fc" x="245.830182" y="195.128774" style="fill: #d65f5f; fill-opacity: 0.35"/>
     <use xlink:href="#md45db774fc" x="246.900132" y="227.197845" style="fill: #d65f5f; fill-opacity: 0.35"/>
     <use xlink:href="#md45db774fc" x="247.144982" y="235.943194" style="fill: #d65f5f; fill-opacity: 0.35"/>
     <use xlink:href="#md45db774fc" x="253.378109" y="226.176857" style="fill: #d65f5f; fill-opacity: 0.35"/>
     <use xlink:href="#md45db774fc" x="250.376823" y="251.718299" style="fill: #d65f5f; fill-opacity: 0.35"/>
     <use xlink:href="#md45db774fc" x="243.269025" y="217.766257" style="fill: #d65f5f; fill-opacity: 0.35"/>
     <use xlink:href="#md45db774fc" x="249.55086" y="242.060755" style="fill: #d65f5f; fill-opacity: 0.35"/>
     <use xlink:href="#md45db774fc" x="252.458577" y="253.174462" style="fill: #d65f5f; fill-opacity: 0.35"/>
     <use xlink:href="#md45db774fc" x="244.284193" y="198.459538" style="fill: #d65f5f; fill-opacity: 0.35"/>
     <use xlink:href="#md45db774fc" x="258.456601" y="252.04468" style="fill: #d65f5f; fill-opacity: 0.35"/>
     <use xlink:href="#md45db774fc" x="243.321466" y="228.03472" style="fill: #d65f5f; fill-opacity: 0.35"/>
     <use xlink:href="#md45db774fc" x="260.226408" y="231.281798" style="fill: #d65f5f; fill-opacity: 0.35"/>
     <use xlink:href="#md45db774fc" x="244.234638" y="208.694526" style="fill: #d65f5f; fill-opacity: 0.35"/>
     <use xlink:href="#md45db774fc" x="258.652524" y="261.903074" style="fill: #d65f5f; fill-opacity: 0.35"/>
     <use xlink:href="#md45db774fc" x="259.796682" y="251.743405" style="fill: #d65f5f; fill-opacity: 0.35"/>
     <use xlink:href="#md45db774fc" x="261.286333" y="243.190537" style="fill: #d65f5f; fill-opacity: 0.35"/>
     <use xlink:href="#md45db774fc" x="257.847849" y="236.269576" style="fill: #d65f5f; fill-opacity: 0.35"/>
     <use xlink:href="#md45db774fc" x="257.411158" y="241.525154" style="fill: #d65f5f; fill-opacity: 0.35"/>
     <use xlink:href="#md45db774fc" x="254.75801" y="250.412773" style="fill: #d65f5f; fill-opacity: 0.35"/>
    </g>
   </g>
   <g id="PathCollection_4">
    <defs>
     <path id="mc9b9c3d508" d="M 0 1.414214 
C 0.375054 1.414214 0.734797 1.265203 1 1 
C 1.265203 0.734797 1.414214 0.375054 1.414214 0 
C 1.414214 -0.375054 1.265203 -0.734797 1 -1 
C 0.734797 -1.265203 0.375054 -1.414214 0 -1.414214 
C -0.375054 -1.414214 -0.734797 -1.265203 -1 -1 
C -1.265203 -0.734797 -1.414214 -0.375054 -1.414214 0 
C -1.414214 0.375054 -1.265203 0.734797 -1 1 
C -0.734797 1.265203 -0.375054 1.414214 0 1.414214 
z
"/>
    </defs>
    <g clip-path="url(#pf67da13c0e)">
     <use xlink:href="#mc9b9c3d508" x="338.097077" y="255.392182" style="fill: #b47cc7; fill-opacity: 0.35"/>
     <use xlink:href="#mc9b9c3d508" x="325.616219" y="254.521832" style="fill: #b47cc7; fill-opacity: 0.35"/>
     <use xlink:href="#mc9b9c3d508" x="333.392319" y="264.137532" style="fill: #b47cc7; fill-opacity: 0.35"/>
     <use xlink:href="#mc9b9c3d508" x="332.969247" y="231.440804" style="fill: #b47cc7; fill-opacity: 0.35"/>
     <use xlink:href="#mc9b9c3d508" x="339.618843" y="266.815533" style="fill: #b47cc7; fill-opacity: 0.35"/>
     <use xlink:href="#mc9b9c3d508" x="331.973335" y="253.5929" style="fill: #b47cc7; fill-opacity: 0.35"/>
     <use xlink:href="#mc9b9c3d508" x="330.468339" y="233.733843" style="fill: #b47cc7; fill-opacity: 0.35"/>
     <use xlink:href="#mc9b9c3d508" x="335.396697" y="252.58028" style="fill: #b47cc7; fill-opacity: 0.35"/>
     <use xlink:href="#mc9b9c3d508" x="328.170923" y="257.275152" style="fill: #b47cc7; fill-opacity: 0.35"/>
     <use xlink:href="#mc9b9c3d508" x="325.717241" y="252.195318" style="fill: #b47cc7; fill-opacity: 0.35"/>
     <use xlink:href="#mc9b9c3d508" x="332.265347" y="250.571779" style="fill: #b47cc7; fill-opacity: 0.35"/>
     <use xlink:href="#mc9b9c3d508" x="331.084203" y="241.726004" style="fill: #b47cc7; fill-opacity: 0.35"/>
     <use xlink:href="#mc9b9c3d508" x="327.514515" y="242.554511" style="fill: #b47cc7; fill-opacity: 0.35"/>
     <use xlink:href="#mc9b9c3d508" x="330.127915" y="254.011338" style="fill: #b47cc7; fill-opacity: 0.35"/>
     <use xlink:href="#mc9b9c3d508" x="330.106236" y="252.898293" style="fill: #b47cc7; fill-opacity: 0.35"/>
     <use xlink:href="#mc9b9c3d508" x="329.352926" y="255.752039" style="fill: #b47cc7; fill-opacity: 0.35"/>
     <use xlink:href="#mc9b9c3d508" x="330.359393" y="256.948771" style="fill: #b47cc7; fill-opacity: 0.35"/>
     <use xlink:href="#mc9b9c3d508" x="336.291059" y="254.46325" style="fill: #b47cc7; fill-opacity: 0.35"/>
     <use xlink:href="#mc9b9c3d508" x="328.75993" y="247.140589" style="fill: #b47cc7; fill-opacity: 0.35"/>
     <use xlink:href="#mc9b9c3d508" x="341.386762" y="249.207672" style="fill: #b47cc7; fill-opacity: 0.35"/>
     <use xlink:href="#mc9b9c3d508" x="340.757147" y="247.910515" style="fill: #b47cc7; fill-opacity: 0.35"/>
     <use xlink:href="#mc9b9c3d508" x="332.32409" y="265.15852" style="fill: #b47cc7; fill-opacity: 0.35"/>
     <use xlink:href="#mc9b9c3d508" x="329.369691" y="254.237294" style="fill: #b47cc7; fill-opacity: 0.35"/>
     <use xlink:href="#mc9b9c3d508" x="333.380055" y="242.194655" style="fill: #b47cc7; fill-opacity: 0.35"/>
     <use xlink:href="#mc9b9c3d508" x="339.444316" y="208.769845" style="fill: #b47cc7; fill-opacity: 0.35"/>
     <use xlink:href="#mc9b9c3d508" x="335.648932" y="263.434556" style="fill: #b47cc7; fill-opacity: 0.35"/>
     <use xlink:href="#mc9b9c3d508" x="338.588908" y="249.483841" style="fill: #b47cc7; fill-opacity: 0.35"/>
     <use xlink:href="#mc9b9c3d508" x="333.327522" y="258.697841" style="fill: #b47cc7; fill-opacity: 0.35"/>
     <use xlink:href="#mc9b9c3d508" x="335.267991" y="250.245398" style="fill: #b47cc7; fill-opacity: 0.35"/>
     <use xlink:href="#mc9b9c3d508" x="328.591035" y="256.01147" style="fill: #b47cc7; fill-opacity: 0.35"/>
     <use xlink:href="#mc9b9c3d508" x="337.242937" y="251.592767" style="fill: #b47cc7; fill-opacity: 0.35"/>
     <use xlink:href="#mc9b9c3d508" x="326.930307" y="252.086524" style="fill: #b47cc7; fill-opacity: 0.35"/>
     <use xlink:href="#mc9b9c3d508" x="336.466422" y="251.751774" style="fill: #b47cc7; fill-opacity: 0.35"/>
     <use xlink:href="#mc9b9c3d508" x="339.679789" y="246.412508" style="fill: #b47cc7; fill-opacity: 0.35"/>
     <use xlink:href="#mc9b9c3d508" x="325.568783" y="252.630493" style="fill: #b47cc7; fill-opacity: 0.35"/>
     <use xlink:href="#mc9b9c3d508" x="334.908971" y="228.344364" style="fill: #b47cc7; fill-opacity: 0.35"/>
     <use xlink:href="#mc9b9c3d508" x="324.852072" y="254.722682" style="fill: #b47cc7; fill-opacity: 0.35"/>
     <use xlink:href="#mc9b9c3d508" x="337.065197" y="244.680175" style="fill: #b47cc7; fill-opacity: 0.35"/>
     <use xlink:href="#mc9b9c3d508" x="324.646734" y="251.140854" style="fill: #b47cc7; fill-opacity: 0.35"/>
     <use xlink:href="#mc9b9c3d508" x="341.136579" y="240.269841" style="fill: #b47cc7; fill-opacity: 0.35"/>
     <use xlink:href="#mc9b9c3d508" x="325.671526" y="264.966038" style="fill: #b47cc7; fill-opacity: 0.35"/>
     <use xlink:href="#mc9b9c3d508" x="341.580863" y="255.27502" style="fill: #b47cc7; fill-opacity: 0.35"/>
     <use xlink:href="#mc9b9c3d508" x="338.520975" y="249.62611" style="fill: #b47cc7; fill-opacity: 0.35"/>
     <use xlink:href="#mc9b9c3d508" x="334.508121" y="258.563941" style="fill: #b47cc7; fill-opacity: 0.35"/>
     <use xlink:href="#mc9b9c3d508" x="338.167335" y="254.1285" style="fill: #b47cc7; fill-opacity: 0.35"/>
     <use xlink:href="#mc9b9c3d508" x="338.409242" y="242.914368" style="fill: #b47cc7; fill-opacity: 0.35"/>
     <use xlink:href="#mc9b9c3d508" x="341.331937" y="241.006291" style="fill: #b47cc7; fill-opacity: 0.35"/>
     <use xlink:href="#mc9b9c3d508" x="327.917605" y="251.391917" style="fill: #b47cc7; fill-opacity: 0.35"/>
     <use xlink:href="#mc9b9c3d508" x="334.438282" y="247.006689" style="fill: #b47cc7; fill-opacity: 0.35"/>
     <use xlink:href="#mc9b9c3d508" x="324.85117" y="236.420213" style="fill: #b47cc7; fill-opacity: 0.35"/>
     <use xlink:href="#mc9b9c3d508" x="334.943559" y="255.174595" style="fill: #b47cc7; fill-opacity: 0.35"/>
     <use xlink:href="#mc9b9c3d508" x="326.32774" y="258.245928" style="fill: #b47cc7; fill-opacity: 0.35"/>
     <use xlink:href="#mc9b9c3d508" x="333.951684" y="239.282328" style="fill: #b47cc7; fill-opacity: 0.35"/>
     <use xlink:href="#mc9b9c3d508" x="334.096546" y="233.691999" style="fill: #b47cc7; fill-opacity: 0.35"/>
     <use xlink:href="#mc9b9c3d508" x="332.035034" y="260.061948" style="fill: #b47cc7; fill-opacity: 0.35"/>
     <use xlink:href="#mc9b9c3d508" x="333.132101" y="227.130895" style="fill: #b47cc7; fill-opacity: 0.35"/>
     <use xlink:href="#mc9b9c3d508" x="337.805161" y="236.269576" style="fill: #b47cc7; fill-opacity: 0.35"/>
     <use xlink:href="#mc9b9c3d508" x="338.489224" y="227.783658" style="fill: #b47cc7; fill-opacity: 0.35"/>
     <use xlink:href="#mc9b9c3d508" x="332.541827" y="245.943857" style="fill: #b47cc7; fill-opacity: 0.35"/>
     <use xlink:href="#mc9b9c3d508" x="334.622607" y="242.387136" style="fill: #b47cc7; fill-opacity: 0.35"/>
     <use xlink:href="#mc9b9c3d508" x="341.045485" y="247.517183" style="fill: #b47cc7; fill-opacity: 0.35"/>
     <use xlink:href="#mc9b9c3d508" x="325.329229" y="246.035914" style="fill: #b47cc7; fill-opacity: 0.35"/>
     <use xlink:href="#mc9b9c3d508" x="325.278294" y="246.337189" style="fill: #b47cc7; fill-opacity: 0.35"/>
     <use xlink:href="#mc9b9c3d508" x="324.709014" y="247.199171" style="fill: #b47cc7; fill-opacity: 0.35"/>
     <use xlink:href="#mc9b9c3d508" x="335.75111" y="250.09476" style="fill: #b47cc7; fill-opacity: 0.35"/>
     <use xlink:href="#mc9b9c3d508" x="331.117493" y="256.455014" style="fill: #b47cc7; fill-opacity: 0.35"/>
     <use xlink:href="#mc9b9c3d508" x="338.006538" y="256.14537" style="fill: #b47cc7; fill-opacity: 0.35"/>
     <use xlink:href="#mc9b9c3d508" x="336.010009" y="263.827888" style="fill: #b47cc7; fill-opacity: 0.35"/>
     <use xlink:href="#mc9b9c3d508" x="329.471881" y="236.721489" style="fill: #b47cc7; fill-opacity: 0.35"/>
     <use xlink:href="#mc9b9c3d508" x="340.408903" y="236.085463" style="fill: #b47cc7; fill-opacity: 0.35"/>
     <use xlink:href="#mc9b9c3d508" x="337.778217" y="261.618536" style="fill: #b47cc7; fill-opacity: 0.35"/>
     <use xlink:href="#mc9b9c3d508" x="328.249778" y="213.255498" style="fill: #b47cc7; fill-opacity: 0.35"/>
     <use xlink:href="#mc9b9c3d508" x="330.063621" y="231.825767" style="fill: #b47cc7; fill-opacity: 0.35"/>
     <use xlink:href="#mc9b9c3d508" x="329.10008" y="252.998718" style="fill: #b47cc7; fill-opacity: 0.35"/>
     <use xlink:href="#mc9b9c3d508" x="326.062808" y="248.354059" style="fill: #b47cc7; fill-opacity: 0.35"/>
     <use xlink:href="#mc9b9c3d508" x="325.872466" y="246.39577" style="fill: #b47cc7; fill-opacity: 0.35"/>
     <use xlink:href="#mc9b9c3d508" x="341.140213" y="246.429245" style="fill: #b47cc7; fill-opacity: 0.35"/>
     <use xlink:href="#mc9b9c3d508" x="331.491191" y="213.213654" style="fill: #b47cc7; fill-opacity: 0.35"/>
     <use xlink:href="#mc9b9c3d508" x="330.434066" y="247.123852" style="fill: #b47cc7; fill-opacity: 0.35"/>
     <use xlink:href="#mc9b9c3d508" x="337.142085" y="243.324437" style="fill: #b47cc7; fill-opacity: 0.35"/>
     <use xlink:href="#mc9b9c3d508" x="333.720104" y="259.384079" style="fill: #b47cc7; fill-opacity: 0.35"/>
     <use xlink:href="#mc9b9c3d508" x="341.140455" y="260.647761" style="fill: #b47cc7; fill-opacity: 0.35"/>
     <use xlink:href="#mc9b9c3d508" x="338.122354" y="251.70993" style="fill: #b47cc7; fill-opacity: 0.35"/>
     <use xlink:href="#mc9b9c3d508" x="332.294248" y="256.044945" style="fill: #b47cc7; fill-opacity: 0.35"/>
     <use xlink:href="#mc9b9c3d508" x="330.299266" y="254.354457" style="fill: #b47cc7; fill-opacity: 0.35"/>
     <use xlink:href="#mc9b9c3d508" x="342.118318" y="257.007352" style="fill: #b47cc7; fill-opacity: 0.35"/>
     <use xlink:href="#mc9b9c3d508" x="336.911126" y="247.642715" style="fill: #b47cc7; fill-opacity: 0.35"/>
     <use xlink:href="#mc9b9c3d508" x="341.432017" y="258.831741" style="fill: #b47cc7; fill-opacity: 0.35"/>
     <use xlink:href="#mc9b9c3d508" x="325.304924" y="249.910647" style="fill: #b47cc7; fill-opacity: 0.35"/>
     <use xlink:href="#mc9b9c3d508" x="339.48253" y="223.942399" style="fill: #b47cc7; fill-opacity: 0.35"/>
     <use xlink:href="#mc9b9c3d508" x="335.348485" y="257.517846" style="fill: #b47cc7; fill-opacity: 0.35"/>
     <use xlink:href="#mc9b9c3d508" x="325.371606" y="249.01519" style="fill: #b47cc7; fill-opacity: 0.35"/>
     <use xlink:href="#mc9b9c3d508" x="334.403075" y="260.003366" style="fill: #b47cc7; fill-opacity: 0.35"/>
     <use xlink:href="#mc9b9c3d508" x="336.297896" y="257.082671" style="fill: #b47cc7; fill-opacity: 0.35"/>
     <use xlink:href="#mc9b9c3d508" x="323.24863" y="230.026484" style="fill: #b47cc7; fill-opacity: 0.35"/>
     <use xlink:href="#mc9b9c3d508" x="331.809077" y="243.608974" style="fill: #b47cc7; fill-opacity: 0.35"/>
     <use xlink:href="#mc9b9c3d508" x="338.99576" y="254.32935" style="fill: #b47cc7; fill-opacity: 0.35"/>
     <use xlink:href="#mc9b9c3d508" x="328.730542" y="249.835329" style="fill: #b47cc7; fill-opacity: 0.35"/>
     <use xlink:href="#mc9b9c3d508" x="331.891001" y="254.036444" style="fill: #b47cc7; fill-opacity: 0.35"/>
     <use xlink:href="#mc9b9c3d508" x="331.576601" y="246.856052" style="fill: #b47cc7; fill-opacity: 0.35"/>
    </g>
   </g>
   <g id="line2d_12">
    <path d="M 90.60808 59.086284 
L 90.60808 55.738782 
L 171.303318 55.738782 
L 171.303318 59.086284 
" clip-path="url(#pf67da13c0e)" style="fill: none; stroke: #333333; stroke-width: 0.9; stroke-linecap: square"/>
   </g>
   <g id="line2d_13">
    <path d="M 90.60808 42.348773 
L 90.60808 39.001271 
L 251.998557 39.001271 
L 251.998557 42.348773 
" clip-path="url(#pf67da13c0e)" style="fill: none; stroke: #333333; stroke-width: 0.9; stroke-linecap: square"/>
   </g>
   <g id="line2d_14">
    <path d="M 90.60808 25.611262 
L 90.60808 22.26376 
L 332.693795 22.26376 
L 332.693795 25.611262 
" clip-path="url(#pf67da13c0e)" style="fill: none; stroke: #333333; stroke-width: 0.9; stroke-linecap: square"/>
   </g>
   <g id="patch_3">
    <path d="M 42.190938 282.44 
L 42.190938 7.2 
" style="fill: none; stroke: #000000; stroke-width: 0.8; stroke-linejoin: miter; stroke-linecap: square"/>
   </g>
   <g id="patch_4">
    <path d="M 42.190938 282.44 
L 381.110938 282.44 
" style="fill: none; stroke: #000000; stroke-width: 0.8; stroke-linejoin: miter; stroke-linecap: square"/>
   </g>
   <g id="patch_5">
    <path d="M 83.345509 210.506362 
L 97.870652 210.506362 
L 97.870652 176.698682 
L 83.345509 176.698682 
z
" clip-path="url(#pf67da13c0e)" style="fill: #ffffff; stroke: #4878cf; stroke-width: 1.2; stroke-linejoin: miter"/>
   </g>
   <g id="line2d_15">
    <path d="M 90.60808 245.876907 
L 90.60808 210.506362 
" clip-path="url(#pf67da13c0e)" style="fill: none; stroke: #4878cf; stroke-width: 1.2; stroke-linecap: square"/>
   </g>
   <g id="line2d_16">
    <path d="M 90.60808 176.698682 
L 90.60808 125.987162 
" clip-path="url(#pf67da13c0e)" style="fill: none; stroke: #4878cf; stroke-width: 1.2; stroke-linecap: square"/>
   </g>
   <g id="line2d_17">
    <path d="M 84.798023 245.876907 
L 96.418138 245.876907 
" clip-path="url(#pf67da13c0e)" style="fill: none; stroke: #4878cf; stroke-width: 1.2; stroke-linecap: square"/>
   </g>
   <g id="line2d_18">
    <path d="M 84.798023 125.987162 
L 96.418138 125.987162 
" clip-path="url(#pf67da13c0e)" style="fill: none; stroke: #4878cf; stroke-width: 1.2; stroke-linecap: square"/>
   </g>
   <g id="patch_6">
    <path d="M 164.040747 228.377839 
L 178.56589 228.377839 
L 178.56589 201.610375 
L 164.040747 201.610375 
z
" clip-path="url(#pf67da13c0e)" style="fill: #ffffff; stroke: #6acc65; stroke-width: 1.2; stroke-linejoin: miter"/>
   </g>
   <g id="line2d_19">
    <path d="M 171.303318 244.881025 
L 171.303318 228.377839 
" clip-path="url(#pf67da13c0e)" style="fill: none; stroke: #6acc65; stroke-width: 1.2; stroke-linecap: square"/>
   </g>
   <g id="line2d_20">
    <path d="M 171.303318 201.610375 
L 171.303318 161.459178 
" clip-path="url(#pf67da13c0e)" style="fill: none; stroke: #6acc65; stroke-width: 1.2; stroke-linecap: square"/>
   </g>
   <g id="line2d_21">
    <path d="M 165.493261 244.881025 
L 177.113376 244.881025 
" clip-path="url(#pf67da13c0e)" style="fill: none; stroke: #6acc65; stroke-width: 1.2; stroke-linecap: square"/>
   </g>
   <g id="line2d_22">
    <path d="M 165.493261 161.459178 
L 177.113376 161.459178 
" clip-path="url(#pf67da13c0e)" style="fill: none; stroke: #6acc65; stroke-width: 1.2; stroke-linecap: square"/>
   </g>
   <g id="patch_7">
    <path d="M 244.735985 244.109008 
L 259.261128 244.109008 
L 259.261128 219.168024 
L 244.735985 219.168024 
z
" clip-path="url(#pf67da13c0e)" style="fill: #ffffff; stroke: #d65f5f; stroke-width: 1.2; stroke-linejoin: miter"/>
   </g>
   <g id="line2d_23">
    <path d="M 251.998557 261.903074 
L 251.998557 244.109008 
" clip-path="url(#pf67da13c0e)" style="fill: none; stroke: #d65f5f; stroke-width: 1.2; stroke-linecap: square"/>
   </g>
   <g id="line2d_24">
    <path d="M 251.998557 219.168024 
L 251.998557 181.756549 
" clip-path="url(#pf67da13c0e)" style="fill: none; stroke: #d65f5f; stroke-width: 1.2; stroke-linecap: square"/>
   </g>
   <g id="line2d_25">
    <path d="M 246.188499 261.903074 
L 257.808614 261.903074 
" clip-path="url(#pf67da13c0e)" style="fill: none; stroke: #d65f5f; stroke-width: 1.2; stroke-linecap: square"/>
   </g>
   <g id="line2d_26">
    <path d="M 246.188499 181.756549 
L 257.808614 181.756549 
" clip-path="url(#pf67da13c0e)" style="fill: none; stroke: #d65f5f; stroke-width: 1.2; stroke-linecap: square"/>
   </g>
   <g id="patch_8">
    <path d="M 325.431223 255.482146 
L 339.956366 255.482146 
L 339.956366 243.53784 
L 325.431223 243.53784 
z
" clip-path="url(#pf67da13c0e)" style="fill: #ffffff; stroke: #b47cc7; stroke-width: 1.2; stroke-linejoin: miter"/>
   </g>
   <g id="line2d_27">
    <path d="M 332.693795 266.815533 
L 332.693795 255.482146 
" clip-path="url(#pf67da13c0e)" style="fill: none; stroke: #b47cc7; stroke-width: 1.2; stroke-linecap: square"/>
   </g>
   <g id="line2d_28">
    <path d="M 332.693795 243.53784 
L 332.693795 225.621381 
" clip-path="url(#pf67da13c0e)" style="fill: none; stroke: #b47cc7; stroke-width: 1.2; stroke-linecap: square"/>
   </g>
   <g id="line2d_29">
    <path d="M 326.883738 266.815533 
L 338.503852 266.815533 
" clip-path="url(#pf67da13c0e)" style="fill: none; stroke: #b47cc7; stroke-width: 1.2; stroke-linecap: square"/>
   </g>
   <g id="line2d_30">
    <path d="M 326.883738 225.621381 
L 338.503852 225.621381 
" clip-path="url(#pf67da13c0e)" style="fill: none; stroke: #b47cc7; stroke-width: 1.2; stroke-linecap: square"/>
   </g>
   <g id="text_13">
    <!-- *** -->
    <g style="fill: #333333" transform="translate(124.955699 53.238156) scale(0.08 -0.08)">
     <defs>
      <path id="DejaVuSans-2a" d="M 3009 3897 
L 1888 3291 
L 3009 2681 
L 2828 2375 
L 1778 3009 
L 1778 1831 
L 1422 1831 
L 1422 3009 
L 372 2375 
L 191 2681 
L 1313 3291 
L 191 3897 
L 372 4206 
L 1422 3572 
L 1422 4750 
L 1778 4750 
L 1778 3572 
L 2828 4206 
L 3009 3897 
z
" transform="scale(0.015625)"/>
     </defs>
     <use xlink:href="#DejaVuSans-2a"/>
     <use xlink:href="#DejaVuSans-2a" transform="translate(50 0)"/>
     <use xlink:href="#DejaVuSans-2a" transform="translate(100 0)"/>
    </g>
   </g>
   <g id="text_14">
    <!-- *** -->
    <g style="fill: #333333" transform="translate(165.303318 36.500645) scale(0.08 -0.08)">
     <use xlink:href="#DejaVuSans-2a"/>
     <use xlink:href="#DejaVuSans-2a" transform="translate(50 0)"/>
     <use xlink:href="#DejaVuSans-2a" transform="translate(100 0)"/>
    </g>
   </g>
   <g id="text_15">
    <!-- *** -->
    <g style="fill: #333333" transform="translate(205.650938 19.763134) scale(0.08 -0.08)">
     <use xlink:href="#DejaVuSans-2a"/>
     <use xlink:href="#DejaVuSans-2a" transform="translate(50 0)"/>
     <use xlink:href="#DejaVuSans-2a" transform="translate(100 0)"/>
    </g>
   </g>
   <g id="line2d_31">
    <path d="M 83.345509 199.509817 
L 97.870652 199.509817 
" clip-path="url(#pf67da13c0e)" style="fill: none; stroke: #4878cf; stroke-width: 2.2; stroke-linecap: square"/>
   </g>
   <g id="line2d_32">
    <path d="M 164.040747 213.121598 
L 178.56589 213.121598 
" clip-path="url(#pf67da13c0e)" style="fill: none; stroke: #6acc65; stroke-width: 2.2; stroke-linecap: square"/>
   </g>
   <g id="line2d_33">
    <path d="M 244.735985 236.106385 
L 259.261128 236.106385 
" clip-path="url(#pf67da13c0e)" style="fill: none; stroke: #d65f5f; stroke-width: 2.2; stroke-linecap: square"/>
   </g>
   <g id="line2d_34">
    <path d="M 325.431223 250.408588 
L 339.956366 250.408588 
" clip-path="url(#pf67da13c0e)" style="fill: none; stroke: #b47cc7; stroke-width: 2.2; stroke-linecap: square"/>
   </g>
  </g>
 </g>
 <defs>
  <clipPath id="pf67da13c0e">
   <rect x="42.190938" y="7.2" width="338.92" height="275.24"/>
  </clipPath>
 </defs>
</svg>
