<?xml version="1.0" encoding="utf-8" standalone="no"?>
<!DOCTYPE svg PUBLIC "-//W3C//DTD SVG 1.1//EN"
  "http://www.w3.org/Graphics/SVG/1.1/DTD/svg11.dtd">
<svg xmlns:xlink="http://www.w3.org/1999/xlink" width="495.630589pt" height="279.034375pt" viewBox="0 0 495.630589 279.034375" xmlns="http://www.w3.org/2000/svg" version="1.1">
 <metadata>
  <rdf:RDF xmlns:dc="http://purl.org/dc/elements/1.1/" xmlns:cc="http://creativecommons.org/ns#" xmlns:rdf="http://www.w3.org/1999/02/22-rdf-syntax-ns#">
   <cc:Work>
    <dc:type rdf:resource="http://purl.org/dc/dcmitype/StillImage"/>
    <dc:date>2026-05-25T00:52:07.506480</dc:date>
    <dc:format>image/svg+xml</dc:format>
    <dc:creator>
     <cc:Agent>
      <dc:title>Matplotlib v3.10.9, https://matplotlib.org/</dc:title>
     </cc:Agent>
    </dc:creator>
   </cc:Work>
  </rdf:RDF>
 </metadata>
 <defs>
  <style type="text/css">*{stroke-linejoin: round; stroke-linecap: butt}</style>
 </defs>
 <g id="figure_1">
  <g id="patch_1">
   <path d="M 0 279.034375 
L 495.630589 279.034375 
L 495.630589 0 
L 0 0 
z
" style="fill: #ffffff"/>
  </g>
  <g id="axes_1">
   <g id="patch_2">
    <path d="M 44.685938 241.478125 
L 446.745589 241.478125 
L 446.745589 24.318125 
L 44.685938 24.318125 
z
" style="fill: #ffffff"/>
   </g>
   <g id="matplotlib.axis_1">
    <g id="xtick_1">
     <g id="line2d_1">
      <defs>
       <path id="mbff3fa3c52" d="M 0 0 
L 0 3.5 
" style="stroke: #000000; stroke-width: 0.8"/>
      </defs>
      <g>
       <use xlink:href="#mbff3fa3c52" x="44.685938" y="241.478125" style="stroke: #000000; stroke-width: 0.8"/>
      </g>
     </g>
     <g id="text_1">
      <!-- 0 -->
      <g transform="translate(41.822813 255.316719) scale(0.09 -0.09)">
       <defs>
        <path id="DejaVuSans-30" d="M 2034 4250 
Q 1547 4250 1301 3770 
Q 1056 3291 1056 2328 
Q 1056 1369 1301 889 
Q 1547 409 2034 409 
Q 2525 409 2770 889 
Q 3016 1369 3016 2328 
Q 3016 3291 2770 3770 
Q 2525 4250 2034 4250 
z
M 2034 4750 
Q 2819 4750 3233 4129 
Q 3647 3509 3647 2328 
Q 3647 1150 3233 529 
Q 2819 -91 2034 -91 
Q 1250 -91 836 529 
Q 422 1150 422 2328 
Q 422 3509 836 4129 
Q 1250 4750 2034 4750 
z
" transform="scale(0.015625)"/>
       </defs>
       <use xlink:href="#DejaVuSans-30"/>
      </g>
     </g>
    </g>
    <g id="xtick_2">
     <g id="line2d_2">
      <g>
       <use xlink:href="#mbff3fa3c52" x="95.195944" y="241.478125" style="stroke: #000000; stroke-width: 0.8"/>
      </g>
     </g>
     <g id="text_2">
      <!-- 25 -->
      <g transform="translate(89.469694 255.316719) scale(0.09 -0.09)">
       <defs>
        <path id="DejaVuSans-32" d="M 1228 531 
L 3431 531 
L 3431 0 
L 469 0 
L 469 531 
Q 828 903 1448 1529 
Q 2069 2156 2228 2338 
Q 2531 2678 2651 2914 
Q 2772 3150 2772 3378 
Q 2772 3750 2511 3984 
Q 2250 4219 1831 4219 
Q 1534 4219 1204 4116 
Q 875 4013 500 3803 
L 500 4441 
Q 881 4594 1212 4672 
Q 1544 4750 1819 4750 
Q 2544 4750 2975 4387 
Q 3406 4025 3406 3419 
Q 3406 3131 3298 2873 
Q 3191 2616 2906 2266 
Q 2828 2175 2409 1742 
Q 1991 1309 1228 531 
z
" transform="scale(0.015625)"/>
        <path id="DejaVuSans-35" d="M 691 4666 
L 3169 4666 
L 3169 4134 
L 1269 4134 
L 1269 2991 
Q 1406 3038 1543 3061 
Q 1681 3084 1819 3084 
Q 2600 3084 3056 2656 
Q 3513 2228 3513 1497 
Q 3513 744 3044 326 
Q 2575 -91 1722 -91 
Q 1428 -91 1123 -41 
Q 819 9 494 109 
L 494 744 
Q 775 591 1075 516 
Q 1375 441 1709 441 
Q 2250 441 2565 725 
Q 2881 1009 2881 1497 
Q 2881 1984 2565 2268 
Q 2250 2553 1709 2553 
Q 1456 2553 1204 2497 
Q 953 2441 691 2322 
L 691 4666 
z
" transform="scale(0.015625)"/>
       </defs>
       <use xlink:href="#DejaVuSans-32"/>
       <use xlink:href="#DejaVuSans-35" transform="translate(63.623047 0)"/>
      </g>
     </g>
    </g>
    <g id="xtick_3">
     <g id="line2d_3">
      <g>
       <use xlink:href="#mbff3fa3c52" x="145.70595" y="241.478125" style="stroke: #000000; stroke-width: 0.8"/>
      </g>
     </g>
     <g id="text_3">
      <!-- 50 -->
      <g transform="translate(139.9797 255.316719) scale(0.09 -0.09)">
       <use xlink:href="#DejaVuSans-35"/>
       <use xlink:href="#DejaVuSans-30" transform="translate(63.623047 0)"/>
      </g>
     </g>
    </g>
    <g id="xtick_4">
     <g id="line2d_4">
      <g>
       <use xlink:href="#mbff3fa3c52" x="196.215957" y="241.478125" style="stroke: #000000; stroke-width: 0.8"/>
      </g>
     </g>
     <g id="text_4">
      <!-- 75 -->
      <g transform="translate(190.489707 255.316719) scale(0.09 -0.09)">
       <defs>
        <path id="DejaVuSans-37" d="M 525 4666 
L 3525 4666 
L 3525 4397 
L 1831 0 
L 1172 0 
L 2766 4134 
L 525 4134 
L 525 4666 
z
" transform="scale(0.015625)"/>
       </defs>
       <use xlink:href="#DejaVuSans-37"/>
       <use xlink:href="#DejaVuSans-35" transform="translate(63.623047 0)"/>
      </g>
     </g>
    </g>
    <g id="xtick_5">
     <g id="line2d_5">
      <g>
       <use xlink:href="#mbff3fa3c52" x="246.725963" y="241.478125" style="stroke: #000000; stroke-width: 0.8"/>
      </g>
     </g>
     <g id="text_5">
      <!-- 100 -->
      <g transform="translate(238.136588 255.316719) scale(0.09 -0.09)">
       <defs>
        <path id="DejaVuSans-31" d="M 794 531 
L 1825 531 
L 1825 4091 
L 703 3866 
L 703 4441 
L 1819 4666 
L 2450 4666 
L 2450 531 
L 3481 531 
L 3481 0 
L 794 0 
L 794 531 
z
" transform="scale(0.015625)"/>
       </defs>
       <use xlink:href="#DejaVuSans-31"/>
       <use xlink:href="#DejaVuSans-30" transform="translate(63.623047 0)"/>
       <use xlink:href="#DejaVuSans-30" transform="translate(127.246094 0)"/>
      </g>
     </g>
    </g>
    <g id="xtick_6">
     <g id="line2d_6">
      <g>
       <use xlink:href="#mbff3fa3c52" x="297.23597" y="241.478125" style="stroke: #000000; stroke-width: 0.8"/>
      </g>
     </g>
     <g id="text_6">
      <!-- 125 -->
      <g transform="translate(288.646595 255.316719) scale(0.09 -0.09)">
       <use xlink:href="#DejaVuSans-31"/>
       <use xlink:href="#DejaVuSans-32" transform="translate(63.623047 0)"/>
       <use xlink:href="#DejaVuSans-35" transform="translate(127.246094 0)"/>
      </g>
     </g>
    </g>
    <g id="xtick_7">
     <g id="line2d_7">
      <g>
       <use xlink:href="#mbff3fa3c52" x="347.745976" y="241.478125" style="stroke: #000000; stroke-width: 0.8"/>
      </g>
     </g>
     <g id="text_7">
      <!-- 150 -->
      <g transform="translate(339.156601 255.316719) scale(0.09 -0.09)">
       <use xlink:href="#DejaVuSans-31"/>
       <use xlink:href="#DejaVuSans-35" transform="translate(63.623047 0)"/>
       <use xlink:href="#DejaVuSans-30" transform="translate(127.246094 0)"/>
      </g>
     </g>
    </g>
    <g id="xtick_8">
     <g id="line2d_8">
      <g>
       <use xlink:href="#mbff3fa3c52" x="398.255983" y="241.478125" style="stroke: #000000; stroke-width: 0.8"/>
      </g>
     </g>
     <g id="text_8">
      <!-- 175 -->
      <g transform="translate(389.666608 255.316719) scale(0.09 -0.09)">
       <use xlink:href="#DejaVuSans-31"/>
       <use xlink:href="#DejaVuSans-37" transform="translate(63.623047 0)"/>
       <use xlink:href="#DejaVuSans-35" transform="translate(127.246094 0)"/>
      </g>
     </g>
    </g>
    <g id="text_9">
     <!-- Step -->
     <g transform="translate(233.192091 269.546719) scale(0.11 -0.11)">
      <defs>
       <path id="DejaVuSans-53" d="M 3425 4513 
L 3425 3897 
Q 3066 4069 2747 4153 
Q 2428 4238 2131 4238 
Q 1616 4238 1336 4038 
Q 1056 3838 1056 3469 
Q 1056 3159 1242 3001 
Q 1428 2844 1947 2747 
L 2328 2669 
Q 3034 2534 3370 2195 
Q 3706 1856 3706 1288 
Q 3706 609 3251 259 
Q 2797 -91 1919 -91 
Q 1588 -91 1214 -16 
Q 841 59 441 206 
L 441 856 
Q 825 641 1194 531 
Q 1563 422 1919 422 
Q 2459 422 2753 634 
Q 3047 847 3047 1241 
Q 3047 1584 2836 1778 
Q 2625 1972 2144 2069 
L 1759 2144 
Q 1053 2284 737 2584 
Q 422 2884 422 3419 
Q 422 4038 858 4394 
Q 1294 4750 2059 4750 
Q 2388 4750 2728 4690 
Q 3069 4631 3425 4513 
z
" transform="scale(0.015625)"/>
       <path id="DejaVuSans-74" d="M 1172 4494 
L 1172 3500 
L 2356 3500 
L 2356 3053 
L 1172 3053 
L 1172 1153 
Q 1172 725 1289 603 
Q 1406 481 1766 481 
L 2356 481 
L 2356 0 
L 1766 0 
Q 1100 0 847 248 
Q 594 497 594 1153 
L 594 3053 
L 172 3053 
L 172 3500 
L 594 3500 
L 594 4494 
L 1172 4494 
z
" transform="scale(0.015625)"/>
       <path id="DejaVuSans-65" d="M 3597 1894 
L 3597 1613 
L 953 1613 
Q 991 1019 1311 708 
Q 1631 397 2203 397 
Q 2534 397 2845 478 
Q 3156 559 3463 722 
L 3463 178 
Q 3153 47 2828 -22 
Q 2503 -91 2169 -91 
Q 1331 -91 842 396 
Q 353 884 353 1716 
Q 353 2575 817 3079 
Q 1281 3584 2069 3584 
Q 2775 3584 3186 3129 
Q 3597 2675 3597 1894 
z
M 3022 2063 
Q 3016 2534 2758 2815 
Q 2500 3097 2075 3097 
Q 1594 3097 1305 2825 
Q 1016 2553 972 2059 
L 3022 2063 
z
" transform="scale(0.015625)"/>
       <path id="DejaVuSans-70" d="M 1159 525 
L 1159 -1331 
L 581 -1331 
L 581 3500 
L 1159 3500 
L 1159 2969 
Q 1341 3281 1617 3432 
Q 1894 3584 2278 3584 
Q 2916 3584 3314 3078 
Q 3713 2572 3713 1747 
Q 3713 922 3314 415 
Q 2916 -91 2278 -91 
Q 1894 -91 1617 61 
Q 1341 213 1159 525 
z
M 3116 1747 
Q 3116 2381 2855 2742 
Q 2594 3103 2138 3103 
Q 1681 3103 1420 2742 
Q 1159 2381 1159 1747 
Q 1159 1113 1420 752 
Q 1681 391 2138 391 
Q 2594 391 2855 752 
Q 3116 1113 3116 1747 
z
" transform="scale(0.015625)"/>
      </defs>
      <use xlink:href="#DejaVuSans-53"/>
      <use xlink:href="#DejaVuSans-74" transform="translate(63.476562 0)"/>
      <use xlink:href="#DejaVuSans-65" transform="translate(102.685547 0)"/>
      <use xlink:href="#DejaVuSans-70" transform="translate(164.208984 0)"/>
     </g>
    </g>
   </g>
   <g id="matplotlib.axis_2">
    <g id="ytick_1">
     <g id="line2d_9">
      <defs>
       <path id="m0082924b91" d="M 0 0 
L -3.5 0 
" style="stroke: #1f77b4; stroke-width: 0.8"/>
      </defs>
      <g>
       <use xlink:href="#m0082924b91" x="44.685938" y="99.98832" style="fill: #1f77b4; stroke: #1f77b4; stroke-width: 0.8"/>
      </g>
     </g>
     <g id="text_10">
      <!-- $\mathdefault{10^{0}}$ -->
      <g style="fill: #1f77b4" transform="translate(21.845938 103.407617) scale(0.09 -0.09)">
       <use xlink:href="#DejaVuSans-31" transform="translate(0 0.765625)"/>
       <use xlink:href="#DejaVuSans-30" transform="translate(63.623047 0.765625)"/>
       <use xlink:href="#DejaVuSans-30" transform="translate(128.203125 39.046875) scale(0.7)"/>
      </g>
     </g>
    </g>
    <g id="ytick_2">
     <g id="line2d_10">
      <defs>
       <path id="mdee0026ffd" d="M 0 0 
L -2 0 
" style="stroke: #000000; stroke-width: 0.6"/>
      </defs>
      <g>
       <use xlink:href="#mdee0026ffd" x="44.685938" y="235.184051" style="stroke: #000000; stroke-width: 0.6"/>
      </g>
     </g>
    </g>
    <g id="ytick_3">
     <g id="line2d_11">
      <g>
       <use xlink:href="#mdee0026ffd" x="44.685938" y="201.12424" style="stroke: #000000; stroke-width: 0.6"/>
      </g>
     </g>
    </g>
    <g id="ytick_4">
     <g id="line2d_12">
      <g>
       <use xlink:href="#mdee0026ffd" x="44.685938" y="176.958419" style="stroke: #000000; stroke-width: 0.6"/>
      </g>
     </g>
    </g>
    <g id="ytick_5">
     <g id="line2d_13">
      <g>
       <use xlink:href="#mdee0026ffd" x="44.685938" y="158.213952" style="stroke: #000000; stroke-width: 0.6"/>
      </g>
     </g>
    </g>
    <g id="ytick_6">
     <g id="line2d_14">
      <g>
       <use xlink:href="#mdee0026ffd" x="44.685938" y="142.898608" style="stroke: #000000; stroke-width: 0.6"/>
      </g>
     </g>
    </g>
    <g id="ytick_7">
     <g id="line2d_15">
      <g>
       <use xlink:href="#mdee0026ffd" x="44.685938" y="129.949668" style="stroke: #000000; stroke-width: 0.6"/>
      </g>
     </g>
    </g>
    <g id="ytick_8">
     <g id="line2d_16">
      <g>
       <use xlink:href="#mdee0026ffd" x="44.685938" y="118.732787" style="stroke: #000000; stroke-width: 0.6"/>
      </g>
     </g>
    </g>
    <g id="ytick_9">
     <g id="line2d_17">
      <g>
       <use xlink:href="#mdee0026ffd" x="44.685938" y="108.838796" style="stroke: #000000; stroke-width: 0.6"/>
      </g>
     </g>
    </g>
    <g id="ytick_10">
     <g id="line2d_18">
      <g>
       <use xlink:href="#mdee0026ffd" x="44.685938" y="41.762688" style="stroke: #000000; stroke-width: 0.6"/>
      </g>
     </g>
    </g>
    <g id="text_11">
     <!-- Training loss (log scale) -->
     <g style="fill: #1f77b4" transform="translate(15.558281 197.312578) rotate(-90) scale(0.11 -0.11)">
      <defs>
       <path id="DejaVuSans-54" d="M -19 4666 
L 3928 4666 
L 3928 4134 
L 2272 4134 
L 2272 0 
L 1638 0 
L 1638 4134 
L -19 4134 
L -19 4666 
z
" transform="scale(0.015625)"/>
       <path id="DejaVuSans-72" d="M 2631 2963 
Q 2534 3019 2420 3045 
Q 2306 3072 2169 3072 
Q 1681 3072 1420 2755 
Q 1159 2438 1159 1844 
L 1159 0 
L 581 0 
L 581 3500 
L 1159 3500 
L 1159 2956 
Q 1341 3275 1631 3429 
Q 1922 3584 2338 3584 
Q 2397 3584 2469 3576 
Q 2541 3569 2628 3553 
L 2631 2963 
z
" transform="scale(0.015625)"/>
       <path id="DejaVuSans-61" d="M 2194 1759 
Q 1497 1759 1228 1600 
Q 959 1441 959 1056 
Q 959 750 1161 570 
Q 1363 391 1709 391 
Q 2188 391 2477 730 
Q 2766 1069 2766 1631 
L 2766 1759 
L 2194 1759 
z
M 3341 1997 
L 3341 0 
L 2766 0 
L 2766 531 
Q 2569 213 2275 61 
Q 1981 -91 1556 -91 
Q 1019 -91 701 211 
Q 384 513 384 1019 
Q 384 1609 779 1909 
Q 1175 2209 1959 2209 
L 2766 2209 
L 2766 2266 
Q 2766 2663 2505 2880 
Q 2244 3097 1772 3097 
Q 1472 3097 1187 3025 
Q 903 2953 641 2809 
L 641 3341 
Q 956 3463 1253 3523 
Q 1550 3584 1831 3584 
Q 2591 3584 2966 3190 
Q 3341 2797 3341 1997 
z
" transform="scale(0.015625)"/>
       <path id="DejaVuSans-69" d="M 603 3500 
L 1178 3500 
L 1178 0 
L 603 0 
L 603 3500 
z
M 603 4863 
L 1178 4863 
L 1178 4134 
L 603 4134 
L 603 4863 
z
" transform="scale(0.015625)"/>
       <path id="DejaVuSans-6e" d="M 3513 2113 
L 3513 0 
L 2938 0 
L 2938 2094 
Q 2938 2591 2744 2837 
Q 2550 3084 2163 3084 
Q 1697 3084 1428 2787 
Q 1159 2491 1159 1978 
L 1159 0 
L 581 0 
L 581 3500 
L 1159 3500 
L 1159 2956 
Q 1366 3272 1645 3428 
Q 1925 3584 2291 3584 
Q 2894 3584 3203 3211 
Q 3513 2838 3513 2113 
z
" transform="scale(0.015625)"/>
       <path id="DejaVuSans-67" d="M 2906 1791 
Q 2906 2416 2648 2759 
Q 2391 3103 1925 3103 
Q 1463 3103 1205 2759 
Q 947 2416 947 1791 
Q 947 1169 1205 825 
Q 1463 481 1925 481 
Q 2391 481 2648 825 
Q 2906 1169 2906 1791 
z
M 3481 434 
Q 3481 -459 3084 -895 
Q 2688 -1331 1869 -1331 
Q 1566 -1331 1297 -1286 
Q 1028 -1241 775 -1147 
L 775 -588 
Q 1028 -725 1275 -790 
Q 1522 -856 1778 -856 
Q 2344 -856 2625 -561 
Q 2906 -266 2906 331 
L 2906 616 
Q 2728 306 2450 153 
Q 2172 0 1784 0 
Q 1141 0 747 490 
Q 353 981 353 1791 
Q 353 2603 747 3093 
Q 1141 3584 1784 3584 
Q 2172 3584 2450 3431 
Q 2728 3278 2906 2969 
L 2906 3500 
L 3481 3500 
L 3481 434 
z
" transform="scale(0.015625)"/>
       <path id="DejaVuSans-20" transform="scale(0.015625)"/>
       <path id="DejaVuSans-6c" d="M 603 4863 
L 1178 4863 
L 1178 0 
L 603 0 
L 603 4863 
z
" transform="scale(0.015625)"/>
       <path id="DejaVuSans-6f" d="M 1959 3097 
Q 1497 3097 1228 2736 
Q 959 2375 959 1747 
Q 959 1119 1226 758 
Q 1494 397 1959 397 
Q 2419 397 2687 759 
Q 2956 1122 2956 1747 
Q 2956 2369 2687 2733 
Q 2419 3097 1959 3097 
z
M 1959 3584 
Q 2709 3584 3137 3096 
Q 3566 2609 3566 1747 
Q 3566 888 3137 398 
Q 2709 -91 1959 -91 
Q 1206 -91 779 398 
Q 353 888 353 1747 
Q 353 2609 779 3096 
Q 1206 3584 1959 3584 
z
" transform="scale(0.015625)"/>
       <path id="DejaVuSans-73" d="M 2834 3397 
L 2834 2853 
Q 2591 2978 2328 3040 
Q 2066 3103 1784 3103 
Q 1356 3103 1142 2972 
Q 928 2841 928 2578 
Q 928 2378 1081 2264 
Q 1234 2150 1697 2047 
L 1894 2003 
Q 2506 1872 2764 1633 
Q 3022 1394 3022 966 
Q 3022 478 2636 193 
Q 2250 -91 1575 -91 
Q 1294 -91 989 -36 
Q 684 19 347 128 
L 347 722 
Q 666 556 975 473 
Q 1284 391 1588 391 
Q 1994 391 2212 530 
Q 2431 669 2431 922 
Q 2431 1156 2273 1281 
Q 2116 1406 1581 1522 
L 1381 1569 
Q 847 1681 609 1914 
Q 372 2147 372 2553 
Q 372 3047 722 3315 
Q 1072 3584 1716 3584 
Q 2034 3584 2315 3537 
Q 2597 3491 2834 3397 
z
" transform="scale(0.015625)"/>
       <path id="DejaVuSans-28" d="M 1984 4856 
Q 1566 4138 1362 3434 
Q 1159 2731 1159 2009 
Q 1159 1288 1364 580 
Q 1569 -128 1984 -844 
L 1484 -844 
Q 1016 -109 783 600 
Q 550 1309 550 2009 
Q 550 2706 781 3412 
Q 1013 4119 1484 4856 
L 1984 4856 
z
" transform="scale(0.015625)"/>
       <path id="DejaVuSans-63" d="M 3122 3366 
L 3122 2828 
Q 2878 2963 2633 3030 
Q 2388 3097 2138 3097 
Q 1578 3097 1268 2742 
Q 959 2388 959 1747 
Q 959 1106 1268 751 
Q 1578 397 2138 397 
Q 2388 397 2633 464 
Q 2878 531 3122 666 
L 3122 134 
Q 2881 22 2623 -34 
Q 2366 -91 2075 -91 
Q 1284 -91 818 406 
Q 353 903 353 1747 
Q 353 2603 823 3093 
Q 1294 3584 2113 3584 
Q 2378 3584 2631 3529 
Q 2884 3475 3122 3366 
z
" transform="scale(0.015625)"/>
       <path id="DejaVuSans-29" d="M 513 4856 
L 1013 4856 
Q 1481 4119 1714 3412 
Q 1947 2706 1947 2009 
Q 1947 1309 1714 600 
Q 1481 -109 1013 -844 
L 513 -844 
Q 928 -128 1133 580 
Q 1338 1288 1338 2009 
Q 1338 2731 1133 3434 
Q 928 4138 513 4856 
z
" transform="scale(0.015625)"/>
      </defs>
      <use xlink:href="#DejaVuSans-54"/>
      <use xlink:href="#DejaVuSans-72" transform="translate(46.333984 0)"/>
      <use xlink:href="#DejaVuSans-61" transform="translate(87.447266 0)"/>
      <use xlink:href="#DejaVuSans-69" transform="translate(148.726562 0)"/>
      <use xlink:href="#DejaVuSans-6e" transform="translate(176.509766 0)"/>
      <use xlink:href="#DejaVuSans-69" transform="translate(239.888672 0)"/>
      <use xlink:href="#DejaVuSans-6e" transform="translate(267.671875 0)"/>
      <use xlink:href="#DejaVuSans-67" transform="translate(331.050781 0)"/>
      <use xlink:href="#DejaVuSans-20" transform="translate(394.527344 0)"/>
      <use xlink:href="#DejaVuSans-6c" transform="translate(426.314453 0)"/>
      <use xlink:href="#DejaVuSans-6f" transform="translate(454.097656 0)"/>
      <use xlink:href="#DejaVuSans-73" transform="translate(515.279297 0)"/>
      <use xlink:href="#DejaVuSans-73" transform="translate(567.378906 0)"/>
      <use xlink:href="#DejaVuSans-20" transform="translate(619.478516 0)"/>
      <use xlink:href="#DejaVuSans-28" transform="translate(651.265625 0)"/>
      <use xlink:href="#DejaVuSans-6c" transform="translate(690.279297 0)"/>
      <use xlink:href="#DejaVuSans-6f" transform="translate(718.0625 0)"/>
      <use xlink:href="#DejaVuSans-67" transform="translate(779.244141 0)"/>
      <use xlink:href="#DejaVuSans-20" transform="translate(842.720703 0)"/>
      <use xlink:href="#DejaVuSans-73" transform="translate(874.507812 0)"/>
      <use xlink:href="#DejaVuSans-63" transform="translate(926.607422 0)"/>
      <use xlink:href="#DejaVuSans-61" transform="translate(981.587891 0)"/>
      <use xlink:href="#DejaVuSans-6c" transform="translate(1042.867188 0)"/>
      <use xlink:href="#DejaVuSans-65" transform="translate(1070.650391 0)"/>
      <use xlink:href="#DejaVuSans-29" transform="translate(1132.173828 0)"/>
     </g>
    </g>
   </g>
   <g id="line2d_19">
    <path d="M 44.685938 34.189034 
L 46.706338 35.820565 
L 48.726738 37.624233 
L 50.747138 38.238194 
L 52.767539 39.283772 
L 54.787939 40.918525 
L 56.808339 41.519435 
L 58.828739 43.027997 
L 60.84914 45.692058 
L 62.86954 45.577704 
L 64.88994 47.615236 
L 66.91034 47.175082 
L 68.930741 52.44844 
L 70.951141 51.330232 
L 72.971541 51.769106 
L 74.991941 52.572548 
L 77.012342 55.781029 
L 79.032742 56.044474 
L 81.053142 56.88505 
L 83.073542 59.122106 
L 85.093943 59.122106 
L 87.114343 61.760739 
L 89.134743 63.071197 
L 91.155143 62.26317 
L 93.175544 65.615486 
L 95.195944 66.372087 
L 97.216344 64.832466 
L 99.236744 67.027693 
L 101.257145 70.089997 
L 103.277545 70.491102 
L 105.297945 72.969247 
L 107.318346 74.62357 
L 109.338746 75.096926 
L 111.359146 74.797654 
L 113.379546 76.342819 
L 115.399947 79.186021 
L 117.420347 82.31921 
L 119.440747 78.96336 
L 121.461147 82.694417 
L 123.481548 81.945672 
L 125.501948 83.126269 
L 127.522348 83.636375 
L 129.542748 87.368833 
L 131.563149 89.121826 
L 133.583549 89.833396 
L 135.603949 89.513927 
L 137.624349 90.874491 
L 139.64475 94.124499 
L 141.66515 92.888069 
L 143.68555 96.138229 
L 145.70595 95.993924 
L 147.726351 97.505327 
L 149.746751 97.480864 
L 151.767151 95.347599 
L 153.787551 101.61684 
L 155.807952 104.085103 
L 157.828352 104.83817 
L 159.848752 103.952907 
L 161.869153 104.767005 
L 163.889553 105.203842 
L 165.909953 109.128635 
L 167.930353 110.793404 
L 169.950754 109.767936 
L 171.971154 108.039923 
L 173.991554 110.117846 
L 176.011954 110.946395 
L 178.032355 112.951261 
L 180.052755 113.068966 
L 182.073155 117.27547 
L 184.093555 114.975021 
L 186.113956 116.853427 
L 188.134356 117.72039 
L 190.154756 121.464795 
L 192.175156 122.468726 
L 194.195557 123.952778 
L 196.215957 120.741149 
L 198.236357 127.934002 
L 200.256757 126.851444 
L 202.277158 126.436107 
L 204.297558 131.0975 
L 206.317958 128.639904 
L 208.338358 127.6066 
L 210.358759 129.662155 
L 212.379159 135.045248 
L 214.399559 133.179024 
L 216.41996 136.693405 
L 218.44036 141.938099 
L 220.46076 134.132175 
L 222.48116 135.64668 
L 224.501561 141.841267 
L 226.521961 136.45967 
L 228.542361 138.003913 
L 230.562761 135.249508 
L 232.583162 140.947403 
L 234.603562 138.893532 
L 236.623962 145.039711 
L 238.644362 145.818847 
L 240.664763 140.74247 
L 242.685163 144.724345 
L 244.705563 143.207181 
L 246.725963 149.568691 
L 248.746364 150.055131 
L 250.766764 148.394663 
L 252.787164 154.019542 
L 254.807564 150.498413 
L 256.827965 158.079657 
L 258.848365 161.154488 
L 260.868765 156.880562 
L 262.889165 154.436107 
L 264.909566 150.805494 
L 266.929966 158.668791 
L 268.950366 158.483189 
L 270.970767 160.70333 
L 272.991167 159.825344 
L 275.011567 157.494625 
L 277.031967 160.530451 
L 279.052368 162.011389 
L 281.072768 162.930417 
L 283.093168 166.025523 
L 285.113568 163.268739 
L 287.133969 160.134175 
L 289.154369 171.806565 
L 291.174769 161.067538 
L 293.195169 178.377367 
L 295.21557 176.937421 
L 297.23597 168.552225 
L 299.25637 173.643617 
L 301.27677 164.183664 
L 303.297171 171.078932 
L 305.317571 180.650458 
L 307.337971 174.822752 
L 309.358371 174.068636 
L 311.378772 172.02411 
L 313.399172 179.864164 
L 315.419572 184.880689 
L 317.439972 184.650231 
L 319.460373 175.604362 
L 321.480773 175.253795 
L 323.501173 189.068047 
L 325.521574 180.147255 
L 327.541974 185.529355 
L 329.562374 182.514284 
L 331.582774 180.562728 
L 333.603175 185.785565 
L 335.623575 185.762241 
L 337.643975 195.519333 
L 339.664375 186.771072 
L 341.684776 180.518897 
L 343.705176 191.006543 
L 345.725576 186.84191 
L 347.745976 187.149566 
L 349.766377 179.063625 
L 351.786777 195.023129 
L 353.807177 187.268196 
L 355.827577 193.398484 
L 357.847978 192.863844 
L 359.868378 193.296385 
L 361.888778 203.107512 
L 363.909178 191.354789 
L 365.929579 198.886269 
L 367.949979 194.763142 
L 369.970379 191.955162 
L 371.990779 198.072291 
L 374.01118 205.994858 
L 376.03158 204.058976 
L 378.05198 195.33618 
L 382.092781 190.462199 
L 384.113181 207.461523 
L 386.133581 200.066899 
L 388.153982 200.928464 
L 390.174382 206.083922 
L 392.194782 203.798415 
L 394.215182 208.892801 
L 396.235583 202.964286 
L 398.255983 206.919768 
L 400.276383 206.381484 
L 402.296783 197.641374 
L 404.317184 211.989849 
L 406.337584 205.905889 
L 408.357984 210.850395 
L 412.398785 208.372285 
L 414.419185 208.372285 
L 416.439585 207.582389 
L 418.459985 214.11986 
L 420.480386 206.20282 
L 422.500786 217.658005 
L 424.521186 218.273907 
L 426.541586 216.776266 
L 428.561987 204.349439 
L 430.582387 204.699326 
L 432.602787 216.070787 
L 434.623188 201.489039 
L 436.643588 211.323291 
L 438.663988 224.103784 
L 440.684388 211.608311 
L 442.704789 221.494372 
L 444.725189 223.115731 
L 446.745589 231.607216 
L 446.745589 231.607216 
" clip-path="url(#p6f483e01a7)" style="fill: none; stroke: #1f77b4; stroke-width: 1.6; stroke-linecap: square"/>
   </g>
   <g id="patch_3">
    <path d="M 44.685938 241.478125 
L 44.685938 24.318125 
" style="fill: none; stroke: #1f77b4; stroke-width: 0.8; stroke-linejoin: miter; stroke-linecap: square"/>
   </g>
   <g id="patch_4">
    <path d="M 44.685938 241.478125 
L 446.745589 241.478125 
" style="fill: none; stroke: #000000; stroke-width: 0.8; stroke-linejoin: miter; stroke-linecap: square"/>
   </g>
   <g id="patch_5">
    <path d="M 44.685938 24.318125 
L 446.745589 24.318125 
" style="fill: none; stroke: #000000; stroke-width: 0.8; stroke-linejoin: miter; stroke-linecap: square"/>
   </g>
   <g id="text_12">
    <!-- Training Loss and Cosine LR Schedule -->
    <g transform="translate(132.828576 16.318125) scale(0.12 -0.12)">
     <defs>
      <path id="DejaVuSans-4c" d="M 628 4666 
L 1259 4666 
L 1259 531 
L 3531 531 
L 3531 0 
L 628 0 
L 628 4666 
z
" transform="scale(0.015625)"/>
      <path id="DejaVuSans-64" d="M 2906 2969 
L 2906 4863 
L 3481 4863 
L 3481 0 
L 2906 0 
L 2906 525 
Q 2725 213 2448 61 
Q 2172 -91 1784 -91 
Q 1150 -91 751 415 
Q 353 922 353 1747 
Q 353 2572 751 3078 
Q 1150 3584 1784 3584 
Q 2172 3584 2448 3432 
Q 2725 3281 2906 2969 
z
M 947 1747 
Q 947 1113 1208 752 
Q 1469 391 1925 391 
Q 2381 391 2643 752 
Q 2906 1113 2906 1747 
Q 2906 2381 2643 2742 
Q 2381 3103 1925 3103 
Q 1469 3103 1208 2742 
Q 947 2381 947 1747 
z
" transform="scale(0.015625)"/>
      <path id="DejaVuSans-43" d="M 4122 4306 
L 4122 3641 
Q 3803 3938 3442 4084 
Q 3081 4231 2675 4231 
Q 1875 4231 1450 3742 
Q 1025 3253 1025 2328 
Q 1025 1406 1450 917 
Q 1875 428 2675 428 
Q 3081 428 3442 575 
Q 3803 722 4122 1019 
L 4122 359 
Q 3791 134 3420 21 
Q 3050 -91 2638 -91 
Q 1578 -91 968 557 
Q 359 1206 359 2328 
Q 359 3453 968 4101 
Q 1578 4750 2638 4750 
Q 3056 4750 3426 4639 
Q 3797 4528 4122 4306 
z
" transform="scale(0.015625)"/>
      <path id="DejaVuSans-52" d="M 2841 2188 
Q 3044 2119 3236 1894 
Q 3428 1669 3622 1275 
L 4263 0 
L 3584 0 
L 2988 1197 
Q 2756 1666 2539 1819 
Q 2322 1972 1947 1972 
L 1259 1972 
L 1259 0 
L 628 0 
L 628 4666 
L 2053 4666 
Q 2853 4666 3247 4331 
Q 3641 3997 3641 3322 
Q 3641 2881 3436 2590 
Q 3231 2300 2841 2188 
z
M 1259 4147 
L 1259 2491 
L 2053 2491 
Q 2509 2491 2742 2702 
Q 2975 2913 2975 3322 
Q 2975 3731 2742 3939 
Q 2509 4147 2053 4147 
L 1259 4147 
z
" transform="scale(0.015625)"/>
      <path id="DejaVuSans-68" d="M 3513 2113 
L 3513 0 
L 2938 0 
L 2938 2094 
Q 2938 2591 2744 2837 
Q 2550 3084 2163 3084 
Q 1697 3084 1428 2787 
Q 1159 2491 1159 1978 
L 1159 0 
L 581 0 
L 581 4863 
L 1159 4863 
L 1159 2956 
Q 1366 3272 1645 3428 
Q 1925 3584 2291 3584 
Q 2894 3584 3203 3211 
Q 3513 2838 3513 2113 
z
" transform="scale(0.015625)"/>
      <path id="DejaVuSans-75" d="M 544 1381 
L 544 3500 
L 1119 3500 
L 1119 1403 
Q 1119 906 1312 657 
Q 1506 409 1894 409 
Q 2359 409 2629 706 
Q 2900 1003 2900 1516 
L 2900 3500 
L 3475 3500 
L 3475 0 
L 2900 0 
L 2900 538 
Q 2691 219 2414 64 
Q 2138 -91 1772 -91 
Q 1169 -91 856 284 
Q 544 659 544 1381 
z
M 1991 3584 
L 1991 3584 
z
" transform="scale(0.015625)"/>
     </defs>
     <use xlink:href="#DejaVuSans-54"/>
     <use xlink:href="#DejaVuSans-72" transform="translate(46.333984 0)"/>
     <use xlink:href="#DejaVuSans-61" transform="translate(87.447266 0)"/>
     <use xlink:href="#DejaVuSans-69" transform="translate(148.726562 0)"/>
     <use xlink:href="#DejaVuSans-6e" transform="translate(176.509766 0)"/>
     <use xlink:href="#DejaVuSans-69" transform="translate(239.888672 0)"/>
     <use xlink:href="#DejaVuSans-6e" transform="translate(267.671875 0)"/>
     <use xlink:href="#DejaVuSans-67" transform="translate(331.050781 0)"/>
     <use xlink:href="#DejaVuSans-20" transform="translate(394.527344 0)"/>
     <use xlink:href="#DejaVuSans-4c" transform="translate(426.314453 0)"/>
     <use xlink:href="#DejaVuSans-6f" transform="translate(480.277344 0)"/>
     <use xlink:href="#DejaVuSans-73" transform="translate(541.458984 0)"/>
     <use xlink:href="#DejaVuSans-73" transform="translate(593.558594 0)"/>
     <use xlink:href="#DejaVuSans-20" transform="translate(645.658203 0)"/>
     <use xlink:href="#DejaVuSans-61" transform="translate(677.445312 0)"/>
     <use xlink:href="#DejaVuSans-6e" transform="translate(738.724609 0)"/>
     <use xlink:href="#DejaVuSans-64" transform="translate(802.103516 0)"/>
     <use xlink:href="#DejaVuSans-20" transform="translate(865.580078 0)"/>
     <use xlink:href="#DejaVuSans-43" transform="translate(897.367188 0)"/>
     <use xlink:href="#DejaVuSans-6f" transform="translate(967.191406 0)"/>
     <use xlink:href="#DejaVuSans-73" transform="translate(1028.373047 0)"/>
     <use xlink:href="#DejaVuSans-69" transform="translate(1080.472656 0)"/>
     <use xlink:href="#DejaVuSans-6e" transform="translate(1108.255859 0)"/>
     <use xlink:href="#DejaVuSans-65" transform="translate(1171.634766 0)"/>
     <use xlink:href="#DejaVuSans-20" transform="translate(1233.158203 0)"/>
     <use xlink:href="#DejaVuSans-4c" transform="translate(1264.945312 0)"/>
     <use xlink:href="#DejaVuSans-52" transform="translate(1320.658203 0)"/>
     <use xlink:href="#DejaVuSans-20" transform="translate(1390.140625 0)"/>
     <use xlink:href="#DejaVuSans-53" transform="translate(1421.927734 0)"/>
     <use xlink:href="#DejaVuSans-63" transform="translate(1485.404297 0)"/>
     <use xlink:href="#DejaVuSans-68" transform="translate(1540.384766 0)"/>
     <use xlink:href="#DejaVuSans-65" transform="translate(1603.763672 0)"/>
     <use xlink:href="#DejaVuSans-64" transform="translate(1665.287109 0)"/>
     <use xlink:href="#DejaVuSans-75" transform="translate(1728.763672 0)"/>
     <use xlink:href="#DejaVuSans-6c" transform="translate(1792.142578 0)"/>
     <use xlink:href="#DejaVuSans-65" transform="translate(1819.925781 0)"/>
    </g>
   </g>
   <g id="legend_1">
    <g id="patch_6">
     <path d="M 355.894808 57.93875 
L 440.445589 57.93875 
Q 442.245589 57.93875 442.245589 56.13875 
L 442.245589 30.618125 
Q 442.245589 28.818125 440.445589 28.818125 
L 355.894808 28.818125 
Q 354.094808 28.818125 354.094808 30.618125 
L 354.094808 56.13875 
Q 354.094808 57.93875 355.894808 57.93875 
z
" style="fill: #ffffff; opacity: 0.85; stroke: #cccccc; stroke-linejoin: miter"/>
    </g>
    <g id="line2d_20">
     <path d="M 357.694808 36.106719 
L 366.694808 36.106719 
L 375.694808 36.106719 
" style="fill: none; stroke: #1f77b4; stroke-width: 1.6; stroke-linecap: square"/>
    </g>
    <g id="text_13">
     <!-- Training loss -->
     <g transform="translate(382.894808 39.256719) scale(0.09 -0.09)">
      <use xlink:href="#DejaVuSans-54"/>
      <use xlink:href="#DejaVuSans-72" transform="translate(46.333984 0)"/>
      <use xlink:href="#DejaVuSans-61" transform="translate(87.447266 0)"/>
      <use xlink:href="#DejaVuSans-69" transform="translate(148.726562 0)"/>
      <use xlink:href="#DejaVuSans-6e" transform="translate(176.509766 0)"/>
      <use xlink:href="#DejaVuSans-69" transform="translate(239.888672 0)"/>
      <use xlink:href="#DejaVuSans-6e" transform="translate(267.671875 0)"/>
      <use xlink:href="#DejaVuSans-67" transform="translate(331.050781 0)"/>
      <use xlink:href="#DejaVuSans-20" transform="translate(394.527344 0)"/>
      <use xlink:href="#DejaVuSans-6c" transform="translate(426.314453 0)"/>
      <use xlink:href="#DejaVuSans-6f" transform="translate(454.097656 0)"/>
      <use xlink:href="#DejaVuSans-73" transform="translate(515.279297 0)"/>
      <use xlink:href="#DejaVuSans-73" transform="translate(567.378906 0)"/>
     </g>
    </g>
    <g id="line2d_21">
     <path d="M 357.694808 49.317031 
L 366.694808 49.317031 
L 375.694808 49.317031 
" style="fill: none; stroke-dasharray: 5.92,2.56; stroke-dashoffset: 0; stroke: #d62728; stroke-width: 1.6"/>
    </g>
    <g id="text_14">
     <!-- LR ×10⁻³ -->
     <g transform="translate(382.894808 52.467031) scale(0.09 -0.09)">
      <defs>
       <path id="DejaVuSans-d7" d="M 4488 3438 
L 3059 2003 
L 4488 575 
L 4116 197 
L 2681 1631 
L 1247 197 
L 878 575 
L 2303 2003 
L 878 3438 
L 1247 3816 
L 2681 2381 
L 4116 3816 
L 4488 3438 
z
" transform="scale(0.015625)"/>
       <path id="DejaVuSans-207b" d="M 428 3359 
L 2950 3359 
L 2950 3063 
L 428 3063 
L 428 3359 
z
" transform="scale(0.015625)"/>
       <path id="DejaVuSans-b3" d="M 1638 3500 
Q 1925 3444 2083 3273 
Q 2241 3103 2241 2847 
Q 2241 2459 1944 2250 
Q 1647 2041 1094 2041 
Q 916 2041 720 2073 
Q 525 2106 306 2169 
L 306 2547 
Q 469 2463 655 2422 
Q 841 2381 1050 2381 
Q 1391 2381 1578 2504 
Q 1766 2628 1766 2847 
Q 1766 3078 1592 3197 
Q 1419 3316 1081 3316 
L 813 3316 
L 813 3653 
L 1106 3653 
Q 1400 3653 1551 3751 
Q 1703 3850 1703 4038 
Q 1703 4219 1547 4314 
Q 1391 4409 1094 4409 
Q 969 4409 809 4381 
Q 650 4353 397 4281 
L 397 4641 
Q 625 4694 825 4722 
Q 1025 4750 1197 4750 
Q 1647 4750 1911 4565 
Q 2175 4381 2175 4072 
Q 2175 3856 2034 3706 
Q 1894 3556 1638 3500 
z
" transform="scale(0.015625)"/>
      </defs>
      <use xlink:href="#DejaVuSans-4c"/>
      <use xlink:href="#DejaVuSans-52" transform="translate(55.712891 0)"/>
      <use xlink:href="#DejaVuSans-20" transform="translate(125.195312 0)"/>
      <use xlink:href="#DejaVuSans-d7" transform="translate(156.982422 0)"/>
      <use xlink:href="#DejaVuSans-31" transform="translate(240.771484 0)"/>
      <use xlink:href="#DejaVuSans-30" transform="translate(304.394531 0)"/>
      <use xlink:href="#DejaVuSans-207b" transform="translate(368.017578 0)"/>
      <use xlink:href="#DejaVuSans-b3" transform="translate(420.800781 0)"/>
     </g>
    </g>
   </g>
  </g>
  <g id="axes_2">
   <g id="matplotlib.axis_3">
    <g id="ytick_11">
     <g id="line2d_22">
      <defs>
       <path id="m8a6d753e67" d="M 0 0 
L 3.5 0 
" style="stroke: #d62728; stroke-width: 0.8"/>
      </defs>
      <g>
       <use xlink:href="#m8a6d753e67" x="446.745589" y="231.607216" style="fill: #d62728; stroke: #d62728; stroke-width: 0.8"/>
      </g>
     </g>
     <g id="text_15">
      <!-- 0.00 -->
      <g style="fill: #d62728" transform="translate(453.745589 235.026513) scale(0.09 -0.09)">
       <defs>
        <path id="DejaVuSans-2e" d="M 684 794 
L 1344 794 
L 1344 0 
L 684 0 
L 684 794 
z
" transform="scale(0.015625)"/>
       </defs>
       <use xlink:href="#DejaVuSans-30"/>
       <use xlink:href="#DejaVuSans-2e" transform="translate(63.623047 0)"/>
       <use xlink:href="#DejaVuSans-30" transform="translate(95.410156 0)"/>
       <use xlink:href="#DejaVuSans-30" transform="translate(159.033203 0)"/>
      </g>
     </g>
    </g>
    <g id="ytick_12">
     <g id="line2d_23">
      <g>
       <use xlink:href="#m8a6d753e67" x="446.745589" y="192.12358" style="fill: #d62728; stroke: #d62728; stroke-width: 0.8"/>
      </g>
     </g>
     <g id="text_16">
      <!-- 0.20 -->
      <g style="fill: #d62728" transform="translate(453.745589 195.542876) scale(0.09 -0.09)">
       <use xlink:href="#DejaVuSans-30"/>
       <use xlink:href="#DejaVuSans-2e" transform="translate(63.623047 0)"/>
       <use xlink:href="#DejaVuSans-32" transform="translate(95.410156 0)"/>
       <use xlink:href="#DejaVuSans-30" transform="translate(159.033203 0)"/>
      </g>
     </g>
    </g>
    <g id="ytick_13">
     <g id="line2d_24">
      <g>
       <use xlink:href="#m8a6d753e67" x="446.745589" y="152.639943" style="fill: #d62728; stroke: #d62728; stroke-width: 0.8"/>
      </g>
     </g>
     <g id="text_17">
      <!-- 0.40 -->
      <g style="fill: #d62728" transform="translate(453.745589 156.05924) scale(0.09 -0.09)">
       <defs>
        <path id="DejaVuSans-34" d="M 2419 4116 
L 825 1625 
L 2419 1625 
L 2419 4116 
z
M 2253 4666 
L 3047 4666 
L 3047 1625 
L 3713 1625 
L 3713 1100 
L 3047 1100 
L 3047 0 
L 2419 0 
L 2419 1100 
L 313 1100 
L 313 1709 
L 2253 4666 
z
" transform="scale(0.015625)"/>
       </defs>
       <use xlink:href="#DejaVuSans-30"/>
       <use xlink:href="#DejaVuSans-2e" transform="translate(63.623047 0)"/>
       <use xlink:href="#DejaVuSans-34" transform="translate(95.410156 0)"/>
       <use xlink:href="#DejaVuSans-30" transform="translate(159.033203 0)"/>
      </g>
     </g>
    </g>
    <g id="ytick_14">
     <g id="line2d_25">
      <g>
       <use xlink:href="#m8a6d753e67" x="446.745589" y="113.156307" style="fill: #d62728; stroke: #d62728; stroke-width: 0.8"/>
      </g>
     </g>
     <g id="text_18">
      <!-- 0.60 -->
      <g style="fill: #d62728" transform="translate(453.745589 116.575604) scale(0.09 -0.09)">
       <defs>
        <path id="DejaVuSans-36" d="M 2113 2584 
Q 1688 2584 1439 2293 
Q 1191 2003 1191 1497 
Q 1191 994 1439 701 
Q 1688 409 2113 409 
Q 2538 409 2786 701 
Q 3034 994 3034 1497 
Q 3034 2003 2786 2293 
Q 2538 2584 2113 2584 
z
M 3366 4563 
L 3366 3988 
Q 3128 4100 2886 4159 
Q 2644 4219 2406 4219 
Q 1781 4219 1451 3797 
Q 1122 3375 1075 2522 
Q 1259 2794 1537 2939 
Q 1816 3084 2150 3084 
Q 2853 3084 3261 2657 
Q 3669 2231 3669 1497 
Q 3669 778 3244 343 
Q 2819 -91 2113 -91 
Q 1303 -91 875 529 
Q 447 1150 447 2328 
Q 447 3434 972 4092 
Q 1497 4750 2381 4750 
Q 2619 4750 2861 4703 
Q 3103 4656 3366 4563 
z
" transform="scale(0.015625)"/>
       </defs>
       <use xlink:href="#DejaVuSans-30"/>
       <use xlink:href="#DejaVuSans-2e" transform="translate(63.623047 0)"/>
       <use xlink:href="#DejaVuSans-36" transform="translate(95.410156 0)"/>
       <use xlink:href="#DejaVuSans-30" transform="translate(159.033203 0)"/>
      </g>
     </g>
    </g>
    <g id="ytick_15">
     <g id="line2d_26">
      <g>
       <use xlink:href="#m8a6d753e67" x="446.745589" y="73.67267" style="fill: #d62728; stroke: #d62728; stroke-width: 0.8"/>
      </g>
     </g>
     <g id="text_19">
      <!-- 0.80 -->
      <g style="fill: #d62728" transform="translate(453.745589 77.091967) scale(0.09 -0.09)">
       <defs>
        <path id="DejaVuSans-38" d="M 2034 2216 
Q 1584 2216 1326 1975 
Q 1069 1734 1069 1313 
Q 1069 891 1326 650 
Q 1584 409 2034 409 
Q 2484 409 2743 651 
Q 3003 894 3003 1313 
Q 3003 1734 2745 1975 
Q 2488 2216 2034 2216 
z
M 1403 2484 
Q 997 2584 770 2862 
Q 544 3141 544 3541 
Q 544 4100 942 4425 
Q 1341 4750 2034 4750 
Q 2731 4750 3128 4425 
Q 3525 4100 3525 3541 
Q 3525 3141 3298 2862 
Q 3072 2584 2669 2484 
Q 3125 2378 3379 2068 
Q 3634 1759 3634 1313 
Q 3634 634 3220 271 
Q 2806 -91 2034 -91 
Q 1263 -91 848 271 
Q 434 634 434 1313 
Q 434 1759 690 2068 
Q 947 2378 1403 2484 
z
M 1172 3481 
Q 1172 3119 1398 2916 
Q 1625 2713 2034 2713 
Q 2441 2713 2670 2916 
Q 2900 3119 2900 3481 
Q 2900 3844 2670 4047 
Q 2441 4250 2034 4250 
Q 1625 4250 1398 4047 
Q 1172 3844 1172 3481 
z
" transform="scale(0.015625)"/>
       </defs>
       <use xlink:href="#DejaVuSans-30"/>
       <use xlink:href="#DejaVuSans-2e" transform="translate(63.623047 0)"/>
       <use xlink:href="#DejaVuSans-38" transform="translate(95.410156 0)"/>
       <use xlink:href="#DejaVuSans-30" transform="translate(159.033203 0)"/>
      </g>
     </g>
    </g>
    <g id="ytick_16">
     <g id="line2d_27">
      <g>
       <use xlink:href="#m8a6d753e67" x="446.745589" y="34.189034" style="fill: #d62728; stroke: #d62728; stroke-width: 0.8"/>
      </g>
     </g>
     <g id="text_20">
      <!-- 1.00 -->
      <g style="fill: #d62728" transform="translate(453.745589 37.608331) scale(0.09 -0.09)">
       <use xlink:href="#DejaVuSans-31"/>
       <use xlink:href="#DejaVuSans-2e" transform="translate(63.623047 0)"/>
       <use xlink:href="#DejaVuSans-30" transform="translate(95.410156 0)"/>
       <use xlink:href="#DejaVuSans-30" transform="translate(159.033203 0)"/>
      </g>
     </g>
    </g>
    <g id="text_21">
     <!-- Learning rate (×10⁻³) -->
     <g style="fill: #d62728" transform="translate(486.142933 192.451953) rotate(-90) scale(0.11 -0.11)">
      <use xlink:href="#DejaVuSans-4c"/>
      <use xlink:href="#DejaVuSans-65" transform="translate(53.962891 0)"/>
      <use xlink:href="#DejaVuSans-61" transform="translate(115.486328 0)"/>
      <use xlink:href="#DejaVuSans-72" transform="translate(176.765625 0)"/>
      <use xlink:href="#DejaVuSans-6e" transform="translate(216.128906 0)"/>
      <use xlink:href="#DejaVuSans-69" transform="translate(279.507812 0)"/>
      <use xlink:href="#DejaVuSans-6e" transform="translate(307.291016 0)"/>
      <use xlink:href="#DejaVuSans-67" transform="translate(370.669922 0)"/>
      <use xlink:href="#DejaVuSans-20" transform="translate(434.146484 0)"/>
      <use xlink:href="#DejaVuSans-72" transform="translate(465.933594 0)"/>
      <use xlink:href="#DejaVuSans-61" transform="translate(507.046875 0)"/>
      <use xlink:href="#DejaVuSans-74" transform="translate(568.326172 0)"/>
      <use xlink:href="#DejaVuSans-65" transform="translate(607.535156 0)"/>
      <use xlink:href="#DejaVuSans-20" transform="translate(669.058594 0)"/>
      <use xlink:href="#DejaVuSans-28" transform="translate(700.845703 0)"/>
      <use xlink:href="#DejaVuSans-d7" transform="translate(739.859375 0)"/>
      <use xlink:href="#DejaVuSans-31" transform="translate(823.648438 0)"/>
      <use xlink:href="#DejaVuSans-30" transform="translate(887.271484 0)"/>
      <use xlink:href="#DejaVuSans-207b" transform="translate(950.894531 0)"/>
      <use xlink:href="#DejaVuSans-b3" transform="translate(1003.677734 0)"/>
      <use xlink:href="#DejaVuSans-29" transform="translate(1043.765625 0)"/>
     </g>
    </g>
   </g>
   <g id="line2d_28">
    <path d="M 44.685938 34.189034 
L 48.726738 34.189034 
L 50.747138 34.386452 
L 52.767539 34.386452 
L 54.787939 34.58387 
L 56.808339 34.58387 
L 66.91034 35.570961 
L 68.930741 35.965798 
L 70.951141 36.163216 
L 85.093943 38.92707 
L 89.134743 40.11158 
L 91.155143 40.506416 
L 99.236744 42.875434 
L 101.257145 43.665107 
L 105.297945 44.849616 
L 121.461147 51.166998 
L 123.481548 52.154089 
L 125.501948 52.943761 
L 139.64475 59.853398 
L 141.66515 61.037907 
L 145.70595 63.012089 
L 149.746751 65.381107 
L 151.767151 66.368198 
L 159.848752 71.106234 
L 161.869153 72.488161 
L 167.930353 76.041689 
L 169.950754 77.423616 
L 171.971154 78.608125 
L 176.011954 81.37198 
L 178.032355 82.556489 
L 194.195557 93.611907 
L 196.215957 95.191252 
L 200.256757 97.955107 
L 202.277158 99.534452 
L 206.317958 102.298307 
L 210.358759 105.456998 
L 212.379159 106.838925 
L 214.399559 108.41827 
L 216.41996 109.800198 
L 220.46076 112.958889 
L 222.48116 114.340816 
L 228.542361 119.078852 
L 230.562761 120.46078 
L 238.644362 126.778161 
L 240.664763 128.160089 
L 252.787164 137.636161 
L 254.807564 139.018089 
L 262.889165 145.33547 
L 264.909566 146.717398 
L 270.970767 151.455434 
L 272.991167 152.837361 
L 277.031967 155.996052 
L 279.052368 157.37798 
L 281.072768 158.957325 
L 283.093168 160.339252 
L 287.133969 163.497943 
L 291.174769 166.261798 
L 293.195169 167.841143 
L 297.23597 170.604998 
L 299.25637 172.184343 
L 315.419572 183.239761 
L 317.439972 184.42427 
L 321.480773 187.188125 
L 323.501173 188.372634 
L 325.521574 189.754561 
L 331.582774 193.308089 
L 333.603175 194.690016 
L 341.684776 199.428052 
L 343.705176 200.415143 
L 347.745976 202.784161 
L 351.786777 204.758343 
L 353.807177 205.942852 
L 367.949979 212.852489 
L 369.970379 213.642161 
L 371.990779 214.629252 
L 388.153982 220.946634 
L 392.194782 222.131143 
L 394.215182 222.920816 
L 402.296783 225.289834 
L 404.317184 225.68467 
L 408.357984 226.86918 
L 422.500786 229.633034 
L 424.521186 229.830452 
L 426.541586 230.225289 
L 436.643588 231.21238 
L 438.663988 231.21238 
L 440.684388 231.409798 
L 442.704789 231.409798 
L 444.725189 231.607216 
L 446.745589 231.607216 
L 446.745589 231.607216 
" clip-path="url(#p6f483e01a7)" style="fill: none; stroke-dasharray: 5.92,2.56; stroke-dashoffset: 0; stroke: #d62728; stroke-width: 1.6"/>
   </g>
   <g id="patch_7">
    <path d="M 446.745589 241.478125 
L 446.745589 24.318125 
" style="fill: none; stroke: #d62728; stroke-width: 0.8; stroke-linejoin: miter; stroke-linecap: square"/>
   </g>
   <g id="patch_8">
    <path d="M 44.685938 241.478125 
L 446.745589 241.478125 
" style="fill: none; stroke: #000000; stroke-width: 0.8; stroke-linejoin: miter; stroke-linecap: square"/>
   </g>
   <g id="patch_9">
    <path d="M 44.685938 24.318125 
L 446.745589 24.318125 
" style="fill: none; stroke: #000000; stroke-width: 0.8; stroke-linejoin: miter; stroke-linecap: square"/>
   </g>
  </g>
 </g>
 <defs>
  <clipPath id="p6f483e01a7">
   <rect x="44.685938" y="24.318125" width="402.059652" height="217.16"/>
  </clipPath>
 </defs>
</svg>
