<?xml version="1.0" encoding="utf-8" standalone="no"?>
<!DOCTYPE svg PUBLIC "-//W3C//DTD SVG 1.1//EN"
  "http://www.w3.org/Graphics/SVG/1.1/DTD/svg11.dtd">
<svg xmlns:xlink="http://www.w3.org/1999/xlink" width="241.2pt" height="194.4pt" viewBox="0 0 241.2 194.4" xmlns="http://www.w3.org/2000/svg" version="1.1">
 <metadata>
  <rdf:RDF xmlns:dc="http://purl.org/dc/elements/1.1/" xmlns:cc="http://creativecommons.org/ns#" xmlns:rdf="http://www.w3.org/1999/02/22-rdf-syntax-ns#">
   <cc:Work>
    <dc:type rdf:resource="http://purl.org/dc/dcmitype/StillImage"/>
    <dc:date>2026-05-16T19:54:22.627038</dc:date>
    <dc:format>image/svg+xml</dc:format>
    <dc:creator>
     <cc:Agent>
      <dc:title>Matplotlib v3.10.8, https://matplotlib.org/</dc:title>
     </cc:Agent>
    </dc:creator>
   </cc:Work>
  </rdf:RDF>
 </metadata>
 <defs>
  <style type="text/css">*{stroke-linejoin: round; stroke-linecap: butt}</style>
 </defs>
 <g id="figure_1">
  <g id="patch_1">
   <path d="M 0 194.4
L 241.2 194.4
L 241.2 0
L 0 0
z
" style="fill: #ffffff"/>
  </g>
  <g id="axes_1">
   <g id="patch_2">
    <path d="M 47.72 166.52
L 230.4 166.52
L 230.4 26.88
L 47.72 26.88
z
" style="fill: #ffffff"/>
   </g>
   <g id="patch_3">
    <path d="M 57.193163 166.52
L 68.888425 166.52
L 68.888425 44.670136
L 57.193163 44.670136
z
" clip-path="url(#pb2c21918ce)" style="fill: #1f77b4"/>
   </g>
   <g id="patch_4">
    <path d="M 115.669475 166.52
L 127.364738 166.52
L 127.364738 55.422416
L 115.669475 55.422416
z
" clip-path="url(#pb2c21918ce)" style="fill: #1f77b4"/>
   </g>
   <g id="patch_5">
    <path d="M 174.145787 166.52
L 185.84105 166.52
L 185.84105 38.944896
L 174.145787 38.944896
z
" clip-path="url(#pb2c21918ce)" style="fill: #1f77b4"/>
   </g>
   <g id="patch_6">
    <path d="M 68.888425 166.52
L 80.583688 166.52
L 80.583688 48.831408
L 68.888425 48.831408
z
" clip-path="url(#pb2c21918ce)" style="fill: #ff7f0e"/>
   </g>
   <g id="patch_7">
    <path d="M 127.364738 166.52
L 139.06 166.52
L 139.06 59.248552
L 127.364738 59.248552
z
" clip-path="url(#pb2c21918ce)" style="fill: #ff7f0e"/>
   </g>
   <g id="patch_8">
    <path d="M 185.84105 166.52
L 197.536312 166.52
L 197.536312 43.21788
L 185.84105 43.21788
z
" clip-path="url(#pb2c21918ce)" style="fill: #ff7f0e"/>
   </g>
   <g id="patch_9">
    <path d="M 80.583688 166.52
L 92.27895 166.52
L 92.27895 47.630504
L 80.583688 47.630504
z
" clip-path="url(#pb2c21918ce)" style="fill: #2ca02c"/>
   </g>
   <g id="patch_10">
    <path d="M 139.06 166.52
L 150.755262 166.52
L 150.755262 57.88008
L 139.06 57.88008
z
" clip-path="url(#pb2c21918ce)" style="fill: #2ca02c"/>
   </g>
   <g id="patch_11">
    <path d="M 197.536312 166.52
L 209.231575 166.52
L 209.231575 41.96112
L 197.536312 41.96112
z
" clip-path="url(#pb2c21918ce)" style="fill: #2ca02c"/>
   </g>
   <g id="patch_12">
    <path d="M 92.27895 166.52
L 103.974213 166.52
L 103.974213 55.673768
L 92.27895 55.673768
z
" clip-path="url(#pb2c21918ce)" style="fill: #d62728"/>
   </g>
   <g id="patch_13">
    <path d="M 150.755262 166.52
L 162.450525 166.52
L 162.450525 66.900824
L 150.755262 66.900824
z
" clip-path="url(#pb2c21918ce)" style="fill: #d62728"/>
   </g>
   <g id="patch_14">
    <path d="M 209.231575 166.52
L 220.926837 166.52
L 220.926837 49.948528
L 209.231575 49.948528
z
" clip-path="url(#pb2c21918ce)" style="fill: #d62728"/>
   </g>
   <g id="matplotlib.axis_1">
    <g id="xtick_1">
     <g id="line2d_1">
      <defs>
       <path id="mdeab938b7c" d="M 0 0
L 0 3.5
" style="stroke: #000000; stroke-width: 0.8"/>
      </defs>
      <g>
       <use xlink:href="#mdeab938b7c" x="80.583688" y="166.52" style="stroke: #000000; stroke-width: 0.8"/>
      </g>
     </g>
     <g id="text_1">
      <!-- Dataset-1 -->
      <g transform="translate(56.018844 181.118437) scale(0.1 -0.1)">
       <defs>
        <path id="DejaVuSans-44" d="M 1259 4147
L 1259 519
L 2022 519
Q 2988 519 3436 956
Q 3884 1394 3884 2338
Q 3884 3275 3436 3711
Q 2988 4147 2022 4147
L 1259 4147
z
M 628 4666
L 1925 4666
Q 3281 4666 3915 4102
Q 4550 3538 4550 2338
Q 4550 1131 3912 565
Q 3275 0 1925 0
L 628 0
L 628 4666
z
" transform="scale(0.015625)"/>
        <path id="DejaVuSans-61" d="M 2194 1759
Q 1497 1759 1228 1600
Q 959 1441 959 1056
Q 959 750 1161 570
Q 1363 391 1709 391
Q 2188 391 2477 730
Q 2766 1069 2766 1631
L 2766 1759
L 2194 1759
z
M 3341 1997
L 3341 0
L 2766 0
L 2766 531
Q 2569 213 2275 61
Q 1981 -91 1556 -91
Q 1019 -91 701 211
Q 384 513 384 1019
Q 384 1609 779 1909
Q 1175 2209 1959 2209
L 2766 2209
L 2766 2266
Q 2766 2663 2505 2880
Q 2244 3097 1772 3097
Q 1472 3097 1187 3025
Q 903 2953 641 2809
L 641 3341
Q 956 3463 1253 3523
Q 1550 3584 1831 3584
Q 2591 3584 2966 3190
Q 3341 2797 3341 1997
z
" transform="scale(0.015625)"/>
        <path id="DejaVuSans-74" d="M 1172 4494
L 1172 3500
L 2356 3500
L 2356 3053
L 1172 3053
L 1172 1153
Q 1172 725 1289 603
Q 1406 481 1766 481
L 2356 481
L 2356 0
L 1766 0
Q 1100 0 847 248
Q 594 497 594 1153
L 594 3053
L 172 3053
L 172 3500
L 594 3500
L 594 4494
L 1172 4494
z
" transform="scale(0.015625)"/>
        <path id="DejaVuSans-73" d="M 2834 3397
L 2834 2853
Q 2591 2978 2328 3040
Q 2066 3103 1784 3103
Q 1356 3103 1142 2972
Q 928 2841 928 2578
Q 928 2378 1081 2264
Q 1234 2150 1697 2047
L 1894 2003
Q 2506 1872 2764 1633
Q 3022 1394 3022 966
Q 3022 478 2636 193
Q 2250 -91 1575 -91
Q 1294 -91 989 -36
Q 684 19 347 128
L 347 722
Q 666 556 975 473
Q 1284 391 1588 391
Q 1994 391 2212 530
Q 2431 669 2431 922
Q 2431 1156 2273 1281
Q 2116 1406 1581 1522
L 1381 1569
Q 847 1681 609 1914
Q 372 2147 372 2553
Q 372 3047 722 3315
Q 1072 3584 1716 3584
Q 2034 3584 2315 3537
Q 2597 3491 2834 3397
z
" transform="scale(0.015625)"/>
        <path id="DejaVuSans-65" d="M 3597 1894
L 3597 1613
L 953 1613
Q 991 1019 1311 708
Q 1631 397 2203 397
Q 2534 397 2845 478
Q 3156 559 3463 722
L 3463 178
Q 3153 47 2828 -22
Q 2503 -91 2169 -91
Q 1331 -91 842 396
Q 353 884 353 1716
Q 353 2575 817 3079
Q 1281 3584 2069 3584
Q 2775 3584 3186 3129
Q 3597 2675 3597 1894
z
M 3022 2063
Q 3016 2534 2758 2815
Q 2500 3097 2075 3097
Q 1594 3097 1305 2825
Q 1016 2553 972 2059
L 3022 2063
z
" transform="scale(0.015625)"/>
        <path id="DejaVuSans-2d" d="M 313 2009
L 1997 2009
L 1997 1497
L 313 1497
L 313 2009
z
" transform="scale(0.015625)"/>
        <path id="DejaVuSans-31" d="M 794 531
L 1825 531
L 1825 4091
L 703 3866
L 703 4441
L 1819 4666
L 2450 4666
L 2450 531
L 3481 531
L 3481 0
L 794 0
L 794 531
z
" transform="scale(0.015625)"/>
       </defs>
       <use xlink:href="#DejaVuSans-44"/>
       <use xlink:href="#DejaVuSans-61" transform="translate(77.001953 0)"/>
       <use xlink:href="#DejaVuSans-74" transform="translate(138.28125 0)"/>
       <use xlink:href="#DejaVuSans-61" transform="translate(177.490234 0)"/>
       <use xlink:href="#DejaVuSans-73" transform="translate(238.769531 0)"/>
       <use xlink:href="#DejaVuSans-65" transform="translate(290.869141 0)"/>
       <use xlink:href="#DejaVuSans-74" transform="translate(352.392578 0)"/>
       <use xlink:href="#DejaVuSans-2d" transform="translate(391.601562 0)"/>
       <use xlink:href="#DejaVuSans-31" transform="translate(427.685547 0)"/>
      </g>
     </g>
    </g>
    <g id="xtick_2">
     <g id="line2d_2">
      <g>
       <use xlink:href="#mdeab938b7c" x="139.06" y="166.52" style="stroke: #000000; stroke-width: 0.8"/>
      </g>
     </g>
     <g id="text_2">
      <!-- Dataset-2 -->
      <g transform="translate(114.495156 181.118437) scale(0.1 -0.1)">
       <defs>
        <path id="DejaVuSans-32" d="M 1228 531
L 3431 531
L 3431 0
L 469 0
L 469 531
Q 828 903 1448 1529
Q 2069 2156 2228 2338
Q 2531 2678 2651 2914
Q 2772 3150 2772 3378
Q 2772 3750 2511 3984
Q 2250 4219 1831 4219
Q 1534 4219 1204 4116
Q 875 4013 500 3803
L 500 4441
Q 881 4594 1212 4672
Q 1544 4750 1819 4750
Q 2544 4750 2975 4387
Q 3406 4025 3406 3419
Q 3406 3131 3298 2873
Q 3191 2616 2906 2266
Q 2828 2175 2409 1742
Q 1991 1309 1228 531
z
" transform="scale(0.015625)"/>
       </defs>
       <use xlink:href="#DejaVuSans-44"/>
       <use xlink:href="#DejaVuSans-61" transform="translate(77.001953 0)"/>
       <use xlink:href="#DejaVuSans-74" transform="translate(138.28125 0)"/>
       <use xlink:href="#DejaVuSans-61" transform="translate(177.490234 0)"/>
       <use xlink:href="#DejaVuSans-73" transform="translate(238.769531 0)"/>
       <use xlink:href="#DejaVuSans-65" transform="translate(290.869141 0)"/>
       <use xlink:href="#DejaVuSans-74" transform="translate(352.392578 0)"/>
       <use xlink:href="#DejaVuSans-2d" transform="translate(391.601562 0)"/>
       <use xlink:href="#DejaVuSans-32" transform="translate(427.685547 0)"/>
      </g>
     </g>
    </g>
    <g id="xtick_3">
     <g id="line2d_3">
      <g>
       <use xlink:href="#mdeab938b7c" x="197.536312" y="166.52" style="stroke: #000000; stroke-width: 0.8"/>
      </g>
     </g>
     <g id="text_3">
      <!-- Dataset-3 -->
      <g transform="translate(172.971469 181.118437) scale(0.1 -0.1)">
       <defs>
        <path id="DejaVuSans-33" d="M 2597 2516
Q 3050 2419 3304 2112
Q 3559 1806 3559 1356
Q 3559 666 3084 287
Q 2609 -91 1734 -91
Q 1441 -91 1130 -33
Q 819 25 488 141
L 488 750
Q 750 597 1062 519
Q 1375 441 1716 441
Q 2309 441 2620 675
Q 2931 909 2931 1356
Q 2931 1769 2642 2001
Q 2353 2234 1838 2234
L 1294 2234
L 1294 2753
L 1863 2753
Q 2328 2753 2575 2939
Q 2822 3125 2822 3475
Q 2822 3834 2567 4026
Q 2313 4219 1838 4219
Q 1578 4219 1281 4162
Q 984 4106 628 3988
L 628 4550
Q 988 4650 1302 4700
Q 1616 4750 1894 4750
Q 2613 4750 3031 4423
Q 3450 4097 3450 3541
Q 3450 3153 3228 2886
Q 3006 2619 2597 2516
z
" transform="scale(0.015625)"/>
       </defs>
       <use xlink:href="#DejaVuSans-44"/>
       <use xlink:href="#DejaVuSans-61" transform="translate(77.001953 0)"/>
       <use xlink:href="#DejaVuSans-74" transform="translate(138.28125 0)"/>
       <use xlink:href="#DejaVuSans-61" transform="translate(177.490234 0)"/>
       <use xlink:href="#DejaVuSans-73" transform="translate(238.769531 0)"/>
       <use xlink:href="#DejaVuSans-65" transform="translate(290.869141 0)"/>
       <use xlink:href="#DejaVuSans-74" transform="translate(352.392578 0)"/>
       <use xlink:href="#DejaVuSans-2d" transform="translate(391.601562 0)"/>
       <use xlink:href="#DejaVuSans-33" transform="translate(427.685547 0)"/>
      </g>
     </g>
    </g>
   </g>
   <g id="matplotlib.axis_2">
    <g id="ytick_1">
     <g id="line2d_4">
      <defs>
       <path id="m72e720453b" d="M 0 0
L -3.5 0
" style="stroke: #000000; stroke-width: 0.8"/>
      </defs>
      <g>
       <use xlink:href="#m72e720453b" x="47.72" y="166.52" style="stroke: #000000; stroke-width: 0.8"/>
      </g>
     </g>
     <g id="text_4">
      <!-- 0.0 -->
      <g transform="translate(24.816875 170.319219) scale(0.1 -0.1)">
       <defs>
        <path id="DejaVuSans-30" d="M 2034 4250
Q 1547 4250 1301 3770
Q 1056 3291 1056 2328
Q 1056 1369 1301 889
Q 1547 409 2034 409
Q 2525 409 2770 889
Q 3016 1369 3016 2328
Q 3016 3291 2770 3770
Q 2525 4250 2034 4250
z
M 2034 4750
Q 2819 4750 3233 4129
Q 3647 3509 3647 2328
Q 3647 1150 3233 529
Q 2819 -91 2034 -91
Q 1250 -91 836 529
Q 422 1150 422 2328
Q 422 3509 836 4129
Q 1250 4750 2034 4750
z
" transform="scale(0.015625)"/>
        <path id="DejaVuSans-2e" d="M 684 794
L 1344 794
L 1344 0
L 684 0
L 684 794
z
" transform="scale(0.015625)"/>
       </defs>
       <use xlink:href="#DejaVuSans-30"/>
       <use xlink:href="#DejaVuSans-2e" transform="translate(63.623047 0)"/>
       <use xlink:href="#DejaVuSans-30" transform="translate(95.410156 0)"/>
      </g>
     </g>
    </g>
    <g id="ytick_2">
     <g id="line2d_5">
      <g>
       <use xlink:href="#m72e720453b" x="47.72" y="138.592" style="stroke: #000000; stroke-width: 0.8"/>
      </g>
     </g>
     <g id="text_5">
      <!-- 0.2 -->
      <g transform="translate(24.816875 142.391219) scale(0.1 -0.1)">
       <use xlink:href="#DejaVuSans-30"/>
       <use xlink:href="#DejaVuSans-2e" transform="translate(63.623047 0)"/>
       <use xlink:href="#DejaVuSans-32" transform="translate(95.410156 0)"/>
      </g>
     </g>
    </g>
    <g id="ytick_3">
     <g id="line2d_6">
      <g>
       <use xlink:href="#m72e720453b" x="47.72" y="110.664" style="stroke: #000000; stroke-width: 0.8"/>
      </g>
     </g>
     <g id="text_6">
      <!-- 0.4 -->
      <g transform="translate(24.816875 114.463219) scale(0.1 -0.1)">
       <defs>
        <path id="DejaVuSans-34" d="M 2419 4116
L 825 1625
L 2419 1625
L 2419 4116
z
M 2253 4666
L 3047 4666
L 3047 1625
L 3713 1625
L 3713 1100
L 3047 1100
L 3047 0
L 2419 0
L 2419 1100
L 313 1100
L 313 1709
L 2253 4666
z
" transform="scale(0.015625)"/>
       </defs>
       <use xlink:href="#DejaVuSans-30"/>
       <use xlink:href="#DejaVuSans-2e" transform="translate(63.623047 0)"/>
       <use xlink:href="#DejaVuSans-34" transform="translate(95.410156 0)"/>
      </g>
     </g>
    </g>
    <g id="ytick_4">
     <g id="line2d_7">
      <g>
       <use xlink:href="#m72e720453b" x="47.72" y="82.736" style="stroke: #000000; stroke-width: 0.8"/>
      </g>
     </g>
     <g id="text_7">
      <!-- 0.6 -->
      <g transform="translate(24.816875 86.535219) scale(0.1 -0.1)">
       <defs>
        <path id="DejaVuSans-36" d="M 2113 2584
Q 1688 2584 1439 2293
Q 1191 2003 1191 1497
Q 1191 994 1439 701
Q 1688 409 2113 409
Q 2538 409 2786 701
Q 3034 994 3034 1497
Q 3034 2003 2786 2293
Q 2538 2584 2113 2584
z
M 3366 4563
L 3366 3988
Q 3128 4100 2886 4159
Q 2644 4219 2406 4219
Q 1781 4219 1451 3797
Q 1122 3375 1075 2522
Q 1259 2794 1537 2939
Q 1816 3084 2150 3084
Q 2853 3084 3261 2657
Q 3669 2231 3669 1497
Q 3669 778 3244 343
Q 2819 -91 2113 -91
Q 1303 -91 875 529
Q 447 1150 447 2328
Q 447 3434 972 4092
Q 1497 4750 2381 4750
Q 2619 4750 2861 4703
Q 3103 4656 3366 4563
z
" transform="scale(0.015625)"/>
       </defs>
       <use xlink:href="#DejaVuSans-30"/>
       <use xlink:href="#DejaVuSans-2e" transform="translate(63.623047 0)"/>
       <use xlink:href="#DejaVuSans-36" transform="translate(95.410156 0)"/>
      </g>
     </g>
    </g>
    <g id="ytick_5">
     <g id="line2d_8">
      <g>
       <use xlink:href="#m72e720453b" x="47.72" y="54.808" style="stroke: #000000; stroke-width: 0.8"/>
      </g>
     </g>
     <g id="text_8">
      <!-- 0.8 -->
      <g transform="translate(24.816875 58.607219) scale(0.1 -0.1)">
       <defs>
        <path id="DejaVuSans-38" d="M 2034 2216
Q 1584 2216 1326 1975
Q 1069 1734 1069 1313
Q 1069 891 1326 650
Q 1584 409 2034 409
Q 2484 409 2743 651
Q 3003 894 3003 1313
Q 3003 1734 2745 1975
Q 2488 2216 2034 2216
z
M 1403 2484
Q 997 2584 770 2862
Q 544 3141 544 3541
Q 544 4100 942 4425
Q 1341 4750 2034 4750
Q 2731 4750 3128 4425
Q 3525 4100 3525 3541
Q 3525 3141 3298 2862
Q 3072 2584 2669 2484
Q 3125 2378 3379 2068
Q 3634 1759 3634 1313
Q 3634 634 3220 271
Q 2806 -91 2034 -91
Q 1263 -91 848 271
Q 434 634 434 1313
Q 434 1759 690 2068
Q 947 2378 1403 2484
z
M 1172 3481
Q 1172 3119 1398 2916
Q 1625 2713 2034 2713
Q 2441 2713 2670 2916
Q 2900 3119 2900 3481
Q 2900 3844 2670 4047
Q 2441 4250 2034 4250
Q 1625 4250 1398 4047
Q 1172 3844 1172 3481
z
" transform="scale(0.015625)"/>
       </defs>
       <use xlink:href="#DejaVuSans-30"/>
       <use xlink:href="#DejaVuSans-2e" transform="translate(63.623047 0)"/>
       <use xlink:href="#DejaVuSans-38" transform="translate(95.410156 0)"/>
      </g>
     </g>
    </g>
    <g id="ytick_6">
     <g id="line2d_9">
      <g>
       <use xlink:href="#m72e720453b" x="47.72" y="26.88" style="stroke: #000000; stroke-width: 0.8"/>
      </g>
     </g>
     <g id="text_9">
      <!-- 1.0 -->
      <g transform="translate(24.816875 30.679219) scale(0.1 -0.1)">
       <use xlink:href="#DejaVuSans-31"/>
       <use xlink:href="#DejaVuSans-2e" transform="translate(63.623047 0)"/>
       <use xlink:href="#DejaVuSans-30" transform="translate(95.410156 0)"/>
      </g>
     </g>
    </g>
    <g id="text_10">
     <!-- Accuracy -->
     <g transform="translate(18.737188 119.528125) rotate(-90) scale(0.1 -0.1)">
      <defs>
       <path id="DejaVuSans-41" d="M 2188 4044
L 1331 1722
L 3047 1722
L 2188 4044
z
M 1831 4666
L 2547 4666
L 4325 0
L 3669 0
L 3244 1197
L 1141 1197
L 716 0
L 50 0
L 1831 4666
z
" transform="scale(0.015625)"/>
       <path id="DejaVuSans-63" d="M 3122 3366
L 3122 2828
Q 2878 2963 2633 3030
Q 2388 3097 2138 3097
Q 1578 3097 1268 2742
Q 959 2388 959 1747
Q 959 1106 1268 751
Q 1578 397 2138 397
Q 2388 397 2633 464
Q 2878 531 3122 666
L 3122 134
Q 2881 22 2623 -34
Q 2366 -91 2075 -91
Q 1284 -91 818 406
Q 353 903 353 1747
Q 353 2603 823 3093
Q 1294 3584 2113 3584
Q 2378 3584 2631 3529
Q 2884 3475 3122 3366
z
" transform="scale(0.015625)"/>
       <path id="DejaVuSans-75" d="M 544 1381
L 544 3500
L 1119 3500
L 1119 1403
Q 1119 906 1312 657
Q 1506 409 1894 409
Q 2359 409 2629 706
Q 2900 1003 2900 1516
L 2900 3500
L 3475 3500
L 3475 0
L 2900 0
L 2900 538
Q 2691 219 2414 64
Q 2138 -91 1772 -91
Q 1169 -91 856 284
Q 544 659 544 1381
z
M 1991 3584
L 1991 3584
z
" transform="scale(0.015625)"/>
       <path id="DejaVuSans-72" d="M 2631 2963
Q 2534 3019 2420 3045
Q 2306 3072 2169 3072
Q 1681 3072 1420 2755
Q 1159 2438 1159 1844
L 1159 0
L 581 0
L 581 3500
L 1159 3500
L 1159 2956
Q 1341 3275 1631 3429
Q 1922 3584 2338 3584
Q 2397 3584 2469 3576
Q 2541 3569 2628 3553
L 2631 2963
z
" transform="scale(0.015625)"/>
       <path id="DejaVuSans-79" d="M 2059 -325
Q 1816 -950 1584 -1140
Q 1353 -1331 966 -1331
L 506 -1331
L 506 -850
L 844 -850
Q 1081 -850 1212 -737
Q 1344 -625 1503 -206
L 1606 56
L 191 3500
L 800 3500
L 1894 763
L 2988 3500
L 3597 3500
L 2059 -325
z
" transform="scale(0.015625)"/>
      </defs>
      <use xlink:href="#DejaVuSans-41"/>
      <use xlink:href="#DejaVuSans-63" transform="translate(66.658203 0)"/>
      <use xlink:href="#DejaVuSans-63" transform="translate(121.638672 0)"/>
      <use xlink:href="#DejaVuSans-75" transform="translate(176.619141 0)"/>
      <use xlink:href="#DejaVuSans-72" transform="translate(239.998047 0)"/>
      <use xlink:href="#DejaVuSans-61" transform="translate(281.111328 0)"/>
      <use xlink:href="#DejaVuSans-63" transform="translate(342.390625 0)"/>
      <use xlink:href="#DejaVuSans-79" transform="translate(397.371094 0)"/>
     </g>
    </g>
   </g>
   <g id="LineCollection_1">
    <path d="M 63.040794 45.562085
L 63.040794 43.778187
" clip-path="url(#pb2c21918ce)" style="fill: none; stroke: #000000; stroke-width: 1.5"/>
    <path d="M 121.517106 56.165269
L 121.517106 54.679563
" clip-path="url(#pb2c21918ce)" style="fill: none; stroke: #000000; stroke-width: 1.5"/>
    <path d="M 179.993419 39.687749
L 179.993419 38.202043
" clip-path="url(#pb2c21918ce)" style="fill: none; stroke: #000000; stroke-width: 1.5"/>
   </g>
   <g id="line2d_10">
    <defs>
     <path id="m8f29b7cd1e" d="M 3 0
L -3 -0
" style="stroke: #000000"/>
    </defs>
    <g clip-path="url(#pb2c21918ce)">
     <use xlink:href="#m8f29b7cd1e" x="63.040794" y="45.562085" style="fill: #1f77b4; stroke: #000000"/>
     <use xlink:href="#m8f29b7cd1e" x="121.517106" y="56.165269" style="fill: #1f77b4; stroke: #000000"/>
     <use xlink:href="#m8f29b7cd1e" x="179.993419" y="39.687749" style="fill: #1f77b4; stroke: #000000"/>
    </g>
   </g>
   <g id="line2d_11">
    <g clip-path="url(#pb2c21918ce)">
     <use xlink:href="#m8f29b7cd1e" x="63.040794" y="43.778187" style="fill: #1f77b4; stroke: #000000"/>
     <use xlink:href="#m8f29b7cd1e" x="121.517106" y="54.679563" style="fill: #1f77b4; stroke: #000000"/>
     <use xlink:href="#m8f29b7cd1e" x="179.993419" y="38.202043" style="fill: #1f77b4; stroke: #000000"/>
    </g>
   </g>
   <g id="LineCollection_2">
    <path d="M 74.736056 49.677354
L 74.736056 47.985462
" clip-path="url(#pb2c21918ce)" style="fill: none; stroke: #000000; stroke-width: 1.5"/>
    <path d="M 133.212369 59.921147
L 133.212369 58.575957
" clip-path="url(#pb2c21918ce)" style="fill: none; stroke: #000000; stroke-width: 1.5"/>
    <path d="M 191.688681 43.956785
L 191.688681 42.478975
" clip-path="url(#pb2c21918ce)" style="fill: none; stroke: #000000; stroke-width: 1.5"/>
   </g>
   <g id="line2d_12">
    <g clip-path="url(#pb2c21918ce)">
     <use xlink:href="#m8f29b7cd1e" x="74.736056" y="49.677354" style="fill: #1f77b4; stroke: #000000"/>
     <use xlink:href="#m8f29b7cd1e" x="133.212369" y="59.921147" style="fill: #1f77b4; stroke: #000000"/>
     <use xlink:href="#m8f29b7cd1e" x="191.688681" y="43.956785" style="fill: #1f77b4; stroke: #000000"/>
    </g>
   </g>
   <g id="line2d_13">
    <g clip-path="url(#pb2c21918ce)">
     <use xlink:href="#m8f29b7cd1e" x="74.736056" y="47.985462" style="fill: #1f77b4; stroke: #000000"/>
     <use xlink:href="#m8f29b7cd1e" x="133.212369" y="58.575957" style="fill: #1f77b4; stroke: #000000"/>
     <use xlink:href="#m8f29b7cd1e" x="191.688681" y="42.478975" style="fill: #1f77b4; stroke: #000000"/>
    </g>
   </g>
   <g id="LineCollection_3">
    <path d="M 86.431319 48.259659
L 86.431319 47.001349
" clip-path="url(#pb2c21918ce)" style="fill: none; stroke: #000000; stroke-width: 1.5"/>
    <path d="M 144.907631 58.504569
L 144.907631 57.255591
" clip-path="url(#pb2c21918ce)" style="fill: none; stroke: #000000; stroke-width: 1.5"/>
    <path d="M 203.383944 42.585609
L 203.383944 41.336631
" clip-path="url(#pb2c21918ce)" style="fill: none; stroke: #000000; stroke-width: 1.5"/>
   </g>
   <g id="line2d_14">
    <g clip-path="url(#pb2c21918ce)">
     <use xlink:href="#m8f29b7cd1e" x="86.431319" y="48.259659" style="fill: #1f77b4; stroke: #000000"/>
     <use xlink:href="#m8f29b7cd1e" x="144.907631" y="58.504569" style="fill: #1f77b4; stroke: #000000"/>
     <use xlink:href="#m8f29b7cd1e" x="203.383944" y="42.585609" style="fill: #1f77b4; stroke: #000000"/>
    </g>
   </g>
   <g id="line2d_15">
    <g clip-path="url(#pb2c21918ce)">
     <use xlink:href="#m8f29b7cd1e" x="86.431319" y="47.001349" style="fill: #1f77b4; stroke: #000000"/>
     <use xlink:href="#m8f29b7cd1e" x="144.907631" y="57.255591" style="fill: #1f77b4; stroke: #000000"/>
     <use xlink:href="#m8f29b7cd1e" x="203.383944" y="41.336631" style="fill: #1f77b4; stroke: #000000"/>
    </g>
   </g>
   <g id="LineCollection_4">
    <path d="M 98.126581 56.701807
L 98.126581 54.645729
" clip-path="url(#pb2c21918ce)" style="fill: none; stroke: #000000; stroke-width: 1.5"/>
    <path d="M 156.602894 67.770637
L 156.602894 66.031011
" clip-path="url(#pb2c21918ce)" style="fill: none; stroke: #000000; stroke-width: 1.5"/>
    <path d="M 215.079206 50.703101
L 215.079206 49.193955
" clip-path="url(#pb2c21918ce)" style="fill: none; stroke: #000000; stroke-width: 1.5"/>
   </g>
   <g id="line2d_16">
    <g clip-path="url(#pb2c21918ce)">
     <use xlink:href="#m8f29b7cd1e" x="98.126581" y="56.701807" style="fill: #1f77b4; stroke: #000000"/>
     <use xlink:href="#m8f29b7cd1e" x="156.602894" y="67.770637" style="fill: #1f77b4; stroke: #000000"/>
     <use xlink:href="#m8f29b7cd1e" x="215.079206" y="50.703101" style="fill: #1f77b4; stroke: #000000"/>
    </g>
   </g>
   <g id="line2d_17">
    <g clip-path="url(#pb2c21918ce)">
     <use xlink:href="#m8f29b7cd1e" x="98.126581" y="54.645729" style="fill: #1f77b4; stroke: #000000"/>
     <use xlink:href="#m8f29b7cd1e" x="156.602894" y="66.031011" style="fill: #1f77b4; stroke: #000000"/>
     <use xlink:href="#m8f29b7cd1e" x="215.079206" y="49.193955" style="fill: #1f77b4; stroke: #000000"/>
    </g>
   </g>
   <g id="LineCollection_5">
    <path d="M 56.023636 49.2224
L 105.143739 49.2224
" clip-path="url(#pb2c21918ce)" style="fill: none; stroke-dasharray: 5.55,2.4; stroke-dashoffset: 0; stroke: #000000; stroke-width: 1.5"/>
   </g>
   <g id="LineCollection_6">
    <path d="M 114.499949 60.11432
L 163.620051 60.11432
" clip-path="url(#pb2c21918ce)" style="fill: none; stroke-dasharray: 5.55,2.4; stroke-dashoffset: 0; stroke: #000000; stroke-width: 1.5"/>
   </g>
   <g id="LineCollection_7">
    <path d="M 172.976261 43.49716
L 222.096364 43.49716
" clip-path="url(#pb2c21918ce)" style="fill: none; stroke-dasharray: 5.55,2.4; stroke-dashoffset: 0; stroke: #000000; stroke-width: 1.5"/>
   </g>
   <g id="patch_15">
    <path d="M 47.72 166.52
L 47.72 26.88
" style="fill: none; stroke: #000000; stroke-width: 0.8; stroke-linejoin: miter; stroke-linecap: square"/>
   </g>
   <g id="patch_16">
    <path d="M 230.4 166.52
L 230.4 26.88
" style="fill: none; stroke: #000000; stroke-width: 0.8; stroke-linejoin: miter; stroke-linecap: square"/>
   </g>
   <g id="patch_17">
    <path d="M 47.72 166.52
L 230.4 166.52
" style="fill: none; stroke: #000000; stroke-width: 0.8; stroke-linejoin: miter; stroke-linecap: square"/>
   </g>
   <g id="patch_18">
    <path d="M 47.72 26.88
L 230.4 26.88
" style="fill: none; stroke: #000000; stroke-width: 0.8; stroke-linejoin: miter; stroke-linecap: square"/>
   </g>
   <g id="text_11">
    <!-- ** -->
    <g transform="translate(75.583688 38.2075) scale(0.1 -0.1)">
     <defs>
      <path id="DejaVuSans-2a" d="M 3009 3897
L 1888 3291
L 3009 2681
L 2828 2375
L 1778 3009
L 1778 1831
L 1422 1831
L 1422 3009
L 372 2375
L 191 2681
L 1313 3291
L 191 3897
L 372 4206
L 1422 3572
L 1422 4750
L 1778 4750
L 1778 3572
L 2828 4206
L 3009 3897
z
" transform="scale(0.015625)"/>
     </defs>
     <use xlink:href="#DejaVuSans-2a"/>
     <use xlink:href="#DejaVuSans-2a" transform="translate(50 0)"/>
    </g>
   </g>
   <g id="text_12">
    <!-- ** -->
    <g transform="translate(134.06 49.108875) scale(0.1 -0.1)">
     <use xlink:href="#DejaVuSans-2a"/>
     <use xlink:href="#DejaVuSans-2a" transform="translate(50 0)"/>
    </g>
   </g>
   <g id="text_13">
    <!-- ** -->
    <g transform="translate(192.536312 32.631355) scale(0.1 -0.1)">
     <use xlink:href="#DejaVuSans-2a"/>
     <use xlink:href="#DejaVuSans-2a" transform="translate(50 0)"/>
    </g>
   </g>
   <g id="text_14">
    <!-- Ablation accuracy -->
    <g transform="translate(85.331875 20.88) scale(0.12 -0.12)">
     <defs>
      <path id="DejaVuSans-62" d="M 3116 1747
Q 3116 2381 2855 2742
Q 2594 3103 2138 3103
Q 1681 3103 1420 2742
Q 1159 2381 1159 1747
Q 1159 1113 1420 752
Q 1681 391 2138 391
Q 2594 391 2855 752
Q 3116 1113 3116 1747
z
M 1159 2969
Q 1341 3281 1617 3432
Q 1894 3584 2278 3584
Q 2916 3584 3314 3078
Q 3713 2572 3713 1747
Q 3713 922 3314 415
Q 2916 -91 2278 -91
Q 1894 -91 1617 61
Q 1341 213 1159 525
L 1159 0
L 581 0
L 581 4863
L 1159 4863
L 1159 2969
z
" transform="scale(0.015625)"/>
      <path id="DejaVuSans-6c" d="M 603 4863
L 1178 4863
L 1178 0
L 603 0
L 603 4863
z
" transform="scale(0.015625)"/>
      <path id="DejaVuSans-69" d="M 603 3500
L 1178 3500
L 1178 0
L 603 0
L 603 3500
z
M 603 4863
L 1178 4863
L 1178 4134
L 603 4134
L 603 4863
z
" transform="scale(0.015625)"/>
      <path id="DejaVuSans-6f" d="M 1959 3097
Q 1497 3097 1228 2736
Q 959 2375 959 1747
Q 959 1119 1226 758
Q 1494 397 1959 397
Q 2419 397 2687 759
Q 2956 1122 2956 1747
Q 2956 2369 2687 2733
Q 2419 3097 1959 3097
z
M 1959 3584
Q 2709 3584 3137 3096
Q 3566 2609 3566 1747
Q 3566 888 3137 398
Q 2709 -91 1959 -91
Q 1206 -91 779 398
Q 353 888 353 1747
Q 353 2609 779 3096
Q 1206 3584 1959 3584
z
" transform="scale(0.015625)"/>
      <path id="DejaVuSans-6e" d="M 3513 2113
L 3513 0
L 2938 0
L 2938 2094
Q 2938 2591 2744 2837
Q 2550 3084 2163 3084
Q 1697 3084 1428 2787
Q 1159 2491 1159 1978
L 1159 0
L 581 0
L 581 3500
L 1159 3500
L 1159 2956
Q 1366 3272 1645 3428
Q 1925 3584 2291 3584
Q 2894 3584 3203 3211
Q 3513 2838 3513 2113
z
" transform="scale(0.015625)"/>
      <path id="DejaVuSans-20" transform="scale(0.015625)"/>
     </defs>
     <use xlink:href="#DejaVuSans-41"/>
     <use xlink:href="#DejaVuSans-62" transform="translate(68.408203 0)"/>
     <use xlink:href="#DejaVuSans-6c" transform="translate(131.884766 0)"/>
     <use xlink:href="#DejaVuSans-61" transform="translate(159.667969 0)"/>
     <use xlink:href="#DejaVuSans-74" transform="translate(220.947266 0)"/>
     <use xlink:href="#DejaVuSans-69" transform="translate(260.15625 0)"/>
     <use xlink:href="#DejaVuSans-6f" transform="translate(287.939453 0)"/>
     <use xlink:href="#DejaVuSans-6e" transform="translate(349.121094 0)"/>
     <use xlink:href="#DejaVuSans-20" transform="translate(412.5 0)"/>
     <use xlink:href="#DejaVuSans-61" transform="translate(444.287109 0)"/>
     <use xlink:href="#DejaVuSans-63" transform="translate(505.566406 0)"/>
     <use xlink:href="#DejaVuSans-63" transform="translate(560.546875 0)"/>
     <use xlink:href="#DejaVuSans-75" transform="translate(615.527344 0)"/>
     <use xlink:href="#DejaVuSans-72" transform="translate(678.90625 0)"/>
     <use xlink:href="#DejaVuSans-61" transform="translate(720.019531 0)"/>
     <use xlink:href="#DejaVuSans-63" transform="translate(781.298828 0)"/>
     <use xlink:href="#DejaVuSans-79" transform="translate(836.279297 0)"/>
    </g>
   </g>
   <g id="legend_1">
    <g id="patch_19">
     <path d="M 54.72 161.52
L 103.815313 161.52
Q 105.815313 161.52 105.815313 159.52
L 105.815313 101.8075
Q 105.815313 99.8075 103.815313 99.8075
L 54.72 99.8075
Q 52.72 99.8075 52.72 101.8075
L 52.72 159.52
Q 52.72 161.52 54.72 161.52
z
" style="fill: #ffffff; opacity: 0.8; stroke: #cccccc; stroke-linejoin: miter"/>
    </g>
    <g id="patch_20">
     <path d="M 56.72 111.405938
L 76.72 111.405938
L 76.72 104.405938
L 56.72 104.405938
z
" style="fill: #1f77b4"/>
    </g>
    <g id="text_15">
     <!-- Full -->
     <g transform="translate(84.72 111.405938) scale(0.1 -0.1)">
      <defs>
       <path id="DejaVuSans-46" d="M 628 4666
L 3309 4666
L 3309 4134
L 1259 4134
L 1259 2759
L 3109 2759
L 3109 2228
L 1259 2228
L 1259 0
L 628 0
L 628 4666
z
" transform="scale(0.015625)"/>
      </defs>
      <use xlink:href="#DejaVuSans-46"/>
      <use xlink:href="#DejaVuSans-75" transform="translate(52.019531 0)"/>
      <use xlink:href="#DejaVuSans-6c" transform="translate(115.398438 0)"/>
      <use xlink:href="#DejaVuSans-6c" transform="translate(143.181641 0)"/>
     </g>
    </g>
    <g id="patch_21">
     <path d="M 56.72 126.084063
L 76.72 126.084063
L 76.72 119.084063
L 56.72 119.084063
z
" style="fill: #ff7f0e"/>
    </g>
    <g id="text_16">
     <!-- -A -->
     <g transform="translate(84.72 126.084063) scale(0.1 -0.1)">
      <use xlink:href="#DejaVuSans-2d"/>
      <use xlink:href="#DejaVuSans-41" transform="translate(33.833984 0)"/>
     </g>
    </g>
    <g id="patch_22">
     <path d="M 56.72 140.762188
L 76.72 140.762188
L 76.72 133.762188
L 56.72 133.762188
z
" style="fill: #2ca02c"/>
    </g>
    <g id="text_17">
     <!-- -B -->
     <g transform="translate(84.72 140.762188) scale(0.1 -0.1)">
      <defs>
       <path id="DejaVuSans-42" d="M 1259 2228
L 1259 519
L 2272 519
Q 2781 519 3026 730
Q 3272 941 3272 1375
Q 3272 1813 3026 2020
Q 2781 2228 2272 2228
L 1259 2228
z
M 1259 4147
L 1259 2741
L 2194 2741
Q 2656 2741 2882 2914
Q 3109 3088 3109 3444
Q 3109 3797 2882 3972
Q 2656 4147 2194 4147
L 1259 4147
z
M 628 4666
L 2241 4666
Q 2963 4666 3353 4366
Q 3744 4066 3744 3513
Q 3744 3084 3544 2831
Q 3344 2578 2956 2516
Q 3422 2416 3680 2098
Q 3938 1781 3938 1306
Q 3938 681 3513 340
Q 3088 0 2303 0
L 628 0
L 628 4666
z
" transform="scale(0.015625)"/>
      </defs>
      <use xlink:href="#DejaVuSans-2d"/>
      <use xlink:href="#DejaVuSans-42" transform="translate(32.458984 0)"/>
     </g>
    </g>
    <g id="patch_23">
     <path d="M 56.72 155.440313
L 76.72 155.440313
L 76.72 148.440313
L 56.72 148.440313
z
" style="fill: #d62728"/>
    </g>
    <g id="text_18">
     <!-- -C -->
     <g transform="translate(84.72 155.440313) scale(0.1 -0.1)">
      <defs>
       <path id="DejaVuSans-43" d="M 4122 4306
L 4122 3641
Q 3803 3938 3442 4084
Q 3081 4231 2675 4231
Q 1875 4231 1450 3742
Q 1025 3253 1025 2328
Q 1025 1406 1450 917
Q 1875 428 2675 428
Q 3081 428 3442 575
Q 3803 722 4122 1019
L 4122 359
Q 3791 134 3420 21
Q 3050 -91 2638 -91
Q 1578 -91 968 557
Q 359 1206 359 2328
Q 359 3453 968 4101
Q 1578 4750 2638 4750
Q 3056 4750 3426 4639
Q 3797 4528 4122 4306
z
" transform="scale(0.015625)"/>
      </defs>
      <use xlink:href="#DejaVuSans-2d"/>
      <use xlink:href="#DejaVuSans-43" transform="translate(36.083984 0)"/>
     </g>
    </g>
   </g>
  </g>
 </g>
 <defs>
  <clipPath id="pb2c21918ce">
   <rect x="47.72" y="26.88" width="182.68" height="139.64"/>
  </clipPath>
 </defs>
</svg>
