<?xml version="1.0" encoding="utf-8" standalone="no"?>
<!DOCTYPE svg PUBLIC "-//W3C//DTD SVG 1.1//EN"
  "http://www.w3.org/Graphics/SVG/1.1/DTD/svg11.dtd">
<svg xmlns:xlink="http://www.w3.org/1999/xlink" width="387.332899pt" height="265.59625pt" viewBox="0 0 387.332899 265.59625" xmlns="http://www.w3.org/2000/svg" version="1.1">
 <metadata>
  <rdf:RDF xmlns:dc="http://purl.org/dc/elements/1.1/" xmlns:cc="http://creativecommons.org/ns#" xmlns:rdf="http://www.w3.org/1999/02/22-rdf-syntax-ns#">
   <cc:Work>
    <dc:type rdf:resource="http://purl.org/dc/dcmitype/StillImage"/>
    <dc:date>2026-05-25T00:34:25.929330</dc:date>
    <dc:format>image/svg+xml</dc:format>
    <dc:creator>
     <cc:Agent>
      <dc:title>Matplotlib v3.10.9, https://matplotlib.org/</dc:title>
     </cc:Agent>
    </dc:creator>
   </cc:Work>
  </rdf:RDF>
 </metadata>
 <defs>
  <style type="text/css">*{stroke-linejoin: round; stroke-linecap: butt}</style>
 </defs>
 <g id="figure_1">
  <g id="patch_1">
   <path d="M 0 265.59625 
L 387.332899 265.59625 
L 387.332899 0 
L 0 0 
z
" style="fill: #ffffff"/>
  </g>
  <g id="axes_1">
   <g id="patch_2">
    <path d="M 34.572188 228.04 
L 367.745772 228.04 
L 367.745772 7.2 
L 34.572188 7.2 
z
" style="fill: #ffffff"/>
   </g>
   <g id="FillBetweenPolyCollection_1">
    <defs>
     <path id="m981e9b6127" d="M 34.572188 -248.358068 
L 34.572188 -240.846957 
L 40.858482 -237.183494 
L 47.144776 -228.266257 
L 53.43107 -221.236368 
L 59.717364 -214.244093 
L 66.003658 -210.169001 
L 72.289952 -209.65012 
L 78.576246 -201.313496 
L 84.86254 -198.345737 
L 91.148834 -191.327293 
L 97.435128 -186.902116 
L 103.721422 -182.993804 
L 110.007716 -171.051642 
L 116.29401 -177.426735 
L 122.580304 -172.634976 
L 128.866598 -169.594549 
L 135.152892 -156.342922 
L 141.439186 -152.807796 
L 147.72548 -154.864735 
L 154.011775 -153.732821 
L 160.298069 -156.154755 
L 166.584363 -150.918317 
L 172.870657 -151.581087 
L 179.156951 -143.364736 
L 185.443245 -146.493573 
L 191.729539 -146.493573 
L 198.015833 -139.619397 
L 204.302127 -148.87824 
L 210.588421 -143.640864 
L 216.874715 -144.454413 
L 223.161009 -135.087281 
L 229.447303 -133.547002 
L 235.733597 -134.694103 
L 242.019891 -133.175586 
L 248.306185 -137.687734 
L 254.592479 -134.694103 
L 260.878773 -130.015246 
L 267.165068 -125.354345 
L 273.451362 -129.149344 
L 279.737656 -136.574944 
L 286.02395 -125.246482 
L 292.310244 -129.464771 
L 298.596538 -130.132954 
L 304.882832 -119.224865 
L 311.169126 -128.780543 
L 317.45542 -134.605184 
L 323.741714 -116.553356 
L 330.028008 -124.204496 
L 336.314302 -124.881898 
L 342.600596 -122.964066 
L 342.600596 -134.312667 
L 342.600596 -134.312667 
L 336.314302 -140.123155 
L 330.028008 -139.138707 
L 323.741714 -129.464771 
L 317.45542 -146.422884 
L 311.169126 -140.368305 
L 304.882832 -134.516215 
L 298.596538 -144.227522 
L 292.310244 -143.928481 
L 286.02395 -138.433499 
L 279.737656 -148.413507 
L 273.451362 -139.730117 
L 267.165068 -140.110888 
L 260.878773 -142.049475 
L 254.592479 -145.726073 
L 248.306185 -147.959062 
L 242.019891 -146.776011 
L 235.733597 -144.8239 
L 229.447303 -144.01227 
L 223.161009 -145.714236 
L 216.874715 -155.777744 
L 210.588421 -153.067805 
L 204.302127 -160.803254 
L 198.015833 -150.941218 
L 191.729539 -156.906071 
L 185.443245 -159.247294 
L 179.156951 -157.13737 
L 172.870657 -163.203959 
L 166.584363 -162.822307 
L 160.298069 -165.025167 
L 154.011775 -165.286607 
L 147.72548 -165.547613 
L 141.439186 -165.599762 
L 135.152892 -168.43134 
L 128.866598 -179.272609 
L 122.580304 -182.601306 
L 116.29401 -187.156817 
L 110.007716 -181.549818 
L 103.721422 -191.406928 
L 97.435128 -197.036943 
L 91.148834 -200.188337 
L 84.86254 -207.437507 
L 78.576246 -209.941219 
L 72.289952 -215.947858 
L 66.003658 -217.79788 
L 59.717364 -220.686846 
L 53.43107 -229.096293 
L 47.144776 -234.894027 
L 40.858482 -242.688566 
L 34.572188 -248.358068 
z
"/>
    </defs>
    <g clip-path="url(#pdd838eb592)">
     <use xlink:href="#m981e9b6127" x="0" y="265.59625" style="fill: #4878cf; fill-opacity: 0.15"/>
    </g>
   </g>
   <g id="FillBetweenPolyCollection_2">
    <defs>
     <path id="ma383ff8e52" d="M 34.572188 -242.522618 
L 34.572188 -236.455025 
L 40.858482 -230.170887 
L 47.144776 -221.660015 
L 53.43107 -215.265532 
L 59.717364 -204.560019 
L 66.003658 -198.928621 
L 72.289952 -195.458733 
L 78.576246 -187.465541 
L 84.86254 -177.928808 
L 91.148834 -176.592841 
L 97.435128 -172.963665 
L 103.721422 -162.226774 
L 110.007716 -155.065607 
L 116.29401 -154.238148 
L 122.580304 -150.195225 
L 128.866598 -144.01227 
L 135.152892 -146.693686 
L 141.439186 -133.393419 
L 147.72548 -139.60709 
L 154.011775 -126.829981 
L 160.298069 -124.000703 
L 166.584363 -126.321784 
L 172.870657 -125.959693 
L 179.156951 -122.484354 
L 185.443245 -117.930131 
L 191.729539 -115.049286 
L 198.015833 -114.501382 
L 204.302127 -113.559718 
L 210.588421 -108.914436 
L 216.874715 -110.240915 
L 223.161009 -110.018136 
L 229.447303 -105.249835 
L 235.733597 -107.455832 
L 242.019891 -103.988434 
L 248.306185 -108.674774 
L 254.592479 -101.434787 
L 260.878773 -95.238704 
L 267.165068 -94.387186 
L 273.451362 -95.401928 
L 279.737656 -101.010355 
L 286.02395 -94.682466 
L 292.310244 -97.524633 
L 298.596538 -103.880282 
L 304.882832 -81.365847 
L 311.169126 -86.904684 
L 317.45542 -92.404322 
L 323.741714 -92.935541 
L 330.028008 -92.918968 
L 336.314302 -88.566396 
L 342.600596 -93.183932 
L 342.600596 -107.712446 
L 342.600596 -107.712446 
L 336.314302 -102.607774 
L 330.028008 -105.525375 
L 323.741714 -107.727527 
L 317.45542 -107.606832 
L 311.169126 -100.900129 
L 304.882832 -93.084623 
L 298.596538 -114.024013 
L 292.310244 -108.254481 
L 286.02395 -105.571252 
L 279.737656 -112.334365 
L 273.451362 -110.655926 
L 267.165068 -109.943806 
L 260.878773 -110.38926 
L 254.592479 -113.19603 
L 248.306185 -122.744951 
L 242.019891 -116.994672 
L 235.733597 -117.746314 
L 229.447303 -115.795962 
L 223.161009 -118.860044 
L 216.874715 -119.070621 
L 210.588421 -119.644761 
L 204.302127 -124.881898 
L 198.015833 -124.163758 
L 191.729539 -127.442972 
L 185.443245 -130.524677 
L 179.156951 -134.656001 
L 172.870657 -138.123195 
L 166.584363 -139.10167 
L 160.298069 -136.084818 
L 154.011775 -135.782439 
L 147.72548 -148.366958 
L 141.439186 -144.657142 
L 135.152892 -155.988538 
L 128.866598 -154.518184 
L 122.580304 -157.675744 
L 116.29401 -162.386513 
L 110.007716 -162.726749 
L 103.721422 -171.313292 
L 97.435128 -182.104605 
L 91.148834 -185.952449 
L 84.86254 -185.567294 
L 78.576246 -192.903602 
L 72.289952 -202.356413 
L 66.003658 -204.380956 
L 59.717364 -211.030005 
L 53.43107 -222.540165 
L 47.144776 -226.047663 
L 40.858482 -234.692771 
L 34.572188 -242.522618 
z
"/>
    </defs>
    <g clip-path="url(#pdd838eb592)">
     <use xlink:href="#ma383ff8e52" x="0" y="265.59625" style="fill: #6acc65; fill-opacity: 0.15"/>
    </g>
   </g>
   <g id="FillBetweenPolyCollection_3">
    <defs>
     <path id="md9ac1ac24a" d="M 34.572188 -243.74396 
L 34.572188 -238.918139 
L 40.858482 -229.096293 
L 47.144776 -222.177065 
L 53.43107 -208.947689 
L 59.717364 -202.570757 
L 66.003658 -192.077795 
L 72.289952 -189.806494 
L 78.576246 -183.81301 
L 84.86254 -170.516924 
L 91.148834 -170.769376 
L 97.435128 -162.258735 
L 103.721422 -152.513353 
L 110.007716 -140.478497 
L 116.29401 -146.576003 
L 122.580304 -135.668897 
L 128.866598 -128.040329 
L 135.152892 -128.463736 
L 141.439186 -123.005116 
L 147.72548 -123.810258 
L 154.011775 -108.839581 
L 160.298069 -113.370705 
L 166.584363 -111.909094 
L 172.870657 -108.299567 
L 179.156951 -96.976456 
L 185.443245 -90.682141 
L 191.729539 -97.653338 
L 198.015833 -90.109478 
L 204.302127 -87.917512 
L 210.588421 -92.171346 
L 216.874715 -80.79389 
L 223.161009 -67.944235 
L 229.447303 -76.528442 
L 235.733597 -66.479804 
L 242.019891 -78.612128 
L 248.306185 -74.975187 
L 254.592479 -67.749766 
L 260.878773 -69.683695 
L 267.165068 -75.179467 
L 273.451362 -68.912982 
L 279.737656 -73.912365 
L 286.02395 -65.219253 
L 292.310244 -72.748076 
L 298.596538 -74.547195 
L 304.882832 -73.575235 
L 311.169126 -60.583282 
L 317.45542 -68.661683 
L 323.741714 -51.678565 
L 330.028008 -54.26568 
L 336.314302 -47.594432 
L 342.600596 -65.732574 
L 342.600596 -82.006815 
L 342.600596 -82.006815 
L 336.314302 -65.080763 
L 330.028008 -70.374113 
L 323.741714 -64.545442 
L 317.45542 -81.151608 
L 311.169126 -72.766924 
L 304.882832 -86.732368 
L 298.596538 -85.971922 
L 292.310244 -84.404886 
L 286.02395 -81.223053 
L 279.737656 -89.602445 
L 273.451362 -83.086957 
L 267.165068 -87.283114 
L 260.878773 -85.781233 
L 254.592479 -83.685791 
L 248.306185 -89.348313 
L 242.019891 -93.860868 
L 235.733597 -80.435355 
L 229.447303 -89.923756 
L 223.161009 -81.633236 
L 216.874715 -94.633291 
L 210.588421 -104.250779 
L 204.302127 -100.284593 
L 198.015833 -102.810203 
L 191.729539 -109.004215 
L 185.443245 -104.728046 
L 179.156951 -109.809923 
L 172.870657 -119.434953 
L 166.584363 -122.580414 
L 160.298069 -125.030534 
L 154.011775 -118.761678 
L 147.72548 -132.726152 
L 141.439186 -133.175586 
L 135.152892 -136.600037 
L 128.866598 -138.743191 
L 122.580304 -145.04993 
L 116.29401 -155.232804 
L 110.007716 -148.797011 
L 103.721422 -160.964449 
L 97.435128 -170.739104 
L 91.148834 -178.082969 
L 84.86254 -176.971552 
L 78.576246 -191.42462 
L 72.289952 -195.096253 
L 66.003658 -197.735192 
L 59.717364 -208.488226 
L 53.43107 -213.669475 
L 47.144776 -227.593432 
L 40.858482 -234.296212 
L 34.572188 -243.74396 
z
"/>
    </defs>
    <g clip-path="url(#pdd838eb592)">
     <use xlink:href="#md9ac1ac24a" x="0" y="265.59625" style="fill: #d65f5f; fill-opacity: 0.15"/>
    </g>
   </g>
   <g id="matplotlib.axis_1">
    <g id="xtick_1">
     <g id="line2d_1">
      <defs>
       <path id="m16305585c6" d="M 0 0 
L 0 3.5 
" style="stroke: #000000; stroke-width: 0.8"/>
      </defs>
      <g>
       <use xlink:href="#m16305585c6" x="34.572188" y="228.04" style="stroke: #000000; stroke-width: 0.8"/>
      </g>
     </g>
     <g id="text_1">
      <!-- 0 -->
      <g transform="translate(31.709063 241.878594) scale(0.09 -0.09)">
       <defs>
        <path id="DejaVuSans-30" d="M 2034 4250 
Q 1547 4250 1301 3770 
Q 1056 3291 1056 2328 
Q 1056 1369 1301 889 
Q 1547 409 2034 409 
Q 2525 409 2770 889 
Q 3016 1369 3016 2328 
Q 3016 3291 2770 3770 
Q 2525 4250 2034 4250 
z
M 2034 4750 
Q 2819 4750 3233 4129 
Q 3647 3509 3647 2328 
Q 3647 1150 3233 529 
Q 2819 -91 2034 -91 
Q 1250 -91 836 529 
Q 422 1150 422 2328 
Q 422 3509 836 4129 
Q 1250 4750 2034 4750 
z
" transform="scale(0.015625)"/>
       </defs>
       <use xlink:href="#DejaVuSans-30"/>
      </g>
     </g>
    </g>
    <g id="xtick_2">
     <g id="line2d_2">
      <g>
       <use xlink:href="#m16305585c6" x="97.435128" y="228.04" style="stroke: #000000; stroke-width: 0.8"/>
      </g>
     </g>
     <g id="text_2">
      <!-- 10 -->
      <g transform="translate(91.708878 241.878594) scale(0.09 -0.09)">
       <defs>
        <path id="DejaVuSans-31" d="M 794 531 
L 1825 531 
L 1825 4091 
L 703 3866 
L 703 4441 
L 1819 4666 
L 2450 4666 
L 2450 531 
L 3481 531 
L 3481 0 
L 794 0 
L 794 531 
z
" transform="scale(0.015625)"/>
       </defs>
       <use xlink:href="#DejaVuSans-31"/>
       <use xlink:href="#DejaVuSans-30" transform="translate(63.623047 0)"/>
      </g>
     </g>
    </g>
    <g id="xtick_3">
     <g id="line2d_3">
      <g>
       <use xlink:href="#m16305585c6" x="160.298069" y="228.04" style="stroke: #000000; stroke-width: 0.8"/>
      </g>
     </g>
     <g id="text_3">
      <!-- 20 -->
      <g transform="translate(154.571819 241.878594) scale(0.09 -0.09)">
       <defs>
        <path id="DejaVuSans-32" d="M 1228 531 
L 3431 531 
L 3431 0 
L 469 0 
L 469 531 
Q 828 903 1448 1529 
Q 2069 2156 2228 2338 
Q 2531 2678 2651 2914 
Q 2772 3150 2772 3378 
Q 2772 3750 2511 3984 
Q 2250 4219 1831 4219 
Q 1534 4219 1204 4116 
Q 875 4013 500 3803 
L 500 4441 
Q 881 4594 1212 4672 
Q 1544 4750 1819 4750 
Q 2544 4750 2975 4387 
Q 3406 4025 3406 3419 
Q 3406 3131 3298 2873 
Q 3191 2616 2906 2266 
Q 2828 2175 2409 1742 
Q 1991 1309 1228 531 
z
" transform="scale(0.015625)"/>
       </defs>
       <use xlink:href="#DejaVuSans-32"/>
       <use xlink:href="#DejaVuSans-30" transform="translate(63.623047 0)"/>
      </g>
     </g>
    </g>
    <g id="xtick_4">
     <g id="line2d_4">
      <g>
       <use xlink:href="#m16305585c6" x="223.161009" y="228.04" style="stroke: #000000; stroke-width: 0.8"/>
      </g>
     </g>
     <g id="text_4">
      <!-- 30 -->
      <g transform="translate(217.434759 241.878594) scale(0.09 -0.09)">
       <defs>
        <path id="DejaVuSans-33" d="M 2597 2516 
Q 3050 2419 3304 2112 
Q 3559 1806 3559 1356 
Q 3559 666 3084 287 
Q 2609 -91 1734 -91 
Q 1441 -91 1130 -33 
Q 819 25 488 141 
L 488 750 
Q 750 597 1062 519 
Q 1375 441 1716 441 
Q 2309 441 2620 675 
Q 2931 909 2931 1356 
Q 2931 1769 2642 2001 
Q 2353 2234 1838 2234 
L 1294 2234 
L 1294 2753 
L 1863 2753 
Q 2328 2753 2575 2939 
Q 2822 3125 2822 3475 
Q 2822 3834 2567 4026 
Q 2313 4219 1838 4219 
Q 1578 4219 1281 4162 
Q 984 4106 628 3988 
L 628 4550 
Q 988 4650 1302 4700 
Q 1616 4750 1894 4750 
Q 2613 4750 3031 4423 
Q 3450 4097 3450 3541 
Q 3450 3153 3228 2886 
Q 3006 2619 2597 2516 
z
" transform="scale(0.015625)"/>
       </defs>
       <use xlink:href="#DejaVuSans-33"/>
       <use xlink:href="#DejaVuSans-30" transform="translate(63.623047 0)"/>
      </g>
     </g>
    </g>
    <g id="xtick_5">
     <g id="line2d_5">
      <g>
       <use xlink:href="#m16305585c6" x="286.02395" y="228.04" style="stroke: #000000; stroke-width: 0.8"/>
      </g>
     </g>
     <g id="text_5">
      <!-- 40 -->
      <g transform="translate(280.2977 241.878594) scale(0.09 -0.09)">
       <defs>
        <path id="DejaVuSans-34" d="M 2419 4116 
L 825 1625 
L 2419 1625 
L 2419 4116 
z
M 2253 4666 
L 3047 4666 
L 3047 1625 
L 3713 1625 
L 3713 1100 
L 3047 1100 
L 3047 0 
L 2419 0 
L 2419 1100 
L 313 1100 
L 313 1709 
L 2253 4666 
z
" transform="scale(0.015625)"/>
       </defs>
       <use xlink:href="#DejaVuSans-34"/>
       <use xlink:href="#DejaVuSans-30" transform="translate(63.623047 0)"/>
      </g>
     </g>
    </g>
    <g id="xtick_6">
     <g id="line2d_6">
      <g>
       <use xlink:href="#m16305585c6" x="348.88689" y="228.04" style="stroke: #000000; stroke-width: 0.8"/>
      </g>
     </g>
     <g id="text_6">
      <!-- 50 -->
      <g transform="translate(343.16064 241.878594) scale(0.09 -0.09)">
       <defs>
        <path id="DejaVuSans-35" d="M 691 4666 
L 3169 4666 
L 3169 4134 
L 1269 4134 
L 1269 2991 
Q 1406 3038 1543 3061 
Q 1681 3084 1819 3084 
Q 2600 3084 3056 2656 
Q 3513 2228 3513 1497 
Q 3513 744 3044 326 
Q 2575 -91 1722 -91 
Q 1428 -91 1123 -41 
Q 819 9 494 109 
L 494 744 
Q 775 591 1075 516 
Q 1375 441 1709 441 
Q 2250 441 2565 725 
Q 2881 1009 2881 1497 
Q 2881 1984 2565 2268 
Q 2250 2553 1709 2553 
Q 1456 2553 1204 2497 
Q 953 2441 691 2322 
L 691 4666 
z
" transform="scale(0.015625)"/>
       </defs>
       <use xlink:href="#DejaVuSans-35"/>
       <use xlink:href="#DejaVuSans-30" transform="translate(63.623047 0)"/>
      </g>
     </g>
    </g>
    <g id="text_7">
     <!-- Training step -->
     <g transform="translate(165.815464 256.108594) scale(0.11 -0.11)">
      <defs>
       <path id="DejaVuSans-54" d="M -19 4666 
L 3928 4666 
L 3928 4134 
L 2272 4134 
L 2272 0 
L 1638 0 
L 1638 4134 
L -19 4134 
L -19 4666 
z
" transform="scale(0.015625)"/>
       <path id="DejaVuSans-72" d="M 2631 2963 
Q 2534 3019 2420 3045 
Q 2306 3072 2169 3072 
Q 1681 3072 1420 2755 
Q 1159 2438 1159 1844 
L 1159 0 
L 581 0 
L 581 3500 
L 1159 3500 
L 1159 2956 
Q 1341 3275 1631 3429 
Q 1922 3584 2338 3584 
Q 2397 3584 2469 3576 
Q 2541 3569 2628 3553 
L 2631 2963 
z
" transform="scale(0.015625)"/>
       <path id="DejaVuSans-61" d="M 2194 1759 
Q 1497 1759 1228 1600 
Q 959 1441 959 1056 
Q 959 750 1161 570 
Q 1363 391 1709 391 
Q 2188 391 2477 730 
Q 2766 1069 2766 1631 
L 2766 1759 
L 2194 1759 
z
M 3341 1997 
L 3341 0 
L 2766 0 
L 2766 531 
Q 2569 213 2275 61 
Q 1981 -91 1556 -91 
Q 1019 -91 701 211 
Q 384 513 384 1019 
Q 384 1609 779 1909 
Q 1175 2209 1959 2209 
L 2766 2209 
L 2766 2266 
Q 2766 2663 2505 2880 
Q 2244 3097 1772 3097 
Q 1472 3097 1187 3025 
Q 903 2953 641 2809 
L 641 3341 
Q 956 3463 1253 3523 
Q 1550 3584 1831 3584 
Q 2591 3584 2966 3190 
Q 3341 2797 3341 1997 
z
" transform="scale(0.015625)"/>
       <path id="DejaVuSans-69" d="M 603 3500 
L 1178 3500 
L 1178 0 
L 603 0 
L 603 3500 
z
M 603 4863 
L 1178 4863 
L 1178 4134 
L 603 4134 
L 603 4863 
z
" transform="scale(0.015625)"/>
       <path id="DejaVuSans-6e" d="M 3513 2113 
L 3513 0 
L 2938 0 
L 2938 2094 
Q 2938 2591 2744 2837 
Q 2550 3084 2163 3084 
Q 1697 3084 1428 2787 
Q 1159 2491 1159 1978 
L 1159 0 
L 581 0 
L 581 3500 
L 1159 3500 
L 1159 2956 
Q 1366 3272 1645 3428 
Q 1925 3584 2291 3584 
Q 2894 3584 3203 3211 
Q 3513 2838 3513 2113 
z
" transform="scale(0.015625)"/>
       <path id="DejaVuSans-67" d="M 2906 1791 
Q 2906 2416 2648 2759 
Q 2391 3103 1925 3103 
Q 1463 3103 1205 2759 
Q 947 2416 947 1791 
Q 947 1169 1205 825 
Q 1463 481 1925 481 
Q 2391 481 2648 825 
Q 2906 1169 2906 1791 
z
M 3481 434 
Q 3481 -459 3084 -895 
Q 2688 -1331 1869 -1331 
Q 1566 -1331 1297 -1286 
Q 1028 -1241 775 -1147 
L 775 -588 
Q 1028 -725 1275 -790 
Q 1522 -856 1778 -856 
Q 2344 -856 2625 -561 
Q 2906 -266 2906 331 
L 2906 616 
Q 2728 306 2450 153 
Q 2172 0 1784 0 
Q 1141 0 747 490 
Q 353 981 353 1791 
Q 353 2603 747 3093 
Q 1141 3584 1784 3584 
Q 2172 3584 2450 3431 
Q 2728 3278 2906 2969 
L 2906 3500 
L 3481 3500 
L 3481 434 
z
" transform="scale(0.015625)"/>
       <path id="DejaVuSans-20" transform="scale(0.015625)"/>
       <path id="DejaVuSans-73" d="M 2834 3397 
L 2834 2853 
Q 2591 2978 2328 3040 
Q 2066 3103 1784 3103 
Q 1356 3103 1142 2972 
Q 928 2841 928 2578 
Q 928 2378 1081 2264 
Q 1234 2150 1697 2047 
L 1894 2003 
Q 2506 1872 2764 1633 
Q 3022 1394 3022 966 
Q 3022 478 2636 193 
Q 2250 -91 1575 -91 
Q 1294 -91 989 -36 
Q 684 19 347 128 
L 347 722 
Q 666 556 975 473 
Q 1284 391 1588 391 
Q 1994 391 2212 530 
Q 2431 669 2431 922 
Q 2431 1156 2273 1281 
Q 2116 1406 1581 1522 
L 1381 1569 
Q 847 1681 609 1914 
Q 372 2147 372 2553 
Q 372 3047 722 3315 
Q 1072 3584 1716 3584 
Q 2034 3584 2315 3537 
Q 2597 3491 2834 3397 
z
" transform="scale(0.015625)"/>
       <path id="DejaVuSans-74" d="M 1172 4494 
L 1172 3500 
L 2356 3500 
L 2356 3053 
L 1172 3053 
L 1172 1153 
Q 1172 725 1289 603 
Q 1406 481 1766 481 
L 2356 481 
L 2356 0 
L 1766 0 
Q 1100 0 847 248 
Q 594 497 594 1153 
L 594 3053 
L 172 3053 
L 172 3500 
L 594 3500 
L 594 4494 
L 1172 4494 
z
" transform="scale(0.015625)"/>
       <path id="DejaVuSans-65" d="M 3597 1894 
L 3597 1613 
L 953 1613 
Q 991 1019 1311 708 
Q 1631 397 2203 397 
Q 2534 397 2845 478 
Q 3156 559 3463 722 
L 3463 178 
Q 3153 47 2828 -22 
Q 2503 -91 2169 -91 
Q 1331 -91 842 396 
Q 353 884 353 1716 
Q 353 2575 817 3079 
Q 1281 3584 2069 3584 
Q 2775 3584 3186 3129 
Q 3597 2675 3597 1894 
z
M 3022 2063 
Q 3016 2534 2758 2815 
Q 2500 3097 2075 3097 
Q 1594 3097 1305 2825 
Q 1016 2553 972 2059 
L 3022 2063 
z
" transform="scale(0.015625)"/>
       <path id="DejaVuSans-70" d="M 1159 525 
L 1159 -1331 
L 581 -1331 
L 581 3500 
L 1159 3500 
L 1159 2969 
Q 1341 3281 1617 3432 
Q 1894 3584 2278 3584 
Q 2916 3584 3314 3078 
Q 3713 2572 3713 1747 
Q 3713 922 3314 415 
Q 2916 -91 2278 -91 
Q 1894 -91 1617 61 
Q 1341 213 1159 525 
z
M 3116 1747 
Q 3116 2381 2855 2742 
Q 2594 3103 2138 3103 
Q 1681 3103 1420 2742 
Q 1159 2381 1159 1747 
Q 1159 1113 1420 752 
Q 1681 391 2138 391 
Q 2594 391 2855 752 
Q 3116 1113 3116 1747 
z
" transform="scale(0.015625)"/>
      </defs>
      <use xlink:href="#DejaVuSans-54"/>
      <use xlink:href="#DejaVuSans-72" transform="translate(46.333984 0)"/>
      <use xlink:href="#DejaVuSans-61" transform="translate(87.447266 0)"/>
      <use xlink:href="#DejaVuSans-69" transform="translate(148.726562 0)"/>
      <use xlink:href="#DejaVuSans-6e" transform="translate(176.509766 0)"/>
      <use xlink:href="#DejaVuSans-69" transform="translate(239.888672 0)"/>
      <use xlink:href="#DejaVuSans-6e" transform="translate(267.671875 0)"/>
      <use xlink:href="#DejaVuSans-67" transform="translate(331.050781 0)"/>
      <use xlink:href="#DejaVuSans-20" transform="translate(394.527344 0)"/>
      <use xlink:href="#DejaVuSans-73" transform="translate(426.314453 0)"/>
      <use xlink:href="#DejaVuSans-74" transform="translate(478.414062 0)"/>
      <use xlink:href="#DejaVuSans-65" transform="translate(517.623047 0)"/>
      <use xlink:href="#DejaVuSans-70" transform="translate(579.146484 0)"/>
     </g>
    </g>
   </g>
   <g id="matplotlib.axis_2">
    <g id="ytick_1">
     <g id="line2d_7">
      <defs>
       <path id="maaae99e219" d="M 0 0 
L -3.5 0 
" style="stroke: #000000; stroke-width: 0.8"/>
      </defs>
      <g>
       <use xlink:href="#maaae99e219" x="34.572188" y="164.035926" style="stroke: #000000; stroke-width: 0.8"/>
      </g>
     </g>
     <g id="text_8">
      <!-- 1 -->
      <g transform="translate(21.845938 167.455223) scale(0.09 -0.09)">
       <use xlink:href="#DejaVuSans-31"/>
      </g>
     </g>
    </g>
    <g id="ytick_2">
     <g id="line2d_8">
      <defs>
       <path id="m7cebec639a" d="M 0 0 
L -2 0 
" style="stroke: #000000; stroke-width: 0.6"/>
      </defs>
      <g>
       <use xlink:href="#m7cebec639a" x="34.572188" y="219.983596" style="stroke: #000000; stroke-width: 0.6"/>
      </g>
     </g>
    </g>
    <g id="ytick_3">
     <g id="line2d_9">
      <g>
       <use xlink:href="#m7cebec639a" x="34.572188" y="199.037997" style="stroke: #000000; stroke-width: 0.6"/>
      </g>
     </g>
    </g>
    <g id="ytick_4">
     <g id="line2d_10">
      <g>
       <use xlink:href="#m7cebec639a" x="34.572188" y="180.56267" style="stroke: #000000; stroke-width: 0.6"/>
      </g>
     </g>
    </g>
    <g id="ytick_5">
     <g id="line2d_11">
      <g>
       <use xlink:href="#m7cebec639a" x="34.572188" y="55.309561" style="stroke: #000000; stroke-width: 0.6"/>
      </g>
     </g>
    </g>
    <g id="text_9">
     <!-- Validation loss -->
     <g transform="translate(15.558281 157.15125) rotate(-90) scale(0.11 -0.11)">
      <defs>
       <path id="DejaVuSans-56" d="M 1831 0 
L 50 4666 
L 709 4666 
L 2188 738 
L 3669 4666 
L 4325 4666 
L 2547 0 
L 1831 0 
z
" transform="scale(0.015625)"/>
       <path id="DejaVuSans-6c" d="M 603 4863 
L 1178 4863 
L 1178 0 
L 603 0 
L 603 4863 
z
" transform="scale(0.015625)"/>
       <path id="DejaVuSans-64" d="M 2906 2969 
L 2906 4863 
L 3481 4863 
L 3481 0 
L 2906 0 
L 2906 525 
Q 2725 213 2448 61 
Q 2172 -91 1784 -91 
Q 1150 -91 751 415 
Q 353 922 353 1747 
Q 353 2572 751 3078 
Q 1150 3584 1784 3584 
Q 2172 3584 2448 3432 
Q 2725 3281 2906 2969 
z
M 947 1747 
Q 947 1113 1208 752 
Q 1469 391 1925 391 
Q 2381 391 2643 752 
Q 2906 1113 2906 1747 
Q 2906 2381 2643 2742 
Q 2381 3103 1925 3103 
Q 1469 3103 1208 2742 
Q 947 2381 947 1747 
z
" transform="scale(0.015625)"/>
       <path id="DejaVuSans-6f" d="M 1959 3097 
Q 1497 3097 1228 2736 
Q 959 2375 959 1747 
Q 959 1119 1226 758 
Q 1494 397 1959 397 
Q 2419 397 2687 759 
Q 2956 1122 2956 1747 
Q 2956 2369 2687 2733 
Q 2419 3097 1959 3097 
z
M 1959 3584 
Q 2709 3584 3137 3096 
Q 3566 2609 3566 1747 
Q 3566 888 3137 398 
Q 2709 -91 1959 -91 
Q 1206 -91 779 398 
Q 353 888 353 1747 
Q 353 2609 779 3096 
Q 1206 3584 1959 3584 
z
" transform="scale(0.015625)"/>
      </defs>
      <use xlink:href="#DejaVuSans-56"/>
      <use xlink:href="#DejaVuSans-61" transform="translate(60.658203 0)"/>
      <use xlink:href="#DejaVuSans-6c" transform="translate(121.9375 0)"/>
      <use xlink:href="#DejaVuSans-69" transform="translate(149.720703 0)"/>
      <use xlink:href="#DejaVuSans-64" transform="translate(177.503906 0)"/>
      <use xlink:href="#DejaVuSans-61" transform="translate(240.980469 0)"/>
      <use xlink:href="#DejaVuSans-74" transform="translate(302.259766 0)"/>
      <use xlink:href="#DejaVuSans-69" transform="translate(341.46875 0)"/>
      <use xlink:href="#DejaVuSans-6f" transform="translate(369.251953 0)"/>
      <use xlink:href="#DejaVuSans-6e" transform="translate(430.433594 0)"/>
      <use xlink:href="#DejaVuSans-20" transform="translate(493.8125 0)"/>
      <use xlink:href="#DejaVuSans-6c" transform="translate(525.599609 0)"/>
      <use xlink:href="#DejaVuSans-6f" transform="translate(553.382812 0)"/>
      <use xlink:href="#DejaVuSans-73" transform="translate(614.564453 0)"/>
      <use xlink:href="#DejaVuSans-73" transform="translate(666.664062 0)"/>
     </g>
    </g>
   </g>
   <g id="line2d_12">
    <path d="M 34.572188 20.948783 
L 40.858482 25.636071 
L 47.144776 33.981105 
L 53.43107 40.380694 
L 59.717364 48.097705 
L 66.003658 51.566435 
L 72.289952 52.765657 
L 78.576246 59.909581 
L 84.86254 62.638766 
L 91.148834 69.775872 
L 97.435128 73.544882 
L 103.721422 78.339486 
L 110.007716 89.20771 
L 116.29401 83.229041 
L 122.580304 87.898968 
L 128.866598 91.088042 
L 135.152892 103.092698 
L 141.439186 106.262108 
L 147.72548 105.299149 
L 154.011775 105.980182 
L 160.298069 104.943594 
L 166.584363 108.613041 
L 172.870657 108.096098 
L 179.156951 115.194086 
L 185.443245 112.596232 
L 191.729539 113.810044 
L 198.015833 120.213816 
L 204.302127 110.642207 
L 210.588421 117.171108 
L 216.874715 115.378018 
L 223.161009 125.105514 
L 229.447303 126.729353 
L 235.733597 125.755491 
L 242.019891 125.473095 
L 248.306185 122.688794 
L 254.592479 125.289197 
L 260.878773 129.44851 
L 267.165068 132.69017 
L 273.451362 131.067322 
L 279.737656 122.990365 
L 286.02395 133.617722 
L 292.310244 128.732974 
L 298.596538 128.257757 
L 304.882832 138.53945 
L 311.169126 130.914847 
L 317.45542 124.97095 
L 323.741714 142.454378 
L 330.028008 133.746984 
L 336.314302 132.908681 
L 342.600596 136.855273 
" clip-path="url(#pdd838eb592)" style="fill: none; stroke: #4878cf; stroke-width: 1.5; stroke-linecap: square"/>
   </g>
   <g id="line2d_13">
    <path d="M 34.572188 26.078092 
L 40.858482 33.148127 
L 47.144776 41.72707 
L 53.43107 46.651233 
L 59.717364 57.767882 
L 66.003658 63.917772 
L 72.289952 66.650766 
L 78.576246 75.388114 
L 84.86254 83.801708 
L 91.148834 84.253806 
L 97.435128 87.995539 
L 103.721422 98.760431 
L 110.007716 106.653305 
L 116.29401 107.231015 
L 122.580304 111.616177 
L 128.866598 116.243083 
L 135.152892 114.186301 
L 141.439186 126.469888 
L 147.72548 121.548084 
L 154.011775 134.22618 
L 160.298069 135.437151 
L 166.584363 132.754406 
L 172.870657 133.436935 
L 179.156951 136.908043 
L 185.443245 141.242475 
L 191.729539 144.227747 
L 198.015833 146.189292 
L 204.302127 146.273309 
L 210.588421 151.224915 
L 216.874715 150.878361 
L 223.161009 151.094868 
L 229.447303 154.984737 
L 235.733597 152.910806 
L 242.019891 154.969931 
L 248.306185 149.728679 
L 254.592479 158.170636 
L 260.878773 162.599421 
L 267.165068 163.237978 
L 273.451362 162.381971 
L 279.737656 158.821724 
L 286.02395 165.374926 
L 292.310244 162.614965 
L 298.596538 156.56212 
L 304.882832 178.261603 
L 311.169126 171.537806 
L 317.45542 165.40657 
L 323.741714 165.090417 
L 330.028008 166.247469 
L 336.314302 169.852101 
L 342.600596 164.979914 
" clip-path="url(#pdd838eb592)" style="fill: none; stroke: #6acc65; stroke-width: 1.5; stroke-linecap: square"/>
   </g>
   <g id="patch_3">
    <path d="M 34.572188 228.04 
L 34.572188 7.2 
" style="fill: none; stroke: #000000; stroke-width: 0.8; stroke-linejoin: miter; stroke-linecap: square"/>
   </g>
   <g id="patch_4">
    <path d="M 34.572188 228.04 
L 367.745772 228.04 
" style="fill: none; stroke: #000000; stroke-width: 0.8; stroke-linejoin: miter; stroke-linecap: square"/>
   </g>
   <g id="line2d_14">
    <path d="M 34.572188 24.246642 
L 40.858482 33.878451 
L 47.144776 40.687624 
L 53.43107 54.269902 
L 59.717364 60.038856 
L 66.003658 70.664252 
L 72.289952 73.122579 
L 78.576246 77.93127 
L 84.86254 91.818814 
L 91.148834 91.127456 
L 97.435128 99.040028 
L 103.721422 108.800441 
L 110.007716 120.903359 
L 116.29401 114.632134 
L 122.580304 125.166718 
L 128.866598 132.113222 
L 135.152892 133.011615 
L 141.439186 137.423484 
L 147.72548 137.264706 
L 154.011775 151.717181 
L 160.298069 146.287316 
L 166.584363 148.260766 
L 172.870657 151.630198 
L 179.156951 162.07185 
L 185.443245 167.733992 
L 191.729539 162.164822 
L 198.015833 169.007899 
L 204.302127 171.373349 
L 210.588421 167.268939 
L 216.874715 177.730081 
L 223.161009 190.658233 
L 229.447303 182.227204 
L 235.733597 191.983521 
L 242.019891 179.174528 
L 248.306185 183.26993 
L 254.592479 189.676182 
L 260.878773 187.657377 
L 267.165068 184.248245 
L 273.451362 189.436238 
L 279.737656 183.642749 
L 286.02395 192.171084 
L 292.310244 186.911511 
L 298.596538 185.2327 
L 304.882832 185.304538 
L 311.169126 198.802885 
L 317.45542 190.565324 
L 323.741714 207.352353 
L 330.028008 203.069665 
L 336.314302 209.015111 
L 342.600596 191.515592 
" clip-path="url(#pdd838eb592)" style="fill: none; stroke: #d65f5f; stroke-width: 2.2; stroke-linecap: square"/>
   </g>
   <g id="patch_5">
    <path d="M 345.743743 140.195298 
Q 345.743743 164.183392 345.743743 188.171486 
" style="fill: none; stroke: #888888; stroke-width: 1.2; stroke-linecap: round"/>
    <path d="M 343.743743 144.195298 
L 345.743743 140.195298 
L 347.743743 144.195298 
" style="fill: none; stroke: #888888; stroke-width: 1.2; stroke-linecap: round"/>
    <path d="M 347.743743 184.171486 
L 345.743743 188.171486 
L 343.743743 184.171486 
" style="fill: none; stroke: #888888; stroke-width: 1.2; stroke-linecap: round"/>
   </g>
   <g id="text_10">
    <!-- Δ=0.35 -->
    <g style="fill: #555555" transform="translate(350.144149 164.023962) scale(0.08 -0.08)">
     <defs>
      <path id="DejaVuSans-394" d="M 2188 4044 
L 906 525 
L 3472 525 
L 2188 4044 
z
M 50 0 
L 1831 4666 
L 2547 4666 
L 4325 0 
L 50 0 
z
" transform="scale(0.015625)"/>
      <path id="DejaVuSans-3d" d="M 678 2906 
L 4684 2906 
L 4684 2381 
L 678 2381 
L 678 2906 
z
M 678 1631 
L 4684 1631 
L 4684 1100 
L 678 1100 
L 678 1631 
z
" transform="scale(0.015625)"/>
      <path id="DejaVuSans-2e" d="M 684 794 
L 1344 794 
L 1344 0 
L 684 0 
L 684 794 
z
" transform="scale(0.015625)"/>
     </defs>
     <use xlink:href="#DejaVuSans-394"/>
     <use xlink:href="#DejaVuSans-3d" transform="translate(68.408203 0)"/>
     <use xlink:href="#DejaVuSans-30" transform="translate(152.197266 0)"/>
     <use xlink:href="#DejaVuSans-2e" transform="translate(215.820312 0)"/>
     <use xlink:href="#DejaVuSans-33" transform="translate(247.607422 0)"/>
     <use xlink:href="#DejaVuSans-35" transform="translate(311.230469 0)"/>
    </g>
   </g>
   <g id="legend_1">
    <g id="patch_6">
     <path d="M 289.689054 54.030937 
L 361.445772 54.030937 
Q 363.245772 54.030937 363.245772 52.230937 
L 363.245772 13.5 
Q 363.245772 11.7 361.445772 11.7 
L 289.689054 11.7 
Q 287.889054 11.7 287.889054 13.5 
L 287.889054 52.230937 
Q 287.889054 54.030937 289.689054 54.030937 
z
" style="fill: #ffffff; opacity: 0.9; stroke: #cccccc; stroke-linejoin: miter"/>
    </g>
    <g id="line2d_15">
     <path d="M 291.489054 18.988594 
L 300.489054 18.988594 
L 309.489054 18.988594 
" style="fill: none; stroke: #4878cf; stroke-width: 1.5; stroke-linecap: square"/>
    </g>
    <g id="text_11">
     <!-- Baseline -->
     <g transform="translate(316.689054 22.138594) scale(0.09 -0.09)">
      <defs>
       <path id="DejaVuSans-42" d="M 1259 2228 
L 1259 519 
L 2272 519 
Q 2781 519 3026 730 
Q 3272 941 3272 1375 
Q 3272 1813 3026 2020 
Q 2781 2228 2272 2228 
L 1259 2228 
z
M 1259 4147 
L 1259 2741 
L 2194 2741 
Q 2656 2741 2882 2914 
Q 3109 3088 3109 3444 
Q 3109 3797 2882 3972 
Q 2656 4147 2194 4147 
L 1259 4147 
z
M 628 4666 
L 2241 4666 
Q 2963 4666 3353 4366 
Q 3744 4066 3744 3513 
Q 3744 3084 3544 2831 
Q 3344 2578 2956 2516 
Q 3422 2416 3680 2098 
Q 3938 1781 3938 1306 
Q 3938 681 3513 340 
Q 3088 0 2303 0 
L 628 0 
L 628 4666 
z
" transform="scale(0.015625)"/>
      </defs>
      <use xlink:href="#DejaVuSans-42"/>
      <use xlink:href="#DejaVuSans-61" transform="translate(68.603516 0)"/>
      <use xlink:href="#DejaVuSans-73" transform="translate(129.882812 0)"/>
      <use xlink:href="#DejaVuSans-65" transform="translate(181.982422 0)"/>
      <use xlink:href="#DejaVuSans-6c" transform="translate(243.505859 0)"/>
      <use xlink:href="#DejaVuSans-69" transform="translate(271.289062 0)"/>
      <use xlink:href="#DejaVuSans-6e" transform="translate(299.072266 0)"/>
      <use xlink:href="#DejaVuSans-65" transform="translate(362.451172 0)"/>
     </g>
    </g>
    <g id="line2d_16">
     <path d="M 291.489054 32.198906 
L 300.489054 32.198906 
L 309.489054 32.198906 
" style="fill: none; stroke: #6acc65; stroke-width: 1.5; stroke-linecap: square"/>
    </g>
    <g id="text_12">
     <!-- Method-A -->
     <g transform="translate(316.689054 35.348906) scale(0.09 -0.09)">
      <defs>
       <path id="DejaVuSans-4d" d="M 628 4666 
L 1569 4666 
L 2759 1491 
L 3956 4666 
L 4897 4666 
L 4897 0 
L 4281 0 
L 4281 4097 
L 3078 897 
L 2444 897 
L 1241 4097 
L 1241 0 
L 628 0 
L 628 4666 
z
" transform="scale(0.015625)"/>
       <path id="DejaVuSans-68" d="M 3513 2113 
L 3513 0 
L 2938 0 
L 2938 2094 
Q 2938 2591 2744 2837 
Q 2550 3084 2163 3084 
Q 1697 3084 1428 2787 
Q 1159 2491 1159 1978 
L 1159 0 
L 581 0 
L 581 4863 
L 1159 4863 
L 1159 2956 
Q 1366 3272 1645 3428 
Q 1925 3584 2291 3584 
Q 2894 3584 3203 3211 
Q 3513 2838 3513 2113 
z
" transform="scale(0.015625)"/>
       <path id="DejaVuSans-2d" d="M 313 2009 
L 1997 2009 
L 1997 1497 
L 313 1497 
L 313 2009 
z
" transform="scale(0.015625)"/>
       <path id="DejaVuSans-41" d="M 2188 4044 
L 1331 1722 
L 3047 1722 
L 2188 4044 
z
M 1831 4666 
L 2547 4666 
L 4325 0 
L 3669 0 
L 3244 1197 
L 1141 1197 
L 716 0 
L 50 0 
L 1831 4666 
z
" transform="scale(0.015625)"/>
      </defs>
      <use xlink:href="#DejaVuSans-4d"/>
      <use xlink:href="#DejaVuSans-65" transform="translate(86.279297 0)"/>
      <use xlink:href="#DejaVuSans-74" transform="translate(147.802734 0)"/>
      <use xlink:href="#DejaVuSans-68" transform="translate(187.011719 0)"/>
      <use xlink:href="#DejaVuSans-6f" transform="translate(250.390625 0)"/>
      <use xlink:href="#DejaVuSans-64" transform="translate(311.572266 0)"/>
      <use xlink:href="#DejaVuSans-2d" transform="translate(375.048828 0)"/>
      <use xlink:href="#DejaVuSans-41" transform="translate(408.882812 0)"/>
     </g>
    </g>
    <g id="line2d_17">
     <path d="M 291.489054 45.409219 
L 300.489054 45.409219 
L 309.489054 45.409219 
" style="fill: none; stroke: #d65f5f; stroke-width: 2.2; stroke-linecap: square"/>
    </g>
    <g id="text_13">
     <!-- Ours -->
     <g transform="translate(316.689054 48.559219) scale(0.09 -0.09)">
      <defs>
       <path id="DejaVuSans-4f" d="M 2522 4238 
Q 1834 4238 1429 3725 
Q 1025 3213 1025 2328 
Q 1025 1447 1429 934 
Q 1834 422 2522 422 
Q 3209 422 3611 934 
Q 4013 1447 4013 2328 
Q 4013 3213 3611 3725 
Q 3209 4238 2522 4238 
z
M 2522 4750 
Q 3503 4750 4090 4092 
Q 4678 3434 4678 2328 
Q 4678 1225 4090 567 
Q 3503 -91 2522 -91 
Q 1538 -91 948 565 
Q 359 1222 359 2328 
Q 359 3434 948 4092 
Q 1538 4750 2522 4750 
z
" transform="scale(0.015625)"/>
       <path id="DejaVuSans-75" d="M 544 1381 
L 544 3500 
L 1119 3500 
L 1119 1403 
Q 1119 906 1312 657 
Q 1506 409 1894 409 
Q 2359 409 2629 706 
Q 2900 1003 2900 1516 
L 2900 3500 
L 3475 3500 
L 3475 0 
L 2900 0 
L 2900 538 
Q 2691 219 2414 64 
Q 2138 -91 1772 -91 
Q 1169 -91 856 284 
Q 544 659 544 1381 
z
M 1991 3584 
L 1991 3584 
z
" transform="scale(0.015625)"/>
      </defs>
      <use xlink:href="#DejaVuSans-4f"/>
      <use xlink:href="#DejaVuSans-75" transform="translate(78.710938 0)"/>
      <use xlink:href="#DejaVuSans-72" transform="translate(142.089844 0)"/>
      <use xlink:href="#DejaVuSans-73" transform="translate(183.203125 0)"/>
     </g>
    </g>
   </g>
  </g>
 </g>
 <defs>
  <clipPath id="pdd838eb592">
   <rect x="34.572188" y="7.2" width="333.173585" height="220.84"/>
  </clipPath>
 </defs>
</svg>
