<?xml version="1.0" encoding="utf-8" standalone="no"?>
<!DOCTYPE svg PUBLIC "-//W3C//DTD SVG 1.1//EN"
  "http://www.w3.org/Graphics/SVG/1.1/DTD/svg11.dtd">
<svg xmlns:xlink="http://www.w3.org/1999/xlink" width="495.664339pt" height="279.99625pt" viewBox="0 0 495.664339 279.99625" xmlns="http://www.w3.org/2000/svg" version="1.1">
 <metadata>
  <rdf:RDF xmlns:dc="http://purl.org/dc/elements/1.1/" xmlns:cc="http://creativecommons.org/ns#" xmlns:rdf="http://www.w3.org/1999/02/22-rdf-syntax-ns#">
   <cc:Work>
    <dc:type rdf:resource="http://purl.org/dc/dcmitype/StillImage"/>
    <dc:date>2026-05-25T00:32:11.156198</dc:date>
    <dc:format>image/svg+xml</dc:format>
    <dc:creator>
     <cc:Agent>
      <dc:title>Matplotlib v3.10.9, https://matplotlib.org/</dc:title>
     </cc:Agent>
    </dc:creator>
   </cc:Work>
  </rdf:RDF>
 </metadata>
 <defs>
  <style type="text/css">*{stroke-linejoin: round; stroke-linecap: butt}</style>
 </defs>
 <g id="figure_1">
  <g id="patch_1">
   <path d="M 0 279.99625 
L 495.664339 279.99625 
L 495.664339 0 
L 0 0 
z
" style="fill: #ffffff"/>
  </g>
  <g id="axes_1">
   <g id="patch_2">
    <path d="M 44.685938 242.44 
L 452.505589 242.44 
L 452.505589 7.2 
L 44.685938 7.2 
z
" style="fill: #ffffff"/>
   </g>
   <g id="matplotlib.axis_1">
    <g id="xtick_1">
     <g id="line2d_1">
      <defs>
       <path id="mb4ccac9645" d="M 0 0 
L 0 3.5 
" style="stroke: #000000; stroke-width: 0.8"/>
      </defs>
      <g>
       <use xlink:href="#mb4ccac9645" x="44.685938" y="242.44" style="stroke: #000000; stroke-width: 0.8"/>
      </g>
     </g>
     <g id="text_1">
      <!-- 0 -->
      <g transform="translate(41.822813 256.278594) scale(0.09 -0.09)">
       <defs>
        <path id="DejaVuSans-30" d="M 2034 4250 
Q 1547 4250 1301 3770 
Q 1056 3291 1056 2328 
Q 1056 1369 1301 889 
Q 1547 409 2034 409 
Q 2525 409 2770 889 
Q 3016 1369 3016 2328 
Q 3016 3291 2770 3770 
Q 2525 4250 2034 4250 
z
M 2034 4750 
Q 2819 4750 3233 4129 
Q 3647 3509 3647 2328 
Q 3647 1150 3233 529 
Q 2819 -91 2034 -91 
Q 1250 -91 836 529 
Q 422 1150 422 2328 
Q 422 3509 836 4129 
Q 1250 4750 2034 4750 
z
" transform="scale(0.015625)"/>
       </defs>
       <use xlink:href="#DejaVuSans-30"/>
      </g>
     </g>
    </g>
    <g id="xtick_2">
     <g id="line2d_2">
      <g>
       <use xlink:href="#mb4ccac9645" x="95.919562" y="242.44" style="stroke: #000000; stroke-width: 0.8"/>
      </g>
     </g>
     <g id="text_2">
      <!-- 25 -->
      <g transform="translate(90.193312 256.278594) scale(0.09 -0.09)">
       <defs>
        <path id="DejaVuSans-32" d="M 1228 531 
L 3431 531 
L 3431 0 
L 469 0 
L 469 531 
Q 828 903 1448 1529 
Q 2069 2156 2228 2338 
Q 2531 2678 2651 2914 
Q 2772 3150 2772 3378 
Q 2772 3750 2511 3984 
Q 2250 4219 1831 4219 
Q 1534 4219 1204 4116 
Q 875 4013 500 3803 
L 500 4441 
Q 881 4594 1212 4672 
Q 1544 4750 1819 4750 
Q 2544 4750 2975 4387 
Q 3406 4025 3406 3419 
Q 3406 3131 3298 2873 
Q 3191 2616 2906 2266 
Q 2828 2175 2409 1742 
Q 1991 1309 1228 531 
z
" transform="scale(0.015625)"/>
        <path id="DejaVuSans-35" d="M 691 4666 
L 3169 4666 
L 3169 4134 
L 1269 4134 
L 1269 2991 
Q 1406 3038 1543 3061 
Q 1681 3084 1819 3084 
Q 2600 3084 3056 2656 
Q 3513 2228 3513 1497 
Q 3513 744 3044 326 
Q 2575 -91 1722 -91 
Q 1428 -91 1123 -41 
Q 819 9 494 109 
L 494 744 
Q 775 591 1075 516 
Q 1375 441 1709 441 
Q 2250 441 2565 725 
Q 2881 1009 2881 1497 
Q 2881 1984 2565 2268 
Q 2250 2553 1709 2553 
Q 1456 2553 1204 2497 
Q 953 2441 691 2322 
L 691 4666 
z
" transform="scale(0.015625)"/>
       </defs>
       <use xlink:href="#DejaVuSans-32"/>
       <use xlink:href="#DejaVuSans-35" transform="translate(63.623047 0)"/>
      </g>
     </g>
    </g>
    <g id="xtick_3">
     <g id="line2d_3">
      <g>
       <use xlink:href="#mb4ccac9645" x="147.153187" y="242.44" style="stroke: #000000; stroke-width: 0.8"/>
      </g>
     </g>
     <g id="text_3">
      <!-- 50 -->
      <g transform="translate(141.426937 256.278594) scale(0.09 -0.09)">
       <use xlink:href="#DejaVuSans-35"/>
       <use xlink:href="#DejaVuSans-30" transform="translate(63.623047 0)"/>
      </g>
     </g>
    </g>
    <g id="xtick_4">
     <g id="line2d_4">
      <g>
       <use xlink:href="#mb4ccac9645" x="198.386811" y="242.44" style="stroke: #000000; stroke-width: 0.8"/>
      </g>
     </g>
     <g id="text_4">
      <!-- 75 -->
      <g transform="translate(192.660561 256.278594) scale(0.09 -0.09)">
       <defs>
        <path id="DejaVuSans-37" d="M 525 4666 
L 3525 4666 
L 3525 4397 
L 1831 0 
L 1172 0 
L 2766 4134 
L 525 4134 
L 525 4666 
z
" transform="scale(0.015625)"/>
       </defs>
       <use xlink:href="#DejaVuSans-37"/>
       <use xlink:href="#DejaVuSans-35" transform="translate(63.623047 0)"/>
      </g>
     </g>
    </g>
    <g id="xtick_5">
     <g id="line2d_5">
      <g>
       <use xlink:href="#mb4ccac9645" x="249.620436" y="242.44" style="stroke: #000000; stroke-width: 0.8"/>
      </g>
     </g>
     <g id="text_5">
      <!-- 100 -->
      <g transform="translate(241.031061 256.278594) scale(0.09 -0.09)">
       <defs>
        <path id="DejaVuSans-31" d="M 794 531 
L 1825 531 
L 1825 4091 
L 703 3866 
L 703 4441 
L 1819 4666 
L 2450 4666 
L 2450 531 
L 3481 531 
L 3481 0 
L 794 0 
L 794 531 
z
" transform="scale(0.015625)"/>
       </defs>
       <use xlink:href="#DejaVuSans-31"/>
       <use xlink:href="#DejaVuSans-30" transform="translate(63.623047 0)"/>
       <use xlink:href="#DejaVuSans-30" transform="translate(127.246094 0)"/>
      </g>
     </g>
    </g>
    <g id="xtick_6">
     <g id="line2d_6">
      <g>
       <use xlink:href="#mb4ccac9645" x="300.85406" y="242.44" style="stroke: #000000; stroke-width: 0.8"/>
      </g>
     </g>
     <g id="text_6">
      <!-- 125 -->
      <g transform="translate(292.264685 256.278594) scale(0.09 -0.09)">
       <use xlink:href="#DejaVuSans-31"/>
       <use xlink:href="#DejaVuSans-32" transform="translate(63.623047 0)"/>
       <use xlink:href="#DejaVuSans-35" transform="translate(127.246094 0)"/>
      </g>
     </g>
    </g>
    <g id="xtick_7">
     <g id="line2d_7">
      <g>
       <use xlink:href="#mb4ccac9645" x="352.087685" y="242.44" style="stroke: #000000; stroke-width: 0.8"/>
      </g>
     </g>
     <g id="text_7">
      <!-- 150 -->
      <g transform="translate(343.49831 256.278594) scale(0.09 -0.09)">
       <use xlink:href="#DejaVuSans-31"/>
       <use xlink:href="#DejaVuSans-35" transform="translate(63.623047 0)"/>
       <use xlink:href="#DejaVuSans-30" transform="translate(127.246094 0)"/>
      </g>
     </g>
    </g>
    <g id="xtick_8">
     <g id="line2d_8">
      <g>
       <use xlink:href="#mb4ccac9645" x="403.321309" y="242.44" style="stroke: #000000; stroke-width: 0.8"/>
      </g>
     </g>
     <g id="text_8">
      <!-- 175 -->
      <g transform="translate(394.731934 256.278594) scale(0.09 -0.09)">
       <use xlink:href="#DejaVuSans-31"/>
       <use xlink:href="#DejaVuSans-37" transform="translate(63.623047 0)"/>
       <use xlink:href="#DejaVuSans-35" transform="translate(127.246094 0)"/>
      </g>
     </g>
    </g>
    <g id="text_9">
     <!-- Training step -->
     <g transform="translate(213.252248 270.508594) scale(0.11 -0.11)">
      <defs>
       <path id="DejaVuSans-54" d="M -19 4666 
L 3928 4666 
L 3928 4134 
L 2272 4134 
L 2272 0 
L 1638 0 
L 1638 4134 
L -19 4134 
L -19 4666 
z
" transform="scale(0.015625)"/>
       <path id="DejaVuSans-72" d="M 2631 2963 
Q 2534 3019 2420 3045 
Q 2306 3072 2169 3072 
Q 1681 3072 1420 2755 
Q 1159 2438 1159 1844 
L 1159 0 
L 581 0 
L 581 3500 
L 1159 3500 
L 1159 2956 
Q 1341 3275 1631 3429 
Q 1922 3584 2338 3584 
Q 2397 3584 2469 3576 
Q 2541 3569 2628 3553 
L 2631 2963 
z
" transform="scale(0.015625)"/>
       <path id="DejaVuSans-61" d="M 2194 1759 
Q 1497 1759 1228 1600 
Q 959 1441 959 1056 
Q 959 750 1161 570 
Q 1363 391 1709 391 
Q 2188 391 2477 730 
Q 2766 1069 2766 1631 
L 2766 1759 
L 2194 1759 
z
M 3341 1997 
L 3341 0 
L 2766 0 
L 2766 531 
Q 2569 213 2275 61 
Q 1981 -91 1556 -91 
Q 1019 -91 701 211 
Q 384 513 384 1019 
Q 384 1609 779 1909 
Q 1175 2209 1959 2209 
L 2766 2209 
L 2766 2266 
Q 2766 2663 2505 2880 
Q 2244 3097 1772 3097 
Q 1472 3097 1187 3025 
Q 903 2953 641 2809 
L 641 3341 
Q 956 3463 1253 3523 
Q 1550 3584 1831 3584 
Q 2591 3584 2966 3190 
Q 3341 2797 3341 1997 
z
" transform="scale(0.015625)"/>
       <path id="DejaVuSans-69" d="M 603 3500 
L 1178 3500 
L 1178 0 
L 603 0 
L 603 3500 
z
M 603 4863 
L 1178 4863 
L 1178 4134 
L 603 4134 
L 603 4863 
z
" transform="scale(0.015625)"/>
       <path id="DejaVuSans-6e" d="M 3513 2113 
L 3513 0 
L 2938 0 
L 2938 2094 
Q 2938 2591 2744 2837 
Q 2550 3084 2163 3084 
Q 1697 3084 1428 2787 
Q 1159 2491 1159 1978 
L 1159 0 
L 581 0 
L 581 3500 
L 1159 3500 
L 1159 2956 
Q 1366 3272 1645 3428 
Q 1925 3584 2291 3584 
Q 2894 3584 3203 3211 
Q 3513 2838 3513 2113 
z
" transform="scale(0.015625)"/>
       <path id="DejaVuSans-67" d="M 2906 1791 
Q 2906 2416 2648 2759 
Q 2391 3103 1925 3103 
Q 1463 3103 1205 2759 
Q 947 2416 947 1791 
Q 947 1169 1205 825 
Q 1463 481 1925 481 
Q 2391 481 2648 825 
Q 2906 1169 2906 1791 
z
M 3481 434 
Q 3481 -459 3084 -895 
Q 2688 -1331 1869 -1331 
Q 1566 -1331 1297 -1286 
Q 1028 -1241 775 -1147 
L 775 -588 
Q 1028 -725 1275 -790 
Q 1522 -856 1778 -856 
Q 2344 -856 2625 -561 
Q 2906 -266 2906 331 
L 2906 616 
Q 2728 306 2450 153 
Q 2172 0 1784 0 
Q 1141 0 747 490 
Q 353 981 353 1791 
Q 353 2603 747 3093 
Q 1141 3584 1784 3584 
Q 2172 3584 2450 3431 
Q 2728 3278 2906 2969 
L 2906 3500 
L 3481 3500 
L 3481 434 
z
" transform="scale(0.015625)"/>
       <path id="DejaVuSans-20" transform="scale(0.015625)"/>
       <path id="DejaVuSans-73" d="M 2834 3397 
L 2834 2853 
Q 2591 2978 2328 3040 
Q 2066 3103 1784 3103 
Q 1356 3103 1142 2972 
Q 928 2841 928 2578 
Q 928 2378 1081 2264 
Q 1234 2150 1697 2047 
L 1894 2003 
Q 2506 1872 2764 1633 
Q 3022 1394 3022 966 
Q 3022 478 2636 193 
Q 2250 -91 1575 -91 
Q 1294 -91 989 -36 
Q 684 19 347 128 
L 347 722 
Q 666 556 975 473 
Q 1284 391 1588 391 
Q 1994 391 2212 530 
Q 2431 669 2431 922 
Q 2431 1156 2273 1281 
Q 2116 1406 1581 1522 
L 1381 1569 
Q 847 1681 609 1914 
Q 372 2147 372 2553 
Q 372 3047 722 3315 
Q 1072 3584 1716 3584 
Q 2034 3584 2315 3537 
Q 2597 3491 2834 3397 
z
" transform="scale(0.015625)"/>
       <path id="DejaVuSans-74" d="M 1172 4494 
L 1172 3500 
L 2356 3500 
L 2356 3053 
L 1172 3053 
L 1172 1153 
Q 1172 725 1289 603 
Q 1406 481 1766 481 
L 2356 481 
L 2356 0 
L 1766 0 
Q 1100 0 847 248 
Q 594 497 594 1153 
L 594 3053 
L 172 3053 
L 172 3500 
L 594 3500 
L 594 4494 
L 1172 4494 
z
" transform="scale(0.015625)"/>
       <path id="DejaVuSans-65" d="M 3597 1894 
L 3597 1613 
L 953 1613 
Q 991 1019 1311 708 
Q 1631 397 2203 397 
Q 2534 397 2845 478 
Q 3156 559 3463 722 
L 3463 178 
Q 3153 47 2828 -22 
Q 2503 -91 2169 -91 
Q 1331 -91 842 396 
Q 353 884 353 1716 
Q 353 2575 817 3079 
Q 1281 3584 2069 3584 
Q 2775 3584 3186 3129 
Q 3597 2675 3597 1894 
z
M 3022 2063 
Q 3016 2534 2758 2815 
Q 2500 3097 2075 3097 
Q 1594 3097 1305 2825 
Q 1016 2553 972 2059 
L 3022 2063 
z
" transform="scale(0.015625)"/>
       <path id="DejaVuSans-70" d="M 1159 525 
L 1159 -1331 
L 581 -1331 
L 581 3500 
L 1159 3500 
L 1159 2969 
Q 1341 3281 1617 3432 
Q 1894 3584 2278 3584 
Q 2916 3584 3314 3078 
Q 3713 2572 3713 1747 
Q 3713 922 3314 415 
Q 2916 -91 2278 -91 
Q 1894 -91 1617 61 
Q 1341 213 1159 525 
z
M 3116 1747 
Q 3116 2381 2855 2742 
Q 2594 3103 2138 3103 
Q 1681 3103 1420 2742 
Q 1159 2381 1159 1747 
Q 1159 1113 1420 752 
Q 1681 391 2138 391 
Q 2594 391 2855 752 
Q 3116 1113 3116 1747 
z
" transform="scale(0.015625)"/>
      </defs>
      <use xlink:href="#DejaVuSans-54"/>
      <use xlink:href="#DejaVuSans-72" transform="translate(46.333984 0)"/>
      <use xlink:href="#DejaVuSans-61" transform="translate(87.447266 0)"/>
      <use xlink:href="#DejaVuSans-69" transform="translate(148.726562 0)"/>
      <use xlink:href="#DejaVuSans-6e" transform="translate(176.509766 0)"/>
      <use xlink:href="#DejaVuSans-69" transform="translate(239.888672 0)"/>
      <use xlink:href="#DejaVuSans-6e" transform="translate(267.671875 0)"/>
      <use xlink:href="#DejaVuSans-67" transform="translate(331.050781 0)"/>
      <use xlink:href="#DejaVuSans-20" transform="translate(394.527344 0)"/>
      <use xlink:href="#DejaVuSans-73" transform="translate(426.314453 0)"/>
      <use xlink:href="#DejaVuSans-74" transform="translate(478.414062 0)"/>
      <use xlink:href="#DejaVuSans-65" transform="translate(517.623047 0)"/>
      <use xlink:href="#DejaVuSans-70" transform="translate(579.146484 0)"/>
     </g>
    </g>
   </g>
   <g id="matplotlib.axis_2">
    <g id="ytick_1">
     <g id="line2d_9">
      <defs>
       <path id="m9be3661a2a" d="M 0 0 
L -3.5 0 
" style="stroke: #1f77b4; stroke-width: 0.8"/>
      </defs>
      <g>
       <use xlink:href="#m9be3661a2a" x="44.685938" y="89.170237" style="fill: #1f77b4; stroke: #1f77b4; stroke-width: 0.8"/>
      </g>
     </g>
     <g id="text_10">
      <!-- $\mathdefault{10^{0}}$ -->
      <g style="fill: #1f77b4" transform="translate(21.845938 92.589534) scale(0.09 -0.09)">
       <use xlink:href="#DejaVuSans-31" transform="translate(0 0.765625)"/>
       <use xlink:href="#DejaVuSans-30" transform="translate(63.623047 0.765625)"/>
       <use xlink:href="#DejaVuSans-30" transform="translate(128.203125 39.046875) scale(0.7)"/>
      </g>
     </g>
    </g>
    <g id="ytick_2">
     <g id="line2d_10">
      <defs>
       <path id="me42f0e4572" d="M 0 0 
L -2 0 
" style="stroke: #000000; stroke-width: 0.6"/>
      </defs>
      <g>
       <use xlink:href="#me42f0e4572" x="44.685938" y="235.621903" style="stroke: #000000; stroke-width: 0.6"/>
      </g>
     </g>
    </g>
    <g id="ytick_3">
     <g id="line2d_11">
      <g>
       <use xlink:href="#me42f0e4572" x="44.685938" y="198.726388" style="stroke: #000000; stroke-width: 0.6"/>
      </g>
     </g>
    </g>
    <g id="ytick_4">
     <g id="line2d_12">
      <g>
       <use xlink:href="#me42f0e4572" x="44.685938" y="172.548604" style="stroke: #000000; stroke-width: 0.6"/>
      </g>
     </g>
    </g>
    <g id="ytick_5">
     <g id="line2d_13">
      <g>
       <use xlink:href="#me42f0e4572" x="44.685938" y="152.243537" style="stroke: #000000; stroke-width: 0.6"/>
      </g>
     </g>
    </g>
    <g id="ytick_6">
     <g id="line2d_14">
      <g>
       <use xlink:href="#me42f0e4572" x="44.685938" y="135.653089" style="stroke: #000000; stroke-width: 0.6"/>
      </g>
     </g>
    </g>
    <g id="ytick_7">
     <g id="line2d_15">
      <g>
       <use xlink:href="#me42f0e4572" x="44.685938" y="121.626065" style="stroke: #000000; stroke-width: 0.6"/>
      </g>
     </g>
    </g>
    <g id="ytick_8">
     <g id="line2d_16">
      <g>
       <use xlink:href="#me42f0e4572" x="44.685938" y="109.475304" style="stroke: #000000; stroke-width: 0.6"/>
      </g>
     </g>
    </g>
    <g id="ytick_9">
     <g id="line2d_17">
      <g>
       <use xlink:href="#me42f0e4572" x="44.685938" y="98.757574" style="stroke: #000000; stroke-width: 0.6"/>
      </g>
     </g>
    </g>
    <g id="ytick_10">
     <g id="line2d_18">
      <g>
       <use xlink:href="#me42f0e4572" x="44.685938" y="26.096938" style="stroke: #000000; stroke-width: 0.6"/>
      </g>
     </g>
    </g>
    <g id="text_11">
     <!-- Training loss (log scale) -->
     <g style="fill: #1f77b4" transform="translate(15.558281 189.234453) rotate(-90) scale(0.11 -0.11)">
      <defs>
       <path id="DejaVuSans-6c" d="M 603 4863 
L 1178 4863 
L 1178 0 
L 603 0 
L 603 4863 
z
" transform="scale(0.015625)"/>
       <path id="DejaVuSans-6f" d="M 1959 3097 
Q 1497 3097 1228 2736 
Q 959 2375 959 1747 
Q 959 1119 1226 758 
Q 1494 397 1959 397 
Q 2419 397 2687 759 
Q 2956 1122 2956 1747 
Q 2956 2369 2687 2733 
Q 2419 3097 1959 3097 
z
M 1959 3584 
Q 2709 3584 3137 3096 
Q 3566 2609 3566 1747 
Q 3566 888 3137 398 
Q 2709 -91 1959 -91 
Q 1206 -91 779 398 
Q 353 888 353 1747 
Q 353 2609 779 3096 
Q 1206 3584 1959 3584 
z
" transform="scale(0.015625)"/>
       <path id="DejaVuSans-28" d="M 1984 4856 
Q 1566 4138 1362 3434 
Q 1159 2731 1159 2009 
Q 1159 1288 1364 580 
Q 1569 -128 1984 -844 
L 1484 -844 
Q 1016 -109 783 600 
Q 550 1309 550 2009 
Q 550 2706 781 3412 
Q 1013 4119 1484 4856 
L 1984 4856 
z
" transform="scale(0.015625)"/>
       <path id="DejaVuSans-63" d="M 3122 3366 
L 3122 2828 
Q 2878 2963 2633 3030 
Q 2388 3097 2138 3097 
Q 1578 3097 1268 2742 
Q 959 2388 959 1747 
Q 959 1106 1268 751 
Q 1578 397 2138 397 
Q 2388 397 2633 464 
Q 2878 531 3122 666 
L 3122 134 
Q 2881 22 2623 -34 
Q 2366 -91 2075 -91 
Q 1284 -91 818 406 
Q 353 903 353 1747 
Q 353 2603 823 3093 
Q 1294 3584 2113 3584 
Q 2378 3584 2631 3529 
Q 2884 3475 3122 3366 
z
" transform="scale(0.015625)"/>
       <path id="DejaVuSans-29" d="M 513 4856 
L 1013 4856 
Q 1481 4119 1714 3412 
Q 1947 2706 1947 2009 
Q 1947 1309 1714 600 
Q 1481 -109 1013 -844 
L 513 -844 
Q 928 -128 1133 580 
Q 1338 1288 1338 2009 
Q 1338 2731 1133 3434 
Q 928 4138 513 4856 
z
" transform="scale(0.015625)"/>
      </defs>
      <use xlink:href="#DejaVuSans-54"/>
      <use xlink:href="#DejaVuSans-72" transform="translate(46.333984 0)"/>
      <use xlink:href="#DejaVuSans-61" transform="translate(87.447266 0)"/>
      <use xlink:href="#DejaVuSans-69" transform="translate(148.726562 0)"/>
      <use xlink:href="#DejaVuSans-6e" transform="translate(176.509766 0)"/>
      <use xlink:href="#DejaVuSans-69" transform="translate(239.888672 0)"/>
      <use xlink:href="#DejaVuSans-6e" transform="translate(267.671875 0)"/>
      <use xlink:href="#DejaVuSans-67" transform="translate(331.050781 0)"/>
      <use xlink:href="#DejaVuSans-20" transform="translate(394.527344 0)"/>
      <use xlink:href="#DejaVuSans-6c" transform="translate(426.314453 0)"/>
      <use xlink:href="#DejaVuSans-6f" transform="translate(454.097656 0)"/>
      <use xlink:href="#DejaVuSans-73" transform="translate(515.279297 0)"/>
      <use xlink:href="#DejaVuSans-73" transform="translate(567.378906 0)"/>
      <use xlink:href="#DejaVuSans-20" transform="translate(619.478516 0)"/>
      <use xlink:href="#DejaVuSans-28" transform="translate(651.265625 0)"/>
      <use xlink:href="#DejaVuSans-6c" transform="translate(690.279297 0)"/>
      <use xlink:href="#DejaVuSans-6f" transform="translate(718.0625 0)"/>
      <use xlink:href="#DejaVuSans-67" transform="translate(779.244141 0)"/>
      <use xlink:href="#DejaVuSans-20" transform="translate(842.720703 0)"/>
      <use xlink:href="#DejaVuSans-73" transform="translate(874.507812 0)"/>
      <use xlink:href="#DejaVuSans-63" transform="translate(926.607422 0)"/>
      <use xlink:href="#DejaVuSans-61" transform="translate(981.587891 0)"/>
      <use xlink:href="#DejaVuSans-6c" transform="translate(1042.867188 0)"/>
      <use xlink:href="#DejaVuSans-65" transform="translate(1070.650391 0)"/>
      <use xlink:href="#DejaVuSans-29" transform="translate(1132.173828 0)"/>
     </g>
    </g>
   </g>
   <g id="line2d_19">
    <path d="M 44.685938 17.892727 
L 46.735282 19.660094 
L 48.784627 21.61393 
L 50.833972 22.279006 
L 52.883317 23.411636 
L 54.932662 25.182493 
L 56.982007 25.833432 
L 59.031352 27.467592 
L 61.080697 30.353453 
L 63.130042 30.229578 
L 65.179387 32.436749 
L 67.228732 31.959949 
L 69.278077 37.672349 
L 71.327422 36.461042 
L 73.376767 36.936456 
L 75.426112 37.80679 
L 77.475457 41.282398 
L 79.524802 41.567777 
L 81.574147 42.478336 
L 83.623492 44.901641 
L 85.672837 44.901641 
L 87.722182 47.759958 
L 89.771527 49.17952 
L 91.820872 48.304219 
L 93.870217 51.935638 
L 95.919562 52.755232 
L 97.968907 51.087427 
L 100.018252 53.46542 
L 102.067597 56.782682 
L 104.116942 57.217181 
L 106.166287 59.901648 
L 108.215632 61.693704 
L 110.264977 62.206471 
L 112.314322 61.882282 
L 114.363667 63.556092 
L 116.413012 66.636009 
L 118.462357 70.030058 
L 120.511702 66.394811 
L 122.561047 70.436503 
L 124.610392 69.62542 
L 126.659737 70.904309 
L 128.709082 71.456885 
L 130.758427 75.500095 
L 132.807772 77.399036 
L 134.857117 78.169849 
L 136.906462 77.823781 
L 138.955807 79.297622 
L 141.005152 82.818214 
L 143.054497 81.478844 
L 145.103842 84.999601 
L 147.153187 84.843281 
L 149.202532 86.480518 
L 151.251877 86.454018 
L 153.301222 84.143146 
L 155.350567 90.934342 
L 157.399912 93.608104 
L 159.449257 94.423869 
L 161.498602 93.464902 
L 163.547946 94.346779 
L 165.597291 94.819986 
L 167.646636 99.071544 
L 169.695981 100.874915 
L 171.745326 99.764071 
L 173.794671 97.892189 
L 175.844016 100.143113 
L 177.893361 101.040644 
L 179.942706 103.212428 
L 181.992051 103.339932 
L 184.041396 107.896656 
L 186.090741 105.40468 
L 188.140086 107.439475 
L 190.189431 108.378619 
L 192.238776 112.43477 
L 194.288121 113.522284 
L 196.337466 115.129894 
L 198.386811 111.650875 
L 200.436156 119.442581 
L 202.485501 118.269893 
L 204.534846 117.819976 
L 206.584191 122.869461 
L 208.633536 120.207254 
L 210.682881 119.087921 
L 212.732226 121.314614 
L 214.781571 127.145885 
L 216.830916 125.124286 
L 218.880261 128.931262 
L 220.929606 134.612611 
L 222.978951 126.156793 
L 225.028296 127.79739 
L 227.077641 134.507717 
L 229.126986 128.678067 
L 231.176331 130.350878 
L 233.225676 127.367151 
L 235.275021 133.539433 
L 237.324366 131.314564 
L 239.373711 137.972452 
L 241.423056 138.816457 
L 243.472401 133.317438 
L 245.521746 137.630831 
L 247.571091 135.987352 
L 249.620436 142.8785 
L 251.669781 143.40544 
L 253.719126 141.606727 
L 255.768471 147.699914 
L 257.817816 143.885628 
L 259.867161 152.09806 
L 261.916506 155.428891 
L 263.965851 150.799133 
L 266.015196 148.151161 
L 268.064541 144.218275 
L 270.113886 152.736244 
L 272.163231 152.535189 
L 274.212576 154.940172 
L 276.261921 153.989088 
L 278.311266 151.464321 
L 280.360611 154.752899 
L 282.409955 156.357135 
L 284.4593 157.352678 
L 286.508645 160.705472 
L 288.55799 157.719168 
L 290.607335 154.32363 
L 292.65668 166.967824 
L 294.706025 155.334702 
L 296.75537 174.085688 
L 298.804715 172.525858 
L 300.85406 163.442539 
L 302.903405 168.957823 
L 304.95275 158.710266 
L 307.002095 166.17961 
L 309.05144 176.548029 
L 311.100785 170.235129 
L 313.15013 169.418228 
L 315.199475 167.203481 
L 317.24882 175.696271 
L 319.298165 181.130455 
L 321.34751 180.88081 
L 323.396855 171.081812 
L 325.4462 170.702058 
L 327.495545 185.666438 
L 329.54489 176.002931 
L 331.594235 181.833126 
L 333.64358 178.567031 
L 335.692925 176.452995 
L 337.74227 182.110667 
L 339.791615 182.085401 
L 341.84096 192.654836 
L 343.890305 183.178225 
L 345.93965 176.405515 
L 347.988995 187.766326 
L 350.03834 183.254961 
L 352.087685 183.588231 
L 354.13703 174.829082 
L 356.186375 192.11732 
L 358.23572 183.716738 
L 360.285065 190.357413 
L 362.33441 189.77826 
L 364.383755 190.246813 
L 366.4331 200.874781 
L 368.482445 188.143566 
L 370.53179 196.302092 
L 372.581135 191.835687 
L 374.63048 188.793924 
L 376.679825 195.420345 
L 378.72917 204.002517 
L 380.778515 201.90546 
L 382.82786 192.456434 
L 386.92655 187.176662 
L 388.975895 205.591291 
L 391.02524 197.581017 
L 393.074585 198.514313 
L 395.12393 204.098996 
L 397.173275 201.623206 
L 399.22262 207.141733 
L 401.271964 200.719631 
L 403.321309 205.004432 
L 405.370654 204.421333 
L 407.419999 194.953551 
L 409.469344 210.496631 
L 411.518689 203.906141 
L 413.568034 209.26231 
L 417.666724 206.577881 
L 419.716069 206.577881 
L 421.765414 205.72222 
L 423.814759 212.803979 
L 425.864104 204.227794 
L 427.913449 216.636698 
L 429.962794 217.303878 
L 432.012139 215.681548 
L 434.061484 202.220106 
L 436.110829 202.599123 
L 438.160174 214.917334 
L 440.209519 199.121559 
L 442.258864 209.774577 
L 444.308209 223.619131 
L 446.357554 210.083327 
L 448.406899 220.792467 
L 450.456244 222.548816 
L 452.505589 231.747273 
L 452.505589 231.747273 
" clip-path="url(#p1252ba9f76)" style="fill: none; stroke: #1f77b4; stroke-width: 1.6; stroke-linecap: square"/>
   </g>
   <g id="patch_3">
    <path d="M 44.685938 242.44 
L 44.685938 7.2 
" style="fill: none; stroke: #1f77b4; stroke-width: 0.8; stroke-linejoin: miter; stroke-linecap: square"/>
   </g>
   <g id="patch_4">
    <path d="M 452.505589 242.44 
L 452.505589 7.2 
" style="fill: none; stroke: #000000; stroke-width: 0.8; stroke-linejoin: miter; stroke-linecap: square"/>
   </g>
   <g id="patch_5">
    <path d="M 44.685938 242.44 
L 452.505589 242.44 
" style="fill: none; stroke: #000000; stroke-width: 0.8; stroke-linejoin: miter; stroke-linecap: square"/>
   </g>
   <g id="patch_6">
    <path d="M 44.685938 7.2 
L 452.505589 7.2 
" style="fill: none; stroke: #000000; stroke-width: 0.8; stroke-linejoin: miter; stroke-linecap: square"/>
   </g>
   <g id="legend_1">
    <g id="patch_7">
     <path d="M 319.95387 40.820625 
L 446.205589 40.820625 
Q 448.005589 40.820625 448.005589 39.020625 
L 448.005589 13.5 
Q 448.005589 11.7 446.205589 11.7 
L 319.95387 11.7 
Q 318.15387 11.7 318.15387 13.5 
L 318.15387 39.020625 
Q 318.15387 40.820625 319.95387 40.820625 
z
" style="fill: #ffffff; opacity: 0.85; stroke: #cccccc; stroke-linejoin: miter"/>
    </g>
    <g id="line2d_20">
     <path d="M 321.75387 18.988594 
L 330.75387 18.988594 
L 339.75387 18.988594 
" style="fill: none; stroke: #1f77b4; stroke-width: 1.6; stroke-linecap: square"/>
    </g>
    <g id="text_12">
     <!-- Training loss -->
     <g transform="translate(346.95387 22.138594) scale(0.09 -0.09)">
      <use xlink:href="#DejaVuSans-54"/>
      <use xlink:href="#DejaVuSans-72" transform="translate(46.333984 0)"/>
      <use xlink:href="#DejaVuSans-61" transform="translate(87.447266 0)"/>
      <use xlink:href="#DejaVuSans-69" transform="translate(148.726562 0)"/>
      <use xlink:href="#DejaVuSans-6e" transform="translate(176.509766 0)"/>
      <use xlink:href="#DejaVuSans-69" transform="translate(239.888672 0)"/>
      <use xlink:href="#DejaVuSans-6e" transform="translate(267.671875 0)"/>
      <use xlink:href="#DejaVuSans-67" transform="translate(331.050781 0)"/>
      <use xlink:href="#DejaVuSans-20" transform="translate(394.527344 0)"/>
      <use xlink:href="#DejaVuSans-6c" transform="translate(426.314453 0)"/>
      <use xlink:href="#DejaVuSans-6f" transform="translate(454.097656 0)"/>
      <use xlink:href="#DejaVuSans-73" transform="translate(515.279297 0)"/>
      <use xlink:href="#DejaVuSans-73" transform="translate(567.378906 0)"/>
     </g>
    </g>
    <g id="line2d_21">
     <path d="M 321.75387 32.198906 
L 330.75387 32.198906 
L 339.75387 32.198906 
" style="fill: none; stroke-dasharray: 5.18,2.24; stroke-dashoffset: 0; stroke: #d62728; stroke-width: 1.4"/>
    </g>
    <g id="text_13">
     <!-- Learning rate (×10⁻³) -->
     <g transform="translate(346.95387 35.348906) scale(0.09 -0.09)">
      <defs>
       <path id="DejaVuSans-4c" d="M 628 4666 
L 1259 4666 
L 1259 531 
L 3531 531 
L 3531 0 
L 628 0 
L 628 4666 
z
" transform="scale(0.015625)"/>
       <path id="DejaVuSans-d7" d="M 4488 3438 
L 3059 2003 
L 4488 575 
L 4116 197 
L 2681 1631 
L 1247 197 
L 878 575 
L 2303 2003 
L 878 3438 
L 1247 3816 
L 2681 2381 
L 4116 3816 
L 4488 3438 
z
" transform="scale(0.015625)"/>
       <path id="DejaVuSans-207b" d="M 428 3359 
L 2950 3359 
L 2950 3063 
L 428 3063 
L 428 3359 
z
" transform="scale(0.015625)"/>
       <path id="DejaVuSans-b3" d="M 1638 3500 
Q 1925 3444 2083 3273 
Q 2241 3103 2241 2847 
Q 2241 2459 1944 2250 
Q 1647 2041 1094 2041 
Q 916 2041 720 2073 
Q 525 2106 306 2169 
L 306 2547 
Q 469 2463 655 2422 
Q 841 2381 1050 2381 
Q 1391 2381 1578 2504 
Q 1766 2628 1766 2847 
Q 1766 3078 1592 3197 
Q 1419 3316 1081 3316 
L 813 3316 
L 813 3653 
L 1106 3653 
Q 1400 3653 1551 3751 
Q 1703 3850 1703 4038 
Q 1703 4219 1547 4314 
Q 1391 4409 1094 4409 
Q 969 4409 809 4381 
Q 650 4353 397 4281 
L 397 4641 
Q 625 4694 825 4722 
Q 1025 4750 1197 4750 
Q 1647 4750 1911 4565 
Q 2175 4381 2175 4072 
Q 2175 3856 2034 3706 
Q 1894 3556 1638 3500 
z
" transform="scale(0.015625)"/>
      </defs>
      <use xlink:href="#DejaVuSans-4c"/>
      <use xlink:href="#DejaVuSans-65" transform="translate(53.962891 0)"/>
      <use xlink:href="#DejaVuSans-61" transform="translate(115.486328 0)"/>
      <use xlink:href="#DejaVuSans-72" transform="translate(176.765625 0)"/>
      <use xlink:href="#DejaVuSans-6e" transform="translate(216.128906 0)"/>
      <use xlink:href="#DejaVuSans-69" transform="translate(279.507812 0)"/>
      <use xlink:href="#DejaVuSans-6e" transform="translate(307.291016 0)"/>
      <use xlink:href="#DejaVuSans-67" transform="translate(370.669922 0)"/>
      <use xlink:href="#DejaVuSans-20" transform="translate(434.146484 0)"/>
      <use xlink:href="#DejaVuSans-72" transform="translate(465.933594 0)"/>
      <use xlink:href="#DejaVuSans-61" transform="translate(507.046875 0)"/>
      <use xlink:href="#DejaVuSans-74" transform="translate(568.326172 0)"/>
      <use xlink:href="#DejaVuSans-65" transform="translate(607.535156 0)"/>
      <use xlink:href="#DejaVuSans-20" transform="translate(669.058594 0)"/>
      <use xlink:href="#DejaVuSans-28" transform="translate(700.845703 0)"/>
      <use xlink:href="#DejaVuSans-d7" transform="translate(739.859375 0)"/>
      <use xlink:href="#DejaVuSans-31" transform="translate(823.648438 0)"/>
      <use xlink:href="#DejaVuSans-30" transform="translate(887.271484 0)"/>
      <use xlink:href="#DejaVuSans-207b" transform="translate(950.894531 0)"/>
      <use xlink:href="#DejaVuSans-b3" transform="translate(1003.677734 0)"/>
      <use xlink:href="#DejaVuSans-29" transform="translate(1043.765625 0)"/>
     </g>
    </g>
   </g>
  </g>
  <g id="axes_2">
   <g id="matplotlib.axis_3">
    <g id="ytick_11">
     <g id="line2d_22">
      <defs>
       <path id="mf3ab63561a" d="M 0 0 
L 3.5 0 
" style="stroke: #d62728; stroke-width: 0.8"/>
      </defs>
      <g>
       <use xlink:href="#mf3ab63561a" x="452.505589" y="242.44" style="fill: #d62728; stroke: #d62728; stroke-width: 0.8"/>
      </g>
     </g>
     <g id="text_14">
      <!-- 0.0 -->
      <g style="fill: #d62728" transform="translate(459.505589 245.859297) scale(0.09 -0.09)">
       <defs>
        <path id="DejaVuSans-2e" d="M 684 794 
L 1344 794 
L 1344 0 
L 684 0 
L 684 794 
z
" transform="scale(0.015625)"/>
       </defs>
       <use xlink:href="#DejaVuSans-30"/>
       <use xlink:href="#DejaVuSans-2e" transform="translate(63.623047 0)"/>
       <use xlink:href="#DejaVuSans-30" transform="translate(95.410156 0)"/>
      </g>
     </g>
    </g>
    <g id="ytick_12">
     <g id="line2d_23">
      <g>
       <use xlink:href="#mf3ab63561a" x="452.505589" y="197.632381" style="fill: #d62728; stroke: #d62728; stroke-width: 0.8"/>
      </g>
     </g>
     <g id="text_15">
      <!-- 0.2 -->
      <g style="fill: #d62728" transform="translate(459.505589 201.051678) scale(0.09 -0.09)">
       <use xlink:href="#DejaVuSans-30"/>
       <use xlink:href="#DejaVuSans-2e" transform="translate(63.623047 0)"/>
       <use xlink:href="#DejaVuSans-32" transform="translate(95.410156 0)"/>
      </g>
     </g>
    </g>
    <g id="ytick_13">
     <g id="line2d_24">
      <g>
       <use xlink:href="#mf3ab63561a" x="452.505589" y="152.824762" style="fill: #d62728; stroke: #d62728; stroke-width: 0.8"/>
      </g>
     </g>
     <g id="text_16">
      <!-- 0.4 -->
      <g style="fill: #d62728" transform="translate(459.505589 156.244059) scale(0.09 -0.09)">
       <defs>
        <path id="DejaVuSans-34" d="M 2419 4116 
L 825 1625 
L 2419 1625 
L 2419 4116 
z
M 2253 4666 
L 3047 4666 
L 3047 1625 
L 3713 1625 
L 3713 1100 
L 3047 1100 
L 3047 0 
L 2419 0 
L 2419 1100 
L 313 1100 
L 313 1709 
L 2253 4666 
z
" transform="scale(0.015625)"/>
       </defs>
       <use xlink:href="#DejaVuSans-30"/>
       <use xlink:href="#DejaVuSans-2e" transform="translate(63.623047 0)"/>
       <use xlink:href="#DejaVuSans-34" transform="translate(95.410156 0)"/>
      </g>
     </g>
    </g>
    <g id="ytick_14">
     <g id="line2d_25">
      <g>
       <use xlink:href="#mf3ab63561a" x="452.505589" y="108.017143" style="fill: #d62728; stroke: #d62728; stroke-width: 0.8"/>
      </g>
     </g>
     <g id="text_17">
      <!-- 0.6 -->
      <g style="fill: #d62728" transform="translate(459.505589 111.43644) scale(0.09 -0.09)">
       <defs>
        <path id="DejaVuSans-36" d="M 2113 2584 
Q 1688 2584 1439 2293 
Q 1191 2003 1191 1497 
Q 1191 994 1439 701 
Q 1688 409 2113 409 
Q 2538 409 2786 701 
Q 3034 994 3034 1497 
Q 3034 2003 2786 2293 
Q 2538 2584 2113 2584 
z
M 3366 4563 
L 3366 3988 
Q 3128 4100 2886 4159 
Q 2644 4219 2406 4219 
Q 1781 4219 1451 3797 
Q 1122 3375 1075 2522 
Q 1259 2794 1537 2939 
Q 1816 3084 2150 3084 
Q 2853 3084 3261 2657 
Q 3669 2231 3669 1497 
Q 3669 778 3244 343 
Q 2819 -91 2113 -91 
Q 1303 -91 875 529 
Q 447 1150 447 2328 
Q 447 3434 972 4092 
Q 1497 4750 2381 4750 
Q 2619 4750 2861 4703 
Q 3103 4656 3366 4563 
z
" transform="scale(0.015625)"/>
       </defs>
       <use xlink:href="#DejaVuSans-30"/>
       <use xlink:href="#DejaVuSans-2e" transform="translate(63.623047 0)"/>
       <use xlink:href="#DejaVuSans-36" transform="translate(95.410156 0)"/>
      </g>
     </g>
    </g>
    <g id="ytick_15">
     <g id="line2d_26">
      <g>
       <use xlink:href="#mf3ab63561a" x="452.505589" y="63.209524" style="fill: #d62728; stroke: #d62728; stroke-width: 0.8"/>
      </g>
     </g>
     <g id="text_18">
      <!-- 0.8 -->
      <g style="fill: #d62728" transform="translate(459.505589 66.628821) scale(0.09 -0.09)">
       <defs>
        <path id="DejaVuSans-38" d="M 2034 2216 
Q 1584 2216 1326 1975 
Q 1069 1734 1069 1313 
Q 1069 891 1326 650 
Q 1584 409 2034 409 
Q 2484 409 2743 651 
Q 3003 894 3003 1313 
Q 3003 1734 2745 1975 
Q 2488 2216 2034 2216 
z
M 1403 2484 
Q 997 2584 770 2862 
Q 544 3141 544 3541 
Q 544 4100 942 4425 
Q 1341 4750 2034 4750 
Q 2731 4750 3128 4425 
Q 3525 4100 3525 3541 
Q 3525 3141 3298 2862 
Q 3072 2584 2669 2484 
Q 3125 2378 3379 2068 
Q 3634 1759 3634 1313 
Q 3634 634 3220 271 
Q 2806 -91 2034 -91 
Q 1263 -91 848 271 
Q 434 634 434 1313 
Q 434 1759 690 2068 
Q 947 2378 1403 2484 
z
M 1172 3481 
Q 1172 3119 1398 2916 
Q 1625 2713 2034 2713 
Q 2441 2713 2670 2916 
Q 2900 3119 2900 3481 
Q 2900 3844 2670 4047 
Q 2441 4250 2034 4250 
Q 1625 4250 1398 4047 
Q 1172 3844 1172 3481 
z
" transform="scale(0.015625)"/>
       </defs>
       <use xlink:href="#DejaVuSans-30"/>
       <use xlink:href="#DejaVuSans-2e" transform="translate(63.623047 0)"/>
       <use xlink:href="#DejaVuSans-38" transform="translate(95.410156 0)"/>
      </g>
     </g>
    </g>
    <g id="ytick_16">
     <g id="line2d_27">
      <g>
       <use xlink:href="#mf3ab63561a" x="452.505589" y="18.401905" style="fill: #d62728; stroke: #d62728; stroke-width: 0.8"/>
      </g>
     </g>
     <g id="text_19">
      <!-- 1.0 -->
      <g style="fill: #d62728" transform="translate(459.505589 21.821202) scale(0.09 -0.09)">
       <use xlink:href="#DejaVuSans-31"/>
       <use xlink:href="#DejaVuSans-2e" transform="translate(63.623047 0)"/>
       <use xlink:href="#DejaVuSans-30" transform="translate(95.410156 0)"/>
      </g>
     </g>
    </g>
    <g id="text_20">
     <!-- Learning rate (×10⁻³) -->
     <g style="fill: #d62728" transform="translate(486.176683 184.373828) rotate(-90) scale(0.11 -0.11)">
      <use xlink:href="#DejaVuSans-4c"/>
      <use xlink:href="#DejaVuSans-65" transform="translate(53.962891 0)"/>
      <use xlink:href="#DejaVuSans-61" transform="translate(115.486328 0)"/>
      <use xlink:href="#DejaVuSans-72" transform="translate(176.765625 0)"/>
      <use xlink:href="#DejaVuSans-6e" transform="translate(216.128906 0)"/>
      <use xlink:href="#DejaVuSans-69" transform="translate(279.507812 0)"/>
      <use xlink:href="#DejaVuSans-6e" transform="translate(307.291016 0)"/>
      <use xlink:href="#DejaVuSans-67" transform="translate(370.669922 0)"/>
      <use xlink:href="#DejaVuSans-20" transform="translate(434.146484 0)"/>
      <use xlink:href="#DejaVuSans-72" transform="translate(465.933594 0)"/>
      <use xlink:href="#DejaVuSans-61" transform="translate(507.046875 0)"/>
      <use xlink:href="#DejaVuSans-74" transform="translate(568.326172 0)"/>
      <use xlink:href="#DejaVuSans-65" transform="translate(607.535156 0)"/>
      <use xlink:href="#DejaVuSans-20" transform="translate(669.058594 0)"/>
      <use xlink:href="#DejaVuSans-28" transform="translate(700.845703 0)"/>
      <use xlink:href="#DejaVuSans-d7" transform="translate(739.859375 0)"/>
      <use xlink:href="#DejaVuSans-31" transform="translate(823.648438 0)"/>
      <use xlink:href="#DejaVuSans-30" transform="translate(887.271484 0)"/>
      <use xlink:href="#DejaVuSans-207b" transform="translate(950.894531 0)"/>
      <use xlink:href="#DejaVuSans-b3" transform="translate(1003.677734 0)"/>
      <use xlink:href="#DejaVuSans-29" transform="translate(1043.765625 0)"/>
     </g>
    </g>
   </g>
   <g id="line2d_28">
    <path d="M 44.685938 18.401905 
L 48.784627 18.401905 
L 50.833972 18.625943 
L 52.883317 18.625943 
L 54.932662 18.849981 
L 56.982007 18.849981 
L 67.228732 19.970171 
L 69.278077 20.418248 
L 71.327422 20.642286 
L 85.672837 23.778819 
L 89.771527 25.123048 
L 91.820872 25.571124 
L 100.018252 28.259581 
L 102.067597 29.155733 
L 106.166287 30.499962 
L 122.561047 37.669181 
L 124.610392 38.789371 
L 126.659737 39.685524 
L 141.005152 47.526857 
L 143.054497 48.871086 
L 147.153187 51.111467 
L 151.251877 53.799924 
L 153.301222 54.920114 
L 161.498602 60.297029 
L 163.547946 61.865295 
L 169.695981 65.897981 
L 171.745326 67.466248 
L 173.794671 68.810476 
L 177.893361 71.94701 
L 179.942706 73.291238 
L 196.337466 85.837371 
L 198.386811 87.629676 
L 202.485501 90.76621 
L 204.534846 92.558514 
L 208.633536 95.695048 
L 212.732226 99.279657 
L 214.781571 100.847924 
L 216.830916 102.640229 
L 218.880261 104.208495 
L 222.978951 107.793105 
L 225.028296 109.361371 
L 231.176331 114.738286 
L 233.225676 116.306552 
L 241.423056 123.475771 
L 243.472401 125.044038 
L 255.768471 135.797867 
L 257.817816 137.366133 
L 266.015196 144.535352 
L 268.064541 146.103619 
L 274.212576 151.480533 
L 276.261921 153.0488 
L 280.360611 156.63341 
L 282.409955 158.201676 
L 284.4593 159.993981 
L 286.508645 161.562248 
L 290.607335 165.146857 
L 294.706025 168.28339 
L 296.75537 170.075695 
L 300.85406 173.212229 
L 302.903405 175.004533 
L 319.298165 187.550667 
L 321.34751 188.894895 
L 325.4462 192.031429 
L 327.495545 193.375657 
L 329.54489 194.943924 
L 335.692925 198.97661 
L 337.74227 200.544876 
L 345.93965 205.92179 
L 347.988995 207.041981 
L 352.087685 209.730438 
L 356.186375 211.970819 
L 358.23572 213.315048 
L 372.581135 221.156381 
L 374.63048 222.052533 
L 376.679825 223.172724 
L 393.074585 230.341943 
L 397.173275 231.686171 
L 399.22262 232.582324 
L 407.419999 235.270781 
L 409.469344 235.718857 
L 413.568034 237.063086 
L 427.913449 240.199619 
L 429.962794 240.423657 
L 432.012139 240.871733 
L 442.258864 241.991924 
L 444.308209 241.991924 
L 446.357554 242.215962 
L 448.406899 242.215962 
L 450.456244 242.44 
L 452.505589 242.44 
L 452.505589 242.44 
" clip-path="url(#p1252ba9f76)" style="fill: none; stroke-dasharray: 5.18,2.24; stroke-dashoffset: 0; stroke: #d62728; stroke-width: 1.4"/>
   </g>
   <g id="patch_8">
    <path d="M 44.685938 242.44 
L 44.685938 7.2 
" style="fill: none; stroke: #000000; stroke-width: 0.8; stroke-linejoin: miter; stroke-linecap: square"/>
   </g>
   <g id="patch_9">
    <path d="M 452.505589 242.44 
L 452.505589 7.2 
" style="fill: none; stroke: #d62728; stroke-width: 0.8; stroke-linejoin: miter; stroke-linecap: square"/>
   </g>
   <g id="patch_10">
    <path d="M 44.685938 242.44 
L 452.505589 242.44 
" style="fill: none; stroke: #000000; stroke-width: 0.8; stroke-linejoin: miter; stroke-linecap: square"/>
   </g>
   <g id="patch_11">
    <path d="M 44.685938 7.2 
L 452.505589 7.2 
" style="fill: none; stroke: #000000; stroke-width: 0.8; stroke-linejoin: miter; stroke-linecap: square"/>
   </g>
  </g>
 </g>
 <defs>
  <clipPath id="p1252ba9f76">
   <rect x="44.685938" y="7.2" width="407.819652" height="235.24"/>
  </clipPath>
 </defs>
</svg>
