<?xml version="1.0" encoding="utf-8" standalone="no"?>
<!DOCTYPE svg PUBLIC "-//W3C//DTD SVG 1.1//EN"
  "http://www.w3.org/Graphics/SVG/1.1/DTD/svg11.dtd">
<svg xmlns:xlink="http://www.w3.org/1999/xlink" width="440.4pt" height="368.4pt" viewBox="0 0 440.4 368.4" xmlns="http://www.w3.org/2000/svg" version="1.1">
 <metadata>
  <rdf:RDF xmlns:dc="http://purl.org/dc/elements/1.1/" xmlns:cc="http://creativecommons.org/ns#" xmlns:rdf="http://www.w3.org/1999/02/22-rdf-syntax-ns#">
   <cc:Work>
    <dc:type rdf:resource="http://purl.org/dc/dcmitype/StillImage"/>
    <dc:date>2026-05-25T09:31:03.079298</dc:date>
    <dc:format>image/svg+xml</dc:format>
    <dc:creator>
     <cc:Agent>
      <dc:title>Matplotlib v3.10.9, https://matplotlib.org/</dc:title>
     </cc:Agent>
    </dc:creator>
   </cc:Work>
  </rdf:RDF>
 </metadata>
 <defs>
  <style type="text/css">*{stroke-linejoin: round; stroke-linecap: butt}</style>
 </defs>
 <g id="figure_1">
  <g id="patch_1">
   <path d="M 0 368.4 
L 440.4 368.4 
L 440.4 0 
L 0 0 
z
" style="fill: #ffffff"/>
  </g>
  <g id="axes_1">
   <g id="LineCollection_1">
    <path d="M 141.914453 37.919008 
L 88.38063 48.436303 
" clip-path="url(#p75e5ca36d5)" style="fill: none; stroke: #888888; stroke-opacity: 0.3; stroke-width: 0.6"/>
    <path d="M 141.914453 37.919008 
L 93.285102 83.86674 
" clip-path="url(#p75e5ca36d5)" style="fill: none; stroke: #888888; stroke-opacity: 0.3; stroke-width: 0.6"/>
    <path d="M 141.914453 37.919008 
L 219.146607 71.149699 
" clip-path="url(#p75e5ca36d5)" style="fill: none; stroke: #888888; stroke-opacity: 0.3; stroke-width: 0.6"/>
    <path d="M 141.914453 37.919008 
L 167.4704 76.46164 
" clip-path="url(#p75e5ca36d5)" style="fill: none; stroke: #888888; stroke-opacity: 0.3; stroke-width: 0.6"/>
    <path d="M 88.38063 48.436303 
L 93.285102 83.86674 
" clip-path="url(#p75e5ca36d5)" style="fill: none; stroke: #888888; stroke-opacity: 0.3; stroke-width: 0.6"/>
    <path d="M 88.38063 48.436303 
L 52.201829 103.446862 
" clip-path="url(#p75e5ca36d5)" style="fill: none; stroke: #888888; stroke-opacity: 0.3; stroke-width: 0.6"/>
    <path d="M 88.38063 48.436303 
L 167.4704 76.46164 
" clip-path="url(#p75e5ca36d5)" style="fill: none; stroke: #888888; stroke-opacity: 0.3; stroke-width: 0.6"/>
    <path d="M 93.285102 83.86674 
L 52.201829 103.446862 
" clip-path="url(#p75e5ca36d5)" style="fill: none; stroke: #888888; stroke-opacity: 0.3; stroke-width: 0.6"/>
    <path d="M 93.285102 83.86674 
L 44.166942 143.124577 
" clip-path="url(#p75e5ca36d5)" style="fill: none; stroke: #888888; stroke-opacity: 0.3; stroke-width: 0.6"/>
    <path d="M 93.285102 83.86674 
L 184.030305 113.391104 
" clip-path="url(#p75e5ca36d5)" style="fill: none; stroke: #888888; stroke-opacity: 0.3; stroke-width: 0.6"/>
    <path d="M 52.201829 103.446862 
L 44.166942 143.124577 
" clip-path="url(#p75e5ca36d5)" style="fill: none; stroke: #888888; stroke-opacity: 0.3; stroke-width: 0.6"/>
    <path d="M 52.201829 103.446862 
L 107.809203 168.432854 
" clip-path="url(#p75e5ca36d5)" style="fill: none; stroke: #888888; stroke-opacity: 0.3; stroke-width: 0.6"/>
    <path d="M 44.166942 143.124577 
L 107.809203 168.432854 
" clip-path="url(#p75e5ca36d5)" style="fill: none; stroke: #888888; stroke-opacity: 0.3; stroke-width: 0.6"/>
    <path d="M 44.166942 143.124577 
L 51.75549 211.750176 
" clip-path="url(#p75e5ca36d5)" style="fill: none; stroke: #888888; stroke-opacity: 0.3; stroke-width: 0.6"/>
    <path d="M 107.809203 168.432854 
L 51.75549 211.750176 
" clip-path="url(#p75e5ca36d5)" style="fill: none; stroke: #888888; stroke-opacity: 0.3; stroke-width: 0.6"/>
    <path d="M 107.809203 168.432854 
L 81.34208 242.863878 
" clip-path="url(#p75e5ca36d5)" style="fill: none; stroke: #888888; stroke-opacity: 0.3; stroke-width: 0.6"/>
    <path d="M 107.809203 168.432854 
L 227.787949 194.221889 
" clip-path="url(#p75e5ca36d5)" style="fill: none; stroke: #888888; stroke-opacity: 0.3; stroke-width: 0.6"/>
    <path d="M 107.809203 168.432854 
L 184.030305 113.391104 
" clip-path="url(#p75e5ca36d5)" style="fill: none; stroke: #888888; stroke-opacity: 0.3; stroke-width: 0.6"/>
    <path d="M 51.75549 211.750176 
L 81.34208 242.863878 
" clip-path="url(#p75e5ca36d5)" style="fill: none; stroke: #888888; stroke-opacity: 0.3; stroke-width: 0.6"/>
    <path d="M 51.75549 211.750176 
L 99.080606 279.522686 
" clip-path="url(#p75e5ca36d5)" style="fill: none; stroke: #888888; stroke-opacity: 0.3; stroke-width: 0.6"/>
    <path d="M 81.34208 242.863878 
L 99.080606 279.522686 
" clip-path="url(#p75e5ca36d5)" style="fill: none; stroke: #888888; stroke-opacity: 0.3; stroke-width: 0.6"/>
    <path d="M 81.34208 242.863878 
L 143.410135 291.51653 
" clip-path="url(#p75e5ca36d5)" style="fill: none; stroke: #888888; stroke-opacity: 0.3; stroke-width: 0.6"/>
    <path d="M 99.080606 279.522686 
L 143.410135 291.51653 
" clip-path="url(#p75e5ca36d5)" style="fill: none; stroke: #888888; stroke-opacity: 0.3; stroke-width: 0.6"/>
    <path d="M 99.080606 279.522686 
L 203.872764 304.229129 
" clip-path="url(#p75e5ca36d5)" style="fill: none; stroke: #888888; stroke-opacity: 0.3; stroke-width: 0.6"/>
    <path d="M 143.410135 291.51653 
L 203.872764 304.229129 
" clip-path="url(#p75e5ca36d5)" style="fill: none; stroke: #888888; stroke-opacity: 0.3; stroke-width: 0.6"/>
    <path d="M 143.410135 291.51653 
L 233.554295 271.994244 
" clip-path="url(#p75e5ca36d5)" style="fill: none; stroke: #888888; stroke-opacity: 0.3; stroke-width: 0.6"/>
    <path d="M 203.872764 304.229129 
L 233.554295 271.994244 
" clip-path="url(#p75e5ca36d5)" style="fill: none; stroke: #888888; stroke-opacity: 0.3; stroke-width: 0.6"/>
    <path d="M 203.872764 304.229129 
L 273.016609 330.480992 
" clip-path="url(#p75e5ca36d5)" style="fill: none; stroke: #888888; stroke-opacity: 0.3; stroke-width: 0.6"/>
    <path d="M 203.872764 304.229129 
L 306.912138 269.741335 
" clip-path="url(#p75e5ca36d5)" style="fill: none; stroke: #888888; stroke-opacity: 0.3; stroke-width: 0.6"/>
    <path d="M 233.554295 271.994244 
L 273.016609 330.480992 
" clip-path="url(#p75e5ca36d5)" style="fill: none; stroke: #888888; stroke-opacity: 0.3; stroke-width: 0.6"/>
    <path d="M 233.554295 271.994244 
L 318.368414 325.884014 
" clip-path="url(#p75e5ca36d5)" style="fill: none; stroke: #888888; stroke-opacity: 0.3; stroke-width: 0.6"/>
    <path d="M 233.554295 271.994244 
L 225.633949 154.804473 
" clip-path="url(#p75e5ca36d5)" style="fill: none; stroke: #888888; stroke-opacity: 0.3; stroke-width: 0.6"/>
    <path d="M 273.016609 330.480992 
L 318.368414 325.884014 
" clip-path="url(#p75e5ca36d5)" style="fill: none; stroke: #888888; stroke-opacity: 0.3; stroke-width: 0.6"/>
    <path d="M 273.016609 330.480992 
L 358.468559 317.19333 
" clip-path="url(#p75e5ca36d5)" style="fill: none; stroke: #888888; stroke-opacity: 0.3; stroke-width: 0.6"/>
    <path d="M 318.368414 325.884014 
L 358.468559 317.19333 
" clip-path="url(#p75e5ca36d5)" style="fill: none; stroke: #888888; stroke-opacity: 0.3; stroke-width: 0.6"/>
    <path d="M 318.368414 325.884014 
L 396.233058 302.599518 
" clip-path="url(#p75e5ca36d5)" style="fill: none; stroke: #888888; stroke-opacity: 0.3; stroke-width: 0.6"/>
    <path d="M 358.468559 317.19333 
L 396.233058 302.599518 
" clip-path="url(#p75e5ca36d5)" style="fill: none; stroke: #888888; stroke-opacity: 0.3; stroke-width: 0.6"/>
    <path d="M 358.468559 317.19333 
L 359.936437 239.737338 
" clip-path="url(#p75e5ca36d5)" style="fill: none; stroke: #888888; stroke-opacity: 0.3; stroke-width: 0.6"/>
    <path d="M 396.233058 302.599518 
L 359.936437 239.737338 
" clip-path="url(#p75e5ca36d5)" style="fill: none; stroke: #888888; stroke-opacity: 0.3; stroke-width: 0.6"/>
    <path d="M 396.233058 302.599518 
L 384.23907 266.55445 
" clip-path="url(#p75e5ca36d5)" style="fill: none; stroke: #888888; stroke-opacity: 0.3; stroke-width: 0.6"/>
    <path d="M 359.936437 239.737338 
L 384.23907 266.55445 
" clip-path="url(#p75e5ca36d5)" style="fill: none; stroke: #888888; stroke-opacity: 0.3; stroke-width: 0.6"/>
    <path d="M 359.936437 239.737338 
L 306.912138 269.741335 
" clip-path="url(#p75e5ca36d5)" style="fill: none; stroke: #888888; stroke-opacity: 0.3; stroke-width: 0.6"/>
    <path d="M 359.936437 239.737338 
L 285.897968 137.324889 
" clip-path="url(#p75e5ca36d5)" style="fill: none; stroke: #888888; stroke-opacity: 0.3; stroke-width: 0.6"/>
    <path d="M 384.23907 266.55445 
L 306.912138 269.741335 
" clip-path="url(#p75e5ca36d5)" style="fill: none; stroke: #888888; stroke-opacity: 0.3; stroke-width: 0.6"/>
    <path d="M 384.23907 266.55445 
L 318.709524 233.223082 
" clip-path="url(#p75e5ca36d5)" style="fill: none; stroke: #888888; stroke-opacity: 0.3; stroke-width: 0.6"/>
    <path d="M 306.912138 269.741335 
L 318.709524 233.223082 
" clip-path="url(#p75e5ca36d5)" style="fill: none; stroke: #888888; stroke-opacity: 0.3; stroke-width: 0.6"/>
    <path d="M 306.912138 269.741335 
L 290.616065 214.506532 
" clip-path="url(#p75e5ca36d5)" style="fill: none; stroke: #888888; stroke-opacity: 0.3; stroke-width: 0.6"/>
    <path d="M 318.709524 233.223082 
L 290.616065 214.506532 
" clip-path="url(#p75e5ca36d5)" style="fill: none; stroke: #888888; stroke-opacity: 0.3; stroke-width: 0.6"/>
    <path d="M 318.709524 233.223082 
L 227.787949 194.221889 
" clip-path="url(#p75e5ca36d5)" style="fill: none; stroke: #888888; stroke-opacity: 0.3; stroke-width: 0.6"/>
    <path d="M 290.616065 214.506532 
L 227.787949 194.221889 
" clip-path="url(#p75e5ca36d5)" style="fill: none; stroke: #888888; stroke-opacity: 0.3; stroke-width: 0.6"/>
    <path d="M 290.616065 214.506532 
L 282.208719 166.816613 
" clip-path="url(#p75e5ca36d5)" style="fill: none; stroke: #888888; stroke-opacity: 0.3; stroke-width: 0.6"/>
    <path d="M 227.787949 194.221889 
L 282.208719 166.816613 
" clip-path="url(#p75e5ca36d5)" style="fill: none; stroke: #888888; stroke-opacity: 0.3; stroke-width: 0.6"/>
    <path d="M 227.787949 194.221889 
L 225.633949 154.804473 
" clip-path="url(#p75e5ca36d5)" style="fill: none; stroke: #888888; stroke-opacity: 0.3; stroke-width: 0.6"/>
    <path d="M 282.208719 166.816613 
L 225.633949 154.804473 
" clip-path="url(#p75e5ca36d5)" style="fill: none; stroke: #888888; stroke-opacity: 0.3; stroke-width: 0.6"/>
    <path d="M 282.208719 166.816613 
L 286.291905 115.519825 
" clip-path="url(#p75e5ca36d5)" style="fill: none; stroke: #888888; stroke-opacity: 0.3; stroke-width: 0.6"/>
    <path d="M 225.633949 154.804473 
L 286.291905 115.519825 
" clip-path="url(#p75e5ca36d5)" style="fill: none; stroke: #888888; stroke-opacity: 0.3; stroke-width: 0.6"/>
    <path d="M 225.633949 154.804473 
L 249.202866 99.900778 
" clip-path="url(#p75e5ca36d5)" style="fill: none; stroke: #888888; stroke-opacity: 0.3; stroke-width: 0.6"/>
    <path d="M 225.633949 154.804473 
L 184.030305 113.391104 
" clip-path="url(#p75e5ca36d5)" style="fill: none; stroke: #888888; stroke-opacity: 0.3; stroke-width: 0.6"/>
    <path d="M 225.633949 154.804473 
L 167.4704 76.46164 
" clip-path="url(#p75e5ca36d5)" style="fill: none; stroke: #888888; stroke-opacity: 0.3; stroke-width: 0.6"/>
    <path d="M 286.291905 115.519825 
L 249.202866 99.900778 
" clip-path="url(#p75e5ca36d5)" style="fill: none; stroke: #888888; stroke-opacity: 0.3; stroke-width: 0.6"/>
    <path d="M 286.291905 115.519825 
L 285.897968 137.324889 
" clip-path="url(#p75e5ca36d5)" style="fill: none; stroke: #888888; stroke-opacity: 0.3; stroke-width: 0.6"/>
    <path d="M 249.202866 99.900778 
L 285.897968 137.324889 
" clip-path="url(#p75e5ca36d5)" style="fill: none; stroke: #888888; stroke-opacity: 0.3; stroke-width: 0.6"/>
    <path d="M 249.202866 99.900778 
L 184.030305 113.391104 
" clip-path="url(#p75e5ca36d5)" style="fill: none; stroke: #888888; stroke-opacity: 0.3; stroke-width: 0.6"/>
    <path d="M 249.202866 99.900778 
L 219.146607 71.149699 
" clip-path="url(#p75e5ca36d5)" style="fill: none; stroke: #888888; stroke-opacity: 0.3; stroke-width: 0.6"/>
    <path d="M 285.897968 137.324889 
L 184.030305 113.391104 
" clip-path="url(#p75e5ca36d5)" style="fill: none; stroke: #888888; stroke-opacity: 0.3; stroke-width: 0.6"/>
    <path d="M 285.897968 137.324889 
L 219.146607 71.149699 
" clip-path="url(#p75e5ca36d5)" style="fill: none; stroke: #888888; stroke-opacity: 0.3; stroke-width: 0.6"/>
    <path d="M 184.030305 113.391104 
L 219.146607 71.149699 
" clip-path="url(#p75e5ca36d5)" style="fill: none; stroke: #888888; stroke-opacity: 0.3; stroke-width: 0.6"/>
    <path d="M 184.030305 113.391104 
L 167.4704 76.46164 
" clip-path="url(#p75e5ca36d5)" style="fill: none; stroke: #888888; stroke-opacity: 0.3; stroke-width: 0.6"/>
    <path d="M 219.146607 71.149699 
L 167.4704 76.46164 
" clip-path="url(#p75e5ca36d5)" style="fill: none; stroke: #888888; stroke-opacity: 0.3; stroke-width: 0.6"/>
   </g>
   <g id="PathCollection_1">
    <path d="M 141.914453 43.396234 
C 143.36703 43.396234 144.760309 42.819119 145.787436 41.791992 
C 146.814563 40.764864 147.391678 39.371585 147.391678 37.919008 
C 147.391678 36.466431 146.814563 35.073152 145.787436 34.046025 
C 144.760309 33.018898 143.36703 32.441783 141.914453 32.441783 
C 140.461875 32.441783 139.068596 33.018898 138.041469 34.046025 
C 137.014342 35.073152 136.437227 36.466431 136.437227 37.919008 
C 136.437227 39.371585 137.014342 40.764864 138.041469 41.791992 
C 139.068596 42.819119 140.461875 43.396234 141.914453 43.396234 
z
" clip-path="url(#p75e5ca36d5)" style="fill: #66c2a5; stroke: #444444; stroke-width: 0.4"/>
    <path d="M 88.38063 53.913528 
C 89.833207 53.913528 91.226486 53.336413 92.253613 52.309286 
C 93.28074 51.282159 93.857855 49.88888 93.857855 48.436303 
C 93.857855 46.983726 93.28074 45.590447 92.253613 44.563319 
C 91.226486 43.536192 89.833207 42.959077 88.38063 42.959077 
C 86.928053 42.959077 85.534774 43.536192 84.507646 44.563319 
C 83.480519 45.590447 82.903404 46.983726 82.903404 48.436303 
C 82.903404 49.88888 83.480519 51.282159 84.507646 52.309286 
C 85.534774 53.336413 86.928053 53.913528 88.38063 53.913528 
z
" clip-path="url(#p75e5ca36d5)" style="fill: #fc8d62; stroke: #444444; stroke-width: 0.4"/>
    <path d="M 93.285102 89.343966 
C 94.737679 89.343966 96.130958 88.766851 97.158086 87.739723 
C 98.185213 86.712596 98.762328 85.319317 98.762328 83.86674 
C 98.762328 82.414163 98.185213 81.020884 97.158086 79.993757 
C 96.130958 78.966629 94.737679 78.389514 93.285102 78.389514 
C 91.832525 78.389514 90.439246 78.966629 89.412119 79.993757 
C 88.384992 81.020884 87.807877 82.414163 87.807877 83.86674 
C 87.807877 85.319317 88.384992 86.712596 89.412119 87.739723 
C 90.439246 88.766851 91.832525 89.343966 93.285102 89.343966 
z
" clip-path="url(#p75e5ca36d5)" style="fill: #8da0cb; stroke: #444444; stroke-width: 0.4"/>
    <path d="M 52.201829 108.924087 
C 53.654407 108.924087 55.047686 108.346972 56.074813 107.319845 
C 57.10194 106.292718 57.679055 104.899439 57.679055 103.446862 
C 57.679055 101.994284 57.10194 100.601005 56.074813 99.573878 
C 55.047686 98.546751 53.654407 97.969636 52.201829 97.969636 
C 50.749252 97.969636 49.355973 98.546751 48.328846 99.573878 
C 47.301719 100.601005 46.724604 101.994284 46.724604 103.446862 
C 46.724604 104.899439 47.301719 106.292718 48.328846 107.319845 
C 49.355973 108.346972 50.749252 108.924087 52.201829 108.924087 
z
" clip-path="url(#p75e5ca36d5)" style="fill: #e78ac3; stroke: #444444; stroke-width: 0.4"/>
    <path d="M 44.166942 148.601802 
C 45.619519 148.601802 47.012798 148.024687 48.039925 146.99756 
C 49.067053 145.970433 49.644168 144.577154 49.644168 143.124577 
C 49.644168 141.671999 49.067053 140.27872 48.039925 139.251593 
C 47.012798 138.224466 45.619519 137.647351 44.166942 137.647351 
C 42.714365 137.647351 41.321086 138.224466 40.293959 139.251593 
C 39.266832 140.27872 38.689717 141.671999 38.689717 143.124577 
C 38.689717 144.577154 39.266832 145.970433 40.293959 146.99756 
C 41.321086 148.024687 42.714365 148.601802 44.166942 148.601802 
z
" clip-path="url(#p75e5ca36d5)" style="fill: #66c2a5; stroke: #444444; stroke-width: 0.4"/>
    <path d="M 107.809203 173.910079 
C 109.26178 173.910079 110.655059 173.332964 111.682187 172.305837 
C 112.709314 171.27871 113.286429 169.885431 113.286429 168.432854 
C 113.286429 166.980276 112.709314 165.586997 111.682187 164.55987 
C 110.655059 163.532743 109.26178 162.955628 107.809203 162.955628 
C 106.356626 162.955628 104.963347 163.532743 103.93622 164.55987 
C 102.909093 165.586997 102.331978 166.980276 102.331978 168.432854 
C 102.331978 169.885431 102.909093 171.27871 103.93622 172.305837 
C 104.963347 173.332964 106.356626 173.910079 107.809203 173.910079 
z
" clip-path="url(#p75e5ca36d5)" style="fill: #fc8d62; stroke: #444444; stroke-width: 0.4"/>
    <path d="M 51.75549 217.227401 
C 53.208067 217.227401 54.601346 216.650286 55.628473 215.623159 
C 56.655601 214.596032 57.232716 213.202753 57.232716 211.750176 
C 57.232716 210.297599 56.655601 208.90432 55.628473 207.877192 
C 54.601346 206.850065 53.208067 206.27295 51.75549 206.27295 
C 50.302913 206.27295 48.909634 206.850065 47.882507 207.877192 
C 46.85538 208.90432 46.278265 210.297599 46.278265 211.750176 
C 46.278265 213.202753 46.85538 214.596032 47.882507 215.623159 
C 48.909634 216.650286 50.302913 217.227401 51.75549 217.227401 
z
" clip-path="url(#p75e5ca36d5)" style="fill: #8da0cb; stroke: #444444; stroke-width: 0.4"/>
    <path d="M 81.34208 248.341103 
C 82.794657 248.341103 84.187936 247.763988 85.215064 246.736861 
C 86.242191 245.709734 86.819306 244.316455 86.819306 242.863878 
C 86.819306 241.411301 86.242191 240.018022 85.215064 238.990894 
C 84.187936 237.963767 82.794657 237.386652 81.34208 237.386652 
C 79.889503 237.386652 78.496224 237.963767 77.469097 238.990894 
C 76.44197 240.018022 75.864855 241.411301 75.864855 242.863878 
C 75.864855 244.316455 76.44197 245.709734 77.469097 246.736861 
C 78.496224 247.763988 79.889503 248.341103 81.34208 248.341103 
z
" clip-path="url(#p75e5ca36d5)" style="fill: #e78ac3; stroke: #444444; stroke-width: 0.4"/>
    <path d="M 99.080606 284.999912 
C 100.533184 284.999912 101.926463 284.422797 102.95359 283.395669 
C 103.980717 282.368542 104.557832 280.975263 104.557832 279.522686 
C 104.557832 278.070109 103.980717 276.67683 102.95359 275.649703 
C 101.926463 274.622576 100.533184 274.045461 99.080606 274.045461 
C 97.628029 274.045461 96.23475 274.622576 95.207623 275.649703 
C 94.180496 276.67683 93.603381 278.070109 93.603381 279.522686 
C 93.603381 280.975263 94.180496 282.368542 95.207623 283.395669 
C 96.23475 284.422797 97.628029 284.999912 99.080606 284.999912 
z
" clip-path="url(#p75e5ca36d5)" style="fill: #66c2a5; stroke: #444444; stroke-width: 0.4"/>
    <path d="M 143.410135 296.993755 
C 144.862712 296.993755 146.255991 296.41664 147.283119 295.389513 
C 148.310246 294.362386 148.887361 292.969107 148.887361 291.51653 
C 148.887361 290.063953 148.310246 288.670674 147.283119 287.643546 
C 146.255991 286.616419 144.862712 286.039304 143.410135 286.039304 
C 141.957558 286.039304 140.564279 286.616419 139.537152 287.643546 
C 138.510025 288.670674 137.93291 290.063953 137.93291 291.51653 
C 137.93291 292.969107 138.510025 294.362386 139.537152 295.389513 
C 140.564279 296.41664 141.957558 296.993755 143.410135 296.993755 
z
" clip-path="url(#p75e5ca36d5)" style="fill: #fc8d62; stroke: #444444; stroke-width: 0.4"/>
    <path d="M 203.872764 309.706355 
C 205.325341 309.706355 206.71862 309.12924 207.745748 308.102113 
C 208.772875 307.074986 209.34999 305.681707 209.34999 304.229129 
C 209.34999 302.776552 208.772875 301.383273 207.745748 300.356146 
C 206.71862 299.329019 205.325341 298.751904 203.872764 298.751904 
C 202.420187 298.751904 201.026908 299.329019 199.999781 300.356146 
C 198.972654 301.383273 198.395539 302.776552 198.395539 304.229129 
C 198.395539 305.681707 198.972654 307.074986 199.999781 308.102113 
C 201.026908 309.12924 202.420187 309.706355 203.872764 309.706355 
z
" clip-path="url(#p75e5ca36d5)" style="fill: #8da0cb; stroke: #444444; stroke-width: 0.4"/>
    <path d="M 233.554295 277.47147 
C 235.006872 277.47147 236.400151 276.894354 237.427278 275.867227 
C 238.454406 274.8401 239.031521 273.446821 239.031521 271.994244 
C 239.031521 270.541667 238.454406 269.148388 237.427278 268.121261 
C 236.400151 267.094133 235.006872 266.517018 233.554295 266.517018 
C 232.101718 266.517018 230.708439 267.094133 229.681312 268.121261 
C 228.654185 269.148388 228.077069 270.541667 228.077069 271.994244 
C 228.077069 273.446821 228.654185 274.8401 229.681312 275.867227 
C 230.708439 276.894354 232.101718 277.47147 233.554295 277.47147 
z
" clip-path="url(#p75e5ca36d5)" style="fill: #e78ac3; stroke: #444444; stroke-width: 0.4"/>
    <path d="M 273.016609 335.958217 
C 274.469186 335.958217 275.862465 335.381102 276.889592 334.353975 
C 277.916719 333.326848 278.493834 331.933569 278.493834 330.480992 
C 278.493834 329.028415 277.916719 327.635136 276.889592 326.608008 
C 275.862465 325.580881 274.469186 325.003766 273.016609 325.003766 
C 271.564032 325.003766 270.170753 325.580881 269.143625 326.608008 
C 268.116498 327.635136 267.539383 329.028415 267.539383 330.480992 
C 267.539383 331.933569 268.116498 333.326848 269.143625 334.353975 
C 270.170753 335.381102 271.564032 335.958217 273.016609 335.958217 
z
" clip-path="url(#p75e5ca36d5)" style="fill: #66c2a5; stroke: #444444; stroke-width: 0.4"/>
    <path d="M 318.368414 331.36124 
C 319.820991 331.36124 321.21427 330.784125 322.241397 329.756998 
C 323.268525 328.72987 323.84564 327.336592 323.84564 325.884014 
C 323.84564 324.431437 323.268525 323.038158 322.241397 322.011031 
C 321.21427 320.983904 319.820991 320.406789 318.368414 320.406789 
C 316.915837 320.406789 315.522558 320.983904 314.495431 322.011031 
C 313.468304 323.038158 312.891189 324.431437 312.891189 325.884014 
C 312.891189 327.336592 313.468304 328.72987 314.495431 329.756998 
C 315.522558 330.784125 316.915837 331.36124 318.368414 331.36124 
z
" clip-path="url(#p75e5ca36d5)" style="fill: #fc8d62; stroke: #444444; stroke-width: 0.4"/>
    <path d="M 358.468559 322.670555 
C 359.921136 322.670555 361.314415 322.09344 362.341542 321.066313 
C 363.368669 320.039186 363.945784 318.645907 363.945784 317.19333 
C 363.945784 315.740752 363.368669 314.347473 362.341542 313.320346 
C 361.314415 312.293219 359.921136 311.716104 358.468559 311.716104 
C 357.015981 311.716104 355.622703 312.293219 354.595575 313.320346 
C 353.568448 314.347473 352.991333 315.740752 352.991333 317.19333 
C 352.991333 318.645907 353.568448 320.039186 354.595575 321.066313 
C 355.622703 322.09344 357.015981 322.670555 358.468559 322.670555 
z
" clip-path="url(#p75e5ca36d5)" style="fill: #8da0cb; stroke: #444444; stroke-width: 0.4"/>
    <path d="M 396.233058 308.076743 
C 397.685635 308.076743 399.078914 307.499628 400.106041 306.472501 
C 401.133168 305.445374 401.710283 304.052095 401.710283 302.599518 
C 401.710283 301.146941 401.133168 299.753662 400.106041 298.726534 
C 399.078914 297.699407 397.685635 297.122292 396.233058 297.122292 
C 394.780481 297.122292 393.387202 297.699407 392.360075 298.726534 
C 391.332947 299.753662 390.755832 301.146941 390.755832 302.599518 
C 390.755832 304.052095 391.332947 305.445374 392.360075 306.472501 
C 393.387202 307.499628 394.780481 308.076743 396.233058 308.076743 
z
" clip-path="url(#p75e5ca36d5)" style="fill: #e78ac3; stroke: #444444; stroke-width: 0.4"/>
    <path d="M 359.936437 245.214563 
C 361.389015 245.214563 362.782294 244.637448 363.809421 243.610321 
C 364.836548 242.583194 365.413663 241.189915 365.413663 239.737338 
C 365.413663 238.28476 364.836548 236.891481 363.809421 235.864354 
C 362.782294 234.837227 361.389015 234.260112 359.936437 234.260112 
C 358.48386 234.260112 357.090581 234.837227 356.063454 235.864354 
C 355.036327 236.891481 354.459212 238.28476 354.459212 239.737338 
C 354.459212 241.189915 355.036327 242.583194 356.063454 243.610321 
C 357.090581 244.637448 358.48386 245.214563 359.936437 245.214563 
z
" clip-path="url(#p75e5ca36d5)" style="fill: #66c2a5; stroke: #444444; stroke-width: 0.4"/>
    <path d="M 384.23907 272.031676 
C 385.691647 272.031676 387.084926 271.454561 388.112053 270.427433 
C 389.139181 269.400306 389.716296 268.007027 389.716296 266.55445 
C 389.716296 265.101873 389.139181 263.708594 388.112053 262.681467 
C 387.084926 261.654339 385.691647 261.077224 384.23907 261.077224 
C 382.786493 261.077224 381.393214 261.654339 380.366087 262.681467 
C 379.33896 263.708594 378.761845 265.101873 378.761845 266.55445 
C 378.761845 268.007027 379.33896 269.400306 380.366087 270.427433 
C 381.393214 271.454561 382.786493 272.031676 384.23907 272.031676 
z
" clip-path="url(#p75e5ca36d5)" style="fill: #fc8d62; stroke: #444444; stroke-width: 0.4"/>
    <path d="M 306.912138 275.218561 
C 308.364716 275.218561 309.757995 274.641446 310.785122 273.614319 
C 311.812249 272.587192 312.389364 271.193913 312.389364 269.741335 
C 312.389364 268.288758 311.812249 266.895479 310.785122 265.868352 
C 309.757995 264.841225 308.364716 264.26411 306.912138 264.26411 
C 305.459561 264.26411 304.066282 264.841225 303.039155 265.868352 
C 302.012028 266.895479 301.434913 268.288758 301.434913 269.741335 
C 301.434913 271.193913 302.012028 272.587192 303.039155 273.614319 
C 304.066282 274.641446 305.459561 275.218561 306.912138 275.218561 
z
" clip-path="url(#p75e5ca36d5)" style="fill: #8da0cb; stroke: #444444; stroke-width: 0.4"/>
    <path d="M 318.709524 238.700307 
C 320.162102 238.700307 321.555381 238.123192 322.582508 237.096065 
C 323.609635 236.068938 324.18675 234.675659 324.18675 233.223082 
C 324.18675 231.770505 323.609635 230.377226 322.582508 229.350099 
C 321.555381 228.322971 320.162102 227.745856 318.709524 227.745856 
C 317.256947 227.745856 315.863668 228.322971 314.836541 229.350099 
C 313.809414 230.377226 313.232299 231.770505 313.232299 233.223082 
C 313.232299 234.675659 313.809414 236.068938 314.836541 237.096065 
C 315.863668 238.123192 317.256947 238.700307 318.709524 238.700307 
z
" clip-path="url(#p75e5ca36d5)" style="fill: #e78ac3; stroke: #444444; stroke-width: 0.4"/>
    <path d="M 290.616065 219.983758 
C 292.068643 219.983758 293.461921 219.406643 294.489049 218.379516 
C 295.516176 217.352388 296.093291 215.959109 296.093291 214.506532 
C 296.093291 213.053955 295.516176 211.660676 294.489049 210.633549 
C 293.461921 209.606422 292.068643 209.029307 290.616065 209.029307 
C 289.163488 209.029307 287.770209 209.606422 286.743082 210.633549 
C 285.715955 211.660676 285.13884 213.053955 285.13884 214.506532 
C 285.13884 215.959109 285.715955 217.352388 286.743082 218.379516 
C 287.770209 219.406643 289.163488 219.983758 290.616065 219.983758 
z
" clip-path="url(#p75e5ca36d5)" style="fill: #66c2a5; stroke: #444444; stroke-width: 0.4"/>
    <path d="M 227.787949 199.699115 
C 229.240526 199.699115 230.633805 199.122 231.660932 198.094873 
C 232.688059 197.067745 233.265174 195.674466 233.265174 194.221889 
C 233.265174 192.769312 232.688059 191.376033 231.660932 190.348906 
C 230.633805 189.321779 229.240526 188.744664 227.787949 188.744664 
C 226.335372 188.744664 224.942093 189.321779 223.914965 190.348906 
C 222.887838 191.376033 222.310723 192.769312 222.310723 194.221889 
C 222.310723 195.674466 222.887838 197.067745 223.914965 198.094873 
C 224.942093 199.122 226.335372 199.699115 227.787949 199.699115 
z
" clip-path="url(#p75e5ca36d5)" style="fill: #fc8d62; stroke: #444444; stroke-width: 0.4"/>
    <path d="M 282.208719 172.293838 
C 283.661296 172.293838 285.054575 171.716723 286.081703 170.689596 
C 287.10883 169.662469 287.685945 168.26919 287.685945 166.816613 
C 287.685945 165.364036 287.10883 163.970757 286.081703 162.94363 
C 285.054575 161.916502 283.661296 161.339387 282.208719 161.339387 
C 280.756142 161.339387 279.362863 161.916502 278.335736 162.94363 
C 277.308609 163.970757 276.731494 165.364036 276.731494 166.816613 
C 276.731494 168.26919 277.308609 169.662469 278.335736 170.689596 
C 279.362863 171.716723 280.756142 172.293838 282.208719 172.293838 
z
" clip-path="url(#p75e5ca36d5)" style="fill: #8da0cb; stroke: #444444; stroke-width: 0.4"/>
    <path d="M 225.633949 160.281698 
C 227.086526 160.281698 228.479805 159.704583 229.506932 158.677456 
C 230.534059 157.650329 231.111174 156.25705 231.111174 154.804473 
C 231.111174 153.351895 230.534059 151.958616 229.506932 150.931489 
C 228.479805 149.904362 227.086526 149.327247 225.633949 149.327247 
C 224.181372 149.327247 222.788093 149.904362 221.760965 150.931489 
C 220.733838 151.958616 220.156723 153.351895 220.156723 154.804473 
C 220.156723 156.25705 220.733838 157.650329 221.760965 158.677456 
C 222.788093 159.704583 224.181372 160.281698 225.633949 160.281698 
z
" clip-path="url(#p75e5ca36d5)" style="fill: #e78ac3; stroke: #444444; stroke-width: 0.4"/>
    <path d="M 286.291905 120.99705 
C 287.744482 120.99705 289.137761 120.419935 290.164888 119.392808 
C 291.192016 118.365681 291.769131 116.972402 291.769131 115.519825 
C 291.769131 114.067247 291.192016 112.673968 290.164888 111.646841 
C 289.137761 110.619714 287.744482 110.042599 286.291905 110.042599 
C 284.839328 110.042599 283.446049 110.619714 282.418922 111.646841 
C 281.391795 112.673968 280.81468 114.067247 280.81468 115.519825 
C 280.81468 116.972402 281.391795 118.365681 282.418922 119.392808 
C 283.446049 120.419935 284.839328 120.99705 286.291905 120.99705 
z
" clip-path="url(#p75e5ca36d5)" style="fill: #66c2a5; stroke: #444444; stroke-width: 0.4"/>
    <path d="M 249.202866 105.378004 
C 250.655443 105.378004 252.048722 104.800889 253.075849 103.773761 
C 254.102976 102.746634 254.680091 101.353355 254.680091 99.900778 
C 254.680091 98.448201 254.102976 97.054922 253.075849 96.027795 
C 252.048722 95.000667 250.655443 94.423552 249.202866 94.423552 
C 247.750288 94.423552 246.357009 95.000667 245.329882 96.027795 
C 244.302755 97.054922 243.72564 98.448201 243.72564 99.900778 
C 243.72564 101.353355 244.302755 102.746634 245.329882 103.773761 
C 246.357009 104.800889 247.750288 105.378004 249.202866 105.378004 
z
" clip-path="url(#p75e5ca36d5)" style="fill: #fc8d62; stroke: #444444; stroke-width: 0.4"/>
    <path d="M 285.897968 142.802115 
C 287.350545 142.802115 288.743824 142.225 289.770952 141.197873 
C 290.798079 140.170746 291.375194 138.777467 291.375194 137.324889 
C 291.375194 135.872312 290.798079 134.479033 289.770952 133.451906 
C 288.743824 132.424779 287.350545 131.847664 285.897968 131.847664 
C 284.445391 131.847664 283.052112 132.424779 282.024985 133.451906 
C 280.997858 134.479033 280.420743 135.872312 280.420743 137.324889 
C 280.420743 138.777467 280.997858 140.170746 282.024985 141.197873 
C 283.052112 142.225 284.445391 142.802115 285.897968 142.802115 
z
" clip-path="url(#p75e5ca36d5)" style="fill: #8da0cb; stroke: #444444; stroke-width: 0.4"/>
    <path d="M 184.030305 118.868329 
C 185.482882 118.868329 186.876161 118.291214 187.903288 117.264087 
C 188.930416 116.23696 189.507531 114.843681 189.507531 113.391104 
C 189.507531 111.938526 188.930416 110.545247 187.903288 109.51812 
C 186.876161 108.490993 185.482882 107.913878 184.030305 107.913878 
C 182.577728 107.913878 181.184449 108.490993 180.157322 109.51812 
C 179.130195 110.545247 178.553079 111.938526 178.553079 113.391104 
C 178.553079 114.843681 179.130195 116.23696 180.157322 117.264087 
C 181.184449 118.291214 182.577728 118.868329 184.030305 118.868329 
z
" clip-path="url(#p75e5ca36d5)" style="fill: #e78ac3; stroke: #444444; stroke-width: 0.4"/>
    <path d="M 219.146607 76.626925 
C 220.599184 76.626925 221.992463 76.04981 223.01959 75.022682 
C 224.046717 73.995555 224.623832 72.602276 224.623832 71.149699 
C 224.623832 69.697122 224.046717 68.303843 223.01959 67.276716 
C 221.992463 66.249589 220.599184 65.672473 219.146607 65.672473 
C 217.69403 65.672473 216.300751 66.249589 215.273623 67.276716 
C 214.246496 68.303843 213.669381 69.697122 213.669381 71.149699 
C 213.669381 72.602276 214.246496 73.995555 215.273623 75.022682 
C 216.300751 76.04981 217.69403 76.626925 219.146607 76.626925 
z
" clip-path="url(#p75e5ca36d5)" style="fill: #66c2a5; stroke: #444444; stroke-width: 0.4"/>
    <path d="M 167.4704 81.938865 
C 168.922977 81.938865 170.316256 81.36175 171.343383 80.334623 
C 172.37051 79.307496 172.947625 77.914217 172.947625 76.46164 
C 172.947625 75.009062 172.37051 73.615783 171.343383 72.588656 
C 170.316256 71.561529 168.922977 70.984414 167.4704 70.984414 
C 166.017822 70.984414 164.624544 71.561529 163.597416 72.588656 
C 162.570289 73.615783 161.993174 75.009062 161.993174 76.46164 
C 161.993174 77.914217 162.570289 79.307496 163.597416 80.334623 
C 164.624544 81.36175 166.017822 81.938865 167.4704 81.938865 
z
" clip-path="url(#p75e5ca36d5)" style="fill: #fc8d62; stroke: #444444; stroke-width: 0.4"/>
   </g>
   <g id="legend_1">
    <g id="patch_2">
     <path d="M 15.2 317.225 
L 23.2 317.225 
L 23.2 311.105 
L 15.2 311.105 
z
" style="fill: #66c2a5; stroke: #444444; stroke-width: 0.4; stroke-linejoin: miter"/>
    </g>
    <g id="text_1">
     <text style="font-size: 8px; font-family: 'Arial', 'Helvetica', 'DejaVu Sans', 'Liberation Sans', sans-serif; text-anchor: start" x="29.6" y="316.945" transform="rotate(-0 29.6 316.945)">Community 0</text>
    </g>
    <g id="patch_3">
     <path d="M 15.2 328.74875 
L 23.2 328.74875 
L 23.2 322.62875 
L 15.2 322.62875 
z
" style="fill: #fc8d62; stroke: #444444; stroke-width: 0.4; stroke-linejoin: miter"/>
    </g>
    <g id="text_2">
     <text style="font-size: 8px; font-family: 'Arial', 'Helvetica', 'DejaVu Sans', 'Liberation Sans', sans-serif; text-anchor: start" x="29.6" y="328.46875" transform="rotate(-0 29.6 328.46875)">Community 1</text>
    </g>
    <g id="patch_4">
     <path d="M 15.2 340.2725 
L 23.2 340.2725 
L 23.2 334.1525 
L 15.2 334.1525 
z
" style="fill: #8da0cb; stroke: #444444; stroke-width: 0.4; stroke-linejoin: miter"/>
    </g>
    <g id="text_3">
     <text style="font-size: 8px; font-family: 'Arial', 'Helvetica', 'DejaVu Sans', 'Liberation Sans', sans-serif; text-anchor: start" x="29.6" y="339.9925" transform="rotate(-0 29.6 339.9925)">Community 2</text>
    </g>
    <g id="patch_5">
     <path d="M 15.2 351.79625 
L 23.2 351.79625 
L 23.2 345.67625 
L 15.2 345.67625 
z
" style="fill: #e78ac3; stroke: #444444; stroke-width: 0.4; stroke-linejoin: miter"/>
    </g>
    <g id="text_4">
     <text style="font-size: 8px; font-family: 'Arial', 'Helvetica', 'DejaVu Sans', 'Liberation Sans', sans-serif; text-anchor: start" x="29.6" y="351.51625" transform="rotate(-0 29.6 351.51625)">Community 3</text>
    </g>
   </g>
  </g>
 </g>
 <defs>
  <clipPath id="p75e5ca36d5">
   <rect x="7.2" y="7.2" width="426" height="354"/>
  </clipPath>
 </defs>
</svg>
