<?xml version="1.0" encoding="utf-8" standalone="no"?>
<!DOCTYPE svg PUBLIC "-//W3C//DTD SVG 1.1//EN"
  "http://www.w3.org/Graphics/SVG/1.1/DTD/svg11.dtd">
<svg xmlns:xlink="http://www.w3.org/1999/xlink" width="387.060622pt" height="263.444531pt" viewBox="0 0 387.060622 263.444531" xmlns="http://www.w3.org/2000/svg" version="1.1">
 <metadata>
  <rdf:RDF xmlns:dc="http://purl.org/dc/elements/1.1/" xmlns:cc="http://creativecommons.org/ns#" xmlns:rdf="http://www.w3.org/1999/02/22-rdf-syntax-ns#">
   <cc:Work>
    <dc:type rdf:resource="http://purl.org/dc/dcmitype/StillImage"/>
    <dc:date>2026-05-24T23:18:29.431544</dc:date>
    <dc:format>image/svg+xml</dc:format>
    <dc:creator>
     <cc:Agent>
      <dc:title>Matplotlib v3.10.9, https://matplotlib.org/</dc:title>
     </cc:Agent>
    </dc:creator>
   </cc:Work>
  </rdf:RDF>
 </metadata>
 <defs>
  <style type="text/css">*{stroke-linejoin: round; stroke-linecap: butt}</style>
 </defs>
 <g id="figure_1">
  <g id="patch_1">
   <path d="M -0 263.444531 
L 387.060622 263.444531 
L 387.060622 0 
L -0 0 
z
" style="fill: #ffffff"/>
  </g>
  <g id="axes_1">
   <g id="patch_2">
    <path d="M 46.803906 227.34 
L 366.508341 227.34 
L 366.508341 20.42 
L 46.803906 20.42 
z
" style="fill: #ffffff"/>
   </g>
   <g id="FillBetweenPolyCollection_1">
    <defs>
     <path id="m1f95a614fb" d="M 46.803906 -233.619077 
L 46.803906 -226.581407 
L 52.724359 -223.148859 
L 58.644811 -214.793694 
L 64.565264 -208.206913 
L 70.485716 -201.655375 
L 76.406169 -197.837145 
L 82.326621 -197.35097 
L 88.247074 -189.539821 
L 94.167526 -186.759126 
L 100.087979 -180.183069 
L 106.008431 -176.03682 
L 111.928884 -172.374857 
L 117.849336 -161.185434 
L 123.769789 -167.158692 
L 129.690241 -162.668967 
L 135.610694 -159.820184 
L 141.531146 -147.403835 
L 147.451599 -144.091535 
L 153.372051 -146.01882 
L 159.292504 -144.958254 
L 165.212956 -147.227529 
L 171.133409 -142.321154 
L 177.053861 -142.942148 
L 182.974314 -135.24369 
L 188.894766 -138.17531 
L 194.815219 -138.17531 
L 200.735671 -131.734428 
L 206.656124 -140.409667 
L 212.576576 -135.502414 
L 218.497029 -136.264683 
L 224.417481 -127.487981 
L 230.337934 -126.044789 
L 236.258386 -127.119585 
L 242.178839 -125.696784 
L 248.099291 -129.924522 
L 254.019744 -127.119585 
L 259.940196 -122.735646 
L 265.860649 -118.368531 
L 271.781101 -121.924324 
L 277.701554 -128.881873 
L 283.622006 -118.267467 
L 289.542459 -122.219869 
L 295.462911 -122.845935 
L 301.383364 -112.625405 
L 307.303816 -121.578769 
L 313.224269 -127.036271 
L 319.144721 -110.122287 
L 325.065174 -117.291159 
L 330.985626 -117.925863 
L 336.906079 -116.128917 
L 336.906079 -126.762192 
L 336.906079 -126.762192 
L 330.985626 -132.206433 
L 325.065174 -131.284037 
L 319.144721 -122.219869 
L 313.224269 -138.109077 
L 307.303816 -132.436131 
L 301.383364 -126.95291 
L 295.462911 -136.052093 
L 289.542459 -135.771901 
L 283.622006 -130.62328 
L 277.701554 -139.974227 
L 271.781101 -131.838169 
L 265.860649 -132.194939 
L 259.940196 -134.011333 
L 254.019744 -137.456187 
L 248.099291 -139.548427 
L 242.178839 -138.439946 
L 236.258386 -136.61088 
L 230.337934 -135.850409 
L 224.417481 -137.445096 
L 218.497029 -146.874281 
L 212.576576 -144.335155 
L 206.656124 -151.583023 
L 200.735671 -142.342611 
L 194.815219 -147.931488 
L 188.894766 -150.125138 
L 182.974314 -148.148207 
L 177.053861 -153.832406 
L 171.133409 -153.474811 
L 165.212956 -155.53882 
L 159.292504 -155.783781 
L 153.372051 -156.028335 
L 147.451599 -156.077197 
L 141.531146 -158.730295 
L 135.610694 -168.888216 
L 129.690241 -172.007099 
L 123.769789 -176.275466 
L 117.849336 -171.021888 
L 111.928884 -180.257685 
L 106.008431 -185.532827 
L 100.087979 -188.485583 
L 94.167526 -195.277823 
L 88.247074 -197.623721 
L 82.326621 -203.251749 
L 76.406169 -204.985161 
L 70.485716 -207.692029 
L 64.565264 -215.571411 
L 58.644811 -221.003701 
L 52.724359 -228.306935 
L 46.803906 -233.619077 
z
"/>
    </defs>
    <g clip-path="url(#pa24c0585ee)">
     <use xlink:href="#m1f95a614fb" x="0" y="263.444531" style="fill: #6c757d; fill-opacity: 0.18"/>
    </g>
   </g>
   <g id="FillBetweenPolyCollection_2">
    <defs>
     <path id="m4c1a11ef02" d="M 46.803906 -228.151447 
L 46.803906 -222.466306 
L 52.724359 -216.578271 
L 58.644811 -208.603857 
L 64.565264 -202.612431 
L 70.485716 -192.581709 
L 76.406169 -187.30527 
L 82.326621 -184.054096 
L 88.247074 -176.56473 
L 94.167526 -167.629118 
L 100.087979 -166.37736 
L 106.008431 -162.976938 
L 111.928884 -152.916815 
L 117.849336 -146.207031 
L 123.769789 -145.431729 
L 129.690241 -141.64364 
L 135.610694 -135.850409 
L 141.531146 -138.362809 
L 147.451599 -125.900887 
L 153.372051 -131.722897 
L 159.292504 -119.751155 
L 165.212956 -117.100213 
L 171.133409 -119.27499 
L 177.053861 -118.935723 
L 182.974314 -115.679442 
L 188.894766 -111.412281 
L 194.815219 -108.713022 
L 200.735671 -108.199653 
L 206.656124 -107.317345 
L 212.576576 -102.964864 
L 218.497029 -104.207733 
L 224.417481 -103.998995 
L 230.337934 -99.53125 
L 236.258386 -101.598198 
L 242.178839 -98.349358 
L 248.099291 -102.740308 
L 254.019744 -95.956672 
L 259.940196 -90.151141 
L 265.860649 -89.353296 
L 271.781101 -90.304077 
L 277.701554 -95.558993 
L 283.622006 -89.629964 
L 289.542459 -92.292983 
L 295.462911 -98.248023 
L 301.383364 -77.152719 
L 307.303816 -82.342432 
L 313.224269 -87.495416 
L 319.144721 -87.993152 
L 325.065174 -87.977623 
L 330.985626 -83.899403 
L 336.906079 -88.225886 
L 336.906079 -101.838637 
L 336.906079 -101.838637 
L 330.985626 -97.055724 
L 325.065174 -99.789423 
L 319.144721 -101.852769 
L 313.224269 -101.739681 
L 307.303816 -95.455715 
L 301.383364 -88.132837 
L 295.462911 -107.752374 
L 289.542459 -102.346508 
L 283.622006 -99.832407 
L 277.701554 -106.169228 
L 271.781101 -104.596584 
L 265.860649 -103.92935 
L 259.940196 -104.346726 
L 254.019744 -106.97658 
L 248.099291 -115.923613 
L 242.178839 -110.535786 
L 236.258386 -111.240051 
L 230.337934 -109.412633 
L 224.417481 -112.283579 
L 218.497029 -112.480884 
L 212.576576 -113.018834 
L 206.656124 -117.925863 
L 200.735671 -117.25299 
L 194.815219 -120.325508 
L 188.894766 -123.212967 
L 182.974314 -127.083885 
L 177.053861 -130.332534 
L 171.133409 -131.249334 
L 165.212956 -128.422641 
L 159.292504 -128.139321 
L 153.372051 -139.930612 
L 147.451599 -136.454634 
L 141.531146 -147.071789 
L 135.610694 -145.694113 
L 129.690241 -148.652646 
L 123.769789 -153.066486 
L 117.849336 -153.385275 
L 111.928884 -161.430591 
L 106.008431 -171.541706 
L 100.087979 -175.147012 
L 94.167526 -174.786134 
L 88.247074 -181.66002 
L 82.326621 -190.517 
L 76.406169 -192.413933 
L 70.485716 -198.643878 
L 64.565264 -209.428529 
L 58.644811 -212.714943 
L 52.724359 -220.815131 
L 46.803906 -228.151447 
z
"/>
    </defs>
    <g clip-path="url(#pa24c0585ee)">
     <use xlink:href="#m4c1a11ef02" x="0" y="263.444531" style="fill: #2196f3; fill-opacity: 0.18"/>
    </g>
   </g>
   <g id="FillBetweenPolyCollection_3">
    <defs>
     <path id="mc107397274" d="M 46.803906 -229.295806 
L 46.803906 -224.774166 
L 52.724359 -215.571411 
L 58.644811 -209.088316 
L 64.565264 -196.692815 
L 70.485716 -190.717834 
L 76.406169 -180.886265 
L 82.326621 -178.758129 
L 88.247074 -173.142427 
L 94.167526 -160.68442 
L 100.087979 -160.92096 
L 106.008431 -152.946761 
L 111.928884 -143.815651 
L 117.849336 -132.539377 
L 123.769789 -138.252545 
L 129.690241 -128.032936 
L 135.610694 -120.885212 
L 141.531146 -121.281931 
L 147.451599 -116.167379 
L 153.372051 -116.921771 
L 159.292504 -102.894727 
L 165.212956 -107.140245 
L 171.133409 -105.770763 
L 177.053861 -102.388751 
L 182.974314 -91.77936 
L 188.894766 -85.881788 
L 194.815219 -92.413576 
L 200.735671 -85.345221 
L 206.656124 -83.291419 
L 212.576576 -87.277126 
L 218.497029 -76.616814 
L 224.417481 -64.577099 
L 230.337934 -72.620226 
L 236.258386 -63.204974 
L 242.178839 -74.572572 
L 248.099291 -71.164876 
L 254.019744 -64.394887 
L 259.940196 -66.206917 
L 265.860649 -71.356279 
L 271.781101 -65.484784 
L 277.701554 -70.169045 
L 283.622006 -62.023878 
L 289.542459 -69.078144 
L 295.462911 -70.763861 
L 301.383364 -69.853165 
L 307.303816 -57.680122 
L 313.224269 -65.249324 
L 319.144721 -49.336688 
L 325.065174 -51.760731 
L 330.985626 -45.509986 
L 336.906079 -62.504843 
L 336.906079 -77.753286 
L 336.906079 -77.753286 
L 330.985626 -61.894118 
L 325.065174 -66.853817 
L 319.144721 -61.392538 
L 313.224269 -76.951984 
L 307.303816 -69.095804 
L 301.383364 -82.180978 
L 295.462911 -81.468464 
L 289.542459 -80.000202 
L 283.622006 -77.018926 
L 277.701554 -84.870147 
L 271.781101 -78.765344 
L 265.860649 -82.697008 
L 259.940196 -81.289794 
L 254.019744 -79.326432 
L 248.099291 -84.632033 
L 242.178839 -88.860153 
L 236.258386 -76.280878 
L 230.337934 -85.171206 
L 224.417481 -77.403254 
L 218.497029 -89.583889 
L 212.576576 -98.595167 
L 206.656124 -94.878977 
L 200.735671 -97.245393 
L 194.815219 -103.048984 
L 188.894766 -99.04235 
L 182.974314 -103.803906 
L 177.053861 -112.822251 
L 171.133409 -115.769447 
L 165.212956 -118.065131 
L 159.292504 -112.191413 
L 153.372051 -125.275678 
L 147.451599 -125.696784 
L 141.531146 -128.905385 
L 135.610694 -130.913451 
L 129.690241 -136.822663 
L 123.769789 -146.36369 
L 117.849336 -140.333558 
L 111.928884 -151.734058 
L 106.008431 -160.892595 
L 100.087979 -167.773562 
L 94.167526 -166.732199 
L 88.247074 -180.274261 
L 82.326621 -183.714463 
L 76.406169 -186.187065 
L 70.485716 -196.262313 
L 64.565264 -201.116977 
L 58.644811 -214.163279 
L 52.724359 -220.443568 
L 46.803906 -229.295806 
z
"/>
    </defs>
    <g clip-path="url(#pa24c0585ee)">
     <use xlink:href="#mc107397274" x="0" y="263.444531" style="fill: #e53935; fill-opacity: 0.18"/>
    </g>
   </g>
   <g id="matplotlib.axis_1">
    <g id="xtick_1">
     <g id="line2d_1">
      <defs>
       <path id="m0d19b2e6e0" d="M 0 0 
L 0 3.5 
" style="stroke: #000000; stroke-width: 0.8"/>
      </defs>
      <g>
       <use xlink:href="#m0d19b2e6e0" x="46.803906" y="227.34" style="stroke: #000000; stroke-width: 0.8"/>
      </g>
     </g>
     <g id="text_1">
      <!-- 0 -->
      <g transform="translate(44.099844 240.798672) scale(0.085 -0.085)">
       <defs>
        <path id="DejaVuSans-30" d="M 2034 4250 
Q 1547 4250 1301 3770 
Q 1056 3291 1056 2328 
Q 1056 1369 1301 889 
Q 1547 409 2034 409 
Q 2525 409 2770 889 
Q 3016 1369 3016 2328 
Q 3016 3291 2770 3770 
Q 2525 4250 2034 4250 
z
M 2034 4750 
Q 2819 4750 3233 4129 
Q 3647 3509 3647 2328 
Q 3647 1150 3233 529 
Q 2819 -91 2034 -91 
Q 1250 -91 836 529 
Q 422 1150 422 2328 
Q 422 3509 836 4129 
Q 1250 4750 2034 4750 
z
" transform="scale(0.015625)"/>
       </defs>
       <use xlink:href="#DejaVuSans-30"/>
      </g>
     </g>
    </g>
    <g id="xtick_2">
     <g id="line2d_2">
      <g>
       <use xlink:href="#m0d19b2e6e0" x="106.008431" y="227.34" style="stroke: #000000; stroke-width: 0.8"/>
      </g>
     </g>
     <g id="text_2">
      <!-- 10 -->
      <g transform="translate(100.600306 240.798672) scale(0.085 -0.085)">
       <defs>
        <path id="DejaVuSans-31" d="M 794 531 
L 1825 531 
L 1825 4091 
L 703 3866 
L 703 4441 
L 1819 4666 
L 2450 4666 
L 2450 531 
L 3481 531 
L 3481 0 
L 794 0 
L 794 531 
z
" transform="scale(0.015625)"/>
       </defs>
       <use xlink:href="#DejaVuSans-31"/>
       <use xlink:href="#DejaVuSans-30" transform="translate(63.623047 0)"/>
      </g>
     </g>
    </g>
    <g id="xtick_3">
     <g id="line2d_3">
      <g>
       <use xlink:href="#m0d19b2e6e0" x="165.212956" y="227.34" style="stroke: #000000; stroke-width: 0.8"/>
      </g>
     </g>
     <g id="text_3">
      <!-- 20 -->
      <g transform="translate(159.804831 240.798672) scale(0.085 -0.085)">
       <defs>
        <path id="DejaVuSans-32" d="M 1228 531 
L 3431 531 
L 3431 0 
L 469 0 
L 469 531 
Q 828 903 1448 1529 
Q 2069 2156 2228 2338 
Q 2531 2678 2651 2914 
Q 2772 3150 2772 3378 
Q 2772 3750 2511 3984 
Q 2250 4219 1831 4219 
Q 1534 4219 1204 4116 
Q 875 4013 500 3803 
L 500 4441 
Q 881 4594 1212 4672 
Q 1544 4750 1819 4750 
Q 2544 4750 2975 4387 
Q 3406 4025 3406 3419 
Q 3406 3131 3298 2873 
Q 3191 2616 2906 2266 
Q 2828 2175 2409 1742 
Q 1991 1309 1228 531 
z
" transform="scale(0.015625)"/>
       </defs>
       <use xlink:href="#DejaVuSans-32"/>
       <use xlink:href="#DejaVuSans-30" transform="translate(63.623047 0)"/>
      </g>
     </g>
    </g>
    <g id="xtick_4">
     <g id="line2d_4">
      <g>
       <use xlink:href="#m0d19b2e6e0" x="224.417481" y="227.34" style="stroke: #000000; stroke-width: 0.8"/>
      </g>
     </g>
     <g id="text_4">
      <!-- 30 -->
      <g transform="translate(219.009356 240.798672) scale(0.085 -0.085)">
       <defs>
        <path id="DejaVuSans-33" d="M 2597 2516 
Q 3050 2419 3304 2112 
Q 3559 1806 3559 1356 
Q 3559 666 3084 287 
Q 2609 -91 1734 -91 
Q 1441 -91 1130 -33 
Q 819 25 488 141 
L 488 750 
Q 750 597 1062 519 
Q 1375 441 1716 441 
Q 2309 441 2620 675 
Q 2931 909 2931 1356 
Q 2931 1769 2642 2001 
Q 2353 2234 1838 2234 
L 1294 2234 
L 1294 2753 
L 1863 2753 
Q 2328 2753 2575 2939 
Q 2822 3125 2822 3475 
Q 2822 3834 2567 4026 
Q 2313 4219 1838 4219 
Q 1578 4219 1281 4162 
Q 984 4106 628 3988 
L 628 4550 
Q 988 4650 1302 4700 
Q 1616 4750 1894 4750 
Q 2613 4750 3031 4423 
Q 3450 4097 3450 3541 
Q 3450 3153 3228 2886 
Q 3006 2619 2597 2516 
z
" transform="scale(0.015625)"/>
       </defs>
       <use xlink:href="#DejaVuSans-33"/>
       <use xlink:href="#DejaVuSans-30" transform="translate(63.623047 0)"/>
      </g>
     </g>
    </g>
    <g id="xtick_5">
     <g id="line2d_5">
      <g>
       <use xlink:href="#m0d19b2e6e0" x="283.622006" y="227.34" style="stroke: #000000; stroke-width: 0.8"/>
      </g>
     </g>
     <g id="text_5">
      <!-- 40 -->
      <g transform="translate(278.213881 240.798672) scale(0.085 -0.085)">
       <defs>
        <path id="DejaVuSans-34" d="M 2419 4116 
L 825 1625 
L 2419 1625 
L 2419 4116 
z
M 2253 4666 
L 3047 4666 
L 3047 1625 
L 3713 1625 
L 3713 1100 
L 3047 1100 
L 3047 0 
L 2419 0 
L 2419 1100 
L 313 1100 
L 313 1709 
L 2253 4666 
z
" transform="scale(0.015625)"/>
       </defs>
       <use xlink:href="#DejaVuSans-34"/>
       <use xlink:href="#DejaVuSans-30" transform="translate(63.623047 0)"/>
      </g>
     </g>
    </g>
    <g id="xtick_6">
     <g id="line2d_6">
      <g>
       <use xlink:href="#m0d19b2e6e0" x="342.826531" y="227.34" style="stroke: #000000; stroke-width: 0.8"/>
      </g>
     </g>
     <g id="text_6">
      <!-- 50 -->
      <g transform="translate(337.418406 240.798672) scale(0.085 -0.085)">
       <defs>
        <path id="DejaVuSans-35" d="M 691 4666 
L 3169 4666 
L 3169 4134 
L 1269 4134 
L 1269 2991 
Q 1406 3038 1543 3061 
Q 1681 3084 1819 3084 
Q 2600 3084 3056 2656 
Q 3513 2228 3513 1497 
Q 3513 744 3044 326 
Q 2575 -91 1722 -91 
Q 1428 -91 1123 -41 
Q 819 9 494 109 
L 494 744 
Q 775 591 1075 516 
Q 1375 441 1709 441 
Q 2250 441 2565 725 
Q 2881 1009 2881 1497 
Q 2881 1984 2565 2268 
Q 2250 2553 1709 2553 
Q 1456 2553 1204 2497 
Q 953 2441 691 2322 
L 691 4666 
z
" transform="scale(0.015625)"/>
       </defs>
       <use xlink:href="#DejaVuSans-35"/>
       <use xlink:href="#DejaVuSans-30" transform="translate(63.623047 0)"/>
      </g>
     </g>
    </g>
    <g id="text_7">
     <!-- Training step -->
     <g transform="translate(174.525655 254.164844) scale(0.1 -0.1)">
      <defs>
       <path id="DejaVuSans-54" d="M -19 4666 
L 3928 4666 
L 3928 4134 
L 2272 4134 
L 2272 0 
L 1638 0 
L 1638 4134 
L -19 4134 
L -19 4666 
z
" transform="scale(0.015625)"/>
       <path id="DejaVuSans-72" d="M 2631 2963 
Q 2534 3019 2420 3045 
Q 2306 3072 2169 3072 
Q 1681 3072 1420 2755 
Q 1159 2438 1159 1844 
L 1159 0 
L 581 0 
L 581 3500 
L 1159 3500 
L 1159 2956 
Q 1341 3275 1631 3429 
Q 1922 3584 2338 3584 
Q 2397 3584 2469 3576 
Q 2541 3569 2628 3553 
L 2631 2963 
z
" transform="scale(0.015625)"/>
       <path id="DejaVuSans-61" d="M 2194 1759 
Q 1497 1759 1228 1600 
Q 959 1441 959 1056 
Q 959 750 1161 570 
Q 1363 391 1709 391 
Q 2188 391 2477 730 
Q 2766 1069 2766 1631 
L 2766 1759 
L 2194 1759 
z
M 3341 1997 
L 3341 0 
L 2766 0 
L 2766 531 
Q 2569 213 2275 61 
Q 1981 -91 1556 -91 
Q 1019 -91 701 211 
Q 384 513 384 1019 
Q 384 1609 779 1909 
Q 1175 2209 1959 2209 
L 2766 2209 
L 2766 2266 
Q 2766 2663 2505 2880 
Q 2244 3097 1772 3097 
Q 1472 3097 1187 3025 
Q 903 2953 641 2809 
L 641 3341 
Q 956 3463 1253 3523 
Q 1550 3584 1831 3584 
Q 2591 3584 2966 3190 
Q 3341 2797 3341 1997 
z
" transform="scale(0.015625)"/>
       <path id="DejaVuSans-69" d="M 603 3500 
L 1178 3500 
L 1178 0 
L 603 0 
L 603 3500 
z
M 603 4863 
L 1178 4863 
L 1178 4134 
L 603 4134 
L 603 4863 
z
" transform="scale(0.015625)"/>
       <path id="DejaVuSans-6e" d="M 3513 2113 
L 3513 0 
L 2938 0 
L 2938 2094 
Q 2938 2591 2744 2837 
Q 2550 3084 2163 3084 
Q 1697 3084 1428 2787 
Q 1159 2491 1159 1978 
L 1159 0 
L 581 0 
L 581 3500 
L 1159 3500 
L 1159 2956 
Q 1366 3272 1645 3428 
Q 1925 3584 2291 3584 
Q 2894 3584 3203 3211 
Q 3513 2838 3513 2113 
z
" transform="scale(0.015625)"/>
       <path id="DejaVuSans-67" d="M 2906 1791 
Q 2906 2416 2648 2759 
Q 2391 3103 1925 3103 
Q 1463 3103 1205 2759 
Q 947 2416 947 1791 
Q 947 1169 1205 825 
Q 1463 481 1925 481 
Q 2391 481 2648 825 
Q 2906 1169 2906 1791 
z
M 3481 434 
Q 3481 -459 3084 -895 
Q 2688 -1331 1869 -1331 
Q 1566 -1331 1297 -1286 
Q 1028 -1241 775 -1147 
L 775 -588 
Q 1028 -725 1275 -790 
Q 1522 -856 1778 -856 
Q 2344 -856 2625 -561 
Q 2906 -266 2906 331 
L 2906 616 
Q 2728 306 2450 153 
Q 2172 0 1784 0 
Q 1141 0 747 490 
Q 353 981 353 1791 
Q 353 2603 747 3093 
Q 1141 3584 1784 3584 
Q 2172 3584 2450 3431 
Q 2728 3278 2906 2969 
L 2906 3500 
L 3481 3500 
L 3481 434 
z
" transform="scale(0.015625)"/>
       <path id="DejaVuSans-20" transform="scale(0.015625)"/>
       <path id="DejaVuSans-73" d="M 2834 3397 
L 2834 2853 
Q 2591 2978 2328 3040 
Q 2066 3103 1784 3103 
Q 1356 3103 1142 2972 
Q 928 2841 928 2578 
Q 928 2378 1081 2264 
Q 1234 2150 1697 2047 
L 1894 2003 
Q 2506 1872 2764 1633 
Q 3022 1394 3022 966 
Q 3022 478 2636 193 
Q 2250 -91 1575 -91 
Q 1294 -91 989 -36 
Q 684 19 347 128 
L 347 722 
Q 666 556 975 473 
Q 1284 391 1588 391 
Q 1994 391 2212 530 
Q 2431 669 2431 922 
Q 2431 1156 2273 1281 
Q 2116 1406 1581 1522 
L 1381 1569 
Q 847 1681 609 1914 
Q 372 2147 372 2553 
Q 372 3047 722 3315 
Q 1072 3584 1716 3584 
Q 2034 3584 2315 3537 
Q 2597 3491 2834 3397 
z
" transform="scale(0.015625)"/>
       <path id="DejaVuSans-74" d="M 1172 4494 
L 1172 3500 
L 2356 3500 
L 2356 3053 
L 1172 3053 
L 1172 1153 
Q 1172 725 1289 603 
Q 1406 481 1766 481 
L 2356 481 
L 2356 0 
L 1766 0 
Q 1100 0 847 248 
Q 594 497 594 1153 
L 594 3053 
L 172 3053 
L 172 3500 
L 594 3500 
L 594 4494 
L 1172 4494 
z
" transform="scale(0.015625)"/>
       <path id="DejaVuSans-65" d="M 3597 1894 
L 3597 1613 
L 953 1613 
Q 991 1019 1311 708 
Q 1631 397 2203 397 
Q 2534 397 2845 478 
Q 3156 559 3463 722 
L 3463 178 
Q 3153 47 2828 -22 
Q 2503 -91 2169 -91 
Q 1331 -91 842 396 
Q 353 884 353 1716 
Q 353 2575 817 3079 
Q 1281 3584 2069 3584 
Q 2775 3584 3186 3129 
Q 3597 2675 3597 1894 
z
M 3022 2063 
Q 3016 2534 2758 2815 
Q 2500 3097 2075 3097 
Q 1594 3097 1305 2825 
Q 1016 2553 972 2059 
L 3022 2063 
z
" transform="scale(0.015625)"/>
       <path id="DejaVuSans-70" d="M 1159 525 
L 1159 -1331 
L 581 -1331 
L 581 3500 
L 1159 3500 
L 1159 2969 
Q 1341 3281 1617 3432 
Q 1894 3584 2278 3584 
Q 2916 3584 3314 3078 
Q 3713 2572 3713 1747 
Q 3713 922 3314 415 
Q 2916 -91 2278 -91 
Q 1894 -91 1617 61 
Q 1341 213 1159 525 
z
M 3116 1747 
Q 3116 2381 2855 2742 
Q 2594 3103 2138 3103 
Q 1681 3103 1420 2742 
Q 1159 2381 1159 1747 
Q 1159 1113 1420 752 
Q 1681 391 2138 391 
Q 2594 391 2855 752 
Q 3116 1113 3116 1747 
z
" transform="scale(0.015625)"/>
      </defs>
      <use xlink:href="#DejaVuSans-54"/>
      <use xlink:href="#DejaVuSans-72" transform="translate(46.333984 0)"/>
      <use xlink:href="#DejaVuSans-61" transform="translate(87.447266 0)"/>
      <use xlink:href="#DejaVuSans-69" transform="translate(148.726562 0)"/>
      <use xlink:href="#DejaVuSans-6e" transform="translate(176.509766 0)"/>
      <use xlink:href="#DejaVuSans-69" transform="translate(239.888672 0)"/>
      <use xlink:href="#DejaVuSans-6e" transform="translate(267.671875 0)"/>
      <use xlink:href="#DejaVuSans-67" transform="translate(331.050781 0)"/>
      <use xlink:href="#DejaVuSans-20" transform="translate(394.527344 0)"/>
      <use xlink:href="#DejaVuSans-73" transform="translate(426.314453 0)"/>
      <use xlink:href="#DejaVuSans-74" transform="translate(478.414062 0)"/>
      <use xlink:href="#DejaVuSans-65" transform="translate(517.623047 0)"/>
      <use xlink:href="#DejaVuSans-70" transform="translate(579.146484 0)"/>
     </g>
    </g>
   </g>
   <g id="matplotlib.axis_2">
    <g id="ytick_1">
     <g id="line2d_7">
      <defs>
       <path id="m59f4ac2ab4" d="M 0 0 
L -3.5 0 
" style="stroke: #000000; stroke-width: 0.8"/>
      </defs>
      <g>
       <use xlink:href="#m59f4ac2ab4" x="46.803906" y="167.370234" style="stroke: #000000; stroke-width: 0.8"/>
      </g>
     </g>
     <g id="text_8">
      <!-- 1.00 -->
      <g transform="translate(20.878125 170.59957) scale(0.085 -0.085)">
       <defs>
        <path id="DejaVuSans-2e" d="M 684 794 
L 1344 794 
L 1344 0 
L 684 0 
L 684 794 
z
" transform="scale(0.015625)"/>
       </defs>
       <use xlink:href="#DejaVuSans-31"/>
       <use xlink:href="#DejaVuSans-2e" transform="translate(63.623047 0)"/>
       <use xlink:href="#DejaVuSans-30" transform="translate(95.410156 0)"/>
       <use xlink:href="#DejaVuSans-30" transform="translate(159.033203 0)"/>
      </g>
     </g>
    </g>
    <g id="ytick_2">
     <g id="line2d_8">
      <defs>
       <path id="m702e28dbd3" d="M 0 0 
L -2 0 
" style="stroke: #000000; stroke-width: 0.6"/>
      </defs>
      <g>
       <use xlink:href="#m702e28dbd3" x="46.803906" y="219.791408" style="stroke: #000000; stroke-width: 0.6"/>
      </g>
     </g>
    </g>
    <g id="ytick_3">
     <g id="line2d_9">
      <g>
       <use xlink:href="#m702e28dbd3" x="46.803906" y="200.166053" style="stroke: #000000; stroke-width: 0.6"/>
      </g>
     </g>
    </g>
    <g id="ytick_4">
     <g id="line2d_10">
      <g>
       <use xlink:href="#m702e28dbd3" x="46.803906" y="182.855263" style="stroke: #000000; stroke-width: 0.6"/>
      </g>
     </g>
    </g>
    <g id="ytick_5">
     <g id="line2d_11">
      <g>
       <use xlink:href="#m702e28dbd3" x="46.803906" y="65.497116" style="stroke: #000000; stroke-width: 0.6"/>
      </g>
     </g>
    </g>
    <g id="text_9">
     <!-- Validation loss -->
     <g transform="translate(14.798438 159.8175) rotate(-90) scale(0.1 -0.1)">
      <defs>
       <path id="DejaVuSans-56" d="M 1831 0 
L 50 4666 
L 709 4666 
L 2188 738 
L 3669 4666 
L 4325 4666 
L 2547 0 
L 1831 0 
z
" transform="scale(0.015625)"/>
       <path id="DejaVuSans-6c" d="M 603 4863 
L 1178 4863 
L 1178 0 
L 603 0 
L 603 4863 
z
" transform="scale(0.015625)"/>
       <path id="DejaVuSans-64" d="M 2906 2969 
L 2906 4863 
L 3481 4863 
L 3481 0 
L 2906 0 
L 2906 525 
Q 2725 213 2448 61 
Q 2172 -91 1784 -91 
Q 1150 -91 751 415 
Q 353 922 353 1747 
Q 353 2572 751 3078 
Q 1150 3584 1784 3584 
Q 2172 3584 2448 3432 
Q 2725 3281 2906 2969 
z
M 947 1747 
Q 947 1113 1208 752 
Q 1469 391 1925 391 
Q 2381 391 2643 752 
Q 2906 1113 2906 1747 
Q 2906 2381 2643 2742 
Q 2381 3103 1925 3103 
Q 1469 3103 1208 2742 
Q 947 2381 947 1747 
z
" transform="scale(0.015625)"/>
       <path id="DejaVuSans-6f" d="M 1959 3097 
Q 1497 3097 1228 2736 
Q 959 2375 959 1747 
Q 959 1119 1226 758 
Q 1494 397 1959 397 
Q 2419 397 2687 759 
Q 2956 1122 2956 1747 
Q 2956 2369 2687 2733 
Q 2419 3097 1959 3097 
z
M 1959 3584 
Q 2709 3584 3137 3096 
Q 3566 2609 3566 1747 
Q 3566 888 3137 398 
Q 2709 -91 1959 -91 
Q 1206 -91 779 398 
Q 353 888 353 1747 
Q 353 2609 779 3096 
Q 1206 3584 1959 3584 
z
" transform="scale(0.015625)"/>
      </defs>
      <use xlink:href="#DejaVuSans-56"/>
      <use xlink:href="#DejaVuSans-61" transform="translate(60.658203 0)"/>
      <use xlink:href="#DejaVuSans-6c" transform="translate(121.9375 0)"/>
      <use xlink:href="#DejaVuSans-69" transform="translate(149.720703 0)"/>
      <use xlink:href="#DejaVuSans-64" transform="translate(177.503906 0)"/>
      <use xlink:href="#DejaVuSans-61" transform="translate(240.980469 0)"/>
      <use xlink:href="#DejaVuSans-74" transform="translate(302.259766 0)"/>
      <use xlink:href="#DejaVuSans-69" transform="translate(341.46875 0)"/>
      <use xlink:href="#DejaVuSans-6f" transform="translate(369.251953 0)"/>
      <use xlink:href="#DejaVuSans-6e" transform="translate(430.433594 0)"/>
      <use xlink:href="#DejaVuSans-20" transform="translate(493.8125 0)"/>
      <use xlink:href="#DejaVuSans-6c" transform="translate(525.599609 0)"/>
      <use xlink:href="#DejaVuSans-6f" transform="translate(553.382812 0)"/>
      <use xlink:href="#DejaVuSans-73" transform="translate(614.564453 0)"/>
      <use xlink:href="#DejaVuSans-73" transform="translate(666.664062 0)"/>
     </g>
    </g>
   </g>
   <g id="line2d_12">
    <path d="M 46.803906 33.302169 
L 52.724359 37.694007 
L 58.644811 45.513037 
L 64.565264 51.509247 
L 70.485716 58.739838 
L 76.406169 61.989927 
L 82.326621 63.11356 
L 88.247074 69.807187 
L 94.167526 72.364346 
L 100.087979 79.051586 
L 106.008431 82.583028 
L 111.928884 87.075417 
L 117.849336 97.258595 
L 123.769789 91.656774 
L 129.690241 96.032346 
L 135.610694 99.020406 
L 141.531146 110.268383 
L 147.451599 113.238019 
L 153.372051 112.335758 
L 159.292504 112.973864 
L 165.212956 112.002614 
L 171.133409 115.440768 
L 177.053861 114.95641 
L 182.974314 121.606997 
L 188.894766 119.17289 
L 194.815219 120.310194 
L 200.735671 126.310322 
L 206.656124 117.342032 
L 212.576576 123.459403 
L 218.497029 121.779335 
L 224.417481 130.893686 
L 230.337934 132.415172 
L 236.258386 131.502695 
L 242.178839 131.238098 
L 248.099291 128.629298 
L 254.019744 131.065791 
L 259.940196 134.962934 
L 265.860649 138.000266 
L 271.781101 136.479709 
L 277.701554 128.91186 
L 283.622006 138.869353 
L 289.542459 134.2925 
L 295.462911 133.847237 
L 301.383364 143.480854 
L 307.303816 136.336845 
L 313.224269 130.767604 
L 319.144721 147.149016 
L 325.065174 138.990467 
L 330.985626 138.205004 
L 336.906079 141.902834 
" clip-path="url(#pa24c0585ee)" style="fill: none; stroke: #6c757d; stroke-width: 1.5; stroke-linecap: square"/>
   </g>
   <g id="line2d_13">
    <path d="M 46.803906 38.108167 
L 52.724359 44.732563 
L 58.644811 52.770758 
L 64.565264 57.384541 
L 70.485716 67.800484 
L 76.406169 73.562734 
L 82.326621 76.123461 
L 88.247074 84.310077 
L 94.167526 92.193344 
L 100.087979 92.616946 
L 106.008431 96.122829 
L 111.928884 106.209189 
L 117.849336 113.604558 
L 123.769789 114.145854 
L 129.690241 118.25461 
L 135.610694 122.589873 
L 141.531146 120.662734 
L 147.451599 132.172061 
L 153.372051 127.560489 
L 159.292504 139.439459 
L 165.212956 140.574099 
L 171.133409 138.060453 
L 177.053861 138.699961 
L 182.974314 141.952278 
L 188.894766 146.013502 
L 194.815219 148.810606 
L 200.735671 150.648511 
L 206.656124 150.727232 
L 212.576576 155.366728 
L 218.497029 155.042018 
L 224.417481 155.244878 
L 230.337934 158.889561 
L 236.258386 156.946354 
L 242.178839 158.875688 
L 248.099291 153.964803 
L 254.019744 161.874646 
L 259.940196 166.024275 
L 265.860649 166.622583 
L 271.781101 165.820532 
L 277.701554 162.484694 
L 283.622006 168.624835 
L 289.542459 166.038839 
L 295.462911 160.367518 
L 301.383364 180.699238 
L 307.303816 174.399255 
L 313.224269 168.654484 
L 319.144721 168.358259 
L 325.065174 169.442379 
L 330.985626 172.819805 
L 336.906079 168.254722 
" clip-path="url(#pa24c0585ee)" style="fill: none; stroke: #2196f3; stroke-width: 1.5; stroke-linecap: square"/>
   </g>
   <g id="patch_3">
    <path d="M 46.803906 227.34 
L 46.803906 20.42 
" style="fill: none; stroke: #000000; stroke-width: 0.8; stroke-linejoin: miter; stroke-linecap: square"/>
   </g>
   <g id="patch_4">
    <path d="M 366.508341 227.34 
L 366.508341 20.42 
" style="fill: none; stroke: #000000; stroke-width: 0.8; stroke-linejoin: miter; stroke-linecap: square"/>
   </g>
   <g id="patch_5">
    <path d="M 46.803906 227.34 
L 366.508341 227.34 
" style="fill: none; stroke: #000000; stroke-width: 0.8; stroke-linejoin: miter; stroke-linecap: square"/>
   </g>
   <g id="patch_6">
    <path d="M 46.803906 20.42 
L 366.508341 20.42 
" style="fill: none; stroke: #000000; stroke-width: 0.8; stroke-linejoin: miter; stroke-linecap: square"/>
   </g>
   <g id="line2d_14">
    <path d="M 46.803906 36.392157 
L 52.724359 45.416854 
L 58.644811 51.79683 
L 64.565264 64.522989 
L 70.485716 69.928314 
L 76.406169 79.88397 
L 82.326621 82.187343 
L 88.247074 86.692933 
L 94.167526 99.705116 
L 100.087979 99.057336 
L 106.008431 106.471162 
L 111.928884 115.616356 
L 117.849336 126.956402 
L 123.769789 121.080466 
L 129.690241 130.951032 
L 135.610694 137.459685 
L 141.531146 138.30145 
L 147.451599 142.435229 
L 153.372051 142.28646 
L 159.292504 155.827966 
L 165.212956 150.740356 
L 171.133409 152.589415 
L 177.053861 155.746466 
L 182.974314 165.529959 
L 188.894766 170.835204 
L 194.815219 165.61707 
L 200.735671 172.028814 
L 206.656124 174.245164 
L 212.576576 170.399464 
L 218.497029 180.201218 
L 224.417481 192.314483 
L 230.337934 184.414879 
L 236.258386 193.556235 
L 242.178839 181.554619 
L 248.099291 185.39188 
L 254.019744 191.394332 
L 259.940196 189.502777 
L 265.860649 186.30853 
L 271.781101 191.169512 
L 277.701554 185.741199 
L 283.622006 193.731975 
L 289.542459 188.803924 
L 295.462911 187.230932 
L 301.383364 187.298243 
L 307.303816 199.945761 
L 313.224269 192.22743 
L 319.144721 207.956338 
L 325.065174 203.943597 
L 330.985626 209.514289 
L 336.906079 193.1178 
" clip-path="url(#pa24c0585ee)" style="fill: none; stroke: #e53935; stroke-width: 2.2; stroke-linecap: square"/>
   </g>
   <g id="patch_7">
    <path d="M 339.866305 171.596456 
Q 339.866305 180.685773 339.866305 189.77509 
" style="fill: none; stroke: #555555; stroke-width: 1.2; stroke-linecap: round"/>
    <path d="M 337.866305 175.596456 
L 339.866305 171.596456 
L 341.866305 175.596456 
" style="fill: none; stroke: #555555; stroke-width: 1.2; stroke-linecap: round"/>
    <path d="M 341.866305 185.77509 
L 339.866305 189.77509 
L 337.866305 185.77509 
" style="fill: none; stroke: #555555; stroke-width: 1.2; stroke-linecap: round"/>
   </g>
   <g id="text_10">
    <!-- $\Delta=0.155$ -->
    <g style="fill: #333333" transform="translate(344.010622 182.23066) scale(0.075 -0.075)">
     <defs>
      <path id="DejaVuSans-394" d="M 2188 4044 
L 906 525 
L 3472 525 
L 2188 4044 
z
M 50 0 
L 1831 4666 
L 2547 4666 
L 4325 0 
L 50 0 
z
" transform="scale(0.015625)"/>
      <path id="DejaVuSans-3d" d="M 678 2906 
L 4684 2906 
L 4684 2381 
L 678 2381 
L 678 2906 
z
M 678 1631 
L 4684 1631 
L 4684 1100 
L 678 1100 
L 678 1631 
z
" transform="scale(0.015625)"/>
     </defs>
     <use xlink:href="#DejaVuSans-394" transform="translate(0 0.78125)"/>
     <use xlink:href="#DejaVuSans-3d" transform="translate(87.890625 0.78125)"/>
     <use xlink:href="#DejaVuSans-30" transform="translate(191.162109 0.78125)"/>
     <use xlink:href="#DejaVuSans-2e" transform="translate(254.785156 0.78125)"/>
     <use xlink:href="#DejaVuSans-31" transform="translate(286.572266 0.78125)"/>
     <use xlink:href="#DejaVuSans-35" transform="translate(350.195312 0.78125)"/>
     <use xlink:href="#DejaVuSans-35" transform="translate(413.818359 0.78125)"/>
    </g>
   </g>
   <g id="text_11">
    <!-- Validation Loss over Training (95% CI, $n=5$) -->
    <g transform="translate(100.873624 14.42) scale(0.095 -0.095)">
     <defs>
      <path id="DejaVuSans-4c" d="M 628 4666 
L 1259 4666 
L 1259 531 
L 3531 531 
L 3531 0 
L 628 0 
L 628 4666 
z
" transform="scale(0.015625)"/>
      <path id="DejaVuSans-76" d="M 191 3500 
L 800 3500 
L 1894 563 
L 2988 3500 
L 3597 3500 
L 2284 0 
L 1503 0 
L 191 3500 
z
" transform="scale(0.015625)"/>
      <path id="DejaVuSans-28" d="M 1984 4856 
Q 1566 4138 1362 3434 
Q 1159 2731 1159 2009 
Q 1159 1288 1364 580 
Q 1569 -128 1984 -844 
L 1484 -844 
Q 1016 -109 783 600 
Q 550 1309 550 2009 
Q 550 2706 781 3412 
Q 1013 4119 1484 4856 
L 1984 4856 
z
" transform="scale(0.015625)"/>
      <path id="DejaVuSans-39" d="M 703 97 
L 703 672 
Q 941 559 1184 500 
Q 1428 441 1663 441 
Q 2288 441 2617 861 
Q 2947 1281 2994 2138 
Q 2813 1869 2534 1725 
Q 2256 1581 1919 1581 
Q 1219 1581 811 2004 
Q 403 2428 403 3163 
Q 403 3881 828 4315 
Q 1253 4750 1959 4750 
Q 2769 4750 3195 4129 
Q 3622 3509 3622 2328 
Q 3622 1225 3098 567 
Q 2575 -91 1691 -91 
Q 1453 -91 1209 -44 
Q 966 3 703 97 
z
M 1959 2075 
Q 2384 2075 2632 2365 
Q 2881 2656 2881 3163 
Q 2881 3666 2632 3958 
Q 2384 4250 1959 4250 
Q 1534 4250 1286 3958 
Q 1038 3666 1038 3163 
Q 1038 2656 1286 2365 
Q 1534 2075 1959 2075 
z
" transform="scale(0.015625)"/>
      <path id="DejaVuSans-25" d="M 4653 2053 
Q 4381 2053 4226 1822 
Q 4072 1591 4072 1178 
Q 4072 772 4226 539 
Q 4381 306 4653 306 
Q 4919 306 5073 539 
Q 5228 772 5228 1178 
Q 5228 1588 5073 1820 
Q 4919 2053 4653 2053 
z
M 4653 2450 
Q 5147 2450 5437 2106 
Q 5728 1763 5728 1178 
Q 5728 594 5436 251 
Q 5144 -91 4653 -91 
Q 4153 -91 3862 251 
Q 3572 594 3572 1178 
Q 3572 1766 3864 2108 
Q 4156 2450 4653 2450 
z
M 1428 4353 
Q 1159 4353 1004 4120 
Q 850 3888 850 3481 
Q 850 3069 1003 2837 
Q 1156 2606 1428 2606 
Q 1700 2606 1854 2837 
Q 2009 3069 2009 3481 
Q 2009 3884 1853 4118 
Q 1697 4353 1428 4353 
z
M 4250 4750 
L 4750 4750 
L 1831 -91 
L 1331 -91 
L 4250 4750 
z
M 1428 4750 
Q 1922 4750 2215 4408 
Q 2509 4066 2509 3481 
Q 2509 2891 2217 2550 
Q 1925 2209 1428 2209 
Q 931 2209 642 2551 
Q 353 2894 353 3481 
Q 353 4063 643 4406 
Q 934 4750 1428 4750 
z
" transform="scale(0.015625)"/>
      <path id="DejaVuSans-43" d="M 4122 4306 
L 4122 3641 
Q 3803 3938 3442 4084 
Q 3081 4231 2675 4231 
Q 1875 4231 1450 3742 
Q 1025 3253 1025 2328 
Q 1025 1406 1450 917 
Q 1875 428 2675 428 
Q 3081 428 3442 575 
Q 3803 722 4122 1019 
L 4122 359 
Q 3791 134 3420 21 
Q 3050 -91 2638 -91 
Q 1578 -91 968 557 
Q 359 1206 359 2328 
Q 359 3453 968 4101 
Q 1578 4750 2638 4750 
Q 3056 4750 3426 4639 
Q 3797 4528 4122 4306 
z
" transform="scale(0.015625)"/>
      <path id="DejaVuSans-49" d="M 628 4666 
L 1259 4666 
L 1259 0 
L 628 0 
L 628 4666 
z
" transform="scale(0.015625)"/>
      <path id="DejaVuSans-2c" d="M 750 794 
L 1409 794 
L 1409 256 
L 897 -744 
L 494 -744 
L 750 256 
L 750 794 
z
" transform="scale(0.015625)"/>
      <path id="DejaVuSans-Oblique-6e" d="M 3566 2113 
L 3156 0 
L 2578 0 
L 2988 2091 
Q 3016 2238 3031 2350 
Q 3047 2463 3047 2528 
Q 3047 2791 2881 2937 
Q 2716 3084 2419 3084 
Q 1956 3084 1622 2776 
Q 1288 2469 1184 1941 
L 800 0 
L 225 0 
L 903 3500 
L 1478 3500 
L 1363 2950 
Q 1603 3253 1940 3418 
Q 2278 3584 2650 3584 
Q 3113 3584 3367 3334 
Q 3622 3084 3622 2631 
Q 3622 2519 3608 2391 
Q 3594 2263 3566 2113 
z
" transform="scale(0.015625)"/>
      <path id="DejaVuSans-29" d="M 513 4856 
L 1013 4856 
Q 1481 4119 1714 3412 
Q 1947 2706 1947 2009 
Q 1947 1309 1714 600 
Q 1481 -109 1013 -844 
L 513 -844 
Q 928 -128 1133 580 
Q 1338 1288 1338 2009 
Q 1338 2731 1133 3434 
Q 928 4138 513 4856 
z
" transform="scale(0.015625)"/>
     </defs>
     <use xlink:href="#DejaVuSans-56" transform="translate(0 0.015625)"/>
     <use xlink:href="#DejaVuSans-61" transform="translate(68.408203 0.015625)"/>
     <use xlink:href="#DejaVuSans-6c" transform="translate(129.6875 0.015625)"/>
     <use xlink:href="#DejaVuSans-69" transform="translate(157.470703 0.015625)"/>
     <use xlink:href="#DejaVuSans-64" transform="translate(185.253906 0.015625)"/>
     <use xlink:href="#DejaVuSans-61" transform="translate(248.730469 0.015625)"/>
     <use xlink:href="#DejaVuSans-74" transform="translate(310.009766 0.015625)"/>
     <use xlink:href="#DejaVuSans-69" transform="translate(349.21875 0.015625)"/>
     <use xlink:href="#DejaVuSans-6f" transform="translate(377.001953 0.015625)"/>
     <use xlink:href="#DejaVuSans-6e" transform="translate(438.183594 0.015625)"/>
     <use xlink:href="#DejaVuSans-20" transform="translate(501.5625 0.015625)"/>
     <use xlink:href="#DejaVuSans-4c" transform="translate(533.349609 0.015625)"/>
     <use xlink:href="#DejaVuSans-6f" transform="translate(589.0625 0.015625)"/>
     <use xlink:href="#DejaVuSans-73" transform="translate(650.244141 0.015625)"/>
     <use xlink:href="#DejaVuSans-73" transform="translate(702.34375 0.015625)"/>
     <use xlink:href="#DejaVuSans-20" transform="translate(754.443359 0.015625)"/>
     <use xlink:href="#DejaVuSans-6f" transform="translate(786.230469 0.015625)"/>
     <use xlink:href="#DejaVuSans-76" transform="translate(847.412109 0.015625)"/>
     <use xlink:href="#DejaVuSans-65" transform="translate(906.591797 0.015625)"/>
     <use xlink:href="#DejaVuSans-72" transform="translate(968.115234 0.015625)"/>
     <use xlink:href="#DejaVuSans-20" transform="translate(1009.228516 0.015625)"/>
     <use xlink:href="#DejaVuSans-54" transform="translate(1041.015625 0.015625)"/>
     <use xlink:href="#DejaVuSans-72" transform="translate(1102.099609 0.015625)"/>
     <use xlink:href="#DejaVuSans-61" transform="translate(1143.212891 0.015625)"/>
     <use xlink:href="#DejaVuSans-69" transform="translate(1204.492188 0.015625)"/>
     <use xlink:href="#DejaVuSans-6e" transform="translate(1232.275391 0.015625)"/>
     <use xlink:href="#DejaVuSans-69" transform="translate(1295.654297 0.015625)"/>
     <use xlink:href="#DejaVuSans-6e" transform="translate(1323.4375 0.015625)"/>
     <use xlink:href="#DejaVuSans-67" transform="translate(1386.816406 0.015625)"/>
     <use xlink:href="#DejaVuSans-20" transform="translate(1450.292969 0.015625)"/>
     <use xlink:href="#DejaVuSans-28" transform="translate(1482.080078 0.015625)"/>
     <use xlink:href="#DejaVuSans-39" transform="translate(1521.09375 0.015625)"/>
     <use xlink:href="#DejaVuSans-35" transform="translate(1584.716797 0.015625)"/>
     <use xlink:href="#DejaVuSans-25" transform="translate(1648.339844 0.015625)"/>
     <use xlink:href="#DejaVuSans-20" transform="translate(1743.359375 0.015625)"/>
     <use xlink:href="#DejaVuSans-43" transform="translate(1775.146484 0.015625)"/>
     <use xlink:href="#DejaVuSans-49" transform="translate(1844.970703 0.015625)"/>
     <use xlink:href="#DejaVuSans-2c" transform="translate(1874.462891 0.015625)"/>
     <use xlink:href="#DejaVuSans-20" transform="translate(1906.25 0.015625)"/>
     <use xlink:href="#DejaVuSans-Oblique-6e" transform="translate(1938.037109 0.015625)"/>
     <use xlink:href="#DejaVuSans-3d" transform="translate(2020.898438 0.015625)"/>
     <use xlink:href="#DejaVuSans-35" transform="translate(2124.169922 0.015625)"/>
     <use xlink:href="#DejaVuSans-29" transform="translate(2187.792969 0.015625)"/>
    </g>
   </g>
   <g id="legend_1">
    <g id="patch_8">
     <path d="M 292.788107 64.649219 
L 360.558341 64.649219 
Q 362.258341 64.649219 362.258341 62.949219 
L 362.258341 26.37 
Q 362.258341 24.67 360.558341 24.67 
L 292.788107 24.67 
Q 291.088107 24.67 291.088107 26.37 
L 291.088107 62.949219 
Q 291.088107 64.649219 292.788107 64.649219 
z
" style="fill: #ffffff; opacity: 0.85; stroke: #cccccc; stroke-linejoin: miter"/>
    </g>
    <g id="line2d_15">
     <path d="M 294.488107 31.553672 
L 302.988107 31.553672 
L 311.488107 31.553672 
" style="fill: none; stroke: #6c757d; stroke-width: 1.5; stroke-linecap: square"/>
    </g>
    <g id="text_12">
     <!-- Baseline -->
     <g transform="translate(318.288107 34.528672) scale(0.085 -0.085)">
      <defs>
       <path id="DejaVuSans-42" d="M 1259 2228 
L 1259 519 
L 2272 519 
Q 2781 519 3026 730 
Q 3272 941 3272 1375 
Q 3272 1813 3026 2020 
Q 2781 2228 2272 2228 
L 1259 2228 
z
M 1259 4147 
L 1259 2741 
L 2194 2741 
Q 2656 2741 2882 2914 
Q 3109 3088 3109 3444 
Q 3109 3797 2882 3972 
Q 2656 4147 2194 4147 
L 1259 4147 
z
M 628 4666 
L 2241 4666 
Q 2963 4666 3353 4366 
Q 3744 4066 3744 3513 
Q 3744 3084 3544 2831 
Q 3344 2578 2956 2516 
Q 3422 2416 3680 2098 
Q 3938 1781 3938 1306 
Q 3938 681 3513 340 
Q 3088 0 2303 0 
L 628 0 
L 628 4666 
z
" transform="scale(0.015625)"/>
      </defs>
      <use xlink:href="#DejaVuSans-42"/>
      <use xlink:href="#DejaVuSans-61" transform="translate(68.603516 0)"/>
      <use xlink:href="#DejaVuSans-73" transform="translate(129.882812 0)"/>
      <use xlink:href="#DejaVuSans-65" transform="translate(181.982422 0)"/>
      <use xlink:href="#DejaVuSans-6c" transform="translate(243.505859 0)"/>
      <use xlink:href="#DejaVuSans-69" transform="translate(271.289062 0)"/>
      <use xlink:href="#DejaVuSans-6e" transform="translate(299.072266 0)"/>
      <use xlink:href="#DejaVuSans-65" transform="translate(362.451172 0)"/>
     </g>
    </g>
    <g id="line2d_16">
     <path d="M 294.488107 44.030078 
L 302.988107 44.030078 
L 311.488107 44.030078 
" style="fill: none; stroke: #2196f3; stroke-width: 1.5; stroke-linecap: square"/>
    </g>
    <g id="text_13">
     <!-- Method-A -->
     <g transform="translate(318.288107 47.005078) scale(0.085 -0.085)">
      <defs>
       <path id="DejaVuSans-4d" d="M 628 4666 
L 1569 4666 
L 2759 1491 
L 3956 4666 
L 4897 4666 
L 4897 0 
L 4281 0 
L 4281 4097 
L 3078 897 
L 2444 897 
L 1241 4097 
L 1241 0 
L 628 0 
L 628 4666 
z
" transform="scale(0.015625)"/>
       <path id="DejaVuSans-68" d="M 3513 2113 
L 3513 0 
L 2938 0 
L 2938 2094 
Q 2938 2591 2744 2837 
Q 2550 3084 2163 3084 
Q 1697 3084 1428 2787 
Q 1159 2491 1159 1978 
L 1159 0 
L 581 0 
L 581 4863 
L 1159 4863 
L 1159 2956 
Q 1366 3272 1645 3428 
Q 1925 3584 2291 3584 
Q 2894 3584 3203 3211 
Q 3513 2838 3513 2113 
z
" transform="scale(0.015625)"/>
       <path id="DejaVuSans-2d" d="M 313 2009 
L 1997 2009 
L 1997 1497 
L 313 1497 
L 313 2009 
z
" transform="scale(0.015625)"/>
       <path id="DejaVuSans-41" d="M 2188 4044 
L 1331 1722 
L 3047 1722 
L 2188 4044 
z
M 1831 4666 
L 2547 4666 
L 4325 0 
L 3669 0 
L 3244 1197 
L 1141 1197 
L 716 0 
L 50 0 
L 1831 4666 
z
" transform="scale(0.015625)"/>
      </defs>
      <use xlink:href="#DejaVuSans-4d"/>
      <use xlink:href="#DejaVuSans-65" transform="translate(86.279297 0)"/>
      <use xlink:href="#DejaVuSans-74" transform="translate(147.802734 0)"/>
      <use xlink:href="#DejaVuSans-68" transform="translate(187.011719 0)"/>
      <use xlink:href="#DejaVuSans-6f" transform="translate(250.390625 0)"/>
      <use xlink:href="#DejaVuSans-64" transform="translate(311.572266 0)"/>
      <use xlink:href="#DejaVuSans-2d" transform="translate(375.048828 0)"/>
      <use xlink:href="#DejaVuSans-41" transform="translate(408.882812 0)"/>
     </g>
    </g>
    <g id="line2d_17">
     <path d="M 294.488107 56.506484 
L 302.988107 56.506484 
L 311.488107 56.506484 
" style="fill: none; stroke: #e53935; stroke-width: 2.2; stroke-linecap: square"/>
    </g>
    <g id="text_14">
     <!-- Ours -->
     <g transform="translate(318.288107 59.481484) scale(0.085 -0.085)">
      <defs>
       <path id="DejaVuSans-4f" d="M 2522 4238 
Q 1834 4238 1429 3725 
Q 1025 3213 1025 2328 
Q 1025 1447 1429 934 
Q 1834 422 2522 422 
Q 3209 422 3611 934 
Q 4013 1447 4013 2328 
Q 4013 3213 3611 3725 
Q 3209 4238 2522 4238 
z
M 2522 4750 
Q 3503 4750 4090 4092 
Q 4678 3434 4678 2328 
Q 4678 1225 4090 567 
Q 3503 -91 2522 -91 
Q 1538 -91 948 565 
Q 359 1222 359 2328 
Q 359 3434 948 4092 
Q 1538 4750 2522 4750 
z
" transform="scale(0.015625)"/>
       <path id="DejaVuSans-75" d="M 544 1381 
L 544 3500 
L 1119 3500 
L 1119 1403 
Q 1119 906 1312 657 
Q 1506 409 1894 409 
Q 2359 409 2629 706 
Q 2900 1003 2900 1516 
L 2900 3500 
L 3475 3500 
L 3475 0 
L 2900 0 
L 2900 538 
Q 2691 219 2414 64 
Q 2138 -91 1772 -91 
Q 1169 -91 856 284 
Q 544 659 544 1381 
z
M 1991 3584 
L 1991 3584 
z
" transform="scale(0.015625)"/>
      </defs>
      <use xlink:href="#DejaVuSans-4f"/>
      <use xlink:href="#DejaVuSans-75" transform="translate(78.710938 0)"/>
      <use xlink:href="#DejaVuSans-72" transform="translate(142.089844 0)"/>
      <use xlink:href="#DejaVuSans-73" transform="translate(183.203125 0)"/>
     </g>
    </g>
   </g>
  </g>
 </g>
 <defs>
  <clipPath id="pa24c0585ee">
   <rect x="46.803906" y="20.42" width="319.704435" height="206.92"/>
  </clipPath>
 </defs>
</svg>
