<?xml version="1.0" encoding="utf-8" standalone="no"?>
<!DOCTYPE svg PUBLIC "-//W3C//DTD SVG 1.1//EN"
  "http://www.w3.org/Graphics/SVG/1.1/DTD/svg11.dtd">
<svg xmlns:xlink="http://www.w3.org/1999/xlink" width="724.26pt" height="368.4pt" viewBox="0 0 724.26 368.4" xmlns="http://www.w3.org/2000/svg" version="1.1">
 <metadata>
  <rdf:RDF xmlns:dc="http://purl.org/dc/elements/1.1/" xmlns:cc="http://creativecommons.org/ns#" xmlns:rdf="http://www.w3.org/1999/02/22-rdf-syntax-ns#">
   <cc:Work>
    <dc:type rdf:resource="http://purl.org/dc/dcmitype/StillImage"/>
    <dc:date>2026-05-25T09:30:19.769051</dc:date>
    <dc:format>image/svg+xml</dc:format>
    <dc:creator>
     <cc:Agent>
      <dc:title>Matplotlib v3.10.9, https://matplotlib.org/</dc:title>
     </cc:Agent>
    </dc:creator>
   </cc:Work>
  </rdf:RDF>
 </metadata>
 <defs>
  <style type="text/css">*{stroke-linejoin: round; stroke-linecap: butt}</style>
 </defs>
 <g id="figure_1">
  <g id="patch_1">
   <path d="M -0 368.4 
L 724.26 368.4 
L 724.26 0 
L -0 0 
z
" style="fill: #ffffff"/>
  </g>
  <g id="axes_1">
   <g id="patch_2">
    <path d="M 74.6367 27.074571 
L 88.211517 27.269903 
L 101.334192 27.846969 
L 114.02059 28.792375 
L 126.286577 30.092727 
L 138.148015 31.73463 
L 149.620771 33.704691 
L 160.720709 35.989515 
L 171.463693 38.575708 
L 181.865588 41.449876 
L 191.942258 44.598624 
L 201.709569 48.00856 
L 211.183384 51.666287 
L 220.379569 55.558413 
L 229.313987 59.671542 
L 238.002505 63.992282 
L 246.460985 68.507237 
L 254.705293 73.203013 
L 262.751294 78.066217 
L 270.614851 83.083454 
L 278.31183 88.24133 
L 285.858096 93.52645 
L 293.269512 98.925421 
L 300.561944 104.424849 
L 307.751255 110.011338 
L 314.853312 115.671496 
L 321.883977 121.391927 
L 328.859117 127.159238 
L 335.794595 132.960034 
L 342.706276 138.780922 
L 349.610024 144.608507 
L 356.521705 150.429394 
L 363.457183 156.230191 
L 370.432323 161.997502 
L 377.462988 167.717933 
L 384.565045 173.378091 
L 391.754356 178.96458 
L 399.046788 184.464007 
L 406.458204 189.862978 
L 414.00447 195.148099 
L 421.701449 200.305975 
L 429.565006 205.323211 
L 437.611007 210.186415 
L 445.855315 214.882192 
L 454.313795 219.397147 
L 463.002313 223.717886 
L 471.936731 227.831016 
L 481.132916 231.723141 
L 490.606731 235.380869 
L 500.374042 238.790804 
L 510.450712 241.939553 
L 520.852607 244.813721 
L 531.595591 247.399914 
L 542.695529 249.684738 
L 554.168285 251.654798 
L 566.029723 253.296702 
L 578.29571 254.597053 
L 590.982108 255.542459 
L 604.104783 256.119525 
L 617.6796 256.314857 
L 617.6796 283.623429 
L 604.104783 283.428097 
L 590.982108 282.851031 
L 578.29571 281.905625 
L 566.029723 280.605273 
L 554.168285 278.96337 
L 542.695529 276.993309 
L 531.595591 274.708485 
L 520.852607 272.122292 
L 510.450712 269.248124 
L 500.374042 266.099376 
L 490.606731 262.68944 
L 481.132916 259.031713 
L 471.936731 255.139587 
L 463.002313 251.026458 
L 454.313795 246.705718 
L 445.855315 242.190763 
L 437.611007 237.494987 
L 429.565006 232.631783 
L 421.701449 227.614546 
L 414.00447 222.45667 
L 406.458204 217.17155 
L 399.046788 211.772579 
L 391.754356 206.273151 
L 384.565045 200.686662 
L 377.462988 195.026504 
L 370.432323 189.306073 
L 363.457183 183.538762 
L 356.521705 177.737966 
L 349.610024 171.917078 
L 342.706276 166.089493 
L 335.794595 160.268606 
L 328.859117 154.467809 
L 321.883977 148.700498 
L 314.853312 142.980067 
L 307.751255 137.319909 
L 300.561944 131.73342 
L 293.269512 126.233993 
L 285.858096 120.835022 
L 278.31183 115.549901 
L 270.614851 110.392025 
L 262.751294 105.374789 
L 254.705293 100.511585 
L 246.460985 95.815808 
L 238.002505 91.300853 
L 229.313987 86.980114 
L 220.379569 82.866984 
L 211.183384 78.974859 
L 201.709569 75.317131 
L 191.942258 71.907196 
L 181.865588 68.758447 
L 171.463693 65.884279 
L 160.720709 63.298086 
L 149.620771 61.013262 
L 138.148015 59.043202 
L 126.286577 57.401298 
L 114.02059 56.100947 
L 101.334192 55.155541 
L 88.211517 54.578475 
L 74.6367 54.383143 
z
" clip-path="url(#pff45a78523)" style="fill: #c0392b; opacity: 0.38"/>
   </g>
   <g id="patch_3">
    <path d="M 266.2989 40.728857 
L 275.082605 40.935824 
L 283.573748 41.547261 
L 291.782594 42.548979 
L 299.719408 43.926784 
L 307.394457 45.666484 
L 314.818005 47.753888 
L 322.000318 50.174803 
L 328.95166 52.915038 
L 335.682298 55.960401 
L 342.202497 59.296699 
L 348.522521 62.909741 
L 354.652637 66.785334 
L 360.603109 70.909287 
L 366.384204 75.267408 
L 372.006185 79.845505 
L 377.47932 84.629385 
L 382.813872 89.604857 
L 388.020108 94.757729 
L 393.108292 100.073808 
L 398.08869 105.538904 
L 402.971568 111.138823 
L 407.76719 116.859374 
L 412.485822 122.686365 
L 417.13773 128.605603 
L 421.733178 134.602898 
L 426.282432 140.664056 
L 430.795758 146.774887 
L 435.28342 152.921197 
L 439.755684 159.088796 
L 444.222816 165.26349 
L 448.69508 171.431088 
L 453.182742 177.577399 
L 457.696068 183.688229 
L 462.245322 189.749388 
L 466.84077 195.746682 
L 471.492678 201.665921 
L 476.21131 207.492912 
L 481.006932 213.213463 
L 485.88981 218.813382 
L 490.870208 224.278478 
L 495.958392 229.594557 
L 501.164628 234.747429 
L 506.49918 239.722901 
L 511.972315 244.506781 
L 517.594296 249.084878 
L 523.375391 253.442998 
L 529.325863 257.566952 
L 535.455979 261.442545 
L 541.776003 265.055587 
L 548.296202 268.391885 
L 555.02684 271.437248 
L 561.978182 274.177483 
L 569.160495 276.598398 
L 576.584043 278.685802 
L 584.259092 280.425502 
L 592.195906 281.803307 
L 600.404752 282.805024 
L 608.895895 283.416462 
L 617.6796 283.623429 
L 617.6796 297.277714 
L 608.895895 297.070748 
L 600.404752 296.45931 
L 592.195906 295.457593 
L 584.259092 294.079788 
L 576.584043 292.340088 
L 569.160495 290.252684 
L 561.978182 287.831768 
L 555.02684 285.091533 
L 548.296202 282.046171 
L 541.776003 278.709873 
L 535.455979 275.096831 
L 529.325863 271.221237 
L 523.375391 267.097284 
L 517.594296 262.739163 
L 511.972315 258.161067 
L 506.49918 253.377187 
L 501.164628 248.401715 
L 495.958392 243.248843 
L 490.870208 237.932763 
L 485.88981 232.467668 
L 481.006932 226.867749 
L 476.21131 221.147198 
L 471.492678 215.320207 
L 466.84077 209.400968 
L 462.245322 203.403674 
L 457.696068 197.342515 
L 453.182742 191.231685 
L 448.69508 185.085374 
L 444.222816 178.917776 
L 439.755684 172.743081 
L 435.28342 166.575483 
L 430.795758 160.429173 
L 426.282432 154.318342 
L 421.733178 148.257184 
L 417.13773 142.259889 
L 412.485822 136.34065 
L 407.76719 130.513659 
L 402.971568 124.793108 
L 398.08869 119.193189 
L 393.108292 113.728094 
L 388.020108 108.412014 
L 382.813872 103.259143 
L 377.47932 98.283671 
L 372.006185 93.49979 
L 366.384204 88.921694 
L 360.603109 84.563573 
L 354.652637 80.43962 
L 348.522521 76.564026 
L 342.202497 72.950985 
L 335.682298 69.614686 
L 328.95166 66.569324 
L 322.000318 63.829089 
L 314.818005 61.408173 
L 307.394457 59.32077 
L 299.719408 57.581069 
L 291.782594 56.203264 
L 283.573748 55.201547 
L 275.082605 54.590109 
L 266.2989 54.383143 
z
" clip-path="url(#pff45a78523)" style="fill: #c0392b; opacity: 0.38"/>
   </g>
   <g id="patch_4">
    <path d="M 74.6367 54.383143 
L 78.629293 54.371508 
L 82.488903 54.337136 
L 86.220197 54.280825 
L 89.82784 54.203372 
L 93.316499 54.105575 
L 96.690839 53.988232 
L 99.955526 53.85214 
L 103.115227 53.698098 
L 106.174608 53.526904 
L 109.138335 53.339354 
L 112.011073 53.136247 
L 114.797489 52.918381 
L 117.50225 52.686554 
L 120.13002 52.441563 
L 122.685466 52.184206 
L 125.173254 51.915281 
L 127.598051 51.635585 
L 129.964522 51.345917 
L 132.277333 51.047074 
L 134.54115 50.739855 
L 136.76064 50.425056 
L 138.940468 50.103476 
L 141.085301 49.775913 
L 143.199804 49.443163 
L 145.288645 49.106026 
L 147.356487 48.765299 
L 149.407999 48.42178 
L 151.447845 48.076266 
L 153.480693 47.729555 
L 155.511207 47.382445 
L 157.544055 47.035734 
L 159.583901 46.69022 
L 161.635413 46.346701 
L 163.703255 46.005974 
L 165.792096 45.668837 
L 167.906599 45.336087 
L 170.051432 45.008524 
L 172.23126 44.686944 
L 174.45075 44.372145 
L 176.714567 44.064926 
L 179.027378 43.766083 
L 181.393849 43.476415 
L 183.818646 43.196719 
L 186.306434 42.927794 
L 188.86188 42.670437 
L 191.48965 42.425446 
L 194.194411 42.193619 
L 196.980827 41.975753 
L 199.853565 41.772646 
L 202.817292 41.585096 
L 205.876673 41.413902 
L 209.036374 41.25986 
L 212.301061 41.123768 
L 215.675401 41.006425 
L 219.16406 40.908628 
L 222.771703 40.831175 
L 226.502997 40.774864 
L 230.362607 40.740492 
L 234.3552 40.728857 
L 234.3552 268.300286 
L 230.362607 268.31192 
L 226.502997 268.346292 
L 222.771703 268.402604 
L 219.16406 268.480057 
L 215.675401 268.577854 
L 212.301061 268.695197 
L 209.036374 268.831288 
L 205.876673 268.98533 
L 202.817292 269.156525 
L 199.853565 269.344074 
L 196.980827 269.547181 
L 194.194411 269.765047 
L 191.48965 269.996875 
L 188.86188 270.241866 
L 186.306434 270.499223 
L 183.818646 270.768148 
L 181.393849 271.047843 
L 179.027378 271.337511 
L 176.714567 271.636354 
L 174.45075 271.943574 
L 172.23126 272.258372 
L 170.051432 272.579952 
L 167.906599 272.907516 
L 165.792096 273.240265 
L 163.703255 273.577402 
L 161.635413 273.91813 
L 159.583901 274.261649 
L 157.544055 274.607163 
L 155.511207 274.953874 
L 153.480693 275.300983 
L 151.447845 275.647694 
L 149.407999 275.993208 
L 147.356487 276.336728 
L 145.288645 276.677455 
L 143.199804 277.014592 
L 141.085301 277.347341 
L 138.940468 277.674905 
L 136.76064 277.996485 
L 134.54115 278.311283 
L 132.277333 278.618503 
L 129.964522 278.917346 
L 127.598051 279.207014 
L 125.173254 279.486709 
L 122.685466 279.755634 
L 120.13002 280.012991 
L 117.50225 280.257983 
L 114.797489 280.48981 
L 112.011073 280.707676 
L 109.138335 280.910783 
L 106.174608 281.098332 
L 103.115227 281.269527 
L 99.955526 281.423569 
L 96.690839 281.55966 
L 93.316499 281.677003 
L 89.82784 281.7748 
L 86.220197 281.852254 
L 82.488903 281.908565 
L 78.629293 281.942937 
L 74.6367 281.954571 
z
" clip-path="url(#pff45a78523)" style="fill: #2e86c1; opacity: 0.38"/>
   </g>
   <g id="patch_5">
    <path d="M 266.2989 54.383143 
L 270.291493 54.38896 
L 274.151103 54.406146 
L 277.882397 54.434302 
L 281.49004 54.473028 
L 284.978699 54.521927 
L 288.353039 54.580598 
L 291.617726 54.648644 
L 294.777427 54.725665 
L 297.836808 54.811262 
L 300.800535 54.905037 
L 303.673273 55.006591 
L 306.459689 55.115524 
L 309.16445 55.231437 
L 311.79222 55.353933 
L 314.347666 55.482611 
L 316.835454 55.617074 
L 319.260251 55.756922 
L 321.626722 55.901756 
L 323.939533 56.051177 
L 326.20335 56.204787 
L 328.42284 56.362186 
L 330.602668 56.522976 
L 332.747501 56.686758 
L 334.862004 56.853133 
L 336.950845 57.021701 
L 339.018687 57.192065 
L 341.070199 57.363825 
L 343.110045 57.536582 
L 345.142893 57.709937 
L 347.173407 57.883492 
L 349.206255 58.056847 
L 351.246101 58.229604 
L 353.297613 58.401364 
L 355.365455 58.571727 
L 357.454296 58.740296 
L 359.568799 58.906671 
L 361.713632 59.070452 
L 363.89346 59.231242 
L 366.11295 59.388642 
L 368.376767 59.542251 
L 370.689578 59.691673 
L 373.056049 59.836507 
L 375.480846 59.976355 
L 377.968634 60.110817 
L 380.52408 60.239496 
L 383.15185 60.361991 
L 385.856611 60.477905 
L 388.643027 60.586838 
L 391.515765 60.688391 
L 394.479492 60.782166 
L 397.538873 60.867763 
L 400.698574 60.944784 
L 403.963261 61.01283 
L 407.337601 61.071502 
L 410.82626 61.1204 
L 414.433903 61.159127 
L 418.165197 61.187282 
L 422.024807 61.204468 
L 426.0174 61.210286 
L 426.0174 247.818857 
L 422.024807 247.81304 
L 418.165197 247.795854 
L 414.433903 247.767698 
L 410.82626 247.728972 
L 407.337601 247.680073 
L 403.963261 247.621402 
L 400.698574 247.553356 
L 397.538873 247.476335 
L 394.479492 247.390738 
L 391.515765 247.296963 
L 388.643027 247.195409 
L 385.856611 247.086476 
L 383.15185 246.970563 
L 380.52408 246.848067 
L 377.968634 246.719389 
L 375.480846 246.584926 
L 373.056049 246.445078 
L 370.689578 246.300244 
L 368.376767 246.150823 
L 366.11295 245.997213 
L 363.89346 245.839814 
L 361.713632 245.679024 
L 359.568799 245.515242 
L 357.454296 245.348867 
L 355.365455 245.180299 
L 353.297613 245.009935 
L 351.246101 244.838175 
L 349.206255 244.665418 
L 347.173407 244.492063 
L 345.142893 244.318508 
L 343.110045 244.145153 
L 341.070199 243.972396 
L 339.018687 243.800636 
L 336.950845 243.630273 
L 334.862004 243.461704 
L 332.747501 243.295329 
L 330.602668 243.131548 
L 328.42284 242.970758 
L 326.20335 242.813358 
L 323.939533 242.659749 
L 321.626722 242.510327 
L 319.260251 242.365493 
L 316.835454 242.225645 
L 314.347666 242.091183 
L 311.79222 241.962504 
L 309.16445 241.840009 
L 306.459689 241.724095 
L 303.673273 241.615162 
L 300.800535 241.513609 
L 297.836808 241.419834 
L 294.777427 241.334237 
L 291.617726 241.257216 
L 288.353039 241.18917 
L 284.978699 241.130498 
L 281.49004 241.0816 
L 277.882397 241.042873 
L 274.151103 241.014718 
L 270.291493 240.997532 
L 266.2989 240.991714 
z
" clip-path="url(#pff45a78523)" style="fill: #5dade2; opacity: 0.38"/>
   </g>
   <g id="patch_6">
    <path d="M 457.9611 61.210286 
L 461.953693 61.206666 
L 465.813303 61.195973 
L 469.544597 61.178453 
L 473.15224 61.154357 
L 476.640899 61.123931 
L 480.015239 61.087424 
L 483.279926 61.045085 
L 486.439627 60.997161 
L 489.499008 60.9439 
L 492.462735 60.885551 
L 495.335473 60.822363 
L 498.121889 60.754582 
L 500.82665 60.682458 
L 503.45442 60.606239 
L 506.009866 60.526172 
L 508.497654 60.442506 
L 510.922451 60.35549 
L 513.288922 60.265371 
L 515.601733 60.172398 
L 517.86555 60.076818 
L 520.08504 59.978881 
L 522.264868 59.878834 
L 524.409701 59.776925 
L 526.524204 59.673403 
L 528.613045 59.568516 
L 530.680887 59.462512 
L 532.732399 59.355639 
L 534.772245 59.248146 
L 536.805093 59.140281 
L 538.835607 59.032291 
L 540.868455 58.924425 
L 542.908301 58.816932 
L 544.959813 58.710059 
L 547.027655 58.604055 
L 549.116496 58.499168 
L 551.230999 58.395646 
L 553.375832 58.293738 
L 555.55566 58.19369 
L 557.77515 58.095753 
L 560.038967 58.000174 
L 562.351778 57.9072 
L 564.718249 57.817081 
L 567.143046 57.730065 
L 569.630834 57.646399 
L 572.18628 57.566333 
L 574.81405 57.490113 
L 577.518811 57.417989 
L 580.305227 57.350209 
L 583.177965 57.28702 
L 586.141692 57.228671 
L 589.201073 57.175411 
L 592.360774 57.127487 
L 595.625461 57.085147 
L 598.999801 57.04864 
L 602.48846 57.018214 
L 606.096103 56.994118 
L 609.827397 56.976599 
L 613.687007 56.965905 
L 617.6796 56.962286 
L 617.6796 193.505143 
L 613.687007 193.508763 
L 609.827397 193.519456 
L 606.096103 193.536975 
L 602.48846 193.561072 
L 598.999801 193.591497 
L 595.625461 193.628004 
L 592.360774 193.670344 
L 589.201073 193.718268 
L 586.141692 193.771528 
L 583.177965 193.829877 
L 580.305227 193.893066 
L 577.518811 193.960846 
L 574.81405 194.03297 
L 572.18628 194.10919 
L 569.630834 194.189257 
L 567.143046 194.272922 
L 564.718249 194.359939 
L 562.351778 194.450058 
L 560.038967 194.543031 
L 557.77515 194.63861 
L 555.55566 194.736548 
L 553.375832 194.836595 
L 551.230999 194.938503 
L 549.116496 195.042025 
L 547.027655 195.146912 
L 544.959813 195.252916 
L 542.908301 195.359789 
L 540.868455 195.467282 
L 538.835607 195.575148 
L 536.805093 195.683138 
L 534.772245 195.791003 
L 532.732399 195.898496 
L 530.680887 196.005369 
L 528.613045 196.111373 
L 526.524204 196.21626 
L 524.409701 196.319782 
L 522.264868 196.421691 
L 520.08504 196.521738 
L 517.86555 196.619675 
L 515.601733 196.715255 
L 513.288922 196.808228 
L 510.922451 196.898347 
L 508.497654 196.985363 
L 506.009866 197.069029 
L 503.45442 197.149096 
L 500.82665 197.225315 
L 498.121889 197.297439 
L 495.335473 197.36522 
L 492.462735 197.428409 
L 489.499008 197.486757 
L 486.439627 197.540018 
L 483.279926 197.587942 
L 480.015239 197.630282 
L 476.640899 197.666788 
L 473.15224 197.697214 
L 469.544597 197.721311 
L 465.813303 197.73883 
L 461.953693 197.749523 
L 457.9611 197.753143 
z
" clip-path="url(#pff45a78523)" style="fill: #1a7a4a; opacity: 0.38"/>
   </g>
   <g id="patch_7">
    <path d="M 457.9611 197.753143 
L 461.953693 197.753143 
L 465.813303 197.753143 
L 469.544597 197.753143 
L 473.15224 197.753143 
L 476.640899 197.753143 
L 480.015239 197.753143 
L 483.279926 197.753143 
L 486.439627 197.753143 
L 489.499008 197.753143 
L 492.462735 197.753143 
L 495.335473 197.753143 
L 498.121889 197.753143 
L 500.82665 197.753143 
L 503.45442 197.753143 
L 506.009866 197.753143 
L 508.497654 197.753143 
L 510.922451 197.753143 
L 513.288922 197.753143 
L 515.601733 197.753143 
L 517.86555 197.753143 
L 520.08504 197.753143 
L 522.264868 197.753143 
L 524.409701 197.753143 
L 526.524204 197.753143 
L 528.613045 197.753143 
L 530.680887 197.753143 
L 532.732399 197.753143 
L 534.772245 197.753143 
L 536.805093 197.753143 
L 538.835607 197.753143 
L 540.868455 197.753143 
L 542.908301 197.753143 
L 544.959813 197.753143 
L 547.027655 197.753143 
L 549.116496 197.753143 
L 551.230999 197.753143 
L 553.375832 197.753143 
L 555.55566 197.753143 
L 557.77515 197.753143 
L 560.038967 197.753143 
L 562.351778 197.753143 
L 564.718249 197.753143 
L 567.143046 197.753143 
L 569.630834 197.753143 
L 572.18628 197.753143 
L 574.81405 197.753143 
L 577.518811 197.753143 
L 580.305227 197.753143 
L 583.177965 197.753143 
L 586.141692 197.753143 
L 589.201073 197.753143 
L 592.360774 197.753143 
L 595.625461 197.753143 
L 598.999801 197.753143 
L 602.48846 197.753143 
L 606.096103 197.753143 
L 609.827397 197.753143 
L 613.687007 197.753143 
L 617.6796 197.753143 
L 617.6796 225.061714 
L 613.687007 225.061714 
L 609.827397 225.061714 
L 606.096103 225.061714 
L 602.48846 225.061714 
L 598.999801 225.061714 
L 595.625461 225.061714 
L 592.360774 225.061714 
L 589.201073 225.061714 
L 586.141692 225.061714 
L 583.177965 225.061714 
L 580.305227 225.061714 
L 577.518811 225.061714 
L 574.81405 225.061714 
L 572.18628 225.061714 
L 569.630834 225.061714 
L 567.143046 225.061714 
L 564.718249 225.061714 
L 562.351778 225.061714 
L 560.038967 225.061714 
L 557.77515 225.061714 
L 555.55566 225.061714 
L 553.375832 225.061714 
L 551.230999 225.061714 
L 549.116496 225.061714 
L 547.027655 225.061714 
L 544.959813 225.061714 
L 542.908301 225.061714 
L 540.868455 225.061714 
L 538.835607 225.061714 
L 536.805093 225.061714 
L 534.772245 225.061714 
L 532.732399 225.061714 
L 530.680887 225.061714 
L 528.613045 225.061714 
L 526.524204 225.061714 
L 524.409701 225.061714 
L 522.264868 225.061714 
L 520.08504 225.061714 
L 517.86555 225.061714 
L 515.601733 225.061714 
L 513.288922 225.061714 
L 510.922451 225.061714 
L 508.497654 225.061714 
L 506.009866 225.061714 
L 503.45442 225.061714 
L 500.82665 225.061714 
L 498.121889 225.061714 
L 495.335473 225.061714 
L 492.462735 225.061714 
L 489.499008 225.061714 
L 486.439627 225.061714 
L 483.279926 225.061714 
L 480.015239 225.061714 
L 476.640899 225.061714 
L 473.15224 225.061714 
L 469.544597 225.061714 
L 465.813303 225.061714 
L 461.953693 225.061714 
L 457.9611 225.061714 
z
" clip-path="url(#pff45a78523)" style="fill: #27ae60; opacity: 0.38"/>
   </g>
   <g id="patch_8">
    <path d="M 457.9611 225.061714 
L 461.953693 225.065334 
L 465.813303 225.076027 
L 469.544597 225.093547 
L 473.15224 225.117643 
L 476.640899 225.148069 
L 480.015239 225.184576 
L 483.279926 225.226915 
L 486.439627 225.274839 
L 489.499008 225.3281 
L 492.462735 225.386449 
L 495.335473 225.449637 
L 498.121889 225.517418 
L 500.82665 225.589542 
L 503.45442 225.665761 
L 506.009866 225.745828 
L 508.497654 225.829494 
L 510.922451 225.91651 
L 513.288922 226.006629 
L 515.601733 226.099602 
L 517.86555 226.195182 
L 520.08504 226.293119 
L 522.264868 226.393166 
L 524.409701 226.495075 
L 526.524204 226.598597 
L 528.613045 226.703484 
L 530.680887 226.809488 
L 532.732399 226.916361 
L 534.772245 227.023854 
L 536.805093 227.131719 
L 538.835607 227.239709 
L 540.868455 227.347575 
L 542.908301 227.455068 
L 544.959813 227.561941 
L 547.027655 227.667945 
L 549.116496 227.772832 
L 551.230999 227.876354 
L 553.375832 227.978262 
L 555.55566 228.07831 
L 557.77515 228.176247 
L 560.038967 228.271826 
L 562.351778 228.3648 
L 564.718249 228.454919 
L 567.143046 228.541935 
L 569.630834 228.625601 
L 572.18628 228.705667 
L 574.81405 228.781887 
L 577.518811 228.854011 
L 580.305227 228.921791 
L 583.177965 228.98498 
L 586.141692 229.043329 
L 589.201073 229.096589 
L 592.360774 229.144513 
L 595.625461 229.186853 
L 598.999801 229.22336 
L 602.48846 229.253786 
L 606.096103 229.277882 
L 609.827397 229.295401 
L 613.687007 229.306095 
L 617.6796 229.309714 
L 617.6796 252.066857 
L 613.687007 252.063237 
L 609.827397 252.052544 
L 606.096103 252.035025 
L 602.48846 252.010928 
L 598.999801 251.980503 
L 595.625461 251.943996 
L 592.360774 251.901656 
L 589.201073 251.853732 
L 586.141692 251.800472 
L 583.177965 251.742123 
L 580.305227 251.678934 
L 577.518811 251.611154 
L 574.81405 251.53903 
L 572.18628 251.46281 
L 569.630834 251.382743 
L 567.143046 251.299078 
L 564.718249 251.212061 
L 562.351778 251.121942 
L 560.038967 251.028969 
L 557.77515 250.93339 
L 555.55566 250.835452 
L 553.375832 250.735405 
L 551.230999 250.633497 
L 549.116496 250.529975 
L 547.027655 250.425088 
L 544.959813 250.319084 
L 542.908301 250.212211 
L 540.868455 250.104718 
L 538.835607 249.996852 
L 536.805093 249.888862 
L 534.772245 249.780997 
L 532.732399 249.673504 
L 530.680887 249.566631 
L 528.613045 249.460627 
L 526.524204 249.35574 
L 524.409701 249.252218 
L 522.264868 249.150309 
L 520.08504 249.050262 
L 517.86555 248.952325 
L 515.601733 248.856745 
L 513.288922 248.763772 
L 510.922451 248.673653 
L 508.497654 248.586637 
L 506.009866 248.502971 
L 503.45442 248.422904 
L 500.82665 248.346685 
L 498.121889 248.274561 
L 495.335473 248.20678 
L 492.462735 248.143591 
L 489.499008 248.085243 
L 486.439627 248.031982 
L 483.279926 247.984058 
L 480.015239 247.941718 
L 476.640899 247.905212 
L 473.15224 247.874786 
L 469.544597 247.850689 
L 465.813303 247.83317 
L 461.953693 247.822477 
L 457.9611 247.818857 
z
" clip-path="url(#pff45a78523)" style="fill: #82e0aa; opacity: 0.38"/>
   </g>
   <g id="patch_9">
    <path d="M 42.693 281.954571 
L 74.6367 281.954571 
L 74.6367 27.074571 
L 42.693 27.074571 
z
" clip-path="url(#pff45a78523)" style="fill: #0f4d92; stroke: #ffffff; stroke-width: 0.8; stroke-linejoin: miter"/>
   </g>
   <g id="patch_10">
    <path d="M 234.3552 268.300286 
L 266.2989 268.300286 
L 266.2989 40.728857 
L 234.3552 40.728857 
z
" clip-path="url(#pff45a78523)" style="fill: #2e86c1; stroke: #ffffff; stroke-width: 0.8; stroke-linejoin: miter"/>
   </g>
   <g id="patch_11">
    <path d="M 426.0174 247.818857 
L 457.9611 247.818857 
L 457.9611 61.210286 
L 426.0174 61.210286 
z
" clip-path="url(#pff45a78523)" style="fill: #5dade2; stroke: #ffffff; stroke-width: 0.8; stroke-linejoin: miter"/>
   </g>
   <g id="patch_12">
    <path d="M 617.6796 193.505143 
L 649.6233 193.505143 
L 649.6233 56.962286 
L 617.6796 56.962286 
z
" clip-path="url(#pff45a78523)" style="fill: #1a7a4a; stroke: #ffffff; stroke-width: 0.8; stroke-linejoin: miter"/>
   </g>
   <g id="patch_13">
    <path d="M 617.6796 225.061714 
L 649.6233 225.061714 
L 649.6233 197.753143 
L 617.6796 197.753143 
z
" clip-path="url(#pff45a78523)" style="fill: #27ae60; stroke: #ffffff; stroke-width: 0.8; stroke-linejoin: miter"/>
   </g>
   <g id="patch_14">
    <path d="M 617.6796 252.066857 
L 649.6233 252.066857 
L 649.6233 229.309714 
L 617.6796 229.309714 
z
" clip-path="url(#pff45a78523)" style="fill: #82e0aa; stroke: #ffffff; stroke-width: 0.8; stroke-linejoin: miter"/>
   </g>
   <g id="patch_15">
    <path d="M 617.6796 297.277714 
L 649.6233 297.277714 
L 649.6233 256.314857 
L 617.6796 256.314857 
z
" clip-path="url(#pff45a78523)" style="fill: #c0392b; stroke: #ffffff; stroke-width: 0.8; stroke-linejoin: miter"/>
   </g>
   <g id="text_1">
    <text style="font-weight: 700; font-size: 11px; font-family: 'Arial', 'Helvetica', 'DejaVu Sans', 'Liberation Sans', sans-serif; text-anchor: middle" x="362.13" y="25.693594" transform="rotate(-0 362.13 25.693594)">Dataset Preparation Flow</text>
   </g>
   <g id="text_2">
    <text style="font-weight: 700; font-size: 9px; font-family: 'Arial', 'Helvetica', 'DejaVu Sans', 'Liberation Sans', sans-serif; text-anchor: end; fill: #0f4d92" x="39.1437" y="143.888478" transform="rotate(-0 39.1437 143.888478)">Raw</text>
   </g>
   <g id="text_3">
    <text style="font-size: 8px; font-family: 'Arial', 'Helvetica', 'DejaVu Sans', 'Liberation Sans', sans-serif; text-anchor: end; fill: #555555" x="39.1437" y="165.550821" transform="rotate(-0 39.1437 165.550821)">n=1,120</text>
   </g>
   <g id="text_4">
    <text style="font-weight: 700; font-size: 9px; font-family: 'Arial', 'Helvetica', 'DejaVu Sans', 'Liberation Sans', sans-serif; text-anchor: end; fill: #2e86c1" x="230.8059" y="143.888478" transform="rotate(-0 230.8059 143.888478)">Cleaned</text>
   </g>
   <g id="text_5">
    <text style="font-size: 8px; font-family: 'Arial', 'Helvetica', 'DejaVu Sans', 'Liberation Sans', sans-serif; text-anchor: end; fill: #555555" x="230.8059" y="165.550821" transform="rotate(-0 230.8059 165.550821)">n=1,000</text>
   </g>
   <g id="text_6">
    <text style="font-weight: 700; font-size: 9px; font-family: 'Arial', 'Helvetica', 'DejaVu Sans', 'Liberation Sans', sans-serif; text-anchor: end; fill: #5dade2" x="422.4681" y="143.888478" transform="rotate(-0 422.4681 143.888478)">Filtered</text>
   </g>
   <g id="text_7">
    <text style="font-size: 8px; font-family: 'Arial', 'Helvetica', 'DejaVu Sans', 'Liberation Sans', sans-serif; text-anchor: end; fill: #555555" x="422.4681" y="165.550821" transform="rotate(-0 422.4681 165.550821)">n=820</text>
   </g>
   <g id="text_8">
    <text style="font-weight: 700; font-size: 9px; font-family: 'Arial', 'Helvetica', 'DejaVu Sans', 'Liberation Sans', sans-serif; text-anchor: start; fill: #1a7a4a" x="653.1726" y="114.607621" transform="rotate(-0 653.1726 114.607621)">Train</text>
   </g>
   <g id="text_9">
    <text style="font-size: 8px; font-family: 'Arial', 'Helvetica', 'DejaVu Sans', 'Liberation Sans', sans-serif; text-anchor: start; fill: #555555" x="653.1726" y="136.269964" transform="rotate(-0 653.1726 136.269964)">n=600</text>
   </g>
   <g id="text_10">
    <text style="font-weight: 700; font-size: 9px; font-family: 'Arial', 'Helvetica', 'DejaVu Sans', 'Liberation Sans', sans-serif; text-anchor: start; fill: #27ae60" x="653.1726" y="200.781335" transform="rotate(-0 653.1726 200.781335)">Val</text>
   </g>
   <g id="text_11">
    <text style="font-size: 8px; font-family: 'Arial', 'Helvetica', 'DejaVu Sans', 'Liberation Sans', sans-serif; text-anchor: start; fill: #555555" x="653.1726" y="222.443679" transform="rotate(-0 653.1726 222.443679)">n=120</text>
   </g>
   <g id="text_12">
    <text style="font-weight: 700; font-size: 9px; font-family: 'Arial', 'Helvetica', 'DejaVu Sans', 'Liberation Sans', sans-serif; text-anchor: start; fill: #82e0aa" x="653.1726" y="230.062192" transform="rotate(-0 653.1726 230.062192)">Test</text>
   </g>
   <g id="text_13">
    <text style="font-size: 8px; font-family: 'Arial', 'Helvetica', 'DejaVu Sans', 'Liberation Sans', sans-serif; text-anchor: start; fill: #555555" x="653.1726" y="251.724536" transform="rotate(-0 653.1726 251.724536)">n=100</text>
   </g>
   <g id="text_14">
    <text style="font-weight: 700; font-size: 9px; font-family: 'Arial', 'Helvetica', 'DejaVu Sans', 'Liberation Sans', sans-serif; text-anchor: start; fill: #c0392b" x="653.1726" y="266.052067" transform="rotate(-0 653.1726 266.052067)">Reject</text>
   </g>
   <g id="text_15">
    <text style="font-size: 8px; font-family: 'Arial', 'Helvetica', 'DejaVu Sans', 'Liberation Sans', sans-serif; text-anchor: start; fill: #555555" x="653.1726" y="287.832536" transform="rotate(-0 653.1726 287.832536)">n=180</text>
   </g>
  </g>
 </g>
 <defs>
  <clipPath id="pff45a78523">
   <rect x="7.2" y="7.2" width="709.86" height="354"/>
  </clipPath>
 </defs>
</svg>
