<?xml version="1.0" encoding="utf-8" standalone="no"?>
<!DOCTYPE svg PUBLIC "-//W3C//DTD SVG 1.1//EN"
  "http://www.w3.org/Graphics/SVG/1.1/DTD/svg11.dtd">
<svg xmlns:xlink="http://www.w3.org/1999/xlink" width="442.143454pt" height="244.689847pt" viewBox="0 0 442.143454 244.689847" xmlns="http://www.w3.org/2000/svg" version="1.1">
 <metadata>
  <rdf:RDF xmlns:dc="http://purl.org/dc/elements/1.1/" xmlns:cc="http://creativecommons.org/ns#" xmlns:rdf="http://www.w3.org/1999/02/22-rdf-syntax-ns#">
   <cc:Work>
    <dc:type rdf:resource="http://purl.org/dc/dcmitype/StillImage"/>
    <dc:date>2026-05-25T00:24:46.030874</dc:date>
    <dc:format>image/svg+xml</dc:format>
    <dc:creator>
     <cc:Agent>
      <dc:title>Matplotlib v3.10.9, https://matplotlib.org/</dc:title>
     </cc:Agent>
    </dc:creator>
   </cc:Work>
  </rdf:RDF>
 </metadata>
 <defs>
  <style type="text/css">*{stroke-linejoin: round; stroke-linecap: butt}</style>
 </defs>
 <g id="figure_1">
  <g id="patch_1">
   <path d="M 0 244.689847 
L 442.143454 244.689847 
L 442.143454 0 
L 0 0 
z
" style="fill: #ffffff"/>
  </g>
  <g id="axes_1">
   <g id="patch_2">
    <path d="M 39.632812 210.037034 
L 207.994881 210.037034 
L 207.994881 41.674966 
L 39.632812 41.674966 
z
" style="fill: #ffffff"/>
   </g>
   <g id="line2d_1">
    <path d="M 41.283421 208.386426 
L 206.344273 43.325574 
" clip-path="url(#p3610bd47b6)" style="fill: none; stroke-dasharray: 3.33,1.44; stroke-dashoffset: 0; stroke: #bbbbbb; stroke-width: 0.9"/>
   </g>
   <g id="matplotlib.axis_1">
    <g id="xtick_1">
     <g id="line2d_2">
      <path d="M 41.283421 210.037034 
L 41.283421 41.674966 
" clip-path="url(#p3610bd47b6)" style="fill: none; stroke: #e0e0e0; stroke-width: 0.4; stroke-linecap: square"/>
     </g>
     <g id="line2d_3">
      <defs>
       <path id="mcff8b853bf" d="M 0 0 
L 0 3.5 
" style="stroke: #000000; stroke-width: 0.8"/>
      </defs>
      <g>
       <use xlink:href="#mcff8b853bf" x="41.283421" y="210.037034" style="stroke: #000000; stroke-width: 0.8"/>
      </g>
     </g>
     <g id="text_1">
      <!-- 0.0 -->
      <g transform="translate(34.922171 223.115784) scale(0.08 -0.08)">
       <defs>
        <path id="DejaVuSans-30" d="M 2034 4250 
Q 1547 4250 1301 3770 
Q 1056 3291 1056 2328 
Q 1056 1369 1301 889 
Q 1547 409 2034 409 
Q 2525 409 2770 889 
Q 3016 1369 3016 2328 
Q 3016 3291 2770 3770 
Q 2525 4250 2034 4250 
z
M 2034 4750 
Q 2819 4750 3233 4129 
Q 3647 3509 3647 2328 
Q 3647 1150 3233 529 
Q 2819 -91 2034 -91 
Q 1250 -91 836 529 
Q 422 1150 422 2328 
Q 422 3509 836 4129 
Q 1250 4750 2034 4750 
z
" transform="scale(0.015625)"/>
        <path id="DejaVuSans-2e" d="M 684 794 
L 1344 794 
L 1344 0 
L 684 0 
L 684 794 
z
" transform="scale(0.015625)"/>
       </defs>
       <use xlink:href="#DejaVuSans-30"/>
       <use xlink:href="#DejaVuSans-2e" transform="translate(63.623047 0)"/>
       <use xlink:href="#DejaVuSans-30" transform="translate(95.410156 0)"/>
      </g>
     </g>
    </g>
    <g id="xtick_2">
     <g id="line2d_4">
      <path d="M 74.295591 210.037034 
L 74.295591 41.674966 
" clip-path="url(#p3610bd47b6)" style="fill: none; stroke: #e0e0e0; stroke-width: 0.4; stroke-linecap: square"/>
     </g>
     <g id="line2d_5">
      <g>
       <use xlink:href="#mcff8b853bf" x="74.295591" y="210.037034" style="stroke: #000000; stroke-width: 0.8"/>
      </g>
     </g>
     <g id="text_2">
      <!-- 0.2 -->
      <g transform="translate(67.934341 223.115784) scale(0.08 -0.08)">
       <defs>
        <path id="DejaVuSans-32" d="M 1228 531 
L 3431 531 
L 3431 0 
L 469 0 
L 469 531 
Q 828 903 1448 1529 
Q 2069 2156 2228 2338 
Q 2531 2678 2651 2914 
Q 2772 3150 2772 3378 
Q 2772 3750 2511 3984 
Q 2250 4219 1831 4219 
Q 1534 4219 1204 4116 
Q 875 4013 500 3803 
L 500 4441 
Q 881 4594 1212 4672 
Q 1544 4750 1819 4750 
Q 2544 4750 2975 4387 
Q 3406 4025 3406 3419 
Q 3406 3131 3298 2873 
Q 3191 2616 2906 2266 
Q 2828 2175 2409 1742 
Q 1991 1309 1228 531 
z
" transform="scale(0.015625)"/>
       </defs>
       <use xlink:href="#DejaVuSans-30"/>
       <use xlink:href="#DejaVuSans-2e" transform="translate(63.623047 0)"/>
       <use xlink:href="#DejaVuSans-32" transform="translate(95.410156 0)"/>
      </g>
     </g>
    </g>
    <g id="xtick_3">
     <g id="line2d_6">
      <path d="M 107.307762 210.037034 
L 107.307762 41.674966 
" clip-path="url(#p3610bd47b6)" style="fill: none; stroke: #e0e0e0; stroke-width: 0.4; stroke-linecap: square"/>
     </g>
     <g id="line2d_7">
      <g>
       <use xlink:href="#mcff8b853bf" x="107.307762" y="210.037034" style="stroke: #000000; stroke-width: 0.8"/>
      </g>
     </g>
     <g id="text_3">
      <!-- 0.4 -->
      <g transform="translate(100.946512 223.115784) scale(0.08 -0.08)">
       <defs>
        <path id="DejaVuSans-34" d="M 2419 4116 
L 825 1625 
L 2419 1625 
L 2419 4116 
z
M 2253 4666 
L 3047 4666 
L 3047 1625 
L 3713 1625 
L 3713 1100 
L 3047 1100 
L 3047 0 
L 2419 0 
L 2419 1100 
L 313 1100 
L 313 1709 
L 2253 4666 
z
" transform="scale(0.015625)"/>
       </defs>
       <use xlink:href="#DejaVuSans-30"/>
       <use xlink:href="#DejaVuSans-2e" transform="translate(63.623047 0)"/>
       <use xlink:href="#DejaVuSans-34" transform="translate(95.410156 0)"/>
      </g>
     </g>
    </g>
    <g id="xtick_4">
     <g id="line2d_8">
      <path d="M 140.319932 210.037034 
L 140.319932 41.674966 
" clip-path="url(#p3610bd47b6)" style="fill: none; stroke: #e0e0e0; stroke-width: 0.4; stroke-linecap: square"/>
     </g>
     <g id="line2d_9">
      <g>
       <use xlink:href="#mcff8b853bf" x="140.319932" y="210.037034" style="stroke: #000000; stroke-width: 0.8"/>
      </g>
     </g>
     <g id="text_4">
      <!-- 0.6 -->
      <g transform="translate(133.958682 223.115784) scale(0.08 -0.08)">
       <defs>
        <path id="DejaVuSans-36" d="M 2113 2584 
Q 1688 2584 1439 2293 
Q 1191 2003 1191 1497 
Q 1191 994 1439 701 
Q 1688 409 2113 409 
Q 2538 409 2786 701 
Q 3034 994 3034 1497 
Q 3034 2003 2786 2293 
Q 2538 2584 2113 2584 
z
M 3366 4563 
L 3366 3988 
Q 3128 4100 2886 4159 
Q 2644 4219 2406 4219 
Q 1781 4219 1451 3797 
Q 1122 3375 1075 2522 
Q 1259 2794 1537 2939 
Q 1816 3084 2150 3084 
Q 2853 3084 3261 2657 
Q 3669 2231 3669 1497 
Q 3669 778 3244 343 
Q 2819 -91 2113 -91 
Q 1303 -91 875 529 
Q 447 1150 447 2328 
Q 447 3434 972 4092 
Q 1497 4750 2381 4750 
Q 2619 4750 2861 4703 
Q 3103 4656 3366 4563 
z
" transform="scale(0.015625)"/>
       </defs>
       <use xlink:href="#DejaVuSans-30"/>
       <use xlink:href="#DejaVuSans-2e" transform="translate(63.623047 0)"/>
       <use xlink:href="#DejaVuSans-36" transform="translate(95.410156 0)"/>
      </g>
     </g>
    </g>
    <g id="xtick_5">
     <g id="line2d_10">
      <path d="M 173.332103 210.037034 
L 173.332103 41.674966 
" clip-path="url(#p3610bd47b6)" style="fill: none; stroke: #e0e0e0; stroke-width: 0.4; stroke-linecap: square"/>
     </g>
     <g id="line2d_11">
      <g>
       <use xlink:href="#mcff8b853bf" x="173.332103" y="210.037034" style="stroke: #000000; stroke-width: 0.8"/>
      </g>
     </g>
     <g id="text_5">
      <!-- 0.8 -->
      <g transform="translate(166.970853 223.115784) scale(0.08 -0.08)">
       <defs>
        <path id="DejaVuSans-38" d="M 2034 2216 
Q 1584 2216 1326 1975 
Q 1069 1734 1069 1313 
Q 1069 891 1326 650 
Q 1584 409 2034 409 
Q 2484 409 2743 651 
Q 3003 894 3003 1313 
Q 3003 1734 2745 1975 
Q 2488 2216 2034 2216 
z
M 1403 2484 
Q 997 2584 770 2862 
Q 544 3141 544 3541 
Q 544 4100 942 4425 
Q 1341 4750 2034 4750 
Q 2731 4750 3128 4425 
Q 3525 4100 3525 3541 
Q 3525 3141 3298 2862 
Q 3072 2584 2669 2484 
Q 3125 2378 3379 2068 
Q 3634 1759 3634 1313 
Q 3634 634 3220 271 
Q 2806 -91 2034 -91 
Q 1263 -91 848 271 
Q 434 634 434 1313 
Q 434 1759 690 2068 
Q 947 2378 1403 2484 
z
M 1172 3481 
Q 1172 3119 1398 2916 
Q 1625 2713 2034 2713 
Q 2441 2713 2670 2916 
Q 2900 3119 2900 3481 
Q 2900 3844 2670 4047 
Q 2441 4250 2034 4250 
Q 1625 4250 1398 4047 
Q 1172 3844 1172 3481 
z
" transform="scale(0.015625)"/>
       </defs>
       <use xlink:href="#DejaVuSans-30"/>
       <use xlink:href="#DejaVuSans-2e" transform="translate(63.623047 0)"/>
       <use xlink:href="#DejaVuSans-38" transform="translate(95.410156 0)"/>
      </g>
     </g>
    </g>
    <g id="xtick_6">
     <g id="line2d_12">
      <path d="M 206.344273 210.037034 
L 206.344273 41.674966 
" clip-path="url(#p3610bd47b6)" style="fill: none; stroke: #e0e0e0; stroke-width: 0.4; stroke-linecap: square"/>
     </g>
     <g id="line2d_13">
      <g>
       <use xlink:href="#mcff8b853bf" x="206.344273" y="210.037034" style="stroke: #000000; stroke-width: 0.8"/>
      </g>
     </g>
     <g id="text_6">
      <!-- 1.0 -->
      <g transform="translate(199.983023 223.115784) scale(0.08 -0.08)">
       <defs>
        <path id="DejaVuSans-31" d="M 794 531 
L 1825 531 
L 1825 4091 
L 703 3866 
L 703 4441 
L 1819 4666 
L 2450 4666 
L 2450 531 
L 3481 531 
L 3481 0 
L 794 0 
L 794 531 
z
" transform="scale(0.015625)"/>
       </defs>
       <use xlink:href="#DejaVuSans-31"/>
       <use xlink:href="#DejaVuSans-2e" transform="translate(63.623047 0)"/>
       <use xlink:href="#DejaVuSans-30" transform="translate(95.410156 0)"/>
      </g>
     </g>
    </g>
    <g id="text_7">
     <!-- False Positive Rate -->
     <g transform="translate(81.994081 235.618128) scale(0.09 -0.09)">
      <defs>
       <path id="DejaVuSans-46" d="M 628 4666 
L 3309 4666 
L 3309 4134 
L 1259 4134 
L 1259 2759 
L 3109 2759 
L 3109 2228 
L 1259 2228 
L 1259 0 
L 628 0 
L 628 4666 
z
" transform="scale(0.015625)"/>
       <path id="DejaVuSans-61" d="M 2194 1759 
Q 1497 1759 1228 1600 
Q 959 1441 959 1056 
Q 959 750 1161 570 
Q 1363 391 1709 391 
Q 2188 391 2477 730 
Q 2766 1069 2766 1631 
L 2766 1759 
L 2194 1759 
z
M 3341 1997 
L 3341 0 
L 2766 0 
L 2766 531 
Q 2569 213 2275 61 
Q 1981 -91 1556 -91 
Q 1019 -91 701 211 
Q 384 513 384 1019 
Q 384 1609 779 1909 
Q 1175 2209 1959 2209 
L 2766 2209 
L 2766 2266 
Q 2766 2663 2505 2880 
Q 2244 3097 1772 3097 
Q 1472 3097 1187 3025 
Q 903 2953 641 2809 
L 641 3341 
Q 956 3463 1253 3523 
Q 1550 3584 1831 3584 
Q 2591 3584 2966 3190 
Q 3341 2797 3341 1997 
z
" transform="scale(0.015625)"/>
       <path id="DejaVuSans-6c" d="M 603 4863 
L 1178 4863 
L 1178 0 
L 603 0 
L 603 4863 
z
" transform="scale(0.015625)"/>
       <path id="DejaVuSans-73" d="M 2834 3397 
L 2834 2853 
Q 2591 2978 2328 3040 
Q 2066 3103 1784 3103 
Q 1356 3103 1142 2972 
Q 928 2841 928 2578 
Q 928 2378 1081 2264 
Q 1234 2150 1697 2047 
L 1894 2003 
Q 2506 1872 2764 1633 
Q 3022 1394 3022 966 
Q 3022 478 2636 193 
Q 2250 -91 1575 -91 
Q 1294 -91 989 -36 
Q 684 19 347 128 
L 347 722 
Q 666 556 975 473 
Q 1284 391 1588 391 
Q 1994 391 2212 530 
Q 2431 669 2431 922 
Q 2431 1156 2273 1281 
Q 2116 1406 1581 1522 
L 1381 1569 
Q 847 1681 609 1914 
Q 372 2147 372 2553 
Q 372 3047 722 3315 
Q 1072 3584 1716 3584 
Q 2034 3584 2315 3537 
Q 2597 3491 2834 3397 
z
" transform="scale(0.015625)"/>
       <path id="DejaVuSans-65" d="M 3597 1894 
L 3597 1613 
L 953 1613 
Q 991 1019 1311 708 
Q 1631 397 2203 397 
Q 2534 397 2845 478 
Q 3156 559 3463 722 
L 3463 178 
Q 3153 47 2828 -22 
Q 2503 -91 2169 -91 
Q 1331 -91 842 396 
Q 353 884 353 1716 
Q 353 2575 817 3079 
Q 1281 3584 2069 3584 
Q 2775 3584 3186 3129 
Q 3597 2675 3597 1894 
z
M 3022 2063 
Q 3016 2534 2758 2815 
Q 2500 3097 2075 3097 
Q 1594 3097 1305 2825 
Q 1016 2553 972 2059 
L 3022 2063 
z
" transform="scale(0.015625)"/>
       <path id="DejaVuSans-20" transform="scale(0.015625)"/>
       <path id="DejaVuSans-50" d="M 1259 4147 
L 1259 2394 
L 2053 2394 
Q 2494 2394 2734 2622 
Q 2975 2850 2975 3272 
Q 2975 3691 2734 3919 
Q 2494 4147 2053 4147 
L 1259 4147 
z
M 628 4666 
L 2053 4666 
Q 2838 4666 3239 4311 
Q 3641 3956 3641 3272 
Q 3641 2581 3239 2228 
Q 2838 1875 2053 1875 
L 1259 1875 
L 1259 0 
L 628 0 
L 628 4666 
z
" transform="scale(0.015625)"/>
       <path id="DejaVuSans-6f" d="M 1959 3097 
Q 1497 3097 1228 2736 
Q 959 2375 959 1747 
Q 959 1119 1226 758 
Q 1494 397 1959 397 
Q 2419 397 2687 759 
Q 2956 1122 2956 1747 
Q 2956 2369 2687 2733 
Q 2419 3097 1959 3097 
z
M 1959 3584 
Q 2709 3584 3137 3096 
Q 3566 2609 3566 1747 
Q 3566 888 3137 398 
Q 2709 -91 1959 -91 
Q 1206 -91 779 398 
Q 353 888 353 1747 
Q 353 2609 779 3096 
Q 1206 3584 1959 3584 
z
" transform="scale(0.015625)"/>
       <path id="DejaVuSans-69" d="M 603 3500 
L 1178 3500 
L 1178 0 
L 603 0 
L 603 3500 
z
M 603 4863 
L 1178 4863 
L 1178 4134 
L 603 4134 
L 603 4863 
z
" transform="scale(0.015625)"/>
       <path id="DejaVuSans-74" d="M 1172 4494 
L 1172 3500 
L 2356 3500 
L 2356 3053 
L 1172 3053 
L 1172 1153 
Q 1172 725 1289 603 
Q 1406 481 1766 481 
L 2356 481 
L 2356 0 
L 1766 0 
Q 1100 0 847 248 
Q 594 497 594 1153 
L 594 3053 
L 172 3053 
L 172 3500 
L 594 3500 
L 594 4494 
L 1172 4494 
z
" transform="scale(0.015625)"/>
       <path id="DejaVuSans-76" d="M 191 3500 
L 800 3500 
L 1894 563 
L 2988 3500 
L 3597 3500 
L 2284 0 
L 1503 0 
L 191 3500 
z
" transform="scale(0.015625)"/>
       <path id="DejaVuSans-52" d="M 2841 2188 
Q 3044 2119 3236 1894 
Q 3428 1669 3622 1275 
L 4263 0 
L 3584 0 
L 2988 1197 
Q 2756 1666 2539 1819 
Q 2322 1972 1947 1972 
L 1259 1972 
L 1259 0 
L 628 0 
L 628 4666 
L 2053 4666 
Q 2853 4666 3247 4331 
Q 3641 3997 3641 3322 
Q 3641 2881 3436 2590 
Q 3231 2300 2841 2188 
z
M 1259 4147 
L 1259 2491 
L 2053 2491 
Q 2509 2491 2742 2702 
Q 2975 2913 2975 3322 
Q 2975 3731 2742 3939 
Q 2509 4147 2053 4147 
L 1259 4147 
z
" transform="scale(0.015625)"/>
      </defs>
      <use xlink:href="#DejaVuSans-46"/>
      <use xlink:href="#DejaVuSans-61" transform="translate(48.394531 0)"/>
      <use xlink:href="#DejaVuSans-6c" transform="translate(109.673828 0)"/>
      <use xlink:href="#DejaVuSans-73" transform="translate(137.457031 0)"/>
      <use xlink:href="#DejaVuSans-65" transform="translate(189.556641 0)"/>
      <use xlink:href="#DejaVuSans-20" transform="translate(251.080078 0)"/>
      <use xlink:href="#DejaVuSans-50" transform="translate(282.867188 0)"/>
      <use xlink:href="#DejaVuSans-6f" transform="translate(339.544922 0)"/>
      <use xlink:href="#DejaVuSans-73" transform="translate(400.726562 0)"/>
      <use xlink:href="#DejaVuSans-69" transform="translate(452.826172 0)"/>
      <use xlink:href="#DejaVuSans-74" transform="translate(480.609375 0)"/>
      <use xlink:href="#DejaVuSans-69" transform="translate(519.818359 0)"/>
      <use xlink:href="#DejaVuSans-76" transform="translate(547.601562 0)"/>
      <use xlink:href="#DejaVuSans-65" transform="translate(606.78125 0)"/>
      <use xlink:href="#DejaVuSans-20" transform="translate(668.304688 0)"/>
      <use xlink:href="#DejaVuSans-52" transform="translate(700.091797 0)"/>
      <use xlink:href="#DejaVuSans-61" transform="translate(767.324219 0)"/>
      <use xlink:href="#DejaVuSans-74" transform="translate(828.603516 0)"/>
      <use xlink:href="#DejaVuSans-65" transform="translate(867.8125 0)"/>
     </g>
    </g>
   </g>
   <g id="matplotlib.axis_2">
    <g id="ytick_1">
     <g id="line2d_14">
      <path d="M 39.632812 208.386426 
L 207.994881 208.386426 
" clip-path="url(#p3610bd47b6)" style="fill: none; stroke: #e0e0e0; stroke-width: 0.4; stroke-linecap: square"/>
     </g>
     <g id="line2d_15">
      <defs>
       <path id="m73b5aecab5" d="M 0 0 
L -3.5 0 
" style="stroke: #000000; stroke-width: 0.8"/>
      </defs>
      <g>
       <use xlink:href="#m73b5aecab5" x="39.632812" y="208.386426" style="stroke: #000000; stroke-width: 0.8"/>
      </g>
     </g>
     <g id="text_8">
      <!-- 0.0 -->
      <g transform="translate(19.910312 211.425801) scale(0.08 -0.08)">
       <use xlink:href="#DejaVuSans-30"/>
       <use xlink:href="#DejaVuSans-2e" transform="translate(63.623047 0)"/>
       <use xlink:href="#DejaVuSans-30" transform="translate(95.410156 0)"/>
      </g>
     </g>
    </g>
    <g id="ytick_2">
     <g id="line2d_16">
      <path d="M 39.632812 175.374256 
L 207.994881 175.374256 
" clip-path="url(#p3610bd47b6)" style="fill: none; stroke: #e0e0e0; stroke-width: 0.4; stroke-linecap: square"/>
     </g>
     <g id="line2d_17">
      <g>
       <use xlink:href="#m73b5aecab5" x="39.632812" y="175.374256" style="stroke: #000000; stroke-width: 0.8"/>
      </g>
     </g>
     <g id="text_9">
      <!-- 0.2 -->
      <g transform="translate(19.910312 178.413631) scale(0.08 -0.08)">
       <use xlink:href="#DejaVuSans-30"/>
       <use xlink:href="#DejaVuSans-2e" transform="translate(63.623047 0)"/>
       <use xlink:href="#DejaVuSans-32" transform="translate(95.410156 0)"/>
      </g>
     </g>
    </g>
    <g id="ytick_3">
     <g id="line2d_18">
      <path d="M 39.632812 142.362085 
L 207.994881 142.362085 
" clip-path="url(#p3610bd47b6)" style="fill: none; stroke: #e0e0e0; stroke-width: 0.4; stroke-linecap: square"/>
     </g>
     <g id="line2d_19">
      <g>
       <use xlink:href="#m73b5aecab5" x="39.632812" y="142.362085" style="stroke: #000000; stroke-width: 0.8"/>
      </g>
     </g>
     <g id="text_10">
      <!-- 0.4 -->
      <g transform="translate(19.910312 145.40146) scale(0.08 -0.08)">
       <use xlink:href="#DejaVuSans-30"/>
       <use xlink:href="#DejaVuSans-2e" transform="translate(63.623047 0)"/>
       <use xlink:href="#DejaVuSans-34" transform="translate(95.410156 0)"/>
      </g>
     </g>
    </g>
    <g id="ytick_4">
     <g id="line2d_20">
      <path d="M 39.632812 109.349915 
L 207.994881 109.349915 
" clip-path="url(#p3610bd47b6)" style="fill: none; stroke: #e0e0e0; stroke-width: 0.4; stroke-linecap: square"/>
     </g>
     <g id="line2d_21">
      <g>
       <use xlink:href="#m73b5aecab5" x="39.632812" y="109.349915" style="stroke: #000000; stroke-width: 0.8"/>
      </g>
     </g>
     <g id="text_11">
      <!-- 0.6 -->
      <g transform="translate(19.910312 112.38929) scale(0.08 -0.08)">
       <use xlink:href="#DejaVuSans-30"/>
       <use xlink:href="#DejaVuSans-2e" transform="translate(63.623047 0)"/>
       <use xlink:href="#DejaVuSans-36" transform="translate(95.410156 0)"/>
      </g>
     </g>
    </g>
    <g id="ytick_5">
     <g id="line2d_22">
      <path d="M 39.632812 76.337744 
L 207.994881 76.337744 
" clip-path="url(#p3610bd47b6)" style="fill: none; stroke: #e0e0e0; stroke-width: 0.4; stroke-linecap: square"/>
     </g>
     <g id="line2d_23">
      <g>
       <use xlink:href="#m73b5aecab5" x="39.632812" y="76.337744" style="stroke: #000000; stroke-width: 0.8"/>
      </g>
     </g>
     <g id="text_12">
      <!-- 0.8 -->
      <g transform="translate(19.910312 79.377119) scale(0.08 -0.08)">
       <use xlink:href="#DejaVuSans-30"/>
       <use xlink:href="#DejaVuSans-2e" transform="translate(63.623047 0)"/>
       <use xlink:href="#DejaVuSans-38" transform="translate(95.410156 0)"/>
      </g>
     </g>
    </g>
    <g id="ytick_6">
     <g id="line2d_24">
      <path d="M 39.632812 43.325574 
L 207.994881 43.325574 
" clip-path="url(#p3610bd47b6)" style="fill: none; stroke: #e0e0e0; stroke-width: 0.4; stroke-linecap: square"/>
     </g>
     <g id="line2d_25">
      <g>
       <use xlink:href="#m73b5aecab5" x="39.632812" y="43.325574" style="stroke: #000000; stroke-width: 0.8"/>
      </g>
     </g>
     <g id="text_13">
      <!-- 1.0 -->
      <g transform="translate(19.910312 46.364949) scale(0.08 -0.08)">
       <use xlink:href="#DejaVuSans-31"/>
       <use xlink:href="#DejaVuSans-2e" transform="translate(63.623047 0)"/>
       <use xlink:href="#DejaVuSans-30" transform="translate(95.410156 0)"/>
      </g>
     </g>
    </g>
    <g id="text_14">
     <!-- True Positive Rate -->
     <g transform="translate(14.038594 165.932719) rotate(-90) scale(0.09 -0.09)">
      <defs>
       <path id="DejaVuSans-54" d="M -19 4666 
L 3928 4666 
L 3928 4134 
L 2272 4134 
L 2272 0 
L 1638 0 
L 1638 4134 
L -19 4134 
L -19 4666 
z
" transform="scale(0.015625)"/>
       <path id="DejaVuSans-72" d="M 2631 2963 
Q 2534 3019 2420 3045 
Q 2306 3072 2169 3072 
Q 1681 3072 1420 2755 
Q 1159 2438 1159 1844 
L 1159 0 
L 581 0 
L 581 3500 
L 1159 3500 
L 1159 2956 
Q 1341 3275 1631 3429 
Q 1922 3584 2338 3584 
Q 2397 3584 2469 3576 
Q 2541 3569 2628 3553 
L 2631 2963 
z
" transform="scale(0.015625)"/>
       <path id="DejaVuSans-75" d="M 544 1381 
L 544 3500 
L 1119 3500 
L 1119 1403 
Q 1119 906 1312 657 
Q 1506 409 1894 409 
Q 2359 409 2629 706 
Q 2900 1003 2900 1516 
L 2900 3500 
L 3475 3500 
L 3475 0 
L 2900 0 
L 2900 538 
Q 2691 219 2414 64 
Q 2138 -91 1772 -91 
Q 1169 -91 856 284 
Q 544 659 544 1381 
z
M 1991 3584 
L 1991 3584 
z
" transform="scale(0.015625)"/>
      </defs>
      <use xlink:href="#DejaVuSans-54"/>
      <use xlink:href="#DejaVuSans-72" transform="translate(46.333984 0)"/>
      <use xlink:href="#DejaVuSans-75" transform="translate(87.447266 0)"/>
      <use xlink:href="#DejaVuSans-65" transform="translate(150.826172 0)"/>
      <use xlink:href="#DejaVuSans-20" transform="translate(212.349609 0)"/>
      <use xlink:href="#DejaVuSans-50" transform="translate(244.136719 0)"/>
      <use xlink:href="#DejaVuSans-6f" transform="translate(300.814453 0)"/>
      <use xlink:href="#DejaVuSans-73" transform="translate(361.996094 0)"/>
      <use xlink:href="#DejaVuSans-69" transform="translate(414.095703 0)"/>
      <use xlink:href="#DejaVuSans-74" transform="translate(441.878906 0)"/>
      <use xlink:href="#DejaVuSans-69" transform="translate(481.087891 0)"/>
      <use xlink:href="#DejaVuSans-76" transform="translate(508.871094 0)"/>
      <use xlink:href="#DejaVuSans-65" transform="translate(568.050781 0)"/>
      <use xlink:href="#DejaVuSans-20" transform="translate(629.574219 0)"/>
      <use xlink:href="#DejaVuSans-52" transform="translate(661.361328 0)"/>
      <use xlink:href="#DejaVuSans-61" transform="translate(728.59375 0)"/>
      <use xlink:href="#DejaVuSans-74" transform="translate(789.873047 0)"/>
      <use xlink:href="#DejaVuSans-65" transform="translate(829.082031 0)"/>
     </g>
    </g>
   </g>
   <g id="patch_3">
    <path d="M 39.632812 210.037034 
L 39.632812 41.674966 
" style="fill: none; stroke: #000000; stroke-width: 0.8; stroke-linejoin: miter; stroke-linecap: square"/>
   </g>
   <g id="patch_4">
    <path d="M 207.994881 210.037034 
L 207.994881 41.674966 
" style="fill: none; stroke: #000000; stroke-width: 0.8; stroke-linejoin: miter; stroke-linecap: square"/>
   </g>
   <g id="patch_5">
    <path d="M 39.632812 210.037034 
L 207.994881 210.037034 
" style="fill: none; stroke: #000000; stroke-width: 0.8; stroke-linejoin: miter; stroke-linecap: square"/>
   </g>
   <g id="patch_6">
    <path d="M 39.632812 41.674966 
L 207.994881 41.674966 
" style="fill: none; stroke: #000000; stroke-width: 0.8; stroke-linejoin: miter; stroke-linecap: square"/>
   </g>
   <g id="line2d_26">
    <path d="M 41.283421 208.386426 
L 41.283421 207.010919 
L 41.283421 183.627298 
L 42.200426 183.627298 
L 42.200426 180.876284 
L 43.11743 180.876284 
L 43.11743 171.247734 
L 44.034435 171.247734 
L 44.034435 165.745706 
L 44.95144 165.745706 
L 44.95144 156.117156 
L 45.868445 156.117156 
L 45.868445 151.990635 
L 46.785449 151.990635 
L 46.785449 146.488606 
L 47.702454 146.488606 
L 47.702454 143.737592 
L 48.619459 143.737592 
L 48.619459 138.235564 
L 50.453468 138.235564 
L 50.453468 136.860057 
L 51.370473 136.860057 
L 51.370473 134.109043 
L 52.287478 134.109043 
L 52.287478 131.358028 
L 53.204483 131.358028 
L 53.204483 129.982521 
L 54.121487 129.982521 
L 54.121487 125.856 
L 55.038492 125.856 
L 55.038492 118.978465 
L 55.955497 118.978465 
L 55.955497 110.725422 
L 57.789506 110.725422 
L 57.789506 109.349915 
L 59.623516 109.349915 
L 59.623516 105.223394 
L 61.457525 105.223394 
L 61.457525 101.096872 
L 62.37453 101.096872 
L 62.37453 98.345858 
L 63.291535 98.345858 
L 63.291535 95.594844 
L 66.042549 95.594844 
L 66.042549 94.219337 
L 67.876558 94.219337 
L 67.876558 92.84383 
L 69.710568 92.84383 
L 69.710568 88.717308 
L 71.544577 88.717308 
L 71.544577 83.21528 
L 77.96361 83.21528 
L 77.96361 80.464266 
L 78.880615 80.464266 
L 78.880615 77.713252 
L 80.714625 77.713252 
L 80.714625 76.337744 
L 82.548634 76.337744 
L 82.548634 73.58673 
L 83.465639 73.58673 
L 83.465639 72.211223 
L 85.299648 72.211223 
L 85.299648 70.835716 
L 86.216653 70.835716 
L 86.216653 69.460209 
L 88.967667 69.460209 
L 88.967667 68.084702 
L 93.552691 68.084702 
L 93.552691 66.709195 
L 94.469696 66.709195 
L 94.469696 65.333688 
L 96.303705 65.333688 
L 96.303705 62.582673 
L 97.22071 62.582673 
L 98.137714 61.207166 
L 98.137714 59.831659 
L 99.971724 59.831659 
L 99.971724 57.080645 
L 102.722738 57.080645 
L 102.722738 55.705138 
L 103.639743 55.705138 
L 103.639743 54.329631 
L 104.556748 54.329631 
L 104.556748 52.954124 
L 108.224767 52.954124 
L 108.224767 51.578617 
L 132.06689 51.578617 
L 132.06689 50.20311 
L 135.734909 50.20311 
L 135.734909 47.452095 
L 149.48998 47.452095 
L 149.48998 46.076588 
L 161.411041 46.076588 
L 161.411041 44.701081 
L 174.249107 44.701081 
L 174.249107 43.325574 
L 206.344273 43.325574 
" clip-path="url(#p3610bd47b6)" style="fill: none; stroke-dasharray: 4.44,1.92; stroke-dashoffset: 0; stroke: #9e9e9e; stroke-width: 1.2"/>
   </g>
   <g id="line2d_27">
    <path d="M 41.283421 208.386426 
L 41.283421 207.010919 
L 41.283421 158.86817 
L 42.200426 158.86817 
L 42.200426 146.488606 
L 43.11743 146.488606 
L 43.11743 142.362085 
L 44.034435 142.362085 
L 44.034435 132.733535 
L 44.95144 132.733535 
L 44.95144 129.982521 
L 45.868445 129.982521 
L 45.868445 124.480493 
L 48.619459 124.480493 
L 48.619459 117.602957 
L 50.453468 117.602957 
L 50.453468 106.598901 
L 51.370473 106.598901 
L 51.370473 105.223394 
L 52.287478 105.223394 
L 52.287478 102.472379 
L 53.204483 102.472379 
L 53.204483 101.096872 
L 55.038492 101.096872 
L 55.038492 96.970351 
L 56.872501 96.970351 
L 56.872501 94.219337 
L 57.789506 94.219337 
L 57.789506 90.092815 
L 58.706511 90.092815 
L 58.706511 84.590787 
L 60.54052 84.590787 
L 60.54052 77.713252 
L 61.457525 77.713252 
L 61.457525 76.337744 
L 66.042549 76.337744 
L 66.042549 74.962237 
L 68.793563 74.962237 
L 68.793563 73.58673 
L 71.544577 73.58673 
L 71.544577 70.835716 
L 72.461582 70.835716 
L 72.461582 68.084702 
L 75.212596 68.084702 
L 75.212596 66.709195 
L 77.96361 66.709195 
L 77.96361 65.333688 
L 81.631629 65.333688 
L 81.631629 63.958181 
L 86.216653 63.958181 
L 86.216653 62.582673 
L 88.050662 62.582673 
L 88.050662 61.207166 
L 88.967667 61.207166 
L 88.967667 59.831659 
L 103.639743 59.831659 
L 103.639743 58.456152 
L 105.473752 58.456152 
L 105.473752 57.080645 
L 108.224767 57.080645 
L 108.224767 55.705138 
L 116.477809 55.705138 
L 116.477809 54.329631 
L 117.394814 54.329631 
L 117.394814 52.954124 
L 118.311819 52.954124 
L 118.311819 51.578617 
L 119.228823 51.578617 
L 119.228823 50.20311 
L 142.153942 50.20311 
L 142.153942 48.827602 
L 143.070946 48.827602 
L 143.070946 47.452095 
L 152.240994 47.452095 
L 152.240994 46.076588 
L 159.577032 46.076588 
L 159.577032 44.701081 
L 161.411041 44.701081 
L 161.411041 43.325574 
L 191.672197 43.325574 
L 193.506207 43.325574 
L 206.344273 43.325574 
" clip-path="url(#p3610bd47b6)" style="fill: none; stroke-dasharray: 10.24,2.56,1.6,2.56; stroke-dashoffset: 0; stroke: #4c9be8; stroke-width: 1.6"/>
   </g>
   <g id="line2d_28">
    <path d="M 41.283421 208.386426 
L 41.283421 207.010919 
L 41.283421 121.729479 
L 42.200426 121.729479 
L 42.200426 113.476436 
L 43.11743 113.476436 
L 43.11743 105.223394 
L 44.034435 103.847886 
L 44.034435 94.219337 
L 44.95144 94.219337 
L 44.95144 85.966294 
L 46.785449 85.966294 
L 46.785449 74.962237 
L 47.702454 74.962237 
L 47.702454 72.211223 
L 49.536464 72.211223 
L 49.536464 68.084702 
L 51.370473 68.084702 
L 51.370473 66.709195 
L 52.287478 66.709195 
L 52.287478 63.958181 
L 54.121487 63.958181 
L 54.121487 61.207166 
L 55.955497 61.207166 
L 55.955497 59.831659 
L 57.789506 59.831659 
L 57.789506 57.080645 
L 65.125544 57.080645 
L 65.125544 55.705138 
L 66.959554 55.705138 
L 66.959554 54.329631 
L 73.378587 54.329631 
L 73.378587 52.954124 
L 81.631629 52.954124 
L 81.631629 51.578617 
L 85.299648 51.578617 
L 85.299648 50.20311 
L 97.22071 50.20311 
L 97.22071 48.827602 
L 108.224767 48.827602 
L 108.224767 47.452095 
L 110.058776 47.452095 
L 110.058776 46.076588 
L 121.979838 46.076588 
L 121.979838 44.701081 
L 131.149885 44.701081 
L 131.149885 43.325574 
L 206.344273 43.325574 
" clip-path="url(#p3610bd47b6)" style="fill: none; stroke-dasharray: 1.6,2.64; stroke-dashoffset: 0; stroke: #e87a4c; stroke-width: 1.6"/>
   </g>
   <g id="line2d_29">
    <path d="M 41.283421 208.386426 
L 41.283421 207.010919 
L 41.283421 94.219337 
L 42.200426 94.219337 
L 42.200426 66.709195 
L 44.95144 66.709195 
L 44.95144 63.958181 
L 45.868445 63.958181 
L 45.868445 62.582673 
L 47.702454 62.582673 
L 47.702454 58.456152 
L 48.619459 58.456152 
L 48.619459 52.954124 
L 54.121487 52.954124 
L 54.121487 51.578617 
L 55.038492 51.578617 
L 55.038492 50.20311 
L 56.872501 50.20311 
L 56.872501 48.827602 
L 62.37453 48.827602 
L 62.37453 47.452095 
L 63.291535 47.452095 
L 63.291535 46.076588 
L 66.959554 46.076588 
L 66.959554 44.701081 
L 71.544577 44.701081 
L 71.544577 43.325574 
L 79.79762 43.325574 
L 81.631629 43.325574 
L 206.344273 43.325574 
" clip-path="url(#p3610bd47b6)" style="fill: none; stroke: #2db37b; stroke-width: 2.2; stroke-linecap: square"/>
   </g>
   <g id="text_15">
    <!-- ROC Curve -->
    <g transform="translate(93.957597 35.674966) scale(0.1 -0.1)">
     <defs>
      <path id="DejaVuSans-Bold-52" d="M 2297 2597 
Q 2675 2597 2839 2737 
Q 3003 2878 3003 3200 
Q 3003 3519 2839 3656 
Q 2675 3794 2297 3794 
L 1791 3794 
L 1791 2597 
L 2297 2597 
z
M 1791 1766 
L 1791 0 
L 588 0 
L 588 4666 
L 2425 4666 
Q 3347 4666 3776 4356 
Q 4206 4047 4206 3378 
Q 4206 2916 3982 2619 
Q 3759 2322 3309 2181 
Q 3556 2125 3751 1926 
Q 3947 1728 4147 1325 
L 4800 0 
L 3519 0 
L 2950 1159 
Q 2778 1509 2601 1637 
Q 2425 1766 2131 1766 
L 1791 1766 
z
" transform="scale(0.015625)"/>
      <path id="DejaVuSans-Bold-4f" d="M 2719 3878 
Q 2169 3878 1866 3472 
Q 1563 3066 1563 2328 
Q 1563 1594 1866 1187 
Q 2169 781 2719 781 
Q 3272 781 3575 1187 
Q 3878 1594 3878 2328 
Q 3878 3066 3575 3472 
Q 3272 3878 2719 3878 
z
M 2719 4750 
Q 3844 4750 4481 4106 
Q 5119 3463 5119 2328 
Q 5119 1197 4481 553 
Q 3844 -91 2719 -91 
Q 1597 -91 958 553 
Q 319 1197 319 2328 
Q 319 3463 958 4106 
Q 1597 4750 2719 4750 
z
" transform="scale(0.015625)"/>
      <path id="DejaVuSans-Bold-43" d="M 4288 256 
Q 3956 84 3597 -3 
Q 3238 -91 2847 -91 
Q 1681 -91 1000 561 
Q 319 1213 319 2328 
Q 319 3447 1000 4098 
Q 1681 4750 2847 4750 
Q 3238 4750 3597 4662 
Q 3956 4575 4288 4403 
L 4288 3438 
Q 3953 3666 3628 3772 
Q 3303 3878 2944 3878 
Q 2300 3878 1931 3465 
Q 1563 3053 1563 2328 
Q 1563 1606 1931 1193 
Q 2300 781 2944 781 
Q 3303 781 3628 887 
Q 3953 994 4288 1222 
L 4288 256 
z
" transform="scale(0.015625)"/>
      <path id="DejaVuSans-Bold-20" transform="scale(0.015625)"/>
      <path id="DejaVuSans-Bold-75" d="M 500 1363 
L 500 3500 
L 1625 3500 
L 1625 3150 
Q 1625 2866 1622 2436 
Q 1619 2006 1619 1863 
Q 1619 1441 1641 1255 
Q 1663 1069 1716 984 
Q 1784 875 1895 815 
Q 2006 756 2150 756 
Q 2500 756 2700 1025 
Q 2900 1294 2900 1772 
L 2900 3500 
L 4019 3500 
L 4019 0 
L 2900 0 
L 2900 506 
Q 2647 200 2364 54 
Q 2081 -91 1741 -91 
Q 1134 -91 817 281 
Q 500 653 500 1363 
z
" transform="scale(0.015625)"/>
      <path id="DejaVuSans-Bold-72" d="M 3138 2547 
Q 2991 2616 2845 2648 
Q 2700 2681 2553 2681 
Q 2122 2681 1889 2404 
Q 1656 2128 1656 1613 
L 1656 0 
L 538 0 
L 538 3500 
L 1656 3500 
L 1656 2925 
Q 1872 3269 2151 3426 
Q 2431 3584 2822 3584 
Q 2878 3584 2943 3579 
Q 3009 3575 3134 3559 
L 3138 2547 
z
" transform="scale(0.015625)"/>
      <path id="DejaVuSans-Bold-76" d="M 97 3500 
L 1216 3500 
L 2088 1081 
L 2956 3500 
L 4078 3500 
L 2700 0 
L 1472 0 
L 97 3500 
z
" transform="scale(0.015625)"/>
      <path id="DejaVuSans-Bold-65" d="M 4031 1759 
L 4031 1441 
L 1416 1441 
Q 1456 1047 1700 850 
Q 1944 653 2381 653 
Q 2734 653 3104 758 
Q 3475 863 3866 1075 
L 3866 213 
Q 3469 63 3072 -14 
Q 2675 -91 2278 -91 
Q 1328 -91 801 392 
Q 275 875 275 1747 
Q 275 2603 792 3093 
Q 1309 3584 2216 3584 
Q 3041 3584 3536 3087 
Q 4031 2591 4031 1759 
z
M 2881 2131 
Q 2881 2450 2695 2645 
Q 2509 2841 2209 2841 
Q 1884 2841 1681 2658 
Q 1478 2475 1428 2131 
L 2881 2131 
z
" transform="scale(0.015625)"/>
     </defs>
     <use xlink:href="#DejaVuSans-Bold-52"/>
     <use xlink:href="#DejaVuSans-Bold-4f" transform="translate(77.001953 0)"/>
     <use xlink:href="#DejaVuSans-Bold-43" transform="translate(162.011719 0)"/>
     <use xlink:href="#DejaVuSans-Bold-20" transform="translate(235.400391 0)"/>
     <use xlink:href="#DejaVuSans-Bold-43" transform="translate(270.214844 0)"/>
     <use xlink:href="#DejaVuSans-Bold-75" transform="translate(343.603516 0)"/>
     <use xlink:href="#DejaVuSans-Bold-72" transform="translate(414.794922 0)"/>
     <use xlink:href="#DejaVuSans-Bold-76" transform="translate(464.111328 0)"/>
     <use xlink:href="#DejaVuSans-Bold-65" transform="translate(529.296875 0)"/>
    </g>
   </g>
   <g id="legend_1">
    <g id="patch_7">
     <path d="M 82.816131 206.437034 
L 202.954881 206.437034 
Q 204.394881 206.437034 204.394881 204.997034 
L 204.394881 163.444034 
Q 204.394881 162.004034 202.954881 162.004034 
L 82.816131 162.004034 
Q 81.376131 162.004034 81.376131 163.444034 
L 81.376131 204.997034 
Q 81.376131 206.437034 82.816131 206.437034 
z
" style="fill: #ffffff; opacity: 0.85; stroke: #cccccc; stroke-linejoin: miter"/>
    </g>
    <g id="line2d_30">
     <path d="M 84.256131 167.834909 
L 91.456131 167.834909 
L 98.656131 167.834909 
" style="fill: none; stroke-dasharray: 4.44,1.92; stroke-dashoffset: 0; stroke: #9e9e9e; stroke-width: 1.2"/>
    </g>
    <g id="text_16">
     <!-- Baseline  (AUROC=0.866) -->
     <g transform="translate(104.416131 170.354909) scale(0.072 -0.072)">
      <defs>
       <path id="DejaVuSans-42" d="M 1259 2228 
L 1259 519 
L 2272 519 
Q 2781 519 3026 730 
Q 3272 941 3272 1375 
Q 3272 1813 3026 2020 
Q 2781 2228 2272 2228 
L 1259 2228 
z
M 1259 4147 
L 1259 2741 
L 2194 2741 
Q 2656 2741 2882 2914 
Q 3109 3088 3109 3444 
Q 3109 3797 2882 3972 
Q 2656 4147 2194 4147 
L 1259 4147 
z
M 628 4666 
L 2241 4666 
Q 2963 4666 3353 4366 
Q 3744 4066 3744 3513 
Q 3744 3084 3544 2831 
Q 3344 2578 2956 2516 
Q 3422 2416 3680 2098 
Q 3938 1781 3938 1306 
Q 3938 681 3513 340 
Q 3088 0 2303 0 
L 628 0 
L 628 4666 
z
" transform="scale(0.015625)"/>
       <path id="DejaVuSans-6e" d="M 3513 2113 
L 3513 0 
L 2938 0 
L 2938 2094 
Q 2938 2591 2744 2837 
Q 2550 3084 2163 3084 
Q 1697 3084 1428 2787 
Q 1159 2491 1159 1978 
L 1159 0 
L 581 0 
L 581 3500 
L 1159 3500 
L 1159 2956 
Q 1366 3272 1645 3428 
Q 1925 3584 2291 3584 
Q 2894 3584 3203 3211 
Q 3513 2838 3513 2113 
z
" transform="scale(0.015625)"/>
       <path id="DejaVuSans-28" d="M 1984 4856 
Q 1566 4138 1362 3434 
Q 1159 2731 1159 2009 
Q 1159 1288 1364 580 
Q 1569 -128 1984 -844 
L 1484 -844 
Q 1016 -109 783 600 
Q 550 1309 550 2009 
Q 550 2706 781 3412 
Q 1013 4119 1484 4856 
L 1984 4856 
z
" transform="scale(0.015625)"/>
       <path id="DejaVuSans-41" d="M 2188 4044 
L 1331 1722 
L 3047 1722 
L 2188 4044 
z
M 1831 4666 
L 2547 4666 
L 4325 0 
L 3669 0 
L 3244 1197 
L 1141 1197 
L 716 0 
L 50 0 
L 1831 4666 
z
" transform="scale(0.015625)"/>
       <path id="DejaVuSans-55" d="M 556 4666 
L 1191 4666 
L 1191 1831 
Q 1191 1081 1462 751 
Q 1734 422 2344 422 
Q 2950 422 3222 751 
Q 3494 1081 3494 1831 
L 3494 4666 
L 4128 4666 
L 4128 1753 
Q 4128 841 3676 375 
Q 3225 -91 2344 -91 
Q 1459 -91 1007 375 
Q 556 841 556 1753 
L 556 4666 
z
" transform="scale(0.015625)"/>
       <path id="DejaVuSans-4f" d="M 2522 4238 
Q 1834 4238 1429 3725 
Q 1025 3213 1025 2328 
Q 1025 1447 1429 934 
Q 1834 422 2522 422 
Q 3209 422 3611 934 
Q 4013 1447 4013 2328 
Q 4013 3213 3611 3725 
Q 3209 4238 2522 4238 
z
M 2522 4750 
Q 3503 4750 4090 4092 
Q 4678 3434 4678 2328 
Q 4678 1225 4090 567 
Q 3503 -91 2522 -91 
Q 1538 -91 948 565 
Q 359 1222 359 2328 
Q 359 3434 948 4092 
Q 1538 4750 2522 4750 
z
" transform="scale(0.015625)"/>
       <path id="DejaVuSans-43" d="M 4122 4306 
L 4122 3641 
Q 3803 3938 3442 4084 
Q 3081 4231 2675 4231 
Q 1875 4231 1450 3742 
Q 1025 3253 1025 2328 
Q 1025 1406 1450 917 
Q 1875 428 2675 428 
Q 3081 428 3442 575 
Q 3803 722 4122 1019 
L 4122 359 
Q 3791 134 3420 21 
Q 3050 -91 2638 -91 
Q 1578 -91 968 557 
Q 359 1206 359 2328 
Q 359 3453 968 4101 
Q 1578 4750 2638 4750 
Q 3056 4750 3426 4639 
Q 3797 4528 4122 4306 
z
" transform="scale(0.015625)"/>
       <path id="DejaVuSans-3d" d="M 678 2906 
L 4684 2906 
L 4684 2381 
L 678 2381 
L 678 2906 
z
M 678 1631 
L 4684 1631 
L 4684 1100 
L 678 1100 
L 678 1631 
z
" transform="scale(0.015625)"/>
       <path id="DejaVuSans-29" d="M 513 4856 
L 1013 4856 
Q 1481 4119 1714 3412 
Q 1947 2706 1947 2009 
Q 1947 1309 1714 600 
Q 1481 -109 1013 -844 
L 513 -844 
Q 928 -128 1133 580 
Q 1338 1288 1338 2009 
Q 1338 2731 1133 3434 
Q 928 4138 513 4856 
z
" transform="scale(0.015625)"/>
      </defs>
      <use xlink:href="#DejaVuSans-42"/>
      <use xlink:href="#DejaVuSans-61" transform="translate(68.603516 0)"/>
      <use xlink:href="#DejaVuSans-73" transform="translate(129.882812 0)"/>
      <use xlink:href="#DejaVuSans-65" transform="translate(181.982422 0)"/>
      <use xlink:href="#DejaVuSans-6c" transform="translate(243.505859 0)"/>
      <use xlink:href="#DejaVuSans-69" transform="translate(271.289062 0)"/>
      <use xlink:href="#DejaVuSans-6e" transform="translate(299.072266 0)"/>
      <use xlink:href="#DejaVuSans-65" transform="translate(362.451172 0)"/>
      <use xlink:href="#DejaVuSans-20" transform="translate(423.974609 0)"/>
      <use xlink:href="#DejaVuSans-20" transform="translate(455.761719 0)"/>
      <use xlink:href="#DejaVuSans-28" transform="translate(487.548828 0)"/>
      <use xlink:href="#DejaVuSans-41" transform="translate(526.5625 0)"/>
      <use xlink:href="#DejaVuSans-55" transform="translate(594.970703 0)"/>
      <use xlink:href="#DejaVuSans-52" transform="translate(668.164062 0)"/>
      <use xlink:href="#DejaVuSans-4f" transform="translate(737.646484 0)"/>
      <use xlink:href="#DejaVuSans-43" transform="translate(816.357422 0)"/>
      <use xlink:href="#DejaVuSans-3d" transform="translate(886.181641 0)"/>
      <use xlink:href="#DejaVuSans-30" transform="translate(969.970703 0)"/>
      <use xlink:href="#DejaVuSans-2e" transform="translate(1033.59375 0)"/>
      <use xlink:href="#DejaVuSans-38" transform="translate(1065.380859 0)"/>
      <use xlink:href="#DejaVuSans-36" transform="translate(1129.003906 0)"/>
      <use xlink:href="#DejaVuSans-36" transform="translate(1192.626953 0)"/>
      <use xlink:href="#DejaVuSans-29" transform="translate(1256.25 0)"/>
     </g>
    </g>
    <g id="line2d_31">
     <path d="M 84.256131 178.403159 
L 91.456131 178.403159 
L 98.656131 178.403159 
" style="fill: none; stroke-dasharray: 10.24,2.56,1.6,2.56; stroke-dashoffset: 0; stroke: #4c9be8; stroke-width: 1.6"/>
    </g>
    <g id="text_17">
     <!-- Method-A  (AUROC=0.899) -->
     <g transform="translate(104.416131 180.923159) scale(0.072 -0.072)">
      <defs>
       <path id="DejaVuSans-4d" d="M 628 4666 
L 1569 4666 
L 2759 1491 
L 3956 4666 
L 4897 4666 
L 4897 0 
L 4281 0 
L 4281 4097 
L 3078 897 
L 2444 897 
L 1241 4097 
L 1241 0 
L 628 0 
L 628 4666 
z
" transform="scale(0.015625)"/>
       <path id="DejaVuSans-68" d="M 3513 2113 
L 3513 0 
L 2938 0 
L 2938 2094 
Q 2938 2591 2744 2837 
Q 2550 3084 2163 3084 
Q 1697 3084 1428 2787 
Q 1159 2491 1159 1978 
L 1159 0 
L 581 0 
L 581 4863 
L 1159 4863 
L 1159 2956 
Q 1366 3272 1645 3428 
Q 1925 3584 2291 3584 
Q 2894 3584 3203 3211 
Q 3513 2838 3513 2113 
z
" transform="scale(0.015625)"/>
       <path id="DejaVuSans-64" d="M 2906 2969 
L 2906 4863 
L 3481 4863 
L 3481 0 
L 2906 0 
L 2906 525 
Q 2725 213 2448 61 
Q 2172 -91 1784 -91 
Q 1150 -91 751 415 
Q 353 922 353 1747 
Q 353 2572 751 3078 
Q 1150 3584 1784 3584 
Q 2172 3584 2448 3432 
Q 2725 3281 2906 2969 
z
M 947 1747 
Q 947 1113 1208 752 
Q 1469 391 1925 391 
Q 2381 391 2643 752 
Q 2906 1113 2906 1747 
Q 2906 2381 2643 2742 
Q 2381 3103 1925 3103 
Q 1469 3103 1208 2742 
Q 947 2381 947 1747 
z
" transform="scale(0.015625)"/>
       <path id="DejaVuSans-2d" d="M 313 2009 
L 1997 2009 
L 1997 1497 
L 313 1497 
L 313 2009 
z
" transform="scale(0.015625)"/>
       <path id="DejaVuSans-39" d="M 703 97 
L 703 672 
Q 941 559 1184 500 
Q 1428 441 1663 441 
Q 2288 441 2617 861 
Q 2947 1281 2994 2138 
Q 2813 1869 2534 1725 
Q 2256 1581 1919 1581 
Q 1219 1581 811 2004 
Q 403 2428 403 3163 
Q 403 3881 828 4315 
Q 1253 4750 1959 4750 
Q 2769 4750 3195 4129 
Q 3622 3509 3622 2328 
Q 3622 1225 3098 567 
Q 2575 -91 1691 -91 
Q 1453 -91 1209 -44 
Q 966 3 703 97 
z
M 1959 2075 
Q 2384 2075 2632 2365 
Q 2881 2656 2881 3163 
Q 2881 3666 2632 3958 
Q 2384 4250 1959 4250 
Q 1534 4250 1286 3958 
Q 1038 3666 1038 3163 
Q 1038 2656 1286 2365 
Q 1534 2075 1959 2075 
z
" transform="scale(0.015625)"/>
      </defs>
      <use xlink:href="#DejaVuSans-4d"/>
      <use xlink:href="#DejaVuSans-65" transform="translate(86.279297 0)"/>
      <use xlink:href="#DejaVuSans-74" transform="translate(147.802734 0)"/>
      <use xlink:href="#DejaVuSans-68" transform="translate(187.011719 0)"/>
      <use xlink:href="#DejaVuSans-6f" transform="translate(250.390625 0)"/>
      <use xlink:href="#DejaVuSans-64" transform="translate(311.572266 0)"/>
      <use xlink:href="#DejaVuSans-2d" transform="translate(375.048828 0)"/>
      <use xlink:href="#DejaVuSans-41" transform="translate(408.882812 0)"/>
      <use xlink:href="#DejaVuSans-20" transform="translate(477.291016 0)"/>
      <use xlink:href="#DejaVuSans-20" transform="translate(509.078125 0)"/>
      <use xlink:href="#DejaVuSans-28" transform="translate(540.865234 0)"/>
      <use xlink:href="#DejaVuSans-41" transform="translate(579.878906 0)"/>
      <use xlink:href="#DejaVuSans-55" transform="translate(648.287109 0)"/>
      <use xlink:href="#DejaVuSans-52" transform="translate(721.480469 0)"/>
      <use xlink:href="#DejaVuSans-4f" transform="translate(790.962891 0)"/>
      <use xlink:href="#DejaVuSans-43" transform="translate(869.673828 0)"/>
      <use xlink:href="#DejaVuSans-3d" transform="translate(939.498047 0)"/>
      <use xlink:href="#DejaVuSans-30" transform="translate(1023.287109 0)"/>
      <use xlink:href="#DejaVuSans-2e" transform="translate(1086.910156 0)"/>
      <use xlink:href="#DejaVuSans-38" transform="translate(1118.697266 0)"/>
      <use xlink:href="#DejaVuSans-39" transform="translate(1182.320312 0)"/>
      <use xlink:href="#DejaVuSans-39" transform="translate(1245.943359 0)"/>
      <use xlink:href="#DejaVuSans-29" transform="translate(1309.566406 0)"/>
     </g>
    </g>
    <g id="line2d_32">
     <path d="M 84.256131 188.971409 
L 91.456131 188.971409 
L 98.656131 188.971409 
" style="fill: none; stroke-dasharray: 1.6,2.64; stroke-dashoffset: 0; stroke: #e87a4c; stroke-width: 1.6"/>
    </g>
    <g id="text_18">
     <!-- Method-B  (AUROC=0.961) -->
     <g transform="translate(104.416131 191.491409) scale(0.072 -0.072)">
      <use xlink:href="#DejaVuSans-4d"/>
      <use xlink:href="#DejaVuSans-65" transform="translate(86.279297 0)"/>
      <use xlink:href="#DejaVuSans-74" transform="translate(147.802734 0)"/>
      <use xlink:href="#DejaVuSans-68" transform="translate(187.011719 0)"/>
      <use xlink:href="#DejaVuSans-6f" transform="translate(250.390625 0)"/>
      <use xlink:href="#DejaVuSans-64" transform="translate(311.572266 0)"/>
      <use xlink:href="#DejaVuSans-2d" transform="translate(375.048828 0)"/>
      <use xlink:href="#DejaVuSans-42" transform="translate(407.507812 0)"/>
      <use xlink:href="#DejaVuSans-20" transform="translate(476.111328 0)"/>
      <use xlink:href="#DejaVuSans-20" transform="translate(507.898438 0)"/>
      <use xlink:href="#DejaVuSans-28" transform="translate(539.685547 0)"/>
      <use xlink:href="#DejaVuSans-41" transform="translate(578.699219 0)"/>
      <use xlink:href="#DejaVuSans-55" transform="translate(647.107422 0)"/>
      <use xlink:href="#DejaVuSans-52" transform="translate(720.300781 0)"/>
      <use xlink:href="#DejaVuSans-4f" transform="translate(789.783203 0)"/>
      <use xlink:href="#DejaVuSans-43" transform="translate(868.494141 0)"/>
      <use xlink:href="#DejaVuSans-3d" transform="translate(938.318359 0)"/>
      <use xlink:href="#DejaVuSans-30" transform="translate(1022.107422 0)"/>
      <use xlink:href="#DejaVuSans-2e" transform="translate(1085.730469 0)"/>
      <use xlink:href="#DejaVuSans-39" transform="translate(1117.517578 0)"/>
      <use xlink:href="#DejaVuSans-36" transform="translate(1181.140625 0)"/>
      <use xlink:href="#DejaVuSans-31" transform="translate(1244.763672 0)"/>
      <use xlink:href="#DejaVuSans-29" transform="translate(1308.386719 0)"/>
     </g>
    </g>
    <g id="line2d_33">
     <path d="M 84.256131 199.539659 
L 91.456131 199.539659 
L 98.656131 199.539659 
" style="fill: none; stroke: #2db37b; stroke-width: 2.2; stroke-linecap: square"/>
    </g>
    <g id="text_19">
     <!-- Ours  (AUROC=0.989) -->
     <g transform="translate(104.416131 202.059659) scale(0.072 -0.072)">
      <use xlink:href="#DejaVuSans-4f"/>
      <use xlink:href="#DejaVuSans-75" transform="translate(78.710938 0)"/>
      <use xlink:href="#DejaVuSans-72" transform="translate(142.089844 0)"/>
      <use xlink:href="#DejaVuSans-73" transform="translate(183.203125 0)"/>
      <use xlink:href="#DejaVuSans-20" transform="translate(235.302734 0)"/>
      <use xlink:href="#DejaVuSans-20" transform="translate(267.089844 0)"/>
      <use xlink:href="#DejaVuSans-28" transform="translate(298.876953 0)"/>
      <use xlink:href="#DejaVuSans-41" transform="translate(337.890625 0)"/>
      <use xlink:href="#DejaVuSans-55" transform="translate(406.298828 0)"/>
      <use xlink:href="#DejaVuSans-52" transform="translate(479.492188 0)"/>
      <use xlink:href="#DejaVuSans-4f" transform="translate(548.974609 0)"/>
      <use xlink:href="#DejaVuSans-43" transform="translate(627.685547 0)"/>
      <use xlink:href="#DejaVuSans-3d" transform="translate(697.509766 0)"/>
      <use xlink:href="#DejaVuSans-30" transform="translate(781.298828 0)"/>
      <use xlink:href="#DejaVuSans-2e" transform="translate(844.921875 0)"/>
      <use xlink:href="#DejaVuSans-39" transform="translate(876.708984 0)"/>
      <use xlink:href="#DejaVuSans-38" transform="translate(940.332031 0)"/>
      <use xlink:href="#DejaVuSans-39" transform="translate(1003.955078 0)"/>
      <use xlink:href="#DejaVuSans-29" transform="translate(1067.578125 0)"/>
     </g>
    </g>
   </g>
  </g>
  <g id="axes_2">
   <g id="patch_8">
    <path d="M 261.870744 210.037034 
L 430.232813 210.037034 
L 430.232813 41.674966 
L 261.870744 41.674966 
z
" style="fill: #ffffff"/>
   </g>
   <g id="line2d_34">
    <path d="M 261.870744 142.362085 
L 430.232813 142.362085 
" clip-path="url(#p0fc40ce587)" style="fill: none; stroke-dasharray: 3.33,1.44; stroke-dashoffset: 0; stroke: #bbbbbb; stroke-width: 0.9"/>
   </g>
   <g id="matplotlib.axis_3">
    <g id="xtick_7">
     <g id="line2d_35">
      <path d="M 263.521352 210.037034 
L 263.521352 41.674966 
" clip-path="url(#p0fc40ce587)" style="fill: none; stroke: #e0e0e0; stroke-width: 0.4; stroke-linecap: square"/>
     </g>
     <g id="line2d_36">
      <g>
       <use xlink:href="#mcff8b853bf" x="263.521352" y="210.037034" style="stroke: #000000; stroke-width: 0.8"/>
      </g>
     </g>
     <g id="text_20">
      <!-- 0.0 -->
      <g transform="translate(257.160102 223.115784) scale(0.08 -0.08)">
       <use xlink:href="#DejaVuSans-30"/>
       <use xlink:href="#DejaVuSans-2e" transform="translate(63.623047 0)"/>
       <use xlink:href="#DejaVuSans-30" transform="translate(95.410156 0)"/>
      </g>
     </g>
    </g>
    <g id="xtick_8">
     <g id="line2d_37">
      <path d="M 296.533522 210.037034 
L 296.533522 41.674966 
" clip-path="url(#p0fc40ce587)" style="fill: none; stroke: #e0e0e0; stroke-width: 0.4; stroke-linecap: square"/>
     </g>
     <g id="line2d_38">
      <g>
       <use xlink:href="#mcff8b853bf" x="296.533522" y="210.037034" style="stroke: #000000; stroke-width: 0.8"/>
      </g>
     </g>
     <g id="text_21">
      <!-- 0.2 -->
      <g transform="translate(290.172272 223.115784) scale(0.08 -0.08)">
       <use xlink:href="#DejaVuSans-30"/>
       <use xlink:href="#DejaVuSans-2e" transform="translate(63.623047 0)"/>
       <use xlink:href="#DejaVuSans-32" transform="translate(95.410156 0)"/>
      </g>
     </g>
    </g>
    <g id="xtick_9">
     <g id="line2d_39">
      <path d="M 329.545693 210.037034 
L 329.545693 41.674966 
" clip-path="url(#p0fc40ce587)" style="fill: none; stroke: #e0e0e0; stroke-width: 0.4; stroke-linecap: square"/>
     </g>
     <g id="line2d_40">
      <g>
       <use xlink:href="#mcff8b853bf" x="329.545693" y="210.037034" style="stroke: #000000; stroke-width: 0.8"/>
      </g>
     </g>
     <g id="text_22">
      <!-- 0.4 -->
      <g transform="translate(323.184443 223.115784) scale(0.08 -0.08)">
       <use xlink:href="#DejaVuSans-30"/>
       <use xlink:href="#DejaVuSans-2e" transform="translate(63.623047 0)"/>
       <use xlink:href="#DejaVuSans-34" transform="translate(95.410156 0)"/>
      </g>
     </g>
    </g>
    <g id="xtick_10">
     <g id="line2d_41">
      <path d="M 362.557863 210.037034 
L 362.557863 41.674966 
" clip-path="url(#p0fc40ce587)" style="fill: none; stroke: #e0e0e0; stroke-width: 0.4; stroke-linecap: square"/>
     </g>
     <g id="line2d_42">
      <g>
       <use xlink:href="#mcff8b853bf" x="362.557863" y="210.037034" style="stroke: #000000; stroke-width: 0.8"/>
      </g>
     </g>
     <g id="text_23">
      <!-- 0.6 -->
      <g transform="translate(356.196613 223.115784) scale(0.08 -0.08)">
       <use xlink:href="#DejaVuSans-30"/>
       <use xlink:href="#DejaVuSans-2e" transform="translate(63.623047 0)"/>
       <use xlink:href="#DejaVuSans-36" transform="translate(95.410156 0)"/>
      </g>
     </g>
    </g>
    <g id="xtick_11">
     <g id="line2d_43">
      <path d="M 395.570034 210.037034 
L 395.570034 41.674966 
" clip-path="url(#p0fc40ce587)" style="fill: none; stroke: #e0e0e0; stroke-width: 0.4; stroke-linecap: square"/>
     </g>
     <g id="line2d_44">
      <g>
       <use xlink:href="#mcff8b853bf" x="395.570034" y="210.037034" style="stroke: #000000; stroke-width: 0.8"/>
      </g>
     </g>
     <g id="text_24">
      <!-- 0.8 -->
      <g transform="translate(389.208784 223.115784) scale(0.08 -0.08)">
       <use xlink:href="#DejaVuSans-30"/>
       <use xlink:href="#DejaVuSans-2e" transform="translate(63.623047 0)"/>
       <use xlink:href="#DejaVuSans-38" transform="translate(95.410156 0)"/>
      </g>
     </g>
    </g>
    <g id="xtick_12">
     <g id="line2d_45">
      <path d="M 428.582204 210.037034 
L 428.582204 41.674966 
" clip-path="url(#p0fc40ce587)" style="fill: none; stroke: #e0e0e0; stroke-width: 0.4; stroke-linecap: square"/>
     </g>
     <g id="line2d_46">
      <g>
       <use xlink:href="#mcff8b853bf" x="428.582204" y="210.037034" style="stroke: #000000; stroke-width: 0.8"/>
      </g>
     </g>
     <g id="text_25">
      <!-- 1.0 -->
      <g transform="translate(422.220954 223.115784) scale(0.08 -0.08)">
       <use xlink:href="#DejaVuSans-31"/>
       <use xlink:href="#DejaVuSans-2e" transform="translate(63.623047 0)"/>
       <use xlink:href="#DejaVuSans-30" transform="translate(95.410156 0)"/>
      </g>
     </g>
    </g>
    <g id="text_26">
     <!-- Recall -->
     <g transform="translate(332.626309 235.618128) scale(0.09 -0.09)">
      <defs>
       <path id="DejaVuSans-63" d="M 3122 3366 
L 3122 2828 
Q 2878 2963 2633 3030 
Q 2388 3097 2138 3097 
Q 1578 3097 1268 2742 
Q 959 2388 959 1747 
Q 959 1106 1268 751 
Q 1578 397 2138 397 
Q 2388 397 2633 464 
Q 2878 531 3122 666 
L 3122 134 
Q 2881 22 2623 -34 
Q 2366 -91 2075 -91 
Q 1284 -91 818 406 
Q 353 903 353 1747 
Q 353 2603 823 3093 
Q 1294 3584 2113 3584 
Q 2378 3584 2631 3529 
Q 2884 3475 3122 3366 
z
" transform="scale(0.015625)"/>
      </defs>
      <use xlink:href="#DejaVuSans-52"/>
      <use xlink:href="#DejaVuSans-65" transform="translate(64.982422 0)"/>
      <use xlink:href="#DejaVuSans-63" transform="translate(126.505859 0)"/>
      <use xlink:href="#DejaVuSans-61" transform="translate(181.486328 0)"/>
      <use xlink:href="#DejaVuSans-6c" transform="translate(242.765625 0)"/>
      <use xlink:href="#DejaVuSans-6c" transform="translate(270.548828 0)"/>
     </g>
    </g>
   </g>
   <g id="matplotlib.axis_4">
    <g id="ytick_7">
     <g id="line2d_47">
      <path d="M 261.870744 208.386426 
L 430.232813 208.386426 
" clip-path="url(#p0fc40ce587)" style="fill: none; stroke: #e0e0e0; stroke-width: 0.4; stroke-linecap: square"/>
     </g>
     <g id="line2d_48">
      <g>
       <use xlink:href="#m73b5aecab5" x="261.870744" y="208.386426" style="stroke: #000000; stroke-width: 0.8"/>
      </g>
     </g>
     <g id="text_27">
      <!-- 0.0 -->
      <g transform="translate(242.148244 211.425801) scale(0.08 -0.08)">
       <use xlink:href="#DejaVuSans-30"/>
       <use xlink:href="#DejaVuSans-2e" transform="translate(63.623047 0)"/>
       <use xlink:href="#DejaVuSans-30" transform="translate(95.410156 0)"/>
      </g>
     </g>
    </g>
    <g id="ytick_8">
     <g id="line2d_49">
      <path d="M 261.870744 175.374256 
L 430.232813 175.374256 
" clip-path="url(#p0fc40ce587)" style="fill: none; stroke: #e0e0e0; stroke-width: 0.4; stroke-linecap: square"/>
     </g>
     <g id="line2d_50">
      <g>
       <use xlink:href="#m73b5aecab5" x="261.870744" y="175.374256" style="stroke: #000000; stroke-width: 0.8"/>
      </g>
     </g>
     <g id="text_28">
      <!-- 0.2 -->
      <g transform="translate(242.148244 178.413631) scale(0.08 -0.08)">
       <use xlink:href="#DejaVuSans-30"/>
       <use xlink:href="#DejaVuSans-2e" transform="translate(63.623047 0)"/>
       <use xlink:href="#DejaVuSans-32" transform="translate(95.410156 0)"/>
      </g>
     </g>
    </g>
    <g id="ytick_9">
     <g id="line2d_51">
      <path d="M 261.870744 142.362085 
L 430.232813 142.362085 
" clip-path="url(#p0fc40ce587)" style="fill: none; stroke: #e0e0e0; stroke-width: 0.4; stroke-linecap: square"/>
     </g>
     <g id="line2d_52">
      <g>
       <use xlink:href="#m73b5aecab5" x="261.870744" y="142.362085" style="stroke: #000000; stroke-width: 0.8"/>
      </g>
     </g>
     <g id="text_29">
      <!-- 0.4 -->
      <g transform="translate(242.148244 145.40146) scale(0.08 -0.08)">
       <use xlink:href="#DejaVuSans-30"/>
       <use xlink:href="#DejaVuSans-2e" transform="translate(63.623047 0)"/>
       <use xlink:href="#DejaVuSans-34" transform="translate(95.410156 0)"/>
      </g>
     </g>
    </g>
    <g id="ytick_10">
     <g id="line2d_53">
      <path d="M 261.870744 109.349915 
L 430.232813 109.349915 
" clip-path="url(#p0fc40ce587)" style="fill: none; stroke: #e0e0e0; stroke-width: 0.4; stroke-linecap: square"/>
     </g>
     <g id="line2d_54">
      <g>
       <use xlink:href="#m73b5aecab5" x="261.870744" y="109.349915" style="stroke: #000000; stroke-width: 0.8"/>
      </g>
     </g>
     <g id="text_30">
      <!-- 0.6 -->
      <g transform="translate(242.148244 112.38929) scale(0.08 -0.08)">
       <use xlink:href="#DejaVuSans-30"/>
       <use xlink:href="#DejaVuSans-2e" transform="translate(63.623047 0)"/>
       <use xlink:href="#DejaVuSans-36" transform="translate(95.410156 0)"/>
      </g>
     </g>
    </g>
    <g id="ytick_11">
     <g id="line2d_55">
      <path d="M 261.870744 76.337744 
L 430.232813 76.337744 
" clip-path="url(#p0fc40ce587)" style="fill: none; stroke: #e0e0e0; stroke-width: 0.4; stroke-linecap: square"/>
     </g>
     <g id="line2d_56">
      <g>
       <use xlink:href="#m73b5aecab5" x="261.870744" y="76.337744" style="stroke: #000000; stroke-width: 0.8"/>
      </g>
     </g>
     <g id="text_31">
      <!-- 0.8 -->
      <g transform="translate(242.148244 79.377119) scale(0.08 -0.08)">
       <use xlink:href="#DejaVuSans-30"/>
       <use xlink:href="#DejaVuSans-2e" transform="translate(63.623047 0)"/>
       <use xlink:href="#DejaVuSans-38" transform="translate(95.410156 0)"/>
      </g>
     </g>
    </g>
    <g id="ytick_12">
     <g id="line2d_57">
      <path d="M 261.870744 43.325574 
L 430.232813 43.325574 
" clip-path="url(#p0fc40ce587)" style="fill: none; stroke: #e0e0e0; stroke-width: 0.4; stroke-linecap: square"/>
     </g>
     <g id="line2d_58">
      <g>
       <use xlink:href="#m73b5aecab5" x="261.870744" y="43.325574" style="stroke: #000000; stroke-width: 0.8"/>
      </g>
     </g>
     <g id="text_32">
      <!-- 1.0 -->
      <g transform="translate(242.148244 46.364949) scale(0.08 -0.08)">
       <use xlink:href="#DejaVuSans-31"/>
       <use xlink:href="#DejaVuSans-2e" transform="translate(63.623047 0)"/>
       <use xlink:href="#DejaVuSans-30" transform="translate(95.410156 0)"/>
      </g>
     </g>
    </g>
    <g id="text_33">
     <!-- Precision -->
     <g transform="translate(236.276525 145.932328) rotate(-90) scale(0.09 -0.09)">
      <use xlink:href="#DejaVuSans-50"/>
      <use xlink:href="#DejaVuSans-72" transform="translate(58.552734 0)"/>
      <use xlink:href="#DejaVuSans-65" transform="translate(97.416016 0)"/>
      <use xlink:href="#DejaVuSans-63" transform="translate(158.939453 0)"/>
      <use xlink:href="#DejaVuSans-69" transform="translate(213.919922 0)"/>
      <use xlink:href="#DejaVuSans-73" transform="translate(241.703125 0)"/>
      <use xlink:href="#DejaVuSans-69" transform="translate(293.802734 0)"/>
      <use xlink:href="#DejaVuSans-6f" transform="translate(321.585938 0)"/>
      <use xlink:href="#DejaVuSans-6e" transform="translate(382.767578 0)"/>
     </g>
    </g>
   </g>
   <g id="patch_9">
    <path d="M 261.870744 210.037034 
L 261.870744 41.674966 
" style="fill: none; stroke: #000000; stroke-width: 0.8; stroke-linejoin: miter; stroke-linecap: square"/>
   </g>
   <g id="patch_10">
    <path d="M 430.232813 210.037034 
L 430.232813 41.674966 
" style="fill: none; stroke: #000000; stroke-width: 0.8; stroke-linejoin: miter; stroke-linecap: square"/>
   </g>
   <g id="patch_11">
    <path d="M 261.870744 210.037034 
L 430.232813 210.037034 
" style="fill: none; stroke: #000000; stroke-width: 0.8; stroke-linejoin: miter; stroke-linecap: square"/>
   </g>
   <g id="patch_12">
    <path d="M 261.870744 41.674966 
L 430.232813 41.674966 
" style="fill: none; stroke: #000000; stroke-width: 0.8; stroke-linejoin: miter; stroke-linecap: square"/>
   </g>
   <g id="line2d_59">
    <path d="M 428.582204 142.362085 
L 428.582204 133.641889 
L 427.206697 133.983996 
L 427.206697 129.81746 
L 425.83119 130.164817 
L 425.83119 125.856 
L 424.455683 126.207193 
L 424.455683 120.604064 
L 421.704668 121.313041 
L 421.704668 119.685501 
L 420.329161 120.043998 
L 420.329161 107.761094 
L 418.953654 108.107521 
L 418.953654 105.903589 
L 417.578147 106.249324 
L 417.578147 105.681896 
L 416.20264 106.030255 
L 416.20264 105.455221 
L 414.827133 105.806236 
L 414.827133 104.037612 
L 412.076119 104.743565 
L 412.076119 103.524238 
L 410.700612 103.880443 
L 409.325105 103.617262 
L 409.325105 102.986123 
L 406.57409 103.713691 
L 406.57409 102.421435 
L 405.198583 102.78849 
L 405.198583 102.128503 
L 403.823076 102.498332 
L 403.823076 99.060407 
L 402.447569 99.424687 
L 402.447569 97.245452 
L 401.072062 97.607331 
L 401.072062 96.858823 
L 399.696555 97.222995 
L 399.696555 95.689706 
L 398.321048 96.053346 
L 398.321048 95.2678 
L 395.570034 96.004569 
L 395.570034 94.387564 
L 394.194526 94.757579 
L 394.194526 93.086566 
L 391.443512 93.829268 
L 391.443512 92.967936 
L 388.692498 93.725834 
L 388.692498 87.253059 
L 383.19047 88.717308 
L 383.19047 86.689018 
L 379.063948 87.820238 
L 379.063948 85.686324 
L 377.688441 86.064545 
L 377.688441 83.84051 
L 376.312934 84.212207 
L 376.312934 80.697842 
L 373.56192 81.41654 
L 373.56192 80.183823 
L 370.810906 80.913689 
L 370.810906 79.638961 
L 366.684385 80.762056 
L 366.684385 78.075227 
L 362.557863 79.208368 
L 362.557863 76.337744 
L 361.182356 76.708668 
L 361.182356 73.681593 
L 354.304821 75.53257 
L 352.929314 75.930187 
L 352.929314 74.274484 
L 346.051778 76.337744 
L 346.051778 74.553303 
L 341.925257 75.872784 
L 341.925257 73.979732 
L 340.54975 74.423995 
L 340.54975 72.45396 
L 337.798735 73.336638 
L 337.798735 71.258949 
L 335.047721 72.145723 
L 335.047721 69.948292 
L 333.672214 70.38473 
L 333.672214 65.706707 
L 328.170186 67.334425 
L 328.170186 64.722351 
L 325.419172 65.545304 
L 325.419172 62.744498 
L 319.917143 64.397172 
L 319.917143 61.266971 
L 315.790622 62.518696 
L 315.790622 59.045655 
L 311.664101 60.254892 
L 307.537579 61.665669 
L 306.162072 62.189671 
L 306.162072 57.889767 
L 302.035551 59.299205 
L 300.660044 59.831659 
L 300.660044 54.709081 
L 296.533522 56.022563 
L 293.782508 57.080645 
L 291.031494 58.331106 
L 291.031494 51.185615 
L 288.28048 52.012987 
L 288.28048 43.325574 
L 263.521352 43.325574 
L 263.521352 43.325574 
" clip-path="url(#p0fc40ce587)" style="fill: none; stroke-dasharray: 4.44,1.92; stroke-dashoffset: 0; stroke: #9e9e9e; stroke-width: 1.2"/>
   </g>
   <g id="line2d_60">
    <path d="M 428.582204 142.362085 
L 428.582204 129.472871 
L 427.206697 129.81746 
L 427.206697 129.18384 
L 425.83119 129.531444 
L 425.83119 126.891947 
L 424.455683 127.243066 
L 424.455683 123.684147 
L 423.080176 124.038149 
L 423.080176 123.664927 
L 421.704668 124.021991 
L 421.704668 113.476436 
L 420.329161 113.828953 
L 420.329161 113.35139 
L 418.953654 113.706851 
L 418.953654 113.223792 
L 417.578147 113.582244 
L 417.578147 113.093563 
L 416.20264 113.455055 
L 416.20264 108.811673 
L 414.827133 109.16952 
L 414.827133 107.515905 
L 413.451626 107.874511 
L 413.451626 106.738783 
L 412.076119 107.099085 
L 412.076119 96.970351 
L 410.700612 97.307739 
L 410.700612 96.60471 
L 409.325105 96.944067 
L 409.325105 95.506101 
L 407.949597 95.844936 
L 407.949597 92.068376 
L 406.57409 92.397719 
L 406.57409 89.175811 
L 405.198583 89.496442 
L 405.198583 86.948799 
L 403.823076 87.262635 
L 403.823076 84.590787 
L 401.072062 85.206686 
L 401.072062 84.280522 
L 398.321048 84.905789 
L 398.321048 82.011711 
L 396.945541 82.316326 
L 396.945541 79.266243 
L 395.570034 79.558444 
L 395.570034 74.099631 
L 394.194526 74.362657 
L 394.194526 73.20728 
L 387.316991 74.553303 
L 387.316991 72.097649 
L 381.814963 73.193728 
L 381.814963 71.893798 
L 377.688441 72.74236 
L 377.688441 71.385919 
L 374.937427 71.958579 
L 374.937427 69.116332 
L 370.810906 69.948292 
L 370.810906 66.905696 
L 369.435399 67.167697 
L 369.435399 65.58097 
L 366.684385 66.092588 
L 366.684385 64.438009 
L 365.308877 64.68639 
L 365.308877 62.975675 
L 357.055835 64.487222 
L 354.304821 65.044107 
L 354.304821 61.16999 
L 347.427285 62.463064 
L 347.427285 55.830184 
L 341.925257 56.636933 
L 341.925257 54.149236 
L 339.174243 54.51614 
L 339.174243 51.863204 
L 330.9212 52.848315 
L 329.545693 53.035036 
L 329.545693 49.928008 
L 325.419172 50.34944 
L 325.419172 46.913853 
L 315.790622 47.557904 
L 313.039608 47.786678 
L 313.039608 43.325574 
L 263.521352 43.325574 
L 263.521352 43.325574 
" clip-path="url(#p0fc40ce587)" style="fill: none; stroke-dasharray: 10.24,2.56,1.6,2.56; stroke-dashoffset: 0; stroke: #4c9be8; stroke-width: 1.6"/>
   </g>
   <g id="line2d_61">
    <path d="M 428.582204 142.362085 
L 428.582204 117.527241 
L 427.206697 117.869185 
L 427.206697 113.496371 
L 425.83119 113.837006 
L 425.83119 107.468392 
L 424.455683 107.802469 
L 424.455683 106.743691 
L 423.080176 107.079236 
L 423.080176 100.210952 
L 421.704668 100.534165 
L 421.704668 91.932451 
L 420.329161 92.232493 
L 420.329161 89.291887 
L 418.953654 89.584666 
L 418.953654 82.360235 
L 417.578147 82.625777 
L 417.578147 76.337744 
L 416.20264 76.575242 
L 416.20264 74.650991 
L 414.827133 74.881325 
L 414.827133 66.537256 
L 412.076119 66.905696 
L 412.076119 64.623748 
L 410.700612 64.796904 
L 410.700612 62.423524 
L 407.949597 62.744498 
L 407.949597 60.254892 
L 405.198583 60.549315 
L 405.198583 59.252498 
L 403.823076 59.393445 
L 403.823076 56.708886 
L 399.696555 57.080645 
L 399.696555 54.225819 
L 396.945541 54.435439 
L 396.945541 52.940769 
L 385.941484 53.75047 
L 385.941484 50.424966 
L 377.688441 50.914579 
L 377.688441 49.083511 
L 368.059892 49.593708 
L 366.684385 47.612869 
L 358.431342 47.975175 
L 358.431342 45.683586 
L 350.178299 45.90465 
L 350.178299 43.325574 
L 263.521352 43.325574 
L 263.521352 43.325574 
" clip-path="url(#p0fc40ce587)" style="fill: none; stroke-dasharray: 1.6,2.64; stroke-dashoffset: 0; stroke: #e87a4c; stroke-width: 1.6"/>
   </g>
   <g id="line2d_62">
    <path d="M 428.582204 142.362085 
L 428.582204 78.926934 
L 427.206697 79.161154 
L 427.206697 74.765736 
L 425.83119 74.98108 
L 425.83119 71.223183 
L 424.455683 71.421038 
L 424.455683 70.442714 
L 423.080176 70.637801 
L 423.080176 64.423578 
L 421.704668 64.583411 
L 421.704668 62.371057 
L 420.329161 62.518696 
L 420.329161 61.379105 
L 418.953654 61.521259 
L 418.953654 54.238688 
L 413.451626 54.611786 
L 413.451626 53.286143 
L 409.325105 53.550583 
L 409.325105 50.760748 
L 407.949597 50.82834 
L 407.949597 49.382853 
L 405.198583 49.496073 
L 405.198583 44.912698 
L 377.688441 45.290584 
L 377.688441 43.325574 
L 263.521352 43.325574 
L 263.521352 43.325574 
" clip-path="url(#p0fc40ce587)" style="fill: none; stroke: #2db37b; stroke-width: 2.2; stroke-linecap: square"/>
   </g>
   <g id="text_34">
    <!-- Precision–Recall Curve -->
    <g transform="translate(282.573653 35.674966) scale(0.1 -0.1)">
     <defs>
      <path id="DejaVuSans-Bold-50" d="M 588 4666 
L 2584 4666 
Q 3475 4666 3951 4270 
Q 4428 3875 4428 3144 
Q 4428 2409 3951 2014 
Q 3475 1619 2584 1619 
L 1791 1619 
L 1791 0 
L 588 0 
L 588 4666 
z
M 1791 3794 
L 1791 2491 
L 2456 2491 
Q 2806 2491 2997 2661 
Q 3188 2831 3188 3144 
Q 3188 3456 2997 3625 
Q 2806 3794 2456 3794 
L 1791 3794 
z
" transform="scale(0.015625)"/>
      <path id="DejaVuSans-Bold-63" d="M 3366 3391 
L 3366 2478 
Q 3138 2634 2908 2709 
Q 2678 2784 2431 2784 
Q 1963 2784 1702 2511 
Q 1441 2238 1441 1747 
Q 1441 1256 1702 982 
Q 1963 709 2431 709 
Q 2694 709 2930 787 
Q 3166 866 3366 1019 
L 3366 103 
Q 3103 6 2833 -42 
Q 2563 -91 2291 -91 
Q 1344 -91 809 395 
Q 275 881 275 1747 
Q 275 2613 809 3098 
Q 1344 3584 2291 3584 
Q 2566 3584 2833 3536 
Q 3100 3488 3366 3391 
z
" transform="scale(0.015625)"/>
      <path id="DejaVuSans-Bold-69" d="M 538 3500 
L 1656 3500 
L 1656 0 
L 538 0 
L 538 3500 
z
M 538 4863 
L 1656 4863 
L 1656 3950 
L 538 3950 
L 538 4863 
z
" transform="scale(0.015625)"/>
      <path id="DejaVuSans-Bold-73" d="M 3272 3391 
L 3272 2541 
Q 2913 2691 2578 2766 
Q 2244 2841 1947 2841 
Q 1628 2841 1473 2761 
Q 1319 2681 1319 2516 
Q 1319 2381 1436 2309 
Q 1553 2238 1856 2203 
L 2053 2175 
Q 2913 2066 3209 1816 
Q 3506 1566 3506 1031 
Q 3506 472 3093 190 
Q 2681 -91 1863 -91 
Q 1516 -91 1145 -36 
Q 775 19 384 128 
L 384 978 
Q 719 816 1070 734 
Q 1422 653 1784 653 
Q 2113 653 2278 743 
Q 2444 834 2444 1013 
Q 2444 1163 2330 1236 
Q 2216 1309 1875 1350 
L 1678 1375 
Q 931 1469 631 1722 
Q 331 1975 331 2491 
Q 331 3047 712 3315 
Q 1094 3584 1881 3584 
Q 2191 3584 2531 3537 
Q 2872 3491 3272 3391 
z
" transform="scale(0.015625)"/>
      <path id="DejaVuSans-Bold-6f" d="M 2203 2784 
Q 1831 2784 1636 2517 
Q 1441 2250 1441 1747 
Q 1441 1244 1636 976 
Q 1831 709 2203 709 
Q 2569 709 2762 976 
Q 2956 1244 2956 1747 
Q 2956 2250 2762 2517 
Q 2569 2784 2203 2784 
z
M 2203 3584 
Q 3106 3584 3614 3096 
Q 4122 2609 4122 1747 
Q 4122 884 3614 396 
Q 3106 -91 2203 -91 
Q 1297 -91 786 396 
Q 275 884 275 1747 
Q 275 2609 786 3096 
Q 1297 3584 2203 3584 
z
" transform="scale(0.015625)"/>
      <path id="DejaVuSans-Bold-6e" d="M 4056 2131 
L 4056 0 
L 2931 0 
L 2931 347 
L 2931 1631 
Q 2931 2084 2911 2256 
Q 2891 2428 2841 2509 
Q 2775 2619 2662 2680 
Q 2550 2741 2406 2741 
Q 2056 2741 1856 2470 
Q 1656 2200 1656 1722 
L 1656 0 
L 538 0 
L 538 3500 
L 1656 3500 
L 1656 2988 
Q 1909 3294 2193 3439 
Q 2478 3584 2822 3584 
Q 3428 3584 3742 3212 
Q 4056 2841 4056 2131 
z
" transform="scale(0.015625)"/>
      <path id="DejaVuSans-Bold-2013" d="M 344 2156 
L 2856 2156 
L 2856 1350 
L 344 1350 
L 344 2156 
z
" transform="scale(0.015625)"/>
      <path id="DejaVuSans-Bold-61" d="M 2106 1575 
Q 1756 1575 1579 1456 
Q 1403 1338 1403 1106 
Q 1403 894 1545 773 
Q 1688 653 1941 653 
Q 2256 653 2472 879 
Q 2688 1106 2688 1447 
L 2688 1575 
L 2106 1575 
z
M 3816 1997 
L 3816 0 
L 2688 0 
L 2688 519 
Q 2463 200 2181 54 
Q 1900 -91 1497 -91 
Q 953 -91 614 226 
Q 275 544 275 1050 
Q 275 1666 698 1953 
Q 1122 2241 2028 2241 
L 2688 2241 
L 2688 2328 
Q 2688 2594 2478 2717 
Q 2269 2841 1825 2841 
Q 1466 2841 1156 2769 
Q 847 2697 581 2553 
L 581 3406 
Q 941 3494 1303 3539 
Q 1666 3584 2028 3584 
Q 2975 3584 3395 3211 
Q 3816 2838 3816 1997 
z
" transform="scale(0.015625)"/>
      <path id="DejaVuSans-Bold-6c" d="M 538 4863 
L 1656 4863 
L 1656 0 
L 538 0 
L 538 4863 
z
" transform="scale(0.015625)"/>
     </defs>
     <use xlink:href="#DejaVuSans-Bold-50"/>
     <use xlink:href="#DejaVuSans-Bold-72" transform="translate(73.291016 0)"/>
     <use xlink:href="#DejaVuSans-Bold-65" transform="translate(122.607422 0)"/>
     <use xlink:href="#DejaVuSans-Bold-63" transform="translate(190.429688 0)"/>
     <use xlink:href="#DejaVuSans-Bold-69" transform="translate(249.707031 0)"/>
     <use xlink:href="#DejaVuSans-Bold-73" transform="translate(283.984375 0)"/>
     <use xlink:href="#DejaVuSans-Bold-69" transform="translate(343.505859 0)"/>
     <use xlink:href="#DejaVuSans-Bold-6f" transform="translate(377.783203 0)"/>
     <use xlink:href="#DejaVuSans-Bold-6e" transform="translate(446.484375 0)"/>
     <use xlink:href="#DejaVuSans-Bold-2013" transform="translate(517.675781 0)"/>
     <use xlink:href="#DejaVuSans-Bold-52" transform="translate(567.675781 0)"/>
     <use xlink:href="#DejaVuSans-Bold-65" transform="translate(644.677734 0)"/>
     <use xlink:href="#DejaVuSans-Bold-63" transform="translate(712.5 0)"/>
     <use xlink:href="#DejaVuSans-Bold-61" transform="translate(771.777344 0)"/>
     <use xlink:href="#DejaVuSans-Bold-6c" transform="translate(839.257812 0)"/>
     <use xlink:href="#DejaVuSans-Bold-6c" transform="translate(873.535156 0)"/>
     <use xlink:href="#DejaVuSans-Bold-20" transform="translate(907.8125 0)"/>
     <use xlink:href="#DejaVuSans-Bold-43" transform="translate(942.626953 0)"/>
     <use xlink:href="#DejaVuSans-Bold-75" transform="translate(1016.015625 0)"/>
     <use xlink:href="#DejaVuSans-Bold-72" transform="translate(1087.207031 0)"/>
     <use xlink:href="#DejaVuSans-Bold-76" transform="translate(1136.523438 0)"/>
     <use xlink:href="#DejaVuSans-Bold-65" transform="translate(1201.708984 0)"/>
    </g>
   </g>
   <g id="legend_2">
    <g id="patch_13">
     <path d="M 321.680437 100.276216 
L 425.192813 100.276216 
Q 426.632812 100.276216 426.632812 98.836216 
L 426.632812 46.714966 
Q 426.632812 45.274966 425.192813 45.274966 
L 321.680437 45.274966 
Q 320.240437 45.274966 320.240437 46.714966 
L 320.240437 98.836216 
Q 320.240437 100.276216 321.680437 100.276216 
z
" style="fill: #ffffff; opacity: 0.85; stroke: #cccccc; stroke-linejoin: miter"/>
    </g>
    <g id="line2d_63">
     <path d="M 323.120437 51.105841 
L 330.320437 51.105841 
L 337.520437 51.105841 
" style="fill: none; stroke-dasharray: 4.44,1.92; stroke-dashoffset: 0; stroke: #9e9e9e; stroke-width: 1.2"/>
    </g>
    <g id="text_35">
     <!-- Baseline  (AP=0.811) -->
     <g transform="translate(343.280438 53.625841) scale(0.072 -0.072)">
      <use xlink:href="#DejaVuSans-42"/>
      <use xlink:href="#DejaVuSans-61" transform="translate(68.603516 0)"/>
      <use xlink:href="#DejaVuSans-73" transform="translate(129.882812 0)"/>
      <use xlink:href="#DejaVuSans-65" transform="translate(181.982422 0)"/>
      <use xlink:href="#DejaVuSans-6c" transform="translate(243.505859 0)"/>
      <use xlink:href="#DejaVuSans-69" transform="translate(271.289062 0)"/>
      <use xlink:href="#DejaVuSans-6e" transform="translate(299.072266 0)"/>
      <use xlink:href="#DejaVuSans-65" transform="translate(362.451172 0)"/>
      <use xlink:href="#DejaVuSans-20" transform="translate(423.974609 0)"/>
      <use xlink:href="#DejaVuSans-20" transform="translate(455.761719 0)"/>
      <use xlink:href="#DejaVuSans-28" transform="translate(487.548828 0)"/>
      <use xlink:href="#DejaVuSans-41" transform="translate(526.5625 0)"/>
      <use xlink:href="#DejaVuSans-50" transform="translate(594.970703 0)"/>
      <use xlink:href="#DejaVuSans-3d" transform="translate(655.273438 0)"/>
      <use xlink:href="#DejaVuSans-30" transform="translate(739.0625 0)"/>
      <use xlink:href="#DejaVuSans-2e" transform="translate(802.685547 0)"/>
      <use xlink:href="#DejaVuSans-38" transform="translate(834.472656 0)"/>
      <use xlink:href="#DejaVuSans-31" transform="translate(898.095703 0)"/>
      <use xlink:href="#DejaVuSans-31" transform="translate(961.71875 0)"/>
      <use xlink:href="#DejaVuSans-29" transform="translate(1025.341797 0)"/>
     </g>
    </g>
    <g id="line2d_64">
     <path d="M 323.120437 61.674091 
L 330.320437 61.674091 
L 337.520437 61.674091 
" style="fill: none; stroke-dasharray: 10.24,2.56,1.6,2.56; stroke-dashoffset: 0; stroke: #4c9be8; stroke-width: 1.6"/>
    </g>
    <g id="text_36">
     <!-- Method-A  (AP=0.875) -->
     <g transform="translate(343.280438 64.194091) scale(0.072 -0.072)">
      <defs>
       <path id="DejaVuSans-37" d="M 525 4666 
L 3525 4666 
L 3525 4397 
L 1831 0 
L 1172 0 
L 2766 4134 
L 525 4134 
L 525 4666 
z
" transform="scale(0.015625)"/>
       <path id="DejaVuSans-35" d="M 691 4666 
L 3169 4666 
L 3169 4134 
L 1269 4134 
L 1269 2991 
Q 1406 3038 1543 3061 
Q 1681 3084 1819 3084 
Q 2600 3084 3056 2656 
Q 3513 2228 3513 1497 
Q 3513 744 3044 326 
Q 2575 -91 1722 -91 
Q 1428 -91 1123 -41 
Q 819 9 494 109 
L 494 744 
Q 775 591 1075 516 
Q 1375 441 1709 441 
Q 2250 441 2565 725 
Q 2881 1009 2881 1497 
Q 2881 1984 2565 2268 
Q 2250 2553 1709 2553 
Q 1456 2553 1204 2497 
Q 953 2441 691 2322 
L 691 4666 
z
" transform="scale(0.015625)"/>
      </defs>
      <use xlink:href="#DejaVuSans-4d"/>
      <use xlink:href="#DejaVuSans-65" transform="translate(86.279297 0)"/>
      <use xlink:href="#DejaVuSans-74" transform="translate(147.802734 0)"/>
      <use xlink:href="#DejaVuSans-68" transform="translate(187.011719 0)"/>
      <use xlink:href="#DejaVuSans-6f" transform="translate(250.390625 0)"/>
      <use xlink:href="#DejaVuSans-64" transform="translate(311.572266 0)"/>
      <use xlink:href="#DejaVuSans-2d" transform="translate(375.048828 0)"/>
      <use xlink:href="#DejaVuSans-41" transform="translate(408.882812 0)"/>
      <use xlink:href="#DejaVuSans-20" transform="translate(477.291016 0)"/>
      <use xlink:href="#DejaVuSans-20" transform="translate(509.078125 0)"/>
      <use xlink:href="#DejaVuSans-28" transform="translate(540.865234 0)"/>
      <use xlink:href="#DejaVuSans-41" transform="translate(579.878906 0)"/>
      <use xlink:href="#DejaVuSans-50" transform="translate(648.287109 0)"/>
      <use xlink:href="#DejaVuSans-3d" transform="translate(708.589844 0)"/>
      <use xlink:href="#DejaVuSans-30" transform="translate(792.378906 0)"/>
      <use xlink:href="#DejaVuSans-2e" transform="translate(856.001953 0)"/>
      <use xlink:href="#DejaVuSans-38" transform="translate(887.789062 0)"/>
      <use xlink:href="#DejaVuSans-37" transform="translate(951.412109 0)"/>
      <use xlink:href="#DejaVuSans-35" transform="translate(1015.035156 0)"/>
      <use xlink:href="#DejaVuSans-29" transform="translate(1078.658203 0)"/>
     </g>
    </g>
    <g id="line2d_65">
     <path d="M 323.120437 72.242341 
L 330.320437 72.242341 
L 337.520437 72.242341 
" style="fill: none; stroke-dasharray: 1.6,2.64; stroke-dashoffset: 0; stroke: #e87a4c; stroke-width: 1.6"/>
    </g>
    <g id="text_37">
     <!-- Method-B  (AP=0.952) -->
     <g transform="translate(343.280438 74.762341) scale(0.072 -0.072)">
      <use xlink:href="#DejaVuSans-4d"/>
      <use xlink:href="#DejaVuSans-65" transform="translate(86.279297 0)"/>
      <use xlink:href="#DejaVuSans-74" transform="translate(147.802734 0)"/>
      <use xlink:href="#DejaVuSans-68" transform="translate(187.011719 0)"/>
      <use xlink:href="#DejaVuSans-6f" transform="translate(250.390625 0)"/>
      <use xlink:href="#DejaVuSans-64" transform="translate(311.572266 0)"/>
      <use xlink:href="#DejaVuSans-2d" transform="translate(375.048828 0)"/>
      <use xlink:href="#DejaVuSans-42" transform="translate(407.507812 0)"/>
      <use xlink:href="#DejaVuSans-20" transform="translate(476.111328 0)"/>
      <use xlink:href="#DejaVuSans-20" transform="translate(507.898438 0)"/>
      <use xlink:href="#DejaVuSans-28" transform="translate(539.685547 0)"/>
      <use xlink:href="#DejaVuSans-41" transform="translate(578.699219 0)"/>
      <use xlink:href="#DejaVuSans-50" transform="translate(647.107422 0)"/>
      <use xlink:href="#DejaVuSans-3d" transform="translate(707.410156 0)"/>
      <use xlink:href="#DejaVuSans-30" transform="translate(791.199219 0)"/>
      <use xlink:href="#DejaVuSans-2e" transform="translate(854.822266 0)"/>
      <use xlink:href="#DejaVuSans-39" transform="translate(886.609375 0)"/>
      <use xlink:href="#DejaVuSans-35" transform="translate(950.232422 0)"/>
      <use xlink:href="#DejaVuSans-32" transform="translate(1013.855469 0)"/>
      <use xlink:href="#DejaVuSans-29" transform="translate(1077.478516 0)"/>
     </g>
    </g>
    <g id="line2d_66">
     <path d="M 323.120437 82.810591 
L 330.320437 82.810591 
L 337.520437 82.810591 
" style="fill: none; stroke: #2db37b; stroke-width: 2.2; stroke-linecap: square"/>
    </g>
    <g id="text_38">
     <!-- Ours  (AP=0.984) -->
     <g transform="translate(343.280438 85.330591) scale(0.072 -0.072)">
      <use xlink:href="#DejaVuSans-4f"/>
      <use xlink:href="#DejaVuSans-75" transform="translate(78.710938 0)"/>
      <use xlink:href="#DejaVuSans-72" transform="translate(142.089844 0)"/>
      <use xlink:href="#DejaVuSans-73" transform="translate(183.203125 0)"/>
      <use xlink:href="#DejaVuSans-20" transform="translate(235.302734 0)"/>
      <use xlink:href="#DejaVuSans-20" transform="translate(267.089844 0)"/>
      <use xlink:href="#DejaVuSans-28" transform="translate(298.876953 0)"/>
      <use xlink:href="#DejaVuSans-41" transform="translate(337.890625 0)"/>
      <use xlink:href="#DejaVuSans-50" transform="translate(406.298828 0)"/>
      <use xlink:href="#DejaVuSans-3d" transform="translate(466.601562 0)"/>
      <use xlink:href="#DejaVuSans-30" transform="translate(550.390625 0)"/>
      <use xlink:href="#DejaVuSans-2e" transform="translate(614.013672 0)"/>
      <use xlink:href="#DejaVuSans-39" transform="translate(645.800781 0)"/>
      <use xlink:href="#DejaVuSans-38" transform="translate(709.423828 0)"/>
      <use xlink:href="#DejaVuSans-34" transform="translate(773.046875 0)"/>
      <use xlink:href="#DejaVuSans-29" transform="translate(836.669922 0)"/>
     </g>
    </g>
    <g id="line2d_67">
     <path d="M 323.120437 93.378841 
L 330.320437 93.378841 
L 337.520437 93.378841 
" style="fill: none; stroke-dasharray: 3.33,1.44; stroke-dashoffset: 0; stroke: #bbbbbb; stroke-width: 0.9"/>
    </g>
    <g id="text_39">
     <!-- Prevalence (0.40) -->
     <g transform="translate(343.280438 95.898841) scale(0.072 -0.072)">
      <use xlink:href="#DejaVuSans-50"/>
      <use xlink:href="#DejaVuSans-72" transform="translate(58.552734 0)"/>
      <use xlink:href="#DejaVuSans-65" transform="translate(97.416016 0)"/>
      <use xlink:href="#DejaVuSans-76" transform="translate(158.939453 0)"/>
      <use xlink:href="#DejaVuSans-61" transform="translate(218.119141 0)"/>
      <use xlink:href="#DejaVuSans-6c" transform="translate(279.398438 0)"/>
      <use xlink:href="#DejaVuSans-65" transform="translate(307.181641 0)"/>
      <use xlink:href="#DejaVuSans-6e" transform="translate(368.705078 0)"/>
      <use xlink:href="#DejaVuSans-63" transform="translate(432.083984 0)"/>
      <use xlink:href="#DejaVuSans-65" transform="translate(487.064453 0)"/>
      <use xlink:href="#DejaVuSans-20" transform="translate(548.587891 0)"/>
      <use xlink:href="#DejaVuSans-28" transform="translate(580.375 0)"/>
      <use xlink:href="#DejaVuSans-30" transform="translate(619.388672 0)"/>
      <use xlink:href="#DejaVuSans-2e" transform="translate(683.011719 0)"/>
      <use xlink:href="#DejaVuSans-34" transform="translate(714.798828 0)"/>
      <use xlink:href="#DejaVuSans-30" transform="translate(778.421875 0)"/>
      <use xlink:href="#DejaVuSans-29" transform="translate(842.044922 0)"/>
     </g>
    </g>
   </g>
  </g>
  <g id="text_40">
   <!-- Classifier Comparison: ROC and Precision–Recall Curves -->
   <g transform="translate(63.482578 15.178359) scale(0.105 -0.105)">
    <defs>
     <path id="DejaVuSans-Bold-66" d="M 2841 4863 
L 2841 4128 
L 2222 4128 
Q 1984 4128 1890 4042 
Q 1797 3956 1797 3744 
L 1797 3500 
L 2753 3500 
L 2753 2700 
L 1797 2700 
L 1797 0 
L 678 0 
L 678 2700 
L 122 2700 
L 122 3500 
L 678 3500 
L 678 3744 
Q 678 4316 997 4589 
Q 1316 4863 1984 4863 
L 2841 4863 
z
" transform="scale(0.015625)"/>
     <path id="DejaVuSans-Bold-6d" d="M 3781 2919 
Q 3994 3244 4286 3414 
Q 4578 3584 4928 3584 
Q 5531 3584 5847 3212 
Q 6163 2841 6163 2131 
L 6163 0 
L 5038 0 
L 5038 1825 
Q 5041 1866 5042 1909 
Q 5044 1953 5044 2034 
Q 5044 2406 4934 2573 
Q 4825 2741 4581 2741 
Q 4263 2741 4089 2478 
Q 3916 2216 3909 1719 
L 3909 0 
L 2784 0 
L 2784 1825 
Q 2784 2406 2684 2573 
Q 2584 2741 2328 2741 
Q 2006 2741 1831 2477 
Q 1656 2213 1656 1722 
L 1656 0 
L 531 0 
L 531 3500 
L 1656 3500 
L 1656 2988 
Q 1863 3284 2130 3434 
Q 2397 3584 2719 3584 
Q 3081 3584 3359 3409 
Q 3638 3234 3781 2919 
z
" transform="scale(0.015625)"/>
     <path id="DejaVuSans-Bold-70" d="M 1656 506 
L 1656 -1331 
L 538 -1331 
L 538 3500 
L 1656 3500 
L 1656 2988 
Q 1888 3294 2169 3439 
Q 2450 3584 2816 3584 
Q 3463 3584 3878 3070 
Q 4294 2556 4294 1747 
Q 4294 938 3878 423 
Q 3463 -91 2816 -91 
Q 2450 -91 2169 54 
Q 1888 200 1656 506 
z
M 2400 2772 
Q 2041 2772 1848 2508 
Q 1656 2244 1656 1747 
Q 1656 1250 1848 986 
Q 2041 722 2400 722 
Q 2759 722 2948 984 
Q 3138 1247 3138 1747 
Q 3138 2247 2948 2509 
Q 2759 2772 2400 2772 
z
" transform="scale(0.015625)"/>
     <path id="DejaVuSans-Bold-3a" d="M 716 3500 
L 1844 3500 
L 1844 2291 
L 716 2291 
L 716 3500 
z
M 716 1209 
L 1844 1209 
L 1844 0 
L 716 0 
L 716 1209 
z
" transform="scale(0.015625)"/>
     <path id="DejaVuSans-Bold-64" d="M 2919 2988 
L 2919 4863 
L 4044 4863 
L 4044 0 
L 2919 0 
L 2919 506 
Q 2688 197 2409 53 
Q 2131 -91 1766 -91 
Q 1119 -91 703 423 
Q 288 938 288 1747 
Q 288 2556 703 3070 
Q 1119 3584 1766 3584 
Q 2128 3584 2408 3439 
Q 2688 3294 2919 2988 
z
M 2181 722 
Q 2541 722 2730 984 
Q 2919 1247 2919 1747 
Q 2919 2247 2730 2509 
Q 2541 2772 2181 2772 
Q 1825 2772 1636 2509 
Q 1447 2247 1447 1747 
Q 1447 1247 1636 984 
Q 1825 722 2181 722 
z
" transform="scale(0.015625)"/>
    </defs>
    <use xlink:href="#DejaVuSans-Bold-43"/>
    <use xlink:href="#DejaVuSans-Bold-6c" transform="translate(73.388672 0)"/>
    <use xlink:href="#DejaVuSans-Bold-61" transform="translate(107.666016 0)"/>
    <use xlink:href="#DejaVuSans-Bold-73" transform="translate(175.146484 0)"/>
    <use xlink:href="#DejaVuSans-Bold-73" transform="translate(234.667969 0)"/>
    <use xlink:href="#DejaVuSans-Bold-69" transform="translate(294.189453 0)"/>
    <use xlink:href="#DejaVuSans-Bold-66" transform="translate(328.466797 0)"/>
    <use xlink:href="#DejaVuSans-Bold-69" transform="translate(371.972656 0)"/>
    <use xlink:href="#DejaVuSans-Bold-65" transform="translate(406.25 0)"/>
    <use xlink:href="#DejaVuSans-Bold-72" transform="translate(474.072266 0)"/>
    <use xlink:href="#DejaVuSans-Bold-20" transform="translate(523.388672 0)"/>
    <use xlink:href="#DejaVuSans-Bold-43" transform="translate(558.203125 0)"/>
    <use xlink:href="#DejaVuSans-Bold-6f" transform="translate(631.591797 0)"/>
    <use xlink:href="#DejaVuSans-Bold-6d" transform="translate(700.292969 0)"/>
    <use xlink:href="#DejaVuSans-Bold-70" transform="translate(804.492188 0)"/>
    <use xlink:href="#DejaVuSans-Bold-61" transform="translate(876.074219 0)"/>
    <use xlink:href="#DejaVuSans-Bold-72" transform="translate(943.554688 0)"/>
    <use xlink:href="#DejaVuSans-Bold-69" transform="translate(992.871094 0)"/>
    <use xlink:href="#DejaVuSans-Bold-73" transform="translate(1027.148438 0)"/>
    <use xlink:href="#DejaVuSans-Bold-6f" transform="translate(1086.669922 0)"/>
    <use xlink:href="#DejaVuSans-Bold-6e" transform="translate(1155.371094 0)"/>
    <use xlink:href="#DejaVuSans-Bold-3a" transform="translate(1226.5625 0)"/>
    <use xlink:href="#DejaVuSans-Bold-20" transform="translate(1266.552734 0)"/>
    <use xlink:href="#DejaVuSans-Bold-52" transform="translate(1301.367188 0)"/>
    <use xlink:href="#DejaVuSans-Bold-4f" transform="translate(1378.369141 0)"/>
    <use xlink:href="#DejaVuSans-Bold-43" transform="translate(1463.378906 0)"/>
    <use xlink:href="#DejaVuSans-Bold-20" transform="translate(1536.767578 0)"/>
    <use xlink:href="#DejaVuSans-Bold-61" transform="translate(1571.582031 0)"/>
    <use xlink:href="#DejaVuSans-Bold-6e" transform="translate(1639.0625 0)"/>
    <use xlink:href="#DejaVuSans-Bold-64" transform="translate(1710.253906 0)"/>
    <use xlink:href="#DejaVuSans-Bold-20" transform="translate(1781.835938 0)"/>
    <use xlink:href="#DejaVuSans-Bold-50" transform="translate(1816.650391 0)"/>
    <use xlink:href="#DejaVuSans-Bold-72" transform="translate(1889.941406 0)"/>
    <use xlink:href="#DejaVuSans-Bold-65" transform="translate(1939.257812 0)"/>
    <use xlink:href="#DejaVuSans-Bold-63" transform="translate(2007.080078 0)"/>
    <use xlink:href="#DejaVuSans-Bold-69" transform="translate(2066.357422 0)"/>
    <use xlink:href="#DejaVuSans-Bold-73" transform="translate(2100.634766 0)"/>
    <use xlink:href="#DejaVuSans-Bold-69" transform="translate(2160.15625 0)"/>
    <use xlink:href="#DejaVuSans-Bold-6f" transform="translate(2194.433594 0)"/>
    <use xlink:href="#DejaVuSans-Bold-6e" transform="translate(2263.134766 0)"/>
    <use xlink:href="#DejaVuSans-Bold-2013" transform="translate(2334.326172 0)"/>
    <use xlink:href="#DejaVuSans-Bold-52" transform="translate(2384.326172 0)"/>
    <use xlink:href="#DejaVuSans-Bold-65" transform="translate(2461.328125 0)"/>
    <use xlink:href="#DejaVuSans-Bold-63" transform="translate(2529.150391 0)"/>
    <use xlink:href="#DejaVuSans-Bold-61" transform="translate(2588.427734 0)"/>
    <use xlink:href="#DejaVuSans-Bold-6c" transform="translate(2655.908203 0)"/>
    <use xlink:href="#DejaVuSans-Bold-6c" transform="translate(2690.185547 0)"/>
    <use xlink:href="#DejaVuSans-Bold-20" transform="translate(2724.462891 0)"/>
    <use xlink:href="#DejaVuSans-Bold-43" transform="translate(2759.277344 0)"/>
    <use xlink:href="#DejaVuSans-Bold-75" transform="translate(2832.666016 0)"/>
    <use xlink:href="#DejaVuSans-Bold-72" transform="translate(2903.857422 0)"/>
    <use xlink:href="#DejaVuSans-Bold-76" transform="translate(2953.173828 0)"/>
    <use xlink:href="#DejaVuSans-Bold-65" transform="translate(3018.359375 0)"/>
    <use xlink:href="#DejaVuSans-Bold-73" transform="translate(3086.181641 0)"/>
   </g>
  </g>
 </g>
 <defs>
  <clipPath id="p3610bd47b6">
   <rect x="39.632812" y="41.674966" width="168.362069" height="168.362069"/>
  </clipPath>
  <clipPath id="p0fc40ce587">
   <rect x="261.870744" y="41.674966" width="168.362069" height="168.362069"/>
  </clipPath>
 </defs>
</svg>
