<?xml version="1.0" encoding="utf-8" standalone="no"?>
<!DOCTYPE svg PUBLIC "-//W3C//DTD SVG 1.1//EN"
  "http://www.w3.org/Graphics/SVG/1.1/DTD/svg11.dtd">
<svg xmlns:xlink="http://www.w3.org/1999/xlink" width="557.401274pt" height="262.234375pt" viewBox="0 0 557.401274 262.234375" xmlns="http://www.w3.org/2000/svg" version="1.1">
 <metadata>
  <rdf:RDF xmlns:dc="http://purl.org/dc/elements/1.1/" xmlns:cc="http://creativecommons.org/ns#" xmlns:rdf="http://www.w3.org/1999/02/22-rdf-syntax-ns#">
   <cc:Work>
    <dc:type rdf:resource="http://purl.org/dc/dcmitype/StillImage"/>
    <dc:date>2026-05-25T00:31:44.168419</dc:date>
    <dc:format>image/svg+xml</dc:format>
    <dc:creator>
     <cc:Agent>
      <dc:title>Matplotlib v3.10.9, https://matplotlib.org/</dc:title>
     </cc:Agent>
    </dc:creator>
   </cc:Work>
  </rdf:RDF>
 </metadata>
 <defs>
  <style type="text/css">*{stroke-linejoin: round; stroke-linecap: butt}</style>
 </defs>
 <g id="figure_1">
  <g id="patch_1">
   <path d="M 0 262.234375 
L 557.401274 262.234375 
L 557.401274 0 
L 0 0 
z
" style="fill: #ffffff"/>
  </g>
  <g id="axes_1">
   <g id="patch_2">
    <path d="M 43.78125 224.678125 
L 246.14125 224.678125 
L 246.14125 22.318125 
L 43.78125 22.318125 
z
" style="fill: #ffffff"/>
   </g>
   <g id="matplotlib.axis_1">
    <g id="xtick_1">
     <g id="line2d_1">
      <path d="M 47.672788 224.678125 
L 47.672788 22.318125 
" clip-path="url(#p28075eb5b6)" style="fill: none; stroke: #b0b0b0; stroke-opacity: 0.4; stroke-width: 0.4; stroke-linecap: square"/>
     </g>
     <g id="line2d_2">
      <defs>
       <path id="mf680f17917" d="M 0 0 
L 0 3.5 
" style="stroke: #000000; stroke-width: 0.8"/>
      </defs>
      <g>
       <use xlink:href="#mf680f17917" x="47.672788" y="224.678125" style="stroke: #000000; stroke-width: 0.8"/>
      </g>
     </g>
     <g id="text_1">
      <!-- 0.0 -->
      <g transform="translate(39.721226 239.276563) scale(0.1 -0.1)">
       <defs>
        <path id="DejaVuSans-30" d="M 2034 4250 
Q 1547 4250 1301 3770 
Q 1056 3291 1056 2328 
Q 1056 1369 1301 889 
Q 1547 409 2034 409 
Q 2525 409 2770 889 
Q 3016 1369 3016 2328 
Q 3016 3291 2770 3770 
Q 2525 4250 2034 4250 
z
M 2034 4750 
Q 2819 4750 3233 4129 
Q 3647 3509 3647 2328 
Q 3647 1150 3233 529 
Q 2819 -91 2034 -91 
Q 1250 -91 836 529 
Q 422 1150 422 2328 
Q 422 3509 836 4129 
Q 1250 4750 2034 4750 
z
" transform="scale(0.015625)"/>
        <path id="DejaVuSans-2e" d="M 684 794 
L 1344 794 
L 1344 0 
L 684 0 
L 684 794 
z
" transform="scale(0.015625)"/>
       </defs>
       <use xlink:href="#DejaVuSans-30"/>
       <use xlink:href="#DejaVuSans-2e" transform="translate(63.623047 0)"/>
       <use xlink:href="#DejaVuSans-30" transform="translate(95.410156 0)"/>
      </g>
     </g>
    </g>
    <g id="xtick_2">
     <g id="line2d_3">
      <path d="M 86.588173 224.678125 
L 86.588173 22.318125 
" clip-path="url(#p28075eb5b6)" style="fill: none; stroke: #b0b0b0; stroke-opacity: 0.4; stroke-width: 0.4; stroke-linecap: square"/>
     </g>
     <g id="line2d_4">
      <g>
       <use xlink:href="#mf680f17917" x="86.588173" y="224.678125" style="stroke: #000000; stroke-width: 0.8"/>
      </g>
     </g>
     <g id="text_2">
      <!-- 0.2 -->
      <g transform="translate(78.636611 239.276563) scale(0.1 -0.1)">
       <defs>
        <path id="DejaVuSans-32" d="M 1228 531 
L 3431 531 
L 3431 0 
L 469 0 
L 469 531 
Q 828 903 1448 1529 
Q 2069 2156 2228 2338 
Q 2531 2678 2651 2914 
Q 2772 3150 2772 3378 
Q 2772 3750 2511 3984 
Q 2250 4219 1831 4219 
Q 1534 4219 1204 4116 
Q 875 4013 500 3803 
L 500 4441 
Q 881 4594 1212 4672 
Q 1544 4750 1819 4750 
Q 2544 4750 2975 4387 
Q 3406 4025 3406 3419 
Q 3406 3131 3298 2873 
Q 3191 2616 2906 2266 
Q 2828 2175 2409 1742 
Q 1991 1309 1228 531 
z
" transform="scale(0.015625)"/>
       </defs>
       <use xlink:href="#DejaVuSans-30"/>
       <use xlink:href="#DejaVuSans-2e" transform="translate(63.623047 0)"/>
       <use xlink:href="#DejaVuSans-32" transform="translate(95.410156 0)"/>
      </g>
     </g>
    </g>
    <g id="xtick_3">
     <g id="line2d_5">
      <path d="M 125.503558 224.678125 
L 125.503558 22.318125 
" clip-path="url(#p28075eb5b6)" style="fill: none; stroke: #b0b0b0; stroke-opacity: 0.4; stroke-width: 0.4; stroke-linecap: square"/>
     </g>
     <g id="line2d_6">
      <g>
       <use xlink:href="#mf680f17917" x="125.503558" y="224.678125" style="stroke: #000000; stroke-width: 0.8"/>
      </g>
     </g>
     <g id="text_3">
      <!-- 0.4 -->
      <g transform="translate(117.551995 239.276563) scale(0.1 -0.1)">
       <defs>
        <path id="DejaVuSans-34" d="M 2419 4116 
L 825 1625 
L 2419 1625 
L 2419 4116 
z
M 2253 4666 
L 3047 4666 
L 3047 1625 
L 3713 1625 
L 3713 1100 
L 3047 1100 
L 3047 0 
L 2419 0 
L 2419 1100 
L 313 1100 
L 313 1709 
L 2253 4666 
z
" transform="scale(0.015625)"/>
       </defs>
       <use xlink:href="#DejaVuSans-30"/>
       <use xlink:href="#DejaVuSans-2e" transform="translate(63.623047 0)"/>
       <use xlink:href="#DejaVuSans-34" transform="translate(95.410156 0)"/>
      </g>
     </g>
    </g>
    <g id="xtick_4">
     <g id="line2d_7">
      <path d="M 164.418942 224.678125 
L 164.418942 22.318125 
" clip-path="url(#p28075eb5b6)" style="fill: none; stroke: #b0b0b0; stroke-opacity: 0.4; stroke-width: 0.4; stroke-linecap: square"/>
     </g>
     <g id="line2d_8">
      <g>
       <use xlink:href="#mf680f17917" x="164.418942" y="224.678125" style="stroke: #000000; stroke-width: 0.8"/>
      </g>
     </g>
     <g id="text_4">
      <!-- 0.6 -->
      <g transform="translate(156.46738 239.276563) scale(0.1 -0.1)">
       <defs>
        <path id="DejaVuSans-36" d="M 2113 2584 
Q 1688 2584 1439 2293 
Q 1191 2003 1191 1497 
Q 1191 994 1439 701 
Q 1688 409 2113 409 
Q 2538 409 2786 701 
Q 3034 994 3034 1497 
Q 3034 2003 2786 2293 
Q 2538 2584 2113 2584 
z
M 3366 4563 
L 3366 3988 
Q 3128 4100 2886 4159 
Q 2644 4219 2406 4219 
Q 1781 4219 1451 3797 
Q 1122 3375 1075 2522 
Q 1259 2794 1537 2939 
Q 1816 3084 2150 3084 
Q 2853 3084 3261 2657 
Q 3669 2231 3669 1497 
Q 3669 778 3244 343 
Q 2819 -91 2113 -91 
Q 1303 -91 875 529 
Q 447 1150 447 2328 
Q 447 3434 972 4092 
Q 1497 4750 2381 4750 
Q 2619 4750 2861 4703 
Q 3103 4656 3366 4563 
z
" transform="scale(0.015625)"/>
       </defs>
       <use xlink:href="#DejaVuSans-30"/>
       <use xlink:href="#DejaVuSans-2e" transform="translate(63.623047 0)"/>
       <use xlink:href="#DejaVuSans-36" transform="translate(95.410156 0)"/>
      </g>
     </g>
    </g>
    <g id="xtick_5">
     <g id="line2d_9">
      <path d="M 203.334327 224.678125 
L 203.334327 22.318125 
" clip-path="url(#p28075eb5b6)" style="fill: none; stroke: #b0b0b0; stroke-opacity: 0.4; stroke-width: 0.4; stroke-linecap: square"/>
     </g>
     <g id="line2d_10">
      <g>
       <use xlink:href="#mf680f17917" x="203.334327" y="224.678125" style="stroke: #000000; stroke-width: 0.8"/>
      </g>
     </g>
     <g id="text_5">
      <!-- 0.8 -->
      <g transform="translate(195.382764 239.276563) scale(0.1 -0.1)">
       <defs>
        <path id="DejaVuSans-38" d="M 2034 2216 
Q 1584 2216 1326 1975 
Q 1069 1734 1069 1313 
Q 1069 891 1326 650 
Q 1584 409 2034 409 
Q 2484 409 2743 651 
Q 3003 894 3003 1313 
Q 3003 1734 2745 1975 
Q 2488 2216 2034 2216 
z
M 1403 2484 
Q 997 2584 770 2862 
Q 544 3141 544 3541 
Q 544 4100 942 4425 
Q 1341 4750 2034 4750 
Q 2731 4750 3128 4425 
Q 3525 4100 3525 3541 
Q 3525 3141 3298 2862 
Q 3072 2584 2669 2484 
Q 3125 2378 3379 2068 
Q 3634 1759 3634 1313 
Q 3634 634 3220 271 
Q 2806 -91 2034 -91 
Q 1263 -91 848 271 
Q 434 634 434 1313 
Q 434 1759 690 2068 
Q 947 2378 1403 2484 
z
M 1172 3481 
Q 1172 3119 1398 2916 
Q 1625 2713 2034 2713 
Q 2441 2713 2670 2916 
Q 2900 3119 2900 3481 
Q 2900 3844 2670 4047 
Q 2441 4250 2034 4250 
Q 1625 4250 1398 4047 
Q 1172 3844 1172 3481 
z
" transform="scale(0.015625)"/>
       </defs>
       <use xlink:href="#DejaVuSans-30"/>
       <use xlink:href="#DejaVuSans-2e" transform="translate(63.623047 0)"/>
       <use xlink:href="#DejaVuSans-38" transform="translate(95.410156 0)"/>
      </g>
     </g>
    </g>
    <g id="xtick_6">
     <g id="line2d_11">
      <path d="M 242.249712 224.678125 
L 242.249712 22.318125 
" clip-path="url(#p28075eb5b6)" style="fill: none; stroke: #b0b0b0; stroke-opacity: 0.4; stroke-width: 0.4; stroke-linecap: square"/>
     </g>
     <g id="line2d_12">
      <g>
       <use xlink:href="#mf680f17917" x="242.249712" y="224.678125" style="stroke: #000000; stroke-width: 0.8"/>
      </g>
     </g>
     <g id="text_6">
      <!-- 1.0 -->
      <g transform="translate(234.298149 239.276563) scale(0.1 -0.1)">
       <defs>
        <path id="DejaVuSans-31" d="M 794 531 
L 1825 531 
L 1825 4091 
L 703 3866 
L 703 4441 
L 1819 4666 
L 2450 4666 
L 2450 531 
L 3481 531 
L 3481 0 
L 794 0 
L 794 531 
z
" transform="scale(0.015625)"/>
       </defs>
       <use xlink:href="#DejaVuSans-31"/>
       <use xlink:href="#DejaVuSans-2e" transform="translate(63.623047 0)"/>
       <use xlink:href="#DejaVuSans-30" transform="translate(95.410156 0)"/>
      </g>
     </g>
    </g>
    <g id="text_7">
     <!-- False Positive Rate -->
     <g transform="translate(98.494844 252.954688) scale(0.1 -0.1)">
      <defs>
       <path id="DejaVuSans-46" d="M 628 4666 
L 3309 4666 
L 3309 4134 
L 1259 4134 
L 1259 2759 
L 3109 2759 
L 3109 2228 
L 1259 2228 
L 1259 0 
L 628 0 
L 628 4666 
z
" transform="scale(0.015625)"/>
       <path id="DejaVuSans-61" d="M 2194 1759 
Q 1497 1759 1228 1600 
Q 959 1441 959 1056 
Q 959 750 1161 570 
Q 1363 391 1709 391 
Q 2188 391 2477 730 
Q 2766 1069 2766 1631 
L 2766 1759 
L 2194 1759 
z
M 3341 1997 
L 3341 0 
L 2766 0 
L 2766 531 
Q 2569 213 2275 61 
Q 1981 -91 1556 -91 
Q 1019 -91 701 211 
Q 384 513 384 1019 
Q 384 1609 779 1909 
Q 1175 2209 1959 2209 
L 2766 2209 
L 2766 2266 
Q 2766 2663 2505 2880 
Q 2244 3097 1772 3097 
Q 1472 3097 1187 3025 
Q 903 2953 641 2809 
L 641 3341 
Q 956 3463 1253 3523 
Q 1550 3584 1831 3584 
Q 2591 3584 2966 3190 
Q 3341 2797 3341 1997 
z
" transform="scale(0.015625)"/>
       <path id="DejaVuSans-6c" d="M 603 4863 
L 1178 4863 
L 1178 0 
L 603 0 
L 603 4863 
z
" transform="scale(0.015625)"/>
       <path id="DejaVuSans-73" d="M 2834 3397 
L 2834 2853 
Q 2591 2978 2328 3040 
Q 2066 3103 1784 3103 
Q 1356 3103 1142 2972 
Q 928 2841 928 2578 
Q 928 2378 1081 2264 
Q 1234 2150 1697 2047 
L 1894 2003 
Q 2506 1872 2764 1633 
Q 3022 1394 3022 966 
Q 3022 478 2636 193 
Q 2250 -91 1575 -91 
Q 1294 -91 989 -36 
Q 684 19 347 128 
L 347 722 
Q 666 556 975 473 
Q 1284 391 1588 391 
Q 1994 391 2212 530 
Q 2431 669 2431 922 
Q 2431 1156 2273 1281 
Q 2116 1406 1581 1522 
L 1381 1569 
Q 847 1681 609 1914 
Q 372 2147 372 2553 
Q 372 3047 722 3315 
Q 1072 3584 1716 3584 
Q 2034 3584 2315 3537 
Q 2597 3491 2834 3397 
z
" transform="scale(0.015625)"/>
       <path id="DejaVuSans-65" d="M 3597 1894 
L 3597 1613 
L 953 1613 
Q 991 1019 1311 708 
Q 1631 397 2203 397 
Q 2534 397 2845 478 
Q 3156 559 3463 722 
L 3463 178 
Q 3153 47 2828 -22 
Q 2503 -91 2169 -91 
Q 1331 -91 842 396 
Q 353 884 353 1716 
Q 353 2575 817 3079 
Q 1281 3584 2069 3584 
Q 2775 3584 3186 3129 
Q 3597 2675 3597 1894 
z
M 3022 2063 
Q 3016 2534 2758 2815 
Q 2500 3097 2075 3097 
Q 1594 3097 1305 2825 
Q 1016 2553 972 2059 
L 3022 2063 
z
" transform="scale(0.015625)"/>
       <path id="DejaVuSans-20" transform="scale(0.015625)"/>
       <path id="DejaVuSans-50" d="M 1259 4147 
L 1259 2394 
L 2053 2394 
Q 2494 2394 2734 2622 
Q 2975 2850 2975 3272 
Q 2975 3691 2734 3919 
Q 2494 4147 2053 4147 
L 1259 4147 
z
M 628 4666 
L 2053 4666 
Q 2838 4666 3239 4311 
Q 3641 3956 3641 3272 
Q 3641 2581 3239 2228 
Q 2838 1875 2053 1875 
L 1259 1875 
L 1259 0 
L 628 0 
L 628 4666 
z
" transform="scale(0.015625)"/>
       <path id="DejaVuSans-6f" d="M 1959 3097 
Q 1497 3097 1228 2736 
Q 959 2375 959 1747 
Q 959 1119 1226 758 
Q 1494 397 1959 397 
Q 2419 397 2687 759 
Q 2956 1122 2956 1747 
Q 2956 2369 2687 2733 
Q 2419 3097 1959 3097 
z
M 1959 3584 
Q 2709 3584 3137 3096 
Q 3566 2609 3566 1747 
Q 3566 888 3137 398 
Q 2709 -91 1959 -91 
Q 1206 -91 779 398 
Q 353 888 353 1747 
Q 353 2609 779 3096 
Q 1206 3584 1959 3584 
z
" transform="scale(0.015625)"/>
       <path id="DejaVuSans-69" d="M 603 3500 
L 1178 3500 
L 1178 0 
L 603 0 
L 603 3500 
z
M 603 4863 
L 1178 4863 
L 1178 4134 
L 603 4134 
L 603 4863 
z
" transform="scale(0.015625)"/>
       <path id="DejaVuSans-74" d="M 1172 4494 
L 1172 3500 
L 2356 3500 
L 2356 3053 
L 1172 3053 
L 1172 1153 
Q 1172 725 1289 603 
Q 1406 481 1766 481 
L 2356 481 
L 2356 0 
L 1766 0 
Q 1100 0 847 248 
Q 594 497 594 1153 
L 594 3053 
L 172 3053 
L 172 3500 
L 594 3500 
L 594 4494 
L 1172 4494 
z
" transform="scale(0.015625)"/>
       <path id="DejaVuSans-76" d="M 191 3500 
L 800 3500 
L 1894 563 
L 2988 3500 
L 3597 3500 
L 2284 0 
L 1503 0 
L 191 3500 
z
" transform="scale(0.015625)"/>
       <path id="DejaVuSans-52" d="M 2841 2188 
Q 3044 2119 3236 1894 
Q 3428 1669 3622 1275 
L 4263 0 
L 3584 0 
L 2988 1197 
Q 2756 1666 2539 1819 
Q 2322 1972 1947 1972 
L 1259 1972 
L 1259 0 
L 628 0 
L 628 4666 
L 2053 4666 
Q 2853 4666 3247 4331 
Q 3641 3997 3641 3322 
Q 3641 2881 3436 2590 
Q 3231 2300 2841 2188 
z
M 1259 4147 
L 1259 2491 
L 2053 2491 
Q 2509 2491 2742 2702 
Q 2975 2913 2975 3322 
Q 2975 3731 2742 3939 
Q 2509 4147 2053 4147 
L 1259 4147 
z
" transform="scale(0.015625)"/>
      </defs>
      <use xlink:href="#DejaVuSans-46"/>
      <use xlink:href="#DejaVuSans-61" transform="translate(48.394531 0)"/>
      <use xlink:href="#DejaVuSans-6c" transform="translate(109.673828 0)"/>
      <use xlink:href="#DejaVuSans-73" transform="translate(137.457031 0)"/>
      <use xlink:href="#DejaVuSans-65" transform="translate(189.556641 0)"/>
      <use xlink:href="#DejaVuSans-20" transform="translate(251.080078 0)"/>
      <use xlink:href="#DejaVuSans-50" transform="translate(282.867188 0)"/>
      <use xlink:href="#DejaVuSans-6f" transform="translate(339.544922 0)"/>
      <use xlink:href="#DejaVuSans-73" transform="translate(400.726562 0)"/>
      <use xlink:href="#DejaVuSans-69" transform="translate(452.826172 0)"/>
      <use xlink:href="#DejaVuSans-74" transform="translate(480.609375 0)"/>
      <use xlink:href="#DejaVuSans-69" transform="translate(519.818359 0)"/>
      <use xlink:href="#DejaVuSans-76" transform="translate(547.601562 0)"/>
      <use xlink:href="#DejaVuSans-65" transform="translate(606.78125 0)"/>
      <use xlink:href="#DejaVuSans-20" transform="translate(668.304688 0)"/>
      <use xlink:href="#DejaVuSans-52" transform="translate(700.091797 0)"/>
      <use xlink:href="#DejaVuSans-61" transform="translate(767.324219 0)"/>
      <use xlink:href="#DejaVuSans-74" transform="translate(828.603516 0)"/>
      <use xlink:href="#DejaVuSans-65" transform="translate(867.8125 0)"/>
     </g>
    </g>
   </g>
   <g id="matplotlib.axis_2">
    <g id="ytick_1">
     <g id="line2d_13">
      <path d="M 43.78125 220.786587 
L 246.14125 220.786587 
" clip-path="url(#p28075eb5b6)" style="fill: none; stroke: #b0b0b0; stroke-opacity: 0.4; stroke-width: 0.4; stroke-linecap: square"/>
     </g>
     <g id="line2d_14">
      <defs>
       <path id="m7f2df03ef2" d="M 0 0 
L -3.5 0 
" style="stroke: #000000; stroke-width: 0.8"/>
      </defs>
      <g>
       <use xlink:href="#m7f2df03ef2" x="43.78125" y="220.786587" style="stroke: #000000; stroke-width: 0.8"/>
      </g>
     </g>
     <g id="text_8">
      <!-- 0.0 -->
      <g transform="translate(20.878125 224.585805) scale(0.1 -0.1)">
       <use xlink:href="#DejaVuSans-30"/>
       <use xlink:href="#DejaVuSans-2e" transform="translate(63.623047 0)"/>
       <use xlink:href="#DejaVuSans-30" transform="translate(95.410156 0)"/>
      </g>
     </g>
    </g>
    <g id="ytick_2">
     <g id="line2d_15">
      <path d="M 43.78125 181.871202 
L 246.14125 181.871202 
" clip-path="url(#p28075eb5b6)" style="fill: none; stroke: #b0b0b0; stroke-opacity: 0.4; stroke-width: 0.4; stroke-linecap: square"/>
     </g>
     <g id="line2d_16">
      <g>
       <use xlink:href="#m7f2df03ef2" x="43.78125" y="181.871202" style="stroke: #000000; stroke-width: 0.8"/>
      </g>
     </g>
     <g id="text_9">
      <!-- 0.2 -->
      <g transform="translate(20.878125 185.670421) scale(0.1 -0.1)">
       <use xlink:href="#DejaVuSans-30"/>
       <use xlink:href="#DejaVuSans-2e" transform="translate(63.623047 0)"/>
       <use xlink:href="#DejaVuSans-32" transform="translate(95.410156 0)"/>
      </g>
     </g>
    </g>
    <g id="ytick_3">
     <g id="line2d_17">
      <path d="M 43.78125 142.955817 
L 246.14125 142.955817 
" clip-path="url(#p28075eb5b6)" style="fill: none; stroke: #b0b0b0; stroke-opacity: 0.4; stroke-width: 0.4; stroke-linecap: square"/>
     </g>
     <g id="line2d_18">
      <g>
       <use xlink:href="#m7f2df03ef2" x="43.78125" y="142.955817" style="stroke: #000000; stroke-width: 0.8"/>
      </g>
     </g>
     <g id="text_10">
      <!-- 0.4 -->
      <g transform="translate(20.878125 146.755036) scale(0.1 -0.1)">
       <use xlink:href="#DejaVuSans-30"/>
       <use xlink:href="#DejaVuSans-2e" transform="translate(63.623047 0)"/>
       <use xlink:href="#DejaVuSans-34" transform="translate(95.410156 0)"/>
      </g>
     </g>
    </g>
    <g id="ytick_4">
     <g id="line2d_19">
      <path d="M 43.78125 104.040433 
L 246.14125 104.040433 
" clip-path="url(#p28075eb5b6)" style="fill: none; stroke: #b0b0b0; stroke-opacity: 0.4; stroke-width: 0.4; stroke-linecap: square"/>
     </g>
     <g id="line2d_20">
      <g>
       <use xlink:href="#m7f2df03ef2" x="43.78125" y="104.040433" style="stroke: #000000; stroke-width: 0.8"/>
      </g>
     </g>
     <g id="text_11">
      <!-- 0.6 -->
      <g transform="translate(20.878125 107.839651) scale(0.1 -0.1)">
       <use xlink:href="#DejaVuSans-30"/>
       <use xlink:href="#DejaVuSans-2e" transform="translate(63.623047 0)"/>
       <use xlink:href="#DejaVuSans-36" transform="translate(95.410156 0)"/>
      </g>
     </g>
    </g>
    <g id="ytick_5">
     <g id="line2d_21">
      <path d="M 43.78125 65.125048 
L 246.14125 65.125048 
" clip-path="url(#p28075eb5b6)" style="fill: none; stroke: #b0b0b0; stroke-opacity: 0.4; stroke-width: 0.4; stroke-linecap: square"/>
     </g>
     <g id="line2d_22">
      <g>
       <use xlink:href="#m7f2df03ef2" x="43.78125" y="65.125048" style="stroke: #000000; stroke-width: 0.8"/>
      </g>
     </g>
     <g id="text_12">
      <!-- 0.8 -->
      <g transform="translate(20.878125 68.924267) scale(0.1 -0.1)">
       <use xlink:href="#DejaVuSans-30"/>
       <use xlink:href="#DejaVuSans-2e" transform="translate(63.623047 0)"/>
       <use xlink:href="#DejaVuSans-38" transform="translate(95.410156 0)"/>
      </g>
     </g>
    </g>
    <g id="ytick_6">
     <g id="line2d_23">
      <path d="M 43.78125 26.209663 
L 246.14125 26.209663 
" clip-path="url(#p28075eb5b6)" style="fill: none; stroke: #b0b0b0; stroke-opacity: 0.4; stroke-width: 0.4; stroke-linecap: square"/>
     </g>
     <g id="line2d_24">
      <g>
       <use xlink:href="#m7f2df03ef2" x="43.78125" y="26.209663" style="stroke: #000000; stroke-width: 0.8"/>
      </g>
     </g>
     <g id="text_13">
      <!-- 1.0 -->
      <g transform="translate(20.878125 30.008882) scale(0.1 -0.1)">
       <use xlink:href="#DejaVuSans-31"/>
       <use xlink:href="#DejaVuSans-2e" transform="translate(63.623047 0)"/>
       <use xlink:href="#DejaVuSans-30" transform="translate(95.410156 0)"/>
      </g>
     </g>
    </g>
    <g id="text_14">
     <!-- True Positive Rate -->
     <g transform="translate(14.798438 168.027813) rotate(-90) scale(0.1 -0.1)">
      <defs>
       <path id="DejaVuSans-54" d="M -19 4666 
L 3928 4666 
L 3928 4134 
L 2272 4134 
L 2272 0 
L 1638 0 
L 1638 4134 
L -19 4134 
L -19 4666 
z
" transform="scale(0.015625)"/>
       <path id="DejaVuSans-72" d="M 2631 2963 
Q 2534 3019 2420 3045 
Q 2306 3072 2169 3072 
Q 1681 3072 1420 2755 
Q 1159 2438 1159 1844 
L 1159 0 
L 581 0 
L 581 3500 
L 1159 3500 
L 1159 2956 
Q 1341 3275 1631 3429 
Q 1922 3584 2338 3584 
Q 2397 3584 2469 3576 
Q 2541 3569 2628 3553 
L 2631 2963 
z
" transform="scale(0.015625)"/>
       <path id="DejaVuSans-75" d="M 544 1381 
L 544 3500 
L 1119 3500 
L 1119 1403 
Q 1119 906 1312 657 
Q 1506 409 1894 409 
Q 2359 409 2629 706 
Q 2900 1003 2900 1516 
L 2900 3500 
L 3475 3500 
L 3475 0 
L 2900 0 
L 2900 538 
Q 2691 219 2414 64 
Q 2138 -91 1772 -91 
Q 1169 -91 856 284 
Q 544 659 544 1381 
z
M 1991 3584 
L 1991 3584 
z
" transform="scale(0.015625)"/>
      </defs>
      <use xlink:href="#DejaVuSans-54"/>
      <use xlink:href="#DejaVuSans-72" transform="translate(46.333984 0)"/>
      <use xlink:href="#DejaVuSans-75" transform="translate(87.447266 0)"/>
      <use xlink:href="#DejaVuSans-65" transform="translate(150.826172 0)"/>
      <use xlink:href="#DejaVuSans-20" transform="translate(212.349609 0)"/>
      <use xlink:href="#DejaVuSans-50" transform="translate(244.136719 0)"/>
      <use xlink:href="#DejaVuSans-6f" transform="translate(300.814453 0)"/>
      <use xlink:href="#DejaVuSans-73" transform="translate(361.996094 0)"/>
      <use xlink:href="#DejaVuSans-69" transform="translate(414.095703 0)"/>
      <use xlink:href="#DejaVuSans-74" transform="translate(441.878906 0)"/>
      <use xlink:href="#DejaVuSans-69" transform="translate(481.087891 0)"/>
      <use xlink:href="#DejaVuSans-76" transform="translate(508.871094 0)"/>
      <use xlink:href="#DejaVuSans-65" transform="translate(568.050781 0)"/>
      <use xlink:href="#DejaVuSans-20" transform="translate(629.574219 0)"/>
      <use xlink:href="#DejaVuSans-52" transform="translate(661.361328 0)"/>
      <use xlink:href="#DejaVuSans-61" transform="translate(728.59375 0)"/>
      <use xlink:href="#DejaVuSans-74" transform="translate(789.873047 0)"/>
      <use xlink:href="#DejaVuSans-65" transform="translate(829.082031 0)"/>
     </g>
    </g>
   </g>
   <g id="line2d_25">
    <path d="M 47.672788 220.786587 
L 47.672788 219.165112 
L 47.672788 191.600048 
L 48.753771 191.600048 
L 48.753771 188.357099 
L 49.834754 188.357099 
L 49.834754 177.006779 
L 50.915737 177.006779 
L 50.915737 170.520881 
L 51.99672 170.520881 
L 51.99672 159.170561 
L 53.077703 159.170561 
L 53.077703 154.306138 
L 54.158686 154.306138 
L 54.158686 147.82024 
L 55.239669 147.82024 
L 55.239669 144.577292 
L 56.320652 144.577292 
L 56.320652 138.091394 
L 58.482618 138.091394 
L 58.482618 136.46992 
L 59.5636 136.46992 
L 59.5636 133.226971 
L 60.644583 133.226971 
L 60.644583 129.984022 
L 61.725566 129.984022 
L 61.725566 128.362548 
L 62.806549 128.362548 
L 62.806549 123.498125 
L 63.887532 123.498125 
L 63.887532 115.390753 
L 64.968515 115.390753 
L 64.968515 105.661907 
L 67.130481 105.661907 
L 67.130481 104.040433 
L 69.292447 104.040433 
L 69.292447 99.17601 
L 71.454412 99.17601 
L 71.454412 94.311587 
L 72.535395 94.311587 
L 72.535395 91.068638 
L 73.616378 91.068638 
L 73.616378 87.825689 
L 76.859327 87.825689 
L 76.859327 86.204215 
L 79.021293 86.204215 
L 79.021293 84.58274 
L 81.183259 84.58274 
L 81.183259 79.718317 
L 83.345224 79.718317 
L 83.345224 73.23242 
L 90.912105 73.23242 
L 90.912105 69.989471 
L 91.993088 69.989471 
L 91.993088 66.746522 
L 94.155053 66.746522 
L 94.155053 65.125048 
L 96.317019 65.125048 
L 96.317019 61.882099 
L 97.398002 61.882099 
L 97.398002 60.260625 
L 99.559968 60.260625 
L 99.559968 58.639151 
L 100.640951 58.639151 
L 100.640951 57.017676 
L 103.8839 57.017676 
L 103.8839 55.396202 
L 109.288814 55.396202 
L 109.288814 53.774728 
L 110.369797 53.774728 
L 110.369797 52.153253 
L 112.531763 52.153253 
L 112.531763 48.910304 
L 113.612746 48.910304 
L 114.693729 47.28883 
L 114.693729 45.667356 
L 116.855694 45.667356 
L 116.855694 42.424407 
L 120.098643 42.424407 
L 120.098643 40.802933 
L 121.179626 40.802933 
L 121.179626 39.181458 
L 122.260609 39.181458 
L 122.260609 37.559984 
L 126.584541 37.559984 
L 126.584541 35.93851 
L 154.690096 35.93851 
L 154.690096 34.317035 
L 159.014028 34.317035 
L 159.014028 31.074087 
L 175.228771 31.074087 
L 175.228771 29.452612 
L 189.281549 29.452612 
L 189.281549 27.831138 
L 204.41531 27.831138 
L 204.41531 26.209663 
L 242.249712 26.209663 
" clip-path="url(#p28075eb5b6)" style="fill: none; stroke-dasharray: 5.18,2.24; stroke-dashoffset: 0; stroke: #4878cf; stroke-width: 1.4"/>
   </g>
   <g id="line2d_26">
    <path d="M 47.672788 220.786587 
L 47.672788 219.165112 
L 47.672788 162.41351 
L 48.753771 162.41351 
L 48.753771 147.82024 
L 49.834754 147.82024 
L 49.834754 142.955817 
L 50.915737 142.955817 
L 50.915737 131.605497 
L 51.99672 131.605497 
L 51.99672 128.362548 
L 53.077703 128.362548 
L 53.077703 121.876651 
L 56.320652 121.876651 
L 56.320652 113.769279 
L 58.482618 113.769279 
L 58.482618 100.797484 
L 59.5636 100.797484 
L 59.5636 99.17601 
L 60.644583 99.17601 
L 60.644583 95.933061 
L 61.725566 95.933061 
L 61.725566 94.311587 
L 63.887532 94.311587 
L 63.887532 89.447163 
L 66.049498 89.447163 
L 66.049498 86.204215 
L 67.130481 86.204215 
L 67.130481 81.339792 
L 68.211464 81.339792 
L 68.211464 74.853894 
L 70.373429 74.853894 
L 70.373429 66.746522 
L 71.454412 66.746522 
L 71.454412 65.125048 
L 76.859327 65.125048 
L 76.859327 63.503574 
L 80.102276 63.503574 
L 80.102276 61.882099 
L 83.345224 61.882099 
L 83.345224 58.639151 
L 84.426207 58.639151 
L 84.426207 55.396202 
L 87.669156 55.396202 
L 87.669156 53.774728 
L 90.912105 53.774728 
L 90.912105 52.153253 
L 95.236036 52.153253 
L 95.236036 50.531779 
L 100.640951 50.531779 
L 100.640951 48.910304 
L 102.802917 48.910304 
L 102.802917 47.28883 
L 103.8839 47.28883 
L 103.8839 45.667356 
L 121.179626 45.667356 
L 121.179626 44.045881 
L 123.341592 44.045881 
L 123.341592 42.424407 
L 126.584541 42.424407 
L 126.584541 40.802933 
L 136.313387 40.802933 
L 136.313387 39.181458 
L 137.39437 39.181458 
L 137.39437 37.559984 
L 138.475353 37.559984 
L 138.475353 35.93851 
L 139.556335 35.93851 
L 139.556335 34.317035 
L 166.580908 34.317035 
L 166.580908 32.695561 
L 167.661891 32.695561 
L 167.661891 31.074087 
L 178.47172 31.074087 
L 178.47172 29.452612 
L 187.119583 29.452612 
L 187.119583 27.831138 
L 189.281549 27.831138 
L 189.281549 26.209663 
L 224.953985 26.209663 
L 227.115951 26.209663 
L 242.249712 26.209663 
" clip-path="url(#p28075eb5b6)" style="fill: none; stroke-dasharray: 8.96,2.24,1.4,2.24; stroke-dashoffset: 0; stroke: #6acc65; stroke-width: 1.4"/>
   </g>
   <g id="line2d_27">
    <path d="M 47.672788 220.786587 
L 47.672788 219.165112 
L 47.672788 118.633702 
L 48.753771 118.633702 
L 48.753771 108.904856 
L 49.834754 108.904856 
L 49.834754 99.17601 
L 50.915737 97.554535 
L 50.915737 86.204215 
L 51.99672 86.204215 
L 51.99672 76.475369 
L 54.158686 76.475369 
L 54.158686 63.503574 
L 55.239669 63.503574 
L 55.239669 60.260625 
L 57.401635 60.260625 
L 57.401635 55.396202 
L 59.5636 55.396202 
L 59.5636 53.774728 
L 60.644583 53.774728 
L 60.644583 50.531779 
L 62.806549 50.531779 
L 62.806549 47.28883 
L 64.968515 47.28883 
L 64.968515 45.667356 
L 67.130481 45.667356 
L 67.130481 42.424407 
L 75.778344 42.424407 
L 75.778344 40.802933 
L 77.94031 40.802933 
L 77.94031 39.181458 
L 85.50719 39.181458 
L 85.50719 37.559984 
L 95.236036 37.559984 
L 95.236036 35.93851 
L 99.559968 35.93851 
L 99.559968 34.317035 
L 113.612746 34.317035 
L 113.612746 32.695561 
L 126.584541 32.695561 
L 126.584541 31.074087 
L 128.746506 31.074087 
L 128.746506 29.452612 
L 142.799284 29.452612 
L 142.799284 27.831138 
L 153.609113 27.831138 
L 153.609113 26.209663 
L 242.249712 26.209663 
" clip-path="url(#p28075eb5b6)" style="fill: none; stroke-dasharray: 1.4,2.31; stroke-dashoffset: 0; stroke: #d65f5f; stroke-width: 1.4"/>
   </g>
   <g id="line2d_28">
    <path d="M 47.672788 220.786587 
L 47.672788 219.165112 
L 47.672788 86.204215 
L 48.753771 86.204215 
L 48.753771 53.774728 
L 51.99672 53.774728 
L 51.99672 50.531779 
L 53.077703 50.531779 
L 53.077703 48.910304 
L 55.239669 48.910304 
L 55.239669 44.045881 
L 56.320652 44.045881 
L 56.320652 37.559984 
L 62.806549 37.559984 
L 62.806549 35.93851 
L 63.887532 35.93851 
L 63.887532 34.317035 
L 66.049498 34.317035 
L 66.049498 32.695561 
L 72.535395 32.695561 
L 72.535395 31.074087 
L 73.616378 31.074087 
L 73.616378 29.452612 
L 77.94031 29.452612 
L 77.94031 27.831138 
L 83.345224 27.831138 
L 83.345224 26.209663 
L 93.074071 26.209663 
L 95.236036 26.209663 
L 242.249712 26.209663 
" clip-path="url(#p28075eb5b6)" style="fill: none; stroke: #b47cc7; stroke-width: 2; stroke-linecap: square"/>
   </g>
   <g id="line2d_29">
    <path d="M 47.672788 220.786587 
L 242.249712 26.209663 
" clip-path="url(#p28075eb5b6)" style="fill: none; stroke-dasharray: 2.96,1.28; stroke-dashoffset: 0; stroke: #000000; stroke-opacity: 0.5; stroke-width: 0.8"/>
   </g>
   <g id="patch_3">
    <path d="M 43.78125 224.678125 
L 43.78125 22.318125 
" style="fill: none; stroke: #000000; stroke-width: 0.8; stroke-linejoin: miter; stroke-linecap: square"/>
   </g>
   <g id="patch_4">
    <path d="M 43.78125 224.678125 
L 246.14125 224.678125 
" style="fill: none; stroke: #000000; stroke-width: 0.8; stroke-linejoin: miter; stroke-linecap: square"/>
   </g>
   <g id="text_15">
    <!-- ROC Curve -->
    <g transform="translate(112.270625 16.318125) scale(0.12 -0.12)">
     <defs>
      <path id="DejaVuSans-4f" d="M 2522 4238 
Q 1834 4238 1429 3725 
Q 1025 3213 1025 2328 
Q 1025 1447 1429 934 
Q 1834 422 2522 422 
Q 3209 422 3611 934 
Q 4013 1447 4013 2328 
Q 4013 3213 3611 3725 
Q 3209 4238 2522 4238 
z
M 2522 4750 
Q 3503 4750 4090 4092 
Q 4678 3434 4678 2328 
Q 4678 1225 4090 567 
Q 3503 -91 2522 -91 
Q 1538 -91 948 565 
Q 359 1222 359 2328 
Q 359 3434 948 4092 
Q 1538 4750 2522 4750 
z
" transform="scale(0.015625)"/>
      <path id="DejaVuSans-43" d="M 4122 4306 
L 4122 3641 
Q 3803 3938 3442 4084 
Q 3081 4231 2675 4231 
Q 1875 4231 1450 3742 
Q 1025 3253 1025 2328 
Q 1025 1406 1450 917 
Q 1875 428 2675 428 
Q 3081 428 3442 575 
Q 3803 722 4122 1019 
L 4122 359 
Q 3791 134 3420 21 
Q 3050 -91 2638 -91 
Q 1578 -91 968 557 
Q 359 1206 359 2328 
Q 359 3453 968 4101 
Q 1578 4750 2638 4750 
Q 3056 4750 3426 4639 
Q 3797 4528 4122 4306 
z
" transform="scale(0.015625)"/>
     </defs>
     <use xlink:href="#DejaVuSans-52"/>
     <use xlink:href="#DejaVuSans-4f" transform="translate(69.482422 0)"/>
     <use xlink:href="#DejaVuSans-43" transform="translate(148.193359 0)"/>
     <use xlink:href="#DejaVuSans-20" transform="translate(218.017578 0)"/>
     <use xlink:href="#DejaVuSans-43" transform="translate(249.804688 0)"/>
     <use xlink:href="#DejaVuSans-75" transform="translate(319.628906 0)"/>
     <use xlink:href="#DejaVuSans-72" transform="translate(383.007812 0)"/>
     <use xlink:href="#DejaVuSans-76" transform="translate(424.121094 0)"/>
     <use xlink:href="#DejaVuSans-65" transform="translate(483.300781 0)"/>
    </g>
   </g>
   <g id="legend_1">
    <g id="patch_5">
     <path d="M 141.044375 221.428125 
L 241.59125 221.428125 
Q 242.89125 221.428125 242.89125 220.128125 
L 242.89125 173.074219 
Q 242.89125 171.774219 241.59125 171.774219 
L 141.044375 171.774219 
Q 139.744375 171.774219 139.744375 173.074219 
L 139.744375 220.128125 
Q 139.744375 221.428125 141.044375 221.428125 
z
" style="fill: #ffffff; opacity: 0.9; stroke: #cccccc; stroke-linejoin: miter"/>
    </g>
    <g id="line2d_30">
     <path d="M 142.344375 177.038203 
L 148.844375 177.038203 
L 155.344375 177.038203 
" style="fill: none; stroke-dasharray: 5.18,2.24; stroke-dashoffset: 0; stroke: #4878cf; stroke-width: 1.4"/>
    </g>
    <g id="text_16">
     <!-- Baseline (AUC=0.866) -->
     <g transform="translate(160.544375 179.313203) scale(0.065 -0.065)">
      <defs>
       <path id="DejaVuSans-42" d="M 1259 2228 
L 1259 519 
L 2272 519 
Q 2781 519 3026 730 
Q 3272 941 3272 1375 
Q 3272 1813 3026 2020 
Q 2781 2228 2272 2228 
L 1259 2228 
z
M 1259 4147 
L 1259 2741 
L 2194 2741 
Q 2656 2741 2882 2914 
Q 3109 3088 3109 3444 
Q 3109 3797 2882 3972 
Q 2656 4147 2194 4147 
L 1259 4147 
z
M 628 4666 
L 2241 4666 
Q 2963 4666 3353 4366 
Q 3744 4066 3744 3513 
Q 3744 3084 3544 2831 
Q 3344 2578 2956 2516 
Q 3422 2416 3680 2098 
Q 3938 1781 3938 1306 
Q 3938 681 3513 340 
Q 3088 0 2303 0 
L 628 0 
L 628 4666 
z
" transform="scale(0.015625)"/>
       <path id="DejaVuSans-6e" d="M 3513 2113 
L 3513 0 
L 2938 0 
L 2938 2094 
Q 2938 2591 2744 2837 
Q 2550 3084 2163 3084 
Q 1697 3084 1428 2787 
Q 1159 2491 1159 1978 
L 1159 0 
L 581 0 
L 581 3500 
L 1159 3500 
L 1159 2956 
Q 1366 3272 1645 3428 
Q 1925 3584 2291 3584 
Q 2894 3584 3203 3211 
Q 3513 2838 3513 2113 
z
" transform="scale(0.015625)"/>
       <path id="DejaVuSans-28" d="M 1984 4856 
Q 1566 4138 1362 3434 
Q 1159 2731 1159 2009 
Q 1159 1288 1364 580 
Q 1569 -128 1984 -844 
L 1484 -844 
Q 1016 -109 783 600 
Q 550 1309 550 2009 
Q 550 2706 781 3412 
Q 1013 4119 1484 4856 
L 1984 4856 
z
" transform="scale(0.015625)"/>
       <path id="DejaVuSans-41" d="M 2188 4044 
L 1331 1722 
L 3047 1722 
L 2188 4044 
z
M 1831 4666 
L 2547 4666 
L 4325 0 
L 3669 0 
L 3244 1197 
L 1141 1197 
L 716 0 
L 50 0 
L 1831 4666 
z
" transform="scale(0.015625)"/>
       <path id="DejaVuSans-55" d="M 556 4666 
L 1191 4666 
L 1191 1831 
Q 1191 1081 1462 751 
Q 1734 422 2344 422 
Q 2950 422 3222 751 
Q 3494 1081 3494 1831 
L 3494 4666 
L 4128 4666 
L 4128 1753 
Q 4128 841 3676 375 
Q 3225 -91 2344 -91 
Q 1459 -91 1007 375 
Q 556 841 556 1753 
L 556 4666 
z
" transform="scale(0.015625)"/>
       <path id="DejaVuSans-3d" d="M 678 2906 
L 4684 2906 
L 4684 2381 
L 678 2381 
L 678 2906 
z
M 678 1631 
L 4684 1631 
L 4684 1100 
L 678 1100 
L 678 1631 
z
" transform="scale(0.015625)"/>
       <path id="DejaVuSans-29" d="M 513 4856 
L 1013 4856 
Q 1481 4119 1714 3412 
Q 1947 2706 1947 2009 
Q 1947 1309 1714 600 
Q 1481 -109 1013 -844 
L 513 -844 
Q 928 -128 1133 580 
Q 1338 1288 1338 2009 
Q 1338 2731 1133 3434 
Q 928 4138 513 4856 
z
" transform="scale(0.015625)"/>
      </defs>
      <use xlink:href="#DejaVuSans-42"/>
      <use xlink:href="#DejaVuSans-61" transform="translate(68.603516 0)"/>
      <use xlink:href="#DejaVuSans-73" transform="translate(129.882812 0)"/>
      <use xlink:href="#DejaVuSans-65" transform="translate(181.982422 0)"/>
      <use xlink:href="#DejaVuSans-6c" transform="translate(243.505859 0)"/>
      <use xlink:href="#DejaVuSans-69" transform="translate(271.289062 0)"/>
      <use xlink:href="#DejaVuSans-6e" transform="translate(299.072266 0)"/>
      <use xlink:href="#DejaVuSans-65" transform="translate(362.451172 0)"/>
      <use xlink:href="#DejaVuSans-20" transform="translate(423.974609 0)"/>
      <use xlink:href="#DejaVuSans-28" transform="translate(455.761719 0)"/>
      <use xlink:href="#DejaVuSans-41" transform="translate(494.775391 0)"/>
      <use xlink:href="#DejaVuSans-55" transform="translate(563.183594 0)"/>
      <use xlink:href="#DejaVuSans-43" transform="translate(636.376953 0)"/>
      <use xlink:href="#DejaVuSans-3d" transform="translate(706.201172 0)"/>
      <use xlink:href="#DejaVuSans-30" transform="translate(789.990234 0)"/>
      <use xlink:href="#DejaVuSans-2e" transform="translate(853.613281 0)"/>
      <use xlink:href="#DejaVuSans-38" transform="translate(885.400391 0)"/>
      <use xlink:href="#DejaVuSans-36" transform="translate(949.023438 0)"/>
      <use xlink:href="#DejaVuSans-36" transform="translate(1012.646484 0)"/>
      <use xlink:href="#DejaVuSans-29" transform="translate(1076.269531 0)"/>
     </g>
    </g>
    <g id="line2d_31">
     <path d="M 142.344375 186.578984 
L 148.844375 186.578984 
L 155.344375 186.578984 
" style="fill: none; stroke-dasharray: 8.96,2.24,1.4,2.24; stroke-dashoffset: 0; stroke: #6acc65; stroke-width: 1.4"/>
    </g>
    <g id="text_17">
     <!-- Method-A (AUC=0.899) -->
     <g transform="translate(160.544375 188.853984) scale(0.065 -0.065)">
      <defs>
       <path id="DejaVuSans-4d" d="M 628 4666 
L 1569 4666 
L 2759 1491 
L 3956 4666 
L 4897 4666 
L 4897 0 
L 4281 0 
L 4281 4097 
L 3078 897 
L 2444 897 
L 1241 4097 
L 1241 0 
L 628 0 
L 628 4666 
z
" transform="scale(0.015625)"/>
       <path id="DejaVuSans-68" d="M 3513 2113 
L 3513 0 
L 2938 0 
L 2938 2094 
Q 2938 2591 2744 2837 
Q 2550 3084 2163 3084 
Q 1697 3084 1428 2787 
Q 1159 2491 1159 1978 
L 1159 0 
L 581 0 
L 581 4863 
L 1159 4863 
L 1159 2956 
Q 1366 3272 1645 3428 
Q 1925 3584 2291 3584 
Q 2894 3584 3203 3211 
Q 3513 2838 3513 2113 
z
" transform="scale(0.015625)"/>
       <path id="DejaVuSans-64" d="M 2906 2969 
L 2906 4863 
L 3481 4863 
L 3481 0 
L 2906 0 
L 2906 525 
Q 2725 213 2448 61 
Q 2172 -91 1784 -91 
Q 1150 -91 751 415 
Q 353 922 353 1747 
Q 353 2572 751 3078 
Q 1150 3584 1784 3584 
Q 2172 3584 2448 3432 
Q 2725 3281 2906 2969 
z
M 947 1747 
Q 947 1113 1208 752 
Q 1469 391 1925 391 
Q 2381 391 2643 752 
Q 2906 1113 2906 1747 
Q 2906 2381 2643 2742 
Q 2381 3103 1925 3103 
Q 1469 3103 1208 2742 
Q 947 2381 947 1747 
z
" transform="scale(0.015625)"/>
       <path id="DejaVuSans-2d" d="M 313 2009 
L 1997 2009 
L 1997 1497 
L 313 1497 
L 313 2009 
z
" transform="scale(0.015625)"/>
       <path id="DejaVuSans-39" d="M 703 97 
L 703 672 
Q 941 559 1184 500 
Q 1428 441 1663 441 
Q 2288 441 2617 861 
Q 2947 1281 2994 2138 
Q 2813 1869 2534 1725 
Q 2256 1581 1919 1581 
Q 1219 1581 811 2004 
Q 403 2428 403 3163 
Q 403 3881 828 4315 
Q 1253 4750 1959 4750 
Q 2769 4750 3195 4129 
Q 3622 3509 3622 2328 
Q 3622 1225 3098 567 
Q 2575 -91 1691 -91 
Q 1453 -91 1209 -44 
Q 966 3 703 97 
z
M 1959 2075 
Q 2384 2075 2632 2365 
Q 2881 2656 2881 3163 
Q 2881 3666 2632 3958 
Q 2384 4250 1959 4250 
Q 1534 4250 1286 3958 
Q 1038 3666 1038 3163 
Q 1038 2656 1286 2365 
Q 1534 2075 1959 2075 
z
" transform="scale(0.015625)"/>
      </defs>
      <use xlink:href="#DejaVuSans-4d"/>
      <use xlink:href="#DejaVuSans-65" transform="translate(86.279297 0)"/>
      <use xlink:href="#DejaVuSans-74" transform="translate(147.802734 0)"/>
      <use xlink:href="#DejaVuSans-68" transform="translate(187.011719 0)"/>
      <use xlink:href="#DejaVuSans-6f" transform="translate(250.390625 0)"/>
      <use xlink:href="#DejaVuSans-64" transform="translate(311.572266 0)"/>
      <use xlink:href="#DejaVuSans-2d" transform="translate(375.048828 0)"/>
      <use xlink:href="#DejaVuSans-41" transform="translate(408.882812 0)"/>
      <use xlink:href="#DejaVuSans-20" transform="translate(477.291016 0)"/>
      <use xlink:href="#DejaVuSans-28" transform="translate(509.078125 0)"/>
      <use xlink:href="#DejaVuSans-41" transform="translate(548.091797 0)"/>
      <use xlink:href="#DejaVuSans-55" transform="translate(616.5 0)"/>
      <use xlink:href="#DejaVuSans-43" transform="translate(689.693359 0)"/>
      <use xlink:href="#DejaVuSans-3d" transform="translate(759.517578 0)"/>
      <use xlink:href="#DejaVuSans-30" transform="translate(843.306641 0)"/>
      <use xlink:href="#DejaVuSans-2e" transform="translate(906.929688 0)"/>
      <use xlink:href="#DejaVuSans-38" transform="translate(938.716797 0)"/>
      <use xlink:href="#DejaVuSans-39" transform="translate(1002.339844 0)"/>
      <use xlink:href="#DejaVuSans-39" transform="translate(1065.962891 0)"/>
      <use xlink:href="#DejaVuSans-29" transform="translate(1129.585938 0)"/>
     </g>
    </g>
    <g id="line2d_32">
     <path d="M 142.344375 196.119766 
L 148.844375 196.119766 
L 155.344375 196.119766 
" style="fill: none; stroke-dasharray: 1.4,2.31; stroke-dashoffset: 0; stroke: #d65f5f; stroke-width: 1.4"/>
    </g>
    <g id="text_18">
     <!-- Method-B (AUC=0.961) -->
     <g transform="translate(160.544375 198.394766) scale(0.065 -0.065)">
      <use xlink:href="#DejaVuSans-4d"/>
      <use xlink:href="#DejaVuSans-65" transform="translate(86.279297 0)"/>
      <use xlink:href="#DejaVuSans-74" transform="translate(147.802734 0)"/>
      <use xlink:href="#DejaVuSans-68" transform="translate(187.011719 0)"/>
      <use xlink:href="#DejaVuSans-6f" transform="translate(250.390625 0)"/>
      <use xlink:href="#DejaVuSans-64" transform="translate(311.572266 0)"/>
      <use xlink:href="#DejaVuSans-2d" transform="translate(375.048828 0)"/>
      <use xlink:href="#DejaVuSans-42" transform="translate(407.507812 0)"/>
      <use xlink:href="#DejaVuSans-20" transform="translate(476.111328 0)"/>
      <use xlink:href="#DejaVuSans-28" transform="translate(507.898438 0)"/>
      <use xlink:href="#DejaVuSans-41" transform="translate(546.912109 0)"/>
      <use xlink:href="#DejaVuSans-55" transform="translate(615.320312 0)"/>
      <use xlink:href="#DejaVuSans-43" transform="translate(688.513672 0)"/>
      <use xlink:href="#DejaVuSans-3d" transform="translate(758.337891 0)"/>
      <use xlink:href="#DejaVuSans-30" transform="translate(842.126953 0)"/>
      <use xlink:href="#DejaVuSans-2e" transform="translate(905.75 0)"/>
      <use xlink:href="#DejaVuSans-39" transform="translate(937.537109 0)"/>
      <use xlink:href="#DejaVuSans-36" transform="translate(1001.160156 0)"/>
      <use xlink:href="#DejaVuSans-31" transform="translate(1064.783203 0)"/>
      <use xlink:href="#DejaVuSans-29" transform="translate(1128.40625 0)"/>
     </g>
    </g>
    <g id="line2d_33">
     <path d="M 142.344375 205.660547 
L 148.844375 205.660547 
L 155.344375 205.660547 
" style="fill: none; stroke: #b47cc7; stroke-width: 2; stroke-linecap: square"/>
    </g>
    <g id="text_19">
     <!-- OursModel (AUC=0.989) -->
     <g transform="translate(160.544375 207.935547) scale(0.065 -0.065)">
      <use xlink:href="#DejaVuSans-4f"/>
      <use xlink:href="#DejaVuSans-75" transform="translate(78.710938 0)"/>
      <use xlink:href="#DejaVuSans-72" transform="translate(142.089844 0)"/>
      <use xlink:href="#DejaVuSans-73" transform="translate(183.203125 0)"/>
      <use xlink:href="#DejaVuSans-4d" transform="translate(235.302734 0)"/>
      <use xlink:href="#DejaVuSans-6f" transform="translate(321.582031 0)"/>
      <use xlink:href="#DejaVuSans-64" transform="translate(382.763672 0)"/>
      <use xlink:href="#DejaVuSans-65" transform="translate(446.240234 0)"/>
      <use xlink:href="#DejaVuSans-6c" transform="translate(507.763672 0)"/>
      <use xlink:href="#DejaVuSans-20" transform="translate(535.546875 0)"/>
      <use xlink:href="#DejaVuSans-28" transform="translate(567.333984 0)"/>
      <use xlink:href="#DejaVuSans-41" transform="translate(606.347656 0)"/>
      <use xlink:href="#DejaVuSans-55" transform="translate(674.755859 0)"/>
      <use xlink:href="#DejaVuSans-43" transform="translate(747.949219 0)"/>
      <use xlink:href="#DejaVuSans-3d" transform="translate(817.773438 0)"/>
      <use xlink:href="#DejaVuSans-30" transform="translate(901.5625 0)"/>
      <use xlink:href="#DejaVuSans-2e" transform="translate(965.185547 0)"/>
      <use xlink:href="#DejaVuSans-39" transform="translate(996.972656 0)"/>
      <use xlink:href="#DejaVuSans-38" transform="translate(1060.595703 0)"/>
      <use xlink:href="#DejaVuSans-39" transform="translate(1124.21875 0)"/>
      <use xlink:href="#DejaVuSans-29" transform="translate(1187.841797 0)"/>
     </g>
    </g>
    <g id="line2d_34">
     <path d="M 142.344375 215.201328 
L 148.844375 215.201328 
L 155.344375 215.201328 
" style="fill: none; stroke-dasharray: 2.96,1.28; stroke-dashoffset: 0; stroke: #000000; stroke-opacity: 0.5; stroke-width: 0.8"/>
    </g>
    <g id="text_20">
     <!-- Chance -->
     <g transform="translate(160.544375 217.476328) scale(0.065 -0.065)">
      <defs>
       <path id="DejaVuSans-63" d="M 3122 3366 
L 3122 2828 
Q 2878 2963 2633 3030 
Q 2388 3097 2138 3097 
Q 1578 3097 1268 2742 
Q 959 2388 959 1747 
Q 959 1106 1268 751 
Q 1578 397 2138 397 
Q 2388 397 2633 464 
Q 2878 531 3122 666 
L 3122 134 
Q 2881 22 2623 -34 
Q 2366 -91 2075 -91 
Q 1284 -91 818 406 
Q 353 903 353 1747 
Q 353 2603 823 3093 
Q 1294 3584 2113 3584 
Q 2378 3584 2631 3529 
Q 2884 3475 3122 3366 
z
" transform="scale(0.015625)"/>
      </defs>
      <use xlink:href="#DejaVuSans-43"/>
      <use xlink:href="#DejaVuSans-68" transform="translate(69.824219 0)"/>
      <use xlink:href="#DejaVuSans-61" transform="translate(133.203125 0)"/>
      <use xlink:href="#DejaVuSans-6e" transform="translate(194.482422 0)"/>
      <use xlink:href="#DejaVuSans-63" transform="translate(257.861328 0)"/>
      <use xlink:href="#DejaVuSans-65" transform="translate(312.841797 0)"/>
     </g>
    </g>
   </g>
  </g>
  <g id="axes_2">
   <g id="patch_6">
    <path d="M 343.78125 224.678125 
L 546.14125 224.678125 
L 546.14125 22.318125 
L 343.78125 22.318125 
z
" style="fill: #ffffff"/>
   </g>
   <g id="matplotlib.axis_3">
    <g id="xtick_7">
     <g id="line2d_35">
      <path d="M 347.672788 224.678125 
L 347.672788 22.318125 
" clip-path="url(#p18034be812)" style="fill: none; stroke: #b0b0b0; stroke-opacity: 0.4; stroke-width: 0.4; stroke-linecap: square"/>
     </g>
     <g id="line2d_36">
      <g>
       <use xlink:href="#mf680f17917" x="347.672788" y="224.678125" style="stroke: #000000; stroke-width: 0.8"/>
      </g>
     </g>
     <g id="text_21">
      <!-- 0.0 -->
      <g transform="translate(339.721226 239.276563) scale(0.1 -0.1)">
       <use xlink:href="#DejaVuSans-30"/>
       <use xlink:href="#DejaVuSans-2e" transform="translate(63.623047 0)"/>
       <use xlink:href="#DejaVuSans-30" transform="translate(95.410156 0)"/>
      </g>
     </g>
    </g>
    <g id="xtick_8">
     <g id="line2d_37">
      <path d="M 386.588173 224.678125 
L 386.588173 22.318125 
" clip-path="url(#p18034be812)" style="fill: none; stroke: #b0b0b0; stroke-opacity: 0.4; stroke-width: 0.4; stroke-linecap: square"/>
     </g>
     <g id="line2d_38">
      <g>
       <use xlink:href="#mf680f17917" x="386.588173" y="224.678125" style="stroke: #000000; stroke-width: 0.8"/>
      </g>
     </g>
     <g id="text_22">
      <!-- 0.2 -->
      <g transform="translate(378.636611 239.276563) scale(0.1 -0.1)">
       <use xlink:href="#DejaVuSans-30"/>
       <use xlink:href="#DejaVuSans-2e" transform="translate(63.623047 0)"/>
       <use xlink:href="#DejaVuSans-32" transform="translate(95.410156 0)"/>
      </g>
     </g>
    </g>
    <g id="xtick_9">
     <g id="line2d_39">
      <path d="M 425.503558 224.678125 
L 425.503558 22.318125 
" clip-path="url(#p18034be812)" style="fill: none; stroke: #b0b0b0; stroke-opacity: 0.4; stroke-width: 0.4; stroke-linecap: square"/>
     </g>
     <g id="line2d_40">
      <g>
       <use xlink:href="#mf680f17917" x="425.503558" y="224.678125" style="stroke: #000000; stroke-width: 0.8"/>
      </g>
     </g>
     <g id="text_23">
      <!-- 0.4 -->
      <g transform="translate(417.551995 239.276563) scale(0.1 -0.1)">
       <use xlink:href="#DejaVuSans-30"/>
       <use xlink:href="#DejaVuSans-2e" transform="translate(63.623047 0)"/>
       <use xlink:href="#DejaVuSans-34" transform="translate(95.410156 0)"/>
      </g>
     </g>
    </g>
    <g id="xtick_10">
     <g id="line2d_41">
      <path d="M 464.418942 224.678125 
L 464.418942 22.318125 
" clip-path="url(#p18034be812)" style="fill: none; stroke: #b0b0b0; stroke-opacity: 0.4; stroke-width: 0.4; stroke-linecap: square"/>
     </g>
     <g id="line2d_42">
      <g>
       <use xlink:href="#mf680f17917" x="464.418942" y="224.678125" style="stroke: #000000; stroke-width: 0.8"/>
      </g>
     </g>
     <g id="text_24">
      <!-- 0.6 -->
      <g transform="translate(456.46738 239.276563) scale(0.1 -0.1)">
       <use xlink:href="#DejaVuSans-30"/>
       <use xlink:href="#DejaVuSans-2e" transform="translate(63.623047 0)"/>
       <use xlink:href="#DejaVuSans-36" transform="translate(95.410156 0)"/>
      </g>
     </g>
    </g>
    <g id="xtick_11">
     <g id="line2d_43">
      <path d="M 503.334327 224.678125 
L 503.334327 22.318125 
" clip-path="url(#p18034be812)" style="fill: none; stroke: #b0b0b0; stroke-opacity: 0.4; stroke-width: 0.4; stroke-linecap: square"/>
     </g>
     <g id="line2d_44">
      <g>
       <use xlink:href="#mf680f17917" x="503.334327" y="224.678125" style="stroke: #000000; stroke-width: 0.8"/>
      </g>
     </g>
     <g id="text_25">
      <!-- 0.8 -->
      <g transform="translate(495.382764 239.276563) scale(0.1 -0.1)">
       <use xlink:href="#DejaVuSans-30"/>
       <use xlink:href="#DejaVuSans-2e" transform="translate(63.623047 0)"/>
       <use xlink:href="#DejaVuSans-38" transform="translate(95.410156 0)"/>
      </g>
     </g>
    </g>
    <g id="xtick_12">
     <g id="line2d_45">
      <path d="M 542.249712 224.678125 
L 542.249712 22.318125 
" clip-path="url(#p18034be812)" style="fill: none; stroke: #b0b0b0; stroke-opacity: 0.4; stroke-width: 0.4; stroke-linecap: square"/>
     </g>
     <g id="line2d_46">
      <g>
       <use xlink:href="#mf680f17917" x="542.249712" y="224.678125" style="stroke: #000000; stroke-width: 0.8"/>
      </g>
     </g>
     <g id="text_26">
      <!-- 1.0 -->
      <g transform="translate(534.298149 239.276563) scale(0.1 -0.1)">
       <use xlink:href="#DejaVuSans-31"/>
       <use xlink:href="#DejaVuSans-2e" transform="translate(63.623047 0)"/>
       <use xlink:href="#DejaVuSans-30" transform="translate(95.410156 0)"/>
      </g>
     </g>
    </g>
    <g id="text_27">
     <!-- Recall -->
     <g transform="translate(430.044062 252.954688) scale(0.1 -0.1)">
      <use xlink:href="#DejaVuSans-52"/>
      <use xlink:href="#DejaVuSans-65" transform="translate(64.982422 0)"/>
      <use xlink:href="#DejaVuSans-63" transform="translate(126.505859 0)"/>
      <use xlink:href="#DejaVuSans-61" transform="translate(181.486328 0)"/>
      <use xlink:href="#DejaVuSans-6c" transform="translate(242.765625 0)"/>
      <use xlink:href="#DejaVuSans-6c" transform="translate(270.548828 0)"/>
     </g>
    </g>
   </g>
   <g id="matplotlib.axis_4">
    <g id="ytick_7">
     <g id="line2d_47">
      <path d="M 343.78125 220.786587 
L 546.14125 220.786587 
" clip-path="url(#p18034be812)" style="fill: none; stroke: #b0b0b0; stroke-opacity: 0.4; stroke-width: 0.4; stroke-linecap: square"/>
     </g>
     <g id="line2d_48">
      <g>
       <use xlink:href="#m7f2df03ef2" x="343.78125" y="220.786587" style="stroke: #000000; stroke-width: 0.8"/>
      </g>
     </g>
     <g id="text_28">
      <!-- 0.0 -->
      <g transform="translate(320.878125 224.585805) scale(0.1 -0.1)">
       <use xlink:href="#DejaVuSans-30"/>
       <use xlink:href="#DejaVuSans-2e" transform="translate(63.623047 0)"/>
       <use xlink:href="#DejaVuSans-30" transform="translate(95.410156 0)"/>
      </g>
     </g>
    </g>
    <g id="ytick_8">
     <g id="line2d_49">
      <path d="M 343.78125 181.871202 
L 546.14125 181.871202 
" clip-path="url(#p18034be812)" style="fill: none; stroke: #b0b0b0; stroke-opacity: 0.4; stroke-width: 0.4; stroke-linecap: square"/>
     </g>
     <g id="line2d_50">
      <g>
       <use xlink:href="#m7f2df03ef2" x="343.78125" y="181.871202" style="stroke: #000000; stroke-width: 0.8"/>
      </g>
     </g>
     <g id="text_29">
      <!-- 0.2 -->
      <g transform="translate(320.878125 185.670421) scale(0.1 -0.1)">
       <use xlink:href="#DejaVuSans-30"/>
       <use xlink:href="#DejaVuSans-2e" transform="translate(63.623047 0)"/>
       <use xlink:href="#DejaVuSans-32" transform="translate(95.410156 0)"/>
      </g>
     </g>
    </g>
    <g id="ytick_9">
     <g id="line2d_51">
      <path d="M 343.78125 142.955817 
L 546.14125 142.955817 
" clip-path="url(#p18034be812)" style="fill: none; stroke: #b0b0b0; stroke-opacity: 0.4; stroke-width: 0.4; stroke-linecap: square"/>
     </g>
     <g id="line2d_52">
      <g>
       <use xlink:href="#m7f2df03ef2" x="343.78125" y="142.955817" style="stroke: #000000; stroke-width: 0.8"/>
      </g>
     </g>
     <g id="text_30">
      <!-- 0.4 -->
      <g transform="translate(320.878125 146.755036) scale(0.1 -0.1)">
       <use xlink:href="#DejaVuSans-30"/>
       <use xlink:href="#DejaVuSans-2e" transform="translate(63.623047 0)"/>
       <use xlink:href="#DejaVuSans-34" transform="translate(95.410156 0)"/>
      </g>
     </g>
    </g>
    <g id="ytick_10">
     <g id="line2d_53">
      <path d="M 343.78125 104.040433 
L 546.14125 104.040433 
" clip-path="url(#p18034be812)" style="fill: none; stroke: #b0b0b0; stroke-opacity: 0.4; stroke-width: 0.4; stroke-linecap: square"/>
     </g>
     <g id="line2d_54">
      <g>
       <use xlink:href="#m7f2df03ef2" x="343.78125" y="104.040433" style="stroke: #000000; stroke-width: 0.8"/>
      </g>
     </g>
     <g id="text_31">
      <!-- 0.6 -->
      <g transform="translate(320.878125 107.839651) scale(0.1 -0.1)">
       <use xlink:href="#DejaVuSans-30"/>
       <use xlink:href="#DejaVuSans-2e" transform="translate(63.623047 0)"/>
       <use xlink:href="#DejaVuSans-36" transform="translate(95.410156 0)"/>
      </g>
     </g>
    </g>
    <g id="ytick_11">
     <g id="line2d_55">
      <path d="M 343.78125 65.125048 
L 546.14125 65.125048 
" clip-path="url(#p18034be812)" style="fill: none; stroke: #b0b0b0; stroke-opacity: 0.4; stroke-width: 0.4; stroke-linecap: square"/>
     </g>
     <g id="line2d_56">
      <g>
       <use xlink:href="#m7f2df03ef2" x="343.78125" y="65.125048" style="stroke: #000000; stroke-width: 0.8"/>
      </g>
     </g>
     <g id="text_32">
      <!-- 0.8 -->
      <g transform="translate(320.878125 68.924267) scale(0.1 -0.1)">
       <use xlink:href="#DejaVuSans-30"/>
       <use xlink:href="#DejaVuSans-2e" transform="translate(63.623047 0)"/>
       <use xlink:href="#DejaVuSans-38" transform="translate(95.410156 0)"/>
      </g>
     </g>
    </g>
    <g id="ytick_12">
     <g id="line2d_57">
      <path d="M 343.78125 26.209663 
L 546.14125 26.209663 
" clip-path="url(#p18034be812)" style="fill: none; stroke: #b0b0b0; stroke-opacity: 0.4; stroke-width: 0.4; stroke-linecap: square"/>
     </g>
     <g id="line2d_58">
      <g>
       <use xlink:href="#m7f2df03ef2" x="343.78125" y="26.209663" style="stroke: #000000; stroke-width: 0.8"/>
      </g>
     </g>
     <g id="text_33">
      <!-- 1.0 -->
      <g transform="translate(320.878125 30.008882) scale(0.1 -0.1)">
       <use xlink:href="#DejaVuSans-31"/>
       <use xlink:href="#DejaVuSans-2e" transform="translate(63.623047 0)"/>
       <use xlink:href="#DejaVuSans-30" transform="translate(95.410156 0)"/>
      </g>
     </g>
    </g>
    <g id="text_34">
     <!-- Precision -->
     <g transform="translate(314.798438 145.805156) rotate(-90) scale(0.1 -0.1)">
      <use xlink:href="#DejaVuSans-50"/>
      <use xlink:href="#DejaVuSans-72" transform="translate(58.552734 0)"/>
      <use xlink:href="#DejaVuSans-65" transform="translate(97.416016 0)"/>
      <use xlink:href="#DejaVuSans-63" transform="translate(158.939453 0)"/>
      <use xlink:href="#DejaVuSans-69" transform="translate(213.919922 0)"/>
      <use xlink:href="#DejaVuSans-73" transform="translate(241.703125 0)"/>
      <use xlink:href="#DejaVuSans-69" transform="translate(293.802734 0)"/>
      <use xlink:href="#DejaVuSans-6f" transform="translate(321.585938 0)"/>
      <use xlink:href="#DejaVuSans-6e" transform="translate(382.767578 0)"/>
     </g>
    </g>
   </g>
   <g id="line2d_59">
    <path d="M 542.249712 142.955817 
L 542.249712 132.676282 
L 540.628237 133.079564 
L 540.628237 128.167971 
L 539.006763 128.577442 
L 539.006763 123.498125 
L 537.385288 123.912118 
L 537.385288 117.307041 
L 534.14234 118.142797 
L 534.14234 116.224221 
L 532.520865 116.646825 
L 532.520865 102.1675 
L 530.899391 102.575875 
L 530.899391 99.977838 
L 529.277917 100.385397 
L 529.277917 99.716501 
L 527.656442 100.127154 
L 527.656442 99.449292 
L 526.034968 99.863075 
L 526.034968 97.778187 
L 522.792019 98.610379 
L 522.792019 97.173012 
L 521.170545 97.592913 
L 519.549071 97.282671 
L 519.549071 96.538672 
L 516.306122 97.396343 
L 516.306122 95.873006 
L 514.684647 96.305698 
L 514.684647 95.527692 
L 513.063173 95.963655 
L 513.063173 91.910962 
L 511.441699 92.340382 
L 511.441699 89.771458 
L 509.820224 90.198048 
L 509.820224 89.315693 
L 508.19875 89.744985 
L 508.19875 87.937515 
L 506.577276 88.366181 
L 506.577276 87.440164 
L 503.334327 88.308681 
L 503.334327 86.402525 
L 501.712853 86.838705 
L 501.712853 84.868883 
L 498.469904 85.744394 
L 498.469904 84.729039 
L 495.226955 85.622464 
L 495.226955 77.992232 
L 488.741058 79.718317 
L 488.741058 77.32733 
L 483.876635 78.660834 
L 483.876635 76.145334 
L 482.25516 76.591188 
L 482.25516 73.969454 
L 480.633686 74.407617 
L 480.633686 70.264816 
L 477.390737 71.11203 
L 477.390737 69.658879 
L 474.147788 70.51926 
L 474.147788 69.016587 
L 469.283365 70.340512 
L 469.283365 67.173226 
L 464.418942 68.508995 
L 464.418942 65.125048 
L 462.797468 65.5623 
L 462.797468 61.993925 
L 454.690096 64.175892 
L 453.068622 64.644611 
L 453.068622 62.692837 
L 446.582724 64.613004 
L 444.96125 65.125048 
L 444.96125 63.021514 
L 440.096827 64.576944 
L 440.096827 62.345378 
L 438.475353 62.869084 
L 438.475353 60.546768 
L 435.232404 61.587286 
L 435.232404 59.138066 
L 431.989455 60.183412 
L 431.989455 57.593038 
L 430.367981 58.10752 
L 430.367981 52.592975 
L 423.882083 54.511761 
L 423.882083 51.432598 
L 420.639135 52.402711 
L 420.639135 49.101066 
L 415.774712 50.531779 
L 414.153237 51.049271 
L 414.153237 47.359329 
L 409.288814 48.834887 
L 409.288814 44.740799 
L 404.424391 46.166271 
L 399.559968 47.829322 
L 397.938494 48.447026 
L 397.938494 43.378215 
L 393.074071 45.039688 
L 391.452596 45.667356 
L 391.452596 39.628762 
L 386.588173 41.177119 
L 383.345224 42.424407 
L 380.102276 43.898475 
L 380.102276 35.475231 
L 376.859327 36.450554 
L 376.859327 26.209663 
L 347.672788 26.209663 
L 347.672788 26.209663 
" clip-path="url(#p18034be812)" style="fill: none; stroke-dasharray: 5.18,2.24; stroke-dashoffset: 0; stroke: #4878cf; stroke-width: 1.4"/>
   </g>
   <g id="line2d_60">
    <path d="M 542.249712 142.955817 
L 542.249712 127.761763 
L 540.628237 128.167971 
L 540.628237 127.421047 
L 539.006763 127.83081 
L 539.006763 124.719319 
L 537.385288 125.133225 
L 537.385288 120.937902 
L 535.763814 121.355207 
L 535.763814 120.915245 
L 534.14234 121.336159 
L 534.14234 108.904856 
L 532.520865 109.320409 
L 532.520865 108.757449 
L 530.899391 109.176473 
L 530.899391 108.607034 
L 529.277917 109.029585 
L 529.277917 108.453518 
L 527.656442 108.879652 
L 527.656442 103.405943 
L 526.034968 103.82778 
L 526.034968 101.878467 
L 524.413494 102.301198 
L 524.413494 100.96238 
L 522.792019 101.387111 
L 522.792019 89.447163 
L 521.170545 89.844884 
L 521.170545 89.016139 
L 519.549071 89.41618 
L 519.549071 87.721078 
L 517.927596 88.120503 
L 517.927596 83.668621 
L 516.306122 84.056857 
L 516.306122 80.258809 
L 514.684647 80.636775 
L 514.684647 77.633565 
L 513.063173 78.003521 
L 513.063173 74.853894 
L 509.820224 75.579928 
L 509.820224 74.488148 
L 506.577276 75.225224 
L 506.577276 71.81363 
L 504.955801 72.172716 
L 504.955801 68.577219 
L 503.334327 68.921671 
L 503.334327 62.486717 
L 501.712853 62.796777 
L 501.712853 61.434796 
L 493.605481 63.021514 
L 493.605481 60.126742 
L 487.119583 61.418821 
L 487.119583 59.886439 
L 482.25516 60.886739 
L 482.25516 59.28774 
L 479.012212 59.962803 
L 479.012212 56.612308 
L 474.147788 57.593038 
L 474.147788 54.006367 
L 472.526314 54.315219 
L 472.526314 52.444754 
L 469.283365 53.04786 
L 469.283365 51.097409 
L 467.661891 51.390206 
L 467.661891 49.373583 
L 457.933045 51.155423 
L 454.690096 51.81189 
L 454.690096 47.245006 
L 446.582724 48.769307 
L 446.582724 40.950339 
L 440.096827 41.901351 
L 440.096827 38.968806 
L 436.853878 39.401319 
L 436.853878 36.273987 
L 427.125032 37.435255 
L 425.503558 37.655365 
L 425.503558 33.99274 
L 420.639135 34.489533 
L 420.639135 30.439597 
L 409.288814 31.198815 
L 406.045865 31.468499 
L 406.045865 26.209663 
L 347.672788 26.209663 
L 347.672788 26.209663 
" clip-path="url(#p18034be812)" style="fill: none; stroke-dasharray: 8.96,2.24,1.4,2.24; stroke-dashoffset: 0; stroke: #6acc65; stroke-width: 1.4"/>
   </g>
   <g id="line2d_61">
    <path d="M 542.249712 142.955817 
L 542.249712 113.680023 
L 540.628237 114.083113 
L 540.628237 108.928355 
L 539.006763 109.329902 
L 539.006763 101.822457 
L 537.385288 102.216274 
L 537.385288 100.968165 
L 535.763814 101.363713 
L 535.763814 93.267247 
L 534.14234 93.648256 
L 534.14234 83.508389 
L 532.520865 83.862085 
L 532.520865 80.395642 
L 530.899391 80.740776 
L 530.899391 72.224476 
L 529.277917 72.537502 
L 529.277917 65.125048 
L 527.656442 65.405015 
L 527.656442 63.136671 
L 526.034968 63.408193 
L 526.034968 53.572043 
L 522.792019 54.006367 
L 522.792019 51.316363 
L 521.170545 51.520483 
L 521.170545 48.722696 
L 517.927596 49.101066 
L 517.927596 46.166271 
L 514.684647 46.513342 
L 514.684647 44.98463 
L 513.063173 45.15078 
L 513.063173 41.986171 
L 508.19875 42.424407 
L 508.19875 39.059083 
L 504.955801 39.306187 
L 504.955801 37.544242 
L 491.984006 38.498732 
L 491.984006 34.578563 
L 482.25516 35.155729 
L 482.25516 32.997231 
L 470.90484 33.598661 
L 469.283365 31.26361 
L 459.554519 31.690704 
L 459.554519 28.989334 
L 449.825673 29.249928 
L 449.825673 26.209663 
L 347.672788 26.209663 
L 347.672788 26.209663 
" clip-path="url(#p18034be812)" style="fill: none; stroke-dasharray: 1.4,2.31; stroke-dashoffset: 0; stroke: #d65f5f; stroke-width: 1.4"/>
   </g>
   <g id="line2d_62">
    <path d="M 542.249712 142.955817 
L 542.249712 68.177235 
L 540.628237 68.453338 
L 540.628237 63.271935 
L 539.006763 63.525786 
L 539.006763 59.095904 
L 537.385288 59.32914 
L 537.385288 58.175872 
L 535.763814 58.405845 
L 535.763814 51.080398 
L 534.14234 51.268813 
L 534.14234 48.660847 
L 532.520865 48.834887 
L 532.520865 47.491514 
L 530.899391 47.659088 
L 530.899391 39.074253 
L 524.413494 39.514068 
L 524.413494 37.951374 
L 519.549071 38.263101 
L 519.549071 34.97439 
L 517.927596 35.054069 
L 517.927596 33.350101 
L 514.684647 33.483567 
L 514.684647 28.080595 
L 482.25516 28.526055 
L 482.25516 26.209663 
L 347.672788 26.209663 
L 347.672788 26.209663 
" clip-path="url(#p18034be812)" style="fill: none; stroke: #b47cc7; stroke-width: 2; stroke-linecap: square"/>
   </g>
   <g id="line2d_63">
    <path d="M 343.78125 142.955817 
L 546.14125 142.955817 
" clip-path="url(#p18034be812)" style="fill: none; stroke-dasharray: 2.96,1.28; stroke-dashoffset: 0; stroke: #000000; stroke-opacity: 0.5; stroke-width: 0.8"/>
   </g>
   <g id="patch_7">
    <path d="M 343.78125 224.678125 
L 343.78125 22.318125 
" style="fill: none; stroke: #000000; stroke-width: 0.8; stroke-linejoin: miter; stroke-linecap: square"/>
   </g>
   <g id="patch_8">
    <path d="M 343.78125 224.678125 
L 546.14125 224.678125 
" style="fill: none; stroke: #000000; stroke-width: 0.8; stroke-linejoin: miter; stroke-linecap: square"/>
   </g>
   <g id="text_35">
    <!-- Precision-Recall Curve -->
    <g transform="translate(378.51875 16.318125) scale(0.12 -0.12)">
     <use xlink:href="#DejaVuSans-50"/>
     <use xlink:href="#DejaVuSans-72" transform="translate(58.552734 0)"/>
     <use xlink:href="#DejaVuSans-65" transform="translate(97.416016 0)"/>
     <use xlink:href="#DejaVuSans-63" transform="translate(158.939453 0)"/>
     <use xlink:href="#DejaVuSans-69" transform="translate(213.919922 0)"/>
     <use xlink:href="#DejaVuSans-73" transform="translate(241.703125 0)"/>
     <use xlink:href="#DejaVuSans-69" transform="translate(293.802734 0)"/>
     <use xlink:href="#DejaVuSans-6f" transform="translate(321.585938 0)"/>
     <use xlink:href="#DejaVuSans-6e" transform="translate(382.767578 0)"/>
     <use xlink:href="#DejaVuSans-2d" transform="translate(446.146484 0)"/>
     <use xlink:href="#DejaVuSans-52" transform="translate(482.230469 0)"/>
     <use xlink:href="#DejaVuSans-65" transform="translate(547.212891 0)"/>
     <use xlink:href="#DejaVuSans-63" transform="translate(608.736328 0)"/>
     <use xlink:href="#DejaVuSans-61" transform="translate(663.716797 0)"/>
     <use xlink:href="#DejaVuSans-6c" transform="translate(724.996094 0)"/>
     <use xlink:href="#DejaVuSans-6c" transform="translate(752.779297 0)"/>
     <use xlink:href="#DejaVuSans-20" transform="translate(780.5625 0)"/>
     <use xlink:href="#DejaVuSans-43" transform="translate(812.349609 0)"/>
     <use xlink:href="#DejaVuSans-75" transform="translate(882.173828 0)"/>
     <use xlink:href="#DejaVuSans-72" transform="translate(945.552734 0)"/>
     <use xlink:href="#DejaVuSans-76" transform="translate(986.666016 0)"/>
     <use xlink:href="#DejaVuSans-65" transform="translate(1045.845703 0)"/>
    </g>
   </g>
   <g id="legend_2">
    <g id="patch_9">
     <path d="M 348.33125 221.428125 
L 443.501406 221.428125 
Q 444.801406 221.428125 444.801406 220.128125 
L 444.801406 173.074219 
Q 444.801406 171.774219 443.501406 171.774219 
L 348.33125 171.774219 
Q 347.03125 171.774219 347.03125 173.074219 
L 347.03125 220.128125 
Q 347.03125 221.428125 348.33125 221.428125 
z
" style="fill: #ffffff; opacity: 0.9; stroke: #cccccc; stroke-linejoin: miter"/>
    </g>
    <g id="line2d_64">
     <path d="M 349.63125 177.038203 
L 356.13125 177.038203 
L 362.63125 177.038203 
" style="fill: none; stroke-dasharray: 5.18,2.24; stroke-dashoffset: 0; stroke: #4878cf; stroke-width: 1.4"/>
    </g>
    <g id="text_36">
     <!-- Baseline (AP=0.811) -->
     <g transform="translate(367.83125 179.313203) scale(0.065 -0.065)">
      <use xlink:href="#DejaVuSans-42"/>
      <use xlink:href="#DejaVuSans-61" transform="translate(68.603516 0)"/>
      <use xlink:href="#DejaVuSans-73" transform="translate(129.882812 0)"/>
      <use xlink:href="#DejaVuSans-65" transform="translate(181.982422 0)"/>
      <use xlink:href="#DejaVuSans-6c" transform="translate(243.505859 0)"/>
      <use xlink:href="#DejaVuSans-69" transform="translate(271.289062 0)"/>
      <use xlink:href="#DejaVuSans-6e" transform="translate(299.072266 0)"/>
      <use xlink:href="#DejaVuSans-65" transform="translate(362.451172 0)"/>
      <use xlink:href="#DejaVuSans-20" transform="translate(423.974609 0)"/>
      <use xlink:href="#DejaVuSans-28" transform="translate(455.761719 0)"/>
      <use xlink:href="#DejaVuSans-41" transform="translate(494.775391 0)"/>
      <use xlink:href="#DejaVuSans-50" transform="translate(563.183594 0)"/>
      <use xlink:href="#DejaVuSans-3d" transform="translate(623.486328 0)"/>
      <use xlink:href="#DejaVuSans-30" transform="translate(707.275391 0)"/>
      <use xlink:href="#DejaVuSans-2e" transform="translate(770.898438 0)"/>
      <use xlink:href="#DejaVuSans-38" transform="translate(802.685547 0)"/>
      <use xlink:href="#DejaVuSans-31" transform="translate(866.308594 0)"/>
      <use xlink:href="#DejaVuSans-31" transform="translate(929.931641 0)"/>
      <use xlink:href="#DejaVuSans-29" transform="translate(993.554688 0)"/>
     </g>
    </g>
    <g id="line2d_65">
     <path d="M 349.63125 186.578984 
L 356.13125 186.578984 
L 362.63125 186.578984 
" style="fill: none; stroke-dasharray: 8.96,2.24,1.4,2.24; stroke-dashoffset: 0; stroke: #6acc65; stroke-width: 1.4"/>
    </g>
    <g id="text_37">
     <!-- Method-A (AP=0.875) -->
     <g transform="translate(367.83125 188.853984) scale(0.065 -0.065)">
      <defs>
       <path id="DejaVuSans-37" d="M 525 4666 
L 3525 4666 
L 3525 4397 
L 1831 0 
L 1172 0 
L 2766 4134 
L 525 4134 
L 525 4666 
z
" transform="scale(0.015625)"/>
       <path id="DejaVuSans-35" d="M 691 4666 
L 3169 4666 
L 3169 4134 
L 1269 4134 
L 1269 2991 
Q 1406 3038 1543 3061 
Q 1681 3084 1819 3084 
Q 2600 3084 3056 2656 
Q 3513 2228 3513 1497 
Q 3513 744 3044 326 
Q 2575 -91 1722 -91 
Q 1428 -91 1123 -41 
Q 819 9 494 109 
L 494 744 
Q 775 591 1075 516 
Q 1375 441 1709 441 
Q 2250 441 2565 725 
Q 2881 1009 2881 1497 
Q 2881 1984 2565 2268 
Q 2250 2553 1709 2553 
Q 1456 2553 1204 2497 
Q 953 2441 691 2322 
L 691 4666 
z
" transform="scale(0.015625)"/>
      </defs>
      <use xlink:href="#DejaVuSans-4d"/>
      <use xlink:href="#DejaVuSans-65" transform="translate(86.279297 0)"/>
      <use xlink:href="#DejaVuSans-74" transform="translate(147.802734 0)"/>
      <use xlink:href="#DejaVuSans-68" transform="translate(187.011719 0)"/>
      <use xlink:href="#DejaVuSans-6f" transform="translate(250.390625 0)"/>
      <use xlink:href="#DejaVuSans-64" transform="translate(311.572266 0)"/>
      <use xlink:href="#DejaVuSans-2d" transform="translate(375.048828 0)"/>
      <use xlink:href="#DejaVuSans-41" transform="translate(408.882812 0)"/>
      <use xlink:href="#DejaVuSans-20" transform="translate(477.291016 0)"/>
      <use xlink:href="#DejaVuSans-28" transform="translate(509.078125 0)"/>
      <use xlink:href="#DejaVuSans-41" transform="translate(548.091797 0)"/>
      <use xlink:href="#DejaVuSans-50" transform="translate(616.5 0)"/>
      <use xlink:href="#DejaVuSans-3d" transform="translate(676.802734 0)"/>
      <use xlink:href="#DejaVuSans-30" transform="translate(760.591797 0)"/>
      <use xlink:href="#DejaVuSans-2e" transform="translate(824.214844 0)"/>
      <use xlink:href="#DejaVuSans-38" transform="translate(856.001953 0)"/>
      <use xlink:href="#DejaVuSans-37" transform="translate(919.625 0)"/>
      <use xlink:href="#DejaVuSans-35" transform="translate(983.248047 0)"/>
      <use xlink:href="#DejaVuSans-29" transform="translate(1046.871094 0)"/>
     </g>
    </g>
    <g id="line2d_66">
     <path d="M 349.63125 196.119766 
L 356.13125 196.119766 
L 362.63125 196.119766 
" style="fill: none; stroke-dasharray: 1.4,2.31; stroke-dashoffset: 0; stroke: #d65f5f; stroke-width: 1.4"/>
    </g>
    <g id="text_38">
     <!-- Method-B (AP=0.952) -->
     <g transform="translate(367.83125 198.394766) scale(0.065 -0.065)">
      <use xlink:href="#DejaVuSans-4d"/>
      <use xlink:href="#DejaVuSans-65" transform="translate(86.279297 0)"/>
      <use xlink:href="#DejaVuSans-74" transform="translate(147.802734 0)"/>
      <use xlink:href="#DejaVuSans-68" transform="translate(187.011719 0)"/>
      <use xlink:href="#DejaVuSans-6f" transform="translate(250.390625 0)"/>
      <use xlink:href="#DejaVuSans-64" transform="translate(311.572266 0)"/>
      <use xlink:href="#DejaVuSans-2d" transform="translate(375.048828 0)"/>
      <use xlink:href="#DejaVuSans-42" transform="translate(407.507812 0)"/>
      <use xlink:href="#DejaVuSans-20" transform="translate(476.111328 0)"/>
      <use xlink:href="#DejaVuSans-28" transform="translate(507.898438 0)"/>
      <use xlink:href="#DejaVuSans-41" transform="translate(546.912109 0)"/>
      <use xlink:href="#DejaVuSans-50" transform="translate(615.320312 0)"/>
      <use xlink:href="#DejaVuSans-3d" transform="translate(675.623047 0)"/>
      <use xlink:href="#DejaVuSans-30" transform="translate(759.412109 0)"/>
      <use xlink:href="#DejaVuSans-2e" transform="translate(823.035156 0)"/>
      <use xlink:href="#DejaVuSans-39" transform="translate(854.822266 0)"/>
      <use xlink:href="#DejaVuSans-35" transform="translate(918.445312 0)"/>
      <use xlink:href="#DejaVuSans-32" transform="translate(982.068359 0)"/>
      <use xlink:href="#DejaVuSans-29" transform="translate(1045.691406 0)"/>
     </g>
    </g>
    <g id="line2d_67">
     <path d="M 349.63125 205.660547 
L 356.13125 205.660547 
L 362.63125 205.660547 
" style="fill: none; stroke: #b47cc7; stroke-width: 2; stroke-linecap: square"/>
    </g>
    <g id="text_39">
     <!-- OursModel (AP=0.984) -->
     <g transform="translate(367.83125 207.935547) scale(0.065 -0.065)">
      <use xlink:href="#DejaVuSans-4f"/>
      <use xlink:href="#DejaVuSans-75" transform="translate(78.710938 0)"/>
      <use xlink:href="#DejaVuSans-72" transform="translate(142.089844 0)"/>
      <use xlink:href="#DejaVuSans-73" transform="translate(183.203125 0)"/>
      <use xlink:href="#DejaVuSans-4d" transform="translate(235.302734 0)"/>
      <use xlink:href="#DejaVuSans-6f" transform="translate(321.582031 0)"/>
      <use xlink:href="#DejaVuSans-64" transform="translate(382.763672 0)"/>
      <use xlink:href="#DejaVuSans-65" transform="translate(446.240234 0)"/>
      <use xlink:href="#DejaVuSans-6c" transform="translate(507.763672 0)"/>
      <use xlink:href="#DejaVuSans-20" transform="translate(535.546875 0)"/>
      <use xlink:href="#DejaVuSans-28" transform="translate(567.333984 0)"/>
      <use xlink:href="#DejaVuSans-41" transform="translate(606.347656 0)"/>
      <use xlink:href="#DejaVuSans-50" transform="translate(674.755859 0)"/>
      <use xlink:href="#DejaVuSans-3d" transform="translate(735.058594 0)"/>
      <use xlink:href="#DejaVuSans-30" transform="translate(818.847656 0)"/>
      <use xlink:href="#DejaVuSans-2e" transform="translate(882.470703 0)"/>
      <use xlink:href="#DejaVuSans-39" transform="translate(914.257812 0)"/>
      <use xlink:href="#DejaVuSans-38" transform="translate(977.880859 0)"/>
      <use xlink:href="#DejaVuSans-34" transform="translate(1041.503906 0)"/>
      <use xlink:href="#DejaVuSans-29" transform="translate(1105.126953 0)"/>
     </g>
    </g>
    <g id="line2d_68">
     <path d="M 349.63125 215.201328 
L 356.13125 215.201328 
L 362.63125 215.201328 
" style="fill: none; stroke-dasharray: 2.96,1.28; stroke-dashoffset: 0; stroke: #000000; stroke-opacity: 0.5; stroke-width: 0.8"/>
    </g>
    <g id="text_40">
     <!-- Prevalence (0.40) -->
     <g transform="translate(367.83125 217.476328) scale(0.065 -0.065)">
      <use xlink:href="#DejaVuSans-50"/>
      <use xlink:href="#DejaVuSans-72" transform="translate(58.552734 0)"/>
      <use xlink:href="#DejaVuSans-65" transform="translate(97.416016 0)"/>
      <use xlink:href="#DejaVuSans-76" transform="translate(158.939453 0)"/>
      <use xlink:href="#DejaVuSans-61" transform="translate(218.119141 0)"/>
      <use xlink:href="#DejaVuSans-6c" transform="translate(279.398438 0)"/>
      <use xlink:href="#DejaVuSans-65" transform="translate(307.181641 0)"/>
      <use xlink:href="#DejaVuSans-6e" transform="translate(368.705078 0)"/>
      <use xlink:href="#DejaVuSans-63" transform="translate(432.083984 0)"/>
      <use xlink:href="#DejaVuSans-65" transform="translate(487.064453 0)"/>
      <use xlink:href="#DejaVuSans-20" transform="translate(548.587891 0)"/>
      <use xlink:href="#DejaVuSans-28" transform="translate(580.375 0)"/>
      <use xlink:href="#DejaVuSans-30" transform="translate(619.388672 0)"/>
      <use xlink:href="#DejaVuSans-2e" transform="translate(683.011719 0)"/>
      <use xlink:href="#DejaVuSans-34" transform="translate(714.798828 0)"/>
      <use xlink:href="#DejaVuSans-30" transform="translate(778.421875 0)"/>
      <use xlink:href="#DejaVuSans-29" transform="translate(842.044922 0)"/>
     </g>
    </g>
   </g>
  </g>
 </g>
 <defs>
  <clipPath id="p28075eb5b6">
   <rect x="43.78125" y="22.318125" width="202.36" height="202.36"/>
  </clipPath>
  <clipPath id="p18034be812">
   <rect x="343.78125" y="22.318125" width="202.36" height="202.36"/>
  </clipPath>
 </defs>
</svg>
