<?xml version="1.0" encoding="utf-8" standalone="no"?>
<!DOCTYPE svg PUBLIC "-//W3C//DTD SVG 1.1//EN"
  "http://www.w3.org/Graphics/SVG/1.1/DTD/svg11.dtd">
<svg xmlns:xlink="http://www.w3.org/1999/xlink" width="599.332443pt" height="289.609648pt" viewBox="0 0 599.332443 289.609648" xmlns="http://www.w3.org/2000/svg" version="1.1">
 <metadata>
  <rdf:RDF xmlns:dc="http://purl.org/dc/elements/1.1/" xmlns:cc="http://creativecommons.org/ns#" xmlns:rdf="http://www.w3.org/1999/02/22-rdf-syntax-ns#">
   <cc:Work>
    <dc:type rdf:resource="http://purl.org/dc/dcmitype/StillImage"/>
    <dc:date>2026-05-25T00:43:55.500643</dc:date>
    <dc:format>image/svg+xml</dc:format>
    <dc:creator>
     <cc:Agent>
      <dc:title>Matplotlib v3.10.9, https://matplotlib.org/</dc:title>
     </cc:Agent>
    </dc:creator>
   </cc:Work>
  </rdf:RDF>
 </metadata>
 <defs>
  <style type="text/css">*{stroke-linejoin: round; stroke-linecap: butt}</style>
 </defs>
 <g id="figure_1">
  <g id="patch_1">
   <path d="M 0 289.609648 
L 599.332443 289.609648 
L 599.332443 0 
L 0 0 
z
" style="fill: #ffffff"/>
  </g>
  <g id="axes_1">
   <g id="patch_2">
    <path d="M 43.15875 252.053398 
L 272.894023 252.053398 
L 272.894023 22.318125 
L 43.15875 22.318125 
z
" style="fill: #ffffff"/>
   </g>
   <g id="line2d_1">
    <path d="M 47.576736 247.635412 
L 268.476037 26.736111 
" clip-path="url(#p6c8e11eba3)" style="fill: none; stroke-dasharray: 3.7,1.6; stroke-dashoffset: 0; stroke: #bbbbbb"/>
   </g>
   <g id="matplotlib.axis_1">
    <g id="xtick_1">
     <g id="line2d_2">
      <defs>
       <path id="m0b2daf9e0b" d="M 0 0 
L 0 3.5 
" style="stroke: #000000; stroke-width: 0.8"/>
      </defs>
      <g>
       <use xlink:href="#m0b2daf9e0b" x="47.576736" y="252.053398" style="stroke: #000000; stroke-width: 0.8"/>
      </g>
     </g>
     <g id="text_1">
      <!-- 0.0 -->
      <g transform="translate(40.42033 265.891991) scale(0.09 -0.09)">
       <defs>
        <path id="DejaVuSans-30" d="M 2034 4250 
Q 1547 4250 1301 3770 
Q 1056 3291 1056 2328 
Q 1056 1369 1301 889 
Q 1547 409 2034 409 
Q 2525 409 2770 889 
Q 3016 1369 3016 2328 
Q 3016 3291 2770 3770 
Q 2525 4250 2034 4250 
z
M 2034 4750 
Q 2819 4750 3233 4129 
Q 3647 3509 3647 2328 
Q 3647 1150 3233 529 
Q 2819 -91 2034 -91 
Q 1250 -91 836 529 
Q 422 1150 422 2328 
Q 422 3509 836 4129 
Q 1250 4750 2034 4750 
z
" transform="scale(0.015625)"/>
        <path id="DejaVuSans-2e" d="M 684 794 
L 1344 794 
L 1344 0 
L 684 0 
L 684 794 
z
" transform="scale(0.015625)"/>
       </defs>
       <use xlink:href="#DejaVuSans-30"/>
       <use xlink:href="#DejaVuSans-2e" transform="translate(63.623047 0)"/>
       <use xlink:href="#DejaVuSans-30" transform="translate(95.410156 0)"/>
      </g>
     </g>
    </g>
    <g id="xtick_2">
     <g id="line2d_3">
      <g>
       <use xlink:href="#m0b2daf9e0b" x="91.756596" y="252.053398" style="stroke: #000000; stroke-width: 0.8"/>
      </g>
     </g>
     <g id="text_2">
      <!-- 0.2 -->
      <g transform="translate(84.60019 265.891991) scale(0.09 -0.09)">
       <defs>
        <path id="DejaVuSans-32" d="M 1228 531 
L 3431 531 
L 3431 0 
L 469 0 
L 469 531 
Q 828 903 1448 1529 
Q 2069 2156 2228 2338 
Q 2531 2678 2651 2914 
Q 2772 3150 2772 3378 
Q 2772 3750 2511 3984 
Q 2250 4219 1831 4219 
Q 1534 4219 1204 4116 
Q 875 4013 500 3803 
L 500 4441 
Q 881 4594 1212 4672 
Q 1544 4750 1819 4750 
Q 2544 4750 2975 4387 
Q 3406 4025 3406 3419 
Q 3406 3131 3298 2873 
Q 3191 2616 2906 2266 
Q 2828 2175 2409 1742 
Q 1991 1309 1228 531 
z
" transform="scale(0.015625)"/>
       </defs>
       <use xlink:href="#DejaVuSans-30"/>
       <use xlink:href="#DejaVuSans-2e" transform="translate(63.623047 0)"/>
       <use xlink:href="#DejaVuSans-32" transform="translate(95.410156 0)"/>
      </g>
     </g>
    </g>
    <g id="xtick_3">
     <g id="line2d_4">
      <g>
       <use xlink:href="#m0b2daf9e0b" x="135.936456" y="252.053398" style="stroke: #000000; stroke-width: 0.8"/>
      </g>
     </g>
     <g id="text_3">
      <!-- 0.4 -->
      <g transform="translate(128.78005 265.891991) scale(0.09 -0.09)">
       <defs>
        <path id="DejaVuSans-34" d="M 2419 4116 
L 825 1625 
L 2419 1625 
L 2419 4116 
z
M 2253 4666 
L 3047 4666 
L 3047 1625 
L 3713 1625 
L 3713 1100 
L 3047 1100 
L 3047 0 
L 2419 0 
L 2419 1100 
L 313 1100 
L 313 1709 
L 2253 4666 
z
" transform="scale(0.015625)"/>
       </defs>
       <use xlink:href="#DejaVuSans-30"/>
       <use xlink:href="#DejaVuSans-2e" transform="translate(63.623047 0)"/>
       <use xlink:href="#DejaVuSans-34" transform="translate(95.410156 0)"/>
      </g>
     </g>
    </g>
    <g id="xtick_4">
     <g id="line2d_5">
      <g>
       <use xlink:href="#m0b2daf9e0b" x="180.116316" y="252.053398" style="stroke: #000000; stroke-width: 0.8"/>
      </g>
     </g>
     <g id="text_4">
      <!-- 0.6 -->
      <g transform="translate(172.95991 265.891991) scale(0.09 -0.09)">
       <defs>
        <path id="DejaVuSans-36" d="M 2113 2584 
Q 1688 2584 1439 2293 
Q 1191 2003 1191 1497 
Q 1191 994 1439 701 
Q 1688 409 2113 409 
Q 2538 409 2786 701 
Q 3034 994 3034 1497 
Q 3034 2003 2786 2293 
Q 2538 2584 2113 2584 
z
M 3366 4563 
L 3366 3988 
Q 3128 4100 2886 4159 
Q 2644 4219 2406 4219 
Q 1781 4219 1451 3797 
Q 1122 3375 1075 2522 
Q 1259 2794 1537 2939 
Q 1816 3084 2150 3084 
Q 2853 3084 3261 2657 
Q 3669 2231 3669 1497 
Q 3669 778 3244 343 
Q 2819 -91 2113 -91 
Q 1303 -91 875 529 
Q 447 1150 447 2328 
Q 447 3434 972 4092 
Q 1497 4750 2381 4750 
Q 2619 4750 2861 4703 
Q 3103 4656 3366 4563 
z
" transform="scale(0.015625)"/>
       </defs>
       <use xlink:href="#DejaVuSans-30"/>
       <use xlink:href="#DejaVuSans-2e" transform="translate(63.623047 0)"/>
       <use xlink:href="#DejaVuSans-36" transform="translate(95.410156 0)"/>
      </g>
     </g>
    </g>
    <g id="xtick_5">
     <g id="line2d_6">
      <g>
       <use xlink:href="#m0b2daf9e0b" x="224.296177" y="252.053398" style="stroke: #000000; stroke-width: 0.8"/>
      </g>
     </g>
     <g id="text_5">
      <!-- 0.8 -->
      <g transform="translate(217.13977 265.891991) scale(0.09 -0.09)">
       <defs>
        <path id="DejaVuSans-38" d="M 2034 2216 
Q 1584 2216 1326 1975 
Q 1069 1734 1069 1313 
Q 1069 891 1326 650 
Q 1584 409 2034 409 
Q 2484 409 2743 651 
Q 3003 894 3003 1313 
Q 3003 1734 2745 1975 
Q 2488 2216 2034 2216 
z
M 1403 2484 
Q 997 2584 770 2862 
Q 544 3141 544 3541 
Q 544 4100 942 4425 
Q 1341 4750 2034 4750 
Q 2731 4750 3128 4425 
Q 3525 4100 3525 3541 
Q 3525 3141 3298 2862 
Q 3072 2584 2669 2484 
Q 3125 2378 3379 2068 
Q 3634 1759 3634 1313 
Q 3634 634 3220 271 
Q 2806 -91 2034 -91 
Q 1263 -91 848 271 
Q 434 634 434 1313 
Q 434 1759 690 2068 
Q 947 2378 1403 2484 
z
M 1172 3481 
Q 1172 3119 1398 2916 
Q 1625 2713 2034 2713 
Q 2441 2713 2670 2916 
Q 2900 3119 2900 3481 
Q 2900 3844 2670 4047 
Q 2441 4250 2034 4250 
Q 1625 4250 1398 4047 
Q 1172 3844 1172 3481 
z
" transform="scale(0.015625)"/>
       </defs>
       <use xlink:href="#DejaVuSans-30"/>
       <use xlink:href="#DejaVuSans-2e" transform="translate(63.623047 0)"/>
       <use xlink:href="#DejaVuSans-38" transform="translate(95.410156 0)"/>
      </g>
     </g>
    </g>
    <g id="xtick_6">
     <g id="line2d_7">
      <g>
       <use xlink:href="#m0b2daf9e0b" x="268.476037" y="252.053398" style="stroke: #000000; stroke-width: 0.8"/>
      </g>
     </g>
     <g id="text_6">
      <!-- 1.0 -->
      <g transform="translate(261.31963 265.891991) scale(0.09 -0.09)">
       <defs>
        <path id="DejaVuSans-31" d="M 794 531 
L 1825 531 
L 1825 4091 
L 703 3866 
L 703 4441 
L 1819 4666 
L 2450 4666 
L 2450 531 
L 3481 531 
L 3481 0 
L 794 0 
L 794 531 
z
" transform="scale(0.015625)"/>
       </defs>
       <use xlink:href="#DejaVuSans-31"/>
       <use xlink:href="#DejaVuSans-2e" transform="translate(63.623047 0)"/>
       <use xlink:href="#DejaVuSans-30" transform="translate(95.410156 0)"/>
      </g>
     </g>
    </g>
    <g id="text_7">
     <!-- False Positive Rate -->
     <g transform="translate(106.913339 280.121991) scale(0.11 -0.11)">
      <defs>
       <path id="DejaVuSans-46" d="M 628 4666 
L 3309 4666 
L 3309 4134 
L 1259 4134 
L 1259 2759 
L 3109 2759 
L 3109 2228 
L 1259 2228 
L 1259 0 
L 628 0 
L 628 4666 
z
" transform="scale(0.015625)"/>
       <path id="DejaVuSans-61" d="M 2194 1759 
Q 1497 1759 1228 1600 
Q 959 1441 959 1056 
Q 959 750 1161 570 
Q 1363 391 1709 391 
Q 2188 391 2477 730 
Q 2766 1069 2766 1631 
L 2766 1759 
L 2194 1759 
z
M 3341 1997 
L 3341 0 
L 2766 0 
L 2766 531 
Q 2569 213 2275 61 
Q 1981 -91 1556 -91 
Q 1019 -91 701 211 
Q 384 513 384 1019 
Q 384 1609 779 1909 
Q 1175 2209 1959 2209 
L 2766 2209 
L 2766 2266 
Q 2766 2663 2505 2880 
Q 2244 3097 1772 3097 
Q 1472 3097 1187 3025 
Q 903 2953 641 2809 
L 641 3341 
Q 956 3463 1253 3523 
Q 1550 3584 1831 3584 
Q 2591 3584 2966 3190 
Q 3341 2797 3341 1997 
z
" transform="scale(0.015625)"/>
       <path id="DejaVuSans-6c" d="M 603 4863 
L 1178 4863 
L 1178 0 
L 603 0 
L 603 4863 
z
" transform="scale(0.015625)"/>
       <path id="DejaVuSans-73" d="M 2834 3397 
L 2834 2853 
Q 2591 2978 2328 3040 
Q 2066 3103 1784 3103 
Q 1356 3103 1142 2972 
Q 928 2841 928 2578 
Q 928 2378 1081 2264 
Q 1234 2150 1697 2047 
L 1894 2003 
Q 2506 1872 2764 1633 
Q 3022 1394 3022 966 
Q 3022 478 2636 193 
Q 2250 -91 1575 -91 
Q 1294 -91 989 -36 
Q 684 19 347 128 
L 347 722 
Q 666 556 975 473 
Q 1284 391 1588 391 
Q 1994 391 2212 530 
Q 2431 669 2431 922 
Q 2431 1156 2273 1281 
Q 2116 1406 1581 1522 
L 1381 1569 
Q 847 1681 609 1914 
Q 372 2147 372 2553 
Q 372 3047 722 3315 
Q 1072 3584 1716 3584 
Q 2034 3584 2315 3537 
Q 2597 3491 2834 3397 
z
" transform="scale(0.015625)"/>
       <path id="DejaVuSans-65" d="M 3597 1894 
L 3597 1613 
L 953 1613 
Q 991 1019 1311 708 
Q 1631 397 2203 397 
Q 2534 397 2845 478 
Q 3156 559 3463 722 
L 3463 178 
Q 3153 47 2828 -22 
Q 2503 -91 2169 -91 
Q 1331 -91 842 396 
Q 353 884 353 1716 
Q 353 2575 817 3079 
Q 1281 3584 2069 3584 
Q 2775 3584 3186 3129 
Q 3597 2675 3597 1894 
z
M 3022 2063 
Q 3016 2534 2758 2815 
Q 2500 3097 2075 3097 
Q 1594 3097 1305 2825 
Q 1016 2553 972 2059 
L 3022 2063 
z
" transform="scale(0.015625)"/>
       <path id="DejaVuSans-20" transform="scale(0.015625)"/>
       <path id="DejaVuSans-50" d="M 1259 4147 
L 1259 2394 
L 2053 2394 
Q 2494 2394 2734 2622 
Q 2975 2850 2975 3272 
Q 2975 3691 2734 3919 
Q 2494 4147 2053 4147 
L 1259 4147 
z
M 628 4666 
L 2053 4666 
Q 2838 4666 3239 4311 
Q 3641 3956 3641 3272 
Q 3641 2581 3239 2228 
Q 2838 1875 2053 1875 
L 1259 1875 
L 1259 0 
L 628 0 
L 628 4666 
z
" transform="scale(0.015625)"/>
       <path id="DejaVuSans-6f" d="M 1959 3097 
Q 1497 3097 1228 2736 
Q 959 2375 959 1747 
Q 959 1119 1226 758 
Q 1494 397 1959 397 
Q 2419 397 2687 759 
Q 2956 1122 2956 1747 
Q 2956 2369 2687 2733 
Q 2419 3097 1959 3097 
z
M 1959 3584 
Q 2709 3584 3137 3096 
Q 3566 2609 3566 1747 
Q 3566 888 3137 398 
Q 2709 -91 1959 -91 
Q 1206 -91 779 398 
Q 353 888 353 1747 
Q 353 2609 779 3096 
Q 1206 3584 1959 3584 
z
" transform="scale(0.015625)"/>
       <path id="DejaVuSans-69" d="M 603 3500 
L 1178 3500 
L 1178 0 
L 603 0 
L 603 3500 
z
M 603 4863 
L 1178 4863 
L 1178 4134 
L 603 4134 
L 603 4863 
z
" transform="scale(0.015625)"/>
       <path id="DejaVuSans-74" d="M 1172 4494 
L 1172 3500 
L 2356 3500 
L 2356 3053 
L 1172 3053 
L 1172 1153 
Q 1172 725 1289 603 
Q 1406 481 1766 481 
L 2356 481 
L 2356 0 
L 1766 0 
Q 1100 0 847 248 
Q 594 497 594 1153 
L 594 3053 
L 172 3053 
L 172 3500 
L 594 3500 
L 594 4494 
L 1172 4494 
z
" transform="scale(0.015625)"/>
       <path id="DejaVuSans-76" d="M 191 3500 
L 800 3500 
L 1894 563 
L 2988 3500 
L 3597 3500 
L 2284 0 
L 1503 0 
L 191 3500 
z
" transform="scale(0.015625)"/>
       <path id="DejaVuSans-52" d="M 2841 2188 
Q 3044 2119 3236 1894 
Q 3428 1669 3622 1275 
L 4263 0 
L 3584 0 
L 2988 1197 
Q 2756 1666 2539 1819 
Q 2322 1972 1947 1972 
L 1259 1972 
L 1259 0 
L 628 0 
L 628 4666 
L 2053 4666 
Q 2853 4666 3247 4331 
Q 3641 3997 3641 3322 
Q 3641 2881 3436 2590 
Q 3231 2300 2841 2188 
z
M 1259 4147 
L 1259 2491 
L 2053 2491 
Q 2509 2491 2742 2702 
Q 2975 2913 2975 3322 
Q 2975 3731 2742 3939 
Q 2509 4147 2053 4147 
L 1259 4147 
z
" transform="scale(0.015625)"/>
      </defs>
      <use xlink:href="#DejaVuSans-46"/>
      <use xlink:href="#DejaVuSans-61" transform="translate(48.394531 0)"/>
      <use xlink:href="#DejaVuSans-6c" transform="translate(109.673828 0)"/>
      <use xlink:href="#DejaVuSans-73" transform="translate(137.457031 0)"/>
      <use xlink:href="#DejaVuSans-65" transform="translate(189.556641 0)"/>
      <use xlink:href="#DejaVuSans-20" transform="translate(251.080078 0)"/>
      <use xlink:href="#DejaVuSans-50" transform="translate(282.867188 0)"/>
      <use xlink:href="#DejaVuSans-6f" transform="translate(339.544922 0)"/>
      <use xlink:href="#DejaVuSans-73" transform="translate(400.726562 0)"/>
      <use xlink:href="#DejaVuSans-69" transform="translate(452.826172 0)"/>
      <use xlink:href="#DejaVuSans-74" transform="translate(480.609375 0)"/>
      <use xlink:href="#DejaVuSans-69" transform="translate(519.818359 0)"/>
      <use xlink:href="#DejaVuSans-76" transform="translate(547.601562 0)"/>
      <use xlink:href="#DejaVuSans-65" transform="translate(606.78125 0)"/>
      <use xlink:href="#DejaVuSans-20" transform="translate(668.304688 0)"/>
      <use xlink:href="#DejaVuSans-52" transform="translate(700.091797 0)"/>
      <use xlink:href="#DejaVuSans-61" transform="translate(767.324219 0)"/>
      <use xlink:href="#DejaVuSans-74" transform="translate(828.603516 0)"/>
      <use xlink:href="#DejaVuSans-65" transform="translate(867.8125 0)"/>
     </g>
    </g>
   </g>
   <g id="matplotlib.axis_2">
    <g id="ytick_1">
     <g id="line2d_8">
      <defs>
       <path id="mb1667e2a8b" d="M 0 0 
L -3.5 0 
" style="stroke: #000000; stroke-width: 0.8"/>
      </defs>
      <g>
       <use xlink:href="#mb1667e2a8b" x="43.15875" y="247.635412" style="stroke: #000000; stroke-width: 0.8"/>
      </g>
     </g>
     <g id="text_8">
      <!-- 0.0 -->
      <g transform="translate(21.845938 251.054709) scale(0.09 -0.09)">
       <use xlink:href="#DejaVuSans-30"/>
       <use xlink:href="#DejaVuSans-2e" transform="translate(63.623047 0)"/>
       <use xlink:href="#DejaVuSans-30" transform="translate(95.410156 0)"/>
      </g>
     </g>
    </g>
    <g id="ytick_2">
     <g id="line2d_9">
      <g>
       <use xlink:href="#mb1667e2a8b" x="43.15875" y="203.455552" style="stroke: #000000; stroke-width: 0.8"/>
      </g>
     </g>
     <g id="text_9">
      <!-- 0.2 -->
      <g transform="translate(21.845938 206.874848) scale(0.09 -0.09)">
       <use xlink:href="#DejaVuSans-30"/>
       <use xlink:href="#DejaVuSans-2e" transform="translate(63.623047 0)"/>
       <use xlink:href="#DejaVuSans-32" transform="translate(95.410156 0)"/>
      </g>
     </g>
    </g>
    <g id="ytick_3">
     <g id="line2d_10">
      <g>
       <use xlink:href="#mb1667e2a8b" x="43.15875" y="159.275691" style="stroke: #000000; stroke-width: 0.8"/>
      </g>
     </g>
     <g id="text_10">
      <!-- 0.4 -->
      <g transform="translate(21.845938 162.694988) scale(0.09 -0.09)">
       <use xlink:href="#DejaVuSans-30"/>
       <use xlink:href="#DejaVuSans-2e" transform="translate(63.623047 0)"/>
       <use xlink:href="#DejaVuSans-34" transform="translate(95.410156 0)"/>
      </g>
     </g>
    </g>
    <g id="ytick_4">
     <g id="line2d_11">
      <g>
       <use xlink:href="#mb1667e2a8b" x="43.15875" y="115.095831" style="stroke: #000000; stroke-width: 0.8"/>
      </g>
     </g>
     <g id="text_11">
      <!-- 0.6 -->
      <g transform="translate(21.845938 118.515128) scale(0.09 -0.09)">
       <use xlink:href="#DejaVuSans-30"/>
       <use xlink:href="#DejaVuSans-2e" transform="translate(63.623047 0)"/>
       <use xlink:href="#DejaVuSans-36" transform="translate(95.410156 0)"/>
      </g>
     </g>
    </g>
    <g id="ytick_5">
     <g id="line2d_12">
      <g>
       <use xlink:href="#mb1667e2a8b" x="43.15875" y="70.915971" style="stroke: #000000; stroke-width: 0.8"/>
      </g>
     </g>
     <g id="text_12">
      <!-- 0.8 -->
      <g transform="translate(21.845938 74.335268) scale(0.09 -0.09)">
       <use xlink:href="#DejaVuSans-30"/>
       <use xlink:href="#DejaVuSans-2e" transform="translate(63.623047 0)"/>
       <use xlink:href="#DejaVuSans-38" transform="translate(95.410156 0)"/>
      </g>
     </g>
    </g>
    <g id="ytick_6">
     <g id="line2d_13">
      <g>
       <use xlink:href="#mb1667e2a8b" x="43.15875" y="26.736111" style="stroke: #000000; stroke-width: 0.8"/>
      </g>
     </g>
     <g id="text_13">
      <!-- 1.0 -->
      <g transform="translate(21.845938 30.155408) scale(0.09 -0.09)">
       <use xlink:href="#DejaVuSans-31"/>
       <use xlink:href="#DejaVuSans-2e" transform="translate(63.623047 0)"/>
       <use xlink:href="#DejaVuSans-30" transform="translate(95.410156 0)"/>
      </g>
     </g>
    </g>
    <g id="text_14">
     <!-- True Positive Rate -->
     <g transform="translate(15.558281 186.168418) rotate(-90) scale(0.11 -0.11)">
      <defs>
       <path id="DejaVuSans-54" d="M -19 4666 
L 3928 4666 
L 3928 4134 
L 2272 4134 
L 2272 0 
L 1638 0 
L 1638 4134 
L -19 4134 
L -19 4666 
z
" transform="scale(0.015625)"/>
       <path id="DejaVuSans-72" d="M 2631 2963 
Q 2534 3019 2420 3045 
Q 2306 3072 2169 3072 
Q 1681 3072 1420 2755 
Q 1159 2438 1159 1844 
L 1159 0 
L 581 0 
L 581 3500 
L 1159 3500 
L 1159 2956 
Q 1341 3275 1631 3429 
Q 1922 3584 2338 3584 
Q 2397 3584 2469 3576 
Q 2541 3569 2628 3553 
L 2631 2963 
z
" transform="scale(0.015625)"/>
       <path id="DejaVuSans-75" d="M 544 1381 
L 544 3500 
L 1119 3500 
L 1119 1403 
Q 1119 906 1312 657 
Q 1506 409 1894 409 
Q 2359 409 2629 706 
Q 2900 1003 2900 1516 
L 2900 3500 
L 3475 3500 
L 3475 0 
L 2900 0 
L 2900 538 
Q 2691 219 2414 64 
Q 2138 -91 1772 -91 
Q 1169 -91 856 284 
Q 544 659 544 1381 
z
M 1991 3584 
L 1991 3584 
z
" transform="scale(0.015625)"/>
      </defs>
      <use xlink:href="#DejaVuSans-54"/>
      <use xlink:href="#DejaVuSans-72" transform="translate(46.333984 0)"/>
      <use xlink:href="#DejaVuSans-75" transform="translate(87.447266 0)"/>
      <use xlink:href="#DejaVuSans-65" transform="translate(150.826172 0)"/>
      <use xlink:href="#DejaVuSans-20" transform="translate(212.349609 0)"/>
      <use xlink:href="#DejaVuSans-50" transform="translate(244.136719 0)"/>
      <use xlink:href="#DejaVuSans-6f" transform="translate(300.814453 0)"/>
      <use xlink:href="#DejaVuSans-73" transform="translate(361.996094 0)"/>
      <use xlink:href="#DejaVuSans-69" transform="translate(414.095703 0)"/>
      <use xlink:href="#DejaVuSans-74" transform="translate(441.878906 0)"/>
      <use xlink:href="#DejaVuSans-69" transform="translate(481.087891 0)"/>
      <use xlink:href="#DejaVuSans-76" transform="translate(508.871094 0)"/>
      <use xlink:href="#DejaVuSans-65" transform="translate(568.050781 0)"/>
      <use xlink:href="#DejaVuSans-20" transform="translate(629.574219 0)"/>
      <use xlink:href="#DejaVuSans-52" transform="translate(661.361328 0)"/>
      <use xlink:href="#DejaVuSans-61" transform="translate(728.59375 0)"/>
      <use xlink:href="#DejaVuSans-74" transform="translate(789.873047 0)"/>
      <use xlink:href="#DejaVuSans-65" transform="translate(829.082031 0)"/>
     </g>
    </g>
   </g>
   <g id="line2d_14">
    <path d="M 47.576736 247.635412 
L 47.576736 245.794584 
L 47.576736 214.500517 
L 48.803954 214.500517 
L 48.803954 210.818862 
L 50.031173 210.818862 
L 50.031173 197.933069 
L 51.258391 197.933069 
L 51.258391 190.569759 
L 52.485609 190.569759 
L 52.485609 177.683966 
L 53.712828 177.683966 
L 53.712828 172.161484 
L 54.940046 172.161484 
L 54.940046 164.798174 
L 56.167264 164.798174 
L 56.167264 161.116519 
L 57.394483 161.116519 
L 57.394483 153.753209 
L 59.848919 153.753209 
L 59.848919 151.912381 
L 61.076138 151.912381 
L 61.076138 148.230726 
L 62.303356 148.230726 
L 62.303356 144.549071 
L 63.530574 144.549071 
L 63.530574 142.708244 
L 64.757793 142.708244 
L 64.757793 137.185761 
L 65.985011 137.185761 
L 65.985011 127.981624 
L 67.212229 127.981624 
L 67.212229 116.936659 
L 69.666666 116.936659 
L 69.666666 115.095831 
L 72.121103 115.095831 
L 72.121103 109.573349 
L 74.575539 109.573349 
L 74.575539 104.050866 
L 75.802758 104.050866 
L 75.802758 100.369211 
L 77.029976 100.369211 
L 77.029976 96.687556 
L 80.711631 96.687556 
L 80.711631 94.846729 
L 83.166068 94.846729 
L 83.166068 93.005901 
L 85.620504 93.005901 
L 85.620504 87.483419 
L 88.074941 87.483419 
L 88.074941 80.120109 
L 96.66547 80.120109 
L 96.66547 76.438454 
L 97.892688 76.438454 
L 97.892688 72.756799 
L 100.347125 72.756799 
L 100.347125 70.915971 
L 102.801561 70.915971 
L 102.801561 67.234316 
L 104.02878 67.234316 
L 104.02878 65.393489 
L 106.483216 65.393489 
L 106.483216 63.552661 
L 107.710435 63.552661 
L 107.710435 61.711834 
L 111.39209 61.711834 
L 111.39209 59.871006 
L 117.528181 59.871006 
L 117.528181 58.030179 
L 118.7554 58.030179 
L 118.7554 56.189351 
L 121.209836 56.189351 
L 121.209836 52.507696 
L 122.437055 52.507696 
L 123.664273 50.666869 
L 123.664273 48.826041 
L 126.11871 48.826041 
L 126.11871 45.144386 
L 129.800365 45.144386 
L 129.800365 43.303559 
L 131.027583 43.303559 
L 131.027583 41.462731 
L 132.254801 41.462731 
L 132.254801 39.621904 
L 137.163675 39.621904 
L 137.163675 37.781076 
L 169.071351 37.781076 
L 169.071351 35.940249 
L 173.980225 35.940249 
L 173.980225 32.258594 
L 192.3885 32.258594 
L 192.3885 30.417766 
L 208.342338 30.417766 
L 208.342338 28.576939 
L 225.523395 28.576939 
L 225.523395 26.736111 
L 268.476037 26.736111 
" clip-path="url(#p6c8e11eba3)" style="fill: none; stroke-dasharray: 5.18,2.24; stroke-dashoffset: 0; stroke: #888888; stroke-width: 1.4"/>
   </g>
   <g id="line2d_15">
    <path d="M 47.576736 247.635412 
L 47.576736 245.794584 
L 47.576736 181.365622 
L 48.803954 181.365622 
L 48.803954 164.798174 
L 50.031173 164.798174 
L 50.031173 159.275691 
L 51.258391 159.275691 
L 51.258391 146.389899 
L 52.485609 146.389899 
L 52.485609 142.708244 
L 53.712828 142.708244 
L 53.712828 135.344934 
L 57.394483 135.344934 
L 57.394483 126.140796 
L 59.848919 126.140796 
L 59.848919 111.414176 
L 61.076138 111.414176 
L 61.076138 109.573349 
L 62.303356 109.573349 
L 62.303356 105.891694 
L 63.530574 105.891694 
L 63.530574 104.050866 
L 65.985011 104.050866 
L 65.985011 98.528384 
L 68.439448 98.528384 
L 68.439448 94.846729 
L 69.666666 94.846729 
L 69.666666 89.324246 
L 70.893884 89.324246 
L 70.893884 81.960936 
L 73.348321 81.960936 
L 73.348321 72.756799 
L 74.575539 72.756799 
L 74.575539 70.915971 
L 80.711631 70.915971 
L 80.711631 69.075144 
L 84.393286 69.075144 
L 84.393286 67.234316 
L 88.074941 67.234316 
L 88.074941 63.552661 
L 89.302159 63.552661 
L 89.302159 59.871006 
L 92.983814 59.871006 
L 92.983814 58.030179 
L 96.66547 58.030179 
L 96.66547 56.189351 
L 101.574343 56.189351 
L 101.574343 54.348524 
L 107.710435 54.348524 
L 107.710435 52.507696 
L 110.164871 52.507696 
L 110.164871 50.666869 
L 111.39209 50.666869 
L 111.39209 48.826041 
L 131.027583 48.826041 
L 131.027583 46.985214 
L 133.48202 46.985214 
L 133.48202 45.144386 
L 137.163675 45.144386 
L 137.163675 43.303559 
L 148.20864 43.303559 
L 148.20864 41.462731 
L 149.435858 41.462731 
L 149.435858 39.621904 
L 150.663076 39.621904 
L 150.663076 37.781076 
L 151.890295 37.781076 
L 151.890295 35.940249 
L 182.570753 35.940249 
L 182.570753 34.099421 
L 183.797971 34.099421 
L 183.797971 32.258594 
L 196.070155 32.258594 
L 196.070155 30.417766 
L 205.887902 30.417766 
L 205.887902 28.576939 
L 208.342338 28.576939 
L 208.342338 26.736111 
L 248.840543 26.736111 
L 251.29498 26.736111 
L 268.476037 26.736111 
" clip-path="url(#p6c8e11eba3)" style="fill: none; stroke-dasharray: 10.24,2.56,1.6,2.56; stroke-dashoffset: 0; stroke: #2196f3; stroke-width: 1.6"/>
   </g>
   <g id="line2d_16">
    <path d="M 47.576736 247.635412 
L 47.576736 245.794584 
L 47.576736 131.663279 
L 48.803954 131.663279 
L 48.803954 120.618314 
L 50.031173 120.618314 
L 50.031173 109.573349 
L 51.258391 107.732521 
L 51.258391 94.846729 
L 52.485609 94.846729 
L 52.485609 83.801764 
L 54.940046 83.801764 
L 54.940046 69.075144 
L 56.167264 69.075144 
L 56.167264 65.393489 
L 58.621701 65.393489 
L 58.621701 59.871006 
L 61.076138 59.871006 
L 61.076138 58.030179 
L 62.303356 58.030179 
L 62.303356 54.348524 
L 64.757793 54.348524 
L 64.757793 50.666869 
L 67.212229 50.666869 
L 67.212229 48.826041 
L 69.666666 48.826041 
L 69.666666 45.144386 
L 79.484413 45.144386 
L 79.484413 43.303559 
L 81.938849 43.303559 
L 81.938849 41.462731 
L 90.529378 41.462731 
L 90.529378 39.621904 
L 101.574343 39.621904 
L 101.574343 37.781076 
L 106.483216 37.781076 
L 106.483216 35.940249 
L 122.437055 35.940249 
L 122.437055 34.099421 
L 137.163675 34.099421 
L 137.163675 32.258594 
L 139.618111 32.258594 
L 139.618111 30.417766 
L 155.57195 30.417766 
L 155.57195 28.576939 
L 167.844133 28.576939 
L 167.844133 26.736111 
L 268.476037 26.736111 
" clip-path="url(#p6c8e11eba3)" style="fill: none; stroke-dasharray: 1.6,2.64; stroke-dashoffset: 0; stroke: #ff9800; stroke-width: 1.6"/>
   </g>
   <g id="line2d_17">
    <path d="M 47.576736 247.635412 
L 47.576736 245.794584 
L 47.576736 94.846729 
L 48.803954 94.846729 
L 48.803954 58.030179 
L 52.485609 58.030179 
L 52.485609 54.348524 
L 53.712828 54.348524 
L 53.712828 52.507696 
L 56.167264 52.507696 
L 56.167264 46.985214 
L 57.394483 46.985214 
L 57.394483 39.621904 
L 64.757793 39.621904 
L 64.757793 37.781076 
L 65.985011 37.781076 
L 65.985011 35.940249 
L 68.439448 35.940249 
L 68.439448 34.099421 
L 75.802758 34.099421 
L 75.802758 32.258594 
L 77.029976 32.258594 
L 77.029976 30.417766 
L 81.938849 30.417766 
L 81.938849 28.576939 
L 88.074941 28.576939 
L 88.074941 26.736111 
L 99.119906 26.736111 
L 101.574343 26.736111 
L 268.476037 26.736111 
" clip-path="url(#p6c8e11eba3)" style="fill: none; stroke: #e53935; stroke-width: 2.2; stroke-linecap: square"/>
   </g>
   <g id="patch_3">
    <path d="M 43.15875 252.053398 
L 43.15875 22.318125 
" style="fill: none; stroke: #000000; stroke-width: 0.8; stroke-linejoin: miter; stroke-linecap: square"/>
   </g>
   <g id="patch_4">
    <path d="M 43.15875 252.053398 
L 272.894023 252.053398 
" style="fill: none; stroke: #000000; stroke-width: 0.8; stroke-linejoin: miter; stroke-linecap: square"/>
   </g>
   <g id="text_15">
    <!-- ROC Curve -->
    <g transform="translate(122.198886 16.318125) scale(0.12 -0.12)">
     <defs>
      <path id="DejaVuSans-Bold-52" d="M 2297 2597 
Q 2675 2597 2839 2737 
Q 3003 2878 3003 3200 
Q 3003 3519 2839 3656 
Q 2675 3794 2297 3794 
L 1791 3794 
L 1791 2597 
L 2297 2597 
z
M 1791 1766 
L 1791 0 
L 588 0 
L 588 4666 
L 2425 4666 
Q 3347 4666 3776 4356 
Q 4206 4047 4206 3378 
Q 4206 2916 3982 2619 
Q 3759 2322 3309 2181 
Q 3556 2125 3751 1926 
Q 3947 1728 4147 1325 
L 4800 0 
L 3519 0 
L 2950 1159 
Q 2778 1509 2601 1637 
Q 2425 1766 2131 1766 
L 1791 1766 
z
" transform="scale(0.015625)"/>
      <path id="DejaVuSans-Bold-4f" d="M 2719 3878 
Q 2169 3878 1866 3472 
Q 1563 3066 1563 2328 
Q 1563 1594 1866 1187 
Q 2169 781 2719 781 
Q 3272 781 3575 1187 
Q 3878 1594 3878 2328 
Q 3878 3066 3575 3472 
Q 3272 3878 2719 3878 
z
M 2719 4750 
Q 3844 4750 4481 4106 
Q 5119 3463 5119 2328 
Q 5119 1197 4481 553 
Q 3844 -91 2719 -91 
Q 1597 -91 958 553 
Q 319 1197 319 2328 
Q 319 3463 958 4106 
Q 1597 4750 2719 4750 
z
" transform="scale(0.015625)"/>
      <path id="DejaVuSans-Bold-43" d="M 4288 256 
Q 3956 84 3597 -3 
Q 3238 -91 2847 -91 
Q 1681 -91 1000 561 
Q 319 1213 319 2328 
Q 319 3447 1000 4098 
Q 1681 4750 2847 4750 
Q 3238 4750 3597 4662 
Q 3956 4575 4288 4403 
L 4288 3438 
Q 3953 3666 3628 3772 
Q 3303 3878 2944 3878 
Q 2300 3878 1931 3465 
Q 1563 3053 1563 2328 
Q 1563 1606 1931 1193 
Q 2300 781 2944 781 
Q 3303 781 3628 887 
Q 3953 994 4288 1222 
L 4288 256 
z
" transform="scale(0.015625)"/>
      <path id="DejaVuSans-Bold-20" transform="scale(0.015625)"/>
      <path id="DejaVuSans-Bold-75" d="M 500 1363 
L 500 3500 
L 1625 3500 
L 1625 3150 
Q 1625 2866 1622 2436 
Q 1619 2006 1619 1863 
Q 1619 1441 1641 1255 
Q 1663 1069 1716 984 
Q 1784 875 1895 815 
Q 2006 756 2150 756 
Q 2500 756 2700 1025 
Q 2900 1294 2900 1772 
L 2900 3500 
L 4019 3500 
L 4019 0 
L 2900 0 
L 2900 506 
Q 2647 200 2364 54 
Q 2081 -91 1741 -91 
Q 1134 -91 817 281 
Q 500 653 500 1363 
z
" transform="scale(0.015625)"/>
      <path id="DejaVuSans-Bold-72" d="M 3138 2547 
Q 2991 2616 2845 2648 
Q 2700 2681 2553 2681 
Q 2122 2681 1889 2404 
Q 1656 2128 1656 1613 
L 1656 0 
L 538 0 
L 538 3500 
L 1656 3500 
L 1656 2925 
Q 1872 3269 2151 3426 
Q 2431 3584 2822 3584 
Q 2878 3584 2943 3579 
Q 3009 3575 3134 3559 
L 3138 2547 
z
" transform="scale(0.015625)"/>
      <path id="DejaVuSans-Bold-76" d="M 97 3500 
L 1216 3500 
L 2088 1081 
L 2956 3500 
L 4078 3500 
L 2700 0 
L 1472 0 
L 97 3500 
z
" transform="scale(0.015625)"/>
      <path id="DejaVuSans-Bold-65" d="M 4031 1759 
L 4031 1441 
L 1416 1441 
Q 1456 1047 1700 850 
Q 1944 653 2381 653 
Q 2734 653 3104 758 
Q 3475 863 3866 1075 
L 3866 213 
Q 3469 63 3072 -14 
Q 2675 -91 2278 -91 
Q 1328 -91 801 392 
Q 275 875 275 1747 
Q 275 2603 792 3093 
Q 1309 3584 2216 3584 
Q 3041 3584 3536 3087 
Q 4031 2591 4031 1759 
z
M 2881 2131 
Q 2881 2450 2695 2645 
Q 2509 2841 2209 2841 
Q 1884 2841 1681 2658 
Q 1478 2475 1428 2131 
L 2881 2131 
z
" transform="scale(0.015625)"/>
     </defs>
     <use xlink:href="#DejaVuSans-Bold-52"/>
     <use xlink:href="#DejaVuSans-Bold-4f" transform="translate(77.001953 0)"/>
     <use xlink:href="#DejaVuSans-Bold-43" transform="translate(162.011719 0)"/>
     <use xlink:href="#DejaVuSans-Bold-20" transform="translate(235.400391 0)"/>
     <use xlink:href="#DejaVuSans-Bold-43" transform="translate(270.214844 0)"/>
     <use xlink:href="#DejaVuSans-Bold-75" transform="translate(343.603516 0)"/>
     <use xlink:href="#DejaVuSans-Bold-72" transform="translate(414.794922 0)"/>
     <use xlink:href="#DejaVuSans-Bold-76" transform="translate(464.111328 0)"/>
     <use xlink:href="#DejaVuSans-Bold-65" transform="translate(529.296875 0)"/>
    </g>
   </g>
   <g id="legend_1">
    <g id="patch_5">
     <path d="M 120.160976 247.803398 
L 266.944023 247.803398 
Q 268.644023 247.803398 268.644023 246.103398 
L 268.644023 197.047773 
Q 268.644023 195.347773 266.944023 195.347773 
L 120.160976 195.347773 
Q 118.460976 195.347773 118.460976 197.047773 
L 118.460976 246.103398 
Q 118.460976 247.803398 120.160976 247.803398 
z
" style="fill: #ffffff; opacity: 0.9; stroke: #cccccc; stroke-linejoin: miter"/>
    </g>
    <g id="line2d_18">
     <path d="M 121.860976 202.231445 
L 130.360976 202.231445 
L 138.860976 202.231445 
" style="fill: none; stroke-dasharray: 5.18,2.24; stroke-dashoffset: 0; stroke: #888888; stroke-width: 1.4"/>
    </g>
    <g id="text_16">
     <!-- Baseline  (AUROC=0.866) -->
     <g transform="translate(145.660976 205.206445) scale(0.085 -0.085)">
      <defs>
       <path id="DejaVuSans-42" d="M 1259 2228 
L 1259 519 
L 2272 519 
Q 2781 519 3026 730 
Q 3272 941 3272 1375 
Q 3272 1813 3026 2020 
Q 2781 2228 2272 2228 
L 1259 2228 
z
M 1259 4147 
L 1259 2741 
L 2194 2741 
Q 2656 2741 2882 2914 
Q 3109 3088 3109 3444 
Q 3109 3797 2882 3972 
Q 2656 4147 2194 4147 
L 1259 4147 
z
M 628 4666 
L 2241 4666 
Q 2963 4666 3353 4366 
Q 3744 4066 3744 3513 
Q 3744 3084 3544 2831 
Q 3344 2578 2956 2516 
Q 3422 2416 3680 2098 
Q 3938 1781 3938 1306 
Q 3938 681 3513 340 
Q 3088 0 2303 0 
L 628 0 
L 628 4666 
z
" transform="scale(0.015625)"/>
       <path id="DejaVuSans-6e" d="M 3513 2113 
L 3513 0 
L 2938 0 
L 2938 2094 
Q 2938 2591 2744 2837 
Q 2550 3084 2163 3084 
Q 1697 3084 1428 2787 
Q 1159 2491 1159 1978 
L 1159 0 
L 581 0 
L 581 3500 
L 1159 3500 
L 1159 2956 
Q 1366 3272 1645 3428 
Q 1925 3584 2291 3584 
Q 2894 3584 3203 3211 
Q 3513 2838 3513 2113 
z
" transform="scale(0.015625)"/>
       <path id="DejaVuSans-28" d="M 1984 4856 
Q 1566 4138 1362 3434 
Q 1159 2731 1159 2009 
Q 1159 1288 1364 580 
Q 1569 -128 1984 -844 
L 1484 -844 
Q 1016 -109 783 600 
Q 550 1309 550 2009 
Q 550 2706 781 3412 
Q 1013 4119 1484 4856 
L 1984 4856 
z
" transform="scale(0.015625)"/>
       <path id="DejaVuSans-41" d="M 2188 4044 
L 1331 1722 
L 3047 1722 
L 2188 4044 
z
M 1831 4666 
L 2547 4666 
L 4325 0 
L 3669 0 
L 3244 1197 
L 1141 1197 
L 716 0 
L 50 0 
L 1831 4666 
z
" transform="scale(0.015625)"/>
       <path id="DejaVuSans-55" d="M 556 4666 
L 1191 4666 
L 1191 1831 
Q 1191 1081 1462 751 
Q 1734 422 2344 422 
Q 2950 422 3222 751 
Q 3494 1081 3494 1831 
L 3494 4666 
L 4128 4666 
L 4128 1753 
Q 4128 841 3676 375 
Q 3225 -91 2344 -91 
Q 1459 -91 1007 375 
Q 556 841 556 1753 
L 556 4666 
z
" transform="scale(0.015625)"/>
       <path id="DejaVuSans-4f" d="M 2522 4238 
Q 1834 4238 1429 3725 
Q 1025 3213 1025 2328 
Q 1025 1447 1429 934 
Q 1834 422 2522 422 
Q 3209 422 3611 934 
Q 4013 1447 4013 2328 
Q 4013 3213 3611 3725 
Q 3209 4238 2522 4238 
z
M 2522 4750 
Q 3503 4750 4090 4092 
Q 4678 3434 4678 2328 
Q 4678 1225 4090 567 
Q 3503 -91 2522 -91 
Q 1538 -91 948 565 
Q 359 1222 359 2328 
Q 359 3434 948 4092 
Q 1538 4750 2522 4750 
z
" transform="scale(0.015625)"/>
       <path id="DejaVuSans-43" d="M 4122 4306 
L 4122 3641 
Q 3803 3938 3442 4084 
Q 3081 4231 2675 4231 
Q 1875 4231 1450 3742 
Q 1025 3253 1025 2328 
Q 1025 1406 1450 917 
Q 1875 428 2675 428 
Q 3081 428 3442 575 
Q 3803 722 4122 1019 
L 4122 359 
Q 3791 134 3420 21 
Q 3050 -91 2638 -91 
Q 1578 -91 968 557 
Q 359 1206 359 2328 
Q 359 3453 968 4101 
Q 1578 4750 2638 4750 
Q 3056 4750 3426 4639 
Q 3797 4528 4122 4306 
z
" transform="scale(0.015625)"/>
       <path id="DejaVuSans-3d" d="M 678 2906 
L 4684 2906 
L 4684 2381 
L 678 2381 
L 678 2906 
z
M 678 1631 
L 4684 1631 
L 4684 1100 
L 678 1100 
L 678 1631 
z
" transform="scale(0.015625)"/>
       <path id="DejaVuSans-29" d="M 513 4856 
L 1013 4856 
Q 1481 4119 1714 3412 
Q 1947 2706 1947 2009 
Q 1947 1309 1714 600 
Q 1481 -109 1013 -844 
L 513 -844 
Q 928 -128 1133 580 
Q 1338 1288 1338 2009 
Q 1338 2731 1133 3434 
Q 928 4138 513 4856 
z
" transform="scale(0.015625)"/>
      </defs>
      <use xlink:href="#DejaVuSans-42"/>
      <use xlink:href="#DejaVuSans-61" transform="translate(68.603516 0)"/>
      <use xlink:href="#DejaVuSans-73" transform="translate(129.882812 0)"/>
      <use xlink:href="#DejaVuSans-65" transform="translate(181.982422 0)"/>
      <use xlink:href="#DejaVuSans-6c" transform="translate(243.505859 0)"/>
      <use xlink:href="#DejaVuSans-69" transform="translate(271.289062 0)"/>
      <use xlink:href="#DejaVuSans-6e" transform="translate(299.072266 0)"/>
      <use xlink:href="#DejaVuSans-65" transform="translate(362.451172 0)"/>
      <use xlink:href="#DejaVuSans-20" transform="translate(423.974609 0)"/>
      <use xlink:href="#DejaVuSans-20" transform="translate(455.761719 0)"/>
      <use xlink:href="#DejaVuSans-28" transform="translate(487.548828 0)"/>
      <use xlink:href="#DejaVuSans-41" transform="translate(526.5625 0)"/>
      <use xlink:href="#DejaVuSans-55" transform="translate(594.970703 0)"/>
      <use xlink:href="#DejaVuSans-52" transform="translate(668.164062 0)"/>
      <use xlink:href="#DejaVuSans-4f" transform="translate(737.646484 0)"/>
      <use xlink:href="#DejaVuSans-43" transform="translate(816.357422 0)"/>
      <use xlink:href="#DejaVuSans-3d" transform="translate(886.181641 0)"/>
      <use xlink:href="#DejaVuSans-30" transform="translate(969.970703 0)"/>
      <use xlink:href="#DejaVuSans-2e" transform="translate(1033.59375 0)"/>
      <use xlink:href="#DejaVuSans-38" transform="translate(1065.380859 0)"/>
      <use xlink:href="#DejaVuSans-36" transform="translate(1129.003906 0)"/>
      <use xlink:href="#DejaVuSans-36" transform="translate(1192.626953 0)"/>
      <use xlink:href="#DejaVuSans-29" transform="translate(1256.25 0)"/>
     </g>
    </g>
    <g id="line2d_19">
     <path d="M 121.860976 214.707851 
L 130.360976 214.707851 
L 138.860976 214.707851 
" style="fill: none; stroke-dasharray: 10.24,2.56,1.6,2.56; stroke-dashoffset: 0; stroke: #2196f3; stroke-width: 1.6"/>
    </g>
    <g id="text_17">
     <!-- Method-A  (AUROC=0.899) -->
     <g transform="translate(145.660976 217.682851) scale(0.085 -0.085)">
      <defs>
       <path id="DejaVuSans-4d" d="M 628 4666 
L 1569 4666 
L 2759 1491 
L 3956 4666 
L 4897 4666 
L 4897 0 
L 4281 0 
L 4281 4097 
L 3078 897 
L 2444 897 
L 1241 4097 
L 1241 0 
L 628 0 
L 628 4666 
z
" transform="scale(0.015625)"/>
       <path id="DejaVuSans-68" d="M 3513 2113 
L 3513 0 
L 2938 0 
L 2938 2094 
Q 2938 2591 2744 2837 
Q 2550 3084 2163 3084 
Q 1697 3084 1428 2787 
Q 1159 2491 1159 1978 
L 1159 0 
L 581 0 
L 581 4863 
L 1159 4863 
L 1159 2956 
Q 1366 3272 1645 3428 
Q 1925 3584 2291 3584 
Q 2894 3584 3203 3211 
Q 3513 2838 3513 2113 
z
" transform="scale(0.015625)"/>
       <path id="DejaVuSans-64" d="M 2906 2969 
L 2906 4863 
L 3481 4863 
L 3481 0 
L 2906 0 
L 2906 525 
Q 2725 213 2448 61 
Q 2172 -91 1784 -91 
Q 1150 -91 751 415 
Q 353 922 353 1747 
Q 353 2572 751 3078 
Q 1150 3584 1784 3584 
Q 2172 3584 2448 3432 
Q 2725 3281 2906 2969 
z
M 947 1747 
Q 947 1113 1208 752 
Q 1469 391 1925 391 
Q 2381 391 2643 752 
Q 2906 1113 2906 1747 
Q 2906 2381 2643 2742 
Q 2381 3103 1925 3103 
Q 1469 3103 1208 2742 
Q 947 2381 947 1747 
z
" transform="scale(0.015625)"/>
       <path id="DejaVuSans-2d" d="M 313 2009 
L 1997 2009 
L 1997 1497 
L 313 1497 
L 313 2009 
z
" transform="scale(0.015625)"/>
       <path id="DejaVuSans-39" d="M 703 97 
L 703 672 
Q 941 559 1184 500 
Q 1428 441 1663 441 
Q 2288 441 2617 861 
Q 2947 1281 2994 2138 
Q 2813 1869 2534 1725 
Q 2256 1581 1919 1581 
Q 1219 1581 811 2004 
Q 403 2428 403 3163 
Q 403 3881 828 4315 
Q 1253 4750 1959 4750 
Q 2769 4750 3195 4129 
Q 3622 3509 3622 2328 
Q 3622 1225 3098 567 
Q 2575 -91 1691 -91 
Q 1453 -91 1209 -44 
Q 966 3 703 97 
z
M 1959 2075 
Q 2384 2075 2632 2365 
Q 2881 2656 2881 3163 
Q 2881 3666 2632 3958 
Q 2384 4250 1959 4250 
Q 1534 4250 1286 3958 
Q 1038 3666 1038 3163 
Q 1038 2656 1286 2365 
Q 1534 2075 1959 2075 
z
" transform="scale(0.015625)"/>
      </defs>
      <use xlink:href="#DejaVuSans-4d"/>
      <use xlink:href="#DejaVuSans-65" transform="translate(86.279297 0)"/>
      <use xlink:href="#DejaVuSans-74" transform="translate(147.802734 0)"/>
      <use xlink:href="#DejaVuSans-68" transform="translate(187.011719 0)"/>
      <use xlink:href="#DejaVuSans-6f" transform="translate(250.390625 0)"/>
      <use xlink:href="#DejaVuSans-64" transform="translate(311.572266 0)"/>
      <use xlink:href="#DejaVuSans-2d" transform="translate(375.048828 0)"/>
      <use xlink:href="#DejaVuSans-41" transform="translate(408.882812 0)"/>
      <use xlink:href="#DejaVuSans-20" transform="translate(477.291016 0)"/>
      <use xlink:href="#DejaVuSans-20" transform="translate(509.078125 0)"/>
      <use xlink:href="#DejaVuSans-28" transform="translate(540.865234 0)"/>
      <use xlink:href="#DejaVuSans-41" transform="translate(579.878906 0)"/>
      <use xlink:href="#DejaVuSans-55" transform="translate(648.287109 0)"/>
      <use xlink:href="#DejaVuSans-52" transform="translate(721.480469 0)"/>
      <use xlink:href="#DejaVuSans-4f" transform="translate(790.962891 0)"/>
      <use xlink:href="#DejaVuSans-43" transform="translate(869.673828 0)"/>
      <use xlink:href="#DejaVuSans-3d" transform="translate(939.498047 0)"/>
      <use xlink:href="#DejaVuSans-30" transform="translate(1023.287109 0)"/>
      <use xlink:href="#DejaVuSans-2e" transform="translate(1086.910156 0)"/>
      <use xlink:href="#DejaVuSans-38" transform="translate(1118.697266 0)"/>
      <use xlink:href="#DejaVuSans-39" transform="translate(1182.320312 0)"/>
      <use xlink:href="#DejaVuSans-39" transform="translate(1245.943359 0)"/>
      <use xlink:href="#DejaVuSans-29" transform="translate(1309.566406 0)"/>
     </g>
    </g>
    <g id="line2d_20">
     <path d="M 121.860976 227.184257 
L 130.360976 227.184257 
L 138.860976 227.184257 
" style="fill: none; stroke-dasharray: 1.6,2.64; stroke-dashoffset: 0; stroke: #ff9800; stroke-width: 1.6"/>
    </g>
    <g id="text_18">
     <!-- Method-B  (AUROC=0.961) -->
     <g transform="translate(145.660976 230.159257) scale(0.085 -0.085)">
      <use xlink:href="#DejaVuSans-4d"/>
      <use xlink:href="#DejaVuSans-65" transform="translate(86.279297 0)"/>
      <use xlink:href="#DejaVuSans-74" transform="translate(147.802734 0)"/>
      <use xlink:href="#DejaVuSans-68" transform="translate(187.011719 0)"/>
      <use xlink:href="#DejaVuSans-6f" transform="translate(250.390625 0)"/>
      <use xlink:href="#DejaVuSans-64" transform="translate(311.572266 0)"/>
      <use xlink:href="#DejaVuSans-2d" transform="translate(375.048828 0)"/>
      <use xlink:href="#DejaVuSans-42" transform="translate(407.507812 0)"/>
      <use xlink:href="#DejaVuSans-20" transform="translate(476.111328 0)"/>
      <use xlink:href="#DejaVuSans-20" transform="translate(507.898438 0)"/>
      <use xlink:href="#DejaVuSans-28" transform="translate(539.685547 0)"/>
      <use xlink:href="#DejaVuSans-41" transform="translate(578.699219 0)"/>
      <use xlink:href="#DejaVuSans-55" transform="translate(647.107422 0)"/>
      <use xlink:href="#DejaVuSans-52" transform="translate(720.300781 0)"/>
      <use xlink:href="#DejaVuSans-4f" transform="translate(789.783203 0)"/>
      <use xlink:href="#DejaVuSans-43" transform="translate(868.494141 0)"/>
      <use xlink:href="#DejaVuSans-3d" transform="translate(938.318359 0)"/>
      <use xlink:href="#DejaVuSans-30" transform="translate(1022.107422 0)"/>
      <use xlink:href="#DejaVuSans-2e" transform="translate(1085.730469 0)"/>
      <use xlink:href="#DejaVuSans-39" transform="translate(1117.517578 0)"/>
      <use xlink:href="#DejaVuSans-36" transform="translate(1181.140625 0)"/>
      <use xlink:href="#DejaVuSans-31" transform="translate(1244.763672 0)"/>
      <use xlink:href="#DejaVuSans-29" transform="translate(1308.386719 0)"/>
     </g>
    </g>
    <g id="line2d_21">
     <path d="M 121.860976 239.660663 
L 130.360976 239.660663 
L 138.860976 239.660663 
" style="fill: none; stroke: #e53935; stroke-width: 2.2; stroke-linecap: square"/>
    </g>
    <g id="text_19">
     <!-- OursModel  (AUROC=0.989) -->
     <g transform="translate(145.660976 242.635663) scale(0.085 -0.085)">
      <use xlink:href="#DejaVuSans-4f"/>
      <use xlink:href="#DejaVuSans-75" transform="translate(78.710938 0)"/>
      <use xlink:href="#DejaVuSans-72" transform="translate(142.089844 0)"/>
      <use xlink:href="#DejaVuSans-73" transform="translate(183.203125 0)"/>
      <use xlink:href="#DejaVuSans-4d" transform="translate(235.302734 0)"/>
      <use xlink:href="#DejaVuSans-6f" transform="translate(321.582031 0)"/>
      <use xlink:href="#DejaVuSans-64" transform="translate(382.763672 0)"/>
      <use xlink:href="#DejaVuSans-65" transform="translate(446.240234 0)"/>
      <use xlink:href="#DejaVuSans-6c" transform="translate(507.763672 0)"/>
      <use xlink:href="#DejaVuSans-20" transform="translate(535.546875 0)"/>
      <use xlink:href="#DejaVuSans-20" transform="translate(567.333984 0)"/>
      <use xlink:href="#DejaVuSans-28" transform="translate(599.121094 0)"/>
      <use xlink:href="#DejaVuSans-41" transform="translate(638.134766 0)"/>
      <use xlink:href="#DejaVuSans-55" transform="translate(706.542969 0)"/>
      <use xlink:href="#DejaVuSans-52" transform="translate(779.736328 0)"/>
      <use xlink:href="#DejaVuSans-4f" transform="translate(849.21875 0)"/>
      <use xlink:href="#DejaVuSans-43" transform="translate(927.929688 0)"/>
      <use xlink:href="#DejaVuSans-3d" transform="translate(997.753906 0)"/>
      <use xlink:href="#DejaVuSans-30" transform="translate(1081.542969 0)"/>
      <use xlink:href="#DejaVuSans-2e" transform="translate(1145.166016 0)"/>
      <use xlink:href="#DejaVuSans-39" transform="translate(1176.953125 0)"/>
      <use xlink:href="#DejaVuSans-38" transform="translate(1240.576172 0)"/>
      <use xlink:href="#DejaVuSans-39" transform="translate(1304.199219 0)"/>
      <use xlink:href="#DejaVuSans-29" transform="translate(1367.822266 0)"/>
     </g>
    </g>
   </g>
  </g>
  <g id="axes_2">
   <g id="patch_6">
    <path d="M 359.65875 252.053398 
L 589.394023 252.053398 
L 589.394023 22.318125 
L 359.65875 22.318125 
z
" style="fill: #ffffff"/>
   </g>
   <g id="line2d_22">
    <path d="M 359.65875 159.275691 
L 589.394023 159.275691 
" clip-path="url(#p5f3200457d)" style="fill: none; stroke-dasharray: 3.7,1.6; stroke-dashoffset: 0; stroke: #bbbbbb"/>
   </g>
   <g id="matplotlib.axis_3">
    <g id="xtick_7">
     <g id="line2d_23">
      <g>
       <use xlink:href="#m0b2daf9e0b" x="364.076736" y="252.053398" style="stroke: #000000; stroke-width: 0.8"/>
      </g>
     </g>
     <g id="text_20">
      <!-- 0.0 -->
      <g transform="translate(356.92033 265.891991) scale(0.09 -0.09)">
       <use xlink:href="#DejaVuSans-30"/>
       <use xlink:href="#DejaVuSans-2e" transform="translate(63.623047 0)"/>
       <use xlink:href="#DejaVuSans-30" transform="translate(95.410156 0)"/>
      </g>
     </g>
    </g>
    <g id="xtick_8">
     <g id="line2d_24">
      <g>
       <use xlink:href="#m0b2daf9e0b" x="408.256596" y="252.053398" style="stroke: #000000; stroke-width: 0.8"/>
      </g>
     </g>
     <g id="text_21">
      <!-- 0.2 -->
      <g transform="translate(401.10019 265.891991) scale(0.09 -0.09)">
       <use xlink:href="#DejaVuSans-30"/>
       <use xlink:href="#DejaVuSans-2e" transform="translate(63.623047 0)"/>
       <use xlink:href="#DejaVuSans-32" transform="translate(95.410156 0)"/>
      </g>
     </g>
    </g>
    <g id="xtick_9">
     <g id="line2d_25">
      <g>
       <use xlink:href="#m0b2daf9e0b" x="452.436456" y="252.053398" style="stroke: #000000; stroke-width: 0.8"/>
      </g>
     </g>
     <g id="text_22">
      <!-- 0.4 -->
      <g transform="translate(445.28005 265.891991) scale(0.09 -0.09)">
       <use xlink:href="#DejaVuSans-30"/>
       <use xlink:href="#DejaVuSans-2e" transform="translate(63.623047 0)"/>
       <use xlink:href="#DejaVuSans-34" transform="translate(95.410156 0)"/>
      </g>
     </g>
    </g>
    <g id="xtick_10">
     <g id="line2d_26">
      <g>
       <use xlink:href="#m0b2daf9e0b" x="496.616316" y="252.053398" style="stroke: #000000; stroke-width: 0.8"/>
      </g>
     </g>
     <g id="text_23">
      <!-- 0.6 -->
      <g transform="translate(489.45991 265.891991) scale(0.09 -0.09)">
       <use xlink:href="#DejaVuSans-30"/>
       <use xlink:href="#DejaVuSans-2e" transform="translate(63.623047 0)"/>
       <use xlink:href="#DejaVuSans-36" transform="translate(95.410156 0)"/>
      </g>
     </g>
    </g>
    <g id="xtick_11">
     <g id="line2d_27">
      <g>
       <use xlink:href="#m0b2daf9e0b" x="540.796177" y="252.053398" style="stroke: #000000; stroke-width: 0.8"/>
      </g>
     </g>
     <g id="text_24">
      <!-- 0.8 -->
      <g transform="translate(533.63977 265.891991) scale(0.09 -0.09)">
       <use xlink:href="#DejaVuSans-30"/>
       <use xlink:href="#DejaVuSans-2e" transform="translate(63.623047 0)"/>
       <use xlink:href="#DejaVuSans-38" transform="translate(95.410156 0)"/>
      </g>
     </g>
    </g>
    <g id="xtick_12">
     <g id="line2d_28">
      <g>
       <use xlink:href="#m0b2daf9e0b" x="584.976037" y="252.053398" style="stroke: #000000; stroke-width: 0.8"/>
      </g>
     </g>
     <g id="text_25">
      <!-- 1.0 -->
      <g transform="translate(577.81963 265.891991) scale(0.09 -0.09)">
       <use xlink:href="#DejaVuSans-31"/>
       <use xlink:href="#DejaVuSans-2e" transform="translate(63.623047 0)"/>
       <use xlink:href="#DejaVuSans-30" transform="translate(95.410156 0)"/>
      </g>
     </g>
    </g>
    <g id="text_26">
     <!-- Recall -->
     <g transform="translate(458.11748 280.121991) scale(0.11 -0.11)">
      <defs>
       <path id="DejaVuSans-63" d="M 3122 3366 
L 3122 2828 
Q 2878 2963 2633 3030 
Q 2388 3097 2138 3097 
Q 1578 3097 1268 2742 
Q 959 2388 959 1747 
Q 959 1106 1268 751 
Q 1578 397 2138 397 
Q 2388 397 2633 464 
Q 2878 531 3122 666 
L 3122 134 
Q 2881 22 2623 -34 
Q 2366 -91 2075 -91 
Q 1284 -91 818 406 
Q 353 903 353 1747 
Q 353 2603 823 3093 
Q 1294 3584 2113 3584 
Q 2378 3584 2631 3529 
Q 2884 3475 3122 3366 
z
" transform="scale(0.015625)"/>
      </defs>
      <use xlink:href="#DejaVuSans-52"/>
      <use xlink:href="#DejaVuSans-65" transform="translate(64.982422 0)"/>
      <use xlink:href="#DejaVuSans-63" transform="translate(126.505859 0)"/>
      <use xlink:href="#DejaVuSans-61" transform="translate(181.486328 0)"/>
      <use xlink:href="#DejaVuSans-6c" transform="translate(242.765625 0)"/>
      <use xlink:href="#DejaVuSans-6c" transform="translate(270.548828 0)"/>
     </g>
    </g>
   </g>
   <g id="matplotlib.axis_4">
    <g id="ytick_7">
     <g id="line2d_29">
      <g>
       <use xlink:href="#mb1667e2a8b" x="359.65875" y="247.635412" style="stroke: #000000; stroke-width: 0.8"/>
      </g>
     </g>
     <g id="text_27">
      <!-- 0.0 -->
      <g transform="translate(338.345937 251.054709) scale(0.09 -0.09)">
       <use xlink:href="#DejaVuSans-30"/>
       <use xlink:href="#DejaVuSans-2e" transform="translate(63.623047 0)"/>
       <use xlink:href="#DejaVuSans-30" transform="translate(95.410156 0)"/>
      </g>
     </g>
    </g>
    <g id="ytick_8">
     <g id="line2d_30">
      <g>
       <use xlink:href="#mb1667e2a8b" x="359.65875" y="203.455552" style="stroke: #000000; stroke-width: 0.8"/>
      </g>
     </g>
     <g id="text_28">
      <!-- 0.2 -->
      <g transform="translate(338.345937 206.874848) scale(0.09 -0.09)">
       <use xlink:href="#DejaVuSans-30"/>
       <use xlink:href="#DejaVuSans-2e" transform="translate(63.623047 0)"/>
       <use xlink:href="#DejaVuSans-32" transform="translate(95.410156 0)"/>
      </g>
     </g>
    </g>
    <g id="ytick_9">
     <g id="line2d_31">
      <g>
       <use xlink:href="#mb1667e2a8b" x="359.65875" y="159.275691" style="stroke: #000000; stroke-width: 0.8"/>
      </g>
     </g>
     <g id="text_29">
      <!-- 0.4 -->
      <g transform="translate(338.345937 162.694988) scale(0.09 -0.09)">
       <use xlink:href="#DejaVuSans-30"/>
       <use xlink:href="#DejaVuSans-2e" transform="translate(63.623047 0)"/>
       <use xlink:href="#DejaVuSans-34" transform="translate(95.410156 0)"/>
      </g>
     </g>
    </g>
    <g id="ytick_10">
     <g id="line2d_32">
      <g>
       <use xlink:href="#mb1667e2a8b" x="359.65875" y="115.095831" style="stroke: #000000; stroke-width: 0.8"/>
      </g>
     </g>
     <g id="text_30">
      <!-- 0.6 -->
      <g transform="translate(338.345937 118.515128) scale(0.09 -0.09)">
       <use xlink:href="#DejaVuSans-30"/>
       <use xlink:href="#DejaVuSans-2e" transform="translate(63.623047 0)"/>
       <use xlink:href="#DejaVuSans-36" transform="translate(95.410156 0)"/>
      </g>
     </g>
    </g>
    <g id="ytick_11">
     <g id="line2d_33">
      <g>
       <use xlink:href="#mb1667e2a8b" x="359.65875" y="70.915971" style="stroke: #000000; stroke-width: 0.8"/>
      </g>
     </g>
     <g id="text_31">
      <!-- 0.8 -->
      <g transform="translate(338.345937 74.335268) scale(0.09 -0.09)">
       <use xlink:href="#DejaVuSans-30"/>
       <use xlink:href="#DejaVuSans-2e" transform="translate(63.623047 0)"/>
       <use xlink:href="#DejaVuSans-38" transform="translate(95.410156 0)"/>
      </g>
     </g>
    </g>
    <g id="ytick_12">
     <g id="line2d_34">
      <g>
       <use xlink:href="#mb1667e2a8b" x="359.65875" y="26.736111" style="stroke: #000000; stroke-width: 0.8"/>
      </g>
     </g>
     <g id="text_32">
      <!-- 1.0 -->
      <g transform="translate(338.345937 30.155408) scale(0.09 -0.09)">
       <use xlink:href="#DejaVuSans-31"/>
       <use xlink:href="#DejaVuSans-2e" transform="translate(63.623047 0)"/>
       <use xlink:href="#DejaVuSans-30" transform="translate(95.410156 0)"/>
      </g>
     </g>
    </g>
    <g id="text_33">
     <!-- Precision -->
     <g transform="translate(332.058281 161.723496) rotate(-90) scale(0.11 -0.11)">
      <use xlink:href="#DejaVuSans-50"/>
      <use xlink:href="#DejaVuSans-72" transform="translate(58.552734 0)"/>
      <use xlink:href="#DejaVuSans-65" transform="translate(97.416016 0)"/>
      <use xlink:href="#DejaVuSans-63" transform="translate(158.939453 0)"/>
      <use xlink:href="#DejaVuSans-69" transform="translate(213.919922 0)"/>
      <use xlink:href="#DejaVuSans-73" transform="translate(241.703125 0)"/>
      <use xlink:href="#DejaVuSans-69" transform="translate(293.802734 0)"/>
      <use xlink:href="#DejaVuSans-6f" transform="translate(321.585938 0)"/>
      <use xlink:href="#DejaVuSans-6e" transform="translate(382.767578 0)"/>
     </g>
    </g>
   </g>
   <g id="line2d_35">
    <path d="M 584.976037 159.275691 
L 584.976037 147.60554 
L 583.135209 148.063378 
L 583.135209 142.487345 
L 581.294382 142.952209 
L 581.294382 137.185761 
L 579.453554 137.65576 
L 579.453554 130.157147 
L 575.771899 131.105964 
L 575.771899 128.927844 
L 573.931072 129.407617 
L 573.931072 112.969528 
L 572.090244 113.433148 
L 572.090244 110.483648 
L 570.249417 110.946342 
L 570.249417 110.186958 
L 568.408589 110.653164 
L 568.408589 109.883601 
L 566.567762 110.35336 
L 566.567762 107.986429 
L 562.886107 108.9312 
L 562.886107 107.299385 
L 561.045279 107.776091 
L 559.204452 107.42388 
L 559.204452 106.579232 
L 555.522797 107.552928 
L 555.522797 105.823515 
L 553.681969 106.314741 
L 553.681969 105.431487 
L 551.841142 105.926426 
L 551.841142 101.325485 
L 550.000314 101.812998 
L 550.000314 98.896549 
L 548.159487 99.380847 
L 548.159487 98.379127 
L 546.318659 98.866495 
L 546.318659 96.81451 
L 544.477832 97.301165 
L 544.477832 96.249877 
L 540.796177 97.235888 
L 540.796177 95.071866 
L 538.955349 95.567053 
L 538.955349 93.330753 
L 535.273694 94.324703 
L 535.273694 93.171991 
L 531.592039 94.186279 
L 531.592039 85.523828 
L 524.228729 87.483419 
L 524.228729 84.768978 
L 518.706247 86.282879 
L 518.706247 83.427082 
L 516.865419 83.933251 
L 516.865419 80.956848 
L 515.024591 81.454286 
L 515.024591 76.751047 
L 511.342936 77.712873 
L 511.342936 76.063139 
L 507.661281 77.039912 
L 507.661281 75.333957 
L 502.138799 76.836983 
L 502.138799 73.241227 
L 496.616316 74.757698 
L 496.616316 70.915971 
L 494.775489 71.412374 
L 494.775489 67.36127 
L 487.412179 69.319109 
L 483.730524 70.370541 
L 483.730524 68.15473 
L 476.367214 70.334657 
L 474.526386 70.915971 
L 474.526386 68.527871 
L 469.003904 70.29372 
L 469.003904 67.760267 
L 467.163076 68.35482 
L 467.163076 65.718341 
L 463.481421 66.89962 
L 463.481421 64.11907 
L 459.799766 65.30583 
L 459.799766 62.36503 
L 457.958939 62.949111 
L 457.958939 56.688559 
L 450.595629 58.866918 
L 450.595629 55.371206 
L 446.913974 56.472555 
L 446.913974 52.724264 
L 441.391491 54.348524 
L 439.550664 54.936022 
L 439.550664 50.746905 
L 434.028181 52.422076 
L 434.028181 47.77414 
L 428.505699 49.39245 
L 422.983216 51.280478 
L 421.142389 51.981745 
L 421.142389 46.227226 
L 415.619906 48.113463 
L 413.779079 48.826041 
L 413.779079 41.970546 
L 410.097424 43.099022 
L 406.415769 44.408055 
L 402.734114 45.944746 
L 400.893286 46.817866 
L 400.893286 37.255125 
L 397.211631 38.36239 
L 397.211631 26.736111 
L 364.076736 26.736111 
L 364.076736 26.736111 
" clip-path="url(#p5f3200457d)" style="fill: none; stroke-dasharray: 5.18,2.24; stroke-dashoffset: 0; stroke: #888888; stroke-width: 1.4"/>
   </g>
   <g id="line2d_36">
    <path d="M 584.976037 159.275691 
L 584.976037 142.026184 
L 583.135209 142.487345 
L 583.135209 141.639376 
L 581.294382 142.104572 
L 581.294382 138.572159 
L 579.453554 139.042058 
L 579.453554 134.279192 
L 577.612727 134.75295 
L 577.612727 134.25347 
L 575.771899 134.731325 
L 575.771899 120.618314 
L 573.931072 121.090084 
L 573.931072 120.450966 
L 572.090244 120.926676 
L 572.090244 120.280203 
L 570.249417 120.759916 
L 570.249417 120.105919 
L 568.408589 120.5897 
L 568.408589 114.375507 
L 566.567762 114.854411 
L 566.567762 112.641395 
L 564.726934 113.121312 
L 564.726934 111.601379 
L 562.886107 112.083568 
L 562.886107 98.528384 
L 561.045279 98.979907 
L 561.045279 98.03905 
L 559.204452 98.493209 
L 559.204452 96.568793 
L 557.363624 97.022252 
L 557.363624 91.968119 
L 555.522797 92.408876 
L 555.522797 88.097028 
L 553.681969 88.526125 
L 553.681969 85.11664 
L 551.841142 85.536644 
L 551.841142 81.960936 
L 548.159487 82.785187 
L 548.159487 81.545712 
L 544.477832 82.3825 
L 544.477832 78.509385 
L 542.637004 78.917048 
L 542.637004 74.835152 
L 540.796177 75.226201 
L 540.796177 67.920726 
L 538.955349 68.272732 
L 538.955349 66.726502 
L 529.751212 68.527871 
L 529.751212 65.241494 
L 522.387902 66.708365 
L 522.387902 64.968682 
L 516.865419 66.104303 
L 516.865419 64.288992 
L 513.183764 65.055377 
L 513.183764 61.251627 
L 507.661281 62.36503 
L 507.661281 58.293154 
L 505.820454 58.643788 
L 505.820454 56.520286 
L 502.138799 57.20498 
L 502.138799 54.990673 
L 500.297971 55.323079 
L 500.297971 53.033647 
L 491.093834 54.698048 
L 485.571351 55.801808 
L 485.571351 50.617116 
L 476.367214 52.347624 
L 476.367214 43.470907 
L 469.003904 44.550571 
L 469.003904 41.221311 
L 465.322249 41.712335 
L 465.322249 38.161937 
L 456.118111 39.239845 
L 452.436456 39.730188 
L 452.436456 35.572083 
L 446.913974 36.136081 
L 446.913974 31.53827 
L 435.869009 32.258594 
L 430.346526 32.706362 
L 430.346526 26.736111 
L 364.076736 26.736111 
L 364.076736 26.736111 
" clip-path="url(#p5f3200457d)" style="fill: none; stroke-dasharray: 10.24,2.56,1.6,2.56; stroke-dashoffset: 0; stroke: #2196f3; stroke-width: 1.6"/>
   </g>
   <g id="line2d_37">
    <path d="M 584.976037 159.275691 
L 584.976037 126.039466 
L 583.135209 126.497086 
L 583.135209 120.644992 
L 581.294382 121.100861 
L 581.294382 112.577808 
L 579.453554 113.0249 
L 579.453554 111.607948 
L 577.612727 112.057005 
L 577.612727 102.865249 
L 575.771899 103.2978 
L 575.771899 91.786212 
L 573.931072 92.187756 
L 573.931072 88.252372 
L 572.090244 88.644195 
L 572.090244 78.975811 
L 570.249417 79.331183 
L 570.249417 70.915971 
L 568.408589 71.233812 
L 568.408589 68.658606 
L 566.567762 68.96686 
L 566.567762 57.800075 
L 562.886107 58.293154 
L 562.886107 55.239247 
L 561.045279 55.470979 
L 561.045279 52.294708 
L 557.363624 52.724264 
L 557.363624 49.39245 
L 553.681969 49.786473 
L 553.681969 48.050956 
L 551.841142 48.239583 
L 551.841142 44.646865 
L 546.318659 45.144386 
L 546.318659 41.323801 
L 542.637004 41.604333 
L 542.637004 39.604031 
L 527.910384 40.687646 
L 527.910384 36.237156 
L 516.865419 36.892401 
L 516.865419 34.441901 
L 503.979626 35.124692 
L 502.138799 32.473755 
L 491.093834 32.958627 
L 491.093834 29.891815 
L 480.048869 30.187663 
L 480.048869 26.736111 
L 364.076736 26.736111 
L 364.076736 26.736111 
" clip-path="url(#p5f3200457d)" style="fill: none; stroke-dasharray: 1.6,2.64; stroke-dashoffset: 0; stroke: #ff9800; stroke-width: 1.6"/>
   </g>
   <g id="line2d_38">
    <path d="M 584.976037 159.275691 
L 584.976037 74.381058 
L 583.135209 74.694512 
L 583.135209 68.812168 
L 581.294382 69.10036 
L 581.294382 64.071204 
L 579.453554 64.335992 
L 579.453554 63.02671 
L 577.612727 63.287794 
L 577.612727 54.97136 
L 575.771899 55.185263 
L 575.771899 52.224492 
L 573.931072 52.422076 
L 573.931072 50.896972 
L 572.090244 51.087215 
L 572.090244 41.341023 
L 564.726934 41.840337 
L 564.726934 40.066241 
L 559.204452 40.420138 
L 559.204452 36.68653 
L 557.363624 36.776988 
L 557.363624 34.842507 
L 553.681969 34.994029 
L 553.681969 28.860143 
L 516.865419 29.365865 
L 516.865419 26.736111 
L 364.076736 26.736111 
L 364.076736 26.736111 
" clip-path="url(#p5f3200457d)" style="fill: none; stroke: #e53935; stroke-width: 2.2; stroke-linecap: square"/>
   </g>
   <g id="patch_7">
    <path d="M 359.65875 252.053398 
L 359.65875 22.318125 
" style="fill: none; stroke: #000000; stroke-width: 0.8; stroke-linejoin: miter; stroke-linecap: square"/>
   </g>
   <g id="patch_8">
    <path d="M 359.65875 252.053398 
L 589.394023 252.053398 
" style="fill: none; stroke: #000000; stroke-width: 0.8; stroke-linejoin: miter; stroke-linecap: square"/>
   </g>
   <g id="text_34">
    <!-- Precision-Recall Curve -->
    <g transform="translate(398.862636 16.318125) scale(0.12 -0.12)">
     <defs>
      <path id="DejaVuSans-Bold-50" d="M 588 4666 
L 2584 4666 
Q 3475 4666 3951 4270 
Q 4428 3875 4428 3144 
Q 4428 2409 3951 2014 
Q 3475 1619 2584 1619 
L 1791 1619 
L 1791 0 
L 588 0 
L 588 4666 
z
M 1791 3794 
L 1791 2491 
L 2456 2491 
Q 2806 2491 2997 2661 
Q 3188 2831 3188 3144 
Q 3188 3456 2997 3625 
Q 2806 3794 2456 3794 
L 1791 3794 
z
" transform="scale(0.015625)"/>
      <path id="DejaVuSans-Bold-63" d="M 3366 3391 
L 3366 2478 
Q 3138 2634 2908 2709 
Q 2678 2784 2431 2784 
Q 1963 2784 1702 2511 
Q 1441 2238 1441 1747 
Q 1441 1256 1702 982 
Q 1963 709 2431 709 
Q 2694 709 2930 787 
Q 3166 866 3366 1019 
L 3366 103 
Q 3103 6 2833 -42 
Q 2563 -91 2291 -91 
Q 1344 -91 809 395 
Q 275 881 275 1747 
Q 275 2613 809 3098 
Q 1344 3584 2291 3584 
Q 2566 3584 2833 3536 
Q 3100 3488 3366 3391 
z
" transform="scale(0.015625)"/>
      <path id="DejaVuSans-Bold-69" d="M 538 3500 
L 1656 3500 
L 1656 0 
L 538 0 
L 538 3500 
z
M 538 4863 
L 1656 4863 
L 1656 3950 
L 538 3950 
L 538 4863 
z
" transform="scale(0.015625)"/>
      <path id="DejaVuSans-Bold-73" d="M 3272 3391 
L 3272 2541 
Q 2913 2691 2578 2766 
Q 2244 2841 1947 2841 
Q 1628 2841 1473 2761 
Q 1319 2681 1319 2516 
Q 1319 2381 1436 2309 
Q 1553 2238 1856 2203 
L 2053 2175 
Q 2913 2066 3209 1816 
Q 3506 1566 3506 1031 
Q 3506 472 3093 190 
Q 2681 -91 1863 -91 
Q 1516 -91 1145 -36 
Q 775 19 384 128 
L 384 978 
Q 719 816 1070 734 
Q 1422 653 1784 653 
Q 2113 653 2278 743 
Q 2444 834 2444 1013 
Q 2444 1163 2330 1236 
Q 2216 1309 1875 1350 
L 1678 1375 
Q 931 1469 631 1722 
Q 331 1975 331 2491 
Q 331 3047 712 3315 
Q 1094 3584 1881 3584 
Q 2191 3584 2531 3537 
Q 2872 3491 3272 3391 
z
" transform="scale(0.015625)"/>
      <path id="DejaVuSans-Bold-6f" d="M 2203 2784 
Q 1831 2784 1636 2517 
Q 1441 2250 1441 1747 
Q 1441 1244 1636 976 
Q 1831 709 2203 709 
Q 2569 709 2762 976 
Q 2956 1244 2956 1747 
Q 2956 2250 2762 2517 
Q 2569 2784 2203 2784 
z
M 2203 3584 
Q 3106 3584 3614 3096 
Q 4122 2609 4122 1747 
Q 4122 884 3614 396 
Q 3106 -91 2203 -91 
Q 1297 -91 786 396 
Q 275 884 275 1747 
Q 275 2609 786 3096 
Q 1297 3584 2203 3584 
z
" transform="scale(0.015625)"/>
      <path id="DejaVuSans-Bold-6e" d="M 4056 2131 
L 4056 0 
L 2931 0 
L 2931 347 
L 2931 1631 
Q 2931 2084 2911 2256 
Q 2891 2428 2841 2509 
Q 2775 2619 2662 2680 
Q 2550 2741 2406 2741 
Q 2056 2741 1856 2470 
Q 1656 2200 1656 1722 
L 1656 0 
L 538 0 
L 538 3500 
L 1656 3500 
L 1656 2988 
Q 1909 3294 2193 3439 
Q 2478 3584 2822 3584 
Q 3428 3584 3742 3212 
Q 4056 2841 4056 2131 
z
" transform="scale(0.015625)"/>
      <path id="DejaVuSans-Bold-2d" d="M 347 2297 
L 2309 2297 
L 2309 1388 
L 347 1388 
L 347 2297 
z
" transform="scale(0.015625)"/>
      <path id="DejaVuSans-Bold-61" d="M 2106 1575 
Q 1756 1575 1579 1456 
Q 1403 1338 1403 1106 
Q 1403 894 1545 773 
Q 1688 653 1941 653 
Q 2256 653 2472 879 
Q 2688 1106 2688 1447 
L 2688 1575 
L 2106 1575 
z
M 3816 1997 
L 3816 0 
L 2688 0 
L 2688 519 
Q 2463 200 2181 54 
Q 1900 -91 1497 -91 
Q 953 -91 614 226 
Q 275 544 275 1050 
Q 275 1666 698 1953 
Q 1122 2241 2028 2241 
L 2688 2241 
L 2688 2328 
Q 2688 2594 2478 2717 
Q 2269 2841 1825 2841 
Q 1466 2841 1156 2769 
Q 847 2697 581 2553 
L 581 3406 
Q 941 3494 1303 3539 
Q 1666 3584 2028 3584 
Q 2975 3584 3395 3211 
Q 3816 2838 3816 1997 
z
" transform="scale(0.015625)"/>
      <path id="DejaVuSans-Bold-6c" d="M 538 4863 
L 1656 4863 
L 1656 0 
L 538 0 
L 538 4863 
z
" transform="scale(0.015625)"/>
     </defs>
     <use xlink:href="#DejaVuSans-Bold-50"/>
     <use xlink:href="#DejaVuSans-Bold-72" transform="translate(73.291016 0)"/>
     <use xlink:href="#DejaVuSans-Bold-65" transform="translate(122.607422 0)"/>
     <use xlink:href="#DejaVuSans-Bold-63" transform="translate(190.429688 0)"/>
     <use xlink:href="#DejaVuSans-Bold-69" transform="translate(249.707031 0)"/>
     <use xlink:href="#DejaVuSans-Bold-73" transform="translate(283.984375 0)"/>
     <use xlink:href="#DejaVuSans-Bold-69" transform="translate(343.505859 0)"/>
     <use xlink:href="#DejaVuSans-Bold-6f" transform="translate(377.783203 0)"/>
     <use xlink:href="#DejaVuSans-Bold-6e" transform="translate(446.484375 0)"/>
     <use xlink:href="#DejaVuSans-Bold-2d" transform="translate(517.675781 0)"/>
     <use xlink:href="#DejaVuSans-Bold-52" transform="translate(559.179688 0)"/>
     <use xlink:href="#DejaVuSans-Bold-65" transform="translate(636.181641 0)"/>
     <use xlink:href="#DejaVuSans-Bold-63" transform="translate(704.003906 0)"/>
     <use xlink:href="#DejaVuSans-Bold-61" transform="translate(763.28125 0)"/>
     <use xlink:href="#DejaVuSans-Bold-6c" transform="translate(830.761719 0)"/>
     <use xlink:href="#DejaVuSans-Bold-6c" transform="translate(865.039062 0)"/>
     <use xlink:href="#DejaVuSans-Bold-20" transform="translate(899.316406 0)"/>
     <use xlink:href="#DejaVuSans-Bold-43" transform="translate(934.130859 0)"/>
     <use xlink:href="#DejaVuSans-Bold-75" transform="translate(1007.519531 0)"/>
     <use xlink:href="#DejaVuSans-Bold-72" transform="translate(1078.710938 0)"/>
     <use xlink:href="#DejaVuSans-Bold-76" transform="translate(1128.027344 0)"/>
     <use xlink:href="#DejaVuSans-Bold-65" transform="translate(1193.212891 0)"/>
    </g>
   </g>
   <g id="legend_2">
    <g id="patch_9">
     <path d="M 365.60875 247.803398 
L 492.763437 247.803398 
Q 494.463437 247.803398 494.463437 246.103398 
L 494.463437 184.571366 
Q 494.463437 182.871366 492.763437 182.871366 
L 365.60875 182.871366 
Q 363.90875 182.871366 363.90875 184.571366 
L 363.90875 246.103398 
Q 363.90875 247.803398 365.60875 247.803398 
z
" style="fill: #ffffff; opacity: 0.9; stroke: #cccccc; stroke-linejoin: miter"/>
    </g>
    <g id="line2d_39">
     <path d="M 367.30875 189.755038 
L 375.80875 189.755038 
L 384.30875 189.755038 
" style="fill: none; stroke-dasharray: 5.18,2.24; stroke-dashoffset: 0; stroke: #888888; stroke-width: 1.4"/>
    </g>
    <g id="text_35">
     <!-- Baseline  (AP=0.811) -->
     <g transform="translate(391.10875 192.730038) scale(0.085 -0.085)">
      <use xlink:href="#DejaVuSans-42"/>
      <use xlink:href="#DejaVuSans-61" transform="translate(68.603516 0)"/>
      <use xlink:href="#DejaVuSans-73" transform="translate(129.882812 0)"/>
      <use xlink:href="#DejaVuSans-65" transform="translate(181.982422 0)"/>
      <use xlink:href="#DejaVuSans-6c" transform="translate(243.505859 0)"/>
      <use xlink:href="#DejaVuSans-69" transform="translate(271.289062 0)"/>
      <use xlink:href="#DejaVuSans-6e" transform="translate(299.072266 0)"/>
      <use xlink:href="#DejaVuSans-65" transform="translate(362.451172 0)"/>
      <use xlink:href="#DejaVuSans-20" transform="translate(423.974609 0)"/>
      <use xlink:href="#DejaVuSans-20" transform="translate(455.761719 0)"/>
      <use xlink:href="#DejaVuSans-28" transform="translate(487.548828 0)"/>
      <use xlink:href="#DejaVuSans-41" transform="translate(526.5625 0)"/>
      <use xlink:href="#DejaVuSans-50" transform="translate(594.970703 0)"/>
      <use xlink:href="#DejaVuSans-3d" transform="translate(655.273438 0)"/>
      <use xlink:href="#DejaVuSans-30" transform="translate(739.0625 0)"/>
      <use xlink:href="#DejaVuSans-2e" transform="translate(802.685547 0)"/>
      <use xlink:href="#DejaVuSans-38" transform="translate(834.472656 0)"/>
      <use xlink:href="#DejaVuSans-31" transform="translate(898.095703 0)"/>
      <use xlink:href="#DejaVuSans-31" transform="translate(961.71875 0)"/>
      <use xlink:href="#DejaVuSans-29" transform="translate(1025.341797 0)"/>
     </g>
    </g>
    <g id="line2d_40">
     <path d="M 367.30875 202.231445 
L 375.80875 202.231445 
L 384.30875 202.231445 
" style="fill: none; stroke-dasharray: 10.24,2.56,1.6,2.56; stroke-dashoffset: 0; stroke: #2196f3; stroke-width: 1.6"/>
    </g>
    <g id="text_36">
     <!-- Method-A  (AP=0.875) -->
     <g transform="translate(391.10875 205.206445) scale(0.085 -0.085)">
      <defs>
       <path id="DejaVuSans-37" d="M 525 4666 
L 3525 4666 
L 3525 4397 
L 1831 0 
L 1172 0 
L 2766 4134 
L 525 4134 
L 525 4666 
z
" transform="scale(0.015625)"/>
       <path id="DejaVuSans-35" d="M 691 4666 
L 3169 4666 
L 3169 4134 
L 1269 4134 
L 1269 2991 
Q 1406 3038 1543 3061 
Q 1681 3084 1819 3084 
Q 2600 3084 3056 2656 
Q 3513 2228 3513 1497 
Q 3513 744 3044 326 
Q 2575 -91 1722 -91 
Q 1428 -91 1123 -41 
Q 819 9 494 109 
L 494 744 
Q 775 591 1075 516 
Q 1375 441 1709 441 
Q 2250 441 2565 725 
Q 2881 1009 2881 1497 
Q 2881 1984 2565 2268 
Q 2250 2553 1709 2553 
Q 1456 2553 1204 2497 
Q 953 2441 691 2322 
L 691 4666 
z
" transform="scale(0.015625)"/>
      </defs>
      <use xlink:href="#DejaVuSans-4d"/>
      <use xlink:href="#DejaVuSans-65" transform="translate(86.279297 0)"/>
      <use xlink:href="#DejaVuSans-74" transform="translate(147.802734 0)"/>
      <use xlink:href="#DejaVuSans-68" transform="translate(187.011719 0)"/>
      <use xlink:href="#DejaVuSans-6f" transform="translate(250.390625 0)"/>
      <use xlink:href="#DejaVuSans-64" transform="translate(311.572266 0)"/>
      <use xlink:href="#DejaVuSans-2d" transform="translate(375.048828 0)"/>
      <use xlink:href="#DejaVuSans-41" transform="translate(408.882812 0)"/>
      <use xlink:href="#DejaVuSans-20" transform="translate(477.291016 0)"/>
      <use xlink:href="#DejaVuSans-20" transform="translate(509.078125 0)"/>
      <use xlink:href="#DejaVuSans-28" transform="translate(540.865234 0)"/>
      <use xlink:href="#DejaVuSans-41" transform="translate(579.878906 0)"/>
      <use xlink:href="#DejaVuSans-50" transform="translate(648.287109 0)"/>
      <use xlink:href="#DejaVuSans-3d" transform="translate(708.589844 0)"/>
      <use xlink:href="#DejaVuSans-30" transform="translate(792.378906 0)"/>
      <use xlink:href="#DejaVuSans-2e" transform="translate(856.001953 0)"/>
      <use xlink:href="#DejaVuSans-38" transform="translate(887.789062 0)"/>
      <use xlink:href="#DejaVuSans-37" transform="translate(951.412109 0)"/>
      <use xlink:href="#DejaVuSans-35" transform="translate(1015.035156 0)"/>
      <use xlink:href="#DejaVuSans-29" transform="translate(1078.658203 0)"/>
     </g>
    </g>
    <g id="line2d_41">
     <path d="M 367.30875 214.707851 
L 375.80875 214.707851 
L 384.30875 214.707851 
" style="fill: none; stroke-dasharray: 1.6,2.64; stroke-dashoffset: 0; stroke: #ff9800; stroke-width: 1.6"/>
    </g>
    <g id="text_37">
     <!-- Method-B  (AP=0.952) -->
     <g transform="translate(391.10875 217.682851) scale(0.085 -0.085)">
      <use xlink:href="#DejaVuSans-4d"/>
      <use xlink:href="#DejaVuSans-65" transform="translate(86.279297 0)"/>
      <use xlink:href="#DejaVuSans-74" transform="translate(147.802734 0)"/>
      <use xlink:href="#DejaVuSans-68" transform="translate(187.011719 0)"/>
      <use xlink:href="#DejaVuSans-6f" transform="translate(250.390625 0)"/>
      <use xlink:href="#DejaVuSans-64" transform="translate(311.572266 0)"/>
      <use xlink:href="#DejaVuSans-2d" transform="translate(375.048828 0)"/>
      <use xlink:href="#DejaVuSans-42" transform="translate(407.507812 0)"/>
      <use xlink:href="#DejaVuSans-20" transform="translate(476.111328 0)"/>
      <use xlink:href="#DejaVuSans-20" transform="translate(507.898438 0)"/>
      <use xlink:href="#DejaVuSans-28" transform="translate(539.685547 0)"/>
      <use xlink:href="#DejaVuSans-41" transform="translate(578.699219 0)"/>
      <use xlink:href="#DejaVuSans-50" transform="translate(647.107422 0)"/>
      <use xlink:href="#DejaVuSans-3d" transform="translate(707.410156 0)"/>
      <use xlink:href="#DejaVuSans-30" transform="translate(791.199219 0)"/>
      <use xlink:href="#DejaVuSans-2e" transform="translate(854.822266 0)"/>
      <use xlink:href="#DejaVuSans-39" transform="translate(886.609375 0)"/>
      <use xlink:href="#DejaVuSans-35" transform="translate(950.232422 0)"/>
      <use xlink:href="#DejaVuSans-32" transform="translate(1013.855469 0)"/>
      <use xlink:href="#DejaVuSans-29" transform="translate(1077.478516 0)"/>
     </g>
    </g>
    <g id="line2d_42">
     <path d="M 367.30875 227.184257 
L 375.80875 227.184257 
L 384.30875 227.184257 
" style="fill: none; stroke: #e53935; stroke-width: 2.2; stroke-linecap: square"/>
    </g>
    <g id="text_38">
     <!-- OursModel  (AP=0.984) -->
     <g transform="translate(391.10875 230.159257) scale(0.085 -0.085)">
      <use xlink:href="#DejaVuSans-4f"/>
      <use xlink:href="#DejaVuSans-75" transform="translate(78.710938 0)"/>
      <use xlink:href="#DejaVuSans-72" transform="translate(142.089844 0)"/>
      <use xlink:href="#DejaVuSans-73" transform="translate(183.203125 0)"/>
      <use xlink:href="#DejaVuSans-4d" transform="translate(235.302734 0)"/>
      <use xlink:href="#DejaVuSans-6f" transform="translate(321.582031 0)"/>
      <use xlink:href="#DejaVuSans-64" transform="translate(382.763672 0)"/>
      <use xlink:href="#DejaVuSans-65" transform="translate(446.240234 0)"/>
      <use xlink:href="#DejaVuSans-6c" transform="translate(507.763672 0)"/>
      <use xlink:href="#DejaVuSans-20" transform="translate(535.546875 0)"/>
      <use xlink:href="#DejaVuSans-20" transform="translate(567.333984 0)"/>
      <use xlink:href="#DejaVuSans-28" transform="translate(599.121094 0)"/>
      <use xlink:href="#DejaVuSans-41" transform="translate(638.134766 0)"/>
      <use xlink:href="#DejaVuSans-50" transform="translate(706.542969 0)"/>
      <use xlink:href="#DejaVuSans-3d" transform="translate(766.845703 0)"/>
      <use xlink:href="#DejaVuSans-30" transform="translate(850.634766 0)"/>
      <use xlink:href="#DejaVuSans-2e" transform="translate(914.257812 0)"/>
      <use xlink:href="#DejaVuSans-39" transform="translate(946.044922 0)"/>
      <use xlink:href="#DejaVuSans-38" transform="translate(1009.667969 0)"/>
      <use xlink:href="#DejaVuSans-34" transform="translate(1073.291016 0)"/>
      <use xlink:href="#DejaVuSans-29" transform="translate(1136.914062 0)"/>
     </g>
    </g>
    <g id="line2d_43">
     <path d="M 367.30875 239.660663 
L 375.80875 239.660663 
L 384.30875 239.660663 
" style="fill: none; stroke-dasharray: 3.7,1.6; stroke-dashoffset: 0; stroke: #bbbbbb"/>
    </g>
    <g id="text_39">
     <!-- Prevalence (0.40) -->
     <g transform="translate(391.10875 242.635663) scale(0.085 -0.085)">
      <use xlink:href="#DejaVuSans-50"/>
      <use xlink:href="#DejaVuSans-72" transform="translate(58.552734 0)"/>
      <use xlink:href="#DejaVuSans-65" transform="translate(97.416016 0)"/>
      <use xlink:href="#DejaVuSans-76" transform="translate(158.939453 0)"/>
      <use xlink:href="#DejaVuSans-61" transform="translate(218.119141 0)"/>
      <use xlink:href="#DejaVuSans-6c" transform="translate(279.398438 0)"/>
      <use xlink:href="#DejaVuSans-65" transform="translate(307.181641 0)"/>
      <use xlink:href="#DejaVuSans-6e" transform="translate(368.705078 0)"/>
      <use xlink:href="#DejaVuSans-63" transform="translate(432.083984 0)"/>
      <use xlink:href="#DejaVuSans-65" transform="translate(487.064453 0)"/>
      <use xlink:href="#DejaVuSans-20" transform="translate(548.587891 0)"/>
      <use xlink:href="#DejaVuSans-28" transform="translate(580.375 0)"/>
      <use xlink:href="#DejaVuSans-30" transform="translate(619.388672 0)"/>
      <use xlink:href="#DejaVuSans-2e" transform="translate(683.011719 0)"/>
      <use xlink:href="#DejaVuSans-34" transform="translate(714.798828 0)"/>
      <use xlink:href="#DejaVuSans-30" transform="translate(778.421875 0)"/>
      <use xlink:href="#DejaVuSans-29" transform="translate(842.044922 0)"/>
     </g>
    </g>
   </g>
  </g>
 </g>
 <defs>
  <clipPath id="p6c8e11eba3">
   <rect x="43.15875" y="22.318125" width="229.735273" height="229.735273"/>
  </clipPath>
  <clipPath id="p5f3200457d">
   <rect x="359.65875" y="22.318125" width="229.735273" height="229.735273"/>
  </clipPath>
 </defs>
</svg>
