<?xml version="1.0" encoding="utf-8" standalone="no"?>
<!DOCTYPE svg PUBLIC "-//W3C//DTD SVG 1.1//EN"
  "http://www.w3.org/Graphics/SVG/1.1/DTD/svg11.dtd">
<svg xmlns:xlink="http://www.w3.org/1999/xlink" width="498.8175pt" height="318.9915pt" viewBox="0 0 498.8175 318.9915" xmlns="http://www.w3.org/2000/svg" version="1.1">
 <metadata>
  <rdf:RDF xmlns:dc="http://purl.org/dc/elements/1.1/" xmlns:cc="http://creativecommons.org/ns#" xmlns:rdf="http://www.w3.org/1999/02/22-rdf-syntax-ns#">
   <cc:Work>
    <dc:type rdf:resource="http://purl.org/dc/dcmitype/StillImage"/>
    <dc:date>2026-05-25T09:05:39.614989</dc:date>
    <dc:format>image/svg+xml</dc:format>
    <dc:creator>
     <cc:Agent>
      <dc:title>Matplotlib v3.10.9, https://matplotlib.org/</dc:title>
     </cc:Agent>
    </dc:creator>
   </cc:Work>
  </rdf:RDF>
 </metadata>
 <defs>
  <style type="text/css">*{stroke-linejoin: round; stroke-linecap: butt}</style>
 </defs>
 <g id="figure_1">
  <g id="patch_1">
   <path d="M 0 318.9915 
L 498.8175 318.9915 
L 498.8175 0 
L 0 0 
z
" style="fill: #ffffff"/>
  </g>
  <g id="axes_1">
   <g id="patch_2">
    <path d="M 38.9725 287.904 
L 491.6175 287.904 
L 491.6175 7.2 
L 38.9725 7.2 
z
" style="fill: #ffffff"/>
   </g>
   <g id="FillBetweenPolyCollection_1">
    <defs>
     <path id="m1314cbb208" d="M 111.570533 -66.602223 
L 103.22063 -66.602223 
L 102.587238 -68.54193 
L 101.892 -70.481637 
L 101.130003 -72.421345 
L 100.295787 -74.361052 
L 99.383725 -76.300759 
L 98.388581 -78.240466 
L 97.306233 -80.180173 
L 96.134524 -82.119881 
L 94.874183 -84.059588 
L 93.529738 -85.999295 
L 92.110332 -87.939002 
L 90.630339 -89.87871 
L 89.109658 -91.818417 
L 87.573613 -93.758124 
L 86.052377 -95.697831 
L 84.579895 -97.637539 
L 83.192351 -99.577246 
L 81.926256 -101.516953 
L 80.816322 -103.45666 
L 79.893295 -105.396368 
L 79.181978 -107.336075 
L 78.699626 -109.275782 
L 78.454881 -111.215489 
L 78.447355 -113.155196 
L 78.667868 -115.094904 
L 79.099311 -117.034611 
L 79.718003 -118.974318 
L 80.495383 -120.914025 
L 81.399871 -122.853733 
L 82.398717 -124.79344 
L 83.459694 -126.733147 
L 84.552542 -128.672854 
L 85.650096 -130.612562 
L 86.729077 -132.552269 
L 87.770574 -134.491976 
L 88.760229 -136.431683 
L 89.688196 -138.371391 
L 90.548894 -140.311098 
L 91.340624 -142.250805 
L 92.065083 -144.190512 
L 92.726815 -146.130219 
L 93.332634 -148.069927 
L 93.891045 -150.009634 
L 94.411679 -151.949341 
L 94.904756 -153.889048 
L 95.38057 -155.828756 
L 95.848993 -157.768463 
L 96.319003 -159.70817 
L 96.798223 -161.647877 
L 97.292491 -163.587585 
L 97.805494 -165.527292 
L 98.338491 -167.466999 
L 98.890179 -169.406706 
L 99.456719 -171.346414 
L 100.031979 -173.286121 
L 100.607945 -175.225828 
L 101.175316 -177.165535 
L 101.724199 -179.105242 
L 102.244844 -181.04495 
L 102.728345 -182.984657 
L 103.167246 -184.924364 
L 103.555986 -186.864071 
L 103.891185 -188.803779 
L 104.171751 -190.743486 
L 104.398854 -192.683193 
L 104.575769 -194.6229 
L 104.707643 -196.562608 
L 104.801197 -198.502315 
L 104.864379 -200.442022 
L 104.905968 -202.381729 
L 104.935125 -204.321437 
L 104.960904 -206.261144 
L 104.991732 -208.200851 
L 105.03489 -210.140558 
L 105.096039 -212.080265 
L 105.178846 -214.019973 
L 105.284761 -215.95968 
L 105.412975 -217.899387 
L 105.560573 -219.839094 
L 105.722882 -221.778802 
L 105.893952 -223.718509 
L 106.067141 -225.658216 
L 106.235706 -227.597923 
L 106.393366 -229.537631 
L 106.534763 -231.477338 
L 106.655801 -233.417045 
L 106.753837 -235.356752 
L 106.827748 -237.29646 
L 106.877877 -239.236167 
L 106.905883 -241.175874 
L 106.914537 -243.115581 
L 106.907467 -245.055288 
L 106.88888 -246.994996 
L 106.863274 -248.934703 
L 106.835145 -250.87441 
L 106.808711 -252.814117 
L 106.787655 -254.753825 
L 106.774917 -256.693532 
L 106.772536 -258.633239 
L 108.018627 -258.633239 
L 108.018627 -258.633239 
L 108.016246 -256.693532 
L 108.003507 -254.753825 
L 107.982452 -252.814117 
L 107.956018 -250.87441 
L 107.927889 -248.934703 
L 107.902283 -246.994996 
L 107.883696 -245.055288 
L 107.876626 -243.115581 
L 107.88528 -241.175874 
L 107.913286 -239.236167 
L 107.963414 -237.29646 
L 108.037326 -235.356752 
L 108.135362 -233.417045 
L 108.2564 -231.477338 
L 108.397797 -229.537631 
L 108.555457 -227.597923 
L 108.724022 -225.658216 
L 108.89721 -223.718509 
L 109.068281 -221.778802 
L 109.23059 -219.839094 
L 109.378188 -217.899387 
L 109.506402 -215.95968 
L 109.612317 -214.019973 
L 109.695124 -212.080265 
L 109.756273 -210.140558 
L 109.79943 -208.200851 
L 109.830259 -206.261144 
L 109.856038 -204.321437 
L 109.885195 -202.381729 
L 109.926783 -200.442022 
L 109.989966 -198.502315 
L 110.08352 -196.562608 
L 110.215394 -194.6229 
L 110.392308 -192.683193 
L 110.619412 -190.743486 
L 110.899978 -188.803779 
L 111.235176 -186.864071 
L 111.623916 -184.924364 
L 112.062817 -182.984657 
L 112.546319 -181.04495 
L 113.066964 -179.105242 
L 113.615847 -177.165535 
L 114.183218 -175.225828 
L 114.759184 -173.286121 
L 115.334443 -171.346414 
L 115.900984 -169.406706 
L 116.452671 -167.466999 
L 116.985669 -165.527292 
L 117.498672 -163.587585 
L 117.99294 -161.647877 
L 118.47216 -159.70817 
L 118.94217 -157.768463 
L 119.410593 -155.828756 
L 119.886406 -153.889048 
L 120.379483 -151.949341 
L 120.900118 -150.009634 
L 121.458529 -148.069927 
L 122.064348 -146.130219 
L 122.72608 -144.190512 
L 123.450539 -142.250805 
L 124.242269 -140.311098 
L 125.102966 -138.371391 
L 126.030933 -136.431683 
L 127.020589 -134.491976 
L 128.062085 -132.552269 
L 129.141067 -130.612562 
L 130.23862 -128.672854 
L 131.331469 -126.733147 
L 132.392446 -124.79344 
L 133.391292 -122.853733 
L 134.29578 -120.914025 
L 135.07316 -118.974318 
L 135.691852 -117.034611 
L 136.123295 -115.094904 
L 136.343808 -113.155196 
L 136.336281 -111.215489 
L 136.091537 -109.275782 
L 135.609184 -107.336075 
L 134.897868 -105.396368 
L 133.974841 -103.45666 
L 132.864907 -101.516953 
L 131.598812 -99.577246 
L 130.211267 -97.637539 
L 128.738786 -95.697831 
L 127.21755 -93.758124 
L 125.681505 -91.818417 
L 124.160824 -89.87871 
L 122.680831 -87.939002 
L 121.261425 -85.999295 
L 119.91698 -84.059588 
L 118.656638 -82.119881 
L 117.48493 -80.180173 
L 116.402582 -78.240466 
L 115.407438 -76.300759 
L 114.495376 -74.361052 
L 113.66116 -72.421345 
L 112.899163 -70.481637 
L 112.203925 -68.54193 
L 111.570533 -66.602223 
z
" style="stroke: #0072b2; stroke-opacity: 0.35; stroke-width: 0.8"/>
    </defs>
    <g clip-path="url(#pc58e97eb6d)">
     <use xlink:href="#m1314cbb208" x="0" y="318.9915" style="fill: #0072b2; fill-opacity: 0.35; stroke: #0072b2; stroke-opacity: 0.35; stroke-width: 0.8"/>
    </g>
   </g>
   <g id="FillBetweenPolyCollection_2">
    <defs>
     <path id="m03ded4ee68" d="M 224.809859 -67.69456 
L 200.513862 -67.69456 
L 199.068781 -69.353696 
L 197.622802 -71.012832 
L 196.199763 -72.671967 
L 194.821596 -74.331103 
L 193.507122 -75.990239 
L 192.271118 -77.649375 
L 191.123767 -79.308511 
L 190.070539 -80.967646 
L 189.112511 -82.626782 
L 188.247091 -84.285918 
L 187.469051 -85.945054 
L 186.771766 -87.60419 
L 186.148504 -89.263325 
L 185.593643 -90.922461 
L 185.103693 -92.581597 
L 184.678027 -94.240733 
L 184.319281 -95.899869 
L 184.033392 -97.559005 
L 183.82931 -99.21814 
L 183.718405 -100.877276 
L 183.713634 -102.536412 
L 183.82852 -104.195548 
L 184.076014 -105.854684 
L 184.467296 -107.513819 
L 185.010596 -109.172955 
L 185.710113 -110.832091 
L 186.565123 -112.491227 
L 187.56936 -114.150363 
L 188.710773 -115.809499 
L 189.9717 -117.468634 
L 191.329506 -119.12777 
L 192.757649 -120.786906 
L 194.227111 -122.446042 
L 195.708058 -124.105178 
L 197.171579 -125.764313 
L 198.591312 -127.423449 
L 199.944796 -129.082585 
L 201.21441 -130.741721 
L 202.387824 -132.400857 
L 203.457941 -134.059993 
L 204.422392 -135.719128 
L 205.282697 -137.378264 
L 206.043226 -139.0374 
L 206.71014 -140.696536 
L 207.290432 -142.355672 
L 207.791202 -144.014807 
L 208.219191 -145.673943 
L 208.58061 -147.333079 
L 208.881197 -148.992215 
L 209.126438 -150.651351 
L 209.321846 -152.310486 
L 209.473222 -153.969622 
L 209.586816 -155.628758 
L 209.669352 -157.287894 
L 209.72791 -158.94703 
L 209.769686 -160.606166 
L 209.80168 -162.265301 
L 209.83037 -163.924437 
L 209.861418 -165.583573 
L 209.899467 -167.242709 
L 209.948028 -168.901845 
L 210.00948 -170.56098 
L 210.085146 -172.220116 
L 210.175426 -173.879252 
L 210.279943 -175.538388 
L 210.397678 -177.197524 
L 210.527072 -178.85666 
L 210.666091 -180.515795 
L 210.812271 -182.174931 
L 210.962747 -183.834067 
L 211.114304 -185.493203 
L 211.263462 -187.152339 
L 211.406604 -188.811474 
L 211.540149 -190.47061 
L 211.660767 -192.129746 
L 211.765598 -193.788882 
L 211.852458 -195.448018 
L 211.920012 -197.107153 
L 211.967877 -198.766289 
L 211.996646 -200.425425 
L 212.007833 -202.084561 
L 212.00373 -203.743697 
L 211.987205 -205.402833 
L 211.961455 -207.061968 
L 211.929749 -208.721104 
L 211.895187 -210.38024 
L 211.860502 -212.039376 
L 211.827936 -213.698512 
L 211.799183 -215.357647 
L 211.775415 -217.016783 
L 211.757369 -218.675919 
L 211.74547 -220.335055 
L 211.73997 -221.994191 
L 211.741061 -223.653327 
L 211.748958 -225.312462 
L 211.763914 -226.971598 
L 211.786188 -228.630734 
L 211.815965 -230.28987 
L 211.853258 -231.949006 
L 213.470463 -231.949006 
L 213.470463 -231.949006 
L 213.507756 -230.28987 
L 213.537533 -228.630734 
L 213.559807 -226.971598 
L 213.574763 -225.312462 
L 213.58266 -223.653327 
L 213.583751 -221.994191 
L 213.578251 -220.335055 
L 213.566352 -218.675919 
L 213.548305 -217.016783 
L 213.524538 -215.357647 
L 213.495785 -213.698512 
L 213.463219 -212.039376 
L 213.428534 -210.38024 
L 213.393972 -208.721104 
L 213.362266 -207.061968 
L 213.336516 -205.402833 
L 213.31999 -203.743697 
L 213.315888 -202.084561 
L 213.327075 -200.425425 
L 213.355844 -198.766289 
L 213.403709 -197.107153 
L 213.471263 -195.448018 
L 213.558123 -193.788882 
L 213.662954 -192.129746 
L 213.783572 -190.47061 
L 213.917117 -188.811474 
L 214.060259 -187.152339 
L 214.209417 -185.493203 
L 214.360974 -183.834067 
L 214.51145 -182.174931 
L 214.65763 -180.515795 
L 214.796649 -178.85666 
L 214.926043 -177.197524 
L 215.043778 -175.538388 
L 215.148295 -173.879252 
L 215.238575 -172.220116 
L 215.314241 -170.56098 
L 215.375693 -168.901845 
L 215.424254 -167.242709 
L 215.462303 -165.583573 
L 215.493351 -163.924437 
L 215.522041 -162.265301 
L 215.554035 -160.606166 
L 215.59581 -158.94703 
L 215.654369 -157.287894 
L 215.736905 -155.628758 
L 215.850499 -153.969622 
L 216.001875 -152.310486 
L 216.197283 -150.651351 
L 216.442524 -148.992215 
L 216.743111 -147.333079 
L 217.10453 -145.673943 
L 217.532519 -144.014807 
L 218.033289 -142.355672 
L 218.613581 -140.696536 
L 219.280495 -139.0374 
L 220.041024 -137.378264 
L 220.901329 -135.719128 
L 221.86578 -134.059993 
L 222.935897 -132.400857 
L 224.109311 -130.741721 
L 225.378925 -129.082585 
L 226.732409 -127.423449 
L 228.152142 -125.764313 
L 229.615663 -124.105178 
L 231.09661 -122.446042 
L 232.566072 -120.786906 
L 233.994215 -119.12777 
L 235.352021 -117.468634 
L 236.612948 -115.809499 
L 237.754361 -114.150363 
L 238.758598 -112.491227 
L 239.613608 -110.832091 
L 240.313125 -109.172955 
L 240.856425 -107.513819 
L 241.247707 -105.854684 
L 241.495201 -104.195548 
L 241.610087 -102.536412 
L 241.605316 -100.877276 
L 241.494411 -99.21814 
L 241.290329 -97.559005 
L 241.00444 -95.899869 
L 240.645693 -94.240733 
L 240.220028 -92.581597 
L 239.730078 -90.922461 
L 239.175217 -89.263325 
L 238.551955 -87.60419 
L 237.85467 -85.945054 
L 237.07663 -84.285918 
L 236.21121 -82.626782 
L 235.253182 -80.967646 
L 234.199954 -79.308511 
L 233.052603 -77.649375 
L 231.816599 -75.990239 
L 230.502124 -74.331103 
L 229.123958 -72.671967 
L 227.700919 -71.012832 
L 226.25494 -69.353696 
L 224.809859 -67.69456 
z
" style="stroke: #e69f00; stroke-opacity: 0.35; stroke-width: 0.8"/>
    </defs>
    <g clip-path="url(#pc58e97eb6d)">
     <use xlink:href="#m03ded4ee68" x="0" y="318.9915" style="fill: #e69f00; fill-opacity: 0.35; stroke: #e69f00; stroke-opacity: 0.35; stroke-width: 0.8"/>
    </g>
   </g>
   <g id="FillBetweenPolyCollection_3">
    <defs>
     <path id="m018bb20069" d="M 323.800216 -49.023858 
L 312.056063 -49.023858 
L 311.062791 -50.015501 
L 309.968361 -51.007144 
L 308.777098 -51.998786 
L 307.496579 -52.990429 
L 306.137687 -53.982072 
L 304.714497 -54.973715 
L 303.243998 -55.965358 
L 301.745647 -56.957001 
L 300.240789 -57.948644 
L 298.751974 -58.940287 
L 297.302218 -59.931929 
L 295.914241 -60.923572 
L 294.609729 -61.915215 
L 293.408653 -62.906858 
L 292.328678 -63.898501 
L 291.384664 -64.890144 
L 290.588279 -65.881787 
L 289.947724 -66.87343 
L 289.467564 -67.865072 
L 289.148665 -68.856715 
L 288.988224 -69.848358 
L 288.979913 -70.840001 
L 289.114112 -71.831644 
L 289.378258 -72.823287 
L 289.757288 -73.81493 
L 290.234186 -74.806572 
L 290.790622 -75.798215 
L 291.407645 -76.789858 
L 292.066426 -77.781501 
L 292.748991 -78.773144 
L 293.438911 -79.764787 
L 294.121904 -80.75643 
L 294.78631 -81.748073 
L 295.423399 -82.739715 
L 296.027505 -83.731358 
L 296.595968 -84.723001 
L 297.128896 -85.714644 
L 297.628781 -86.706287 
L 298.09998 -87.69793 
L 298.54814 -88.689573 
L 298.979576 -89.681216 
L 299.400681 -90.672858 
L 299.817396 -91.664501 
L 300.234775 -92.656144 
L 300.656669 -93.647787 
L 301.085551 -94.63943 
L 301.522465 -95.631073 
L 301.967107 -96.622716 
L 302.418 -97.614359 
L 302.872746 -98.606001 
L 303.328334 -99.597644 
L 303.781446 -100.589287 
L 304.228766 -101.58093 
L 304.667249 -102.572573 
L 305.094339 -103.564216 
L 305.508128 -104.555859 
L 305.907455 -105.547502 
L 306.291953 -106.539144 
L 306.662028 -107.530787 
L 307.018821 -108.52243 
L 307.36411 -109.514073 
L 307.700207 -110.505716 
L 308.029819 -111.497359 
L 308.3559 -112.489002 
L 308.681477 -113.480644 
L 309.009475 -114.472287 
L 309.342524 -115.46393 
L 309.68277 -116.455573 
L 310.031698 -117.447216 
L 310.389977 -118.438859 
L 310.757341 -119.430502 
L 311.13253 -120.422145 
L 311.513292 -121.413787 
L 311.896453 -122.40543 
L 312.278063 -123.397073 
L 312.653604 -124.388716 
L 313.018253 -125.380359 
L 313.36717 -126.372002 
L 313.695803 -127.363645 
L 314.000177 -128.355288 
L 314.277143 -129.34693 
L 314.524576 -130.338573 
L 314.7415 -131.330216 
L 314.928138 -132.321859 
L 315.085883 -133.313502 
L 315.217191 -134.305145 
L 315.325415 -135.296788 
L 315.414589 -136.288431 
L 315.489178 -137.280073 
L 315.553817 -138.271716 
L 315.613055 -139.263359 
L 315.671116 -140.255002 
L 315.731699 -141.246645 
L 315.797824 -142.238288 
L 315.871725 -143.229931 
L 315.954804 -144.221574 
L 316.047629 -145.213216 
L 316.149992 -146.204859 
L 316.260993 -147.196502 
L 319.595286 -147.196502 
L 319.595286 -147.196502 
L 319.706287 -146.204859 
L 319.80865 -145.213216 
L 319.901475 -144.221574 
L 319.984554 -143.229931 
L 320.058455 -142.238288 
L 320.12458 -141.246645 
L 320.185163 -140.255002 
L 320.243224 -139.263359 
L 320.302462 -138.271716 
L 320.367101 -137.280073 
L 320.44169 -136.288431 
L 320.530864 -135.296788 
L 320.639088 -134.305145 
L 320.770396 -133.313502 
L 320.928141 -132.321859 
L 321.11478 -131.330216 
L 321.331703 -130.338573 
L 321.579136 -129.34693 
L 321.856102 -128.355288 
L 322.160476 -127.363645 
L 322.489109 -126.372002 
L 322.838026 -125.380359 
L 323.202675 -124.388716 
L 323.578216 -123.397073 
L 323.959826 -122.40543 
L 324.342987 -121.413787 
L 324.723749 -120.422145 
L 325.098938 -119.430502 
L 325.466302 -118.438859 
L 325.824581 -117.447216 
L 326.173509 -116.455573 
L 326.513755 -115.46393 
L 326.846804 -114.472287 
L 327.174802 -113.480644 
L 327.500379 -112.489002 
L 327.82646 -111.497359 
L 328.156072 -110.505716 
L 328.492169 -109.514073 
L 328.837458 -108.52243 
L 329.194251 -107.530787 
L 329.564327 -106.539144 
L 329.948824 -105.547502 
L 330.348151 -104.555859 
L 330.76194 -103.564216 
L 331.18903 -102.572573 
L 331.627513 -101.58093 
L 332.074833 -100.589287 
L 332.527945 -99.597644 
L 332.983533 -98.606001 
L 333.438279 -97.614359 
L 333.889172 -96.622716 
L 334.333814 -95.631073 
L 334.770728 -94.63943 
L 335.19961 -93.647787 
L 335.621504 -92.656144 
L 336.038883 -91.664501 
L 336.455598 -90.672858 
L 336.876704 -89.681216 
L 337.308139 -88.689573 
L 337.756299 -87.69793 
L 338.227498 -86.706287 
L 338.727383 -85.714644 
L 339.260311 -84.723001 
L 339.828774 -83.731358 
L 340.43288 -82.739715 
L 341.069969 -81.748073 
L 341.734375 -80.75643 
L 342.417368 -79.764787 
L 343.107288 -78.773144 
L 343.789853 -77.781501 
L 344.448635 -76.789858 
L 345.065657 -75.798215 
L 345.622093 -74.806572 
L 346.098991 -73.81493 
L 346.478021 -72.823287 
L 346.742167 -71.831644 
L 346.876366 -70.840001 
L 346.868055 -69.848358 
L 346.707614 -68.856715 
L 346.388715 -67.865072 
L 345.908555 -66.87343 
L 345.268 -65.881787 
L 344.471615 -64.890144 
L 343.527601 -63.898501 
L 342.447626 -62.906858 
L 341.24655 -61.915215 
L 339.942038 -60.923572 
L 338.554061 -59.931929 
L 337.104305 -58.940287 
L 335.61549 -57.948644 
L 334.110632 -56.957001 
L 332.612281 -55.965358 
L 331.141782 -54.973715 
L 329.718592 -53.982072 
L 328.3597 -52.990429 
L 327.079181 -51.998786 
L 325.887919 -51.007144 
L 324.793488 -50.015501 
L 323.800216 -49.023858 
z
" style="stroke: #d55e00; stroke-opacity: 0.35; stroke-width: 0.8"/>
    </defs>
    <g clip-path="url(#pc58e97eb6d)">
     <use xlink:href="#m018bb20069" x="0" y="318.9915" style="fill: #d55e00; fill-opacity: 0.35; stroke: #d55e00; stroke-opacity: 0.35; stroke-width: 0.8"/>
    </g>
   </g>
   <g id="FillBetweenPolyCollection_4">
    <defs>
     <path id="m9ee9f66a5e" d="M 428.61122 -43.635607 
L 417.777617 -43.635607 
L 417.033942 -44.278715 
L 416.232738 -44.921822 
L 415.372202 -45.56493 
L 414.450416 -46.208037 
L 413.465705 -46.851145 
L 412.41714 -47.494252 
L 411.305135 -48.13736 
L 410.132084 -48.780467 
L 408.902945 -49.423575 
L 407.625711 -50.066682 
L 406.311677 -50.70979 
L 404.975453 -51.352897 
L 403.634693 -51.996005 
L 402.309531 -52.639112 
L 401.021778 -53.28222 
L 399.793923 -53.925327 
L 398.648047 -54.568435 
L 397.60474 -55.211542 
L 396.682123 -55.85465 
L 395.895072 -56.497757 
L 395.254704 -57.140865 
L 394.768153 -57.783973 
L 394.438641 -58.42708 
L 394.265802 -59.070188 
L 394.246192 -59.713295 
L 394.37391 -60.356403 
L 394.641234 -60.99951 
L 395.039201 -61.642618 
L 395.558063 -62.285725 
L 396.187599 -62.928833 
L 396.917266 -63.57194 
L 397.736213 -64.215048 
L 398.633214 -64.858155 
L 399.596558 -65.501263 
L 400.613953 -66.14437 
L 401.672502 -66.787478 
L 402.758766 -67.430585 
L 403.858936 -68.073693 
L 404.959105 -68.7168 
L 406.045619 -69.359908 
L 407.105481 -70.003015 
L 408.126757 -70.646123 
L 409.098972 -71.289231 
L 410.013434 -71.932338 
L 410.863492 -72.575446 
L 411.644685 -73.218553 
L 412.354791 -73.861661 
L 412.993768 -74.504768 
L 413.563592 -75.147876 
L 414.068021 -75.790983 
L 414.512281 -76.434091 
L 414.902726 -77.077198 
L 415.246472 -77.720306 
L 415.551052 -78.363413 
L 415.824091 -79.006521 
L 416.073033 -79.649628 
L 416.304926 -80.292736 
L 416.526248 -80.935843 
L 416.7428 -81.578951 
L 416.959616 -82.222058 
L 417.18092 -82.865166 
L 417.410083 -83.508273 
L 417.649597 -84.151381 
L 417.901048 -84.794489 
L 418.165097 -85.437596 
L 418.441472 -86.080704 
L 418.728982 -86.723811 
L 419.025551 -87.366919 
L 419.328287 -88.010026 
L 419.633589 -88.653134 
L 419.937281 -89.296241 
L 420.234786 -89.939349 
L 420.521316 -90.582456 
L 420.792076 -91.225564 
L 421.042481 -91.868671 
L 421.268363 -92.511779 
L 421.466168 -93.154886 
L 421.633133 -93.797994 
L 421.767438 -94.441101 
L 421.868318 -95.084209 
L 421.936138 -95.727316 
L 421.972417 -96.370424 
L 421.979799 -97.013531 
L 421.96196 -97.656639 
L 421.923463 -98.299746 
L 421.869553 -98.942854 
L 421.805908 -99.585962 
L 421.738362 -100.229069 
L 421.672611 -100.872177 
L 421.613928 -101.515284 
L 421.56691 -102.158392 
L 421.535273 -102.801499 
L 421.521706 -103.444607 
L 421.5278 -104.087714 
L 421.55405 -104.730822 
L 421.599918 -105.373929 
L 421.663956 -106.017037 
L 421.743976 -106.660144 
L 421.837232 -107.303252 
L 424.551605 -107.303252 
L 424.551605 -107.303252 
L 424.644861 -106.660144 
L 424.724881 -106.017037 
L 424.78892 -105.373929 
L 424.834787 -104.730822 
L 424.861037 -104.087714 
L 424.867132 -103.444607 
L 424.853564 -102.801499 
L 424.821927 -102.158392 
L 424.774909 -101.515284 
L 424.716226 -100.872177 
L 424.650475 -100.229069 
L 424.582929 -99.585962 
L 424.519285 -98.942854 
L 424.465374 -98.299746 
L 424.426877 -97.656639 
L 424.409038 -97.013531 
L 424.41642 -96.370424 
L 424.452699 -95.727316 
L 424.520519 -95.084209 
L 424.621399 -94.441101 
L 424.755704 -93.797994 
L 424.922669 -93.154886 
L 425.120474 -92.511779 
L 425.346356 -91.868671 
L 425.596761 -91.225564 
L 425.867521 -90.582456 
L 426.154051 -89.939349 
L 426.451556 -89.296241 
L 426.755249 -88.653134 
L 427.06055 -88.010026 
L 427.363286 -87.366919 
L 427.659855 -86.723811 
L 427.947365 -86.080704 
L 428.22374 -85.437596 
L 428.487789 -84.794489 
L 428.73924 -84.151381 
L 428.978754 -83.508273 
L 429.207918 -82.865166 
L 429.429222 -82.222058 
L 429.646038 -81.578951 
L 429.862589 -80.935843 
L 430.083911 -80.292736 
L 430.315804 -79.649628 
L 430.564747 -79.006521 
L 430.837785 -78.363413 
L 431.142365 -77.720306 
L 431.486112 -77.077198 
L 431.876556 -76.434091 
L 432.320816 -75.790983 
L 432.825245 -75.147876 
L 433.39507 -74.504768 
L 434.034046 -73.861661 
L 434.744153 -73.218553 
L 435.525346 -72.575446 
L 436.375403 -71.932338 
L 437.289865 -71.289231 
L 438.26208 -70.646123 
L 439.283357 -70.003015 
L 440.343218 -69.359908 
L 441.429733 -68.7168 
L 442.529901 -68.073693 
L 443.630071 -67.430585 
L 444.716335 -66.787478 
L 445.774884 -66.14437 
L 446.79228 -65.501263 
L 447.755623 -64.858155 
L 448.652625 -64.215048 
L 449.471572 -63.57194 
L 450.201238 -62.928833 
L 450.830774 -62.285725 
L 451.349637 -61.642618 
L 451.747603 -60.99951 
L 452.014927 -60.356403 
L 452.142645 -59.713295 
L 452.123035 -59.070188 
L 451.950196 -58.42708 
L 451.620684 -57.783973 
L 451.134133 -57.140865 
L 450.493765 -56.497757 
L 449.706715 -55.85465 
L 448.784097 -55.211542 
L 447.74079 -54.568435 
L 446.594915 -53.925327 
L 445.36706 -53.28222 
L 444.079306 -52.639112 
L 442.754144 -51.996005 
L 441.413384 -51.352897 
L 440.077161 -50.70979 
L 438.763127 -50.066682 
L 437.485893 -49.423575 
L 436.256753 -48.780467 
L 435.083702 -48.13736 
L 433.971698 -47.494252 
L 432.923132 -46.851145 
L 431.938421 -46.208037 
L 431.016635 -45.56493 
L 430.156099 -44.921822 
L 429.354895 -44.278715 
L 428.61122 -43.635607 
z
" style="stroke: #cc79a7; stroke-opacity: 0.35; stroke-width: 0.8"/>
    </defs>
    <g clip-path="url(#pc58e97eb6d)">
     <use xlink:href="#m9ee9f66a5e" x="0" y="318.9915" style="fill: #cc79a7; fill-opacity: 0.35; stroke: #cc79a7; stroke-opacity: 0.35; stroke-width: 0.8"/>
    </g>
   </g>
   <g id="matplotlib.axis_1">
    <g id="xtick_1">
     <g id="line2d_1">
      <defs>
       <path id="m83650f7494" d="M 0 0 
L 0 2.5 
" style="stroke: #000000; stroke-width: 0.6"/>
      </defs>
      <g>
       <use xlink:href="#m83650f7494" x="107.395581" y="287.904" style="stroke: #000000; stroke-width: 0.6"/>
      </g>
     </g>
     <g id="text_1">
      <text style="font-size: 9px; font-family: 'Arial', 'Helvetica', 'DejaVu Sans', 'Liberation Sans', sans-serif; text-anchor: middle" x="107.395581" y="300.346031" transform="rotate(-0 107.395581 300.346031)">Control</text>
     </g>
    </g>
    <g id="xtick_2">
     <g id="line2d_2">
      <g>
       <use xlink:href="#m83650f7494" x="212.66186" y="287.904" style="stroke: #000000; stroke-width: 0.6"/>
      </g>
     </g>
     <g id="text_2">
      <text style="font-size: 9px; font-family: 'Arial', 'Helvetica', 'DejaVu Sans', 'Liberation Sans', sans-serif" transform="translate(198.408814 300.346031)">Drug-A</text>
      <text style="font-size: 9px; font-family: 'Arial', 'Helvetica', 'DejaVu Sans', 'Liberation Sans', sans-serif" transform="translate(200.065376 310.00275)">10 µM</text>
     </g>
    </g>
    <g id="xtick_3">
     <g id="line2d_3">
      <g>
       <use xlink:href="#m83650f7494" x="317.92814" y="287.904" style="stroke: #000000; stroke-width: 0.6"/>
      </g>
     </g>
     <g id="text_3">
      <text style="font-size: 9px; font-family: 'Arial', 'Helvetica', 'DejaVu Sans', 'Liberation Sans', sans-serif" transform="translate(303.675093 300.346031)">Drug-A</text>
      <text style="font-size: 9px; font-family: 'Arial', 'Helvetica', 'DejaVu Sans', 'Liberation Sans', sans-serif" transform="translate(305.331655 310.00275)">50 µM</text>
     </g>
    </g>
    <g id="xtick_4">
     <g id="line2d_4">
      <g>
       <use xlink:href="#m83650f7494" x="423.194419" y="287.904" style="stroke: #000000; stroke-width: 0.6"/>
      </g>
     </g>
     <g id="text_4">
      <text style="font-size: 9px; font-family: 'Arial', 'Helvetica', 'DejaVu Sans', 'Liberation Sans', sans-serif; text-anchor: middle" x="423.194419" y="300.346031" transform="rotate(-0 423.194419 300.346031)">Combo</text>
     </g>
    </g>
   </g>
   <g id="matplotlib.axis_2">
    <g id="ytick_1">
     <g id="line2d_5">
      <defs>
       <path id="me1ebae36dd" d="M 0 0 
L -2.5 0 
" style="stroke: #000000; stroke-width: 0.6"/>
      </defs>
      <g>
       <use xlink:href="#me1ebae36dd" x="38.9725" y="287.904" style="stroke: #000000; stroke-width: 0.6"/>
      </g>
     </g>
     <g id="text_5">
      <text style="font-size: 9px; font-family: 'Arial', 'Helvetica', 'DejaVu Sans', 'Liberation Sans', sans-serif; text-anchor: end" x="32.9725" y="291.125016" transform="rotate(-0 32.9725 291.125016)">0.0</text>
     </g>
    </g>
    <g id="ytick_2">
     <g id="line2d_6">
      <g>
       <use xlink:href="#me1ebae36dd" x="38.9725" y="242.007486" style="stroke: #000000; stroke-width: 0.6"/>
      </g>
     </g>
     <g id="text_6">
      <text style="font-size: 9px; font-family: 'Arial', 'Helvetica', 'DejaVu Sans', 'Liberation Sans', sans-serif; text-anchor: end" x="32.9725" y="245.228501" transform="rotate(-0 32.9725 245.228501)">0.5</text>
     </g>
    </g>
    <g id="ytick_3">
     <g id="line2d_7">
      <g>
       <use xlink:href="#me1ebae36dd" x="38.9725" y="196.110971" style="stroke: #000000; stroke-width: 0.6"/>
      </g>
     </g>
     <g id="text_7">
      <text style="font-size: 9px; font-family: 'Arial', 'Helvetica', 'DejaVu Sans', 'Liberation Sans', sans-serif; text-anchor: end" x="32.9725" y="199.331987" transform="rotate(-0 32.9725 199.331987)">1.0</text>
     </g>
    </g>
    <g id="ytick_4">
     <g id="line2d_8">
      <g>
       <use xlink:href="#me1ebae36dd" x="38.9725" y="150.214457" style="stroke: #000000; stroke-width: 0.6"/>
      </g>
     </g>
     <g id="text_8">
      <text style="font-size: 9px; font-family: 'Arial', 'Helvetica', 'DejaVu Sans', 'Liberation Sans', sans-serif; text-anchor: end" x="32.9725" y="153.435472" transform="rotate(-0 32.9725 153.435472)">1.5</text>
     </g>
    </g>
    <g id="ytick_5">
     <g id="line2d_9">
      <g>
       <use xlink:href="#me1ebae36dd" x="38.9725" y="104.317942" style="stroke: #000000; stroke-width: 0.6"/>
      </g>
     </g>
     <g id="text_9">
      <text style="font-size: 9px; font-family: 'Arial', 'Helvetica', 'DejaVu Sans', 'Liberation Sans', sans-serif; text-anchor: end" x="32.9725" y="107.538958" transform="rotate(-0 32.9725 107.538958)">2.0</text>
     </g>
    </g>
    <g id="ytick_6">
     <g id="line2d_10">
      <g>
       <use xlink:href="#me1ebae36dd" x="38.9725" y="58.421428" style="stroke: #000000; stroke-width: 0.6"/>
      </g>
     </g>
     <g id="text_10">
      <text style="font-size: 9px; font-family: 'Arial', 'Helvetica', 'DejaVu Sans', 'Liberation Sans', sans-serif; text-anchor: end" x="32.9725" y="61.642444" transform="rotate(-0 32.9725 61.642444)">2.5</text>
     </g>
    </g>
    <g id="ytick_7">
     <g id="line2d_11">
      <g>
       <use xlink:href="#me1ebae36dd" x="38.9725" y="12.524914" style="stroke: #000000; stroke-width: 0.6"/>
      </g>
     </g>
     <g id="text_11">
      <text style="font-size: 9px; font-family: 'Arial', 'Helvetica', 'DejaVu Sans', 'Liberation Sans', sans-serif; text-anchor: end" x="32.9725" y="15.745929" transform="rotate(-0 32.9725 15.745929)">3.0</text>
     </g>
    </g>
    <g id="text_12">
     <text style="font-size: 10px; font-family: 'Arial', 'Helvetica', 'DejaVu Sans', 'Liberation Sans', sans-serif; text-anchor: middle" x="14.357813" y="147.552" transform="rotate(-90 14.357813 147.552)">Relative cell viability</text>
    </g>
   </g>
   <g id="PathCollection_1">
    <defs>
     <path id="m1809e890bc" d="M 0 1.732051 
C 0.459345 1.732051 0.899939 1.549551 1.224745 1.224745 
C 1.549551 0.899939 1.732051 0.459345 1.732051 0 
C 1.732051 -0.459345 1.549551 -0.899939 1.224745 -1.224745 
C 0.899939 -1.549551 0.459345 -1.732051 0 -1.732051 
C -0.459345 -1.732051 -0.899939 -1.549551 -1.224745 -1.224745 
C -1.549551 -0.899939 -1.732051 -0.459345 -1.732051 0 
C -1.732051 0.459345 -1.549551 0.899939 -1.224745 1.224745 
C -0.899939 1.549551 -0.459345 1.732051 0 1.732051 
z
"/>
    </defs>
    <g clip-path="url(#pc58e97eb6d)">
     <use xlink:href="#m1809e890bc" x="117.777382" y="208.594823" style="fill: #0072b2; fill-opacity: 0.35"/>
     <use xlink:href="#m1809e890bc" x="105.079327" y="208.24601" style="fill: #0072b2; fill-opacity: 0.35"/>
     <use xlink:href="#m1809e890bc" x="120.984958" y="213.120219" style="fill: #0072b2; fill-opacity: 0.35"/>
     <use xlink:href="#m1809e890bc" x="114.875013" y="195.358268" style="fill: #0072b2; fill-opacity: 0.35"/>
     <use xlink:href="#m1809e890bc" x="92.016583" y="60.358261" style="fill: #0072b2; fill-opacity: 0.35"/>
     <use xlink:href="#m1809e890bc" x="125.4197" y="122.805058" style="fill: #0072b2; fill-opacity: 0.35"/>
     <use xlink:href="#m1809e890bc" x="117.291695" y="182.452169" style="fill: #0072b2; fill-opacity: 0.35"/>
     <use xlink:href="#m1809e890bc" x="118.236234" y="169.564427" style="fill: #0072b2; fill-opacity: 0.35"/>
     <use xlink:href="#m1809e890bc" x="93.302628" y="147.249542" style="fill: #0072b2; fill-opacity: 0.35"/>
     <use xlink:href="#m1809e890bc" x="105.515414" y="207.704431" style="fill: #0072b2; fill-opacity: 0.35"/>
     <use xlink:href="#m1809e890bc" x="102.499361" y="198.414976" style="fill: #0072b2; fill-opacity: 0.35"/>
     <use xlink:href="#m1809e890bc" x="123.568208" y="230.257978" style="fill: #0072b2; fill-opacity: 0.35"/>
     <use xlink:href="#m1809e890bc" x="112.847474" y="182.947851" style="fill: #0072b2; fill-opacity: 0.35"/>
     <use xlink:href="#m1809e890bc" x="119.62691" y="190.741079" style="fill: #0072b2; fill-opacity: 0.35"/>
     <use xlink:href="#m1809e890bc" x="105.251214" y="215.571093" style="fill: #0072b2; fill-opacity: 0.35"/>
     <use xlink:href="#m1809e890bc" x="97.059058" y="196.312916" style="fill: #0072b2; fill-opacity: 0.35"/>
     <use xlink:href="#m1809e890bc" x="109.464119" y="199.259472" style="fill: #0072b2; fill-opacity: 0.35"/>
     <use xlink:href="#m1809e890bc" x="90.866061" y="212.98253" style="fill: #0072b2; fill-opacity: 0.35"/>
     <use xlink:href="#m1809e890bc" x="119.811447" y="205.20766" style="fill: #0072b2; fill-opacity: 0.35"/>
     <use xlink:href="#m1809e890bc" x="112.385117" y="213.588364" style="fill: #0072b2; fill-opacity: 0.35"/>
     <use xlink:href="#m1809e890bc" x="117.176038" y="154.91426" style="fill: #0072b2; fill-opacity: 0.35"/>
     <use xlink:href="#m1809e890bc" x="101.882718" y="169.417558" style="fill: #0072b2; fill-opacity: 0.35"/>
     <use xlink:href="#m1809e890bc" x="125.233088" y="205.565653" style="fill: #0072b2; fill-opacity: 0.35"/>
     <use xlink:href="#m1809e890bc" x="122.293245" y="205.813494" style="fill: #0072b2; fill-opacity: 0.35"/>
     <use xlink:href="#m1809e890bc" x="117.945164" y="224.117024" style="fill: #0072b2; fill-opacity: 0.35"/>
     <use xlink:href="#m1809e890bc" x="95.823652" y="195.60611" style="fill: #0072b2; fill-opacity: 0.35"/>
     <use xlink:href="#m1809e890bc" x="106.134445" y="166.709664" style="fill: #0072b2; fill-opacity: 0.35"/>
     <use xlink:href="#m1809e890bc" x="90.107633" y="211.458766" style="fill: #0072b2; fill-opacity: 0.35"/>
     <use xlink:href="#m1809e890bc" x="94.294584" y="205.556474" style="fill: #0072b2; fill-opacity: 0.35"/>
     <use xlink:href="#m1809e890bc" x="114.332379" y="143.788945" style="fill: #0072b2; fill-opacity: 0.35"/>
     <use xlink:href="#m1809e890bc" x="116.671054" y="250.213782" style="fill: #0072b2; fill-opacity: 0.35"/>
     <use xlink:href="#m1809e890bc" x="125.112265" y="218.361601" style="fill: #0072b2; fill-opacity: 0.35"/>
     <use xlink:href="#m1809e890bc" x="100.795083" y="192.154692" style="fill: #0072b2; fill-opacity: 0.35"/>
     <use xlink:href="#m1809e890bc" x="102.48654" y="154.189095" style="fill: #0072b2; fill-opacity: 0.35"/>
     <use xlink:href="#m1809e890bc" x="106.241873" y="201.205484" style="fill: #0072b2; fill-opacity: 0.35"/>
     <use xlink:href="#m1809e890bc" x="95.627831" y="183.838243" style="fill: #0072b2; fill-opacity: 0.35"/>
     <use xlink:href="#m1809e890bc" x="93.371138" y="219.802752" style="fill: #0072b2; fill-opacity: 0.35"/>
     <use xlink:href="#m1809e890bc" x="106.474899" y="167.480726" style="fill: #0072b2; fill-opacity: 0.35"/>
     <use xlink:href="#m1809e890bc" x="97.046576" y="192.824781" style="fill: #0072b2; fill-opacity: 0.35"/>
     <use xlink:href="#m1809e890bc" x="113.830829" y="203.720613" style="fill: #0072b2; fill-opacity: 0.35"/>
     <use xlink:href="#m1809e890bc" x="105.013899" y="190.309652" style="fill: #0072b2; fill-opacity: 0.35"/>
     <use xlink:href="#m1809e890bc" x="120.002708" y="214.313529" style="fill: #0072b2; fill-opacity: 0.35"/>
     <use xlink:href="#m1809e890bc" x="114.9848" y="145.496295" style="fill: #0072b2; fill-opacity: 0.35"/>
     <use xlink:href="#m1809e890bc" x="100.285054" y="213.606722" style="fill: #0072b2; fill-opacity: 0.35"/>
     <use xlink:href="#m1809e890bc" x="119.986852" y="196.39553" style="fill: #0072b2; fill-opacity: 0.35"/>
     <use xlink:href="#m1809e890bc" x="118.944889" y="201.857215" style="fill: #0072b2; fill-opacity: 0.35"/>
     <use xlink:href="#m1809e890bc" x="103.131478" y="210.292994" style="fill: #0072b2; fill-opacity: 0.35"/>
     <use xlink:href="#m1809e890bc" x="99.374093" y="182.663292" style="fill: #0072b2; fill-opacity: 0.35"/>
     <use xlink:href="#m1809e890bc" x="114.311406" y="106.034472" style="fill: #0072b2; fill-opacity: 0.35"/>
     <use xlink:href="#m1809e890bc" x="93.743692" y="195.771337" style="fill: #0072b2; fill-opacity: 0.35"/>
     <use xlink:href="#m1809e890bc" x="96.023345" y="149.608623" style="fill: #0072b2; fill-opacity: 0.35"/>
     <use xlink:href="#m1809e890bc" x="88.726651" y="170.06011" style="fill: #0072b2; fill-opacity: 0.35"/>
     <use xlink:href="#m1809e890bc" x="118.268828" y="242.246147" style="fill: #0072b2; fill-opacity: 0.35"/>
     <use xlink:href="#m1809e890bc" x="113.642746" y="196.39553" style="fill: #0072b2; fill-opacity: 0.35"/>
     <use xlink:href="#m1809e890bc" x="115.1705" y="218.875642" style="fill: #0072b2; fill-opacity: 0.35"/>
     <use xlink:href="#m1809e890bc" x="118.03405" y="223.226632" style="fill: #0072b2; fill-opacity: 0.35"/>
     <use xlink:href="#m1809e890bc" x="105.838659" y="228.51391" style="fill: #0072b2; fill-opacity: 0.35"/>
     <use xlink:href="#m1809e890bc" x="110.000588" y="152.821379" style="fill: #0072b2; fill-opacity: 0.35"/>
     <use xlink:href="#m1809e890bc" x="93.745379" y="180.304212" style="fill: #0072b2; fill-opacity: 0.35"/>
     <use xlink:href="#m1809e890bc" x="92.787867" y="205.942005" style="fill: #0072b2; fill-opacity: 0.35"/>
     <use xlink:href="#m1809e890bc" x="113.777357" y="213.037606" style="fill: #0072b2; fill-opacity: 0.35"/>
     <use xlink:href="#m1809e890bc" x="106.300247" y="231.240163" style="fill: #0072b2; fill-opacity: 0.35"/>
     <use xlink:href="#m1809e890bc" x="109.86776" y="158.852181" style="fill: #0072b2; fill-opacity: 0.35"/>
     <use xlink:href="#m1809e890bc" x="117.437941" y="233.002589" style="fill: #0072b2; fill-opacity: 0.35"/>
     <use xlink:href="#m1809e890bc" x="112.500848" y="252.389277" style="fill: #0072b2; fill-opacity: 0.35"/>
     <use xlink:href="#m1809e890bc" x="109.426019" y="219.215277" style="fill: #0072b2; fill-opacity: 0.35"/>
     <use xlink:href="#m1809e890bc" x="109.639288" y="218.848104" style="fill: #0072b2; fill-opacity: 0.35"/>
     <use xlink:href="#m1809e890bc" x="99.966102" y="159.008229" style="fill: #0072b2; fill-opacity: 0.35"/>
     <use xlink:href="#m1809e890bc" x="89.61552" y="207.520845" style="fill: #0072b2; fill-opacity: 0.35"/>
     <use xlink:href="#m1809e890bc" x="104.997432" y="232.451831" style="fill: #0072b2; fill-opacity: 0.35"/>
     <use xlink:href="#m1809e890bc" x="96.579522" y="209.062968" style="fill: #0072b2; fill-opacity: 0.35"/>
     <use xlink:href="#m1809e890bc" x="103.929196" y="106.135444" style="fill: #0072b2; fill-opacity: 0.35"/>
     <use xlink:href="#m1809e890bc" x="120.788095" y="220.206641" style="fill: #0072b2; fill-opacity: 0.35"/>
     <use xlink:href="#m1809e890bc" x="97.312989" y="204.096965" style="fill: #0072b2; fill-opacity: 0.35"/>
     <use xlink:href="#m1809e890bc" x="90.657084" y="203.426876" style="fill: #0072b2; fill-opacity: 0.35"/>
     <use xlink:href="#m1809e890bc" x="99.110936" y="162.175088" style="fill: #0072b2; fill-opacity: 0.35"/>
     <use xlink:href="#m1809e890bc" x="99.573639" y="104.033384" style="fill: #0072b2; fill-opacity: 0.35"/>
     <use xlink:href="#m1809e890bc" x="113.531547" y="186.885772" style="fill: #0072b2; fill-opacity: 0.35"/>
     <use xlink:href="#m1809e890bc" x="109.556864" y="210.449042" style="fill: #0072b2; fill-opacity: 0.35"/>
     <use xlink:href="#m1809e890bc" x="118.154148" y="177.568779" style="fill: #0072b2; fill-opacity: 0.35"/>
     <use xlink:href="#m1809e890bc" x="113.622384" y="243.907601" style="fill: #0072b2; fill-opacity: 0.35"/>
     <use xlink:href="#m1809e890bc" x="103.848031" y="209.861567" style="fill: #0072b2; fill-opacity: 0.35"/>
     <use xlink:href="#m1809e890bc" x="119.295654" y="238.79473" style="fill: #0072b2; fill-opacity: 0.35"/>
     <use xlink:href="#m1809e890bc" x="94.775234" y="209.219016" style="fill: #0072b2; fill-opacity: 0.35"/>
     <use xlink:href="#m1809e890bc" x="89.308345" y="231.28606" style="fill: #0072b2; fill-opacity: 0.35"/>
     <use xlink:href="#m1809e890bc" x="91.860092" y="172.630314" style="fill: #0072b2; fill-opacity: 0.35"/>
     <use xlink:href="#m1809e890bc" x="115.82208" y="218.086222" style="fill: #0072b2; fill-opacity: 0.35"/>
     <use xlink:href="#m1809e890bc" x="105.950886" y="173.337121" style="fill: #0072b2; fill-opacity: 0.35"/>
     <use xlink:href="#m1809e890bc" x="94.559184" y="185.19678" style="fill: #0072b2; fill-opacity: 0.35"/>
     <use xlink:href="#m1809e890bc" x="107.435174" y="165.250155" style="fill: #0072b2; fill-opacity: 0.35"/>
     <use xlink:href="#m1809e890bc" x="94.219649" y="190.043452" style="fill: #0072b2; fill-opacity: 0.35"/>
     <use xlink:href="#m1809e890bc" x="114.835311" y="178.174613" style="fill: #0072b2; fill-opacity: 0.35"/>
     <use xlink:href="#m1809e890bc" x="105.355127" y="212.826482" style="fill: #0072b2; fill-opacity: 0.35"/>
     <use xlink:href="#m1809e890bc" x="102.886778" y="189.474335" style="fill: #0072b2; fill-opacity: 0.35"/>
     <use xlink:href="#m1809e890bc" x="99.873711" y="195.587751" style="fill: #0072b2; fill-opacity: 0.35"/>
     <use xlink:href="#m1809e890bc" x="112.332752" y="131.295914" style="fill: #0072b2; fill-opacity: 0.35"/>
     <use xlink:href="#m1809e890bc" x="102.158851" y="203.491131" style="fill: #0072b2; fill-opacity: 0.35"/>
     <use xlink:href="#m1809e890bc" x="91.76922" y="225.796837" style="fill: #0072b2; fill-opacity: 0.35"/>
     <use xlink:href="#m1809e890bc" x="92.919586" y="218.673698" style="fill: #0072b2; fill-opacity: 0.35"/>
     <use xlink:href="#m1809e890bc" x="124.899591" y="149.38832" style="fill: #0072b2; fill-opacity: 0.35"/>
    </g>
   </g>
   <g id="PathCollection_2">
    <defs>
     <path id="m0bb5d98c16" d="M 0 1.732051 
C 0.459345 1.732051 0.899939 1.549551 1.224745 1.224745 
C 1.549551 0.899939 1.732051 0.459345 1.732051 0 
C 1.732051 -0.459345 1.549551 -0.899939 1.224745 -1.224745 
C 0.899939 -1.549551 0.459345 -1.732051 0 -1.732051 
C -0.459345 -1.732051 -0.899939 -1.549551 -1.224745 -1.224745 
C -1.549551 -0.899939 -1.732051 -0.459345 -1.732051 0 
C -1.732051 0.459345 -1.549551 0.899939 -1.224745 1.224745 
C -0.899939 1.549551 -0.459345 1.732051 0 1.732051 
z
"/>
    </defs>
    <g clip-path="url(#pc58e97eb6d)">
     <use xlink:href="#m0bb5d98c16" x="228.145377" y="181.194604" style="fill: #e69f00; fill-opacity: 0.35"/>
     <use xlink:href="#m0bb5d98c16" x="220.229934" y="250.470803" style="fill: #e69f00; fill-opacity: 0.35"/>
     <use xlink:href="#m0bb5d98c16" x="203.789301" y="204.55593" style="fill: #e69f00; fill-opacity: 0.35"/>
     <use xlink:href="#m0bb5d98c16" x="230.441703" y="233.167817" style="fill: #e69f00; fill-opacity: 0.35"/>
     <use xlink:href="#m0bb5d98c16" x="223.225366" y="233.277969" style="fill: #e69f00; fill-opacity: 0.35"/>
     <use xlink:href="#m0bb5d98c16" x="220.881101" y="238.317406" style="fill: #e69f00; fill-opacity: 0.35"/>
     <use xlink:href="#m0bb5d98c16" x="210.742871" y="207.630996" style="fill: #e69f00; fill-opacity: 0.35"/>
     <use xlink:href="#m0bb5d98c16" x="204.030758" y="241.612776" style="fill: #e69f00; fill-opacity: 0.35"/>
     <use xlink:href="#m0bb5d98c16" x="197.366749" y="206.254101" style="fill: #e69f00; fill-opacity: 0.35"/>
     <use xlink:href="#m0bb5d98c16" x="227.918825" y="225.76012" style="fill: #e69f00; fill-opacity: 0.35"/>
     <use xlink:href="#m0bb5d98c16" x="210.985965" y="181.91059" style="fill: #e69f00; fill-opacity: 0.35"/>
     <use xlink:href="#m0bb5d98c16" x="201.382664" y="225.640789" style="fill: #e69f00; fill-opacity: 0.35"/>
     <use xlink:href="#m0bb5d98c16" x="205.30842" y="209.411781" style="fill: #e69f00; fill-opacity: 0.35"/>
     <use xlink:href="#m0bb5d98c16" x="215.663954" y="251.003202" style="fill: #e69f00; fill-opacity: 0.35"/>
     <use xlink:href="#m0bb5d98c16" x="200.412887" y="221.519282" style="fill: #e69f00; fill-opacity: 0.35"/>
     <use xlink:href="#m0bb5d98c16" x="226.176066" y="232.690493" style="fill: #e69f00; fill-opacity: 0.35"/>
     <use xlink:href="#m0bb5d98c16" x="222.45868" y="226.090574" style="fill: #e69f00; fill-opacity: 0.35"/>
     <use xlink:href="#m0bb5d98c16" x="220.978598" y="223.244991" style="fill: #e69f00; fill-opacity: 0.35"/>
     <use xlink:href="#m0bb5d98c16" x="210.088468" y="202.876117" style="fill: #e69f00; fill-opacity: 0.35"/>
     <use xlink:href="#m0bb5d98c16" x="217.486339" y="232.415114" style="fill: #e69f00; fill-opacity: 0.35"/>
     <use xlink:href="#m0bb5d98c16" x="215.848825" y="243.623043" style="fill: #e69f00; fill-opacity: 0.35"/>
     <use xlink:href="#m0bb5d98c16" x="218.340426" y="218.288167" style="fill: #e69f00; fill-opacity: 0.35"/>
     <use xlink:href="#m0bb5d98c16" x="196.91402" y="105.281769" style="fill: #e69f00; fill-opacity: 0.35"/>
     <use xlink:href="#m0bb5d98c16" x="209.47131" y="250.64521" style="fill: #e69f00; fill-opacity: 0.35"/>
     <use xlink:href="#m0bb5d98c16" x="195.290935" y="226.67805" style="fill: #e69f00; fill-opacity: 0.35"/>
     <use xlink:href="#m0bb5d98c16" x="212.434137" y="234.682402" style="fill: #e69f00; fill-opacity: 0.35"/>
     <use xlink:href="#m0bb5d98c16" x="206.214305" y="202.995448" style="fill: #e69f00; fill-opacity: 0.35"/>
     <use xlink:href="#m0bb5d98c16" x="199.190799" y="242.751009" style="fill: #e69f00; fill-opacity: 0.35"/>
     <use xlink:href="#m0bb5d98c16" x="197.632475" y="229.753116" style="fill: #e69f00; fill-opacity: 0.35"/>
     <use xlink:href="#m0bb5d98c16" x="215.983227" y="217.085678" style="fill: #e69f00; fill-opacity: 0.35"/>
     <use xlink:href="#m0bb5d98c16" x="200.178698" y="179.147619" style="fill: #e69f00; fill-opacity: 0.35"/>
     <use xlink:href="#m0bb5d98c16" x="228.772153" y="152.215545" style="fill: #e69f00; fill-opacity: 0.35"/>
     <use xlink:href="#m0bb5d98c16" x="215.733742" y="197.607198" style="fill: #e69f00; fill-opacity: 0.35"/>
     <use xlink:href="#m0bb5d98c16" x="206.85886" y="198.635279" style="fill: #e69f00; fill-opacity: 0.35"/>
     <use xlink:href="#m0bb5d98c16" x="216.107181" y="238.611144" style="fill: #e69f00; fill-opacity: 0.35"/>
     <use xlink:href="#m0bb5d98c16" x="194.578103" y="196.707626" style="fill: #e69f00; fill-opacity: 0.35"/>
     <use xlink:href="#m0bb5d98c16" x="230.039356" y="233.892982" style="fill: #e69f00; fill-opacity: 0.35"/>
     <use xlink:href="#m0bb5d98c16" x="211.991234" y="215.047873" style="fill: #e69f00; fill-opacity: 0.35"/>
     <use xlink:href="#m0bb5d98c16" x="223.376355" y="234.893526" style="fill: #e69f00; fill-opacity: 0.35"/>
     <use xlink:href="#m0bb5d98c16" x="196.849055" y="249.754817" style="fill: #e69f00; fill-opacity: 0.35"/>
     <use xlink:href="#m0bb5d98c16" x="212.156266" y="197.772425" style="fill: #e69f00; fill-opacity: 0.35"/>
     <use xlink:href="#m0bb5d98c16" x="212.309694" y="206.13477" style="fill: #e69f00; fill-opacity: 0.35"/>
     <use xlink:href="#m0bb5d98c16" x="229.253671" y="207.97981" style="fill: #e69f00; fill-opacity: 0.35"/>
     <use xlink:href="#m0bb5d98c16" x="215.380057" y="224.080307" style="fill: #e69f00; fill-opacity: 0.35"/>
     <use xlink:href="#m0bb5d98c16" x="211.657219" y="225.080851" style="fill: #e69f00; fill-opacity: 0.35"/>
     <use xlink:href="#m0bb5d98c16" x="203.831203" y="220.261717" style="fill: #e69f00; fill-opacity: 0.35"/>
     <use xlink:href="#m0bb5d98c16" x="206.279023" y="216.892913" style="fill: #e69f00; fill-opacity: 0.35"/>
     <use xlink:href="#m0bb5d98c16" x="213.445259" y="140.915823" style="fill: #e69f00; fill-opacity: 0.35"/>
     <use xlink:href="#m0bb5d98c16" x="210.346858" y="218.462574" style="fill: #e69f00; fill-opacity: 0.35"/>
     <use xlink:href="#m0bb5d98c16" x="194.532939" y="217.581361" style="fill: #e69f00; fill-opacity: 0.35"/>
     <use xlink:href="#m0bb5d98c16" x="225.026974" y="239.510715" style="fill: #e69f00; fill-opacity: 0.35"/>
     <use xlink:href="#m0bb5d98c16" x="227.674714" y="241.759644" style="fill: #e69f00; fill-opacity: 0.35"/>
     <use xlink:href="#m0bb5d98c16" x="199.02879" y="215.846472" style="fill: #e69f00; fill-opacity: 0.35"/>
     <use xlink:href="#m0bb5d98c16" x="214.709607" y="209.622905" style="fill: #e69f00; fill-opacity: 0.35"/>
     <use xlink:href="#m0bb5d98c16" x="197.828501" y="153.408854" style="fill: #e69f00; fill-opacity: 0.35"/>
     <use xlink:href="#m0bb5d98c16" x="219.189047" y="215.782217" style="fill: #e69f00; fill-opacity: 0.35"/>
     <use xlink:href="#m0bb5d98c16" x="204.371526" y="216.030058" style="fill: #e69f00; fill-opacity: 0.35"/>
     <use xlink:href="#m0bb5d98c16" x="218.703318" y="135.839668" style="fill: #e69f00; fill-opacity: 0.35"/>
     <use xlink:href="#m0bb5d98c16" x="221.264017" y="223.924259" style="fill: #e69f00; fill-opacity: 0.35"/>
     <use xlink:href="#m0bb5d98c16" x="222.842488" y="239.997218" style="fill: #e69f00; fill-opacity: 0.35"/>
     <use xlink:href="#m0bb5d98c16" x="197.796866" y="201.939829" style="fill: #e69f00; fill-opacity: 0.35"/>
     <use xlink:href="#m0bb5d98c16" x="228.426987" y="188.473791" style="fill: #e69f00; fill-opacity: 0.35"/>
     <use xlink:href="#m0bb5d98c16" x="202.438088" y="198.571024" style="fill: #e69f00; fill-opacity: 0.35"/>
     <use xlink:href="#m0bb5d98c16" x="195.131711" y="215.102949" style="fill: #e69f00; fill-opacity: 0.35"/>
     <use xlink:href="#m0bb5d98c16" x="214.740542" y="231.442108" style="fill: #e69f00; fill-opacity: 0.35"/>
     <use xlink:href="#m0bb5d98c16" x="207.770349" y="215.929086" style="fill: #e69f00; fill-opacity: 0.35"/>
     <use xlink:href="#m0bb5d98c16" x="225.159527" y="87.042494" style="fill: #e69f00; fill-opacity: 0.35"/>
     <use xlink:href="#m0bb5d98c16" x="224.343315" y="244.146263" style="fill: #e69f00; fill-opacity: 0.35"/>
     <use xlink:href="#m0bb5d98c16" x="205.732181" y="206.538659" style="fill: #e69f00; fill-opacity: 0.35"/>
     <use xlink:href="#m0bb5d98c16" x="229.824873" y="169.454276" style="fill: #e69f00; fill-opacity: 0.35"/>
     <use xlink:href="#m0bb5d98c16" x="204.738512" y="180.111446" style="fill: #e69f00; fill-opacity: 0.35"/>
     <use xlink:href="#m0bb5d98c16" x="213.232463" y="206.474404" style="fill: #e69f00; fill-opacity: 0.35"/>
     <use xlink:href="#m0bb5d98c16" x="203.413948" y="196.606654" style="fill: #e69f00; fill-opacity: 0.35"/>
     <use xlink:href="#m0bb5d98c16" x="229.186107" y="237.775827" style="fill: #e69f00; fill-opacity: 0.35"/>
     <use xlink:href="#m0bb5d98c16" x="199.951885" y="219.261173" style="fill: #e69f00; fill-opacity: 0.35"/>
     <use xlink:href="#m0bb5d98c16" x="195.415857" y="204.409061" style="fill: #e69f00; fill-opacity: 0.35"/>
     <use xlink:href="#m0bb5d98c16" x="210.202308" y="195.294013" style="fill: #e69f00; fill-opacity: 0.35"/>
     <use xlink:href="#m0bb5d98c16" x="231.320856" y="204.445778" style="fill: #e69f00; fill-opacity: 0.35"/>
     <use xlink:href="#m0bb5d98c16" x="227.504807" y="206.951728" style="fill: #e69f00; fill-opacity: 0.35"/>
     <use xlink:href="#m0bb5d98c16" x="222.083075" y="210.889649" style="fill: #e69f00; fill-opacity: 0.35"/>
     <use xlink:href="#m0bb5d98c16" x="227.471278" y="234.113285" style="fill: #e69f00; fill-opacity: 0.35"/>
     <use xlink:href="#m0bb5d98c16" x="227.571859" y="209.246554" style="fill: #e69f00; fill-opacity: 0.35"/>
     <use xlink:href="#m0bb5d98c16" x="213.376514" y="242.842802" style="fill: #e69f00; fill-opacity: 0.35"/>
     <use xlink:href="#m0bb5d98c16" x="205.686333" y="238.335764" style="fill: #e69f00; fill-opacity: 0.35"/>
     <use xlink:href="#m0bb5d98c16" x="222.970006" y="239.795274" style="fill: #e69f00; fill-opacity: 0.35"/>
     <use xlink:href="#m0bb5d98c16" x="218.788153" y="211.330255" style="fill: #e69f00; fill-opacity: 0.35"/>
     <use xlink:href="#m0bb5d98c16" x="207.874011" y="205.409605" style="fill: #e69f00; fill-opacity: 0.35"/>
     <use xlink:href="#m0bb5d98c16" x="197.293826" y="228.155918" style="fill: #e69f00; fill-opacity: 0.35"/>
     <use xlink:href="#m0bb5d98c16" x="222.014165" y="251.29694" style="fill: #e69f00; fill-opacity: 0.35"/>
     <use xlink:href="#m0bb5d98c16" x="203.660097" y="221.813019" style="fill: #e69f00; fill-opacity: 0.35"/>
     <use xlink:href="#m0bb5d98c16" x="229.215271" y="212.05542" style="fill: #e69f00; fill-opacity: 0.35"/>
     <use xlink:href="#m0bb5d98c16" x="202.845718" y="204.115323" style="fill: #e69f00; fill-opacity: 0.35"/>
     <use xlink:href="#m0bb5d98c16" x="198.365948" y="247.992391" style="fill: #e69f00; fill-opacity: 0.35"/>
     <use xlink:href="#m0bb5d98c16" x="225.20966" y="221.418309" style="fill: #e69f00; fill-opacity: 0.35"/>
     <use xlink:href="#m0bb5d98c16" x="199.522771" y="242.723471" style="fill: #e69f00; fill-opacity: 0.35"/>
     <use xlink:href="#m0bb5d98c16" x="200.507457" y="215.470121" style="fill: #e69f00; fill-opacity: 0.35"/>
     <use xlink:href="#m0bb5d98c16" x="216.428057" y="197.97437" style="fill: #e69f00; fill-opacity: 0.35"/>
     <use xlink:href="#m0bb5d98c16" x="226.856211" y="227.109477" style="fill: #e69f00; fill-opacity: 0.35"/>
     <use xlink:href="#m0bb5d98c16" x="201.157991" y="157.833278" style="fill: #e69f00; fill-opacity: 0.35"/>
     <use xlink:href="#m0bb5d98c16" x="205.473913" y="193.614201" style="fill: #e69f00; fill-opacity: 0.35"/>
    </g>
   </g>
   <g id="PathCollection_3">
    <defs>
     <path id="m01121c7187" d="M 0 1.732051 
C 0.459345 1.732051 0.899939 1.549551 1.224745 1.224745 
C 1.549551 0.899939 1.732051 0.459345 1.732051 0 
C 1.732051 -0.459345 1.549551 -0.899939 1.224745 -1.224745 
C 0.899939 -1.549551 0.459345 -1.732051 0 -1.732051 
C -0.459345 -1.732051 -0.899939 -1.549551 -1.224745 -1.224745 
C -1.549551 -0.899939 -1.732051 -0.459345 -1.732051 0 
C -1.732051 0.459345 -1.549551 0.899939 -1.224745 1.224745 
C -0.899939 1.549551 -0.459345 1.732051 0 1.732051 
z
"/>
    </defs>
    <g clip-path="url(#pc58e97eb6d)">
     <use xlink:href="#m01121c7187" x="328.440635" y="222.088398" style="fill: #d55e00; fill-opacity: 0.35"/>
     <use xlink:href="#m01121c7187" x="335.808408" y="245.89951" style="fill: #d55e00; fill-opacity: 0.35"/>
     <use xlink:href="#m01121c7187" x="317.956227" y="253.876324" style="fill: #d55e00; fill-opacity: 0.35"/>
     <use xlink:href="#m01121c7187" x="304.433329" y="180.230777" style="fill: #d55e00; fill-opacity: 0.35"/>
     <use xlink:href="#m01121c7187" x="299.508337" y="227.871359" style="fill: #d55e00; fill-opacity: 0.35"/>
     <use xlink:href="#m01121c7187" x="307.683222" y="234.44374" style="fill: #d55e00; fill-opacity: 0.35"/>
     <use xlink:href="#m01121c7187" x="303.975726" y="215.304894" style="fill: #d55e00; fill-opacity: 0.35"/>
     <use xlink:href="#m01121c7187" x="324.660668" y="253.848786" style="fill: #d55e00; fill-opacity: 0.35"/>
     <use xlink:href="#m01121c7187" x="303.597157" y="246.083096" style="fill: #d55e00; fill-opacity: 0.35"/>
     <use xlink:href="#m01121c7187" x="318.168018" y="225.025775" style="fill: #d55e00; fill-opacity: 0.35"/>
     <use xlink:href="#m01121c7187" x="325.289882" y="216.975527" style="fill: #d55e00; fill-opacity: 0.35"/>
     <use xlink:href="#m01121c7187" x="321.002123" y="222.72177" style="fill: #d55e00; fill-opacity: 0.35"/>
     <use xlink:href="#m01121c7187" x="306.55088" y="242.87034" style="fill: #d55e00; fill-opacity: 0.35"/>
     <use xlink:href="#m01121c7187" x="329.4532" y="171.794998" style="fill: #d55e00; fill-opacity: 0.35"/>
     <use xlink:href="#m01121c7187" x="326.091178" y="243.880063" style="fill: #d55e00; fill-opacity: 0.35"/>
     <use xlink:href="#m01121c7187" x="326.984644" y="234.241795" style="fill: #d55e00; fill-opacity: 0.35"/>
     <use xlink:href="#m01121c7187" x="303.946756" y="255.978385" style="fill: #d55e00; fill-opacity: 0.35"/>
     <use xlink:href="#m01121c7187" x="303.669966" y="242.61332" style="fill: #d55e00; fill-opacity: 0.35"/>
     <use xlink:href="#m01121c7187" x="334.13099" y="218.664518" style="fill: #d55e00; fill-opacity: 0.35"/>
     <use xlink:href="#m01121c7187" x="314.046777" y="208.76923" style="fill: #d55e00; fill-opacity: 0.35"/>
     <use xlink:href="#m01121c7187" x="310.384919" y="261.192229" style="fill: #d55e00; fill-opacity: 0.35"/>
     <use xlink:href="#m01121c7187" x="317.495522" y="255.693826" style="fill: #d55e00; fill-opacity: 0.35"/>
     <use xlink:href="#m01121c7187" x="324.100019" y="250.388189" style="fill: #d55e00; fill-opacity: 0.35"/>
     <use xlink:href="#m01121c7187" x="335.194375" y="207.888017" style="fill: #d55e00; fill-opacity: 0.35"/>
     <use xlink:href="#m01121c7187" x="309.835336" y="231.497184" style="fill: #d55e00; fill-opacity: 0.35"/>
     <use xlink:href="#m01121c7187" x="334.02662" y="226.586257" style="fill: #d55e00; fill-opacity: 0.35"/>
     <use xlink:href="#m01121c7187" x="299.922281" y="246.092275" style="fill: #d55e00; fill-opacity: 0.35"/>
     <use xlink:href="#m01121c7187" x="320.019917" y="256.005922" style="fill: #d55e00; fill-opacity: 0.35"/>
     <use xlink:href="#m01121c7187" x="323.005242" y="242.980492" style="fill: #d55e00; fill-opacity: 0.35"/>
     <use xlink:href="#m01121c7187" x="302.993283" y="199.397162" style="fill: #d55e00; fill-opacity: 0.35"/>
     <use xlink:href="#m01121c7187" x="304.298499" y="200.159044" style="fill: #d55e00; fill-opacity: 0.35"/>
     <use xlink:href="#m01121c7187" x="314.862907" y="256.657653" style="fill: #d55e00; fill-opacity: 0.35"/>
     <use xlink:href="#m01121c7187" x="335.596399" y="245.229421" style="fill: #d55e00; fill-opacity: 0.35"/>
     <use xlink:href="#m01121c7187" x="321.567755" y="250.929768" style="fill: #d55e00; fill-opacity: 0.35"/>
     <use xlink:href="#m01121c7187" x="334.337927" y="235.930787" style="fill: #d55e00; fill-opacity: 0.35"/>
     <use xlink:href="#m01121c7187" x="329.462158" y="224.273072" style="fill: #d55e00; fill-opacity: 0.35"/>
     <use xlink:href="#m01121c7187" x="316.692037" y="238.675399" style="fill: #d55e00; fill-opacity: 0.35"/>
     <use xlink:href="#m01121c7187" x="328.719495" y="253.197056" style="fill: #d55e00; fill-opacity: 0.35"/>
     <use xlink:href="#m01121c7187" x="299.65615" y="258.649562" style="fill: #d55e00; fill-opacity: 0.35"/>
     <use xlink:href="#m01121c7187" x="303.116315" y="245.11009" style="fill: #d55e00; fill-opacity: 0.35"/>
     <use xlink:href="#m01121c7187" x="330.41212" y="223.804928" style="fill: #d55e00; fill-opacity: 0.35"/>
     <use xlink:href="#m01121c7187" x="329.176278" y="261.403353" style="fill: #d55e00; fill-opacity: 0.35"/>
     <use xlink:href="#m01121c7187" x="307.79633" y="199.911203" style="fill: #d55e00; fill-opacity: 0.35"/>
     <use xlink:href="#m01121c7187" x="319.09418" y="231.029039" style="fill: #d55e00; fill-opacity: 0.35"/>
     <use xlink:href="#m01121c7187" x="321.9457" y="242.126817" style="fill: #d55e00; fill-opacity: 0.35"/>
     <use xlink:href="#m01121c7187" x="331.863924" y="248.166798" style="fill: #d55e00; fill-opacity: 0.35"/>
     <use xlink:href="#m01121c7187" x="321.835474" y="206.070515" style="fill: #d55e00; fill-opacity: 0.35"/>
     <use xlink:href="#m01121c7187" x="314.614964" y="260.870953" style="fill: #d55e00; fill-opacity: 0.35"/>
     <use xlink:href="#m01121c7187" x="313.160236" y="250.37901" style="fill: #d55e00; fill-opacity: 0.35"/>
     <use xlink:href="#m01121c7187" x="315.119377" y="233.369762" style="fill: #d55e00; fill-opacity: 0.35"/>
     <use xlink:href="#m01121c7187" x="323.685696" y="210.338891" style="fill: #d55e00; fill-opacity: 0.35"/>
     <use xlink:href="#m01121c7187" x="331.854513" y="243.79745" style="fill: #d55e00; fill-opacity: 0.35"/>
     <use xlink:href="#m01121c7187" x="316.181022" y="214.285991" style="fill: #d55e00; fill-opacity: 0.35"/>
     <use xlink:href="#m01121c7187" x="308.372303" y="252.453532" style="fill: #d55e00; fill-opacity: 0.35"/>
     <use xlink:href="#m01121c7187" x="307.948733" y="213.331343" style="fill: #d55e00; fill-opacity: 0.35"/>
     <use xlink:href="#m01121c7187" x="327.251062" y="254.647386" style="fill: #d55e00; fill-opacity: 0.35"/>
     <use xlink:href="#m01121c7187" x="329.924785" y="219.518194" style="fill: #d55e00; fill-opacity: 0.35"/>
     <use xlink:href="#m01121c7187" x="302.969813" y="249.176521" style="fill: #d55e00; fill-opacity: 0.35"/>
     <use xlink:href="#m01121c7187" x="301.502514" y="177.734007" style="fill: #d55e00; fill-opacity: 0.35"/>
     <use xlink:href="#m01121c7187" x="321.506784" y="248.414639" style="fill: #d55e00; fill-opacity: 0.35"/>
     <use xlink:href="#m01121c7187" x="304.51957" y="247.588502" style="fill: #d55e00; fill-opacity: 0.35"/>
     <use xlink:href="#m01121c7187" x="330.231568" y="236.610056" style="fill: #d55e00; fill-opacity: 0.35"/>
     <use xlink:href="#m01121c7187" x="310.740609" y="243.457815" style="fill: #d55e00; fill-opacity: 0.35"/>
     <use xlink:href="#m01121c7187" x="304.43236" y="253.6652" style="fill: #d55e00; fill-opacity: 0.35"/>
     <use xlink:href="#m01121c7187" x="333.881178" y="223.217453" style="fill: #d55e00; fill-opacity: 0.35"/>
     <use xlink:href="#m01121c7187" x="305.253176" y="257.401177" style="fill: #d55e00; fill-opacity: 0.35"/>
     <use xlink:href="#m01121c7187" x="309.769922" y="250.406548" style="fill: #d55e00; fill-opacity: 0.35"/>
     <use xlink:href="#m01121c7187" x="304.801521" y="240.804997" style="fill: #d55e00; fill-opacity: 0.35"/>
     <use xlink:href="#m01121c7187" x="303.356805" y="250.131169" style="fill: #d55e00; fill-opacity: 0.35"/>
     <use xlink:href="#m01121c7187" x="299.781632" y="224.199638" style="fill: #d55e00; fill-opacity: 0.35"/>
     <use xlink:href="#m01121c7187" x="301.079466" y="229.358406" style="fill: #d55e00; fill-opacity: 0.35"/>
     <use xlink:href="#m01121c7187" x="305.598398" y="258.566948" style="fill: #d55e00; fill-opacity: 0.35"/>
     <use xlink:href="#m01121c7187" x="301.003164" y="247.423274" style="fill: #d55e00; fill-opacity: 0.35"/>
     <use xlink:href="#m01121c7187" x="321.382113" y="210.311353" style="fill: #d55e00; fill-opacity: 0.35"/>
     <use xlink:href="#m01121c7187" x="324.776472" y="227.641877" style="fill: #d55e00; fill-opacity: 0.35"/>
     <use xlink:href="#m01121c7187" x="313.897174" y="240.419466" style="fill: #d55e00; fill-opacity: 0.35"/>
     <use xlink:href="#m01121c7187" x="311.030756" y="200.517037" style="fill: #d55e00; fill-opacity: 0.35"/>
     <use xlink:href="#m01121c7187" x="318.099665" y="190.181142" style="fill: #d55e00; fill-opacity: 0.35"/>
     <use xlink:href="#m01121c7187" x="332.139274" y="228.9178" style="fill: #d55e00; fill-opacity: 0.35"/>
     <use xlink:href="#m01121c7187" x="331.234575" y="250.580954" style="fill: #d55e00; fill-opacity: 0.35"/>
     <use xlink:href="#m01121c7187" x="300.627734" y="254.601489" style="fill: #d55e00; fill-opacity: 0.35"/>
     <use xlink:href="#m01121c7187" x="305.858248" y="196.725984" style="fill: #d55e00; fill-opacity: 0.35"/>
     <use xlink:href="#m01121c7187" x="307.95186" y="231.901073" style="fill: #d55e00; fill-opacity: 0.35"/>
     <use xlink:href="#m01121c7187" x="308.430966" y="241.493445" style="fill: #d55e00; fill-opacity: 0.35"/>
     <use xlink:href="#m01121c7187" x="320.627562" y="230.781198" style="fill: #d55e00; fill-opacity: 0.35"/>
     <use xlink:href="#m01121c7187" x="314.754832" y="258.796431" style="fill: #d55e00; fill-opacity: 0.35"/>
     <use xlink:href="#m01121c7187" x="300.846737" y="221.555999" style="fill: #d55e00; fill-opacity: 0.35"/>
     <use xlink:href="#m01121c7187" x="313.138639" y="248.203515" style="fill: #d55e00; fill-opacity: 0.35"/>
     <use xlink:href="#m01121c7187" x="318.828278" y="260.393629" style="fill: #d55e00; fill-opacity: 0.35"/>
     <use xlink:href="#m01121c7187" x="302.833154" y="200.379347" style="fill: #d55e00; fill-opacity: 0.35"/>
     <use xlink:href="#m01121c7187" x="330.564838" y="259.154423" style="fill: #d55e00; fill-opacity: 0.35"/>
     <use xlink:href="#m01121c7187" x="300.949349" y="232.819003" style="fill: #d55e00; fill-opacity: 0.35"/>
     <use xlink:href="#m01121c7187" x="334.027888" y="236.380573" style="fill: #d55e00; fill-opacity: 0.35"/>
     <use xlink:href="#m01121c7187" x="302.736187" y="211.605634" style="fill: #d55e00; fill-opacity: 0.35"/>
     <use xlink:href="#m01121c7187" x="330.948208" y="269.967642" style="fill: #d55e00; fill-opacity: 0.35"/>
     <use xlink:href="#m01121c7187" x="333.187027" y="258.823968" style="fill: #d55e00; fill-opacity: 0.35"/>
     <use xlink:href="#m01121c7187" x="336.101883" y="249.442721" style="fill: #d55e00; fill-opacity: 0.35"/>
     <use xlink:href="#m01121c7187" x="329.37367" y="241.851437" style="fill: #d55e00; fill-opacity: 0.35"/>
     <use xlink:href="#m01121c7187" x="328.519181" y="247.61604" style="fill: #d55e00; fill-opacity: 0.35"/>
     <use xlink:href="#m01121c7187" x="323.327666" y="257.364459" style="fill: #d55e00; fill-opacity: 0.35"/>
    </g>
   </g>
   <g id="PathCollection_4">
    <defs>
     <path id="med64ecf51a" d="M 0 1.732051 
C 0.459345 1.732051 0.899939 1.549551 1.224745 1.224745 
C 1.549551 0.899939 1.732051 0.459345 1.732051 0 
C 1.732051 -0.459345 1.549551 -0.899939 1.224745 -1.224745 
C 0.899939 -1.549551 0.459345 -1.732051 0 -1.732051 
C -0.459345 -1.732051 -0.899939 -1.549551 -1.224745 -1.224745 
C -1.549551 -0.899939 -1.732051 -0.459345 -1.732051 0 
C -1.732051 0.459345 -1.549551 0.899939 -1.224745 1.224745 
C -0.899939 1.549551 -0.459345 1.732051 0 1.732051 
z
"/>
    </defs>
    <g clip-path="url(#pc58e97eb6d)">
     <use xlink:href="#med64ecf51a" x="433.767226" y="262.826145" style="fill: #cc79a7; fill-opacity: 0.35"/>
     <use xlink:href="#med64ecf51a" x="409.34546" y="261.871497" style="fill: #cc79a7; fill-opacity: 0.35"/>
     <use xlink:href="#med64ecf51a" x="424.561248" y="272.418516" style="fill: #cc79a7; fill-opacity: 0.35"/>
     <use xlink:href="#med64ecf51a" x="423.733407" y="236.55498" style="fill: #cc79a7; fill-opacity: 0.35"/>
     <use xlink:href="#med64ecf51a" x="436.744923" y="275.355893" style="fill: #cc79a7; fill-opacity: 0.35"/>
     <use xlink:href="#med64ecf51a" x="421.784669" y="260.852594" style="fill: #cc79a7; fill-opacity: 0.35"/>
     <use xlink:href="#med64ecf51a" x="418.839786" y="239.070109" style="fill: #cc79a7; fill-opacity: 0.35"/>
     <use xlink:href="#med64ecf51a" x="428.483289" y="259.741899" style="fill: #cc79a7; fill-opacity: 0.35"/>
     <use xlink:href="#med64ecf51a" x="414.344345" y="264.891488" style="fill: #cc79a7; fill-opacity: 0.35"/>
     <use xlink:href="#med64ecf51a" x="409.543133" y="259.319651" style="fill: #cc79a7; fill-opacity: 0.35"/>
     <use xlink:href="#med64ecf51a" x="422.356059" y="257.538866" style="fill: #cc79a7; fill-opacity: 0.35"/>
     <use xlink:href="#med64ecf51a" x="420.04487" y="247.836343" style="fill: #cc79a7; fill-opacity: 0.35"/>
     <use xlink:href="#med64ecf51a" x="413.059926" y="248.745094" style="fill: #cc79a7; fill-opacity: 0.35"/>
     <use xlink:href="#med64ecf51a" x="418.173665" y="261.31156" style="fill: #cc79a7; fill-opacity: 0.35"/>
     <use xlink:href="#med64ecf51a" x="418.131246" y="260.090712" style="fill: #cc79a7; fill-opacity: 0.35"/>
     <use xlink:href="#med64ecf51a" x="416.657215" y="263.220855" style="fill: #cc79a7; fill-opacity: 0.35"/>
     <use xlink:href="#med64ecf51a" x="418.626606" y="264.533495" style="fill: #cc79a7; fill-opacity: 0.35"/>
     <use xlink:href="#med64ecf51a" x="430.233323" y="261.807242" style="fill: #cc79a7; fill-opacity: 0.35"/>
     <use xlink:href="#med64ecf51a" x="415.496878" y="253.775352" style="fill: #cc79a7; fill-opacity: 0.35"/>
     <use xlink:href="#med64ecf51a" x="440.204276" y="256.04264" style="fill: #cc79a7; fill-opacity: 0.35"/>
     <use xlink:href="#med64ecf51a" x="438.972285" y="254.619848" style="fill: #cc79a7; fill-opacity: 0.35"/>
     <use xlink:href="#med64ecf51a" x="422.471003" y="273.538391" style="fill: #cc79a7; fill-opacity: 0.35"/>
     <use xlink:href="#med64ecf51a" x="416.690019" y="261.559401" style="fill: #cc79a7; fill-opacity: 0.35"/>
     <use xlink:href="#med64ecf51a" x="424.53725" y="248.350384" style="fill: #cc79a7; fill-opacity: 0.35"/>
     <use xlink:href="#med64ecf51a" x="436.403418" y="211.688248" style="fill: #cc79a7; fill-opacity: 0.35"/>
     <use xlink:href="#med64ecf51a" x="428.976847" y="271.647455" style="fill: #cc79a7; fill-opacity: 0.35"/>
     <use xlink:href="#med64ecf51a" x="434.729609" y="256.345557" style="fill: #cc79a7; fill-opacity: 0.35"/>
     <use xlink:href="#med64ecf51a" x="424.434457" y="266.451969" style="fill: #cc79a7; fill-opacity: 0.35"/>
     <use xlink:href="#med64ecf51a" x="428.231447" y="257.180873" style="fill: #cc79a7; fill-opacity: 0.35"/>
     <use xlink:href="#med64ecf51a" x="415.166393" y="263.505413" style="fill: #cc79a7; fill-opacity: 0.35"/>
     <use xlink:href="#med64ecf51a" x="432.095897" y="258.658741" style="fill: #cc79a7; fill-opacity: 0.35"/>
     <use xlink:href="#med64ecf51a" x="411.916785" y="259.20032" style="fill: #cc79a7; fill-opacity: 0.35"/>
     <use xlink:href="#med64ecf51a" x="430.576461" y="258.833148" style="fill: #cc79a7; fill-opacity: 0.35"/>
     <use xlink:href="#med64ecf51a" x="436.864178" y="252.976753" style="fill: #cc79a7; fill-opacity: 0.35"/>
     <use xlink:href="#med64ecf51a" x="409.252639" y="259.796975" style="fill: #cc79a7; fill-opacity: 0.35"/>
     <use xlink:href="#med64ecf51a" x="427.528937" y="233.158638" style="fill: #cc79a7; fill-opacity: 0.35"/>
     <use xlink:href="#med64ecf51a" x="407.850224" y="262.0918" style="fill: #cc79a7; fill-opacity: 0.35"/>
     <use xlink:href="#med64ecf51a" x="431.748107" y="251.076637" style="fill: #cc79a7; fill-opacity: 0.35"/>
     <use xlink:href="#med64ecf51a" x="407.448432" y="258.163059" style="fill: #cc79a7; fill-opacity: 0.35"/>
     <use xlink:href="#med64ecf51a" x="439.714733" y="246.239144" style="fill: #cc79a7; fill-opacity: 0.35"/>
     <use xlink:href="#med64ecf51a" x="409.45368" y="273.327267" style="fill: #cc79a7; fill-opacity: 0.35"/>
     <use xlink:href="#med64ecf51a" x="440.58408" y="262.697634" style="fill: #cc79a7; fill-opacity: 0.35"/>
     <use xlink:href="#med64ecf51a" x="434.596683" y="256.501605" style="fill: #cc79a7; fill-opacity: 0.35"/>
     <use xlink:href="#med64ecf51a" x="426.744579" y="266.3051" style="fill: #cc79a7; fill-opacity: 0.35"/>
     <use xlink:href="#med64ecf51a" x="433.904702" y="261.44007" style="fill: #cc79a7; fill-opacity: 0.35"/>
     <use xlink:href="#med64ecf51a" x="434.378049" y="249.139804" style="fill: #cc79a7; fill-opacity: 0.35"/>
     <use xlink:href="#med64ecf51a" x="440.096998" y="247.046923" style="fill: #cc79a7; fill-opacity: 0.35"/>
     <use xlink:href="#med64ecf51a" x="413.848669" y="258.438438" style="fill: #cc79a7; fill-opacity: 0.35"/>
     <use xlink:href="#med64ecf51a" x="426.607922" y="253.628483" style="fill: #cc79a7; fill-opacity: 0.35"/>
     <use xlink:href="#med64ecf51a" x="407.84846" y="242.016665" style="fill: #cc79a7; fill-opacity: 0.35"/>
     <use xlink:href="#med64ecf51a" x="427.596618" y="262.587483" style="fill: #cc79a7; fill-opacity: 0.35"/>
     <use xlink:href="#med64ecf51a" x="410.73772" y="265.956287" style="fill: #cc79a7; fill-opacity: 0.35"/>
     <use xlink:href="#med64ecf51a" x="425.655778" y="245.155986" style="fill: #cc79a7; fill-opacity: 0.35"/>
     <use xlink:href="#med64ecf51a" x="425.939235" y="239.024212" style="fill: #cc79a7; fill-opacity: 0.35"/>
     <use xlink:href="#med64ecf51a" x="421.905397" y="267.948196" style="fill: #cc79a7; fill-opacity: 0.35"/>
     <use xlink:href="#med64ecf51a" x="424.052069" y="231.827639" style="fill: #cc79a7; fill-opacity: 0.35"/>
     <use xlink:href="#med64ecf51a" x="433.196023" y="241.851437" style="fill: #cc79a7; fill-opacity: 0.35"/>
     <use xlink:href="#med64ecf51a" x="434.534555" y="232.543624" style="fill: #cc79a7; fill-opacity: 0.35"/>
     <use xlink:href="#med64ecf51a" x="422.897058" y="252.462712" style="fill: #cc79a7; fill-opacity: 0.35"/>
     <use xlink:href="#med64ecf51a" x="426.968598" y="248.561508" style="fill: #cc79a7; fill-opacity: 0.35"/>
     <use xlink:href="#med64ecf51a" x="439.536487" y="254.188421" style="fill: #cc79a7; fill-opacity: 0.35"/>
     <use xlink:href="#med64ecf51a" x="408.783896" y="252.563684" style="fill: #cc79a7; fill-opacity: 0.35"/>
     <use xlink:href="#med64ecf51a" x="408.684229" y="252.894139" style="fill: #cc79a7; fill-opacity: 0.35"/>
     <use xlink:href="#med64ecf51a" x="407.570297" y="253.839607" style="fill: #cc79a7; fill-opacity: 0.35"/>
     <use xlink:href="#med64ecf51a" x="429.176784" y="257.015646" style="fill: #cc79a7; fill-opacity: 0.35"/>
     <use xlink:href="#med64ecf51a" x="420.11001" y="263.991916" style="fill: #cc79a7; fill-opacity: 0.35"/>
     <use xlink:href="#med64ecf51a" x="433.590065" y="263.652282" style="fill: #cc79a7; fill-opacity: 0.35"/>
     <use xlink:href="#med64ecf51a" x="429.68338" y="272.078882" style="fill: #cc79a7; fill-opacity: 0.35"/>
     <use xlink:href="#med64ecf51a" x="416.889978" y="242.34712" style="fill: #cc79a7; fill-opacity: 0.35"/>
     <use xlink:href="#med64ecf51a" x="438.290862" y="241.649493" style="fill: #cc79a7; fill-opacity: 0.35"/>
     <use xlink:href="#med64ecf51a" x="433.1433" y="269.655546" style="fill: #cc79a7; fill-opacity: 0.35"/>
     <use xlink:href="#med64ecf51a" x="414.498643" y="216.608355" style="fill: #cc79a7; fill-opacity: 0.35"/>
     <use xlink:href="#med64ecf51a" x="418.047858" y="236.977228" style="fill: #cc79a7; fill-opacity: 0.35"/>
     <use xlink:href="#med64ecf51a" x="416.162462" y="260.200864" style="fill: #cc79a7; fill-opacity: 0.35"/>
     <use xlink:href="#med64ecf51a" x="410.219317" y="255.106351" style="fill: #cc79a7; fill-opacity: 0.35"/>
     <use xlink:href="#med64ecf51a" x="409.846866" y="252.958394" style="fill: #cc79a7; fill-opacity: 0.35"/>
     <use xlink:href="#med64ecf51a" x="439.721844" y="252.995111" style="fill: #cc79a7; fill-opacity: 0.35"/>
     <use xlink:href="#med64ecf51a" x="420.841239" y="216.562458" style="fill: #cc79a7; fill-opacity: 0.35"/>
     <use xlink:href="#med64ecf51a" x="418.772723" y="253.756993" style="fill: #cc79a7; fill-opacity: 0.35"/>
     <use xlink:href="#med64ecf51a" x="431.898556" y="249.58959" style="fill: #cc79a7; fill-opacity: 0.35"/>
     <use xlink:href="#med64ecf51a" x="425.202636" y="267.204672" style="fill: #cc79a7; fill-opacity: 0.35"/>
     <use xlink:href="#med64ecf51a" x="439.722319" y="268.590747" style="fill: #cc79a7; fill-opacity: 0.35"/>
     <use xlink:href="#med64ecf51a" x="433.816685" y="258.787251" style="fill: #cc79a7; fill-opacity: 0.35"/>
     <use xlink:href="#med64ecf51a" x="422.41261" y="263.54213" style="fill: #cc79a7; fill-opacity: 0.35"/>
     <use xlink:href="#med64ecf51a" x="418.508954" y="261.687911" style="fill: #cc79a7; fill-opacity: 0.35"/>
     <use xlink:href="#med64ecf51a" x="441.63574" y="264.59775" style="fill: #cc79a7; fill-opacity: 0.35"/>
     <use xlink:href="#med64ecf51a" x="431.44663" y="254.32611" style="fill: #cc79a7; fill-opacity: 0.35"/>
     <use xlink:href="#med64ecf51a" x="440.292828" y="266.598838" style="fill: #cc79a7; fill-opacity: 0.35"/>
     <use xlink:href="#med64ecf51a" x="408.736336" y="256.813701" style="fill: #cc79a7; fill-opacity: 0.35"/>
     <use xlink:href="#med64ecf51a" x="436.478194" y="228.330324" style="fill: #cc79a7; fill-opacity: 0.35"/>
     <use xlink:href="#med64ecf51a" x="428.388951" y="265.157687" style="fill: #cc79a7; fill-opacity: 0.35"/>
     <use xlink:href="#med64ecf51a" x="408.866815" y="255.831516" style="fill: #cc79a7; fill-opacity: 0.35"/>
     <use xlink:href="#med64ecf51a" x="426.539031" y="267.88394" style="fill: #cc79a7; fill-opacity: 0.35"/>
     <use xlink:href="#med64ecf51a" x="430.2467" y="264.680364" style="fill: #cc79a7; fill-opacity: 0.35"/>
     <use xlink:href="#med64ecf51a" x="404.712709" y="235.003678" style="fill: #cc79a7; fill-opacity: 0.35"/>
     <use xlink:href="#med64ecf51a" x="421.463258" y="249.901686" style="fill: #cc79a7; fill-opacity: 0.35"/>
     <use xlink:href="#med64ecf51a" x="435.525713" y="261.660373" style="fill: #cc79a7; fill-opacity: 0.35"/>
     <use xlink:href="#med64ecf51a" x="415.439373" y="256.731087" style="fill: #cc79a7; fill-opacity: 0.35"/>
     <use xlink:href="#med64ecf51a" x="421.623562" y="261.339097" style="fill: #cc79a7; fill-opacity: 0.35"/>
     <use xlink:href="#med64ecf51a" x="421.008363" y="253.463256" style="fill: #cc79a7; fill-opacity: 0.35"/>
    </g>
   </g>
   <g id="line2d_12">
    <path d="M 107.395581 54.850679 
L 107.395581 53.014819 
L 212.66186 53.014819 
L 212.66186 54.850679 
" clip-path="url(#pc58e97eb6d)" style="fill: none; stroke: #444444; stroke-width: 0.8; stroke-linecap: square"/>
   </g>
   <g id="line2d_13">
    <path d="M 107.395581 38.327934 
L 107.395581 36.492073 
L 317.92814 36.492073 
L 317.92814 38.327934 
" clip-path="url(#pc58e97eb6d)" style="fill: none; stroke: #444444; stroke-width: 0.8; stroke-linecap: square"/>
   </g>
   <g id="line2d_14">
    <path d="M 107.395581 21.805189 
L 107.395581 19.969328 
L 423.194419 19.969328 
L 423.194419 21.805189 
" clip-path="url(#pc58e97eb6d)" style="fill: none; stroke: #444444; stroke-width: 0.8; stroke-linecap: square"/>
   </g>
   <g id="patch_3">
    <path d="M 38.9725 287.904 
L 38.9725 7.2 
" style="fill: none; stroke: #000000; stroke-width: 0.8; stroke-linejoin: miter; stroke-linecap: square"/>
   </g>
   <g id="patch_4">
    <path d="M 38.9725 287.904 
L 491.6175 287.904 
" style="fill: none; stroke: #000000; stroke-width: 0.8; stroke-linejoin: miter; stroke-linecap: square"/>
   </g>
   <g id="patch_5">
    <path d="M 94.763628 213.592954 
L 120.027535 213.592954 
L 120.027535 176.510865 
L 94.763628 176.510865 
z
" clip-path="url(#pc58e97eb6d)" style="fill: #ffffff; stroke: #0072b2; stroke-linejoin: miter"/>
   </g>
   <g id="line2d_15">
    <path d="M 107.395581 252.389277 
L 107.395581 213.592954 
" clip-path="url(#pc58e97eb6d)" style="fill: none; stroke: #0072b2; stroke-linecap: square"/>
   </g>
   <g id="line2d_16">
    <path d="M 107.395581 122.805058 
L 107.395581 176.510865 
" clip-path="url(#pc58e97eb6d)" style="fill: none; stroke: #0072b2; stroke-linecap: square"/>
   </g>
   <g id="line2d_17">
    <path d="M 98.974279 252.389277 
L 115.816884 252.389277 
" clip-path="url(#pc58e97eb6d)" style="fill: none; stroke: #0072b2; stroke-linecap: square"/>
   </g>
   <g id="line2d_18">
    <path d="M 98.974279 122.805058 
L 115.816884 122.805058 
" clip-path="url(#pc58e97eb6d)" style="fill: none; stroke: #0072b2; stroke-linecap: square"/>
   </g>
   <g id="patch_6">
    <path d="M 200.029907 233.195355 
L 225.293814 233.195355 
L 225.293814 203.835355 
L 200.029907 203.835355 
z
" clip-path="url(#pc58e97eb6d)" style="fill: #ffffff; stroke: #e69f00; stroke-linejoin: miter"/>
   </g>
   <g id="line2d_19">
    <path d="M 212.66186 251.29694 
L 212.66186 233.195355 
" clip-path="url(#pc58e97eb6d)" style="fill: none; stroke: #e69f00; stroke-linecap: square"/>
   </g>
   <g id="line2d_20">
    <path d="M 212.66186 169.454276 
L 212.66186 203.835355 
" clip-path="url(#pc58e97eb6d)" style="fill: none; stroke: #e69f00; stroke-linecap: square"/>
   </g>
   <g id="line2d_21">
    <path d="M 204.240558 251.29694 
L 221.083163 251.29694 
" clip-path="url(#pc58e97eb6d)" style="fill: none; stroke: #e69f00; stroke-linecap: square"/>
   </g>
   <g id="line2d_22">
    <path d="M 204.240558 169.454276 
L 221.083163 169.454276 
" clip-path="url(#pc58e97eb6d)" style="fill: none; stroke: #e69f00; stroke-linecap: square"/>
   </g>
   <g id="patch_7">
    <path d="M 305.296186 250.450149 
L 330.560093 250.450149 
L 330.560093 223.093532 
L 305.296186 223.093532 
z
" clip-path="url(#pc58e97eb6d)" style="fill: #ffffff; stroke: #d55e00; stroke-linejoin: miter"/>
   </g>
   <g id="line2d_23">
    <path d="M 317.92814 269.967642 
L 317.92814 250.450149 
" clip-path="url(#pc58e97eb6d)" style="fill: none; stroke: #d55e00; stroke-linecap: square"/>
   </g>
   <g id="line2d_24">
    <path d="M 317.92814 190.181142 
L 317.92814 223.093532 
" clip-path="url(#pc58e97eb6d)" style="fill: none; stroke: #d55e00; stroke-linecap: square"/>
   </g>
   <g id="line2d_25">
    <path d="M 309.506837 269.967642 
L 326.349442 269.967642 
" clip-path="url(#pc58e97eb6d)" style="fill: none; stroke: #d55e00; stroke-linecap: square"/>
   </g>
   <g id="line2d_26">
    <path d="M 309.506837 190.181142 
L 326.349442 190.181142 
" clip-path="url(#pc58e97eb6d)" style="fill: none; stroke: #d55e00; stroke-linecap: square"/>
   </g>
   <g id="patch_8">
    <path d="M 410.562465 262.924822 
L 435.826372 262.924822 
L 435.826372 249.823662 
L 410.562465 249.823662 
z
" clip-path="url(#pc58e97eb6d)" style="fill: #ffffff; stroke: #cc79a7; stroke-linejoin: miter"/>
   </g>
   <g id="line2d_27">
    <path d="M 423.194419 275.355893 
L 423.194419 262.924822 
" clip-path="url(#pc58e97eb6d)" style="fill: none; stroke: #cc79a7; stroke-linecap: square"/>
   </g>
   <g id="line2d_28">
    <path d="M 423.194419 231.827639 
L 423.194419 249.823662 
" clip-path="url(#pc58e97eb6d)" style="fill: none; stroke: #cc79a7; stroke-linecap: square"/>
   </g>
   <g id="line2d_29">
    <path d="M 414.773116 275.355893 
L 431.615721 275.355893 
" clip-path="url(#pc58e97eb6d)" style="fill: none; stroke: #cc79a7; stroke-linecap: square"/>
   </g>
   <g id="line2d_30">
    <path d="M 414.773116 231.827639 
L 431.615721 231.827639 
" clip-path="url(#pc58e97eb6d)" style="fill: none; stroke: #cc79a7; stroke-linecap: square"/>
   </g>
   <g id="text_13">
    <text style="font-size: 8.5px; font-family: 'Arial', 'Helvetica', 'DejaVu Sans', 'Liberation Sans', sans-serif; text-anchor: middle; fill: #444444" x="160.028721" y="50.407513" transform="rotate(-0 160.028721 50.407513)">***</text>
   </g>
   <g id="text_14">
    <text style="font-size: 8.5px; font-family: 'Arial', 'Helvetica', 'DejaVu Sans', 'Liberation Sans', sans-serif; text-anchor: middle; fill: #444444" x="212.66186" y="33.884768" transform="rotate(-0 212.66186 33.884768)">***</text>
   </g>
   <g id="text_15">
    <text style="font-size: 8.5px; font-family: 'Arial', 'Helvetica', 'DejaVu Sans', 'Liberation Sans', sans-serif; text-anchor: middle; fill: #444444" x="265.295" y="17.362023" transform="rotate(-0 265.295 17.362023)">***</text>
   </g>
   <g id="line2d_31">
    <path d="M 94.763628 201.53135 
L 120.027535 201.53135 
" clip-path="url(#pc58e97eb6d)" style="fill: none; stroke: #0072b2; stroke-width: 2; stroke-linecap: square"/>
   </g>
   <g id="line2d_32">
    <path d="M 200.029907 216.461486 
L 225.293814 216.461486 
" clip-path="url(#pc58e97eb6d)" style="fill: none; stroke: #e69f00; stroke-width: 2; stroke-linecap: square"/>
   </g>
   <g id="line2d_33">
    <path d="M 305.296186 241.672441 
L 330.560093 241.672441 
" clip-path="url(#pc58e97eb6d)" style="fill: none; stroke: #d55e00; stroke-width: 2; stroke-linecap: square"/>
   </g>
   <g id="line2d_34">
    <path d="M 410.562465 257.35987 
L 435.826372 257.35987 
" clip-path="url(#pc58e97eb6d)" style="fill: none; stroke: #cc79a7; stroke-width: 2; stroke-linecap: square"/>
   </g>
  </g>
 </g>
 <defs>
  <clipPath id="pc58e97eb6d">
   <rect x="38.9725" y="7.2" width="452.645" height="280.704"/>
  </clipPath>
 </defs>
</svg>
