<?xml version="1.0" encoding="utf-8" standalone="no"?>
<!DOCTYPE svg PUBLIC "-//W3C//DTD SVG 1.1//EN"
  "http://www.w3.org/Graphics/SVG/1.1/DTD/svg11.dtd">
<svg xmlns:xlink="http://www.w3.org/1999/xlink" width="526.79952pt" height="245.99952pt" viewBox="0 0 526.79952 245.99952" xmlns="http://www.w3.org/2000/svg" version="1.1">
 <metadata>
  <rdf:RDF xmlns:dc="http://purl.org/dc/elements/1.1/" xmlns:cc="http://creativecommons.org/ns#" xmlns:rdf="http://www.w3.org/1999/02/22-rdf-syntax-ns#">
   <cc:Work>
    <dc:type rdf:resource="http://purl.org/dc/dcmitype/StillImage"/>
    <dc:date>2026-05-24T23:10:49.311840</dc:date>
    <dc:format>image/svg+xml</dc:format>
    <dc:creator>
     <cc:Agent>
      <dc:title>Matplotlib v3.10.9, https://matplotlib.org/</dc:title>
     </cc:Agent>
    </dc:creator>
   </cc:Work>
  </rdf:RDF>
 </metadata>
 <defs>
  <style type="text/css">*{stroke-linejoin: round; stroke-linecap: butt}</style>
 </defs>
 <g id="figure_1">
  <g id="patch_1">
   <path d="M 0 245.99952 
L 526.79952 245.99952 
L 526.79952 0 
L 0 0 
z
" style="fill: #ffffff"/>
  </g>
  <g id="axes_1">
   <g id="patch_2">
    <path d="M 41.222813 214.846708 
L 251.49327 214.846708 
L 251.49327 20.038594 
L 41.222813 20.038594 
z
" style="fill: #ffffff"/>
   </g>
   <g id="line2d_1">
    <path d="M 41.222813 214.846708 
L 251.49327 20.038594 
" clip-path="url(#p32814267a2)" style="fill: none; stroke-dasharray: 2.96,1.28; stroke-dashoffset: 0; stroke: #aaaaaa; stroke-width: 0.8"/>
   </g>
   <g id="matplotlib.axis_1">
    <g id="xtick_1">
     <g id="line2d_2">
      <path d="M 41.222813 214.846708 
L 41.222813 20.038594 
" clip-path="url(#p32814267a2)" style="fill: none; stroke: #cccccc; stroke-opacity: 0.5; stroke-width: 0.35; stroke-linecap: square"/>
     </g>
     <g id="line2d_3">
      <defs>
       <path id="mab1cefe860" d="M 0 0 
L 0 -3.5 
" style="stroke: #000000; stroke-width: 0.8"/>
      </defs>
      <g>
       <use xlink:href="#mab1cefe860" x="41.222813" y="214.846708" style="stroke: #000000; stroke-width: 0.8"/>
      </g>
     </g>
     <g id="line2d_4">
      <defs>
       <path id="m87ee3f2e63" d="M 0 0 
L 0 3.5 
" style="stroke: #000000; stroke-width: 0.8"/>
      </defs>
      <g>
       <use xlink:href="#m87ee3f2e63" x="41.222813" y="20.038594" style="stroke: #000000; stroke-width: 0.8"/>
      </g>
     </g>
     <g id="text_1">
      <!-- 0.00 -->
      <g transform="translate(32.316563 224.425458) scale(0.08 -0.08)">
       <defs>
        <path id="DejaVuSans-30" d="M 2034 4250 
Q 1547 4250 1301 3770 
Q 1056 3291 1056 2328 
Q 1056 1369 1301 889 
Q 1547 409 2034 409 
Q 2525 409 2770 889 
Q 3016 1369 3016 2328 
Q 3016 3291 2770 3770 
Q 2525 4250 2034 4250 
z
M 2034 4750 
Q 2819 4750 3233 4129 
Q 3647 3509 3647 2328 
Q 3647 1150 3233 529 
Q 2819 -91 2034 -91 
Q 1250 -91 836 529 
Q 422 1150 422 2328 
Q 422 3509 836 4129 
Q 1250 4750 2034 4750 
z
" transform="scale(0.015625)"/>
        <path id="DejaVuSans-2e" d="M 684 794 
L 1344 794 
L 1344 0 
L 684 0 
L 684 794 
z
" transform="scale(0.015625)"/>
       </defs>
       <use xlink:href="#DejaVuSans-30"/>
       <use xlink:href="#DejaVuSans-2e" transform="translate(63.623047 0)"/>
       <use xlink:href="#DejaVuSans-30" transform="translate(95.410156 0)"/>
       <use xlink:href="#DejaVuSans-30" transform="translate(159.033203 0)"/>
      </g>
     </g>
    </g>
    <g id="xtick_2">
     <g id="line2d_5">
      <path d="M 93.790427 214.846708 
L 93.790427 20.038594 
" clip-path="url(#p32814267a2)" style="fill: none; stroke: #cccccc; stroke-opacity: 0.5; stroke-width: 0.35; stroke-linecap: square"/>
     </g>
     <g id="line2d_6">
      <g>
       <use xlink:href="#mab1cefe860" x="93.790427" y="214.846708" style="stroke: #000000; stroke-width: 0.8"/>
      </g>
     </g>
     <g id="line2d_7">
      <g>
       <use xlink:href="#m87ee3f2e63" x="93.790427" y="20.038594" style="stroke: #000000; stroke-width: 0.8"/>
      </g>
     </g>
     <g id="text_2">
      <!-- 0.25 -->
      <g transform="translate(84.884177 224.425458) scale(0.08 -0.08)">
       <defs>
        <path id="DejaVuSans-32" d="M 1228 531 
L 3431 531 
L 3431 0 
L 469 0 
L 469 531 
Q 828 903 1448 1529 
Q 2069 2156 2228 2338 
Q 2531 2678 2651 2914 
Q 2772 3150 2772 3378 
Q 2772 3750 2511 3984 
Q 2250 4219 1831 4219 
Q 1534 4219 1204 4116 
Q 875 4013 500 3803 
L 500 4441 
Q 881 4594 1212 4672 
Q 1544 4750 1819 4750 
Q 2544 4750 2975 4387 
Q 3406 4025 3406 3419 
Q 3406 3131 3298 2873 
Q 3191 2616 2906 2266 
Q 2828 2175 2409 1742 
Q 1991 1309 1228 531 
z
" transform="scale(0.015625)"/>
        <path id="DejaVuSans-35" d="M 691 4666 
L 3169 4666 
L 3169 4134 
L 1269 4134 
L 1269 2991 
Q 1406 3038 1543 3061 
Q 1681 3084 1819 3084 
Q 2600 3084 3056 2656 
Q 3513 2228 3513 1497 
Q 3513 744 3044 326 
Q 2575 -91 1722 -91 
Q 1428 -91 1123 -41 
Q 819 9 494 109 
L 494 744 
Q 775 591 1075 516 
Q 1375 441 1709 441 
Q 2250 441 2565 725 
Q 2881 1009 2881 1497 
Q 2881 1984 2565 2268 
Q 2250 2553 1709 2553 
Q 1456 2553 1204 2497 
Q 953 2441 691 2322 
L 691 4666 
z
" transform="scale(0.015625)"/>
       </defs>
       <use xlink:href="#DejaVuSans-30"/>
       <use xlink:href="#DejaVuSans-2e" transform="translate(63.623047 0)"/>
       <use xlink:href="#DejaVuSans-32" transform="translate(95.410156 0)"/>
       <use xlink:href="#DejaVuSans-35" transform="translate(159.033203 0)"/>
      </g>
     </g>
    </g>
    <g id="xtick_3">
     <g id="line2d_8">
      <path d="M 146.358041 214.846708 
L 146.358041 20.038594 
" clip-path="url(#p32814267a2)" style="fill: none; stroke: #cccccc; stroke-opacity: 0.5; stroke-width: 0.35; stroke-linecap: square"/>
     </g>
     <g id="line2d_9">
      <g>
       <use xlink:href="#mab1cefe860" x="146.358041" y="214.846708" style="stroke: #000000; stroke-width: 0.8"/>
      </g>
     </g>
     <g id="line2d_10">
      <g>
       <use xlink:href="#m87ee3f2e63" x="146.358041" y="20.038594" style="stroke: #000000; stroke-width: 0.8"/>
      </g>
     </g>
     <g id="text_3">
      <!-- 0.50 -->
      <g transform="translate(137.451791 224.425458) scale(0.08 -0.08)">
       <use xlink:href="#DejaVuSans-30"/>
       <use xlink:href="#DejaVuSans-2e" transform="translate(63.623047 0)"/>
       <use xlink:href="#DejaVuSans-35" transform="translate(95.410156 0)"/>
       <use xlink:href="#DejaVuSans-30" transform="translate(159.033203 0)"/>
      </g>
     </g>
    </g>
    <g id="xtick_4">
     <g id="line2d_11">
      <path d="M 198.925656 214.846708 
L 198.925656 20.038594 
" clip-path="url(#p32814267a2)" style="fill: none; stroke: #cccccc; stroke-opacity: 0.5; stroke-width: 0.35; stroke-linecap: square"/>
     </g>
     <g id="line2d_12">
      <g>
       <use xlink:href="#mab1cefe860" x="198.925656" y="214.846708" style="stroke: #000000; stroke-width: 0.8"/>
      </g>
     </g>
     <g id="line2d_13">
      <g>
       <use xlink:href="#m87ee3f2e63" x="198.925656" y="20.038594" style="stroke: #000000; stroke-width: 0.8"/>
      </g>
     </g>
     <g id="text_4">
      <!-- 0.75 -->
      <g transform="translate(190.019406 224.425458) scale(0.08 -0.08)">
       <defs>
        <path id="DejaVuSans-37" d="M 525 4666 
L 3525 4666 
L 3525 4397 
L 1831 0 
L 1172 0 
L 2766 4134 
L 525 4134 
L 525 4666 
z
" transform="scale(0.015625)"/>
       </defs>
       <use xlink:href="#DejaVuSans-30"/>
       <use xlink:href="#DejaVuSans-2e" transform="translate(63.623047 0)"/>
       <use xlink:href="#DejaVuSans-37" transform="translate(95.410156 0)"/>
       <use xlink:href="#DejaVuSans-35" transform="translate(159.033203 0)"/>
      </g>
     </g>
    </g>
    <g id="xtick_5">
     <g id="line2d_14">
      <path d="M 251.49327 214.846708 
L 251.49327 20.038594 
" clip-path="url(#p32814267a2)" style="fill: none; stroke: #cccccc; stroke-opacity: 0.5; stroke-width: 0.35; stroke-linecap: square"/>
     </g>
     <g id="line2d_15">
      <g>
       <use xlink:href="#mab1cefe860" x="251.49327" y="214.846708" style="stroke: #000000; stroke-width: 0.8"/>
      </g>
     </g>
     <g id="line2d_16">
      <g>
       <use xlink:href="#m87ee3f2e63" x="251.49327" y="20.038594" style="stroke: #000000; stroke-width: 0.8"/>
      </g>
     </g>
     <g id="text_5">
      <!-- 1.00 -->
      <g transform="translate(242.58702 224.425458) scale(0.08 -0.08)">
       <defs>
        <path id="DejaVuSans-31" d="M 794 531 
L 1825 531 
L 1825 4091 
L 703 3866 
L 703 4441 
L 1819 4666 
L 2450 4666 
L 2450 531 
L 3481 531 
L 3481 0 
L 794 0 
L 794 531 
z
" transform="scale(0.015625)"/>
       </defs>
       <use xlink:href="#DejaVuSans-31"/>
       <use xlink:href="#DejaVuSans-2e" transform="translate(63.623047 0)"/>
       <use xlink:href="#DejaVuSans-30" transform="translate(95.410156 0)"/>
       <use xlink:href="#DejaVuSans-30" transform="translate(159.033203 0)"/>
      </g>
     </g>
    </g>
    <g id="text_6">
     <!-- False positive rate -->
     <g transform="translate(105.407338 236.927801) scale(0.09 -0.09)">
      <defs>
       <path id="DejaVuSans-46" d="M 628 4666 
L 3309 4666 
L 3309 4134 
L 1259 4134 
L 1259 2759 
L 3109 2759 
L 3109 2228 
L 1259 2228 
L 1259 0 
L 628 0 
L 628 4666 
z
" transform="scale(0.015625)"/>
       <path id="DejaVuSans-61" d="M 2194 1759 
Q 1497 1759 1228 1600 
Q 959 1441 959 1056 
Q 959 750 1161 570 
Q 1363 391 1709 391 
Q 2188 391 2477 730 
Q 2766 1069 2766 1631 
L 2766 1759 
L 2194 1759 
z
M 3341 1997 
L 3341 0 
L 2766 0 
L 2766 531 
Q 2569 213 2275 61 
Q 1981 -91 1556 -91 
Q 1019 -91 701 211 
Q 384 513 384 1019 
Q 384 1609 779 1909 
Q 1175 2209 1959 2209 
L 2766 2209 
L 2766 2266 
Q 2766 2663 2505 2880 
Q 2244 3097 1772 3097 
Q 1472 3097 1187 3025 
Q 903 2953 641 2809 
L 641 3341 
Q 956 3463 1253 3523 
Q 1550 3584 1831 3584 
Q 2591 3584 2966 3190 
Q 3341 2797 3341 1997 
z
" transform="scale(0.015625)"/>
       <path id="DejaVuSans-6c" d="M 603 4863 
L 1178 4863 
L 1178 0 
L 603 0 
L 603 4863 
z
" transform="scale(0.015625)"/>
       <path id="DejaVuSans-73" d="M 2834 3397 
L 2834 2853 
Q 2591 2978 2328 3040 
Q 2066 3103 1784 3103 
Q 1356 3103 1142 2972 
Q 928 2841 928 2578 
Q 928 2378 1081 2264 
Q 1234 2150 1697 2047 
L 1894 2003 
Q 2506 1872 2764 1633 
Q 3022 1394 3022 966 
Q 3022 478 2636 193 
Q 2250 -91 1575 -91 
Q 1294 -91 989 -36 
Q 684 19 347 128 
L 347 722 
Q 666 556 975 473 
Q 1284 391 1588 391 
Q 1994 391 2212 530 
Q 2431 669 2431 922 
Q 2431 1156 2273 1281 
Q 2116 1406 1581 1522 
L 1381 1569 
Q 847 1681 609 1914 
Q 372 2147 372 2553 
Q 372 3047 722 3315 
Q 1072 3584 1716 3584 
Q 2034 3584 2315 3537 
Q 2597 3491 2834 3397 
z
" transform="scale(0.015625)"/>
       <path id="DejaVuSans-65" d="M 3597 1894 
L 3597 1613 
L 953 1613 
Q 991 1019 1311 708 
Q 1631 397 2203 397 
Q 2534 397 2845 478 
Q 3156 559 3463 722 
L 3463 178 
Q 3153 47 2828 -22 
Q 2503 -91 2169 -91 
Q 1331 -91 842 396 
Q 353 884 353 1716 
Q 353 2575 817 3079 
Q 1281 3584 2069 3584 
Q 2775 3584 3186 3129 
Q 3597 2675 3597 1894 
z
M 3022 2063 
Q 3016 2534 2758 2815 
Q 2500 3097 2075 3097 
Q 1594 3097 1305 2825 
Q 1016 2553 972 2059 
L 3022 2063 
z
" transform="scale(0.015625)"/>
       <path id="DejaVuSans-20" transform="scale(0.015625)"/>
       <path id="DejaVuSans-70" d="M 1159 525 
L 1159 -1331 
L 581 -1331 
L 581 3500 
L 1159 3500 
L 1159 2969 
Q 1341 3281 1617 3432 
Q 1894 3584 2278 3584 
Q 2916 3584 3314 3078 
Q 3713 2572 3713 1747 
Q 3713 922 3314 415 
Q 2916 -91 2278 -91 
Q 1894 -91 1617 61 
Q 1341 213 1159 525 
z
M 3116 1747 
Q 3116 2381 2855 2742 
Q 2594 3103 2138 3103 
Q 1681 3103 1420 2742 
Q 1159 2381 1159 1747 
Q 1159 1113 1420 752 
Q 1681 391 2138 391 
Q 2594 391 2855 752 
Q 3116 1113 3116 1747 
z
" transform="scale(0.015625)"/>
       <path id="DejaVuSans-6f" d="M 1959 3097 
Q 1497 3097 1228 2736 
Q 959 2375 959 1747 
Q 959 1119 1226 758 
Q 1494 397 1959 397 
Q 2419 397 2687 759 
Q 2956 1122 2956 1747 
Q 2956 2369 2687 2733 
Q 2419 3097 1959 3097 
z
M 1959 3584 
Q 2709 3584 3137 3096 
Q 3566 2609 3566 1747 
Q 3566 888 3137 398 
Q 2709 -91 1959 -91 
Q 1206 -91 779 398 
Q 353 888 353 1747 
Q 353 2609 779 3096 
Q 1206 3584 1959 3584 
z
" transform="scale(0.015625)"/>
       <path id="DejaVuSans-69" d="M 603 3500 
L 1178 3500 
L 1178 0 
L 603 0 
L 603 3500 
z
M 603 4863 
L 1178 4863 
L 1178 4134 
L 603 4134 
L 603 4863 
z
" transform="scale(0.015625)"/>
       <path id="DejaVuSans-74" d="M 1172 4494 
L 1172 3500 
L 2356 3500 
L 2356 3053 
L 1172 3053 
L 1172 1153 
Q 1172 725 1289 603 
Q 1406 481 1766 481 
L 2356 481 
L 2356 0 
L 1766 0 
Q 1100 0 847 248 
Q 594 497 594 1153 
L 594 3053 
L 172 3053 
L 172 3500 
L 594 3500 
L 594 4494 
L 1172 4494 
z
" transform="scale(0.015625)"/>
       <path id="DejaVuSans-76" d="M 191 3500 
L 800 3500 
L 1894 563 
L 2988 3500 
L 3597 3500 
L 2284 0 
L 1503 0 
L 191 3500 
z
" transform="scale(0.015625)"/>
       <path id="DejaVuSans-72" d="M 2631 2963 
Q 2534 3019 2420 3045 
Q 2306 3072 2169 3072 
Q 1681 3072 1420 2755 
Q 1159 2438 1159 1844 
L 1159 0 
L 581 0 
L 581 3500 
L 1159 3500 
L 1159 2956 
Q 1341 3275 1631 3429 
Q 1922 3584 2338 3584 
Q 2397 3584 2469 3576 
Q 2541 3569 2628 3553 
L 2631 2963 
z
" transform="scale(0.015625)"/>
      </defs>
      <use xlink:href="#DejaVuSans-46"/>
      <use xlink:href="#DejaVuSans-61" transform="translate(48.394531 0)"/>
      <use xlink:href="#DejaVuSans-6c" transform="translate(109.673828 0)"/>
      <use xlink:href="#DejaVuSans-73" transform="translate(137.457031 0)"/>
      <use xlink:href="#DejaVuSans-65" transform="translate(189.556641 0)"/>
      <use xlink:href="#DejaVuSans-20" transform="translate(251.080078 0)"/>
      <use xlink:href="#DejaVuSans-70" transform="translate(282.867188 0)"/>
      <use xlink:href="#DejaVuSans-6f" transform="translate(346.34375 0)"/>
      <use xlink:href="#DejaVuSans-73" transform="translate(407.525391 0)"/>
      <use xlink:href="#DejaVuSans-69" transform="translate(459.625 0)"/>
      <use xlink:href="#DejaVuSans-74" transform="translate(487.408203 0)"/>
      <use xlink:href="#DejaVuSans-69" transform="translate(526.617188 0)"/>
      <use xlink:href="#DejaVuSans-76" transform="translate(554.400391 0)"/>
      <use xlink:href="#DejaVuSans-65" transform="translate(613.580078 0)"/>
      <use xlink:href="#DejaVuSans-20" transform="translate(675.103516 0)"/>
      <use xlink:href="#DejaVuSans-72" transform="translate(706.890625 0)"/>
      <use xlink:href="#DejaVuSans-61" transform="translate(748.003906 0)"/>
      <use xlink:href="#DejaVuSans-74" transform="translate(809.283203 0)"/>
      <use xlink:href="#DejaVuSans-65" transform="translate(848.492188 0)"/>
     </g>
    </g>
   </g>
   <g id="matplotlib.axis_2">
    <g id="ytick_1">
     <g id="line2d_17">
      <path d="M 41.222813 214.846708 
L 251.49327 214.846708 
" clip-path="url(#p32814267a2)" style="fill: none; stroke: #cccccc; stroke-opacity: 0.5; stroke-width: 0.35; stroke-linecap: square"/>
     </g>
     <g id="line2d_18">
      <defs>
       <path id="m09296edc8d" d="M 0 0 
L 3.5 0 
" style="stroke: #000000; stroke-width: 0.8"/>
      </defs>
      <g>
       <use xlink:href="#m09296edc8d" x="41.222813" y="214.846708" style="stroke: #000000; stroke-width: 0.8"/>
      </g>
     </g>
     <g id="line2d_19">
      <defs>
       <path id="m48690dd4c1" d="M 0 0 
L -3.5 0 
" style="stroke: #000000; stroke-width: 0.8"/>
      </defs>
      <g>
       <use xlink:href="#m48690dd4c1" x="251.49327" y="214.846708" style="stroke: #000000; stroke-width: 0.8"/>
      </g>
     </g>
     <g id="text_7">
      <!-- 0.00 -->
      <g transform="translate(19.910313 217.886083) scale(0.08 -0.08)">
       <use xlink:href="#DejaVuSans-30"/>
       <use xlink:href="#DejaVuSans-2e" transform="translate(63.623047 0)"/>
       <use xlink:href="#DejaVuSans-30" transform="translate(95.410156 0)"/>
       <use xlink:href="#DejaVuSans-30" transform="translate(159.033203 0)"/>
      </g>
     </g>
    </g>
    <g id="ytick_2">
     <g id="line2d_20">
      <path d="M 41.222813 166.144679 
L 251.49327 166.144679 
" clip-path="url(#p32814267a2)" style="fill: none; stroke: #cccccc; stroke-opacity: 0.5; stroke-width: 0.35; stroke-linecap: square"/>
     </g>
     <g id="line2d_21">
      <g>
       <use xlink:href="#m09296edc8d" x="41.222813" y="166.144679" style="stroke: #000000; stroke-width: 0.8"/>
      </g>
     </g>
     <g id="line2d_22">
      <g>
       <use xlink:href="#m48690dd4c1" x="251.49327" y="166.144679" style="stroke: #000000; stroke-width: 0.8"/>
      </g>
     </g>
     <g id="text_8">
      <!-- 0.25 -->
      <g transform="translate(19.910313 169.184054) scale(0.08 -0.08)">
       <use xlink:href="#DejaVuSans-30"/>
       <use xlink:href="#DejaVuSans-2e" transform="translate(63.623047 0)"/>
       <use xlink:href="#DejaVuSans-32" transform="translate(95.410156 0)"/>
       <use xlink:href="#DejaVuSans-35" transform="translate(159.033203 0)"/>
      </g>
     </g>
    </g>
    <g id="ytick_3">
     <g id="line2d_23">
      <path d="M 41.222813 117.442651 
L 251.49327 117.442651 
" clip-path="url(#p32814267a2)" style="fill: none; stroke: #cccccc; stroke-opacity: 0.5; stroke-width: 0.35; stroke-linecap: square"/>
     </g>
     <g id="line2d_24">
      <g>
       <use xlink:href="#m09296edc8d" x="41.222813" y="117.442651" style="stroke: #000000; stroke-width: 0.8"/>
      </g>
     </g>
     <g id="line2d_25">
      <g>
       <use xlink:href="#m48690dd4c1" x="251.49327" y="117.442651" style="stroke: #000000; stroke-width: 0.8"/>
      </g>
     </g>
     <g id="text_9">
      <!-- 0.50 -->
      <g transform="translate(19.910313 120.482026) scale(0.08 -0.08)">
       <use xlink:href="#DejaVuSans-30"/>
       <use xlink:href="#DejaVuSans-2e" transform="translate(63.623047 0)"/>
       <use xlink:href="#DejaVuSans-35" transform="translate(95.410156 0)"/>
       <use xlink:href="#DejaVuSans-30" transform="translate(159.033203 0)"/>
      </g>
     </g>
    </g>
    <g id="ytick_4">
     <g id="line2d_26">
      <path d="M 41.222813 68.740622 
L 251.49327 68.740622 
" clip-path="url(#p32814267a2)" style="fill: none; stroke: #cccccc; stroke-opacity: 0.5; stroke-width: 0.35; stroke-linecap: square"/>
     </g>
     <g id="line2d_27">
      <g>
       <use xlink:href="#m09296edc8d" x="41.222813" y="68.740622" style="stroke: #000000; stroke-width: 0.8"/>
      </g>
     </g>
     <g id="line2d_28">
      <g>
       <use xlink:href="#m48690dd4c1" x="251.49327" y="68.740622" style="stroke: #000000; stroke-width: 0.8"/>
      </g>
     </g>
     <g id="text_10">
      <!-- 0.75 -->
      <g transform="translate(19.910313 71.779997) scale(0.08 -0.08)">
       <use xlink:href="#DejaVuSans-30"/>
       <use xlink:href="#DejaVuSans-2e" transform="translate(63.623047 0)"/>
       <use xlink:href="#DejaVuSans-37" transform="translate(95.410156 0)"/>
       <use xlink:href="#DejaVuSans-35" transform="translate(159.033203 0)"/>
      </g>
     </g>
    </g>
    <g id="ytick_5">
     <g id="line2d_29">
      <path d="M 41.222813 20.038594 
L 251.49327 20.038594 
" clip-path="url(#p32814267a2)" style="fill: none; stroke: #cccccc; stroke-opacity: 0.5; stroke-width: 0.35; stroke-linecap: square"/>
     </g>
     <g id="line2d_30">
      <g>
       <use xlink:href="#m09296edc8d" x="41.222813" y="20.038594" style="stroke: #000000; stroke-width: 0.8"/>
      </g>
     </g>
     <g id="line2d_31">
      <g>
       <use xlink:href="#m48690dd4c1" x="251.49327" y="20.038594" style="stroke: #000000; stroke-width: 0.8"/>
      </g>
     </g>
     <g id="text_11">
      <!-- 1.00 -->
      <g transform="translate(19.910313 23.077969) scale(0.08 -0.08)">
       <use xlink:href="#DejaVuSans-31"/>
       <use xlink:href="#DejaVuSans-2e" transform="translate(63.623047 0)"/>
       <use xlink:href="#DejaVuSans-30" transform="translate(95.410156 0)"/>
       <use xlink:href="#DejaVuSans-30" transform="translate(159.033203 0)"/>
      </g>
     </g>
    </g>
    <g id="text_12">
     <!-- True positive rate -->
     <g transform="translate(14.038594 156.650307) rotate(-90) scale(0.09 -0.09)">
      <defs>
       <path id="DejaVuSans-54" d="M -19 4666 
L 3928 4666 
L 3928 4134 
L 2272 4134 
L 2272 0 
L 1638 0 
L 1638 4134 
L -19 4134 
L -19 4666 
z
" transform="scale(0.015625)"/>
       <path id="DejaVuSans-75" d="M 544 1381 
L 544 3500 
L 1119 3500 
L 1119 1403 
Q 1119 906 1312 657 
Q 1506 409 1894 409 
Q 2359 409 2629 706 
Q 2900 1003 2900 1516 
L 2900 3500 
L 3475 3500 
L 3475 0 
L 2900 0 
L 2900 538 
Q 2691 219 2414 64 
Q 2138 -91 1772 -91 
Q 1169 -91 856 284 
Q 544 659 544 1381 
z
M 1991 3584 
L 1991 3584 
z
" transform="scale(0.015625)"/>
      </defs>
      <use xlink:href="#DejaVuSans-54"/>
      <use xlink:href="#DejaVuSans-72" transform="translate(46.333984 0)"/>
      <use xlink:href="#DejaVuSans-75" transform="translate(87.447266 0)"/>
      <use xlink:href="#DejaVuSans-65" transform="translate(150.826172 0)"/>
      <use xlink:href="#DejaVuSans-20" transform="translate(212.349609 0)"/>
      <use xlink:href="#DejaVuSans-70" transform="translate(244.136719 0)"/>
      <use xlink:href="#DejaVuSans-6f" transform="translate(307.613281 0)"/>
      <use xlink:href="#DejaVuSans-73" transform="translate(368.794922 0)"/>
      <use xlink:href="#DejaVuSans-69" transform="translate(420.894531 0)"/>
      <use xlink:href="#DejaVuSans-74" transform="translate(448.677734 0)"/>
      <use xlink:href="#DejaVuSans-69" transform="translate(487.886719 0)"/>
      <use xlink:href="#DejaVuSans-76" transform="translate(515.669922 0)"/>
      <use xlink:href="#DejaVuSans-65" transform="translate(574.849609 0)"/>
      <use xlink:href="#DejaVuSans-20" transform="translate(636.373047 0)"/>
      <use xlink:href="#DejaVuSans-72" transform="translate(668.160156 0)"/>
      <use xlink:href="#DejaVuSans-61" transform="translate(709.273438 0)"/>
      <use xlink:href="#DejaVuSans-74" transform="translate(770.552734 0)"/>
      <use xlink:href="#DejaVuSans-65" transform="translate(809.761719 0)"/>
     </g>
    </g>
   </g>
   <g id="line2d_32">
    <path d="M 41.222813 214.846708 
L 41.222813 213.223307 
L 41.222813 185.62549 
L 42.390982 185.62549 
L 42.390982 182.378689 
L 43.559151 182.378689 
L 43.559151 171.014882 
L 44.72732 171.014882 
L 44.72732 164.521278 
L 45.895489 164.521278 
L 45.895489 153.157471 
L 47.063659 153.157471 
L 47.063659 148.287269 
L 48.231828 148.287269 
L 48.231828 141.793665 
L 49.399997 141.793665 
L 49.399997 138.546863 
L 50.568166 138.546863 
L 50.568166 132.053259 
L 52.904505 132.053259 
L 52.904505 130.429858 
L 54.072674 130.429858 
L 54.072674 127.183056 
L 55.240843 127.183056 
L 55.240843 123.936254 
L 56.409012 123.936254 
L 56.409012 122.312853 
L 57.577181 122.312853 
L 57.577181 117.442651 
L 58.745351 117.442651 
L 58.745351 109.325646 
L 59.91352 109.325646 
L 59.91352 99.58524 
L 62.249858 99.58524 
L 62.249858 97.961839 
L 64.586197 97.961839 
L 64.586197 93.091636 
L 66.922535 93.091636 
L 66.922535 88.221434 
L 68.090704 88.221434 
L 68.090704 84.974632 
L 69.258874 84.974632 
L 69.258874 81.72783 
L 72.763381 81.72783 
L 72.763381 80.104429 
L 75.09972 80.104429 
L 75.09972 78.481028 
L 77.436058 78.481028 
L 77.436058 73.610825 
L 79.772396 73.610825 
L 79.772396 67.117221 
L 87.949581 67.117221 
L 87.949581 63.870419 
L 89.11775 63.870419 
L 89.11775 60.623617 
L 91.454088 60.623617 
L 91.454088 59.000217 
L 93.790427 59.000217 
L 93.790427 55.753415 
L 94.958596 55.753415 
L 94.958596 54.130014 
L 97.294935 54.130014 
L 97.294935 52.506613 
L 98.463104 52.506613 
L 98.463104 50.883212 
L 101.967611 50.883212 
L 101.967611 49.259811 
L 107.808457 49.259811 
L 107.808457 47.63641 
L 108.976627 47.63641 
L 108.976627 46.013009 
L 111.312965 46.013009 
L 111.312965 42.766207 
L 112.481134 42.766207 
L 113.649303 41.142806 
L 113.649303 39.519405 
L 115.985642 39.519405 
L 115.985642 36.272603 
L 119.490149 36.272603 
L 119.490149 34.649202 
L 120.658319 34.649202 
L 120.658319 33.025801 
L 121.826488 33.025801 
L 121.826488 31.4024 
L 126.499165 31.4024 
L 126.499165 29.778999 
L 156.871564 29.778999 
L 156.871564 28.155598 
L 161.544241 28.155598 
L 161.544241 24.908797 
L 179.066779 24.908797 
L 179.066779 23.285396 
L 194.252979 23.285396 
L 194.252979 21.661995 
L 210.607348 21.661995 
L 210.607348 20.038594 
L 251.49327 20.038594 
" clip-path="url(#p32814267a2)" style="fill: none; stroke-dasharray: 6.4,3.2; stroke-dashoffset: 0; stroke: #e69f00; stroke-width: 1.6"/>
   </g>
   <g id="line2d_33">
    <path d="M 41.222813 214.846708 
L 41.222813 213.223307 
L 41.222813 156.404273 
L 42.390982 156.404273 
L 42.390982 141.793665 
L 43.559151 141.793665 
L 43.559151 136.923462 
L 44.72732 136.923462 
L 44.72732 125.559655 
L 45.895489 125.559655 
L 45.895489 122.312853 
L 47.063659 122.312853 
L 47.063659 115.81925 
L 50.568166 115.81925 
L 50.568166 107.702245 
L 52.904505 107.702245 
L 52.904505 94.715037 
L 54.072674 94.715037 
L 54.072674 93.091636 
L 55.240843 93.091636 
L 55.240843 89.844835 
L 56.409012 89.844835 
L 56.409012 88.221434 
L 58.745351 88.221434 
L 58.745351 83.351231 
L 61.081689 83.351231 
L 61.081689 80.104429 
L 62.249858 80.104429 
L 62.249858 75.234226 
L 63.418027 75.234226 
L 63.418027 68.740622 
L 65.754366 68.740622 
L 65.754366 60.623617 
L 66.922535 60.623617 
L 66.922535 59.000217 
L 72.763381 59.000217 
L 72.763381 57.376816 
L 76.267889 57.376816 
L 76.267889 55.753415 
L 79.772396 55.753415 
L 79.772396 52.506613 
L 80.940566 52.506613 
L 80.940566 49.259811 
L 84.445073 49.259811 
L 84.445073 47.63641 
L 87.949581 47.63641 
L 87.949581 46.013009 
L 92.622258 46.013009 
L 92.622258 44.389608 
L 98.463104 44.389608 
L 98.463104 42.766207 
L 100.799442 42.766207 
L 100.799442 41.142806 
L 101.967611 41.142806 
L 101.967611 39.519405 
L 120.658319 39.519405 
L 120.658319 37.896004 
L 122.994657 37.896004 
L 122.994657 36.272603 
L 126.499165 36.272603 
L 126.499165 34.649202 
L 137.012688 34.649202 
L 137.012688 33.025801 
L 138.180857 33.025801 
L 138.180857 31.4024 
L 139.349026 31.4024 
L 139.349026 29.778999 
L 140.517195 29.778999 
L 140.517195 28.155598 
L 169.721425 28.155598 
L 169.721425 26.532198 
L 170.889595 26.532198 
L 170.889595 24.908797 
L 182.571287 24.908797 
L 182.571287 23.285396 
L 191.91664 23.285396 
L 191.91664 21.661995 
L 194.252979 21.661995 
L 194.252979 20.038594 
L 232.802563 20.038594 
L 235.138901 20.038594 
L 251.49327 20.038594 
" clip-path="url(#p32814267a2)" style="fill: none; stroke-dasharray: 3.2,1.6,3.2,1.6; stroke-dashoffset: 0; stroke: #56b4e9; stroke-width: 1.6"/>
   </g>
   <g id="line2d_34">
    <path d="M 41.222813 214.846708 
L 41.222813 213.223307 
L 41.222813 112.572448 
L 42.390982 112.572448 
L 42.390982 102.832042 
L 43.559151 102.832042 
L 43.559151 93.091636 
L 44.72732 91.468235 
L 44.72732 80.104429 
L 45.895489 80.104429 
L 45.895489 70.364023 
L 48.231828 70.364023 
L 48.231828 57.376816 
L 49.399997 57.376816 
L 49.399997 54.130014 
L 51.736335 54.130014 
L 51.736335 49.259811 
L 54.072674 49.259811 
L 54.072674 47.63641 
L 55.240843 47.63641 
L 55.240843 44.389608 
L 57.577181 44.389608 
L 57.577181 41.142806 
L 59.91352 41.142806 
L 59.91352 39.519405 
L 62.249858 39.519405 
L 62.249858 36.272603 
L 71.595212 36.272603 
L 71.595212 34.649202 
L 73.93155 34.649202 
L 73.93155 33.025801 
L 82.108735 33.025801 
L 82.108735 31.4024 
L 92.622258 31.4024 
L 92.622258 29.778999 
L 97.294935 29.778999 
L 97.294935 28.155598 
L 112.481134 28.155598 
L 112.481134 26.532198 
L 126.499165 26.532198 
L 126.499165 24.908797 
L 128.835503 24.908797 
L 128.835503 23.285396 
L 144.021703 23.285396 
L 144.021703 21.661995 
L 155.703395 21.661995 
L 155.703395 20.038594 
L 251.49327 20.038594 
" clip-path="url(#p32814267a2)" style="fill: none; stroke-dasharray: 1.6,1.6; stroke-dashoffset: 0; stroke: #009e73; stroke-width: 1.6"/>
   </g>
   <g id="line2d_35">
    <path d="M 41.222813 214.846708 
L 41.222813 213.223307 
L 41.222813 80.104429 
L 42.390982 80.104429 
L 42.390982 47.63641 
L 45.895489 47.63641 
L 45.895489 44.389608 
L 47.063659 44.389608 
L 47.063659 42.766207 
L 49.399997 42.766207 
L 49.399997 37.896004 
L 50.568166 37.896004 
L 50.568166 31.4024 
L 57.577181 31.4024 
L 57.577181 29.778999 
L 58.745351 29.778999 
L 58.745351 28.155598 
L 61.081689 28.155598 
L 61.081689 26.532198 
L 68.090704 26.532198 
L 68.090704 24.908797 
L 69.258874 24.908797 
L 69.258874 23.285396 
L 73.93155 23.285396 
L 73.93155 21.661995 
L 79.772396 21.661995 
L 79.772396 20.038594 
L 90.285919 20.038594 
L 92.622258 20.038594 
L 251.49327 20.038594 
" clip-path="url(#p32814267a2)" style="fill: none; stroke: #cc79a7; stroke-width: 1.6; stroke-linecap: square"/>
   </g>
   <g id="patch_3">
    <path d="M 41.222813 214.846708 
L 41.222813 20.038594 
" style="fill: none; stroke: #000000; stroke-width: 0.7; stroke-linejoin: miter; stroke-linecap: square"/>
   </g>
   <g id="patch_4">
    <path d="M 251.49327 214.846708 
L 251.49327 20.038594 
" style="fill: none; stroke: #000000; stroke-width: 0.7; stroke-linejoin: miter; stroke-linecap: square"/>
   </g>
   <g id="patch_5">
    <path d="M 41.222813 214.846708 
L 251.49327 214.846708 
" style="fill: none; stroke: #000000; stroke-width: 0.7; stroke-linejoin: miter; stroke-linecap: square"/>
   </g>
   <g id="patch_6">
    <path d="M 41.222813 20.038594 
L 251.49327 20.038594 
" style="fill: none; stroke: #000000; stroke-width: 0.7; stroke-linejoin: miter; stroke-linecap: square"/>
   </g>
   <g id="text_13">
    <!-- ROC curve -->
    <g transform="translate(120.122338 14.038594) scale(0.09 -0.09)">
     <defs>
      <path id="DejaVuSans-Bold-52" d="M 2297 2597 
Q 2675 2597 2839 2737 
Q 3003 2878 3003 3200 
Q 3003 3519 2839 3656 
Q 2675 3794 2297 3794 
L 1791 3794 
L 1791 2597 
L 2297 2597 
z
M 1791 1766 
L 1791 0 
L 588 0 
L 588 4666 
L 2425 4666 
Q 3347 4666 3776 4356 
Q 4206 4047 4206 3378 
Q 4206 2916 3982 2619 
Q 3759 2322 3309 2181 
Q 3556 2125 3751 1926 
Q 3947 1728 4147 1325 
L 4800 0 
L 3519 0 
L 2950 1159 
Q 2778 1509 2601 1637 
Q 2425 1766 2131 1766 
L 1791 1766 
z
" transform="scale(0.015625)"/>
      <path id="DejaVuSans-Bold-4f" d="M 2719 3878 
Q 2169 3878 1866 3472 
Q 1563 3066 1563 2328 
Q 1563 1594 1866 1187 
Q 2169 781 2719 781 
Q 3272 781 3575 1187 
Q 3878 1594 3878 2328 
Q 3878 3066 3575 3472 
Q 3272 3878 2719 3878 
z
M 2719 4750 
Q 3844 4750 4481 4106 
Q 5119 3463 5119 2328 
Q 5119 1197 4481 553 
Q 3844 -91 2719 -91 
Q 1597 -91 958 553 
Q 319 1197 319 2328 
Q 319 3463 958 4106 
Q 1597 4750 2719 4750 
z
" transform="scale(0.015625)"/>
      <path id="DejaVuSans-Bold-43" d="M 4288 256 
Q 3956 84 3597 -3 
Q 3238 -91 2847 -91 
Q 1681 -91 1000 561 
Q 319 1213 319 2328 
Q 319 3447 1000 4098 
Q 1681 4750 2847 4750 
Q 3238 4750 3597 4662 
Q 3956 4575 4288 4403 
L 4288 3438 
Q 3953 3666 3628 3772 
Q 3303 3878 2944 3878 
Q 2300 3878 1931 3465 
Q 1563 3053 1563 2328 
Q 1563 1606 1931 1193 
Q 2300 781 2944 781 
Q 3303 781 3628 887 
Q 3953 994 4288 1222 
L 4288 256 
z
" transform="scale(0.015625)"/>
      <path id="DejaVuSans-Bold-20" transform="scale(0.015625)"/>
      <path id="DejaVuSans-Bold-63" d="M 3366 3391 
L 3366 2478 
Q 3138 2634 2908 2709 
Q 2678 2784 2431 2784 
Q 1963 2784 1702 2511 
Q 1441 2238 1441 1747 
Q 1441 1256 1702 982 
Q 1963 709 2431 709 
Q 2694 709 2930 787 
Q 3166 866 3366 1019 
L 3366 103 
Q 3103 6 2833 -42 
Q 2563 -91 2291 -91 
Q 1344 -91 809 395 
Q 275 881 275 1747 
Q 275 2613 809 3098 
Q 1344 3584 2291 3584 
Q 2566 3584 2833 3536 
Q 3100 3488 3366 3391 
z
" transform="scale(0.015625)"/>
      <path id="DejaVuSans-Bold-75" d="M 500 1363 
L 500 3500 
L 1625 3500 
L 1625 3150 
Q 1625 2866 1622 2436 
Q 1619 2006 1619 1863 
Q 1619 1441 1641 1255 
Q 1663 1069 1716 984 
Q 1784 875 1895 815 
Q 2006 756 2150 756 
Q 2500 756 2700 1025 
Q 2900 1294 2900 1772 
L 2900 3500 
L 4019 3500 
L 4019 0 
L 2900 0 
L 2900 506 
Q 2647 200 2364 54 
Q 2081 -91 1741 -91 
Q 1134 -91 817 281 
Q 500 653 500 1363 
z
" transform="scale(0.015625)"/>
      <path id="DejaVuSans-Bold-72" d="M 3138 2547 
Q 2991 2616 2845 2648 
Q 2700 2681 2553 2681 
Q 2122 2681 1889 2404 
Q 1656 2128 1656 1613 
L 1656 0 
L 538 0 
L 538 3500 
L 1656 3500 
L 1656 2925 
Q 1872 3269 2151 3426 
Q 2431 3584 2822 3584 
Q 2878 3584 2943 3579 
Q 3009 3575 3134 3559 
L 3138 2547 
z
" transform="scale(0.015625)"/>
      <path id="DejaVuSans-Bold-76" d="M 97 3500 
L 1216 3500 
L 2088 1081 
L 2956 3500 
L 4078 3500 
L 2700 0 
L 1472 0 
L 97 3500 
z
" transform="scale(0.015625)"/>
      <path id="DejaVuSans-Bold-65" d="M 4031 1759 
L 4031 1441 
L 1416 1441 
Q 1456 1047 1700 850 
Q 1944 653 2381 653 
Q 2734 653 3104 758 
Q 3475 863 3866 1075 
L 3866 213 
Q 3469 63 3072 -14 
Q 2675 -91 2278 -91 
Q 1328 -91 801 392 
Q 275 875 275 1747 
Q 275 2603 792 3093 
Q 1309 3584 2216 3584 
Q 3041 3584 3536 3087 
Q 4031 2591 4031 1759 
z
M 2881 2131 
Q 2881 2450 2695 2645 
Q 2509 2841 2209 2841 
Q 1884 2841 1681 2658 
Q 1478 2475 1428 2131 
L 2881 2131 
z
" transform="scale(0.015625)"/>
     </defs>
     <use xlink:href="#DejaVuSans-Bold-52"/>
     <use xlink:href="#DejaVuSans-Bold-4f" transform="translate(77.001953 0)"/>
     <use xlink:href="#DejaVuSans-Bold-43" transform="translate(162.011719 0)"/>
     <use xlink:href="#DejaVuSans-Bold-20" transform="translate(235.400391 0)"/>
     <use xlink:href="#DejaVuSans-Bold-63" transform="translate(270.214844 0)"/>
     <use xlink:href="#DejaVuSans-Bold-75" transform="translate(329.492188 0)"/>
     <use xlink:href="#DejaVuSans-Bold-72" transform="translate(400.683594 0)"/>
     <use xlink:href="#DejaVuSans-Bold-76" transform="translate(450 0)"/>
     <use xlink:href="#DejaVuSans-Bold-65" transform="translate(515.185547 0)"/>
    </g>
   </g>
   <g id="legend_1">
    <g id="patch_7">
     <path d="M 129.501473 211.596708 
L 246.94327 211.596708 
Q 248.24327 211.596708 248.24327 210.296708 
L 248.24327 170.183583 
Q 248.24327 168.883583 246.94327 168.883583 
L 129.501473 168.883583 
Q 128.201473 168.883583 128.201473 170.183583 
L 128.201473 210.296708 
Q 128.201473 211.596708 129.501473 211.596708 
z
" style="fill: #ffffff; opacity: 0.85; stroke: #bbbbbb; stroke-linejoin: miter"/>
    </g>
    <g id="line2d_36">
     <path d="M 132.101473 175.447567 
L 138.601473 175.447567 
L 145.101473 175.447567 
" style="fill: none; stroke-dasharray: 6.4,3.2; stroke-dashoffset: 0; stroke: #e69f00; stroke-width: 1.6"/>
    </g>
    <g id="text_14">
     <!-- Baseline  (AUROC = 0.866) -->
     <g transform="translate(150.301473 177.722567) scale(0.065 -0.065)">
      <defs>
       <path id="DejaVuSans-42" d="M 1259 2228 
L 1259 519 
L 2272 519 
Q 2781 519 3026 730 
Q 3272 941 3272 1375 
Q 3272 1813 3026 2020 
Q 2781 2228 2272 2228 
L 1259 2228 
z
M 1259 4147 
L 1259 2741 
L 2194 2741 
Q 2656 2741 2882 2914 
Q 3109 3088 3109 3444 
Q 3109 3797 2882 3972 
Q 2656 4147 2194 4147 
L 1259 4147 
z
M 628 4666 
L 2241 4666 
Q 2963 4666 3353 4366 
Q 3744 4066 3744 3513 
Q 3744 3084 3544 2831 
Q 3344 2578 2956 2516 
Q 3422 2416 3680 2098 
Q 3938 1781 3938 1306 
Q 3938 681 3513 340 
Q 3088 0 2303 0 
L 628 0 
L 628 4666 
z
" transform="scale(0.015625)"/>
       <path id="DejaVuSans-6e" d="M 3513 2113 
L 3513 0 
L 2938 0 
L 2938 2094 
Q 2938 2591 2744 2837 
Q 2550 3084 2163 3084 
Q 1697 3084 1428 2787 
Q 1159 2491 1159 1978 
L 1159 0 
L 581 0 
L 581 3500 
L 1159 3500 
L 1159 2956 
Q 1366 3272 1645 3428 
Q 1925 3584 2291 3584 
Q 2894 3584 3203 3211 
Q 3513 2838 3513 2113 
z
" transform="scale(0.015625)"/>
       <path id="DejaVuSans-28" d="M 1984 4856 
Q 1566 4138 1362 3434 
Q 1159 2731 1159 2009 
Q 1159 1288 1364 580 
Q 1569 -128 1984 -844 
L 1484 -844 
Q 1016 -109 783 600 
Q 550 1309 550 2009 
Q 550 2706 781 3412 
Q 1013 4119 1484 4856 
L 1984 4856 
z
" transform="scale(0.015625)"/>
       <path id="DejaVuSans-41" d="M 2188 4044 
L 1331 1722 
L 3047 1722 
L 2188 4044 
z
M 1831 4666 
L 2547 4666 
L 4325 0 
L 3669 0 
L 3244 1197 
L 1141 1197 
L 716 0 
L 50 0 
L 1831 4666 
z
" transform="scale(0.015625)"/>
       <path id="DejaVuSans-55" d="M 556 4666 
L 1191 4666 
L 1191 1831 
Q 1191 1081 1462 751 
Q 1734 422 2344 422 
Q 2950 422 3222 751 
Q 3494 1081 3494 1831 
L 3494 4666 
L 4128 4666 
L 4128 1753 
Q 4128 841 3676 375 
Q 3225 -91 2344 -91 
Q 1459 -91 1007 375 
Q 556 841 556 1753 
L 556 4666 
z
" transform="scale(0.015625)"/>
       <path id="DejaVuSans-52" d="M 2841 2188 
Q 3044 2119 3236 1894 
Q 3428 1669 3622 1275 
L 4263 0 
L 3584 0 
L 2988 1197 
Q 2756 1666 2539 1819 
Q 2322 1972 1947 1972 
L 1259 1972 
L 1259 0 
L 628 0 
L 628 4666 
L 2053 4666 
Q 2853 4666 3247 4331 
Q 3641 3997 3641 3322 
Q 3641 2881 3436 2590 
Q 3231 2300 2841 2188 
z
M 1259 4147 
L 1259 2491 
L 2053 2491 
Q 2509 2491 2742 2702 
Q 2975 2913 2975 3322 
Q 2975 3731 2742 3939 
Q 2509 4147 2053 4147 
L 1259 4147 
z
" transform="scale(0.015625)"/>
       <path id="DejaVuSans-4f" d="M 2522 4238 
Q 1834 4238 1429 3725 
Q 1025 3213 1025 2328 
Q 1025 1447 1429 934 
Q 1834 422 2522 422 
Q 3209 422 3611 934 
Q 4013 1447 4013 2328 
Q 4013 3213 3611 3725 
Q 3209 4238 2522 4238 
z
M 2522 4750 
Q 3503 4750 4090 4092 
Q 4678 3434 4678 2328 
Q 4678 1225 4090 567 
Q 3503 -91 2522 -91 
Q 1538 -91 948 565 
Q 359 1222 359 2328 
Q 359 3434 948 4092 
Q 1538 4750 2522 4750 
z
" transform="scale(0.015625)"/>
       <path id="DejaVuSans-43" d="M 4122 4306 
L 4122 3641 
Q 3803 3938 3442 4084 
Q 3081 4231 2675 4231 
Q 1875 4231 1450 3742 
Q 1025 3253 1025 2328 
Q 1025 1406 1450 917 
Q 1875 428 2675 428 
Q 3081 428 3442 575 
Q 3803 722 4122 1019 
L 4122 359 
Q 3791 134 3420 21 
Q 3050 -91 2638 -91 
Q 1578 -91 968 557 
Q 359 1206 359 2328 
Q 359 3453 968 4101 
Q 1578 4750 2638 4750 
Q 3056 4750 3426 4639 
Q 3797 4528 4122 4306 
z
" transform="scale(0.015625)"/>
       <path id="DejaVuSans-202f" transform="scale(0.015625)"/>
       <path id="DejaVuSans-3d" d="M 678 2906 
L 4684 2906 
L 4684 2381 
L 678 2381 
L 678 2906 
z
M 678 1631 
L 4684 1631 
L 4684 1100 
L 678 1100 
L 678 1631 
z
" transform="scale(0.015625)"/>
       <path id="DejaVuSans-38" d="M 2034 2216 
Q 1584 2216 1326 1975 
Q 1069 1734 1069 1313 
Q 1069 891 1326 650 
Q 1584 409 2034 409 
Q 2484 409 2743 651 
Q 3003 894 3003 1313 
Q 3003 1734 2745 1975 
Q 2488 2216 2034 2216 
z
M 1403 2484 
Q 997 2584 770 2862 
Q 544 3141 544 3541 
Q 544 4100 942 4425 
Q 1341 4750 2034 4750 
Q 2731 4750 3128 4425 
Q 3525 4100 3525 3541 
Q 3525 3141 3298 2862 
Q 3072 2584 2669 2484 
Q 3125 2378 3379 2068 
Q 3634 1759 3634 1313 
Q 3634 634 3220 271 
Q 2806 -91 2034 -91 
Q 1263 -91 848 271 
Q 434 634 434 1313 
Q 434 1759 690 2068 
Q 947 2378 1403 2484 
z
M 1172 3481 
Q 1172 3119 1398 2916 
Q 1625 2713 2034 2713 
Q 2441 2713 2670 2916 
Q 2900 3119 2900 3481 
Q 2900 3844 2670 4047 
Q 2441 4250 2034 4250 
Q 1625 4250 1398 4047 
Q 1172 3844 1172 3481 
z
" transform="scale(0.015625)"/>
       <path id="DejaVuSans-36" d="M 2113 2584 
Q 1688 2584 1439 2293 
Q 1191 2003 1191 1497 
Q 1191 994 1439 701 
Q 1688 409 2113 409 
Q 2538 409 2786 701 
Q 3034 994 3034 1497 
Q 3034 2003 2786 2293 
Q 2538 2584 2113 2584 
z
M 3366 4563 
L 3366 3988 
Q 3128 4100 2886 4159 
Q 2644 4219 2406 4219 
Q 1781 4219 1451 3797 
Q 1122 3375 1075 2522 
Q 1259 2794 1537 2939 
Q 1816 3084 2150 3084 
Q 2853 3084 3261 2657 
Q 3669 2231 3669 1497 
Q 3669 778 3244 343 
Q 2819 -91 2113 -91 
Q 1303 -91 875 529 
Q 447 1150 447 2328 
Q 447 3434 972 4092 
Q 1497 4750 2381 4750 
Q 2619 4750 2861 4703 
Q 3103 4656 3366 4563 
z
" transform="scale(0.015625)"/>
       <path id="DejaVuSans-29" d="M 513 4856 
L 1013 4856 
Q 1481 4119 1714 3412 
Q 1947 2706 1947 2009 
Q 1947 1309 1714 600 
Q 1481 -109 1013 -844 
L 513 -844 
Q 928 -128 1133 580 
Q 1338 1288 1338 2009 
Q 1338 2731 1133 3434 
Q 928 4138 513 4856 
z
" transform="scale(0.015625)"/>
      </defs>
      <use xlink:href="#DejaVuSans-42"/>
      <use xlink:href="#DejaVuSans-61" transform="translate(68.603516 0)"/>
      <use xlink:href="#DejaVuSans-73" transform="translate(129.882812 0)"/>
      <use xlink:href="#DejaVuSans-65" transform="translate(181.982422 0)"/>
      <use xlink:href="#DejaVuSans-6c" transform="translate(243.505859 0)"/>
      <use xlink:href="#DejaVuSans-69" transform="translate(271.289062 0)"/>
      <use xlink:href="#DejaVuSans-6e" transform="translate(299.072266 0)"/>
      <use xlink:href="#DejaVuSans-65" transform="translate(362.451172 0)"/>
      <use xlink:href="#DejaVuSans-20" transform="translate(423.974609 0)"/>
      <use xlink:href="#DejaVuSans-20" transform="translate(455.761719 0)"/>
      <use xlink:href="#DejaVuSans-28" transform="translate(487.548828 0)"/>
      <use xlink:href="#DejaVuSans-41" transform="translate(526.5625 0)"/>
      <use xlink:href="#DejaVuSans-55" transform="translate(594.970703 0)"/>
      <use xlink:href="#DejaVuSans-52" transform="translate(668.164062 0)"/>
      <use xlink:href="#DejaVuSans-4f" transform="translate(737.646484 0)"/>
      <use xlink:href="#DejaVuSans-43" transform="translate(816.357422 0)"/>
      <use xlink:href="#DejaVuSans-202f" transform="translate(886.181641 0)"/>
      <use xlink:href="#DejaVuSans-3d" transform="translate(906.152344 0)"/>
      <use xlink:href="#DejaVuSans-202f" transform="translate(989.941406 0)"/>
      <use xlink:href="#DejaVuSans-30" transform="translate(1009.912109 0)"/>
      <use xlink:href="#DejaVuSans-2e" transform="translate(1073.535156 0)"/>
      <use xlink:href="#DejaVuSans-38" transform="translate(1105.322266 0)"/>
      <use xlink:href="#DejaVuSans-36" transform="translate(1168.945312 0)"/>
      <use xlink:href="#DejaVuSans-36" transform="translate(1232.568359 0)"/>
      <use xlink:href="#DejaVuSans-29" transform="translate(1296.191406 0)"/>
     </g>
    </g>
    <g id="line2d_37">
     <path d="M 132.101473 184.988348 
L 138.601473 184.988348 
L 145.101473 184.988348 
" style="fill: none; stroke-dasharray: 3.2,1.6,3.2,1.6; stroke-dashoffset: 0; stroke: #56b4e9; stroke-width: 1.6"/>
    </g>
    <g id="text_15">
     <!-- Method-A  (AUROC = 0.899) -->
     <g transform="translate(150.301473 187.263348) scale(0.065 -0.065)">
      <defs>
       <path id="DejaVuSans-4d" d="M 628 4666 
L 1569 4666 
L 2759 1491 
L 3956 4666 
L 4897 4666 
L 4897 0 
L 4281 0 
L 4281 4097 
L 3078 897 
L 2444 897 
L 1241 4097 
L 1241 0 
L 628 0 
L 628 4666 
z
" transform="scale(0.015625)"/>
       <path id="DejaVuSans-68" d="M 3513 2113 
L 3513 0 
L 2938 0 
L 2938 2094 
Q 2938 2591 2744 2837 
Q 2550 3084 2163 3084 
Q 1697 3084 1428 2787 
Q 1159 2491 1159 1978 
L 1159 0 
L 581 0 
L 581 4863 
L 1159 4863 
L 1159 2956 
Q 1366 3272 1645 3428 
Q 1925 3584 2291 3584 
Q 2894 3584 3203 3211 
Q 3513 2838 3513 2113 
z
" transform="scale(0.015625)"/>
       <path id="DejaVuSans-64" d="M 2906 2969 
L 2906 4863 
L 3481 4863 
L 3481 0 
L 2906 0 
L 2906 525 
Q 2725 213 2448 61 
Q 2172 -91 1784 -91 
Q 1150 -91 751 415 
Q 353 922 353 1747 
Q 353 2572 751 3078 
Q 1150 3584 1784 3584 
Q 2172 3584 2448 3432 
Q 2725 3281 2906 2969 
z
M 947 1747 
Q 947 1113 1208 752 
Q 1469 391 1925 391 
Q 2381 391 2643 752 
Q 2906 1113 2906 1747 
Q 2906 2381 2643 2742 
Q 2381 3103 1925 3103 
Q 1469 3103 1208 2742 
Q 947 2381 947 1747 
z
" transform="scale(0.015625)"/>
       <path id="DejaVuSans-2d" d="M 313 2009 
L 1997 2009 
L 1997 1497 
L 313 1497 
L 313 2009 
z
" transform="scale(0.015625)"/>
       <path id="DejaVuSans-39" d="M 703 97 
L 703 672 
Q 941 559 1184 500 
Q 1428 441 1663 441 
Q 2288 441 2617 861 
Q 2947 1281 2994 2138 
Q 2813 1869 2534 1725 
Q 2256 1581 1919 1581 
Q 1219 1581 811 2004 
Q 403 2428 403 3163 
Q 403 3881 828 4315 
Q 1253 4750 1959 4750 
Q 2769 4750 3195 4129 
Q 3622 3509 3622 2328 
Q 3622 1225 3098 567 
Q 2575 -91 1691 -91 
Q 1453 -91 1209 -44 
Q 966 3 703 97 
z
M 1959 2075 
Q 2384 2075 2632 2365 
Q 2881 2656 2881 3163 
Q 2881 3666 2632 3958 
Q 2384 4250 1959 4250 
Q 1534 4250 1286 3958 
Q 1038 3666 1038 3163 
Q 1038 2656 1286 2365 
Q 1534 2075 1959 2075 
z
" transform="scale(0.015625)"/>
      </defs>
      <use xlink:href="#DejaVuSans-4d"/>
      <use xlink:href="#DejaVuSans-65" transform="translate(86.279297 0)"/>
      <use xlink:href="#DejaVuSans-74" transform="translate(147.802734 0)"/>
      <use xlink:href="#DejaVuSans-68" transform="translate(187.011719 0)"/>
      <use xlink:href="#DejaVuSans-6f" transform="translate(250.390625 0)"/>
      <use xlink:href="#DejaVuSans-64" transform="translate(311.572266 0)"/>
      <use xlink:href="#DejaVuSans-2d" transform="translate(375.048828 0)"/>
      <use xlink:href="#DejaVuSans-41" transform="translate(408.882812 0)"/>
      <use xlink:href="#DejaVuSans-20" transform="translate(477.291016 0)"/>
      <use xlink:href="#DejaVuSans-20" transform="translate(509.078125 0)"/>
      <use xlink:href="#DejaVuSans-28" transform="translate(540.865234 0)"/>
      <use xlink:href="#DejaVuSans-41" transform="translate(579.878906 0)"/>
      <use xlink:href="#DejaVuSans-55" transform="translate(648.287109 0)"/>
      <use xlink:href="#DejaVuSans-52" transform="translate(721.480469 0)"/>
      <use xlink:href="#DejaVuSans-4f" transform="translate(790.962891 0)"/>
      <use xlink:href="#DejaVuSans-43" transform="translate(869.673828 0)"/>
      <use xlink:href="#DejaVuSans-202f" transform="translate(939.498047 0)"/>
      <use xlink:href="#DejaVuSans-3d" transform="translate(959.46875 0)"/>
      <use xlink:href="#DejaVuSans-202f" transform="translate(1043.257812 0)"/>
      <use xlink:href="#DejaVuSans-30" transform="translate(1063.228516 0)"/>
      <use xlink:href="#DejaVuSans-2e" transform="translate(1126.851562 0)"/>
      <use xlink:href="#DejaVuSans-38" transform="translate(1158.638672 0)"/>
      <use xlink:href="#DejaVuSans-39" transform="translate(1222.261719 0)"/>
      <use xlink:href="#DejaVuSans-39" transform="translate(1285.884766 0)"/>
      <use xlink:href="#DejaVuSans-29" transform="translate(1349.507812 0)"/>
     </g>
    </g>
    <g id="line2d_38">
     <path d="M 132.101473 194.529129 
L 138.601473 194.529129 
L 145.101473 194.529129 
" style="fill: none; stroke-dasharray: 1.6,1.6; stroke-dashoffset: 0; stroke: #009e73; stroke-width: 1.6"/>
    </g>
    <g id="text_16">
     <!-- Method-B  (AUROC = 0.961) -->
     <g transform="translate(150.301473 196.804129) scale(0.065 -0.065)">
      <use xlink:href="#DejaVuSans-4d"/>
      <use xlink:href="#DejaVuSans-65" transform="translate(86.279297 0)"/>
      <use xlink:href="#DejaVuSans-74" transform="translate(147.802734 0)"/>
      <use xlink:href="#DejaVuSans-68" transform="translate(187.011719 0)"/>
      <use xlink:href="#DejaVuSans-6f" transform="translate(250.390625 0)"/>
      <use xlink:href="#DejaVuSans-64" transform="translate(311.572266 0)"/>
      <use xlink:href="#DejaVuSans-2d" transform="translate(375.048828 0)"/>
      <use xlink:href="#DejaVuSans-42" transform="translate(407.507812 0)"/>
      <use xlink:href="#DejaVuSans-20" transform="translate(476.111328 0)"/>
      <use xlink:href="#DejaVuSans-20" transform="translate(507.898438 0)"/>
      <use xlink:href="#DejaVuSans-28" transform="translate(539.685547 0)"/>
      <use xlink:href="#DejaVuSans-41" transform="translate(578.699219 0)"/>
      <use xlink:href="#DejaVuSans-55" transform="translate(647.107422 0)"/>
      <use xlink:href="#DejaVuSans-52" transform="translate(720.300781 0)"/>
      <use xlink:href="#DejaVuSans-4f" transform="translate(789.783203 0)"/>
      <use xlink:href="#DejaVuSans-43" transform="translate(868.494141 0)"/>
      <use xlink:href="#DejaVuSans-202f" transform="translate(938.318359 0)"/>
      <use xlink:href="#DejaVuSans-3d" transform="translate(958.289062 0)"/>
      <use xlink:href="#DejaVuSans-202f" transform="translate(1042.078125 0)"/>
      <use xlink:href="#DejaVuSans-30" transform="translate(1062.048828 0)"/>
      <use xlink:href="#DejaVuSans-2e" transform="translate(1125.671875 0)"/>
      <use xlink:href="#DejaVuSans-39" transform="translate(1157.458984 0)"/>
      <use xlink:href="#DejaVuSans-36" transform="translate(1221.082031 0)"/>
      <use xlink:href="#DejaVuSans-31" transform="translate(1284.705078 0)"/>
      <use xlink:href="#DejaVuSans-29" transform="translate(1348.328125 0)"/>
     </g>
    </g>
    <g id="line2d_39">
     <path d="M 132.101473 204.069911 
L 138.601473 204.069911 
L 145.101473 204.069911 
" style="fill: none; stroke: #cc79a7; stroke-width: 1.6; stroke-linecap: square"/>
    </g>
    <g id="text_17">
     <!-- OursModel  (AUROC = 0.989) -->
     <g transform="translate(150.301473 206.344911) scale(0.065 -0.065)">
      <use xlink:href="#DejaVuSans-4f"/>
      <use xlink:href="#DejaVuSans-75" transform="translate(78.710938 0)"/>
      <use xlink:href="#DejaVuSans-72" transform="translate(142.089844 0)"/>
      <use xlink:href="#DejaVuSans-73" transform="translate(183.203125 0)"/>
      <use xlink:href="#DejaVuSans-4d" transform="translate(235.302734 0)"/>
      <use xlink:href="#DejaVuSans-6f" transform="translate(321.582031 0)"/>
      <use xlink:href="#DejaVuSans-64" transform="translate(382.763672 0)"/>
      <use xlink:href="#DejaVuSans-65" transform="translate(446.240234 0)"/>
      <use xlink:href="#DejaVuSans-6c" transform="translate(507.763672 0)"/>
      <use xlink:href="#DejaVuSans-20" transform="translate(535.546875 0)"/>
      <use xlink:href="#DejaVuSans-20" transform="translate(567.333984 0)"/>
      <use xlink:href="#DejaVuSans-28" transform="translate(599.121094 0)"/>
      <use xlink:href="#DejaVuSans-41" transform="translate(638.134766 0)"/>
      <use xlink:href="#DejaVuSans-55" transform="translate(706.542969 0)"/>
      <use xlink:href="#DejaVuSans-52" transform="translate(779.736328 0)"/>
      <use xlink:href="#DejaVuSans-4f" transform="translate(849.21875 0)"/>
      <use xlink:href="#DejaVuSans-43" transform="translate(927.929688 0)"/>
      <use xlink:href="#DejaVuSans-202f" transform="translate(997.753906 0)"/>
      <use xlink:href="#DejaVuSans-3d" transform="translate(1017.724609 0)"/>
      <use xlink:href="#DejaVuSans-202f" transform="translate(1101.513672 0)"/>
      <use xlink:href="#DejaVuSans-30" transform="translate(1121.484375 0)"/>
      <use xlink:href="#DejaVuSans-2e" transform="translate(1185.107422 0)"/>
      <use xlink:href="#DejaVuSans-39" transform="translate(1216.894531 0)"/>
      <use xlink:href="#DejaVuSans-38" transform="translate(1280.517578 0)"/>
      <use xlink:href="#DejaVuSans-39" transform="translate(1344.140625 0)"/>
      <use xlink:href="#DejaVuSans-29" transform="translate(1407.763672 0)"/>
     </g>
    </g>
   </g>
  </g>
  <g id="axes_2">
   <g id="patch_8">
    <path d="M 300.422813 214.846708 
L 510.69327 214.846708 
L 510.69327 20.038594 
L 300.422813 20.038594 
z
" style="fill: #ffffff"/>
   </g>
   <g id="line2d_40">
    <path d="M 300.422813 136.923462 
L 510.69327 136.923462 
" clip-path="url(#p12a5881db3)" style="fill: none; stroke-dasharray: 2.96,1.28; stroke-dashoffset: 0; stroke: #aaaaaa; stroke-width: 0.8"/>
   </g>
   <g id="matplotlib.axis_3">
    <g id="xtick_6">
     <g id="line2d_41">
      <path d="M 300.422813 214.846708 
L 300.422813 20.038594 
" clip-path="url(#p12a5881db3)" style="fill: none; stroke: #cccccc; stroke-opacity: 0.5; stroke-width: 0.35; stroke-linecap: square"/>
     </g>
     <g id="line2d_42">
      <g>
       <use xlink:href="#mab1cefe860" x="300.422813" y="214.846708" style="stroke: #000000; stroke-width: 0.8"/>
      </g>
     </g>
     <g id="line2d_43">
      <g>
       <use xlink:href="#m87ee3f2e63" x="300.422813" y="20.038594" style="stroke: #000000; stroke-width: 0.8"/>
      </g>
     </g>
     <g id="text_18">
      <!-- 0.00 -->
      <g transform="translate(291.516563 224.425458) scale(0.08 -0.08)">
       <use xlink:href="#DejaVuSans-30"/>
       <use xlink:href="#DejaVuSans-2e" transform="translate(63.623047 0)"/>
       <use xlink:href="#DejaVuSans-30" transform="translate(95.410156 0)"/>
       <use xlink:href="#DejaVuSans-30" transform="translate(159.033203 0)"/>
      </g>
     </g>
    </g>
    <g id="xtick_7">
     <g id="line2d_44">
      <path d="M 352.990427 214.846708 
L 352.990427 20.038594 
" clip-path="url(#p12a5881db3)" style="fill: none; stroke: #cccccc; stroke-opacity: 0.5; stroke-width: 0.35; stroke-linecap: square"/>
     </g>
     <g id="line2d_45">
      <g>
       <use xlink:href="#mab1cefe860" x="352.990427" y="214.846708" style="stroke: #000000; stroke-width: 0.8"/>
      </g>
     </g>
     <g id="line2d_46">
      <g>
       <use xlink:href="#m87ee3f2e63" x="352.990427" y="20.038594" style="stroke: #000000; stroke-width: 0.8"/>
      </g>
     </g>
     <g id="text_19">
      <!-- 0.25 -->
      <g transform="translate(344.084177 224.425458) scale(0.08 -0.08)">
       <use xlink:href="#DejaVuSans-30"/>
       <use xlink:href="#DejaVuSans-2e" transform="translate(63.623047 0)"/>
       <use xlink:href="#DejaVuSans-32" transform="translate(95.410156 0)"/>
       <use xlink:href="#DejaVuSans-35" transform="translate(159.033203 0)"/>
      </g>
     </g>
    </g>
    <g id="xtick_8">
     <g id="line2d_47">
      <path d="M 405.558041 214.846708 
L 405.558041 20.038594 
" clip-path="url(#p12a5881db3)" style="fill: none; stroke: #cccccc; stroke-opacity: 0.5; stroke-width: 0.35; stroke-linecap: square"/>
     </g>
     <g id="line2d_48">
      <g>
       <use xlink:href="#mab1cefe860" x="405.558041" y="214.846708" style="stroke: #000000; stroke-width: 0.8"/>
      </g>
     </g>
     <g id="line2d_49">
      <g>
       <use xlink:href="#m87ee3f2e63" x="405.558041" y="20.038594" style="stroke: #000000; stroke-width: 0.8"/>
      </g>
     </g>
     <g id="text_20">
      <!-- 0.50 -->
      <g transform="translate(396.651791 224.425458) scale(0.08 -0.08)">
       <use xlink:href="#DejaVuSans-30"/>
       <use xlink:href="#DejaVuSans-2e" transform="translate(63.623047 0)"/>
       <use xlink:href="#DejaVuSans-35" transform="translate(95.410156 0)"/>
       <use xlink:href="#DejaVuSans-30" transform="translate(159.033203 0)"/>
      </g>
     </g>
    </g>
    <g id="xtick_9">
     <g id="line2d_50">
      <path d="M 458.125656 214.846708 
L 458.125656 20.038594 
" clip-path="url(#p12a5881db3)" style="fill: none; stroke: #cccccc; stroke-opacity: 0.5; stroke-width: 0.35; stroke-linecap: square"/>
     </g>
     <g id="line2d_51">
      <g>
       <use xlink:href="#mab1cefe860" x="458.125656" y="214.846708" style="stroke: #000000; stroke-width: 0.8"/>
      </g>
     </g>
     <g id="line2d_52">
      <g>
       <use xlink:href="#m87ee3f2e63" x="458.125656" y="20.038594" style="stroke: #000000; stroke-width: 0.8"/>
      </g>
     </g>
     <g id="text_21">
      <!-- 0.75 -->
      <g transform="translate(449.219406 224.425458) scale(0.08 -0.08)">
       <use xlink:href="#DejaVuSans-30"/>
       <use xlink:href="#DejaVuSans-2e" transform="translate(63.623047 0)"/>
       <use xlink:href="#DejaVuSans-37" transform="translate(95.410156 0)"/>
       <use xlink:href="#DejaVuSans-35" transform="translate(159.033203 0)"/>
      </g>
     </g>
    </g>
    <g id="xtick_10">
     <g id="line2d_53">
      <path d="M 510.69327 214.846708 
L 510.69327 20.038594 
" clip-path="url(#p12a5881db3)" style="fill: none; stroke: #cccccc; stroke-opacity: 0.5; stroke-width: 0.35; stroke-linecap: square"/>
     </g>
     <g id="line2d_54">
      <g>
       <use xlink:href="#mab1cefe860" x="510.69327" y="214.846708" style="stroke: #000000; stroke-width: 0.8"/>
      </g>
     </g>
     <g id="line2d_55">
      <g>
       <use xlink:href="#m87ee3f2e63" x="510.69327" y="20.038594" style="stroke: #000000; stroke-width: 0.8"/>
      </g>
     </g>
     <g id="text_22">
      <!-- 1.00 -->
      <g transform="translate(501.78702 224.425458) scale(0.08 -0.08)">
       <use xlink:href="#DejaVuSans-31"/>
       <use xlink:href="#DejaVuSans-2e" transform="translate(63.623047 0)"/>
       <use xlink:href="#DejaVuSans-30" transform="translate(95.410156 0)"/>
       <use xlink:href="#DejaVuSans-30" transform="translate(159.033203 0)"/>
      </g>
     </g>
    </g>
    <g id="text_23">
     <!-- Recall -->
     <g transform="translate(392.132573 236.927801) scale(0.09 -0.09)">
      <defs>
       <path id="DejaVuSans-63" d="M 3122 3366 
L 3122 2828 
Q 2878 2963 2633 3030 
Q 2388 3097 2138 3097 
Q 1578 3097 1268 2742 
Q 959 2388 959 1747 
Q 959 1106 1268 751 
Q 1578 397 2138 397 
Q 2388 397 2633 464 
Q 2878 531 3122 666 
L 3122 134 
Q 2881 22 2623 -34 
Q 2366 -91 2075 -91 
Q 1284 -91 818 406 
Q 353 903 353 1747 
Q 353 2603 823 3093 
Q 1294 3584 2113 3584 
Q 2378 3584 2631 3529 
Q 2884 3475 3122 3366 
z
" transform="scale(0.015625)"/>
      </defs>
      <use xlink:href="#DejaVuSans-52"/>
      <use xlink:href="#DejaVuSans-65" transform="translate(64.982422 0)"/>
      <use xlink:href="#DejaVuSans-63" transform="translate(126.505859 0)"/>
      <use xlink:href="#DejaVuSans-61" transform="translate(181.486328 0)"/>
      <use xlink:href="#DejaVuSans-6c" transform="translate(242.765625 0)"/>
      <use xlink:href="#DejaVuSans-6c" transform="translate(270.548828 0)"/>
     </g>
    </g>
   </g>
   <g id="matplotlib.axis_4">
    <g id="ytick_6">
     <g id="line2d_56">
      <path d="M 300.422813 214.846708 
L 510.69327 214.846708 
" clip-path="url(#p12a5881db3)" style="fill: none; stroke: #cccccc; stroke-opacity: 0.5; stroke-width: 0.35; stroke-linecap: square"/>
     </g>
     <g id="line2d_57">
      <g>
       <use xlink:href="#m09296edc8d" x="300.422813" y="214.846708" style="stroke: #000000; stroke-width: 0.8"/>
      </g>
     </g>
     <g id="line2d_58">
      <g>
       <use xlink:href="#m48690dd4c1" x="510.69327" y="214.846708" style="stroke: #000000; stroke-width: 0.8"/>
      </g>
     </g>
     <g id="text_24">
      <!-- 0.00 -->
      <g transform="translate(279.110313 217.886083) scale(0.08 -0.08)">
       <use xlink:href="#DejaVuSans-30"/>
       <use xlink:href="#DejaVuSans-2e" transform="translate(63.623047 0)"/>
       <use xlink:href="#DejaVuSans-30" transform="translate(95.410156 0)"/>
       <use xlink:href="#DejaVuSans-30" transform="translate(159.033203 0)"/>
      </g>
     </g>
    </g>
    <g id="ytick_7">
     <g id="line2d_59">
      <path d="M 300.422813 166.144679 
L 510.69327 166.144679 
" clip-path="url(#p12a5881db3)" style="fill: none; stroke: #cccccc; stroke-opacity: 0.5; stroke-width: 0.35; stroke-linecap: square"/>
     </g>
     <g id="line2d_60">
      <g>
       <use xlink:href="#m09296edc8d" x="300.422813" y="166.144679" style="stroke: #000000; stroke-width: 0.8"/>
      </g>
     </g>
     <g id="line2d_61">
      <g>
       <use xlink:href="#m48690dd4c1" x="510.69327" y="166.144679" style="stroke: #000000; stroke-width: 0.8"/>
      </g>
     </g>
     <g id="text_25">
      <!-- 0.25 -->
      <g transform="translate(279.110313 169.184054) scale(0.08 -0.08)">
       <use xlink:href="#DejaVuSans-30"/>
       <use xlink:href="#DejaVuSans-2e" transform="translate(63.623047 0)"/>
       <use xlink:href="#DejaVuSans-32" transform="translate(95.410156 0)"/>
       <use xlink:href="#DejaVuSans-35" transform="translate(159.033203 0)"/>
      </g>
     </g>
    </g>
    <g id="ytick_8">
     <g id="line2d_62">
      <path d="M 300.422813 117.442651 
L 510.69327 117.442651 
" clip-path="url(#p12a5881db3)" style="fill: none; stroke: #cccccc; stroke-opacity: 0.5; stroke-width: 0.35; stroke-linecap: square"/>
     </g>
     <g id="line2d_63">
      <g>
       <use xlink:href="#m09296edc8d" x="300.422813" y="117.442651" style="stroke: #000000; stroke-width: 0.8"/>
      </g>
     </g>
     <g id="line2d_64">
      <g>
       <use xlink:href="#m48690dd4c1" x="510.69327" y="117.442651" style="stroke: #000000; stroke-width: 0.8"/>
      </g>
     </g>
     <g id="text_26">
      <!-- 0.50 -->
      <g transform="translate(279.110313 120.482026) scale(0.08 -0.08)">
       <use xlink:href="#DejaVuSans-30"/>
       <use xlink:href="#DejaVuSans-2e" transform="translate(63.623047 0)"/>
       <use xlink:href="#DejaVuSans-35" transform="translate(95.410156 0)"/>
       <use xlink:href="#DejaVuSans-30" transform="translate(159.033203 0)"/>
      </g>
     </g>
    </g>
    <g id="ytick_9">
     <g id="line2d_65">
      <path d="M 300.422813 68.740622 
L 510.69327 68.740622 
" clip-path="url(#p12a5881db3)" style="fill: none; stroke: #cccccc; stroke-opacity: 0.5; stroke-width: 0.35; stroke-linecap: square"/>
     </g>
     <g id="line2d_66">
      <g>
       <use xlink:href="#m09296edc8d" x="300.422813" y="68.740622" style="stroke: #000000; stroke-width: 0.8"/>
      </g>
     </g>
     <g id="line2d_67">
      <g>
       <use xlink:href="#m48690dd4c1" x="510.69327" y="68.740622" style="stroke: #000000; stroke-width: 0.8"/>
      </g>
     </g>
     <g id="text_27">
      <!-- 0.75 -->
      <g transform="translate(279.110313 71.779997) scale(0.08 -0.08)">
       <use xlink:href="#DejaVuSans-30"/>
       <use xlink:href="#DejaVuSans-2e" transform="translate(63.623047 0)"/>
       <use xlink:href="#DejaVuSans-37" transform="translate(95.410156 0)"/>
       <use xlink:href="#DejaVuSans-35" transform="translate(159.033203 0)"/>
      </g>
     </g>
    </g>
    <g id="ytick_10">
     <g id="line2d_68">
      <path d="M 300.422813 20.038594 
L 510.69327 20.038594 
" clip-path="url(#p12a5881db3)" style="fill: none; stroke: #cccccc; stroke-opacity: 0.5; stroke-width: 0.35; stroke-linecap: square"/>
     </g>
     <g id="line2d_69">
      <g>
       <use xlink:href="#m09296edc8d" x="300.422813" y="20.038594" style="stroke: #000000; stroke-width: 0.8"/>
      </g>
     </g>
     <g id="line2d_70">
      <g>
       <use xlink:href="#m48690dd4c1" x="510.69327" y="20.038594" style="stroke: #000000; stroke-width: 0.8"/>
      </g>
     </g>
     <g id="text_28">
      <!-- 1.00 -->
      <g transform="translate(279.110313 23.077969) scale(0.08 -0.08)">
       <use xlink:href="#DejaVuSans-31"/>
       <use xlink:href="#DejaVuSans-2e" transform="translate(63.623047 0)"/>
       <use xlink:href="#DejaVuSans-30" transform="translate(95.410156 0)"/>
       <use xlink:href="#DejaVuSans-30" transform="translate(159.033203 0)"/>
      </g>
     </g>
    </g>
    <g id="text_29">
     <!-- Precision -->
     <g transform="translate(273.238594 137.518979) rotate(-90) scale(0.09 -0.09)">
      <defs>
       <path id="DejaVuSans-50" d="M 1259 4147 
L 1259 2394 
L 2053 2394 
Q 2494 2394 2734 2622 
Q 2975 2850 2975 3272 
Q 2975 3691 2734 3919 
Q 2494 4147 2053 4147 
L 1259 4147 
z
M 628 4666 
L 2053 4666 
Q 2838 4666 3239 4311 
Q 3641 3956 3641 3272 
Q 3641 2581 3239 2228 
Q 2838 1875 2053 1875 
L 1259 1875 
L 1259 0 
L 628 0 
L 628 4666 
z
" transform="scale(0.015625)"/>
      </defs>
      <use xlink:href="#DejaVuSans-50"/>
      <use xlink:href="#DejaVuSans-72" transform="translate(58.552734 0)"/>
      <use xlink:href="#DejaVuSans-65" transform="translate(97.416016 0)"/>
      <use xlink:href="#DejaVuSans-63" transform="translate(158.939453 0)"/>
      <use xlink:href="#DejaVuSans-69" transform="translate(213.919922 0)"/>
      <use xlink:href="#DejaVuSans-73" transform="translate(241.703125 0)"/>
      <use xlink:href="#DejaVuSans-69" transform="translate(293.802734 0)"/>
      <use xlink:href="#DejaVuSans-6f" transform="translate(321.585938 0)"/>
      <use xlink:href="#DejaVuSans-6e" transform="translate(382.767578 0)"/>
     </g>
    </g>
   </g>
   <g id="line2d_71">
    <path d="M 510.69327 136.923462 
L 510.69327 126.631713 
L 508.941016 127.035474 
L 508.941016 122.118045 
L 507.188762 122.528003 
L 507.188762 117.442651 
L 505.436509 117.857136 
L 505.436509 111.244211 
L 501.932001 112.080959 
L 501.932001 110.160104 
L 500.179747 110.58321 
L 500.179747 96.086681 
L 498.427493 96.495542 
L 498.427493 93.894417 
L 496.67524 94.30246 
L 496.67524 93.63277 
L 494.922986 94.043911 
L 494.922986 93.365243 
L 493.170732 93.779518 
L 493.170732 91.692153 
L 489.666224 92.525334 
L 489.666224 91.086259 
L 487.91397 91.506659 
L 486.161717 91.196048 
L 486.161717 90.451165 
L 482.657209 91.309855 
L 482.657209 89.784709 
L 480.904955 90.217914 
L 480.904955 89.438984 
L 479.152701 89.875465 
L 479.152701 85.817957 
L 477.400448 86.247887 
L 477.400448 83.675911 
L 475.648194 84.103007 
L 475.648194 83.219604 
L 473.89594 83.649406 
L 473.89594 81.839788 
L 472.143686 82.268963 
L 472.143686 81.341846 
L 468.639179 82.211396 
L 468.639179 80.302974 
L 466.886925 80.739673 
L 466.886925 78.76751 
L 463.382417 79.644061 
L 463.382417 78.6275 
L 459.877909 79.521987 
L 459.877909 71.882689 
L 452.868894 73.610825 
L 452.868894 71.216997 
L 447.612133 72.552085 
L 447.612133 70.033596 
L 445.859879 70.47998 
L 445.859879 67.855131 
L 444.107625 68.293815 
L 444.107625 64.146091 
L 440.603118 64.994312 
L 440.603118 63.539435 
L 437.09861 64.400837 
L 437.09861 62.896379 
L 431.841848 64.221877 
L 431.841848 61.050828 
L 426.585087 62.388184 
L 426.585087 59.000217 
L 424.832833 59.437988 
L 424.832833 55.865373 
L 416.071564 58.049933 
L 414.31931 58.519209 
L 414.31931 56.565115 
L 407.310295 58.487564 
L 405.558041 59.000217 
L 405.558041 56.894183 
L 400.30128 58.451461 
L 400.30128 56.217243 
L 398.549026 56.741572 
L 398.549026 54.416496 
L 395.044518 55.458251 
L 395.044518 53.006121 
L 391.540011 54.052709 
L 391.540011 51.459257 
L 389.787757 51.97435 
L 389.787757 46.453253 
L 382.778742 48.374319 
L 382.778742 45.291497 
L 379.274234 46.262763 
L 379.274234 42.957195 
L 374.017473 44.389608 
L 372.265219 44.907715 
L 372.265219 41.213389 
L 367.008457 42.6907 
L 367.008457 38.591747 
L 361.751696 40.018913 
L 356.494935 41.68394 
L 354.742681 42.302378 
L 354.742681 37.227545 
L 349.485919 38.890992 
L 347.733665 39.519405 
L 347.733665 33.473636 
L 342.476904 35.023833 
L 338.972396 36.272603 
L 335.467889 37.748422 
L 335.467889 29.315171 
L 331.963381 30.291652 
L 331.963381 20.038594 
L 300.422813 20.038594 
L 300.422813 20.038594 
" clip-path="url(#p12a5881db3)" style="fill: none; stroke-dasharray: 6.4,3.2; stroke-dashoffset: 0; stroke: #e69f00; stroke-width: 1.6"/>
   </g>
   <g id="line2d_72">
    <path d="M 510.69327 136.923462 
L 510.69327 121.711354 
L 508.941016 122.118045 
L 508.941016 121.370234 
L 507.188762 121.780483 
L 507.188762 118.665296 
L 505.436509 119.079694 
L 505.436509 114.879386 
L 503.684255 115.297187 
L 503.684255 114.856702 
L 501.932001 115.278116 
L 501.932001 102.832042 
L 500.179747 103.24809 
L 500.179747 102.68446 
L 498.427493 103.103982 
L 498.427493 102.533866 
L 496.67524 102.956919 
L 496.67524 102.380168 
L 494.922986 102.806808 
L 494.922986 97.326595 
L 493.170732 97.748934 
L 493.170732 95.797305 
L 491.418478 96.220538 
L 491.418478 94.880129 
L 489.666224 95.305365 
L 489.666224 83.351231 
L 487.91397 83.749423 
L 487.91397 82.919694 
L 486.161717 83.32021 
L 486.161717 81.623094 
L 484.409463 82.022994 
L 484.409463 77.565822 
L 482.657209 77.954519 
L 482.657209 74.151959 
L 480.904955 74.530374 
L 480.904955 71.523595 
L 479.152701 71.893991 
L 479.152701 68.740622 
L 475.648194 69.467518 
L 475.648194 68.374442 
L 472.143686 69.112393 
L 472.143686 65.696745 
L 470.391432 66.056258 
L 470.391432 62.456489 
L 468.639179 62.80135 
L 468.639179 56.358751 
L 466.886925 56.669179 
L 466.886925 55.30558 
L 458.125656 56.894183 
L 458.125656 53.995971 
L 451.11664 55.289586 
L 451.11664 53.755383 
L 445.859879 54.756871 
L 445.859879 53.155973 
L 442.355371 53.831838 
L 442.355371 50.477362 
L 437.09861 51.459257 
L 437.09861 47.868324 
L 435.346356 48.177544 
L 435.346356 46.304856 
L 431.841848 46.908678 
L 431.841848 44.955911 
L 430.089595 45.249056 
L 430.089595 43.230036 
L 419.576072 45.013993 
L 416.071564 45.67124 
L 416.071564 41.09893 
L 407.310295 42.625042 
L 407.310295 34.796784 
L 400.30128 35.748926 
L 400.30128 32.812896 
L 396.796772 33.245923 
L 396.796772 30.114875 
L 386.283249 31.277523 
L 384.530996 31.497895 
L 384.530996 27.830918 
L 379.274234 28.328301 
L 379.274234 24.273553 
L 367.008457 25.033674 
L 363.50395 25.303678 
L 363.50395 20.038594 
L 300.422813 20.038594 
L 300.422813 20.038594 
" clip-path="url(#p12a5881db3)" style="fill: none; stroke-dasharray: 3.2,1.6,3.2,1.6; stroke-dashoffset: 0; stroke: #56b4e9; stroke-width: 1.6"/>
   </g>
   <g id="line2d_73">
    <path d="M 510.69327 136.923462 
L 510.69327 107.612883 
L 508.941016 108.016452 
L 508.941016 102.85557 
L 507.188762 103.257594 
L 507.188762 95.741229 
L 505.436509 96.135513 
L 505.436509 94.885922 
L 503.684255 95.281939 
L 503.684255 87.175853 
L 501.932001 87.557315 
L 501.932001 77.4054 
L 500.179747 77.759516 
L 500.179747 74.288955 
L 498.427493 74.634498 
L 498.427493 66.10808 
L 496.67524 66.421478 
L 496.67524 59.000217 
L 494.922986 59.280516 
L 494.922986 57.009477 
L 493.170732 57.281321 
L 493.170732 47.433485 
L 489.666224 47.868324 
L 489.666224 45.175125 
L 487.91397 45.379487 
L 487.91397 42.578376 
L 484.409463 42.957195 
L 484.409463 40.018913 
L 480.904955 40.366397 
L 480.904955 38.835868 
L 479.152701 39.002215 
L 479.152701 35.833846 
L 473.89594 36.272603 
L 473.89594 32.903281 
L 470.391432 33.150678 
L 470.391432 31.386639 
L 456.373402 32.342264 
L 456.373402 28.417437 
L 445.859879 28.995289 
L 445.859879 26.834226 
L 433.594102 27.43637 
L 431.841848 25.098545 
L 421.328326 25.526146 
L 421.328326 22.821567 
L 410.814803 23.082471 
L 410.814803 20.038594 
L 300.422813 20.038594 
L 300.422813 20.038594 
" clip-path="url(#p12a5881db3)" style="fill: none; stroke-dasharray: 1.6,1.6; stroke-dashoffset: 0; stroke: #009e73; stroke-width: 1.6"/>
   </g>
   <g id="line2d_74">
    <path d="M 510.69327 136.923462 
L 510.69327 62.05603 
L 508.941016 62.332461 
L 508.941016 57.144901 
L 507.188762 57.399054 
L 507.188762 52.963909 
L 505.436509 53.197422 
L 505.436509 52.042784 
L 503.684255 52.27303 
L 503.684255 44.938879 
L 501.932001 45.127517 
L 501.932001 42.516453 
L 500.179747 42.6907 
L 500.179747 41.345731 
L 498.427493 41.513504 
L 498.427493 32.918469 
L 491.418478 33.358807 
L 491.418478 31.794256 
L 486.161717 32.106353 
L 486.161717 28.813734 
L 484.409463 28.893508 
L 484.409463 27.187515 
L 480.904955 27.32114 
L 480.904955 21.911749 
L 445.859879 22.357738 
L 445.859879 20.038594 
L 300.422813 20.038594 
L 300.422813 20.038594 
" clip-path="url(#p12a5881db3)" style="fill: none; stroke: #cc79a7; stroke-width: 1.6; stroke-linecap: square"/>
   </g>
   <g id="patch_9">
    <path d="M 300.422813 214.846708 
L 300.422813 20.038594 
" style="fill: none; stroke: #000000; stroke-width: 0.7; stroke-linejoin: miter; stroke-linecap: square"/>
   </g>
   <g id="patch_10">
    <path d="M 510.69327 214.846708 
L 510.69327 20.038594 
" style="fill: none; stroke: #000000; stroke-width: 0.7; stroke-linejoin: miter; stroke-linecap: square"/>
   </g>
   <g id="patch_11">
    <path d="M 300.422813 214.846708 
L 510.69327 214.846708 
" style="fill: none; stroke: #000000; stroke-width: 0.7; stroke-linejoin: miter; stroke-linecap: square"/>
   </g>
   <g id="patch_12">
    <path d="M 300.422813 20.038594 
L 510.69327 20.038594 
" style="fill: none; stroke: #000000; stroke-width: 0.7; stroke-linejoin: miter; stroke-linecap: square"/>
   </g>
   <g id="text_30">
    <!-- Precision–Recall curve -->
    <g transform="translate(349.062651 14.038594) scale(0.09 -0.09)">
     <defs>
      <path id="DejaVuSans-Bold-50" d="M 588 4666 
L 2584 4666 
Q 3475 4666 3951 4270 
Q 4428 3875 4428 3144 
Q 4428 2409 3951 2014 
Q 3475 1619 2584 1619 
L 1791 1619 
L 1791 0 
L 588 0 
L 588 4666 
z
M 1791 3794 
L 1791 2491 
L 2456 2491 
Q 2806 2491 2997 2661 
Q 3188 2831 3188 3144 
Q 3188 3456 2997 3625 
Q 2806 3794 2456 3794 
L 1791 3794 
z
" transform="scale(0.015625)"/>
      <path id="DejaVuSans-Bold-69" d="M 538 3500 
L 1656 3500 
L 1656 0 
L 538 0 
L 538 3500 
z
M 538 4863 
L 1656 4863 
L 1656 3950 
L 538 3950 
L 538 4863 
z
" transform="scale(0.015625)"/>
      <path id="DejaVuSans-Bold-73" d="M 3272 3391 
L 3272 2541 
Q 2913 2691 2578 2766 
Q 2244 2841 1947 2841 
Q 1628 2841 1473 2761 
Q 1319 2681 1319 2516 
Q 1319 2381 1436 2309 
Q 1553 2238 1856 2203 
L 2053 2175 
Q 2913 2066 3209 1816 
Q 3506 1566 3506 1031 
Q 3506 472 3093 190 
Q 2681 -91 1863 -91 
Q 1516 -91 1145 -36 
Q 775 19 384 128 
L 384 978 
Q 719 816 1070 734 
Q 1422 653 1784 653 
Q 2113 653 2278 743 
Q 2444 834 2444 1013 
Q 2444 1163 2330 1236 
Q 2216 1309 1875 1350 
L 1678 1375 
Q 931 1469 631 1722 
Q 331 1975 331 2491 
Q 331 3047 712 3315 
Q 1094 3584 1881 3584 
Q 2191 3584 2531 3537 
Q 2872 3491 3272 3391 
z
" transform="scale(0.015625)"/>
      <path id="DejaVuSans-Bold-6f" d="M 2203 2784 
Q 1831 2784 1636 2517 
Q 1441 2250 1441 1747 
Q 1441 1244 1636 976 
Q 1831 709 2203 709 
Q 2569 709 2762 976 
Q 2956 1244 2956 1747 
Q 2956 2250 2762 2517 
Q 2569 2784 2203 2784 
z
M 2203 3584 
Q 3106 3584 3614 3096 
Q 4122 2609 4122 1747 
Q 4122 884 3614 396 
Q 3106 -91 2203 -91 
Q 1297 -91 786 396 
Q 275 884 275 1747 
Q 275 2609 786 3096 
Q 1297 3584 2203 3584 
z
" transform="scale(0.015625)"/>
      <path id="DejaVuSans-Bold-6e" d="M 4056 2131 
L 4056 0 
L 2931 0 
L 2931 347 
L 2931 1631 
Q 2931 2084 2911 2256 
Q 2891 2428 2841 2509 
Q 2775 2619 2662 2680 
Q 2550 2741 2406 2741 
Q 2056 2741 1856 2470 
Q 1656 2200 1656 1722 
L 1656 0 
L 538 0 
L 538 3500 
L 1656 3500 
L 1656 2988 
Q 1909 3294 2193 3439 
Q 2478 3584 2822 3584 
Q 3428 3584 3742 3212 
Q 4056 2841 4056 2131 
z
" transform="scale(0.015625)"/>
      <path id="DejaVuSans-Bold-2013" d="M 344 2156 
L 2856 2156 
L 2856 1350 
L 344 1350 
L 344 2156 
z
" transform="scale(0.015625)"/>
      <path id="DejaVuSans-Bold-61" d="M 2106 1575 
Q 1756 1575 1579 1456 
Q 1403 1338 1403 1106 
Q 1403 894 1545 773 
Q 1688 653 1941 653 
Q 2256 653 2472 879 
Q 2688 1106 2688 1447 
L 2688 1575 
L 2106 1575 
z
M 3816 1997 
L 3816 0 
L 2688 0 
L 2688 519 
Q 2463 200 2181 54 
Q 1900 -91 1497 -91 
Q 953 -91 614 226 
Q 275 544 275 1050 
Q 275 1666 698 1953 
Q 1122 2241 2028 2241 
L 2688 2241 
L 2688 2328 
Q 2688 2594 2478 2717 
Q 2269 2841 1825 2841 
Q 1466 2841 1156 2769 
Q 847 2697 581 2553 
L 581 3406 
Q 941 3494 1303 3539 
Q 1666 3584 2028 3584 
Q 2975 3584 3395 3211 
Q 3816 2838 3816 1997 
z
" transform="scale(0.015625)"/>
      <path id="DejaVuSans-Bold-6c" d="M 538 4863 
L 1656 4863 
L 1656 0 
L 538 0 
L 538 4863 
z
" transform="scale(0.015625)"/>
     </defs>
     <use xlink:href="#DejaVuSans-Bold-50"/>
     <use xlink:href="#DejaVuSans-Bold-72" transform="translate(73.291016 0)"/>
     <use xlink:href="#DejaVuSans-Bold-65" transform="translate(122.607422 0)"/>
     <use xlink:href="#DejaVuSans-Bold-63" transform="translate(190.429688 0)"/>
     <use xlink:href="#DejaVuSans-Bold-69" transform="translate(249.707031 0)"/>
     <use xlink:href="#DejaVuSans-Bold-73" transform="translate(283.984375 0)"/>
     <use xlink:href="#DejaVuSans-Bold-69" transform="translate(343.505859 0)"/>
     <use xlink:href="#DejaVuSans-Bold-6f" transform="translate(377.783203 0)"/>
     <use xlink:href="#DejaVuSans-Bold-6e" transform="translate(446.484375 0)"/>
     <use xlink:href="#DejaVuSans-Bold-2013" transform="translate(517.675781 0)"/>
     <use xlink:href="#DejaVuSans-Bold-52" transform="translate(567.675781 0)"/>
     <use xlink:href="#DejaVuSans-Bold-65" transform="translate(644.677734 0)"/>
     <use xlink:href="#DejaVuSans-Bold-63" transform="translate(712.5 0)"/>
     <use xlink:href="#DejaVuSans-Bold-61" transform="translate(771.777344 0)"/>
     <use xlink:href="#DejaVuSans-Bold-6c" transform="translate(839.257812 0)"/>
     <use xlink:href="#DejaVuSans-Bold-6c" transform="translate(873.535156 0)"/>
     <use xlink:href="#DejaVuSans-Bold-20" transform="translate(907.8125 0)"/>
     <use xlink:href="#DejaVuSans-Bold-63" transform="translate(942.626953 0)"/>
     <use xlink:href="#DejaVuSans-Bold-75" transform="translate(1001.904297 0)"/>
     <use xlink:href="#DejaVuSans-Bold-72" transform="translate(1073.095703 0)"/>
     <use xlink:href="#DejaVuSans-Bold-76" transform="translate(1122.412109 0)"/>
     <use xlink:href="#DejaVuSans-Bold-65" transform="translate(1187.597656 0)"/>
    </g>
   </g>
   <g id="legend_2">
    <g id="patch_13">
     <path d="M 403.711395 75.5425 
L 506.14327 75.5425 
Q 507.44327 75.5425 507.44327 74.2425 
L 507.44327 24.588594 
Q 507.44327 23.288594 506.14327 23.288594 
L 403.711395 23.288594 
Q 402.411395 23.288594 402.411395 24.588594 
L 402.411395 74.2425 
Q 402.411395 75.5425 403.711395 75.5425 
z
" style="fill: #ffffff; opacity: 0.85; stroke: #bbbbbb; stroke-linejoin: miter"/>
    </g>
    <g id="line2d_75">
     <path d="M 406.311395 29.852578 
L 412.811395 29.852578 
L 419.311395 29.852578 
" style="fill: none; stroke-dasharray: 2.96,1.28; stroke-dashoffset: 0; stroke: #aaaaaa; stroke-width: 0.8"/>
    </g>
    <g id="text_31">
     <!-- Chance  (prev = 0.40) -->
     <g transform="translate(424.511395 32.127578) scale(0.065 -0.065)">
      <defs>
       <path id="DejaVuSans-34" d="M 2419 4116 
L 825 1625 
L 2419 1625 
L 2419 4116 
z
M 2253 4666 
L 3047 4666 
L 3047 1625 
L 3713 1625 
L 3713 1100 
L 3047 1100 
L 3047 0 
L 2419 0 
L 2419 1100 
L 313 1100 
L 313 1709 
L 2253 4666 
z
" transform="scale(0.015625)"/>
      </defs>
      <use xlink:href="#DejaVuSans-43"/>
      <use xlink:href="#DejaVuSans-68" transform="translate(69.824219 0)"/>
      <use xlink:href="#DejaVuSans-61" transform="translate(133.203125 0)"/>
      <use xlink:href="#DejaVuSans-6e" transform="translate(194.482422 0)"/>
      <use xlink:href="#DejaVuSans-63" transform="translate(257.861328 0)"/>
      <use xlink:href="#DejaVuSans-65" transform="translate(312.841797 0)"/>
      <use xlink:href="#DejaVuSans-20" transform="translate(374.365234 0)"/>
      <use xlink:href="#DejaVuSans-20" transform="translate(406.152344 0)"/>
      <use xlink:href="#DejaVuSans-28" transform="translate(437.939453 0)"/>
      <use xlink:href="#DejaVuSans-70" transform="translate(476.953125 0)"/>
      <use xlink:href="#DejaVuSans-72" transform="translate(540.429688 0)"/>
      <use xlink:href="#DejaVuSans-65" transform="translate(579.292969 0)"/>
      <use xlink:href="#DejaVuSans-76" transform="translate(640.816406 0)"/>
      <use xlink:href="#DejaVuSans-202f" transform="translate(699.996094 0)"/>
      <use xlink:href="#DejaVuSans-3d" transform="translate(719.966797 0)"/>
      <use xlink:href="#DejaVuSans-202f" transform="translate(803.755859 0)"/>
      <use xlink:href="#DejaVuSans-30" transform="translate(823.726562 0)"/>
      <use xlink:href="#DejaVuSans-2e" transform="translate(887.349609 0)"/>
      <use xlink:href="#DejaVuSans-34" transform="translate(919.136719 0)"/>
      <use xlink:href="#DejaVuSans-30" transform="translate(982.759766 0)"/>
      <use xlink:href="#DejaVuSans-29" transform="translate(1046.382812 0)"/>
     </g>
    </g>
    <g id="line2d_76">
     <path d="M 406.311395 39.393359 
L 412.811395 39.393359 
L 419.311395 39.393359 
" style="fill: none; stroke-dasharray: 6.4,3.2; stroke-dashoffset: 0; stroke: #e69f00; stroke-width: 1.6"/>
    </g>
    <g id="text_32">
     <!-- Baseline  (AP = 0.811) -->
     <g transform="translate(424.511395 41.668359) scale(0.065 -0.065)">
      <use xlink:href="#DejaVuSans-42"/>
      <use xlink:href="#DejaVuSans-61" transform="translate(68.603516 0)"/>
      <use xlink:href="#DejaVuSans-73" transform="translate(129.882812 0)"/>
      <use xlink:href="#DejaVuSans-65" transform="translate(181.982422 0)"/>
      <use xlink:href="#DejaVuSans-6c" transform="translate(243.505859 0)"/>
      <use xlink:href="#DejaVuSans-69" transform="translate(271.289062 0)"/>
      <use xlink:href="#DejaVuSans-6e" transform="translate(299.072266 0)"/>
      <use xlink:href="#DejaVuSans-65" transform="translate(362.451172 0)"/>
      <use xlink:href="#DejaVuSans-20" transform="translate(423.974609 0)"/>
      <use xlink:href="#DejaVuSans-20" transform="translate(455.761719 0)"/>
      <use xlink:href="#DejaVuSans-28" transform="translate(487.548828 0)"/>
      <use xlink:href="#DejaVuSans-41" transform="translate(526.5625 0)"/>
      <use xlink:href="#DejaVuSans-50" transform="translate(594.970703 0)"/>
      <use xlink:href="#DejaVuSans-202f" transform="translate(655.273438 0)"/>
      <use xlink:href="#DejaVuSans-3d" transform="translate(675.244141 0)"/>
      <use xlink:href="#DejaVuSans-202f" transform="translate(759.033203 0)"/>
      <use xlink:href="#DejaVuSans-30" transform="translate(779.003906 0)"/>
      <use xlink:href="#DejaVuSans-2e" transform="translate(842.626953 0)"/>
      <use xlink:href="#DejaVuSans-38" transform="translate(874.414062 0)"/>
      <use xlink:href="#DejaVuSans-31" transform="translate(938.037109 0)"/>
      <use xlink:href="#DejaVuSans-31" transform="translate(1001.660156 0)"/>
      <use xlink:href="#DejaVuSans-29" transform="translate(1065.283203 0)"/>
     </g>
    </g>
    <g id="line2d_77">
     <path d="M 406.311395 48.934141 
L 412.811395 48.934141 
L 419.311395 48.934141 
" style="fill: none; stroke-dasharray: 3.2,1.6,3.2,1.6; stroke-dashoffset: 0; stroke: #56b4e9; stroke-width: 1.6"/>
    </g>
    <g id="text_33">
     <!-- Method-A  (AP = 0.875) -->
     <g transform="translate(424.511395 51.209141) scale(0.065 -0.065)">
      <use xlink:href="#DejaVuSans-4d"/>
      <use xlink:href="#DejaVuSans-65" transform="translate(86.279297 0)"/>
      <use xlink:href="#DejaVuSans-74" transform="translate(147.802734 0)"/>
      <use xlink:href="#DejaVuSans-68" transform="translate(187.011719 0)"/>
      <use xlink:href="#DejaVuSans-6f" transform="translate(250.390625 0)"/>
      <use xlink:href="#DejaVuSans-64" transform="translate(311.572266 0)"/>
      <use xlink:href="#DejaVuSans-2d" transform="translate(375.048828 0)"/>
      <use xlink:href="#DejaVuSans-41" transform="translate(408.882812 0)"/>
      <use xlink:href="#DejaVuSans-20" transform="translate(477.291016 0)"/>
      <use xlink:href="#DejaVuSans-20" transform="translate(509.078125 0)"/>
      <use xlink:href="#DejaVuSans-28" transform="translate(540.865234 0)"/>
      <use xlink:href="#DejaVuSans-41" transform="translate(579.878906 0)"/>
      <use xlink:href="#DejaVuSans-50" transform="translate(648.287109 0)"/>
      <use xlink:href="#DejaVuSans-202f" transform="translate(708.589844 0)"/>
      <use xlink:href="#DejaVuSans-3d" transform="translate(728.560547 0)"/>
      <use xlink:href="#DejaVuSans-202f" transform="translate(812.349609 0)"/>
      <use xlink:href="#DejaVuSans-30" transform="translate(832.320312 0)"/>
      <use xlink:href="#DejaVuSans-2e" transform="translate(895.943359 0)"/>
      <use xlink:href="#DejaVuSans-38" transform="translate(927.730469 0)"/>
      <use xlink:href="#DejaVuSans-37" transform="translate(991.353516 0)"/>
      <use xlink:href="#DejaVuSans-35" transform="translate(1054.976562 0)"/>
      <use xlink:href="#DejaVuSans-29" transform="translate(1118.599609 0)"/>
     </g>
    </g>
    <g id="line2d_78">
     <path d="M 406.311395 58.474922 
L 412.811395 58.474922 
L 419.311395 58.474922 
" style="fill: none; stroke-dasharray: 1.6,1.6; stroke-dashoffset: 0; stroke: #009e73; stroke-width: 1.6"/>
    </g>
    <g id="text_34">
     <!-- Method-B  (AP = 0.952) -->
     <g transform="translate(424.511395 60.749922) scale(0.065 -0.065)">
      <use xlink:href="#DejaVuSans-4d"/>
      <use xlink:href="#DejaVuSans-65" transform="translate(86.279297 0)"/>
      <use xlink:href="#DejaVuSans-74" transform="translate(147.802734 0)"/>
      <use xlink:href="#DejaVuSans-68" transform="translate(187.011719 0)"/>
      <use xlink:href="#DejaVuSans-6f" transform="translate(250.390625 0)"/>
      <use xlink:href="#DejaVuSans-64" transform="translate(311.572266 0)"/>
      <use xlink:href="#DejaVuSans-2d" transform="translate(375.048828 0)"/>
      <use xlink:href="#DejaVuSans-42" transform="translate(407.507812 0)"/>
      <use xlink:href="#DejaVuSans-20" transform="translate(476.111328 0)"/>
      <use xlink:href="#DejaVuSans-20" transform="translate(507.898438 0)"/>
      <use xlink:href="#DejaVuSans-28" transform="translate(539.685547 0)"/>
      <use xlink:href="#DejaVuSans-41" transform="translate(578.699219 0)"/>
      <use xlink:href="#DejaVuSans-50" transform="translate(647.107422 0)"/>
      <use xlink:href="#DejaVuSans-202f" transform="translate(707.410156 0)"/>
      <use xlink:href="#DejaVuSans-3d" transform="translate(727.380859 0)"/>
      <use xlink:href="#DejaVuSans-202f" transform="translate(811.169922 0)"/>
      <use xlink:href="#DejaVuSans-30" transform="translate(831.140625 0)"/>
      <use xlink:href="#DejaVuSans-2e" transform="translate(894.763672 0)"/>
      <use xlink:href="#DejaVuSans-39" transform="translate(926.550781 0)"/>
      <use xlink:href="#DejaVuSans-35" transform="translate(990.173828 0)"/>
      <use xlink:href="#DejaVuSans-32" transform="translate(1053.796875 0)"/>
      <use xlink:href="#DejaVuSans-29" transform="translate(1117.419922 0)"/>
     </g>
    </g>
    <g id="line2d_79">
     <path d="M 406.311395 68.015703 
L 412.811395 68.015703 
L 419.311395 68.015703 
" style="fill: none; stroke: #cc79a7; stroke-width: 1.6; stroke-linecap: square"/>
    </g>
    <g id="text_35">
     <!-- OursModel  (AP = 0.984) -->
     <g transform="translate(424.511395 70.290703) scale(0.065 -0.065)">
      <use xlink:href="#DejaVuSans-4f"/>
      <use xlink:href="#DejaVuSans-75" transform="translate(78.710938 0)"/>
      <use xlink:href="#DejaVuSans-72" transform="translate(142.089844 0)"/>
      <use xlink:href="#DejaVuSans-73" transform="translate(183.203125 0)"/>
      <use xlink:href="#DejaVuSans-4d" transform="translate(235.302734 0)"/>
      <use xlink:href="#DejaVuSans-6f" transform="translate(321.582031 0)"/>
      <use xlink:href="#DejaVuSans-64" transform="translate(382.763672 0)"/>
      <use xlink:href="#DejaVuSans-65" transform="translate(446.240234 0)"/>
      <use xlink:href="#DejaVuSans-6c" transform="translate(507.763672 0)"/>
      <use xlink:href="#DejaVuSans-20" transform="translate(535.546875 0)"/>
      <use xlink:href="#DejaVuSans-20" transform="translate(567.333984 0)"/>
      <use xlink:href="#DejaVuSans-28" transform="translate(599.121094 0)"/>
      <use xlink:href="#DejaVuSans-41" transform="translate(638.134766 0)"/>
      <use xlink:href="#DejaVuSans-50" transform="translate(706.542969 0)"/>
      <use xlink:href="#DejaVuSans-202f" transform="translate(766.845703 0)"/>
      <use xlink:href="#DejaVuSans-3d" transform="translate(786.816406 0)"/>
      <use xlink:href="#DejaVuSans-202f" transform="translate(870.605469 0)"/>
      <use xlink:href="#DejaVuSans-30" transform="translate(890.576172 0)"/>
      <use xlink:href="#DejaVuSans-2e" transform="translate(954.199219 0)"/>
      <use xlink:href="#DejaVuSans-39" transform="translate(985.986328 0)"/>
      <use xlink:href="#DejaVuSans-38" transform="translate(1049.609375 0)"/>
      <use xlink:href="#DejaVuSans-34" transform="translate(1113.232422 0)"/>
      <use xlink:href="#DejaVuSans-29" transform="translate(1176.855469 0)"/>
     </g>
    </g>
   </g>
  </g>
 </g>
 <defs>
  <clipPath id="p32814267a2">
   <rect x="41.222813" y="20.038594" width="210.270458" height="194.808114"/>
  </clipPath>
  <clipPath id="p12a5881db3">
   <rect x="300.422813" y="20.038594" width="210.270458" height="194.808114"/>
  </clipPath>
 </defs>
</svg>
