<?xml version="1.0" encoding="utf-8" standalone="no"?>
<!DOCTYPE svg PUBLIC "-//W3C//DTD SVG 1.1//EN"
  "http://www.w3.org/Graphics/SVG/1.1/DTD/svg11.dtd">
<svg xmlns:xlink="http://www.w3.org/1999/xlink" width="512.4pt" height="492.409103pt" viewBox="0 0 512.4 492.409103" xmlns="http://www.w3.org/2000/svg" version="1.1">
 <metadata>
  <rdf:RDF xmlns:dc="http://purl.org/dc/elements/1.1/" xmlns:cc="http://creativecommons.org/ns#" xmlns:rdf="http://www.w3.org/1999/02/22-rdf-syntax-ns#">
   <cc:Work>
    <dc:type rdf:resource="http://purl.org/dc/dcmitype/StillImage"/>
    <dc:date>2026-05-25T00:33:16.090284</dc:date>
    <dc:format>image/svg+xml</dc:format>
    <dc:creator>
     <cc:Agent>
      <dc:title>Matplotlib v3.10.9, https://matplotlib.org/</dc:title>
     </cc:Agent>
    </dc:creator>
   </cc:Work>
  </rdf:RDF>
 </metadata>
 <defs>
  <style type="text/css">*{stroke-linejoin: round; stroke-linecap: butt}</style>
 </defs>
 <g id="figure_1">
  <g id="patch_1">
   <path d="M 0 492.409103 
L 512.4 492.409103 
L 512.4 0 
L 0 0 
z
" style="fill: #ffffff"/>
  </g>
  <g id="axes_1">
   <g id="LineCollection_1">
    <path d="M 198.011035 48.680129 
L 292.930041 214.525286 
" clip-path="url(#pf9632978ce)" style="fill: none; stroke: #555555; stroke-opacity: 0.25; stroke-width: 0.8"/>
    <path d="M 198.011035 48.680129 
L 124.829799 316.174595 
" clip-path="url(#pf9632978ce)" style="fill: none; stroke: #555555; stroke-opacity: 0.25; stroke-width: 0.8"/>
    <path d="M 198.011035 48.680129 
L 171.336686 254.871144 
" clip-path="url(#pf9632978ce)" style="fill: none; stroke: #555555; stroke-opacity: 0.25; stroke-width: 0.8"/>
    <path d="M 198.011035 48.680129 
L 50.414876 274.562465 
" clip-path="url(#pf9632978ce)" style="fill: none; stroke: #555555; stroke-opacity: 0.25; stroke-width: 0.8"/>
    <path d="M 292.930041 214.525286 
L 124.829799 316.174595 
" clip-path="url(#pf9632978ce)" style="fill: none; stroke: #555555; stroke-opacity: 0.25; stroke-width: 0.8"/>
    <path d="M 292.930041 214.525286 
L 63.035175 149.984556 
" clip-path="url(#pf9632978ce)" style="fill: none; stroke: #555555; stroke-opacity: 0.25; stroke-width: 0.8"/>
    <path d="M 292.930041 214.525286 
L 50.414876 274.562465 
" clip-path="url(#pf9632978ce)" style="fill: none; stroke: #555555; stroke-opacity: 0.25; stroke-width: 0.8"/>
    <path d="M 124.829799 316.174595 
L 63.035175 149.984556 
" clip-path="url(#pf9632978ce)" style="fill: none; stroke: #555555; stroke-opacity: 0.25; stroke-width: 0.8"/>
    <path d="M 124.829799 316.174595 
L 323.031826 68.878075 
" clip-path="url(#pf9632978ce)" style="fill: none; stroke: #555555; stroke-opacity: 0.25; stroke-width: 0.8"/>
    <path d="M 124.829799 316.174595 
L 248.1896 71.418898 
" clip-path="url(#pf9632978ce)" style="fill: none; stroke: #555555; stroke-opacity: 0.25; stroke-width: 0.8"/>
    <path d="M 63.035175 149.984556 
L 323.031826 68.878075 
" clip-path="url(#pf9632978ce)" style="fill: none; stroke: #555555; stroke-opacity: 0.25; stroke-width: 0.8"/>
    <path d="M 63.035175 149.984556 
L 160.397708 68.707829 
" clip-path="url(#pf9632978ce)" style="fill: none; stroke: #555555; stroke-opacity: 0.25; stroke-width: 0.8"/>
    <path d="M 323.031826 68.878075 
L 160.397708 68.707829 
" clip-path="url(#pf9632978ce)" style="fill: none; stroke: #555555; stroke-opacity: 0.25; stroke-width: 0.8"/>
    <path d="M 323.031826 68.878075 
L 422.553621 264.452302 
" clip-path="url(#pf9632978ce)" style="fill: none; stroke: #555555; stroke-opacity: 0.25; stroke-width: 0.8"/>
    <path d="M 160.397708 68.707829 
L 422.553621 264.452302 
" clip-path="url(#pf9632978ce)" style="fill: none; stroke: #555555; stroke-opacity: 0.25; stroke-width: 0.8"/>
    <path d="M 160.397708 68.707829 
L 181.885216 432.292528 
" clip-path="url(#pf9632978ce)" style="fill: none; stroke: #555555; stroke-opacity: 0.25; stroke-width: 0.8"/>
    <path d="M 160.397708 68.707829 
L 82.182058 101.108795 
" clip-path="url(#pf9632978ce)" style="fill: none; stroke: #555555; stroke-opacity: 0.25; stroke-width: 0.8"/>
    <path d="M 160.397708 68.707829 
L 248.1896 71.418898 
" clip-path="url(#pf9632978ce)" style="fill: none; stroke: #555555; stroke-opacity: 0.25; stroke-width: 0.8"/>
    <path d="M 422.553621 264.452302 
L 181.885216 432.292528 
" clip-path="url(#pf9632978ce)" style="fill: none; stroke: #555555; stroke-opacity: 0.25; stroke-width: 0.8"/>
    <path d="M 422.553621 264.452302 
L 238.000351 286.243838 
" clip-path="url(#pf9632978ce)" style="fill: none; stroke: #555555; stroke-opacity: 0.25; stroke-width: 0.8"/>
    <path d="M 181.885216 432.292528 
L 238.000351 286.243838 
" clip-path="url(#pf9632978ce)" style="fill: none; stroke: #555555; stroke-opacity: 0.25; stroke-width: 0.8"/>
    <path d="M 181.885216 432.292528 
L 332.682438 415.653903 
" clip-path="url(#pf9632978ce)" style="fill: none; stroke: #555555; stroke-opacity: 0.25; stroke-width: 0.8"/>
    <path d="M 238.000351 286.243838 
L 332.682438 415.653903 
" clip-path="url(#pf9632978ce)" style="fill: none; stroke: #555555; stroke-opacity: 0.25; stroke-width: 0.8"/>
    <path d="M 238.000351 286.243838 
L 385.625238 402.075195 
" clip-path="url(#pf9632978ce)" style="fill: none; stroke: #555555; stroke-opacity: 0.25; stroke-width: 0.8"/>
    <path d="M 332.682438 415.653903 
L 385.625238 402.075195 
" clip-path="url(#pf9632978ce)" style="fill: none; stroke: #555555; stroke-opacity: 0.25; stroke-width: 0.8"/>
    <path d="M 332.682438 415.653903 
L 164.744 368.837513 
" clip-path="url(#pf9632978ce)" style="fill: none; stroke: #555555; stroke-opacity: 0.25; stroke-width: 0.8"/>
    <path d="M 385.625238 402.075195 
L 164.744 368.837513 
" clip-path="url(#pf9632978ce)" style="fill: none; stroke: #555555; stroke-opacity: 0.25; stroke-width: 0.8"/>
    <path d="M 385.625238 402.075195 
L 289.340275 179.370163 
" clip-path="url(#pf9632978ce)" style="fill: none; stroke: #555555; stroke-opacity: 0.25; stroke-width: 0.8"/>
    <path d="M 385.625238 402.075195 
L 262.688894 385.978014 
" clip-path="url(#pf9632978ce)" style="fill: none; stroke: #555555; stroke-opacity: 0.25; stroke-width: 0.8"/>
    <path d="M 164.744 368.837513 
L 289.340275 179.370163 
" clip-path="url(#pf9632978ce)" style="fill: none; stroke: #555555; stroke-opacity: 0.25; stroke-width: 0.8"/>
    <path d="M 164.744 368.837513 
L 121.234237 247.629956 
" clip-path="url(#pf9632978ce)" style="fill: none; stroke: #555555; stroke-opacity: 0.25; stroke-width: 0.8"/>
    <path d="M 164.744 368.837513 
L 214.905159 198.713142 
" clip-path="url(#pf9632978ce)" style="fill: none; stroke: #555555; stroke-opacity: 0.25; stroke-width: 0.8"/>
    <path d="M 289.340275 179.370163 
L 121.234237 247.629956 
" clip-path="url(#pf9632978ce)" style="fill: none; stroke: #555555; stroke-opacity: 0.25; stroke-width: 0.8"/>
    <path d="M 289.340275 179.370163 
L 291.390008 443.728974 
" clip-path="url(#pf9632978ce)" style="fill: none; stroke: #555555; stroke-opacity: 0.25; stroke-width: 0.8"/>
    <path d="M 121.234237 247.629956 
L 291.390008 443.728974 
" clip-path="url(#pf9632978ce)" style="fill: none; stroke: #555555; stroke-opacity: 0.25; stroke-width: 0.8"/>
    <path d="M 121.234237 247.629956 
L 428.769426 336.082198 
" clip-path="url(#pf9632978ce)" style="fill: none; stroke: #555555; stroke-opacity: 0.25; stroke-width: 0.8"/>
    <path d="M 291.390008 443.728974 
L 428.769426 336.082198 
" clip-path="url(#pf9632978ce)" style="fill: none; stroke: #555555; stroke-opacity: 0.25; stroke-width: 0.8"/>
    <path d="M 291.390008 443.728974 
L 256.077857 132.639856 
" clip-path="url(#pf9632978ce)" style="fill: none; stroke: #555555; stroke-opacity: 0.25; stroke-width: 0.8"/>
    <path d="M 428.769426 336.082198 
L 256.077857 132.639856 
" clip-path="url(#pf9632978ce)" style="fill: none; stroke: #555555; stroke-opacity: 0.25; stroke-width: 0.8"/>
    <path d="M 428.769426 336.082198 
L 461.985124 157.933307 
" clip-path="url(#pf9632978ce)" style="fill: none; stroke: #555555; stroke-opacity: 0.25; stroke-width: 0.8"/>
    <path d="M 256.077857 132.639856 
L 461.985124 157.933307 
" clip-path="url(#pf9632978ce)" style="fill: none; stroke: #555555; stroke-opacity: 0.25; stroke-width: 0.8"/>
    <path d="M 256.077857 132.639856 
L 262.688894 385.978014 
" clip-path="url(#pf9632978ce)" style="fill: none; stroke: #555555; stroke-opacity: 0.25; stroke-width: 0.8"/>
    <path d="M 256.077857 132.639856 
L 411.635589 76.437673 
" clip-path="url(#pf9632978ce)" style="fill: none; stroke: #555555; stroke-opacity: 0.25; stroke-width: 0.8"/>
    <path d="M 461.985124 157.933307 
L 262.688894 385.978014 
" clip-path="url(#pf9632978ce)" style="fill: none; stroke: #555555; stroke-opacity: 0.25; stroke-width: 0.8"/>
    <path d="M 461.985124 157.933307 
L 349.837999 243.02816 
" clip-path="url(#pf9632978ce)" style="fill: none; stroke: #555555; stroke-opacity: 0.25; stroke-width: 0.8"/>
    <path d="M 262.688894 385.978014 
L 349.837999 243.02816 
" clip-path="url(#pf9632978ce)" style="fill: none; stroke: #555555; stroke-opacity: 0.25; stroke-width: 0.8"/>
    <path d="M 262.688894 385.978014 
L 54.044231 243.392795 
" clip-path="url(#pf9632978ce)" style="fill: none; stroke: #555555; stroke-opacity: 0.25; stroke-width: 0.8"/>
    <path d="M 349.837999 243.02816 
L 54.044231 243.392795 
" clip-path="url(#pf9632978ce)" style="fill: none; stroke: #555555; stroke-opacity: 0.25; stroke-width: 0.8"/>
    <path d="M 349.837999 243.02816 
L 82.182058 101.108795 
" clip-path="url(#pf9632978ce)" style="fill: none; stroke: #555555; stroke-opacity: 0.25; stroke-width: 0.8"/>
    <path d="M 54.044231 243.392795 
L 82.182058 101.108795 
" clip-path="url(#pf9632978ce)" style="fill: none; stroke: #555555; stroke-opacity: 0.25; stroke-width: 0.8"/>
    <path d="M 54.044231 243.392795 
L 124.997356 113.386235 
" clip-path="url(#pf9632978ce)" style="fill: none; stroke: #555555; stroke-opacity: 0.25; stroke-width: 0.8"/>
    <path d="M 82.182058 101.108795 
L 124.997356 113.386235 
" clip-path="url(#pf9632978ce)" style="fill: none; stroke: #555555; stroke-opacity: 0.25; stroke-width: 0.8"/>
    <path d="M 82.182058 101.108795 
L 214.905159 198.713142 
" clip-path="url(#pf9632978ce)" style="fill: none; stroke: #555555; stroke-opacity: 0.25; stroke-width: 0.8"/>
    <path d="M 124.997356 113.386235 
L 214.905159 198.713142 
" clip-path="url(#pf9632978ce)" style="fill: none; stroke: #555555; stroke-opacity: 0.25; stroke-width: 0.8"/>
    <path d="M 124.997356 113.386235 
L 293.427374 333.711756 
" clip-path="url(#pf9632978ce)" style="fill: none; stroke: #555555; stroke-opacity: 0.25; stroke-width: 0.8"/>
    <path d="M 214.905159 198.713142 
L 293.427374 333.711756 
" clip-path="url(#pf9632978ce)" style="fill: none; stroke: #555555; stroke-opacity: 0.25; stroke-width: 0.8"/>
    <path d="M 214.905159 198.713142 
L 445.513744 196.287228 
" clip-path="url(#pf9632978ce)" style="fill: none; stroke: #555555; stroke-opacity: 0.25; stroke-width: 0.8"/>
    <path d="M 214.905159 198.713142 
L 248.1896 71.418898 
" clip-path="url(#pf9632978ce)" style="fill: none; stroke: #555555; stroke-opacity: 0.25; stroke-width: 0.8"/>
    <path d="M 214.905159 198.713142 
L 50.414876 274.562465 
" clip-path="url(#pf9632978ce)" style="fill: none; stroke: #555555; stroke-opacity: 0.25; stroke-width: 0.8"/>
    <path d="M 293.427374 333.711756 
L 445.513744 196.287228 
" clip-path="url(#pf9632978ce)" style="fill: none; stroke: #555555; stroke-opacity: 0.25; stroke-width: 0.8"/>
    <path d="M 293.427374 333.711756 
L 411.635589 76.437673 
" clip-path="url(#pf9632978ce)" style="fill: none; stroke: #555555; stroke-opacity: 0.25; stroke-width: 0.8"/>
    <path d="M 445.513744 196.287228 
L 411.635589 76.437673 
" clip-path="url(#pf9632978ce)" style="fill: none; stroke: #555555; stroke-opacity: 0.25; stroke-width: 0.8"/>
    <path d="M 445.513744 196.287228 
L 248.1896 71.418898 
" clip-path="url(#pf9632978ce)" style="fill: none; stroke: #555555; stroke-opacity: 0.25; stroke-width: 0.8"/>
    <path d="M 445.513744 196.287228 
L 171.336686 254.871144 
" clip-path="url(#pf9632978ce)" style="fill: none; stroke: #555555; stroke-opacity: 0.25; stroke-width: 0.8"/>
    <path d="M 411.635589 76.437673 
L 248.1896 71.418898 
" clip-path="url(#pf9632978ce)" style="fill: none; stroke: #555555; stroke-opacity: 0.25; stroke-width: 0.8"/>
    <path d="M 411.635589 76.437673 
L 171.336686 254.871144 
" clip-path="url(#pf9632978ce)" style="fill: none; stroke: #555555; stroke-opacity: 0.25; stroke-width: 0.8"/>
    <path d="M 248.1896 71.418898 
L 171.336686 254.871144 
" clip-path="url(#pf9632978ce)" style="fill: none; stroke: #555555; stroke-opacity: 0.25; stroke-width: 0.8"/>
    <path d="M 248.1896 71.418898 
L 50.414876 274.562465 
" clip-path="url(#pf9632978ce)" style="fill: none; stroke: #555555; stroke-opacity: 0.25; stroke-width: 0.8"/>
    <path d="M 171.336686 254.871144 
L 50.414876 274.562465 
" clip-path="url(#pf9632978ce)" style="fill: none; stroke: #555555; stroke-opacity: 0.25; stroke-width: 0.8"/>
   </g>
   <g id="PathCollection_1">
    <defs>
     <path id="C0_0_d0c3e13166" d="M 0 7.416198 
C 1.966799 7.416198 3.853307 6.634781 5.244044 5.244044 
C 6.634781 3.853307 7.416198 1.966799 7.416198 -0 
C 7.416198 -1.966799 6.634781 -3.853307 5.244044 -5.244044 
C 3.853307 -6.634781 1.966799 -7.416198 0 -7.416198 
C -1.966799 -7.416198 -3.853307 -6.634781 -5.244044 -5.244044 
C -6.634781 -3.853307 -7.416198 -1.966799 -7.416198 0 
C -7.416198 1.966799 -6.634781 3.853307 -5.244044 5.244044 
C -3.853307 6.634781 -1.966799 7.416198 0 7.416198 
z
"/>
    </defs>
    <g clip-path="url(#pf9632978ce)">
     <use xlink:href="#C0_0_d0c3e13166" x="198.011035" y="48.680129" style="fill: #e63946; stroke: #ffffff; stroke-width: 0.6"/>
    </g>
    <g clip-path="url(#pf9632978ce)">
     <use xlink:href="#C0_0_d0c3e13166" x="292.930041" y="214.525286" style="fill: #457b9d; stroke: #ffffff; stroke-width: 0.6"/>
    </g>
    <g clip-path="url(#pf9632978ce)">
     <use xlink:href="#C0_0_d0c3e13166" x="124.829799" y="316.174595" style="fill: #2a9d8f; stroke: #ffffff; stroke-width: 0.6"/>
    </g>
    <g clip-path="url(#pf9632978ce)">
     <use xlink:href="#C0_0_d0c3e13166" x="63.035175" y="149.984556" style="fill: #e9c46a; stroke: #ffffff; stroke-width: 0.6"/>
    </g>
    <g clip-path="url(#pf9632978ce)">
     <use xlink:href="#C0_0_d0c3e13166" x="323.031826" y="68.878075" style="fill: #e63946; stroke: #ffffff; stroke-width: 0.6"/>
    </g>
    <g clip-path="url(#pf9632978ce)">
     <use xlink:href="#C0_0_d0c3e13166" x="160.397708" y="68.707829" style="fill: #457b9d; stroke: #ffffff; stroke-width: 0.6"/>
    </g>
    <g clip-path="url(#pf9632978ce)">
     <use xlink:href="#C0_0_d0c3e13166" x="422.553621" y="264.452302" style="fill: #2a9d8f; stroke: #ffffff; stroke-width: 0.6"/>
    </g>
    <g clip-path="url(#pf9632978ce)">
     <use xlink:href="#C0_0_d0c3e13166" x="181.885216" y="432.292528" style="fill: #e9c46a; stroke: #ffffff; stroke-width: 0.6"/>
    </g>
    <g clip-path="url(#pf9632978ce)">
     <use xlink:href="#C0_0_d0c3e13166" x="238.000351" y="286.243838" style="fill: #e63946; stroke: #ffffff; stroke-width: 0.6"/>
    </g>
    <g clip-path="url(#pf9632978ce)">
     <use xlink:href="#C0_0_d0c3e13166" x="332.682438" y="415.653903" style="fill: #457b9d; stroke: #ffffff; stroke-width: 0.6"/>
    </g>
    <g clip-path="url(#pf9632978ce)">
     <use xlink:href="#C0_0_d0c3e13166" x="385.625238" y="402.075195" style="fill: #2a9d8f; stroke: #ffffff; stroke-width: 0.6"/>
    </g>
    <g clip-path="url(#pf9632978ce)">
     <use xlink:href="#C0_0_d0c3e13166" x="164.744" y="368.837513" style="fill: #e9c46a; stroke: #ffffff; stroke-width: 0.6"/>
    </g>
    <g clip-path="url(#pf9632978ce)">
     <use xlink:href="#C0_0_d0c3e13166" x="289.340275" y="179.370163" style="fill: #e63946; stroke: #ffffff; stroke-width: 0.6"/>
    </g>
    <g clip-path="url(#pf9632978ce)">
     <use xlink:href="#C0_0_d0c3e13166" x="121.234237" y="247.629956" style="fill: #457b9d; stroke: #ffffff; stroke-width: 0.6"/>
    </g>
    <g clip-path="url(#pf9632978ce)">
     <use xlink:href="#C0_0_d0c3e13166" x="291.390008" y="443.728974" style="fill: #2a9d8f; stroke: #ffffff; stroke-width: 0.6"/>
    </g>
    <g clip-path="url(#pf9632978ce)">
     <use xlink:href="#C0_0_d0c3e13166" x="428.769426" y="336.082198" style="fill: #e9c46a; stroke: #ffffff; stroke-width: 0.6"/>
    </g>
    <g clip-path="url(#pf9632978ce)">
     <use xlink:href="#C0_0_d0c3e13166" x="256.077857" y="132.639856" style="fill: #e63946; stroke: #ffffff; stroke-width: 0.6"/>
    </g>
    <g clip-path="url(#pf9632978ce)">
     <use xlink:href="#C0_0_d0c3e13166" x="461.985124" y="157.933307" style="fill: #457b9d; stroke: #ffffff; stroke-width: 0.6"/>
    </g>
    <g clip-path="url(#pf9632978ce)">
     <use xlink:href="#C0_0_d0c3e13166" x="262.688894" y="385.978014" style="fill: #2a9d8f; stroke: #ffffff; stroke-width: 0.6"/>
    </g>
    <g clip-path="url(#pf9632978ce)">
     <use xlink:href="#C0_0_d0c3e13166" x="349.837999" y="243.02816" style="fill: #e9c46a; stroke: #ffffff; stroke-width: 0.6"/>
    </g>
    <g clip-path="url(#pf9632978ce)">
     <use xlink:href="#C0_0_d0c3e13166" x="54.044231" y="243.392795" style="fill: #e63946; stroke: #ffffff; stroke-width: 0.6"/>
    </g>
    <g clip-path="url(#pf9632978ce)">
     <use xlink:href="#C0_0_d0c3e13166" x="82.182058" y="101.108795" style="fill: #457b9d; stroke: #ffffff; stroke-width: 0.6"/>
    </g>
    <g clip-path="url(#pf9632978ce)">
     <use xlink:href="#C0_0_d0c3e13166" x="124.997356" y="113.386235" style="fill: #2a9d8f; stroke: #ffffff; stroke-width: 0.6"/>
    </g>
    <g clip-path="url(#pf9632978ce)">
     <use xlink:href="#C0_0_d0c3e13166" x="214.905159" y="198.713142" style="fill: #e9c46a; stroke: #ffffff; stroke-width: 0.6"/>
    </g>
    <g clip-path="url(#pf9632978ce)">
     <use xlink:href="#C0_0_d0c3e13166" x="293.427374" y="333.711756" style="fill: #e63946; stroke: #ffffff; stroke-width: 0.6"/>
    </g>
    <g clip-path="url(#pf9632978ce)">
     <use xlink:href="#C0_0_d0c3e13166" x="445.513744" y="196.287228" style="fill: #457b9d; stroke: #ffffff; stroke-width: 0.6"/>
    </g>
    <g clip-path="url(#pf9632978ce)">
     <use xlink:href="#C0_0_d0c3e13166" x="411.635589" y="76.437673" style="fill: #2a9d8f; stroke: #ffffff; stroke-width: 0.6"/>
    </g>
    <g clip-path="url(#pf9632978ce)">
     <use xlink:href="#C0_0_d0c3e13166" x="248.1896" y="71.418898" style="fill: #e9c46a; stroke: #ffffff; stroke-width: 0.6"/>
    </g>
    <g clip-path="url(#pf9632978ce)">
     <use xlink:href="#C0_0_d0c3e13166" x="171.336686" y="254.871144" style="fill: #e63946; stroke: #ffffff; stroke-width: 0.6"/>
    </g>
    <g clip-path="url(#pf9632978ce)">
     <use xlink:href="#C0_0_d0c3e13166" x="50.414876" y="274.562465" style="fill: #457b9d; stroke: #ffffff; stroke-width: 0.6"/>
    </g>
   </g>
   <g id="text_1">
    <g clip-path="url(#pf9632978ce)">
     <!-- 0 -->
     <g style="fill: #ffffff" transform="translate(195.749746 50.473723) scale(0.065 -0.065)">
      <defs>
       <path id="DejaVuSans-Bold-30" d="M 2944 2338 
Q 2944 3213 2780 3570 
Q 2616 3928 2228 3928 
Q 1841 3928 1675 3570 
Q 1509 3213 1509 2338 
Q 1509 1453 1675 1090 
Q 1841 728 2228 728 
Q 2613 728 2778 1090 
Q 2944 1453 2944 2338 
z
M 4147 2328 
Q 4147 1169 3647 539 
Q 3147 -91 2228 -91 
Q 1306 -91 806 539 
Q 306 1169 306 2328 
Q 306 3491 806 4120 
Q 1306 4750 2228 4750 
Q 3147 4750 3647 4120 
Q 4147 3491 4147 2328 
z
" transform="scale(0.015625)"/>
      </defs>
      <use xlink:href="#DejaVuSans-Bold-30"/>
     </g>
    </g>
   </g>
   <g id="text_2">
    <g clip-path="url(#pf9632978ce)">
     <!-- 1 -->
     <g style="fill: #ffffff" transform="translate(290.668752 216.31888) scale(0.065 -0.065)">
      <defs>
       <path id="DejaVuSans-Bold-31" d="M 750 831 
L 1813 831 
L 1813 3847 
L 722 3622 
L 722 4441 
L 1806 4666 
L 2950 4666 
L 2950 831 
L 4013 831 
L 4013 0 
L 750 0 
L 750 831 
z
" transform="scale(0.015625)"/>
      </defs>
      <use xlink:href="#DejaVuSans-Bold-31"/>
     </g>
    </g>
   </g>
   <g id="text_3">
    <g clip-path="url(#pf9632978ce)">
     <!-- 2 -->
     <g style="fill: #ffffff" transform="translate(122.56851 317.968189) scale(0.065 -0.065)">
      <defs>
       <path id="DejaVuSans-Bold-32" d="M 1844 884 
L 3897 884 
L 3897 0 
L 506 0 
L 506 884 
L 2209 2388 
Q 2438 2594 2547 2791 
Q 2656 2988 2656 3200 
Q 2656 3528 2436 3728 
Q 2216 3928 1850 3928 
Q 1569 3928 1234 3808 
Q 900 3688 519 3450 
L 519 4475 
Q 925 4609 1322 4679 
Q 1719 4750 2100 4750 
Q 2938 4750 3402 4381 
Q 3866 4013 3866 3353 
Q 3866 2972 3669 2642 
Q 3472 2313 2841 1759 
L 1844 884 
z
" transform="scale(0.015625)"/>
      </defs>
      <use xlink:href="#DejaVuSans-Bold-32"/>
     </g>
    </g>
   </g>
   <g id="text_4">
    <g clip-path="url(#pf9632978ce)">
     <!-- 3 -->
     <g style="fill: #ffffff" transform="translate(60.773886 151.77815) scale(0.065 -0.065)">
      <defs>
       <path id="DejaVuSans-Bold-33" d="M 2981 2516 
Q 3453 2394 3698 2092 
Q 3944 1791 3944 1325 
Q 3944 631 3412 270 
Q 2881 -91 1863 -91 
Q 1503 -91 1142 -33 
Q 781 25 428 141 
L 428 1069 
Q 766 900 1098 814 
Q 1431 728 1753 728 
Q 2231 728 2486 893 
Q 2741 1059 2741 1369 
Q 2741 1688 2480 1852 
Q 2219 2016 1709 2016 
L 1228 2016 
L 1228 2791 
L 1734 2791 
Q 2188 2791 2409 2933 
Q 2631 3075 2631 3366 
Q 2631 3634 2415 3781 
Q 2200 3928 1806 3928 
Q 1516 3928 1219 3862 
Q 922 3797 628 3669 
L 628 4550 
Q 984 4650 1334 4700 
Q 1684 4750 2022 4750 
Q 2931 4750 3382 4451 
Q 3834 4153 3834 3553 
Q 3834 3144 3618 2883 
Q 3403 2622 2981 2516 
z
" transform="scale(0.015625)"/>
      </defs>
      <use xlink:href="#DejaVuSans-Bold-33"/>
     </g>
    </g>
   </g>
   <g id="text_5">
    <g clip-path="url(#pf9632978ce)">
     <!-- 4 -->
     <g style="fill: #ffffff" transform="translate(320.770537 70.671669) scale(0.065 -0.065)">
      <defs>
       <path id="DejaVuSans-Bold-34" d="M 2356 3675 
L 1038 1722 
L 2356 1722 
L 2356 3675 
z
M 2156 4666 
L 3494 4666 
L 3494 1722 
L 4159 1722 
L 4159 850 
L 3494 850 
L 3494 0 
L 2356 0 
L 2356 850 
L 288 850 
L 288 1881 
L 2156 4666 
z
" transform="scale(0.015625)"/>
      </defs>
      <use xlink:href="#DejaVuSans-Bold-34"/>
     </g>
    </g>
   </g>
   <g id="text_6">
    <g clip-path="url(#pf9632978ce)">
     <!-- 5 -->
     <g style="fill: #ffffff" transform="translate(158.136419 70.501422) scale(0.065 -0.065)">
      <defs>
       <path id="DejaVuSans-Bold-35" d="M 678 4666 
L 3669 4666 
L 3669 3781 
L 1638 3781 
L 1638 3059 
Q 1775 3097 1914 3117 
Q 2053 3138 2203 3138 
Q 3056 3138 3531 2711 
Q 4006 2284 4006 1522 
Q 4006 766 3489 337 
Q 2972 -91 2053 -91 
Q 1656 -91 1267 -14 
Q 878 63 494 219 
L 494 1166 
Q 875 947 1217 837 
Q 1559 728 1863 728 
Q 2300 728 2551 942 
Q 2803 1156 2803 1522 
Q 2803 1891 2551 2103 
Q 2300 2316 1863 2316 
Q 1603 2316 1309 2248 
Q 1016 2181 678 2041 
L 678 4666 
z
" transform="scale(0.015625)"/>
      </defs>
      <use xlink:href="#DejaVuSans-Bold-35"/>
     </g>
    </g>
   </g>
   <g id="text_7">
    <g clip-path="url(#pf9632978ce)">
     <!-- 6 -->
     <g style="fill: #ffffff" transform="translate(420.292332 266.245895) scale(0.065 -0.065)">
      <defs>
       <path id="DejaVuSans-Bold-36" d="M 2316 2303 
Q 2000 2303 1842 2098 
Q 1684 1894 1684 1484 
Q 1684 1075 1842 870 
Q 2000 666 2316 666 
Q 2634 666 2792 870 
Q 2950 1075 2950 1484 
Q 2950 1894 2792 2098 
Q 2634 2303 2316 2303 
z
M 3803 4544 
L 3803 3681 
Q 3506 3822 3243 3889 
Q 2981 3956 2731 3956 
Q 2194 3956 1894 3657 
Q 1594 3359 1544 2772 
Q 1750 2925 1990 3001 
Q 2231 3078 2516 3078 
Q 3231 3078 3670 2659 
Q 4109 2241 4109 1563 
Q 4109 813 3618 361 
Q 3128 -91 2303 -91 
Q 1394 -91 895 523 
Q 397 1138 397 2266 
Q 397 3422 980 4083 
Q 1563 4744 2578 4744 
Q 2900 4744 3203 4694 
Q 3506 4644 3803 4544 
z
" transform="scale(0.015625)"/>
      </defs>
      <use xlink:href="#DejaVuSans-Bold-36"/>
     </g>
    </g>
   </g>
   <g id="text_8">
    <g clip-path="url(#pf9632978ce)">
     <!-- 7 -->
     <g style="fill: #ffffff" transform="translate(179.623927 434.086121) scale(0.065 -0.065)">
      <defs>
       <path id="DejaVuSans-Bold-37" d="M 428 4666 
L 3944 4666 
L 3944 3988 
L 2125 0 
L 953 0 
L 2675 3781 
L 428 3781 
L 428 4666 
z
" transform="scale(0.015625)"/>
      </defs>
      <use xlink:href="#DejaVuSans-Bold-37"/>
     </g>
    </g>
   </g>
   <g id="text_9">
    <g clip-path="url(#pf9632978ce)">
     <!-- 8 -->
     <g style="fill: #ffffff" transform="translate(235.739062 288.037432) scale(0.065 -0.065)">
      <defs>
       <path id="DejaVuSans-Bold-38" d="M 2228 2088 
Q 1891 2088 1709 1903 
Q 1528 1719 1528 1375 
Q 1528 1031 1709 848 
Q 1891 666 2228 666 
Q 2563 666 2741 848 
Q 2919 1031 2919 1375 
Q 2919 1722 2741 1905 
Q 2563 2088 2228 2088 
z
M 1350 2484 
Q 925 2613 709 2878 
Q 494 3144 494 3541 
Q 494 4131 934 4440 
Q 1375 4750 2228 4750 
Q 3075 4750 3515 4442 
Q 3956 4134 3956 3541 
Q 3956 3144 3739 2878 
Q 3522 2613 3097 2484 
Q 3572 2353 3814 2058 
Q 4056 1763 4056 1313 
Q 4056 619 3595 264 
Q 3134 -91 2228 -91 
Q 1319 -91 855 264 
Q 391 619 391 1313 
Q 391 1763 633 2058 
Q 875 2353 1350 2484 
z
M 1631 3419 
Q 1631 3141 1786 2991 
Q 1941 2841 2228 2841 
Q 2509 2841 2662 2991 
Q 2816 3141 2816 3419 
Q 2816 3697 2662 3845 
Q 2509 3994 2228 3994 
Q 1941 3994 1786 3844 
Q 1631 3694 1631 3419 
z
" transform="scale(0.015625)"/>
      </defs>
      <use xlink:href="#DejaVuSans-Bold-38"/>
     </g>
    </g>
   </g>
   <g id="text_10">
    <g clip-path="url(#pf9632978ce)">
     <!-- 9 -->
     <g style="fill: #ffffff" transform="translate(330.421149 417.447497) scale(0.065 -0.065)">
      <defs>
       <path id="DejaVuSans-Bold-39" d="M 641 103 
L 641 966 
Q 928 831 1190 764 
Q 1453 697 1709 697 
Q 2247 697 2547 995 
Q 2847 1294 2900 1881 
Q 2688 1725 2447 1647 
Q 2206 1569 1925 1569 
Q 1209 1569 770 1986 
Q 331 2403 331 3084 
Q 331 3838 820 4291 
Q 1309 4744 2131 4744 
Q 3044 4744 3544 4128 
Q 4044 3513 4044 2388 
Q 4044 1231 3459 570 
Q 2875 -91 1856 -91 
Q 1528 -91 1228 -42 
Q 928 6 641 103 
z
M 2125 2350 
Q 2441 2350 2600 2554 
Q 2759 2759 2759 3169 
Q 2759 3575 2600 3781 
Q 2441 3988 2125 3988 
Q 1809 3988 1650 3781 
Q 1491 3575 1491 3169 
Q 1491 2759 1650 2554 
Q 1809 2350 2125 2350 
z
" transform="scale(0.015625)"/>
      </defs>
      <use xlink:href="#DejaVuSans-Bold-39"/>
     </g>
    </g>
   </g>
   <g id="text_11">
    <g clip-path="url(#pf9632978ce)">
     <!-- 10 -->
     <g style="fill: #ffffff" transform="translate(381.10266 403.868789) scale(0.065 -0.065)">
      <use xlink:href="#DejaVuSans-Bold-31"/>
      <use xlink:href="#DejaVuSans-Bold-30" transform="translate(69.580078 0)"/>
     </g>
    </g>
   </g>
   <g id="text_12">
    <g clip-path="url(#pf9632978ce)">
     <!-- 11 -->
     <g style="fill: #ffffff" transform="translate(160.221422 370.631106) scale(0.065 -0.065)">
      <use xlink:href="#DejaVuSans-Bold-31"/>
      <use xlink:href="#DejaVuSans-Bold-31" transform="translate(69.580078 0)"/>
     </g>
    </g>
   </g>
   <g id="text_13">
    <g clip-path="url(#pf9632978ce)">
     <!-- 12 -->
     <g style="fill: #ffffff" transform="translate(284.817697 181.163756) scale(0.065 -0.065)">
      <use xlink:href="#DejaVuSans-Bold-31"/>
      <use xlink:href="#DejaVuSans-Bold-32" transform="translate(69.580078 0)"/>
     </g>
    </g>
   </g>
   <g id="text_14">
    <g clip-path="url(#pf9632978ce)">
     <!-- 13 -->
     <g style="fill: #ffffff" transform="translate(116.711659 249.42355) scale(0.065 -0.065)">
      <use xlink:href="#DejaVuSans-Bold-31"/>
      <use xlink:href="#DejaVuSans-Bold-33" transform="translate(69.580078 0)"/>
     </g>
    </g>
   </g>
   <g id="text_15">
    <g clip-path="url(#pf9632978ce)">
     <!-- 14 -->
     <g style="fill: #ffffff" transform="translate(286.86743 445.522568) scale(0.065 -0.065)">
      <use xlink:href="#DejaVuSans-Bold-31"/>
      <use xlink:href="#DejaVuSans-Bold-34" transform="translate(69.580078 0)"/>
     </g>
    </g>
   </g>
   <g id="text_16">
    <g clip-path="url(#pf9632978ce)">
     <!-- 15 -->
     <g style="fill: #ffffff" transform="translate(424.246848 337.875792) scale(0.065 -0.065)">
      <use xlink:href="#DejaVuSans-Bold-31"/>
      <use xlink:href="#DejaVuSans-Bold-35" transform="translate(69.580078 0)"/>
     </g>
    </g>
   </g>
   <g id="text_17">
    <g clip-path="url(#pf9632978ce)">
     <!-- 16 -->
     <g style="fill: #ffffff" transform="translate(251.555278 134.43345) scale(0.065 -0.065)">
      <use xlink:href="#DejaVuSans-Bold-31"/>
      <use xlink:href="#DejaVuSans-Bold-36" transform="translate(69.580078 0)"/>
     </g>
    </g>
   </g>
   <g id="text_18">
    <g clip-path="url(#pf9632978ce)">
     <!-- 17 -->
     <g style="fill: #ffffff" transform="translate(457.462546 159.7269) scale(0.065 -0.065)">
      <use xlink:href="#DejaVuSans-Bold-31"/>
      <use xlink:href="#DejaVuSans-Bold-37" transform="translate(69.580078 0)"/>
     </g>
    </g>
   </g>
   <g id="text_19">
    <g clip-path="url(#pf9632978ce)">
     <!-- 18 -->
     <g style="fill: #ffffff" transform="translate(258.166316 387.771607) scale(0.065 -0.065)">
      <use xlink:href="#DejaVuSans-Bold-31"/>
      <use xlink:href="#DejaVuSans-Bold-38" transform="translate(69.580078 0)"/>
     </g>
    </g>
   </g>
   <g id="text_20">
    <g clip-path="url(#pf9632978ce)">
     <!-- 19 -->
     <g style="fill: #ffffff" transform="translate(345.315421 244.821753) scale(0.065 -0.065)">
      <use xlink:href="#DejaVuSans-Bold-31"/>
      <use xlink:href="#DejaVuSans-Bold-39" transform="translate(69.580078 0)"/>
     </g>
    </g>
   </g>
   <g id="text_21">
    <g clip-path="url(#pf9632978ce)">
     <!-- 20 -->
     <g style="fill: #ffffff" transform="translate(49.521653 245.186389) scale(0.065 -0.065)">
      <use xlink:href="#DejaVuSans-Bold-32"/>
      <use xlink:href="#DejaVuSans-Bold-30" transform="translate(69.580078 0)"/>
     </g>
    </g>
   </g>
   <g id="text_22">
    <g clip-path="url(#pf9632978ce)">
     <!-- 21 -->
     <g style="fill: #ffffff" transform="translate(77.659479 102.902388) scale(0.065 -0.065)">
      <use xlink:href="#DejaVuSans-Bold-32"/>
      <use xlink:href="#DejaVuSans-Bold-31" transform="translate(69.580078 0)"/>
     </g>
    </g>
   </g>
   <g id="text_23">
    <g clip-path="url(#pf9632978ce)">
     <!-- 22 -->
     <g style="fill: #ffffff" transform="translate(120.474777 115.179828) scale(0.065 -0.065)">
      <use xlink:href="#DejaVuSans-Bold-32"/>
      <use xlink:href="#DejaVuSans-Bold-32" transform="translate(69.580078 0)"/>
     </g>
    </g>
   </g>
   <g id="text_24">
    <g clip-path="url(#pf9632978ce)">
     <!-- 23 -->
     <g style="fill: #ffffff" transform="translate(210.382581 200.506736) scale(0.065 -0.065)">
      <use xlink:href="#DejaVuSans-Bold-32"/>
      <use xlink:href="#DejaVuSans-Bold-33" transform="translate(69.580078 0)"/>
     </g>
    </g>
   </g>
   <g id="text_25">
    <g clip-path="url(#pf9632978ce)">
     <!-- 24 -->
     <g style="fill: #ffffff" transform="translate(288.904796 335.505349) scale(0.065 -0.065)">
      <use xlink:href="#DejaVuSans-Bold-32"/>
      <use xlink:href="#DejaVuSans-Bold-34" transform="translate(69.580078 0)"/>
     </g>
    </g>
   </g>
   <g id="text_26">
    <g clip-path="url(#pf9632978ce)">
     <!-- 25 -->
     <g style="fill: #ffffff" transform="translate(440.991166 198.080822) scale(0.065 -0.065)">
      <use xlink:href="#DejaVuSans-Bold-32"/>
      <use xlink:href="#DejaVuSans-Bold-35" transform="translate(69.580078 0)"/>
     </g>
    </g>
   </g>
   <g id="text_27">
    <g clip-path="url(#pf9632978ce)">
     <!-- 26 -->
     <g style="fill: #ffffff" transform="translate(407.113011 78.231266) scale(0.065 -0.065)">
      <use xlink:href="#DejaVuSans-Bold-32"/>
      <use xlink:href="#DejaVuSans-Bold-36" transform="translate(69.580078 0)"/>
     </g>
    </g>
   </g>
   <g id="text_28">
    <g clip-path="url(#pf9632978ce)">
     <!-- 27 -->
     <g style="fill: #ffffff" transform="translate(243.667022 73.212492) scale(0.065 -0.065)">
      <use xlink:href="#DejaVuSans-Bold-32"/>
      <use xlink:href="#DejaVuSans-Bold-37" transform="translate(69.580078 0)"/>
     </g>
    </g>
   </g>
   <g id="text_29">
    <g clip-path="url(#pf9632978ce)">
     <!-- 28 -->
     <g style="fill: #ffffff" transform="translate(166.814108 256.664738) scale(0.065 -0.065)">
      <use xlink:href="#DejaVuSans-Bold-32"/>
      <use xlink:href="#DejaVuSans-Bold-38" transform="translate(69.580078 0)"/>
     </g>
    </g>
   </g>
   <g id="text_30">
    <g clip-path="url(#pf9632978ce)">
     <!-- 29 -->
     <g style="fill: #ffffff" transform="translate(45.892298 276.356059) scale(0.065 -0.065)">
      <use xlink:href="#DejaVuSans-Bold-32"/>
      <use xlink:href="#DejaVuSans-Bold-39" transform="translate(69.580078 0)"/>
     </g>
    </g>
   </g>
   <g id="legend_1">
    <g id="patch_2">
     <path d="M 420.0675 481.209103 
L 499.6 481.209103 
Q 501.2 481.209103 501.2 479.609103 
L 501.2 433.439103 
Q 501.2 431.839103 499.6 431.839103 
L 420.0675 431.839103 
Q 418.4675 431.839103 418.4675 433.439103 
L 418.4675 479.609103 
Q 418.4675 481.209103 420.0675 481.209103 
z
" style="fill: #ffffff; opacity: 0.85; stroke: #cccccc; stroke-linejoin: miter"/>
    </g>
    <g id="patch_3">
     <path d="M 421.6675 441.117853 
L 437.6675 441.117853 
L 437.6675 435.517853 
L 421.6675 435.517853 
z
" style="fill: #e63946; stroke: #e63946; stroke-linejoin: miter"/>
    </g>
    <g id="text_31">
     <!-- Community 0 -->
     <g transform="translate(444.0675 441.117853) scale(0.08 -0.08)">
      <defs>
       <path id="DejaVuSans-43" d="M 4122 4306 
L 4122 3641 
Q 3803 3938 3442 4084 
Q 3081 4231 2675 4231 
Q 1875 4231 1450 3742 
Q 1025 3253 1025 2328 
Q 1025 1406 1450 917 
Q 1875 428 2675 428 
Q 3081 428 3442 575 
Q 3803 722 4122 1019 
L 4122 359 
Q 3791 134 3420 21 
Q 3050 -91 2638 -91 
Q 1578 -91 968 557 
Q 359 1206 359 2328 
Q 359 3453 968 4101 
Q 1578 4750 2638 4750 
Q 3056 4750 3426 4639 
Q 3797 4528 4122 4306 
z
" transform="scale(0.015625)"/>
       <path id="DejaVuSans-6f" d="M 1959 3097 
Q 1497 3097 1228 2736 
Q 959 2375 959 1747 
Q 959 1119 1226 758 
Q 1494 397 1959 397 
Q 2419 397 2687 759 
Q 2956 1122 2956 1747 
Q 2956 2369 2687 2733 
Q 2419 3097 1959 3097 
z
M 1959 3584 
Q 2709 3584 3137 3096 
Q 3566 2609 3566 1747 
Q 3566 888 3137 398 
Q 2709 -91 1959 -91 
Q 1206 -91 779 398 
Q 353 888 353 1747 
Q 353 2609 779 3096 
Q 1206 3584 1959 3584 
z
" transform="scale(0.015625)"/>
       <path id="DejaVuSans-6d" d="M 3328 2828 
Q 3544 3216 3844 3400 
Q 4144 3584 4550 3584 
Q 5097 3584 5394 3201 
Q 5691 2819 5691 2113 
L 5691 0 
L 5113 0 
L 5113 2094 
Q 5113 2597 4934 2840 
Q 4756 3084 4391 3084 
Q 3944 3084 3684 2787 
Q 3425 2491 3425 1978 
L 3425 0 
L 2847 0 
L 2847 2094 
Q 2847 2600 2669 2842 
Q 2491 3084 2119 3084 
Q 1678 3084 1418 2786 
Q 1159 2488 1159 1978 
L 1159 0 
L 581 0 
L 581 3500 
L 1159 3500 
L 1159 2956 
Q 1356 3278 1631 3431 
Q 1906 3584 2284 3584 
Q 2666 3584 2933 3390 
Q 3200 3197 3328 2828 
z
" transform="scale(0.015625)"/>
       <path id="DejaVuSans-75" d="M 544 1381 
L 544 3500 
L 1119 3500 
L 1119 1403 
Q 1119 906 1312 657 
Q 1506 409 1894 409 
Q 2359 409 2629 706 
Q 2900 1003 2900 1516 
L 2900 3500 
L 3475 3500 
L 3475 0 
L 2900 0 
L 2900 538 
Q 2691 219 2414 64 
Q 2138 -91 1772 -91 
Q 1169 -91 856 284 
Q 544 659 544 1381 
z
M 1991 3584 
L 1991 3584 
z
" transform="scale(0.015625)"/>
       <path id="DejaVuSans-6e" d="M 3513 2113 
L 3513 0 
L 2938 0 
L 2938 2094 
Q 2938 2591 2744 2837 
Q 2550 3084 2163 3084 
Q 1697 3084 1428 2787 
Q 1159 2491 1159 1978 
L 1159 0 
L 581 0 
L 581 3500 
L 1159 3500 
L 1159 2956 
Q 1366 3272 1645 3428 
Q 1925 3584 2291 3584 
Q 2894 3584 3203 3211 
Q 3513 2838 3513 2113 
z
" transform="scale(0.015625)"/>
       <path id="DejaVuSans-69" d="M 603 3500 
L 1178 3500 
L 1178 0 
L 603 0 
L 603 3500 
z
M 603 4863 
L 1178 4863 
L 1178 4134 
L 603 4134 
L 603 4863 
z
" transform="scale(0.015625)"/>
       <path id="DejaVuSans-74" d="M 1172 4494 
L 1172 3500 
L 2356 3500 
L 2356 3053 
L 1172 3053 
L 1172 1153 
Q 1172 725 1289 603 
Q 1406 481 1766 481 
L 2356 481 
L 2356 0 
L 1766 0 
Q 1100 0 847 248 
Q 594 497 594 1153 
L 594 3053 
L 172 3053 
L 172 3500 
L 594 3500 
L 594 4494 
L 1172 4494 
z
" transform="scale(0.015625)"/>
       <path id="DejaVuSans-79" d="M 2059 -325 
Q 1816 -950 1584 -1140 
Q 1353 -1331 966 -1331 
L 506 -1331 
L 506 -850 
L 844 -850 
Q 1081 -850 1212 -737 
Q 1344 -625 1503 -206 
L 1606 56 
L 191 3500 
L 800 3500 
L 1894 763 
L 2988 3500 
L 3597 3500 
L 2059 -325 
z
" transform="scale(0.015625)"/>
       <path id="DejaVuSans-20" transform="scale(0.015625)"/>
       <path id="DejaVuSans-30" d="M 2034 4250 
Q 1547 4250 1301 3770 
Q 1056 3291 1056 2328 
Q 1056 1369 1301 889 
Q 1547 409 2034 409 
Q 2525 409 2770 889 
Q 3016 1369 3016 2328 
Q 3016 3291 2770 3770 
Q 2525 4250 2034 4250 
z
M 2034 4750 
Q 2819 4750 3233 4129 
Q 3647 3509 3647 2328 
Q 3647 1150 3233 529 
Q 2819 -91 2034 -91 
Q 1250 -91 836 529 
Q 422 1150 422 2328 
Q 422 3509 836 4129 
Q 1250 4750 2034 4750 
z
" transform="scale(0.015625)"/>
      </defs>
      <use xlink:href="#DejaVuSans-43"/>
      <use xlink:href="#DejaVuSans-6f" transform="translate(69.824219 0)"/>
      <use xlink:href="#DejaVuSans-6d" transform="translate(131.005859 0)"/>
      <use xlink:href="#DejaVuSans-6d" transform="translate(228.417969 0)"/>
      <use xlink:href="#DejaVuSans-75" transform="translate(325.830078 0)"/>
      <use xlink:href="#DejaVuSans-6e" transform="translate(389.208984 0)"/>
      <use xlink:href="#DejaVuSans-69" transform="translate(452.587891 0)"/>
      <use xlink:href="#DejaVuSans-74" transform="translate(480.371094 0)"/>
      <use xlink:href="#DejaVuSans-79" transform="translate(519.580078 0)"/>
      <use xlink:href="#DejaVuSans-20" transform="translate(578.759766 0)"/>
      <use xlink:href="#DejaVuSans-30" transform="translate(610.546875 0)"/>
     </g>
    </g>
    <g id="patch_4">
     <path d="M 421.6675 452.860353 
L 437.6675 452.860353 
L 437.6675 447.260353 
L 421.6675 447.260353 
z
" style="fill: #457b9d; stroke: #457b9d; stroke-linejoin: miter"/>
    </g>
    <g id="text_32">
     <!-- Community 1 -->
     <g transform="translate(444.0675 452.860353) scale(0.08 -0.08)">
      <defs>
       <path id="DejaVuSans-31" d="M 794 531 
L 1825 531 
L 1825 4091 
L 703 3866 
L 703 4441 
L 1819 4666 
L 2450 4666 
L 2450 531 
L 3481 531 
L 3481 0 
L 794 0 
L 794 531 
z
" transform="scale(0.015625)"/>
      </defs>
      <use xlink:href="#DejaVuSans-43"/>
      <use xlink:href="#DejaVuSans-6f" transform="translate(69.824219 0)"/>
      <use xlink:href="#DejaVuSans-6d" transform="translate(131.005859 0)"/>
      <use xlink:href="#DejaVuSans-6d" transform="translate(228.417969 0)"/>
      <use xlink:href="#DejaVuSans-75" transform="translate(325.830078 0)"/>
      <use xlink:href="#DejaVuSans-6e" transform="translate(389.208984 0)"/>
      <use xlink:href="#DejaVuSans-69" transform="translate(452.587891 0)"/>
      <use xlink:href="#DejaVuSans-74" transform="translate(480.371094 0)"/>
      <use xlink:href="#DejaVuSans-79" transform="translate(519.580078 0)"/>
      <use xlink:href="#DejaVuSans-20" transform="translate(578.759766 0)"/>
      <use xlink:href="#DejaVuSans-31" transform="translate(610.546875 0)"/>
     </g>
    </g>
    <g id="patch_5">
     <path d="M 421.6675 464.602853 
L 437.6675 464.602853 
L 437.6675 459.002853 
L 421.6675 459.002853 
z
" style="fill: #2a9d8f; stroke: #2a9d8f; stroke-linejoin: miter"/>
    </g>
    <g id="text_33">
     <!-- Community 2 -->
     <g transform="translate(444.0675 464.602853) scale(0.08 -0.08)">
      <defs>
       <path id="DejaVuSans-32" d="M 1228 531 
L 3431 531 
L 3431 0 
L 469 0 
L 469 531 
Q 828 903 1448 1529 
Q 2069 2156 2228 2338 
Q 2531 2678 2651 2914 
Q 2772 3150 2772 3378 
Q 2772 3750 2511 3984 
Q 2250 4219 1831 4219 
Q 1534 4219 1204 4116 
Q 875 4013 500 3803 
L 500 4441 
Q 881 4594 1212 4672 
Q 1544 4750 1819 4750 
Q 2544 4750 2975 4387 
Q 3406 4025 3406 3419 
Q 3406 3131 3298 2873 
Q 3191 2616 2906 2266 
Q 2828 2175 2409 1742 
Q 1991 1309 1228 531 
z
" transform="scale(0.015625)"/>
      </defs>
      <use xlink:href="#DejaVuSans-43"/>
      <use xlink:href="#DejaVuSans-6f" transform="translate(69.824219 0)"/>
      <use xlink:href="#DejaVuSans-6d" transform="translate(131.005859 0)"/>
      <use xlink:href="#DejaVuSans-6d" transform="translate(228.417969 0)"/>
      <use xlink:href="#DejaVuSans-75" transform="translate(325.830078 0)"/>
      <use xlink:href="#DejaVuSans-6e" transform="translate(389.208984 0)"/>
      <use xlink:href="#DejaVuSans-69" transform="translate(452.587891 0)"/>
      <use xlink:href="#DejaVuSans-74" transform="translate(480.371094 0)"/>
      <use xlink:href="#DejaVuSans-79" transform="translate(519.580078 0)"/>
      <use xlink:href="#DejaVuSans-20" transform="translate(578.759766 0)"/>
      <use xlink:href="#DejaVuSans-32" transform="translate(610.546875 0)"/>
     </g>
    </g>
    <g id="patch_6">
     <path d="M 421.6675 476.345353 
L 437.6675 476.345353 
L 437.6675 470.745353 
L 421.6675 470.745353 
z
" style="fill: #e9c46a; stroke: #e9c46a; stroke-linejoin: miter"/>
    </g>
    <g id="text_34">
     <!-- Community 3 -->
     <g transform="translate(444.0675 476.345353) scale(0.08 -0.08)">
      <defs>
       <path id="DejaVuSans-33" d="M 2597 2516 
Q 3050 2419 3304 2112 
Q 3559 1806 3559 1356 
Q 3559 666 3084 287 
Q 2609 -91 1734 -91 
Q 1441 -91 1130 -33 
Q 819 25 488 141 
L 488 750 
Q 750 597 1062 519 
Q 1375 441 1716 441 
Q 2309 441 2620 675 
Q 2931 909 2931 1356 
Q 2931 1769 2642 2001 
Q 2353 2234 1838 2234 
L 1294 2234 
L 1294 2753 
L 1863 2753 
Q 2328 2753 2575 2939 
Q 2822 3125 2822 3475 
Q 2822 3834 2567 4026 
Q 2313 4219 1838 4219 
Q 1578 4219 1281 4162 
Q 984 4106 628 3988 
L 628 4550 
Q 988 4650 1302 4700 
Q 1616 4750 1894 4750 
Q 2613 4750 3031 4423 
Q 3450 4097 3450 3541 
Q 3450 3153 3228 2886 
Q 3006 2619 2597 2516 
z
" transform="scale(0.015625)"/>
      </defs>
      <use xlink:href="#DejaVuSans-43"/>
      <use xlink:href="#DejaVuSans-6f" transform="translate(69.824219 0)"/>
      <use xlink:href="#DejaVuSans-6d" transform="translate(131.005859 0)"/>
      <use xlink:href="#DejaVuSans-6d" transform="translate(228.417969 0)"/>
      <use xlink:href="#DejaVuSans-75" transform="translate(325.830078 0)"/>
      <use xlink:href="#DejaVuSans-6e" transform="translate(389.208984 0)"/>
      <use xlink:href="#DejaVuSans-69" transform="translate(452.587891 0)"/>
      <use xlink:href="#DejaVuSans-74" transform="translate(480.371094 0)"/>
      <use xlink:href="#DejaVuSans-79" transform="translate(519.580078 0)"/>
      <use xlink:href="#DejaVuSans-20" transform="translate(578.759766 0)"/>
      <use xlink:href="#DejaVuSans-33" transform="translate(610.546875 0)"/>
     </g>
    </g>
   </g>
  </g>
 </g>
 <defs>
  <clipPath id="pf9632978ce">
   <rect x="7.2" y="7.2" width="498" height="478.009103"/>
  </clipPath>
 </defs>
</svg>
