<?xml version="1.0" encoding="utf-8" standalone="no"?>
<!DOCTYPE svg PUBLIC "-//W3C//DTD SVG 1.1//EN"
  "http://www.w3.org/Graphics/SVG/1.1/DTD/svg11.dtd">
<svg xmlns:xlink="http://www.w3.org/1999/xlink" width="631.501269pt" height="285.034375pt" viewBox="0 0 631.501269 285.034375" xmlns="http://www.w3.org/2000/svg" version="1.1">
 <metadata>
  <rdf:RDF xmlns:dc="http://purl.org/dc/elements/1.1/" xmlns:cc="http://creativecommons.org/ns#" xmlns:rdf="http://www.w3.org/1999/02/22-rdf-syntax-ns#">
   <cc:Work>
    <dc:type rdf:resource="http://purl.org/dc/dcmitype/StillImage"/>
    <dc:date>2026-05-25T00:39:56.873577</dc:date>
    <dc:format>image/svg+xml</dc:format>
    <dc:creator>
     <cc:Agent>
      <dc:title>Matplotlib v3.10.9, https://matplotlib.org/</dc:title>
     </cc:Agent>
    </dc:creator>
   </cc:Work>
  </rdf:RDF>
 </metadata>
 <defs>
  <style type="text/css">*{stroke-linejoin: round; stroke-linecap: butt}</style>
 </defs>
 <g id="figure_1">
  <g id="patch_1">
   <path d="M 0 285.034375 
L 631.501269 285.034375 
L 631.501269 0 
L 0 0 
z
" style="fill: #ffffff"/>
  </g>
  <g id="axes_1">
   <g id="patch_2">
    <path d="M 43.15875 247.478125 
L 305.69361 247.478125 
L 305.69361 22.318125 
L 43.15875 22.318125 
z
" style="fill: #ffffff"/>
   </g>
   <g id="line2d_1">
    <path d="M 48.207497 243.269527 
L 300.644863 32.83962 
" clip-path="url(#p98d9eb79aa)" style="fill: none; stroke-dasharray: 1.2,1.98; stroke-dashoffset: 0; stroke: #cccccc; stroke-width: 1.2"/>
   </g>
   <g id="matplotlib.axis_1">
    <g id="xtick_1">
     <g id="line2d_2">
      <defs>
       <path id="m70ba49b177" d="M 0 0 
L 0 3.5 
" style="stroke: #000000; stroke-width: 0.8"/>
      </defs>
      <g>
       <use xlink:href="#m70ba49b177" x="48.207497" y="247.478125" style="stroke: #000000; stroke-width: 0.8"/>
      </g>
     </g>
     <g id="text_1">
      <!-- 0.0 -->
      <g transform="translate(41.051091 261.316719) scale(0.09 -0.09)">
       <defs>
        <path id="DejaVuSans-30" d="M 2034 4250 
Q 1547 4250 1301 3770 
Q 1056 3291 1056 2328 
Q 1056 1369 1301 889 
Q 1547 409 2034 409 
Q 2525 409 2770 889 
Q 3016 1369 3016 2328 
Q 3016 3291 2770 3770 
Q 2525 4250 2034 4250 
z
M 2034 4750 
Q 2819 4750 3233 4129 
Q 3647 3509 3647 2328 
Q 3647 1150 3233 529 
Q 2819 -91 2034 -91 
Q 1250 -91 836 529 
Q 422 1150 422 2328 
Q 422 3509 836 4129 
Q 1250 4750 2034 4750 
z
" transform="scale(0.015625)"/>
        <path id="DejaVuSans-2e" d="M 684 794 
L 1344 794 
L 1344 0 
L 684 0 
L 684 794 
z
" transform="scale(0.015625)"/>
       </defs>
       <use xlink:href="#DejaVuSans-30"/>
       <use xlink:href="#DejaVuSans-2e" transform="translate(63.623047 0)"/>
       <use xlink:href="#DejaVuSans-30" transform="translate(95.410156 0)"/>
      </g>
     </g>
    </g>
    <g id="xtick_2">
     <g id="line2d_3">
      <g>
       <use xlink:href="#m70ba49b177" x="98.69497" y="247.478125" style="stroke: #000000; stroke-width: 0.8"/>
      </g>
     </g>
     <g id="text_2">
      <!-- 0.2 -->
      <g transform="translate(91.538564 261.316719) scale(0.09 -0.09)">
       <defs>
        <path id="DejaVuSans-32" d="M 1228 531 
L 3431 531 
L 3431 0 
L 469 0 
L 469 531 
Q 828 903 1448 1529 
Q 2069 2156 2228 2338 
Q 2531 2678 2651 2914 
Q 2772 3150 2772 3378 
Q 2772 3750 2511 3984 
Q 2250 4219 1831 4219 
Q 1534 4219 1204 4116 
Q 875 4013 500 3803 
L 500 4441 
Q 881 4594 1212 4672 
Q 1544 4750 1819 4750 
Q 2544 4750 2975 4387 
Q 3406 4025 3406 3419 
Q 3406 3131 3298 2873 
Q 3191 2616 2906 2266 
Q 2828 2175 2409 1742 
Q 1991 1309 1228 531 
z
" transform="scale(0.015625)"/>
       </defs>
       <use xlink:href="#DejaVuSans-30"/>
       <use xlink:href="#DejaVuSans-2e" transform="translate(63.623047 0)"/>
       <use xlink:href="#DejaVuSans-32" transform="translate(95.410156 0)"/>
      </g>
     </g>
    </g>
    <g id="xtick_3">
     <g id="line2d_4">
      <g>
       <use xlink:href="#m70ba49b177" x="149.182444" y="247.478125" style="stroke: #000000; stroke-width: 0.8"/>
      </g>
     </g>
     <g id="text_3">
      <!-- 0.4 -->
      <g transform="translate(142.026037 261.316719) scale(0.09 -0.09)">
       <defs>
        <path id="DejaVuSans-34" d="M 2419 4116 
L 825 1625 
L 2419 1625 
L 2419 4116 
z
M 2253 4666 
L 3047 4666 
L 3047 1625 
L 3713 1625 
L 3713 1100 
L 3047 1100 
L 3047 0 
L 2419 0 
L 2419 1100 
L 313 1100 
L 313 1709 
L 2253 4666 
z
" transform="scale(0.015625)"/>
       </defs>
       <use xlink:href="#DejaVuSans-30"/>
       <use xlink:href="#DejaVuSans-2e" transform="translate(63.623047 0)"/>
       <use xlink:href="#DejaVuSans-34" transform="translate(95.410156 0)"/>
      </g>
     </g>
    </g>
    <g id="xtick_4">
     <g id="line2d_5">
      <g>
       <use xlink:href="#m70ba49b177" x="199.669917" y="247.478125" style="stroke: #000000; stroke-width: 0.8"/>
      </g>
     </g>
     <g id="text_4">
      <!-- 0.6 -->
      <g transform="translate(192.51351 261.316719) scale(0.09 -0.09)">
       <defs>
        <path id="DejaVuSans-36" d="M 2113 2584 
Q 1688 2584 1439 2293 
Q 1191 2003 1191 1497 
Q 1191 994 1439 701 
Q 1688 409 2113 409 
Q 2538 409 2786 701 
Q 3034 994 3034 1497 
Q 3034 2003 2786 2293 
Q 2538 2584 2113 2584 
z
M 3366 4563 
L 3366 3988 
Q 3128 4100 2886 4159 
Q 2644 4219 2406 4219 
Q 1781 4219 1451 3797 
Q 1122 3375 1075 2522 
Q 1259 2794 1537 2939 
Q 1816 3084 2150 3084 
Q 2853 3084 3261 2657 
Q 3669 2231 3669 1497 
Q 3669 778 3244 343 
Q 2819 -91 2113 -91 
Q 1303 -91 875 529 
Q 447 1150 447 2328 
Q 447 3434 972 4092 
Q 1497 4750 2381 4750 
Q 2619 4750 2861 4703 
Q 3103 4656 3366 4563 
z
" transform="scale(0.015625)"/>
       </defs>
       <use xlink:href="#DejaVuSans-30"/>
       <use xlink:href="#DejaVuSans-2e" transform="translate(63.623047 0)"/>
       <use xlink:href="#DejaVuSans-36" transform="translate(95.410156 0)"/>
      </g>
     </g>
    </g>
    <g id="xtick_5">
     <g id="line2d_6">
      <g>
       <use xlink:href="#m70ba49b177" x="250.15739" y="247.478125" style="stroke: #000000; stroke-width: 0.8"/>
      </g>
     </g>
     <g id="text_5">
      <!-- 0.8 -->
      <g transform="translate(243.000983 261.316719) scale(0.09 -0.09)">
       <defs>
        <path id="DejaVuSans-38" d="M 2034 2216 
Q 1584 2216 1326 1975 
Q 1069 1734 1069 1313 
Q 1069 891 1326 650 
Q 1584 409 2034 409 
Q 2484 409 2743 651 
Q 3003 894 3003 1313 
Q 3003 1734 2745 1975 
Q 2488 2216 2034 2216 
z
M 1403 2484 
Q 997 2584 770 2862 
Q 544 3141 544 3541 
Q 544 4100 942 4425 
Q 1341 4750 2034 4750 
Q 2731 4750 3128 4425 
Q 3525 4100 3525 3541 
Q 3525 3141 3298 2862 
Q 3072 2584 2669 2484 
Q 3125 2378 3379 2068 
Q 3634 1759 3634 1313 
Q 3634 634 3220 271 
Q 2806 -91 2034 -91 
Q 1263 -91 848 271 
Q 434 634 434 1313 
Q 434 1759 690 2068 
Q 947 2378 1403 2484 
z
M 1172 3481 
Q 1172 3119 1398 2916 
Q 1625 2713 2034 2713 
Q 2441 2713 2670 2916 
Q 2900 3119 2900 3481 
Q 2900 3844 2670 4047 
Q 2441 4250 2034 4250 
Q 1625 4250 1398 4047 
Q 1172 3844 1172 3481 
z
" transform="scale(0.015625)"/>
       </defs>
       <use xlink:href="#DejaVuSans-30"/>
       <use xlink:href="#DejaVuSans-2e" transform="translate(63.623047 0)"/>
       <use xlink:href="#DejaVuSans-38" transform="translate(95.410156 0)"/>
      </g>
     </g>
    </g>
    <g id="xtick_6">
     <g id="line2d_7">
      <g>
       <use xlink:href="#m70ba49b177" x="300.644863" y="247.478125" style="stroke: #000000; stroke-width: 0.8"/>
      </g>
     </g>
     <g id="text_6">
      <!-- 1.0 -->
      <g transform="translate(293.488457 261.316719) scale(0.09 -0.09)">
       <defs>
        <path id="DejaVuSans-31" d="M 794 531 
L 1825 531 
L 1825 4091 
L 703 3866 
L 703 4441 
L 1819 4666 
L 2450 4666 
L 2450 531 
L 3481 531 
L 3481 0 
L 794 0 
L 794 531 
z
" transform="scale(0.015625)"/>
       </defs>
       <use xlink:href="#DejaVuSans-31"/>
       <use xlink:href="#DejaVuSans-2e" transform="translate(63.623047 0)"/>
       <use xlink:href="#DejaVuSans-30" transform="translate(95.410156 0)"/>
      </g>
     </g>
    </g>
    <g id="text_7">
     <!-- False Positive Rate -->
     <g transform="translate(123.313133 275.546719) scale(0.11 -0.11)">
      <defs>
       <path id="DejaVuSans-46" d="M 628 4666 
L 3309 4666 
L 3309 4134 
L 1259 4134 
L 1259 2759 
L 3109 2759 
L 3109 2228 
L 1259 2228 
L 1259 0 
L 628 0 
L 628 4666 
z
" transform="scale(0.015625)"/>
       <path id="DejaVuSans-61" d="M 2194 1759 
Q 1497 1759 1228 1600 
Q 959 1441 959 1056 
Q 959 750 1161 570 
Q 1363 391 1709 391 
Q 2188 391 2477 730 
Q 2766 1069 2766 1631 
L 2766 1759 
L 2194 1759 
z
M 3341 1997 
L 3341 0 
L 2766 0 
L 2766 531 
Q 2569 213 2275 61 
Q 1981 -91 1556 -91 
Q 1019 -91 701 211 
Q 384 513 384 1019 
Q 384 1609 779 1909 
Q 1175 2209 1959 2209 
L 2766 2209 
L 2766 2266 
Q 2766 2663 2505 2880 
Q 2244 3097 1772 3097 
Q 1472 3097 1187 3025 
Q 903 2953 641 2809 
L 641 3341 
Q 956 3463 1253 3523 
Q 1550 3584 1831 3584 
Q 2591 3584 2966 3190 
Q 3341 2797 3341 1997 
z
" transform="scale(0.015625)"/>
       <path id="DejaVuSans-6c" d="M 603 4863 
L 1178 4863 
L 1178 0 
L 603 0 
L 603 4863 
z
" transform="scale(0.015625)"/>
       <path id="DejaVuSans-73" d="M 2834 3397 
L 2834 2853 
Q 2591 2978 2328 3040 
Q 2066 3103 1784 3103 
Q 1356 3103 1142 2972 
Q 928 2841 928 2578 
Q 928 2378 1081 2264 
Q 1234 2150 1697 2047 
L 1894 2003 
Q 2506 1872 2764 1633 
Q 3022 1394 3022 966 
Q 3022 478 2636 193 
Q 2250 -91 1575 -91 
Q 1294 -91 989 -36 
Q 684 19 347 128 
L 347 722 
Q 666 556 975 473 
Q 1284 391 1588 391 
Q 1994 391 2212 530 
Q 2431 669 2431 922 
Q 2431 1156 2273 1281 
Q 2116 1406 1581 1522 
L 1381 1569 
Q 847 1681 609 1914 
Q 372 2147 372 2553 
Q 372 3047 722 3315 
Q 1072 3584 1716 3584 
Q 2034 3584 2315 3537 
Q 2597 3491 2834 3397 
z
" transform="scale(0.015625)"/>
       <path id="DejaVuSans-65" d="M 3597 1894 
L 3597 1613 
L 953 1613 
Q 991 1019 1311 708 
Q 1631 397 2203 397 
Q 2534 397 2845 478 
Q 3156 559 3463 722 
L 3463 178 
Q 3153 47 2828 -22 
Q 2503 -91 2169 -91 
Q 1331 -91 842 396 
Q 353 884 353 1716 
Q 353 2575 817 3079 
Q 1281 3584 2069 3584 
Q 2775 3584 3186 3129 
Q 3597 2675 3597 1894 
z
M 3022 2063 
Q 3016 2534 2758 2815 
Q 2500 3097 2075 3097 
Q 1594 3097 1305 2825 
Q 1016 2553 972 2059 
L 3022 2063 
z
" transform="scale(0.015625)"/>
       <path id="DejaVuSans-20" transform="scale(0.015625)"/>
       <path id="DejaVuSans-50" d="M 1259 4147 
L 1259 2394 
L 2053 2394 
Q 2494 2394 2734 2622 
Q 2975 2850 2975 3272 
Q 2975 3691 2734 3919 
Q 2494 4147 2053 4147 
L 1259 4147 
z
M 628 4666 
L 2053 4666 
Q 2838 4666 3239 4311 
Q 3641 3956 3641 3272 
Q 3641 2581 3239 2228 
Q 2838 1875 2053 1875 
L 1259 1875 
L 1259 0 
L 628 0 
L 628 4666 
z
" transform="scale(0.015625)"/>
       <path id="DejaVuSans-6f" d="M 1959 3097 
Q 1497 3097 1228 2736 
Q 959 2375 959 1747 
Q 959 1119 1226 758 
Q 1494 397 1959 397 
Q 2419 397 2687 759 
Q 2956 1122 2956 1747 
Q 2956 2369 2687 2733 
Q 2419 3097 1959 3097 
z
M 1959 3584 
Q 2709 3584 3137 3096 
Q 3566 2609 3566 1747 
Q 3566 888 3137 398 
Q 2709 -91 1959 -91 
Q 1206 -91 779 398 
Q 353 888 353 1747 
Q 353 2609 779 3096 
Q 1206 3584 1959 3584 
z
" transform="scale(0.015625)"/>
       <path id="DejaVuSans-69" d="M 603 3500 
L 1178 3500 
L 1178 0 
L 603 0 
L 603 3500 
z
M 603 4863 
L 1178 4863 
L 1178 4134 
L 603 4134 
L 603 4863 
z
" transform="scale(0.015625)"/>
       <path id="DejaVuSans-74" d="M 1172 4494 
L 1172 3500 
L 2356 3500 
L 2356 3053 
L 1172 3053 
L 1172 1153 
Q 1172 725 1289 603 
Q 1406 481 1766 481 
L 2356 481 
L 2356 0 
L 1766 0 
Q 1100 0 847 248 
Q 594 497 594 1153 
L 594 3053 
L 172 3053 
L 172 3500 
L 594 3500 
L 594 4494 
L 1172 4494 
z
" transform="scale(0.015625)"/>
       <path id="DejaVuSans-76" d="M 191 3500 
L 800 3500 
L 1894 563 
L 2988 3500 
L 3597 3500 
L 2284 0 
L 1503 0 
L 191 3500 
z
" transform="scale(0.015625)"/>
       <path id="DejaVuSans-52" d="M 2841 2188 
Q 3044 2119 3236 1894 
Q 3428 1669 3622 1275 
L 4263 0 
L 3584 0 
L 2988 1197 
Q 2756 1666 2539 1819 
Q 2322 1972 1947 1972 
L 1259 1972 
L 1259 0 
L 628 0 
L 628 4666 
L 2053 4666 
Q 2853 4666 3247 4331 
Q 3641 3997 3641 3322 
Q 3641 2881 3436 2590 
Q 3231 2300 2841 2188 
z
M 1259 4147 
L 1259 2491 
L 2053 2491 
Q 2509 2491 2742 2702 
Q 2975 2913 2975 3322 
Q 2975 3731 2742 3939 
Q 2509 4147 2053 4147 
L 1259 4147 
z
" transform="scale(0.015625)"/>
      </defs>
      <use xlink:href="#DejaVuSans-46"/>
      <use xlink:href="#DejaVuSans-61" transform="translate(48.394531 0)"/>
      <use xlink:href="#DejaVuSans-6c" transform="translate(109.673828 0)"/>
      <use xlink:href="#DejaVuSans-73" transform="translate(137.457031 0)"/>
      <use xlink:href="#DejaVuSans-65" transform="translate(189.556641 0)"/>
      <use xlink:href="#DejaVuSans-20" transform="translate(251.080078 0)"/>
      <use xlink:href="#DejaVuSans-50" transform="translate(282.867188 0)"/>
      <use xlink:href="#DejaVuSans-6f" transform="translate(339.544922 0)"/>
      <use xlink:href="#DejaVuSans-73" transform="translate(400.726562 0)"/>
      <use xlink:href="#DejaVuSans-69" transform="translate(452.826172 0)"/>
      <use xlink:href="#DejaVuSans-74" transform="translate(480.609375 0)"/>
      <use xlink:href="#DejaVuSans-69" transform="translate(519.818359 0)"/>
      <use xlink:href="#DejaVuSans-76" transform="translate(547.601562 0)"/>
      <use xlink:href="#DejaVuSans-65" transform="translate(606.78125 0)"/>
      <use xlink:href="#DejaVuSans-20" transform="translate(668.304688 0)"/>
      <use xlink:href="#DejaVuSans-52" transform="translate(700.091797 0)"/>
      <use xlink:href="#DejaVuSans-61" transform="translate(767.324219 0)"/>
      <use xlink:href="#DejaVuSans-74" transform="translate(828.603516 0)"/>
      <use xlink:href="#DejaVuSans-65" transform="translate(867.8125 0)"/>
     </g>
    </g>
   </g>
   <g id="matplotlib.axis_2">
    <g id="ytick_1">
     <g id="line2d_8">
      <defs>
       <path id="m5f7c59a27c" d="M 0 0 
L -3.5 0 
" style="stroke: #000000; stroke-width: 0.8"/>
      </defs>
      <g>
       <use xlink:href="#m5f7c59a27c" x="43.15875" y="243.269527" style="stroke: #000000; stroke-width: 0.8"/>
      </g>
     </g>
     <g id="text_8">
      <!-- 0.0 -->
      <g transform="translate(21.845938 246.688824) scale(0.09 -0.09)">
       <use xlink:href="#DejaVuSans-30"/>
       <use xlink:href="#DejaVuSans-2e" transform="translate(63.623047 0)"/>
       <use xlink:href="#DejaVuSans-30" transform="translate(95.410156 0)"/>
      </g>
     </g>
    </g>
    <g id="ytick_2">
     <g id="line2d_9">
      <g>
       <use xlink:href="#m5f7c59a27c" x="43.15875" y="201.183546" style="stroke: #000000; stroke-width: 0.8"/>
      </g>
     </g>
     <g id="text_9">
      <!-- 0.2 -->
      <g transform="translate(21.845938 204.602842) scale(0.09 -0.09)">
       <use xlink:href="#DejaVuSans-30"/>
       <use xlink:href="#DejaVuSans-2e" transform="translate(63.623047 0)"/>
       <use xlink:href="#DejaVuSans-32" transform="translate(95.410156 0)"/>
      </g>
     </g>
    </g>
    <g id="ytick_3">
     <g id="line2d_10">
      <g>
       <use xlink:href="#m5f7c59a27c" x="43.15875" y="159.097564" style="stroke: #000000; stroke-width: 0.8"/>
      </g>
     </g>
     <g id="text_10">
      <!-- 0.4 -->
      <g transform="translate(21.845938 162.516861) scale(0.09 -0.09)">
       <use xlink:href="#DejaVuSans-30"/>
       <use xlink:href="#DejaVuSans-2e" transform="translate(63.623047 0)"/>
       <use xlink:href="#DejaVuSans-34" transform="translate(95.410156 0)"/>
      </g>
     </g>
    </g>
    <g id="ytick_4">
     <g id="line2d_11">
      <g>
       <use xlink:href="#m5f7c59a27c" x="43.15875" y="117.011583" style="stroke: #000000; stroke-width: 0.8"/>
      </g>
     </g>
     <g id="text_11">
      <!-- 0.6 -->
      <g transform="translate(21.845938 120.43088) scale(0.09 -0.09)">
       <use xlink:href="#DejaVuSans-30"/>
       <use xlink:href="#DejaVuSans-2e" transform="translate(63.623047 0)"/>
       <use xlink:href="#DejaVuSans-36" transform="translate(95.410156 0)"/>
      </g>
     </g>
    </g>
    <g id="ytick_5">
     <g id="line2d_12">
      <g>
       <use xlink:href="#m5f7c59a27c" x="43.15875" y="74.925602" style="stroke: #000000; stroke-width: 0.8"/>
      </g>
     </g>
     <g id="text_12">
      <!-- 0.8 -->
      <g transform="translate(21.845938 78.344899) scale(0.09 -0.09)">
       <use xlink:href="#DejaVuSans-30"/>
       <use xlink:href="#DejaVuSans-2e" transform="translate(63.623047 0)"/>
       <use xlink:href="#DejaVuSans-38" transform="translate(95.410156 0)"/>
      </g>
     </g>
    </g>
    <g id="ytick_6">
     <g id="line2d_13">
      <g>
       <use xlink:href="#m5f7c59a27c" x="43.15875" y="32.83962" style="stroke: #000000; stroke-width: 0.8"/>
      </g>
     </g>
     <g id="text_13">
      <!-- 1.0 -->
      <g transform="translate(21.845938 36.258917) scale(0.09 -0.09)">
       <use xlink:href="#DejaVuSans-31"/>
       <use xlink:href="#DejaVuSans-2e" transform="translate(63.623047 0)"/>
       <use xlink:href="#DejaVuSans-30" transform="translate(95.410156 0)"/>
      </g>
     </g>
    </g>
    <g id="text_14">
     <!-- True Positive Rate -->
     <g transform="translate(15.558281 183.880781) rotate(-90) scale(0.11 -0.11)">
      <defs>
       <path id="DejaVuSans-54" d="M -19 4666 
L 3928 4666 
L 3928 4134 
L 2272 4134 
L 2272 0 
L 1638 0 
L 1638 4134 
L -19 4134 
L -19 4666 
z
" transform="scale(0.015625)"/>
       <path id="DejaVuSans-72" d="M 2631 2963 
Q 2534 3019 2420 3045 
Q 2306 3072 2169 3072 
Q 1681 3072 1420 2755 
Q 1159 2438 1159 1844 
L 1159 0 
L 581 0 
L 581 3500 
L 1159 3500 
L 1159 2956 
Q 1341 3275 1631 3429 
Q 1922 3584 2338 3584 
Q 2397 3584 2469 3576 
Q 2541 3569 2628 3553 
L 2631 2963 
z
" transform="scale(0.015625)"/>
       <path id="DejaVuSans-75" d="M 544 1381 
L 544 3500 
L 1119 3500 
L 1119 1403 
Q 1119 906 1312 657 
Q 1506 409 1894 409 
Q 2359 409 2629 706 
Q 2900 1003 2900 1516 
L 2900 3500 
L 3475 3500 
L 3475 0 
L 2900 0 
L 2900 538 
Q 2691 219 2414 64 
Q 2138 -91 1772 -91 
Q 1169 -91 856 284 
Q 544 659 544 1381 
z
M 1991 3584 
L 1991 3584 
z
" transform="scale(0.015625)"/>
      </defs>
      <use xlink:href="#DejaVuSans-54"/>
      <use xlink:href="#DejaVuSans-72" transform="translate(46.333984 0)"/>
      <use xlink:href="#DejaVuSans-75" transform="translate(87.447266 0)"/>
      <use xlink:href="#DejaVuSans-65" transform="translate(150.826172 0)"/>
      <use xlink:href="#DejaVuSans-20" transform="translate(212.349609 0)"/>
      <use xlink:href="#DejaVuSans-50" transform="translate(244.136719 0)"/>
      <use xlink:href="#DejaVuSans-6f" transform="translate(300.814453 0)"/>
      <use xlink:href="#DejaVuSans-73" transform="translate(361.996094 0)"/>
      <use xlink:href="#DejaVuSans-69" transform="translate(414.095703 0)"/>
      <use xlink:href="#DejaVuSans-74" transform="translate(441.878906 0)"/>
      <use xlink:href="#DejaVuSans-69" transform="translate(481.087891 0)"/>
      <use xlink:href="#DejaVuSans-76" transform="translate(508.871094 0)"/>
      <use xlink:href="#DejaVuSans-65" transform="translate(568.050781 0)"/>
      <use xlink:href="#DejaVuSans-20" transform="translate(629.574219 0)"/>
      <use xlink:href="#DejaVuSans-52" transform="translate(661.361328 0)"/>
      <use xlink:href="#DejaVuSans-61" transform="translate(728.59375 0)"/>
      <use xlink:href="#DejaVuSans-74" transform="translate(789.873047 0)"/>
      <use xlink:href="#DejaVuSans-65" transform="translate(829.082031 0)"/>
     </g>
    </g>
   </g>
   <g id="line2d_14">
    <path d="M 48.207497 243.269527 
L 48.207497 241.515944 
L 48.207497 211.705041 
L 49.609927 211.705041 
L 49.609927 208.197876 
L 51.012357 208.197876 
L 51.012357 195.922798 
L 52.414787 195.922798 
L 52.414787 188.908468 
L 53.817217 188.908468 
L 53.817217 176.63339 
L 55.219646 176.63339 
L 55.219646 171.372642 
L 56.622076 171.372642 
L 56.622076 164.358312 
L 58.024506 164.358312 
L 58.024506 160.851147 
L 59.426936 160.851147 
L 59.426936 153.836817 
L 62.231795 153.836817 
L 62.231795 152.083234 
L 63.634225 152.083234 
L 63.634225 148.576069 
L 65.036655 148.576069 
L 65.036655 145.068904 
L 66.439085 145.068904 
L 66.439085 143.315321 
L 67.841515 143.315321 
L 67.841515 138.054574 
L 69.243944 138.054574 
L 69.243944 129.286661 
L 70.646374 129.286661 
L 70.646374 118.765165 
L 73.451234 118.765165 
L 73.451234 117.011583 
L 76.256093 117.011583 
L 76.256093 111.750835 
L 79.060953 111.750835 
L 79.060953 106.490088 
L 80.463383 106.490088 
L 80.463383 102.982923 
L 81.865813 102.982923 
L 81.865813 99.475757 
L 86.073102 99.475757 
L 86.073102 97.722175 
L 88.877962 97.722175 
L 88.877962 95.968592 
L 91.682821 95.968592 
L 91.682821 90.707845 
L 94.487681 90.707845 
L 94.487681 83.693514 
L 104.30469 83.693514 
L 104.30469 80.186349 
L 105.707119 80.186349 
L 105.707119 76.679184 
L 108.511979 76.679184 
L 108.511979 74.925602 
L 111.316839 74.925602 
L 111.316839 71.418437 
L 112.719268 71.418437 
L 112.719268 69.664854 
L 115.524128 69.664854 
L 115.524128 67.911271 
L 116.926558 67.911271 
L 116.926558 66.157689 
L 121.133847 66.157689 
L 121.133847 64.404106 
L 128.145996 64.404106 
L 128.145996 62.650524 
L 129.548426 62.650524 
L 129.548426 60.896941 
L 132.353286 60.896941 
L 132.353286 57.389776 
L 133.755716 57.389776 
L 135.158145 55.636194 
L 135.158145 53.882611 
L 137.963005 53.882611 
L 137.963005 50.375446 
L 142.170294 50.375446 
L 142.170294 48.621863 
L 143.572724 48.621863 
L 143.572724 46.868281 
L 144.975154 46.868281 
L 144.975154 45.114698 
L 150.584873 45.114698 
L 150.584873 43.361116 
L 187.048048 43.361116 
L 187.048048 41.607533 
L 192.657768 41.607533 
L 192.657768 38.100368 
L 213.694215 38.100368 
L 213.694215 36.346785 
L 231.925802 36.346785 
L 231.925802 34.593203 
L 251.55982 34.593203 
L 251.55982 32.83962 
L 300.644863 32.83962 
" clip-path="url(#p98d9eb79aa)" style="fill: none; stroke-dasharray: 5.55,2.4; stroke-dashoffset: 0; stroke: #888888; stroke-width: 1.5"/>
   </g>
   <g id="line2d_15">
    <path d="M 48.207497 243.269527 
L 48.207497 241.515944 
L 48.207497 180.140555 
L 49.609927 180.140555 
L 49.609927 164.358312 
L 51.012357 164.358312 
L 51.012357 159.097564 
L 52.414787 159.097564 
L 52.414787 146.822486 
L 53.817217 146.822486 
L 53.817217 143.315321 
L 55.219646 143.315321 
L 55.219646 136.300991 
L 59.426936 136.300991 
L 59.426936 127.533078 
L 62.231795 127.533078 
L 62.231795 113.504418 
L 63.634225 113.504418 
L 63.634225 111.750835 
L 65.036655 111.750835 
L 65.036655 108.24367 
L 66.439085 108.24367 
L 66.439085 106.490088 
L 69.243944 106.490088 
L 69.243944 101.22934 
L 72.048804 101.22934 
L 72.048804 97.722175 
L 73.451234 97.722175 
L 73.451234 92.461427 
L 74.853664 92.461427 
L 74.853664 85.447097 
L 77.658523 85.447097 
L 77.658523 76.679184 
L 79.060953 76.679184 
L 79.060953 74.925602 
L 86.073102 74.925602 
L 86.073102 73.172019 
L 90.280392 73.172019 
L 90.280392 71.418437 
L 94.487681 71.418437 
L 94.487681 67.911271 
L 95.890111 67.911271 
L 95.890111 64.404106 
L 100.0974 64.404106 
L 100.0974 62.650524 
L 104.30469 62.650524 
L 104.30469 60.896941 
L 109.914409 60.896941 
L 109.914409 59.143359 
L 116.926558 59.143359 
L 116.926558 57.389776 
L 119.731418 57.389776 
L 119.731418 55.636194 
L 121.133847 55.636194 
L 121.133847 53.882611 
L 143.572724 53.882611 
L 143.572724 52.129028 
L 146.377584 52.129028 
L 146.377584 50.375446 
L 150.584873 50.375446 
L 150.584873 48.621863 
L 163.206742 48.621863 
L 163.206742 46.868281 
L 164.609171 46.868281 
L 164.609171 45.114698 
L 166.011601 45.114698 
L 166.011601 43.361116 
L 167.414031 43.361116 
L 167.414031 41.607533 
L 202.474776 41.607533 
L 202.474776 39.853951 
L 203.877206 39.853951 
L 203.877206 38.100368 
L 217.901504 38.100368 
L 217.901504 36.346785 
L 229.120943 36.346785 
L 229.120943 34.593203 
L 231.925802 34.593203 
L 231.925802 32.83962 
L 278.205986 32.83962 
L 281.010846 32.83962 
L 300.644863 32.83962 
" clip-path="url(#p98d9eb79aa)" style="fill: none; stroke: #2196f3; stroke-width: 1.8; stroke-linecap: square"/>
   </g>
   <g id="line2d_16">
    <path d="M 48.207497 243.269527 
L 48.207497 241.515944 
L 48.207497 132.793826 
L 49.609927 132.793826 
L 49.609927 122.272331 
L 51.012357 122.272331 
L 51.012357 111.750835 
L 52.414787 109.997253 
L 52.414787 97.722175 
L 53.817217 97.722175 
L 53.817217 87.20068 
L 56.622076 87.20068 
L 56.622076 73.172019 
L 58.024506 73.172019 
L 58.024506 69.664854 
L 60.829366 69.664854 
L 60.829366 64.404106 
L 63.634225 64.404106 
L 63.634225 62.650524 
L 65.036655 62.650524 
L 65.036655 59.143359 
L 67.841515 59.143359 
L 67.841515 55.636194 
L 70.646374 55.636194 
L 70.646374 53.882611 
L 73.451234 53.882611 
L 73.451234 50.375446 
L 84.670672 50.375446 
L 84.670672 48.621863 
L 87.475532 48.621863 
L 87.475532 46.868281 
L 97.292541 46.868281 
L 97.292541 45.114698 
L 109.914409 45.114698 
L 109.914409 43.361116 
L 115.524128 43.361116 
L 115.524128 41.607533 
L 133.755716 41.607533 
L 133.755716 39.853951 
L 150.584873 39.853951 
L 150.584873 38.100368 
L 153.389733 38.100368 
L 153.389733 36.346785 
L 171.62132 36.346785 
L 171.62132 34.593203 
L 185.645619 34.593203 
L 185.645619 32.83962 
L 300.644863 32.83962 
" clip-path="url(#p98d9eb79aa)" style="fill: none; stroke: #ff9800; stroke-width: 1.8; stroke-linecap: square"/>
   </g>
   <g id="line2d_17">
    <path d="M 48.207497 243.269527 
L 48.207497 241.515944 
L 48.207497 97.722175 
L 49.609927 97.722175 
L 49.609927 62.650524 
L 53.817217 62.650524 
L 53.817217 59.143359 
L 55.219646 59.143359 
L 55.219646 57.389776 
L 58.024506 57.389776 
L 58.024506 52.129028 
L 59.426936 52.129028 
L 59.426936 45.114698 
L 67.841515 45.114698 
L 67.841515 43.361116 
L 69.243944 43.361116 
L 69.243944 41.607533 
L 72.048804 41.607533 
L 72.048804 39.853951 
L 80.463383 39.853951 
L 80.463383 38.100368 
L 81.865813 38.100368 
L 81.865813 36.346785 
L 87.475532 36.346785 
L 87.475532 34.593203 
L 94.487681 34.593203 
L 94.487681 32.83962 
L 107.109549 32.83962 
L 109.914409 32.83962 
L 300.644863 32.83962 
" clip-path="url(#p98d9eb79aa)" style="fill: none; stroke: #e53935; stroke-width: 2.2; stroke-linecap: square"/>
   </g>
   <g id="patch_3">
    <path d="M 43.15875 247.478125 
L 43.15875 22.318125 
" style="fill: none; stroke: #000000; stroke-width: 0.8; stroke-linejoin: miter; stroke-linecap: square"/>
   </g>
   <g id="patch_4">
    <path d="M 43.15875 247.478125 
L 305.69361 247.478125 
" style="fill: none; stroke: #000000; stroke-width: 0.8; stroke-linejoin: miter; stroke-linecap: square"/>
   </g>
   <g id="text_15">
    <!-- ROC Curve -->
    <g transform="translate(138.59868 16.318125) scale(0.12 -0.12)">
     <defs>
      <path id="DejaVuSans-Bold-52" d="M 2297 2597 
Q 2675 2597 2839 2737 
Q 3003 2878 3003 3200 
Q 3003 3519 2839 3656 
Q 2675 3794 2297 3794 
L 1791 3794 
L 1791 2597 
L 2297 2597 
z
M 1791 1766 
L 1791 0 
L 588 0 
L 588 4666 
L 2425 4666 
Q 3347 4666 3776 4356 
Q 4206 4047 4206 3378 
Q 4206 2916 3982 2619 
Q 3759 2322 3309 2181 
Q 3556 2125 3751 1926 
Q 3947 1728 4147 1325 
L 4800 0 
L 3519 0 
L 2950 1159 
Q 2778 1509 2601 1637 
Q 2425 1766 2131 1766 
L 1791 1766 
z
" transform="scale(0.015625)"/>
      <path id="DejaVuSans-Bold-4f" d="M 2719 3878 
Q 2169 3878 1866 3472 
Q 1563 3066 1563 2328 
Q 1563 1594 1866 1187 
Q 2169 781 2719 781 
Q 3272 781 3575 1187 
Q 3878 1594 3878 2328 
Q 3878 3066 3575 3472 
Q 3272 3878 2719 3878 
z
M 2719 4750 
Q 3844 4750 4481 4106 
Q 5119 3463 5119 2328 
Q 5119 1197 4481 553 
Q 3844 -91 2719 -91 
Q 1597 -91 958 553 
Q 319 1197 319 2328 
Q 319 3463 958 4106 
Q 1597 4750 2719 4750 
z
" transform="scale(0.015625)"/>
      <path id="DejaVuSans-Bold-43" d="M 4288 256 
Q 3956 84 3597 -3 
Q 3238 -91 2847 -91 
Q 1681 -91 1000 561 
Q 319 1213 319 2328 
Q 319 3447 1000 4098 
Q 1681 4750 2847 4750 
Q 3238 4750 3597 4662 
Q 3956 4575 4288 4403 
L 4288 3438 
Q 3953 3666 3628 3772 
Q 3303 3878 2944 3878 
Q 2300 3878 1931 3465 
Q 1563 3053 1563 2328 
Q 1563 1606 1931 1193 
Q 2300 781 2944 781 
Q 3303 781 3628 887 
Q 3953 994 4288 1222 
L 4288 256 
z
" transform="scale(0.015625)"/>
      <path id="DejaVuSans-Bold-20" transform="scale(0.015625)"/>
      <path id="DejaVuSans-Bold-75" d="M 500 1363 
L 500 3500 
L 1625 3500 
L 1625 3150 
Q 1625 2866 1622 2436 
Q 1619 2006 1619 1863 
Q 1619 1441 1641 1255 
Q 1663 1069 1716 984 
Q 1784 875 1895 815 
Q 2006 756 2150 756 
Q 2500 756 2700 1025 
Q 2900 1294 2900 1772 
L 2900 3500 
L 4019 3500 
L 4019 0 
L 2900 0 
L 2900 506 
Q 2647 200 2364 54 
Q 2081 -91 1741 -91 
Q 1134 -91 817 281 
Q 500 653 500 1363 
z
" transform="scale(0.015625)"/>
      <path id="DejaVuSans-Bold-72" d="M 3138 2547 
Q 2991 2616 2845 2648 
Q 2700 2681 2553 2681 
Q 2122 2681 1889 2404 
Q 1656 2128 1656 1613 
L 1656 0 
L 538 0 
L 538 3500 
L 1656 3500 
L 1656 2925 
Q 1872 3269 2151 3426 
Q 2431 3584 2822 3584 
Q 2878 3584 2943 3579 
Q 3009 3575 3134 3559 
L 3138 2547 
z
" transform="scale(0.015625)"/>
      <path id="DejaVuSans-Bold-76" d="M 97 3500 
L 1216 3500 
L 2088 1081 
L 2956 3500 
L 4078 3500 
L 2700 0 
L 1472 0 
L 97 3500 
z
" transform="scale(0.015625)"/>
      <path id="DejaVuSans-Bold-65" d="M 4031 1759 
L 4031 1441 
L 1416 1441 
Q 1456 1047 1700 850 
Q 1944 653 2381 653 
Q 2734 653 3104 758 
Q 3475 863 3866 1075 
L 3866 213 
Q 3469 63 3072 -14 
Q 2675 -91 2278 -91 
Q 1328 -91 801 392 
Q 275 875 275 1747 
Q 275 2603 792 3093 
Q 1309 3584 2216 3584 
Q 3041 3584 3536 3087 
Q 4031 2591 4031 1759 
z
M 2881 2131 
Q 2881 2450 2695 2645 
Q 2509 2841 2209 2841 
Q 1884 2841 1681 2658 
Q 1478 2475 1428 2131 
L 2881 2131 
z
" transform="scale(0.015625)"/>
     </defs>
     <use xlink:href="#DejaVuSans-Bold-52"/>
     <use xlink:href="#DejaVuSans-Bold-4f" transform="translate(77.001953 0)"/>
     <use xlink:href="#DejaVuSans-Bold-43" transform="translate(162.011719 0)"/>
     <use xlink:href="#DejaVuSans-Bold-20" transform="translate(235.400391 0)"/>
     <use xlink:href="#DejaVuSans-Bold-43" transform="translate(270.214844 0)"/>
     <use xlink:href="#DejaVuSans-Bold-75" transform="translate(343.603516 0)"/>
     <use xlink:href="#DejaVuSans-Bold-72" transform="translate(414.794922 0)"/>
     <use xlink:href="#DejaVuSans-Bold-76" transform="translate(464.111328 0)"/>
     <use xlink:href="#DejaVuSans-Bold-65" transform="translate(529.296875 0)"/>
    </g>
   </g>
   <g id="legend_1">
    <g id="patch_5">
     <path d="M 155.66197 243.228125 
L 299.74361 243.228125 
Q 301.44361 243.228125 301.44361 241.528125 
L 301.44361 192.4725 
Q 301.44361 190.7725 299.74361 190.7725 
L 155.66197 190.7725 
Q 153.96197 190.7725 153.96197 192.4725 
L 153.96197 241.528125 
Q 153.96197 243.228125 155.66197 243.228125 
z
" style="fill: #ffffff; opacity: 0.9; stroke: #cccccc; stroke-linejoin: miter"/>
    </g>
    <g id="line2d_18">
     <path d="M 157.36197 197.656172 
L 165.86197 197.656172 
L 174.36197 197.656172 
" style="fill: none; stroke-dasharray: 5.55,2.4; stroke-dashoffset: 0; stroke: #888888; stroke-width: 1.5"/>
    </g>
    <g id="text_16">
     <!-- Baseline (AUROC=0.866) -->
     <g transform="translate(181.16197 200.631172) scale(0.085 -0.085)">
      <defs>
       <path id="DejaVuSans-42" d="M 1259 2228 
L 1259 519 
L 2272 519 
Q 2781 519 3026 730 
Q 3272 941 3272 1375 
Q 3272 1813 3026 2020 
Q 2781 2228 2272 2228 
L 1259 2228 
z
M 1259 4147 
L 1259 2741 
L 2194 2741 
Q 2656 2741 2882 2914 
Q 3109 3088 3109 3444 
Q 3109 3797 2882 3972 
Q 2656 4147 2194 4147 
L 1259 4147 
z
M 628 4666 
L 2241 4666 
Q 2963 4666 3353 4366 
Q 3744 4066 3744 3513 
Q 3744 3084 3544 2831 
Q 3344 2578 2956 2516 
Q 3422 2416 3680 2098 
Q 3938 1781 3938 1306 
Q 3938 681 3513 340 
Q 3088 0 2303 0 
L 628 0 
L 628 4666 
z
" transform="scale(0.015625)"/>
       <path id="DejaVuSans-6e" d="M 3513 2113 
L 3513 0 
L 2938 0 
L 2938 2094 
Q 2938 2591 2744 2837 
Q 2550 3084 2163 3084 
Q 1697 3084 1428 2787 
Q 1159 2491 1159 1978 
L 1159 0 
L 581 0 
L 581 3500 
L 1159 3500 
L 1159 2956 
Q 1366 3272 1645 3428 
Q 1925 3584 2291 3584 
Q 2894 3584 3203 3211 
Q 3513 2838 3513 2113 
z
" transform="scale(0.015625)"/>
       <path id="DejaVuSans-28" d="M 1984 4856 
Q 1566 4138 1362 3434 
Q 1159 2731 1159 2009 
Q 1159 1288 1364 580 
Q 1569 -128 1984 -844 
L 1484 -844 
Q 1016 -109 783 600 
Q 550 1309 550 2009 
Q 550 2706 781 3412 
Q 1013 4119 1484 4856 
L 1984 4856 
z
" transform="scale(0.015625)"/>
       <path id="DejaVuSans-41" d="M 2188 4044 
L 1331 1722 
L 3047 1722 
L 2188 4044 
z
M 1831 4666 
L 2547 4666 
L 4325 0 
L 3669 0 
L 3244 1197 
L 1141 1197 
L 716 0 
L 50 0 
L 1831 4666 
z
" transform="scale(0.015625)"/>
       <path id="DejaVuSans-55" d="M 556 4666 
L 1191 4666 
L 1191 1831 
Q 1191 1081 1462 751 
Q 1734 422 2344 422 
Q 2950 422 3222 751 
Q 3494 1081 3494 1831 
L 3494 4666 
L 4128 4666 
L 4128 1753 
Q 4128 841 3676 375 
Q 3225 -91 2344 -91 
Q 1459 -91 1007 375 
Q 556 841 556 1753 
L 556 4666 
z
" transform="scale(0.015625)"/>
       <path id="DejaVuSans-4f" d="M 2522 4238 
Q 1834 4238 1429 3725 
Q 1025 3213 1025 2328 
Q 1025 1447 1429 934 
Q 1834 422 2522 422 
Q 3209 422 3611 934 
Q 4013 1447 4013 2328 
Q 4013 3213 3611 3725 
Q 3209 4238 2522 4238 
z
M 2522 4750 
Q 3503 4750 4090 4092 
Q 4678 3434 4678 2328 
Q 4678 1225 4090 567 
Q 3503 -91 2522 -91 
Q 1538 -91 948 565 
Q 359 1222 359 2328 
Q 359 3434 948 4092 
Q 1538 4750 2522 4750 
z
" transform="scale(0.015625)"/>
       <path id="DejaVuSans-43" d="M 4122 4306 
L 4122 3641 
Q 3803 3938 3442 4084 
Q 3081 4231 2675 4231 
Q 1875 4231 1450 3742 
Q 1025 3253 1025 2328 
Q 1025 1406 1450 917 
Q 1875 428 2675 428 
Q 3081 428 3442 575 
Q 3803 722 4122 1019 
L 4122 359 
Q 3791 134 3420 21 
Q 3050 -91 2638 -91 
Q 1578 -91 968 557 
Q 359 1206 359 2328 
Q 359 3453 968 4101 
Q 1578 4750 2638 4750 
Q 3056 4750 3426 4639 
Q 3797 4528 4122 4306 
z
" transform="scale(0.015625)"/>
       <path id="DejaVuSans-3d" d="M 678 2906 
L 4684 2906 
L 4684 2381 
L 678 2381 
L 678 2906 
z
M 678 1631 
L 4684 1631 
L 4684 1100 
L 678 1100 
L 678 1631 
z
" transform="scale(0.015625)"/>
       <path id="DejaVuSans-29" d="M 513 4856 
L 1013 4856 
Q 1481 4119 1714 3412 
Q 1947 2706 1947 2009 
Q 1947 1309 1714 600 
Q 1481 -109 1013 -844 
L 513 -844 
Q 928 -128 1133 580 
Q 1338 1288 1338 2009 
Q 1338 2731 1133 3434 
Q 928 4138 513 4856 
z
" transform="scale(0.015625)"/>
      </defs>
      <use xlink:href="#DejaVuSans-42"/>
      <use xlink:href="#DejaVuSans-61" transform="translate(68.603516 0)"/>
      <use xlink:href="#DejaVuSans-73" transform="translate(129.882812 0)"/>
      <use xlink:href="#DejaVuSans-65" transform="translate(181.982422 0)"/>
      <use xlink:href="#DejaVuSans-6c" transform="translate(243.505859 0)"/>
      <use xlink:href="#DejaVuSans-69" transform="translate(271.289062 0)"/>
      <use xlink:href="#DejaVuSans-6e" transform="translate(299.072266 0)"/>
      <use xlink:href="#DejaVuSans-65" transform="translate(362.451172 0)"/>
      <use xlink:href="#DejaVuSans-20" transform="translate(423.974609 0)"/>
      <use xlink:href="#DejaVuSans-28" transform="translate(455.761719 0)"/>
      <use xlink:href="#DejaVuSans-41" transform="translate(494.775391 0)"/>
      <use xlink:href="#DejaVuSans-55" transform="translate(563.183594 0)"/>
      <use xlink:href="#DejaVuSans-52" transform="translate(636.376953 0)"/>
      <use xlink:href="#DejaVuSans-4f" transform="translate(705.859375 0)"/>
      <use xlink:href="#DejaVuSans-43" transform="translate(784.570312 0)"/>
      <use xlink:href="#DejaVuSans-3d" transform="translate(854.394531 0)"/>
      <use xlink:href="#DejaVuSans-30" transform="translate(938.183594 0)"/>
      <use xlink:href="#DejaVuSans-2e" transform="translate(1001.806641 0)"/>
      <use xlink:href="#DejaVuSans-38" transform="translate(1033.59375 0)"/>
      <use xlink:href="#DejaVuSans-36" transform="translate(1097.216797 0)"/>
      <use xlink:href="#DejaVuSans-36" transform="translate(1160.839844 0)"/>
      <use xlink:href="#DejaVuSans-29" transform="translate(1224.462891 0)"/>
     </g>
    </g>
    <g id="line2d_19">
     <path d="M 157.36197 210.132578 
L 165.86197 210.132578 
L 174.36197 210.132578 
" style="fill: none; stroke: #2196f3; stroke-width: 1.8; stroke-linecap: square"/>
    </g>
    <g id="text_17">
     <!-- Method-A (AUROC=0.899) -->
     <g transform="translate(181.16197 213.107578) scale(0.085 -0.085)">
      <defs>
       <path id="DejaVuSans-4d" d="M 628 4666 
L 1569 4666 
L 2759 1491 
L 3956 4666 
L 4897 4666 
L 4897 0 
L 4281 0 
L 4281 4097 
L 3078 897 
L 2444 897 
L 1241 4097 
L 1241 0 
L 628 0 
L 628 4666 
z
" transform="scale(0.015625)"/>
       <path id="DejaVuSans-68" d="M 3513 2113 
L 3513 0 
L 2938 0 
L 2938 2094 
Q 2938 2591 2744 2837 
Q 2550 3084 2163 3084 
Q 1697 3084 1428 2787 
Q 1159 2491 1159 1978 
L 1159 0 
L 581 0 
L 581 4863 
L 1159 4863 
L 1159 2956 
Q 1366 3272 1645 3428 
Q 1925 3584 2291 3584 
Q 2894 3584 3203 3211 
Q 3513 2838 3513 2113 
z
" transform="scale(0.015625)"/>
       <path id="DejaVuSans-64" d="M 2906 2969 
L 2906 4863 
L 3481 4863 
L 3481 0 
L 2906 0 
L 2906 525 
Q 2725 213 2448 61 
Q 2172 -91 1784 -91 
Q 1150 -91 751 415 
Q 353 922 353 1747 
Q 353 2572 751 3078 
Q 1150 3584 1784 3584 
Q 2172 3584 2448 3432 
Q 2725 3281 2906 2969 
z
M 947 1747 
Q 947 1113 1208 752 
Q 1469 391 1925 391 
Q 2381 391 2643 752 
Q 2906 1113 2906 1747 
Q 2906 2381 2643 2742 
Q 2381 3103 1925 3103 
Q 1469 3103 1208 2742 
Q 947 2381 947 1747 
z
" transform="scale(0.015625)"/>
       <path id="DejaVuSans-2d" d="M 313 2009 
L 1997 2009 
L 1997 1497 
L 313 1497 
L 313 2009 
z
" transform="scale(0.015625)"/>
       <path id="DejaVuSans-39" d="M 703 97 
L 703 672 
Q 941 559 1184 500 
Q 1428 441 1663 441 
Q 2288 441 2617 861 
Q 2947 1281 2994 2138 
Q 2813 1869 2534 1725 
Q 2256 1581 1919 1581 
Q 1219 1581 811 2004 
Q 403 2428 403 3163 
Q 403 3881 828 4315 
Q 1253 4750 1959 4750 
Q 2769 4750 3195 4129 
Q 3622 3509 3622 2328 
Q 3622 1225 3098 567 
Q 2575 -91 1691 -91 
Q 1453 -91 1209 -44 
Q 966 3 703 97 
z
M 1959 2075 
Q 2384 2075 2632 2365 
Q 2881 2656 2881 3163 
Q 2881 3666 2632 3958 
Q 2384 4250 1959 4250 
Q 1534 4250 1286 3958 
Q 1038 3666 1038 3163 
Q 1038 2656 1286 2365 
Q 1534 2075 1959 2075 
z
" transform="scale(0.015625)"/>
      </defs>
      <use xlink:href="#DejaVuSans-4d"/>
      <use xlink:href="#DejaVuSans-65" transform="translate(86.279297 0)"/>
      <use xlink:href="#DejaVuSans-74" transform="translate(147.802734 0)"/>
      <use xlink:href="#DejaVuSans-68" transform="translate(187.011719 0)"/>
      <use xlink:href="#DejaVuSans-6f" transform="translate(250.390625 0)"/>
      <use xlink:href="#DejaVuSans-64" transform="translate(311.572266 0)"/>
      <use xlink:href="#DejaVuSans-2d" transform="translate(375.048828 0)"/>
      <use xlink:href="#DejaVuSans-41" transform="translate(408.882812 0)"/>
      <use xlink:href="#DejaVuSans-20" transform="translate(477.291016 0)"/>
      <use xlink:href="#DejaVuSans-28" transform="translate(509.078125 0)"/>
      <use xlink:href="#DejaVuSans-41" transform="translate(548.091797 0)"/>
      <use xlink:href="#DejaVuSans-55" transform="translate(616.5 0)"/>
      <use xlink:href="#DejaVuSans-52" transform="translate(689.693359 0)"/>
      <use xlink:href="#DejaVuSans-4f" transform="translate(759.175781 0)"/>
      <use xlink:href="#DejaVuSans-43" transform="translate(837.886719 0)"/>
      <use xlink:href="#DejaVuSans-3d" transform="translate(907.710938 0)"/>
      <use xlink:href="#DejaVuSans-30" transform="translate(991.5 0)"/>
      <use xlink:href="#DejaVuSans-2e" transform="translate(1055.123047 0)"/>
      <use xlink:href="#DejaVuSans-38" transform="translate(1086.910156 0)"/>
      <use xlink:href="#DejaVuSans-39" transform="translate(1150.533203 0)"/>
      <use xlink:href="#DejaVuSans-39" transform="translate(1214.15625 0)"/>
      <use xlink:href="#DejaVuSans-29" transform="translate(1277.779297 0)"/>
     </g>
    </g>
    <g id="line2d_20">
     <path d="M 157.36197 222.608984 
L 165.86197 222.608984 
L 174.36197 222.608984 
" style="fill: none; stroke: #ff9800; stroke-width: 1.8; stroke-linecap: square"/>
    </g>
    <g id="text_18">
     <!-- Method-B (AUROC=0.961) -->
     <g transform="translate(181.16197 225.583984) scale(0.085 -0.085)">
      <use xlink:href="#DejaVuSans-4d"/>
      <use xlink:href="#DejaVuSans-65" transform="translate(86.279297 0)"/>
      <use xlink:href="#DejaVuSans-74" transform="translate(147.802734 0)"/>
      <use xlink:href="#DejaVuSans-68" transform="translate(187.011719 0)"/>
      <use xlink:href="#DejaVuSans-6f" transform="translate(250.390625 0)"/>
      <use xlink:href="#DejaVuSans-64" transform="translate(311.572266 0)"/>
      <use xlink:href="#DejaVuSans-2d" transform="translate(375.048828 0)"/>
      <use xlink:href="#DejaVuSans-42" transform="translate(407.507812 0)"/>
      <use xlink:href="#DejaVuSans-20" transform="translate(476.111328 0)"/>
      <use xlink:href="#DejaVuSans-28" transform="translate(507.898438 0)"/>
      <use xlink:href="#DejaVuSans-41" transform="translate(546.912109 0)"/>
      <use xlink:href="#DejaVuSans-55" transform="translate(615.320312 0)"/>
      <use xlink:href="#DejaVuSans-52" transform="translate(688.513672 0)"/>
      <use xlink:href="#DejaVuSans-4f" transform="translate(757.996094 0)"/>
      <use xlink:href="#DejaVuSans-43" transform="translate(836.707031 0)"/>
      <use xlink:href="#DejaVuSans-3d" transform="translate(906.53125 0)"/>
      <use xlink:href="#DejaVuSans-30" transform="translate(990.320312 0)"/>
      <use xlink:href="#DejaVuSans-2e" transform="translate(1053.943359 0)"/>
      <use xlink:href="#DejaVuSans-39" transform="translate(1085.730469 0)"/>
      <use xlink:href="#DejaVuSans-36" transform="translate(1149.353516 0)"/>
      <use xlink:href="#DejaVuSans-31" transform="translate(1212.976562 0)"/>
      <use xlink:href="#DejaVuSans-29" transform="translate(1276.599609 0)"/>
     </g>
    </g>
    <g id="line2d_21">
     <path d="M 157.36197 235.085391 
L 165.86197 235.085391 
L 174.36197 235.085391 
" style="fill: none; stroke: #e53935; stroke-width: 2.2; stroke-linecap: square"/>
    </g>
    <g id="text_19">
     <!-- OursModel (AUROC=0.989) -->
     <g transform="translate(181.16197 238.060391) scale(0.085 -0.085)">
      <use xlink:href="#DejaVuSans-4f"/>
      <use xlink:href="#DejaVuSans-75" transform="translate(78.710938 0)"/>
      <use xlink:href="#DejaVuSans-72" transform="translate(142.089844 0)"/>
      <use xlink:href="#DejaVuSans-73" transform="translate(183.203125 0)"/>
      <use xlink:href="#DejaVuSans-4d" transform="translate(235.302734 0)"/>
      <use xlink:href="#DejaVuSans-6f" transform="translate(321.582031 0)"/>
      <use xlink:href="#DejaVuSans-64" transform="translate(382.763672 0)"/>
      <use xlink:href="#DejaVuSans-65" transform="translate(446.240234 0)"/>
      <use xlink:href="#DejaVuSans-6c" transform="translate(507.763672 0)"/>
      <use xlink:href="#DejaVuSans-20" transform="translate(535.546875 0)"/>
      <use xlink:href="#DejaVuSans-28" transform="translate(567.333984 0)"/>
      <use xlink:href="#DejaVuSans-41" transform="translate(606.347656 0)"/>
      <use xlink:href="#DejaVuSans-55" transform="translate(674.755859 0)"/>
      <use xlink:href="#DejaVuSans-52" transform="translate(747.949219 0)"/>
      <use xlink:href="#DejaVuSans-4f" transform="translate(817.431641 0)"/>
      <use xlink:href="#DejaVuSans-43" transform="translate(896.142578 0)"/>
      <use xlink:href="#DejaVuSans-3d" transform="translate(965.966797 0)"/>
      <use xlink:href="#DejaVuSans-30" transform="translate(1049.755859 0)"/>
      <use xlink:href="#DejaVuSans-2e" transform="translate(1113.378906 0)"/>
      <use xlink:href="#DejaVuSans-39" transform="translate(1145.166016 0)"/>
      <use xlink:href="#DejaVuSans-38" transform="translate(1208.789062 0)"/>
      <use xlink:href="#DejaVuSans-39" transform="translate(1272.412109 0)"/>
      <use xlink:href="#DejaVuSans-29" transform="translate(1336.035156 0)"/>
     </g>
    </g>
   </g>
  </g>
  <g id="axes_2">
   <g id="patch_6">
    <path d="M 359.65875 247.478125 
L 622.19361 247.478125 
L 622.19361 22.318125 
L 359.65875 22.318125 
z
" style="fill: #ffffff"/>
   </g>
   <g id="line2d_22">
    <path d="M 359.65875 159.097564 
L 622.19361 159.097564 
" clip-path="url(#pe8cbed8032)" style="fill: none; stroke-dasharray: 1.2,1.98; stroke-dashoffset: 0; stroke: #cccccc; stroke-width: 1.2"/>
   </g>
   <g id="matplotlib.axis_3">
    <g id="xtick_7">
     <g id="line2d_23">
      <g>
       <use xlink:href="#m70ba49b177" x="364.707497" y="247.478125" style="stroke: #000000; stroke-width: 0.8"/>
      </g>
     </g>
     <g id="text_20">
      <!-- 0.0 -->
      <g transform="translate(357.551091 261.316719) scale(0.09 -0.09)">
       <use xlink:href="#DejaVuSans-30"/>
       <use xlink:href="#DejaVuSans-2e" transform="translate(63.623047 0)"/>
       <use xlink:href="#DejaVuSans-30" transform="translate(95.410156 0)"/>
      </g>
     </g>
    </g>
    <g id="xtick_8">
     <g id="line2d_24">
      <g>
       <use xlink:href="#m70ba49b177" x="415.19497" y="247.478125" style="stroke: #000000; stroke-width: 0.8"/>
      </g>
     </g>
     <g id="text_21">
      <!-- 0.2 -->
      <g transform="translate(408.038564 261.316719) scale(0.09 -0.09)">
       <use xlink:href="#DejaVuSans-30"/>
       <use xlink:href="#DejaVuSans-2e" transform="translate(63.623047 0)"/>
       <use xlink:href="#DejaVuSans-32" transform="translate(95.410156 0)"/>
      </g>
     </g>
    </g>
    <g id="xtick_9">
     <g id="line2d_25">
      <g>
       <use xlink:href="#m70ba49b177" x="465.682444" y="247.478125" style="stroke: #000000; stroke-width: 0.8"/>
      </g>
     </g>
     <g id="text_22">
      <!-- 0.4 -->
      <g transform="translate(458.526037 261.316719) scale(0.09 -0.09)">
       <use xlink:href="#DejaVuSans-30"/>
       <use xlink:href="#DejaVuSans-2e" transform="translate(63.623047 0)"/>
       <use xlink:href="#DejaVuSans-34" transform="translate(95.410156 0)"/>
      </g>
     </g>
    </g>
    <g id="xtick_10">
     <g id="line2d_26">
      <g>
       <use xlink:href="#m70ba49b177" x="516.169917" y="247.478125" style="stroke: #000000; stroke-width: 0.8"/>
      </g>
     </g>
     <g id="text_23">
      <!-- 0.6 -->
      <g transform="translate(509.01351 261.316719) scale(0.09 -0.09)">
       <use xlink:href="#DejaVuSans-30"/>
       <use xlink:href="#DejaVuSans-2e" transform="translate(63.623047 0)"/>
       <use xlink:href="#DejaVuSans-36" transform="translate(95.410156 0)"/>
      </g>
     </g>
    </g>
    <g id="xtick_11">
     <g id="line2d_27">
      <g>
       <use xlink:href="#m70ba49b177" x="566.65739" y="247.478125" style="stroke: #000000; stroke-width: 0.8"/>
      </g>
     </g>
     <g id="text_24">
      <!-- 0.8 -->
      <g transform="translate(559.500983 261.316719) scale(0.09 -0.09)">
       <use xlink:href="#DejaVuSans-30"/>
       <use xlink:href="#DejaVuSans-2e" transform="translate(63.623047 0)"/>
       <use xlink:href="#DejaVuSans-38" transform="translate(95.410156 0)"/>
      </g>
     </g>
    </g>
    <g id="xtick_12">
     <g id="line2d_28">
      <g>
       <use xlink:href="#m70ba49b177" x="617.144863" y="247.478125" style="stroke: #000000; stroke-width: 0.8"/>
      </g>
     </g>
     <g id="text_25">
      <!-- 1.0 -->
      <g transform="translate(609.988457 261.316719) scale(0.09 -0.09)">
       <use xlink:href="#DejaVuSans-31"/>
       <use xlink:href="#DejaVuSans-2e" transform="translate(63.623047 0)"/>
       <use xlink:href="#DejaVuSans-30" transform="translate(95.410156 0)"/>
      </g>
     </g>
    </g>
    <g id="text_26">
     <!-- Recall -->
     <g transform="translate(474.517274 275.546719) scale(0.11 -0.11)">
      <defs>
       <path id="DejaVuSans-63" d="M 3122 3366 
L 3122 2828 
Q 2878 2963 2633 3030 
Q 2388 3097 2138 3097 
Q 1578 3097 1268 2742 
Q 959 2388 959 1747 
Q 959 1106 1268 751 
Q 1578 397 2138 397 
Q 2388 397 2633 464 
Q 2878 531 3122 666 
L 3122 134 
Q 2881 22 2623 -34 
Q 2366 -91 2075 -91 
Q 1284 -91 818 406 
Q 353 903 353 1747 
Q 353 2603 823 3093 
Q 1294 3584 2113 3584 
Q 2378 3584 2631 3529 
Q 2884 3475 3122 3366 
z
" transform="scale(0.015625)"/>
      </defs>
      <use xlink:href="#DejaVuSans-52"/>
      <use xlink:href="#DejaVuSans-65" transform="translate(64.982422 0)"/>
      <use xlink:href="#DejaVuSans-63" transform="translate(126.505859 0)"/>
      <use xlink:href="#DejaVuSans-61" transform="translate(181.486328 0)"/>
      <use xlink:href="#DejaVuSans-6c" transform="translate(242.765625 0)"/>
      <use xlink:href="#DejaVuSans-6c" transform="translate(270.548828 0)"/>
     </g>
    </g>
   </g>
   <g id="matplotlib.axis_4">
    <g id="ytick_7">
     <g id="line2d_29">
      <g>
       <use xlink:href="#m5f7c59a27c" x="359.65875" y="243.269527" style="stroke: #000000; stroke-width: 0.8"/>
      </g>
     </g>
     <g id="text_27">
      <!-- 0.0 -->
      <g transform="translate(338.345937 246.688824) scale(0.09 -0.09)">
       <use xlink:href="#DejaVuSans-30"/>
       <use xlink:href="#DejaVuSans-2e" transform="translate(63.623047 0)"/>
       <use xlink:href="#DejaVuSans-30" transform="translate(95.410156 0)"/>
      </g>
     </g>
    </g>
    <g id="ytick_8">
     <g id="line2d_30">
      <g>
       <use xlink:href="#m5f7c59a27c" x="359.65875" y="201.183546" style="stroke: #000000; stroke-width: 0.8"/>
      </g>
     </g>
     <g id="text_28">
      <!-- 0.2 -->
      <g transform="translate(338.345937 204.602842) scale(0.09 -0.09)">
       <use xlink:href="#DejaVuSans-30"/>
       <use xlink:href="#DejaVuSans-2e" transform="translate(63.623047 0)"/>
       <use xlink:href="#DejaVuSans-32" transform="translate(95.410156 0)"/>
      </g>
     </g>
    </g>
    <g id="ytick_9">
     <g id="line2d_31">
      <g>
       <use xlink:href="#m5f7c59a27c" x="359.65875" y="159.097564" style="stroke: #000000; stroke-width: 0.8"/>
      </g>
     </g>
     <g id="text_29">
      <!-- 0.4 -->
      <g transform="translate(338.345937 162.516861) scale(0.09 -0.09)">
       <use xlink:href="#DejaVuSans-30"/>
       <use xlink:href="#DejaVuSans-2e" transform="translate(63.623047 0)"/>
       <use xlink:href="#DejaVuSans-34" transform="translate(95.410156 0)"/>
      </g>
     </g>
    </g>
    <g id="ytick_10">
     <g id="line2d_32">
      <g>
       <use xlink:href="#m5f7c59a27c" x="359.65875" y="117.011583" style="stroke: #000000; stroke-width: 0.8"/>
      </g>
     </g>
     <g id="text_30">
      <!-- 0.6 -->
      <g transform="translate(338.345937 120.43088) scale(0.09 -0.09)">
       <use xlink:href="#DejaVuSans-30"/>
       <use xlink:href="#DejaVuSans-2e" transform="translate(63.623047 0)"/>
       <use xlink:href="#DejaVuSans-36" transform="translate(95.410156 0)"/>
      </g>
     </g>
    </g>
    <g id="ytick_11">
     <g id="line2d_33">
      <g>
       <use xlink:href="#m5f7c59a27c" x="359.65875" y="74.925602" style="stroke: #000000; stroke-width: 0.8"/>
      </g>
     </g>
     <g id="text_31">
      <!-- 0.8 -->
      <g transform="translate(338.345937 78.344899) scale(0.09 -0.09)">
       <use xlink:href="#DejaVuSans-30"/>
       <use xlink:href="#DejaVuSans-2e" transform="translate(63.623047 0)"/>
       <use xlink:href="#DejaVuSans-38" transform="translate(95.410156 0)"/>
      </g>
     </g>
    </g>
    <g id="ytick_12">
     <g id="line2d_34">
      <g>
       <use xlink:href="#m5f7c59a27c" x="359.65875" y="32.83962" style="stroke: #000000; stroke-width: 0.8"/>
      </g>
     </g>
     <g id="text_32">
      <!-- 1.0 -->
      <g transform="translate(338.345937 36.258917) scale(0.09 -0.09)">
       <use xlink:href="#DejaVuSans-31"/>
       <use xlink:href="#DejaVuSans-2e" transform="translate(63.623047 0)"/>
       <use xlink:href="#DejaVuSans-30" transform="translate(95.410156 0)"/>
      </g>
     </g>
    </g>
    <g id="text_33">
     <!-- Precision -->
     <g transform="translate(332.058281 159.435859) rotate(-90) scale(0.11 -0.11)">
      <use xlink:href="#DejaVuSans-50"/>
      <use xlink:href="#DejaVuSans-72" transform="translate(58.552734 0)"/>
      <use xlink:href="#DejaVuSans-65" transform="translate(97.416016 0)"/>
      <use xlink:href="#DejaVuSans-63" transform="translate(158.939453 0)"/>
      <use xlink:href="#DejaVuSans-69" transform="translate(213.919922 0)"/>
      <use xlink:href="#DejaVuSans-73" transform="translate(241.703125 0)"/>
      <use xlink:href="#DejaVuSans-69" transform="translate(293.802734 0)"/>
      <use xlink:href="#DejaVuSans-6f" transform="translate(321.585938 0)"/>
      <use xlink:href="#DejaVuSans-6e" transform="translate(382.767578 0)"/>
     </g>
    </g>
   </g>
   <g id="line2d_35">
    <path d="M 617.144863 159.097564 
L 617.144863 147.980513 
L 615.041218 148.416652 
L 615.041218 143.104891 
L 612.937573 143.547724 
L 612.937573 138.054574 
L 610.833929 138.502297 
L 610.833929 131.359077 
L 606.626639 132.262925 
L 606.626639 130.188035 
L 604.522995 130.64507 
L 604.522995 114.986054 
L 602.41935 115.427702 
L 602.41935 112.617991 
L 600.315705 113.058756 
L 600.315705 112.335363 
L 598.21206 112.779473 
L 598.21206 112.046383 
L 596.108416 112.493879 
L 596.108416 110.239126 
L 591.901126 111.13912 
L 591.901126 109.584645 
L 589.797482 110.038758 
L 587.693837 109.703239 
L 587.693837 108.898623 
L 583.486547 109.826172 
L 583.486547 108.178723 
L 581.382903 108.646667 
L 581.382903 107.805275 
L 579.279258 108.276757 
L 579.279258 103.893874 
L 577.175613 104.358281 
L 577.175613 101.580056 
L 575.071969 102.041402 
L 575.071969 101.087158 
L 572.968324 101.551427 
L 572.968324 99.596694 
L 570.864679 100.060285 
L 570.864679 99.058822 
L 566.65739 99.998101 
L 566.65739 97.936642 
L 564.553745 98.408359 
L 564.553745 96.278048 
L 560.346456 97.22489 
L 560.346456 96.12681 
L 556.139166 97.093027 
L 556.139166 88.841128 
L 547.724587 90.707845 
L 547.724587 88.122053 
L 541.413653 89.564204 
L 541.413653 86.843756 
L 539.310008 87.325935 
L 539.310008 84.490597 
L 537.206364 84.96446 
L 537.206364 80.484127 
L 532.999074 81.400368 
L 532.999074 79.828823 
L 528.791785 80.759302 
L 528.791785 79.1342 
L 522.480851 80.565991 
L 522.480851 77.140653 
L 516.169917 78.585252 
L 516.169917 74.925602 
L 514.066272 75.398478 
L 514.066272 71.539373 
L 503.548048 73.899114 
L 501.444404 74.406022 
L 501.444404 72.295228 
L 493.029825 74.371839 
L 490.92618 74.925602 
L 490.92618 72.650684 
L 484.615246 74.332841 
L 484.615246 71.91946 
L 482.511601 72.485835 
L 482.511601 69.97431 
L 478.304312 71.099603 
L 478.304312 68.450835 
L 474.097022 69.58135 
L 474.097022 66.779928 
L 471.993378 67.336326 
L 471.993378 61.372489 
L 463.578799 63.447607 
L 463.578799 60.117571 
L 459.371509 61.166723 
L 459.371509 57.59608 
L 453.060575 59.143359 
L 450.956931 59.703013 
L 450.956931 55.712436 
L 444.645996 57.308214 
L 444.645996 52.880564 
L 438.335062 54.422175 
L 432.024128 56.220721 
L 429.920483 56.888753 
L 429.920483 51.406965 
L 423.609549 53.203805 
L 421.505905 53.882611 
L 421.505905 47.352028 
L 417.298615 48.427021 
L 413.091326 49.674013 
L 408.884036 51.137873 
L 406.780392 51.969612 
L 406.780392 42.860092 
L 402.573102 43.914879 
L 402.573102 32.83962 
L 364.707497 32.83962 
L 364.707497 32.83962 
" clip-path="url(#pe8cbed8032)" style="fill: none; stroke-dasharray: 5.55,2.4; stroke-dashoffset: 0; stroke: #888888; stroke-width: 1.5"/>
   </g>
   <g id="line2d_36">
    <path d="M 617.144863 159.097564 
L 617.144863 142.665587 
L 615.041218 143.104891 
L 615.041218 142.297112 
L 612.937573 142.74026 
L 612.937573 139.375263 
L 610.833929 139.822892 
L 610.833929 135.285759 
L 608.730284 135.737064 
L 608.730284 135.261256 
L 606.626639 135.716464 
L 606.626639 122.272331 
L 604.522995 122.721741 
L 604.522995 122.112914 
L 602.41935 122.566078 
L 602.41935 121.950244 
L 600.315705 122.407222 
L 600.315705 121.78422 
L 598.21206 122.245073 
L 598.21206 116.325398 
L 596.108416 116.781605 
L 596.108416 114.673473 
L 594.004771 115.130645 
L 594.004771 113.682748 
L 591.901126 114.142084 
L 591.901126 101.22934 
L 589.797482 101.659464 
L 589.797482 100.763198 
L 587.693837 101.195832 
L 587.693837 99.362623 
L 585.590192 99.794591 
L 585.590192 94.979995 
L 583.486547 95.399863 
L 583.486547 91.292372 
L 581.382903 91.701133 
L 581.382903 88.453238 
L 579.279258 88.853336 
L 579.279258 85.447097 
L 575.071969 86.232283 
L 575.071969 85.051552 
L 570.864679 85.848681 
L 570.864679 82.15913 
L 568.761034 82.547472 
L 568.761034 78.659035 
L 566.65739 79.031551 
L 566.65739 72.072315 
L 564.553745 72.407637 
L 564.553745 70.93469 
L 554.035521 72.650684 
L 554.035521 69.520063 
L 545.620943 70.917413 
L 545.620943 69.260181 
L 539.310008 70.34198 
L 539.310008 68.612704 
L 535.102719 69.342767 
L 535.102719 65.719293 
L 528.791785 66.779928 
L 528.791785 62.901036 
L 526.68814 63.235051 
L 526.68814 61.212192 
L 522.480851 61.864435 
L 522.480851 59.755073 
L 520.377206 60.071726 
L 520.377206 57.8908 
L 509.858982 59.476317 
L 503.548048 60.527766 
L 503.548048 55.588799 
L 493.029825 57.237291 
L 493.029825 48.78128 
L 484.615246 49.809774 
L 484.615246 46.638303 
L 480.407957 47.106055 
L 480.407957 43.723926 
L 467.786088 44.979807 
L 465.682444 45.21785 
L 465.682444 41.256817 
L 459.371509 41.794084 
L 459.371509 37.414184 
L 444.645996 38.235259 
L 440.438707 38.526915 
L 440.438707 32.83962 
L 364.707497 32.83962 
L 364.707497 32.83962 
" clip-path="url(#pe8cbed8032)" style="fill: none; stroke: #2196f3; stroke-width: 1.8; stroke-linecap: square"/>
   </g>
   <g id="line2d_37">
    <path d="M 617.144863 159.097564 
L 617.144863 127.436551 
L 615.041218 127.872481 
L 615.041218 122.297745 
L 612.937573 122.732008 
L 612.937573 114.6129 
L 610.833929 115.038803 
L 610.833929 113.689005 
L 608.730284 114.11678 
L 608.730284 105.360662 
L 606.626639 105.772713 
L 606.626639 94.806709 
L 604.522995 95.189222 
L 604.522995 91.440354 
L 602.41935 91.813607 
L 602.41935 82.60345 
L 600.315705 82.941979 
L 600.315705 74.925602 
L 598.21206 75.228378 
L 598.21206 72.775223 
L 596.108416 73.068867 
L 596.108416 62.431326 
L 591.901126 62.901036 
L 591.901126 59.991866 
L 589.797482 60.212616 
L 589.797482 57.186882 
L 585.590192 57.59608 
L 585.590192 54.422175 
L 581.382903 54.797524 
L 581.382903 53.14426 
L 579.279258 53.323948 
L 579.279258 49.901505 
L 572.968324 50.375446 
L 572.968324 46.735935 
L 568.761034 47.003172 
L 568.761034 45.097673 
L 551.931877 46.12993 
L 551.931877 41.890369 
L 539.310008 42.514559 
L 539.310008 40.180198 
L 524.584495 40.830629 
L 522.480851 38.305332 
L 509.858982 38.767223 
L 509.858982 35.845762 
L 497.237114 36.127588 
L 497.237114 32.83962 
L 364.707497 32.83962 
L 364.707497 32.83962 
" clip-path="url(#pe8cbed8032)" style="fill: none; stroke: #ff9800; stroke-width: 1.8; stroke-linecap: square"/>
   </g>
   <g id="line2d_38">
    <path d="M 617.144863 159.097564 
L 617.144863 78.226463 
L 615.041218 78.525061 
L 615.041218 72.921507 
L 612.937573 73.196041 
L 612.937573 68.405238 
L 610.833929 68.657477 
L 610.833929 67.410248 
L 608.730284 67.658957 
L 608.730284 59.736676 
L 606.626639 59.940442 
L 606.626639 57.119994 
L 604.522995 57.308214 
L 604.522995 55.855391 
L 602.41935 56.036618 
L 602.41935 46.752341 
L 594.004771 47.22799 
L 594.004771 45.537977 
L 587.693837 45.875101 
L 587.693837 42.318445 
L 585.590192 42.404616 
L 585.590192 40.561819 
L 581.382903 40.706159 
L 581.382903 34.862985 
L 539.310008 35.344738 
L 539.310008 32.83962 
L 364.707497 32.83962 
L 364.707497 32.83962 
" clip-path="url(#pe8cbed8032)" style="fill: none; stroke: #e53935; stroke-width: 2.2; stroke-linecap: square"/>
   </g>
   <g id="patch_7">
    <path d="M 359.65875 247.478125 
L 359.65875 22.318125 
" style="fill: none; stroke: #000000; stroke-width: 0.8; stroke-linejoin: miter; stroke-linecap: square"/>
   </g>
   <g id="patch_8">
    <path d="M 359.65875 247.478125 
L 622.19361 247.478125 
" style="fill: none; stroke: #000000; stroke-width: 0.8; stroke-linejoin: miter; stroke-linecap: square"/>
   </g>
   <g id="text_34">
    <!-- Precision-Recall Curve -->
    <g transform="translate(415.26243 16.318125) scale(0.12 -0.12)">
     <defs>
      <path id="DejaVuSans-Bold-50" d="M 588 4666 
L 2584 4666 
Q 3475 4666 3951 4270 
Q 4428 3875 4428 3144 
Q 4428 2409 3951 2014 
Q 3475 1619 2584 1619 
L 1791 1619 
L 1791 0 
L 588 0 
L 588 4666 
z
M 1791 3794 
L 1791 2491 
L 2456 2491 
Q 2806 2491 2997 2661 
Q 3188 2831 3188 3144 
Q 3188 3456 2997 3625 
Q 2806 3794 2456 3794 
L 1791 3794 
z
" transform="scale(0.015625)"/>
      <path id="DejaVuSans-Bold-63" d="M 3366 3391 
L 3366 2478 
Q 3138 2634 2908 2709 
Q 2678 2784 2431 2784 
Q 1963 2784 1702 2511 
Q 1441 2238 1441 1747 
Q 1441 1256 1702 982 
Q 1963 709 2431 709 
Q 2694 709 2930 787 
Q 3166 866 3366 1019 
L 3366 103 
Q 3103 6 2833 -42 
Q 2563 -91 2291 -91 
Q 1344 -91 809 395 
Q 275 881 275 1747 
Q 275 2613 809 3098 
Q 1344 3584 2291 3584 
Q 2566 3584 2833 3536 
Q 3100 3488 3366 3391 
z
" transform="scale(0.015625)"/>
      <path id="DejaVuSans-Bold-69" d="M 538 3500 
L 1656 3500 
L 1656 0 
L 538 0 
L 538 3500 
z
M 538 4863 
L 1656 4863 
L 1656 3950 
L 538 3950 
L 538 4863 
z
" transform="scale(0.015625)"/>
      <path id="DejaVuSans-Bold-73" d="M 3272 3391 
L 3272 2541 
Q 2913 2691 2578 2766 
Q 2244 2841 1947 2841 
Q 1628 2841 1473 2761 
Q 1319 2681 1319 2516 
Q 1319 2381 1436 2309 
Q 1553 2238 1856 2203 
L 2053 2175 
Q 2913 2066 3209 1816 
Q 3506 1566 3506 1031 
Q 3506 472 3093 190 
Q 2681 -91 1863 -91 
Q 1516 -91 1145 -36 
Q 775 19 384 128 
L 384 978 
Q 719 816 1070 734 
Q 1422 653 1784 653 
Q 2113 653 2278 743 
Q 2444 834 2444 1013 
Q 2444 1163 2330 1236 
Q 2216 1309 1875 1350 
L 1678 1375 
Q 931 1469 631 1722 
Q 331 1975 331 2491 
Q 331 3047 712 3315 
Q 1094 3584 1881 3584 
Q 2191 3584 2531 3537 
Q 2872 3491 3272 3391 
z
" transform="scale(0.015625)"/>
      <path id="DejaVuSans-Bold-6f" d="M 2203 2784 
Q 1831 2784 1636 2517 
Q 1441 2250 1441 1747 
Q 1441 1244 1636 976 
Q 1831 709 2203 709 
Q 2569 709 2762 976 
Q 2956 1244 2956 1747 
Q 2956 2250 2762 2517 
Q 2569 2784 2203 2784 
z
M 2203 3584 
Q 3106 3584 3614 3096 
Q 4122 2609 4122 1747 
Q 4122 884 3614 396 
Q 3106 -91 2203 -91 
Q 1297 -91 786 396 
Q 275 884 275 1747 
Q 275 2609 786 3096 
Q 1297 3584 2203 3584 
z
" transform="scale(0.015625)"/>
      <path id="DejaVuSans-Bold-6e" d="M 4056 2131 
L 4056 0 
L 2931 0 
L 2931 347 
L 2931 1631 
Q 2931 2084 2911 2256 
Q 2891 2428 2841 2509 
Q 2775 2619 2662 2680 
Q 2550 2741 2406 2741 
Q 2056 2741 1856 2470 
Q 1656 2200 1656 1722 
L 1656 0 
L 538 0 
L 538 3500 
L 1656 3500 
L 1656 2988 
Q 1909 3294 2193 3439 
Q 2478 3584 2822 3584 
Q 3428 3584 3742 3212 
Q 4056 2841 4056 2131 
z
" transform="scale(0.015625)"/>
      <path id="DejaVuSans-Bold-2d" d="M 347 2297 
L 2309 2297 
L 2309 1388 
L 347 1388 
L 347 2297 
z
" transform="scale(0.015625)"/>
      <path id="DejaVuSans-Bold-61" d="M 2106 1575 
Q 1756 1575 1579 1456 
Q 1403 1338 1403 1106 
Q 1403 894 1545 773 
Q 1688 653 1941 653 
Q 2256 653 2472 879 
Q 2688 1106 2688 1447 
L 2688 1575 
L 2106 1575 
z
M 3816 1997 
L 3816 0 
L 2688 0 
L 2688 519 
Q 2463 200 2181 54 
Q 1900 -91 1497 -91 
Q 953 -91 614 226 
Q 275 544 275 1050 
Q 275 1666 698 1953 
Q 1122 2241 2028 2241 
L 2688 2241 
L 2688 2328 
Q 2688 2594 2478 2717 
Q 2269 2841 1825 2841 
Q 1466 2841 1156 2769 
Q 847 2697 581 2553 
L 581 3406 
Q 941 3494 1303 3539 
Q 1666 3584 2028 3584 
Q 2975 3584 3395 3211 
Q 3816 2838 3816 1997 
z
" transform="scale(0.015625)"/>
      <path id="DejaVuSans-Bold-6c" d="M 538 4863 
L 1656 4863 
L 1656 0 
L 538 0 
L 538 4863 
z
" transform="scale(0.015625)"/>
     </defs>
     <use xlink:href="#DejaVuSans-Bold-50"/>
     <use xlink:href="#DejaVuSans-Bold-72" transform="translate(73.291016 0)"/>
     <use xlink:href="#DejaVuSans-Bold-65" transform="translate(122.607422 0)"/>
     <use xlink:href="#DejaVuSans-Bold-63" transform="translate(190.429688 0)"/>
     <use xlink:href="#DejaVuSans-Bold-69" transform="translate(249.707031 0)"/>
     <use xlink:href="#DejaVuSans-Bold-73" transform="translate(283.984375 0)"/>
     <use xlink:href="#DejaVuSans-Bold-69" transform="translate(343.505859 0)"/>
     <use xlink:href="#DejaVuSans-Bold-6f" transform="translate(377.783203 0)"/>
     <use xlink:href="#DejaVuSans-Bold-6e" transform="translate(446.484375 0)"/>
     <use xlink:href="#DejaVuSans-Bold-2d" transform="translate(517.675781 0)"/>
     <use xlink:href="#DejaVuSans-Bold-52" transform="translate(559.179688 0)"/>
     <use xlink:href="#DejaVuSans-Bold-65" transform="translate(636.181641 0)"/>
     <use xlink:href="#DejaVuSans-Bold-63" transform="translate(704.003906 0)"/>
     <use xlink:href="#DejaVuSans-Bold-61" transform="translate(763.28125 0)"/>
     <use xlink:href="#DejaVuSans-Bold-6c" transform="translate(830.761719 0)"/>
     <use xlink:href="#DejaVuSans-Bold-6c" transform="translate(865.039062 0)"/>
     <use xlink:href="#DejaVuSans-Bold-20" transform="translate(899.316406 0)"/>
     <use xlink:href="#DejaVuSans-Bold-43" transform="translate(934.130859 0)"/>
     <use xlink:href="#DejaVuSans-Bold-75" transform="translate(1007.519531 0)"/>
     <use xlink:href="#DejaVuSans-Bold-72" transform="translate(1078.710938 0)"/>
     <use xlink:href="#DejaVuSans-Bold-76" transform="translate(1128.027344 0)"/>
     <use xlink:href="#DejaVuSans-Bold-65" transform="translate(1193.212891 0)"/>
    </g>
   </g>
   <g id="legend_2">
    <g id="patch_9">
     <path d="M 491.790329 91.500156 
L 616.24361 91.500156 
Q 617.94361 91.500156 617.94361 89.800156 
L 617.94361 28.268125 
Q 617.94361 26.568125 616.24361 26.568125 
L 491.790329 26.568125 
Q 490.090329 26.568125 490.090329 28.268125 
L 490.090329 89.800156 
Q 490.090329 91.500156 491.790329 91.500156 
z
" style="fill: #ffffff; opacity: 0.9; stroke: #cccccc; stroke-linejoin: miter"/>
    </g>
    <g id="line2d_39">
     <path d="M 493.490329 33.451797 
L 501.990329 33.451797 
L 510.490329 33.451797 
" style="fill: none; stroke-dasharray: 5.55,2.4; stroke-dashoffset: 0; stroke: #888888; stroke-width: 1.5"/>
    </g>
    <g id="text_35">
     <!-- Baseline (AP=0.811) -->
     <g transform="translate(517.290329 36.426797) scale(0.085 -0.085)">
      <use xlink:href="#DejaVuSans-42"/>
      <use xlink:href="#DejaVuSans-61" transform="translate(68.603516 0)"/>
      <use xlink:href="#DejaVuSans-73" transform="translate(129.882812 0)"/>
      <use xlink:href="#DejaVuSans-65" transform="translate(181.982422 0)"/>
      <use xlink:href="#DejaVuSans-6c" transform="translate(243.505859 0)"/>
      <use xlink:href="#DejaVuSans-69" transform="translate(271.289062 0)"/>
      <use xlink:href="#DejaVuSans-6e" transform="translate(299.072266 0)"/>
      <use xlink:href="#DejaVuSans-65" transform="translate(362.451172 0)"/>
      <use xlink:href="#DejaVuSans-20" transform="translate(423.974609 0)"/>
      <use xlink:href="#DejaVuSans-28" transform="translate(455.761719 0)"/>
      <use xlink:href="#DejaVuSans-41" transform="translate(494.775391 0)"/>
      <use xlink:href="#DejaVuSans-50" transform="translate(563.183594 0)"/>
      <use xlink:href="#DejaVuSans-3d" transform="translate(623.486328 0)"/>
      <use xlink:href="#DejaVuSans-30" transform="translate(707.275391 0)"/>
      <use xlink:href="#DejaVuSans-2e" transform="translate(770.898438 0)"/>
      <use xlink:href="#DejaVuSans-38" transform="translate(802.685547 0)"/>
      <use xlink:href="#DejaVuSans-31" transform="translate(866.308594 0)"/>
      <use xlink:href="#DejaVuSans-31" transform="translate(929.931641 0)"/>
      <use xlink:href="#DejaVuSans-29" transform="translate(993.554688 0)"/>
     </g>
    </g>
    <g id="line2d_40">
     <path d="M 493.490329 45.928203 
L 501.990329 45.928203 
L 510.490329 45.928203 
" style="fill: none; stroke: #2196f3; stroke-width: 1.8; stroke-linecap: square"/>
    </g>
    <g id="text_36">
     <!-- Method-A (AP=0.875) -->
     <g transform="translate(517.290329 48.903203) scale(0.085 -0.085)">
      <defs>
       <path id="DejaVuSans-37" d="M 525 4666 
L 3525 4666 
L 3525 4397 
L 1831 0 
L 1172 0 
L 2766 4134 
L 525 4134 
L 525 4666 
z
" transform="scale(0.015625)"/>
       <path id="DejaVuSans-35" d="M 691 4666 
L 3169 4666 
L 3169 4134 
L 1269 4134 
L 1269 2991 
Q 1406 3038 1543 3061 
Q 1681 3084 1819 3084 
Q 2600 3084 3056 2656 
Q 3513 2228 3513 1497 
Q 3513 744 3044 326 
Q 2575 -91 1722 -91 
Q 1428 -91 1123 -41 
Q 819 9 494 109 
L 494 744 
Q 775 591 1075 516 
Q 1375 441 1709 441 
Q 2250 441 2565 725 
Q 2881 1009 2881 1497 
Q 2881 1984 2565 2268 
Q 2250 2553 1709 2553 
Q 1456 2553 1204 2497 
Q 953 2441 691 2322 
L 691 4666 
z
" transform="scale(0.015625)"/>
      </defs>
      <use xlink:href="#DejaVuSans-4d"/>
      <use xlink:href="#DejaVuSans-65" transform="translate(86.279297 0)"/>
      <use xlink:href="#DejaVuSans-74" transform="translate(147.802734 0)"/>
      <use xlink:href="#DejaVuSans-68" transform="translate(187.011719 0)"/>
      <use xlink:href="#DejaVuSans-6f" transform="translate(250.390625 0)"/>
      <use xlink:href="#DejaVuSans-64" transform="translate(311.572266 0)"/>
      <use xlink:href="#DejaVuSans-2d" transform="translate(375.048828 0)"/>
      <use xlink:href="#DejaVuSans-41" transform="translate(408.882812 0)"/>
      <use xlink:href="#DejaVuSans-20" transform="translate(477.291016 0)"/>
      <use xlink:href="#DejaVuSans-28" transform="translate(509.078125 0)"/>
      <use xlink:href="#DejaVuSans-41" transform="translate(548.091797 0)"/>
      <use xlink:href="#DejaVuSans-50" transform="translate(616.5 0)"/>
      <use xlink:href="#DejaVuSans-3d" transform="translate(676.802734 0)"/>
      <use xlink:href="#DejaVuSans-30" transform="translate(760.591797 0)"/>
      <use xlink:href="#DejaVuSans-2e" transform="translate(824.214844 0)"/>
      <use xlink:href="#DejaVuSans-38" transform="translate(856.001953 0)"/>
      <use xlink:href="#DejaVuSans-37" transform="translate(919.625 0)"/>
      <use xlink:href="#DejaVuSans-35" transform="translate(983.248047 0)"/>
      <use xlink:href="#DejaVuSans-29" transform="translate(1046.871094 0)"/>
     </g>
    </g>
    <g id="line2d_41">
     <path d="M 493.490329 58.404609 
L 501.990329 58.404609 
L 510.490329 58.404609 
" style="fill: none; stroke: #ff9800; stroke-width: 1.8; stroke-linecap: square"/>
    </g>
    <g id="text_37">
     <!-- Method-B (AP=0.952) -->
     <g transform="translate(517.290329 61.379609) scale(0.085 -0.085)">
      <use xlink:href="#DejaVuSans-4d"/>
      <use xlink:href="#DejaVuSans-65" transform="translate(86.279297 0)"/>
      <use xlink:href="#DejaVuSans-74" transform="translate(147.802734 0)"/>
      <use xlink:href="#DejaVuSans-68" transform="translate(187.011719 0)"/>
      <use xlink:href="#DejaVuSans-6f" transform="translate(250.390625 0)"/>
      <use xlink:href="#DejaVuSans-64" transform="translate(311.572266 0)"/>
      <use xlink:href="#DejaVuSans-2d" transform="translate(375.048828 0)"/>
      <use xlink:href="#DejaVuSans-42" transform="translate(407.507812 0)"/>
      <use xlink:href="#DejaVuSans-20" transform="translate(476.111328 0)"/>
      <use xlink:href="#DejaVuSans-28" transform="translate(507.898438 0)"/>
      <use xlink:href="#DejaVuSans-41" transform="translate(546.912109 0)"/>
      <use xlink:href="#DejaVuSans-50" transform="translate(615.320312 0)"/>
      <use xlink:href="#DejaVuSans-3d" transform="translate(675.623047 0)"/>
      <use xlink:href="#DejaVuSans-30" transform="translate(759.412109 0)"/>
      <use xlink:href="#DejaVuSans-2e" transform="translate(823.035156 0)"/>
      <use xlink:href="#DejaVuSans-39" transform="translate(854.822266 0)"/>
      <use xlink:href="#DejaVuSans-35" transform="translate(918.445312 0)"/>
      <use xlink:href="#DejaVuSans-32" transform="translate(982.068359 0)"/>
      <use xlink:href="#DejaVuSans-29" transform="translate(1045.691406 0)"/>
     </g>
    </g>
    <g id="line2d_42">
     <path d="M 493.490329 70.881016 
L 501.990329 70.881016 
L 510.490329 70.881016 
" style="fill: none; stroke: #e53935; stroke-width: 2.2; stroke-linecap: square"/>
    </g>
    <g id="text_38">
     <!-- OursModel (AP=0.984) -->
     <g transform="translate(517.290329 73.856016) scale(0.085 -0.085)">
      <use xlink:href="#DejaVuSans-4f"/>
      <use xlink:href="#DejaVuSans-75" transform="translate(78.710938 0)"/>
      <use xlink:href="#DejaVuSans-72" transform="translate(142.089844 0)"/>
      <use xlink:href="#DejaVuSans-73" transform="translate(183.203125 0)"/>
      <use xlink:href="#DejaVuSans-4d" transform="translate(235.302734 0)"/>
      <use xlink:href="#DejaVuSans-6f" transform="translate(321.582031 0)"/>
      <use xlink:href="#DejaVuSans-64" transform="translate(382.763672 0)"/>
      <use xlink:href="#DejaVuSans-65" transform="translate(446.240234 0)"/>
      <use xlink:href="#DejaVuSans-6c" transform="translate(507.763672 0)"/>
      <use xlink:href="#DejaVuSans-20" transform="translate(535.546875 0)"/>
      <use xlink:href="#DejaVuSans-28" transform="translate(567.333984 0)"/>
      <use xlink:href="#DejaVuSans-41" transform="translate(606.347656 0)"/>
      <use xlink:href="#DejaVuSans-50" transform="translate(674.755859 0)"/>
      <use xlink:href="#DejaVuSans-3d" transform="translate(735.058594 0)"/>
      <use xlink:href="#DejaVuSans-30" transform="translate(818.847656 0)"/>
      <use xlink:href="#DejaVuSans-2e" transform="translate(882.470703 0)"/>
      <use xlink:href="#DejaVuSans-39" transform="translate(914.257812 0)"/>
      <use xlink:href="#DejaVuSans-38" transform="translate(977.880859 0)"/>
      <use xlink:href="#DejaVuSans-34" transform="translate(1041.503906 0)"/>
      <use xlink:href="#DejaVuSans-29" transform="translate(1105.126953 0)"/>
     </g>
    </g>
    <g id="line2d_43">
     <path d="M 493.490329 83.357422 
L 501.990329 83.357422 
L 510.490329 83.357422 
" style="fill: none; stroke-dasharray: 1.2,1.98; stroke-dashoffset: 0; stroke: #cccccc; stroke-width: 1.2"/>
    </g>
    <g id="text_39">
     <!-- Prevalence (0.40) -->
     <g transform="translate(517.290329 86.332422) scale(0.085 -0.085)">
      <use xlink:href="#DejaVuSans-50"/>
      <use xlink:href="#DejaVuSans-72" transform="translate(58.552734 0)"/>
      <use xlink:href="#DejaVuSans-65" transform="translate(97.416016 0)"/>
      <use xlink:href="#DejaVuSans-76" transform="translate(158.939453 0)"/>
      <use xlink:href="#DejaVuSans-61" transform="translate(218.119141 0)"/>
      <use xlink:href="#DejaVuSans-6c" transform="translate(279.398438 0)"/>
      <use xlink:href="#DejaVuSans-65" transform="translate(307.181641 0)"/>
      <use xlink:href="#DejaVuSans-6e" transform="translate(368.705078 0)"/>
      <use xlink:href="#DejaVuSans-63" transform="translate(432.083984 0)"/>
      <use xlink:href="#DejaVuSans-65" transform="translate(487.064453 0)"/>
      <use xlink:href="#DejaVuSans-20" transform="translate(548.587891 0)"/>
      <use xlink:href="#DejaVuSans-28" transform="translate(580.375 0)"/>
      <use xlink:href="#DejaVuSans-30" transform="translate(619.388672 0)"/>
      <use xlink:href="#DejaVuSans-2e" transform="translate(683.011719 0)"/>
      <use xlink:href="#DejaVuSans-34" transform="translate(714.798828 0)"/>
      <use xlink:href="#DejaVuSans-30" transform="translate(778.421875 0)"/>
      <use xlink:href="#DejaVuSans-29" transform="translate(842.044922 0)"/>
     </g>
    </g>
   </g>
  </g>
 </g>
 <defs>
  <clipPath id="p98d9eb79aa">
   <rect x="43.15875" y="22.318125" width="262.53486" height="225.16"/>
  </clipPath>
  <clipPath id="pe8cbed8032">
   <rect x="359.65875" y="22.318125" width="262.53486" height="225.16"/>
  </clipPath>
 </defs>
</svg>
