<?xml version="1.0" encoding="utf-8" standalone="no"?>
<!DOCTYPE svg PUBLIC "-//W3C//DTD SVG 1.1//EN"
  "http://www.w3.org/Graphics/SVG/1.1/DTD/svg11.dtd">
<svg xmlns:xlink="http://www.w3.org/1999/xlink" width="424.55875pt" height="351.428344pt" viewBox="0 0 424.55875 351.428344" xmlns="http://www.w3.org/2000/svg" version="1.1">
 <metadata>
  <rdf:RDF xmlns:dc="http://purl.org/dc/elements/1.1/" xmlns:cc="http://creativecommons.org/ns#" xmlns:rdf="http://www.w3.org/1999/02/22-rdf-syntax-ns#">
   <cc:Work>
    <dc:type rdf:resource="http://purl.org/dc/dcmitype/StillImage"/>
    <dc:date>2026-05-25T00:39:19.685282</dc:date>
    <dc:format>image/svg+xml</dc:format>
    <dc:creator>
     <cc:Agent>
      <dc:title>Matplotlib v3.10.9, https://matplotlib.org/</dc:title>
     </cc:Agent>
    </dc:creator>
   </cc:Work>
  </rdf:RDF>
 </metadata>
 <defs>
  <style type="text/css">*{stroke-linejoin: round; stroke-linecap: butt}</style>
 </defs>
 <g id="figure_1">
  <g id="patch_1">
   <path d="M 0 351.428344 
L 424.55875 351.428344 
L 424.55875 0 
L 0 0 
z
" style="fill: #ffffff"/>
  </g>
  <g id="axes_1">
   <g id="patch_2">
    <path d="M 43.15875 318.44 
L 417.35875 318.44 
L 417.35875 7.2 
L 43.15875 7.2 
z
" style="fill: #ffffff"/>
   </g>
   <g id="FillBetweenPolyCollection_1">
    <defs>
     <path id="m1eaa7fe4f9" d="M 100.470722 -70.315803 
L 92.761063 -70.315803 
L 92.176237 -72.354516 
L 91.534308 -74.39323 
L 90.830738 -76.431943 
L 90.060487 -78.470656 
L 89.218359 -80.50937 
L 88.29952 -82.548083 
L 87.300163 -84.586797 
L 86.218297 -86.62551 
L 85.054595 -88.664224 
L 83.813237 -90.702937 
L 82.502667 -92.74165 
L 81.136154 -94.780364 
L 79.732074 -96.819077 
L 78.313808 -98.857791 
L 76.909216 -100.896504 
L 75.549639 -102.935218 
L 74.268487 -104.973931 
L 73.099472 -107.012644 
L 72.074644 -109.051358 
L 71.222392 -111.090071 
L 70.565617 -113.128785 
L 70.12025 -115.167498 
L 69.894271 -117.206212 
L 69.887321 -119.244925 
L 70.090926 -121.283638 
L 70.489288 -123.322352 
L 71.060541 -125.361065 
L 71.778313 -127.399779 
L 72.613448 -129.438492 
L 73.535706 -131.477206 
L 74.515331 -133.515919 
L 75.524383 -135.554632 
L 76.53778 -137.593346 
L 77.534029 -139.632059 
L 78.495667 -141.670773 
L 79.409439 -143.709486 
L 80.266252 -145.7482 
L 81.060954 -147.786913 
L 81.791977 -149.825626 
L 82.460887 -151.86434 
L 83.071879 -153.903053 
L 83.631246 -155.941767 
L 84.14684 -157.98048 
L 84.627554 -160.019193 
L 85.082823 -162.057907 
L 85.522153 -164.09662 
L 85.954659 -166.135334 
L 86.38863 -168.174047 
L 86.831105 -170.212761 
L 87.287474 -172.251474 
L 87.761142 -174.290187 
L 88.253271 -176.328901 
L 88.762656 -178.367614 
L 89.285757 -180.406328 
L 89.816907 -182.445041 
L 90.34871 -184.483755 
L 90.872577 -186.522468 
L 91.379374 -188.561181 
L 91.860097 -190.599895 
L 92.306525 -192.638608 
L 92.711773 -194.677322 
L 93.070705 -196.716035 
L 93.380202 -198.754749 
L 93.639255 -200.793462 
L 93.848945 -202.832175 
L 94.012295 -204.870889 
L 94.134057 -206.909602 
L 94.220437 -208.948316 
L 94.278775 -210.987029 
L 94.317175 -213.025743 
L 94.344096 -215.064456 
L 94.367898 -217.103169 
L 94.396363 -219.141883 
L 94.436212 -221.180596 
L 94.492672 -223.21931 
L 94.569129 -225.258023 
L 94.666923 -227.296737 
L 94.785306 -229.33545 
L 94.921587 -231.374163 
L 95.07145 -233.412877 
L 95.229404 -235.45159 
L 95.389313 -237.490304 
L 95.544953 -239.529017 
L 95.690524 -241.567731 
L 95.821079 -243.606444 
L 95.932836 -245.645157 
L 96.023355 -247.683871 
L 96.091599 -249.722584 
L 96.137884 -251.761298 
L 96.163743 -253.800011 
L 96.171734 -255.838725 
L 96.165206 -257.877438 
L 96.148044 -259.916151 
L 96.124401 -261.954865 
L 96.098429 -263.993578 
L 96.074022 -266.032292 
L 96.054581 -268.071005 
L 96.042819 -270.109718 
L 96.04062 -272.148432 
L 97.191165 -272.148432 
L 97.191165 -272.148432 
L 97.188967 -270.109718 
L 97.177205 -268.071005 
L 97.157764 -266.032292 
L 97.133357 -263.993578 
L 97.107385 -261.954865 
L 97.083742 -259.916151 
L 97.06658 -257.877438 
L 97.060052 -255.838725 
L 97.068043 -253.800011 
L 97.093901 -251.761298 
L 97.140186 -249.722584 
L 97.208431 -247.683871 
L 97.29895 -245.645157 
L 97.410706 -243.606444 
L 97.541262 -241.567731 
L 97.686833 -239.529017 
L 97.842473 -237.490304 
L 98.002382 -235.45159 
L 98.160335 -233.412877 
L 98.310199 -231.374163 
L 98.44648 -229.33545 
L 98.564862 -227.296737 
L 98.662656 -225.258023 
L 98.739114 -223.21931 
L 98.795574 -221.180596 
L 98.835423 -219.141883 
L 98.863887 -217.103169 
L 98.88769 -215.064456 
L 98.914611 -213.025743 
L 98.953011 -210.987029 
L 99.011349 -208.948316 
L 99.097729 -206.909602 
L 99.219491 -204.870889 
L 99.382841 -202.832175 
L 99.59253 -200.793462 
L 99.851584 -198.754749 
L 100.16108 -196.716035 
L 100.520013 -194.677322 
L 100.92526 -192.638608 
L 101.371689 -190.599895 
L 101.852412 -188.561181 
L 102.359208 -186.522468 
L 102.883076 -184.483755 
L 103.414879 -182.445041 
L 103.946029 -180.406328 
L 104.469129 -178.367614 
L 104.978515 -176.328901 
L 105.470644 -174.290187 
L 105.944312 -172.251474 
L 106.400681 -170.212761 
L 106.843155 -168.174047 
L 107.277127 -166.135334 
L 107.709633 -164.09662 
L 108.148962 -162.057907 
L 108.604232 -160.019193 
L 109.084945 -157.98048 
L 109.600539 -155.941767 
L 110.159906 -153.903053 
L 110.770899 -151.86434 
L 111.439809 -149.825626 
L 112.170831 -147.786913 
L 112.965534 -145.7482 
L 113.822347 -143.709486 
L 114.736119 -141.670773 
L 115.697757 -139.632059 
L 116.694005 -137.593346 
L 117.707402 -135.554632 
L 118.716455 -133.515919 
L 119.69608 -131.477206 
L 120.618337 -129.438492 
L 121.453472 -127.399779 
L 122.171245 -125.361065 
L 122.742498 -123.322352 
L 123.14086 -121.283638 
L 123.344464 -119.244925 
L 123.337515 -117.206212 
L 123.111536 -115.167498 
L 122.666169 -113.128785 
L 122.009394 -111.090071 
L 121.157142 -109.051358 
L 120.132314 -107.012644 
L 118.963299 -104.973931 
L 117.682147 -102.935218 
L 116.32257 -100.896504 
L 114.917977 -98.857791 
L 113.499712 -96.819077 
L 112.095632 -94.780364 
L 110.729119 -92.74165 
L 109.418549 -90.702937 
L 108.177191 -88.664224 
L 107.013489 -86.62551 
L 105.931623 -84.586797 
L 104.932266 -82.548083 
L 104.013426 -80.50937 
L 103.171298 -78.470656 
L 102.401047 -76.431943 
L 101.697478 -74.39323 
L 101.055549 -72.354516 
L 100.470722 -70.315803 
z
" style="stroke: #4c72b0; stroke-opacity: 0.35; stroke-width: 0.8"/>
    </defs>
    <g clip-path="url(#p7ae07a810d)">
     <use xlink:href="#m1eaa7fe4f9" x="0" y="351.428344" style="fill: #4c72b0; fill-opacity: 0.35; stroke: #4c72b0; stroke-opacity: 0.35; stroke-width: 0.8"/>
    </g>
   </g>
   <g id="FillBetweenPolyCollection_2">
    <defs>
     <path id="m9f2a982020" d="M 196.92766 -71.463895 
L 174.494601 -71.463895 
L 173.160325 -73.207716 
L 171.825218 -74.951537 
L 170.511293 -76.695358 
L 169.2388 -78.439179 
L 168.025115 -80.183 
L 166.883884 -81.926821 
L 165.824508 -83.670643 
L 164.852038 -85.414464 
L 163.967469 -87.158285 
L 163.168406 -88.902106 
L 162.450024 -90.645927 
L 161.806204 -92.389748 
L 161.230732 -94.133569 
L 160.718416 -95.87739 
L 160.266034 -97.621212 
L 159.873007 -99.365033 
L 159.541768 -101.108854 
L 159.2778 -102.852675 
L 159.089366 -104.596496 
L 158.986965 -106.340317 
L 158.98256 -108.084138 
L 159.088637 -109.82796 
L 159.317153 -111.571781 
L 159.678433 -113.315602 
L 160.180075 -115.059423 
L 160.825955 -116.803244 
L 161.615406 -118.547065 
L 162.542641 -120.290886 
L 163.596535 -122.034707 
L 164.760778 -123.778529 
L 166.014472 -125.52235 
L 167.333109 -127.266171 
L 168.689897 -129.009992 
L 170.057291 -130.753813 
L 171.408594 -132.497634 
L 172.719466 -134.241455 
L 173.969169 -135.985276 
L 175.141434 -137.729098 
L 176.224874 -139.472919 
L 177.212938 -141.21674 
L 178.103438 -142.960561 
L 178.897777 -144.704382 
L 179.599992 -146.448203 
L 180.215768 -148.192024 
L 180.751566 -149.935846 
L 181.213939 -151.679667 
L 181.609111 -153.423488 
L 181.942817 -155.167309 
L 182.220357 -156.91113 
L 182.446793 -158.654951 
L 182.627218 -160.398772 
L 182.766987 -162.142593 
L 182.871871 -163.886415 
L 182.948079 -165.630236 
L 183.002147 -167.374057 
L 183.040719 -169.117878 
L 183.07026 -170.861699 
L 183.09675 -172.60552 
L 183.125417 -174.349341 
L 183.160549 -176.093162 
L 183.205386 -177.836984 
L 183.262126 -179.580805 
L 183.33199 -181.324626 
L 183.415348 -183.068447 
L 183.511851 -184.812268 
L 183.620559 -186.556089 
L 183.740031 -188.29991 
L 183.86839 -190.043732 
L 184.003362 -191.787553 
L 184.1423 -193.531374 
L 184.282236 -195.275195 
L 184.419957 -197.019016 
L 184.552123 -198.762837 
L 184.675429 -200.506658 
L 184.786798 -202.250479 
L 184.883591 -203.994301 
L 184.963791 -205.738122 
L 185.026165 -207.481943 
L 185.07036 -209.225764 
L 185.096923 -210.969585 
L 185.107253 -212.713406 
L 185.103464 -214.457227 
L 185.088206 -216.201048 
L 185.06443 -217.94487 
L 185.035156 -219.688691 
L 185.003243 -221.432512 
L 184.971218 -223.176333 
L 184.941149 -224.920154 
L 184.914601 -226.663975 
L 184.892656 -228.407796 
L 184.875993 -230.151618 
L 184.865007 -231.895439 
L 184.859928 -233.63926 
L 184.860936 -235.383081 
L 184.868227 -237.126902 
L 184.882036 -238.870723 
L 184.902602 -240.614544 
L 184.930096 -242.358365 
L 184.96453 -244.102187 
L 186.457732 -244.102187 
L 186.457732 -244.102187 
L 186.492166 -242.358365 
L 186.51966 -240.614544 
L 186.540226 -238.870723 
L 186.554035 -237.126902 
L 186.561326 -235.383081 
L 186.562334 -233.63926 
L 186.557255 -231.895439 
L 186.546269 -230.151618 
L 186.529606 -228.407796 
L 186.507661 -226.663975 
L 186.481113 -224.920154 
L 186.451044 -223.176333 
L 186.419019 -221.432512 
L 186.387106 -219.688691 
L 186.357831 -217.94487 
L 186.334056 -216.201048 
L 186.318798 -214.457227 
L 186.315009 -212.713406 
L 186.325339 -210.969585 
L 186.351902 -209.225764 
L 186.396097 -207.481943 
L 186.458471 -205.738122 
L 186.538671 -203.994301 
L 186.635464 -202.250479 
L 186.746833 -200.506658 
L 186.870139 -198.762837 
L 187.002304 -197.019016 
L 187.140026 -195.275195 
L 187.279962 -193.531374 
L 187.4189 -191.787553 
L 187.553871 -190.043732 
L 187.682231 -188.29991 
L 187.801703 -186.556089 
L 187.910411 -184.812268 
L 188.006914 -183.068447 
L 188.090272 -181.324626 
L 188.160136 -179.580805 
L 188.216876 -177.836984 
L 188.261713 -176.093162 
L 188.296844 -174.349341 
L 188.325512 -172.60552 
L 188.352002 -170.861699 
L 188.381543 -169.117878 
L 188.420115 -167.374057 
L 188.474183 -165.630236 
L 188.550391 -163.886415 
L 188.655275 -162.142593 
L 188.795044 -160.398772 
L 188.975469 -158.654951 
L 189.201905 -156.91113 
L 189.479445 -155.167309 
L 189.813151 -153.423488 
L 190.208323 -151.679667 
L 190.670696 -149.935846 
L 191.206493 -148.192024 
L 191.82227 -146.448203 
L 192.524484 -144.704382 
L 193.318824 -142.960561 
L 194.209324 -141.21674 
L 195.197388 -139.472919 
L 196.280828 -137.729098 
L 197.453092 -135.985276 
L 198.702795 -134.241455 
L 200.013668 -132.497634 
L 201.364971 -130.753813 
L 202.732364 -129.009992 
L 204.089152 -127.266171 
L 205.40779 -125.52235 
L 206.661484 -123.778529 
L 207.825727 -122.034707 
L 208.87962 -120.290886 
L 209.806856 -118.547065 
L 210.596306 -116.803244 
L 211.242187 -115.059423 
L 211.743829 -113.315602 
L 212.105108 -111.571781 
L 212.333625 -109.82796 
L 212.439702 -108.084138 
L 212.435297 -106.340317 
L 212.332896 -104.596496 
L 212.144462 -102.852675 
L 211.880494 -101.108854 
L 211.549255 -99.365033 
L 211.156228 -97.621212 
L 210.703846 -95.87739 
L 210.19153 -94.133569 
L 209.616057 -92.389748 
L 208.972238 -90.645927 
L 208.253856 -88.902106 
L 207.454793 -87.158285 
L 206.570224 -85.414464 
L 205.597754 -83.670643 
L 204.538378 -81.926821 
L 203.397146 -80.183 
L 202.183462 -78.439179 
L 200.910969 -76.695358 
L 199.597044 -74.951537 
L 198.261937 -73.207716 
L 196.92766 -71.463895 
z
" style="stroke: #dd8452; stroke-opacity: 0.35; stroke-width: 0.8"/>
    </defs>
    <g clip-path="url(#p7ae07a810d)">
     <use xlink:href="#m9f2a982020" x="0" y="351.428344" style="fill: #dd8452; fill-opacity: 0.35; stroke: #dd8452; stroke-opacity: 0.35; stroke-width: 0.8"/>
    </g>
   </g>
   <g id="FillBetweenPolyCollection_3">
    <defs>
     <path id="ma9fd45a881" d="M 280.228194 -51.840206 
L 269.384544 -51.840206 
L 268.467433 -52.882464 
L 267.45692 -53.924722 
L 266.357 -54.96698 
L 265.174667 -56.009238 
L 263.91997 -57.051497 
L 262.605905 -58.093755 
L 261.24816 -59.136013 
L 259.864698 -60.178271 
L 258.475226 -61.220529 
L 257.100569 -62.262787 
L 255.761976 -63.305045 
L 254.480424 -64.347304 
L 253.275938 -65.389562 
L 252.166957 -66.43182 
L 251.169791 -67.474078 
L 250.29816 -68.516336 
L 249.562839 -69.558594 
L 248.9714 -70.600852 
L 248.528058 -71.64311 
L 248.23361 -72.685369 
L 248.085472 -73.727627 
L 248.077798 -74.769885 
L 248.201707 -75.812143 
L 248.445599 -76.854401 
L 248.795566 -77.896659 
L 249.235898 -78.938917 
L 249.749667 -79.981175 
L 250.319379 -81.023434 
L 250.927647 -82.065692 
L 251.557875 -83.10795 
L 252.194894 -84.150208 
L 252.825518 -85.192466 
L 253.438979 -86.234724 
L 254.027218 -87.276982 
L 254.585004 -88.319241 
L 255.109878 -89.361499 
L 255.601944 -90.403757 
L 256.063499 -91.446015 
L 256.498568 -92.488273 
L 256.912365 -93.530531 
L 257.310719 -94.572789 
L 257.699535 -95.615047 
L 258.084298 -96.657306 
L 258.469674 -97.699564 
L 258.859219 -98.741822 
L 259.255215 -99.78408 
L 259.658628 -100.826338 
L 260.069177 -101.868596 
L 260.485496 -102.910854 
L 260.905374 -103.953112 
L 261.326029 -104.995371 
L 261.744397 -106.037629 
L 262.157419 -107.079887 
L 262.562281 -108.122145 
L 262.956622 -109.164403 
L 263.338683 -110.206661 
L 263.707392 -111.248919 
L 264.062407 -112.291178 
L 264.404106 -113.333436 
L 264.733541 -114.375694 
L 265.052355 -115.417952 
L 265.362681 -116.46021 
L 265.66702 -117.502468 
L 265.968097 -118.544726 
L 266.26871 -119.586984 
L 266.571558 -120.629243 
L 266.87907 -121.671501 
L 267.193227 -122.713759 
L 267.515401 -123.756017 
L 267.846208 -124.798275 
L 268.185404 -125.840533 
L 268.531825 -126.882791 
L 268.883391 -127.925049 
L 269.237172 -128.967308 
L 269.589521 -130.009566 
L 269.936268 -131.051824 
L 270.272956 -132.094082 
L 270.595119 -133.13634 
L 270.898554 -134.178598 
L 271.17959 -135.220856 
L 271.435319 -136.263115 
L 271.663779 -137.305373 
L 271.86407 -138.347631 
L 272.036398 -139.389889 
L 272.182048 -140.432147 
L 272.303287 -141.474405 
L 272.403213 -142.516663 
L 272.485549 -143.558921 
L 272.554419 -144.60118 
L 272.614102 -145.643438 
L 272.668798 -146.685696 
L 272.722407 -147.727954 
L 272.778345 -148.770212 
L 272.839399 -149.81247 
L 272.907634 -150.854728 
L 272.984342 -151.896986 
L 273.07005 -152.939245 
L 273.164564 -153.981503 
L 273.267054 -155.023761 
L 276.345684 -155.023761 
L 276.345684 -155.023761 
L 276.448174 -153.981503 
L 276.542688 -152.939245 
L 276.628396 -151.896986 
L 276.705104 -150.854728 
L 276.773339 -149.81247 
L 276.834393 -148.770212 
L 276.890331 -147.727954 
L 276.94394 -146.685696 
L 276.998636 -145.643438 
L 277.058319 -144.60118 
L 277.127189 -143.558921 
L 277.209525 -142.516663 
L 277.309451 -141.474405 
L 277.430691 -140.432147 
L 277.57634 -139.389889 
L 277.748668 -138.347631 
L 277.948959 -137.305373 
L 278.177419 -136.263115 
L 278.433148 -135.220856 
L 278.714184 -134.178598 
L 279.017619 -133.13634 
L 279.339782 -132.094082 
L 279.676471 -131.051824 
L 280.023217 -130.009566 
L 280.375566 -128.967308 
L 280.729347 -127.925049 
L 281.080913 -126.882791 
L 281.427334 -125.840533 
L 281.76653 -124.798275 
L 282.097337 -123.756017 
L 282.419511 -122.713759 
L 282.733668 -121.671501 
L 283.04118 -120.629243 
L 283.344028 -119.586984 
L 283.644641 -118.544726 
L 283.945718 -117.502468 
L 284.250057 -116.46021 
L 284.560384 -115.417952 
L 284.879197 -114.375694 
L 285.208632 -113.333436 
L 285.550331 -112.291178 
L 285.905346 -111.248919 
L 286.274055 -110.206661 
L 286.656116 -109.164403 
L 287.050457 -108.122145 
L 287.455319 -107.079887 
L 287.868341 -106.037629 
L 288.286709 -104.995371 
L 288.707364 -103.953112 
L 289.127242 -102.910854 
L 289.543561 -101.868596 
L 289.95411 -100.826338 
L 290.357523 -99.78408 
L 290.75352 -98.741822 
L 291.143064 -97.699564 
L 291.52844 -96.657306 
L 291.913203 -95.615047 
L 292.302019 -94.572789 
L 292.700374 -93.530531 
L 293.11417 -92.488273 
L 293.549239 -91.446015 
L 294.010794 -90.403757 
L 294.50286 -89.361499 
L 295.027735 -88.319241 
L 295.58552 -87.276982 
L 296.173759 -86.234724 
L 296.78722 -85.192466 
L 297.417844 -84.150208 
L 298.054863 -83.10795 
L 298.685091 -82.065692 
L 299.293359 -81.023434 
L 299.863071 -79.981175 
L 300.37684 -78.938917 
L 300.817172 -77.896659 
L 301.167139 -76.854401 
L 301.411031 -75.812143 
L 301.53494 -74.769885 
L 301.527266 -73.727627 
L 301.379128 -72.685369 
L 301.08468 -71.64311 
L 300.641338 -70.600852 
L 300.049899 -69.558594 
L 299.314578 -68.516336 
L 298.442947 -67.474078 
L 297.445781 -66.43182 
L 296.336801 -65.389562 
L 295.132314 -64.347304 
L 293.850762 -63.305045 
L 292.512169 -62.262787 
L 291.137512 -61.220529 
L 289.748041 -60.178271 
L 288.364578 -59.136013 
L 287.006833 -58.093755 
L 285.692768 -57.051497 
L 284.438071 -56.009238 
L 283.255739 -54.96698 
L 282.155818 -53.924722 
L 281.145305 -52.882464 
L 280.228194 -51.840206 
z
" style="stroke: #55a868; stroke-opacity: 0.35; stroke-width: 0.8"/>
    </defs>
    <g clip-path="url(#p7ae07a810d)">
     <use xlink:href="#ma9fd45a881" x="0" y="351.428344" style="fill: #55a868; fill-opacity: 0.35; stroke: #55a868; stroke-opacity: 0.35; stroke-width: 0.8"/>
    </g>
   </g>
   <g id="FillBetweenPolyCollection_4">
    <defs>
     <path id="m599b596150" d="M 368.903066 -46.176929 
L 358.900148 -46.176929 
L 358.213496 -46.852862 
L 357.473725 -47.528795 
L 356.679173 -48.204728 
L 355.828066 -48.880661 
L 354.918859 -49.556594 
L 353.950695 -50.232526 
L 352.923955 -50.908459 
L 351.840849 -51.584392 
L 350.705957 -52.260325 
L 349.526657 -52.936258 
L 348.313379 -53.612191 
L 347.079612 -54.288124 
L 345.841657 -54.964057 
L 344.618104 -55.63999 
L 343.429092 -56.315923 
L 342.295385 -56.991855 
L 341.237371 -57.667788 
L 340.274061 -58.343721 
L 339.422187 -59.019654 
L 338.695485 -59.695587 
L 338.104218 -60.37152 
L 337.654975 -61.047453 
L 337.350729 -61.723386 
L 337.191142 -62.399319 
L 337.173036 -63.075252 
L 337.290961 -63.751184 
L 337.537788 -64.427117 
L 337.905239 -65.10305 
L 338.384317 -65.778983 
L 338.965582 -66.454916 
L 339.6393 -67.130849 
L 340.395453 -67.806782 
L 341.223675 -68.482715 
L 342.113153 -69.158648 
L 343.052537 -69.834581 
L 344.029921 -70.510514 
L 345.032894 -71.186446 
L 346.048706 -71.862379 
L 347.064517 -72.538312 
L 348.067721 -73.214245 
L 349.046316 -73.890178 
L 349.989285 -74.566111 
L 350.886953 -75.242044 
L 351.731297 -75.917977 
L 352.516175 -76.59391 
L 353.237469 -77.269843 
L 353.893127 -77.945775 
L 354.483109 -78.621708 
L 355.009241 -79.297641 
L 355.474992 -79.973574 
L 355.885187 -80.649507 
L 356.245694 -81.32544 
L 356.563083 -82.001373 
L 356.844309 -82.677306 
L 357.096412 -83.353239 
L 357.326266 -84.029172 
L 357.540378 -84.705104 
L 357.74473 -85.381037 
L 357.944677 -86.05697 
L 358.144868 -86.732903 
L 358.349203 -87.408836 
L 358.560796 -88.084769 
L 358.781945 -88.760702 
L 359.014115 -89.436635 
L 359.257917 -90.112568 
L 359.513101 -90.788501 
L 359.778566 -91.464434 
L 360.052395 -92.140366 
L 360.331918 -92.816299 
L 360.61381 -93.492232 
L 360.894216 -94.168165 
L 361.16891 -94.844098 
L 361.433469 -95.520031 
L 361.683468 -96.195964 
L 361.914673 -96.871897 
L 362.123235 -97.54783 
L 362.305873 -98.223763 
L 362.460036 -98.899695 
L 362.584043 -99.575628 
L 362.677187 -100.251561 
L 362.739807 -100.927494 
L 362.773305 -101.603427 
L 362.780121 -102.27936 
L 362.76365 -102.955293 
L 362.728104 -103.631226 
L 362.678328 -104.307159 
L 362.619563 -104.983092 
L 362.557196 -105.659024 
L 362.496487 -106.334957 
L 362.442303 -107.01089 
L 362.398891 -107.686823 
L 362.369679 -108.362756 
L 362.357152 -109.038689 
L 362.36278 -109.714622 
L 362.387017 -110.390555 
L 362.429367 -111.066488 
L 362.488496 -111.742421 
L 362.56238 -112.418353 
L 362.648485 -113.094286 
L 365.154729 -113.094286 
L 365.154729 -113.094286 
L 365.240835 -112.418353 
L 365.314719 -111.742421 
L 365.373847 -111.066488 
L 365.416198 -110.390555 
L 365.440435 -109.714622 
L 365.446062 -109.038689 
L 365.433535 -108.362756 
L 365.404323 -107.686823 
L 365.360911 -107.01089 
L 365.306727 -106.334957 
L 365.246018 -105.659024 
L 365.183651 -104.983092 
L 365.124887 -104.307159 
L 365.07511 -103.631226 
L 365.039564 -102.955293 
L 365.023093 -102.27936 
L 365.029909 -101.603427 
L 365.063407 -100.927494 
L 365.126027 -100.251561 
L 365.219171 -99.575628 
L 365.343178 -98.899695 
L 365.497341 -98.223763 
L 365.679979 -97.54783 
L 365.888541 -96.871897 
L 366.119746 -96.195964 
L 366.369745 -95.520031 
L 366.634304 -94.844098 
L 366.908998 -94.168165 
L 367.189404 -93.492232 
L 367.471296 -92.816299 
L 367.750819 -92.140366 
L 368.024648 -91.464434 
L 368.290113 -90.788501 
L 368.545297 -90.112568 
L 368.789099 -89.436635 
L 369.02127 -88.760702 
L 369.242419 -88.084769 
L 369.454011 -87.408836 
L 369.658346 -86.732903 
L 369.858537 -86.05697 
L 370.058484 -85.381037 
L 370.262836 -84.705104 
L 370.476948 -84.029172 
L 370.706802 -83.353239 
L 370.958905 -82.677306 
L 371.240131 -82.001373 
L 371.55752 -81.32544 
L 371.918027 -80.649507 
L 372.328223 -79.973574 
L 372.793973 -79.297641 
L 373.320106 -78.621708 
L 373.910088 -77.945775 
L 374.565745 -77.269843 
L 375.287039 -76.59391 
L 376.071917 -75.917977 
L 376.916261 -75.242044 
L 377.813929 -74.566111 
L 378.756898 -73.890178 
L 379.735493 -73.214245 
L 380.738697 -72.538312 
L 381.754508 -71.862379 
L 382.770321 -71.186446 
L 383.773294 -70.510514 
L 384.750677 -69.834581 
L 385.690061 -69.158648 
L 386.579539 -68.482715 
L 387.407761 -67.806782 
L 388.163914 -67.130849 
L 388.837632 -66.454916 
L 389.418898 -65.778983 
L 389.897975 -65.10305 
L 390.265427 -64.427117 
L 390.512253 -63.751184 
L 390.630179 -63.075252 
L 390.612072 -62.399319 
L 390.452486 -61.723386 
L 390.14824 -61.047453 
L 389.698996 -60.37152 
L 389.107729 -59.695587 
L 388.381027 -59.019654 
L 387.529153 -58.343721 
L 386.565843 -57.667788 
L 385.50783 -56.991855 
L 384.374123 -56.315923 
L 383.18511 -55.63999 
L 381.961557 -54.964057 
L 380.723602 -54.288124 
L 379.489836 -53.612191 
L 378.276558 -52.936258 
L 377.097258 -52.260325 
L 375.962365 -51.584392 
L 374.879259 -50.908459 
L 373.85252 -50.232526 
L 372.884355 -49.556594 
L 371.975148 -48.880661 
L 371.124041 -48.204728 
L 370.329489 -47.528795 
L 369.589718 -46.852862 
L 368.903066 -46.176929 
z
" style="stroke: #c44e52; stroke-opacity: 0.35; stroke-width: 0.8"/>
    </defs>
    <g clip-path="url(#p7ae07a810d)">
     <use xlink:href="#m599b596150" x="0" y="351.428344" style="fill: #c44e52; fill-opacity: 0.35; stroke: #c44e52; stroke-opacity: 0.35; stroke-width: 0.8"/>
    </g>
   </g>
   <g id="matplotlib.axis_1">
    <g id="xtick_1">
     <g id="line2d_1">
      <defs>
       <path id="m630c50fd9f" d="M 0 0 
L 0 3.5 
" style="stroke: #000000; stroke-width: 0.8"/>
      </defs>
      <g>
       <use xlink:href="#m630c50fd9f" x="96.615893" y="318.44" style="stroke: #000000; stroke-width: 0.8"/>
      </g>
     </g>
     <g id="text_1">
      <!-- Control -->
      <g transform="translate(80.351908 332.278594) scale(0.09 -0.09)">
       <defs>
        <path id="DejaVuSans-43" d="M 4122 4306 
L 4122 3641 
Q 3803 3938 3442 4084 
Q 3081 4231 2675 4231 
Q 1875 4231 1450 3742 
Q 1025 3253 1025 2328 
Q 1025 1406 1450 917 
Q 1875 428 2675 428 
Q 3081 428 3442 575 
Q 3803 722 4122 1019 
L 4122 359 
Q 3791 134 3420 21 
Q 3050 -91 2638 -91 
Q 1578 -91 968 557 
Q 359 1206 359 2328 
Q 359 3453 968 4101 
Q 1578 4750 2638 4750 
Q 3056 4750 3426 4639 
Q 3797 4528 4122 4306 
z
" transform="scale(0.015625)"/>
        <path id="DejaVuSans-6f" d="M 1959 3097 
Q 1497 3097 1228 2736 
Q 959 2375 959 1747 
Q 959 1119 1226 758 
Q 1494 397 1959 397 
Q 2419 397 2687 759 
Q 2956 1122 2956 1747 
Q 2956 2369 2687 2733 
Q 2419 3097 1959 3097 
z
M 1959 3584 
Q 2709 3584 3137 3096 
Q 3566 2609 3566 1747 
Q 3566 888 3137 398 
Q 2709 -91 1959 -91 
Q 1206 -91 779 398 
Q 353 888 353 1747 
Q 353 2609 779 3096 
Q 1206 3584 1959 3584 
z
" transform="scale(0.015625)"/>
        <path id="DejaVuSans-6e" d="M 3513 2113 
L 3513 0 
L 2938 0 
L 2938 2094 
Q 2938 2591 2744 2837 
Q 2550 3084 2163 3084 
Q 1697 3084 1428 2787 
Q 1159 2491 1159 1978 
L 1159 0 
L 581 0 
L 581 3500 
L 1159 3500 
L 1159 2956 
Q 1366 3272 1645 3428 
Q 1925 3584 2291 3584 
Q 2894 3584 3203 3211 
Q 3513 2838 3513 2113 
z
" transform="scale(0.015625)"/>
        <path id="DejaVuSans-74" d="M 1172 4494 
L 1172 3500 
L 2356 3500 
L 2356 3053 
L 1172 3053 
L 1172 1153 
Q 1172 725 1289 603 
Q 1406 481 1766 481 
L 2356 481 
L 2356 0 
L 1766 0 
Q 1100 0 847 248 
Q 594 497 594 1153 
L 594 3053 
L 172 3053 
L 172 3500 
L 594 3500 
L 594 4494 
L 1172 4494 
z
" transform="scale(0.015625)"/>
        <path id="DejaVuSans-72" d="M 2631 2963 
Q 2534 3019 2420 3045 
Q 2306 3072 2169 3072 
Q 1681 3072 1420 2755 
Q 1159 2438 1159 1844 
L 1159 0 
L 581 0 
L 581 3500 
L 1159 3500 
L 1159 2956 
Q 1341 3275 1631 3429 
Q 1922 3584 2338 3584 
Q 2397 3584 2469 3576 
Q 2541 3569 2628 3553 
L 2631 2963 
z
" transform="scale(0.015625)"/>
        <path id="DejaVuSans-6c" d="M 603 4863 
L 1178 4863 
L 1178 0 
L 603 0 
L 603 4863 
z
" transform="scale(0.015625)"/>
       </defs>
       <use xlink:href="#DejaVuSans-43"/>
       <use xlink:href="#DejaVuSans-6f" transform="translate(69.824219 0)"/>
       <use xlink:href="#DejaVuSans-6e" transform="translate(131.005859 0)"/>
       <use xlink:href="#DejaVuSans-74" transform="translate(194.384766 0)"/>
       <use xlink:href="#DejaVuSans-72" transform="translate(233.59375 0)"/>
       <use xlink:href="#DejaVuSans-6f" transform="translate(272.457031 0)"/>
       <use xlink:href="#DejaVuSans-6c" transform="translate(333.638672 0)"/>
      </g>
     </g>
    </g>
    <g id="xtick_2">
     <g id="line2d_2">
      <g>
       <use xlink:href="#m630c50fd9f" x="185.711131" y="318.44" style="stroke: #000000; stroke-width: 0.8"/>
      </g>
     </g>
     <g id="text_2">
      <!-- Drug-A -->
      <g transform="translate(170.08699 332.278594) scale(0.09 -0.09)">
       <defs>
        <path id="DejaVuSans-44" d="M 1259 4147 
L 1259 519 
L 2022 519 
Q 2988 519 3436 956 
Q 3884 1394 3884 2338 
Q 3884 3275 3436 3711 
Q 2988 4147 2022 4147 
L 1259 4147 
z
M 628 4666 
L 1925 4666 
Q 3281 4666 3915 4102 
Q 4550 3538 4550 2338 
Q 4550 1131 3912 565 
Q 3275 0 1925 0 
L 628 0 
L 628 4666 
z
" transform="scale(0.015625)"/>
        <path id="DejaVuSans-75" d="M 544 1381 
L 544 3500 
L 1119 3500 
L 1119 1403 
Q 1119 906 1312 657 
Q 1506 409 1894 409 
Q 2359 409 2629 706 
Q 2900 1003 2900 1516 
L 2900 3500 
L 3475 3500 
L 3475 0 
L 2900 0 
L 2900 538 
Q 2691 219 2414 64 
Q 2138 -91 1772 -91 
Q 1169 -91 856 284 
Q 544 659 544 1381 
z
M 1991 3584 
L 1991 3584 
z
" transform="scale(0.015625)"/>
        <path id="DejaVuSans-67" d="M 2906 1791 
Q 2906 2416 2648 2759 
Q 2391 3103 1925 3103 
Q 1463 3103 1205 2759 
Q 947 2416 947 1791 
Q 947 1169 1205 825 
Q 1463 481 1925 481 
Q 2391 481 2648 825 
Q 2906 1169 2906 1791 
z
M 3481 434 
Q 3481 -459 3084 -895 
Q 2688 -1331 1869 -1331 
Q 1566 -1331 1297 -1286 
Q 1028 -1241 775 -1147 
L 775 -588 
Q 1028 -725 1275 -790 
Q 1522 -856 1778 -856 
Q 2344 -856 2625 -561 
Q 2906 -266 2906 331 
L 2906 616 
Q 2728 306 2450 153 
Q 2172 0 1784 0 
Q 1141 0 747 490 
Q 353 981 353 1791 
Q 353 2603 747 3093 
Q 1141 3584 1784 3584 
Q 2172 3584 2450 3431 
Q 2728 3278 2906 2969 
L 2906 3500 
L 3481 3500 
L 3481 434 
z
" transform="scale(0.015625)"/>
        <path id="DejaVuSans-2d" d="M 313 2009 
L 1997 2009 
L 1997 1497 
L 313 1497 
L 313 2009 
z
" transform="scale(0.015625)"/>
        <path id="DejaVuSans-41" d="M 2188 4044 
L 1331 1722 
L 3047 1722 
L 2188 4044 
z
M 1831 4666 
L 2547 4666 
L 4325 0 
L 3669 0 
L 3244 1197 
L 1141 1197 
L 716 0 
L 50 0 
L 1831 4666 
z
" transform="scale(0.015625)"/>
       </defs>
       <use xlink:href="#DejaVuSans-44"/>
       <use xlink:href="#DejaVuSans-72" transform="translate(77.001953 0)"/>
       <use xlink:href="#DejaVuSans-75" transform="translate(118.115234 0)"/>
       <use xlink:href="#DejaVuSans-67" transform="translate(181.494141 0)"/>
       <use xlink:href="#DejaVuSans-2d" transform="translate(244.970703 0)"/>
       <use xlink:href="#DejaVuSans-41" transform="translate(278.804688 0)"/>
      </g>
      <!-- 10 µM -->
      <g transform="translate(171.808943 342.356625) scale(0.09 -0.09)">
       <defs>
        <path id="DejaVuSans-31" d="M 794 531 
L 1825 531 
L 1825 4091 
L 703 3866 
L 703 4441 
L 1819 4666 
L 2450 4666 
L 2450 531 
L 3481 531 
L 3481 0 
L 794 0 
L 794 531 
z
" transform="scale(0.015625)"/>
        <path id="DejaVuSans-30" d="M 2034 4250 
Q 1547 4250 1301 3770 
Q 1056 3291 1056 2328 
Q 1056 1369 1301 889 
Q 1547 409 2034 409 
Q 2525 409 2770 889 
Q 3016 1369 3016 2328 
Q 3016 3291 2770 3770 
Q 2525 4250 2034 4250 
z
M 2034 4750 
Q 2819 4750 3233 4129 
Q 3647 3509 3647 2328 
Q 3647 1150 3233 529 
Q 2819 -91 2034 -91 
Q 1250 -91 836 529 
Q 422 1150 422 2328 
Q 422 3509 836 4129 
Q 1250 4750 2034 4750 
z
" transform="scale(0.015625)"/>
        <path id="DejaVuSans-20" transform="scale(0.015625)"/>
        <path id="DejaVuSans-b5" d="M 544 -1331 
L 544 3500 
L 1119 3500 
L 1119 1325 
Q 1119 872 1334 640 
Q 1550 409 1972 409 
Q 2434 409 2667 671 
Q 2900 934 2900 1459 
L 2900 3500 
L 3475 3500 
L 3475 806 
Q 3475 619 3529 530 
Q 3584 441 3700 441 
Q 3728 441 3778 458 
Q 3828 475 3916 513 
L 3916 50 
Q 3788 -22 3673 -56 
Q 3559 -91 3450 -91 
Q 3234 -91 3106 31 
Q 2978 153 2931 403 
Q 2775 156 2548 32 
Q 2322 -91 2016 -91 
Q 1697 -91 1473 31 
Q 1250 153 1119 397 
L 1119 -1331 
L 544 -1331 
z
" transform="scale(0.015625)"/>
        <path id="DejaVuSans-4d" d="M 628 4666 
L 1569 4666 
L 2759 1491 
L 3956 4666 
L 4897 4666 
L 4897 0 
L 4281 0 
L 4281 4097 
L 3078 897 
L 2444 897 
L 1241 4097 
L 1241 0 
L 628 0 
L 628 4666 
z
" transform="scale(0.015625)"/>
       </defs>
       <use xlink:href="#DejaVuSans-31"/>
       <use xlink:href="#DejaVuSans-30" transform="translate(63.623047 0)"/>
       <use xlink:href="#DejaVuSans-20" transform="translate(127.246094 0)"/>
       <use xlink:href="#DejaVuSans-b5" transform="translate(159.033203 0)"/>
       <use xlink:href="#DejaVuSans-4d" transform="translate(222.65625 0)"/>
      </g>
     </g>
    </g>
    <g id="xtick_3">
     <g id="line2d_3">
      <g>
       <use xlink:href="#m630c50fd9f" x="274.806369" y="318.44" style="stroke: #000000; stroke-width: 0.8"/>
      </g>
     </g>
     <g id="text_3">
      <!-- Drug-A -->
      <g transform="translate(259.182228 332.278594) scale(0.09 -0.09)">
       <use xlink:href="#DejaVuSans-44"/>
       <use xlink:href="#DejaVuSans-72" transform="translate(77.001953 0)"/>
       <use xlink:href="#DejaVuSans-75" transform="translate(118.115234 0)"/>
       <use xlink:href="#DejaVuSans-67" transform="translate(181.494141 0)"/>
       <use xlink:href="#DejaVuSans-2d" transform="translate(244.970703 0)"/>
       <use xlink:href="#DejaVuSans-41" transform="translate(278.804688 0)"/>
      </g>
      <!-- 50 µM -->
      <g transform="translate(260.904182 342.356625) scale(0.09 -0.09)">
       <defs>
        <path id="DejaVuSans-35" d="M 691 4666 
L 3169 4666 
L 3169 4134 
L 1269 4134 
L 1269 2991 
Q 1406 3038 1543 3061 
Q 1681 3084 1819 3084 
Q 2600 3084 3056 2656 
Q 3513 2228 3513 1497 
Q 3513 744 3044 326 
Q 2575 -91 1722 -91 
Q 1428 -91 1123 -41 
Q 819 9 494 109 
L 494 744 
Q 775 591 1075 516 
Q 1375 441 1709 441 
Q 2250 441 2565 725 
Q 2881 1009 2881 1497 
Q 2881 1984 2565 2268 
Q 2250 2553 1709 2553 
Q 1456 2553 1204 2497 
Q 953 2441 691 2322 
L 691 4666 
z
" transform="scale(0.015625)"/>
       </defs>
       <use xlink:href="#DejaVuSans-35"/>
       <use xlink:href="#DejaVuSans-30" transform="translate(63.623047 0)"/>
       <use xlink:href="#DejaVuSans-20" transform="translate(127.246094 0)"/>
       <use xlink:href="#DejaVuSans-b5" transform="translate(159.033203 0)"/>
       <use xlink:href="#DejaVuSans-4d" transform="translate(222.65625 0)"/>
      </g>
     </g>
    </g>
    <g id="xtick_4">
     <g id="line2d_4">
      <g>
       <use xlink:href="#m630c50fd9f" x="363.901607" y="318.44" style="stroke: #000000; stroke-width: 0.8"/>
      </g>
     </g>
     <g id="text_4">
      <!-- Combo -->
      <g transform="translate(348.012388 332.278594) scale(0.09 -0.09)">
       <defs>
        <path id="DejaVuSans-6d" d="M 3328 2828 
Q 3544 3216 3844 3400 
Q 4144 3584 4550 3584 
Q 5097 3584 5394 3201 
Q 5691 2819 5691 2113 
L 5691 0 
L 5113 0 
L 5113 2094 
Q 5113 2597 4934 2840 
Q 4756 3084 4391 3084 
Q 3944 3084 3684 2787 
Q 3425 2491 3425 1978 
L 3425 0 
L 2847 0 
L 2847 2094 
Q 2847 2600 2669 2842 
Q 2491 3084 2119 3084 
Q 1678 3084 1418 2786 
Q 1159 2488 1159 1978 
L 1159 0 
L 581 0 
L 581 3500 
L 1159 3500 
L 1159 2956 
Q 1356 3278 1631 3431 
Q 1906 3584 2284 3584 
Q 2666 3584 2933 3390 
Q 3200 3197 3328 2828 
z
" transform="scale(0.015625)"/>
        <path id="DejaVuSans-62" d="M 3116 1747 
Q 3116 2381 2855 2742 
Q 2594 3103 2138 3103 
Q 1681 3103 1420 2742 
Q 1159 2381 1159 1747 
Q 1159 1113 1420 752 
Q 1681 391 2138 391 
Q 2594 391 2855 752 
Q 3116 1113 3116 1747 
z
M 1159 2969 
Q 1341 3281 1617 3432 
Q 1894 3584 2278 3584 
Q 2916 3584 3314 3078 
Q 3713 2572 3713 1747 
Q 3713 922 3314 415 
Q 2916 -91 2278 -91 
Q 1894 -91 1617 61 
Q 1341 213 1159 525 
L 1159 0 
L 581 0 
L 581 4863 
L 1159 4863 
L 1159 2969 
z
" transform="scale(0.015625)"/>
       </defs>
       <use xlink:href="#DejaVuSans-43"/>
       <use xlink:href="#DejaVuSans-6f" transform="translate(69.824219 0)"/>
       <use xlink:href="#DejaVuSans-6d" transform="translate(131.005859 0)"/>
       <use xlink:href="#DejaVuSans-62" transform="translate(228.417969 0)"/>
       <use xlink:href="#DejaVuSans-6f" transform="translate(291.894531 0)"/>
      </g>
     </g>
    </g>
   </g>
   <g id="matplotlib.axis_2">
    <g id="ytick_1">
     <g id="line2d_5">
      <defs>
       <path id="m9b37558384" d="M 0 0 
L -3.5 0 
" style="stroke: #000000; stroke-width: 0.8"/>
      </defs>
      <g>
       <use xlink:href="#m9b37558384" x="43.15875" y="318.44" style="stroke: #000000; stroke-width: 0.8"/>
      </g>
     </g>
     <g id="text_5">
      <!-- 0.0 -->
      <g transform="translate(21.845938 321.859297) scale(0.09 -0.09)">
       <defs>
        <path id="DejaVuSans-2e" d="M 684 794 
L 1344 794 
L 1344 0 
L 684 0 
L 684 794 
z
" transform="scale(0.015625)"/>
       </defs>
       <use xlink:href="#DejaVuSans-30"/>
       <use xlink:href="#DejaVuSans-2e" transform="translate(63.623047 0)"/>
       <use xlink:href="#DejaVuSans-30" transform="translate(95.410156 0)"/>
      </g>
     </g>
    </g>
    <g id="ytick_2">
     <g id="line2d_6">
      <g>
       <use xlink:href="#m9b37558384" x="43.15875" y="270.200844" style="stroke: #000000; stroke-width: 0.8"/>
      </g>
     </g>
     <g id="text_6">
      <!-- 0.5 -->
      <g transform="translate(21.845938 273.620141) scale(0.09 -0.09)">
       <use xlink:href="#DejaVuSans-30"/>
       <use xlink:href="#DejaVuSans-2e" transform="translate(63.623047 0)"/>
       <use xlink:href="#DejaVuSans-35" transform="translate(95.410156 0)"/>
      </g>
     </g>
    </g>
    <g id="ytick_3">
     <g id="line2d_7">
      <g>
       <use xlink:href="#m9b37558384" x="43.15875" y="221.961688" style="stroke: #000000; stroke-width: 0.8"/>
      </g>
     </g>
     <g id="text_7">
      <!-- 1.0 -->
      <g transform="translate(21.845938 225.380985) scale(0.09 -0.09)">
       <use xlink:href="#DejaVuSans-31"/>
       <use xlink:href="#DejaVuSans-2e" transform="translate(63.623047 0)"/>
       <use xlink:href="#DejaVuSans-30" transform="translate(95.410156 0)"/>
      </g>
     </g>
    </g>
    <g id="ytick_4">
     <g id="line2d_8">
      <g>
       <use xlink:href="#m9b37558384" x="43.15875" y="173.722532" style="stroke: #000000; stroke-width: 0.8"/>
      </g>
     </g>
     <g id="text_8">
      <!-- 1.5 -->
      <g transform="translate(21.845938 177.141829) scale(0.09 -0.09)">
       <use xlink:href="#DejaVuSans-31"/>
       <use xlink:href="#DejaVuSans-2e" transform="translate(63.623047 0)"/>
       <use xlink:href="#DejaVuSans-35" transform="translate(95.410156 0)"/>
      </g>
     </g>
    </g>
    <g id="ytick_5">
     <g id="line2d_9">
      <g>
       <use xlink:href="#m9b37558384" x="43.15875" y="125.483376" style="stroke: #000000; stroke-width: 0.8"/>
      </g>
     </g>
     <g id="text_9">
      <!-- 2.0 -->
      <g transform="translate(21.845938 128.902672) scale(0.09 -0.09)">
       <defs>
        <path id="DejaVuSans-32" d="M 1228 531 
L 3431 531 
L 3431 0 
L 469 0 
L 469 531 
Q 828 903 1448 1529 
Q 2069 2156 2228 2338 
Q 2531 2678 2651 2914 
Q 2772 3150 2772 3378 
Q 2772 3750 2511 3984 
Q 2250 4219 1831 4219 
Q 1534 4219 1204 4116 
Q 875 4013 500 3803 
L 500 4441 
Q 881 4594 1212 4672 
Q 1544 4750 1819 4750 
Q 2544 4750 2975 4387 
Q 3406 4025 3406 3419 
Q 3406 3131 3298 2873 
Q 3191 2616 2906 2266 
Q 2828 2175 2409 1742 
Q 1991 1309 1228 531 
z
" transform="scale(0.015625)"/>
       </defs>
       <use xlink:href="#DejaVuSans-32"/>
       <use xlink:href="#DejaVuSans-2e" transform="translate(63.623047 0)"/>
       <use xlink:href="#DejaVuSans-30" transform="translate(95.410156 0)"/>
      </g>
     </g>
    </g>
    <g id="ytick_6">
     <g id="line2d_10">
      <g>
       <use xlink:href="#m9b37558384" x="43.15875" y="77.244219" style="stroke: #000000; stroke-width: 0.8"/>
      </g>
     </g>
     <g id="text_10">
      <!-- 2.5 -->
      <g transform="translate(21.845938 80.663516) scale(0.09 -0.09)">
       <use xlink:href="#DejaVuSans-32"/>
       <use xlink:href="#DejaVuSans-2e" transform="translate(63.623047 0)"/>
       <use xlink:href="#DejaVuSans-35" transform="translate(95.410156 0)"/>
      </g>
     </g>
    </g>
    <g id="ytick_7">
     <g id="line2d_11">
      <g>
       <use xlink:href="#m9b37558384" x="43.15875" y="29.005063" style="stroke: #000000; stroke-width: 0.8"/>
      </g>
     </g>
     <g id="text_11">
      <!-- 3.0 -->
      <g transform="translate(21.845938 32.42436) scale(0.09 -0.09)">
       <defs>
        <path id="DejaVuSans-33" d="M 2597 2516 
Q 3050 2419 3304 2112 
Q 3559 1806 3559 1356 
Q 3559 666 3084 287 
Q 2609 -91 1734 -91 
Q 1441 -91 1130 -33 
Q 819 25 488 141 
L 488 750 
Q 750 597 1062 519 
Q 1375 441 1716 441 
Q 2309 441 2620 675 
Q 2931 909 2931 1356 
Q 2931 1769 2642 2001 
Q 2353 2234 1838 2234 
L 1294 2234 
L 1294 2753 
L 1863 2753 
Q 2328 2753 2575 2939 
Q 2822 3125 2822 3475 
Q 2822 3834 2567 4026 
Q 2313 4219 1838 4219 
Q 1578 4219 1281 4162 
Q 984 4106 628 3988 
L 628 4550 
Q 988 4650 1302 4700 
Q 1616 4750 1894 4750 
Q 2613 4750 3031 4423 
Q 3450 4097 3450 3541 
Q 3450 3153 3228 2886 
Q 3006 2619 2597 2516 
z
" transform="scale(0.015625)"/>
       </defs>
       <use xlink:href="#DejaVuSans-33"/>
       <use xlink:href="#DejaVuSans-2e" transform="translate(63.623047 0)"/>
       <use xlink:href="#DejaVuSans-30" transform="translate(95.410156 0)"/>
      </g>
     </g>
    </g>
    <g id="text_12">
     <!-- Relative cell viability -->
     <g transform="translate(15.558281 219.601484) rotate(-90) scale(0.11 -0.11)">
      <defs>
       <path id="DejaVuSans-52" d="M 2841 2188 
Q 3044 2119 3236 1894 
Q 3428 1669 3622 1275 
L 4263 0 
L 3584 0 
L 2988 1197 
Q 2756 1666 2539 1819 
Q 2322 1972 1947 1972 
L 1259 1972 
L 1259 0 
L 628 0 
L 628 4666 
L 2053 4666 
Q 2853 4666 3247 4331 
Q 3641 3997 3641 3322 
Q 3641 2881 3436 2590 
Q 3231 2300 2841 2188 
z
M 1259 4147 
L 1259 2491 
L 2053 2491 
Q 2509 2491 2742 2702 
Q 2975 2913 2975 3322 
Q 2975 3731 2742 3939 
Q 2509 4147 2053 4147 
L 1259 4147 
z
" transform="scale(0.015625)"/>
       <path id="DejaVuSans-65" d="M 3597 1894 
L 3597 1613 
L 953 1613 
Q 991 1019 1311 708 
Q 1631 397 2203 397 
Q 2534 397 2845 478 
Q 3156 559 3463 722 
L 3463 178 
Q 3153 47 2828 -22 
Q 2503 -91 2169 -91 
Q 1331 -91 842 396 
Q 353 884 353 1716 
Q 353 2575 817 3079 
Q 1281 3584 2069 3584 
Q 2775 3584 3186 3129 
Q 3597 2675 3597 1894 
z
M 3022 2063 
Q 3016 2534 2758 2815 
Q 2500 3097 2075 3097 
Q 1594 3097 1305 2825 
Q 1016 2553 972 2059 
L 3022 2063 
z
" transform="scale(0.015625)"/>
       <path id="DejaVuSans-61" d="M 2194 1759 
Q 1497 1759 1228 1600 
Q 959 1441 959 1056 
Q 959 750 1161 570 
Q 1363 391 1709 391 
Q 2188 391 2477 730 
Q 2766 1069 2766 1631 
L 2766 1759 
L 2194 1759 
z
M 3341 1997 
L 3341 0 
L 2766 0 
L 2766 531 
Q 2569 213 2275 61 
Q 1981 -91 1556 -91 
Q 1019 -91 701 211 
Q 384 513 384 1019 
Q 384 1609 779 1909 
Q 1175 2209 1959 2209 
L 2766 2209 
L 2766 2266 
Q 2766 2663 2505 2880 
Q 2244 3097 1772 3097 
Q 1472 3097 1187 3025 
Q 903 2953 641 2809 
L 641 3341 
Q 956 3463 1253 3523 
Q 1550 3584 1831 3584 
Q 2591 3584 2966 3190 
Q 3341 2797 3341 1997 
z
" transform="scale(0.015625)"/>
       <path id="DejaVuSans-69" d="M 603 3500 
L 1178 3500 
L 1178 0 
L 603 0 
L 603 3500 
z
M 603 4863 
L 1178 4863 
L 1178 4134 
L 603 4134 
L 603 4863 
z
" transform="scale(0.015625)"/>
       <path id="DejaVuSans-76" d="M 191 3500 
L 800 3500 
L 1894 563 
L 2988 3500 
L 3597 3500 
L 2284 0 
L 1503 0 
L 191 3500 
z
" transform="scale(0.015625)"/>
       <path id="DejaVuSans-63" d="M 3122 3366 
L 3122 2828 
Q 2878 2963 2633 3030 
Q 2388 3097 2138 3097 
Q 1578 3097 1268 2742 
Q 959 2388 959 1747 
Q 959 1106 1268 751 
Q 1578 397 2138 397 
Q 2388 397 2633 464 
Q 2878 531 3122 666 
L 3122 134 
Q 2881 22 2623 -34 
Q 2366 -91 2075 -91 
Q 1284 -91 818 406 
Q 353 903 353 1747 
Q 353 2603 823 3093 
Q 1294 3584 2113 3584 
Q 2378 3584 2631 3529 
Q 2884 3475 3122 3366 
z
" transform="scale(0.015625)"/>
       <path id="DejaVuSans-79" d="M 2059 -325 
Q 1816 -950 1584 -1140 
Q 1353 -1331 966 -1331 
L 506 -1331 
L 506 -850 
L 844 -850 
Q 1081 -850 1212 -737 
Q 1344 -625 1503 -206 
L 1606 56 
L 191 3500 
L 800 3500 
L 1894 763 
L 2988 3500 
L 3597 3500 
L 2059 -325 
z
" transform="scale(0.015625)"/>
      </defs>
      <use xlink:href="#DejaVuSans-52"/>
      <use xlink:href="#DejaVuSans-65" transform="translate(64.982422 0)"/>
      <use xlink:href="#DejaVuSans-6c" transform="translate(126.505859 0)"/>
      <use xlink:href="#DejaVuSans-61" transform="translate(154.289062 0)"/>
      <use xlink:href="#DejaVuSans-74" transform="translate(215.568359 0)"/>
      <use xlink:href="#DejaVuSans-69" transform="translate(254.777344 0)"/>
      <use xlink:href="#DejaVuSans-76" transform="translate(282.560547 0)"/>
      <use xlink:href="#DejaVuSans-65" transform="translate(341.740234 0)"/>
      <use xlink:href="#DejaVuSans-20" transform="translate(403.263672 0)"/>
      <use xlink:href="#DejaVuSans-63" transform="translate(435.050781 0)"/>
      <use xlink:href="#DejaVuSans-65" transform="translate(490.03125 0)"/>
      <use xlink:href="#DejaVuSans-6c" transform="translate(551.554688 0)"/>
      <use xlink:href="#DejaVuSans-6c" transform="translate(579.337891 0)"/>
      <use xlink:href="#DejaVuSans-20" transform="translate(607.121094 0)"/>
      <use xlink:href="#DejaVuSans-76" transform="translate(638.908203 0)"/>
      <use xlink:href="#DejaVuSans-69" transform="translate(698.087891 0)"/>
      <use xlink:href="#DejaVuSans-61" transform="translate(725.871094 0)"/>
      <use xlink:href="#DejaVuSans-62" transform="translate(787.150391 0)"/>
      <use xlink:href="#DejaVuSans-69" transform="translate(850.626953 0)"/>
      <use xlink:href="#DejaVuSans-6c" transform="translate(878.410156 0)"/>
      <use xlink:href="#DejaVuSans-69" transform="translate(906.193359 0)"/>
      <use xlink:href="#DejaVuSans-74" transform="translate(933.976562 0)"/>
      <use xlink:href="#DejaVuSans-79" transform="translate(973.185547 0)"/>
     </g>
    </g>
   </g>
   <g id="patch_3">
    <path d="M 86.815417 240.335982 
L 106.416369 240.335982 
L 106.416369 201.361156 
L 86.815417 201.361156 
L 86.815417 240.335982 
z
" clip-path="url(#p7ae07a810d)" style="fill: #4c72b0; opacity: 0.85; stroke: #000000; stroke-width: 0.8; stroke-linejoin: miter"/>
   </g>
   <g id="line2d_12">
    <path d="M 96.615893 240.335982 
L 96.615893 281.112541 
" clip-path="url(#p7ae07a810d)" style="fill: none; stroke: #333333; stroke-linecap: square"/>
   </g>
   <g id="line2d_13">
    <path d="M 96.615893 201.361156 
L 96.615893 144.914108 
" clip-path="url(#p7ae07a810d)" style="fill: none; stroke: #333333; stroke-linecap: square"/>
   </g>
   <g id="line2d_14">
    <path d="M 91.715655 281.112541 
L 101.516131 281.112541 
" clip-path="url(#p7ae07a810d)" style="fill: none; stroke: #333333; stroke-linecap: square"/>
   </g>
   <g id="line2d_15">
    <path d="M 91.715655 144.914108 
L 101.516131 144.914108 
" clip-path="url(#p7ae07a810d)" style="fill: none; stroke: #333333; stroke-linecap: square"/>
   </g>
   <g id="patch_4">
    <path d="M 175.910655 260.938926 
L 195.511607 260.938926 
L 195.511607 230.080338 
L 175.910655 230.080338 
L 175.910655 260.938926 
z
" clip-path="url(#p7ae07a810d)" style="fill: #dd8452; opacity: 0.85; stroke: #000000; stroke-width: 0.8; stroke-linejoin: miter"/>
   </g>
   <g id="line2d_16">
    <path d="M 185.711131 260.938926 
L 185.711131 279.964449 
" clip-path="url(#p7ae07a810d)" style="fill: none; stroke: #333333; stroke-linecap: square"/>
   </g>
   <g id="line2d_17">
    <path d="M 185.711131 230.080338 
L 185.711131 193.944386 
" clip-path="url(#p7ae07a810d)" style="fill: none; stroke: #333333; stroke-linecap: square"/>
   </g>
   <g id="line2d_18">
    <path d="M 180.810893 279.964449 
L 190.611369 279.964449 
" clip-path="url(#p7ae07a810d)" style="fill: none; stroke: #333333; stroke-linecap: square"/>
   </g>
   <g id="line2d_19">
    <path d="M 180.810893 193.944386 
L 190.611369 193.944386 
" clip-path="url(#p7ae07a810d)" style="fill: none; stroke: #333333; stroke-linecap: square"/>
   </g>
   <g id="patch_5">
    <path d="M 265.005893 279.074437 
L 284.606845 279.074437 
L 284.606845 250.321488 
L 265.005893 250.321488 
L 265.005893 279.074437 
z
" clip-path="url(#p7ae07a810d)" style="fill: #55a868; opacity: 0.85; stroke: #000000; stroke-width: 0.8; stroke-linejoin: miter"/>
   </g>
   <g id="line2d_20">
    <path d="M 274.806369 279.074437 
L 274.806369 299.588138 
" clip-path="url(#p7ae07a810d)" style="fill: none; stroke: #333333; stroke-linecap: square"/>
   </g>
   <g id="line2d_21">
    <path d="M 274.806369 250.321488 
L 274.806369 215.729189 
" clip-path="url(#p7ae07a810d)" style="fill: none; stroke: #333333; stroke-linecap: square"/>
   </g>
   <g id="line2d_22">
    <path d="M 269.906131 299.588138 
L 279.706607 299.588138 
" clip-path="url(#p7ae07a810d)" style="fill: none; stroke: #333333; stroke-linecap: square"/>
   </g>
   <g id="line2d_23">
    <path d="M 269.906131 215.729189 
L 279.706607 215.729189 
" clip-path="url(#p7ae07a810d)" style="fill: none; stroke: #333333; stroke-linecap: square"/>
   </g>
   <g id="patch_6">
    <path d="M 354.101131 292.185839 
L 373.702083 292.185839 
L 373.702083 278.415972 
L 354.101131 278.415972 
L 354.101131 292.185839 
z
" clip-path="url(#p7ae07a810d)" style="fill: #c44e52; opacity: 0.85; stroke: #000000; stroke-width: 0.8; stroke-linejoin: miter"/>
   </g>
   <g id="line2d_24">
    <path d="M 363.901607 292.185839 
L 363.901607 305.251415 
" clip-path="url(#p7ae07a810d)" style="fill: none; stroke: #333333; stroke-linecap: square"/>
   </g>
   <g id="line2d_25">
    <path d="M 363.901607 278.415972 
L 363.901607 259.501399 
" clip-path="url(#p7ae07a810d)" style="fill: none; stroke: #333333; stroke-linecap: square"/>
   </g>
   <g id="line2d_26">
    <path d="M 359.001369 305.251415 
L 368.801845 305.251415 
" clip-path="url(#p7ae07a810d)" style="fill: none; stroke: #333333; stroke-linecap: square"/>
   </g>
   <g id="line2d_27">
    <path d="M 359.001369 259.501399 
L 368.801845 259.501399 
" clip-path="url(#p7ae07a810d)" style="fill: none; stroke: #333333; stroke-linecap: square"/>
   </g>
   <g id="line2d_28">
    <path d="M 96.615893 67.702514 
L 96.615893 63.843382 
L 185.711131 63.843382 
L 185.711131 67.702514 
" clip-path="url(#p7ae07a810d)" style="fill: none; stroke: #333333; stroke-linecap: square"/>
   </g>
   <g id="line2d_29">
    <path d="M 96.615893 46.477286 
L 96.615893 42.618153 
L 274.806369 42.618153 
L 274.806369 46.477286 
" clip-path="url(#p7ae07a810d)" style="fill: none; stroke: #333333; stroke-linecap: square"/>
   </g>
   <g id="line2d_30">
    <path d="M 96.615893 25.252057 
L 96.615893 21.392925 
L 363.901607 21.392925 
L 363.901607 25.252057 
" clip-path="url(#p7ae07a810d)" style="fill: none; stroke: #333333; stroke-linecap: square"/>
   </g>
   <g id="line2d_31">
    <path d="M 86.815417 227.658732 
L 106.416369 227.658732 
" clip-path="url(#p7ae07a810d)" style="fill: none; stroke: #ffffff; stroke-width: 2"/>
   </g>
   <g id="line2d_32">
    <path d="M 175.910655 243.35093 
L 195.511607 243.35093 
" clip-path="url(#p7ae07a810d)" style="fill: none; stroke: #ffffff; stroke-width: 2"/>
   </g>
   <g id="line2d_33">
    <path d="M 265.005893 269.848698 
L 284.606845 269.848698 
" clip-path="url(#p7ae07a810d)" style="fill: none; stroke: #ffffff; stroke-width: 2"/>
   </g>
   <g id="line2d_34">
    <path d="M 354.101131 286.336842 
L 373.702083 286.336842 
" clip-path="url(#p7ae07a810d)" style="fill: none; stroke: #ffffff; stroke-width: 2"/>
   </g>
   <g id="patch_7">
    <path d="M 43.15875 318.44 
L 43.15875 7.2 
" style="fill: none; stroke: #000000; stroke-width: 0.8; stroke-linejoin: miter; stroke-linecap: square"/>
   </g>
   <g id="patch_8">
    <path d="M 43.15875 318.44 
L 417.35875 318.44 
" style="fill: none; stroke: #000000; stroke-width: 0.8; stroke-linejoin: miter; stroke-linecap: square"/>
   </g>
   <g id="PathCollection_1">
    <defs>
     <path id="md9fc37f55d" d="M 0 1.732051 
C 0.459345 1.732051 0.899939 1.549551 1.224745 1.224745 
C 1.549551 0.899939 1.732051 0.459345 1.732051 0 
C 1.732051 -0.459345 1.549551 -0.899939 1.224745 -1.224745 
C 0.899939 -1.549551 0.459345 -1.732051 0 -1.732051 
C -0.459345 -1.732051 -0.899939 -1.549551 -1.224745 -1.224745 
C -1.549551 -0.899939 -1.732051 -0.459345 -1.732051 0 
C -1.732051 0.459345 -1.549551 0.899939 -1.224745 1.224745 
C -0.899939 1.549551 -0.459345 1.732051 0 1.732051 
z
"/>
    </defs>
    <g clip-path="url(#p7ae07a810d)">
     <use xlink:href="#md9fc37f55d" x="107.355492" y="235.082738" style="fill: #4c72b0; fill-opacity: 0.35"/>
     <use xlink:href="#md9fc37f55d" x="94.219811" y="234.716121" style="fill: #4c72b0; fill-opacity: 0.35"/>
     <use xlink:href="#md9fc37f55d" x="110.673614" y="239.839119" style="fill: #4c72b0; fill-opacity: 0.35"/>
     <use xlink:href="#md9fc37f55d" x="104.353096" y="221.170566" style="fill: #4c72b0; fill-opacity: 0.35"/>
     <use xlink:href="#md9fc37f55d" x="80.706872" y="79.279912" style="fill: #4c72b0; fill-opacity: 0.35"/>
     <use xlink:href="#md9fc37f55d" x="115.261195" y="144.914108" style="fill: #4c72b0; fill-opacity: 0.35"/>
     <use xlink:href="#md9fc37f55d" x="106.853067" y="207.605715" style="fill: #4c72b0; fill-opacity: 0.35"/>
     <use xlink:href="#md9fc37f55d" x="107.830159" y="194.06016" style="fill: #4c72b0; fill-opacity: 0.35"/>
     <use xlink:href="#md9fc37f55d" x="82.037239" y="170.606282" style="fill: #4c72b0; fill-opacity: 0.35"/>
     <use xlink:href="#md9fc37f55d" x="94.670927" y="234.146899" style="fill: #4c72b0; fill-opacity: 0.35"/>
     <use xlink:href="#md9fc37f55d" x="91.550929" y="224.383293" style="fill: #4c72b0; fill-opacity: 0.35"/>
     <use xlink:href="#md9fc37f55d" x="113.345893" y="257.85162" style="fill: #4c72b0; fill-opacity: 0.35"/>
     <use xlink:href="#md9fc37f55d" x="102.25568" y="208.126698" style="fill: #4c72b0; fill-opacity: 0.35"/>
     <use xlink:href="#md9fc37f55d" x="109.268763" y="216.317707" style="fill: #4c72b0; fill-opacity: 0.35"/>
     <use xlink:href="#md9fc37f55d" x="94.397622" y="242.41509" style="fill: #4c72b0; fill-opacity: 0.35"/>
     <use xlink:href="#md9fc37f55d" x="85.923131" y="222.17394" style="fill: #4c72b0; fill-opacity: 0.35"/>
     <use xlink:href="#md9fc37f55d" x="98.75572" y="225.270894" style="fill: #4c72b0; fill-opacity: 0.35"/>
     <use xlink:href="#md9fc37f55d" x="79.516698" y="239.694402" style="fill: #4c72b0; fill-opacity: 0.35"/>
     <use xlink:href="#md9fc37f55d" x="109.459659" y="231.522689" style="fill: #4c72b0; fill-opacity: 0.35"/>
     <use xlink:href="#md9fc37f55d" x="101.777388" y="240.331158" style="fill: #4c72b0; fill-opacity: 0.35"/>
     <use xlink:href="#md9fc37f55d" x="106.733424" y="178.662221" style="fill: #4c72b0; fill-opacity: 0.35"/>
     <use xlink:href="#md9fc37f55d" x="90.913034" y="193.905795" style="fill: #4c72b0; fill-opacity: 0.35"/>
     <use xlink:href="#md9fc37f55d" x="115.068152" y="231.898954" style="fill: #4c72b0; fill-opacity: 0.35"/>
     <use xlink:href="#md9fc37f55d" x="112.02699" y="232.159445" style="fill: #4c72b0; fill-opacity: 0.35"/>
     <use xlink:href="#md9fc37f55d" x="107.529056" y="251.397221" style="fill: #4c72b0; fill-opacity: 0.35"/>
     <use xlink:href="#md9fc37f55d" x="84.645149" y="221.431057" style="fill: #4c72b0; fill-opacity: 0.35"/>
     <use xlink:href="#md9fc37f55d" x="95.311293" y="191.059684" style="fill: #4c72b0; fill-opacity: 0.35"/>
     <use xlink:href="#md9fc37f55d" x="78.732132" y="238.092862" style="fill: #4c72b0; fill-opacity: 0.35"/>
     <use xlink:href="#md9fc37f55d" x="83.063382" y="231.889306" style="fill: #4c72b0; fill-opacity: 0.35"/>
     <use xlink:href="#md9fc37f55d" x="103.79176" y="166.96905" style="fill: #4c72b0; fill-opacity: 0.35"/>
     <use xlink:href="#md9fc37f55d" x="106.211036" y="278.826005" style="fill: #4c72b0; fill-opacity: 0.35"/>
     <use xlink:href="#md9fc37f55d" x="114.943165" y="245.348031" style="fill: #4c72b0; fill-opacity: 0.35"/>
     <use xlink:href="#md9fc37f55d" x="89.787915" y="217.803473" style="fill: #4c72b0; fill-opacity: 0.35"/>
     <use xlink:href="#md9fc37f55d" x="91.537667" y="177.900043" style="fill: #4c72b0; fill-opacity: 0.35"/>
     <use xlink:href="#md9fc37f55d" x="95.422423" y="227.316234" style="fill: #4c72b0; fill-opacity: 0.35"/>
     <use xlink:href="#md9fc37f55d" x="84.442579" y="209.062537" style="fill: #4c72b0; fill-opacity: 0.35"/>
     <use xlink:href="#md9fc37f55d" x="82.108111" y="246.86274" style="fill: #4c72b0; fill-opacity: 0.35"/>
     <use xlink:href="#md9fc37f55d" x="95.66348" y="191.870102" style="fill: #4c72b0; fill-opacity: 0.35"/>
     <use xlink:href="#md9fc37f55d" x="85.910219" y="218.507764" style="fill: #4c72b0; fill-opacity: 0.35"/>
     <use xlink:href="#md9fc37f55d" x="103.272925" y="229.95974" style="fill: #4c72b0; fill-opacity: 0.35"/>
     <use xlink:href="#md9fc37f55d" x="94.152128" y="215.864258" style="fill: #4c72b0; fill-opacity: 0.35"/>
     <use xlink:href="#md9fc37f55d" x="109.657512" y="241.093337" style="fill: #4c72b0; fill-opacity: 0.35"/>
     <use xlink:href="#md9fc37f55d" x="104.466666" y="168.763546" style="fill: #4c72b0; fill-opacity: 0.35"/>
     <use xlink:href="#md9fc37f55d" x="89.260308" y="240.350454" style="fill: #4c72b0; fill-opacity: 0.35"/>
     <use xlink:href="#md9fc37f55d" x="109.64111" y="222.260771" style="fill: #4c72b0; fill-opacity: 0.35"/>
     <use xlink:href="#md9fc37f55d" x="108.563236" y="228.00123" style="fill: #4c72b0; fill-opacity: 0.35"/>
     <use xlink:href="#md9fc37f55d" x="92.204831" y="236.867587" style="fill: #4c72b0; fill-opacity: 0.35"/>
     <use xlink:href="#md9fc37f55d" x="88.317951" y="207.827615" style="fill: #4c72b0; fill-opacity: 0.35"/>
     <use xlink:href="#md9fc37f55d" x="103.770064" y="127.28752" style="fill: #4c72b0; fill-opacity: 0.35"/>
     <use xlink:href="#md9fc37f55d" x="82.493504" y="221.604718" style="fill: #4c72b0; fill-opacity: 0.35"/>
     <use xlink:href="#md9fc37f55d" x="84.851723" y="173.085775" style="fill: #4c72b0; fill-opacity: 0.35"/>
     <use xlink:href="#md9fc37f55d" x="77.303555" y="194.581143" style="fill: #4c72b0; fill-opacity: 0.35"/>
     <use xlink:href="#md9fc37f55d" x="107.863875" y="270.451688" style="fill: #4c72b0; fill-opacity: 0.35"/>
     <use xlink:href="#md9fc37f55d" x="103.07836" y="222.260771" style="fill: #4c72b0; fill-opacity: 0.35"/>
     <use xlink:href="#md9fc37f55d" x="104.658766" y="245.888309" style="fill: #4c72b0; fill-opacity: 0.35"/>
     <use xlink:href="#md9fc37f55d" x="107.621006" y="250.461381" style="fill: #4c72b0; fill-opacity: 0.35"/>
     <use xlink:href="#md9fc37f55d" x="95.005313" y="256.018532" style="fill: #4c72b0; fill-opacity: 0.35"/>
     <use xlink:href="#md9fc37f55d" x="99.310679" y="176.462516" style="fill: #4c72b0; fill-opacity: 0.35"/>
     <use xlink:href="#md9fc37f55d" x="82.495249" y="205.348122" style="fill: #4c72b0; fill-opacity: 0.35"/>
     <use xlink:href="#md9fc37f55d" x="81.504738" y="232.294515" style="fill: #4c72b0; fill-opacity: 0.35"/>
     <use xlink:href="#md9fc37f55d" x="103.21761" y="239.752289" style="fill: #4c72b0; fill-opacity: 0.35"/>
     <use xlink:href="#md9fc37f55d" x="95.482809" y="258.883938" style="fill: #4c72b0; fill-opacity: 0.35"/>
     <use xlink:href="#md9fc37f55d" x="99.173272" y="182.801141" style="fill: #4c72b0; fill-opacity: 0.35"/>
     <use xlink:href="#md9fc37f55d" x="107.004353" y="260.736321" style="fill: #4c72b0; fill-opacity: 0.35"/>
     <use xlink:href="#md9fc37f55d" x="101.897108" y="281.112541" style="fill: #4c72b0; fill-opacity: 0.35"/>
     <use xlink:href="#md9fc37f55d" x="98.716307" y="246.245279" style="fill: #4c72b0; fill-opacity: 0.35"/>
     <use xlink:href="#md9fc37f55d" x="98.936926" y="245.859366" style="fill: #4c72b0; fill-opacity: 0.35"/>
     <use xlink:href="#md9fc37f55d" x="88.930363" y="182.965154" style="fill: #4c72b0; fill-opacity: 0.35"/>
     <use xlink:href="#md9fc37f55d" x="78.223058" y="233.953942" style="fill: #4c72b0; fill-opacity: 0.35"/>
     <use xlink:href="#md9fc37f55d" x="94.135094" y="260.157452" style="fill: #4c72b0; fill-opacity: 0.35"/>
     <use xlink:href="#md9fc37f55d" x="85.427068" y="235.574778" style="fill: #4c72b0; fill-opacity: 0.35"/>
     <use xlink:href="#md9fc37f55d" x="93.030041" y="127.393646" style="fill: #4c72b0; fill-opacity: 0.35"/>
     <use xlink:href="#md9fc37f55d" x="110.469966" y="247.287245" style="fill: #4c72b0; fill-opacity: 0.35"/>
     <use xlink:href="#md9fc37f55d" x="86.185814" y="230.355301" style="fill: #4c72b0; fill-opacity: 0.35"/>
     <use xlink:href="#md9fc37f55d" x="79.300519" y="229.651009" style="fill: #4c72b0; fill-opacity: 0.35"/>
     <use xlink:href="#md9fc37f55d" x="88.045725" y="186.293656" style="fill: #4c72b0; fill-opacity: 0.35"/>
     <use xlink:href="#md9fc37f55d" x="88.524375" y="125.184293" style="fill: #4c72b0; fill-opacity: 0.35"/>
     <use xlink:href="#md9fc37f55d" x="102.963329" y="212.265617" style="fill: #4c72b0; fill-opacity: 0.35"/>
     <use xlink:href="#md9fc37f55d" x="98.851662" y="237.0316" style="fill: #4c72b0; fill-opacity: 0.35"/>
     <use xlink:href="#md9fc37f55d" x="107.745243" y="202.473069" style="fill: #4c72b0; fill-opacity: 0.35"/>
     <use xlink:href="#md9fc37f55d" x="103.057297" y="272.197945" style="fill: #4c72b0; fill-opacity: 0.35"/>
     <use xlink:href="#md9fc37f55d" x="92.94608" y="236.414139" style="fill: #4c72b0; fill-opacity: 0.35"/>
     <use xlink:href="#md9fc37f55d" x="108.92609" y="266.824103" style="fill: #4c72b0; fill-opacity: 0.35"/>
     <use xlink:href="#md9fc37f55d" x="83.560597" y="235.738791" style="fill: #4c72b0; fill-opacity: 0.35"/>
     <use xlink:href="#md9fc37f55d" x="77.905297" y="258.932177" style="fill: #4c72b0; fill-opacity: 0.35"/>
     <use xlink:href="#md9fc37f55d" x="80.544988" y="197.282536" style="fill: #4c72b0; fill-opacity: 0.35"/>
     <use xlink:href="#md9fc37f55d" x="105.332803" y="245.058596" style="fill: #4c72b0; fill-opacity: 0.35"/>
     <use xlink:href="#md9fc37f55d" x="95.121408" y="198.025419" style="fill: #4c72b0; fill-opacity: 0.35"/>
     <use xlink:href="#md9fc37f55d" x="83.337101" y="210.490416" style="fill: #4c72b0; fill-opacity: 0.35"/>
     <use xlink:href="#md9fc37f55d" x="96.65685" y="189.525679" style="fill: #4c72b0; fill-opacity: 0.35"/>
     <use xlink:href="#md9fc37f55d" x="82.985865" y="215.584471" style="fill: #4c72b0; fill-opacity: 0.35"/>
     <use xlink:href="#md9fc37f55d" x="104.312026" y="203.109826" style="fill: #4c72b0; fill-opacity: 0.35"/>
     <use xlink:href="#md9fc37f55d" x="94.505116" y="239.530388" style="fill: #4c72b0; fill-opacity: 0.35"/>
     <use xlink:href="#md9fc37f55d" x="91.951698" y="214.986306" style="fill: #4c72b0; fill-opacity: 0.35"/>
     <use xlink:href="#md9fc37f55d" x="88.834789" y="221.411761" style="fill: #4c72b0; fill-opacity: 0.35"/>
     <use xlink:href="#md9fc37f55d" x="101.723219" y="153.838352" style="fill: #4c72b0; fill-opacity: 0.35"/>
     <use xlink:href="#md9fc37f55d" x="91.198684" y="229.718544" style="fill: #4c72b0; fill-opacity: 0.35"/>
     <use xlink:href="#md9fc37f55d" x="80.450984" y="253.162774" style="fill: #4c72b0; fill-opacity: 0.35"/>
     <use xlink:href="#md9fc37f55d" x="81.640997" y="245.676057" style="fill: #4c72b0; fill-opacity: 0.35"/>
     <use xlink:href="#md9fc37f55d" x="114.723161" y="172.854227" style="fill: #4c72b0; fill-opacity: 0.35"/>
    </g>
   </g>
   <g id="PathCollection_2">
    <defs>
     <path id="mc6bd8df554" d="M 0 1.732051 
C 0.459345 1.732051 0.899939 1.549551 1.224745 1.224745 
C 1.549551 0.899939 1.732051 0.459345 1.732051 0 
C 1.732051 -0.459345 1.549551 -0.899939 1.224745 -1.224745 
C 0.899939 -1.549551 0.459345 -1.732051 0 -1.732051 
C -0.459345 -1.732051 -0.899939 -1.549551 -1.224745 -1.224745 
C -1.549551 -0.899939 -1.732051 -0.459345 -1.732051 0 
C -1.732051 0.459345 -1.549551 0.899939 -1.224745 1.224745 
C -0.899939 1.549551 -0.459345 1.732051 0 1.732051 
z
"/>
    </defs>
    <g clip-path="url(#p7ae07a810d)">
     <use xlink:href="#mc6bd8df554" x="201.728272" y="206.283962" style="fill: #dd8452; fill-opacity: 0.35"/>
     <use xlink:href="#mc6bd8df554" x="193.540031" y="279.096144" style="fill: #dd8452; fill-opacity: 0.35"/>
     <use xlink:href="#mc6bd8df554" x="176.532787" y="230.837693" style="fill: #dd8452; fill-opacity: 0.35"/>
     <use xlink:href="#mc6bd8df554" x="204.103739" y="260.909982" style="fill: #dd8452; fill-opacity: 0.35"/>
     <use xlink:href="#mc6bd8df554" x="196.638697" y="261.025756" style="fill: #dd8452; fill-opacity: 0.35"/>
     <use xlink:href="#mc6bd8df554" x="194.213639" y="266.322416" style="fill: #dd8452; fill-opacity: 0.35"/>
     <use xlink:href="#mc6bd8df554" x="183.726005" y="234.069716" style="fill: #dd8452; fill-opacity: 0.35"/>
     <use xlink:href="#mc6bd8df554" x="176.782566" y="269.785987" style="fill: #dd8452; fill-opacity: 0.35"/>
     <use xlink:href="#mc6bd8df554" x="169.888888" y="232.622541" style="fill: #dd8452; fill-opacity: 0.35"/>
     <use xlink:href="#mc6bd8df554" x="201.493912" y="253.124183" style="fill: #dd8452; fill-opacity: 0.35"/>
     <use xlink:href="#mc6bd8df554" x="183.977477" y="207.036493" style="fill: #dd8452; fill-opacity: 0.35"/>
     <use xlink:href="#mc6bd8df554" x="174.043208" y="252.998761" style="fill: #dd8452; fill-opacity: 0.35"/>
     <use xlink:href="#mc6bd8df554" x="178.104261" y="235.941395" style="fill: #dd8452; fill-opacity: 0.35"/>
     <use xlink:href="#mc6bd8df554" x="188.816689" y="279.655718" style="fill: #dd8452; fill-opacity: 0.35"/>
     <use xlink:href="#mc6bd8df554" x="173.040008" y="248.666885" style="fill: #dd8452; fill-opacity: 0.35"/>
     <use xlink:href="#mc6bd8df554" x="199.69109" y="260.408295" style="fill: #dd8452; fill-opacity: 0.35"/>
     <use xlink:href="#mc6bd8df554" x="195.845589" y="253.471505" style="fill: #dd8452; fill-opacity: 0.35"/>
     <use xlink:href="#mc6bd8df554" x="194.314497" y="250.480677" style="fill: #dd8452; fill-opacity: 0.35"/>
     <use xlink:href="#mc6bd8df554" x="183.049049" y="229.072139" style="fill: #dd8452; fill-opacity: 0.35"/>
     <use xlink:href="#mc6bd8df554" x="190.70188" y="260.11886" style="fill: #dd8452; fill-opacity: 0.35"/>
     <use xlink:href="#mc6bd8df554" x="189.007932" y="271.898862" style="fill: #dd8452; fill-opacity: 0.35"/>
     <use xlink:href="#mc6bd8df554" x="191.585403" y="245.270848" style="fill: #dd8452; fill-opacity: 0.35"/>
     <use xlink:href="#mc6bd8df554" x="169.420557" y="126.496398" style="fill: #dd8452; fill-opacity: 0.35"/>
     <use xlink:href="#mc6bd8df554" x="182.410621" y="279.279453" style="fill: #dd8452; fill-opacity: 0.35"/>
     <use xlink:href="#mc6bd8df554" x="167.741533" y="254.088966" style="fill: #dd8452; fill-opacity: 0.35"/>
     <use xlink:href="#mc6bd8df554" x="185.47556" y="262.501875" style="fill: #dd8452; fill-opacity: 0.35"/>
     <use xlink:href="#mc6bd8df554" x="179.041366" y="229.197561" style="fill: #dd8452; fill-opacity: 0.35"/>
     <use xlink:href="#mc6bd8df554" x="171.775802" y="270.982318" style="fill: #dd8452; fill-opacity: 0.35"/>
     <use xlink:href="#mc6bd8df554" x="170.163772" y="257.320989" style="fill: #dd8452; fill-opacity: 0.35"/>
     <use xlink:href="#mc6bd8df554" x="189.146965" y="244.006982" style="fill: #dd8452; fill-opacity: 0.35"/>
     <use xlink:href="#mc6bd8df554" x="172.797748" y="204.132496" style="fill: #dd8452; fill-opacity: 0.35"/>
     <use xlink:href="#mc6bd8df554" x="202.376649" y="175.825759" style="fill: #dd8452; fill-opacity: 0.35"/>
     <use xlink:href="#mc6bd8df554" x="188.888882" y="223.534284" style="fill: #dd8452; fill-opacity: 0.35"/>
     <use xlink:href="#mc6bd8df554" x="179.708136" y="224.614841" style="fill: #dd8452; fill-opacity: 0.35"/>
     <use xlink:href="#mc6bd8df554" x="189.275191" y="266.631146" style="fill: #dd8452; fill-opacity: 0.35"/>
     <use xlink:href="#mc6bd8df554" x="167.004134" y="222.588797" style="fill: #dd8452; fill-opacity: 0.35"/>
     <use xlink:href="#mc6bd8df554" x="203.687526" y="261.672161" style="fill: #dd8452; fill-opacity: 0.35"/>
     <use xlink:href="#mc6bd8df554" x="185.017392" y="241.865164" style="fill: #dd8452; fill-opacity: 0.35"/>
     <use xlink:href="#mc6bd8df554" x="196.79489" y="262.723775" style="fill: #dd8452; fill-opacity: 0.35"/>
     <use xlink:href="#mc6bd8df554" x="169.353352" y="278.343613" style="fill: #dd8452; fill-opacity: 0.35"/>
     <use xlink:href="#mc6bd8df554" x="185.188112" y="223.707945" style="fill: #dd8452; fill-opacity: 0.35"/>
     <use xlink:href="#mc6bd8df554" x="185.346827" y="232.497119" style="fill: #dd8452; fill-opacity: 0.35"/>
     <use xlink:href="#mc6bd8df554" x="202.874762" y="234.436334" style="fill: #dd8452; fill-opacity: 0.35"/>
     <use xlink:href="#mc6bd8df554" x="188.523007" y="251.35863" style="fill: #dd8452; fill-opacity: 0.35"/>
     <use xlink:href="#mc6bd8df554" x="184.671865" y="252.410243" style="fill: #dd8452; fill-opacity: 0.35"/>
     <use xlink:href="#mc6bd8df554" x="176.576133" y="247.345132" style="fill: #dd8452; fill-opacity: 0.35"/>
     <use xlink:href="#mc6bd8df554" x="179.108315" y="243.804378" style="fill: #dd8452; fill-opacity: 0.35"/>
     <use xlink:href="#mc6bd8df554" x="186.521529" y="163.949279" style="fill: #dd8452; fill-opacity: 0.35"/>
     <use xlink:href="#mc6bd8df554" x="183.316344" y="245.454157" style="fill: #dd8452; fill-opacity: 0.35"/>
     <use xlink:href="#mc6bd8df554" x="166.957413" y="244.527965" style="fill: #dd8452; fill-opacity: 0.35"/>
     <use xlink:href="#mc6bd8df554" x="198.502396" y="267.576634" style="fill: #dd8452; fill-opacity: 0.35"/>
     <use xlink:href="#mc6bd8df554" x="201.241388" y="269.940352" style="fill: #dd8452; fill-opacity: 0.35"/>
     <use xlink:href="#mc6bd8df554" x="171.60821" y="242.704525" style="fill: #dd8452; fill-opacity: 0.35"/>
     <use xlink:href="#mc6bd8df554" x="187.829451" y="236.163295" style="fill: #dd8452; fill-opacity: 0.35"/>
     <use xlink:href="#mc6bd8df554" x="170.366554" y="177.079977" style="fill: #dd8452; fill-opacity: 0.35"/>
     <use xlink:href="#mc6bd8df554" x="192.463271" y="242.63699" style="fill: #dd8452; fill-opacity: 0.35"/>
     <use xlink:href="#mc6bd8df554" x="177.135079" y="242.897482" style="fill: #dd8452; fill-opacity: 0.35"/>
     <use xlink:href="#mc6bd8df554" x="191.960802" y="158.614028" style="fill: #dd8452; fill-opacity: 0.35"/>
     <use xlink:href="#mc6bd8df554" x="194.609752" y="251.194616" style="fill: #dd8452; fill-opacity: 0.35"/>
     <use xlink:href="#mc6bd8df554" x="196.242624" y="268.087969" style="fill: #dd8452; fill-opacity: 0.35"/>
     <use xlink:href="#mc6bd8df554" x="170.333829" y="228.088061" style="fill: #dd8452; fill-opacity: 0.35"/>
     <use xlink:href="#mc6bd8df554" x="202.019588" y="213.934692" style="fill: #dd8452; fill-opacity: 0.35"/>
     <use xlink:href="#mc6bd8df554" x="175.135006" y="224.547307" style="fill: #dd8452; fill-opacity: 0.35"/>
     <use xlink:href="#mc6bd8df554" x="167.576822" y="241.923051" style="fill: #dd8452; fill-opacity: 0.35"/>
     <use xlink:href="#mc6bd8df554" x="187.861452" y="259.09619" style="fill: #dd8452; fill-opacity: 0.35"/>
     <use xlink:href="#mc6bd8df554" x="180.651039" y="242.791355" style="fill: #dd8452; fill-opacity: 0.35"/>
     <use xlink:href="#mc6bd8df554" x="198.639517" y="107.326157" style="fill: #dd8452; fill-opacity: 0.35"/>
     <use xlink:href="#mc6bd8df554" x="197.795176" y="272.448789" style="fill: #dd8452; fill-opacity: 0.35"/>
     <use xlink:href="#mc6bd8df554" x="178.542627" y="232.921624" style="fill: #dd8452; fill-opacity: 0.35"/>
     <use xlink:href="#mc6bd8df554" x="203.46565" y="193.944386" style="fill: #dd8452; fill-opacity: 0.35"/>
     <use xlink:href="#mc6bd8df554" x="177.514712" y="205.145518" style="fill: #dd8452; fill-opacity: 0.35"/>
     <use xlink:href="#mc6bd8df554" x="186.301399" y="232.854089" style="fill: #dd8452; fill-opacity: 0.35"/>
     <use xlink:href="#mc6bd8df554" x="176.144498" y="222.482671" style="fill: #dd8452; fill-opacity: 0.35"/>
     <use xlink:href="#mc6bd8df554" x="202.804869" y="265.753194" style="fill: #dd8452; fill-opacity: 0.35"/>
     <use xlink:href="#mc6bd8df554" x="172.563119" y="246.293518" style="fill: #dd8452; fill-opacity: 0.35"/>
     <use xlink:href="#mc6bd8df554" x="167.87076" y="230.683327" style="fill: #dd8452; fill-opacity: 0.35"/>
     <use xlink:href="#mc6bd8df554" x="183.166812" y="221.103031" style="fill: #dd8452; fill-opacity: 0.35"/>
     <use xlink:href="#mc6bd8df554" x="205.013191" y="230.721919" style="fill: #dd8452; fill-opacity: 0.35"/>
     <use xlink:href="#mc6bd8df554" x="201.065626" y="233.355776" style="fill: #dd8452; fill-opacity: 0.35"/>
     <use xlink:href="#mc6bd8df554" x="195.457039" y="237.494696" style="fill: #dd8452; fill-opacity: 0.35"/>
     <use xlink:href="#mc6bd8df554" x="201.030941" y="261.903709" style="fill: #dd8452; fill-opacity: 0.35"/>
     <use xlink:href="#mc6bd8df554" x="201.134989" y="235.767734" style="fill: #dd8452; fill-opacity: 0.35"/>
     <use xlink:href="#mc6bd8df554" x="186.450415" y="271.078797" style="fill: #dd8452; fill-opacity: 0.35"/>
     <use xlink:href="#mc6bd8df554" x="178.495199" y="266.341711" style="fill: #dd8452; fill-opacity: 0.35"/>
     <use xlink:href="#mc6bd8df554" x="196.374536" y="267.875717" style="fill: #dd8452; fill-opacity: 0.35"/>
     <use xlink:href="#mc6bd8df554" x="192.04856" y="237.957792" style="fill: #dd8452; fill-opacity: 0.35"/>
     <use xlink:href="#mc6bd8df554" x="180.758273" y="231.734941" style="fill: #dd8452; fill-opacity: 0.35"/>
     <use xlink:href="#mc6bd8df554" x="169.813452" y="255.642267" style="fill: #dd8452; fill-opacity: 0.35"/>
     <use xlink:href="#mc6bd8df554" x="195.385754" y="279.964449" style="fill: #dd8452; fill-opacity: 0.35"/>
     <use xlink:href="#mc6bd8df554" x="176.399131" y="248.975615" style="fill: #dd8452; fill-opacity: 0.35"/>
     <use xlink:href="#mc6bd8df554" x="202.835038" y="238.719971" style="fill: #dd8452; fill-opacity: 0.35"/>
     <use xlink:href="#mc6bd8df554" x="175.556684" y="230.374597" style="fill: #dd8452; fill-opacity: 0.35"/>
     <use xlink:href="#mc6bd8df554" x="170.922523" y="276.49123" style="fill: #dd8452; fill-opacity: 0.35"/>
     <use xlink:href="#mc6bd8df554" x="198.691378" y="248.560758" style="fill: #dd8452; fill-opacity: 0.35"/>
     <use xlink:href="#mc6bd8df554" x="172.119216" y="270.953375" style="fill: #dd8452; fill-opacity: 0.35"/>
     <use xlink:href="#mc6bd8df554" x="173.137838" y="242.308964" style="fill: #dd8452; fill-opacity: 0.35"/>
     <use xlink:href="#mc6bd8df554" x="189.607126" y="223.920198" style="fill: #dd8452; fill-opacity: 0.35"/>
     <use xlink:href="#mc6bd8df554" x="200.394676" y="254.542414" style="fill: #dd8452; fill-opacity: 0.35"/>
     <use xlink:href="#mc6bd8df554" x="173.810792" y="181.730232" style="fill: #dd8452; fill-opacity: 0.35"/>
     <use xlink:href="#mc6bd8df554" x="178.275458" y="219.337478" style="fill: #dd8452; fill-opacity: 0.35"/>
    </g>
   </g>
   <g id="PathCollection_3">
    <defs>
     <path id="m486f64cdda" d="M 0 1.732051 
C 0.459345 1.732051 0.899939 1.549551 1.224745 1.224745 
C 1.549551 0.899939 1.732051 0.459345 1.732051 0 
C 1.732051 -0.459345 1.549551 -0.899939 1.224745 -1.224745 
C 0.899939 -1.549551 0.459345 -1.732051 0 -1.732051 
C -0.459345 -1.732051 -0.899939 -1.549551 -1.224745 -1.224745 
C -1.549551 -0.899939 -1.732051 -0.459345 -1.732051 0 
C -1.732051 0.459345 -1.549551 0.899939 -1.224745 1.224745 
C -0.899939 1.549551 -0.459345 1.732051 0 1.732051 
z
"/>
    </defs>
    <g clip-path="url(#p7ae07a810d)">
     <use xlink:href="#m486f64cdda" x="285.681167" y="249.26505" style="fill: #55a868; fill-opacity: 0.35"/>
     <use xlink:href="#m486f64cdda" x="293.302864" y="274.291524" style="fill: #55a868; fill-opacity: 0.35"/>
     <use xlink:href="#m486f64cdda" x="274.835425" y="282.67549" style="fill: #55a868; fill-opacity: 0.35"/>
     <use xlink:href="#m486f64cdda" x="260.846473" y="205.27094" style="fill: #55a868; fill-opacity: 0.35"/>
     <use xlink:href="#m486f64cdda" x="255.751746" y="255.343184" style="fill: #55a868; fill-opacity: 0.35"/>
     <use xlink:href="#m486f64cdda" x="264.20837" y="262.251031" style="fill: #55a868; fill-opacity: 0.35"/>
     <use xlink:href="#m486f64cdda" x="260.373099" y="242.135303" style="fill: #55a868; fill-opacity: 0.35"/>
     <use xlink:href="#m486f64cdda" x="281.770927" y="282.646546" style="fill: #55a868; fill-opacity: 0.35"/>
     <use xlink:href="#m486f64cdda" x="259.981483" y="274.484481" style="fill: #55a868; fill-opacity: 0.35"/>
     <use xlink:href="#m486f64cdda" x="275.054514" y="252.352356" style="fill: #55a868; fill-opacity: 0.35"/>
     <use xlink:href="#m486f64cdda" x="282.421827" y="243.891208" style="fill: #55a868; fill-opacity: 0.35"/>
     <use xlink:href="#m486f64cdda" x="277.986295" y="249.93075" style="fill: #55a868; fill-opacity: 0.35"/>
     <use xlink:href="#m486f64cdda" x="263.037003" y="271.10774" style="fill: #55a868; fill-opacity: 0.35"/>
     <use xlink:href="#m486f64cdda" x="286.72863" y="196.404583" style="fill: #55a868; fill-opacity: 0.35"/>
     <use xlink:href="#m486f64cdda" x="283.250739" y="272.169001" style="fill: #55a868; fill-opacity: 0.35"/>
     <use xlink:href="#m486f64cdda" x="284.174997" y="262.038779" style="fill: #55a868; fill-opacity: 0.35"/>
     <use xlink:href="#m486f64cdda" x="260.34313" y="284.884843" style="fill: #55a868; fill-opacity: 0.35"/>
     <use xlink:href="#m486f64cdda" x="260.056801" y="270.837601" style="fill: #55a868; fill-opacity: 0.35"/>
     <use xlink:href="#m486f64cdda" x="291.567635" y="245.666409" style="fill: #55a868; fill-opacity: 0.35"/>
     <use xlink:href="#m486f64cdda" x="270.791239" y="235.266047" style="fill: #55a868; fill-opacity: 0.35"/>
     <use xlink:href="#m486f64cdda" x="267.003179" y="290.364811" style="fill: #55a868; fill-opacity: 0.35"/>
     <use xlink:href="#m486f64cdda" x="274.358842" y="284.58576" style="fill: #55a868; fill-opacity: 0.35"/>
     <use xlink:href="#m486f64cdda" x="281.190956" y="279.009314" style="fill: #55a868; fill-opacity: 0.35"/>
     <use xlink:href="#m486f64cdda" x="292.667669" y="234.339855" style="fill: #55a868; fill-opacity: 0.35"/>
     <use xlink:href="#m486f64cdda" x="266.434654" y="259.154077" style="fill: #55a868; fill-opacity: 0.35"/>
     <use xlink:href="#m486f64cdda" x="291.459669" y="253.992487" style="fill: #55a868; fill-opacity: 0.35"/>
     <use xlink:href="#m486f64cdda" x="256.179956" y="274.494129" style="fill: #55a868; fill-opacity: 0.35"/>
     <use xlink:href="#m486f64cdda" x="276.970237" y="284.913787" style="fill: #55a868; fill-opacity: 0.35"/>
     <use xlink:href="#m486f64cdda" x="280.058449" y="271.223514" style="fill: #55a868; fill-opacity: 0.35"/>
     <use xlink:href="#m486f64cdda" x="259.356797" y="225.415611" style="fill: #55a868; fill-opacity: 0.35"/>
     <use xlink:href="#m486f64cdda" x="260.706996" y="226.216381" style="fill: #55a868; fill-opacity: 0.35"/>
     <use xlink:href="#m486f64cdda" x="271.635496" y="285.598783" style="fill: #55a868; fill-opacity: 0.35"/>
     <use xlink:href="#m486f64cdda" x="293.083548" y="273.587233" style="fill: #55a868; fill-opacity: 0.35"/>
     <use xlink:href="#m486f64cdda" x="278.57142" y="279.578536" style="fill: #55a868; fill-opacity: 0.35"/>
     <use xlink:href="#m486f64cdda" x="291.781704" y="263.81398" style="fill: #55a868; fill-opacity: 0.35"/>
     <use xlink:href="#m486f64cdda" x="286.737897" y="251.561234" style="fill: #55a868; fill-opacity: 0.35"/>
     <use xlink:href="#m486f64cdda" x="273.527666" y="266.698681" style="fill: #55a868; fill-opacity: 0.35"/>
     <use xlink:href="#m486f64cdda" x="285.969639" y="281.96155" style="fill: #55a868; fill-opacity: 0.35"/>
     <use xlink:href="#m486f64cdda" x="255.904653" y="287.692362" style="fill: #55a868; fill-opacity: 0.35"/>
     <use xlink:href="#m486f64cdda" x="259.484069" y="273.461811" style="fill: #55a868; fill-opacity: 0.35"/>
     <use xlink:href="#m486f64cdda" x="287.720598" y="251.069195" style="fill: #55a868; fill-opacity: 0.35"/>
     <use xlink:href="#m486f64cdda" x="286.442164" y="290.586711" style="fill: #55a868; fill-opacity: 0.35"/>
     <use xlink:href="#m486f64cdda" x="264.325377" y="225.95589" style="fill: #55a868; fill-opacity: 0.35"/>
     <use xlink:href="#m486f64cdda" x="276.012596" y="258.662038" style="fill: #55a868; fill-opacity: 0.35"/>
     <use xlink:href="#m486f64cdda" x="278.962391" y="270.326266" style="fill: #55a868; fill-opacity: 0.35"/>
     <use xlink:href="#m486f64cdda" x="289.222436" y="276.674539" style="fill: #55a868; fill-opacity: 0.35"/>
     <use xlink:href="#m486f64cdda" x="278.848366" y="232.429585" style="fill: #55a868; fill-opacity: 0.35"/>
     <use xlink:href="#m486f64cdda" x="271.379008" y="290.027137" style="fill: #55a868; fill-opacity: 0.35"/>
     <use xlink:href="#m486f64cdda" x="269.874144" y="278.999666" style="fill: #55a868; fill-opacity: 0.35"/>
     <use xlink:href="#m486f64cdda" x="271.900806" y="261.122235" style="fill: #55a868; fill-opacity: 0.35"/>
     <use xlink:href="#m486f64cdda" x="280.762355" y="236.915826" style="fill: #55a868; fill-opacity: 0.35"/>
     <use xlink:href="#m486f64cdda" x="289.212702" y="272.082171" style="fill: #55a868; fill-opacity: 0.35"/>
     <use xlink:href="#m486f64cdda" x="272.999039" y="241.064394" style="fill: #55a868; fill-opacity: 0.35"/>
     <use xlink:href="#m486f64cdda" x="264.9212" y="281.180076" style="fill: #55a868; fill-opacity: 0.35"/>
     <use xlink:href="#m486f64cdda" x="264.483032" y="240.061019" style="fill: #55a868; fill-opacity: 0.35"/>
     <use xlink:href="#m486f64cdda" x="284.450597" y="283.485907" style="fill: #55a868; fill-opacity: 0.35"/>
     <use xlink:href="#m486f64cdda" x="287.216468" y="246.563657" style="fill: #55a868; fill-opacity: 0.35"/>
     <use xlink:href="#m486f64cdda" x="259.332518" y="277.7358" style="fill: #55a868; fill-opacity: 0.35"/>
     <use xlink:href="#m486f64cdda" x="257.814651" y="202.64673" style="fill: #55a868; fill-opacity: 0.35"/>
     <use xlink:href="#m486f64cdda" x="278.508349" y="276.93503" style="fill: #55a868; fill-opacity: 0.35"/>
     <use xlink:href="#m486f64cdda" x="260.935686" y="276.066725" style="fill: #55a868; fill-opacity: 0.35"/>
     <use xlink:href="#m486f64cdda" x="287.533824" y="264.527919" style="fill: #55a868; fill-opacity: 0.35"/>
     <use xlink:href="#m486f64cdda" x="267.371127" y="271.725201" style="fill: #55a868; fill-opacity: 0.35"/>
     <use xlink:href="#m486f64cdda" x="260.84547" y="282.45359" style="fill: #55a868; fill-opacity: 0.35"/>
     <use xlink:href="#m486f64cdda" x="291.309213" y="250.451733" style="fill: #55a868; fill-opacity: 0.35"/>
     <use xlink:href="#m486f64cdda" x="261.694575" y="286.380257" style="fill: #55a868; fill-opacity: 0.35"/>
     <use xlink:href="#m486f64cdda" x="266.366986" y="279.028609" style="fill: #55a868; fill-opacity: 0.35"/>
     <use xlink:href="#m486f64cdda" x="261.227354" y="268.936978" style="fill: #55a868; fill-opacity: 0.35"/>
     <use xlink:href="#m486f64cdda" x="259.732847" y="278.739175" style="fill: #55a868; fill-opacity: 0.35"/>
     <use xlink:href="#m486f64cdda" x="256.034459" y="251.484051" style="fill: #55a868; fill-opacity: 0.35"/>
     <use xlink:href="#m486f64cdda" x="257.377022" y="256.906132" style="fill: #55a868; fill-opacity: 0.35"/>
     <use xlink:href="#m486f64cdda" x="262.051695" y="287.605531" style="fill: #55a868; fill-opacity: 0.35"/>
     <use xlink:href="#m486f64cdda" x="257.29809" y="275.893064" style="fill: #55a868; fill-opacity: 0.35"/>
     <use xlink:href="#m486f64cdda" x="278.37938" y="236.886883" style="fill: #55a868; fill-opacity: 0.35"/>
     <use xlink:href="#m486f64cdda" x="281.890723" y="255.101988" style="fill: #55a868; fill-opacity: 0.35"/>
     <use xlink:href="#m486f64cdda" x="270.63648" y="268.531769" style="fill: #55a868; fill-opacity: 0.35"/>
     <use xlink:href="#m486f64cdda" x="267.671273" y="226.592647" style="fill: #55a868; fill-opacity: 0.35"/>
     <use xlink:href="#m486f64cdda" x="274.983806" y="215.729189" style="fill: #55a868; fill-opacity: 0.35"/>
     <use xlink:href="#m486f64cdda" x="289.507277" y="256.443037" style="fill: #55a868; fill-opacity: 0.35"/>
     <use xlink:href="#m486f64cdda" x="288.571398" y="279.211918" style="fill: #55a868; fill-opacity: 0.35"/>
     <use xlink:href="#m486f64cdda" x="256.909722" y="283.437668" style="fill: #55a868; fill-opacity: 0.35"/>
     <use xlink:href="#m486f64cdda" x="262.3205" y="222.608092" style="fill: #55a868; fill-opacity: 0.35"/>
     <use xlink:href="#m486f64cdda" x="264.486267" y="259.578582" style="fill: #55a868; fill-opacity: 0.35"/>
     <use xlink:href="#m486f64cdda" x="264.981885" y="269.660565" style="fill: #55a868; fill-opacity: 0.35"/>
     <use xlink:href="#m486f64cdda" x="277.598825" y="258.401546" style="fill: #55a868; fill-opacity: 0.35"/>
     <use xlink:href="#m486f64cdda" x="271.523697" y="287.846727" style="fill: #55a868; fill-opacity: 0.35"/>
     <use xlink:href="#m486f64cdda" x="257.136272" y="248.705476" style="fill: #55a868; fill-opacity: 0.35"/>
     <use xlink:href="#m486f64cdda" x="269.851803" y="276.71313" style="fill: #55a868; fill-opacity: 0.35"/>
     <use xlink:href="#m486f64cdda" x="275.73753" y="289.52545" style="fill: #55a868; fill-opacity: 0.35"/>
     <use xlink:href="#m486f64cdda" x="259.191149" y="226.447929" style="fill: #55a868; fill-opacity: 0.35"/>
     <use xlink:href="#m486f64cdda" x="287.87858" y="288.222993" style="fill: #55a868; fill-opacity: 0.35"/>
     <use xlink:href="#m486f64cdda" x="257.242421" y="260.543365" style="fill: #55a868; fill-opacity: 0.35"/>
     <use xlink:href="#m486f64cdda" x="291.46098" y="264.286723" style="fill: #55a868; fill-opacity: 0.35"/>
     <use xlink:href="#m486f64cdda" x="259.090841" y="238.247227" style="fill: #55a868; fill-opacity: 0.35"/>
     <use xlink:href="#m486f64cdda" x="288.275162" y="299.588138" style="fill: #55a868; fill-opacity: 0.35"/>
     <use xlink:href="#m486f64cdda" x="290.591139" y="287.875671" style="fill: #55a868; fill-opacity: 0.35"/>
     <use xlink:href="#m486f64cdda" x="293.606453" y="278.015587" style="fill: #55a868; fill-opacity: 0.35"/>
     <use xlink:href="#m486f64cdda" x="286.646359" y="270.036831" style="fill: #55a868; fill-opacity: 0.35"/>
     <use xlink:href="#m486f64cdda" x="285.762421" y="276.095669" style="fill: #55a868; fill-opacity: 0.35"/>
     <use xlink:href="#m486f64cdda" x="280.391985" y="286.341666" style="fill: #55a868; fill-opacity: 0.35"/>
    </g>
   </g>
   <g id="PathCollection_4">
    <defs>
     <path id="m8746000e1f" d="M 0 1.732051 
C 0.459345 1.732051 0.899939 1.549551 1.224745 1.224745 
C 1.549551 0.899939 1.732051 0.459345 1.732051 0 
C 1.732051 -0.459345 1.549551 -0.899939 1.224745 -1.224745 
C 0.899939 -1.549551 0.459345 -1.732051 0 -1.732051 
C -0.459345 -1.732051 -0.899939 -1.549551 -1.224745 -1.224745 
C -1.549551 -0.899939 -1.732051 -0.459345 -1.732051 0 
C -1.732051 0.459345 -1.549551 0.899939 -1.224745 1.224745 
C -0.899939 1.549551 -0.459345 1.732051 0 1.732051 
z
"/>
    </defs>
    <g clip-path="url(#p7ae07a810d)">
     <use xlink:href="#m8746000e1f" x="374.838796" y="292.082125" style="fill: #c44e52; fill-opacity: 0.35"/>
     <use xlink:href="#m8746000e1f" x="349.575358" y="291.078751" style="fill: #c44e52; fill-opacity: 0.35"/>
     <use xlink:href="#m8746000e1f" x="365.315543" y="302.164109" style="fill: #c44e52; fill-opacity: 0.35"/>
     <use xlink:href="#m8746000e1f" x="364.459171" y="264.470032" style="fill: #c44e52; fill-opacity: 0.35"/>
     <use xlink:href="#m8746000e1f" x="377.919116" y="305.251415" style="fill: #c44e52; fill-opacity: 0.35"/>
     <use xlink:href="#m8746000e1f" x="362.443271" y="290.007841" style="fill: #c44e52; fill-opacity: 0.35"/>
     <use xlink:href="#m8746000e1f" x="359.396897" y="267.113538" style="fill: #c44e52; fill-opacity: 0.35"/>
     <use xlink:href="#m8746000e1f" x="369.372753" y="288.840454" style="fill: #c44e52; fill-opacity: 0.35"/>
     <use xlink:href="#m8746000e1f" x="354.746524" y="294.252887" style="fill: #c44e52; fill-opacity: 0.35"/>
     <use xlink:href="#m8746000e1f" x="349.779843" y="288.396654" style="fill: #c44e52; fill-opacity: 0.35"/>
     <use xlink:href="#m8746000e1f" x="363.034354" y="286.524974" style="fill: #c44e52; fill-opacity: 0.35"/>
     <use xlink:href="#m8746000e1f" x="360.643512" y="276.327217" style="fill: #c44e52; fill-opacity: 0.35"/>
     <use xlink:href="#m8746000e1f" x="353.417839" y="277.282352" style="fill: #c44e52; fill-opacity: 0.35"/>
     <use xlink:href="#m8746000e1f" x="358.707818" y="290.490233" style="fill: #c44e52; fill-opacity: 0.35"/>
     <use xlink:href="#m8746000e1f" x="358.663937" y="289.207071" style="fill: #c44e52; fill-opacity: 0.35"/>
     <use xlink:href="#m8746000e1f" x="357.139105" y="292.496982" style="fill: #c44e52; fill-opacity: 0.35"/>
     <use xlink:href="#m8746000e1f" x="359.176369" y="293.876622" style="fill: #c44e52; fill-opacity: 0.35"/>
     <use xlink:href="#m8746000e1f" x="371.1831" y="291.011216" style="fill: #c44e52; fill-opacity: 0.35"/>
     <use xlink:href="#m8746000e1f" x="355.938778" y="282.569364" style="fill: #c44e52; fill-opacity: 0.35"/>
     <use xlink:href="#m8746000e1f" x="381.497693" y="284.952378" style="fill: #c44e52; fill-opacity: 0.35"/>
     <use xlink:href="#m8746000e1f" x="380.223243" y="283.456964" style="fill: #c44e52; fill-opacity: 0.35"/>
     <use xlink:href="#m8746000e1f" x="363.15326" y="303.341144" style="fill: #c44e52; fill-opacity: 0.35"/>
     <use xlink:href="#m8746000e1f" x="357.173039" y="290.750724" style="fill: #c44e52; fill-opacity: 0.35"/>
     <use xlink:href="#m8746000e1f" x="365.290718" y="276.867495" style="fill: #c44e52; fill-opacity: 0.35"/>
     <use xlink:href="#m8746000e1f" x="377.565842" y="238.334057" style="fill: #c44e52; fill-opacity: 0.35"/>
     <use xlink:href="#m8746000e1f" x="369.883322" y="301.353691" style="fill: #c44e52; fill-opacity: 0.35"/>
     <use xlink:href="#m8746000e1f" x="375.834347" y="285.270756" style="fill: #c44e52; fill-opacity: 0.35"/>
     <use xlink:href="#m8746000e1f" x="365.184383" y="295.893018" style="fill: #c44e52; fill-opacity: 0.35"/>
     <use xlink:href="#m8746000e1f" x="369.112231" y="286.148709" style="fill: #c44e52; fill-opacity: 0.35"/>
     <use xlink:href="#m8746000e1f" x="355.596904" y="292.796065" style="fill: #c44e52; fill-opacity: 0.35"/>
     <use xlink:href="#m8746000e1f" x="373.109867" y="287.70201" style="fill: #c44e52; fill-opacity: 0.35"/>
     <use xlink:href="#m8746000e1f" x="352.2353" y="288.271232" style="fill: #c44e52; fill-opacity: 0.35"/>
     <use xlink:href="#m8746000e1f" x="371.538065" y="287.885319" style="fill: #c44e52; fill-opacity: 0.35"/>
     <use xlink:href="#m8746000e1f" x="378.042482" y="281.730002" style="fill: #c44e52; fill-opacity: 0.35"/>
     <use xlink:href="#m8746000e1f" x="349.479338" y="288.898341" style="fill: #c44e52; fill-opacity: 0.35"/>
     <use xlink:href="#m8746000e1f" x="368.385511" y="260.900335" style="fill: #c44e52; fill-opacity: 0.35"/>
     <use xlink:href="#m8746000e1f" x="348.028589" y="291.310299" style="fill: #c44e52; fill-opacity: 0.35"/>
     <use xlink:href="#m8746000e1f" x="372.75009" y="279.732901" style="fill: #c44e52; fill-opacity: 0.35"/>
     <use xlink:href="#m8746000e1f" x="347.61295" y="287.181027" style="fill: #c44e52; fill-opacity: 0.35"/>
     <use xlink:href="#m8746000e1f" x="380.991279" y="274.648494" style="fill: #c44e52; fill-opacity: 0.35"/>
     <use xlink:href="#m8746000e1f" x="349.687307" y="303.119244" style="fill: #c44e52; fill-opacity: 0.35"/>
     <use xlink:href="#m8746000e1f" x="381.890587" y="291.947055" style="fill: #c44e52; fill-opacity: 0.35"/>
     <use xlink:href="#m8746000e1f" x="375.69684" y="285.434769" style="fill: #c44e52; fill-opacity: 0.35"/>
     <use xlink:href="#m8746000e1f" x="367.57412" y="295.738653" style="fill: #c44e52; fill-opacity: 0.35"/>
     <use xlink:href="#m8746000e1f" x="374.98101" y="290.625303" style="fill: #c44e52; fill-opacity: 0.35"/>
     <use xlink:href="#m8746000e1f" x="375.470671" y="277.697209" style="fill: #c44e52; fill-opacity: 0.35"/>
     <use xlink:href="#m8746000e1f" x="381.386718" y="275.497503" style="fill: #c44e52; fill-opacity: 0.35"/>
     <use xlink:href="#m8746000e1f" x="354.233765" y="287.470462" style="fill: #c44e52; fill-opacity: 0.35"/>
     <use xlink:href="#m8746000e1f" x="367.432754" y="282.414998" style="fill: #c44e52; fill-opacity: 0.35"/>
     <use xlink:href="#m8746000e1f" x="348.026764" y="270.210492" style="fill: #c44e52; fill-opacity: 0.35"/>
     <use xlink:href="#m8746000e1f" x="368.455524" y="291.831281" style="fill: #c44e52; fill-opacity: 0.35"/>
     <use xlink:href="#m8746000e1f" x="351.0156" y="295.372036" style="fill: #c44e52; fill-opacity: 0.35"/>
     <use xlink:href="#m8746000e1f" x="366.447795" y="273.51005" style="fill: #c44e52; fill-opacity: 0.35"/>
     <use xlink:href="#m8746000e1f" x="366.741021" y="267.065299" style="fill: #c44e52; fill-opacity: 0.35"/>
     <use xlink:href="#m8746000e1f" x="362.56816" y="297.465615" style="fill: #c44e52; fill-opacity: 0.35"/>
     <use xlink:href="#m8746000e1f" x="364.788816" y="259.501399" style="fill: #c44e52; fill-opacity: 0.35"/>
     <use xlink:href="#m8746000e1f" x="374.247907" y="270.036831" style="fill: #c44e52; fill-opacity: 0.35"/>
     <use xlink:href="#m8746000e1f" x="375.63257" y="260.25393" style="fill: #c44e52; fill-opacity: 0.35"/>
     <use xlink:href="#m8746000e1f" x="363.593998" y="281.189724" style="fill: #c44e52; fill-opacity: 0.35"/>
     <use xlink:href="#m8746000e1f" x="367.80586" y="277.089395" style="fill: #c44e52; fill-opacity: 0.35"/>
     <use xlink:href="#m8746000e1f" x="380.806889" y="283.003516" style="fill: #c44e52; fill-opacity: 0.35"/>
     <use xlink:href="#m8746000e1f" x="348.994439" y="281.29585" style="fill: #c44e52; fill-opacity: 0.35"/>
     <use xlink:href="#m8746000e1f" x="348.891338" y="281.643172" style="fill: #c44e52; fill-opacity: 0.35"/>
     <use xlink:href="#m8746000e1f" x="347.739015" y="282.636898" style="fill: #c44e52; fill-opacity: 0.35"/>
     <use xlink:href="#m8746000e1f" x="370.090149" y="285.975048" style="fill: #c44e52; fill-opacity: 0.35"/>
     <use xlink:href="#m8746000e1f" x="360.710898" y="293.3074" style="fill: #c44e52; fill-opacity: 0.35"/>
     <use xlink:href="#m8746000e1f" x="374.655529" y="292.95043" style="fill: #c44e52; fill-opacity: 0.35"/>
     <use xlink:href="#m8746000e1f" x="370.614205" y="301.807139" style="fill: #c44e52; fill-opacity: 0.35"/>
     <use xlink:href="#m8746000e1f" x="357.37989" y="270.557814" style="fill: #c44e52; fill-opacity: 0.35"/>
     <use xlink:href="#m8746000e1f" x="379.518335" y="269.824578" style="fill: #c44e52; fill-opacity: 0.35"/>
     <use xlink:href="#m8746000e1f" x="374.193367" y="299.260112" style="fill: #c44e52; fill-opacity: 0.35"/>
     <use xlink:href="#m8746000e1f" x="354.90614" y="243.505295" style="fill: #c44e52; fill-opacity: 0.35"/>
     <use xlink:href="#m8746000e1f" x="358.577676" y="264.913832" style="fill: #c44e52; fill-opacity: 0.35"/>
     <use xlink:href="#m8746000e1f" x="356.627301" y="289.322845" style="fill: #c44e52; fill-opacity: 0.35"/>
     <use xlink:href="#m8746000e1f" x="350.479332" y="283.968299" style="fill: #c44e52; fill-opacity: 0.35"/>
     <use xlink:href="#m8746000e1f" x="350.094044" y="281.710707" style="fill: #c44e52; fill-opacity: 0.35"/>
     <use xlink:href="#m8746000e1f" x="380.998634" y="281.749298" style="fill: #c44e52; fill-opacity: 0.35"/>
     <use xlink:href="#m8746000e1f" x="361.467327" y="243.457056" style="fill: #c44e52; fill-opacity: 0.35"/>
     <use xlink:href="#m8746000e1f" x="359.327522" y="282.550068" style="fill: #c44e52; fill-opacity: 0.35"/>
     <use xlink:href="#m8746000e1f" x="372.905724" y="278.169952" style="fill: #c44e52; fill-opacity: 0.35"/>
     <use xlink:href="#m8746000e1f" x="365.979036" y="296.684141" style="fill: #c44e52; fill-opacity: 0.35"/>
     <use xlink:href="#m8746000e1f" x="380.999125" y="298.140963" style="fill: #c44e52; fill-opacity: 0.35"/>
     <use xlink:href="#m8746000e1f" x="374.88996" y="287.837079" style="fill: #c44e52; fill-opacity: 0.35"/>
     <use xlink:href="#m8746000e1f" x="363.092855" y="292.834656" style="fill: #c44e52; fill-opacity: 0.35"/>
     <use xlink:href="#m8746000e1f" x="359.054663" y="290.885794" style="fill: #c44e52; fill-opacity: 0.35"/>
     <use xlink:href="#m8746000e1f" x="382.978491" y="293.944157" style="fill: #c44e52; fill-opacity: 0.35"/>
     <use xlink:href="#m8746000e1f" x="372.438223" y="283.148233" style="fill: #c44e52; fill-opacity: 0.35"/>
     <use xlink:href="#m8746000e1f" x="381.589297" y="296.047384" style="fill: #c44e52; fill-opacity: 0.35"/>
     <use xlink:href="#m8746000e1f" x="348.945241" y="285.762796" style="fill: #c44e52; fill-opacity: 0.35"/>
     <use xlink:href="#m8746000e1f" x="377.643195" y="255.825575" style="fill: #c44e52; fill-opacity: 0.35"/>
     <use xlink:href="#m8746000e1f" x="369.275164" y="294.532674" style="fill: #c44e52; fill-opacity: 0.35"/>
     <use xlink:href="#m8746000e1f" x="349.080217" y="284.730478" style="fill: #c44e52; fill-opacity: 0.35"/>
     <use xlink:href="#m8746000e1f" x="367.361489" y="297.39808" style="fill: #c44e52; fill-opacity: 0.35"/>
     <use xlink:href="#m8746000e1f" x="371.196939" y="294.030987" style="fill: #c44e52; fill-opacity: 0.35"/>
     <use xlink:href="#m8746000e1f" x="344.782943" y="262.839549" style="fill: #c44e52; fill-opacity: 0.35"/>
     <use xlink:href="#m8746000e1f" x="362.110784" y="278.497979" style="fill: #c44e52; fill-opacity: 0.35"/>
     <use xlink:href="#m8746000e1f" x="376.657888" y="290.856851" style="fill: #c44e52; fill-opacity: 0.35"/>
     <use xlink:href="#m8746000e1f" x="355.879291" y="285.675965" style="fill: #c44e52; fill-opacity: 0.35"/>
     <use xlink:href="#m8746000e1f" x="362.276613" y="290.519176" style="fill: #c44e52; fill-opacity: 0.35"/>
     <use xlink:href="#m8746000e1f" x="361.640211" y="282.241337" style="fill: #c44e52; fill-opacity: 0.35"/>
    </g>
   </g>
   <g id="text_13">
    <!-- *** -->
    <g style="fill: #333333" transform="translate(134.413512 60.042097) scale(0.09 -0.09)">
     <defs>
      <path id="DejaVuSans-2a" d="M 3009 3897 
L 1888 3291 
L 3009 2681 
L 2828 2375 
L 1778 3009 
L 1778 1831 
L 1422 1831 
L 1422 3009 
L 372 2375 
L 191 2681 
L 1313 3291 
L 191 3897 
L 372 4206 
L 1422 3572 
L 1422 4750 
L 1778 4750 
L 1778 3572 
L 2828 4206 
L 3009 3897 
z
" transform="scale(0.015625)"/>
     </defs>
     <use xlink:href="#DejaVuSans-2a"/>
     <use xlink:href="#DejaVuSans-2a" transform="translate(50 0)"/>
     <use xlink:href="#DejaVuSans-2a" transform="translate(100 0)"/>
    </g>
   </g>
   <g id="text_14">
    <!-- *** -->
    <g style="fill: #333333" transform="translate(178.961131 38.816868) scale(0.09 -0.09)">
     <use xlink:href="#DejaVuSans-2a"/>
     <use xlink:href="#DejaVuSans-2a" transform="translate(50 0)"/>
     <use xlink:href="#DejaVuSans-2a" transform="translate(100 0)"/>
    </g>
   </g>
   <g id="text_15">
    <!-- *** -->
    <g style="fill: #333333" transform="translate(223.50875 17.59164) scale(0.09 -0.09)">
     <use xlink:href="#DejaVuSans-2a"/>
     <use xlink:href="#DejaVuSans-2a" transform="translate(50 0)"/>
     <use xlink:href="#DejaVuSans-2a" transform="translate(100 0)"/>
    </g>
   </g>
  </g>
 </g>
 <defs>
  <clipPath id="p7ae07a810d">
   <rect x="43.15875" y="7.2" width="374.2" height="311.24"/>
  </clipPath>
 </defs>
</svg>
