<?xml version="1.0" encoding="utf-8" standalone="no"?>
<!DOCTYPE svg PUBLIC "-//W3C//DTD SVG 1.1//EN"
  "http://www.w3.org/Graphics/SVG/1.1/DTD/svg11.dtd">
<svg xmlns:xlink="http://www.w3.org/1999/xlink" width="496.8pt" height="496.518281pt" viewBox="0 0 496.8 496.518281" xmlns="http://www.w3.org/2000/svg" version="1.1">
 <metadata>
  <rdf:RDF xmlns:dc="http://purl.org/dc/elements/1.1/" xmlns:cc="http://creativecommons.org/ns#" xmlns:rdf="http://www.w3.org/1999/02/22-rdf-syntax-ns#">
   <cc:Work>
    <dc:type rdf:resource="http://purl.org/dc/dcmitype/StillImage"/>
    <dc:date>2026-05-25T00:53:39.349228</dc:date>
    <dc:format>image/svg+xml</dc:format>
    <dc:creator>
     <cc:Agent>
      <dc:title>Matplotlib v3.10.9, https://matplotlib.org/</dc:title>
     </cc:Agent>
    </dc:creator>
   </cc:Work>
  </rdf:RDF>
 </metadata>
 <defs>
  <style type="text/css">*{stroke-linejoin: round; stroke-linecap: butt}</style>
 </defs>
 <g id="figure_1">
  <g id="patch_1">
   <path d="M 0 496.518281 
L 496.8 496.518281 
L 496.8 0 
L 0 0 
z
" style="fill: #ffffff"/>
  </g>
  <g id="axes_1">
   <g id="LineCollection_1">
    <path d="M 52.693282 98.963167 
L 105.625108 65.801918 
" clip-path="url(#p20720d95f9)" style="fill: none; stroke: #888888; stroke-opacity: 0.25; stroke-width: 0.9"/>
    <path d="M 52.693282 98.963167 
L 155.641786 90.900315 
" clip-path="url(#p20720d95f9)" style="fill: none; stroke: #888888; stroke-opacity: 0.25; stroke-width: 0.9"/>
    <path d="M 52.693282 98.963167 
L 49.061157 176.510146 
" clip-path="url(#p20720d95f9)" style="fill: none; stroke: #888888; stroke-opacity: 0.25; stroke-width: 0.9"/>
    <path d="M 52.693282 98.963167 
L 90.90679 142.001745 
" clip-path="url(#p20720d95f9)" style="fill: none; stroke: #888888; stroke-opacity: 0.25; stroke-width: 0.9"/>
    <path d="M 105.625108 65.801918 
L 155.641786 90.900315 
" clip-path="url(#p20720d95f9)" style="fill: none; stroke: #888888; stroke-opacity: 0.25; stroke-width: 0.9"/>
    <path d="M 105.625108 65.801918 
L 213.920239 71.938983 
" clip-path="url(#p20720d95f9)" style="fill: none; stroke: #888888; stroke-opacity: 0.25; stroke-width: 0.9"/>
    <path d="M 105.625108 65.801918 
L 90.90679 142.001745 
" clip-path="url(#p20720d95f9)" style="fill: none; stroke: #888888; stroke-opacity: 0.25; stroke-width: 0.9"/>
    <path d="M 155.641786 90.900315 
L 213.920239 71.938983 
" clip-path="url(#p20720d95f9)" style="fill: none; stroke: #888888; stroke-opacity: 0.25; stroke-width: 0.9"/>
    <path d="M 155.641786 90.900315 
L 279.052305 89.754241 
" clip-path="url(#p20720d95f9)" style="fill: none; stroke: #888888; stroke-opacity: 0.25; stroke-width: 0.9"/>
    <path d="M 155.641786 90.900315 
L 135.704122 176.43239 
" clip-path="url(#p20720d95f9)" style="fill: none; stroke: #888888; stroke-opacity: 0.25; stroke-width: 0.9"/>
    <path d="M 213.920239 71.938983 
L 279.052305 89.754241 
" clip-path="url(#p20720d95f9)" style="fill: none; stroke: #888888; stroke-opacity: 0.25; stroke-width: 0.9"/>
    <path d="M 213.920239 71.938983 
L 271.778085 152.855965 
" clip-path="url(#p20720d95f9)" style="fill: none; stroke: #888888; stroke-opacity: 0.25; stroke-width: 0.9"/>
    <path d="M 279.052305 89.754241 
L 271.778085 152.855965 
" clip-path="url(#p20720d95f9)" style="fill: none; stroke: #888888; stroke-opacity: 0.25; stroke-width: 0.9"/>
    <path d="M 279.052305 89.754241 
L 377.16994 135.983349 
" clip-path="url(#p20720d95f9)" style="fill: none; stroke: #888888; stroke-opacity: 0.25; stroke-width: 0.9"/>
    <path d="M 271.778085 152.855965 
L 377.16994 135.983349 
" clip-path="url(#p20720d95f9)" style="fill: none; stroke: #888888; stroke-opacity: 0.25; stroke-width: 0.9"/>
    <path d="M 271.778085 152.855965 
L 403.134456 176.96533 
" clip-path="url(#p20720d95f9)" style="fill: none; stroke: #888888; stroke-opacity: 0.25; stroke-width: 0.9"/>
    <path d="M 271.778085 152.855965 
L 223.7878 258.335398 
" clip-path="url(#p20720d95f9)" style="fill: none; stroke: #888888; stroke-opacity: 0.25; stroke-width: 0.9"/>
    <path d="M 271.778085 152.855965 
L 135.704122 176.43239 
" clip-path="url(#p20720d95f9)" style="fill: none; stroke: #888888; stroke-opacity: 0.25; stroke-width: 0.9"/>
    <path d="M 377.16994 135.983349 
L 403.134456 176.96533 
" clip-path="url(#p20720d95f9)" style="fill: none; stroke: #888888; stroke-opacity: 0.25; stroke-width: 0.9"/>
    <path d="M 377.16994 135.983349 
L 447.738843 211.500015 
" clip-path="url(#p20720d95f9)" style="fill: none; stroke: #888888; stroke-opacity: 0.25; stroke-width: 0.9"/>
    <path d="M 403.134456 176.96533 
L 447.738843 211.500015 
" clip-path="url(#p20720d95f9)" style="fill: none; stroke: #888888; stroke-opacity: 0.25; stroke-width: 0.9"/>
    <path d="M 403.134456 176.96533 
L 432.877609 251.694372 
" clip-path="url(#p20720d95f9)" style="fill: none; stroke: #888888; stroke-opacity: 0.25; stroke-width: 0.9"/>
    <path d="M 447.738843 211.500015 
L 432.877609 251.694372 
" clip-path="url(#p20720d95f9)" style="fill: none; stroke: #888888; stroke-opacity: 0.25; stroke-width: 0.9"/>
    <path d="M 447.738843 211.500015 
L 413.589218 304.107362 
" clip-path="url(#p20720d95f9)" style="fill: none; stroke: #888888; stroke-opacity: 0.25; stroke-width: 0.9"/>
    <path d="M 432.877609 251.694372 
L 413.589218 304.107362 
" clip-path="url(#p20720d95f9)" style="fill: none; stroke: #888888; stroke-opacity: 0.25; stroke-width: 0.9"/>
    <path d="M 432.877609 251.694372 
L 339.422162 308.170008 
" clip-path="url(#p20720d95f9)" style="fill: none; stroke: #888888; stroke-opacity: 0.25; stroke-width: 0.9"/>
    <path d="M 413.589218 304.107362 
L 339.422162 308.170008 
" clip-path="url(#p20720d95f9)" style="fill: none; stroke: #888888; stroke-opacity: 0.25; stroke-width: 0.9"/>
    <path d="M 413.589218 304.107362 
L 403.121642 372.847851 
" clip-path="url(#p20720d95f9)" style="fill: none; stroke: #888888; stroke-opacity: 0.25; stroke-width: 0.9"/>
    <path d="M 413.589218 304.107362 
L 293.283943 358.608809 
" clip-path="url(#p20720d95f9)" style="fill: none; stroke: #888888; stroke-opacity: 0.25; stroke-width: 0.9"/>
    <path d="M 339.422162 308.170008 
L 403.121642 372.847851 
" clip-path="url(#p20720d95f9)" style="fill: none; stroke: #888888; stroke-opacity: 0.25; stroke-width: 0.9"/>
    <path d="M 339.422162 308.170008 
L 359.890194 403.922771 
" clip-path="url(#p20720d95f9)" style="fill: none; stroke: #888888; stroke-opacity: 0.25; stroke-width: 0.9"/>
    <path d="M 339.422162 308.170008 
L 162.874847 235.378902 
" clip-path="url(#p20720d95f9)" style="fill: none; stroke: #888888; stroke-opacity: 0.25; stroke-width: 0.9"/>
    <path d="M 403.121642 372.847851 
L 359.890194 403.922771 
" clip-path="url(#p20720d95f9)" style="fill: none; stroke: #888888; stroke-opacity: 0.25; stroke-width: 0.9"/>
    <path d="M 403.121642 372.847851 
L 326.146919 430.911036 
" clip-path="url(#p20720d95f9)" style="fill: none; stroke: #888888; stroke-opacity: 0.25; stroke-width: 0.9"/>
    <path d="M 359.890194 403.922771 
L 326.146919 430.911036 
" clip-path="url(#p20720d95f9)" style="fill: none; stroke: #888888; stroke-opacity: 0.25; stroke-width: 0.9"/>
    <path d="M 359.890194 403.922771 
L 275.762349 449.074645 
" clip-path="url(#p20720d95f9)" style="fill: none; stroke: #888888; stroke-opacity: 0.25; stroke-width: 0.9"/>
    <path d="M 326.146919 430.911036 
L 275.762349 449.074645 
" clip-path="url(#p20720d95f9)" style="fill: none; stroke: #888888; stroke-opacity: 0.25; stroke-width: 0.9"/>
    <path d="M 326.146919 430.911036 
L 209.940078 382.013705 
" clip-path="url(#p20720d95f9)" style="fill: none; stroke: #888888; stroke-opacity: 0.25; stroke-width: 0.9"/>
    <path d="M 275.762349 449.074645 
L 209.940078 382.013705 
" clip-path="url(#p20720d95f9)" style="fill: none; stroke: #888888; stroke-opacity: 0.25; stroke-width: 0.9"/>
    <path d="M 275.762349 449.074645 
L 249.445153 411.96232 
" clip-path="url(#p20720d95f9)" style="fill: none; stroke: #888888; stroke-opacity: 0.25; stroke-width: 0.9"/>
    <path d="M 209.940078 382.013705 
L 249.445153 411.96232 
" clip-path="url(#p20720d95f9)" style="fill: none; stroke: #888888; stroke-opacity: 0.25; stroke-width: 0.9"/>
    <path d="M 209.940078 382.013705 
L 293.283943 358.608809 
" clip-path="url(#p20720d95f9)" style="fill: none; stroke: #888888; stroke-opacity: 0.25; stroke-width: 0.9"/>
    <path d="M 209.940078 382.013705 
L 104.861217 263.213325 
" clip-path="url(#p20720d95f9)" style="fill: none; stroke: #888888; stroke-opacity: 0.25; stroke-width: 0.9"/>
    <path d="M 249.445153 411.96232 
L 293.283943 358.608809 
" clip-path="url(#p20720d95f9)" style="fill: none; stroke: #888888; stroke-opacity: 0.25; stroke-width: 0.9"/>
    <path d="M 249.445153 411.96232 
L 233.885909 346.138603 
" clip-path="url(#p20720d95f9)" style="fill: none; stroke: #888888; stroke-opacity: 0.25; stroke-width: 0.9"/>
    <path d="M 293.283943 358.608809 
L 233.885909 346.138603 
" clip-path="url(#p20720d95f9)" style="fill: none; stroke: #888888; stroke-opacity: 0.25; stroke-width: 0.9"/>
    <path d="M 293.283943 358.608809 
L 207.411367 319.106547 
" clip-path="url(#p20720d95f9)" style="fill: none; stroke: #888888; stroke-opacity: 0.25; stroke-width: 0.9"/>
    <path d="M 233.885909 346.138603 
L 207.411367 319.106547 
" clip-path="url(#p20720d95f9)" style="fill: none; stroke: #888888; stroke-opacity: 0.25; stroke-width: 0.9"/>
    <path d="M 233.885909 346.138603 
L 223.7878 258.335398 
" clip-path="url(#p20720d95f9)" style="fill: none; stroke: #888888; stroke-opacity: 0.25; stroke-width: 0.9"/>
    <path d="M 207.411367 319.106547 
L 223.7878 258.335398 
" clip-path="url(#p20720d95f9)" style="fill: none; stroke: #888888; stroke-opacity: 0.25; stroke-width: 0.9"/>
    <path d="M 207.411367 319.106547 
L 137.453378 288.341659 
" clip-path="url(#p20720d95f9)" style="fill: none; stroke: #888888; stroke-opacity: 0.25; stroke-width: 0.9"/>
    <path d="M 223.7878 258.335398 
L 137.453378 288.341659 
" clip-path="url(#p20720d95f9)" style="fill: none; stroke: #888888; stroke-opacity: 0.25; stroke-width: 0.9"/>
    <path d="M 223.7878 258.335398 
L 162.874847 235.378902 
" clip-path="url(#p20720d95f9)" style="fill: none; stroke: #888888; stroke-opacity: 0.25; stroke-width: 0.9"/>
    <path d="M 137.453378 288.341659 
L 162.874847 235.378902 
" clip-path="url(#p20720d95f9)" style="fill: none; stroke: #888888; stroke-opacity: 0.25; stroke-width: 0.9"/>
    <path d="M 137.453378 288.341659 
L 54.604777 265.340529 
" clip-path="url(#p20720d95f9)" style="fill: none; stroke: #888888; stroke-opacity: 0.25; stroke-width: 0.9"/>
    <path d="M 162.874847 235.378902 
L 54.604777 265.340529 
" clip-path="url(#p20720d95f9)" style="fill: none; stroke: #888888; stroke-opacity: 0.25; stroke-width: 0.9"/>
    <path d="M 162.874847 235.378902 
L 65.520578 219.468297 
" clip-path="url(#p20720d95f9)" style="fill: none; stroke: #888888; stroke-opacity: 0.25; stroke-width: 0.9"/>
    <path d="M 162.874847 235.378902 
L 135.704122 176.43239 
" clip-path="url(#p20720d95f9)" style="fill: none; stroke: #888888; stroke-opacity: 0.25; stroke-width: 0.9"/>
    <path d="M 162.874847 235.378902 
L 90.90679 142.001745 
" clip-path="url(#p20720d95f9)" style="fill: none; stroke: #888888; stroke-opacity: 0.25; stroke-width: 0.9"/>
    <path d="M 54.604777 265.340529 
L 65.520578 219.468297 
" clip-path="url(#p20720d95f9)" style="fill: none; stroke: #888888; stroke-opacity: 0.25; stroke-width: 0.9"/>
    <path d="M 54.604777 265.340529 
L 104.861217 263.213325 
" clip-path="url(#p20720d95f9)" style="fill: none; stroke: #888888; stroke-opacity: 0.25; stroke-width: 0.9"/>
    <path d="M 65.520578 219.468297 
L 104.861217 263.213325 
" clip-path="url(#p20720d95f9)" style="fill: none; stroke: #888888; stroke-opacity: 0.25; stroke-width: 0.9"/>
    <path d="M 65.520578 219.468297 
L 135.704122 176.43239 
" clip-path="url(#p20720d95f9)" style="fill: none; stroke: #888888; stroke-opacity: 0.25; stroke-width: 0.9"/>
    <path d="M 65.520578 219.468297 
L 49.061157 176.510146 
" clip-path="url(#p20720d95f9)" style="fill: none; stroke: #888888; stroke-opacity: 0.25; stroke-width: 0.9"/>
    <path d="M 104.861217 263.213325 
L 135.704122 176.43239 
" clip-path="url(#p20720d95f9)" style="fill: none; stroke: #888888; stroke-opacity: 0.25; stroke-width: 0.9"/>
    <path d="M 104.861217 263.213325 
L 49.061157 176.510146 
" clip-path="url(#p20720d95f9)" style="fill: none; stroke: #888888; stroke-opacity: 0.25; stroke-width: 0.9"/>
    <path d="M 135.704122 176.43239 
L 49.061157 176.510146 
" clip-path="url(#p20720d95f9)" style="fill: none; stroke: #888888; stroke-opacity: 0.25; stroke-width: 0.9"/>
    <path d="M 135.704122 176.43239 
L 90.90679 142.001745 
" clip-path="url(#p20720d95f9)" style="fill: none; stroke: #888888; stroke-opacity: 0.25; stroke-width: 0.9"/>
    <path d="M 49.061157 176.510146 
L 90.90679 142.001745 
" clip-path="url(#p20720d95f9)" style="fill: none; stroke: #888888; stroke-opacity: 0.25; stroke-width: 0.9"/>
   </g>
   <g id="PathCollection_1">
    <defs>
     <path id="C0_0_f1d55c8c2c" d="M 0 8.062258 
C 2.138136 8.062258 4.188987 7.212767 5.700877 5.700877 
C 7.212767 4.188987 8.062258 2.138136 8.062258 -0 
C 8.062258 -2.138136 7.212767 -4.188987 5.700877 -5.700877 
C 4.188987 -7.212767 2.138136 -8.062258 0 -8.062258 
C -2.138136 -8.062258 -4.188987 -7.212767 -5.700877 -5.700877 
C -7.212767 -4.188987 -8.062258 -2.138136 -8.062258 0 
C -8.062258 2.138136 -7.212767 4.188987 -5.700877 5.700877 
C -4.188987 7.212767 -2.138136 8.062258 0 8.062258 
z
"/>
    </defs>
    <g clip-path="url(#p20720d95f9)">
     <use xlink:href="#C0_0_f1d55c8c2c" x="52.693282" y="98.963167" style="fill: #e63946; stroke: #ffffff; stroke-width: 0.8"/>
    </g>
    <g clip-path="url(#p20720d95f9)">
     <use xlink:href="#C0_0_f1d55c8c2c" x="105.625108" y="65.801918" style="fill: #457b9d; stroke: #ffffff; stroke-width: 0.8"/>
    </g>
    <g clip-path="url(#p20720d95f9)">
     <use xlink:href="#C0_0_f1d55c8c2c" x="155.641786" y="90.900315" style="fill: #2a9d8f; stroke: #ffffff; stroke-width: 0.8"/>
    </g>
    <g clip-path="url(#p20720d95f9)">
     <use xlink:href="#C0_0_f1d55c8c2c" x="213.920239" y="71.938983" style="fill: #e9c46a; stroke: #ffffff; stroke-width: 0.8"/>
    </g>
    <g clip-path="url(#p20720d95f9)">
     <use xlink:href="#C0_0_f1d55c8c2c" x="279.052305" y="89.754241" style="fill: #e63946; stroke: #ffffff; stroke-width: 0.8"/>
    </g>
    <g clip-path="url(#p20720d95f9)">
     <use xlink:href="#C0_0_f1d55c8c2c" x="271.778085" y="152.855965" style="fill: #457b9d; stroke: #ffffff; stroke-width: 0.8"/>
    </g>
    <g clip-path="url(#p20720d95f9)">
     <use xlink:href="#C0_0_f1d55c8c2c" x="377.16994" y="135.983349" style="fill: #2a9d8f; stroke: #ffffff; stroke-width: 0.8"/>
    </g>
    <g clip-path="url(#p20720d95f9)">
     <use xlink:href="#C0_0_f1d55c8c2c" x="403.134456" y="176.96533" style="fill: #e9c46a; stroke: #ffffff; stroke-width: 0.8"/>
    </g>
    <g clip-path="url(#p20720d95f9)">
     <use xlink:href="#C0_0_f1d55c8c2c" x="447.738843" y="211.500015" style="fill: #e63946; stroke: #ffffff; stroke-width: 0.8"/>
    </g>
    <g clip-path="url(#p20720d95f9)">
     <use xlink:href="#C0_0_f1d55c8c2c" x="432.877609" y="251.694372" style="fill: #457b9d; stroke: #ffffff; stroke-width: 0.8"/>
    </g>
    <g clip-path="url(#p20720d95f9)">
     <use xlink:href="#C0_0_f1d55c8c2c" x="413.589218" y="304.107362" style="fill: #2a9d8f; stroke: #ffffff; stroke-width: 0.8"/>
    </g>
    <g clip-path="url(#p20720d95f9)">
     <use xlink:href="#C0_0_f1d55c8c2c" x="339.422162" y="308.170008" style="fill: #e9c46a; stroke: #ffffff; stroke-width: 0.8"/>
    </g>
    <g clip-path="url(#p20720d95f9)">
     <use xlink:href="#C0_0_f1d55c8c2c" x="403.121642" y="372.847851" style="fill: #e63946; stroke: #ffffff; stroke-width: 0.8"/>
    </g>
    <g clip-path="url(#p20720d95f9)">
     <use xlink:href="#C0_0_f1d55c8c2c" x="359.890194" y="403.922771" style="fill: #457b9d; stroke: #ffffff; stroke-width: 0.8"/>
    </g>
    <g clip-path="url(#p20720d95f9)">
     <use xlink:href="#C0_0_f1d55c8c2c" x="326.146919" y="430.911036" style="fill: #2a9d8f; stroke: #ffffff; stroke-width: 0.8"/>
    </g>
    <g clip-path="url(#p20720d95f9)">
     <use xlink:href="#C0_0_f1d55c8c2c" x="275.762349" y="449.074645" style="fill: #e9c46a; stroke: #ffffff; stroke-width: 0.8"/>
    </g>
    <g clip-path="url(#p20720d95f9)">
     <use xlink:href="#C0_0_f1d55c8c2c" x="209.940078" y="382.013705" style="fill: #e63946; stroke: #ffffff; stroke-width: 0.8"/>
    </g>
    <g clip-path="url(#p20720d95f9)">
     <use xlink:href="#C0_0_f1d55c8c2c" x="249.445153" y="411.96232" style="fill: #457b9d; stroke: #ffffff; stroke-width: 0.8"/>
    </g>
    <g clip-path="url(#p20720d95f9)">
     <use xlink:href="#C0_0_f1d55c8c2c" x="293.283943" y="358.608809" style="fill: #2a9d8f; stroke: #ffffff; stroke-width: 0.8"/>
    </g>
    <g clip-path="url(#p20720d95f9)">
     <use xlink:href="#C0_0_f1d55c8c2c" x="233.885909" y="346.138603" style="fill: #e9c46a; stroke: #ffffff; stroke-width: 0.8"/>
    </g>
    <g clip-path="url(#p20720d95f9)">
     <use xlink:href="#C0_0_f1d55c8c2c" x="207.411367" y="319.106547" style="fill: #e63946; stroke: #ffffff; stroke-width: 0.8"/>
    </g>
    <g clip-path="url(#p20720d95f9)">
     <use xlink:href="#C0_0_f1d55c8c2c" x="223.7878" y="258.335398" style="fill: #457b9d; stroke: #ffffff; stroke-width: 0.8"/>
    </g>
    <g clip-path="url(#p20720d95f9)">
     <use xlink:href="#C0_0_f1d55c8c2c" x="137.453378" y="288.341659" style="fill: #2a9d8f; stroke: #ffffff; stroke-width: 0.8"/>
    </g>
    <g clip-path="url(#p20720d95f9)">
     <use xlink:href="#C0_0_f1d55c8c2c" x="162.874847" y="235.378902" style="fill: #e9c46a; stroke: #ffffff; stroke-width: 0.8"/>
    </g>
    <g clip-path="url(#p20720d95f9)">
     <use xlink:href="#C0_0_f1d55c8c2c" x="54.604777" y="265.340529" style="fill: #e63946; stroke: #ffffff; stroke-width: 0.8"/>
    </g>
    <g clip-path="url(#p20720d95f9)">
     <use xlink:href="#C0_0_f1d55c8c2c" x="65.520578" y="219.468297" style="fill: #457b9d; stroke: #ffffff; stroke-width: 0.8"/>
    </g>
    <g clip-path="url(#p20720d95f9)">
     <use xlink:href="#C0_0_f1d55c8c2c" x="104.861217" y="263.213325" style="fill: #2a9d8f; stroke: #ffffff; stroke-width: 0.8"/>
    </g>
    <g clip-path="url(#p20720d95f9)">
     <use xlink:href="#C0_0_f1d55c8c2c" x="135.704122" y="176.43239" style="fill: #e9c46a; stroke: #ffffff; stroke-width: 0.8"/>
    </g>
    <g clip-path="url(#p20720d95f9)">
     <use xlink:href="#C0_0_f1d55c8c2c" x="49.061157" y="176.510146" style="fill: #e63946; stroke: #ffffff; stroke-width: 0.8"/>
    </g>
    <g clip-path="url(#p20720d95f9)">
     <use xlink:href="#C0_0_f1d55c8c2c" x="90.90679" y="142.001745" style="fill: #457b9d; stroke: #ffffff; stroke-width: 0.8"/>
    </g>
   </g>
   <g id="text_1">
    <g clip-path="url(#p20720d95f9)">
     <!-- 0 -->
     <g style="fill: #ffffff" transform="translate(50.258047 100.894729) scale(0.07 -0.07)">
      <defs>
       <path id="DejaVuSans-Bold-30" d="M 2944 2338 
Q 2944 3213 2780 3570 
Q 2616 3928 2228 3928 
Q 1841 3928 1675 3570 
Q 1509 3213 1509 2338 
Q 1509 1453 1675 1090 
Q 1841 728 2228 728 
Q 2613 728 2778 1090 
Q 2944 1453 2944 2338 
z
M 4147 2328 
Q 4147 1169 3647 539 
Q 3147 -91 2228 -91 
Q 1306 -91 806 539 
Q 306 1169 306 2328 
Q 306 3491 806 4120 
Q 1306 4750 2228 4750 
Q 3147 4750 3647 4120 
Q 4147 3491 4147 2328 
z
" transform="scale(0.015625)"/>
      </defs>
      <use xlink:href="#DejaVuSans-Bold-30"/>
     </g>
    </g>
   </g>
   <g id="text_2">
    <g clip-path="url(#p20720d95f9)">
     <!-- 1 -->
     <g style="fill: #ffffff" transform="translate(103.189874 67.73348) scale(0.07 -0.07)">
      <defs>
       <path id="DejaVuSans-Bold-31" d="M 750 831 
L 1813 831 
L 1813 3847 
L 722 3622 
L 722 4441 
L 1806 4666 
L 2950 4666 
L 2950 831 
L 4013 831 
L 4013 0 
L 750 0 
L 750 831 
z
" transform="scale(0.015625)"/>
      </defs>
      <use xlink:href="#DejaVuSans-Bold-31"/>
     </g>
    </g>
   </g>
   <g id="text_3">
    <g clip-path="url(#p20720d95f9)">
     <!-- 2 -->
     <g style="fill: #ffffff" transform="translate(153.206552 92.831877) scale(0.07 -0.07)">
      <defs>
       <path id="DejaVuSans-Bold-32" d="M 1844 884 
L 3897 884 
L 3897 0 
L 506 0 
L 506 884 
L 2209 2388 
Q 2438 2594 2547 2791 
Q 2656 2988 2656 3200 
Q 2656 3528 2436 3728 
Q 2216 3928 1850 3928 
Q 1569 3928 1234 3808 
Q 900 3688 519 3450 
L 519 4475 
Q 925 4609 1322 4679 
Q 1719 4750 2100 4750 
Q 2938 4750 3402 4381 
Q 3866 4013 3866 3353 
Q 3866 2972 3669 2642 
Q 3472 2313 2841 1759 
L 1844 884 
z
" transform="scale(0.015625)"/>
      </defs>
      <use xlink:href="#DejaVuSans-Bold-32"/>
     </g>
    </g>
   </g>
   <g id="text_4">
    <g clip-path="url(#p20720d95f9)">
     <!-- 3 -->
     <g style="fill: #ffffff" transform="translate(211.485004 73.870545) scale(0.07 -0.07)">
      <defs>
       <path id="DejaVuSans-Bold-33" d="M 2981 2516 
Q 3453 2394 3698 2092 
Q 3944 1791 3944 1325 
Q 3944 631 3412 270 
Q 2881 -91 1863 -91 
Q 1503 -91 1142 -33 
Q 781 25 428 141 
L 428 1069 
Q 766 900 1098 814 
Q 1431 728 1753 728 
Q 2231 728 2486 893 
Q 2741 1059 2741 1369 
Q 2741 1688 2480 1852 
Q 2219 2016 1709 2016 
L 1228 2016 
L 1228 2791 
L 1734 2791 
Q 2188 2791 2409 2933 
Q 2631 3075 2631 3366 
Q 2631 3634 2415 3781 
Q 2200 3928 1806 3928 
Q 1516 3928 1219 3862 
Q 922 3797 628 3669 
L 628 4550 
Q 984 4650 1334 4700 
Q 1684 4750 2022 4750 
Q 2931 4750 3382 4451 
Q 3834 4153 3834 3553 
Q 3834 3144 3618 2883 
Q 3403 2622 2981 2516 
z
" transform="scale(0.015625)"/>
      </defs>
      <use xlink:href="#DejaVuSans-Bold-33"/>
     </g>
    </g>
   </g>
   <g id="text_5">
    <g clip-path="url(#p20720d95f9)">
     <!-- 4 -->
     <g style="fill: #ffffff" transform="translate(276.61707 91.685803) scale(0.07 -0.07)">
      <defs>
       <path id="DejaVuSans-Bold-34" d="M 2356 3675 
L 1038 1722 
L 2356 1722 
L 2356 3675 
z
M 2156 4666 
L 3494 4666 
L 3494 1722 
L 4159 1722 
L 4159 850 
L 3494 850 
L 3494 0 
L 2356 0 
L 2356 850 
L 288 850 
L 288 1881 
L 2156 4666 
z
" transform="scale(0.015625)"/>
      </defs>
      <use xlink:href="#DejaVuSans-Bold-34"/>
     </g>
    </g>
   </g>
   <g id="text_6">
    <g clip-path="url(#p20720d95f9)">
     <!-- 5 -->
     <g style="fill: #ffffff" transform="translate(269.342851 154.787527) scale(0.07 -0.07)">
      <defs>
       <path id="DejaVuSans-Bold-35" d="M 678 4666 
L 3669 4666 
L 3669 3781 
L 1638 3781 
L 1638 3059 
Q 1775 3097 1914 3117 
Q 2053 3138 2203 3138 
Q 3056 3138 3531 2711 
Q 4006 2284 4006 1522 
Q 4006 766 3489 337 
Q 2972 -91 2053 -91 
Q 1656 -91 1267 -14 
Q 878 63 494 219 
L 494 1166 
Q 875 947 1217 837 
Q 1559 728 1863 728 
Q 2300 728 2551 942 
Q 2803 1156 2803 1522 
Q 2803 1891 2551 2103 
Q 2300 2316 1863 2316 
Q 1603 2316 1309 2248 
Q 1016 2181 678 2041 
L 678 4666 
z
" transform="scale(0.015625)"/>
      </defs>
      <use xlink:href="#DejaVuSans-Bold-35"/>
     </g>
    </g>
   </g>
   <g id="text_7">
    <g clip-path="url(#p20720d95f9)">
     <!-- 6 -->
     <g style="fill: #ffffff" transform="translate(374.734706 137.914912) scale(0.07 -0.07)">
      <defs>
       <path id="DejaVuSans-Bold-36" d="M 2316 2303 
Q 2000 2303 1842 2098 
Q 1684 1894 1684 1484 
Q 1684 1075 1842 870 
Q 2000 666 2316 666 
Q 2634 666 2792 870 
Q 2950 1075 2950 1484 
Q 2950 1894 2792 2098 
Q 2634 2303 2316 2303 
z
M 3803 4544 
L 3803 3681 
Q 3506 3822 3243 3889 
Q 2981 3956 2731 3956 
Q 2194 3956 1894 3657 
Q 1594 3359 1544 2772 
Q 1750 2925 1990 3001 
Q 2231 3078 2516 3078 
Q 3231 3078 3670 2659 
Q 4109 2241 4109 1563 
Q 4109 813 3618 361 
Q 3128 -91 2303 -91 
Q 1394 -91 895 523 
Q 397 1138 397 2266 
Q 397 3422 980 4083 
Q 1563 4744 2578 4744 
Q 2900 4744 3203 4694 
Q 3506 4644 3803 4544 
z
" transform="scale(0.015625)"/>
      </defs>
      <use xlink:href="#DejaVuSans-Bold-36"/>
     </g>
    </g>
   </g>
   <g id="text_8">
    <g clip-path="url(#p20720d95f9)">
     <!-- 7 -->
     <g style="fill: #ffffff" transform="translate(400.699222 178.896892) scale(0.07 -0.07)">
      <defs>
       <path id="DejaVuSans-Bold-37" d="M 428 4666 
L 3944 4666 
L 3944 3988 
L 2125 0 
L 953 0 
L 2675 3781 
L 428 3781 
L 428 4666 
z
" transform="scale(0.015625)"/>
      </defs>
      <use xlink:href="#DejaVuSans-Bold-37"/>
     </g>
    </g>
   </g>
   <g id="text_9">
    <g clip-path="url(#p20720d95f9)">
     <!-- 8 -->
     <g style="fill: #ffffff" transform="translate(445.303609 213.431578) scale(0.07 -0.07)">
      <defs>
       <path id="DejaVuSans-Bold-38" d="M 2228 2088 
Q 1891 2088 1709 1903 
Q 1528 1719 1528 1375 
Q 1528 1031 1709 848 
Q 1891 666 2228 666 
Q 2563 666 2741 848 
Q 2919 1031 2919 1375 
Q 2919 1722 2741 1905 
Q 2563 2088 2228 2088 
z
M 1350 2484 
Q 925 2613 709 2878 
Q 494 3144 494 3541 
Q 494 4131 934 4440 
Q 1375 4750 2228 4750 
Q 3075 4750 3515 4442 
Q 3956 4134 3956 3541 
Q 3956 3144 3739 2878 
Q 3522 2613 3097 2484 
Q 3572 2353 3814 2058 
Q 4056 1763 4056 1313 
Q 4056 619 3595 264 
Q 3134 -91 2228 -91 
Q 1319 -91 855 264 
Q 391 619 391 1313 
Q 391 1763 633 2058 
Q 875 2353 1350 2484 
z
M 1631 3419 
Q 1631 3141 1786 2991 
Q 1941 2841 2228 2841 
Q 2509 2841 2662 2991 
Q 2816 3141 2816 3419 
Q 2816 3697 2662 3845 
Q 2509 3994 2228 3994 
Q 1941 3994 1786 3844 
Q 1631 3694 1631 3419 
z
" transform="scale(0.015625)"/>
      </defs>
      <use xlink:href="#DejaVuSans-Bold-38"/>
     </g>
    </g>
   </g>
   <g id="text_10">
    <g clip-path="url(#p20720d95f9)">
     <!-- 9 -->
     <g style="fill: #ffffff" transform="translate(430.442375 253.625934) scale(0.07 -0.07)">
      <defs>
       <path id="DejaVuSans-Bold-39" d="M 641 103 
L 641 966 
Q 928 831 1190 764 
Q 1453 697 1709 697 
Q 2247 697 2547 995 
Q 2847 1294 2900 1881 
Q 2688 1725 2447 1647 
Q 2206 1569 1925 1569 
Q 1209 1569 770 1986 
Q 331 2403 331 3084 
Q 331 3838 820 4291 
Q 1309 4744 2131 4744 
Q 3044 4744 3544 4128 
Q 4044 3513 4044 2388 
Q 4044 1231 3459 570 
Q 2875 -91 1856 -91 
Q 1528 -91 1228 -42 
Q 928 6 641 103 
z
M 2125 2350 
Q 2441 2350 2600 2554 
Q 2759 2759 2759 3169 
Q 2759 3575 2600 3781 
Q 2441 3988 2125 3988 
Q 1809 3988 1650 3781 
Q 1491 3575 1491 3169 
Q 1491 2759 1650 2554 
Q 1809 2350 2125 2350 
z
" transform="scale(0.015625)"/>
      </defs>
      <use xlink:href="#DejaVuSans-Bold-39"/>
     </g>
    </g>
   </g>
   <g id="text_11">
    <g clip-path="url(#p20720d95f9)">
     <!-- 10 -->
     <g style="fill: #ffffff" transform="translate(408.718749 306.038925) scale(0.07 -0.07)">
      <use xlink:href="#DejaVuSans-Bold-31"/>
      <use xlink:href="#DejaVuSans-Bold-30" transform="translate(69.580078 0)"/>
     </g>
    </g>
   </g>
   <g id="text_12">
    <g clip-path="url(#p20720d95f9)">
     <!-- 11 -->
     <g style="fill: #ffffff" transform="translate(334.551693 310.101571) scale(0.07 -0.07)">
      <use xlink:href="#DejaVuSans-Bold-31"/>
      <use xlink:href="#DejaVuSans-Bold-31" transform="translate(69.580078 0)"/>
     </g>
    </g>
   </g>
   <g id="text_13">
    <g clip-path="url(#p20720d95f9)">
     <!-- 12 -->
     <g style="fill: #ffffff" transform="translate(398.251174 374.779413) scale(0.07 -0.07)">
      <use xlink:href="#DejaVuSans-Bold-31"/>
      <use xlink:href="#DejaVuSans-Bold-32" transform="translate(69.580078 0)"/>
     </g>
    </g>
   </g>
   <g id="text_14">
    <g clip-path="url(#p20720d95f9)">
     <!-- 13 -->
     <g style="fill: #ffffff" transform="translate(355.019725 405.854333) scale(0.07 -0.07)">
      <use xlink:href="#DejaVuSans-Bold-31"/>
      <use xlink:href="#DejaVuSans-Bold-33" transform="translate(69.580078 0)"/>
     </g>
    </g>
   </g>
   <g id="text_15">
    <g clip-path="url(#p20720d95f9)">
     <!-- 14 -->
     <g style="fill: #ffffff" transform="translate(321.27645 432.842599) scale(0.07 -0.07)">
      <use xlink:href="#DejaVuSans-Bold-31"/>
      <use xlink:href="#DejaVuSans-Bold-34" transform="translate(69.580078 0)"/>
     </g>
    </g>
   </g>
   <g id="text_16">
    <g clip-path="url(#p20720d95f9)">
     <!-- 15 -->
     <g style="fill: #ffffff" transform="translate(270.891881 451.006207) scale(0.07 -0.07)">
      <use xlink:href="#DejaVuSans-Bold-31"/>
      <use xlink:href="#DejaVuSans-Bold-35" transform="translate(69.580078 0)"/>
     </g>
    </g>
   </g>
   <g id="text_17">
    <g clip-path="url(#p20720d95f9)">
     <!-- 16 -->
     <g style="fill: #ffffff" transform="translate(205.06961 383.945267) scale(0.07 -0.07)">
      <use xlink:href="#DejaVuSans-Bold-31"/>
      <use xlink:href="#DejaVuSans-Bold-36" transform="translate(69.580078 0)"/>
     </g>
    </g>
   </g>
   <g id="text_18">
    <g clip-path="url(#p20720d95f9)">
     <!-- 17 -->
     <g style="fill: #ffffff" transform="translate(244.574684 413.893883) scale(0.07 -0.07)">
      <use xlink:href="#DejaVuSans-Bold-31"/>
      <use xlink:href="#DejaVuSans-Bold-37" transform="translate(69.580078 0)"/>
     </g>
    </g>
   </g>
   <g id="text_19">
    <g clip-path="url(#p20720d95f9)">
     <!-- 18 -->
     <g style="fill: #ffffff" transform="translate(288.413474 360.540372) scale(0.07 -0.07)">
      <use xlink:href="#DejaVuSans-Bold-31"/>
      <use xlink:href="#DejaVuSans-Bold-38" transform="translate(69.580078 0)"/>
     </g>
    </g>
   </g>
   <g id="text_20">
    <g clip-path="url(#p20720d95f9)">
     <!-- 19 -->
     <g style="fill: #ffffff" transform="translate(229.01544 348.070166) scale(0.07 -0.07)">
      <use xlink:href="#DejaVuSans-Bold-31"/>
      <use xlink:href="#DejaVuSans-Bold-39" transform="translate(69.580078 0)"/>
     </g>
    </g>
   </g>
   <g id="text_21">
    <g clip-path="url(#p20720d95f9)">
     <!-- 20 -->
     <g style="fill: #ffffff" transform="translate(202.540899 321.03811) scale(0.07 -0.07)">
      <use xlink:href="#DejaVuSans-Bold-32"/>
      <use xlink:href="#DejaVuSans-Bold-30" transform="translate(69.580078 0)"/>
     </g>
    </g>
   </g>
   <g id="text_22">
    <g clip-path="url(#p20720d95f9)">
     <!-- 21 -->
     <g style="fill: #ffffff" transform="translate(218.917331 260.26696) scale(0.07 -0.07)">
      <use xlink:href="#DejaVuSans-Bold-32"/>
      <use xlink:href="#DejaVuSans-Bold-31" transform="translate(69.580078 0)"/>
     </g>
    </g>
   </g>
   <g id="text_23">
    <g clip-path="url(#p20720d95f9)">
     <!-- 22 -->
     <g style="fill: #ffffff" transform="translate(132.58291 290.273221) scale(0.07 -0.07)">
      <use xlink:href="#DejaVuSans-Bold-32"/>
      <use xlink:href="#DejaVuSans-Bold-32" transform="translate(69.580078 0)"/>
     </g>
    </g>
   </g>
   <g id="text_24">
    <g clip-path="url(#p20720d95f9)">
     <!-- 23 -->
     <g style="fill: #ffffff" transform="translate(158.004379 237.310464) scale(0.07 -0.07)">
      <use xlink:href="#DejaVuSans-Bold-32"/>
      <use xlink:href="#DejaVuSans-Bold-33" transform="translate(69.580078 0)"/>
     </g>
    </g>
   </g>
   <g id="text_25">
    <g clip-path="url(#p20720d95f9)">
     <!-- 24 -->
     <g style="fill: #ffffff" transform="translate(49.734308 267.272091) scale(0.07 -0.07)">
      <use xlink:href="#DejaVuSans-Bold-32"/>
      <use xlink:href="#DejaVuSans-Bold-34" transform="translate(69.580078 0)"/>
     </g>
    </g>
   </g>
   <g id="text_26">
    <g clip-path="url(#p20720d95f9)">
     <!-- 25 -->
     <g style="fill: #ffffff" transform="translate(60.650109 221.399859) scale(0.07 -0.07)">
      <use xlink:href="#DejaVuSans-Bold-32"/>
      <use xlink:href="#DejaVuSans-Bold-35" transform="translate(69.580078 0)"/>
     </g>
    </g>
   </g>
   <g id="text_27">
    <g clip-path="url(#p20720d95f9)">
     <!-- 26 -->
     <g style="fill: #ffffff" transform="translate(99.990748 265.144887) scale(0.07 -0.07)">
      <use xlink:href="#DejaVuSans-Bold-32"/>
      <use xlink:href="#DejaVuSans-Bold-36" transform="translate(69.580078 0)"/>
     </g>
    </g>
   </g>
   <g id="text_28">
    <g clip-path="url(#p20720d95f9)">
     <!-- 27 -->
     <g style="fill: #ffffff" transform="translate(130.833654 178.363953) scale(0.07 -0.07)">
      <use xlink:href="#DejaVuSans-Bold-32"/>
      <use xlink:href="#DejaVuSans-Bold-37" transform="translate(69.580078 0)"/>
     </g>
    </g>
   </g>
   <g id="text_29">
    <g clip-path="url(#p20720d95f9)">
     <!-- 28 -->
     <g style="fill: #ffffff" transform="translate(44.190688 178.441709) scale(0.07 -0.07)">
      <use xlink:href="#DejaVuSans-Bold-32"/>
      <use xlink:href="#DejaVuSans-Bold-38" transform="translate(69.580078 0)"/>
     </g>
    </g>
   </g>
   <g id="text_30">
    <g clip-path="url(#p20720d95f9)">
     <!-- 29 -->
     <g style="fill: #ffffff" transform="translate(86.036321 143.933307) scale(0.07 -0.07)">
      <use xlink:href="#DejaVuSans-Bold-32"/>
      <use xlink:href="#DejaVuSans-Bold-39" transform="translate(69.580078 0)"/>
     </g>
    </g>
   </g>
   <g id="text_31">
    <!-- Community-Colored Network Graph (30 nodes, 4 communities) -->
    <g transform="translate(74.579375 15.558281) scale(0.11 -0.11)">
     <defs>
      <path id="DejaVuSans-43" d="M 4122 4306 
L 4122 3641 
Q 3803 3938 3442 4084 
Q 3081 4231 2675 4231 
Q 1875 4231 1450 3742 
Q 1025 3253 1025 2328 
Q 1025 1406 1450 917 
Q 1875 428 2675 428 
Q 3081 428 3442 575 
Q 3803 722 4122 1019 
L 4122 359 
Q 3791 134 3420 21 
Q 3050 -91 2638 -91 
Q 1578 -91 968 557 
Q 359 1206 359 2328 
Q 359 3453 968 4101 
Q 1578 4750 2638 4750 
Q 3056 4750 3426 4639 
Q 3797 4528 4122 4306 
z
" transform="scale(0.015625)"/>
      <path id="DejaVuSans-6f" d="M 1959 3097 
Q 1497 3097 1228 2736 
Q 959 2375 959 1747 
Q 959 1119 1226 758 
Q 1494 397 1959 397 
Q 2419 397 2687 759 
Q 2956 1122 2956 1747 
Q 2956 2369 2687 2733 
Q 2419 3097 1959 3097 
z
M 1959 3584 
Q 2709 3584 3137 3096 
Q 3566 2609 3566 1747 
Q 3566 888 3137 398 
Q 2709 -91 1959 -91 
Q 1206 -91 779 398 
Q 353 888 353 1747 
Q 353 2609 779 3096 
Q 1206 3584 1959 3584 
z
" transform="scale(0.015625)"/>
      <path id="DejaVuSans-6d" d="M 3328 2828 
Q 3544 3216 3844 3400 
Q 4144 3584 4550 3584 
Q 5097 3584 5394 3201 
Q 5691 2819 5691 2113 
L 5691 0 
L 5113 0 
L 5113 2094 
Q 5113 2597 4934 2840 
Q 4756 3084 4391 3084 
Q 3944 3084 3684 2787 
Q 3425 2491 3425 1978 
L 3425 0 
L 2847 0 
L 2847 2094 
Q 2847 2600 2669 2842 
Q 2491 3084 2119 3084 
Q 1678 3084 1418 2786 
Q 1159 2488 1159 1978 
L 1159 0 
L 581 0 
L 581 3500 
L 1159 3500 
L 1159 2956 
Q 1356 3278 1631 3431 
Q 1906 3584 2284 3584 
Q 2666 3584 2933 3390 
Q 3200 3197 3328 2828 
z
" transform="scale(0.015625)"/>
      <path id="DejaVuSans-75" d="M 544 1381 
L 544 3500 
L 1119 3500 
L 1119 1403 
Q 1119 906 1312 657 
Q 1506 409 1894 409 
Q 2359 409 2629 706 
Q 2900 1003 2900 1516 
L 2900 3500 
L 3475 3500 
L 3475 0 
L 2900 0 
L 2900 538 
Q 2691 219 2414 64 
Q 2138 -91 1772 -91 
Q 1169 -91 856 284 
Q 544 659 544 1381 
z
M 1991 3584 
L 1991 3584 
z
" transform="scale(0.015625)"/>
      <path id="DejaVuSans-6e" d="M 3513 2113 
L 3513 0 
L 2938 0 
L 2938 2094 
Q 2938 2591 2744 2837 
Q 2550 3084 2163 3084 
Q 1697 3084 1428 2787 
Q 1159 2491 1159 1978 
L 1159 0 
L 581 0 
L 581 3500 
L 1159 3500 
L 1159 2956 
Q 1366 3272 1645 3428 
Q 1925 3584 2291 3584 
Q 2894 3584 3203 3211 
Q 3513 2838 3513 2113 
z
" transform="scale(0.015625)"/>
      <path id="DejaVuSans-69" d="M 603 3500 
L 1178 3500 
L 1178 0 
L 603 0 
L 603 3500 
z
M 603 4863 
L 1178 4863 
L 1178 4134 
L 603 4134 
L 603 4863 
z
" transform="scale(0.015625)"/>
      <path id="DejaVuSans-74" d="M 1172 4494 
L 1172 3500 
L 2356 3500 
L 2356 3053 
L 1172 3053 
L 1172 1153 
Q 1172 725 1289 603 
Q 1406 481 1766 481 
L 2356 481 
L 2356 0 
L 1766 0 
Q 1100 0 847 248 
Q 594 497 594 1153 
L 594 3053 
L 172 3053 
L 172 3500 
L 594 3500 
L 594 4494 
L 1172 4494 
z
" transform="scale(0.015625)"/>
      <path id="DejaVuSans-79" d="M 2059 -325 
Q 1816 -950 1584 -1140 
Q 1353 -1331 966 -1331 
L 506 -1331 
L 506 -850 
L 844 -850 
Q 1081 -850 1212 -737 
Q 1344 -625 1503 -206 
L 1606 56 
L 191 3500 
L 800 3500 
L 1894 763 
L 2988 3500 
L 3597 3500 
L 2059 -325 
z
" transform="scale(0.015625)"/>
      <path id="DejaVuSans-2d" d="M 313 2009 
L 1997 2009 
L 1997 1497 
L 313 1497 
L 313 2009 
z
" transform="scale(0.015625)"/>
      <path id="DejaVuSans-6c" d="M 603 4863 
L 1178 4863 
L 1178 0 
L 603 0 
L 603 4863 
z
" transform="scale(0.015625)"/>
      <path id="DejaVuSans-72" d="M 2631 2963 
Q 2534 3019 2420 3045 
Q 2306 3072 2169 3072 
Q 1681 3072 1420 2755 
Q 1159 2438 1159 1844 
L 1159 0 
L 581 0 
L 581 3500 
L 1159 3500 
L 1159 2956 
Q 1341 3275 1631 3429 
Q 1922 3584 2338 3584 
Q 2397 3584 2469 3576 
Q 2541 3569 2628 3553 
L 2631 2963 
z
" transform="scale(0.015625)"/>
      <path id="DejaVuSans-65" d="M 3597 1894 
L 3597 1613 
L 953 1613 
Q 991 1019 1311 708 
Q 1631 397 2203 397 
Q 2534 397 2845 478 
Q 3156 559 3463 722 
L 3463 178 
Q 3153 47 2828 -22 
Q 2503 -91 2169 -91 
Q 1331 -91 842 396 
Q 353 884 353 1716 
Q 353 2575 817 3079 
Q 1281 3584 2069 3584 
Q 2775 3584 3186 3129 
Q 3597 2675 3597 1894 
z
M 3022 2063 
Q 3016 2534 2758 2815 
Q 2500 3097 2075 3097 
Q 1594 3097 1305 2825 
Q 1016 2553 972 2059 
L 3022 2063 
z
" transform="scale(0.015625)"/>
      <path id="DejaVuSans-64" d="M 2906 2969 
L 2906 4863 
L 3481 4863 
L 3481 0 
L 2906 0 
L 2906 525 
Q 2725 213 2448 61 
Q 2172 -91 1784 -91 
Q 1150 -91 751 415 
Q 353 922 353 1747 
Q 353 2572 751 3078 
Q 1150 3584 1784 3584 
Q 2172 3584 2448 3432 
Q 2725 3281 2906 2969 
z
M 947 1747 
Q 947 1113 1208 752 
Q 1469 391 1925 391 
Q 2381 391 2643 752 
Q 2906 1113 2906 1747 
Q 2906 2381 2643 2742 
Q 2381 3103 1925 3103 
Q 1469 3103 1208 2742 
Q 947 2381 947 1747 
z
" transform="scale(0.015625)"/>
      <path id="DejaVuSans-20" transform="scale(0.015625)"/>
      <path id="DejaVuSans-4e" d="M 628 4666 
L 1478 4666 
L 3547 763 
L 3547 4666 
L 4159 4666 
L 4159 0 
L 3309 0 
L 1241 3903 
L 1241 0 
L 628 0 
L 628 4666 
z
" transform="scale(0.015625)"/>
      <path id="DejaVuSans-77" d="M 269 3500 
L 844 3500 
L 1563 769 
L 2278 3500 
L 2956 3500 
L 3675 769 
L 4391 3500 
L 4966 3500 
L 4050 0 
L 3372 0 
L 2619 2869 
L 1863 0 
L 1184 0 
L 269 3500 
z
" transform="scale(0.015625)"/>
      <path id="DejaVuSans-6b" d="M 581 4863 
L 1159 4863 
L 1159 1991 
L 2875 3500 
L 3609 3500 
L 1753 1863 
L 3688 0 
L 2938 0 
L 1159 1709 
L 1159 0 
L 581 0 
L 581 4863 
z
" transform="scale(0.015625)"/>
      <path id="DejaVuSans-47" d="M 3809 666 
L 3809 1919 
L 2778 1919 
L 2778 2438 
L 4434 2438 
L 4434 434 
Q 4069 175 3628 42 
Q 3188 -91 2688 -91 
Q 1594 -91 976 548 
Q 359 1188 359 2328 
Q 359 3472 976 4111 
Q 1594 4750 2688 4750 
Q 3144 4750 3555 4637 
Q 3966 4525 4313 4306 
L 4313 3634 
Q 3963 3931 3569 4081 
Q 3175 4231 2741 4231 
Q 1884 4231 1454 3753 
Q 1025 3275 1025 2328 
Q 1025 1384 1454 906 
Q 1884 428 2741 428 
Q 3075 428 3337 486 
Q 3600 544 3809 666 
z
" transform="scale(0.015625)"/>
      <path id="DejaVuSans-61" d="M 2194 1759 
Q 1497 1759 1228 1600 
Q 959 1441 959 1056 
Q 959 750 1161 570 
Q 1363 391 1709 391 
Q 2188 391 2477 730 
Q 2766 1069 2766 1631 
L 2766 1759 
L 2194 1759 
z
M 3341 1997 
L 3341 0 
L 2766 0 
L 2766 531 
Q 2569 213 2275 61 
Q 1981 -91 1556 -91 
Q 1019 -91 701 211 
Q 384 513 384 1019 
Q 384 1609 779 1909 
Q 1175 2209 1959 2209 
L 2766 2209 
L 2766 2266 
Q 2766 2663 2505 2880 
Q 2244 3097 1772 3097 
Q 1472 3097 1187 3025 
Q 903 2953 641 2809 
L 641 3341 
Q 956 3463 1253 3523 
Q 1550 3584 1831 3584 
Q 2591 3584 2966 3190 
Q 3341 2797 3341 1997 
z
" transform="scale(0.015625)"/>
      <path id="DejaVuSans-70" d="M 1159 525 
L 1159 -1331 
L 581 -1331 
L 581 3500 
L 1159 3500 
L 1159 2969 
Q 1341 3281 1617 3432 
Q 1894 3584 2278 3584 
Q 2916 3584 3314 3078 
Q 3713 2572 3713 1747 
Q 3713 922 3314 415 
Q 2916 -91 2278 -91 
Q 1894 -91 1617 61 
Q 1341 213 1159 525 
z
M 3116 1747 
Q 3116 2381 2855 2742 
Q 2594 3103 2138 3103 
Q 1681 3103 1420 2742 
Q 1159 2381 1159 1747 
Q 1159 1113 1420 752 
Q 1681 391 2138 391 
Q 2594 391 2855 752 
Q 3116 1113 3116 1747 
z
" transform="scale(0.015625)"/>
      <path id="DejaVuSans-68" d="M 3513 2113 
L 3513 0 
L 2938 0 
L 2938 2094 
Q 2938 2591 2744 2837 
Q 2550 3084 2163 3084 
Q 1697 3084 1428 2787 
Q 1159 2491 1159 1978 
L 1159 0 
L 581 0 
L 581 4863 
L 1159 4863 
L 1159 2956 
Q 1366 3272 1645 3428 
Q 1925 3584 2291 3584 
Q 2894 3584 3203 3211 
Q 3513 2838 3513 2113 
z
" transform="scale(0.015625)"/>
      <path id="DejaVuSans-28" d="M 1984 4856 
Q 1566 4138 1362 3434 
Q 1159 2731 1159 2009 
Q 1159 1288 1364 580 
Q 1569 -128 1984 -844 
L 1484 -844 
Q 1016 -109 783 600 
Q 550 1309 550 2009 
Q 550 2706 781 3412 
Q 1013 4119 1484 4856 
L 1984 4856 
z
" transform="scale(0.015625)"/>
      <path id="DejaVuSans-33" d="M 2597 2516 
Q 3050 2419 3304 2112 
Q 3559 1806 3559 1356 
Q 3559 666 3084 287 
Q 2609 -91 1734 -91 
Q 1441 -91 1130 -33 
Q 819 25 488 141 
L 488 750 
Q 750 597 1062 519 
Q 1375 441 1716 441 
Q 2309 441 2620 675 
Q 2931 909 2931 1356 
Q 2931 1769 2642 2001 
Q 2353 2234 1838 2234 
L 1294 2234 
L 1294 2753 
L 1863 2753 
Q 2328 2753 2575 2939 
Q 2822 3125 2822 3475 
Q 2822 3834 2567 4026 
Q 2313 4219 1838 4219 
Q 1578 4219 1281 4162 
Q 984 4106 628 3988 
L 628 4550 
Q 988 4650 1302 4700 
Q 1616 4750 1894 4750 
Q 2613 4750 3031 4423 
Q 3450 4097 3450 3541 
Q 3450 3153 3228 2886 
Q 3006 2619 2597 2516 
z
" transform="scale(0.015625)"/>
      <path id="DejaVuSans-30" d="M 2034 4250 
Q 1547 4250 1301 3770 
Q 1056 3291 1056 2328 
Q 1056 1369 1301 889 
Q 1547 409 2034 409 
Q 2525 409 2770 889 
Q 3016 1369 3016 2328 
Q 3016 3291 2770 3770 
Q 2525 4250 2034 4250 
z
M 2034 4750 
Q 2819 4750 3233 4129 
Q 3647 3509 3647 2328 
Q 3647 1150 3233 529 
Q 2819 -91 2034 -91 
Q 1250 -91 836 529 
Q 422 1150 422 2328 
Q 422 3509 836 4129 
Q 1250 4750 2034 4750 
z
" transform="scale(0.015625)"/>
      <path id="DejaVuSans-73" d="M 2834 3397 
L 2834 2853 
Q 2591 2978 2328 3040 
Q 2066 3103 1784 3103 
Q 1356 3103 1142 2972 
Q 928 2841 928 2578 
Q 928 2378 1081 2264 
Q 1234 2150 1697 2047 
L 1894 2003 
Q 2506 1872 2764 1633 
Q 3022 1394 3022 966 
Q 3022 478 2636 193 
Q 2250 -91 1575 -91 
Q 1294 -91 989 -36 
Q 684 19 347 128 
L 347 722 
Q 666 556 975 473 
Q 1284 391 1588 391 
Q 1994 391 2212 530 
Q 2431 669 2431 922 
Q 2431 1156 2273 1281 
Q 2116 1406 1581 1522 
L 1381 1569 
Q 847 1681 609 1914 
Q 372 2147 372 2553 
Q 372 3047 722 3315 
Q 1072 3584 1716 3584 
Q 2034 3584 2315 3537 
Q 2597 3491 2834 3397 
z
" transform="scale(0.015625)"/>
      <path id="DejaVuSans-2c" d="M 750 794 
L 1409 794 
L 1409 256 
L 897 -744 
L 494 -744 
L 750 256 
L 750 794 
z
" transform="scale(0.015625)"/>
      <path id="DejaVuSans-34" d="M 2419 4116 
L 825 1625 
L 2419 1625 
L 2419 4116 
z
M 2253 4666 
L 3047 4666 
L 3047 1625 
L 3713 1625 
L 3713 1100 
L 3047 1100 
L 3047 0 
L 2419 0 
L 2419 1100 
L 313 1100 
L 313 1709 
L 2253 4666 
z
" transform="scale(0.015625)"/>
      <path id="DejaVuSans-63" d="M 3122 3366 
L 3122 2828 
Q 2878 2963 2633 3030 
Q 2388 3097 2138 3097 
Q 1578 3097 1268 2742 
Q 959 2388 959 1747 
Q 959 1106 1268 751 
Q 1578 397 2138 397 
Q 2388 397 2633 464 
Q 2878 531 3122 666 
L 3122 134 
Q 2881 22 2623 -34 
Q 2366 -91 2075 -91 
Q 1284 -91 818 406 
Q 353 903 353 1747 
Q 353 2603 823 3093 
Q 1294 3584 2113 3584 
Q 2378 3584 2631 3529 
Q 2884 3475 3122 3366 
z
" transform="scale(0.015625)"/>
      <path id="DejaVuSans-29" d="M 513 4856 
L 1013 4856 
Q 1481 4119 1714 3412 
Q 1947 2706 1947 2009 
Q 1947 1309 1714 600 
Q 1481 -109 1013 -844 
L 513 -844 
Q 928 -128 1133 580 
Q 1338 1288 1338 2009 
Q 1338 2731 1133 3434 
Q 928 4138 513 4856 
z
" transform="scale(0.015625)"/>
     </defs>
     <use xlink:href="#DejaVuSans-43"/>
     <use xlink:href="#DejaVuSans-6f" transform="translate(69.824219 0)"/>
     <use xlink:href="#DejaVuSans-6d" transform="translate(131.005859 0)"/>
     <use xlink:href="#DejaVuSans-6d" transform="translate(228.417969 0)"/>
     <use xlink:href="#DejaVuSans-75" transform="translate(325.830078 0)"/>
     <use xlink:href="#DejaVuSans-6e" transform="translate(389.208984 0)"/>
     <use xlink:href="#DejaVuSans-69" transform="translate(452.587891 0)"/>
     <use xlink:href="#DejaVuSans-74" transform="translate(480.371094 0)"/>
     <use xlink:href="#DejaVuSans-79" transform="translate(519.580078 0)"/>
     <use xlink:href="#DejaVuSans-2d" transform="translate(577.009766 0)"/>
     <use xlink:href="#DejaVuSans-43" transform="translate(613.09375 0)"/>
     <use xlink:href="#DejaVuSans-6f" transform="translate(682.917969 0)"/>
     <use xlink:href="#DejaVuSans-6c" transform="translate(744.099609 0)"/>
     <use xlink:href="#DejaVuSans-6f" transform="translate(771.882812 0)"/>
     <use xlink:href="#DejaVuSans-72" transform="translate(833.064453 0)"/>
     <use xlink:href="#DejaVuSans-65" transform="translate(871.927734 0)"/>
     <use xlink:href="#DejaVuSans-64" transform="translate(933.451172 0)"/>
     <use xlink:href="#DejaVuSans-20" transform="translate(996.927734 0)"/>
     <use xlink:href="#DejaVuSans-4e" transform="translate(1028.714844 0)"/>
     <use xlink:href="#DejaVuSans-65" transform="translate(1103.519531 0)"/>
     <use xlink:href="#DejaVuSans-74" transform="translate(1165.042969 0)"/>
     <use xlink:href="#DejaVuSans-77" transform="translate(1204.251953 0)"/>
     <use xlink:href="#DejaVuSans-6f" transform="translate(1286.039062 0)"/>
     <use xlink:href="#DejaVuSans-72" transform="translate(1347.220703 0)"/>
     <use xlink:href="#DejaVuSans-6b" transform="translate(1388.333984 0)"/>
     <use xlink:href="#DejaVuSans-20" transform="translate(1446.244141 0)"/>
     <use xlink:href="#DejaVuSans-47" transform="translate(1478.03125 0)"/>
     <use xlink:href="#DejaVuSans-72" transform="translate(1555.521484 0)"/>
     <use xlink:href="#DejaVuSans-61" transform="translate(1596.634766 0)"/>
     <use xlink:href="#DejaVuSans-70" transform="translate(1657.914062 0)"/>
     <use xlink:href="#DejaVuSans-68" transform="translate(1721.390625 0)"/>
     <use xlink:href="#DejaVuSans-20" transform="translate(1784.769531 0)"/>
     <use xlink:href="#DejaVuSans-28" transform="translate(1816.556641 0)"/>
     <use xlink:href="#DejaVuSans-33" transform="translate(1855.570312 0)"/>
     <use xlink:href="#DejaVuSans-30" transform="translate(1919.193359 0)"/>
     <use xlink:href="#DejaVuSans-20" transform="translate(1982.816406 0)"/>
     <use xlink:href="#DejaVuSans-6e" transform="translate(2014.603516 0)"/>
     <use xlink:href="#DejaVuSans-6f" transform="translate(2077.982422 0)"/>
     <use xlink:href="#DejaVuSans-64" transform="translate(2139.164062 0)"/>
     <use xlink:href="#DejaVuSans-65" transform="translate(2202.640625 0)"/>
     <use xlink:href="#DejaVuSans-73" transform="translate(2264.164062 0)"/>
     <use xlink:href="#DejaVuSans-2c" transform="translate(2316.263672 0)"/>
     <use xlink:href="#DejaVuSans-20" transform="translate(2348.050781 0)"/>
     <use xlink:href="#DejaVuSans-34" transform="translate(2379.837891 0)"/>
     <use xlink:href="#DejaVuSans-20" transform="translate(2443.460938 0)"/>
     <use xlink:href="#DejaVuSans-63" transform="translate(2475.248047 0)"/>
     <use xlink:href="#DejaVuSans-6f" transform="translate(2530.228516 0)"/>
     <use xlink:href="#DejaVuSans-6d" transform="translate(2591.410156 0)"/>
     <use xlink:href="#DejaVuSans-6d" transform="translate(2688.822266 0)"/>
     <use xlink:href="#DejaVuSans-75" transform="translate(2786.234375 0)"/>
     <use xlink:href="#DejaVuSans-6e" transform="translate(2849.613281 0)"/>
     <use xlink:href="#DejaVuSans-69" transform="translate(2912.992188 0)"/>
     <use xlink:href="#DejaVuSans-74" transform="translate(2940.775391 0)"/>
     <use xlink:href="#DejaVuSans-69" transform="translate(2979.984375 0)"/>
     <use xlink:href="#DejaVuSans-65" transform="translate(3007.767578 0)"/>
     <use xlink:href="#DejaVuSans-73" transform="translate(3069.291016 0)"/>
     <use xlink:href="#DejaVuSans-29" transform="translate(3121.390625 0)"/>
    </g>
   </g>
   <g id="legend_1">
    <g id="patch_2">
     <path d="M 393.825938 484.818281 
L 483.3 484.818281 
Q 485.1 484.818281 485.1 483.018281 
L 485.1 417.866719 
Q 485.1 416.066719 483.3 416.066719 
L 393.825938 416.066719 
Q 392.025937 416.066719 392.025937 417.866719 
L 392.025937 483.018281 
Q 392.025937 484.818281 393.825938 484.818281 
z
" style="fill: #ffffff; opacity: 0.9; stroke: #cccccc; stroke-linejoin: miter"/>
    </g>
    <g id="text_32">
     <!-- Community -->
     <g transform="translate(412.519219 426.505312) scale(0.09 -0.09)">
      <use xlink:href="#DejaVuSans-43"/>
      <use xlink:href="#DejaVuSans-6f" transform="translate(69.824219 0)"/>
      <use xlink:href="#DejaVuSans-6d" transform="translate(131.005859 0)"/>
      <use xlink:href="#DejaVuSans-6d" transform="translate(228.417969 0)"/>
      <use xlink:href="#DejaVuSans-75" transform="translate(325.830078 0)"/>
      <use xlink:href="#DejaVuSans-6e" transform="translate(389.208984 0)"/>
      <use xlink:href="#DejaVuSans-69" transform="translate(452.587891 0)"/>
      <use xlink:href="#DejaVuSans-74" transform="translate(480.371094 0)"/>
      <use xlink:href="#DejaVuSans-79" transform="translate(519.580078 0)"/>
     </g>
    </g>
    <g id="patch_3">
     <path d="M 395.625938 439.715625 
L 413.625938 439.715625 
L 413.625938 433.415625 
L 395.625938 433.415625 
z
" style="fill: #e63946; stroke: #e63946; stroke-linejoin: miter"/>
    </g>
    <g id="text_33">
     <!-- Community 0 -->
     <g transform="translate(420.825938 439.715625) scale(0.09 -0.09)">
      <use xlink:href="#DejaVuSans-43"/>
      <use xlink:href="#DejaVuSans-6f" transform="translate(69.824219 0)"/>
      <use xlink:href="#DejaVuSans-6d" transform="translate(131.005859 0)"/>
      <use xlink:href="#DejaVuSans-6d" transform="translate(228.417969 0)"/>
      <use xlink:href="#DejaVuSans-75" transform="translate(325.830078 0)"/>
      <use xlink:href="#DejaVuSans-6e" transform="translate(389.208984 0)"/>
      <use xlink:href="#DejaVuSans-69" transform="translate(452.587891 0)"/>
      <use xlink:href="#DejaVuSans-74" transform="translate(480.371094 0)"/>
      <use xlink:href="#DejaVuSans-79" transform="translate(519.580078 0)"/>
      <use xlink:href="#DejaVuSans-20" transform="translate(578.759766 0)"/>
      <use xlink:href="#DejaVuSans-30" transform="translate(610.546875 0)"/>
     </g>
    </g>
    <g id="patch_4">
     <path d="M 395.625938 452.925937 
L 413.625938 452.925937 
L 413.625938 446.625937 
L 395.625938 446.625937 
z
" style="fill: #457b9d; stroke: #457b9d; stroke-linejoin: miter"/>
    </g>
    <g id="text_34">
     <!-- Community 1 -->
     <g transform="translate(420.825938 452.925937) scale(0.09 -0.09)">
      <defs>
       <path id="DejaVuSans-31" d="M 794 531 
L 1825 531 
L 1825 4091 
L 703 3866 
L 703 4441 
L 1819 4666 
L 2450 4666 
L 2450 531 
L 3481 531 
L 3481 0 
L 794 0 
L 794 531 
z
" transform="scale(0.015625)"/>
      </defs>
      <use xlink:href="#DejaVuSans-43"/>
      <use xlink:href="#DejaVuSans-6f" transform="translate(69.824219 0)"/>
      <use xlink:href="#DejaVuSans-6d" transform="translate(131.005859 0)"/>
      <use xlink:href="#DejaVuSans-6d" transform="translate(228.417969 0)"/>
      <use xlink:href="#DejaVuSans-75" transform="translate(325.830078 0)"/>
      <use xlink:href="#DejaVuSans-6e" transform="translate(389.208984 0)"/>
      <use xlink:href="#DejaVuSans-69" transform="translate(452.587891 0)"/>
      <use xlink:href="#DejaVuSans-74" transform="translate(480.371094 0)"/>
      <use xlink:href="#DejaVuSans-79" transform="translate(519.580078 0)"/>
      <use xlink:href="#DejaVuSans-20" transform="translate(578.759766 0)"/>
      <use xlink:href="#DejaVuSans-31" transform="translate(610.546875 0)"/>
     </g>
    </g>
    <g id="patch_5">
     <path d="M 395.625938 466.13625 
L 413.625938 466.13625 
L 413.625938 459.83625 
L 395.625938 459.83625 
z
" style="fill: #2a9d8f; stroke: #2a9d8f; stroke-linejoin: miter"/>
    </g>
    <g id="text_35">
     <!-- Community 2 -->
     <g transform="translate(420.825938 466.13625) scale(0.09 -0.09)">
      <defs>
       <path id="DejaVuSans-32" d="M 1228 531 
L 3431 531 
L 3431 0 
L 469 0 
L 469 531 
Q 828 903 1448 1529 
Q 2069 2156 2228 2338 
Q 2531 2678 2651 2914 
Q 2772 3150 2772 3378 
Q 2772 3750 2511 3984 
Q 2250 4219 1831 4219 
Q 1534 4219 1204 4116 
Q 875 4013 500 3803 
L 500 4441 
Q 881 4594 1212 4672 
Q 1544 4750 1819 4750 
Q 2544 4750 2975 4387 
Q 3406 4025 3406 3419 
Q 3406 3131 3298 2873 
Q 3191 2616 2906 2266 
Q 2828 2175 2409 1742 
Q 1991 1309 1228 531 
z
" transform="scale(0.015625)"/>
      </defs>
      <use xlink:href="#DejaVuSans-43"/>
      <use xlink:href="#DejaVuSans-6f" transform="translate(69.824219 0)"/>
      <use xlink:href="#DejaVuSans-6d" transform="translate(131.005859 0)"/>
      <use xlink:href="#DejaVuSans-6d" transform="translate(228.417969 0)"/>
      <use xlink:href="#DejaVuSans-75" transform="translate(325.830078 0)"/>
      <use xlink:href="#DejaVuSans-6e" transform="translate(389.208984 0)"/>
      <use xlink:href="#DejaVuSans-69" transform="translate(452.587891 0)"/>
      <use xlink:href="#DejaVuSans-74" transform="translate(480.371094 0)"/>
      <use xlink:href="#DejaVuSans-79" transform="translate(519.580078 0)"/>
      <use xlink:href="#DejaVuSans-20" transform="translate(578.759766 0)"/>
      <use xlink:href="#DejaVuSans-32" transform="translate(610.546875 0)"/>
     </g>
    </g>
    <g id="patch_6">
     <path d="M 395.625938 479.346562 
L 413.625938 479.346562 
L 413.625938 473.046562 
L 395.625938 473.046562 
z
" style="fill: #e9c46a; stroke: #e9c46a; stroke-linejoin: miter"/>
    </g>
    <g id="text_36">
     <!-- Community 3 -->
     <g transform="translate(420.825938 479.346562) scale(0.09 -0.09)">
      <use xlink:href="#DejaVuSans-43"/>
      <use xlink:href="#DejaVuSans-6f" transform="translate(69.824219 0)"/>
      <use xlink:href="#DejaVuSans-6d" transform="translate(131.005859 0)"/>
      <use xlink:href="#DejaVuSans-6d" transform="translate(228.417969 0)"/>
      <use xlink:href="#DejaVuSans-75" transform="translate(325.830078 0)"/>
      <use xlink:href="#DejaVuSans-6e" transform="translate(389.208984 0)"/>
      <use xlink:href="#DejaVuSans-69" transform="translate(452.587891 0)"/>
      <use xlink:href="#DejaVuSans-74" transform="translate(480.371094 0)"/>
      <use xlink:href="#DejaVuSans-79" transform="translate(519.580078 0)"/>
      <use xlink:href="#DejaVuSans-20" transform="translate(578.759766 0)"/>
      <use xlink:href="#DejaVuSans-33" transform="translate(610.546875 0)"/>
     </g>
    </g>
   </g>
  </g>
 </g>
 <defs>
  <clipPath id="p20720d95f9">
   <rect x="7.2" y="25.558281" width="482.4" height="463.76"/>
  </clipPath>
 </defs>
</svg>
