<?xml version="1.0" encoding="utf-8" standalone="no"?>
<!DOCTYPE svg PUBLIC "-//W3C//DTD SVG 1.1//EN"
  "http://www.w3.org/Graphics/SVG/1.1/DTD/svg11.dtd">
<svg xmlns:xlink="http://www.w3.org/1999/xlink" width="595.346573pt" height="256.666719pt" viewBox="0 0 595.346573 256.666719" xmlns="http://www.w3.org/2000/svg" version="1.1">
 <metadata>
  <rdf:RDF xmlns:dc="http://purl.org/dc/elements/1.1/" xmlns:cc="http://creativecommons.org/ns#" xmlns:rdf="http://www.w3.org/1999/02/22-rdf-syntax-ns#">
   <cc:Work>
    <dc:type rdf:resource="http://purl.org/dc/dcmitype/StillImage"/>
    <dc:date>2026-05-25T00:47:44.284682</dc:date>
    <dc:format>image/svg+xml</dc:format>
    <dc:creator>
     <cc:Agent>
      <dc:title>Matplotlib v3.10.9, https://matplotlib.org/</dc:title>
     </cc:Agent>
    </dc:creator>
   </cc:Work>
  </rdf:RDF>
 </metadata>
 <defs>
  <style type="text/css">*{stroke-linejoin: round; stroke-linecap: butt}</style>
 </defs>
 <g id="figure_1">
  <g id="patch_1">
   <path d="M 0 256.666719 
L 595.346573 256.666719 
L 595.346573 0 
L 0 0 
z
" style="fill: #ffffff"/>
  </g>
  <g id="axes_1">
   <g id="patch_2">
    <path d="M 42.190938 220.078281 
L 287.201917 220.078281 
L 287.201917 21.558281 
L 42.190938 21.558281 
z
" style="fill: #ffffff"/>
   </g>
   <g id="matplotlib.axis_1">
    <g id="xtick_1">
     <g id="line2d_1">
      <defs>
       <path id="m1d68e2d4a2" d="M 0 0 
L 0 3.5 
" style="stroke: #000000; stroke-width: 0.8"/>
      </defs>
      <g>
       <use xlink:href="#m1d68e2d4a2" x="46.902687" y="220.078281" style="stroke: #000000; stroke-width: 0.8"/>
      </g>
     </g>
     <g id="text_1">
      <!-- 0.0 -->
      <g transform="translate(39.746281 233.916875) scale(0.09 -0.09)">
       <defs>
        <path id="DejaVuSans-30" d="M 2034 4250 
Q 1547 4250 1301 3770 
Q 1056 3291 1056 2328 
Q 1056 1369 1301 889 
Q 1547 409 2034 409 
Q 2525 409 2770 889 
Q 3016 1369 3016 2328 
Q 3016 3291 2770 3770 
Q 2525 4250 2034 4250 
z
M 2034 4750 
Q 2819 4750 3233 4129 
Q 3647 3509 3647 2328 
Q 3647 1150 3233 529 
Q 2819 -91 2034 -91 
Q 1250 -91 836 529 
Q 422 1150 422 2328 
Q 422 3509 836 4129 
Q 1250 4750 2034 4750 
z
" transform="scale(0.015625)"/>
        <path id="DejaVuSans-2e" d="M 684 794 
L 1344 794 
L 1344 0 
L 684 0 
L 684 794 
z
" transform="scale(0.015625)"/>
       </defs>
       <use xlink:href="#DejaVuSans-30"/>
       <use xlink:href="#DejaVuSans-2e" transform="translate(63.623047 0)"/>
       <use xlink:href="#DejaVuSans-30" transform="translate(95.410156 0)"/>
      </g>
     </g>
    </g>
    <g id="xtick_2">
     <g id="line2d_2">
      <g>
       <use xlink:href="#m1d68e2d4a2" x="94.020183" y="220.078281" style="stroke: #000000; stroke-width: 0.8"/>
      </g>
     </g>
     <g id="text_2">
      <!-- 0.2 -->
      <g transform="translate(86.863777 233.916875) scale(0.09 -0.09)">
       <defs>
        <path id="DejaVuSans-32" d="M 1228 531 
L 3431 531 
L 3431 0 
L 469 0 
L 469 531 
Q 828 903 1448 1529 
Q 2069 2156 2228 2338 
Q 2531 2678 2651 2914 
Q 2772 3150 2772 3378 
Q 2772 3750 2511 3984 
Q 2250 4219 1831 4219 
Q 1534 4219 1204 4116 
Q 875 4013 500 3803 
L 500 4441 
Q 881 4594 1212 4672 
Q 1544 4750 1819 4750 
Q 2544 4750 2975 4387 
Q 3406 4025 3406 3419 
Q 3406 3131 3298 2873 
Q 3191 2616 2906 2266 
Q 2828 2175 2409 1742 
Q 1991 1309 1228 531 
z
" transform="scale(0.015625)"/>
       </defs>
       <use xlink:href="#DejaVuSans-30"/>
       <use xlink:href="#DejaVuSans-2e" transform="translate(63.623047 0)"/>
       <use xlink:href="#DejaVuSans-32" transform="translate(95.410156 0)"/>
      </g>
     </g>
    </g>
    <g id="xtick_3">
     <g id="line2d_3">
      <g>
       <use xlink:href="#m1d68e2d4a2" x="141.137679" y="220.078281" style="stroke: #000000; stroke-width: 0.8"/>
      </g>
     </g>
     <g id="text_3">
      <!-- 0.4 -->
      <g transform="translate(133.981273 233.916875) scale(0.09 -0.09)">
       <defs>
        <path id="DejaVuSans-34" d="M 2419 4116 
L 825 1625 
L 2419 1625 
L 2419 4116 
z
M 2253 4666 
L 3047 4666 
L 3047 1625 
L 3713 1625 
L 3713 1100 
L 3047 1100 
L 3047 0 
L 2419 0 
L 2419 1100 
L 313 1100 
L 313 1709 
L 2253 4666 
z
" transform="scale(0.015625)"/>
       </defs>
       <use xlink:href="#DejaVuSans-30"/>
       <use xlink:href="#DejaVuSans-2e" transform="translate(63.623047 0)"/>
       <use xlink:href="#DejaVuSans-34" transform="translate(95.410156 0)"/>
      </g>
     </g>
    </g>
    <g id="xtick_4">
     <g id="line2d_4">
      <g>
       <use xlink:href="#m1d68e2d4a2" x="188.255175" y="220.078281" style="stroke: #000000; stroke-width: 0.8"/>
      </g>
     </g>
     <g id="text_4">
      <!-- 0.6 -->
      <g transform="translate(181.098769 233.916875) scale(0.09 -0.09)">
       <defs>
        <path id="DejaVuSans-36" d="M 2113 2584 
Q 1688 2584 1439 2293 
Q 1191 2003 1191 1497 
Q 1191 994 1439 701 
Q 1688 409 2113 409 
Q 2538 409 2786 701 
Q 3034 994 3034 1497 
Q 3034 2003 2786 2293 
Q 2538 2584 2113 2584 
z
M 3366 4563 
L 3366 3988 
Q 3128 4100 2886 4159 
Q 2644 4219 2406 4219 
Q 1781 4219 1451 3797 
Q 1122 3375 1075 2522 
Q 1259 2794 1537 2939 
Q 1816 3084 2150 3084 
Q 2853 3084 3261 2657 
Q 3669 2231 3669 1497 
Q 3669 778 3244 343 
Q 2819 -91 2113 -91 
Q 1303 -91 875 529 
Q 447 1150 447 2328 
Q 447 3434 972 4092 
Q 1497 4750 2381 4750 
Q 2619 4750 2861 4703 
Q 3103 4656 3366 4563 
z
" transform="scale(0.015625)"/>
       </defs>
       <use xlink:href="#DejaVuSans-30"/>
       <use xlink:href="#DejaVuSans-2e" transform="translate(63.623047 0)"/>
       <use xlink:href="#DejaVuSans-36" transform="translate(95.410156 0)"/>
      </g>
     </g>
    </g>
    <g id="xtick_5">
     <g id="line2d_5">
      <g>
       <use xlink:href="#m1d68e2d4a2" x="235.372671" y="220.078281" style="stroke: #000000; stroke-width: 0.8"/>
      </g>
     </g>
     <g id="text_5">
      <!-- 0.8 -->
      <g transform="translate(228.216265 233.916875) scale(0.09 -0.09)">
       <defs>
        <path id="DejaVuSans-38" d="M 2034 2216 
Q 1584 2216 1326 1975 
Q 1069 1734 1069 1313 
Q 1069 891 1326 650 
Q 1584 409 2034 409 
Q 2484 409 2743 651 
Q 3003 894 3003 1313 
Q 3003 1734 2745 1975 
Q 2488 2216 2034 2216 
z
M 1403 2484 
Q 997 2584 770 2862 
Q 544 3141 544 3541 
Q 544 4100 942 4425 
Q 1341 4750 2034 4750 
Q 2731 4750 3128 4425 
Q 3525 4100 3525 3541 
Q 3525 3141 3298 2862 
Q 3072 2584 2669 2484 
Q 3125 2378 3379 2068 
Q 3634 1759 3634 1313 
Q 3634 634 3220 271 
Q 2806 -91 2034 -91 
Q 1263 -91 848 271 
Q 434 634 434 1313 
Q 434 1759 690 2068 
Q 947 2378 1403 2484 
z
M 1172 3481 
Q 1172 3119 1398 2916 
Q 1625 2713 2034 2713 
Q 2441 2713 2670 2916 
Q 2900 3119 2900 3481 
Q 2900 3844 2670 4047 
Q 2441 4250 2034 4250 
Q 1625 4250 1398 4047 
Q 1172 3844 1172 3481 
z
" transform="scale(0.015625)"/>
       </defs>
       <use xlink:href="#DejaVuSans-30"/>
       <use xlink:href="#DejaVuSans-2e" transform="translate(63.623047 0)"/>
       <use xlink:href="#DejaVuSans-38" transform="translate(95.410156 0)"/>
      </g>
     </g>
    </g>
    <g id="xtick_6">
     <g id="line2d_6">
      <g>
       <use xlink:href="#m1d68e2d4a2" x="282.490167" y="220.078281" style="stroke: #000000; stroke-width: 0.8"/>
      </g>
     </g>
     <g id="text_6">
      <!-- 1.0 -->
      <g transform="translate(275.333761 233.916875) scale(0.09 -0.09)">
       <defs>
        <path id="DejaVuSans-31" d="M 794 531 
L 1825 531 
L 1825 4091 
L 703 3866 
L 703 4441 
L 1819 4666 
L 2450 4666 
L 2450 531 
L 3481 531 
L 3481 0 
L 794 0 
L 794 531 
z
" transform="scale(0.015625)"/>
       </defs>
       <use xlink:href="#DejaVuSans-31"/>
       <use xlink:href="#DejaVuSans-2e" transform="translate(63.623047 0)"/>
       <use xlink:href="#DejaVuSans-30" transform="translate(95.410156 0)"/>
      </g>
     </g>
    </g>
    <g id="text_7">
     <!-- False Positive Rate -->
     <g transform="translate(118.230021 247.387031) scale(0.1 -0.1)">
      <defs>
       <path id="DejaVuSans-46" d="M 628 4666 
L 3309 4666 
L 3309 4134 
L 1259 4134 
L 1259 2759 
L 3109 2759 
L 3109 2228 
L 1259 2228 
L 1259 0 
L 628 0 
L 628 4666 
z
" transform="scale(0.015625)"/>
       <path id="DejaVuSans-61" d="M 2194 1759 
Q 1497 1759 1228 1600 
Q 959 1441 959 1056 
Q 959 750 1161 570 
Q 1363 391 1709 391 
Q 2188 391 2477 730 
Q 2766 1069 2766 1631 
L 2766 1759 
L 2194 1759 
z
M 3341 1997 
L 3341 0 
L 2766 0 
L 2766 531 
Q 2569 213 2275 61 
Q 1981 -91 1556 -91 
Q 1019 -91 701 211 
Q 384 513 384 1019 
Q 384 1609 779 1909 
Q 1175 2209 1959 2209 
L 2766 2209 
L 2766 2266 
Q 2766 2663 2505 2880 
Q 2244 3097 1772 3097 
Q 1472 3097 1187 3025 
Q 903 2953 641 2809 
L 641 3341 
Q 956 3463 1253 3523 
Q 1550 3584 1831 3584 
Q 2591 3584 2966 3190 
Q 3341 2797 3341 1997 
z
" transform="scale(0.015625)"/>
       <path id="DejaVuSans-6c" d="M 603 4863 
L 1178 4863 
L 1178 0 
L 603 0 
L 603 4863 
z
" transform="scale(0.015625)"/>
       <path id="DejaVuSans-73" d="M 2834 3397 
L 2834 2853 
Q 2591 2978 2328 3040 
Q 2066 3103 1784 3103 
Q 1356 3103 1142 2972 
Q 928 2841 928 2578 
Q 928 2378 1081 2264 
Q 1234 2150 1697 2047 
L 1894 2003 
Q 2506 1872 2764 1633 
Q 3022 1394 3022 966 
Q 3022 478 2636 193 
Q 2250 -91 1575 -91 
Q 1294 -91 989 -36 
Q 684 19 347 128 
L 347 722 
Q 666 556 975 473 
Q 1284 391 1588 391 
Q 1994 391 2212 530 
Q 2431 669 2431 922 
Q 2431 1156 2273 1281 
Q 2116 1406 1581 1522 
L 1381 1569 
Q 847 1681 609 1914 
Q 372 2147 372 2553 
Q 372 3047 722 3315 
Q 1072 3584 1716 3584 
Q 2034 3584 2315 3537 
Q 2597 3491 2834 3397 
z
" transform="scale(0.015625)"/>
       <path id="DejaVuSans-65" d="M 3597 1894 
L 3597 1613 
L 953 1613 
Q 991 1019 1311 708 
Q 1631 397 2203 397 
Q 2534 397 2845 478 
Q 3156 559 3463 722 
L 3463 178 
Q 3153 47 2828 -22 
Q 2503 -91 2169 -91 
Q 1331 -91 842 396 
Q 353 884 353 1716 
Q 353 2575 817 3079 
Q 1281 3584 2069 3584 
Q 2775 3584 3186 3129 
Q 3597 2675 3597 1894 
z
M 3022 2063 
Q 3016 2534 2758 2815 
Q 2500 3097 2075 3097 
Q 1594 3097 1305 2825 
Q 1016 2553 972 2059 
L 3022 2063 
z
" transform="scale(0.015625)"/>
       <path id="DejaVuSans-20" transform="scale(0.015625)"/>
       <path id="DejaVuSans-50" d="M 1259 4147 
L 1259 2394 
L 2053 2394 
Q 2494 2394 2734 2622 
Q 2975 2850 2975 3272 
Q 2975 3691 2734 3919 
Q 2494 4147 2053 4147 
L 1259 4147 
z
M 628 4666 
L 2053 4666 
Q 2838 4666 3239 4311 
Q 3641 3956 3641 3272 
Q 3641 2581 3239 2228 
Q 2838 1875 2053 1875 
L 1259 1875 
L 1259 0 
L 628 0 
L 628 4666 
z
" transform="scale(0.015625)"/>
       <path id="DejaVuSans-6f" d="M 1959 3097 
Q 1497 3097 1228 2736 
Q 959 2375 959 1747 
Q 959 1119 1226 758 
Q 1494 397 1959 397 
Q 2419 397 2687 759 
Q 2956 1122 2956 1747 
Q 2956 2369 2687 2733 
Q 2419 3097 1959 3097 
z
M 1959 3584 
Q 2709 3584 3137 3096 
Q 3566 2609 3566 1747 
Q 3566 888 3137 398 
Q 2709 -91 1959 -91 
Q 1206 -91 779 398 
Q 353 888 353 1747 
Q 353 2609 779 3096 
Q 1206 3584 1959 3584 
z
" transform="scale(0.015625)"/>
       <path id="DejaVuSans-69" d="M 603 3500 
L 1178 3500 
L 1178 0 
L 603 0 
L 603 3500 
z
M 603 4863 
L 1178 4863 
L 1178 4134 
L 603 4134 
L 603 4863 
z
" transform="scale(0.015625)"/>
       <path id="DejaVuSans-74" d="M 1172 4494 
L 1172 3500 
L 2356 3500 
L 2356 3053 
L 1172 3053 
L 1172 1153 
Q 1172 725 1289 603 
Q 1406 481 1766 481 
L 2356 481 
L 2356 0 
L 1766 0 
Q 1100 0 847 248 
Q 594 497 594 1153 
L 594 3053 
L 172 3053 
L 172 3500 
L 594 3500 
L 594 4494 
L 1172 4494 
z
" transform="scale(0.015625)"/>
       <path id="DejaVuSans-76" d="M 191 3500 
L 800 3500 
L 1894 563 
L 2988 3500 
L 3597 3500 
L 2284 0 
L 1503 0 
L 191 3500 
z
" transform="scale(0.015625)"/>
       <path id="DejaVuSans-52" d="M 2841 2188 
Q 3044 2119 3236 1894 
Q 3428 1669 3622 1275 
L 4263 0 
L 3584 0 
L 2988 1197 
Q 2756 1666 2539 1819 
Q 2322 1972 1947 1972 
L 1259 1972 
L 1259 0 
L 628 0 
L 628 4666 
L 2053 4666 
Q 2853 4666 3247 4331 
Q 3641 3997 3641 3322 
Q 3641 2881 3436 2590 
Q 3231 2300 2841 2188 
z
M 1259 4147 
L 1259 2491 
L 2053 2491 
Q 2509 2491 2742 2702 
Q 2975 2913 2975 3322 
Q 2975 3731 2742 3939 
Q 2509 4147 2053 4147 
L 1259 4147 
z
" transform="scale(0.015625)"/>
      </defs>
      <use xlink:href="#DejaVuSans-46"/>
      <use xlink:href="#DejaVuSans-61" transform="translate(48.394531 0)"/>
      <use xlink:href="#DejaVuSans-6c" transform="translate(109.673828 0)"/>
      <use xlink:href="#DejaVuSans-73" transform="translate(137.457031 0)"/>
      <use xlink:href="#DejaVuSans-65" transform="translate(189.556641 0)"/>
      <use xlink:href="#DejaVuSans-20" transform="translate(251.080078 0)"/>
      <use xlink:href="#DejaVuSans-50" transform="translate(282.867188 0)"/>
      <use xlink:href="#DejaVuSans-6f" transform="translate(339.544922 0)"/>
      <use xlink:href="#DejaVuSans-73" transform="translate(400.726562 0)"/>
      <use xlink:href="#DejaVuSans-69" transform="translate(452.826172 0)"/>
      <use xlink:href="#DejaVuSans-74" transform="translate(480.609375 0)"/>
      <use xlink:href="#DejaVuSans-69" transform="translate(519.818359 0)"/>
      <use xlink:href="#DejaVuSans-76" transform="translate(547.601562 0)"/>
      <use xlink:href="#DejaVuSans-65" transform="translate(606.78125 0)"/>
      <use xlink:href="#DejaVuSans-20" transform="translate(668.304688 0)"/>
      <use xlink:href="#DejaVuSans-52" transform="translate(700.091797 0)"/>
      <use xlink:href="#DejaVuSans-61" transform="translate(767.324219 0)"/>
      <use xlink:href="#DejaVuSans-74" transform="translate(828.603516 0)"/>
      <use xlink:href="#DejaVuSans-65" transform="translate(867.8125 0)"/>
     </g>
    </g>
   </g>
   <g id="matplotlib.axis_2">
    <g id="ytick_1">
     <g id="line2d_7">
      <defs>
       <path id="m965c9f22e3" d="M 0 0 
L -3.5 0 
" style="stroke: #000000; stroke-width: 0.8"/>
      </defs>
      <g>
       <use xlink:href="#m965c9f22e3" x="42.190938" y="216.367627" style="stroke: #000000; stroke-width: 0.8"/>
      </g>
     </g>
     <g id="text_8">
      <!-- 0.0 -->
      <g transform="translate(20.878125 219.786924) scale(0.09 -0.09)">
       <use xlink:href="#DejaVuSans-30"/>
       <use xlink:href="#DejaVuSans-2e" transform="translate(63.623047 0)"/>
       <use xlink:href="#DejaVuSans-30" transform="translate(95.410156 0)"/>
      </g>
     </g>
    </g>
    <g id="ytick_2">
     <g id="line2d_8">
      <g>
       <use xlink:href="#m965c9f22e3" x="42.190938" y="179.261085" style="stroke: #000000; stroke-width: 0.8"/>
      </g>
     </g>
     <g id="text_9">
      <!-- 0.2 -->
      <g transform="translate(20.878125 182.680382) scale(0.09 -0.09)">
       <use xlink:href="#DejaVuSans-30"/>
       <use xlink:href="#DejaVuSans-2e" transform="translate(63.623047 0)"/>
       <use xlink:href="#DejaVuSans-32" transform="translate(95.410156 0)"/>
      </g>
     </g>
    </g>
    <g id="ytick_3">
     <g id="line2d_9">
      <g>
       <use xlink:href="#m965c9f22e3" x="42.190938" y="142.154543" style="stroke: #000000; stroke-width: 0.8"/>
      </g>
     </g>
     <g id="text_10">
      <!-- 0.4 -->
      <g transform="translate(20.878125 145.57384) scale(0.09 -0.09)">
       <use xlink:href="#DejaVuSans-30"/>
       <use xlink:href="#DejaVuSans-2e" transform="translate(63.623047 0)"/>
       <use xlink:href="#DejaVuSans-34" transform="translate(95.410156 0)"/>
      </g>
     </g>
    </g>
    <g id="ytick_4">
     <g id="line2d_10">
      <g>
       <use xlink:href="#m965c9f22e3" x="42.190938" y="105.048001" style="stroke: #000000; stroke-width: 0.8"/>
      </g>
     </g>
     <g id="text_11">
      <!-- 0.6 -->
      <g transform="translate(20.878125 108.467298) scale(0.09 -0.09)">
       <use xlink:href="#DejaVuSans-30"/>
       <use xlink:href="#DejaVuSans-2e" transform="translate(63.623047 0)"/>
       <use xlink:href="#DejaVuSans-36" transform="translate(95.410156 0)"/>
      </g>
     </g>
    </g>
    <g id="ytick_5">
     <g id="line2d_11">
      <g>
       <use xlink:href="#m965c9f22e3" x="42.190938" y="67.941459" style="stroke: #000000; stroke-width: 0.8"/>
      </g>
     </g>
     <g id="text_12">
      <!-- 0.8 -->
      <g transform="translate(20.878125 71.360756) scale(0.09 -0.09)">
       <use xlink:href="#DejaVuSans-30"/>
       <use xlink:href="#DejaVuSans-2e" transform="translate(63.623047 0)"/>
       <use xlink:href="#DejaVuSans-38" transform="translate(95.410156 0)"/>
      </g>
     </g>
    </g>
    <g id="ytick_6">
     <g id="line2d_12">
      <g>
       <use xlink:href="#m965c9f22e3" x="42.190938" y="30.834917" style="stroke: #000000; stroke-width: 0.8"/>
      </g>
     </g>
     <g id="text_13">
      <!-- 1.0 -->
      <g transform="translate(20.878125 34.254214) scale(0.09 -0.09)">
       <use xlink:href="#DejaVuSans-31"/>
       <use xlink:href="#DejaVuSans-2e" transform="translate(63.623047 0)"/>
       <use xlink:href="#DejaVuSans-30" transform="translate(95.410156 0)"/>
      </g>
     </g>
    </g>
    <g id="text_14">
     <!-- True Positive Rate -->
     <g transform="translate(14.798438 165.347969) rotate(-90) scale(0.1 -0.1)">
      <defs>
       <path id="DejaVuSans-54" d="M -19 4666 
L 3928 4666 
L 3928 4134 
L 2272 4134 
L 2272 0 
L 1638 0 
L 1638 4134 
L -19 4134 
L -19 4666 
z
" transform="scale(0.015625)"/>
       <path id="DejaVuSans-72" d="M 2631 2963 
Q 2534 3019 2420 3045 
Q 2306 3072 2169 3072 
Q 1681 3072 1420 2755 
Q 1159 2438 1159 1844 
L 1159 0 
L 581 0 
L 581 3500 
L 1159 3500 
L 1159 2956 
Q 1341 3275 1631 3429 
Q 1922 3584 2338 3584 
Q 2397 3584 2469 3576 
Q 2541 3569 2628 3553 
L 2631 2963 
z
" transform="scale(0.015625)"/>
       <path id="DejaVuSans-75" d="M 544 1381 
L 544 3500 
L 1119 3500 
L 1119 1403 
Q 1119 906 1312 657 
Q 1506 409 1894 409 
Q 2359 409 2629 706 
Q 2900 1003 2900 1516 
L 2900 3500 
L 3475 3500 
L 3475 0 
L 2900 0 
L 2900 538 
Q 2691 219 2414 64 
Q 2138 -91 1772 -91 
Q 1169 -91 856 284 
Q 544 659 544 1381 
z
M 1991 3584 
L 1991 3584 
z
" transform="scale(0.015625)"/>
      </defs>
      <use xlink:href="#DejaVuSans-54"/>
      <use xlink:href="#DejaVuSans-72" transform="translate(46.333984 0)"/>
      <use xlink:href="#DejaVuSans-75" transform="translate(87.447266 0)"/>
      <use xlink:href="#DejaVuSans-65" transform="translate(150.826172 0)"/>
      <use xlink:href="#DejaVuSans-20" transform="translate(212.349609 0)"/>
      <use xlink:href="#DejaVuSans-50" transform="translate(244.136719 0)"/>
      <use xlink:href="#DejaVuSans-6f" transform="translate(300.814453 0)"/>
      <use xlink:href="#DejaVuSans-73" transform="translate(361.996094 0)"/>
      <use xlink:href="#DejaVuSans-69" transform="translate(414.095703 0)"/>
      <use xlink:href="#DejaVuSans-74" transform="translate(441.878906 0)"/>
      <use xlink:href="#DejaVuSans-69" transform="translate(481.087891 0)"/>
      <use xlink:href="#DejaVuSans-76" transform="translate(508.871094 0)"/>
      <use xlink:href="#DejaVuSans-65" transform="translate(568.050781 0)"/>
      <use xlink:href="#DejaVuSans-20" transform="translate(629.574219 0)"/>
      <use xlink:href="#DejaVuSans-52" transform="translate(661.361328 0)"/>
      <use xlink:href="#DejaVuSans-61" transform="translate(728.59375 0)"/>
      <use xlink:href="#DejaVuSans-74" transform="translate(789.873047 0)"/>
      <use xlink:href="#DejaVuSans-65" transform="translate(829.082031 0)"/>
     </g>
    </g>
   </g>
   <g id="line2d_13">
    <path d="M 46.902687 216.367627 
L 46.902687 214.821521 
L 46.902687 188.537721 
L 48.211506 188.537721 
L 48.211506 185.445509 
L 49.520326 185.445509 
L 49.520326 174.622767 
L 50.829145 174.622767 
L 50.829145 168.438344 
L 52.137964 168.438344 
L 52.137964 157.615602 
L 53.446784 157.615602 
L 53.446784 152.977284 
L 54.755603 152.977284 
L 54.755603 146.792861 
L 56.064422 146.792861 
L 56.064422 143.700649 
L 57.373242 143.700649 
L 57.373242 137.516225 
L 59.99088 137.516225 
L 59.99088 135.970119 
L 61.2997 135.970119 
L 61.2997 132.877907 
L 62.608519 132.877907 
L 62.608519 129.785696 
L 63.917338 129.785696 
L 63.917338 128.23959 
L 65.226158 128.23959 
L 65.226158 123.601272 
L 66.534977 123.601272 
L 66.534977 115.870742 
L 67.843796 115.870742 
L 67.843796 106.594107 
L 70.461435 106.594107 
L 70.461435 105.048001 
L 73.079074 105.048001 
L 73.079074 100.409683 
L 75.696712 100.409683 
L 75.696712 95.771365 
L 77.005532 95.771365 
L 77.005532 92.679154 
L 78.314351 92.679154 
L 78.314351 89.586942 
L 82.240809 89.586942 
L 82.240809 88.040836 
L 84.858448 88.040836 
L 84.858448 86.49473 
L 87.476086 86.49473 
L 87.476086 81.856412 
L 90.093725 81.856412 
L 90.093725 75.671988 
L 99.25546 75.671988 
L 99.25546 72.579777 
L 100.56428 72.579777 
L 100.56428 69.487565 
L 103.181918 69.487565 
L 103.181918 67.941459 
L 105.799557 67.941459 
L 105.799557 64.849247 
L 107.108376 64.849247 
L 107.108376 63.303141 
L 109.726015 63.303141 
L 109.726015 61.757035 
L 111.034834 61.757035 
L 111.034834 60.210929 
L 114.961292 60.210929 
L 114.961292 58.664823 
L 121.505389 58.664823 
L 121.505389 57.118717 
L 122.814208 57.118717 
L 122.814208 55.572611 
L 125.431847 55.572611 
L 125.431847 52.4804 
L 126.740666 52.4804 
L 128.049486 50.934294 
L 128.049486 49.388188 
L 130.667124 49.388188 
L 130.667124 46.295976 
L 134.593582 46.295976 
L 134.593582 44.74987 
L 135.902402 44.74987 
L 135.902402 43.203764 
L 137.211221 43.203764 
L 137.211221 41.657658 
L 142.446498 41.657658 
L 142.446498 40.111552 
L 176.475801 40.111552 
L 176.475801 38.565446 
L 181.711078 38.565446 
L 181.711078 35.473235 
L 201.343368 35.473235 
L 201.343368 33.927129 
L 218.35802 33.927129 
L 218.35802 32.381023 
L 236.68149 32.381023 
L 236.68149 30.834917 
L 282.490167 30.834917 
" clip-path="url(#p5c7172cbfe)" style="fill: none; stroke-dasharray: 5.92,2.56; stroke-dashoffset: 0; stroke: #888888; stroke-width: 1.6"/>
   </g>
   <g id="line2d_14">
    <path d="M 46.902687 216.367627 
L 46.902687 214.821521 
L 46.902687 160.707814 
L 48.211506 160.707814 
L 48.211506 146.792861 
L 49.520326 146.792861 
L 49.520326 142.154543 
L 50.829145 142.154543 
L 50.829145 131.331801 
L 52.137964 131.331801 
L 52.137964 128.23959 
L 53.446784 128.23959 
L 53.446784 122.055166 
L 57.373242 122.055166 
L 57.373242 114.324636 
L 59.99088 114.324636 
L 59.99088 101.955789 
L 61.2997 101.955789 
L 61.2997 100.409683 
L 62.608519 100.409683 
L 62.608519 97.317471 
L 63.917338 97.317471 
L 63.917338 95.771365 
L 66.534977 95.771365 
L 66.534977 91.133048 
L 69.152616 91.133048 
L 69.152616 88.040836 
L 70.461435 88.040836 
L 70.461435 83.402518 
L 71.770254 83.402518 
L 71.770254 77.218094 
L 74.387893 77.218094 
L 74.387893 69.487565 
L 75.696712 69.487565 
L 75.696712 67.941459 
L 82.240809 67.941459 
L 82.240809 66.395353 
L 86.167267 66.395353 
L 86.167267 64.849247 
L 90.093725 64.849247 
L 90.093725 61.757035 
L 91.402544 61.757035 
L 91.402544 58.664823 
L 95.329002 58.664823 
L 95.329002 57.118717 
L 99.25546 57.118717 
L 99.25546 55.572611 
L 104.490738 55.572611 
L 104.490738 54.026506 
L 111.034834 54.026506 
L 111.034834 52.4804 
L 113.652473 52.4804 
L 113.652473 50.934294 
L 114.961292 50.934294 
L 114.961292 49.388188 
L 135.902402 49.388188 
L 135.902402 47.842082 
L 138.52004 47.842082 
L 138.52004 46.295976 
L 142.446498 46.295976 
L 142.446498 44.74987 
L 154.225872 44.74987 
L 154.225872 43.203764 
L 155.534692 43.203764 
L 155.534692 41.657658 
L 156.843511 41.657658 
L 156.843511 40.111552 
L 158.15233 40.111552 
L 158.15233 38.565446 
L 190.872814 38.565446 
L 190.872814 37.01934 
L 192.181633 37.01934 
L 192.181633 35.473235 
L 205.269826 35.473235 
L 205.269826 33.927129 
L 215.740381 33.927129 
L 215.740381 32.381023 
L 218.35802 32.381023 
L 218.35802 30.834917 
L 261.549058 30.834917 
L 264.166696 30.834917 
L 282.490167 30.834917 
" clip-path="url(#p5c7172cbfe)" style="fill: none; stroke: #4477aa; stroke-width: 1.6; stroke-linecap: square"/>
   </g>
   <g id="line2d_15">
    <path d="M 46.902687 216.367627 
L 46.902687 214.821521 
L 46.902687 118.962954 
L 48.211506 118.962954 
L 48.211506 109.686319 
L 49.520326 109.686319 
L 49.520326 100.409683 
L 50.829145 98.863577 
L 50.829145 88.040836 
L 52.137964 88.040836 
L 52.137964 78.7642 
L 54.755603 78.7642 
L 54.755603 66.395353 
L 56.064422 66.395353 
L 56.064422 63.303141 
L 58.682061 63.303141 
L 58.682061 58.664823 
L 61.2997 58.664823 
L 61.2997 57.118717 
L 62.608519 57.118717 
L 62.608519 54.026506 
L 65.226158 54.026506 
L 65.226158 50.934294 
L 67.843796 50.934294 
L 67.843796 49.388188 
L 70.461435 49.388188 
L 70.461435 46.295976 
L 80.93199 46.295976 
L 80.93199 44.74987 
L 83.549628 44.74987 
L 83.549628 43.203764 
L 92.711364 43.203764 
L 92.711364 41.657658 
L 104.490738 41.657658 
L 104.490738 40.111552 
L 109.726015 40.111552 
L 109.726015 38.565446 
L 126.740666 38.565446 
L 126.740666 37.01934 
L 142.446498 37.01934 
L 142.446498 35.473235 
L 145.064137 35.473235 
L 145.064137 33.927129 
L 162.078788 33.927129 
L 162.078788 32.381023 
L 175.166982 32.381023 
L 175.166982 30.834917 
L 282.490167 30.834917 
" clip-path="url(#p5c7172cbfe)" style="fill: none; stroke: #ee6677; stroke-width: 1.6; stroke-linecap: square"/>
   </g>
   <g id="line2d_16">
    <path d="M 46.902687 216.367627 
L 46.902687 214.821521 
L 46.902687 88.040836 
L 48.211506 88.040836 
L 48.211506 57.118717 
L 52.137964 57.118717 
L 52.137964 54.026506 
L 53.446784 54.026506 
L 53.446784 52.4804 
L 56.064422 52.4804 
L 56.064422 47.842082 
L 57.373242 47.842082 
L 57.373242 41.657658 
L 65.226158 41.657658 
L 65.226158 40.111552 
L 66.534977 40.111552 
L 66.534977 38.565446 
L 69.152616 38.565446 
L 69.152616 37.01934 
L 77.005532 37.01934 
L 77.005532 35.473235 
L 78.314351 35.473235 
L 78.314351 33.927129 
L 83.549628 33.927129 
L 83.549628 32.381023 
L 90.093725 32.381023 
L 90.093725 30.834917 
L 101.873099 30.834917 
L 104.490738 30.834917 
L 282.490167 30.834917 
" clip-path="url(#p5c7172cbfe)" style="fill: none; stroke: #228833; stroke-width: 1.6; stroke-linecap: square"/>
   </g>
   <g id="line2d_17">
    <path d="M 46.902687 216.367627 
L 282.490167 30.834917 
" clip-path="url(#p5c7172cbfe)" style="fill: none; stroke-dasharray: 0.8,1.32; stroke-dashoffset: 0; stroke: #000000; stroke-width: 0.8"/>
   </g>
   <g id="patch_3">
    <path d="M 42.190938 220.078281 
L 42.190938 21.558281 
" style="fill: none; stroke: #000000; stroke-width: 0.8; stroke-linejoin: miter; stroke-linecap: square"/>
   </g>
   <g id="patch_4">
    <path d="M 42.190938 220.078281 
L 287.201917 220.078281 
" style="fill: none; stroke: #000000; stroke-width: 0.8; stroke-linejoin: miter; stroke-linecap: square"/>
   </g>
   <g id="text_15">
    <!-- ROC Curve -->
    <g transform="translate(131.854552 15.558281) scale(0.11 -0.11)">
     <defs>
      <path id="DejaVuSans-Bold-52" d="M 2297 2597 
Q 2675 2597 2839 2737 
Q 3003 2878 3003 3200 
Q 3003 3519 2839 3656 
Q 2675 3794 2297 3794 
L 1791 3794 
L 1791 2597 
L 2297 2597 
z
M 1791 1766 
L 1791 0 
L 588 0 
L 588 4666 
L 2425 4666 
Q 3347 4666 3776 4356 
Q 4206 4047 4206 3378 
Q 4206 2916 3982 2619 
Q 3759 2322 3309 2181 
Q 3556 2125 3751 1926 
Q 3947 1728 4147 1325 
L 4800 0 
L 3519 0 
L 2950 1159 
Q 2778 1509 2601 1637 
Q 2425 1766 2131 1766 
L 1791 1766 
z
" transform="scale(0.015625)"/>
      <path id="DejaVuSans-Bold-4f" d="M 2719 3878 
Q 2169 3878 1866 3472 
Q 1563 3066 1563 2328 
Q 1563 1594 1866 1187 
Q 2169 781 2719 781 
Q 3272 781 3575 1187 
Q 3878 1594 3878 2328 
Q 3878 3066 3575 3472 
Q 3272 3878 2719 3878 
z
M 2719 4750 
Q 3844 4750 4481 4106 
Q 5119 3463 5119 2328 
Q 5119 1197 4481 553 
Q 3844 -91 2719 -91 
Q 1597 -91 958 553 
Q 319 1197 319 2328 
Q 319 3463 958 4106 
Q 1597 4750 2719 4750 
z
" transform="scale(0.015625)"/>
      <path id="DejaVuSans-Bold-43" d="M 4288 256 
Q 3956 84 3597 -3 
Q 3238 -91 2847 -91 
Q 1681 -91 1000 561 
Q 319 1213 319 2328 
Q 319 3447 1000 4098 
Q 1681 4750 2847 4750 
Q 3238 4750 3597 4662 
Q 3956 4575 4288 4403 
L 4288 3438 
Q 3953 3666 3628 3772 
Q 3303 3878 2944 3878 
Q 2300 3878 1931 3465 
Q 1563 3053 1563 2328 
Q 1563 1606 1931 1193 
Q 2300 781 2944 781 
Q 3303 781 3628 887 
Q 3953 994 4288 1222 
L 4288 256 
z
" transform="scale(0.015625)"/>
      <path id="DejaVuSans-Bold-20" transform="scale(0.015625)"/>
      <path id="DejaVuSans-Bold-75" d="M 500 1363 
L 500 3500 
L 1625 3500 
L 1625 3150 
Q 1625 2866 1622 2436 
Q 1619 2006 1619 1863 
Q 1619 1441 1641 1255 
Q 1663 1069 1716 984 
Q 1784 875 1895 815 
Q 2006 756 2150 756 
Q 2500 756 2700 1025 
Q 2900 1294 2900 1772 
L 2900 3500 
L 4019 3500 
L 4019 0 
L 2900 0 
L 2900 506 
Q 2647 200 2364 54 
Q 2081 -91 1741 -91 
Q 1134 -91 817 281 
Q 500 653 500 1363 
z
" transform="scale(0.015625)"/>
      <path id="DejaVuSans-Bold-72" d="M 3138 2547 
Q 2991 2616 2845 2648 
Q 2700 2681 2553 2681 
Q 2122 2681 1889 2404 
Q 1656 2128 1656 1613 
L 1656 0 
L 538 0 
L 538 3500 
L 1656 3500 
L 1656 2925 
Q 1872 3269 2151 3426 
Q 2431 3584 2822 3584 
Q 2878 3584 2943 3579 
Q 3009 3575 3134 3559 
L 3138 2547 
z
" transform="scale(0.015625)"/>
      <path id="DejaVuSans-Bold-76" d="M 97 3500 
L 1216 3500 
L 2088 1081 
L 2956 3500 
L 4078 3500 
L 2700 0 
L 1472 0 
L 97 3500 
z
" transform="scale(0.015625)"/>
      <path id="DejaVuSans-Bold-65" d="M 4031 1759 
L 4031 1441 
L 1416 1441 
Q 1456 1047 1700 850 
Q 1944 653 2381 653 
Q 2734 653 3104 758 
Q 3475 863 3866 1075 
L 3866 213 
Q 3469 63 3072 -14 
Q 2675 -91 2278 -91 
Q 1328 -91 801 392 
Q 275 875 275 1747 
Q 275 2603 792 3093 
Q 1309 3584 2216 3584 
Q 3041 3584 3536 3087 
Q 4031 2591 4031 1759 
z
M 2881 2131 
Q 2881 2450 2695 2645 
Q 2509 2841 2209 2841 
Q 1884 2841 1681 2658 
Q 1478 2475 1428 2131 
L 2881 2131 
z
" transform="scale(0.015625)"/>
     </defs>
     <use xlink:href="#DejaVuSans-Bold-52"/>
     <use xlink:href="#DejaVuSans-Bold-4f" transform="translate(77.001953 0)"/>
     <use xlink:href="#DejaVuSans-Bold-43" transform="translate(162.011719 0)"/>
     <use xlink:href="#DejaVuSans-Bold-20" transform="translate(235.400391 0)"/>
     <use xlink:href="#DejaVuSans-Bold-43" transform="translate(270.214844 0)"/>
     <use xlink:href="#DejaVuSans-Bold-75" transform="translate(343.603516 0)"/>
     <use xlink:href="#DejaVuSans-Bold-72" transform="translate(414.794922 0)"/>
     <use xlink:href="#DejaVuSans-Bold-76" transform="translate(464.111328 0)"/>
     <use xlink:href="#DejaVuSans-Bold-65" transform="translate(529.296875 0)"/>
    </g>
   </g>
   <g id="legend_1">
    <g id="patch_5">
     <path d="M 154.821057 216.328281 
L 281.951917 216.328281 
Q 283.451917 216.328281 283.451917 214.828281 
L 283.451917 160.535312 
Q 283.451917 159.035312 281.951917 159.035312 
L 154.821057 159.035312 
Q 153.321057 159.035312 153.321057 160.535312 
L 153.321057 214.828281 
Q 153.321057 216.328281 154.821057 216.328281 
z
" style="fill: #ffffff; opacity: 0.85; stroke: #cccccc; stroke-linejoin: miter"/>
    </g>
    <g id="line2d_18">
     <path d="M 156.321057 165.109141 
L 163.821057 165.109141 
L 171.321057 165.109141 
" style="fill: none; stroke-dasharray: 5.92,2.56; stroke-dashoffset: 0; stroke: #888888; stroke-width: 1.6"/>
    </g>
    <g id="text_16">
     <!-- Baseline (AUROC=0.866) -->
     <g transform="translate(177.321057 167.734141) scale(0.075 -0.075)">
      <defs>
       <path id="DejaVuSans-42" d="M 1259 2228 
L 1259 519 
L 2272 519 
Q 2781 519 3026 730 
Q 3272 941 3272 1375 
Q 3272 1813 3026 2020 
Q 2781 2228 2272 2228 
L 1259 2228 
z
M 1259 4147 
L 1259 2741 
L 2194 2741 
Q 2656 2741 2882 2914 
Q 3109 3088 3109 3444 
Q 3109 3797 2882 3972 
Q 2656 4147 2194 4147 
L 1259 4147 
z
M 628 4666 
L 2241 4666 
Q 2963 4666 3353 4366 
Q 3744 4066 3744 3513 
Q 3744 3084 3544 2831 
Q 3344 2578 2956 2516 
Q 3422 2416 3680 2098 
Q 3938 1781 3938 1306 
Q 3938 681 3513 340 
Q 3088 0 2303 0 
L 628 0 
L 628 4666 
z
" transform="scale(0.015625)"/>
       <path id="DejaVuSans-6e" d="M 3513 2113 
L 3513 0 
L 2938 0 
L 2938 2094 
Q 2938 2591 2744 2837 
Q 2550 3084 2163 3084 
Q 1697 3084 1428 2787 
Q 1159 2491 1159 1978 
L 1159 0 
L 581 0 
L 581 3500 
L 1159 3500 
L 1159 2956 
Q 1366 3272 1645 3428 
Q 1925 3584 2291 3584 
Q 2894 3584 3203 3211 
Q 3513 2838 3513 2113 
z
" transform="scale(0.015625)"/>
       <path id="DejaVuSans-28" d="M 1984 4856 
Q 1566 4138 1362 3434 
Q 1159 2731 1159 2009 
Q 1159 1288 1364 580 
Q 1569 -128 1984 -844 
L 1484 -844 
Q 1016 -109 783 600 
Q 550 1309 550 2009 
Q 550 2706 781 3412 
Q 1013 4119 1484 4856 
L 1984 4856 
z
" transform="scale(0.015625)"/>
       <path id="DejaVuSans-41" d="M 2188 4044 
L 1331 1722 
L 3047 1722 
L 2188 4044 
z
M 1831 4666 
L 2547 4666 
L 4325 0 
L 3669 0 
L 3244 1197 
L 1141 1197 
L 716 0 
L 50 0 
L 1831 4666 
z
" transform="scale(0.015625)"/>
       <path id="DejaVuSans-55" d="M 556 4666 
L 1191 4666 
L 1191 1831 
Q 1191 1081 1462 751 
Q 1734 422 2344 422 
Q 2950 422 3222 751 
Q 3494 1081 3494 1831 
L 3494 4666 
L 4128 4666 
L 4128 1753 
Q 4128 841 3676 375 
Q 3225 -91 2344 -91 
Q 1459 -91 1007 375 
Q 556 841 556 1753 
L 556 4666 
z
" transform="scale(0.015625)"/>
       <path id="DejaVuSans-4f" d="M 2522 4238 
Q 1834 4238 1429 3725 
Q 1025 3213 1025 2328 
Q 1025 1447 1429 934 
Q 1834 422 2522 422 
Q 3209 422 3611 934 
Q 4013 1447 4013 2328 
Q 4013 3213 3611 3725 
Q 3209 4238 2522 4238 
z
M 2522 4750 
Q 3503 4750 4090 4092 
Q 4678 3434 4678 2328 
Q 4678 1225 4090 567 
Q 3503 -91 2522 -91 
Q 1538 -91 948 565 
Q 359 1222 359 2328 
Q 359 3434 948 4092 
Q 1538 4750 2522 4750 
z
" transform="scale(0.015625)"/>
       <path id="DejaVuSans-43" d="M 4122 4306 
L 4122 3641 
Q 3803 3938 3442 4084 
Q 3081 4231 2675 4231 
Q 1875 4231 1450 3742 
Q 1025 3253 1025 2328 
Q 1025 1406 1450 917 
Q 1875 428 2675 428 
Q 3081 428 3442 575 
Q 3803 722 4122 1019 
L 4122 359 
Q 3791 134 3420 21 
Q 3050 -91 2638 -91 
Q 1578 -91 968 557 
Q 359 1206 359 2328 
Q 359 3453 968 4101 
Q 1578 4750 2638 4750 
Q 3056 4750 3426 4639 
Q 3797 4528 4122 4306 
z
" transform="scale(0.015625)"/>
       <path id="DejaVuSans-3d" d="M 678 2906 
L 4684 2906 
L 4684 2381 
L 678 2381 
L 678 2906 
z
M 678 1631 
L 4684 1631 
L 4684 1100 
L 678 1100 
L 678 1631 
z
" transform="scale(0.015625)"/>
       <path id="DejaVuSans-29" d="M 513 4856 
L 1013 4856 
Q 1481 4119 1714 3412 
Q 1947 2706 1947 2009 
Q 1947 1309 1714 600 
Q 1481 -109 1013 -844 
L 513 -844 
Q 928 -128 1133 580 
Q 1338 1288 1338 2009 
Q 1338 2731 1133 3434 
Q 928 4138 513 4856 
z
" transform="scale(0.015625)"/>
      </defs>
      <use xlink:href="#DejaVuSans-42"/>
      <use xlink:href="#DejaVuSans-61" transform="translate(68.603516 0)"/>
      <use xlink:href="#DejaVuSans-73" transform="translate(129.882812 0)"/>
      <use xlink:href="#DejaVuSans-65" transform="translate(181.982422 0)"/>
      <use xlink:href="#DejaVuSans-6c" transform="translate(243.505859 0)"/>
      <use xlink:href="#DejaVuSans-69" transform="translate(271.289062 0)"/>
      <use xlink:href="#DejaVuSans-6e" transform="translate(299.072266 0)"/>
      <use xlink:href="#DejaVuSans-65" transform="translate(362.451172 0)"/>
      <use xlink:href="#DejaVuSans-20" transform="translate(423.974609 0)"/>
      <use xlink:href="#DejaVuSans-28" transform="translate(455.761719 0)"/>
      <use xlink:href="#DejaVuSans-41" transform="translate(494.775391 0)"/>
      <use xlink:href="#DejaVuSans-55" transform="translate(563.183594 0)"/>
      <use xlink:href="#DejaVuSans-52" transform="translate(636.376953 0)"/>
      <use xlink:href="#DejaVuSans-4f" transform="translate(705.859375 0)"/>
      <use xlink:href="#DejaVuSans-43" transform="translate(784.570312 0)"/>
      <use xlink:href="#DejaVuSans-3d" transform="translate(854.394531 0)"/>
      <use xlink:href="#DejaVuSans-30" transform="translate(938.183594 0)"/>
      <use xlink:href="#DejaVuSans-2e" transform="translate(1001.806641 0)"/>
      <use xlink:href="#DejaVuSans-38" transform="translate(1033.59375 0)"/>
      <use xlink:href="#DejaVuSans-36" transform="translate(1097.216797 0)"/>
      <use xlink:href="#DejaVuSans-36" transform="translate(1160.839844 0)"/>
      <use xlink:href="#DejaVuSans-29" transform="translate(1224.462891 0)"/>
     </g>
    </g>
    <g id="line2d_19">
     <path d="M 156.321057 176.117734 
L 163.821057 176.117734 
L 171.321057 176.117734 
" style="fill: none; stroke: #4477aa; stroke-width: 1.6; stroke-linecap: square"/>
    </g>
    <g id="text_17">
     <!-- Method-A (AUROC=0.899) -->
     <g transform="translate(177.321057 178.742734) scale(0.075 -0.075)">
      <defs>
       <path id="DejaVuSans-4d" d="M 628 4666 
L 1569 4666 
L 2759 1491 
L 3956 4666 
L 4897 4666 
L 4897 0 
L 4281 0 
L 4281 4097 
L 3078 897 
L 2444 897 
L 1241 4097 
L 1241 0 
L 628 0 
L 628 4666 
z
" transform="scale(0.015625)"/>
       <path id="DejaVuSans-68" d="M 3513 2113 
L 3513 0 
L 2938 0 
L 2938 2094 
Q 2938 2591 2744 2837 
Q 2550 3084 2163 3084 
Q 1697 3084 1428 2787 
Q 1159 2491 1159 1978 
L 1159 0 
L 581 0 
L 581 4863 
L 1159 4863 
L 1159 2956 
Q 1366 3272 1645 3428 
Q 1925 3584 2291 3584 
Q 2894 3584 3203 3211 
Q 3513 2838 3513 2113 
z
" transform="scale(0.015625)"/>
       <path id="DejaVuSans-64" d="M 2906 2969 
L 2906 4863 
L 3481 4863 
L 3481 0 
L 2906 0 
L 2906 525 
Q 2725 213 2448 61 
Q 2172 -91 1784 -91 
Q 1150 -91 751 415 
Q 353 922 353 1747 
Q 353 2572 751 3078 
Q 1150 3584 1784 3584 
Q 2172 3584 2448 3432 
Q 2725 3281 2906 2969 
z
M 947 1747 
Q 947 1113 1208 752 
Q 1469 391 1925 391 
Q 2381 391 2643 752 
Q 2906 1113 2906 1747 
Q 2906 2381 2643 2742 
Q 2381 3103 1925 3103 
Q 1469 3103 1208 2742 
Q 947 2381 947 1747 
z
" transform="scale(0.015625)"/>
       <path id="DejaVuSans-2d" d="M 313 2009 
L 1997 2009 
L 1997 1497 
L 313 1497 
L 313 2009 
z
" transform="scale(0.015625)"/>
       <path id="DejaVuSans-39" d="M 703 97 
L 703 672 
Q 941 559 1184 500 
Q 1428 441 1663 441 
Q 2288 441 2617 861 
Q 2947 1281 2994 2138 
Q 2813 1869 2534 1725 
Q 2256 1581 1919 1581 
Q 1219 1581 811 2004 
Q 403 2428 403 3163 
Q 403 3881 828 4315 
Q 1253 4750 1959 4750 
Q 2769 4750 3195 4129 
Q 3622 3509 3622 2328 
Q 3622 1225 3098 567 
Q 2575 -91 1691 -91 
Q 1453 -91 1209 -44 
Q 966 3 703 97 
z
M 1959 2075 
Q 2384 2075 2632 2365 
Q 2881 2656 2881 3163 
Q 2881 3666 2632 3958 
Q 2384 4250 1959 4250 
Q 1534 4250 1286 3958 
Q 1038 3666 1038 3163 
Q 1038 2656 1286 2365 
Q 1534 2075 1959 2075 
z
" transform="scale(0.015625)"/>
      </defs>
      <use xlink:href="#DejaVuSans-4d"/>
      <use xlink:href="#DejaVuSans-65" transform="translate(86.279297 0)"/>
      <use xlink:href="#DejaVuSans-74" transform="translate(147.802734 0)"/>
      <use xlink:href="#DejaVuSans-68" transform="translate(187.011719 0)"/>
      <use xlink:href="#DejaVuSans-6f" transform="translate(250.390625 0)"/>
      <use xlink:href="#DejaVuSans-64" transform="translate(311.572266 0)"/>
      <use xlink:href="#DejaVuSans-2d" transform="translate(375.048828 0)"/>
      <use xlink:href="#DejaVuSans-41" transform="translate(408.882812 0)"/>
      <use xlink:href="#DejaVuSans-20" transform="translate(477.291016 0)"/>
      <use xlink:href="#DejaVuSans-28" transform="translate(509.078125 0)"/>
      <use xlink:href="#DejaVuSans-41" transform="translate(548.091797 0)"/>
      <use xlink:href="#DejaVuSans-55" transform="translate(616.5 0)"/>
      <use xlink:href="#DejaVuSans-52" transform="translate(689.693359 0)"/>
      <use xlink:href="#DejaVuSans-4f" transform="translate(759.175781 0)"/>
      <use xlink:href="#DejaVuSans-43" transform="translate(837.886719 0)"/>
      <use xlink:href="#DejaVuSans-3d" transform="translate(907.710938 0)"/>
      <use xlink:href="#DejaVuSans-30" transform="translate(991.5 0)"/>
      <use xlink:href="#DejaVuSans-2e" transform="translate(1055.123047 0)"/>
      <use xlink:href="#DejaVuSans-38" transform="translate(1086.910156 0)"/>
      <use xlink:href="#DejaVuSans-39" transform="translate(1150.533203 0)"/>
      <use xlink:href="#DejaVuSans-39" transform="translate(1214.15625 0)"/>
      <use xlink:href="#DejaVuSans-29" transform="translate(1277.779297 0)"/>
     </g>
    </g>
    <g id="line2d_20">
     <path d="M 156.321057 187.126328 
L 163.821057 187.126328 
L 171.321057 187.126328 
" style="fill: none; stroke: #ee6677; stroke-width: 1.6; stroke-linecap: square"/>
    </g>
    <g id="text_18">
     <!-- Method-B (AUROC=0.961) -->
     <g transform="translate(177.321057 189.751328) scale(0.075 -0.075)">
      <use xlink:href="#DejaVuSans-4d"/>
      <use xlink:href="#DejaVuSans-65" transform="translate(86.279297 0)"/>
      <use xlink:href="#DejaVuSans-74" transform="translate(147.802734 0)"/>
      <use xlink:href="#DejaVuSans-68" transform="translate(187.011719 0)"/>
      <use xlink:href="#DejaVuSans-6f" transform="translate(250.390625 0)"/>
      <use xlink:href="#DejaVuSans-64" transform="translate(311.572266 0)"/>
      <use xlink:href="#DejaVuSans-2d" transform="translate(375.048828 0)"/>
      <use xlink:href="#DejaVuSans-42" transform="translate(407.507812 0)"/>
      <use xlink:href="#DejaVuSans-20" transform="translate(476.111328 0)"/>
      <use xlink:href="#DejaVuSans-28" transform="translate(507.898438 0)"/>
      <use xlink:href="#DejaVuSans-41" transform="translate(546.912109 0)"/>
      <use xlink:href="#DejaVuSans-55" transform="translate(615.320312 0)"/>
      <use xlink:href="#DejaVuSans-52" transform="translate(688.513672 0)"/>
      <use xlink:href="#DejaVuSans-4f" transform="translate(757.996094 0)"/>
      <use xlink:href="#DejaVuSans-43" transform="translate(836.707031 0)"/>
      <use xlink:href="#DejaVuSans-3d" transform="translate(906.53125 0)"/>
      <use xlink:href="#DejaVuSans-30" transform="translate(990.320312 0)"/>
      <use xlink:href="#DejaVuSans-2e" transform="translate(1053.943359 0)"/>
      <use xlink:href="#DejaVuSans-39" transform="translate(1085.730469 0)"/>
      <use xlink:href="#DejaVuSans-36" transform="translate(1149.353516 0)"/>
      <use xlink:href="#DejaVuSans-31" transform="translate(1212.976562 0)"/>
      <use xlink:href="#DejaVuSans-29" transform="translate(1276.599609 0)"/>
     </g>
    </g>
    <g id="line2d_21">
     <path d="M 156.321057 198.134922 
L 163.821057 198.134922 
L 171.321057 198.134922 
" style="fill: none; stroke: #228833; stroke-width: 1.6; stroke-linecap: square"/>
    </g>
    <g id="text_19">
     <!-- OursModel (AUROC=0.989) -->
     <g transform="translate(177.321057 200.759922) scale(0.075 -0.075)">
      <use xlink:href="#DejaVuSans-4f"/>
      <use xlink:href="#DejaVuSans-75" transform="translate(78.710938 0)"/>
      <use xlink:href="#DejaVuSans-72" transform="translate(142.089844 0)"/>
      <use xlink:href="#DejaVuSans-73" transform="translate(183.203125 0)"/>
      <use xlink:href="#DejaVuSans-4d" transform="translate(235.302734 0)"/>
      <use xlink:href="#DejaVuSans-6f" transform="translate(321.582031 0)"/>
      <use xlink:href="#DejaVuSans-64" transform="translate(382.763672 0)"/>
      <use xlink:href="#DejaVuSans-65" transform="translate(446.240234 0)"/>
      <use xlink:href="#DejaVuSans-6c" transform="translate(507.763672 0)"/>
      <use xlink:href="#DejaVuSans-20" transform="translate(535.546875 0)"/>
      <use xlink:href="#DejaVuSans-28" transform="translate(567.333984 0)"/>
      <use xlink:href="#DejaVuSans-41" transform="translate(606.347656 0)"/>
      <use xlink:href="#DejaVuSans-55" transform="translate(674.755859 0)"/>
      <use xlink:href="#DejaVuSans-52" transform="translate(747.949219 0)"/>
      <use xlink:href="#DejaVuSans-4f" transform="translate(817.431641 0)"/>
      <use xlink:href="#DejaVuSans-43" transform="translate(896.142578 0)"/>
      <use xlink:href="#DejaVuSans-3d" transform="translate(965.966797 0)"/>
      <use xlink:href="#DejaVuSans-30" transform="translate(1049.755859 0)"/>
      <use xlink:href="#DejaVuSans-2e" transform="translate(1113.378906 0)"/>
      <use xlink:href="#DejaVuSans-39" transform="translate(1145.166016 0)"/>
      <use xlink:href="#DejaVuSans-38" transform="translate(1208.789062 0)"/>
      <use xlink:href="#DejaVuSans-39" transform="translate(1272.412109 0)"/>
      <use xlink:href="#DejaVuSans-29" transform="translate(1336.035156 0)"/>
     </g>
    </g>
    <g id="line2d_22">
     <path d="M 156.321057 209.143516 
L 163.821057 209.143516 
L 171.321057 209.143516 
" style="fill: none; stroke-dasharray: 0.8,1.32; stroke-dashoffset: 0; stroke: #000000; stroke-width: 0.8"/>
    </g>
    <g id="text_20">
     <!-- Chance -->
     <g transform="translate(177.321057 211.768516) scale(0.075 -0.075)">
      <defs>
       <path id="DejaVuSans-63" d="M 3122 3366 
L 3122 2828 
Q 2878 2963 2633 3030 
Q 2388 3097 2138 3097 
Q 1578 3097 1268 2742 
Q 959 2388 959 1747 
Q 959 1106 1268 751 
Q 1578 397 2138 397 
Q 2388 397 2633 464 
Q 2878 531 3122 666 
L 3122 134 
Q 2881 22 2623 -34 
Q 2366 -91 2075 -91 
Q 1284 -91 818 406 
Q 353 903 353 1747 
Q 353 2603 823 3093 
Q 1294 3584 2113 3584 
Q 2378 3584 2631 3529 
Q 2884 3475 3122 3366 
z
" transform="scale(0.015625)"/>
      </defs>
      <use xlink:href="#DejaVuSans-43"/>
      <use xlink:href="#DejaVuSans-68" transform="translate(69.824219 0)"/>
      <use xlink:href="#DejaVuSans-61" transform="translate(133.203125 0)"/>
      <use xlink:href="#DejaVuSans-6e" transform="translate(194.482422 0)"/>
      <use xlink:href="#DejaVuSans-63" transform="translate(257.861328 0)"/>
      <use xlink:href="#DejaVuSans-65" transform="translate(312.841797 0)"/>
     </g>
    </g>
   </g>
  </g>
  <g id="axes_2">
   <g id="patch_6">
    <path d="M 340.690938 220.078281 
L 585.701917 220.078281 
L 585.701917 21.558281 
L 340.690938 21.558281 
z
" style="fill: #ffffff"/>
   </g>
   <g id="matplotlib.axis_3">
    <g id="xtick_7">
     <g id="line2d_23">
      <g>
       <use xlink:href="#m1d68e2d4a2" x="345.402687" y="220.078281" style="stroke: #000000; stroke-width: 0.8"/>
      </g>
     </g>
     <g id="text_21">
      <!-- 0.0 -->
      <g transform="translate(338.246281 233.916875) scale(0.09 -0.09)">
       <use xlink:href="#DejaVuSans-30"/>
       <use xlink:href="#DejaVuSans-2e" transform="translate(63.623047 0)"/>
       <use xlink:href="#DejaVuSans-30" transform="translate(95.410156 0)"/>
      </g>
     </g>
    </g>
    <g id="xtick_8">
     <g id="line2d_24">
      <g>
       <use xlink:href="#m1d68e2d4a2" x="392.520183" y="220.078281" style="stroke: #000000; stroke-width: 0.8"/>
      </g>
     </g>
     <g id="text_22">
      <!-- 0.2 -->
      <g transform="translate(385.363777 233.916875) scale(0.09 -0.09)">
       <use xlink:href="#DejaVuSans-30"/>
       <use xlink:href="#DejaVuSans-2e" transform="translate(63.623047 0)"/>
       <use xlink:href="#DejaVuSans-32" transform="translate(95.410156 0)"/>
      </g>
     </g>
    </g>
    <g id="xtick_9">
     <g id="line2d_25">
      <g>
       <use xlink:href="#m1d68e2d4a2" x="439.637679" y="220.078281" style="stroke: #000000; stroke-width: 0.8"/>
      </g>
     </g>
     <g id="text_23">
      <!-- 0.4 -->
      <g transform="translate(432.481273 233.916875) scale(0.09 -0.09)">
       <use xlink:href="#DejaVuSans-30"/>
       <use xlink:href="#DejaVuSans-2e" transform="translate(63.623047 0)"/>
       <use xlink:href="#DejaVuSans-34" transform="translate(95.410156 0)"/>
      </g>
     </g>
    </g>
    <g id="xtick_10">
     <g id="line2d_26">
      <g>
       <use xlink:href="#m1d68e2d4a2" x="486.755175" y="220.078281" style="stroke: #000000; stroke-width: 0.8"/>
      </g>
     </g>
     <g id="text_24">
      <!-- 0.6 -->
      <g transform="translate(479.598769 233.916875) scale(0.09 -0.09)">
       <use xlink:href="#DejaVuSans-30"/>
       <use xlink:href="#DejaVuSans-2e" transform="translate(63.623047 0)"/>
       <use xlink:href="#DejaVuSans-36" transform="translate(95.410156 0)"/>
      </g>
     </g>
    </g>
    <g id="xtick_11">
     <g id="line2d_27">
      <g>
       <use xlink:href="#m1d68e2d4a2" x="533.872671" y="220.078281" style="stroke: #000000; stroke-width: 0.8"/>
      </g>
     </g>
     <g id="text_25">
      <!-- 0.8 -->
      <g transform="translate(526.716265 233.916875) scale(0.09 -0.09)">
       <use xlink:href="#DejaVuSans-30"/>
       <use xlink:href="#DejaVuSans-2e" transform="translate(63.623047 0)"/>
       <use xlink:href="#DejaVuSans-38" transform="translate(95.410156 0)"/>
      </g>
     </g>
    </g>
    <g id="xtick_12">
     <g id="line2d_28">
      <g>
       <use xlink:href="#m1d68e2d4a2" x="580.990167" y="220.078281" style="stroke: #000000; stroke-width: 0.8"/>
      </g>
     </g>
     <g id="text_26">
      <!-- 1.0 -->
      <g transform="translate(573.833761 233.916875) scale(0.09 -0.09)">
       <use xlink:href="#DejaVuSans-31"/>
       <use xlink:href="#DejaVuSans-2e" transform="translate(63.623047 0)"/>
       <use xlink:href="#DejaVuSans-30" transform="translate(95.410156 0)"/>
      </g>
     </g>
    </g>
    <g id="text_27">
     <!-- Recall -->
     <g transform="translate(448.27924 247.387031) scale(0.1 -0.1)">
      <use xlink:href="#DejaVuSans-52"/>
      <use xlink:href="#DejaVuSans-65" transform="translate(64.982422 0)"/>
      <use xlink:href="#DejaVuSans-63" transform="translate(126.505859 0)"/>
      <use xlink:href="#DejaVuSans-61" transform="translate(181.486328 0)"/>
      <use xlink:href="#DejaVuSans-6c" transform="translate(242.765625 0)"/>
      <use xlink:href="#DejaVuSans-6c" transform="translate(270.548828 0)"/>
     </g>
    </g>
   </g>
   <g id="matplotlib.axis_4">
    <g id="ytick_7">
     <g id="line2d_29">
      <g>
       <use xlink:href="#m965c9f22e3" x="340.690938" y="216.367627" style="stroke: #000000; stroke-width: 0.8"/>
      </g>
     </g>
     <g id="text_28">
      <!-- 0.0 -->
      <g transform="translate(319.378125 219.786924) scale(0.09 -0.09)">
       <use xlink:href="#DejaVuSans-30"/>
       <use xlink:href="#DejaVuSans-2e" transform="translate(63.623047 0)"/>
       <use xlink:href="#DejaVuSans-30" transform="translate(95.410156 0)"/>
      </g>
     </g>
    </g>
    <g id="ytick_8">
     <g id="line2d_30">
      <g>
       <use xlink:href="#m965c9f22e3" x="340.690938" y="179.261085" style="stroke: #000000; stroke-width: 0.8"/>
      </g>
     </g>
     <g id="text_29">
      <!-- 0.2 -->
      <g transform="translate(319.378125 182.680382) scale(0.09 -0.09)">
       <use xlink:href="#DejaVuSans-30"/>
       <use xlink:href="#DejaVuSans-2e" transform="translate(63.623047 0)"/>
       <use xlink:href="#DejaVuSans-32" transform="translate(95.410156 0)"/>
      </g>
     </g>
    </g>
    <g id="ytick_9">
     <g id="line2d_31">
      <g>
       <use xlink:href="#m965c9f22e3" x="340.690938" y="142.154543" style="stroke: #000000; stroke-width: 0.8"/>
      </g>
     </g>
     <g id="text_30">
      <!-- 0.4 -->
      <g transform="translate(319.378125 145.57384) scale(0.09 -0.09)">
       <use xlink:href="#DejaVuSans-30"/>
       <use xlink:href="#DejaVuSans-2e" transform="translate(63.623047 0)"/>
       <use xlink:href="#DejaVuSans-34" transform="translate(95.410156 0)"/>
      </g>
     </g>
    </g>
    <g id="ytick_10">
     <g id="line2d_32">
      <g>
       <use xlink:href="#m965c9f22e3" x="340.690938" y="105.048001" style="stroke: #000000; stroke-width: 0.8"/>
      </g>
     </g>
     <g id="text_31">
      <!-- 0.6 -->
      <g transform="translate(319.378125 108.467298) scale(0.09 -0.09)">
       <use xlink:href="#DejaVuSans-30"/>
       <use xlink:href="#DejaVuSans-2e" transform="translate(63.623047 0)"/>
       <use xlink:href="#DejaVuSans-36" transform="translate(95.410156 0)"/>
      </g>
     </g>
    </g>
    <g id="ytick_11">
     <g id="line2d_33">
      <g>
       <use xlink:href="#m965c9f22e3" x="340.690938" y="67.941459" style="stroke: #000000; stroke-width: 0.8"/>
      </g>
     </g>
     <g id="text_32">
      <!-- 0.8 -->
      <g transform="translate(319.378125 71.360756) scale(0.09 -0.09)">
       <use xlink:href="#DejaVuSans-30"/>
       <use xlink:href="#DejaVuSans-2e" transform="translate(63.623047 0)"/>
       <use xlink:href="#DejaVuSans-38" transform="translate(95.410156 0)"/>
      </g>
     </g>
    </g>
    <g id="ytick_12">
     <g id="line2d_34">
      <g>
       <use xlink:href="#m965c9f22e3" x="340.690938" y="30.834917" style="stroke: #000000; stroke-width: 0.8"/>
      </g>
     </g>
     <g id="text_33">
      <!-- 1.0 -->
      <g transform="translate(319.378125 34.254214) scale(0.09 -0.09)">
       <use xlink:href="#DejaVuSans-31"/>
       <use xlink:href="#DejaVuSans-2e" transform="translate(63.623047 0)"/>
       <use xlink:href="#DejaVuSans-30" transform="translate(95.410156 0)"/>
      </g>
     </g>
    </g>
    <g id="text_34">
     <!-- Precision -->
     <g transform="translate(313.298438 143.125312) rotate(-90) scale(0.1 -0.1)">
      <use xlink:href="#DejaVuSans-50"/>
      <use xlink:href="#DejaVuSans-72" transform="translate(58.552734 0)"/>
      <use xlink:href="#DejaVuSans-65" transform="translate(97.416016 0)"/>
      <use xlink:href="#DejaVuSans-63" transform="translate(158.939453 0)"/>
      <use xlink:href="#DejaVuSans-69" transform="translate(213.919922 0)"/>
      <use xlink:href="#DejaVuSans-73" transform="translate(241.703125 0)"/>
      <use xlink:href="#DejaVuSans-69" transform="translate(293.802734 0)"/>
      <use xlink:href="#DejaVuSans-6f" transform="translate(321.585938 0)"/>
      <use xlink:href="#DejaVuSans-6e" transform="translate(382.767578 0)"/>
     </g>
    </g>
   </g>
   <g id="line2d_35">
    <path d="M 580.990167 142.154543 
L 580.990167 132.352815 
L 579.026938 132.737352 
L 579.026938 128.054057 
L 577.063709 128.444495 
L 577.063709 123.601272 
L 575.10048 123.996022 
L 575.10048 117.697958 
L 571.174022 118.494867 
L 571.174022 116.66547 
L 569.210793 117.06843 
L 569.210793 103.262125 
L 567.247564 103.651518 
L 567.247564 101.174241 
L 565.284335 101.562856 
L 565.284335 100.925052 
L 563.321106 101.316617 
L 563.321106 100.670263 
L 561.357877 101.064813 
L 561.357877 99.076833 
L 557.431419 99.870344 
L 557.431419 98.499788 
L 555.46819 98.900171 
L 553.504961 98.60435 
L 553.504961 97.894933 
L 549.578503 98.712738 
L 549.578503 97.260208 
L 547.615274 97.672788 
L 547.615274 96.930945 
L 545.652045 97.346643 
L 545.652045 93.482325 
L 543.688816 93.891786 
L 543.688816 91.442269 
L 541.725587 91.84903 
L 541.725587 91.007688 
L 539.762358 91.417026 
L 539.762358 89.69357 
L 537.799129 90.10231 
L 537.799129 89.219336 
L 533.872671 90.047484 
L 533.872671 88.229928 
L 531.909442 88.645834 
L 531.909442 86.767572 
L 527.982984 87.602388 
L 527.982984 86.634228 
L 524.056526 87.486126 
L 524.056526 80.210557 
L 516.20361 81.856412 
L 516.20361 79.576561 
L 510.313923 80.848082 
L 510.313923 78.449506 
L 508.350694 78.874636 
L 508.350694 76.374764 
L 506.387465 76.792561 
L 506.387465 72.842323 
L 502.461007 73.650158 
L 502.461007 72.264551 
L 498.534549 73.08494 
L 498.534549 71.652113 
L 492.644862 72.914501 
L 492.644862 69.894435 
L 486.755175 71.168115 
L 486.755175 67.941459 
L 484.791946 68.358386 
L 484.791946 64.955875 
L 474.975801 67.036421 
L 473.012572 67.483353 
L 473.012572 65.6223 
L 465.159656 67.453215 
L 463.196427 67.941459 
L 463.196427 65.9357 
L 457.30674 67.418831 
L 457.30674 65.290992 
L 455.343511 65.790355 
L 455.343511 63.575983 
L 451.417053 64.568137 
L 451.417053 62.23276 
L 447.490595 63.229517 
L 447.490595 60.759547 
L 445.527366 61.250115 
L 445.527366 55.991894 
L 437.67445 57.821493 
L 437.67445 54.885453 
L 433.747992 55.810474 
L 433.747992 52.662294 
L 425.895076 54.519944 
L 425.895076 51.001516 
L 420.005389 52.408488 
L 420.005389 48.504699 
L 414.115702 49.863913 
L 408.226015 51.449662 
L 406.262786 52.038655 
L 406.262786 47.20545 
L 400.373099 48.789695 
L 398.40987 49.388188 
L 398.40987 43.630276 
L 392.520183 45.106664 
L 388.593725 46.295976 
L 384.667267 47.701527 
L 384.667267 39.669808 
L 380.740809 40.599796 
L 380.740809 30.834917 
L 345.402687 30.834917 
L 345.402687 30.834917 
" clip-path="url(#p48c3ec1a3e)" style="fill: none; stroke-dasharray: 5.92,2.56; stroke-dashoffset: 0; stroke: #888888; stroke-width: 1.6"/>
   </g>
   <g id="line2d_36">
    <path d="M 580.990167 142.154543 
L 580.990167 127.66673 
L 579.026938 128.054057 
L 579.026938 127.341851 
L 577.063709 127.732567 
L 577.063709 124.765703 
L 575.10048 125.16037 
L 575.10048 121.160052 
L 573.137251 121.55796 
L 573.137251 121.138448 
L 571.174022 121.539797 
L 571.174022 109.686319 
L 569.210793 110.082557 
L 569.210793 109.545764 
L 567.247564 109.945311 
L 567.247564 109.40234 
L 565.284335 109.80525 
L 565.284335 109.255959 
L 563.321106 109.662286 
L 563.321106 104.443003 
L 561.357877 104.845233 
L 561.357877 102.986526 
L 559.394648 103.389608 
L 559.394648 102.11302 
L 557.431419 102.518009 
L 557.431419 91.133048 
L 555.46819 91.512281 
L 555.46819 90.722057 
L 553.504961 91.103504 
L 553.504961 89.487193 
L 551.541732 89.868052 
L 551.541732 85.6231 
L 549.578503 85.99329 
L 549.578503 82.371781 
L 547.615274 82.732178 
L 547.615274 79.868562 
L 545.652045 80.221322 
L 545.652045 77.218094 
L 541.725587 77.910381 
L 541.725587 76.869349 
L 537.799129 77.572164 
L 537.799129 74.319146 
L 535.8359 74.661541 
L 535.8359 71.233168 
L 533.872671 71.561609 
L 533.872671 65.425761 
L 531.909442 65.721409 
L 531.909442 64.422735 
L 522.093297 65.9357 
L 522.093297 63.175481 
L 514.240381 64.407502 
L 514.240381 62.946347 
L 508.350694 63.900152 
L 508.350694 62.375478 
L 504.424236 63.019162 
L 504.424236 59.824403 
L 498.534549 60.759547 
L 498.534549 57.33959 
L 496.57132 57.634086 
L 496.57132 55.850563 
L 492.644862 56.425635 
L 492.644862 54.565845 
L 490.681633 54.845032 
L 490.681633 52.922144 
L 478.902259 54.621162 
L 474.975801 55.247115 
L 474.975801 50.892507 
L 465.159656 52.345956 
L 465.159656 44.890425 
L 457.30674 45.797232 
L 457.30674 43.000996 
L 453.380282 43.413406 
L 453.380282 40.431436 
L 441.600908 41.538727 
L 439.637679 41.748606 
L 439.637679 38.256225 
L 433.747992 38.729926 
L 433.747992 34.868237 
L 420.005389 35.592166 
L 416.078931 35.849314 
L 416.078931 30.834917 
L 345.402687 30.834917 
L 345.402687 30.834917 
" clip-path="url(#p48c3ec1a3e)" style="fill: none; stroke: #4477aa; stroke-width: 1.6; stroke-linecap: square"/>
   </g>
   <g id="line2d_37">
    <path d="M 580.990167 142.154543 
L 580.990167 114.23953 
L 579.026938 114.623883 
L 579.026938 109.708726 
L 577.063709 110.091609 
L 577.063709 102.93312 
L 575.10048 103.308632 
L 575.10048 102.118537 
L 573.137251 102.495699 
L 573.137251 94.775568 
L 571.174022 95.138867 
L 571.174022 85.470316 
L 569.210793 85.807572 
L 569.210793 82.502254 
L 567.247564 82.831345 
L 567.247564 74.710896 
L 565.284335 75.009372 
L 565.284335 67.941459 
L 563.321106 68.208412 
L 563.321106 66.045504 
L 561.357877 66.304405 
L 561.357877 56.925454 
L 557.431419 57.33959 
L 557.431419 54.774621 
L 555.46819 54.969253 
L 555.46819 52.301511 
L 551.541732 52.662294 
L 551.541732 49.863913 
L 547.615274 50.194852 
L 547.615274 48.737196 
L 545.652045 48.895623 
L 545.652045 45.878109 
L 539.762358 46.295976 
L 539.762358 43.087077 
L 535.8359 43.322695 
L 535.8359 41.642647 
L 520.130068 42.552772 
L 520.130068 38.814818 
L 508.350694 39.365156 
L 508.350694 37.306988 
L 494.608091 37.880463 
L 492.644862 35.653948 
L 480.865488 36.06119 
L 480.865488 33.485384 
L 469.086114 33.733865 
L 469.086114 30.834917 
L 345.402687 30.834917 
L 345.402687 30.834917 
" clip-path="url(#p48c3ec1a3e)" style="fill: none; stroke: #ee6677; stroke-width: 1.6; stroke-linecap: square"/>
   </g>
   <g id="line2d_38">
    <path d="M 580.990167 142.154543 
L 580.990167 70.851776 
L 579.026938 71.115045 
L 579.026938 66.174481 
L 577.063709 66.416532 
L 577.063709 62.192558 
L 575.10048 62.414953 
L 575.10048 61.315291 
L 573.137251 61.534574 
L 573.137251 54.549624 
L 571.174022 54.729281 
L 571.174022 52.242537 
L 569.210793 52.408488 
L 569.210793 51.127557 
L 567.247564 51.287342 
L 567.247564 43.101542 
L 559.394648 43.520914 
L 559.394648 42.030856 
L 553.504961 42.328094 
L 553.504961 39.192246 
L 551.541732 39.268222 
L 551.541732 37.643457 
L 547.615274 37.770719 
L 547.615274 32.618885 
L 508.350694 33.04364 
L 508.350694 30.834917 
L 345.402687 30.834917 
L 345.402687 30.834917 
" clip-path="url(#p48c3ec1a3e)" style="fill: none; stroke: #228833; stroke-width: 1.6; stroke-linecap: square"/>
   </g>
   <g id="line2d_39">
    <path d="M 340.690938 142.154543 
L 585.701917 142.154543 
" clip-path="url(#p48c3ec1a3e)" style="fill: none; stroke-dasharray: 0.8,1.32; stroke-dashoffset: 0; stroke: #000000; stroke-width: 0.8"/>
   </g>
   <g id="patch_7">
    <path d="M 340.690938 220.078281 
L 340.690938 21.558281 
" style="fill: none; stroke: #000000; stroke-width: 0.8; stroke-linejoin: miter; stroke-linecap: square"/>
   </g>
   <g id="patch_8">
    <path d="M 340.690938 220.078281 
L 585.701917 220.078281 
" style="fill: none; stroke: #000000; stroke-width: 0.8; stroke-linejoin: miter; stroke-linecap: square"/>
   </g>
   <g id="text_35">
    <!-- Precision-Recall Curve -->
    <g transform="translate(393.83799 15.558281) scale(0.11 -0.11)">
     <defs>
      <path id="DejaVuSans-Bold-50" d="M 588 4666 
L 2584 4666 
Q 3475 4666 3951 4270 
Q 4428 3875 4428 3144 
Q 4428 2409 3951 2014 
Q 3475 1619 2584 1619 
L 1791 1619 
L 1791 0 
L 588 0 
L 588 4666 
z
M 1791 3794 
L 1791 2491 
L 2456 2491 
Q 2806 2491 2997 2661 
Q 3188 2831 3188 3144 
Q 3188 3456 2997 3625 
Q 2806 3794 2456 3794 
L 1791 3794 
z
" transform="scale(0.015625)"/>
      <path id="DejaVuSans-Bold-63" d="M 3366 3391 
L 3366 2478 
Q 3138 2634 2908 2709 
Q 2678 2784 2431 2784 
Q 1963 2784 1702 2511 
Q 1441 2238 1441 1747 
Q 1441 1256 1702 982 
Q 1963 709 2431 709 
Q 2694 709 2930 787 
Q 3166 866 3366 1019 
L 3366 103 
Q 3103 6 2833 -42 
Q 2563 -91 2291 -91 
Q 1344 -91 809 395 
Q 275 881 275 1747 
Q 275 2613 809 3098 
Q 1344 3584 2291 3584 
Q 2566 3584 2833 3536 
Q 3100 3488 3366 3391 
z
" transform="scale(0.015625)"/>
      <path id="DejaVuSans-Bold-69" d="M 538 3500 
L 1656 3500 
L 1656 0 
L 538 0 
L 538 3500 
z
M 538 4863 
L 1656 4863 
L 1656 3950 
L 538 3950 
L 538 4863 
z
" transform="scale(0.015625)"/>
      <path id="DejaVuSans-Bold-73" d="M 3272 3391 
L 3272 2541 
Q 2913 2691 2578 2766 
Q 2244 2841 1947 2841 
Q 1628 2841 1473 2761 
Q 1319 2681 1319 2516 
Q 1319 2381 1436 2309 
Q 1553 2238 1856 2203 
L 2053 2175 
Q 2913 2066 3209 1816 
Q 3506 1566 3506 1031 
Q 3506 472 3093 190 
Q 2681 -91 1863 -91 
Q 1516 -91 1145 -36 
Q 775 19 384 128 
L 384 978 
Q 719 816 1070 734 
Q 1422 653 1784 653 
Q 2113 653 2278 743 
Q 2444 834 2444 1013 
Q 2444 1163 2330 1236 
Q 2216 1309 1875 1350 
L 1678 1375 
Q 931 1469 631 1722 
Q 331 1975 331 2491 
Q 331 3047 712 3315 
Q 1094 3584 1881 3584 
Q 2191 3584 2531 3537 
Q 2872 3491 3272 3391 
z
" transform="scale(0.015625)"/>
      <path id="DejaVuSans-Bold-6f" d="M 2203 2784 
Q 1831 2784 1636 2517 
Q 1441 2250 1441 1747 
Q 1441 1244 1636 976 
Q 1831 709 2203 709 
Q 2569 709 2762 976 
Q 2956 1244 2956 1747 
Q 2956 2250 2762 2517 
Q 2569 2784 2203 2784 
z
M 2203 3584 
Q 3106 3584 3614 3096 
Q 4122 2609 4122 1747 
Q 4122 884 3614 396 
Q 3106 -91 2203 -91 
Q 1297 -91 786 396 
Q 275 884 275 1747 
Q 275 2609 786 3096 
Q 1297 3584 2203 3584 
z
" transform="scale(0.015625)"/>
      <path id="DejaVuSans-Bold-6e" d="M 4056 2131 
L 4056 0 
L 2931 0 
L 2931 347 
L 2931 1631 
Q 2931 2084 2911 2256 
Q 2891 2428 2841 2509 
Q 2775 2619 2662 2680 
Q 2550 2741 2406 2741 
Q 2056 2741 1856 2470 
Q 1656 2200 1656 1722 
L 1656 0 
L 538 0 
L 538 3500 
L 1656 3500 
L 1656 2988 
Q 1909 3294 2193 3439 
Q 2478 3584 2822 3584 
Q 3428 3584 3742 3212 
Q 4056 2841 4056 2131 
z
" transform="scale(0.015625)"/>
      <path id="DejaVuSans-Bold-2d" d="M 347 2297 
L 2309 2297 
L 2309 1388 
L 347 1388 
L 347 2297 
z
" transform="scale(0.015625)"/>
      <path id="DejaVuSans-Bold-61" d="M 2106 1575 
Q 1756 1575 1579 1456 
Q 1403 1338 1403 1106 
Q 1403 894 1545 773 
Q 1688 653 1941 653 
Q 2256 653 2472 879 
Q 2688 1106 2688 1447 
L 2688 1575 
L 2106 1575 
z
M 3816 1997 
L 3816 0 
L 2688 0 
L 2688 519 
Q 2463 200 2181 54 
Q 1900 -91 1497 -91 
Q 953 -91 614 226 
Q 275 544 275 1050 
Q 275 1666 698 1953 
Q 1122 2241 2028 2241 
L 2688 2241 
L 2688 2328 
Q 2688 2594 2478 2717 
Q 2269 2841 1825 2841 
Q 1466 2841 1156 2769 
Q 847 2697 581 2553 
L 581 3406 
Q 941 3494 1303 3539 
Q 1666 3584 2028 3584 
Q 2975 3584 3395 3211 
Q 3816 2838 3816 1997 
z
" transform="scale(0.015625)"/>
      <path id="DejaVuSans-Bold-6c" d="M 538 4863 
L 1656 4863 
L 1656 0 
L 538 0 
L 538 4863 
z
" transform="scale(0.015625)"/>
     </defs>
     <use xlink:href="#DejaVuSans-Bold-50"/>
     <use xlink:href="#DejaVuSans-Bold-72" transform="translate(73.291016 0)"/>
     <use xlink:href="#DejaVuSans-Bold-65" transform="translate(122.607422 0)"/>
     <use xlink:href="#DejaVuSans-Bold-63" transform="translate(190.429688 0)"/>
     <use xlink:href="#DejaVuSans-Bold-69" transform="translate(249.707031 0)"/>
     <use xlink:href="#DejaVuSans-Bold-73" transform="translate(283.984375 0)"/>
     <use xlink:href="#DejaVuSans-Bold-69" transform="translate(343.505859 0)"/>
     <use xlink:href="#DejaVuSans-Bold-6f" transform="translate(377.783203 0)"/>
     <use xlink:href="#DejaVuSans-Bold-6e" transform="translate(446.484375 0)"/>
     <use xlink:href="#DejaVuSans-Bold-2d" transform="translate(517.675781 0)"/>
     <use xlink:href="#DejaVuSans-Bold-52" transform="translate(559.179688 0)"/>
     <use xlink:href="#DejaVuSans-Bold-65" transform="translate(636.181641 0)"/>
     <use xlink:href="#DejaVuSans-Bold-63" transform="translate(704.003906 0)"/>
     <use xlink:href="#DejaVuSans-Bold-61" transform="translate(763.28125 0)"/>
     <use xlink:href="#DejaVuSans-Bold-6c" transform="translate(830.761719 0)"/>
     <use xlink:href="#DejaVuSans-Bold-6c" transform="translate(865.039062 0)"/>
     <use xlink:href="#DejaVuSans-Bold-20" transform="translate(899.316406 0)"/>
     <use xlink:href="#DejaVuSans-Bold-43" transform="translate(934.130859 0)"/>
     <use xlink:href="#DejaVuSans-Bold-75" transform="translate(1007.519531 0)"/>
     <use xlink:href="#DejaVuSans-Bold-72" transform="translate(1078.710938 0)"/>
     <use xlink:href="#DejaVuSans-Bold-76" transform="translate(1128.027344 0)"/>
     <use xlink:href="#DejaVuSans-Bold-65" transform="translate(1193.212891 0)"/>
    </g>
   </g>
   <g id="legend_2">
    <g id="patch_9">
     <path d="M 470.640198 82.60125 
L 580.451917 82.60125 
Q 581.951917 82.60125 581.951917 81.10125 
L 581.951917 26.808281 
Q 581.951917 25.308281 580.451917 25.308281 
L 470.640198 25.308281 
Q 469.140198 25.308281 469.140198 26.808281 
L 469.140198 81.10125 
Q 469.140198 82.60125 470.640198 82.60125 
z
" style="fill: #ffffff; opacity: 0.85; stroke: #cccccc; stroke-linejoin: miter"/>
    </g>
    <g id="line2d_40">
     <path d="M 472.140198 31.382109 
L 479.640198 31.382109 
L 487.140198 31.382109 
" style="fill: none; stroke-dasharray: 5.92,2.56; stroke-dashoffset: 0; stroke: #888888; stroke-width: 1.6"/>
    </g>
    <g id="text_36">
     <!-- Baseline (AP=0.811) -->
     <g transform="translate(493.140198 34.007109) scale(0.075 -0.075)">
      <use xlink:href="#DejaVuSans-42"/>
      <use xlink:href="#DejaVuSans-61" transform="translate(68.603516 0)"/>
      <use xlink:href="#DejaVuSans-73" transform="translate(129.882812 0)"/>
      <use xlink:href="#DejaVuSans-65" transform="translate(181.982422 0)"/>
      <use xlink:href="#DejaVuSans-6c" transform="translate(243.505859 0)"/>
      <use xlink:href="#DejaVuSans-69" transform="translate(271.289062 0)"/>
      <use xlink:href="#DejaVuSans-6e" transform="translate(299.072266 0)"/>
      <use xlink:href="#DejaVuSans-65" transform="translate(362.451172 0)"/>
      <use xlink:href="#DejaVuSans-20" transform="translate(423.974609 0)"/>
      <use xlink:href="#DejaVuSans-28" transform="translate(455.761719 0)"/>
      <use xlink:href="#DejaVuSans-41" transform="translate(494.775391 0)"/>
      <use xlink:href="#DejaVuSans-50" transform="translate(563.183594 0)"/>
      <use xlink:href="#DejaVuSans-3d" transform="translate(623.486328 0)"/>
      <use xlink:href="#DejaVuSans-30" transform="translate(707.275391 0)"/>
      <use xlink:href="#DejaVuSans-2e" transform="translate(770.898438 0)"/>
      <use xlink:href="#DejaVuSans-38" transform="translate(802.685547 0)"/>
      <use xlink:href="#DejaVuSans-31" transform="translate(866.308594 0)"/>
      <use xlink:href="#DejaVuSans-31" transform="translate(929.931641 0)"/>
      <use xlink:href="#DejaVuSans-29" transform="translate(993.554688 0)"/>
     </g>
    </g>
    <g id="line2d_41">
     <path d="M 472.140198 42.390703 
L 479.640198 42.390703 
L 487.140198 42.390703 
" style="fill: none; stroke: #4477aa; stroke-width: 1.6; stroke-linecap: square"/>
    </g>
    <g id="text_37">
     <!-- Method-A (AP=0.875) -->
     <g transform="translate(493.140198 45.015703) scale(0.075 -0.075)">
      <defs>
       <path id="DejaVuSans-37" d="M 525 4666 
L 3525 4666 
L 3525 4397 
L 1831 0 
L 1172 0 
L 2766 4134 
L 525 4134 
L 525 4666 
z
" transform="scale(0.015625)"/>
       <path id="DejaVuSans-35" d="M 691 4666 
L 3169 4666 
L 3169 4134 
L 1269 4134 
L 1269 2991 
Q 1406 3038 1543 3061 
Q 1681 3084 1819 3084 
Q 2600 3084 3056 2656 
Q 3513 2228 3513 1497 
Q 3513 744 3044 326 
Q 2575 -91 1722 -91 
Q 1428 -91 1123 -41 
Q 819 9 494 109 
L 494 744 
Q 775 591 1075 516 
Q 1375 441 1709 441 
Q 2250 441 2565 725 
Q 2881 1009 2881 1497 
Q 2881 1984 2565 2268 
Q 2250 2553 1709 2553 
Q 1456 2553 1204 2497 
Q 953 2441 691 2322 
L 691 4666 
z
" transform="scale(0.015625)"/>
      </defs>
      <use xlink:href="#DejaVuSans-4d"/>
      <use xlink:href="#DejaVuSans-65" transform="translate(86.279297 0)"/>
      <use xlink:href="#DejaVuSans-74" transform="translate(147.802734 0)"/>
      <use xlink:href="#DejaVuSans-68" transform="translate(187.011719 0)"/>
      <use xlink:href="#DejaVuSans-6f" transform="translate(250.390625 0)"/>
      <use xlink:href="#DejaVuSans-64" transform="translate(311.572266 0)"/>
      <use xlink:href="#DejaVuSans-2d" transform="translate(375.048828 0)"/>
      <use xlink:href="#DejaVuSans-41" transform="translate(408.882812 0)"/>
      <use xlink:href="#DejaVuSans-20" transform="translate(477.291016 0)"/>
      <use xlink:href="#DejaVuSans-28" transform="translate(509.078125 0)"/>
      <use xlink:href="#DejaVuSans-41" transform="translate(548.091797 0)"/>
      <use xlink:href="#DejaVuSans-50" transform="translate(616.5 0)"/>
      <use xlink:href="#DejaVuSans-3d" transform="translate(676.802734 0)"/>
      <use xlink:href="#DejaVuSans-30" transform="translate(760.591797 0)"/>
      <use xlink:href="#DejaVuSans-2e" transform="translate(824.214844 0)"/>
      <use xlink:href="#DejaVuSans-38" transform="translate(856.001953 0)"/>
      <use xlink:href="#DejaVuSans-37" transform="translate(919.625 0)"/>
      <use xlink:href="#DejaVuSans-35" transform="translate(983.248047 0)"/>
      <use xlink:href="#DejaVuSans-29" transform="translate(1046.871094 0)"/>
     </g>
    </g>
    <g id="line2d_42">
     <path d="M 472.140198 53.399297 
L 479.640198 53.399297 
L 487.140198 53.399297 
" style="fill: none; stroke: #ee6677; stroke-width: 1.6; stroke-linecap: square"/>
    </g>
    <g id="text_38">
     <!-- Method-B (AP=0.952) -->
     <g transform="translate(493.140198 56.024297) scale(0.075 -0.075)">
      <use xlink:href="#DejaVuSans-4d"/>
      <use xlink:href="#DejaVuSans-65" transform="translate(86.279297 0)"/>
      <use xlink:href="#DejaVuSans-74" transform="translate(147.802734 0)"/>
      <use xlink:href="#DejaVuSans-68" transform="translate(187.011719 0)"/>
      <use xlink:href="#DejaVuSans-6f" transform="translate(250.390625 0)"/>
      <use xlink:href="#DejaVuSans-64" transform="translate(311.572266 0)"/>
      <use xlink:href="#DejaVuSans-2d" transform="translate(375.048828 0)"/>
      <use xlink:href="#DejaVuSans-42" transform="translate(407.507812 0)"/>
      <use xlink:href="#DejaVuSans-20" transform="translate(476.111328 0)"/>
      <use xlink:href="#DejaVuSans-28" transform="translate(507.898438 0)"/>
      <use xlink:href="#DejaVuSans-41" transform="translate(546.912109 0)"/>
      <use xlink:href="#DejaVuSans-50" transform="translate(615.320312 0)"/>
      <use xlink:href="#DejaVuSans-3d" transform="translate(675.623047 0)"/>
      <use xlink:href="#DejaVuSans-30" transform="translate(759.412109 0)"/>
      <use xlink:href="#DejaVuSans-2e" transform="translate(823.035156 0)"/>
      <use xlink:href="#DejaVuSans-39" transform="translate(854.822266 0)"/>
      <use xlink:href="#DejaVuSans-35" transform="translate(918.445312 0)"/>
      <use xlink:href="#DejaVuSans-32" transform="translate(982.068359 0)"/>
      <use xlink:href="#DejaVuSans-29" transform="translate(1045.691406 0)"/>
     </g>
    </g>
    <g id="line2d_43">
     <path d="M 472.140198 64.407891 
L 479.640198 64.407891 
L 487.140198 64.407891 
" style="fill: none; stroke: #228833; stroke-width: 1.6; stroke-linecap: square"/>
    </g>
    <g id="text_39">
     <!-- OursModel (AP=0.984) -->
     <g transform="translate(493.140198 67.032891) scale(0.075 -0.075)">
      <use xlink:href="#DejaVuSans-4f"/>
      <use xlink:href="#DejaVuSans-75" transform="translate(78.710938 0)"/>
      <use xlink:href="#DejaVuSans-72" transform="translate(142.089844 0)"/>
      <use xlink:href="#DejaVuSans-73" transform="translate(183.203125 0)"/>
      <use xlink:href="#DejaVuSans-4d" transform="translate(235.302734 0)"/>
      <use xlink:href="#DejaVuSans-6f" transform="translate(321.582031 0)"/>
      <use xlink:href="#DejaVuSans-64" transform="translate(382.763672 0)"/>
      <use xlink:href="#DejaVuSans-65" transform="translate(446.240234 0)"/>
      <use xlink:href="#DejaVuSans-6c" transform="translate(507.763672 0)"/>
      <use xlink:href="#DejaVuSans-20" transform="translate(535.546875 0)"/>
      <use xlink:href="#DejaVuSans-28" transform="translate(567.333984 0)"/>
      <use xlink:href="#DejaVuSans-41" transform="translate(606.347656 0)"/>
      <use xlink:href="#DejaVuSans-50" transform="translate(674.755859 0)"/>
      <use xlink:href="#DejaVuSans-3d" transform="translate(735.058594 0)"/>
      <use xlink:href="#DejaVuSans-30" transform="translate(818.847656 0)"/>
      <use xlink:href="#DejaVuSans-2e" transform="translate(882.470703 0)"/>
      <use xlink:href="#DejaVuSans-39" transform="translate(914.257812 0)"/>
      <use xlink:href="#DejaVuSans-38" transform="translate(977.880859 0)"/>
      <use xlink:href="#DejaVuSans-34" transform="translate(1041.503906 0)"/>
      <use xlink:href="#DejaVuSans-29" transform="translate(1105.126953 0)"/>
     </g>
    </g>
    <g id="line2d_44">
     <path d="M 472.140198 75.416484 
L 479.640198 75.416484 
L 487.140198 75.416484 
" style="fill: none; stroke-dasharray: 0.8,1.32; stroke-dashoffset: 0; stroke: #000000; stroke-width: 0.8"/>
    </g>
    <g id="text_40">
     <!-- Prevalence (0.40) -->
     <g transform="translate(493.140198 78.041484) scale(0.075 -0.075)">
      <use xlink:href="#DejaVuSans-50"/>
      <use xlink:href="#DejaVuSans-72" transform="translate(58.552734 0)"/>
      <use xlink:href="#DejaVuSans-65" transform="translate(97.416016 0)"/>
      <use xlink:href="#DejaVuSans-76" transform="translate(158.939453 0)"/>
      <use xlink:href="#DejaVuSans-61" transform="translate(218.119141 0)"/>
      <use xlink:href="#DejaVuSans-6c" transform="translate(279.398438 0)"/>
      <use xlink:href="#DejaVuSans-65" transform="translate(307.181641 0)"/>
      <use xlink:href="#DejaVuSans-6e" transform="translate(368.705078 0)"/>
      <use xlink:href="#DejaVuSans-63" transform="translate(432.083984 0)"/>
      <use xlink:href="#DejaVuSans-65" transform="translate(487.064453 0)"/>
      <use xlink:href="#DejaVuSans-20" transform="translate(548.587891 0)"/>
      <use xlink:href="#DejaVuSans-28" transform="translate(580.375 0)"/>
      <use xlink:href="#DejaVuSans-30" transform="translate(619.388672 0)"/>
      <use xlink:href="#DejaVuSans-2e" transform="translate(683.011719 0)"/>
      <use xlink:href="#DejaVuSans-34" transform="translate(714.798828 0)"/>
      <use xlink:href="#DejaVuSans-30" transform="translate(778.421875 0)"/>
      <use xlink:href="#DejaVuSans-29" transform="translate(842.044922 0)"/>
     </g>
    </g>
   </g>
  </g>
 </g>
 <defs>
  <clipPath id="p5c7172cbfe">
   <rect x="42.190938" y="21.558281" width="245.010979" height="198.52"/>
  </clipPath>
  <clipPath id="p48c3ec1a3e">
   <rect x="340.690938" y="21.558281" width="245.010979" height="198.52"/>
  </clipPath>
 </defs>
</svg>
