<?xml version="1.0" encoding="utf-8" standalone="no"?>
<!DOCTYPE svg PUBLIC "-//W3C//DTD SVG 1.1//EN"
  "http://www.w3.org/Graphics/SVG/1.1/DTD/svg11.dtd">
<svg xmlns:xlink="http://www.w3.org/1999/xlink" width="496.709062pt" height="351.598625pt" viewBox="0 0 496.709062 351.598625" xmlns="http://www.w3.org/2000/svg" version="1.1">
 <metadata>
  <rdf:RDF xmlns:dc="http://purl.org/dc/elements/1.1/" xmlns:cc="http://creativecommons.org/ns#" xmlns:rdf="http://www.w3.org/1999/02/22-rdf-syntax-ns#">
   <cc:Work>
    <dc:type rdf:resource="http://purl.org/dc/dcmitype/StillImage"/>
    <dc:date>2026-05-25T00:51:01.497215</dc:date>
    <dc:format>image/svg+xml</dc:format>
    <dc:creator>
     <cc:Agent>
      <dc:title>Matplotlib v3.10.9, https://matplotlib.org/</dc:title>
     </cc:Agent>
    </dc:creator>
   </cc:Work>
  </rdf:RDF>
 </metadata>
 <defs>
  <style type="text/css">*{stroke-linejoin: round; stroke-linecap: butt}</style>
 </defs>
 <g id="figure_1">
  <g id="patch_1">
   <path d="M 0 351.598625 
L 496.709062 351.598625 
L 496.709062 0 
L 0 0 
z
" style="fill: #ffffff"/>
  </g>
  <g id="axes_1">
   <g id="patch_2">
    <path d="M 44.249063 317.022687 
L 489.509062 317.022687 
L 489.509062 9.261756 
L 44.249063 9.261756 
z
" style="fill: #ffffff"/>
   </g>
   <g id="FillBetweenPolyCollection_1">
    <defs>
     <path id="m79bfb4a1d9" d="M 112.44449 -70.289862 
L 103.270778 -70.289862 
L 102.574894 -72.124688 
L 101.811064 -73.959513 
L 100.973888 -75.794339 
L 100.057367 -77.629164 
L 99.05532 -79.46399 
L 97.961994 -81.298816 
L 96.772861 -83.133641 
L 95.485551 -84.968467 
L 94.100863 -86.803293 
L 92.623773 -88.638118 
L 91.064328 -90.472944 
L 89.438317 -92.307769 
L 87.767604 -94.142595 
L 86.080012 -95.977421 
L 84.408689 -97.812246 
L 82.790931 -99.647072 
L 81.26649 -101.481897 
L 79.875481 -103.316723 
L 78.65604 -105.151549 
L 77.641946 -106.986374 
L 76.860451 -108.8212 
L 76.330509 -110.656026 
L 76.061618 -112.490851 
L 76.053348 -114.325677 
L 76.295617 -116.160502 
L 76.769627 -117.995328 
L 77.44936 -119.830154 
L 78.303437 -121.664979 
L 79.297162 -123.499805 
L 80.394555 -125.33463 
L 81.560209 -127.169456 
L 82.760879 -129.004282 
L 83.966719 -130.839107 
L 85.152153 -132.673933 
L 86.296405 -134.508758 
L 87.383701 -136.343584 
L 88.403222 -138.17841 
L 89.348837 -140.013235 
L 90.218679 -141.848061 
L 91.014614 -143.682887 
L 91.741633 -145.517712 
L 92.407223 -147.352538 
L 93.020728 -149.187363 
L 93.592728 -151.022189 
L 94.134453 -152.857015 
L 94.65721 -154.69184 
L 95.171848 -156.526666 
L 95.68823 -158.361491 
L 96.21473 -160.196317 
L 96.757763 -162.031143 
L 97.321379 -163.865968 
L 97.906963 -165.700794 
L 98.51308 -167.53562 
L 99.135516 -169.370445 
L 99.767531 -171.205271 
L 100.400323 -173.040096 
L 101.023672 -174.874922 
L 101.626708 -176.709748 
L 102.19872 -178.544573 
L 102.729924 -180.379399 
L 103.212127 -182.214224 
L 103.639221 -184.04905 
L 104.00749 -185.883876 
L 104.315738 -187.718701 
L 104.565247 -189.553527 
L 104.759616 -191.388352 
L 104.904501 -193.223178 
L 105.007285 -195.058004 
L 105.076701 -196.892829 
L 105.122393 -198.727655 
L 105.154426 -200.562481 
L 105.182749 -202.397306 
L 105.216619 -204.232132 
L 105.264035 -206.066957 
L 105.331216 -207.901783 
L 105.422193 -209.736609 
L 105.538558 -211.571434 
L 105.679421 -213.40626 
L 105.841582 -215.241085 
L 106.019904 -217.075911 
L 106.207853 -218.910737 
L 106.398128 -220.745562 
L 106.583324 -222.580388 
L 106.756539 -224.415214 
L 106.911887 -226.250039 
L 107.044866 -228.084865 
L 107.152574 -229.91969 
L 107.233778 -231.754516 
L 107.288852 -233.589342 
L 107.319622 -235.424167 
L 107.329129 -237.258993 
L 107.321362 -239.093818 
L 107.300941 -240.928644 
L 107.272809 -242.76347 
L 107.241905 -244.598295 
L 107.212862 -246.433121 
L 107.189729 -248.267946 
L 107.175734 -250.102772 
L 107.173118 -251.937598 
L 108.54215 -251.937598 
L 108.54215 -251.937598 
L 108.539534 -250.102772 
L 108.525539 -248.267946 
L 108.502406 -246.433121 
L 108.473363 -244.598295 
L 108.442459 -242.76347 
L 108.414327 -240.928644 
L 108.393906 -239.093818 
L 108.386138 -237.258993 
L 108.395646 -235.424167 
L 108.426416 -233.589342 
L 108.48149 -231.754516 
L 108.562694 -229.91969 
L 108.670402 -228.084865 
L 108.803381 -226.250039 
L 108.958729 -224.415214 
L 109.131944 -222.580388 
L 109.317139 -220.745562 
L 109.507415 -218.910737 
L 109.695364 -217.075911 
L 109.873686 -215.241085 
L 110.035846 -213.40626 
L 110.17671 -211.571434 
L 110.293075 -209.736609 
L 110.384052 -207.901783 
L 110.451233 -206.066957 
L 110.498649 -204.232132 
L 110.532519 -202.397306 
L 110.560841 -200.562481 
L 110.592875 -198.727655 
L 110.638567 -196.892829 
L 110.707983 -195.058004 
L 110.810767 -193.223178 
L 110.955651 -191.388352 
L 111.150021 -189.553527 
L 111.39953 -187.718701 
L 111.707778 -185.883876 
L 112.076047 -184.04905 
L 112.50314 -182.214224 
L 112.985344 -180.379399 
L 113.516548 -178.544573 
L 114.08856 -176.709748 
L 114.691596 -174.874922 
L 115.314945 -173.040096 
L 115.947737 -171.205271 
L 116.579752 -169.370445 
L 117.202188 -167.53562 
L 117.808305 -165.700794 
L 118.393889 -163.865968 
L 118.957505 -162.031143 
L 119.500538 -160.196317 
L 120.027038 -158.361491 
L 120.54342 -156.526666 
L 121.058058 -154.69184 
L 121.580815 -152.857015 
L 122.12254 -151.022189 
L 122.69454 -149.187363 
L 123.308045 -147.352538 
L 123.973635 -145.517712 
L 124.700654 -143.682887 
L 125.496588 -141.848061 
L 126.366431 -140.013235 
L 127.312046 -138.17841 
L 128.331567 -136.343584 
L 129.418863 -134.508758 
L 130.563114 -132.673933 
L 131.748549 -130.839107 
L 132.954389 -129.004282 
L 134.155059 -127.169456 
L 135.320713 -125.33463 
L 136.418105 -123.499805 
L 137.411831 -121.664979 
L 138.265908 -119.830154 
L 138.94564 -117.995328 
L 139.419651 -116.160502 
L 139.66192 -114.325677 
L 139.65365 -112.490851 
L 139.384759 -110.656026 
L 138.854817 -108.8212 
L 138.073322 -106.986374 
L 137.059228 -105.151549 
L 135.839786 -103.316723 
L 134.448778 -101.481897 
L 132.924337 -99.647072 
L 131.306579 -97.812246 
L 129.635256 -95.977421 
L 127.947664 -94.142595 
L 126.276951 -92.307769 
L 124.65094 -90.472944 
L 123.091495 -88.638118 
L 121.614405 -86.803293 
L 120.229717 -84.968467 
L 118.942407 -83.133641 
L 117.753274 -81.298816 
L 116.659948 -79.46399 
L 115.657901 -77.629164 
L 114.74138 -75.794339 
L 113.904204 -73.959513 
L 113.140373 -72.124688 
L 112.44449 -70.289862 
z
" style="stroke: #4c72b0; stroke-opacity: 0.35; stroke-width: 1.2"/>
    </defs>
    <g clip-path="url(#p5c4bb785dd)">
     <use xlink:href="#m79bfb4a1d9" x="0" y="351.598625" style="fill: #4c72b0; fill-opacity: 0.35; stroke: #4c72b0; stroke-opacity: 0.35; stroke-width: 1.2"/>
    </g>
   </g>
   <g id="FillBetweenPolyCollection_2">
    <defs>
     <path id="m3447592f6d" d="M 227.218451 -71.323135 
L 200.525389 -71.323135 
L 198.937735 -72.89256 
L 197.349094 -74.461985 
L 195.785656 -76.03141 
L 194.271519 -77.600835 
L 192.827357 -79.17026 
L 191.469407 -80.739685 
L 190.208857 -82.30911 
L 189.051717 -83.878535 
L 187.99917 -85.44796 
L 187.048366 -87.017385 
L 186.193565 -88.58681 
L 185.427485 -90.156235 
L 184.742731 -91.72566 
L 184.133127 -93.295085 
L 183.594838 -94.864509 
L 183.127176 -96.433934 
L 182.733035 -98.003359 
L 182.41894 -99.572784 
L 182.194723 -101.142209 
L 182.072876 -102.711634 
L 182.067634 -104.281059 
L 182.193855 -105.850484 
L 182.465767 -107.419909 
L 182.895653 -108.989334 
L 183.492555 -110.558759 
L 184.261088 -112.128184 
L 185.200454 -113.697609 
L 186.30377 -115.267034 
L 187.557796 -116.836458 
L 188.943127 -118.405883 
L 190.434895 -119.975308 
L 192.00394 -121.544733 
L 193.61838 -123.114158 
L 195.245439 -124.683583 
L 196.853353 -126.253008 
L 198.413158 -127.822433 
L 199.900178 -129.391858 
L 201.295053 -130.961283 
L 202.584237 -132.530708 
L 203.759932 -134.100133 
L 204.819538 -135.669558 
L 205.764721 -137.238983 
L 206.600285 -138.808407 
L 207.332996 -140.377832 
L 207.970541 -141.947257 
L 208.520718 -143.516682 
L 208.990932 -145.086107 
L 209.388009 -146.655532 
L 209.718253 -148.224957 
L 209.987689 -149.794382 
L 210.202376 -151.363807 
L 210.368687 -152.933232 
L 210.493488 -154.502657 
L 210.584168 -156.072082 
L 210.648503 -157.641507 
L 210.694401 -159.210932 
L 210.729551 -160.780356 
L 210.761071 -162.349781 
L 210.795183 -163.919206 
L 210.836986 -165.488631 
L 210.890338 -167.058056 
L 210.957853 -168.627481 
L 211.040984 -170.196906 
L 211.140171 -171.766331 
L 211.255 -173.335756 
L 211.384351 -174.905181 
L 211.52651 -176.474606 
L 211.679246 -178.044031 
L 211.839848 -179.613456 
L 212.00517 -181.182881 
L 212.17168 -182.752305 
L 212.335554 -184.32173 
L 212.492818 -185.891155 
L 212.639539 -187.46058 
L 212.772058 -189.030005 
L 212.887231 -190.59943 
L 212.982661 -192.168855 
L 213.05688 -193.73828 
L 213.109467 -195.307705 
L 213.141075 -196.87713 
L 213.153366 -198.446555 
L 213.148858 -200.01598 
L 213.130702 -201.585405 
L 213.102412 -203.15483 
L 213.067578 -204.724254 
L 213.029605 -206.293679 
L 212.991499 -207.863104 
L 212.95572 -209.432529 
L 212.92413 -211.001954 
L 212.898017 -212.571379 
L 212.87819 -214.140804 
L 212.865118 -215.710229 
L 212.859074 -217.279654 
L 212.860274 -218.849079 
L 212.86895 -220.418504 
L 212.885381 -221.987929 
L 212.909852 -223.557354 
L 212.942568 -225.126779 
L 212.98354 -226.696203 
L 214.760299 -226.696203 
L 214.760299 -226.696203 
L 214.801272 -225.126779 
L 214.833987 -223.557354 
L 214.858458 -221.987929 
L 214.874889 -220.418504 
L 214.883566 -218.849079 
L 214.884765 -217.279654 
L 214.878722 -215.710229 
L 214.865649 -214.140804 
L 214.845822 -212.571379 
L 214.819709 -211.001954 
L 214.78812 -209.432529 
L 214.752341 -207.863104 
L 214.714234 -206.293679 
L 214.676262 -204.724254 
L 214.641428 -203.15483 
L 214.613137 -201.585405 
L 214.594981 -200.01598 
L 214.590474 -198.446555 
L 214.602765 -196.87713 
L 214.634372 -195.307705 
L 214.68696 -193.73828 
L 214.761179 -192.168855 
L 214.856608 -190.59943 
L 214.971782 -189.030005 
L 215.1043 -187.46058 
L 215.251021 -185.891155 
L 215.408285 -184.32173 
L 215.572159 -182.752305 
L 215.73867 -181.182881 
L 215.903992 -179.613456 
L 216.064594 -178.044031 
L 216.217329 -176.474606 
L 216.359488 -174.905181 
L 216.488839 -173.335756 
L 216.603668 -171.766331 
L 216.702855 -170.196906 
L 216.785987 -168.627481 
L 216.853501 -167.058056 
L 216.906853 -165.488631 
L 216.948656 -163.919206 
L 216.982768 -162.349781 
L 217.014288 -160.780356 
L 217.049438 -159.210932 
L 217.095336 -157.641507 
L 217.159671 -156.072082 
L 217.250351 -154.502657 
L 217.375152 -152.933232 
L 217.541463 -151.363807 
L 217.75615 -149.794382 
L 218.025587 -148.224957 
L 218.35583 -146.655532 
L 218.752907 -145.086107 
L 219.223122 -143.516682 
L 219.773298 -141.947257 
L 220.410843 -140.377832 
L 221.143555 -138.808407 
L 221.979118 -137.238983 
L 222.924302 -135.669558 
L 223.983907 -134.100133 
L 225.159602 -132.530708 
L 226.448786 -130.961283 
L 227.843661 -129.391858 
L 229.330681 -127.822433 
L 230.890486 -126.253008 
L 232.4984 -124.683583 
L 234.125459 -123.114158 
L 235.739899 -121.544733 
L 237.308944 -119.975308 
L 238.800712 -118.405883 
L 240.186044 -116.836458 
L 241.440069 -115.267034 
L 242.543386 -113.697609 
L 243.482751 -112.128184 
L 244.251284 -110.558759 
L 244.848187 -108.989334 
L 245.278073 -107.419909 
L 245.549984 -105.850484 
L 245.676205 -104.281059 
L 245.670963 -102.711634 
L 245.549117 -101.142209 
L 245.3249 -99.572784 
L 245.010805 -98.003359 
L 244.616664 -96.433934 
L 244.149001 -94.864509 
L 243.610712 -93.295085 
L 243.001109 -91.72566 
L 242.316355 -90.156235 
L 241.550275 -88.58681 
L 240.695473 -87.017385 
L 239.74467 -85.44796 
L 238.692122 -83.878535 
L 237.534982 -82.30911 
L 236.274432 -80.739685 
L 234.916482 -79.17026 
L 233.472321 -77.600835 
L 231.958183 -76.03141 
L 230.394746 -74.461985 
L 228.806105 -72.89256 
L 227.218451 -71.323135 
z
" style="stroke: #55a868; stroke-opacity: 0.35; stroke-width: 1.2"/>
    </defs>
    <g clip-path="url(#p5c4bb785dd)">
     <use xlink:href="#m3447592f6d" x="0" y="351.598625" style="fill: #55a868; fill-opacity: 0.35; stroke: #55a868; stroke-opacity: 0.35; stroke-width: 1.2"/>
    </g>
   </g>
   <g id="FillBetweenPolyCollection_3">
    <defs>
     <path id="m9fc29383f5" d="M 326.337626 -53.661974 
L 313.434785 -53.661974 
L 312.343515 -54.599998 
L 311.141107 -55.538022 
L 309.832314 -56.476046 
L 308.425458 -57.41407 
L 306.932496 -58.352094 
L 305.368893 -59.290118 
L 303.753313 -60.228141 
L 302.107134 -61.166165 
L 300.453804 -62.104189 
L 298.818101 -63.042213 
L 297.225311 -63.980237 
L 295.700395 -64.918261 
L 294.267178 -65.856285 
L 292.947604 -66.794309 
L 291.761078 -67.732333 
L 290.723926 -68.670357 
L 289.848968 -69.60838 
L 289.145216 -70.546404 
L 288.617683 -71.484428 
L 288.267321 -72.422452 
L 288.091051 -73.360476 
L 288.08192 -74.2985 
L 288.229359 -75.236524 
L 288.519566 -76.174548 
L 288.935991 -77.112572 
L 289.459941 -78.050596 
L 290.071275 -78.988619 
L 290.749174 -79.926643 
L 291.472951 -80.864667 
L 292.222858 -81.802691 
L 292.980847 -82.740715 
L 293.731225 -83.678739 
L 294.461181 -84.616763 
L 295.161126 -85.554787 
L 295.824834 -86.492811 
L 296.449382 -87.430834 
L 297.034889 -88.368858 
L 297.584093 -89.306882 
L 298.101782 -90.244906 
L 298.594157 -91.18293 
L 299.068158 -92.120954 
L 299.53081 -93.058978 
L 299.988639 -93.997002 
L 300.447197 -94.935026 
L 300.910716 -95.87305 
L 301.381911 -96.811073 
L 301.861932 -97.749097 
L 302.350443 -98.687121 
L 302.845821 -99.625145 
L 303.345433 -100.563169 
L 303.845969 -101.501193 
L 304.343786 -102.439217 
L 304.835239 -103.377241 
L 305.316984 -104.315265 
L 305.78621 -105.253289 
L 306.240823 -106.191312 
L 306.679549 -107.129336 
L 307.101981 -108.06736 
L 307.508569 -109.005384 
L 307.900563 -109.943408 
L 308.279919 -110.881432 
L 308.649175 -111.819456 
L 309.011308 -112.75748 
L 309.36956 -113.695504 
L 309.727258 -114.633528 
L 310.087617 -115.571551 
L 310.453525 -116.509575 
L 310.82734 -117.447599 
L 311.210694 -118.385623 
L 311.604321 -119.323647 
L 312.007929 -120.261671 
L 312.420135 -121.199695 
L 312.838463 -122.137719 
L 313.259427 -123.075743 
L 313.678687 -124.013766 
L 314.091279 -124.95179 
L 314.491904 -125.889814 
L 314.875246 -126.827838 
L 315.236303 -127.765862 
L 315.570707 -128.703886 
L 315.874998 -129.64191 
L 316.146843 -130.579934 
L 316.385168 -131.517958 
L 316.590221 -132.455982 
L 316.763529 -133.394005 
L 316.907792 -134.332029 
L 317.026694 -135.270053 
L 317.124665 -136.208077 
L 317.206613 -137.146101 
L 317.27763 -138.084125 
L 317.342713 -139.022149 
L 317.406502 -139.960173 
L 317.473062 -140.898197 
L 317.545711 -141.836221 
L 317.626903 -142.774244 
L 317.718178 -143.712268 
L 317.820162 -144.650292 
L 317.932624 -145.588316 
L 318.054576 -146.52634 
L 321.717834 -146.52634 
L 321.717834 -146.52634 
L 321.839787 -145.588316 
L 321.952249 -144.650292 
L 322.054232 -143.712268 
L 322.145507 -142.774244 
L 322.2267 -141.836221 
L 322.299348 -140.898197 
L 322.365909 -139.960173 
L 322.429698 -139.022149 
L 322.49478 -138.084125 
L 322.565797 -137.146101 
L 322.647745 -136.208077 
L 322.745717 -135.270053 
L 322.864619 -134.332029 
L 323.008881 -133.394005 
L 323.18219 -132.455982 
L 323.387242 -131.517958 
L 323.625568 -130.579934 
L 323.897413 -129.64191 
L 324.201704 -128.703886 
L 324.536108 -127.765862 
L 324.897165 -126.827838 
L 325.280506 -125.889814 
L 325.681132 -124.95179 
L 326.093724 -124.013766 
L 326.512984 -123.075743 
L 326.933947 -122.137719 
L 327.352276 -121.199695 
L 327.764482 -120.261671 
L 328.16809 -119.323647 
L 328.561717 -118.385623 
L 328.945071 -117.447599 
L 329.318886 -116.509575 
L 329.684794 -115.571551 
L 330.045152 -114.633528 
L 330.402851 -113.695504 
L 330.761103 -112.75748 
L 331.123235 -111.819456 
L 331.492492 -110.881432 
L 331.871848 -109.943408 
L 332.263841 -109.005384 
L 332.670429 -108.06736 
L 333.092861 -107.129336 
L 333.531587 -106.191312 
L 333.9862 -105.253289 
L 334.455427 -104.315265 
L 334.937172 -103.377241 
L 335.428625 -102.439217 
L 335.926441 -101.501193 
L 336.426978 -100.563169 
L 336.92659 -99.625145 
L 337.421968 -98.687121 
L 337.910479 -97.749097 
L 338.3905 -96.811073 
L 338.861695 -95.87305 
L 339.325214 -94.935026 
L 339.783771 -93.997002 
L 340.2416 -93.058978 
L 340.704252 -92.120954 
L 341.178254 -91.18293 
L 341.670629 -90.244906 
L 342.188318 -89.306882 
L 342.737521 -88.368858 
L 343.323029 -87.430834 
L 343.947577 -86.492811 
L 344.611285 -85.554787 
L 345.311229 -84.616763 
L 346.041186 -83.678739 
L 346.791564 -82.740715 
L 347.549552 -81.802691 
L 348.29946 -80.864667 
L 349.023237 -79.926643 
L 349.701136 -78.988619 
L 350.31247 -78.050596 
L 350.836419 -77.112572 
L 351.252844 -76.174548 
L 351.543051 -75.236524 
L 351.690491 -74.2985 
L 351.68136 -73.360476 
L 351.50509 -72.422452 
L 351.154727 -71.484428 
L 350.627195 -70.546404 
L 349.923442 -69.60838 
L 349.048485 -68.670357 
L 348.011333 -67.732333 
L 346.824807 -66.794309 
L 345.505232 -65.856285 
L 344.072015 -64.918261 
L 342.547099 -63.980237 
L 340.954309 -63.042213 
L 339.318607 -62.104189 
L 337.665277 -61.166165 
L 336.019097 -60.228141 
L 334.403518 -59.290118 
L 332.839915 -58.352094 
L 331.346953 -57.41407 
L 329.940097 -56.476046 
L 328.631304 -55.538022 
L 327.428896 -54.599998 
L 326.337626 -53.661974 
z
" style="stroke: #c44e52; stroke-opacity: 0.35; stroke-width: 1.2"/>
    </defs>
    <g clip-path="url(#p5c4bb785dd)">
     <use xlink:href="#m9fc29383f5" x="0" y="351.598625" style="fill: #c44e52; fill-opacity: 0.35; stroke: #c44e52; stroke-opacity: 0.35; stroke-width: 1.2"/>
    </g>
   </g>
   <g id="FillBetweenPolyCollection_4">
    <defs>
     <path id="mdef3113aa3" d="M 431.851719 -48.565071 
L 419.949263 -48.565071 
L 419.132217 -49.173405 
L 418.251965 -49.781739 
L 417.306528 -50.390073 
L 416.293797 -50.998407 
L 415.211934 -51.606741 
L 414.059916 -52.215076 
L 412.8382 -52.82341 
L 411.549414 -53.431744 
L 410.199007 -54.040078 
L 408.79576 -54.648412 
L 407.352082 -55.256746 
L 405.884026 -55.865081 
L 404.410985 -56.473415 
L 402.955081 -57.081749 
L 401.540277 -57.690083 
L 400.19128 -58.298417 
L 398.932352 -58.906751 
L 397.786111 -59.515085 
L 396.772467 -60.12342 
L 395.907765 -60.731754 
L 395.204218 -61.340088 
L 394.669664 -61.948422 
L 394.307642 -62.556756 
L 394.11775 -63.16509 
L 394.096205 -63.773425 
L 394.236524 -64.381759 
L 394.530223 -64.990093 
L 394.967453 -65.598427 
L 395.537507 -66.206761 
L 396.229154 -66.815095 
L 397.03081 -67.423429 
L 397.930555 -68.031764 
L 398.916055 -68.640098 
L 399.974443 -69.248432 
L 401.092215 -69.856766 
L 402.255202 -70.4651 
L 403.448638 -71.073434 
L 404.657352 -71.681768 
L 405.866064 -72.290103 
L 407.059775 -72.898437 
L 408.224204 -73.506771 
L 409.34624 -74.115105 
L 410.414374 -74.723439 
L 411.419058 -75.331773 
L 412.352983 -75.940108 
L 413.21125 -76.548442 
L 413.991416 -77.156776 
L 414.693434 -77.76511 
L 415.319479 -78.373444 
L 415.873675 -78.981778 
L 416.361766 -79.590112 
L 416.790732 -80.198447 
L 417.168393 -80.806781 
L 417.503023 -81.415115 
L 417.803 -82.023449 
L 418.076503 -82.631783 
L 418.331274 -83.240117 
L 418.574433 -83.848452 
L 418.812349 -84.456786 
L 419.050557 -85.06512 
L 419.293695 -85.673454 
L 419.545468 -86.281788 
L 419.808613 -86.890122 
L 420.084872 -87.498456 
L 420.374972 -88.106791 
L 420.678615 -88.715125 
L 420.994491 -89.323459 
L 421.320319 -89.931793 
L 421.652924 -90.540127 
L 421.988346 -91.148461 
L 422.322001 -91.756795 
L 422.648859 -92.36513 
L 422.963658 -92.973464 
L 423.261131 -93.581798 
L 423.536241 -94.190132 
L 423.784409 -94.798466 
L 424.00173 -95.4068 
L 424.185168 -96.015135 
L 424.332723 -96.623469 
L 424.443556 -97.231803 
L 424.518067 -97.840137 
L 424.557926 -98.448471 
L 424.566036 -99.056805 
L 424.546437 -99.665139 
L 424.504142 -100.273474 
L 424.444913 -100.881808 
L 424.374989 -101.490142 
L 424.300779 -102.098476 
L 424.228541 -102.70681 
L 424.164068 -103.315144 
L 424.112411 -103.923479 
L 424.077653 -104.531813 
L 424.062747 -105.140147 
L 424.069443 -105.748481 
L 424.098282 -106.356815 
L 424.148675 -106.965149 
L 424.219032 -107.573483 
L 424.306946 -108.181818 
L 424.409403 -108.790152 
L 427.391579 -108.790152 
L 427.391579 -108.790152 
L 427.494036 -108.181818 
L 427.58195 -107.573483 
L 427.652307 -106.965149 
L 427.7027 -106.356815 
L 427.73154 -105.748481 
L 427.738235 -105.140147 
L 427.72333 -104.531813 
L 427.688571 -103.923479 
L 427.636914 -103.315144 
L 427.572441 -102.70681 
L 427.500203 -102.098476 
L 427.425994 -101.490142 
L 427.35607 -100.881808 
L 427.29684 -100.273474 
L 427.254545 -99.665139 
L 427.234946 -99.056805 
L 427.243056 -98.448471 
L 427.282915 -97.840137 
L 427.357426 -97.231803 
L 427.468259 -96.623469 
L 427.615814 -96.015135 
L 427.799253 -95.4068 
L 428.016573 -94.798466 
L 428.264741 -94.190132 
L 428.539851 -93.581798 
L 428.837325 -92.973464 
L 429.152123 -92.36513 
L 429.478981 -91.756795 
L 429.812636 -91.148461 
L 430.148058 -90.540127 
L 430.480663 -89.931793 
L 430.806491 -89.323459 
L 431.122368 -88.715125 
L 431.426011 -88.106791 
L 431.71611 -87.498456 
L 431.99237 -86.890122 
L 432.255515 -86.281788 
L 432.507288 -85.673454 
L 432.750426 -85.06512 
L 432.988633 -84.456786 
L 433.226549 -83.848452 
L 433.469708 -83.240117 
L 433.724479 -82.631783 
L 433.997982 -82.023449 
L 434.297959 -81.415115 
L 434.632589 -80.806781 
L 435.01025 -80.198447 
L 435.439216 -79.590112 
L 435.927308 -78.981778 
L 436.481504 -78.373444 
L 437.107548 -77.76511 
L 437.809567 -77.156776 
L 438.589733 -76.548442 
L 439.447999 -75.940108 
L 440.381924 -75.331773 
L 441.386608 -74.723439 
L 442.454742 -74.115105 
L 443.576779 -73.506771 
L 444.741207 -72.898437 
L 445.934918 -72.290103 
L 447.14363 -71.681768 
L 448.352344 -71.073434 
L 449.54578 -70.4651 
L 450.708767 -69.856766 
L 451.826539 -69.248432 
L 452.884927 -68.640098 
L 453.870427 -68.031764 
L 454.770172 -67.423429 
L 455.571828 -66.815095 
L 456.263475 -66.206761 
L 456.833529 -65.598427 
L 457.270759 -64.990093 
L 457.564458 -64.381759 
L 457.704777 -63.773425 
L 457.683232 -63.16509 
L 457.49334 -62.556756 
L 457.131318 -61.948422 
L 456.596764 -61.340088 
L 455.893217 -60.731754 
L 455.028515 -60.12342 
L 454.014871 -59.515085 
L 452.86863 -58.906751 
L 451.609702 -58.298417 
L 450.260705 -57.690083 
L 448.845901 -57.081749 
L 447.389998 -56.473415 
L 445.916957 -55.865081 
L 444.4489 -55.256746 
L 443.005222 -54.648412 
L 441.601975 -54.040078 
L 440.251568 -53.431744 
L 438.962782 -52.82341 
L 437.741067 -52.215076 
L 436.589049 -51.606741 
L 435.507185 -50.998407 
L 434.494454 -50.390073 
L 433.549018 -49.781739 
L 432.668765 -49.173405 
L 431.851719 -48.565071 
z
" style="stroke: #8172b2; stroke-opacity: 0.35; stroke-width: 1.2"/>
    </defs>
    <g clip-path="url(#p5c4bb785dd)">
     <use xlink:href="#mdef3113aa3" x="0" y="351.598625" style="fill: #8172b2; fill-opacity: 0.35; stroke: #8172b2; stroke-opacity: 0.35; stroke-width: 1.2"/>
    </g>
   </g>
   <g id="matplotlib.axis_1">
    <g id="xtick_1">
     <g id="line2d_1">
      <defs>
       <path id="mc0f1a5659b" d="M 0 0 
L 0 3 
" style="stroke: #000000; stroke-width: 0.8"/>
      </defs>
      <g>
       <use xlink:href="#mc0f1a5659b" x="107.857634" y="317.022687" style="stroke: #000000; stroke-width: 0.8"/>
      </g>
     </g>
     <g id="text_1">
      <!-- Control -->
      <g transform="translate(89.78654 331.121125) scale(0.1 -0.1)">
       <defs>
        <path id="DejaVuSans-43" d="M 4122 4306 
L 4122 3641 
Q 3803 3938 3442 4084 
Q 3081 4231 2675 4231 
Q 1875 4231 1450 3742 
Q 1025 3253 1025 2328 
Q 1025 1406 1450 917 
Q 1875 428 2675 428 
Q 3081 428 3442 575 
Q 3803 722 4122 1019 
L 4122 359 
Q 3791 134 3420 21 
Q 3050 -91 2638 -91 
Q 1578 -91 968 557 
Q 359 1206 359 2328 
Q 359 3453 968 4101 
Q 1578 4750 2638 4750 
Q 3056 4750 3426 4639 
Q 3797 4528 4122 4306 
z
" transform="scale(0.015625)"/>
        <path id="DejaVuSans-6f" d="M 1959 3097 
Q 1497 3097 1228 2736 
Q 959 2375 959 1747 
Q 959 1119 1226 758 
Q 1494 397 1959 397 
Q 2419 397 2687 759 
Q 2956 1122 2956 1747 
Q 2956 2369 2687 2733 
Q 2419 3097 1959 3097 
z
M 1959 3584 
Q 2709 3584 3137 3096 
Q 3566 2609 3566 1747 
Q 3566 888 3137 398 
Q 2709 -91 1959 -91 
Q 1206 -91 779 398 
Q 353 888 353 1747 
Q 353 2609 779 3096 
Q 1206 3584 1959 3584 
z
" transform="scale(0.015625)"/>
        <path id="DejaVuSans-6e" d="M 3513 2113 
L 3513 0 
L 2938 0 
L 2938 2094 
Q 2938 2591 2744 2837 
Q 2550 3084 2163 3084 
Q 1697 3084 1428 2787 
Q 1159 2491 1159 1978 
L 1159 0 
L 581 0 
L 581 3500 
L 1159 3500 
L 1159 2956 
Q 1366 3272 1645 3428 
Q 1925 3584 2291 3584 
Q 2894 3584 3203 3211 
Q 3513 2838 3513 2113 
z
" transform="scale(0.015625)"/>
        <path id="DejaVuSans-74" d="M 1172 4494 
L 1172 3500 
L 2356 3500 
L 2356 3053 
L 1172 3053 
L 1172 1153 
Q 1172 725 1289 603 
Q 1406 481 1766 481 
L 2356 481 
L 2356 0 
L 1766 0 
Q 1100 0 847 248 
Q 594 497 594 1153 
L 594 3053 
L 172 3053 
L 172 3500 
L 594 3500 
L 594 4494 
L 1172 4494 
z
" transform="scale(0.015625)"/>
        <path id="DejaVuSans-72" d="M 2631 2963 
Q 2534 3019 2420 3045 
Q 2306 3072 2169 3072 
Q 1681 3072 1420 2755 
Q 1159 2438 1159 1844 
L 1159 0 
L 581 0 
L 581 3500 
L 1159 3500 
L 1159 2956 
Q 1341 3275 1631 3429 
Q 1922 3584 2338 3584 
Q 2397 3584 2469 3576 
Q 2541 3569 2628 3553 
L 2631 2963 
z
" transform="scale(0.015625)"/>
        <path id="DejaVuSans-6c" d="M 603 4863 
L 1178 4863 
L 1178 0 
L 603 0 
L 603 4863 
z
" transform="scale(0.015625)"/>
       </defs>
       <use xlink:href="#DejaVuSans-43"/>
       <use xlink:href="#DejaVuSans-6f" transform="translate(69.824219 0)"/>
       <use xlink:href="#DejaVuSans-6e" transform="translate(131.005859 0)"/>
       <use xlink:href="#DejaVuSans-74" transform="translate(194.384766 0)"/>
       <use xlink:href="#DejaVuSans-72" transform="translate(233.59375 0)"/>
       <use xlink:href="#DejaVuSans-6f" transform="translate(272.457031 0)"/>
       <use xlink:href="#DejaVuSans-6c" transform="translate(333.638672 0)"/>
      </g>
     </g>
    </g>
    <g id="xtick_2">
     <g id="line2d_2">
      <g>
       <use xlink:href="#mc0f1a5659b" x="213.87192" y="317.022687" style="stroke: #000000; stroke-width: 0.8"/>
      </g>
     </g>
     <g id="text_2">
      <!-- Drug-A -->
      <g transform="translate(196.511763 331.121125) scale(0.1 -0.1)">
       <defs>
        <path id="DejaVuSans-44" d="M 1259 4147 
L 1259 519 
L 2022 519 
Q 2988 519 3436 956 
Q 3884 1394 3884 2338 
Q 3884 3275 3436 3711 
Q 2988 4147 2022 4147 
L 1259 4147 
z
M 628 4666 
L 1925 4666 
Q 3281 4666 3915 4102 
Q 4550 3538 4550 2338 
Q 4550 1131 3912 565 
Q 3275 0 1925 0 
L 628 0 
L 628 4666 
z
" transform="scale(0.015625)"/>
        <path id="DejaVuSans-75" d="M 544 1381 
L 544 3500 
L 1119 3500 
L 1119 1403 
Q 1119 906 1312 657 
Q 1506 409 1894 409 
Q 2359 409 2629 706 
Q 2900 1003 2900 1516 
L 2900 3500 
L 3475 3500 
L 3475 0 
L 2900 0 
L 2900 538 
Q 2691 219 2414 64 
Q 2138 -91 1772 -91 
Q 1169 -91 856 284 
Q 544 659 544 1381 
z
M 1991 3584 
L 1991 3584 
z
" transform="scale(0.015625)"/>
        <path id="DejaVuSans-67" d="M 2906 1791 
Q 2906 2416 2648 2759 
Q 2391 3103 1925 3103 
Q 1463 3103 1205 2759 
Q 947 2416 947 1791 
Q 947 1169 1205 825 
Q 1463 481 1925 481 
Q 2391 481 2648 825 
Q 2906 1169 2906 1791 
z
M 3481 434 
Q 3481 -459 3084 -895 
Q 2688 -1331 1869 -1331 
Q 1566 -1331 1297 -1286 
Q 1028 -1241 775 -1147 
L 775 -588 
Q 1028 -725 1275 -790 
Q 1522 -856 1778 -856 
Q 2344 -856 2625 -561 
Q 2906 -266 2906 331 
L 2906 616 
Q 2728 306 2450 153 
Q 2172 0 1784 0 
Q 1141 0 747 490 
Q 353 981 353 1791 
Q 353 2603 747 3093 
Q 1141 3584 1784 3584 
Q 2172 3584 2450 3431 
Q 2728 3278 2906 2969 
L 2906 3500 
L 3481 3500 
L 3481 434 
z
" transform="scale(0.015625)"/>
        <path id="DejaVuSans-2d" d="M 313 2009 
L 1997 2009 
L 1997 1497 
L 313 1497 
L 313 2009 
z
" transform="scale(0.015625)"/>
        <path id="DejaVuSans-41" d="M 2188 4044 
L 1331 1722 
L 3047 1722 
L 2188 4044 
z
M 1831 4666 
L 2547 4666 
L 4325 0 
L 3669 0 
L 3244 1197 
L 1141 1197 
L 716 0 
L 50 0 
L 1831 4666 
z
" transform="scale(0.015625)"/>
       </defs>
       <use xlink:href="#DejaVuSans-44"/>
       <use xlink:href="#DejaVuSans-72" transform="translate(77.001953 0)"/>
       <use xlink:href="#DejaVuSans-75" transform="translate(118.115234 0)"/>
       <use xlink:href="#DejaVuSans-67" transform="translate(181.494141 0)"/>
       <use xlink:href="#DejaVuSans-2d" transform="translate(244.970703 0)"/>
       <use xlink:href="#DejaVuSans-41" transform="translate(278.804688 0)"/>
      </g>
      <!-- 10 µM -->
      <g transform="translate(198.425045 342.318937) scale(0.1 -0.1)">
       <defs>
        <path id="DejaVuSans-31" d="M 794 531 
L 1825 531 
L 1825 4091 
L 703 3866 
L 703 4441 
L 1819 4666 
L 2450 4666 
L 2450 531 
L 3481 531 
L 3481 0 
L 794 0 
L 794 531 
z
" transform="scale(0.015625)"/>
        <path id="DejaVuSans-30" d="M 2034 4250 
Q 1547 4250 1301 3770 
Q 1056 3291 1056 2328 
Q 1056 1369 1301 889 
Q 1547 409 2034 409 
Q 2525 409 2770 889 
Q 3016 1369 3016 2328 
Q 3016 3291 2770 3770 
Q 2525 4250 2034 4250 
z
M 2034 4750 
Q 2819 4750 3233 4129 
Q 3647 3509 3647 2328 
Q 3647 1150 3233 529 
Q 2819 -91 2034 -91 
Q 1250 -91 836 529 
Q 422 1150 422 2328 
Q 422 3509 836 4129 
Q 1250 4750 2034 4750 
z
" transform="scale(0.015625)"/>
        <path id="DejaVuSans-20" transform="scale(0.015625)"/>
        <path id="DejaVuSans-b5" d="M 544 -1331 
L 544 3500 
L 1119 3500 
L 1119 1325 
Q 1119 872 1334 640 
Q 1550 409 1972 409 
Q 2434 409 2667 671 
Q 2900 934 2900 1459 
L 2900 3500 
L 3475 3500 
L 3475 806 
Q 3475 619 3529 530 
Q 3584 441 3700 441 
Q 3728 441 3778 458 
Q 3828 475 3916 513 
L 3916 50 
Q 3788 -22 3673 -56 
Q 3559 -91 3450 -91 
Q 3234 -91 3106 31 
Q 2978 153 2931 403 
Q 2775 156 2548 32 
Q 2322 -91 2016 -91 
Q 1697 -91 1473 31 
Q 1250 153 1119 397 
L 1119 -1331 
L 544 -1331 
z
" transform="scale(0.015625)"/>
        <path id="DejaVuSans-4d" d="M 628 4666 
L 1569 4666 
L 2759 1491 
L 3956 4666 
L 4897 4666 
L 4897 0 
L 4281 0 
L 4281 4097 
L 3078 897 
L 2444 897 
L 1241 4097 
L 1241 0 
L 628 0 
L 628 4666 
z
" transform="scale(0.015625)"/>
       </defs>
       <use xlink:href="#DejaVuSans-31"/>
       <use xlink:href="#DejaVuSans-30" transform="translate(63.623047 0)"/>
       <use xlink:href="#DejaVuSans-20" transform="translate(127.246094 0)"/>
       <use xlink:href="#DejaVuSans-b5" transform="translate(159.033203 0)"/>
       <use xlink:href="#DejaVuSans-4d" transform="translate(222.65625 0)"/>
      </g>
     </g>
    </g>
    <g id="xtick_3">
     <g id="line2d_3">
      <g>
       <use xlink:href="#mc0f1a5659b" x="319.886205" y="317.022687" style="stroke: #000000; stroke-width: 0.8"/>
      </g>
     </g>
     <g id="text_3">
      <!-- Drug-A -->
      <g transform="translate(302.526049 331.121125) scale(0.1 -0.1)">
       <use xlink:href="#DejaVuSans-44"/>
       <use xlink:href="#DejaVuSans-72" transform="translate(77.001953 0)"/>
       <use xlink:href="#DejaVuSans-75" transform="translate(118.115234 0)"/>
       <use xlink:href="#DejaVuSans-67" transform="translate(181.494141 0)"/>
       <use xlink:href="#DejaVuSans-2d" transform="translate(244.970703 0)"/>
       <use xlink:href="#DejaVuSans-41" transform="translate(278.804688 0)"/>
      </g>
      <!-- 50 µM -->
      <g transform="translate(304.43933 342.318937) scale(0.1 -0.1)">
       <defs>
        <path id="DejaVuSans-35" d="M 691 4666 
L 3169 4666 
L 3169 4134 
L 1269 4134 
L 1269 2991 
Q 1406 3038 1543 3061 
Q 1681 3084 1819 3084 
Q 2600 3084 3056 2656 
Q 3513 2228 3513 1497 
Q 3513 744 3044 326 
Q 2575 -91 1722 -91 
Q 1428 -91 1123 -41 
Q 819 9 494 109 
L 494 744 
Q 775 591 1075 516 
Q 1375 441 1709 441 
Q 2250 441 2565 725 
Q 2881 1009 2881 1497 
Q 2881 1984 2565 2268 
Q 2250 2553 1709 2553 
Q 1456 2553 1204 2497 
Q 953 2441 691 2322 
L 691 4666 
z
" transform="scale(0.015625)"/>
       </defs>
       <use xlink:href="#DejaVuSans-35"/>
       <use xlink:href="#DejaVuSans-30" transform="translate(63.623047 0)"/>
       <use xlink:href="#DejaVuSans-20" transform="translate(127.246094 0)"/>
       <use xlink:href="#DejaVuSans-b5" transform="translate(159.033203 0)"/>
       <use xlink:href="#DejaVuSans-4d" transform="translate(222.65625 0)"/>
      </g>
     </g>
    </g>
    <g id="xtick_4">
     <g id="line2d_4">
      <g>
       <use xlink:href="#mc0f1a5659b" x="425.900491" y="317.022687" style="stroke: #000000; stroke-width: 0.8"/>
      </g>
     </g>
     <g id="text_4">
      <!-- Combo -->
      <g transform="translate(408.245804 331.121125) scale(0.1 -0.1)">
       <defs>
        <path id="DejaVuSans-6d" d="M 3328 2828 
Q 3544 3216 3844 3400 
Q 4144 3584 4550 3584 
Q 5097 3584 5394 3201 
Q 5691 2819 5691 2113 
L 5691 0 
L 5113 0 
L 5113 2094 
Q 5113 2597 4934 2840 
Q 4756 3084 4391 3084 
Q 3944 3084 3684 2787 
Q 3425 2491 3425 1978 
L 3425 0 
L 2847 0 
L 2847 2094 
Q 2847 2600 2669 2842 
Q 2491 3084 2119 3084 
Q 1678 3084 1418 2786 
Q 1159 2488 1159 1978 
L 1159 0 
L 581 0 
L 581 3500 
L 1159 3500 
L 1159 2956 
Q 1356 3278 1631 3431 
Q 1906 3584 2284 3584 
Q 2666 3584 2933 3390 
Q 3200 3197 3328 2828 
z
" transform="scale(0.015625)"/>
        <path id="DejaVuSans-62" d="M 3116 1747 
Q 3116 2381 2855 2742 
Q 2594 3103 2138 3103 
Q 1681 3103 1420 2742 
Q 1159 2381 1159 1747 
Q 1159 1113 1420 752 
Q 1681 391 2138 391 
Q 2594 391 2855 752 
Q 3116 1113 3116 1747 
z
M 1159 2969 
Q 1341 3281 1617 3432 
Q 1894 3584 2278 3584 
Q 2916 3584 3314 3078 
Q 3713 2572 3713 1747 
Q 3713 922 3314 415 
Q 2916 -91 2278 -91 
Q 1894 -91 1617 61 
Q 1341 213 1159 525 
L 1159 0 
L 581 0 
L 581 4863 
L 1159 4863 
L 1159 2969 
z
" transform="scale(0.015625)"/>
       </defs>
       <use xlink:href="#DejaVuSans-43"/>
       <use xlink:href="#DejaVuSans-6f" transform="translate(69.824219 0)"/>
       <use xlink:href="#DejaVuSans-6d" transform="translate(131.005859 0)"/>
       <use xlink:href="#DejaVuSans-62" transform="translate(228.417969 0)"/>
       <use xlink:href="#DejaVuSans-6f" transform="translate(291.894531 0)"/>
      </g>
     </g>
    </g>
   </g>
   <g id="matplotlib.axis_2">
    <g id="ytick_1">
     <g id="line2d_5">
      <defs>
       <path id="m62421f35bb" d="M 0 0 
L -3 0 
" style="stroke: #000000; stroke-width: 0.8"/>
      </defs>
      <g>
       <use xlink:href="#m62421f35bb" x="44.249063" y="314.903174" style="stroke: #000000; stroke-width: 0.8"/>
      </g>
     </g>
     <g id="text_5">
      <!-- 0.0 -->
      <g transform="translate(21.845938 318.702393) scale(0.1 -0.1)">
       <defs>
        <path id="DejaVuSans-2e" d="M 684 794 
L 1344 794 
L 1344 0 
L 684 0 
L 684 794 
z
" transform="scale(0.015625)"/>
       </defs>
       <use xlink:href="#DejaVuSans-30"/>
       <use xlink:href="#DejaVuSans-2e" transform="translate(63.623047 0)"/>
       <use xlink:href="#DejaVuSans-30" transform="translate(95.410156 0)"/>
      </g>
     </g>
    </g>
    <g id="ytick_2">
     <g id="line2d_6">
      <g>
       <use xlink:href="#m62421f35bb" x="44.249063" y="271.488323" style="stroke: #000000; stroke-width: 0.8"/>
      </g>
     </g>
     <g id="text_6">
      <!-- 0.5 -->
      <g transform="translate(21.845938 275.287542) scale(0.1 -0.1)">
       <use xlink:href="#DejaVuSans-30"/>
       <use xlink:href="#DejaVuSans-2e" transform="translate(63.623047 0)"/>
       <use xlink:href="#DejaVuSans-35" transform="translate(95.410156 0)"/>
      </g>
     </g>
    </g>
    <g id="ytick_3">
     <g id="line2d_7">
      <g>
       <use xlink:href="#m62421f35bb" x="44.249063" y="228.073473" style="stroke: #000000; stroke-width: 0.8"/>
      </g>
     </g>
     <g id="text_7">
      <!-- 1.0 -->
      <g transform="translate(21.845938 231.872691) scale(0.1 -0.1)">
       <use xlink:href="#DejaVuSans-31"/>
       <use xlink:href="#DejaVuSans-2e" transform="translate(63.623047 0)"/>
       <use xlink:href="#DejaVuSans-30" transform="translate(95.410156 0)"/>
      </g>
     </g>
    </g>
    <g id="ytick_4">
     <g id="line2d_8">
      <g>
       <use xlink:href="#m62421f35bb" x="44.249063" y="184.658622" style="stroke: #000000; stroke-width: 0.8"/>
      </g>
     </g>
     <g id="text_8">
      <!-- 1.5 -->
      <g transform="translate(21.845938 188.457841) scale(0.1 -0.1)">
       <use xlink:href="#DejaVuSans-31"/>
       <use xlink:href="#DejaVuSans-2e" transform="translate(63.623047 0)"/>
       <use xlink:href="#DejaVuSans-35" transform="translate(95.410156 0)"/>
      </g>
     </g>
    </g>
    <g id="ytick_5">
     <g id="line2d_9">
      <g>
       <use xlink:href="#m62421f35bb" x="44.249063" y="141.243771" style="stroke: #000000; stroke-width: 0.8"/>
      </g>
     </g>
     <g id="text_9">
      <!-- 2.0 -->
      <g transform="translate(21.845938 145.04299) scale(0.1 -0.1)">
       <defs>
        <path id="DejaVuSans-32" d="M 1228 531 
L 3431 531 
L 3431 0 
L 469 0 
L 469 531 
Q 828 903 1448 1529 
Q 2069 2156 2228 2338 
Q 2531 2678 2651 2914 
Q 2772 3150 2772 3378 
Q 2772 3750 2511 3984 
Q 2250 4219 1831 4219 
Q 1534 4219 1204 4116 
Q 875 4013 500 3803 
L 500 4441 
Q 881 4594 1212 4672 
Q 1544 4750 1819 4750 
Q 2544 4750 2975 4387 
Q 3406 4025 3406 3419 
Q 3406 3131 3298 2873 
Q 3191 2616 2906 2266 
Q 2828 2175 2409 1742 
Q 1991 1309 1228 531 
z
" transform="scale(0.015625)"/>
       </defs>
       <use xlink:href="#DejaVuSans-32"/>
       <use xlink:href="#DejaVuSans-2e" transform="translate(63.623047 0)"/>
       <use xlink:href="#DejaVuSans-30" transform="translate(95.410156 0)"/>
      </g>
     </g>
    </g>
    <g id="ytick_6">
     <g id="line2d_10">
      <g>
       <use xlink:href="#m62421f35bb" x="44.249063" y="97.82892" style="stroke: #000000; stroke-width: 0.8"/>
      </g>
     </g>
     <g id="text_10">
      <!-- 2.5 -->
      <g transform="translate(21.845938 101.628139) scale(0.1 -0.1)">
       <use xlink:href="#DejaVuSans-32"/>
       <use xlink:href="#DejaVuSans-2e" transform="translate(63.623047 0)"/>
       <use xlink:href="#DejaVuSans-35" transform="translate(95.410156 0)"/>
      </g>
     </g>
    </g>
    <g id="ytick_7">
     <g id="line2d_11">
      <g>
       <use xlink:href="#m62421f35bb" x="44.249063" y="54.41407" style="stroke: #000000; stroke-width: 0.8"/>
      </g>
     </g>
     <g id="text_11">
      <!-- 3.0 -->
      <g transform="translate(21.845938 58.213288) scale(0.1 -0.1)">
       <defs>
        <path id="DejaVuSans-33" d="M 2597 2516 
Q 3050 2419 3304 2112 
Q 3559 1806 3559 1356 
Q 3559 666 3084 287 
Q 2609 -91 1734 -91 
Q 1441 -91 1130 -33 
Q 819 25 488 141 
L 488 750 
Q 750 597 1062 519 
Q 1375 441 1716 441 
Q 2309 441 2620 675 
Q 2931 909 2931 1356 
Q 2931 1769 2642 2001 
Q 2353 2234 1838 2234 
L 1294 2234 
L 1294 2753 
L 1863 2753 
Q 2328 2753 2575 2939 
Q 2822 3125 2822 3475 
Q 2822 3834 2567 4026 
Q 2313 4219 1838 4219 
Q 1578 4219 1281 4162 
Q 984 4106 628 3988 
L 628 4550 
Q 988 4650 1302 4700 
Q 1616 4750 1894 4750 
Q 2613 4750 3031 4423 
Q 3450 4097 3450 3541 
Q 3450 3153 3228 2886 
Q 3006 2619 2597 2516 
z
" transform="scale(0.015625)"/>
       </defs>
       <use xlink:href="#DejaVuSans-33"/>
       <use xlink:href="#DejaVuSans-2e" transform="translate(63.623047 0)"/>
       <use xlink:href="#DejaVuSans-30" transform="translate(95.410156 0)"/>
      </g>
     </g>
    </g>
    <g id="ytick_8">
     <g id="line2d_12">
      <g>
       <use xlink:href="#m62421f35bb" x="44.249063" y="10.999219" style="stroke: #000000; stroke-width: 0.8"/>
      </g>
     </g>
     <g id="text_12">
      <!-- 3.5 -->
      <g transform="translate(21.845938 14.798438) scale(0.1 -0.1)">
       <use xlink:href="#DejaVuSans-33"/>
       <use xlink:href="#DejaVuSans-2e" transform="translate(63.623047 0)"/>
       <use xlink:href="#DejaVuSans-35" transform="translate(95.410156 0)"/>
      </g>
     </g>
    </g>
    <g id="text_13">
     <!-- Relative cell viability -->
     <g transform="translate(15.558281 219.923706) rotate(-90) scale(0.11 -0.11)">
      <defs>
       <path id="DejaVuSans-52" d="M 2841 2188 
Q 3044 2119 3236 1894 
Q 3428 1669 3622 1275 
L 4263 0 
L 3584 0 
L 2988 1197 
Q 2756 1666 2539 1819 
Q 2322 1972 1947 1972 
L 1259 1972 
L 1259 0 
L 628 0 
L 628 4666 
L 2053 4666 
Q 2853 4666 3247 4331 
Q 3641 3997 3641 3322 
Q 3641 2881 3436 2590 
Q 3231 2300 2841 2188 
z
M 1259 4147 
L 1259 2491 
L 2053 2491 
Q 2509 2491 2742 2702 
Q 2975 2913 2975 3322 
Q 2975 3731 2742 3939 
Q 2509 4147 2053 4147 
L 1259 4147 
z
" transform="scale(0.015625)"/>
       <path id="DejaVuSans-65" d="M 3597 1894 
L 3597 1613 
L 953 1613 
Q 991 1019 1311 708 
Q 1631 397 2203 397 
Q 2534 397 2845 478 
Q 3156 559 3463 722 
L 3463 178 
Q 3153 47 2828 -22 
Q 2503 -91 2169 -91 
Q 1331 -91 842 396 
Q 353 884 353 1716 
Q 353 2575 817 3079 
Q 1281 3584 2069 3584 
Q 2775 3584 3186 3129 
Q 3597 2675 3597 1894 
z
M 3022 2063 
Q 3016 2534 2758 2815 
Q 2500 3097 2075 3097 
Q 1594 3097 1305 2825 
Q 1016 2553 972 2059 
L 3022 2063 
z
" transform="scale(0.015625)"/>
       <path id="DejaVuSans-61" d="M 2194 1759 
Q 1497 1759 1228 1600 
Q 959 1441 959 1056 
Q 959 750 1161 570 
Q 1363 391 1709 391 
Q 2188 391 2477 730 
Q 2766 1069 2766 1631 
L 2766 1759 
L 2194 1759 
z
M 3341 1997 
L 3341 0 
L 2766 0 
L 2766 531 
Q 2569 213 2275 61 
Q 1981 -91 1556 -91 
Q 1019 -91 701 211 
Q 384 513 384 1019 
Q 384 1609 779 1909 
Q 1175 2209 1959 2209 
L 2766 2209 
L 2766 2266 
Q 2766 2663 2505 2880 
Q 2244 3097 1772 3097 
Q 1472 3097 1187 3025 
Q 903 2953 641 2809 
L 641 3341 
Q 956 3463 1253 3523 
Q 1550 3584 1831 3584 
Q 2591 3584 2966 3190 
Q 3341 2797 3341 1997 
z
" transform="scale(0.015625)"/>
       <path id="DejaVuSans-69" d="M 603 3500 
L 1178 3500 
L 1178 0 
L 603 0 
L 603 3500 
z
M 603 4863 
L 1178 4863 
L 1178 4134 
L 603 4134 
L 603 4863 
z
" transform="scale(0.015625)"/>
       <path id="DejaVuSans-76" d="M 191 3500 
L 800 3500 
L 1894 563 
L 2988 3500 
L 3597 3500 
L 2284 0 
L 1503 0 
L 191 3500 
z
" transform="scale(0.015625)"/>
       <path id="DejaVuSans-63" d="M 3122 3366 
L 3122 2828 
Q 2878 2963 2633 3030 
Q 2388 3097 2138 3097 
Q 1578 3097 1268 2742 
Q 959 2388 959 1747 
Q 959 1106 1268 751 
Q 1578 397 2138 397 
Q 2388 397 2633 464 
Q 2878 531 3122 666 
L 3122 134 
Q 2881 22 2623 -34 
Q 2366 -91 2075 -91 
Q 1284 -91 818 406 
Q 353 903 353 1747 
Q 353 2603 823 3093 
Q 1294 3584 2113 3584 
Q 2378 3584 2631 3529 
Q 2884 3475 3122 3366 
z
" transform="scale(0.015625)"/>
       <path id="DejaVuSans-79" d="M 2059 -325 
Q 1816 -950 1584 -1140 
Q 1353 -1331 966 -1331 
L 506 -1331 
L 506 -850 
L 844 -850 
Q 1081 -850 1212 -737 
Q 1344 -625 1503 -206 
L 1606 56 
L 191 3500 
L 800 3500 
L 1894 763 
L 2988 3500 
L 3597 3500 
L 2059 -325 
z
" transform="scale(0.015625)"/>
      </defs>
      <use xlink:href="#DejaVuSans-52"/>
      <use xlink:href="#DejaVuSans-65" transform="translate(64.982422 0)"/>
      <use xlink:href="#DejaVuSans-6c" transform="translate(126.505859 0)"/>
      <use xlink:href="#DejaVuSans-61" transform="translate(154.289062 0)"/>
      <use xlink:href="#DejaVuSans-74" transform="translate(215.568359 0)"/>
      <use xlink:href="#DejaVuSans-69" transform="translate(254.777344 0)"/>
      <use xlink:href="#DejaVuSans-76" transform="translate(282.560547 0)"/>
      <use xlink:href="#DejaVuSans-65" transform="translate(341.740234 0)"/>
      <use xlink:href="#DejaVuSans-20" transform="translate(403.263672 0)"/>
      <use xlink:href="#DejaVuSans-63" transform="translate(435.050781 0)"/>
      <use xlink:href="#DejaVuSans-65" transform="translate(490.03125 0)"/>
      <use xlink:href="#DejaVuSans-6c" transform="translate(551.554688 0)"/>
      <use xlink:href="#DejaVuSans-6c" transform="translate(579.337891 0)"/>
      <use xlink:href="#DejaVuSans-20" transform="translate(607.121094 0)"/>
      <use xlink:href="#DejaVuSans-76" transform="translate(638.908203 0)"/>
      <use xlink:href="#DejaVuSans-69" transform="translate(698.087891 0)"/>
      <use xlink:href="#DejaVuSans-61" transform="translate(725.871094 0)"/>
      <use xlink:href="#DejaVuSans-62" transform="translate(787.150391 0)"/>
      <use xlink:href="#DejaVuSans-69" transform="translate(850.626953 0)"/>
      <use xlink:href="#DejaVuSans-6c" transform="translate(878.410156 0)"/>
      <use xlink:href="#DejaVuSans-69" transform="translate(906.193359 0)"/>
      <use xlink:href="#DejaVuSans-74" transform="translate(933.976562 0)"/>
      <use xlink:href="#DejaVuSans-79" transform="translate(973.185547 0)"/>
     </g>
    </g>
   </g>
   <g id="patch_3">
    <path d="M 96.196063 244.610189 
L 119.519205 244.610189 
L 119.519205 209.533161 
L 96.196063 209.533161 
L 96.196063 244.610189 
z
" clip-path="url(#p5c4bb785dd)" style="fill: #4c72b0; opacity: 0.75; stroke: #000000; stroke-width: 1.2; stroke-linejoin: miter"/>
   </g>
   <g id="line2d_13">
    <path d="M 107.857634 244.610189 
L 107.857634 281.308763 
" clip-path="url(#p5c4bb785dd)" style="fill: none; stroke: #333333; stroke-width: 1.2; stroke-linecap: square"/>
   </g>
   <g id="line2d_14">
    <path d="M 107.857634 209.533161 
L 107.857634 158.731273 
" clip-path="url(#p5c4bb785dd)" style="fill: none; stroke: #333333; stroke-width: 1.2; stroke-linecap: square"/>
   </g>
   <g id="line2d_15">
    <path d="M 102.026848 281.308763 
L 113.68842 281.308763 
" clip-path="url(#p5c4bb785dd)" style="fill: none; stroke: #333333; stroke-width: 1.2; stroke-linecap: square"/>
   </g>
   <g id="line2d_16">
    <path d="M 102.026848 158.731273 
L 113.68842 158.731273 
" clip-path="url(#p5c4bb785dd)" style="fill: none; stroke: #333333; stroke-width: 1.2; stroke-linecap: square"/>
   </g>
   <g id="patch_4">
    <path d="M 202.210348 263.152672 
L 225.533491 263.152672 
L 225.533491 235.380192 
L 202.210348 235.380192 
L 202.210348 263.152672 
z
" clip-path="url(#p5c4bb785dd)" style="fill: #55a868; opacity: 0.75; stroke: #000000; stroke-width: 1.2; stroke-linejoin: miter"/>
   </g>
   <g id="line2d_17">
    <path d="M 213.87192 263.152672 
L 213.87192 280.275489 
" clip-path="url(#p5c4bb785dd)" style="fill: none; stroke: #333333; stroke-width: 1.2; stroke-linecap: square"/>
   </g>
   <g id="line2d_18">
    <path d="M 213.87192 235.380192 
L 213.87192 202.858127 
" clip-path="url(#p5c4bb785dd)" style="fill: none; stroke: #333333; stroke-width: 1.2; stroke-linecap: square"/>
   </g>
   <g id="line2d_19">
    <path d="M 208.041134 280.275489 
L 219.702705 280.275489 
" clip-path="url(#p5c4bb785dd)" style="fill: none; stroke: #333333; stroke-width: 1.2; stroke-linecap: square"/>
   </g>
   <g id="line2d_20">
    <path d="M 208.041134 202.858127 
L 219.702705 202.858127 
" clip-path="url(#p5c4bb785dd)" style="fill: none; stroke: #333333; stroke-width: 1.2; stroke-linecap: square"/>
   </g>
   <g id="patch_5">
    <path d="M 308.224634 279.474485 
L 331.547777 279.474485 
L 331.547777 253.597063 
L 308.224634 253.597063 
L 308.224634 279.474485 
z
" clip-path="url(#p5c4bb785dd)" style="fill: #c44e52; opacity: 0.75; stroke: #000000; stroke-width: 1.2; stroke-linejoin: miter"/>
   </g>
   <g id="line2d_21">
    <path d="M 319.886205 279.474485 
L 319.886205 297.936651 
" clip-path="url(#p5c4bb785dd)" style="fill: none; stroke: #333333; stroke-width: 1.2; stroke-linecap: square"/>
   </g>
   <g id="line2d_22">
    <path d="M 319.886205 253.597063 
L 319.886205 222.464274 
" clip-path="url(#p5c4bb785dd)" style="fill: none; stroke: #333333; stroke-width: 1.2; stroke-linecap: square"/>
   </g>
   <g id="line2d_23">
    <path d="M 314.05542 297.936651 
L 325.716991 297.936651 
" clip-path="url(#p5c4bb785dd)" style="fill: none; stroke: #333333; stroke-width: 1.2; stroke-linecap: square"/>
   </g>
   <g id="line2d_24">
    <path d="M 314.05542 222.464274 
L 325.716991 222.464274 
" clip-path="url(#p5c4bb785dd)" style="fill: none; stroke: #333333; stroke-width: 1.2; stroke-linecap: square"/>
   </g>
   <g id="patch_6">
    <path d="M 414.23892 291.274642 
L 437.562063 291.274642 
L 437.562063 278.881873 
L 414.23892 278.881873 
L 414.23892 291.274642 
z
" clip-path="url(#p5c4bb785dd)" style="fill: #8172b2; opacity: 0.75; stroke: #000000; stroke-width: 1.2; stroke-linejoin: miter"/>
   </g>
   <g id="line2d_25">
    <path d="M 425.900491 291.274642 
L 425.900491 303.033554 
" clip-path="url(#p5c4bb785dd)" style="fill: none; stroke: #333333; stroke-width: 1.2; stroke-linecap: square"/>
   </g>
   <g id="line2d_26">
    <path d="M 425.900491 278.881873 
L 425.900491 261.85891 
" clip-path="url(#p5c4bb785dd)" style="fill: none; stroke: #333333; stroke-width: 1.2; stroke-linecap: square"/>
   </g>
   <g id="line2d_27">
    <path d="M 420.069705 303.033554 
L 431.731277 303.033554 
" clip-path="url(#p5c4bb785dd)" style="fill: none; stroke: #333333; stroke-width: 1.2; stroke-linecap: square"/>
   </g>
   <g id="line2d_28">
    <path d="M 420.069705 261.85891 
L 431.731277 261.85891 
" clip-path="url(#p5c4bb785dd)" style="fill: none; stroke: #333333; stroke-width: 1.2; stroke-linecap: square"/>
   </g>
   <g id="line2d_29">
    <path d="M 107.857634 86.636572 
L 107.857634 82.295087 
L 213.87192 82.295087 
L 213.87192 86.636572 
" clip-path="url(#p5c4bb785dd)" style="fill: none; stroke: #333333; stroke-linecap: square"/>
   </g>
   <g id="line2d_30">
    <path d="M 107.857634 71.875523 
L 107.857634 67.534037 
L 319.886205 67.534037 
L 319.886205 71.875523 
" clip-path="url(#p5c4bb785dd)" style="fill: none; stroke: #333333; stroke-linecap: square"/>
   </g>
   <g id="line2d_31">
    <path d="M 107.857634 57.114473 
L 107.857634 52.772988 
L 425.900491 52.772988 
L 425.900491 57.114473 
" clip-path="url(#p5c4bb785dd)" style="fill: none; stroke: #333333; stroke-linecap: square"/>
   </g>
   <g id="line2d_32">
    <path d="M 213.87192 42.353424 
L 213.87192 38.011939 
L 425.900491 38.011939 
L 425.900491 42.353424 
" clip-path="url(#p5c4bb785dd)" style="fill: none; stroke: #333333; stroke-linecap: square"/>
   </g>
   <g id="line2d_33">
    <path d="M 319.886205 27.592375 
L 319.886205 23.25089 
L 425.900491 23.25089 
L 425.900491 27.592375 
" clip-path="url(#p5c4bb785dd)" style="fill: none; stroke: #333333; stroke-linecap: square"/>
   </g>
   <g id="line2d_34">
    <path d="M 96.196063 233.200767 
L 119.519205 233.200767 
" clip-path="url(#p5c4bb785dd)" style="fill: none; stroke: #ffffff; stroke-width: 2.5"/>
   </g>
   <g id="line2d_35">
    <path d="M 202.210348 247.323617 
L 225.533491 247.323617 
" clip-path="url(#p5c4bb785dd)" style="fill: none; stroke: #ffffff; stroke-width: 2.5"/>
   </g>
   <g id="line2d_36">
    <path d="M 308.224634 271.171395 
L 331.547777 271.171395 
" clip-path="url(#p5c4bb785dd)" style="fill: none; stroke: #ffffff; stroke-width: 2.5"/>
   </g>
   <g id="line2d_37">
    <path d="M 414.23892 286.010591 
L 437.562063 286.010591 
" clip-path="url(#p5c4bb785dd)" style="fill: none; stroke: #ffffff; stroke-width: 2.5"/>
   </g>
   <g id="patch_7">
    <path d="M 44.249063 317.022687 
L 44.249063 9.261756 
" style="fill: none; stroke: #000000; stroke-width: 0.8; stroke-linejoin: miter; stroke-linecap: square"/>
   </g>
   <g id="patch_8">
    <path d="M 44.249063 317.022687 
L 489.509062 317.022687 
" style="fill: none; stroke: #000000; stroke-width: 0.8; stroke-linejoin: miter; stroke-linecap: square"/>
   </g>
   <g id="PathCollection_1">
    <defs>
     <path id="me9903b3238" d="M 0 1.870829 
C 0.49615 1.870829 0.972045 1.673706 1.322876 1.322876 
C 1.673706 0.972045 1.870829 0.49615 1.870829 0 
C 1.870829 -0.49615 1.673706 -0.972045 1.322876 -1.322876 
C 0.972045 -1.673706 0.49615 -1.870829 0 -1.870829 
C -0.49615 -1.870829 -0.972045 -1.673706 -1.322876 -1.322876 
C -1.673706 -0.972045 -1.870829 -0.49615 -1.870829 0 
C -1.870829 0.49615 -1.673706 0.972045 -1.322876 1.322876 
C -0.972045 1.673706 -0.49615 1.870829 0 1.870829 
z
"/>
    </defs>
    <g clip-path="url(#p5c4bb785dd)">
     <use xlink:href="#me9903b3238" x="118.313206" y="239.882312" style="fill: #4c72b0; fill-opacity: 0.35"/>
     <use xlink:href="#me9903b3238" x="105.524921" y="239.552359" style="fill: #4c72b0; fill-opacity: 0.35"/>
     <use xlink:href="#me9903b3238" x="121.543575" y="244.163016" style="fill: #4c72b0; fill-opacity: 0.35"/>
     <use xlink:href="#me9903b3238" x="115.390213" y="227.361469" style="fill: #4c72b0; fill-opacity: 0.35"/>
     <use xlink:href="#me9903b3238" x="92.369354" y="99.661027" style="fill: #4c72b0; fill-opacity: 0.35"/>
     <use xlink:href="#me9903b3238" x="126.009829" y="158.731273" style="fill: #4c72b0; fill-opacity: 0.35"/>
     <use xlink:href="#me9903b3238" x="117.824068" y="215.153213" style="fill: #4c72b0; fill-opacity: 0.35"/>
     <use xlink:href="#me9903b3238" x="118.775319" y="202.962323" style="fill: #4c72b0; fill-opacity: 0.35"/>
     <use xlink:href="#me9903b3238" x="93.664538" y="181.854023" style="fill: #4c72b0; fill-opacity: 0.35"/>
     <use xlink:href="#me9903b3238" x="105.964106" y="239.040064" style="fill: #4c72b0; fill-opacity: 0.35"/>
     <use xlink:href="#me9903b3238" x="102.926622" y="230.252898" style="fill: #4c72b0; fill-opacity: 0.35"/>
     <use xlink:href="#me9903b3238" x="124.145181" y="260.374122" style="fill: #4c72b0; fill-opacity: 0.35"/>
     <use xlink:href="#me9903b3238" x="113.348267" y="215.622093" style="fill: #4c72b0; fill-opacity: 0.35"/>
     <use xlink:href="#me9903b3238" x="120.175877" y="222.993935" style="fill: #4c72b0; fill-opacity: 0.35"/>
     <use xlink:href="#me9903b3238" x="105.698029" y="246.481369" style="fill: #4c72b0; fill-opacity: 0.35"/>
     <use xlink:href="#me9903b3238" x="97.447661" y="228.264498" style="fill: #4c72b0; fill-opacity: 0.35"/>
     <use xlink:href="#me9903b3238" x="109.94087" y="231.051731" style="fill: #4c72b0; fill-opacity: 0.35"/>
     <use xlink:href="#me9903b3238" x="91.210657" y="244.032772" style="fill: #4c72b0; fill-opacity: 0.35"/>
     <use xlink:href="#me9903b3238" x="120.361724" y="236.678296" style="fill: #4c72b0; fill-opacity: 0.35"/>
     <use xlink:href="#me9903b3238" x="112.882625" y="244.605848" style="fill: #4c72b0; fill-opacity: 0.35"/>
     <use xlink:href="#me9903b3238" x="117.707589" y="189.104303" style="fill: #4c72b0; fill-opacity: 0.35"/>
     <use xlink:href="#me9903b3238" x="102.305597" y="202.823395" style="fill: #4c72b0; fill-opacity: 0.35"/>
     <use xlink:href="#me9903b3238" x="125.821891" y="237.016932" style="fill: #4c72b0; fill-opacity: 0.35"/>
     <use xlink:href="#me9903b3238" x="122.861158" y="237.251372" style="fill: #4c72b0; fill-opacity: 0.35"/>
     <use xlink:href="#me9903b3238" x="118.48218" y="254.565215" style="fill: #4c72b0; fill-opacity: 0.35"/>
     <use xlink:href="#me9903b3238" x="96.203477" y="227.595909" style="fill: #4c72b0; fill-opacity: 0.35"/>
     <use xlink:href="#me9903b3238" x="106.587536" y="200.261919" style="fill: #4c72b0; fill-opacity: 0.35"/>
     <use xlink:href="#me9903b3238" x="90.446839" y="242.591399" style="fill: #4c72b0; fill-opacity: 0.35"/>
     <use xlink:href="#me9903b3238" x="94.663543" y="237.008249" style="fill: #4c72b0; fill-opacity: 0.35"/>
     <use xlink:href="#me9903b3238" x="114.843723" y="178.580543" style="fill: #4c72b0; fill-opacity: 0.35"/>
     <use xlink:href="#me9903b3238" x="117.199017" y="279.250899" style="fill: #4c72b0; fill-opacity: 0.35"/>
     <use xlink:href="#me9903b3238" x="125.70021" y="249.120992" style="fill: #4c72b0; fill-opacity: 0.35"/>
     <use xlink:href="#me9903b3238" x="101.210234" y="224.331113" style="fill: #4c72b0; fill-opacity: 0.35"/>
     <use xlink:href="#me9903b3238" x="102.91371" y="188.418348" style="fill: #4c72b0; fill-opacity: 0.35"/>
     <use xlink:href="#me9903b3238" x="106.695727" y="232.892521" style="fill: #4c72b0; fill-opacity: 0.35"/>
     <use xlink:href="#me9903b3238" x="96.006264" y="216.464342" style="fill: #4c72b0; fill-opacity: 0.35"/>
     <use xlink:href="#me9903b3238" x="93.733535" y="250.484219" style="fill: #4c72b0; fill-opacity: 0.35"/>
     <use xlink:href="#me9903b3238" x="106.930409" y="200.991289" style="fill: #4c72b0; fill-opacity: 0.35"/>
     <use xlink:href="#me9903b3238" x="97.43509" y="224.964969" style="fill: #4c72b0; fill-opacity: 0.35"/>
     <use xlink:href="#me9903b3238" x="114.338609" y="235.271655" style="fill: #4c72b0; fill-opacity: 0.35"/>
     <use xlink:href="#me9903b3238" x="105.459028" y="222.585836" style="fill: #4c72b0; fill-opacity: 0.35"/>
     <use xlink:href="#me9903b3238" x="120.554345" y="245.291802" style="fill: #4c72b0; fill-opacity: 0.35"/>
     <use xlink:href="#me9903b3238" x="115.50078" y="180.195575" style="fill: #4c72b0; fill-opacity: 0.35"/>
     <use xlink:href="#me9903b3238" x="100.69658" y="244.623214" style="fill: #4c72b0; fill-opacity: 0.35"/>
     <use xlink:href="#me9903b3238" x="120.538377" y="228.342645" style="fill: #4c72b0; fill-opacity: 0.35"/>
     <use xlink:href="#me9903b3238" x="119.489009" y="233.509012" style="fill: #4c72b0; fill-opacity: 0.35"/>
     <use xlink:href="#me9903b3238" x="103.56323" y="241.488662" style="fill: #4c72b0; fill-opacity: 0.35"/>
     <use xlink:href="#me9903b3238" x="99.779146" y="215.352921" style="fill: #4c72b0; fill-opacity: 0.35"/>
     <use xlink:href="#me9903b3238" x="114.822601" y="142.867487" style="fill: #4c72b0; fill-opacity: 0.35"/>
     <use xlink:href="#me9903b3238" x="94.108736" y="227.752203" style="fill: #4c72b0; fill-opacity: 0.35"/>
     <use xlink:href="#me9903b3238" x="96.404588" y="184.085546" style="fill: #4c72b0; fill-opacity: 0.35"/>
     <use xlink:href="#me9903b3238" x="89.056045" y="203.431203" style="fill: #4c72b0; fill-opacity: 0.35"/>
     <use xlink:href="#me9903b3238" x="118.808144" y="271.714081" style="fill: #4c72b0; fill-opacity: 0.35"/>
     <use xlink:href="#me9903b3238" x="114.14919" y="228.342645" style="fill: #4c72b0; fill-opacity: 0.35"/>
     <use xlink:href="#me9903b3238" x="115.6878" y="249.607239" style="fill: #4c72b0; fill-opacity: 0.35"/>
     <use xlink:href="#me9903b3238" x="118.571698" y="253.722966" style="fill: #4c72b0; fill-opacity: 0.35"/>
     <use xlink:href="#me9903b3238" x="106.289649" y="258.724357" style="fill: #4c72b0; fill-opacity: 0.35"/>
     <use xlink:href="#me9903b3238" x="110.481151" y="187.124585" style="fill: #4c72b0; fill-opacity: 0.35"/>
     <use xlink:href="#me9903b3238" x="94.110435" y="213.121398" style="fill: #4c72b0; fill-opacity: 0.35"/>
     <use xlink:href="#me9903b3238" x="93.146119" y="237.372934" style="fill: #4c72b0; fill-opacity: 0.35"/>
     <use xlink:href="#me9903b3238" x="114.284757" y="244.08487" style="fill: #4c72b0; fill-opacity: 0.35"/>
     <use xlink:href="#me9903b3238" x="106.754517" y="261.303199" style="fill: #4c72b0; fill-opacity: 0.35"/>
     <use xlink:href="#me9903b3238" x="110.347379" y="192.829297" style="fill: #4c72b0; fill-opacity: 0.35"/>
     <use xlink:href="#me9903b3238" x="117.971353" y="262.97033" style="fill: #4c72b0; fill-opacity: 0.35"/>
     <use xlink:href="#me9903b3238" x="112.999178" y="281.308763" style="fill: #4c72b0; fill-opacity: 0.35"/>
     <use xlink:href="#me9903b3238" x="109.902499" y="249.928509" style="fill: #4c72b0; fill-opacity: 0.35"/>
     <use xlink:href="#me9903b3238" x="110.117284" y="249.58119" style="fill: #4c72b0; fill-opacity: 0.35"/>
     <use xlink:href="#me9903b3238" x="100.375361" y="192.976907" style="fill: #4c72b0; fill-opacity: 0.35"/>
     <use xlink:href="#me9903b3238" x="89.95123" y="238.866405" style="fill: #4c72b0; fill-opacity: 0.35"/>
     <use xlink:href="#me9903b3238" x="105.442444" y="262.449351" style="fill: #4c72b0; fill-opacity: 0.35"/>
     <use xlink:href="#me9903b3238" x="96.964717" y="240.325144" style="fill: #4c72b0; fill-opacity: 0.35"/>
     <use xlink:href="#me9903b3238" x="104.366617" y="142.962999" style="fill: #4c72b0; fill-opacity: 0.35"/>
     <use xlink:href="#me9903b3238" x="121.345313" y="250.866269" style="fill: #4c72b0; fill-opacity: 0.35"/>
     <use xlink:href="#me9903b3238" x="97.703396" y="235.627657" style="fill: #4c72b0; fill-opacity: 0.35"/>
     <use xlink:href="#me9903b3238" x="91.000195" y="234.9938" style="fill: #4c72b0; fill-opacity: 0.35"/>
     <use xlink:href="#me9903b3238" x="99.514119" y="195.972532" style="fill: #4c72b0; fill-opacity: 0.35"/>
     <use xlink:href="#me9903b3238" x="99.98011" y="140.974599" style="fill: #4c72b0; fill-opacity: 0.35"/>
     <use xlink:href="#me9903b3238" x="114.037201" y="219.347088" style="fill: #4c72b0; fill-opacity: 0.35"/>
     <use xlink:href="#me9903b3238" x="110.034274" y="241.636272" style="fill: #4c72b0; fill-opacity: 0.35"/>
     <use xlink:href="#me9903b3238" x="118.69265" y="210.533873" style="fill: #4c72b0; fill-opacity: 0.35"/>
     <use xlink:href="#me9903b3238" x="114.128684" y="273.285698" style="fill: #4c72b0; fill-opacity: 0.35"/>
     <use xlink:href="#me9903b3238" x="104.284875" y="241.080562" style="fill: #4c72b0; fill-opacity: 0.35"/>
     <use xlink:href="#me9903b3238" x="119.842267" y="268.449284" style="fill: #4c72b0; fill-opacity: 0.35"/>
     <use xlink:href="#me9903b3238" x="95.147608" y="240.472754" style="fill: #4c72b0; fill-opacity: 0.35"/>
     <use xlink:href="#me9903b3238" x="89.641872" y="261.346614" style="fill: #4c72b0; fill-opacity: 0.35"/>
     <use xlink:href="#me9903b3238" x="92.211752" y="205.862435" style="fill: #4c72b0; fill-opacity: 0.35"/>
     <use xlink:href="#me9903b3238" x="116.34401" y="248.860503" style="fill: #4c72b0; fill-opacity: 0.35"/>
     <use xlink:href="#me9903b3238" x="106.402673" y="206.531024" style="fill: #4c72b0; fill-opacity: 0.35"/>
     <use xlink:href="#me9903b3238" x="94.930023" y="217.749421" style="fill: #4c72b0; fill-opacity: 0.35"/>
     <use xlink:href="#me9903b3238" x="107.897508" y="198.881327" style="fill: #4c72b0; fill-opacity: 0.35"/>
     <use xlink:href="#me9903b3238" x="94.588076" y="222.334029" style="fill: #4c72b0; fill-opacity: 0.35"/>
     <use xlink:href="#me9903b3238" x="115.350229" y="211.106949" style="fill: #4c72b0; fill-opacity: 0.35"/>
     <use xlink:href="#me9903b3238" x="105.80268" y="243.885161" style="fill: #4c72b0; fill-opacity: 0.35"/>
     <use xlink:href="#me9903b3238" x="103.316792" y="221.795685" style="fill: #4c72b0; fill-opacity: 0.35"/>
     <use xlink:href="#me9903b3238" x="100.282314" y="227.578543" style="fill: #4c72b0; fill-opacity: 0.35"/>
     <use xlink:href="#me9903b3238" x="112.829888" y="166.76302" style="fill: #4c72b0; fill-opacity: 0.35"/>
     <use xlink:href="#me9903b3238" x="102.583692" y="235.054581" style="fill: #4c72b0; fill-opacity: 0.35"/>
     <use xlink:href="#me9903b3238" x="92.120234" y="256.154198" style="fill: #4c72b0; fill-opacity: 0.35"/>
     <use xlink:href="#me9903b3238" x="93.278775" y="249.416213" style="fill: #4c72b0; fill-opacity: 0.35"/>
     <use xlink:href="#me9903b3238" x="125.486024" y="183.877155" style="fill: #4c72b0; fill-opacity: 0.35"/>
    </g>
   </g>
   <g id="PathCollection_2">
    <defs>
     <path id="mee33bcdabd" d="M 0 1.870829 
C 0.49615 1.870829 0.972045 1.673706 1.322876 1.322876 
C 1.673706 0.972045 1.870829 0.49615 1.870829 0 
C 1.870829 -0.49615 1.673706 -0.972045 1.322876 -1.322876 
C 0.972045 -1.673706 0.49615 -1.870829 0 -1.870829 
C -0.49615 -1.870829 -0.972045 -1.673706 -1.322876 -1.322876 
C -1.673706 -0.972045 -1.870829 -0.49615 -1.870829 0 
C -1.870829 0.49615 -1.673706 0.972045 -1.322876 1.322876 
C -0.972045 1.673706 -0.49615 1.870829 0 1.870829 
z
"/>
    </defs>
    <g clip-path="url(#p5c4bb785dd)">
     <use xlink:href="#mee33bcdabd" x="229.46546" y="213.963646" style="fill: #55a868; fill-opacity: 0.35"/>
     <use xlink:href="#mee33bcdabd" x="221.493771" y="279.494022" style="fill: #55a868; fill-opacity: 0.35"/>
     <use xlink:href="#mee33bcdabd" x="204.936313" y="236.061805" style="fill: #55a868; fill-opacity: 0.35"/>
     <use xlink:href="#mee33bcdabd" x="231.778103" y="263.126623" style="fill: #55a868; fill-opacity: 0.35"/>
     <use xlink:href="#mee33bcdabd" x="224.510488" y="263.230819" style="fill: #55a868; fill-opacity: 0.35"/>
     <use xlink:href="#mee33bcdabd" x="222.149565" y="267.997769" style="fill: #55a868; fill-opacity: 0.35"/>
     <use xlink:href="#mee33bcdabd" x="211.939294" y="238.9706" style="fill: #55a868; fill-opacity: 0.35"/>
     <use xlink:href="#mee33bcdabd" x="205.179486" y="271.114956" style="fill: #55a868; fill-opacity: 0.35"/>
     <use xlink:href="#mee33bcdabd" x="198.468123" y="237.668155" style="fill: #55a868; fill-opacity: 0.35"/>
     <use xlink:href="#mee33bcdabd" x="229.237298" y="256.119466" style="fill: #55a868; fill-opacity: 0.35"/>
     <use xlink:href="#mee33bcdabd" x="212.184115" y="214.640918" style="fill: #55a868; fill-opacity: 0.35"/>
     <use xlink:href="#mee33bcdabd" x="202.512575" y="256.006588" style="fill: #55a868; fill-opacity: 0.35"/>
     <use xlink:href="#mee33bcdabd" x="206.466226" y="240.655096" style="fill: #55a868; fill-opacity: 0.35"/>
     <use xlink:href="#mee33bcdabd" x="216.895346" y="279.997634" style="fill: #55a868; fill-opacity: 0.35"/>
     <use xlink:href="#mee33bcdabd" x="201.535907" y="252.107934" style="fill: #55a868; fill-opacity: 0.35"/>
     <use xlink:href="#mee33bcdabd" x="227.482155" y="262.675109" style="fill: #55a868; fill-opacity: 0.35"/>
     <use xlink:href="#mee33bcdabd" x="223.738354" y="256.432053" style="fill: #55a868; fill-opacity: 0.35"/>
     <use xlink:href="#mee33bcdabd" x="222.247755" y="253.740332" style="fill: #55a868; fill-opacity: 0.35"/>
     <use xlink:href="#mee33bcdabd" x="211.280241" y="234.472822" style="fill: #55a868; fill-opacity: 0.35"/>
     <use xlink:href="#mee33bcdabd" x="218.73068" y="262.41462" style="fill: #55a868; fill-opacity: 0.35"/>
     <use xlink:href="#mee33bcdabd" x="217.081531" y="273.016526" style="fill: #55a868; fill-opacity: 0.35"/>
     <use xlink:href="#mee33bcdabd" x="219.590837" y="249.051529" style="fill: #55a868; fill-opacity: 0.35"/>
     <use xlink:href="#mee33bcdabd" x="198.012178" y="142.155483" style="fill: #55a868; fill-opacity: 0.35"/>
     <use xlink:href="#mee33bcdabd" x="210.658697" y="279.658998" style="fill: #55a868; fill-opacity: 0.35"/>
     <use xlink:href="#mee33bcdabd" x="196.377559" y="256.987763" style="fill: #55a868; fill-opacity: 0.35"/>
     <use xlink:href="#mee33bcdabd" x="213.642578" y="264.559313" style="fill: #55a868; fill-opacity: 0.35"/>
     <use xlink:href="#mee33bcdabd" x="207.378549" y="234.5857" style="fill: #55a868; fill-opacity: 0.35"/>
     <use xlink:href="#mee33bcdabd" x="200.305135" y="272.191644" style="fill: #55a868; fill-opacity: 0.35"/>
     <use xlink:href="#mee33bcdabd" x="198.735737" y="259.896558" style="fill: #55a868; fill-opacity: 0.35"/>
     <use xlink:href="#mee33bcdabd" x="217.216887" y="247.914059" style="fill: #55a868; fill-opacity: 0.35"/>
     <use xlink:href="#mee33bcdabd" x="201.300053" y="212.027344" style="fill: #55a868; fill-opacity: 0.35"/>
     <use xlink:href="#mee33bcdabd" x="230.09669" y="186.551509" style="fill: #55a868; fill-opacity: 0.35"/>
     <use xlink:href="#mee33bcdabd" x="216.96563" y="229.488797" style="fill: #55a868; fill-opacity: 0.35"/>
     <use xlink:href="#mee33bcdabd" x="208.027684" y="230.461289" style="fill: #55a868; fill-opacity: 0.35"/>
     <use xlink:href="#mee33bcdabd" x="217.341722" y="268.275624" style="fill: #55a868; fill-opacity: 0.35"/>
     <use xlink:href="#mee33bcdabd" x="195.659661" y="228.637866" style="fill: #55a868; fill-opacity: 0.35"/>
     <use xlink:href="#mee33bcdabd" x="231.372898" y="263.812578" style="fill: #55a868; fill-opacity: 0.35"/>
     <use xlink:href="#mee33bcdabd" x="213.196528" y="245.98644" style="fill: #55a868; fill-opacity: 0.35"/>
     <use xlink:href="#mee33bcdabd" x="224.66255" y="264.759022" style="fill: #55a868; fill-opacity: 0.35"/>
     <use xlink:href="#mee33bcdabd" x="197.94675" y="278.81675" style="fill: #55a868; fill-opacity: 0.35"/>
     <use xlink:href="#mee33bcdabd" x="213.362733" y="229.64509" style="fill: #55a868; fill-opacity: 0.35"/>
     <use xlink:href="#mee33bcdabd" x="213.517251" y="237.555276" style="fill: #55a868; fill-opacity: 0.35"/>
     <use xlink:href="#mee33bcdabd" x="230.581629" y="239.300553" style="fill: #55a868; fill-opacity: 0.35"/>
     <use xlink:href="#mee33bcdabd" x="216.609431" y="254.530483" style="fill: #55a868; fill-opacity: 0.35"/>
     <use xlink:href="#mee33bcdabd" x="212.860139" y="255.476926" style="fill: #55a868; fill-opacity: 0.35"/>
     <use xlink:href="#mee33bcdabd" x="204.978513" y="250.918367" style="fill: #55a868; fill-opacity: 0.35"/>
     <use xlink:href="#mee33bcdabd" x="207.443726" y="247.731717" style="fill: #55a868; fill-opacity: 0.35"/>
     <use xlink:href="#mee33bcdabd" x="214.660885" y="175.862773" style="fill: #55a868; fill-opacity: 0.35"/>
     <use xlink:href="#mee33bcdabd" x="211.540467" y="249.216505" style="fill: #55a868; fill-opacity: 0.35"/>
     <use xlink:href="#mee33bcdabd" x="195.614176" y="248.38294" style="fill: #55a868; fill-opacity: 0.35"/>
     <use xlink:href="#mee33bcdabd" x="226.324898" y="269.126556" style="fill: #55a868; fill-opacity: 0.35"/>
     <use xlink:href="#mee33bcdabd" x="228.991452" y="271.253883" style="fill: #55a868; fill-opacity: 0.35"/>
     <use xlink:href="#mee33bcdabd" x="200.141975" y="246.741858" style="fill: #55a868; fill-opacity: 0.35"/>
     <use xlink:href="#mee33bcdabd" x="215.934217" y="240.854805" style="fill: #55a868; fill-opacity: 0.35"/>
     <use xlink:href="#mee33bcdabd" x="198.933157" y="187.680295" style="fill: #55a868; fill-opacity: 0.35"/>
     <use xlink:href="#mee33bcdabd" x="220.445487" y="246.681078" style="fill: #55a868; fill-opacity: 0.35"/>
     <use xlink:href="#mee33bcdabd" x="205.522676" y="246.915518" style="fill: #55a868; fill-opacity: 0.35"/>
     <use xlink:href="#mee33bcdabd" x="219.956307" y="171.061091" style="fill: #55a868; fill-opacity: 0.35"/>
     <use xlink:href="#mee33bcdabd" x="222.535202" y="254.382872" style="fill: #55a868; fill-opacity: 0.35"/>
     <use xlink:href="#mee33bcdabd" x="224.12489" y="269.586753" style="fill: #55a868; fill-opacity: 0.35"/>
     <use xlink:href="#mee33bcdabd" x="198.901297" y="233.587159" style="fill: #55a868; fill-opacity: 0.35"/>
     <use xlink:href="#mee33bcdabd" x="229.749071" y="220.849241" style="fill: #55a868; fill-opacity: 0.35"/>
     <use xlink:href="#mee33bcdabd" x="203.575498" y="230.400509" style="fill: #55a868; fill-opacity: 0.35"/>
     <use xlink:href="#mee33bcdabd" x="196.217204" y="246.038538" style="fill: #55a868; fill-opacity: 0.35"/>
     <use xlink:href="#mee33bcdabd" x="215.965372" y="261.494225" style="fill: #55a868; fill-opacity: 0.35"/>
     <use xlink:href="#mee33bcdabd" x="208.94565" y="246.820005" style="fill: #55a868; fill-opacity: 0.35"/>
     <use xlink:href="#mee33bcdabd" x="226.458392" y="124.902421" style="fill: #55a868; fill-opacity: 0.35"/>
     <use xlink:href="#mee33bcdabd" x="225.636381" y="273.511455" style="fill: #55a868; fill-opacity: 0.35"/>
     <use xlink:href="#mee33bcdabd" x="206.892999" y="237.937327" style="fill: #55a868; fill-opacity: 0.35"/>
     <use xlink:href="#mee33bcdabd" x="231.15689" y="202.858127" style="fill: #55a868; fill-opacity: 0.35"/>
     <use xlink:href="#mee33bcdabd" x="205.892269" y="212.939056" style="fill: #55a868; fill-opacity: 0.35"/>
     <use xlink:href="#mee33bcdabd" x="214.446577" y="237.876546" style="fill: #55a868; fill-opacity: 0.35"/>
     <use xlink:href="#mee33bcdabd" x="204.558292" y="228.542353" style="fill: #55a868; fill-opacity: 0.35"/>
     <use xlink:href="#mee33bcdabd" x="230.513585" y="267.485474" style="fill: #55a868; fill-opacity: 0.35"/>
     <use xlink:href="#mee33bcdabd" x="201.071629" y="249.971923" style="fill: #55a868; fill-opacity: 0.35"/>
     <use xlink:href="#mee33bcdabd" x="196.503368" y="235.922878" style="fill: #55a868; fill-opacity: 0.35"/>
     <use xlink:href="#mee33bcdabd" x="211.39489" y="227.300688" style="fill: #55a868; fill-opacity: 0.35"/>
     <use xlink:href="#mee33bcdabd" x="232.663503" y="235.95761" style="fill: #55a868; fill-opacity: 0.35"/>
     <use xlink:href="#mee33bcdabd" x="228.820338" y="238.32806" style="fill: #55a868; fill-opacity: 0.35"/>
     <use xlink:href="#mee33bcdabd" x="223.36008" y="242.053055" style="fill: #55a868; fill-opacity: 0.35"/>
     <use xlink:href="#mee33bcdabd" x="228.786571" y="264.020969" style="fill: #55a868; fill-opacity: 0.35"/>
     <use xlink:href="#mee33bcdabd" x="228.887867" y="240.498803" style="fill: #55a868; fill-opacity: 0.35"/>
     <use xlink:href="#mee33bcdabd" x="214.591652" y="272.278474" style="fill: #55a868; fill-opacity: 0.35"/>
     <use xlink:href="#mee33bcdabd" x="206.846826" y="268.015135" style="fill: #55a868; fill-opacity: 0.35"/>
     <use xlink:href="#mee33bcdabd" x="224.253313" y="269.395728" style="fill: #55a868; fill-opacity: 0.35"/>
     <use xlink:href="#mee33bcdabd" x="220.041745" y="242.469837" style="fill: #55a868; fill-opacity: 0.35"/>
     <use xlink:href="#mee33bcdabd" x="209.050049" y="236.869321" style="fill: #55a868; fill-opacity: 0.35"/>
     <use xlink:href="#mee33bcdabd" x="198.394682" y="258.385721" style="fill: #55a868; fill-opacity: 0.35"/>
     <use xlink:href="#mee33bcdabd" x="223.29068" y="280.275489" style="fill: #55a868; fill-opacity: 0.35"/>
     <use xlink:href="#mee33bcdabd" x="204.806191" y="252.385789" style="fill: #55a868; fill-opacity: 0.35"/>
     <use xlink:href="#mee33bcdabd" x="230.542956" y="243.155792" style="fill: #55a868; fill-opacity: 0.35"/>
     <use xlink:href="#mee33bcdabd" x="203.986025" y="235.645023" style="fill: #55a868; fill-opacity: 0.35"/>
     <use xlink:href="#mee33bcdabd" x="199.474422" y="277.14962" style="fill: #55a868; fill-opacity: 0.35"/>
     <use xlink:href="#mee33bcdabd" x="226.508882" y="252.012421" style="fill: #55a868; fill-opacity: 0.35"/>
     <use xlink:href="#mee33bcdabd" x="200.639466" y="272.165595" style="fill: #55a868; fill-opacity: 0.35"/>
     <use xlink:href="#mee33bcdabd" x="201.631149" y="246.385857" style="fill: #55a868; fill-opacity: 0.35"/>
     <use xlink:href="#mee33bcdabd" x="217.664878" y="229.836116" style="fill: #55a868; fill-opacity: 0.35"/>
     <use xlink:href="#mee33bcdabd" x="228.167133" y="257.395863" style="fill: #55a868; fill-opacity: 0.35"/>
     <use xlink:href="#mee33bcdabd" x="202.286305" y="191.865487" style="fill: #55a868; fill-opacity: 0.35"/>
     <use xlink:href="#mee33bcdabd" x="206.632896" y="225.711705" style="fill: #55a868; fill-opacity: 0.35"/>
    </g>
   </g>
   <g id="PathCollection_3">
    <defs>
     <path id="m2f7a01edbe" d="M 0 1.870829 
C 0.49615 1.870829 0.972045 1.673706 1.322876 1.322876 
C 1.673706 0.972045 1.870829 0.49615 1.870829 0 
C 1.870829 -0.49615 1.673706 -0.972045 1.322876 -1.322876 
C 0.972045 -1.673706 0.49615 -1.870829 0 -1.870829 
C -0.49615 -1.870829 -0.972045 -1.673706 -1.322876 -1.322876 
C -1.673706 -0.972045 -1.870829 -0.49615 -1.870829 0 
C -1.870829 0.49615 -1.673706 0.972045 -1.322876 1.322876 
C -0.972045 1.673706 -0.49615 1.870829 0 1.870829 
z
"/>
    </defs>
    <g clip-path="url(#p5c4bb785dd)">
     <use xlink:href="#m2f7a01edbe" x="330.473401" y="252.646278" style="fill: #c44e52; fill-opacity: 0.35"/>
     <use xlink:href="#m2f7a01edbe" x="337.893528" y="275.169903" style="fill: #c44e52; fill-opacity: 0.35"/>
     <use xlink:href="#m2f7a01edbe" x="319.914493" y="282.715404" style="fill: #c44e52; fill-opacity: 0.35"/>
     <use xlink:href="#m2f7a01edbe" x="306.295503" y="213.051934" style="fill: #c44e52; fill-opacity: 0.35"/>
     <use xlink:href="#m2f7a01edbe" x="301.335514" y="258.116549" style="fill: #c44e52; fill-opacity: 0.35"/>
     <use xlink:href="#m2f7a01edbe" x="309.568489" y="264.333556" style="fill: #c44e52; fill-opacity: 0.35"/>
     <use xlink:href="#m2f7a01edbe" x="305.834648" y="246.229563" style="fill: #c44e52; fill-opacity: 0.35"/>
     <use xlink:href="#m2f7a01edbe" x="326.666574" y="282.689355" style="fill: #c44e52; fill-opacity: 0.35"/>
     <use xlink:href="#m2f7a01edbe" x="305.453389" y="275.343562" style="fill: #c44e52; fill-opacity: 0.35"/>
     <use xlink:href="#m2f7a01edbe" x="320.127788" y="255.424829" style="fill: #c44e52; fill-opacity: 0.35"/>
     <use xlink:href="#m2f7a01edbe" x="327.300259" y="247.809864" style="fill: #c44e52; fill-opacity: 0.35"/>
     <use xlink:href="#m2f7a01edbe" x="322.982032" y="253.245403" style="fill: #c44e52; fill-opacity: 0.35"/>
     <use xlink:href="#m2f7a01edbe" x="308.4281" y="272.304523" style="fill: #c44e52; fill-opacity: 0.35"/>
     <use xlink:href="#m2f7a01edbe" x="331.493161" y="205.072285" style="fill: #c44e52; fill-opacity: 0.35"/>
     <use xlink:href="#m2f7a01edbe" x="328.107249" y="273.259649" style="fill: #c44e52; fill-opacity: 0.35"/>
     <use xlink:href="#m2f7a01edbe" x="329.007064" y="264.142531" style="fill: #c44e52; fill-opacity: 0.35"/>
     <use xlink:href="#m2f7a01edbe" x="305.805472" y="284.703804" style="fill: #c44e52; fill-opacity: 0.35"/>
     <use xlink:href="#m2f7a01edbe" x="305.526716" y="272.061399" style="fill: #c44e52; fill-opacity: 0.35"/>
     <use xlink:href="#m2f7a01edbe" x="336.204191" y="249.40753" style="fill: #c44e52; fill-opacity: 0.35"/>
     <use xlink:href="#m2f7a01edbe" x="315.977262" y="240.047288" style="fill: #c44e52; fill-opacity: 0.35"/>
     <use xlink:href="#m2f7a01edbe" x="312.289384" y="289.635731" style="fill: #c44e52; fill-opacity: 0.35"/>
     <use xlink:href="#m2f7a01edbe" x="319.450514" y="284.434632" style="fill: #c44e52; fill-opacity: 0.35"/>
     <use xlink:href="#m2f7a01edbe" x="326.101941" y="279.415875" style="fill: #c44e52; fill-opacity: 0.35"/>
     <use xlink:href="#m2f7a01edbe" x="337.275132" y="239.213723" style="fill: #c44e52; fill-opacity: 0.35"/>
     <use xlink:href="#m2f7a01edbe" x="311.735895" y="261.546323" style="fill: #c44e52; fill-opacity: 0.35"/>
     <use xlink:href="#m2f7a01edbe" x="336.09908" y="256.900934" style="fill: #c44e52; fill-opacity: 0.35"/>
     <use xlink:href="#m2f7a01edbe" x="301.7524" y="275.352245" style="fill: #c44e52; fill-opacity: 0.35"/>
     <use xlink:href="#m2f7a01edbe" x="321.992847" y="284.729853" style="fill: #c44e52; fill-opacity: 0.35"/>
     <use xlink:href="#m2f7a01edbe" x="324.999385" y="272.408718" style="fill: #c44e52; fill-opacity: 0.35"/>
     <use xlink:href="#m2f7a01edbe" x="304.845223" y="231.181976" style="fill: #c44e52; fill-opacity: 0.35"/>
     <use xlink:href="#m2f7a01edbe" x="306.159715" y="231.902662" style="fill: #c44e52; fill-opacity: 0.35"/>
     <use xlink:href="#m2f7a01edbe" x="316.799192" y="285.346344" style="fill: #c44e52; fill-opacity: 0.35"/>
     <use xlink:href="#m2f7a01edbe" x="337.680013" y="274.536046" style="fill: #c44e52; fill-opacity: 0.35"/>
     <use xlink:href="#m2f7a01edbe" x="323.551683" y="279.92817" style="fill: #c44e52; fill-opacity: 0.35"/>
     <use xlink:href="#m2f7a01edbe" x="336.412598" y="265.740197" style="fill: #c44e52; fill-opacity: 0.35"/>
     <use xlink:href="#m2f7a01edbe" x="331.502183" y="254.712825" style="fill: #c44e52; fill-opacity: 0.35"/>
     <use xlink:href="#m2f7a01edbe" x="318.64132" y="268.336405" style="fill: #c44e52; fill-opacity: 0.35"/>
     <use xlink:href="#m2f7a01edbe" x="330.754243" y="282.072864" style="fill: #c44e52; fill-opacity: 0.35"/>
     <use xlink:href="#m2f7a01edbe" x="301.484377" y="287.230548" style="fill: #c44e52; fill-opacity: 0.35"/>
     <use xlink:href="#m2f7a01edbe" x="304.96913" y="274.423167" style="fill: #c44e52; fill-opacity: 0.35"/>
     <use xlink:href="#m2f7a01edbe" x="332.458896" y="254.269994" style="fill: #c44e52; fill-opacity: 0.35"/>
     <use xlink:href="#m2f7a01edbe" x="331.214272" y="289.835439" style="fill: #c44e52; fill-opacity: 0.35"/>
     <use xlink:href="#m2f7a01edbe" x="309.682401" y="231.668222" style="fill: #c44e52; fill-opacity: 0.35"/>
     <use xlink:href="#m2f7a01edbe" x="321.060531" y="261.103491" style="fill: #c44e52; fill-opacity: 0.35"/>
     <use xlink:href="#m2f7a01edbe" x="323.932314" y="271.601202" style="fill: #c44e52; fill-opacity: 0.35"/>
     <use xlink:href="#m2f7a01edbe" x="333.921015" y="277.314596" style="fill: #c44e52; fill-opacity: 0.35"/>
     <use xlink:href="#m2f7a01edbe" x="323.821305" y="237.494495" style="fill: #c44e52; fill-opacity: 0.35"/>
     <use xlink:href="#m2f7a01edbe" x="316.549487" y="289.331827" style="fill: #c44e52; fill-opacity: 0.35"/>
     <use xlink:href="#m2f7a01edbe" x="315.084421" y="279.407192" style="fill: #c44e52; fill-opacity: 0.35"/>
     <use xlink:href="#m2f7a01edbe" x="317.057485" y="263.317649" style="fill: #c44e52; fill-opacity: 0.35"/>
     <use xlink:href="#m2f7a01edbe" x="325.684675" y="241.532076" style="fill: #c44e52; fill-opacity: 0.35"/>
     <use xlink:href="#m2f7a01edbe" x="333.911538" y="273.181503" style="fill: #c44e52; fill-opacity: 0.35"/>
     <use xlink:href="#m2f7a01edbe" x="318.126673" y="245.265754" style="fill: #c44e52; fill-opacity: 0.35"/>
     <use xlink:href="#m2f7a01edbe" x="310.262466" y="281.369543" style="fill: #c44e52; fill-opacity: 0.35"/>
     <use xlink:href="#m2f7a01edbe" x="309.835887" y="244.362725" style="fill: #c44e52; fill-opacity: 0.35"/>
     <use xlink:href="#m2f7a01edbe" x="329.275376" y="283.444773" style="fill: #c44e52; fill-opacity: 0.35"/>
     <use xlink:href="#m2f7a01edbe" x="331.968097" y="250.215047" style="fill: #c44e52; fill-opacity: 0.35"/>
     <use xlink:href="#m2f7a01edbe" x="304.821587" y="278.269723" style="fill: #c44e52; fill-opacity: 0.35"/>
     <use xlink:href="#m2f7a01edbe" x="303.343862" y="210.690166" style="fill: #c44e52; fill-opacity: 0.35"/>
     <use xlink:href="#m2f7a01edbe" x="323.49028" y="277.549037" style="fill: #c44e52; fill-opacity: 0.35"/>
     <use xlink:href="#m2f7a01edbe" x="306.382357" y="276.767569" style="fill: #c44e52; fill-opacity: 0.35"/>
     <use xlink:href="#m2f7a01edbe" x="332.277061" y="266.382737" style="fill: #c44e52; fill-opacity: 0.35"/>
     <use xlink:href="#m2f7a01edbe" x="312.647601" y="272.860233" style="fill: #c44e52; fill-opacity: 0.35"/>
     <use xlink:href="#m2f7a01edbe" x="306.294527" y="282.515696" style="fill: #c44e52; fill-opacity: 0.35"/>
     <use xlink:href="#m2f7a01edbe" x="335.952604" y="253.714284" style="fill: #c44e52; fill-opacity: 0.35"/>
     <use xlink:href="#m2f7a01edbe" x="307.121176" y="286.049664" style="fill: #c44e52; fill-opacity: 0.35"/>
     <use xlink:href="#m2f7a01edbe" x="311.670017" y="279.433241" style="fill: #c44e52; fill-opacity: 0.35"/>
     <use xlink:href="#m2f7a01edbe" x="306.666311" y="270.350854" style="fill: #c44e52; fill-opacity: 0.35"/>
     <use xlink:href="#m2f7a01edbe" x="305.211329" y="279.172752" style="fill: #c44e52; fill-opacity: 0.35"/>
     <use xlink:href="#m2f7a01edbe" x="301.610751" y="254.643361" style="fill: #c44e52; fill-opacity: 0.35"/>
     <use xlink:href="#m2f7a01edbe" x="302.917808" y="259.523191" style="fill: #c44e52; fill-opacity: 0.35"/>
     <use xlink:href="#m2f7a01edbe" x="307.468851" y="287.152402" style="fill: #c44e52; fill-opacity: 0.35"/>
     <use xlink:href="#m2f7a01edbe" x="302.840963" y="276.611276" style="fill: #c44e52; fill-opacity: 0.35"/>
     <use xlink:href="#m2f7a01edbe" x="323.364722" y="241.506027" style="fill: #c44e52; fill-opacity: 0.35"/>
     <use xlink:href="#m2f7a01edbe" x="326.783201" y="257.899475" style="fill: #c44e52; fill-opacity: 0.35"/>
     <use xlink:href="#m2f7a01edbe" x="315.826597" y="269.98617" style="fill: #c44e52; fill-opacity: 0.35"/>
     <use xlink:href="#m2f7a01edbe" x="312.93981" y="232.241298" style="fill: #c44e52; fill-opacity: 0.35"/>
     <use xlink:href="#m2f7a01edbe" x="320.05895" y="222.464274" style="fill: #c44e52; fill-opacity: 0.35"/>
     <use xlink:href="#m2f7a01edbe" x="334.198323" y="259.106408" style="fill: #c44e52; fill-opacity: 0.35"/>
     <use xlink:href="#m2f7a01edbe" x="333.287194" y="279.598218" style="fill: #c44e52; fill-opacity: 0.35"/>
     <use xlink:href="#m2f7a01edbe" x="302.462866" y="283.401358" style="fill: #c44e52; fill-opacity: 0.35"/>
     <use xlink:href="#m2f7a01edbe" x="307.730547" y="228.655232" style="fill: #c44e52; fill-opacity: 0.35"/>
     <use xlink:href="#m2f7a01edbe" x="309.839036" y="261.928373" style="fill: #c44e52; fill-opacity: 0.35"/>
     <use xlink:href="#m2f7a01edbe" x="310.321546" y="271.002077" style="fill: #c44e52; fill-opacity: 0.35"/>
     <use xlink:href="#m2f7a01edbe" x="322.60481" y="260.869051" style="fill: #c44e52; fill-opacity: 0.35"/>
     <use xlink:href="#m2f7a01edbe" x="316.690349" y="287.369476" style="fill: #c44e52; fill-opacity: 0.35"/>
     <use xlink:href="#m2f7a01edbe" x="302.683424" y="252.142666" style="fill: #c44e52; fill-opacity: 0.35"/>
     <use xlink:href="#m2f7a01edbe" x="315.062671" y="277.349328" style="fill: #c44e52; fill-opacity: 0.35"/>
     <use xlink:href="#m2f7a01edbe" x="320.79274" y="288.880313" style="fill: #c44e52; fill-opacity: 0.35"/>
     <use xlink:href="#m2f7a01edbe" x="304.683957" y="232.111054" style="fill: #c44e52; fill-opacity: 0.35"/>
     <use xlink:href="#m2f7a01edbe" x="332.612699" y="287.708112" style="fill: #c44e52; fill-opacity: 0.35"/>
     <use xlink:href="#m2f7a01edbe" x="302.786766" y="262.79667" style="fill: #c44e52; fill-opacity: 0.35"/>
     <use xlink:href="#m2f7a01edbe" x="336.100356" y="266.165663" style="fill: #c44e52; fill-opacity: 0.35"/>
     <use xlink:href="#m2f7a01edbe" x="304.586301" y="242.730326" style="fill: #c44e52; fill-opacity: 0.35"/>
     <use xlink:href="#m2f7a01edbe" x="332.998792" y="297.936651" style="fill: #c44e52; fill-opacity: 0.35"/>
     <use xlink:href="#m2f7a01edbe" x="335.25352" y="287.395525" style="fill: #c44e52; fill-opacity: 0.35"/>
     <use xlink:href="#m2f7a01edbe" x="338.189089" y="278.521529" style="fill: #c44e52; fill-opacity: 0.35"/>
     <use xlink:href="#m2f7a01edbe" x="331.413066" y="271.340713" style="fill: #c44e52; fill-opacity: 0.35"/>
     <use xlink:href="#m2f7a01edbe" x="330.552506" y="276.793618" style="fill: #c44e52; fill-opacity: 0.35"/>
     <use xlink:href="#m2f7a01edbe" x="325.3241" y="286.014932" style="fill: #c44e52; fill-opacity: 0.35"/>
    </g>
   </g>
   <g id="PathCollection_4">
    <defs>
     <path id="m4f49065182" d="M 0 1.870829 
C 0.49615 1.870829 0.972045 1.673706 1.322876 1.322876 
C 1.673706 0.972045 1.870829 0.49615 1.870829 0 
C 1.870829 -0.49615 1.673706 -0.972045 1.322876 -1.322876 
C 0.972045 -1.673706 0.49615 -1.870829 0 -1.870829 
C -0.49615 -1.870829 -0.972045 -1.673706 -1.322876 -1.322876 
C -1.673706 -0.972045 -1.870829 -0.49615 -1.870829 0 
C -1.870829 0.49615 -1.673706 0.972045 -1.322876 1.322876 
C -0.972045 1.673706 -0.49615 1.870829 0 1.870829 
z
"/>
    </defs>
    <g clip-path="url(#p5c4bb785dd)">
     <use xlink:href="#m4f49065182" x="436.548427" y="291.1813" style="fill: #8172b2; fill-opacity: 0.35"/>
     <use xlink:href="#m4f49065182" x="411.953124" y="290.278271" style="fill: #8172b2; fill-opacity: 0.35"/>
     <use xlink:href="#m4f49065182" x="427.277033" y="300.255004" style="fill: #8172b2; fill-opacity: 0.35"/>
     <use xlink:href="#m4f49065182" x="426.443309" y="266.330639" style="fill: #8172b2; fill-opacity: 0.35"/>
     <use xlink:href="#m4f49065182" x="439.547283" y="303.033554" style="fill: #8172b2; fill-opacity: 0.35"/>
     <use xlink:href="#m4f49065182" x="424.480724" y="289.314461" style="fill: #8172b2; fill-opacity: 0.35"/>
     <use xlink:href="#m4f49065182" x="421.514915" y="268.709773" style="fill: #8172b2; fill-opacity: 0.35"/>
     <use xlink:href="#m4f49065182" x="431.226943" y="288.263822" style="fill: #8172b2; fill-opacity: 0.35"/>
     <use xlink:href="#m4f49065182" x="416.98753" y="293.134968" style="fill: #8172b2; fill-opacity: 0.35"/>
     <use xlink:href="#m4f49065182" x="412.152201" y="287.864405" style="fill: #8172b2; fill-opacity: 0.35"/>
     <use xlink:href="#m4f49065182" x="425.056174" y="286.179909" style="fill: #8172b2; fill-opacity: 0.35"/>
     <use xlink:href="#m4f49065182" x="422.728562" y="277.002009" style="fill: #8172b2; fill-opacity: 0.35"/>
     <use xlink:href="#m4f49065182" x="415.693985" y="277.861624" style="fill: #8172b2; fill-opacity: 0.35"/>
     <use xlink:href="#m4f49065182" x="420.84406" y="289.74861" style="fill: #8172b2; fill-opacity: 0.35"/>
     <use xlink:href="#m4f49065182" x="420.80134" y="288.593775" style="fill: #8172b2; fill-opacity: 0.35"/>
     <use xlink:href="#m4f49065182" x="419.316835" y="291.554667" style="fill: #8172b2; fill-opacity: 0.35"/>
     <use xlink:href="#m4f49065182" x="421.30022" y="292.796332" style="fill: #8172b2; fill-opacity: 0.35"/>
     <use xlink:href="#m4f49065182" x="432.989412" y="290.21749" style="fill: #8172b2; fill-opacity: 0.35"/>
     <use xlink:href="#m4f49065182" x="418.148253" y="282.619891" style="fill: #8172b2; fill-opacity: 0.35"/>
     <use xlink:href="#m4f49065182" x="443.031218" y="284.764585" style="fill: #8172b2; fill-opacity: 0.35"/>
     <use xlink:href="#m4f49065182" x="441.790473" y="283.418724" style="fill: #8172b2; fill-opacity: 0.35"/>
     <use xlink:href="#m4f49065182" x="425.171935" y="301.314326" style="fill: #8172b2; fill-opacity: 0.35"/>
     <use xlink:href="#m4f49065182" x="419.349872" y="289.98305" style="fill: #8172b2; fill-opacity: 0.35"/>
     <use xlink:href="#m4f49065182" x="427.252865" y="277.488256" style="fill: #8172b2; fill-opacity: 0.35"/>
     <use xlink:href="#m4f49065182" x="439.203352" y="242.808473" style="fill: #8172b2; fill-opacity: 0.35"/>
     <use xlink:href="#m4f49065182" x="431.724009" y="299.525634" style="fill: #8172b2; fill-opacity: 0.35"/>
     <use xlink:href="#m4f49065182" x="437.517649" y="285.051123" style="fill: #8172b2; fill-opacity: 0.35"/>
     <use xlink:href="#m4f49065182" x="427.149341" y="294.611073" style="fill: #8172b2; fill-opacity: 0.35"/>
     <use xlink:href="#m4f49065182" x="430.973311" y="285.841273" style="fill: #8172b2; fill-opacity: 0.35"/>
     <use xlink:href="#m4f49065182" x="417.81542" y="291.82384" style="fill: #8172b2; fill-opacity: 0.35"/>
     <use xlink:href="#m4f49065182" x="434.865222" y="287.239231" style="fill: #8172b2; fill-opacity: 0.35"/>
     <use xlink:href="#m4f49065182" x="414.54272" y="287.751527" style="fill: #8172b2; fill-opacity: 0.35"/>
     <use xlink:href="#m4f49065182" x="433.334989" y="287.404208" style="fill: #8172b2; fill-opacity: 0.35"/>
     <use xlink:href="#m4f49065182" x="439.667386" y="281.864473" style="fill: #8172b2; fill-opacity: 0.35"/>
     <use xlink:href="#m4f49065182" x="411.859643" y="288.31592" style="fill: #8172b2; fill-opacity: 0.35"/>
     <use xlink:href="#m4f49065182" x="430.26581" y="263.11794" style="fill: #8172b2; fill-opacity: 0.35"/>
     <use xlink:href="#m4f49065182" x="410.447262" y="290.486662" style="fill: #8172b2; fill-opacity: 0.35"/>
     <use xlink:href="#m4f49065182" x="434.51496" y="280.067098" style="fill: #8172b2; fill-opacity: 0.35"/>
     <use xlink:href="#m4f49065182" x="410.042615" y="286.770351" style="fill: #8172b2; fill-opacity: 0.35"/>
     <use xlink:href="#m4f49065182" x="442.538197" y="275.491173" style="fill: #8172b2; fill-opacity: 0.35"/>
     <use xlink:href="#m4f49065182" x="412.062113" y="301.114618" style="fill: #8172b2; fill-opacity: 0.35"/>
     <use xlink:href="#m4f49065182" x="443.413721" y="291.059738" style="fill: #8172b2; fill-opacity: 0.35"/>
     <use xlink:href="#m4f49065182" x="437.383779" y="285.198733" style="fill: #8172b2; fill-opacity: 0.35"/>
     <use xlink:href="#m4f49065182" x="429.475878" y="294.472145" style="fill: #8172b2; fill-opacity: 0.35"/>
     <use xlink:href="#m4f49065182" x="436.68688" y="289.870171" style="fill: #8172b2; fill-opacity: 0.35"/>
     <use xlink:href="#m4f49065182" x="437.163591" y="278.234991" style="fill: #8172b2; fill-opacity: 0.35"/>
     <use xlink:href="#m4f49065182" x="442.923178" y="276.255274" style="fill: #8172b2; fill-opacity: 0.35"/>
     <use xlink:href="#m4f49065182" x="416.488332" y="287.03084" style="fill: #8172b2; fill-opacity: 0.35"/>
     <use xlink:href="#m4f49065182" x="429.33825" y="282.480964" style="fill: #8172b2; fill-opacity: 0.35"/>
     <use xlink:href="#m4f49065182" x="410.445486" y="271.497006" style="fill: #8172b2; fill-opacity: 0.35"/>
     <use xlink:href="#m4f49065182" x="430.333972" y="290.955543" style="fill: #8172b2; fill-opacity: 0.35"/>
     <use xlink:href="#m4f49065182" x="413.355277" y="294.142193" style="fill: #8172b2; fill-opacity: 0.35"/>
     <use xlink:href="#m4f49065182" x="428.37934" y="274.466582" style="fill: #8172b2; fill-opacity: 0.35"/>
     <use xlink:href="#m4f49065182" x="428.664812" y="268.666358" style="fill: #8172b2; fill-opacity: 0.35"/>
     <use xlink:href="#m4f49065182" x="424.60231" y="296.026397" style="fill: #8172b2; fill-opacity: 0.35"/>
     <use xlink:href="#m4f49065182" x="426.764236" y="261.85891" style="fill: #8172b2; fill-opacity: 0.35"/>
     <use xlink:href="#m4f49065182" x="435.973165" y="271.340713" style="fill: #8172b2; fill-opacity: 0.35"/>
     <use xlink:href="#m4f49065182" x="437.321208" y="262.536181" style="fill: #8172b2; fill-opacity: 0.35"/>
     <use xlink:href="#m4f49065182" x="425.601017" y="281.378226" style="fill: #8172b2; fill-opacity: 0.35"/>
     <use xlink:href="#m4f49065182" x="429.701489" y="277.687964" style="fill: #8172b2; fill-opacity: 0.35"/>
     <use xlink:href="#m4f49065182" x="442.358684" y="283.010625" style="fill: #8172b2; fill-opacity: 0.35"/>
     <use xlink:href="#m4f49065182" x="411.387569" y="281.473739" style="fill: #8172b2; fill-opacity: 0.35"/>
     <use xlink:href="#m4f49065182" x="411.287194" y="281.786326" style="fill: #8172b2; fill-opacity: 0.35"/>
     <use xlink:href="#m4f49065182" x="410.165347" y="282.680672" style="fill: #8172b2; fill-opacity: 0.35"/>
     <use xlink:href="#m4f49065182" x="431.925366" y="285.68498" style="fill: #8172b2; fill-opacity: 0.35"/>
     <use xlink:href="#m4f49065182" x="422.794165" y="292.284037" style="fill: #8172b2; fill-opacity: 0.35"/>
     <use xlink:href="#m4f49065182" x="436.370007" y="291.962767" style="fill: #8172b2; fill-opacity: 0.35"/>
     <use xlink:href="#m4f49065182" x="432.435562" y="299.933734" style="fill: #8172b2; fill-opacity: 0.35"/>
     <use xlink:href="#m4f49065182" x="419.551252" y="271.809593" style="fill: #8172b2; fill-opacity: 0.35"/>
     <use xlink:href="#m4f49065182" x="441.104207" y="271.149688" style="fill: #8172b2; fill-opacity: 0.35"/>
     <use xlink:href="#m4f49065182" x="435.920068" y="297.64143" style="fill: #8172b2; fill-opacity: 0.35"/>
     <use xlink:href="#m4f49065182" x="417.142924" y="247.462545" style="fill: #8172b2; fill-opacity: 0.35"/>
     <use xlink:href="#m4f49065182" x="420.71736" y="266.730056" style="fill: #8172b2; fill-opacity: 0.35"/>
     <use xlink:href="#m4f49065182" x="418.818566" y="288.69797" style="fill: #8172b2; fill-opacity: 0.35"/>
     <use xlink:href="#m4f49065182" x="412.833191" y="283.878922" style="fill: #8172b2; fill-opacity: 0.35"/>
     <use xlink:href="#m4f49065182" x="412.458093" y="281.847107" style="fill: #8172b2; fill-opacity: 0.35"/>
     <use xlink:href="#m4f49065182" x="442.545358" y="281.881839" style="fill: #8172b2; fill-opacity: 0.35"/>
     <use xlink:href="#m4f49065182" x="423.53059" y="247.41913" style="fill: #8172b2; fill-opacity: 0.35"/>
     <use xlink:href="#m4f49065182" x="421.447375" y="282.602525" style="fill: #8172b2; fill-opacity: 0.35"/>
     <use xlink:href="#m4f49065182" x="434.666479" y="278.660457" style="fill: #8172b2; fill-opacity: 0.35"/>
     <use xlink:href="#m4f49065182" x="427.922979" y="295.323076" style="fill: #8172b2; fill-opacity: 0.35"/>
     <use xlink:href="#m4f49065182" x="442.545836" y="296.634205" style="fill: #8172b2; fill-opacity: 0.35"/>
     <use xlink:href="#m4f49065182" x="436.598238" y="287.360793" style="fill: #8172b2; fill-opacity: 0.35"/>
     <use xlink:href="#m4f49065182" x="425.113128" y="291.858571" style="fill: #8172b2; fill-opacity: 0.35"/>
     <use xlink:href="#m4f49065182" x="421.181733" y="290.104611" style="fill: #8172b2; fill-opacity: 0.35"/>
     <use xlink:href="#m4f49065182" x="444.472854" y="292.857113" style="fill: #8172b2; fill-opacity: 0.35"/>
     <use xlink:href="#m4f49065182" x="434.211342" y="283.140869" style="fill: #8172b2; fill-opacity: 0.35"/>
     <use xlink:href="#m4f49065182" x="443.1204" y="294.75" style="fill: #8172b2; fill-opacity: 0.35"/>
     <use xlink:href="#m4f49065182" x="411.339671" y="285.493954" style="fill: #8172b2; fill-opacity: 0.35"/>
     <use xlink:href="#m4f49065182" x="439.278659" y="258.550698" style="fill: #8172b2; fill-opacity: 0.35"/>
     <use xlink:href="#m4f49065182" x="431.131935" y="293.386774" style="fill: #8172b2; fill-opacity: 0.35"/>
     <use xlink:href="#m4f49065182" x="411.471078" y="284.564876" style="fill: #8172b2; fill-opacity: 0.35"/>
     <use xlink:href="#m4f49065182" x="429.26887" y="295.965616" style="fill: #8172b2; fill-opacity: 0.35"/>
     <use xlink:href="#m4f49065182" x="433.002885" y="292.93526" style="fill: #8172b2; fill-opacity: 0.35"/>
     <use xlink:href="#m4f49065182" x="407.287453" y="264.863217" style="fill: #8172b2; fill-opacity: 0.35"/>
     <use xlink:href="#m4f49065182" x="424.15703" y="278.955678" style="fill: #8172b2; fill-opacity: 0.35"/>
     <use xlink:href="#m4f49065182" x="438.31941" y="290.078563" style="fill: #8172b2; fill-opacity: 0.35"/>
     <use xlink:href="#m4f49065182" x="418.090339" y="285.415808" style="fill: #8172b2; fill-opacity: 0.35"/>
     <use xlink:href="#m4f49065182" x="424.318473" y="289.774659" style="fill: #8172b2; fill-opacity: 0.35"/>
     <use xlink:href="#m4f49065182" x="423.698901" y="282.32467" style="fill: #8172b2; fill-opacity: 0.35"/>
    </g>
   </g>
   <g id="text_14">
    <!-- *** -->
    <g style="fill: #333333" transform="translate(154.114777 79.555071) scale(0.09 -0.09)">
     <defs>
      <path id="DejaVuSans-2a" d="M 3009 3897 
L 1888 3291 
L 3009 2681 
L 2828 2375 
L 1778 3009 
L 1778 1831 
L 1422 1831 
L 1422 3009 
L 372 2375 
L 191 2681 
L 1313 3291 
L 191 3897 
L 372 4206 
L 1422 3572 
L 1422 4750 
L 1778 4750 
L 1778 3572 
L 2828 4206 
L 3009 3897 
z
" transform="scale(0.015625)"/>
     </defs>
     <use xlink:href="#DejaVuSans-2a"/>
     <use xlink:href="#DejaVuSans-2a" transform="translate(50 0)"/>
     <use xlink:href="#DejaVuSans-2a" transform="translate(100 0)"/>
    </g>
   </g>
   <g id="text_15">
    <!-- *** -->
    <g style="fill: #333333" transform="translate(207.12192 64.794022) scale(0.09 -0.09)">
     <use xlink:href="#DejaVuSans-2a"/>
     <use xlink:href="#DejaVuSans-2a" transform="translate(50 0)"/>
     <use xlink:href="#DejaVuSans-2a" transform="translate(100 0)"/>
    </g>
   </g>
   <g id="text_16">
    <!-- *** -->
    <g style="fill: #333333" transform="translate(260.129063 50.032972) scale(0.09 -0.09)">
     <use xlink:href="#DejaVuSans-2a"/>
     <use xlink:href="#DejaVuSans-2a" transform="translate(50 0)"/>
     <use xlink:href="#DejaVuSans-2a" transform="translate(100 0)"/>
    </g>
   </g>
   <g id="text_17">
    <!-- *** -->
    <g style="fill: #333333" transform="translate(313.136205 35.271923) scale(0.09 -0.09)">
     <use xlink:href="#DejaVuSans-2a"/>
     <use xlink:href="#DejaVuSans-2a" transform="translate(50 0)"/>
     <use xlink:href="#DejaVuSans-2a" transform="translate(100 0)"/>
    </g>
   </g>
   <g id="text_18">
    <!-- *** -->
    <g style="fill: #333333" transform="translate(366.143348 20.510874) scale(0.09 -0.09)">
     <use xlink:href="#DejaVuSans-2a"/>
     <use xlink:href="#DejaVuSans-2a" transform="translate(50 0)"/>
     <use xlink:href="#DejaVuSans-2a" transform="translate(100 0)"/>
    </g>
   </g>
  </g>
 </g>
 <defs>
  <clipPath id="p5c4bb785dd">
   <rect x="44.249063" y="9.261756" width="445.26" height="307.760931"/>
  </clipPath>
 </defs>
</svg>
