<?xml version="1.0" encoding="utf-8" standalone="no"?>
<!DOCTYPE svg PUBLIC "-//W3C//DTD SVG 1.1//EN"
  "http://www.w3.org/Graphics/SVG/1.1/DTD/svg11.dtd">
<svg xmlns:xlink="http://www.w3.org/1999/xlink" width="460.310937pt" height="315.931938pt" viewBox="0 0 460.310937 315.931938" xmlns="http://www.w3.org/2000/svg" version="1.1">
 <metadata>
  <rdf:RDF xmlns:dc="http://purl.org/dc/elements/1.1/" xmlns:cc="http://creativecommons.org/ns#" xmlns:rdf="http://www.w3.org/1999/02/22-rdf-syntax-ns#">
   <cc:Work>
    <dc:type rdf:resource="http://purl.org/dc/dcmitype/StillImage"/>
    <dc:date>2026-05-24T23:13:05.573731</dc:date>
    <dc:format>image/svg+xml</dc:format>
    <dc:creator>
     <cc:Agent>
      <dc:title>Matplotlib v3.10.9, https://matplotlib.org/</dc:title>
     </cc:Agent>
    </dc:creator>
   </cc:Work>
  </rdf:RDF>
 </metadata>
 <defs>
  <style type="text/css">*{stroke-linejoin: round; stroke-linecap: butt}</style>
 </defs>
 <g id="figure_1">
  <g id="patch_1">
   <path d="M 0 315.931938 
L 460.310937 315.931938 
L 460.310937 0 
L 0 0 
z
" style="fill: #ffffff"/>
  </g>
  <g id="axes_1">
   <g id="patch_2">
    <path d="M 42.190938 280.856 
L 453.110937 280.856 
L 453.110937 7.2 
L 42.190938 7.2 
z
" style="fill: #ffffff"/>
   </g>
   <g id="FillBetweenPolyCollection_1">
    <path d="M 108.441409 246.883652 
L 100.172094 246.883652 
L 99.544815 245.028185 
L 98.856287 243.172717 
L 98.101644 241.31725 
L 97.27548 239.461783 
L 96.37222 237.606315 
L 95.386681 235.750848 
L 94.314779 233.89538 
L 93.154379 232.039913 
L 91.906202 230.184446 
L 90.574732 228.328978 
L 89.169026 226.473511 
L 87.703316 224.618044 
L 86.197312 222.762576 
L 84.676092 220.907109 
L 83.169538 219.051642 
L 81.711268 217.196174 
L 80.337115 215.340707 
L 79.08324 213.485239 
L 77.984017 211.629772 
L 77.069899 209.774305 
L 76.365448 207.918837 
L 75.887751 206.06337 
L 75.645368 204.207903 
L 75.637914 202.352435 
L 75.856299 200.496968 
L 76.283579 198.6415 
L 76.896299 196.786033 
L 77.666176 194.930566 
L 78.561935 193.075098 
L 79.55114 191.219631 
L 80.601877 189.364164 
L 81.684179 187.508696 
L 82.771139 185.653229 
L 83.839707 183.797762 
L 84.871152 181.942294 
L 85.851256 180.086827 
L 86.770267 178.231359 
L 87.622657 176.375892 
L 88.406746 174.520425 
L 89.124213 172.664957 
L 89.779558 170.80949 
L 90.379531 168.954023 
L 90.932552 167.098555 
L 91.448162 165.243088 
L 91.93648 163.387621 
L 92.407701 161.532153 
L 92.871603 159.676686 
L 93.337077 157.821218 
L 93.811671 155.965751 
L 94.301169 154.110284 
L 94.809221 152.254816 
L 95.337075 150.399349 
L 95.883437 148.543882 
L 96.44451 146.688414 
L 97.014217 144.832947 
L 97.584625 142.97748 
L 98.14652 141.122012 
L 98.690106 139.266545 
L 99.205725 137.411077 
L 99.684561 135.55561 
L 100.119226 133.700143 
L 100.504214 131.844675 
L 100.836177 129.989208 
L 101.114036 128.133741 
L 101.338947 126.278273 
L 101.514154 124.422806 
L 101.644755 122.567339 
L 101.737406 120.711871 
L 101.799979 118.856404 
L 101.841166 117.000936 
L 101.870042 115.145469 
L 101.895572 113.290002 
L 101.926103 111.434534 
L 101.968844 109.579067 
L 102.029402 107.7236 
L 102.11141 105.868132 
L 102.216304 104.012665 
L 102.34328 102.157197 
L 102.489454 100.30173 
L 102.650196 98.446263 
L 102.819615 96.590795 
L 102.991132 94.735328 
L 103.15807 92.879861 
L 103.314209 91.024393 
L 103.454241 89.168926 
L 103.574111 87.313459 
L 103.6712 85.457991 
L 103.744399 83.602524 
L 103.794044 81.747056 
L 103.821779 79.891589 
L 103.83035 78.036122 
L 103.823348 76.180654 
L 103.804941 74.325187 
L 103.779582 72.46972 
L 103.751724 70.614252 
L 103.725545 68.758785 
L 103.704693 66.903318 
L 103.692077 65.04785 
L 103.689719 63.192383 
L 104.923784 63.192383 
L 104.923784 63.192383 
L 104.921425 65.04785 
L 104.90881 66.903318 
L 104.887958 68.758785 
L 104.861779 70.614252 
L 104.833921 72.46972 
L 104.808562 74.325187 
L 104.790155 76.180654 
L 104.783153 78.036122 
L 104.791724 79.891589 
L 104.819459 81.747056 
L 104.869104 83.602524 
L 104.942302 85.457991 
L 105.039392 87.313459 
L 105.159262 89.168926 
L 105.299294 91.024393 
L 105.455433 92.879861 
L 105.622371 94.735328 
L 105.793888 96.590795 
L 105.963307 98.446263 
L 106.124049 100.30173 
L 106.270223 102.157197 
L 106.397199 104.012665 
L 106.502093 105.868132 
L 106.5841 107.7236 
L 106.644659 109.579067 
L 106.6874 111.434534 
L 106.717931 113.290002 
L 106.743461 115.145469 
L 106.772337 117.000936 
L 106.813524 118.856404 
L 106.876097 120.711871 
L 106.968748 122.567339 
L 107.099349 124.422806 
L 107.274556 126.278273 
L 107.499467 128.133741 
L 107.777326 129.989208 
L 108.109289 131.844675 
L 108.494277 133.700143 
L 108.928942 135.55561 
L 109.407778 137.411077 
L 109.923397 139.266545 
L 110.466983 141.122012 
L 111.028878 142.97748 
L 111.599286 144.832947 
L 112.168993 146.688414 
L 112.730066 148.543882 
L 113.276428 150.399349 
L 113.804282 152.254816 
L 114.312334 154.110284 
L 114.801831 155.965751 
L 115.276426 157.821218 
L 115.7419 159.676686 
L 116.205802 161.532153 
L 116.677023 163.387621 
L 117.165341 165.243088 
L 117.680951 167.098555 
L 118.233972 168.954023 
L 118.833945 170.80949 
L 119.48929 172.664957 
L 120.206757 174.520425 
L 120.990845 176.375892 
L 121.843236 178.231359 
L 122.762247 180.086827 
L 123.742351 181.942294 
L 124.773796 183.797762 
L 125.842363 185.653229 
L 126.929324 187.508696 
L 128.011626 189.364164 
L 129.062363 191.219631 
L 130.051568 193.075098 
L 130.947327 194.930566 
L 131.717204 196.786033 
L 132.329924 198.6415 
L 132.757204 200.496968 
L 132.975589 202.352435 
L 132.968135 204.207903 
L 132.725752 206.06337 
L 132.248055 207.918837 
L 131.543604 209.774305 
L 130.629485 211.629772 
L 129.530263 213.485239 
L 128.276388 215.340707 
L 126.902235 217.196174 
L 125.443965 219.051642 
L 123.937411 220.907109 
L 122.416191 222.762576 
L 120.910187 224.618044 
L 119.444477 226.473511 
L 118.038771 228.328978 
L 116.707301 230.184446 
L 115.459124 232.039913 
L 114.298724 233.89538 
L 113.226822 235.750848 
L 112.241283 237.606315 
L 111.338023 239.461783 
L 110.511859 241.31725 
L 109.757216 243.172717 
L 109.068688 245.028185 
L 108.441409 246.883652 
z
" clip-path="url(#p75660aff0f)" style="fill: #4c78a8; fill-opacity: 0.45"/>
   </g>
   <g id="FillBetweenPolyCollection_2">
    <path d="M 211.900296 245.838754 
L 187.838788 245.838754 
L 186.407654 244.251673 
L 184.975631 242.664592 
L 183.566326 241.077511 
L 182.201461 239.490431 
L 180.899673 237.90335 
L 179.675598 236.316269 
L 178.53932 234.729188 
L 177.496257 233.142107 
L 176.547476 231.555026 
L 175.690408 229.967945 
L 174.919878 228.380864 
L 174.229322 226.793783 
L 173.612075 225.206702 
L 173.06257 223.619621 
L 172.577348 222.03254 
L 172.155791 220.445459 
L 171.800507 218.858378 
L 171.517377 217.271298 
L 171.315265 215.684217 
L 171.20543 214.097136 
L 171.200705 212.510055 
L 171.314482 210.922974 
L 171.559588 209.335893 
L 171.947093 207.748812 
L 172.485149 206.161731 
L 173.177916 204.57465 
L 174.024673 202.987569 
L 175.019218 201.400488 
L 176.149615 199.813407 
L 177.398373 198.226326 
L 178.743074 196.639245 
L 180.157433 195.052165 
L 181.612713 193.465084 
L 183.079367 191.878003 
L 184.528763 190.290922 
L 185.934794 188.703841 
L 187.275215 187.11676 
L 188.532575 185.529679 
L 189.694664 183.942598 
L 190.754453 182.355517 
L 191.709596 180.768436 
L 192.561597 179.181355 
L 193.314787 177.594274 
L 193.975263 176.007193 
L 194.549956 174.420112 
L 195.045892 172.833031 
L 195.46975 171.245951 
L 195.827681 169.65887 
L 196.125368 168.071789 
L 196.368241 166.484708 
L 196.561763 164.897627 
L 196.711678 163.310546 
L 196.824176 161.723465 
L 196.905916 160.136384 
L 196.963909 158.549303 
L 197.005281 156.962222 
L 197.036967 155.375141 
L 197.065379 153.78806 
L 197.096128 152.200979 
L 197.133809 150.613898 
L 197.181902 149.026818 
L 197.24276 147.439737 
L 197.317696 145.852656 
L 197.407105 144.265575 
L 197.510614 142.678494 
L 197.627212 141.091413 
L 197.755357 139.504332 
L 197.893034 137.917251 
L 198.037803 136.33017 
L 198.186827 134.743089 
L 198.336922 133.156008 
L 198.48464 131.568927 
L 198.6264 129.981846 
L 198.758657 128.394765 
L 198.878111 126.807685 
L 198.98193 125.220604 
L 199.067951 123.633523 
L 199.134853 122.046442 
L 199.182256 120.459361 
L 199.210748 118.87228 
L 199.221827 117.285199 
L 199.217764 115.698118 
L 199.201398 114.111037 
L 199.175897 112.523956 
L 199.144497 110.936875 
L 199.110268 109.349794 
L 199.075918 107.762713 
L 199.043666 106.175632 
L 199.015191 104.588552 
L 198.991653 103.001471 
L 198.973781 101.41439 
L 198.961996 99.827309 
L 198.956549 98.240228 
L 198.95763 96.653147 
L 198.965451 95.066066 
L 198.980262 93.478985 
L 199.002321 91.891904 
L 199.031811 90.304823 
L 199.068744 88.717742 
L 200.67034 88.717742 
L 200.67034 88.717742 
L 200.707273 90.304823 
L 200.736764 91.891904 
L 200.758822 93.478985 
L 200.773633 95.066066 
L 200.781454 96.653147 
L 200.782535 98.240228 
L 200.777088 99.827309 
L 200.765304 101.41439 
L 200.747432 103.001471 
L 200.723893 104.588552 
L 200.695418 106.175632 
L 200.663166 107.762713 
L 200.628816 109.349794 
L 200.594587 110.936875 
L 200.563188 112.523956 
L 200.537686 114.111037 
L 200.52132 115.698118 
L 200.517257 117.285199 
L 200.528336 118.87228 
L 200.556828 120.459361 
L 200.604231 122.046442 
L 200.671133 123.633523 
L 200.757155 125.220604 
L 200.860973 126.807685 
L 200.980428 128.394765 
L 201.112684 129.981846 
L 201.254444 131.568927 
L 201.402162 133.156008 
L 201.552257 134.743089 
L 201.701281 136.33017 
L 201.84605 137.917251 
L 201.983727 139.504332 
L 202.111872 141.091413 
L 202.228471 142.678494 
L 202.331979 144.265575 
L 202.421388 145.852656 
L 202.496324 147.439737 
L 202.557182 149.026818 
L 202.605275 150.613898 
L 202.642956 152.200979 
L 202.673705 153.78806 
L 202.702118 155.375141 
L 202.733803 156.962222 
L 202.775176 158.549303 
L 202.833169 160.136384 
L 202.914908 161.723465 
L 203.027406 163.310546 
L 203.177321 164.897627 
L 203.370843 166.484708 
L 203.613717 168.071789 
L 203.911403 169.65887 
L 204.269334 171.245951 
L 204.693192 172.833031 
L 205.189129 174.420112 
L 205.763821 176.007193 
L 206.424298 177.594274 
L 207.177487 179.181355 
L 208.029488 180.768436 
L 208.984632 182.355517 
L 210.04442 183.942598 
L 211.206509 185.529679 
L 212.46387 187.11676 
L 213.80429 188.703841 
L 215.210321 190.290922 
L 216.659718 191.878003 
L 218.126372 193.465084 
L 219.581651 195.052165 
L 220.99601 196.639245 
L 222.340712 198.226326 
L 223.589469 199.813407 
L 224.719866 201.400488 
L 225.714411 202.987569 
L 226.561169 204.57465 
L 227.253935 206.161731 
L 227.791991 207.748812 
L 228.179497 209.335893 
L 228.424602 210.922974 
L 228.538379 212.510055 
L 228.533654 214.097136 
L 228.42382 215.684217 
L 228.221707 217.271298 
L 227.938578 218.858378 
L 227.583293 220.445459 
L 227.161736 222.03254 
L 226.676515 223.619621 
L 226.127009 225.206702 
L 225.509762 226.793783 
L 224.819207 228.380864 
L 224.048676 229.967945 
L 223.191608 231.555026 
L 222.242827 233.142107 
L 221.199764 234.729188 
L 220.063487 236.316269 
L 218.839411 237.90335 
L 217.537623 239.490431 
L 216.172758 241.077511 
L 214.763453 242.664592 
L 213.33143 244.251673 
L 211.900296 245.838754 
z
" clip-path="url(#p75660aff0f)" style="fill: #72b7b2; fill-opacity: 0.45"/>
   </g>
   <g id="FillBetweenPolyCollection_3">
    <path d="M 301.247736 263.698603 
L 289.61693 263.698603 
L 288.633244 262.750027 
L 287.549377 261.80145 
L 286.369611 260.852873 
L 285.101451 259.904297 
L 283.755674 258.95572 
L 282.34622 258.007143 
L 280.889914 257.058567 
L 279.406024 256.10999 
L 277.915689 255.161413 
L 276.441243 254.212837 
L 275.00548 253.26426 
L 273.630898 252.315683 
L 272.338976 251.367107 
L 271.149493 250.41853 
L 270.079941 249.469954 
L 269.145038 248.521377 
L 268.356339 247.5728 
L 267.721966 246.624224 
L 267.246441 245.675647 
L 266.930619 244.72707 
L 266.771727 243.778494 
L 266.763496 242.829917 
L 266.8964 241.88134 
L 267.157997 240.932764 
L 267.533368 239.984187 
L 268.005664 239.03561 
L 268.556729 238.087034 
L 269.167796 237.138457 
L 269.82022 236.18988 
L 270.496197 235.241304 
L 271.179458 234.292727 
L 271.85586 233.344151 
L 272.513853 232.395574 
L 273.144793 231.446997 
L 273.743069 230.498421 
L 274.306045 229.549844 
L 274.83383 228.601267 
L 275.32889 227.652691 
L 275.795542 226.704114 
L 276.239377 225.755537 
L 276.666648 224.806961 
L 277.083689 223.858384 
L 277.496383 222.909807 
L 277.909733 221.961231 
L 278.327556 221.012654 
L 278.752298 220.064077 
L 279.184996 219.115501 
L 279.625346 218.166924 
L 280.071887 217.218348 
L 280.522245 216.269771 
L 280.973435 215.321194 
L 281.422174 214.372618 
L 281.865177 213.424041 
L 282.299428 212.475464 
L 282.722396 211.526888 
L 283.132191 210.578311 
L 283.527665 209.629734 
L 283.908451 208.681158 
L 284.274955 207.732581 
L 284.628304 206.784004 
L 284.97026 205.835428 
L 285.303113 204.886851 
L 285.629545 203.938274 
L 285.952478 202.989698 
L 286.274913 202.041121 
L 286.599745 201.092544 
L 286.92958 200.143968 
L 287.266542 199.195391 
L 287.612103 198.246815 
L 287.966924 197.298238 
L 288.330742 196.349661 
L 288.702311 195.401085 
L 289.079398 194.452508 
L 289.45886 193.503931 
L 289.836787 192.555355 
L 290.208704 191.606778 
L 290.569833 190.658201 
L 290.915382 189.709625 
L 291.240844 188.761048 
L 291.542281 187.812471 
L 291.816573 186.863895 
L 292.061618 185.915318 
L 292.276448 184.966741 
L 292.461285 184.018165 
L 292.617508 183.069588 
L 292.747549 182.121012 
L 292.854728 181.172435 
L 292.943041 180.223858 
L 293.01691 179.275282 
L 293.080926 178.326705 
L 293.139592 177.378128 
L 293.197093 176.429552 
L 293.257091 175.480975 
L 293.322578 174.532398 
L 293.395766 173.583822 
L 293.478042 172.635245 
L 293.569972 171.686668 
L 293.671346 170.738092 
L 293.781276 169.789515 
L 297.083389 169.789515 
L 297.083389 169.789515 
L 297.193319 170.738092 
L 297.294694 171.686668 
L 297.386623 172.635245 
L 297.4689 173.583822 
L 297.542088 174.532398 
L 297.607574 175.480975 
L 297.667573 176.429552 
L 297.725073 177.378128 
L 297.78374 178.326705 
L 297.847755 179.275282 
L 297.921624 180.223858 
L 298.009938 181.172435 
L 298.117117 182.121012 
L 298.247158 183.069588 
L 298.40338 184.018165 
L 298.588217 184.966741 
L 298.803048 185.915318 
L 299.048092 186.863895 
L 299.322385 187.812471 
L 299.623821 188.761048 
L 299.949283 189.709625 
L 300.294833 190.658201 
L 300.655962 191.606778 
L 301.027879 192.555355 
L 301.405805 193.503931 
L 301.785268 194.452508 
L 302.162355 195.401085 
L 302.533924 196.349661 
L 302.897742 197.298238 
L 303.252563 198.246815 
L 303.598124 199.195391 
L 303.935086 200.143968 
L 304.26492 201.092544 
L 304.589753 202.041121 
L 304.912188 202.989698 
L 305.235121 203.938274 
L 305.561552 204.886851 
L 305.894405 205.835428 
L 306.236362 206.784004 
L 306.589711 207.732581 
L 306.956215 208.681158 
L 307.337001 209.629734 
L 307.732475 210.578311 
L 308.14227 211.526888 
L 308.565237 212.475464 
L 308.999489 213.424041 
L 309.442492 214.372618 
L 309.891231 215.321194 
L 310.342421 216.269771 
L 310.792779 217.218348 
L 311.239319 218.166924 
L 311.67967 219.115501 
L 312.112368 220.064077 
L 312.53711 221.012654 
L 312.954933 221.961231 
L 313.368283 222.909807 
L 313.780977 223.858384 
L 314.198018 224.806961 
L 314.625289 225.755537 
L 315.069123 226.704114 
L 315.535775 227.652691 
L 316.030835 228.601267 
L 316.55862 229.549844 
L 317.121597 230.498421 
L 317.719872 231.446997 
L 318.350812 232.395574 
L 319.008806 233.344151 
L 319.685207 234.292727 
L 320.368469 235.241304 
L 321.044446 236.18988 
L 321.696869 237.138457 
L 322.307937 238.087034 
L 322.859002 239.03561 
L 323.331298 239.984187 
L 323.706669 240.932764 
L 323.968266 241.88134 
L 324.10117 242.829917 
L 324.092939 243.778494 
L 323.934047 244.72707 
L 323.618225 245.675647 
L 323.1427 246.624224 
L 322.508327 247.5728 
L 321.719628 248.521377 
L 320.784725 249.469954 
L 319.715173 250.41853 
L 318.52569 251.367107 
L 317.233767 252.315683 
L 315.859186 253.26426 
L 314.423423 254.212837 
L 312.948977 255.161413 
L 311.458642 256.10999 
L 309.974752 257.058567 
L 308.518446 258.007143 
L 307.108992 258.95572 
L 305.763214 259.904297 
L 304.495054 260.852873 
L 303.315289 261.80145 
L 302.231422 262.750027 
L 301.247736 263.698603 
z
" clip-path="url(#p75660aff0f)" style="fill: #f58518; fill-opacity: 0.45"/>
   </g>
   <g id="FillBetweenPolyCollection_4">
    <path d="M 396.359646 268.852847 
L 385.630601 268.852847 
L 384.894104 268.237669 
L 384.100633 267.622491 
L 383.248402 267.007313 
L 382.335513 266.392135 
L 381.360305 265.776957 
L 380.32186 265.161779 
L 379.220588 264.546602 
L 378.058858 263.931424 
L 376.841582 263.316246 
L 375.576675 262.701068 
L 374.275323 262.08589 
L 372.951996 261.470712 
L 371.624176 260.855534 
L 370.311803 260.240356 
L 369.036479 259.625178 
L 367.820474 259.01 
L 366.685658 258.394823 
L 365.65242 257.779645 
L 364.738707 257.164467 
L 363.959252 256.549289 
L 363.325065 255.934111 
L 362.84321 255.318933 
L 362.516878 254.703755 
L 362.345707 254.088577 
L 362.326286 253.473399 
L 362.452772 252.858221 
L 362.717516 252.243044 
L 363.111642 251.627866 
L 363.625496 251.012688 
L 364.248957 250.39751 
L 364.971581 249.782332 
L 365.782624 249.167154 
L 366.670968 248.551976 
L 367.625014 247.936798 
L 368.63259 247.32162 
L 369.680923 246.706442 
L 370.756703 246.091265 
L 371.846255 245.476087 
L 372.935805 244.860909 
L 374.011833 244.245731 
L 375.061466 243.630553 
L 376.072886 243.015375 
L 377.035717 242.400197 
L 377.941353 241.785019 
L 378.783207 241.169841 
L 379.55686 240.554663 
L 380.260113 239.939486 
L 380.892923 239.324308 
L 381.457248 238.70913 
L 381.956808 238.093952 
L 382.39678 237.478774 
L 382.783457 236.863596 
L 383.123886 236.248418 
L 383.425526 235.63324 
L 383.695929 235.018062 
L 383.942469 234.402884 
L 384.172124 233.787707 
L 384.39131 233.172529 
L 384.605771 232.557351 
L 384.820495 231.942173 
L 385.039663 231.326995 
L 385.266615 230.711817 
L 385.503817 230.096639 
L 385.752841 229.481461 
L 386.014341 228.866283 
L 386.28805 228.251105 
L 386.572785 227.635928 
L 386.866491 227.02075 
L 387.166306 226.405572 
L 387.46866 225.790394 
L 387.769422 225.175216 
L 388.064056 224.560038 
L 388.34782 223.94486 
L 388.615967 223.329682 
L 388.863955 222.714504 
L 389.087657 222.099326 
L 389.283553 221.484149 
L 389.448907 220.868971 
L 389.581915 220.253793 
L 389.681821 219.638615 
L 389.748987 219.023437 
L 389.784916 218.408259 
L 389.792227 217.793081 
L 389.77456 217.177903 
L 389.736435 216.562725 
L 389.683044 215.947547 
L 389.620014 215.33237 
L 389.55312 214.717192 
L 389.488004 214.102014 
L 389.429887 213.486836 
L 389.383323 212.871658 
L 389.351991 212.25648 
L 389.338555 211.641302 
L 389.34459 211.026124 
L 389.370587 210.410946 
L 389.416012 209.795768 
L 389.479432 209.180591 
L 389.55868 208.565413 
L 389.651036 207.950235 
L 392.339211 207.950235 
L 392.339211 207.950235 
L 392.431567 208.565413 
L 392.510815 209.180591 
L 392.574235 209.795768 
L 392.61966 210.410946 
L 392.645657 211.026124 
L 392.651693 211.641302 
L 392.638256 212.25648 
L 392.606924 212.871658 
L 392.56036 213.486836 
L 392.502243 214.102014 
L 392.437127 214.717192 
L 392.370233 215.33237 
L 392.307203 215.947547 
L 392.253812 216.562725 
L 392.215687 217.177903 
L 392.19802 217.793081 
L 392.205331 218.408259 
L 392.24126 219.023437 
L 392.308426 219.638615 
L 392.408332 220.253793 
L 392.54134 220.868971 
L 392.706694 221.484149 
L 392.90259 222.099326 
L 393.126292 222.714504 
L 393.37428 223.329682 
L 393.642427 223.94486 
L 393.926191 224.560038 
L 394.220825 225.175216 
L 394.521587 225.790394 
L 394.823941 226.405572 
L 395.123756 227.02075 
L 395.417462 227.635928 
L 395.702198 228.251105 
L 395.975906 228.866283 
L 396.237406 229.481461 
L 396.48643 230.096639 
L 396.723632 230.711817 
L 396.950584 231.326995 
L 397.169752 231.942173 
L 397.384476 232.557351 
L 397.598937 233.172529 
L 397.818123 233.787707 
L 398.047778 234.402884 
L 398.294318 235.018062 
L 398.564721 235.63324 
L 398.866362 236.248418 
L 399.206791 236.863596 
L 399.593467 237.478774 
L 400.033439 238.093952 
L 400.532999 238.70913 
L 401.097324 239.324308 
L 401.730134 239.939486 
L 402.433387 240.554663 
L 403.20704 241.169841 
L 404.048894 241.785019 
L 404.95453 242.400197 
L 405.917361 243.015375 
L 406.928782 243.630553 
L 407.978414 244.245731 
L 409.054442 244.860909 
L 410.143993 245.476087 
L 411.233544 246.091265 
L 412.309325 246.706442 
L 413.357657 247.32162 
L 414.365233 247.936798 
L 415.319279 248.551976 
L 416.207624 249.167154 
L 417.018667 249.782332 
L 417.741291 250.39751 
L 418.364751 251.012688 
L 418.878606 251.627866 
L 419.272731 252.243044 
L 419.537475 252.858221 
L 419.663961 253.473399 
L 419.64454 254.088577 
L 419.473369 254.703755 
L 419.147037 255.318933 
L 418.665182 255.934111 
L 418.030995 256.549289 
L 417.25154 257.164467 
L 416.337827 257.779645 
L 415.304589 258.394823 
L 414.169773 259.01 
L 412.953769 259.625178 
L 411.678444 260.240356 
L 410.366072 260.855534 
L 409.038251 261.470712 
L 407.714924 262.08589 
L 406.413573 262.701068 
L 405.148665 263.316246 
L 403.931389 263.931424 
L 402.769659 264.546602 
L 401.668387 265.161779 
L 400.629942 265.776957 
L 399.654734 266.392135 
L 398.741845 267.007313 
L 397.889615 267.622491 
L 397.096143 268.237669 
L 396.359646 268.852847 
z
" clip-path="url(#p75660aff0f)" style="fill: #e45756; fill-opacity: 0.45"/>
   </g>
   <g id="matplotlib.axis_1">
    <g id="xtick_1">
     <g id="line2d_1">
      <defs>
       <path id="me70e68dc4c" d="M 0 0 
L 0 3.5 
" style="stroke: #000000; stroke-width: 0.8"/>
      </defs>
      <g>
       <use xlink:href="#me70e68dc4c" x="104.306751" y="280.856" style="stroke: #000000; stroke-width: 0.8"/>
      </g>
     </g>
     <g id="text_1">
      <!-- Control -->
      <g transform="translate(86.235658 295.454437) scale(0.1 -0.1)">
       <defs>
        <path id="DejaVuSans-43" d="M 4122 4306 
L 4122 3641 
Q 3803 3938 3442 4084 
Q 3081 4231 2675 4231 
Q 1875 4231 1450 3742 
Q 1025 3253 1025 2328 
Q 1025 1406 1450 917 
Q 1875 428 2675 428 
Q 3081 428 3442 575 
Q 3803 722 4122 1019 
L 4122 359 
Q 3791 134 3420 21 
Q 3050 -91 2638 -91 
Q 1578 -91 968 557 
Q 359 1206 359 2328 
Q 359 3453 968 4101 
Q 1578 4750 2638 4750 
Q 3056 4750 3426 4639 
Q 3797 4528 4122 4306 
z
" transform="scale(0.015625)"/>
        <path id="DejaVuSans-6f" d="M 1959 3097 
Q 1497 3097 1228 2736 
Q 959 2375 959 1747 
Q 959 1119 1226 758 
Q 1494 397 1959 397 
Q 2419 397 2687 759 
Q 2956 1122 2956 1747 
Q 2956 2369 2687 2733 
Q 2419 3097 1959 3097 
z
M 1959 3584 
Q 2709 3584 3137 3096 
Q 3566 2609 3566 1747 
Q 3566 888 3137 398 
Q 2709 -91 1959 -91 
Q 1206 -91 779 398 
Q 353 888 353 1747 
Q 353 2609 779 3096 
Q 1206 3584 1959 3584 
z
" transform="scale(0.015625)"/>
        <path id="DejaVuSans-6e" d="M 3513 2113 
L 3513 0 
L 2938 0 
L 2938 2094 
Q 2938 2591 2744 2837 
Q 2550 3084 2163 3084 
Q 1697 3084 1428 2787 
Q 1159 2491 1159 1978 
L 1159 0 
L 581 0 
L 581 3500 
L 1159 3500 
L 1159 2956 
Q 1366 3272 1645 3428 
Q 1925 3584 2291 3584 
Q 2894 3584 3203 3211 
Q 3513 2838 3513 2113 
z
" transform="scale(0.015625)"/>
        <path id="DejaVuSans-74" d="M 1172 4494 
L 1172 3500 
L 2356 3500 
L 2356 3053 
L 1172 3053 
L 1172 1153 
Q 1172 725 1289 603 
Q 1406 481 1766 481 
L 2356 481 
L 2356 0 
L 1766 0 
Q 1100 0 847 248 
Q 594 497 594 1153 
L 594 3053 
L 172 3053 
L 172 3500 
L 594 3500 
L 594 4494 
L 1172 4494 
z
" transform="scale(0.015625)"/>
        <path id="DejaVuSans-72" d="M 2631 2963 
Q 2534 3019 2420 3045 
Q 2306 3072 2169 3072 
Q 1681 3072 1420 2755 
Q 1159 2438 1159 1844 
L 1159 0 
L 581 0 
L 581 3500 
L 1159 3500 
L 1159 2956 
Q 1341 3275 1631 3429 
Q 1922 3584 2338 3584 
Q 2397 3584 2469 3576 
Q 2541 3569 2628 3553 
L 2631 2963 
z
" transform="scale(0.015625)"/>
        <path id="DejaVuSans-6c" d="M 603 4863 
L 1178 4863 
L 1178 0 
L 603 0 
L 603 4863 
z
" transform="scale(0.015625)"/>
       </defs>
       <use xlink:href="#DejaVuSans-43"/>
       <use xlink:href="#DejaVuSans-6f" transform="translate(69.824219 0)"/>
       <use xlink:href="#DejaVuSans-6e" transform="translate(131.005859 0)"/>
       <use xlink:href="#DejaVuSans-74" transform="translate(194.384766 0)"/>
       <use xlink:href="#DejaVuSans-72" transform="translate(233.59375 0)"/>
       <use xlink:href="#DejaVuSans-6f" transform="translate(272.457031 0)"/>
       <use xlink:href="#DejaVuSans-6c" transform="translate(333.638672 0)"/>
      </g>
     </g>
    </g>
    <g id="xtick_2">
     <g id="line2d_2">
      <g>
       <use xlink:href="#me70e68dc4c" x="199.869542" y="280.856" style="stroke: #000000; stroke-width: 0.8"/>
      </g>
     </g>
     <g id="text_2">
      <!-- Drug-A -->
      <g transform="translate(182.509386 295.454437) scale(0.1 -0.1)">
       <defs>
        <path id="DejaVuSans-44" d="M 1259 4147 
L 1259 519 
L 2022 519 
Q 2988 519 3436 956 
Q 3884 1394 3884 2338 
Q 3884 3275 3436 3711 
Q 2988 4147 2022 4147 
L 1259 4147 
z
M 628 4666 
L 1925 4666 
Q 3281 4666 3915 4102 
Q 4550 3538 4550 2338 
Q 4550 1131 3912 565 
Q 3275 0 1925 0 
L 628 0 
L 628 4666 
z
" transform="scale(0.015625)"/>
        <path id="DejaVuSans-75" d="M 544 1381 
L 544 3500 
L 1119 3500 
L 1119 1403 
Q 1119 906 1312 657 
Q 1506 409 1894 409 
Q 2359 409 2629 706 
Q 2900 1003 2900 1516 
L 2900 3500 
L 3475 3500 
L 3475 0 
L 2900 0 
L 2900 538 
Q 2691 219 2414 64 
Q 2138 -91 1772 -91 
Q 1169 -91 856 284 
Q 544 659 544 1381 
z
M 1991 3584 
L 1991 3584 
z
" transform="scale(0.015625)"/>
        <path id="DejaVuSans-67" d="M 2906 1791 
Q 2906 2416 2648 2759 
Q 2391 3103 1925 3103 
Q 1463 3103 1205 2759 
Q 947 2416 947 1791 
Q 947 1169 1205 825 
Q 1463 481 1925 481 
Q 2391 481 2648 825 
Q 2906 1169 2906 1791 
z
M 3481 434 
Q 3481 -459 3084 -895 
Q 2688 -1331 1869 -1331 
Q 1566 -1331 1297 -1286 
Q 1028 -1241 775 -1147 
L 775 -588 
Q 1028 -725 1275 -790 
Q 1522 -856 1778 -856 
Q 2344 -856 2625 -561 
Q 2906 -266 2906 331 
L 2906 616 
Q 2728 306 2450 153 
Q 2172 0 1784 0 
Q 1141 0 747 490 
Q 353 981 353 1791 
Q 353 2603 747 3093 
Q 1141 3584 1784 3584 
Q 2172 3584 2450 3431 
Q 2728 3278 2906 2969 
L 2906 3500 
L 3481 3500 
L 3481 434 
z
" transform="scale(0.015625)"/>
        <path id="DejaVuSans-2d" d="M 313 2009 
L 1997 2009 
L 1997 1497 
L 313 1497 
L 313 2009 
z
" transform="scale(0.015625)"/>
        <path id="DejaVuSans-41" d="M 2188 4044 
L 1331 1722 
L 3047 1722 
L 2188 4044 
z
M 1831 4666 
L 2547 4666 
L 4325 0 
L 3669 0 
L 3244 1197 
L 1141 1197 
L 716 0 
L 50 0 
L 1831 4666 
z
" transform="scale(0.015625)"/>
       </defs>
       <use xlink:href="#DejaVuSans-44"/>
       <use xlink:href="#DejaVuSans-72" transform="translate(77.001953 0)"/>
       <use xlink:href="#DejaVuSans-75" transform="translate(118.115234 0)"/>
       <use xlink:href="#DejaVuSans-67" transform="translate(181.494141 0)"/>
       <use xlink:href="#DejaVuSans-2d" transform="translate(244.970703 0)"/>
       <use xlink:href="#DejaVuSans-41" transform="translate(278.804688 0)"/>
      </g>
      <!-- 10μM -->
      <g transform="translate(186.01173 306.65225) scale(0.1 -0.1)">
       <defs>
        <path id="DejaVuSans-31" d="M 794 531 
L 1825 531 
L 1825 4091 
L 703 3866 
L 703 4441 
L 1819 4666 
L 2450 4666 
L 2450 531 
L 3481 531 
L 3481 0 
L 794 0 
L 794 531 
z
" transform="scale(0.015625)"/>
        <path id="DejaVuSans-30" d="M 2034 4250 
Q 1547 4250 1301 3770 
Q 1056 3291 1056 2328 
Q 1056 1369 1301 889 
Q 1547 409 2034 409 
Q 2525 409 2770 889 
Q 3016 1369 3016 2328 
Q 3016 3291 2770 3770 
Q 2525 4250 2034 4250 
z
M 2034 4750 
Q 2819 4750 3233 4129 
Q 3647 3509 3647 2328 
Q 3647 1150 3233 529 
Q 2819 -91 2034 -91 
Q 1250 -91 836 529 
Q 422 1150 422 2328 
Q 422 3509 836 4129 
Q 1250 4750 2034 4750 
z
" transform="scale(0.015625)"/>
        <path id="DejaVuSans-3bc" d="M 544 -1331 
L 544 3500 
L 1119 3500 
L 1119 1325 
Q 1119 872 1334 640 
Q 1550 409 1972 409 
Q 2434 409 2667 671 
Q 2900 934 2900 1459 
L 2900 3500 
L 3475 3500 
L 3475 806 
Q 3475 619 3529 530 
Q 3584 441 3700 441 
Q 3728 441 3778 458 
Q 3828 475 3916 513 
L 3916 50 
Q 3788 -22 3673 -56 
Q 3559 -91 3450 -91 
Q 3234 -91 3106 31 
Q 2978 153 2931 403 
Q 2775 156 2548 32 
Q 2322 -91 2016 -91 
Q 1697 -91 1473 31 
Q 1250 153 1119 397 
L 1119 -1331 
L 544 -1331 
z
" transform="scale(0.015625)"/>
        <path id="DejaVuSans-4d" d="M 628 4666 
L 1569 4666 
L 2759 1491 
L 3956 4666 
L 4897 4666 
L 4897 0 
L 4281 0 
L 4281 4097 
L 3078 897 
L 2444 897 
L 1241 4097 
L 1241 0 
L 628 0 
L 628 4666 
z
" transform="scale(0.015625)"/>
       </defs>
       <use xlink:href="#DejaVuSans-31"/>
       <use xlink:href="#DejaVuSans-30" transform="translate(63.623047 0)"/>
       <use xlink:href="#DejaVuSans-3bc" transform="translate(127.246094 0)"/>
       <use xlink:href="#DejaVuSans-4d" transform="translate(190.869141 0)"/>
      </g>
     </g>
    </g>
    <g id="xtick_3">
     <g id="line2d_3">
      <g>
       <use xlink:href="#me70e68dc4c" x="295.432333" y="280.856" style="stroke: #000000; stroke-width: 0.8"/>
      </g>
     </g>
     <g id="text_3">
      <!-- Drug-A -->
      <g transform="translate(278.072177 295.454437) scale(0.1 -0.1)">
       <use xlink:href="#DejaVuSans-44"/>
       <use xlink:href="#DejaVuSans-72" transform="translate(77.001953 0)"/>
       <use xlink:href="#DejaVuSans-75" transform="translate(118.115234 0)"/>
       <use xlink:href="#DejaVuSans-67" transform="translate(181.494141 0)"/>
       <use xlink:href="#DejaVuSans-2d" transform="translate(244.970703 0)"/>
       <use xlink:href="#DejaVuSans-41" transform="translate(278.804688 0)"/>
      </g>
      <!-- 50μM -->
      <g transform="translate(281.57452 306.65225) scale(0.1 -0.1)">
       <defs>
        <path id="DejaVuSans-35" d="M 691 4666 
L 3169 4666 
L 3169 4134 
L 1269 4134 
L 1269 2991 
Q 1406 3038 1543 3061 
Q 1681 3084 1819 3084 
Q 2600 3084 3056 2656 
Q 3513 2228 3513 1497 
Q 3513 744 3044 326 
Q 2575 -91 1722 -91 
Q 1428 -91 1123 -41 
Q 819 9 494 109 
L 494 744 
Q 775 591 1075 516 
Q 1375 441 1709 441 
Q 2250 441 2565 725 
Q 2881 1009 2881 1497 
Q 2881 1984 2565 2268 
Q 2250 2553 1709 2553 
Q 1456 2553 1204 2497 
Q 953 2441 691 2322 
L 691 4666 
z
" transform="scale(0.015625)"/>
       </defs>
       <use xlink:href="#DejaVuSans-35"/>
       <use xlink:href="#DejaVuSans-30" transform="translate(63.623047 0)"/>
       <use xlink:href="#DejaVuSans-3bc" transform="translate(127.246094 0)"/>
       <use xlink:href="#DejaVuSans-4d" transform="translate(190.869141 0)"/>
      </g>
     </g>
    </g>
    <g id="xtick_4">
     <g id="line2d_4">
      <g>
       <use xlink:href="#me70e68dc4c" x="390.995124" y="280.856" style="stroke: #000000; stroke-width: 0.8"/>
      </g>
     </g>
     <g id="text_4">
      <!-- Combo -->
      <g transform="translate(373.340436 295.454437) scale(0.1 -0.1)">
       <defs>
        <path id="DejaVuSans-6d" d="M 3328 2828 
Q 3544 3216 3844 3400 
Q 4144 3584 4550 3584 
Q 5097 3584 5394 3201 
Q 5691 2819 5691 2113 
L 5691 0 
L 5113 0 
L 5113 2094 
Q 5113 2597 4934 2840 
Q 4756 3084 4391 3084 
Q 3944 3084 3684 2787 
Q 3425 2491 3425 1978 
L 3425 0 
L 2847 0 
L 2847 2094 
Q 2847 2600 2669 2842 
Q 2491 3084 2119 3084 
Q 1678 3084 1418 2786 
Q 1159 2488 1159 1978 
L 1159 0 
L 581 0 
L 581 3500 
L 1159 3500 
L 1159 2956 
Q 1356 3278 1631 3431 
Q 1906 3584 2284 3584 
Q 2666 3584 2933 3390 
Q 3200 3197 3328 2828 
z
" transform="scale(0.015625)"/>
        <path id="DejaVuSans-62" d="M 3116 1747 
Q 3116 2381 2855 2742 
Q 2594 3103 2138 3103 
Q 1681 3103 1420 2742 
Q 1159 2381 1159 1747 
Q 1159 1113 1420 752 
Q 1681 391 2138 391 
Q 2594 391 2855 752 
Q 3116 1113 3116 1747 
z
M 1159 2969 
Q 1341 3281 1617 3432 
Q 1894 3584 2278 3584 
Q 2916 3584 3314 3078 
Q 3713 2572 3713 1747 
Q 3713 922 3314 415 
Q 2916 -91 2278 -91 
Q 1894 -91 1617 61 
Q 1341 213 1159 525 
L 1159 0 
L 581 0 
L 581 4863 
L 1159 4863 
L 1159 2969 
z
" transform="scale(0.015625)"/>
       </defs>
       <use xlink:href="#DejaVuSans-43"/>
       <use xlink:href="#DejaVuSans-6f" transform="translate(69.824219 0)"/>
       <use xlink:href="#DejaVuSans-6d" transform="translate(131.005859 0)"/>
       <use xlink:href="#DejaVuSans-62" transform="translate(228.417969 0)"/>
       <use xlink:href="#DejaVuSans-6f" transform="translate(291.894531 0)"/>
      </g>
     </g>
    </g>
   </g>
   <g id="matplotlib.axis_2">
    <g id="ytick_1">
     <g id="line2d_5">
      <defs>
       <path id="m5483ab0e05" d="M 0 0 
L -3.5 0 
" style="stroke: #000000; stroke-width: 0.8"/>
      </defs>
      <g>
       <use xlink:href="#m5483ab0e05" x="42.190938" y="280.856" style="stroke: #000000; stroke-width: 0.8"/>
      </g>
     </g>
     <g id="text_5">
      <!-- 0.0 -->
      <g transform="translate(20.878125 284.275297) scale(0.09 -0.09)">
       <defs>
        <path id="DejaVuSans-2e" d="M 684 794 
L 1344 794 
L 1344 0 
L 684 0 
L 684 794 
z
" transform="scale(0.015625)"/>
       </defs>
       <use xlink:href="#DejaVuSans-30"/>
       <use xlink:href="#DejaVuSans-2e" transform="translate(63.623047 0)"/>
       <use xlink:href="#DejaVuSans-30" transform="translate(95.410156 0)"/>
      </g>
     </g>
    </g>
    <g id="ytick_2">
     <g id="line2d_6">
      <g>
       <use xlink:href="#m5483ab0e05" x="42.190938" y="236.952733" style="stroke: #000000; stroke-width: 0.8"/>
      </g>
     </g>
     <g id="text_6">
      <!-- 0.5 -->
      <g transform="translate(20.878125 240.37203) scale(0.09 -0.09)">
       <use xlink:href="#DejaVuSans-30"/>
       <use xlink:href="#DejaVuSans-2e" transform="translate(63.623047 0)"/>
       <use xlink:href="#DejaVuSans-35" transform="translate(95.410156 0)"/>
      </g>
     </g>
    </g>
    <g id="ytick_3">
     <g id="line2d_7">
      <g>
       <use xlink:href="#m5483ab0e05" x="42.190938" y="193.049466" style="stroke: #000000; stroke-width: 0.8"/>
      </g>
     </g>
     <g id="text_7">
      <!-- 1.0 -->
      <g transform="translate(20.878125 196.468763) scale(0.09 -0.09)">
       <use xlink:href="#DejaVuSans-31"/>
       <use xlink:href="#DejaVuSans-2e" transform="translate(63.623047 0)"/>
       <use xlink:href="#DejaVuSans-30" transform="translate(95.410156 0)"/>
      </g>
     </g>
    </g>
    <g id="ytick_4">
     <g id="line2d_8">
      <g>
       <use xlink:href="#m5483ab0e05" x="42.190938" y="149.146199" style="stroke: #000000; stroke-width: 0.8"/>
      </g>
     </g>
     <g id="text_8">
      <!-- 1.5 -->
      <g transform="translate(20.878125 152.565496) scale(0.09 -0.09)">
       <use xlink:href="#DejaVuSans-31"/>
       <use xlink:href="#DejaVuSans-2e" transform="translate(63.623047 0)"/>
       <use xlink:href="#DejaVuSans-35" transform="translate(95.410156 0)"/>
      </g>
     </g>
    </g>
    <g id="ytick_5">
     <g id="line2d_9">
      <g>
       <use xlink:href="#m5483ab0e05" x="42.190938" y="105.242932" style="stroke: #000000; stroke-width: 0.8"/>
      </g>
     </g>
     <g id="text_9">
      <!-- 2.0 -->
      <g transform="translate(20.878125 108.662229) scale(0.09 -0.09)">
       <defs>
        <path id="DejaVuSans-32" d="M 1228 531 
L 3431 531 
L 3431 0 
L 469 0 
L 469 531 
Q 828 903 1448 1529 
Q 2069 2156 2228 2338 
Q 2531 2678 2651 2914 
Q 2772 3150 2772 3378 
Q 2772 3750 2511 3984 
Q 2250 4219 1831 4219 
Q 1534 4219 1204 4116 
Q 875 4013 500 3803 
L 500 4441 
Q 881 4594 1212 4672 
Q 1544 4750 1819 4750 
Q 2544 4750 2975 4387 
Q 3406 4025 3406 3419 
Q 3406 3131 3298 2873 
Q 3191 2616 2906 2266 
Q 2828 2175 2409 1742 
Q 1991 1309 1228 531 
z
" transform="scale(0.015625)"/>
       </defs>
       <use xlink:href="#DejaVuSans-32"/>
       <use xlink:href="#DejaVuSans-2e" transform="translate(63.623047 0)"/>
       <use xlink:href="#DejaVuSans-30" transform="translate(95.410156 0)"/>
      </g>
     </g>
    </g>
    <g id="ytick_6">
     <g id="line2d_10">
      <g>
       <use xlink:href="#m5483ab0e05" x="42.190938" y="61.339665" style="stroke: #000000; stroke-width: 0.8"/>
      </g>
     </g>
     <g id="text_10">
      <!-- 2.5 -->
      <g transform="translate(20.878125 64.758962) scale(0.09 -0.09)">
       <use xlink:href="#DejaVuSans-32"/>
       <use xlink:href="#DejaVuSans-2e" transform="translate(63.623047 0)"/>
       <use xlink:href="#DejaVuSans-35" transform="translate(95.410156 0)"/>
      </g>
     </g>
    </g>
    <g id="ytick_7">
     <g id="line2d_11">
      <g>
       <use xlink:href="#m5483ab0e05" x="42.190938" y="17.436398" style="stroke: #000000; stroke-width: 0.8"/>
      </g>
     </g>
     <g id="text_11">
      <!-- 3.0 -->
      <g transform="translate(20.878125 20.855695) scale(0.09 -0.09)">
       <defs>
        <path id="DejaVuSans-33" d="M 2597 2516 
Q 3050 2419 3304 2112 
Q 3559 1806 3559 1356 
Q 3559 666 3084 287 
Q 2609 -91 1734 -91 
Q 1441 -91 1130 -33 
Q 819 25 488 141 
L 488 750 
Q 750 597 1062 519 
Q 1375 441 1716 441 
Q 2309 441 2620 675 
Q 2931 909 2931 1356 
Q 2931 1769 2642 2001 
Q 2353 2234 1838 2234 
L 1294 2234 
L 1294 2753 
L 1863 2753 
Q 2328 2753 2575 2939 
Q 2822 3125 2822 3475 
Q 2822 3834 2567 4026 
Q 2313 4219 1838 4219 
Q 1578 4219 1281 4162 
Q 984 4106 628 3988 
L 628 4550 
Q 988 4650 1302 4700 
Q 1616 4750 1894 4750 
Q 2613 4750 3031 4423 
Q 3450 4097 3450 3541 
Q 3450 3153 3228 2886 
Q 3006 2619 2597 2516 
z
" transform="scale(0.015625)"/>
       </defs>
       <use xlink:href="#DejaVuSans-33"/>
       <use xlink:href="#DejaVuSans-2e" transform="translate(63.623047 0)"/>
       <use xlink:href="#DejaVuSans-30" transform="translate(95.410156 0)"/>
      </g>
     </g>
    </g>
    <g id="text_12">
     <!-- Relative cell viability -->
     <g transform="translate(14.798438 195.647531) rotate(-90) scale(0.1 -0.1)">
      <defs>
       <path id="DejaVuSans-52" d="M 2841 2188 
Q 3044 2119 3236 1894 
Q 3428 1669 3622 1275 
L 4263 0 
L 3584 0 
L 2988 1197 
Q 2756 1666 2539 1819 
Q 2322 1972 1947 1972 
L 1259 1972 
L 1259 0 
L 628 0 
L 628 4666 
L 2053 4666 
Q 2853 4666 3247 4331 
Q 3641 3997 3641 3322 
Q 3641 2881 3436 2590 
Q 3231 2300 2841 2188 
z
M 1259 4147 
L 1259 2491 
L 2053 2491 
Q 2509 2491 2742 2702 
Q 2975 2913 2975 3322 
Q 2975 3731 2742 3939 
Q 2509 4147 2053 4147 
L 1259 4147 
z
" transform="scale(0.015625)"/>
       <path id="DejaVuSans-65" d="M 3597 1894 
L 3597 1613 
L 953 1613 
Q 991 1019 1311 708 
Q 1631 397 2203 397 
Q 2534 397 2845 478 
Q 3156 559 3463 722 
L 3463 178 
Q 3153 47 2828 -22 
Q 2503 -91 2169 -91 
Q 1331 -91 842 396 
Q 353 884 353 1716 
Q 353 2575 817 3079 
Q 1281 3584 2069 3584 
Q 2775 3584 3186 3129 
Q 3597 2675 3597 1894 
z
M 3022 2063 
Q 3016 2534 2758 2815 
Q 2500 3097 2075 3097 
Q 1594 3097 1305 2825 
Q 1016 2553 972 2059 
L 3022 2063 
z
" transform="scale(0.015625)"/>
       <path id="DejaVuSans-61" d="M 2194 1759 
Q 1497 1759 1228 1600 
Q 959 1441 959 1056 
Q 959 750 1161 570 
Q 1363 391 1709 391 
Q 2188 391 2477 730 
Q 2766 1069 2766 1631 
L 2766 1759 
L 2194 1759 
z
M 3341 1997 
L 3341 0 
L 2766 0 
L 2766 531 
Q 2569 213 2275 61 
Q 1981 -91 1556 -91 
Q 1019 -91 701 211 
Q 384 513 384 1019 
Q 384 1609 779 1909 
Q 1175 2209 1959 2209 
L 2766 2209 
L 2766 2266 
Q 2766 2663 2505 2880 
Q 2244 3097 1772 3097 
Q 1472 3097 1187 3025 
Q 903 2953 641 2809 
L 641 3341 
Q 956 3463 1253 3523 
Q 1550 3584 1831 3584 
Q 2591 3584 2966 3190 
Q 3341 2797 3341 1997 
z
" transform="scale(0.015625)"/>
       <path id="DejaVuSans-69" d="M 603 3500 
L 1178 3500 
L 1178 0 
L 603 0 
L 603 3500 
z
M 603 4863 
L 1178 4863 
L 1178 4134 
L 603 4134 
L 603 4863 
z
" transform="scale(0.015625)"/>
       <path id="DejaVuSans-76" d="M 191 3500 
L 800 3500 
L 1894 563 
L 2988 3500 
L 3597 3500 
L 2284 0 
L 1503 0 
L 191 3500 
z
" transform="scale(0.015625)"/>
       <path id="DejaVuSans-20" transform="scale(0.015625)"/>
       <path id="DejaVuSans-63" d="M 3122 3366 
L 3122 2828 
Q 2878 2963 2633 3030 
Q 2388 3097 2138 3097 
Q 1578 3097 1268 2742 
Q 959 2388 959 1747 
Q 959 1106 1268 751 
Q 1578 397 2138 397 
Q 2388 397 2633 464 
Q 2878 531 3122 666 
L 3122 134 
Q 2881 22 2623 -34 
Q 2366 -91 2075 -91 
Q 1284 -91 818 406 
Q 353 903 353 1747 
Q 353 2603 823 3093 
Q 1294 3584 2113 3584 
Q 2378 3584 2631 3529 
Q 2884 3475 3122 3366 
z
" transform="scale(0.015625)"/>
       <path id="DejaVuSans-79" d="M 2059 -325 
Q 1816 -950 1584 -1140 
Q 1353 -1331 966 -1331 
L 506 -1331 
L 506 -850 
L 844 -850 
Q 1081 -850 1212 -737 
Q 1344 -625 1503 -206 
L 1606 56 
L 191 3500 
L 800 3500 
L 1894 763 
L 2988 3500 
L 3597 3500 
L 2059 -325 
z
" transform="scale(0.015625)"/>
      </defs>
      <use xlink:href="#DejaVuSans-52"/>
      <use xlink:href="#DejaVuSans-65" transform="translate(64.982422 0)"/>
      <use xlink:href="#DejaVuSans-6c" transform="translate(126.505859 0)"/>
      <use xlink:href="#DejaVuSans-61" transform="translate(154.289062 0)"/>
      <use xlink:href="#DejaVuSans-74" transform="translate(215.568359 0)"/>
      <use xlink:href="#DejaVuSans-69" transform="translate(254.777344 0)"/>
      <use xlink:href="#DejaVuSans-76" transform="translate(282.560547 0)"/>
      <use xlink:href="#DejaVuSans-65" transform="translate(341.740234 0)"/>
      <use xlink:href="#DejaVuSans-20" transform="translate(403.263672 0)"/>
      <use xlink:href="#DejaVuSans-63" transform="translate(435.050781 0)"/>
      <use xlink:href="#DejaVuSans-65" transform="translate(490.03125 0)"/>
      <use xlink:href="#DejaVuSans-6c" transform="translate(551.554688 0)"/>
      <use xlink:href="#DejaVuSans-6c" transform="translate(579.337891 0)"/>
      <use xlink:href="#DejaVuSans-20" transform="translate(607.121094 0)"/>
      <use xlink:href="#DejaVuSans-76" transform="translate(638.908203 0)"/>
      <use xlink:href="#DejaVuSans-69" transform="translate(698.087891 0)"/>
      <use xlink:href="#DejaVuSans-61" transform="translate(725.871094 0)"/>
      <use xlink:href="#DejaVuSans-62" transform="translate(787.150391 0)"/>
      <use xlink:href="#DejaVuSans-69" transform="translate(850.626953 0)"/>
      <use xlink:href="#DejaVuSans-6c" transform="translate(878.410156 0)"/>
      <use xlink:href="#DejaVuSans-69" transform="translate(906.193359 0)"/>
      <use xlink:href="#DejaVuSans-74" transform="translate(933.976562 0)"/>
      <use xlink:href="#DejaVuSans-79" transform="translate(973.185547 0)"/>
     </g>
    </g>
   </g>
   <g id="patch_3">
    <path d="M 95.7061 209.77222 
L 112.907403 209.77222 
L 112.907403 174.300576 
L 95.7061 174.300576 
L 95.7061 209.77222 
z
" clip-path="url(#p75660aff0f)" style="fill: #4c78a8; opacity: 0.85; stroke: #000000; stroke-linejoin: miter"/>
   </g>
   <g id="line2d_12">
    <path d="M 104.306751 209.77222 
L 104.306751 246.883652 
" clip-path="url(#p75660aff0f)" style="fill: none; stroke: #333333; stroke-linecap: square"/>
   </g>
   <g id="line2d_13">
    <path d="M 104.306751 174.300576 
L 104.306751 122.927168 
" clip-path="url(#p75660aff0f)" style="fill: none; stroke: #333333; stroke-linecap: square"/>
   </g>
   <g id="line2d_14">
    <path d="M 100.006426 246.883652 
L 108.607077 246.883652 
" clip-path="url(#p75660aff0f)" style="fill: none; stroke: #333333; stroke-linecap: square"/>
   </g>
   <g id="line2d_15">
    <path d="M 100.006426 122.927168 
L 108.607077 122.927168 
" clip-path="url(#p75660aff0f)" style="fill: none; stroke: #333333; stroke-linecap: square"/>
   </g>
   <g id="patch_4">
    <path d="M 191.268891 228.523306 
L 208.470193 228.523306 
L 208.470193 200.438386 
L 191.268891 200.438386 
L 191.268891 228.523306 
z
" clip-path="url(#p75660aff0f)" style="fill: #72b7b2; opacity: 0.85; stroke: #000000; stroke-linejoin: miter"/>
   </g>
   <g id="line2d_16">
    <path d="M 199.869542 228.523306 
L 199.869542 245.838754 
" clip-path="url(#p75660aff0f)" style="fill: none; stroke: #333333; stroke-linecap: square"/>
   </g>
   <g id="line2d_17">
    <path d="M 199.869542 200.438386 
L 199.869542 167.550448 
" clip-path="url(#p75660aff0f)" style="fill: none; stroke: #333333; stroke-linecap: square"/>
   </g>
   <g id="line2d_18">
    <path d="M 195.569217 245.838754 
L 204.169868 245.838754 
" clip-path="url(#p75660aff0f)" style="fill: none; stroke: #333333; stroke-linecap: square"/>
   </g>
   <g id="line2d_19">
    <path d="M 195.569217 167.550448 
L 204.169868 167.550448 
" clip-path="url(#p75660aff0f)" style="fill: none; stroke: #333333; stroke-linecap: square"/>
   </g>
   <g id="patch_5">
    <path d="M 286.831682 245.028739 
L 304.032984 245.028739 
L 304.032984 218.860197 
L 286.831682 218.860197 
L 286.831682 245.028739 
z
" clip-path="url(#p75660aff0f)" style="fill: #f58518; opacity: 0.85; stroke: #000000; stroke-linejoin: miter"/>
   </g>
   <g id="line2d_20">
    <path d="M 295.432333 245.028739 
L 295.432333 263.698603 
" clip-path="url(#p75660aff0f)" style="fill: none; stroke: #333333; stroke-linecap: square"/>
   </g>
   <g id="line2d_21">
    <path d="M 295.432333 218.860197 
L 295.432333 187.377164 
" clip-path="url(#p75660aff0f)" style="fill: none; stroke: #333333; stroke-linecap: square"/>
   </g>
   <g id="line2d_22">
    <path d="M 291.132007 263.698603 
L 299.732658 263.698603 
" clip-path="url(#p75660aff0f)" style="fill: none; stroke: #333333; stroke-linecap: square"/>
   </g>
   <g id="line2d_23">
    <path d="M 291.132007 187.377164 
L 299.732658 187.377164 
" clip-path="url(#p75660aff0f)" style="fill: none; stroke: #333333; stroke-linecap: square"/>
   </g>
   <g id="patch_6">
    <path d="M 382.394472 256.961647 
L 399.595775 256.961647 
L 399.595775 244.429459 
L 382.394472 244.429459 
L 382.394472 256.961647 
z
" clip-path="url(#p75660aff0f)" style="fill: #e45756; opacity: 0.85; stroke: #000000; stroke-linejoin: miter"/>
   </g>
   <g id="line2d_24">
    <path d="M 390.995124 256.961647 
L 390.995124 268.852847 
" clip-path="url(#p75660aff0f)" style="fill: none; stroke: #333333; stroke-linecap: square"/>
   </g>
   <g id="line2d_25">
    <path d="M 390.995124 244.429459 
L 390.995124 227.214988 
" clip-path="url(#p75660aff0f)" style="fill: none; stroke: #333333; stroke-linecap: square"/>
   </g>
   <g id="line2d_26">
    <path d="M 386.694798 268.852847 
L 395.295449 268.852847 
" clip-path="url(#p75660aff0f)" style="fill: none; stroke: #333333; stroke-linecap: square"/>
   </g>
   <g id="line2d_27">
    <path d="M 386.694798 227.214988 
L 395.295449 227.214988 
" clip-path="url(#p75660aff0f)" style="fill: none; stroke: #333333; stroke-linecap: square"/>
   </g>
   <g id="line2d_28">
    <path d="M 104.306751 54.703502 
L 104.306751 50.132566 
L 199.869542 50.132566 
L 199.869542 54.703502 
" clip-path="url(#p75660aff0f)" style="fill: none; stroke: #444444; stroke-linecap: square"/>
   </g>
   <g id="line2d_29">
    <path d="M 104.306751 39.467049 
L 104.306751 34.896113 
L 295.432333 34.896113 
L 295.432333 39.467049 
" clip-path="url(#p75660aff0f)" style="fill: none; stroke: #444444; stroke-linecap: square"/>
   </g>
   <g id="line2d_30">
    <path d="M 104.306751 24.230595 
L 104.306751 19.659659 
L 390.995124 19.659659 
L 390.995124 24.230595 
" clip-path="url(#p75660aff0f)" style="fill: none; stroke: #444444; stroke-linecap: square"/>
   </g>
   <g id="line2d_31">
    <path d="M 95.7061 198.234442 
L 112.907403 198.234442 
" clip-path="url(#p75660aff0f)" style="fill: none; stroke: #000000; stroke-width: 2"/>
   </g>
   <g id="line2d_32">
    <path d="M 191.268891 212.516175 
L 208.470193 212.516175 
" clip-path="url(#p75660aff0f)" style="fill: none; stroke: #000000; stroke-width: 2"/>
   </g>
   <g id="line2d_33">
    <path d="M 286.831682 236.632239 
L 304.032984 236.632239 
" clip-path="url(#p75660aff0f)" style="fill: none; stroke: #000000; stroke-width: 2"/>
   </g>
   <g id="line2d_34">
    <path d="M 382.394472 251.638376 
L 399.595775 251.638376 
" clip-path="url(#p75660aff0f)" style="fill: none; stroke: #000000; stroke-width: 2"/>
   </g>
   <g id="patch_7">
    <path d="M 42.190938 280.856 
L 42.190938 7.2 
" style="fill: none; stroke: #000000; stroke-width: 0.8; stroke-linejoin: miter; stroke-linecap: square"/>
   </g>
   <g id="patch_8">
    <path d="M 42.190938 280.856 
L 453.110937 280.856 
" style="fill: none; stroke: #000000; stroke-width: 0.8; stroke-linejoin: miter; stroke-linecap: square"/>
   </g>
   <g id="PathCollection_1">
    <defs>
     <path id="mfd63f65b8d" d="M 0 1.870829 
C 0.49615 1.870829 0.972045 1.673706 1.322876 1.322876 
C 1.673706 0.972045 1.870829 0.49615 1.870829 0 
C 1.870829 -0.49615 1.673706 -0.972045 1.322876 -1.322876 
C 0.972045 -1.673706 0.49615 -1.870829 0 -1.870829 
C -0.49615 -1.870829 -0.972045 -1.673706 -1.322876 -1.322876 
C -1.673706 -0.972045 -1.870829 -0.49615 -1.870829 0 
C -1.870829 0.49615 -1.673706 0.972045 -1.322876 1.322876 
C -0.972045 1.673706 -0.49615 1.870829 0 1.870829 
z
"/>
    </defs>
    <g clip-path="url(#p75660aff0f)">
     <use xlink:href="#mfd63f65b8d" x="115.825953" y="204.991155" style="fill: #4c78a8; fill-opacity: 0.35"/>
     <use xlink:href="#mfd63f65b8d" x="101.736735" y="204.65749" style="fill: #4c78a8; fill-opacity: 0.35"/>
     <use xlink:href="#mfd63f65b8d" x="119.384943" y="209.320017" style="fill: #4c78a8; fill-opacity: 0.35"/>
     <use xlink:href="#mfd63f65b8d" x="112.605609" y="192.329452" style="fill: #4c78a8; fill-opacity: 0.35"/>
     <use xlink:href="#mfd63f65b8d" x="87.242872" y="63.192383" style="fill: #4c78a8; fill-opacity: 0.35"/>
     <use xlink:href="#mfd63f65b8d" x="124.305543" y="122.927168" style="fill: #4c78a8; fill-opacity: 0.35"/>
     <use xlink:href="#mfd63f65b8d" x="115.287056" y="179.983854" style="fill: #4c78a8; fill-opacity: 0.35"/>
     <use xlink:href="#mfd63f65b8d" x="116.335077" y="167.655816" style="fill: #4c78a8; fill-opacity: 0.35"/>
     <use xlink:href="#mfd63f65b8d" x="88.669812" y="146.310048" style="fill: #4c78a8; fill-opacity: 0.35"/>
     <use xlink:href="#mfd63f65b8d" x="102.220598" y="204.139431" style="fill: #4c78a8; fill-opacity: 0.35"/>
     <use xlink:href="#mfd63f65b8d" x="98.874115" y="195.25341" style="fill: #4c78a8; fill-opacity: 0.35"/>
     <use xlink:href="#mfd63f65b8d" x="122.251207" y="225.713497" style="fill: #4c78a8; fill-opacity: 0.35"/>
     <use xlink:href="#mfd63f65b8d" x="110.355938" y="180.458009" style="fill: #4c78a8; fill-opacity: 0.35"/>
     <use xlink:href="#mfd63f65b8d" x="117.878112" y="187.912784" style="fill: #4c78a8; fill-opacity: 0.35"/>
     <use xlink:href="#mfd63f65b8d" x="101.927453" y="211.664451" style="fill: #4c78a8; fill-opacity: 0.35"/>
     <use xlink:href="#mfd63f65b8d" x="92.837787" y="193.24264" style="fill: #4c78a8; fill-opacity: 0.35"/>
     <use xlink:href="#mfd63f65b8d" x="106.601912" y="196.06123" style="fill: #4c78a8; fill-opacity: 0.35"/>
     <use xlink:href="#mfd63f65b8d" x="85.966302" y="209.188307" style="fill: #4c78a8; fill-opacity: 0.35"/>
     <use xlink:href="#mfd63f65b8d" x="118.082865" y="201.751093" style="fill: #4c78a8; fill-opacity: 0.35"/>
     <use xlink:href="#mfd63f65b8d" x="109.842927" y="209.76783" style="fill: #4c78a8; fill-opacity: 0.35"/>
     <use xlink:href="#mfd63f65b8d" x="115.158729" y="153.641894" style="fill: #4c78a8; fill-opacity: 0.35"/>
     <use xlink:href="#mfd63f65b8d" x="98.189913" y="167.515326" style="fill: #4c78a8; fill-opacity: 0.35"/>
     <use xlink:href="#mfd63f65b8d" x="124.098487" y="202.093539" style="fill: #4c78a8; fill-opacity: 0.35"/>
     <use xlink:href="#mfd63f65b8d" x="120.836562" y="202.330617" style="fill: #4c78a8; fill-opacity: 0.35"/>
     <use xlink:href="#mfd63f65b8d" x="116.012117" y="219.83924" style="fill: #4c78a8; fill-opacity: 0.35"/>
     <use xlink:href="#mfd63f65b8d" x="91.467033" y="192.56653" style="fill: #4c78a8; fill-opacity: 0.35"/>
     <use xlink:href="#mfd63f65b8d" x="102.907449" y="164.925033" style="fill: #4c78a8; fill-opacity: 0.35"/>
     <use xlink:href="#mfd63f65b8d" x="85.124782" y="207.730718" style="fill: #4c78a8; fill-opacity: 0.35"/>
     <use xlink:href="#mfd63f65b8d" x="89.770445" y="202.084758" style="fill: #4c78a8; fill-opacity: 0.35"/>
     <use xlink:href="#mfd63f65b8d" x="112.003526" y="142.999742" style="fill: #4c78a8; fill-opacity: 0.35"/>
     <use xlink:href="#mfd63f65b8d" x="114.59842" y="244.802637" style="fill: #4c78a8; fill-opacity: 0.35"/>
     <use xlink:href="#mfd63f65b8d" x="123.964427" y="214.33377" style="fill: #4c78a8; fill-opacity: 0.35"/>
     <use xlink:href="#mfd63f65b8d" x="96.983121" y="189.265004" style="fill: #4c78a8; fill-opacity: 0.35"/>
     <use xlink:href="#mfd63f65b8d" x="98.859889" y="152.948222" style="fill: #4c78a8; fill-opacity: 0.35"/>
     <use xlink:href="#mfd63f65b8d" x="103.026646" y="197.922729" style="fill: #4c78a8; fill-opacity: 0.35"/>
     <use xlink:href="#mfd63f65b8d" x="91.249759" y="181.309732" style="fill: #4c78a8; fill-opacity: 0.35"/>
     <use xlink:href="#mfd63f65b8d" x="88.745829" y="215.712332" style="fill: #4c78a8; fill-opacity: 0.35"/>
     <use xlink:href="#mfd63f65b8d" x="103.285201" y="165.662608" style="fill: #4c78a8; fill-opacity: 0.35"/>
     <use xlink:href="#mfd63f65b8d" x="92.823937" y="189.905992" style="fill: #4c78a8; fill-opacity: 0.35"/>
     <use xlink:href="#mfd63f65b8d" x="111.447027" y="200.328628" style="fill: #4c78a8; fill-opacity: 0.35"/>
     <use xlink:href="#mfd63f65b8d" x="101.664139" y="187.500093" style="fill: #4c78a8; fill-opacity: 0.35"/>
     <use xlink:href="#mfd63f65b8d" x="118.29508" y="210.461502" style="fill: #4c78a8; fill-opacity: 0.35"/>
     <use xlink:href="#mfd63f65b8d" x="112.727424" y="144.632943" style="fill: #4c78a8; fill-opacity: 0.35"/>
     <use xlink:href="#mfd63f65b8d" x="96.417214" y="209.785391" style="fill: #4c78a8; fill-opacity: 0.35"/>
     <use xlink:href="#mfd63f65b8d" x="118.277488" y="193.321666" style="fill: #4c78a8; fill-opacity: 0.35"/>
     <use xlink:href="#mfd63f65b8d" x="117.12137" y="198.546155" style="fill: #4c78a8; fill-opacity: 0.35"/>
     <use xlink:href="#mfd63f65b8d" x="99.575484" y="206.615575" style="fill: #4c78a8; fill-opacity: 0.35"/>
     <use xlink:href="#mfd63f65b8d" x="95.40645" y="180.185809" style="fill: #4c78a8; fill-opacity: 0.35"/>
     <use xlink:href="#mfd63f65b8d" x="111.980254" y="106.884914" style="fill: #4c78a8; fill-opacity: 0.35"/>
     <use xlink:href="#mfd63f65b8d" x="89.159198" y="192.724582" style="fill: #4c78a8; fill-opacity: 0.35"/>
     <use xlink:href="#mfd63f65b8d" x="91.688603" y="148.566676" style="fill: #4c78a8; fill-opacity: 0.35"/>
     <use xlink:href="#mfd63f65b8d" x="83.592503" y="168.129972" style="fill: #4c78a8; fill-opacity: 0.35"/>
     <use xlink:href="#mfd63f65b8d" x="116.371241" y="237.18103" style="fill: #4c78a8; fill-opacity: 0.35"/>
     <use xlink:href="#mfd63f65b8d" x="111.238339" y="193.321666" style="fill: #4c78a8; fill-opacity: 0.35"/>
     <use xlink:href="#mfd63f65b8d" x="112.933469" y="214.825486" style="fill: #4c78a8; fill-opacity: 0.35"/>
     <use xlink:href="#mfd63f65b8d" x="116.110741" y="218.987516" style="fill: #4c78a8; fill-opacity: 0.35"/>
     <use xlink:href="#mfd63f65b8d" x="102.579257" y="224.045172" style="fill: #4c78a8; fill-opacity: 0.35"/>
     <use xlink:href="#mfd63f65b8d" x="107.197156" y="151.639905" style="fill: #4c78a8; fill-opacity: 0.35"/>
     <use xlink:href="#mfd63f65b8d" x="89.16107" y="177.929181" style="fill: #4c78a8; fill-opacity: 0.35"/>
     <use xlink:href="#mfd63f65b8d" x="88.098655" y="202.453546" style="fill: #4c78a8; fill-opacity: 0.35"/>
     <use xlink:href="#mfd63f65b8d" x="111.387697" y="209.240991" style="fill: #4c78a8; fill-opacity: 0.35"/>
     <use xlink:href="#mfd63f65b8d" x="103.091415" y="226.653027" style="fill: #4c78a8; fill-opacity: 0.35"/>
     <use xlink:href="#mfd63f65b8d" x="107.049775" y="157.408794" style="fill: #4c78a8; fill-opacity: 0.35"/>
     <use xlink:href="#mfd63f65b8d" x="115.449325" y="228.338912" style="fill: #4c78a8; fill-opacity: 0.35"/>
     <use xlink:href="#mfd63f65b8d" x="109.971337" y="246.883652" style="fill: #4c78a8; fill-opacity: 0.35"/>
     <use xlink:href="#mfd63f65b8d" x="106.559638" y="215.150371" style="fill: #4c78a8; fill-opacity: 0.35"/>
     <use xlink:href="#mfd63f65b8d" x="106.796272" y="214.799144" style="fill: #4c78a8; fill-opacity: 0.35"/>
     <use xlink:href="#mfd63f65b8d" x="96.063318" y="157.558065" style="fill: #4c78a8; fill-opacity: 0.35"/>
     <use xlink:href="#mfd63f65b8d" x="84.578754" y="203.963818" style="fill: #4c78a8; fill-opacity: 0.35"/>
     <use xlink:href="#mfd63f65b8d" x="101.645868" y="227.812073" style="fill: #4c78a8; fill-opacity: 0.35"/>
     <use xlink:href="#mfd63f65b8d" x="92.305714" y="205.438968" style="fill: #4c78a8; fill-opacity: 0.35"/>
     <use xlink:href="#mfd63f65b8d" x="100.460598" y="106.981501" style="fill: #4c78a8; fill-opacity: 0.35"/>
     <use xlink:href="#mfd63f65b8d" x="119.166512" y="216.098681" style="fill: #4c78a8; fill-opacity: 0.35"/>
     <use xlink:href="#mfd63f65b8d" x="93.119538" y="200.688634" style="fill: #4c78a8; fill-opacity: 0.35"/>
     <use xlink:href="#mfd63f65b8d" x="85.734429" y="200.047647" style="fill: #4c78a8; fill-opacity: 0.35"/>
     <use xlink:href="#mfd63f65b8d" x="95.114463" y="160.58739" style="fill: #4c78a8; fill-opacity: 0.35"/>
     <use xlink:href="#mfd63f65b8d" x="95.627859" y="104.970732" style="fill: #4c78a8; fill-opacity: 0.35"/>
     <use xlink:href="#mfd63f65b8d" x="111.114957" y="184.224909" style="fill: #4c78a8; fill-opacity: 0.35"/>
     <use xlink:href="#mfd63f65b8d" x="106.704818" y="206.764847" style="fill: #4c78a8; fill-opacity: 0.35"/>
     <use xlink:href="#mfd63f65b8d" x="116.243998" y="175.312546" style="fill: #4c78a8; fill-opacity: 0.35"/>
     <use xlink:href="#mfd63f65b8d" x="111.215746" y="238.770328" style="fill: #4c78a8; fill-opacity: 0.35"/>
     <use xlink:href="#mfd63f65b8d" x="100.370541" y="206.202885" style="fill: #4c78a8; fill-opacity: 0.35"/>
     <use xlink:href="#mfd63f65b8d" x="117.510564" y="233.879504" style="fill: #4c78a8; fill-opacity: 0.35"/>
     <use xlink:href="#mfd63f65b8d" x="90.303753" y="205.588239" style="fill: #4c78a8; fill-opacity: 0.35"/>
     <use xlink:href="#mfd63f65b8d" x="84.237926" y="226.69693" style="fill: #4c78a8; fill-opacity: 0.35"/>
     <use xlink:href="#mfd63f65b8d" x="87.069236" y="170.588555" style="fill: #4c78a8; fill-opacity: 0.35"/>
     <use xlink:href="#mfd63f65b8d" x="113.656435" y="214.07035" style="fill: #4c78a8; fill-opacity: 0.35"/>
     <use xlink:href="#mfd63f65b8d" x="102.703779" y="171.264665" style="fill: #4c78a8; fill-opacity: 0.35"/>
     <use xlink:href="#mfd63f65b8d" x="90.064033" y="182.609269" style="fill: #4c78a8; fill-opacity: 0.35"/>
     <use xlink:href="#mfd63f65b8d" x="104.350682" y="163.528909" style="fill: #4c78a8; fill-opacity: 0.35"/>
     <use xlink:href="#mfd63f65b8d" x="89.6873" y="187.245454" style="fill: #4c78a8; fill-opacity: 0.35"/>
     <use xlink:href="#mfd63f65b8d" x="112.561558" y="175.892069" style="fill: #4c78a8; fill-opacity: 0.35"/>
     <use xlink:href="#mfd63f65b8d" x="102.042751" y="209.039036" style="fill: #4c78a8; fill-opacity: 0.35"/>
     <use xlink:href="#mfd63f65b8d" x="99.303976" y="186.701054" style="fill: #4c78a8; fill-opacity: 0.35"/>
     <use xlink:href="#mfd63f65b8d" x="95.960806" y="192.548969" style="fill: #4c78a8; fill-opacity: 0.35"/>
     <use xlink:href="#mfd63f65b8d" x="109.784825" y="131.049272" style="fill: #4c78a8; fill-opacity: 0.35"/>
     <use xlink:href="#mfd63f65b8d" x="98.4963" y="200.109111" style="fill: #4c78a8; fill-opacity: 0.35"/>
     <use xlink:href="#mfd63f65b8d" x="86.968409" y="221.446099" style="fill: #4c78a8; fill-opacity: 0.35"/>
     <use xlink:href="#mfd63f65b8d" x="88.244806" y="214.632312" style="fill: #4c78a8; fill-opacity: 0.35"/>
     <use xlink:href="#mfd63f65b8d" x="123.728453" y="148.35594" style="fill: #4c78a8; fill-opacity: 0.35"/>
    </g>
   </g>
   <g id="PathCollection_2">
    <defs>
     <path id="m7fe8b4df09" d="M 0 1.870829 
C 0.49615 1.870829 0.972045 1.673706 1.322876 1.322876 
C 1.673706 0.972045 1.870829 0.49615 1.870829 0 
C 1.870829 -0.49615 1.673706 -0.972045 1.322876 -1.322876 
C 0.972045 -1.673706 0.49615 -1.870829 0 -1.870829 
C -0.49615 -1.870829 -0.972045 -1.673706 -1.322876 -1.322876 
C -1.673706 -0.972045 -1.870829 -0.49615 -1.870829 0 
C -1.870829 0.49615 -1.673706 0.972045 -1.322876 1.322876 
C -0.972045 1.673706 -0.49615 1.870829 0 1.870829 
z
"/>
    </defs>
    <g clip-path="url(#p75660aff0f)">
     <use xlink:href="#m7fe8b4df09" x="217.049391" y="178.780904" style="fill: #72b7b2; fill-opacity: 0.35"/>
     <use xlink:href="#m7fe8b4df09" x="208.266753" y="245.048495" style="fill: #72b7b2; fill-opacity: 0.35"/>
     <use xlink:href="#m7fe8b4df09" x="190.024929" y="201.127667" style="fill: #72b7b2; fill-opacity: 0.35"/>
     <use xlink:href="#m7fe8b4df09" x="219.597296" y="228.496964" style="fill: #72b7b2; fill-opacity: 0.35"/>
     <use xlink:href="#m7fe8b4df09" x="211.590356" y="228.602332" style="fill: #72b7b2; fill-opacity: 0.35"/>
     <use xlink:href="#m7fe8b4df09" x="208.98926" y="233.42291" style="fill: #72b7b2; fill-opacity: 0.35"/>
     <use xlink:href="#m7fe8b4df09" x="197.740313" y="204.069186" style="fill: #72b7b2; fill-opacity: 0.35"/>
     <use xlink:href="#m7fe8b4df09" x="190.29284" y="236.575165" style="fill: #72b7b2; fill-opacity: 0.35"/>
     <use xlink:href="#m7fe8b4df09" x="182.89874" y="202.752088" style="fill: #72b7b2; fill-opacity: 0.35"/>
     <use xlink:href="#m7fe8b4df09" x="216.798018" y="221.410976" style="fill: #72b7b2; fill-opacity: 0.35"/>
     <use xlink:href="#m7fe8b4df09" x="198.01004" y="179.465795" style="fill: #72b7b2; fill-opacity: 0.35"/>
     <use xlink:href="#m7fe8b4df09" x="187.354628" y="221.296828" style="fill: #72b7b2; fill-opacity: 0.35"/>
     <use xlink:href="#m7fe8b4df09" x="191.710478" y="205.772633" style="fill: #72b7b2; fill-opacity: 0.35"/>
     <use xlink:href="#m7fe8b4df09" x="203.200537" y="245.557773" style="fill: #72b7b2; fill-opacity: 0.35"/>
     <use xlink:href="#m7fe8b4df09" x="186.278604" y="217.354315" style="fill: #72b7b2; fill-opacity: 0.35"/>
     <use xlink:href="#m7fe8b4df09" x="214.864327" y="228.04037" style="fill: #72b7b2; fill-opacity: 0.35"/>
     <use xlink:href="#m7fe8b4df09" x="210.739675" y="221.72708" style="fill: #72b7b2; fill-opacity: 0.35"/>
     <use xlink:href="#m7fe8b4df09" x="209.097439" y="219.005077" style="fill: #72b7b2; fill-opacity: 0.35"/>
     <use xlink:href="#m7fe8b4df09" x="197.014216" y="199.520808" style="fill: #72b7b2; fill-opacity: 0.35"/>
     <use xlink:href="#m7fe8b4df09" x="205.222577" y="227.77695" style="fill: #72b7b2; fill-opacity: 0.35"/>
     <use xlink:href="#m7fe8b4df09" x="203.405662" y="238.498128" style="fill: #72b7b2; fill-opacity: 0.35"/>
     <use xlink:href="#m7fe8b4df09" x="206.170236" y="214.263525" style="fill: #72b7b2; fill-opacity: 0.35"/>
     <use xlink:href="#m7fe8b4df09" x="182.396412" y="106.164901" style="fill: #72b7b2; fill-opacity: 0.35"/>
     <use xlink:href="#m7fe8b4df09" x="196.329443" y="245.215328" style="fill: #72b7b2; fill-opacity: 0.35"/>
     <use xlink:href="#m7fe8b4df09" x="180.595505" y="222.289042" style="fill: #72b7b2; fill-opacity: 0.35"/>
     <use xlink:href="#m7fe8b4df09" x="199.61687" y="229.945772" style="fill: #72b7b2; fill-opacity: 0.35"/>
     <use xlink:href="#m7fe8b4df09" x="192.71561" y="199.634956" style="fill: #72b7b2; fill-opacity: 0.35"/>
     <use xlink:href="#m7fe8b4df09" x="184.922628" y="237.663966" style="fill: #72b7b2; fill-opacity: 0.35"/>
     <use xlink:href="#m7fe8b4df09" x="183.193578" y="225.230561" style="fill: #72b7b2; fill-opacity: 0.35"/>
     <use xlink:href="#m7fe8b4df09" x="203.554789" y="213.113259" style="fill: #72b7b2; fill-opacity: 0.35"/>
     <use xlink:href="#m7fe8b4df09" x="186.018758" y="176.822818" style="fill: #72b7b2; fill-opacity: 0.35"/>
     <use xlink:href="#m7fe8b4df09" x="217.744835" y="151.060381" style="fill: #72b7b2; fill-opacity: 0.35"/>
     <use xlink:href="#m7fe8b4df09" x="203.277971" y="194.480712" style="fill: #72b7b2; fill-opacity: 0.35"/>
     <use xlink:href="#m7fe8b4df09" x="193.430781" y="195.464146" style="fill: #72b7b2; fill-opacity: 0.35"/>
     <use xlink:href="#m7fe8b4df09" x="203.692323" y="233.703891" style="fill: #72b7b2; fill-opacity: 0.35"/>
     <use xlink:href="#m7fe8b4df09" x="179.804577" y="193.620208" style="fill: #72b7b2; fill-opacity: 0.35"/>
     <use xlink:href="#m7fe8b4df09" x="219.150869" y="229.190635" style="fill: #72b7b2; fill-opacity: 0.35"/>
     <use xlink:href="#m7fe8b4df09" x="199.125444" y="211.163954" style="fill: #72b7b2; fill-opacity: 0.35"/>
     <use xlink:href="#m7fe8b4df09" x="211.757888" y="230.147727" style="fill: #72b7b2; fill-opacity: 0.35"/>
     <use xlink:href="#m7fe8b4df09" x="182.324328" y="244.363604" style="fill: #72b7b2; fill-opacity: 0.35"/>
     <use xlink:href="#m7fe8b4df09" x="199.308557" y="194.638764" style="fill: #72b7b2; fill-opacity: 0.35"/>
     <use xlink:href="#m7fe8b4df09" x="199.478793" y="202.637939" style="fill: #72b7b2; fill-opacity: 0.35"/>
     <use xlink:href="#m7fe8b4df09" x="218.279106" y="204.402851" style="fill: #72b7b2; fill-opacity: 0.35"/>
     <use xlink:href="#m7fe8b4df09" x="202.885537" y="219.804117" style="fill: #72b7b2; fill-opacity: 0.35"/>
     <use xlink:href="#m7fe8b4df09" x="198.754834" y="220.761208" style="fill: #72b7b2; fill-opacity: 0.35"/>
     <use xlink:href="#m7fe8b4df09" x="190.071422" y="216.151365" style="fill: #72b7b2; fill-opacity: 0.35"/>
     <use xlink:href="#m7fe8b4df09" x="192.787418" y="212.928865" style="fill: #72b7b2; fill-opacity: 0.35"/>
     <use xlink:href="#m7fe8b4df09" x="200.738768" y="140.251397" style="fill: #72b7b2; fill-opacity: 0.35"/>
     <use xlink:href="#m7fe8b4df09" x="197.300914" y="214.430357" style="fill: #72b7b2; fill-opacity: 0.35"/>
     <use xlink:href="#m7fe8b4df09" x="179.754465" y="213.587414" style="fill: #72b7b2; fill-opacity: 0.35"/>
     <use xlink:href="#m7fe8b4df09" x="213.589344" y="234.564395" style="fill: #72b7b2; fill-opacity: 0.35"/>
     <use xlink:href="#m7fe8b4df09" x="216.527163" y="236.715655" style="fill: #72b7b2; fill-opacity: 0.35"/>
     <use xlink:href="#m7fe8b4df09" x="184.74287" y="211.927871" style="fill: #72b7b2; fill-opacity: 0.35"/>
     <use xlink:href="#m7fe8b4df09" x="202.141634" y="205.974588" style="fill: #72b7b2; fill-opacity: 0.35"/>
     <use xlink:href="#m7fe8b4df09" x="183.411081" y="152.201866" style="fill: #72b7b2; fill-opacity: 0.35"/>
     <use xlink:href="#m7fe8b4df09" x="207.111829" y="211.866406" style="fill: #72b7b2; fill-opacity: 0.35"/>
     <use xlink:href="#m7fe8b4df09" x="190.670942" y="212.103484" style="fill: #72b7b2; fill-opacity: 0.35"/>
     <use xlink:href="#m7fe8b4df09" x="206.572886" y="135.395696" style="fill: #72b7b2; fill-opacity: 0.35"/>
     <use xlink:href="#m7fe8b4df09" x="209.414127" y="219.654846" style="fill: #72b7b2; fill-opacity: 0.35"/>
     <use xlink:href="#m7fe8b4df09" x="211.165532" y="235.02977" style="fill: #72b7b2; fill-opacity: 0.35"/>
     <use xlink:href="#m7fe8b4df09" x="183.375979" y="198.625181" style="fill: #72b7b2; fill-opacity: 0.35"/>
     <use xlink:href="#m7fe8b4df09" x="217.361853" y="185.743962" style="fill: #72b7b2; fill-opacity: 0.35"/>
     <use xlink:href="#m7fe8b4df09" x="188.52568" y="195.402681" style="fill: #72b7b2; fill-opacity: 0.35"/>
     <use xlink:href="#m7fe8b4df09" x="180.418837" y="211.216638" style="fill: #72b7b2; fill-opacity: 0.35"/>
     <use xlink:href="#m7fe8b4df09" x="202.175958" y="226.846201" style="fill: #72b7b2; fill-opacity: 0.35"/>
     <use xlink:href="#m7fe8b4df09" x="194.44213" y="212.006897" style="fill: #72b7b2; fill-opacity: 0.35"/>
     <use xlink:href="#m7fe8b4df09" x="213.736419" y="88.717742" style="fill: #72b7b2; fill-opacity: 0.35"/>
     <use xlink:href="#m7fe8b4df09" x="212.830785" y="238.998625" style="fill: #72b7b2; fill-opacity: 0.35"/>
     <use xlink:href="#m7fe8b4df09" x="192.180666" y="203.024288" style="fill: #72b7b2; fill-opacity: 0.35"/>
     <use xlink:href="#m7fe8b4df09" x="218.912887" y="167.550448" style="fill: #72b7b2; fill-opacity: 0.35"/>
     <use xlink:href="#m7fe8b4df09" x="191.078133" y="177.744787" style="fill: #72b7b2; fill-opacity: 0.35"/>
     <use xlink:href="#m7fe8b4df09" x="200.502659" y="202.962824" style="fill: #72b7b2; fill-opacity: 0.35"/>
     <use xlink:href="#m7fe8b4df09" x="189.608453" y="193.523621" style="fill: #72b7b2; fill-opacity: 0.35"/>
     <use xlink:href="#m7fe8b4df09" x="218.20414" y="232.904852" style="fill: #72b7b2; fill-opacity: 0.35"/>
     <use xlink:href="#m7fe8b4df09" x="185.767096" y="215.194274" style="fill: #72b7b2; fill-opacity: 0.35"/>
     <use xlink:href="#m7fe8b4df09" x="180.734113" y="200.987177" style="fill: #72b7b2; fill-opacity: 0.35"/>
     <use xlink:href="#m7fe8b4df09" x="197.140527" y="192.267988" style="fill: #72b7b2; fill-opacity: 0.35"/>
     <use xlink:href="#m7fe8b4df09" x="220.572767" y="201.022299" style="fill: #72b7b2; fill-opacity: 0.35"/>
     <use xlink:href="#m7fe8b4df09" x="216.338642" y="203.419418" style="fill: #72b7b2; fill-opacity: 0.35"/>
     <use xlink:href="#m7fe8b4df09" x="210.32292" y="207.186318" style="fill: #72b7b2; fill-opacity: 0.35"/>
     <use xlink:href="#m7fe8b4df09" x="216.301439" y="229.401371" style="fill: #72b7b2; fill-opacity: 0.35"/>
     <use xlink:href="#m7fe8b4df09" x="216.41304" y="205.614581" style="fill: #72b7b2; fill-opacity: 0.35"/>
     <use xlink:href="#m7fe8b4df09" x="200.662491" y="237.751772" style="fill: #72b7b2; fill-opacity: 0.35"/>
     <use xlink:href="#m7fe8b4df09" x="192.129795" y="233.440472" style="fill: #72b7b2; fill-opacity: 0.35"/>
     <use xlink:href="#m7fe8b4df09" x="211.30702" y="234.836596" style="fill: #72b7b2; fill-opacity: 0.35"/>
     <use xlink:href="#m7fe8b4df09" x="206.667015" y="207.607789" style="fill: #72b7b2; fill-opacity: 0.35"/>
     <use xlink:href="#m7fe8b4df09" x="194.557149" y="201.944268" style="fill: #72b7b2; fill-opacity: 0.35"/>
     <use xlink:href="#m7fe8b4df09" x="182.817828" y="223.702727" style="fill: #72b7b2; fill-opacity: 0.35"/>
     <use xlink:href="#m7fe8b4df09" x="210.24646" y="245.838754" style="fill: #72b7b2; fill-opacity: 0.35"/>
     <use xlink:href="#m7fe8b4df09" x="189.88157" y="217.635296" style="fill: #72b7b2; fill-opacity: 0.35"/>
     <use xlink:href="#m7fe8b4df09" x="218.236499" y="208.301461" style="fill: #72b7b2; fill-opacity: 0.35"/>
     <use xlink:href="#m7fe8b4df09" x="188.977969" y="200.706196" style="fill: #72b7b2; fill-opacity: 0.35"/>
     <use xlink:href="#m7fe8b4df09" x="184.007408" y="242.677719" style="fill: #72b7b2; fill-opacity: 0.35"/>
     <use xlink:href="#m7fe8b4df09" x="213.792045" y="217.257727" style="fill: #72b7b2; fill-opacity: 0.35"/>
     <use xlink:href="#m7fe8b4df09" x="185.29097" y="237.637624" style="fill: #72b7b2; fill-opacity: 0.35"/>
     <use xlink:href="#m7fe8b4df09" x="186.383535" y="211.567864" style="fill: #72b7b2; fill-opacity: 0.35"/>
     <use xlink:href="#m7fe8b4df09" x="204.048353" y="194.831939" style="fill: #72b7b2; fill-opacity: 0.35"/>
     <use xlink:href="#m7fe8b4df09" x="215.618987" y="222.701733" style="fill: #72b7b2; fill-opacity: 0.35"/>
     <use xlink:href="#m7fe8b4df09" x="187.10534" y="156.434141" style="fill: #72b7b2; fill-opacity: 0.35"/>
     <use xlink:href="#m7fe8b4df09" x="191.894103" y="190.661128" style="fill: #72b7b2; fill-opacity: 0.35"/>
    </g>
   </g>
   <g id="PathCollection_3">
    <defs>
     <path id="mf764d56294" d="M 0 1.870829 
C 0.49615 1.870829 0.972045 1.673706 1.322876 1.322876 
C 1.673706 0.972045 1.870829 0.49615 1.870829 0 
C 1.870829 -0.49615 1.673706 -0.972045 1.322876 -1.322876 
C 0.972045 -1.673706 0.49615 -1.870829 0 -1.870829 
C -0.49615 -1.870829 -0.972045 -1.673706 -1.322876 -1.322876 
C -1.673706 -0.972045 -1.870829 -0.49615 -1.870829 0 
C -1.870829 0.49615 -1.673706 0.972045 -1.322876 1.322876 
C -0.972045 1.673706 -0.49615 1.870829 0 1.870829 
z
"/>
    </defs>
    <g clip-path="url(#p75660aff0f)">
     <use xlink:href="#mf764d56294" x="307.096548" y="217.898715" style="fill: #f58518; fill-opacity: 0.35"/>
     <use xlink:href="#mf764d56294" x="315.271515" y="240.67573" style="fill: #f58518; fill-opacity: 0.35"/>
     <use xlink:href="#mf764d56294" x="295.463498" y="248.306118" style="fill: #f58518; fill-opacity: 0.35"/>
     <use xlink:href="#mf764d56294" x="280.459068" y="177.858936" style="fill: #f58518; fill-opacity: 0.35"/>
     <use xlink:href="#mf764d56294" x="274.994507" y="223.430527" style="fill: #f58518; fill-opacity: 0.35"/>
     <use xlink:href="#mf764d56294" x="284.06501" y="229.717475" style="fill: #f58518; fill-opacity: 0.35"/>
     <use xlink:href="#mf764d56294" x="279.95133" y="211.409812" style="fill: #f58518; fill-opacity: 0.35"/>
     <use xlink:href="#mf764d56294" x="302.902459" y="248.279776" style="fill: #f58518; fill-opacity: 0.35"/>
     <use xlink:href="#mf764d56294" x="279.531287" y="240.851343" style="fill: #f58518; fill-opacity: 0.35"/>
     <use xlink:href="#mf764d56294" x="295.698491" y="220.708524" style="fill: #f58518; fill-opacity: 0.35"/>
     <use xlink:href="#mf764d56294" x="303.600607" y="213.007891" style="fill: #f58518; fill-opacity: 0.35"/>
     <use xlink:href="#mf764d56294" x="298.843094" y="218.50458" style="fill: #f58518; fill-opacity: 0.35"/>
     <use xlink:href="#mf764d56294" x="282.808611" y="237.778114" style="fill: #f58518; fill-opacity: 0.35"/>
     <use xlink:href="#mf764d56294" x="308.220048" y="169.789515" style="fill: #f58518; fill-opacity: 0.35"/>
     <use xlink:href="#mf764d56294" x="304.489692" y="238.743986" style="fill: #f58518; fill-opacity: 0.35"/>
     <use xlink:href="#mf764d56294" x="305.481043" y="229.5243" style="fill: #f58518; fill-opacity: 0.35"/>
     <use xlink:href="#mf764d56294" x="279.919186" y="250.316887" style="fill: #f58518; fill-opacity: 0.35"/>
     <use xlink:href="#mf764d56294" x="279.612073" y="237.532256" style="fill: #f58518; fill-opacity: 0.35"/>
     <use xlink:href="#mf764d56294" x="313.410324" y="214.623531" style="fill: #f58518; fill-opacity: 0.35"/>
     <use xlink:href="#mf764d56294" x="291.125739" y="205.157987" style="fill: #f58518; fill-opacity: 0.35"/>
     <use xlink:href="#mf764d56294" x="287.062698" y="255.304299" style="fill: #f58518; fill-opacity: 0.35"/>
     <use xlink:href="#mf764d56294" x="294.952319" y="250.044687" style="fill: #f58518; fill-opacity: 0.35"/>
     <use xlink:href="#mf764d56294" x="302.280387" y="244.96947" style="fill: #f58518; fill-opacity: 0.35"/>
     <use xlink:href="#mf764d56294" x="314.59021" y="204.315044" style="fill: #f58518; fill-opacity: 0.35"/>
     <use xlink:href="#mf764d56294" x="286.452903" y="226.898885" style="fill: #f58518; fill-opacity: 0.35"/>
     <use xlink:href="#mf764d56294" x="313.29452" y="222.201235" style="fill: #f58518; fill-opacity: 0.35"/>
     <use xlink:href="#mf764d56294" x="275.453802" y="240.860124" style="fill: #f58518; fill-opacity: 0.35"/>
     <use xlink:href="#mf764d56294" x="297.75328" y="250.343229" style="fill: #f58518; fill-opacity: 0.35"/>
     <use xlink:href="#mf764d56294" x="301.065668" y="237.883482" style="fill: #f58518; fill-opacity: 0.35"/>
     <use xlink:href="#mf764d56294" x="278.861254" y="196.19294" style="fill: #f58518; fill-opacity: 0.35"/>
     <use xlink:href="#mf764d56294" x="280.309466" y="196.921734" style="fill: #f58518; fill-opacity: 0.35"/>
     <use xlink:href="#mf764d56294" x="292.031282" y="250.966656" style="fill: #f58518; fill-opacity: 0.35"/>
     <use xlink:href="#mf764d56294" x="315.036279" y="240.034742" style="fill: #f58518; fill-opacity: 0.35"/>
     <use xlink:href="#mf764d56294" x="299.470694" y="245.487528" style="fill: #f58518; fill-opacity: 0.35"/>
     <use xlink:href="#mf764d56294" x="313.639932" y="231.13994" style="fill: #f58518; fill-opacity: 0.35"/>
     <use xlink:href="#mf764d56294" x="308.229987" y="219.988511" style="fill: #f58518; fill-opacity: 0.35"/>
     <use xlink:href="#mf764d56294" x="294.060807" y="233.765356" style="fill: #f58518; fill-opacity: 0.35"/>
     <use xlink:href="#mf764d56294" x="307.40596" y="247.656349" style="fill: #f58518; fill-opacity: 0.35"/>
     <use xlink:href="#mf764d56294" x="275.158513" y="252.872058" style="fill: #f58518; fill-opacity: 0.35"/>
     <use xlink:href="#mf764d56294" x="278.997765" y="239.920594" style="fill: #f58518; fill-opacity: 0.35"/>
     <use xlink:href="#mf764d56294" x="309.284025" y="219.540697" style="fill: #f58518; fill-opacity: 0.35"/>
     <use xlink:href="#mf764d56294" x="307.912787" y="255.506254" style="fill: #f58518; fill-opacity: 0.35"/>
     <use xlink:href="#mf764d56294" x="284.19051" y="196.684656" style="fill: #f58518; fill-opacity: 0.35"/>
     <use xlink:href="#mf764d56294" x="296.726121" y="226.451072" style="fill: #f58518; fill-opacity: 0.35"/>
     <use xlink:href="#mf764d56294" x="299.890047" y="237.066881" style="fill: #f58518; fill-opacity: 0.35"/>
     <use xlink:href="#mf764d56294" x="310.894884" y="242.844551" style="fill: #f58518; fill-opacity: 0.35"/>
     <use xlink:href="#mf764d56294" x="299.767744" y="202.576475" style="fill: #f58518; fill-opacity: 0.35"/>
     <use xlink:href="#mf764d56294" x="291.756175" y="254.996976" style="fill: #f58518; fill-opacity: 0.35"/>
     <use xlink:href="#mf764d56294" x="290.14207" y="244.960689" style="fill: #f58518; fill-opacity: 0.35"/>
     <use xlink:href="#mf764d56294" x="292.31585" y="228.690138" style="fill: #f58518; fill-opacity: 0.35"/>
     <use xlink:href="#mf764d56294" x="301.820672" y="206.659479" style="fill: #f58518; fill-opacity: 0.35"/>
     <use xlink:href="#mf764d56294" x="310.884442" y="238.66496" style="fill: #f58518; fill-opacity: 0.35"/>
     <use xlink:href="#mf764d56294" x="293.493806" y="210.43516" style="fill: #f58518; fill-opacity: 0.35"/>
     <use xlink:href="#mf764d56294" x="284.829585" y="246.945117" style="fill: #f58518; fill-opacity: 0.35"/>
     <use xlink:href="#mf764d56294" x="284.35961" y="209.521972" style="fill: #f58518; fill-opacity: 0.35"/>
     <use xlink:href="#mf764d56294" x="305.77665" y="249.043693" style="fill: #f58518; fill-opacity: 0.35"/>
     <use xlink:href="#mf764d56294" x="308.743298" y="215.440132" style="fill: #f58518; fill-opacity: 0.35"/>
     <use xlink:href="#mf764d56294" x="278.835212" y="243.810423" style="fill: #f58518; fill-opacity: 0.35"/>
     <use xlink:href="#mf764d56294" x="277.207161" y="175.470598" style="fill: #f58518; fill-opacity: 0.35"/>
     <use xlink:href="#mf764d56294" x="299.403044" y="243.081629" style="fill: #f58518; fill-opacity: 0.35"/>
     <use xlink:href="#mf764d56294" x="280.554757" y="242.29137" style="fill: #f58518; fill-opacity: 0.35"/>
     <use xlink:href="#mf764d56294" x="309.083692" y="231.789709" style="fill: #f58518; fill-opacity: 0.35"/>
     <use xlink:href="#mf764d56294" x="287.457356" y="238.340076" style="fill: #f58518; fill-opacity: 0.35"/>
     <use xlink:href="#mf764d56294" x="280.457992" y="248.104163" style="fill: #f58518; fill-opacity: 0.35"/>
     <use xlink:href="#mf764d56294" x="313.133143" y="218.978735" style="fill: #f58518; fill-opacity: 0.35"/>
     <use xlink:href="#mf764d56294" x="281.368735" y="251.677889" style="fill: #f58518; fill-opacity: 0.35"/>
     <use xlink:href="#mf764d56294" x="286.380323" y="244.987031" style="fill: #f58518; fill-opacity: 0.35"/>
     <use xlink:href="#mf764d56294" x="280.867598" y="235.802467" style="fill: #f58518; fill-opacity: 0.35"/>
     <use xlink:href="#mf764d56294" x="279.264602" y="244.723611" style="fill: #f58518; fill-opacity: 0.35"/>
     <use xlink:href="#mf764d56294" x="275.297743" y="219.918265" style="fill: #f58518; fill-opacity: 0.35"/>
     <use xlink:href="#mf764d56294" x="276.737764" y="224.852993" style="fill: #f58518; fill-opacity: 0.35"/>
     <use xlink:href="#mf764d56294" x="281.751778" y="252.793032" style="fill: #f58518; fill-opacity: 0.35"/>
     <use xlink:href="#mf764d56294" x="276.653103" y="242.133318" style="fill: #f58518; fill-opacity: 0.35"/>
     <use xlink:href="#mf764d56294" x="299.264714" y="206.633137" style="fill: #f58518; fill-opacity: 0.35"/>
     <use xlink:href="#mf764d56294" x="303.03095" y="223.21101" style="fill: #f58518; fill-opacity: 0.35"/>
     <use xlink:href="#mf764d56294" x="290.959746" y="235.43368" style="fill: #f58518; fill-opacity: 0.35"/>
     <use xlink:href="#mf764d56294" x="287.77929" y="197.26418" style="fill: #f58518; fill-opacity: 0.35"/>
     <use xlink:href="#mf764d56294" x="295.62265" y="187.377164" style="fill: #f58518; fill-opacity: 0.35"/>
     <use xlink:href="#mf764d56294" x="311.200401" y="224.431521" style="fill: #f58518; fill-opacity: 0.35"/>
     <use xlink:href="#mf764d56294" x="310.196585" y="245.153863" style="fill: #f58518; fill-opacity: 0.35"/>
     <use xlink:href="#mf764d56294" x="276.236542" y="248.999789" style="fill: #f58518; fill-opacity: 0.35"/>
     <use xlink:href="#mf764d56294" x="282.040096" y="193.63777" style="fill: #f58518; fill-opacity: 0.35"/>
     <use xlink:href="#mf764d56294" x="284.363079" y="227.285234" style="fill: #f58518; fill-opacity: 0.35"/>
     <use xlink:href="#mf764d56294" x="284.894675" y="236.461016" style="fill: #f58518; fill-opacity: 0.35"/>
     <use xlink:href="#mf764d56294" x="298.427497" y="226.213994" style="fill: #f58518; fill-opacity: 0.35"/>
     <use xlink:href="#mf764d56294" x="291.911366" y="253.012548" style="fill: #f58518; fill-opacity: 0.35"/>
     <use xlink:href="#mf764d56294" x="276.479538" y="217.389437" style="fill: #f58518; fill-opacity: 0.35"/>
     <use xlink:href="#mf764d56294" x="290.118107" y="242.879674" style="fill: #f58518; fill-opacity: 0.35"/>
     <use xlink:href="#mf764d56294" x="296.431088" y="254.540382" style="fill: #f58518; fill-opacity: 0.35"/>
     <use xlink:href="#mf764d56294" x="278.683581" y="197.13247" style="fill: #f58518; fill-opacity: 0.35"/>
     <use xlink:href="#mf764d56294" x="309.453474" y="253.354994" style="fill: #f58518; fill-opacity: 0.35"/>
     <use xlink:href="#mf764d56294" x="276.593392" y="228.163299" style="fill: #f58518; fill-opacity: 0.35"/>
     <use xlink:href="#mf764d56294" x="313.295926" y="231.570192" style="fill: #f58518; fill-opacity: 0.35"/>
     <use xlink:href="#mf764d56294" x="278.575991" y="207.871209" style="fill: #f58518; fill-opacity: 0.35"/>
     <use xlink:href="#mf764d56294" x="309.878845" y="263.698603" style="fill: #f58518; fill-opacity: 0.35"/>
     <use xlink:href="#mf764d56294" x="312.362942" y="253.03889" style="fill: #f58518; fill-opacity: 0.35"/>
     <use xlink:href="#mf764d56294" x="315.597142" y="244.065062" style="fill: #f58518; fill-opacity: 0.35"/>
     <use xlink:href="#mf764d56294" x="308.131805" y="236.803462" style="fill: #f58518; fill-opacity: 0.35"/>
     <use xlink:href="#mf764d56294" x="307.1837" y="242.317712" style="fill: #f58518; fill-opacity: 0.35"/>
     <use xlink:href="#mf764d56294" x="301.423417" y="251.642766" style="fill: #f58518; fill-opacity: 0.35"/>
    </g>
   </g>
   <g id="PathCollection_4">
    <defs>
     <path id="mf06aeeadcf" d="M 0 1.870829 
C 0.49615 1.870829 0.972045 1.673706 1.322876 1.322876 
C 1.673706 0.972045 1.870829 0.49615 1.870829 0 
C 1.870829 -0.49615 1.673706 -0.972045 1.322876 -1.322876 
C 0.972045 -1.673706 0.49615 -1.870829 0 -1.870829 
C -0.49615 -1.870829 -0.972045 -1.673706 -1.322876 -1.322876 
C -1.673706 -0.972045 -1.870829 -0.49615 -1.870829 0 
C -1.870829 0.49615 -1.673706 0.972045 -1.322876 1.322876 
C -0.972045 1.673706 -0.49615 1.870829 0 1.870829 
z
"/>
    </defs>
    <g clip-path="url(#p75660aff0f)">
     <use xlink:href="#mf06aeeadcf" x="402.726258" y="256.867255" style="fill: #e45756; fill-opacity: 0.35"/>
     <use xlink:href="#mf06aeeadcf" x="375.628911" y="255.954067" style="fill: #e45756; fill-opacity: 0.35"/>
     <use xlink:href="#mf06aeeadcf" x="392.511699" y="266.043038" style="fill: #e45756; fill-opacity: 0.35"/>
     <use xlink:href="#mf06aeeadcf" x="391.593162" y="231.737025" style="fill: #e45756; fill-opacity: 0.35"/>
     <use xlink:href="#mf06aeeadcf" x="406.030184" y="268.852847" style="fill: #e45756; fill-opacity: 0.35"/>
     <use xlink:href="#mf06aeeadcf" x="389.430925" y="254.979414" style="fill: #e45756; fill-opacity: 0.35"/>
     <use xlink:href="#mf06aeeadcf" x="386.163409" y="234.142924" style="fill: #e45756; fill-opacity: 0.35"/>
     <use xlink:href="#mf06aeeadcf" x="396.863428" y="253.916955" style="fill: #e45756; fill-opacity: 0.35"/>
     <use xlink:href="#mf06aeeadcf" x="381.17546" y="258.842902" style="fill: #e45756; fill-opacity: 0.35"/>
     <use xlink:href="#mf06aeeadcf" x="375.84824" y="253.513045" style="fill: #e45756; fill-opacity: 0.35"/>
     <use xlink:href="#mf06aeeadcf" x="390.064915" y="251.809599" style="fill: #e45756; fill-opacity: 0.35"/>
     <use xlink:href="#mf06aeeadcf" x="387.500519" y="242.528448" style="fill: #e45756; fill-opacity: 0.35"/>
     <use xlink:href="#mf06aeeadcf" x="379.750324" y="243.397733" style="fill: #e45756; fill-opacity: 0.35"/>
     <use xlink:href="#mf06aeeadcf" x="385.424309" y="255.418447" style="fill: #e45756; fill-opacity: 0.35"/>
     <use xlink:href="#mf06aeeadcf" x="385.377243" y="254.25062" style="fill: #e45756; fill-opacity: 0.35"/>
     <use xlink:href="#mf06aeeadcf" x="383.741721" y="257.244823" style="fill: #e45756; fill-opacity: 0.35"/>
     <use xlink:href="#mf06aeeadcf" x="385.926874" y="258.500456" style="fill: #e45756; fill-opacity: 0.35"/>
     <use xlink:href="#mf06aeeadcf" x="398.805191" y="255.892602" style="fill: #e45756; fill-opacity: 0.35"/>
     <use xlink:href="#mf06aeeadcf" x="382.454261" y="248.209531" style="fill: #e45756; fill-opacity: 0.35"/>
     <use xlink:href="#mf06aeeadcf" x="409.868535" y="250.378352" style="fill: #e45756; fill-opacity: 0.35"/>
     <use xlink:href="#mf06aeeadcf" x="408.50157" y="249.017351" style="fill: #e45756; fill-opacity: 0.35"/>
     <use xlink:href="#mf06aeeadcf" x="390.192452" y="267.114277" style="fill: #e45756; fill-opacity: 0.35"/>
     <use xlink:href="#mf06aeeadcf" x="383.778119" y="255.655525" style="fill: #e45756; fill-opacity: 0.35"/>
     <use xlink:href="#mf06aeeadcf" x="392.485072" y="243.020164" style="fill: #e45756; fill-opacity: 0.35"/>
     <use xlink:href="#mf06aeeadcf" x="405.651265" y="207.950235" style="fill: #e45756; fill-opacity: 0.35"/>
     <use xlink:href="#mf06aeeadcf" x="397.411059" y="265.305463" style="fill: #e45756; fill-opacity: 0.35"/>
     <use xlink:href="#mf06aeeadcf" x="403.794078" y="250.668114" style="fill: #e45756; fill-opacity: 0.35"/>
     <use xlink:href="#mf06aeeadcf" x="392.371018" y="260.335613" style="fill: #e45756; fill-opacity: 0.35"/>
     <use xlink:href="#mf06aeeadcf" x="396.583995" y="251.467153" style="fill: #e45756; fill-opacity: 0.35"/>
     <use xlink:href="#mf06aeeadcf" x="382.08757" y="257.517023" style="fill: #e45756; fill-opacity: 0.35"/>
     <use xlink:href="#mf06aeeadcf" x="400.871824" y="252.880838" style="fill: #e45756; fill-opacity: 0.35"/>
     <use xlink:href="#mf06aeeadcf" x="378.481943" y="253.398897" style="fill: #e45756; fill-opacity: 0.35"/>
     <use xlink:href="#mf06aeeadcf" x="399.185923" y="253.047671" style="fill: #e45756; fill-opacity: 0.35"/>
     <use xlink:href="#mf06aeeadcf" x="406.162505" y="247.445614" style="fill: #e45756; fill-opacity: 0.35"/>
     <use xlink:href="#mf06aeeadcf" x="375.525921" y="253.969639" style="fill: #e45756; fill-opacity: 0.35"/>
     <use xlink:href="#mf06aeeadcf" x="395.80452" y="228.488183" style="fill: #e45756; fill-opacity: 0.35"/>
     <use xlink:href="#mf06aeeadcf" x="373.96986" y="256.164803" style="fill: #e45756; fill-opacity: 0.35"/>
     <use xlink:href="#mf06aeeadcf" x="400.48593" y="245.628019" style="fill: #e45756; fill-opacity: 0.35"/>
     <use xlink:href="#mf06aeeadcf" x="373.524049" y="252.406683" style="fill: #e45756; fill-opacity: 0.35"/>
     <use xlink:href="#mf06aeeadcf" x="409.325359" y="241.000614" style="fill: #e45756; fill-opacity: 0.35"/>
     <use xlink:href="#mf06aeeadcf" x="375.748987" y="266.912322" style="fill: #e45756; fill-opacity: 0.35"/>
     <use xlink:href="#mf06aeeadcf" x="410.289949" y="256.744326" style="fill: #e45756; fill-opacity: 0.35"/>
     <use xlink:href="#mf06aeeadcf" x="403.646589" y="250.817385" style="fill: #e45756; fill-opacity: 0.35"/>
     <use xlink:href="#mf06aeeadcf" x="394.93423" y="260.195123" style="fill: #e45756; fill-opacity: 0.35"/>
     <use xlink:href="#mf06aeeadcf" x="402.878797" y="255.541376" style="fill: #e45756; fill-opacity: 0.35"/>
     <use xlink:href="#mf06aeeadcf" x="403.404002" y="243.775301" style="fill: #e45756; fill-opacity: 0.35"/>
     <use xlink:href="#mf06aeeadcf" x="409.749504" y="241.773312" style="fill: #e45756; fill-opacity: 0.35"/>
     <use xlink:href="#mf06aeeadcf" x="380.625479" y="252.670103" style="fill: #e45756; fill-opacity: 0.35"/>
     <use xlink:href="#mf06aeeadcf" x="394.782601" y="248.06904" style="fill: #e45756; fill-opacity: 0.35"/>
     <use xlink:href="#mf06aeeadcf" x="373.967903" y="236.961514" style="fill: #e45756; fill-opacity: 0.35"/>
     <use xlink:href="#mf06aeeadcf" x="395.879616" y="256.638958" style="fill: #e45756; fill-opacity: 0.35"/>
     <use xlink:href="#mf06aeeadcf" x="377.173703" y="259.861458" style="fill: #e45756; fill-opacity: 0.35"/>
     <use xlink:href="#mf06aeeadcf" x="393.726143" y="239.964497" style="fill: #e45756; fill-opacity: 0.35"/>
     <use xlink:href="#mf06aeeadcf" x="394.040655" y="234.099021" style="fill: #e45756; fill-opacity: 0.35"/>
     <use xlink:href="#mf06aeeadcf" x="389.56488" y="261.76686" style="fill: #e45756; fill-opacity: 0.35"/>
     <use xlink:href="#mf06aeeadcf" x="391.946736" y="227.214988" style="fill: #e45756; fill-opacity: 0.35"/>
     <use xlink:href="#mf06aeeadcf" x="402.092476" y="236.803462" style="fill: #e45756; fill-opacity: 0.35"/>
     <use xlink:href="#mf06aeeadcf" x="403.577654" y="227.899879" style="fill: #e45756; fill-opacity: 0.35"/>
     <use xlink:href="#mf06aeeadcf" x="390.665185" y="246.953897" style="fill: #e45756; fill-opacity: 0.35"/>
     <use xlink:href="#mf06aeeadcf" x="395.182792" y="243.22212" style="fill: #e45756; fill-opacity: 0.35"/>
     <use xlink:href="#mf06aeeadcf" x="409.127584" y="248.60466" style="fill: #e45756; fill-opacity: 0.35"/>
     <use xlink:href="#mf06aeeadcf" x="375.005823" y="247.050484" style="fill: #e45756; fill-opacity: 0.35"/>
     <use xlink:href="#mf06aeeadcf" x="374.895237" y="247.366588" style="fill: #e45756; fill-opacity: 0.35"/>
     <use xlink:href="#mf06aeeadcf" x="373.659265" y="248.270995" style="fill: #e45756; fill-opacity: 0.35"/>
     <use xlink:href="#mf06aeeadcf" x="397.6329" y="251.309101" style="fill: #e45756; fill-opacity: 0.35"/>
     <use xlink:href="#mf06aeeadcf" x="387.572796" y="257.982398" style="fill: #e45756; fill-opacity: 0.35"/>
     <use xlink:href="#mf06aeeadcf" x="402.529688" y="257.657514" style="fill: #e45756; fill-opacity: 0.35"/>
     <use xlink:href="#mf06aeeadcf" x="398.194998" y="265.718154" style="fill: #e45756; fill-opacity: 0.35"/>
     <use xlink:href="#mf06aeeadcf" x="383.999986" y="237.277617" style="fill: #e45756; fill-opacity: 0.35"/>
     <use xlink:href="#mf06aeeadcf" x="407.745492" y="236.610288" style="fill: #e45756; fill-opacity: 0.35"/>
     <use xlink:href="#mf06aeeadcf" x="402.033978" y="263.400061" style="fill: #e45756; fill-opacity: 0.35"/>
     <use xlink:href="#mf06aeeadcf" x="381.346662" y="212.656665" style="fill: #e45756; fill-opacity: 0.35"/>
     <use xlink:href="#mf06aeeadcf" x="385.28472" y="232.140935" style="fill: #e45756; fill-opacity: 0.35"/>
     <use xlink:href="#mf06aeeadcf" x="383.192765" y="254.355988" style="fill: #e45756; fill-opacity: 0.35"/>
     <use xlink:href="#mf06aeeadcf" x="376.598506" y="249.482725" style="fill: #e45756; fill-opacity: 0.35"/>
     <use xlink:href="#mf06aeeadcf" x="376.18525" y="247.428052" style="fill: #e45756; fill-opacity: 0.35"/>
     <use xlink:href="#mf06aeeadcf" x="409.333249" y="247.463175" style="fill: #e45756; fill-opacity: 0.35"/>
     <use xlink:href="#mf06aeeadcf" x="388.384136" y="212.612762" style="fill: #e45756; fill-opacity: 0.35"/>
     <use xlink:href="#mf06aeeadcf" x="386.088999" y="248.191969" style="fill: #e45756; fill-opacity: 0.35"/>
     <use xlink:href="#mf06aeeadcf" x="400.652863" y="244.205553" style="fill: #e45756; fill-opacity: 0.35"/>
     <use xlink:href="#mf06aeeadcf" x="393.223356" y="261.055627" style="fill: #e45756; fill-opacity: 0.35"/>
     <use xlink:href="#mf06aeeadcf" x="409.333775" y="262.381505" style="fill: #e45756; fill-opacity: 0.35"/>
     <use xlink:href="#mf06aeeadcf" x="402.781136" y="253.003767" style="fill: #e45756; fill-opacity: 0.35"/>
     <use xlink:href="#mf06aeeadcf" x="390.127663" y="257.552146" style="fill: #e45756; fill-opacity: 0.35"/>
     <use xlink:href="#mf06aeeadcf" x="385.796333" y="255.778454" style="fill: #e45756; fill-opacity: 0.35"/>
     <use xlink:href="#mf06aeeadcf" x="411.456826" y="258.561921" style="fill: #e45756; fill-opacity: 0.35"/>
     <use xlink:href="#mf06aeeadcf" x="400.151425" y="248.73637" style="fill: #e45756; fill-opacity: 0.35"/>
     <use xlink:href="#mf06aeeadcf" x="409.966789" y="260.476103" style="fill: #e45756; fill-opacity: 0.35"/>
     <use xlink:href="#mf06aeeadcf" x="374.953053" y="251.115927" style="fill: #e45756; fill-opacity: 0.35"/>
     <use xlink:href="#mf06aeeadcf" x="405.734233" y="223.869559" style="fill: #e45756; fill-opacity: 0.35"/>
     <use xlink:href="#mf06aeeadcf" x="396.758755" y="259.097541" style="fill: #e45756; fill-opacity: 0.35"/>
     <use xlink:href="#mf06aeeadcf" x="375.097827" y="250.176397" style="fill: #e45756; fill-opacity: 0.35"/>
     <use xlink:href="#mf06aeeadcf" x="394.706163" y="261.705395" style="fill: #e45756; fill-opacity: 0.35"/>
     <use xlink:href="#mf06aeeadcf" x="398.820034" y="258.640947" style="fill: #e45756; fill-opacity: 0.35"/>
     <use xlink:href="#mf06aeeadcf" x="370.488608" y="230.253094" style="fill: #e45756; fill-opacity: 0.35"/>
     <use xlink:href="#mf06aeeadcf" x="389.074302" y="244.504095" style="fill: #e45756; fill-opacity: 0.35"/>
     <use xlink:href="#mf06aeeadcf" x="404.677401" y="255.752112" style="fill: #e45756; fill-opacity: 0.35"/>
     <use xlink:href="#mf06aeeadcf" x="382.390456" y="251.036901" style="fill: #e45756; fill-opacity: 0.35"/>
     <use xlink:href="#mf06aeeadcf" x="389.252169" y="255.444789" style="fill: #e45756; fill-opacity: 0.35"/>
     <use xlink:href="#mf06aeeadcf" x="388.569569" y="247.910988" style="fill: #e45756; fill-opacity: 0.35"/>
    </g>
   </g>
   <g id="text_13">
    <!-- *** -->
    <g transform="translate(145.338147 47.499024) scale(0.09 -0.09)">
     <defs>
      <path id="DejaVuSans-2a" d="M 3009 3897 
L 1888 3291 
L 3009 2681 
L 2828 2375 
L 1778 3009 
L 1778 1831 
L 1422 1831 
L 1422 3009 
L 372 2375 
L 191 2681 
L 1313 3291 
L 191 3897 
L 372 4206 
L 1422 3572 
L 1422 4750 
L 1778 4750 
L 1778 3572 
L 2828 4206 
L 3009 3897 
z
" transform="scale(0.015625)"/>
     </defs>
     <use xlink:href="#DejaVuSans-2a"/>
     <use xlink:href="#DejaVuSans-2a" transform="translate(50 0)"/>
     <use xlink:href="#DejaVuSans-2a" transform="translate(100 0)"/>
    </g>
   </g>
   <g id="text_14">
    <!-- *** -->
    <g transform="translate(193.119542 32.262571) scale(0.09 -0.09)">
     <use xlink:href="#DejaVuSans-2a"/>
     <use xlink:href="#DejaVuSans-2a" transform="translate(50 0)"/>
     <use xlink:href="#DejaVuSans-2a" transform="translate(100 0)"/>
    </g>
   </g>
   <g id="text_15">
    <!-- *** -->
    <g transform="translate(240.900937 17.026118) scale(0.09 -0.09)">
     <use xlink:href="#DejaVuSans-2a"/>
     <use xlink:href="#DejaVuSans-2a" transform="translate(50 0)"/>
     <use xlink:href="#DejaVuSans-2a" transform="translate(100 0)"/>
    </g>
   </g>
  </g>
 </g>
 <defs>
  <clipPath id="p75660aff0f">
   <rect x="42.190938" y="7.2" width="410.92" height="273.656"/>
  </clipPath>
 </defs>
</svg>
