<?xml version="1.0" encoding="utf-8" standalone="no"?>
<!DOCTYPE svg PUBLIC "-//W3C//DTD SVG 1.1//EN"
  "http://www.w3.org/Graphics/SVG/1.1/DTD/svg11.dtd">
<svg xmlns:xlink="http://www.w3.org/1999/xlink" width="460.55875pt" height="315.931938pt" viewBox="0 0 460.55875 315.931938" xmlns="http://www.w3.org/2000/svg" version="1.1">
 <metadata>
  <rdf:RDF xmlns:dc="http://purl.org/dc/elements/1.1/" xmlns:cc="http://creativecommons.org/ns#" xmlns:rdf="http://www.w3.org/1999/02/22-rdf-syntax-ns#">
   <cc:Work>
    <dc:type rdf:resource="http://purl.org/dc/dcmitype/StillImage"/>
    <dc:date>2026-05-25T00:35:59.804077</dc:date>
    <dc:format>image/svg+xml</dc:format>
    <dc:creator>
     <cc:Agent>
      <dc:title>Matplotlib v3.10.9, https://matplotlib.org/</dc:title>
     </cc:Agent>
    </dc:creator>
   </cc:Work>
  </rdf:RDF>
 </metadata>
 <defs>
  <style type="text/css">*{stroke-linejoin: round; stroke-linecap: butt}</style>
 </defs>
 <g id="figure_1">
  <g id="patch_1">
   <path d="M 0 315.931938 
L 460.55875 315.931938 
L 460.55875 0 
L 0 0 
z
" style="fill: #ffffff"/>
  </g>
  <g id="axes_1">
   <g id="patch_2">
    <path d="M 43.15875 280.856 
L 453.35875 280.856 
L 453.35875 7.2 
L 43.15875 7.2 
z
" style="fill: #ffffff"/>
   </g>
   <g id="line2d_1">
    <path d="M 43.15875 195.004728 
L 453.35875 195.004728 
" clip-path="url(#pc3dcfa327c)" style="fill: none; stroke-dasharray: 2.96,1.28; stroke-dashoffset: 0; stroke: #888888; stroke-width: 0.8"/>
   </g>
   <g id="FillBetweenPolyCollection_1">
    <path d="M 109.293139 245.133694 
L 101.038314 245.133694 
L 100.412134 243.405932 
L 99.724812 241.67817 
L 98.971492 239.950408 
L 98.146775 238.222646 
L 97.245098 236.494884 
L 96.261285 234.767122 
L 95.191262 233.03936 
L 94.032895 231.311598 
L 92.786905 229.583836 
L 91.457768 227.856074 
L 90.054525 226.128312 
L 88.591383 224.40055 
L 87.088018 222.672788 
L 85.569464 220.945026 
L 84.065549 219.217264 
L 82.609834 217.489502 
L 81.238089 215.76174 
L 79.986411 214.033978 
L 78.889115 212.306216 
L 77.976598 210.578454 
L 77.273381 208.850692 
L 76.796521 207.12293 
L 76.554563 205.395168 
L 76.547122 203.667406 
L 76.765124 201.939644 
L 77.191655 200.211882 
L 77.803302 198.48412 
L 78.57183 196.756358 
L 79.466019 195.028596 
L 80.453491 193.300834 
L 81.502388 191.573072 
L 82.582792 189.84531 
L 83.667849 188.117548 
L 84.734544 186.389786 
L 85.764181 184.662024 
L 86.742568 182.934262 
L 87.659969 181.2065 
L 88.510866 179.478738 
L 89.293581 177.750976 
L 90.009791 176.023214 
L 90.663988 174.295452 
L 91.262909 172.56769 
L 91.814961 170.839928 
L 92.329667 169.112166 
L 92.81713 167.384404 
L 93.287525 165.656642 
L 93.750614 163.92888 
L 94.215273 162.201118 
L 94.689036 160.473355 
L 95.177676 158.745593 
L 95.684838 157.017831 
L 96.211766 155.290069 
L 96.757172 153.562307 
L 97.317261 151.834545 
L 97.88597 150.106783 
L 98.455378 148.379021 
L 99.016289 146.651259 
L 99.558922 144.923497 
L 100.073639 143.195735 
L 100.551635 141.467973 
L 100.985538 139.740211 
L 101.369852 138.012449 
L 101.701233 136.284687 
L 101.978605 134.556925 
L 102.203122 132.829163 
L 102.378023 131.101401 
L 102.508395 129.373639 
L 102.600883 127.645877 
L 102.663346 125.918115 
L 102.704462 124.190353 
L 102.733286 122.462591 
L 102.758772 120.734829 
L 102.789249 119.007067 
L 102.831916 117.279305 
L 102.892368 115.551543 
L 102.974232 113.823781 
L 103.078942 112.096019 
L 103.205695 110.368257 
L 103.351613 108.640495 
L 103.512073 106.912733 
L 103.681196 105.184971 
L 103.852413 103.457209 
L 104.019058 101.729447 
L 104.174923 100.001685 
L 104.31471 98.273923 
L 104.43437 96.546161 
L 104.531289 94.818399 
L 104.604359 93.090637 
L 104.653917 91.362875 
L 104.681604 89.635113 
L 104.69016 87.907351 
L 104.68317 86.179589 
L 104.664795 84.451827 
L 104.639481 82.724065 
L 104.611672 80.996303 
L 104.585539 79.268541 
L 104.564723 77.540779 
L 104.55213 75.813017 
L 104.549775 74.085255 
L 105.781678 74.085255 
L 105.781678 74.085255 
L 105.779324 75.813017 
L 105.766731 77.540779 
L 105.745915 79.268541 
L 105.719782 80.996303 
L 105.691973 82.724065 
L 105.666658 84.451827 
L 105.648283 86.179589 
L 105.641294 87.907351 
L 105.649849 89.635113 
L 105.677536 91.362875 
L 105.727094 93.090637 
L 105.800164 94.818399 
L 105.897084 96.546161 
L 106.016743 98.273923 
L 106.15653 100.001685 
L 106.312395 101.729447 
L 106.479041 103.457209 
L 106.650257 105.184971 
L 106.81938 106.912733 
L 106.97984 108.640495 
L 107.125758 110.368257 
L 107.252512 112.096019 
L 107.357221 113.823781 
L 107.439085 115.551543 
L 107.499538 117.279305 
L 107.542204 119.007067 
L 107.572682 120.734829 
L 107.598167 122.462591 
L 107.626992 124.190353 
L 107.668107 125.918115 
L 107.73057 127.645877 
L 107.823059 129.373639 
L 107.953431 131.101401 
L 108.128331 132.829163 
L 108.352848 134.556925 
L 108.63022 136.284687 
L 108.961602 138.012449 
L 109.345915 139.740211 
L 109.779819 141.467973 
L 110.257815 143.195735 
L 110.772531 144.923497 
L 111.315164 146.651259 
L 111.876075 148.379021 
L 112.445483 150.106783 
L 113.014192 151.834545 
L 113.574282 153.562307 
L 114.119687 155.290069 
L 114.646616 157.017831 
L 115.153778 158.745593 
L 115.642418 160.473355 
L 116.11618 162.201118 
L 116.580839 163.92888 
L 117.043928 165.656642 
L 117.514324 167.384404 
L 118.001786 169.112166 
L 118.516492 170.839928 
L 119.068545 172.56769 
L 119.667466 174.295452 
L 120.321663 176.023214 
L 121.037873 177.750976 
L 121.820587 179.478738 
L 122.671485 181.2065 
L 123.588885 182.934262 
L 124.567272 184.662024 
L 125.596909 186.389786 
L 126.663605 188.117548 
L 127.748661 189.84531 
L 128.829066 191.573072 
L 129.877962 193.300834 
L 130.865434 195.028596 
L 131.759623 196.756358 
L 132.528151 198.48412 
L 133.139798 200.211882 
L 133.566329 201.939644 
L 133.784331 203.667406 
L 133.77689 205.395168 
L 133.534932 207.12293 
L 133.058072 208.850692 
L 132.354856 210.578454 
L 131.442339 212.306216 
L 130.345043 214.033978 
L 129.093365 215.76174 
L 127.72162 217.489502 
L 126.265904 219.217264 
L 124.76199 220.945026 
L 123.243436 222.672788 
L 121.74007 224.40055 
L 120.276929 226.128312 
L 118.873685 227.856074 
L 117.544549 229.583836 
L 116.298558 231.311598 
L 115.140192 233.03936 
L 114.070168 234.767122 
L 113.086355 236.494884 
L 112.184679 238.222646 
L 111.359961 239.950408 
L 110.606641 241.67817 
L 109.91932 243.405932 
L 109.293139 245.133694 
z
" clip-path="url(#pc3dcfa327c)" style="fill: #4878cf; fill-opacity: 0.35"/>
   </g>
   <g id="FillBetweenPolyCollection_2">
    <path d="M 212.570749 244.160713 
L 188.551402 244.160713 
L 187.122775 242.682866 
L 185.693261 241.205018 
L 184.286425 239.72717 
L 182.923952 238.249323 
L 181.624445 236.771475 
L 180.402514 235.293627 
L 179.268228 233.81578 
L 178.226992 232.337932 
L 177.279873 230.860084 
L 176.424307 229.382236 
L 175.655127 227.904389 
L 174.965782 226.426541 
L 174.349616 224.948693 
L 173.801073 223.470846 
L 173.316702 221.992998 
L 172.895883 220.51515 
L 172.541222 219.037303 
L 172.258588 217.559455 
L 172.05683 216.081607 
L 171.947188 214.60376 
L 171.942471 213.125912 
L 172.056049 211.648064 
L 172.300725 210.170217 
L 172.687551 208.692369 
L 173.224665 207.214521 
L 173.916217 205.736674 
L 174.761491 204.258826 
L 175.754294 202.780978 
L 176.88271 201.30313 
L 178.129279 199.825283 
L 179.471624 198.347435 
L 180.883506 196.869587 
L 182.336235 195.39174 
L 183.800319 193.913892 
L 185.247176 192.436044 
L 186.650743 190.958197 
L 187.988815 189.480349 
L 189.243973 188.002501 
L 190.404026 186.524654 
L 191.461957 185.046806 
L 192.415427 183.568958 
L 193.265936 182.091111 
L 194.017805 180.613263 
L 194.677125 179.135415 
L 195.25081 177.657568 
L 195.745877 176.17972 
L 196.168993 174.701872 
L 196.526297 173.224024 
L 196.823461 171.746177 
L 197.06591 170.268329 
L 197.259092 168.790481 
L 197.408745 167.312634 
L 197.521045 165.834786 
L 197.602642 164.356938 
L 197.660533 162.879091 
L 197.701833 161.401243 
L 197.733463 159.923395 
L 197.761826 158.445548 
L 197.792521 156.9677 
L 197.830136 155.489852 
L 197.878144 154.012005 
L 197.938896 152.534157 
L 198.013701 151.056309 
L 198.102953 149.578461 
L 198.20628 148.100614 
L 198.322675 146.622766 
L 198.450595 145.144918 
L 198.588031 143.667071 
L 198.732546 142.189223 
L 198.881309 140.711375 
L 199.031141 139.233528 
L 199.178601 137.75568 
L 199.320112 136.277832 
L 199.452137 134.799985 
L 199.571382 133.322137 
L 199.675018 131.844289 
L 199.760889 130.366442 
L 199.827674 128.888594 
L 199.874994 127.410746 
L 199.903436 125.932899 
L 199.914496 124.455051 
L 199.910439 122.977203 
L 199.894102 121.499355 
L 199.868646 120.021508 
L 199.837301 118.54366 
L 199.803132 117.065812 
L 199.768842 115.587965 
L 199.736647 114.110117 
L 199.708221 112.632269 
L 199.684724 111.154422 
L 199.666883 109.676574 
L 199.65512 108.198726 
L 199.649682 106.720879 
L 199.650761 105.243031 
L 199.658568 103.765183 
L 199.673354 102.287336 
L 199.695374 100.809488 
L 199.724812 99.33164 
L 199.761681 97.853793 
L 201.360471 97.853793 
L 201.360471 97.853793 
L 201.397339 99.33164 
L 201.426778 100.809488 
L 201.448797 102.287336 
L 201.463583 103.765183 
L 201.47139 105.243031 
L 201.472469 106.720879 
L 201.467031 108.198726 
L 201.455268 109.676574 
L 201.437427 111.154422 
L 201.41393 112.632269 
L 201.385504 114.110117 
L 201.353309 115.587965 
L 201.319019 117.065812 
L 201.284851 118.54366 
L 201.253506 120.021508 
L 201.228049 121.499355 
L 201.211712 122.977203 
L 201.207655 124.455051 
L 201.218715 125.932899 
L 201.247157 127.410746 
L 201.294477 128.888594 
L 201.361262 130.366442 
L 201.447133 131.844289 
L 201.55077 133.322137 
L 201.670015 134.799985 
L 201.802039 136.277832 
L 201.943551 137.75568 
L 202.09101 139.233528 
L 202.240842 140.711375 
L 202.389605 142.189223 
L 202.53412 143.667071 
L 202.671556 145.144918 
L 202.799477 146.622766 
L 202.915871 148.100614 
L 203.019198 149.578461 
L 203.10845 151.056309 
L 203.183255 152.534157 
L 203.244007 154.012005 
L 203.292015 155.489852 
L 203.32963 156.9677 
L 203.360325 158.445548 
L 203.388688 159.923395 
L 203.420318 161.401243 
L 203.461618 162.879091 
L 203.519509 164.356938 
L 203.601106 165.834786 
L 203.713406 167.312634 
L 203.863059 168.790481 
L 204.056242 170.268329 
L 204.29869 171.746177 
L 204.595855 173.224024 
L 204.953158 174.701872 
L 205.376274 176.17972 
L 205.871341 177.657568 
L 206.445027 179.135415 
L 207.104346 180.613263 
L 207.856216 182.091111 
L 208.706724 183.568958 
L 209.660194 185.046806 
L 210.718126 186.524654 
L 211.878178 188.002501 
L 213.133336 189.480349 
L 214.471408 190.958197 
L 215.874975 192.436044 
L 217.321832 193.913892 
L 218.785916 195.39174 
L 220.238645 196.869587 
L 221.650527 198.347435 
L 222.992872 199.825283 
L 224.239441 201.30313 
L 225.367857 202.780978 
L 226.36066 204.258826 
L 227.205934 205.736674 
L 227.897486 207.214521 
L 228.4346 208.692369 
L 228.821426 210.170217 
L 229.066102 211.648064 
L 229.17968 213.125912 
L 229.174963 214.60376 
L 229.065321 216.081607 
L 228.863563 217.559455 
L 228.580929 219.037303 
L 228.226268 220.51515 
L 227.805449 221.992998 
L 227.321078 223.470846 
L 226.772535 224.948693 
L 226.156369 226.426541 
L 225.467024 227.904389 
L 224.697844 229.382236 
L 223.842278 230.860084 
L 222.895159 232.337932 
L 221.853924 233.81578 
L 220.719637 235.293627 
L 219.497706 236.771475 
L 218.1982 238.249323 
L 216.835726 239.72717 
L 215.42889 241.205018 
L 213.999376 242.682866 
L 212.570749 244.160713 
z
" clip-path="url(#pc3dcfa327c)" style="fill: #6acc65; fill-opacity: 0.35"/>
   </g>
   <g id="FillBetweenPolyCollection_3">
    <path d="M 301.761638 260.791331 
L 290.151211 260.791331 
L 289.169249 259.908042 
L 288.08728 259.024752 
L 286.909582 258.141463 
L 285.643644 257.258173 
L 284.300225 256.374884 
L 282.893241 255.491595 
L 281.439486 254.608305 
L 279.958196 253.725016 
L 278.470473 252.841726 
L 276.99861 251.958437 
L 275.565362 251.075148 
L 274.19319 250.191858 
L 272.903531 249.308569 
L 271.716132 248.425279 
L 270.648454 247.54199 
L 269.715189 246.6587 
L 268.927872 245.775411 
L 268.294611 244.892122 
L 267.819919 244.008832 
L 267.50465 243.125543 
L 267.346037 242.242253 
L 267.33782 241.358964 
L 267.470491 240.475674 
L 267.731629 239.592385 
L 268.106343 238.709096 
L 268.577811 237.825806 
L 269.127911 236.942517 
L 269.737908 236.059227 
L 270.389188 235.175938 
L 271.063981 234.292648 
L 271.746045 233.409359 
L 272.421261 232.52607 
L 273.078102 231.64278 
L 273.707937 230.759491 
L 274.305164 229.876201 
L 274.867154 228.992912 
L 275.394014 228.109622 
L 275.888206 227.226333 
L 276.354041 226.343044 
L 276.797097 225.459754 
L 277.22362 224.576465 
L 277.639931 223.693175 
L 278.051901 222.809886 
L 278.464527 221.926596 
L 278.881617 221.043307 
L 279.305616 220.160018 
L 279.737555 219.276728 
L 280.177134 218.393439 
L 280.622892 217.510149 
L 281.072461 216.62686 
L 281.522861 215.74357 
L 281.970813 214.860281 
L 282.41304 213.976992 
L 282.846531 213.093702 
L 283.268757 212.210413 
L 283.677834 211.327123 
L 284.072615 210.443834 
L 284.452734 209.560545 
L 284.818596 208.677255 
L 285.171326 207.793966 
L 285.512683 206.910676 
L 285.844953 206.027387 
L 286.170812 205.144097 
L 286.49318 204.260808 
L 286.81505 203.377519 
L 287.139313 202.494229 
L 287.46857 201.61094 
L 287.804942 200.72765 
L 288.149897 199.844361 
L 288.504096 198.961071 
L 288.867277 198.077782 
L 289.238194 197.194493 
L 289.614621 196.311203 
L 289.993418 195.427914 
L 290.370683 194.544624 
L 290.741948 193.661335 
L 291.102444 192.778045 
L 291.447389 191.894756 
L 291.77228 191.011467 
L 292.073188 190.128177 
L 292.347 189.244888 
L 292.591616 188.361598 
L 292.806069 187.478309 
L 292.990583 186.595019 
L 293.146532 185.71173 
L 293.276344 184.828441 
L 293.383336 183.945151 
L 293.471495 183.061862 
L 293.545234 182.178572 
L 293.609138 181.295283 
L 293.667701 180.411993 
L 293.725101 179.528704 
L 293.784994 178.645415 
L 293.850366 177.762125 
L 293.923426 176.878836 
L 294.005558 175.995546 
L 294.097327 175.112257 
L 294.198524 174.228967 
L 294.308261 173.345678 
L 297.604588 173.345678 
L 297.604588 173.345678 
L 297.714325 174.228967 
L 297.815522 175.112257 
L 297.907291 175.995546 
L 297.989423 176.878836 
L 298.062483 177.762125 
L 298.127855 178.645415 
L 298.187748 179.528704 
L 298.245148 180.411993 
L 298.303711 181.295283 
L 298.367615 182.178572 
L 298.441354 183.061862 
L 298.529513 183.945151 
L 298.636504 184.828441 
L 298.766317 185.71173 
L 298.922266 186.595019 
L 299.106779 187.478309 
L 299.321233 188.361598 
L 299.565848 189.244888 
L 299.839661 190.128177 
L 300.140569 191.011467 
L 300.46546 191.894756 
L 300.810404 192.778045 
L 301.170901 193.661335 
L 301.542166 194.544624 
L 301.919431 195.427914 
L 302.298228 196.311203 
L 302.674655 197.194493 
L 303.045572 198.077782 
L 303.408753 198.961071 
L 303.762952 199.844361 
L 304.107907 200.72765 
L 304.444279 201.61094 
L 304.773536 202.494229 
L 305.097799 203.377519 
L 305.419669 204.260808 
L 305.742036 205.144097 
L 306.067896 206.027387 
L 306.400166 206.910676 
L 306.741523 207.793966 
L 307.094253 208.677255 
L 307.460115 209.560545 
L 307.840234 210.443834 
L 308.235015 211.327123 
L 308.644091 212.210413 
L 309.066318 213.093702 
L 309.499808 213.976992 
L 309.942035 214.860281 
L 310.389988 215.74357 
L 310.840388 216.62686 
L 311.289956 217.510149 
L 311.735715 218.393439 
L 312.175294 219.276728 
L 312.607233 220.160018 
L 313.031231 221.043307 
L 313.448322 221.926596 
L 313.860948 222.809886 
L 314.272918 223.693175 
L 314.689229 224.576465 
L 315.115751 225.459754 
L 315.558808 226.343044 
L 316.024642 227.226333 
L 316.518835 228.109622 
L 317.045695 228.992912 
L 317.607685 229.876201 
L 318.204912 230.759491 
L 318.834747 231.64278 
L 319.491587 232.52607 
L 320.166804 233.409359 
L 320.848868 234.292648 
L 321.523661 235.175938 
L 322.174941 236.059227 
L 322.784938 236.942517 
L 323.335037 237.825806 
L 323.806506 238.709096 
L 324.181219 239.592385 
L 324.442358 240.475674 
L 324.575029 241.358964 
L 324.566812 242.242253 
L 324.408198 243.125543 
L 324.09293 244.008832 
L 323.618238 244.892122 
L 322.984977 245.775411 
L 322.19766 246.6587 
L 321.264394 247.54199 
L 320.196717 248.425279 
L 319.009318 249.308569 
L 317.719659 250.191858 
L 316.347486 251.075148 
L 314.914239 251.958437 
L 313.442376 252.841726 
L 311.954653 253.725016 
L 310.473363 254.608305 
L 309.019608 255.491595 
L 307.612624 256.374884 
L 306.269204 257.258173 
L 305.003267 258.141463 
L 303.825569 259.024752 
L 302.7436 259.908042 
L 301.761638 260.791331 
z
" clip-path="url(#pc3dcfa327c)" style="fill: #d65f5f; fill-opacity: 0.35"/>
   </g>
   <g id="FillBetweenPolyCollection_4">
    <path d="M 396.706896 265.590826 
L 385.996651 265.590826 
L 385.261444 265.017989 
L 384.469363 264.445151 
L 383.618625 263.872314 
L 382.707335 263.299477 
L 381.733837 262.726639 
L 380.697211 262.153802 
L 379.597868 261.580965 
L 378.438174 261.008127 
L 377.223031 260.43529 
L 375.96034 259.862453 
L 374.661268 259.289615 
L 373.34026 258.716778 
L 372.014766 258.143941 
L 370.704694 257.571103 
L 369.431603 256.998266 
L 368.21773 256.425429 
L 367.084902 255.852591 
L 366.053474 255.279754 
L 365.141362 254.706916 
L 364.363274 254.134079 
L 363.730197 253.561242 
L 363.249186 252.988404 
L 362.923427 252.415567 
L 362.752555 251.84273 
L 362.733169 251.269892 
L 362.859432 250.697055 
L 363.123713 250.124218 
L 363.517148 249.55138 
L 364.030102 248.978543 
L 364.65247 248.405706 
L 365.373828 247.832868 
L 366.18345 247.260031 
L 367.070237 246.687194 
L 368.022612 246.114356 
L 369.028422 245.541519 
L 370.074918 244.968682 
L 371.148814 244.395844 
L 372.236456 243.823007 
L 373.324098 243.250169 
L 374.39824 242.677332 
L 375.446034 242.104495 
L 376.455682 241.531657 
L 377.416826 240.95882 
L 378.320875 240.385983 
L 379.161254 239.813145 
L 379.933552 239.240308 
L 380.635572 238.667471 
L 381.267273 238.094633 
L 381.830609 237.521796 
L 382.329294 236.948959 
L 382.768496 236.376121 
L 383.154494 235.803284 
L 383.494327 235.230447 
L 383.795439 234.657609 
L 384.065368 234.084772 
L 384.311476 233.511935 
L 384.540728 232.939097 
L 384.759531 232.36626 
L 384.973616 231.793422 
L 385.187963 231.220585 
L 385.406748 230.647748 
L 385.633302 230.07491 
L 385.870089 229.502073 
L 386.118676 228.929236 
L 386.379718 228.356398 
L 386.652947 227.783561 
L 386.937183 227.210724 
L 387.230375 226.637886 
L 387.529664 226.065049 
L 387.831489 225.492212 
L 388.131723 224.919374 
L 388.425841 224.346537 
L 388.709108 223.7737 
L 388.976785 223.200862 
L 389.224339 222.628025 
L 389.447649 222.055188 
L 389.643202 221.48235 
L 389.808266 220.909513 
L 389.941041 220.336676 
L 390.040772 219.763838 
L 390.10782 219.191001 
L 390.143686 218.618163 
L 390.150984 218.045326 
L 390.133349 217.472489 
L 390.09529 216.899651 
L 390.041993 216.326814 
L 389.979073 215.753977 
L 389.912296 215.181139 
L 389.847294 214.608302 
L 389.789279 214.035465 
L 389.742797 213.462627 
L 389.71152 212.88979 
L 389.698107 212.316953 
L 389.704132 211.744115 
L 389.730083 211.171278 
L 389.775428 210.598441 
L 389.838738 210.025603 
L 389.917846 209.452766 
L 390.010041 208.879929 
L 392.693506 208.879929 
L 392.693506 208.879929 
L 392.7857 209.452766 
L 392.864809 210.025603 
L 392.928118 210.598441 
L 392.973464 211.171278 
L 392.999415 211.744115 
L 393.00544 212.316953 
L 392.992027 212.88979 
L 392.96075 213.462627 
L 392.914267 214.035465 
L 392.856252 214.608302 
L 392.79125 215.181139 
L 392.724474 215.753977 
L 392.661553 216.326814 
L 392.608257 216.899651 
L 392.570198 217.472489 
L 392.552562 218.045326 
L 392.55986 218.618163 
L 392.595727 219.191001 
L 392.662774 219.763838 
L 392.762505 220.336676 
L 392.895281 220.909513 
L 393.060345 221.48235 
L 393.255898 222.055188 
L 393.479208 222.628025 
L 393.726761 223.200862 
L 393.994438 223.7737 
L 394.277705 224.346537 
L 394.571823 224.919374 
L 394.872057 225.492212 
L 395.173882 226.065049 
L 395.473171 226.637886 
L 395.766363 227.210724 
L 396.0506 227.783561 
L 396.323828 228.356398 
L 396.58487 228.929236 
L 396.833458 229.502073 
L 397.070245 230.07491 
L 397.296799 230.647748 
L 397.515583 231.220585 
L 397.72993 231.793422 
L 397.944016 232.36626 
L 398.162818 232.939097 
L 398.39207 233.511935 
L 398.638178 234.084772 
L 398.908108 234.657609 
L 399.20922 235.230447 
L 399.549052 235.803284 
L 399.935051 236.376121 
L 400.374252 236.948959 
L 400.872937 237.521796 
L 401.436273 238.094633 
L 402.067974 238.667471 
L 402.769995 239.240308 
L 403.542293 239.813145 
L 404.382671 240.385983 
L 405.286721 240.95882 
L 406.247865 241.531657 
L 407.257513 242.104495 
L 408.305306 242.677332 
L 409.379449 243.250169 
L 410.46709 243.823007 
L 411.554733 244.395844 
L 412.628628 244.968682 
L 413.675124 245.541519 
L 414.680935 246.114356 
L 415.633309 246.687194 
L 416.520097 247.260031 
L 417.329719 247.832868 
L 418.051077 248.405706 
L 418.673445 248.978543 
L 419.186399 249.55138 
L 419.579834 250.124218 
L 419.844114 250.697055 
L 419.970378 251.269892 
L 419.950991 251.84273 
L 419.78012 252.415567 
L 419.45436 252.988404 
L 418.973349 253.561242 
L 418.340273 254.134079 
L 417.562184 254.706916 
L 416.650072 255.279754 
L 415.618645 255.852591 
L 414.485817 256.425429 
L 413.271943 256.998266 
L 411.998853 257.571103 
L 410.68878 258.143941 
L 409.363286 258.716778 
L 408.042278 259.289615 
L 406.743207 259.862453 
L 405.480516 260.43529 
L 404.265372 261.008127 
L 403.105678 261.580965 
L 402.006336 262.153802 
L 400.96971 262.726639 
L 399.996211 263.299477 
L 399.084921 263.872314 
L 398.234184 264.445151 
L 397.442102 265.017989 
L 396.706896 265.590826 
z
" clip-path="url(#pc3dcfa327c)" style="fill: #b47cc7; fill-opacity: 0.35"/>
   </g>
   <g id="matplotlib.axis_1">
    <g id="xtick_1">
     <g id="line2d_2">
      <defs>
       <path id="md5be2e1b7e" d="M 0 0 
L 0 3.5 
" style="stroke: #000000; stroke-width: 0.8"/>
      </defs>
      <g>
       <use xlink:href="#md5be2e1b7e" x="105.165727" y="280.856" style="stroke: #000000; stroke-width: 0.8"/>
      </g>
     </g>
     <g id="text_1">
      <!-- Control -->
      <g transform="translate(87.094633 295.454437) scale(0.1 -0.1)">
       <defs>
        <path id="DejaVuSans-43" d="M 4122 4306 
L 4122 3641 
Q 3803 3938 3442 4084 
Q 3081 4231 2675 4231 
Q 1875 4231 1450 3742 
Q 1025 3253 1025 2328 
Q 1025 1406 1450 917 
Q 1875 428 2675 428 
Q 3081 428 3442 575 
Q 3803 722 4122 1019 
L 4122 359 
Q 3791 134 3420 21 
Q 3050 -91 2638 -91 
Q 1578 -91 968 557 
Q 359 1206 359 2328 
Q 359 3453 968 4101 
Q 1578 4750 2638 4750 
Q 3056 4750 3426 4639 
Q 3797 4528 4122 4306 
z
" transform="scale(0.015625)"/>
        <path id="DejaVuSans-6f" d="M 1959 3097 
Q 1497 3097 1228 2736 
Q 959 2375 959 1747 
Q 959 1119 1226 758 
Q 1494 397 1959 397 
Q 2419 397 2687 759 
Q 2956 1122 2956 1747 
Q 2956 2369 2687 2733 
Q 2419 3097 1959 3097 
z
M 1959 3584 
Q 2709 3584 3137 3096 
Q 3566 2609 3566 1747 
Q 3566 888 3137 398 
Q 2709 -91 1959 -91 
Q 1206 -91 779 398 
Q 353 888 353 1747 
Q 353 2609 779 3096 
Q 1206 3584 1959 3584 
z
" transform="scale(0.015625)"/>
        <path id="DejaVuSans-6e" d="M 3513 2113 
L 3513 0 
L 2938 0 
L 2938 2094 
Q 2938 2591 2744 2837 
Q 2550 3084 2163 3084 
Q 1697 3084 1428 2787 
Q 1159 2491 1159 1978 
L 1159 0 
L 581 0 
L 581 3500 
L 1159 3500 
L 1159 2956 
Q 1366 3272 1645 3428 
Q 1925 3584 2291 3584 
Q 2894 3584 3203 3211 
Q 3513 2838 3513 2113 
z
" transform="scale(0.015625)"/>
        <path id="DejaVuSans-74" d="M 1172 4494 
L 1172 3500 
L 2356 3500 
L 2356 3053 
L 1172 3053 
L 1172 1153 
Q 1172 725 1289 603 
Q 1406 481 1766 481 
L 2356 481 
L 2356 0 
L 1766 0 
Q 1100 0 847 248 
Q 594 497 594 1153 
L 594 3053 
L 172 3053 
L 172 3500 
L 594 3500 
L 594 4494 
L 1172 4494 
z
" transform="scale(0.015625)"/>
        <path id="DejaVuSans-72" d="M 2631 2963 
Q 2534 3019 2420 3045 
Q 2306 3072 2169 3072 
Q 1681 3072 1420 2755 
Q 1159 2438 1159 1844 
L 1159 0 
L 581 0 
L 581 3500 
L 1159 3500 
L 1159 2956 
Q 1341 3275 1631 3429 
Q 1922 3584 2338 3584 
Q 2397 3584 2469 3576 
Q 2541 3569 2628 3553 
L 2631 2963 
z
" transform="scale(0.015625)"/>
        <path id="DejaVuSans-6c" d="M 603 4863 
L 1178 4863 
L 1178 0 
L 603 0 
L 603 4863 
z
" transform="scale(0.015625)"/>
       </defs>
       <use xlink:href="#DejaVuSans-43"/>
       <use xlink:href="#DejaVuSans-6f" transform="translate(69.824219 0)"/>
       <use xlink:href="#DejaVuSans-6e" transform="translate(131.005859 0)"/>
       <use xlink:href="#DejaVuSans-74" transform="translate(194.384766 0)"/>
       <use xlink:href="#DejaVuSans-72" transform="translate(233.59375 0)"/>
       <use xlink:href="#DejaVuSans-6f" transform="translate(272.457031 0)"/>
       <use xlink:href="#DejaVuSans-6c" transform="translate(333.638672 0)"/>
      </g>
     </g>
    </g>
    <g id="xtick_2">
     <g id="line2d_3">
      <g>
       <use xlink:href="#md5be2e1b7e" x="200.561076" y="280.856" style="stroke: #000000; stroke-width: 0.8"/>
      </g>
     </g>
     <g id="text_2">
      <!-- Drug-A -->
      <g transform="translate(183.200919 295.454437) scale(0.1 -0.1)">
       <defs>
        <path id="DejaVuSans-44" d="M 1259 4147 
L 1259 519 
L 2022 519 
Q 2988 519 3436 956 
Q 3884 1394 3884 2338 
Q 3884 3275 3436 3711 
Q 2988 4147 2022 4147 
L 1259 4147 
z
M 628 4666 
L 1925 4666 
Q 3281 4666 3915 4102 
Q 4550 3538 4550 2338 
Q 4550 1131 3912 565 
Q 3275 0 1925 0 
L 628 0 
L 628 4666 
z
" transform="scale(0.015625)"/>
        <path id="DejaVuSans-75" d="M 544 1381 
L 544 3500 
L 1119 3500 
L 1119 1403 
Q 1119 906 1312 657 
Q 1506 409 1894 409 
Q 2359 409 2629 706 
Q 2900 1003 2900 1516 
L 2900 3500 
L 3475 3500 
L 3475 0 
L 2900 0 
L 2900 538 
Q 2691 219 2414 64 
Q 2138 -91 1772 -91 
Q 1169 -91 856 284 
Q 544 659 544 1381 
z
M 1991 3584 
L 1991 3584 
z
" transform="scale(0.015625)"/>
        <path id="DejaVuSans-67" d="M 2906 1791 
Q 2906 2416 2648 2759 
Q 2391 3103 1925 3103 
Q 1463 3103 1205 2759 
Q 947 2416 947 1791 
Q 947 1169 1205 825 
Q 1463 481 1925 481 
Q 2391 481 2648 825 
Q 2906 1169 2906 1791 
z
M 3481 434 
Q 3481 -459 3084 -895 
Q 2688 -1331 1869 -1331 
Q 1566 -1331 1297 -1286 
Q 1028 -1241 775 -1147 
L 775 -588 
Q 1028 -725 1275 -790 
Q 1522 -856 1778 -856 
Q 2344 -856 2625 -561 
Q 2906 -266 2906 331 
L 2906 616 
Q 2728 306 2450 153 
Q 2172 0 1784 0 
Q 1141 0 747 490 
Q 353 981 353 1791 
Q 353 2603 747 3093 
Q 1141 3584 1784 3584 
Q 2172 3584 2450 3431 
Q 2728 3278 2906 2969 
L 2906 3500 
L 3481 3500 
L 3481 434 
z
" transform="scale(0.015625)"/>
        <path id="DejaVuSans-2d" d="M 313 2009 
L 1997 2009 
L 1997 1497 
L 313 1497 
L 313 2009 
z
" transform="scale(0.015625)"/>
        <path id="DejaVuSans-41" d="M 2188 4044 
L 1331 1722 
L 3047 1722 
L 2188 4044 
z
M 1831 4666 
L 2547 4666 
L 4325 0 
L 3669 0 
L 3244 1197 
L 1141 1197 
L 716 0 
L 50 0 
L 1831 4666 
z
" transform="scale(0.015625)"/>
       </defs>
       <use xlink:href="#DejaVuSans-44"/>
       <use xlink:href="#DejaVuSans-72" transform="translate(77.001953 0)"/>
       <use xlink:href="#DejaVuSans-75" transform="translate(118.115234 0)"/>
       <use xlink:href="#DejaVuSans-67" transform="translate(181.494141 0)"/>
       <use xlink:href="#DejaVuSans-2d" transform="translate(244.970703 0)"/>
       <use xlink:href="#DejaVuSans-41" transform="translate(278.804688 0)"/>
      </g>
      <!-- 10 µM -->
      <g transform="translate(185.114201 306.65225) scale(0.1 -0.1)">
       <defs>
        <path id="DejaVuSans-31" d="M 794 531 
L 1825 531 
L 1825 4091 
L 703 3866 
L 703 4441 
L 1819 4666 
L 2450 4666 
L 2450 531 
L 3481 531 
L 3481 0 
L 794 0 
L 794 531 
z
" transform="scale(0.015625)"/>
        <path id="DejaVuSans-30" d="M 2034 4250 
Q 1547 4250 1301 3770 
Q 1056 3291 1056 2328 
Q 1056 1369 1301 889 
Q 1547 409 2034 409 
Q 2525 409 2770 889 
Q 3016 1369 3016 2328 
Q 3016 3291 2770 3770 
Q 2525 4250 2034 4250 
z
M 2034 4750 
Q 2819 4750 3233 4129 
Q 3647 3509 3647 2328 
Q 3647 1150 3233 529 
Q 2819 -91 2034 -91 
Q 1250 -91 836 529 
Q 422 1150 422 2328 
Q 422 3509 836 4129 
Q 1250 4750 2034 4750 
z
" transform="scale(0.015625)"/>
        <path id="DejaVuSans-20" transform="scale(0.015625)"/>
        <path id="DejaVuSans-b5" d="M 544 -1331 
L 544 3500 
L 1119 3500 
L 1119 1325 
Q 1119 872 1334 640 
Q 1550 409 1972 409 
Q 2434 409 2667 671 
Q 2900 934 2900 1459 
L 2900 3500 
L 3475 3500 
L 3475 806 
Q 3475 619 3529 530 
Q 3584 441 3700 441 
Q 3728 441 3778 458 
Q 3828 475 3916 513 
L 3916 50 
Q 3788 -22 3673 -56 
Q 3559 -91 3450 -91 
Q 3234 -91 3106 31 
Q 2978 153 2931 403 
Q 2775 156 2548 32 
Q 2322 -91 2016 -91 
Q 1697 -91 1473 31 
Q 1250 153 1119 397 
L 1119 -1331 
L 544 -1331 
z
" transform="scale(0.015625)"/>
        <path id="DejaVuSans-4d" d="M 628 4666 
L 1569 4666 
L 2759 1491 
L 3956 4666 
L 4897 4666 
L 4897 0 
L 4281 0 
L 4281 4097 
L 3078 897 
L 2444 897 
L 1241 4097 
L 1241 0 
L 628 0 
L 628 4666 
z
" transform="scale(0.015625)"/>
       </defs>
       <use xlink:href="#DejaVuSans-31"/>
       <use xlink:href="#DejaVuSans-30" transform="translate(63.623047 0)"/>
       <use xlink:href="#DejaVuSans-20" transform="translate(127.246094 0)"/>
       <use xlink:href="#DejaVuSans-b5" transform="translate(159.033203 0)"/>
       <use xlink:href="#DejaVuSans-4d" transform="translate(222.65625 0)"/>
      </g>
     </g>
    </g>
    <g id="xtick_3">
     <g id="line2d_4">
      <g>
       <use xlink:href="#md5be2e1b7e" x="295.956424" y="280.856" style="stroke: #000000; stroke-width: 0.8"/>
      </g>
     </g>
     <g id="text_3">
      <!-- Drug-A -->
      <g transform="translate(278.596268 295.454437) scale(0.1 -0.1)">
       <use xlink:href="#DejaVuSans-44"/>
       <use xlink:href="#DejaVuSans-72" transform="translate(77.001953 0)"/>
       <use xlink:href="#DejaVuSans-75" transform="translate(118.115234 0)"/>
       <use xlink:href="#DejaVuSans-67" transform="translate(181.494141 0)"/>
       <use xlink:href="#DejaVuSans-2d" transform="translate(244.970703 0)"/>
       <use xlink:href="#DejaVuSans-41" transform="translate(278.804688 0)"/>
      </g>
      <!-- 50 µM -->
      <g transform="translate(280.509549 306.65225) scale(0.1 -0.1)">
       <defs>
        <path id="DejaVuSans-35" d="M 691 4666 
L 3169 4666 
L 3169 4134 
L 1269 4134 
L 1269 2991 
Q 1406 3038 1543 3061 
Q 1681 3084 1819 3084 
Q 2600 3084 3056 2656 
Q 3513 2228 3513 1497 
Q 3513 744 3044 326 
Q 2575 -91 1722 -91 
Q 1428 -91 1123 -41 
Q 819 9 494 109 
L 494 744 
Q 775 591 1075 516 
Q 1375 441 1709 441 
Q 2250 441 2565 725 
Q 2881 1009 2881 1497 
Q 2881 1984 2565 2268 
Q 2250 2553 1709 2553 
Q 1456 2553 1204 2497 
Q 953 2441 691 2322 
L 691 4666 
z
" transform="scale(0.015625)"/>
       </defs>
       <use xlink:href="#DejaVuSans-35"/>
       <use xlink:href="#DejaVuSans-30" transform="translate(63.623047 0)"/>
       <use xlink:href="#DejaVuSans-20" transform="translate(127.246094 0)"/>
       <use xlink:href="#DejaVuSans-b5" transform="translate(159.033203 0)"/>
       <use xlink:href="#DejaVuSans-4d" transform="translate(222.65625 0)"/>
      </g>
     </g>
    </g>
    <g id="xtick_4">
     <g id="line2d_5">
      <g>
       <use xlink:href="#md5be2e1b7e" x="391.351773" y="280.856" style="stroke: #000000; stroke-width: 0.8"/>
      </g>
     </g>
     <g id="text_4">
      <!-- Combo -->
      <g transform="translate(373.697086 295.454437) scale(0.1 -0.1)">
       <defs>
        <path id="DejaVuSans-6d" d="M 3328 2828 
Q 3544 3216 3844 3400 
Q 4144 3584 4550 3584 
Q 5097 3584 5394 3201 
Q 5691 2819 5691 2113 
L 5691 0 
L 5113 0 
L 5113 2094 
Q 5113 2597 4934 2840 
Q 4756 3084 4391 3084 
Q 3944 3084 3684 2787 
Q 3425 2491 3425 1978 
L 3425 0 
L 2847 0 
L 2847 2094 
Q 2847 2600 2669 2842 
Q 2491 3084 2119 3084 
Q 1678 3084 1418 2786 
Q 1159 2488 1159 1978 
L 1159 0 
L 581 0 
L 581 3500 
L 1159 3500 
L 1159 2956 
Q 1356 3278 1631 3431 
Q 1906 3584 2284 3584 
Q 2666 3584 2933 3390 
Q 3200 3197 3328 2828 
z
" transform="scale(0.015625)"/>
        <path id="DejaVuSans-62" d="M 3116 1747 
Q 3116 2381 2855 2742 
Q 2594 3103 2138 3103 
Q 1681 3103 1420 2742 
Q 1159 2381 1159 1747 
Q 1159 1113 1420 752 
Q 1681 391 2138 391 
Q 2594 391 2855 752 
Q 3116 1113 3116 1747 
z
M 1159 2969 
Q 1341 3281 1617 3432 
Q 1894 3584 2278 3584 
Q 2916 3584 3314 3078 
Q 3713 2572 3713 1747 
Q 3713 922 3314 415 
Q 2916 -91 2278 -91 
Q 1894 -91 1617 61 
Q 1341 213 1159 525 
L 1159 0 
L 581 0 
L 581 4863 
L 1159 4863 
L 1159 2969 
z
" transform="scale(0.015625)"/>
       </defs>
       <use xlink:href="#DejaVuSans-43"/>
       <use xlink:href="#DejaVuSans-6f" transform="translate(69.824219 0)"/>
       <use xlink:href="#DejaVuSans-6d" transform="translate(131.005859 0)"/>
       <use xlink:href="#DejaVuSans-62" transform="translate(228.417969 0)"/>
       <use xlink:href="#DejaVuSans-6f" transform="translate(291.894531 0)"/>
      </g>
     </g>
    </g>
   </g>
   <g id="matplotlib.axis_2">
    <g id="ytick_1">
     <g id="line2d_6">
      <defs>
       <path id="me85e446ae5" d="M 0 0 
L -3.5 0 
" style="stroke: #000000; stroke-width: 0.8"/>
      </defs>
      <g>
       <use xlink:href="#me85e446ae5" x="43.15875" y="276.767844" style="stroke: #000000; stroke-width: 0.8"/>
      </g>
     </g>
     <g id="text_5">
      <!-- 0.0 -->
      <g transform="translate(21.845938 280.187141) scale(0.09 -0.09)">
       <defs>
        <path id="DejaVuSans-2e" d="M 684 794 
L 1344 794 
L 1344 0 
L 684 0 
L 684 794 
z
" transform="scale(0.015625)"/>
       </defs>
       <use xlink:href="#DejaVuSans-30"/>
       <use xlink:href="#DejaVuSans-2e" transform="translate(63.623047 0)"/>
       <use xlink:href="#DejaVuSans-30" transform="translate(95.410156 0)"/>
      </g>
     </g>
    </g>
    <g id="ytick_2">
     <g id="line2d_7">
      <g>
       <use xlink:href="#me85e446ae5" x="43.15875" y="235.886286" style="stroke: #000000; stroke-width: 0.8"/>
      </g>
     </g>
     <g id="text_6">
      <!-- 0.5 -->
      <g transform="translate(21.845938 239.305583) scale(0.09 -0.09)">
       <use xlink:href="#DejaVuSans-30"/>
       <use xlink:href="#DejaVuSans-2e" transform="translate(63.623047 0)"/>
       <use xlink:href="#DejaVuSans-35" transform="translate(95.410156 0)"/>
      </g>
     </g>
    </g>
    <g id="ytick_3">
     <g id="line2d_8">
      <g>
       <use xlink:href="#me85e446ae5" x="43.15875" y="195.004728" style="stroke: #000000; stroke-width: 0.8"/>
      </g>
     </g>
     <g id="text_7">
      <!-- 1.0 -->
      <g transform="translate(21.845938 198.424025) scale(0.09 -0.09)">
       <use xlink:href="#DejaVuSans-31"/>
       <use xlink:href="#DejaVuSans-2e" transform="translate(63.623047 0)"/>
       <use xlink:href="#DejaVuSans-30" transform="translate(95.410156 0)"/>
      </g>
     </g>
    </g>
    <g id="ytick_4">
     <g id="line2d_9">
      <g>
       <use xlink:href="#me85e446ae5" x="43.15875" y="154.123169" style="stroke: #000000; stroke-width: 0.8"/>
      </g>
     </g>
     <g id="text_8">
      <!-- 1.5 -->
      <g transform="translate(21.845938 157.542466) scale(0.09 -0.09)">
       <use xlink:href="#DejaVuSans-31"/>
       <use xlink:href="#DejaVuSans-2e" transform="translate(63.623047 0)"/>
       <use xlink:href="#DejaVuSans-35" transform="translate(95.410156 0)"/>
      </g>
     </g>
    </g>
    <g id="ytick_5">
     <g id="line2d_10">
      <g>
       <use xlink:href="#me85e446ae5" x="43.15875" y="113.241611" style="stroke: #000000; stroke-width: 0.8"/>
      </g>
     </g>
     <g id="text_9">
      <!-- 2.0 -->
      <g transform="translate(21.845938 116.660908) scale(0.09 -0.09)">
       <defs>
        <path id="DejaVuSans-32" d="M 1228 531 
L 3431 531 
L 3431 0 
L 469 0 
L 469 531 
Q 828 903 1448 1529 
Q 2069 2156 2228 2338 
Q 2531 2678 2651 2914 
Q 2772 3150 2772 3378 
Q 2772 3750 2511 3984 
Q 2250 4219 1831 4219 
Q 1534 4219 1204 4116 
Q 875 4013 500 3803 
L 500 4441 
Q 881 4594 1212 4672 
Q 1544 4750 1819 4750 
Q 2544 4750 2975 4387 
Q 3406 4025 3406 3419 
Q 3406 3131 3298 2873 
Q 3191 2616 2906 2266 
Q 2828 2175 2409 1742 
Q 1991 1309 1228 531 
z
" transform="scale(0.015625)"/>
       </defs>
       <use xlink:href="#DejaVuSans-32"/>
       <use xlink:href="#DejaVuSans-2e" transform="translate(63.623047 0)"/>
       <use xlink:href="#DejaVuSans-30" transform="translate(95.410156 0)"/>
      </g>
     </g>
    </g>
    <g id="ytick_6">
     <g id="line2d_11">
      <g>
       <use xlink:href="#me85e446ae5" x="43.15875" y="72.360053" style="stroke: #000000; stroke-width: 0.8"/>
      </g>
     </g>
     <g id="text_10">
      <!-- 2.5 -->
      <g transform="translate(21.845938 75.77935) scale(0.09 -0.09)">
       <use xlink:href="#DejaVuSans-32"/>
       <use xlink:href="#DejaVuSans-2e" transform="translate(63.623047 0)"/>
       <use xlink:href="#DejaVuSans-35" transform="translate(95.410156 0)"/>
      </g>
     </g>
    </g>
    <g id="ytick_7">
     <g id="line2d_12">
      <g>
       <use xlink:href="#me85e446ae5" x="43.15875" y="31.478495" style="stroke: #000000; stroke-width: 0.8"/>
      </g>
     </g>
     <g id="text_11">
      <!-- 3.0 -->
      <g transform="translate(21.845938 34.897791) scale(0.09 -0.09)">
       <defs>
        <path id="DejaVuSans-33" d="M 2597 2516 
Q 3050 2419 3304 2112 
Q 3559 1806 3559 1356 
Q 3559 666 3084 287 
Q 2609 -91 1734 -91 
Q 1441 -91 1130 -33 
Q 819 25 488 141 
L 488 750 
Q 750 597 1062 519 
Q 1375 441 1716 441 
Q 2309 441 2620 675 
Q 2931 909 2931 1356 
Q 2931 1769 2642 2001 
Q 2353 2234 1838 2234 
L 1294 2234 
L 1294 2753 
L 1863 2753 
Q 2328 2753 2575 2939 
Q 2822 3125 2822 3475 
Q 2822 3834 2567 4026 
Q 2313 4219 1838 4219 
Q 1578 4219 1281 4162 
Q 984 4106 628 3988 
L 628 4550 
Q 988 4650 1302 4700 
Q 1616 4750 1894 4750 
Q 2613 4750 3031 4423 
Q 3450 4097 3450 3541 
Q 3450 3153 3228 2886 
Q 3006 2619 2597 2516 
z
" transform="scale(0.015625)"/>
       </defs>
       <use xlink:href="#DejaVuSans-33"/>
       <use xlink:href="#DejaVuSans-2e" transform="translate(63.623047 0)"/>
       <use xlink:href="#DejaVuSans-30" transform="translate(95.410156 0)"/>
      </g>
     </g>
    </g>
    <g id="text_12">
     <!-- Relative cell viability -->
     <g transform="translate(15.558281 200.809484) rotate(-90) scale(0.11 -0.11)">
      <defs>
       <path id="DejaVuSans-52" d="M 2841 2188 
Q 3044 2119 3236 1894 
Q 3428 1669 3622 1275 
L 4263 0 
L 3584 0 
L 2988 1197 
Q 2756 1666 2539 1819 
Q 2322 1972 1947 1972 
L 1259 1972 
L 1259 0 
L 628 0 
L 628 4666 
L 2053 4666 
Q 2853 4666 3247 4331 
Q 3641 3997 3641 3322 
Q 3641 2881 3436 2590 
Q 3231 2300 2841 2188 
z
M 1259 4147 
L 1259 2491 
L 2053 2491 
Q 2509 2491 2742 2702 
Q 2975 2913 2975 3322 
Q 2975 3731 2742 3939 
Q 2509 4147 2053 4147 
L 1259 4147 
z
" transform="scale(0.015625)"/>
       <path id="DejaVuSans-65" d="M 3597 1894 
L 3597 1613 
L 953 1613 
Q 991 1019 1311 708 
Q 1631 397 2203 397 
Q 2534 397 2845 478 
Q 3156 559 3463 722 
L 3463 178 
Q 3153 47 2828 -22 
Q 2503 -91 2169 -91 
Q 1331 -91 842 396 
Q 353 884 353 1716 
Q 353 2575 817 3079 
Q 1281 3584 2069 3584 
Q 2775 3584 3186 3129 
Q 3597 2675 3597 1894 
z
M 3022 2063 
Q 3016 2534 2758 2815 
Q 2500 3097 2075 3097 
Q 1594 3097 1305 2825 
Q 1016 2553 972 2059 
L 3022 2063 
z
" transform="scale(0.015625)"/>
       <path id="DejaVuSans-61" d="M 2194 1759 
Q 1497 1759 1228 1600 
Q 959 1441 959 1056 
Q 959 750 1161 570 
Q 1363 391 1709 391 
Q 2188 391 2477 730 
Q 2766 1069 2766 1631 
L 2766 1759 
L 2194 1759 
z
M 3341 1997 
L 3341 0 
L 2766 0 
L 2766 531 
Q 2569 213 2275 61 
Q 1981 -91 1556 -91 
Q 1019 -91 701 211 
Q 384 513 384 1019 
Q 384 1609 779 1909 
Q 1175 2209 1959 2209 
L 2766 2209 
L 2766 2266 
Q 2766 2663 2505 2880 
Q 2244 3097 1772 3097 
Q 1472 3097 1187 3025 
Q 903 2953 641 2809 
L 641 3341 
Q 956 3463 1253 3523 
Q 1550 3584 1831 3584 
Q 2591 3584 2966 3190 
Q 3341 2797 3341 1997 
z
" transform="scale(0.015625)"/>
       <path id="DejaVuSans-69" d="M 603 3500 
L 1178 3500 
L 1178 0 
L 603 0 
L 603 3500 
z
M 603 4863 
L 1178 4863 
L 1178 4134 
L 603 4134 
L 603 4863 
z
" transform="scale(0.015625)"/>
       <path id="DejaVuSans-76" d="M 191 3500 
L 800 3500 
L 1894 563 
L 2988 3500 
L 3597 3500 
L 2284 0 
L 1503 0 
L 191 3500 
z
" transform="scale(0.015625)"/>
       <path id="DejaVuSans-63" d="M 3122 3366 
L 3122 2828 
Q 2878 2963 2633 3030 
Q 2388 3097 2138 3097 
Q 1578 3097 1268 2742 
Q 959 2388 959 1747 
Q 959 1106 1268 751 
Q 1578 397 2138 397 
Q 2388 397 2633 464 
Q 2878 531 3122 666 
L 3122 134 
Q 2881 22 2623 -34 
Q 2366 -91 2075 -91 
Q 1284 -91 818 406 
Q 353 903 353 1747 
Q 353 2603 823 3093 
Q 1294 3584 2113 3584 
Q 2378 3584 2631 3529 
Q 2884 3475 3122 3366 
z
" transform="scale(0.015625)"/>
       <path id="DejaVuSans-79" d="M 2059 -325 
Q 1816 -950 1584 -1140 
Q 1353 -1331 966 -1331 
L 506 -1331 
L 506 -850 
L 844 -850 
Q 1081 -850 1212 -737 
Q 1344 -625 1503 -206 
L 1606 56 
L 191 3500 
L 800 3500 
L 1894 763 
L 2988 3500 
L 3597 3500 
L 2059 -325 
z
" transform="scale(0.015625)"/>
      </defs>
      <use xlink:href="#DejaVuSans-52"/>
      <use xlink:href="#DejaVuSans-65" transform="translate(64.982422 0)"/>
      <use xlink:href="#DejaVuSans-6c" transform="translate(126.505859 0)"/>
      <use xlink:href="#DejaVuSans-61" transform="translate(154.289062 0)"/>
      <use xlink:href="#DejaVuSans-74" transform="translate(215.568359 0)"/>
      <use xlink:href="#DejaVuSans-69" transform="translate(254.777344 0)"/>
      <use xlink:href="#DejaVuSans-76" transform="translate(282.560547 0)"/>
      <use xlink:href="#DejaVuSans-65" transform="translate(341.740234 0)"/>
      <use xlink:href="#DejaVuSans-20" transform="translate(403.263672 0)"/>
      <use xlink:href="#DejaVuSans-63" transform="translate(435.050781 0)"/>
      <use xlink:href="#DejaVuSans-65" transform="translate(490.03125 0)"/>
      <use xlink:href="#DejaVuSans-6c" transform="translate(551.554688 0)"/>
      <use xlink:href="#DejaVuSans-6c" transform="translate(579.337891 0)"/>
      <use xlink:href="#DejaVuSans-20" transform="translate(607.121094 0)"/>
      <use xlink:href="#DejaVuSans-76" transform="translate(638.908203 0)"/>
      <use xlink:href="#DejaVuSans-69" transform="translate(698.087891 0)"/>
      <use xlink:href="#DejaVuSans-61" transform="translate(725.871094 0)"/>
      <use xlink:href="#DejaVuSans-62" transform="translate(787.150391 0)"/>
      <use xlink:href="#DejaVuSans-69" transform="translate(850.626953 0)"/>
      <use xlink:href="#DejaVuSans-6c" transform="translate(878.410156 0)"/>
      <use xlink:href="#DejaVuSans-69" transform="translate(906.193359 0)"/>
      <use xlink:href="#DejaVuSans-74" transform="translate(933.976562 0)"/>
      <use xlink:href="#DejaVuSans-79" transform="translate(973.185547 0)"/>
     </g>
    </g>
   </g>
   <g id="patch_3">
    <path d="M 96.580145 210.576513 
L 113.751308 210.576513 
L 113.751308 177.546258 
L 96.580145 177.546258 
L 96.580145 210.576513 
z
" clip-path="url(#pc3dcfa327c)" style="fill: #4878cf; opacity: 0.85"/>
   </g>
   <g id="line2d_13">
    <path d="M 105.165727 210.576513 
L 105.165727 245.133694 
" clip-path="url(#pc3dcfa327c)" style="fill: none; stroke: #444444; stroke-width: 1.2; stroke-linecap: square"/>
   </g>
   <g id="line2d_14">
    <path d="M 105.165727 177.546258 
L 105.165727 129.708703 
" clip-path="url(#pc3dcfa327c)" style="fill: none; stroke: #444444; stroke-width: 1.2; stroke-linecap: square"/>
   </g>
   <g id="line2d_15">
    <path d="M 100.872936 245.133694 
L 109.458517 245.133694 
" clip-path="url(#pc3dcfa327c)" style="fill: none; stroke: #444444; stroke-width: 1.2; stroke-linecap: square"/>
   </g>
   <g id="line2d_16">
    <path d="M 100.872936 129.708703 
L 109.458517 129.708703 
" clip-path="url(#pc3dcfa327c)" style="fill: none; stroke: #444444; stroke-width: 1.2; stroke-linecap: square"/>
   </g>
   <g id="patch_4">
    <path d="M 191.975494 228.037027 
L 209.146657 228.037027 
L 209.146657 201.885094 
L 191.975494 201.885094 
L 191.975494 228.037027 
z
" clip-path="url(#pc3dcfa327c)" style="fill: #6acc65; opacity: 0.85"/>
   </g>
   <g id="line2d_17">
    <path d="M 200.561076 228.037027 
L 200.561076 244.160713 
" clip-path="url(#pc3dcfa327c)" style="fill: none; stroke: #444444; stroke-width: 1.2; stroke-linecap: square"/>
   </g>
   <g id="line2d_18">
    <path d="M 200.561076 201.885094 
L 200.561076 171.260719 
" clip-path="url(#pc3dcfa327c)" style="fill: none; stroke: #444444; stroke-width: 1.2; stroke-linecap: square"/>
   </g>
   <g id="line2d_19">
    <path d="M 196.268285 244.160713 
L 204.853866 244.160713 
" clip-path="url(#pc3dcfa327c)" style="fill: none; stroke: #444444; stroke-width: 1.2; stroke-linecap: square"/>
   </g>
   <g id="line2d_20">
    <path d="M 196.268285 171.260719 
L 204.853866 171.260719 
" clip-path="url(#pc3dcfa327c)" style="fill: none; stroke: #444444; stroke-width: 1.2; stroke-linecap: square"/>
   </g>
   <g id="patch_5">
    <path d="M 287.370843 243.406449 
L 304.542006 243.406449 
L 304.542006 219.038996 
L 287.370843 219.038996 
L 287.370843 243.406449 
z
" clip-path="url(#pc3dcfa327c)" style="fill: #d65f5f; opacity: 0.85"/>
   </g>
   <g id="line2d_21">
    <path d="M 295.956424 243.406449 
L 295.956424 260.791331 
" clip-path="url(#pc3dcfa327c)" style="fill: none; stroke: #444444; stroke-width: 1.2; stroke-linecap: square"/>
   </g>
   <g id="line2d_22">
    <path d="M 295.956424 219.038996 
L 295.956424 189.72283 
" clip-path="url(#pc3dcfa327c)" style="fill: none; stroke: #444444; stroke-width: 1.2; stroke-linecap: square"/>
   </g>
   <g id="line2d_23">
    <path d="M 291.663634 260.791331 
L 300.249215 260.791331 
" clip-path="url(#pc3dcfa327c)" style="fill: none; stroke: #444444; stroke-width: 1.2; stroke-linecap: square"/>
   </g>
   <g id="line2d_24">
    <path d="M 291.663634 189.72283 
L 300.249215 189.72283 
" clip-path="url(#pc3dcfa327c)" style="fill: none; stroke: #444444; stroke-width: 1.2; stroke-linecap: square"/>
   </g>
   <g id="patch_6">
    <path d="M 382.766192 254.518056 
L 399.937355 254.518056 
L 399.937355 242.848415 
L 382.766192 242.848415 
L 382.766192 254.518056 
z
" clip-path="url(#pc3dcfa327c)" style="fill: #b47cc7; opacity: 0.85"/>
   </g>
   <g id="line2d_25">
    <path d="M 391.351773 254.518056 
L 391.351773 265.590826 
" clip-path="url(#pc3dcfa327c)" style="fill: none; stroke: #444444; stroke-width: 1.2; stroke-linecap: square"/>
   </g>
   <g id="line2d_26">
    <path d="M 391.351773 242.848415 
L 391.351773 226.818756 
" clip-path="url(#pc3dcfa327c)" style="fill: none; stroke: #444444; stroke-width: 1.2; stroke-linecap: square"/>
   </g>
   <g id="line2d_27">
    <path d="M 387.058983 265.590826 
L 395.644564 265.590826 
" clip-path="url(#pc3dcfa327c)" style="fill: none; stroke: #444444; stroke-width: 1.2; stroke-linecap: square"/>
   </g>
   <g id="line2d_28">
    <path d="M 387.058983 226.818756 
L 395.644564 226.818756 
" clip-path="url(#pc3dcfa327c)" style="fill: none; stroke: #444444; stroke-width: 1.2; stroke-linecap: square"/>
   </g>
   <g id="line2d_29">
    <path d="M 105.165727 68.815507 
L 105.165727 63.951125 
L 200.561076 63.951125 
L 200.561076 68.815507 
" clip-path="url(#pc3dcfa327c)" style="fill: none; stroke: #333333; stroke-linecap: square"/>
   </g>
   <g id="line2d_30">
    <path d="M 105.165727 52.6009 
L 105.165727 47.736518 
L 295.956424 47.736518 
L 295.956424 52.6009 
" clip-path="url(#pc3dcfa327c)" style="fill: none; stroke: #333333; stroke-linecap: square"/>
   </g>
   <g id="line2d_31">
    <path d="M 105.165727 36.386293 
L 105.165727 31.521911 
L 391.351773 31.521911 
L 391.351773 36.386293 
" clip-path="url(#pc3dcfa327c)" style="fill: none; stroke: #333333; stroke-linecap: square"/>
   </g>
   <g id="line2d_32">
    <path d="M 96.580145 199.83284 
L 113.751308 199.83284 
" clip-path="url(#pc3dcfa327c)" style="fill: none; stroke: #ffffff; stroke-width: 2.5"/>
   </g>
   <g id="line2d_33">
    <path d="M 191.975494 213.131611 
L 209.146657 213.131611 
" clip-path="url(#pc3dcfa327c)" style="fill: none; stroke: #ffffff; stroke-width: 2.5"/>
   </g>
   <g id="line2d_34">
    <path d="M 287.370843 235.587851 
L 304.542006 235.587851 
" clip-path="url(#pc3dcfa327c)" style="fill: none; stroke: #ffffff; stroke-width: 2.5"/>
   </g>
   <g id="line2d_35">
    <path d="M 382.766192 249.561167 
L 399.937355 249.561167 
" clip-path="url(#pc3dcfa327c)" style="fill: none; stroke: #ffffff; stroke-width: 2.5"/>
   </g>
   <g id="patch_7">
    <path d="M 43.15875 280.856 
L 43.15875 7.2 
" style="fill: none; stroke: #000000; stroke-width: 0.8; stroke-linejoin: miter; stroke-linecap: square"/>
   </g>
   <g id="patch_8">
    <path d="M 43.15875 280.856 
L 453.35875 280.856 
" style="fill: none; stroke: #000000; stroke-width: 0.8; stroke-linejoin: miter; stroke-linecap: square"/>
   </g>
   <g id="PathCollection_1">
    <defs>
     <path id="m264a68b269" d="M 0 1.870829 
C 0.49615 1.870829 0.972045 1.673706 1.322876 1.322876 
C 1.673706 0.972045 1.870829 0.49615 1.870829 0 
C 1.870829 -0.49615 1.673706 -0.972045 1.322876 -1.322876 
C 0.972045 -1.673706 0.49615 -1.870829 0 -1.870829 
C -0.49615 -1.870829 -0.972045 -1.673706 -1.322876 -1.322876 
C -1.673706 -0.972045 -1.870829 -0.49615 -1.870829 0 
C -1.870829 0.49615 -1.673706 0.972045 -1.322876 1.322876 
C -0.972045 1.673706 -0.49615 1.870829 0 1.870829 
z
"/>
    </defs>
    <g clip-path="url(#pc3dcfa327c)">
     <use xlink:href="#m264a68b269" x="116.664745" y="206.124511" style="fill: #4878cf; fill-opacity: 0.35"/>
     <use xlink:href="#m264a68b269" x="102.600213" y="205.813812" style="fill: #4878cf; fill-opacity: 0.35"/>
     <use xlink:href="#m264a68b269" x="120.217499" y="210.155433" style="fill: #4878cf; fill-opacity: 0.35"/>
     <use xlink:href="#m264a68b269" x="113.450043" y="194.33427" style="fill: #4878cf; fill-opacity: 0.35"/>
     <use xlink:href="#m264a68b269" x="88.131746" y="74.085255" style="fill: #4878cf; fill-opacity: 0.35"/>
     <use xlink:href="#m264a68b269" x="125.129477" y="129.708703" style="fill: #4878cf; fill-opacity: 0.35"/>
     <use xlink:href="#m264a68b269" x="116.126792" y="182.838376" style="fill: #4878cf; fill-opacity: 0.35"/>
     <use xlink:href="#m264a68b269" x="117.172977" y="171.358834" style="fill: #4878cf; fill-opacity: 0.35"/>
     <use xlink:href="#m264a68b269" x="89.556186" y="151.482221" style="fill: #4878cf; fill-opacity: 0.35"/>
     <use xlink:href="#m264a68b269" x="103.083228" y="205.331409" style="fill: #4878cf; fill-opacity: 0.35"/>
     <use xlink:href="#m264a68b269" x="99.742609" y="197.056982" style="fill: #4878cf; fill-opacity: 0.35"/>
     <use xlink:href="#m264a68b269" x="123.078741" y="225.420607" style="fill: #4878cf; fill-opacity: 0.35"/>
     <use xlink:href="#m264a68b269" x="111.204315" y="183.279897" style="fill: #4878cf; fill-opacity: 0.35"/>
     <use xlink:href="#m264a68b269" x="118.713308" y="190.221585" style="fill: #4878cf; fill-opacity: 0.35"/>
     <use xlink:href="#m264a68b269" x="102.790597" y="212.338508" style="fill: #4878cf; fill-opacity: 0.35"/>
     <use xlink:href="#m264a68b269" x="93.716858" y="195.184606" style="fill: #4878cf; fill-opacity: 0.35"/>
     <use xlink:href="#m264a68b269" x="107.456866" y="197.809203" style="fill: #4878cf; fill-opacity: 0.35"/>
     <use xlink:href="#m264a68b269" x="86.857413" y="210.032788" style="fill: #4878cf; fill-opacity: 0.35"/>
     <use xlink:href="#m264a68b269" x="118.917702" y="203.107452" style="fill: #4878cf; fill-opacity: 0.35"/>
     <use xlink:href="#m264a68b269" x="110.692202" y="210.572425" style="fill: #4878cf; fill-opacity: 0.35"/>
     <use xlink:href="#m264a68b269" x="115.99869" y="158.309441" style="fill: #4878cf; fill-opacity: 0.35"/>
     <use xlink:href="#m264a68b269" x="99.059606" y="171.228013" style="fill: #4878cf; fill-opacity: 0.35"/>
     <use xlink:href="#m264a68b269" x="124.922784" y="203.426329" style="fill: #4878cf; fill-opacity: 0.35"/>
     <use xlink:href="#m264a68b269" x="121.666574" y="203.647089" style="fill: #4878cf; fill-opacity: 0.35"/>
     <use xlink:href="#m264a68b269" x="116.850583" y="219.950654" style="fill: #4878cf; fill-opacity: 0.35"/>
     <use xlink:href="#m264a68b269" x="92.348506" y="194.55503" style="fill: #4878cf; fill-opacity: 0.35"/>
     <use xlink:href="#m264a68b269" x="103.768876" y="168.816001" style="fill: #4878cf; fill-opacity: 0.35"/>
     <use xlink:href="#m264a68b269" x="86.017367" y="208.675521" style="fill: #4878cf; fill-opacity: 0.35"/>
     <use xlink:href="#m264a68b269" x="90.65489" y="203.418152" style="fill: #4878cf; fill-opacity: 0.35"/>
     <use xlink:href="#m264a68b269" x="112.849015" y="148.399751" style="fill: #4878cf; fill-opacity: 0.35"/>
     <use xlink:href="#m264a68b269" x="115.439362" y="243.195909" style="fill: #4878cf; fill-opacity: 0.35"/>
     <use xlink:href="#m264a68b269" x="124.788959" y="214.824107" style="fill: #4878cf; fill-opacity: 0.35"/>
     <use xlink:href="#m264a68b269" x="97.854928" y="191.480737" style="fill: #4878cf; fill-opacity: 0.35"/>
     <use xlink:href="#m264a68b269" x="99.728408" y="157.663512" style="fill: #4878cf; fill-opacity: 0.35"/>
     <use xlink:href="#m264a68b269" x="103.887864" y="199.542581" style="fill: #4878cf; fill-opacity: 0.35"/>
     <use xlink:href="#m264a68b269" x="92.131612" y="184.072999" style="fill: #4878cf; fill-opacity: 0.35"/>
     <use xlink:href="#m264a68b269" x="89.632069" y="216.107788" style="fill: #4878cf; fill-opacity: 0.35"/>
     <use xlink:href="#m264a68b269" x="104.145966" y="169.502812" style="fill: #4878cf; fill-opacity: 0.35"/>
     <use xlink:href="#m264a68b269" x="93.703032" y="192.077608" style="fill: #4878cf; fill-opacity: 0.35"/>
     <use xlink:href="#m264a68b269" x="112.293491" y="201.78289" style="fill: #4878cf; fill-opacity: 0.35"/>
     <use xlink:href="#m264a68b269" x="102.527744" y="189.837299" style="fill: #4878cf; fill-opacity: 0.35"/>
     <use xlink:href="#m264a68b269" x="119.129546" y="211.218354" style="fill: #4878cf; fill-opacity: 0.35"/>
     <use xlink:href="#m264a68b269" x="113.571645" y="149.920545" style="fill: #4878cf; fill-opacity: 0.35"/>
     <use xlink:href="#m264a68b269" x="97.290013" y="210.588778" style="fill: #4878cf; fill-opacity: 0.35"/>
     <use xlink:href="#m264a68b269" x="119.111984" y="195.258193" style="fill: #4878cf; fill-opacity: 0.35"/>
     <use xlink:href="#m264a68b269" x="117.957892" y="200.123099" style="fill: #4878cf; fill-opacity: 0.35"/>
     <use xlink:href="#m264a68b269" x="100.442749" y="207.637129" style="fill: #4878cf; fill-opacity: 0.35"/>
     <use xlink:href="#m264a68b269" x="96.28102" y="183.026431" style="fill: #4878cf; fill-opacity: 0.35"/>
     <use xlink:href="#m264a68b269" x="112.825785" y="114.770581" style="fill: #4878cf; fill-opacity: 0.35"/>
     <use xlink:href="#m264a68b269" x="90.044714" y="194.702204" style="fill: #4878cf; fill-opacity: 0.35"/>
     <use xlink:href="#m264a68b269" x="92.569688" y="153.583533" style="fill: #4878cf; fill-opacity: 0.35"/>
     <use xlink:href="#m264a68b269" x="84.487774" y="171.800355" style="fill: #4878cf; fill-opacity: 0.35"/>
     <use xlink:href="#m264a68b269" x="117.209077" y="236.09887" style="fill: #4878cf; fill-opacity: 0.35"/>
     <use xlink:href="#m264a68b269" x="112.085169" y="195.258193" style="fill: #4878cf; fill-opacity: 0.35"/>
     <use xlink:href="#m264a68b269" x="113.777329" y="215.281981" style="fill: #4878cf; fill-opacity: 0.35"/>
     <use xlink:href="#m264a68b269" x="116.949034" y="219.157552" style="fill: #4878cf; fill-opacity: 0.35"/>
     <use xlink:href="#m264a68b269" x="103.441259" y="223.867108" style="fill: #4878cf; fill-opacity: 0.35"/>
     <use xlink:href="#m264a68b269" x="108.051067" y="156.445242" style="fill: #4878cf; fill-opacity: 0.35"/>
     <use xlink:href="#m264a68b269" x="90.046583" y="180.925119" style="fill: #4878cf; fill-opacity: 0.35"/>
     <use xlink:href="#m264a68b269" x="88.98603" y="203.761557" style="fill: #4878cf; fill-opacity: 0.35"/>
     <use xlink:href="#m264a68b269" x="112.234265" y="210.081846" style="fill: #4878cf; fill-opacity: 0.35"/>
     <use xlink:href="#m264a68b269" x="103.95252" y="226.295472" style="fill: #4878cf; fill-opacity: 0.35"/>
     <use xlink:href="#m264a68b269" x="107.903944" y="161.817079" style="fill: #4878cf; fill-opacity: 0.35"/>
     <use xlink:href="#m264a68b269" x="116.288776" y="227.865324" style="fill: #4878cf; fill-opacity: 0.35"/>
     <use xlink:href="#m264a68b269" x="110.820387" y="245.133694" style="fill: #4878cf; fill-opacity: 0.35"/>
     <use xlink:href="#m264a68b269" x="107.414666" y="215.584504" style="fill: #4878cf; fill-opacity: 0.35"/>
     <use xlink:href="#m264a68b269" x="107.650885" y="215.257452" style="fill: #4878cf; fill-opacity: 0.35"/>
     <use xlink:href="#m264a68b269" x="96.936737" y="161.956076" style="fill: #4878cf; fill-opacity: 0.35"/>
     <use xlink:href="#m264a68b269" x="85.472296" y="205.167883" style="fill: #4878cf; fill-opacity: 0.35"/>
     <use xlink:href="#m264a68b269" x="102.509505" y="227.374745" style="fill: #4878cf; fill-opacity: 0.35"/>
     <use xlink:href="#m264a68b269" x="93.185717" y="206.541503" style="fill: #4878cf; fill-opacity: 0.35"/>
     <use xlink:href="#m264a68b269" x="101.326312" y="114.860521" style="fill: #4878cf; fill-opacity: 0.35"/>
     <use xlink:href="#m264a68b269" x="119.999451" y="216.467546" style="fill: #4878cf; fill-opacity: 0.35"/>
     <use xlink:href="#m264a68b269" x="93.998115" y="202.118119" style="fill: #4878cf; fill-opacity: 0.35"/>
     <use xlink:href="#m264a68b269" x="86.625947" y="201.521248" style="fill: #4878cf; fill-opacity: 0.35"/>
     <use xlink:href="#m264a68b269" x="95.989544" y="164.776903" style="fill: #4878cf; fill-opacity: 0.35"/>
     <use xlink:href="#m264a68b269" x="96.502041" y="112.988145" style="fill: #4878cf; fill-opacity: 0.35"/>
     <use xlink:href="#m264a68b269" x="111.962003" y="186.787534" style="fill: #4878cf; fill-opacity: 0.35"/>
     <use xlink:href="#m264a68b269" x="107.559592" y="207.776126" style="fill: #4878cf; fill-opacity: 0.35"/>
     <use xlink:href="#m264a68b269" x="117.082057" y="178.488578" style="fill: #4878cf; fill-opacity: 0.35"/>
     <use xlink:href="#m264a68b269" x="112.062616" y="237.578782" style="fill: #4878cf; fill-opacity: 0.35"/>
     <use xlink:href="#m264a68b269" x="101.236413" y="207.252842" style="fill: #4878cf; fill-opacity: 0.35"/>
     <use xlink:href="#m264a68b269" x="118.346404" y="233.024577" style="fill: #4878cf; fill-opacity: 0.35"/>
     <use xlink:href="#m264a68b269" x="91.187264" y="206.680501" style="fill: #4878cf; fill-opacity: 0.35"/>
     <use xlink:href="#m264a68b269" x="85.132066" y="226.336354" style="fill: #4878cf; fill-opacity: 0.35"/>
     <use xlink:href="#m264a68b269" x="87.958415" y="174.089722" style="fill: #4878cf; fill-opacity: 0.35"/>
     <use xlink:href="#m264a68b269" x="114.499028" y="214.578818" style="fill: #4878cf; fill-opacity: 0.35"/>
     <use xlink:href="#m264a68b269" x="103.565563" y="174.719298" style="fill: #4878cf; fill-opacity: 0.35"/>
     <use xlink:href="#m264a68b269" x="90.947964" y="185.283093" style="fill: #4878cf; fill-opacity: 0.35"/>
     <use xlink:href="#m264a68b269" x="105.20958" y="167.515968" style="fill: #4878cf; fill-opacity: 0.35"/>
     <use xlink:href="#m264a68b269" x="90.571891" y="189.600186" style="fill: #4878cf; fill-opacity: 0.35"/>
     <use xlink:href="#m264a68b269" x="113.406069" y="179.028215" style="fill: #4878cf; fill-opacity: 0.35"/>
     <use xlink:href="#m264a68b269" x="102.905693" y="209.893791" style="fill: #4878cf; fill-opacity: 0.35"/>
     <use xlink:href="#m264a68b269" x="100.171717" y="189.093254" style="fill: #4878cf; fill-opacity: 0.35"/>
     <use xlink:href="#m264a68b269" x="96.834404" y="194.538678" style="fill: #4878cf; fill-opacity: 0.35"/>
     <use xlink:href="#m264a68b269" x="110.634202" y="137.271791" style="fill: #4878cf; fill-opacity: 0.35"/>
     <use xlink:href="#m264a68b269" x="99.365456" y="201.578482" style="fill: #4878cf; fill-opacity: 0.35"/>
     <use xlink:href="#m264a68b269" x="87.857764" y="221.44692" style="fill: #4878cf; fill-opacity: 0.35"/>
     <use xlink:href="#m264a68b269" x="89.131924" y="215.102102" style="fill: #4878cf; fill-opacity: 0.35"/>
     <use xlink:href="#m264a68b269" x="124.553398" y="153.387301" style="fill: #4878cf; fill-opacity: 0.35"/>
    </g>
   </g>
   <g id="PathCollection_2">
    <defs>
     <path id="m80c1660883" d="M 0 1.870829 
C 0.49615 1.870829 0.972045 1.673706 1.322876 1.322876 
C 1.673706 0.972045 1.870829 0.49615 1.870829 0 
C 1.870829 -0.49615 1.673706 -0.972045 1.322876 -1.322876 
C 0.972045 -1.673706 0.49615 -1.870829 0 -1.870829 
C -0.49615 -1.870829 -0.972045 -1.673706 -1.322876 -1.322876 
C -1.673706 -0.972045 -1.870829 -0.49615 -1.870829 0 
C -1.870829 0.49615 -1.673706 0.972045 -1.322876 1.322876 
C -0.972045 1.673706 -0.49615 1.870829 0 1.870829 
z
"/>
    </defs>
    <g clip-path="url(#pc3dcfa327c)">
     <use xlink:href="#m80c1660883" x="217.710822" y="181.718221" style="fill: #6acc65; fill-opacity: 0.35"/>
     <use xlink:href="#m80c1660883" x="208.943574" y="243.424845" style="fill: #6acc65; fill-opacity: 0.35"/>
     <use xlink:href="#m80c1660883" x="190.733712" y="202.526934" style="fill: #6acc65; fill-opacity: 0.35"/>
     <use xlink:href="#m80c1660883" x="220.254263" y="228.012498" style="fill: #6acc65; fill-opacity: 0.35"/>
     <use xlink:href="#m80c1660883" x="212.261353" y="228.110614" style="fill: #6acc65; fill-opacity: 0.35"/>
     <use xlink:href="#m80c1660883" x="209.664814" y="232.599409" style="fill: #6acc65; fill-opacity: 0.35"/>
     <use xlink:href="#m80c1660883" x="198.435578" y="205.265999" style="fill: #6acc65; fill-opacity: 0.35"/>
     <use xlink:href="#m80c1660883" x="191.001153" y="235.534704" style="fill: #6acc65; fill-opacity: 0.35"/>
     <use xlink:href="#m80c1660883" x="183.620009" y="204.039552" style="fill: #6acc65; fill-opacity: 0.35"/>
     <use xlink:href="#m80c1660883" x="217.45989" y="221.414214" style="fill: #6acc65; fill-opacity: 0.35"/>
     <use xlink:href="#m80c1660883" x="198.704832" y="182.355973" style="fill: #6acc65; fill-opacity: 0.35"/>
     <use xlink:href="#m80c1660883" x="188.068089" y="221.307922" style="fill: #6acc65; fill-opacity: 0.35"/>
     <use xlink:href="#m80c1660883" x="192.416308" y="206.852203" style="fill: #6acc65; fill-opacity: 0.35"/>
     <use xlink:href="#m80c1660883" x="203.886234" y="243.899071" style="fill: #6acc65; fill-opacity: 0.35"/>
     <use xlink:href="#m80c1660883" x="186.993951" y="217.636758" style="fill: #6acc65; fill-opacity: 0.35"/>
     <use xlink:href="#m80c1660883" x="215.529587" y="227.58733" style="fill: #6acc65; fill-opacity: 0.35"/>
     <use xlink:href="#m80c1660883" x="211.412162" y="221.708561" style="fill: #6acc65; fill-opacity: 0.35"/>
     <use xlink:href="#m80c1660883" x="209.772803" y="219.173905" style="fill: #6acc65; fill-opacity: 0.35"/>
     <use xlink:href="#m80c1660883" x="197.710752" y="201.030669" style="fill: #6acc65; fill-opacity: 0.35"/>
     <use xlink:href="#m80c1660883" x="205.904731" y="227.34204" style="fill: #6acc65; fill-opacity: 0.35"/>
     <use xlink:href="#m80c1660883" x="204.091" y="237.325317" style="fill: #6acc65; fill-opacity: 0.35"/>
     <use xlink:href="#m80c1660883" x="206.85073" y="214.758697" style="fill: #6acc65; fill-opacity: 0.35"/>
     <use xlink:href="#m80c1660883" x="183.118561" y="114.100124" style="fill: #6acc65; fill-opacity: 0.35"/>
     <use xlink:href="#m80c1660883" x="197.027179" y="243.580195" style="fill: #6acc65; fill-opacity: 0.35"/>
     <use xlink:href="#m80c1660883" x="181.32081" y="222.231845" style="fill: #6acc65; fill-opacity: 0.35"/>
     <use xlink:href="#m80c1660883" x="200.308847" y="229.361589" style="fill: #6acc65; fill-opacity: 0.35"/>
     <use xlink:href="#m80c1660883" x="193.419678" y="201.136961" style="fill: #6acc65; fill-opacity: 0.35"/>
     <use xlink:href="#m80c1660883" x="185.64035" y="236.548567" style="fill: #6acc65; fill-opacity: 0.35"/>
     <use xlink:href="#m80c1660883" x="183.91433" y="224.97091" style="fill: #6acc65; fill-opacity: 0.35"/>
     <use xlink:href="#m80c1660883" x="204.239865" y="213.6876" style="fill: #6acc65; fill-opacity: 0.35"/>
     <use xlink:href="#m80c1660883" x="186.73456" y="179.894904" style="fill: #6acc65; fill-opacity: 0.35"/>
     <use xlink:href="#m80c1660883" x="218.405048" y="155.905605" style="fill: #6acc65; fill-opacity: 0.35"/>
     <use xlink:href="#m80c1660883" x="203.963532" y="196.337466" style="fill: #6acc65; fill-opacity: 0.35"/>
     <use xlink:href="#m80c1660883" x="194.133596" y="197.253213" style="fill: #6acc65; fill-opacity: 0.35"/>
     <use xlink:href="#m80c1660883" x="204.377158" y="232.861051" style="fill: #6acc65; fill-opacity: 0.35"/>
     <use xlink:href="#m80c1660883" x="180.531267" y="195.536188" style="fill: #6acc65; fill-opacity: 0.35"/>
     <use xlink:href="#m80c1660883" x="219.808619" y="228.658426" style="fill: #6acc65; fill-opacity: 0.35"/>
     <use xlink:href="#m80c1660883" x="199.818281" y="211.872459" style="fill: #6acc65; fill-opacity: 0.35"/>
     <use xlink:href="#m80c1660883" x="212.428591" y="229.549644" style="fill: #6acc65; fill-opacity: 0.35"/>
     <use xlink:href="#m80c1660883" x="183.046604" y="242.787093" style="fill: #6acc65; fill-opacity: 0.35"/>
     <use xlink:href="#m80c1660883" x="200.001073" y="196.48464" style="fill: #6acc65; fill-opacity: 0.35"/>
     <use xlink:href="#m80c1660883" x="200.171011" y="203.93326" style="fill: #6acc65; fill-opacity: 0.35"/>
     <use xlink:href="#m80c1660883" x="218.938383" y="205.576699" style="fill: #6acc65; fill-opacity: 0.35"/>
     <use xlink:href="#m80c1660883" x="203.571786" y="219.917949" style="fill: #6acc65; fill-opacity: 0.35"/>
     <use xlink:href="#m80c1660883" x="199.448321" y="220.809167" style="fill: #6acc65; fill-opacity: 0.35"/>
     <use xlink:href="#m80c1660883" x="190.780123" y="216.516604" style="fill: #6acc65; fill-opacity: 0.35"/>
     <use xlink:href="#m80c1660883" x="193.491361" y="213.515897" style="fill: #6acc65; fill-opacity: 0.35"/>
     <use xlink:href="#m80c1660883" x="201.428778" y="145.840566" style="fill: #6acc65; fill-opacity: 0.35"/>
     <use xlink:href="#m80c1660883" x="197.996948" y="214.914047" style="fill: #6acc65; fill-opacity: 0.35"/>
     <use xlink:href="#m80c1660883" x="180.481243" y="214.129121" style="fill: #6acc65; fill-opacity: 0.35"/>
     <use xlink:href="#m80c1660883" x="214.256838" y="233.662329" style="fill: #6acc65; fill-opacity: 0.35"/>
     <use xlink:href="#m80c1660883" x="217.189509" y="235.665525" style="fill: #6acc65; fill-opacity: 0.35"/>
     <use xlink:href="#m80c1660883" x="185.460908" y="212.583798" style="fill: #6acc65; fill-opacity: 0.35"/>
     <use xlink:href="#m80c1660883" x="202.829186" y="207.040258" style="fill: #6acc65; fill-opacity: 0.35"/>
     <use xlink:href="#m80c1660883" x="184.131452" y="156.968526" style="fill: #6acc65; fill-opacity: 0.35"/>
     <use xlink:href="#m80c1660883" x="207.790673" y="212.526564" style="fill: #6acc65; fill-opacity: 0.35"/>
     <use xlink:href="#m80c1660883" x="191.378593" y="212.747324" style="fill: #6acc65; fill-opacity: 0.35"/>
     <use xlink:href="#m80c1660883" x="207.252674" y="141.319065" style="fill: #6acc65; fill-opacity: 0.35"/>
     <use xlink:href="#m80c1660883" x="210.088937" y="219.778952" style="fill: #6acc65; fill-opacity: 0.35"/>
     <use xlink:href="#m80c1660883" x="211.837273" y="234.095674" style="fill: #6acc65; fill-opacity: 0.35"/>
     <use xlink:href="#m80c1660883" x="184.096412" y="200.196686" style="fill: #6acc65; fill-opacity: 0.35"/>
     <use xlink:href="#m80c1660883" x="218.022737" y="188.202036" style="fill: #6acc65; fill-opacity: 0.35"/>
     <use xlink:href="#m80c1660883" x="189.23709" y="197.195979" style="fill: #6acc65; fill-opacity: 0.35"/>
     <use xlink:href="#m80c1660883" x="181.144452" y="211.921516" style="fill: #6acc65; fill-opacity: 0.35"/>
     <use xlink:href="#m80c1660883" x="202.863451" y="226.475351" style="fill: #6acc65; fill-opacity: 0.35"/>
     <use xlink:href="#m80c1660883" x="195.143174" y="212.657384" style="fill: #6acc65; fill-opacity: 0.35"/>
     <use xlink:href="#m80c1660883" x="214.403655" y="97.853793" style="fill: #6acc65; fill-opacity: 0.35"/>
     <use xlink:href="#m80c1660883" x="213.499609" y="237.791367" style="fill: #6acc65; fill-opacity: 0.35"/>
     <use xlink:href="#m80c1660883" x="192.885672" y="204.293018" style="fill: #6acc65; fill-opacity: 0.35"/>
     <use xlink:href="#m80c1660883" x="219.571054" y="171.260719" style="fill: #6acc65; fill-opacity: 0.35"/>
     <use xlink:href="#m80c1660883" x="191.785071" y="180.753416" style="fill: #6acc65; fill-opacity: 0.35"/>
     <use xlink:href="#m80c1660883" x="201.193083" y="204.235783" style="fill: #6acc65; fill-opacity: 0.35"/>
     <use xlink:href="#m80c1660883" x="190.317966" y="195.446248" style="fill: #6acc65; fill-opacity: 0.35"/>
     <use xlink:href="#m80c1660883" x="218.863548" y="232.117006" style="fill: #6acc65; fill-opacity: 0.35"/>
     <use xlink:href="#m80c1660883" x="186.48334" y="215.625386" style="fill: #6acc65; fill-opacity: 0.35"/>
     <use xlink:href="#m80c1660883" x="181.459175" y="202.396113" style="fill: #6acc65; fill-opacity: 0.35"/>
     <use xlink:href="#m80c1660883" x="197.836843" y="194.277036" style="fill: #6acc65; fill-opacity: 0.35"/>
     <use xlink:href="#m80c1660883" x="221.228025" y="202.428819" style="fill: #6acc65; fill-opacity: 0.35"/>
     <use xlink:href="#m80c1660883" x="217.001319" y="204.660952" style="fill: #6acc65; fill-opacity: 0.35"/>
     <use xlink:href="#m80c1660883" x="210.996137" y="208.168589" style="fill: #6acc65; fill-opacity: 0.35"/>
     <use xlink:href="#m80c1660883" x="216.964181" y="228.854658" style="fill: #6acc65; fill-opacity: 0.35"/>
     <use xlink:href="#m80c1660883" x="217.075587" y="206.70503" style="fill: #6acc65; fill-opacity: 0.35"/>
     <use xlink:href="#m80c1660883" x="201.352636" y="236.63033" style="fill: #6acc65; fill-opacity: 0.35"/>
     <use xlink:href="#m80c1660883" x="192.83489" y="232.615761" style="fill: #6acc65; fill-opacity: 0.35"/>
     <use xlink:href="#m80c1660883" x="211.978513" y="233.915795" style="fill: #6acc65; fill-opacity: 0.35"/>
     <use xlink:href="#m80c1660883" x="207.346638" y="208.561052" style="fill: #6acc65; fill-opacity: 0.35"/>
     <use xlink:href="#m80c1660883" x="195.257991" y="203.287331" style="fill: #6acc65; fill-opacity: 0.35"/>
     <use xlink:href="#m80c1660883" x="183.539238" y="223.548232" style="fill: #6acc65; fill-opacity: 0.35"/>
     <use xlink:href="#m80c1660883" x="210.919811" y="244.160713" style="fill: #6acc65; fill-opacity: 0.35"/>
     <use xlink:href="#m80c1660883" x="190.590604" y="217.8984" style="fill: #6acc65; fill-opacity: 0.35"/>
     <use xlink:href="#m80c1660883" x="218.89585" y="209.206981" style="fill: #6acc65; fill-opacity: 0.35"/>
     <use xlink:href="#m80c1660883" x="189.688587" y="202.134471" style="fill: #6acc65; fill-opacity: 0.35"/>
     <use xlink:href="#m80c1660883" x="184.726735" y="241.217241" style="fill: #6acc65; fill-opacity: 0.35"/>
     <use xlink:href="#m80c1660883" x="214.459183" y="217.546819" style="fill: #6acc65; fill-opacity: 0.35"/>
     <use xlink:href="#m80c1660883" x="186.008048" y="236.524038" style="fill: #6acc65; fill-opacity: 0.35"/>
     <use xlink:href="#m80c1660883" x="187.098698" y="212.248569" style="fill: #6acc65; fill-opacity: 0.35"/>
     <use xlink:href="#m80c1660883" x="204.732564" y="196.664519" style="fill: #6acc65; fill-opacity: 0.35"/>
     <use xlink:href="#m80c1660883" x="216.282925" y="222.616132" style="fill: #6acc65; fill-opacity: 0.35"/>
     <use xlink:href="#m80c1660883" x="187.819238" y="160.909508" style="fill: #6acc65; fill-opacity: 0.35"/>
     <use xlink:href="#m80c1660883" x="192.59961" y="192.780771" style="fill: #6acc65; fill-opacity: 0.35"/>
    </g>
   </g>
   <g id="PathCollection_3">
    <defs>
     <path id="mc1810deb0d" d="M 0 1.870829 
C 0.49615 1.870829 0.972045 1.673706 1.322876 1.322876 
C 1.673706 0.972045 1.870829 0.49615 1.870829 0 
C 1.870829 -0.49615 1.673706 -0.972045 1.322876 -1.322876 
C 0.972045 -1.673706 0.49615 -1.870829 0 -1.870829 
C -0.49615 -1.870829 -0.972045 -1.673706 -1.322876 -1.322876 
C -1.673706 -0.972045 -1.870829 -0.49615 -1.870829 0 
C -1.870829 0.49615 -1.673706 0.972045 -1.322876 1.322876 
C -0.972045 1.673706 -0.49615 1.870829 0 1.870829 
z
"/>
    </defs>
    <g clip-path="url(#pc3dcfa327c)">
     <use xlink:href="#mc1810deb0d" x="307.600202" y="218.14369" style="fill: #d65f5f; fill-opacity: 0.35"/>
     <use xlink:href="#mc1810deb0d" x="315.760845" y="239.353042" style="fill: #d65f5f; fill-opacity: 0.35"/>
     <use xlink:href="#mc1810deb0d" x="295.987535" y="246.458257" style="fill: #d65f5f; fill-opacity: 0.35"/>
     <use xlink:href="#mc1810deb0d" x="281.009395" y="180.859708" style="fill: #d65f5f; fill-opacity: 0.35"/>
     <use xlink:href="#mc1810deb0d" x="275.554409" y="223.294766" style="fill: #d65f5f; fill-opacity: 0.35"/>
     <use xlink:href="#mc1810deb0d" x="284.609019" y="229.149005" style="fill: #d65f5f; fill-opacity: 0.35"/>
     <use xlink:href="#mc1810deb0d" x="280.502547" y="212.101395" style="fill: #d65f5f; fill-opacity: 0.35"/>
     <use xlink:href="#mc1810deb0d" x="303.413461" y="246.433728" style="fill: #d65f5f; fill-opacity: 0.35"/>
     <use xlink:href="#mc1810deb0d" x="280.08324" y="239.516568" style="fill: #d65f5f; fill-opacity: 0.35"/>
     <use xlink:href="#mc1810deb0d" x="296.222117" y="220.760109" style="fill: #d65f5f; fill-opacity: 0.35"/>
     <use xlink:href="#mc1810deb0d" x="304.110387" y="213.589484" style="fill: #d65f5f; fill-opacity: 0.35"/>
     <use xlink:href="#mc1810deb0d" x="299.361209" y="218.707855" style="fill: #d65f5f; fill-opacity: 0.35"/>
     <use xlink:href="#mc1810deb0d" x="283.354822" y="236.654859" style="fill: #d65f5f; fill-opacity: 0.35"/>
     <use xlink:href="#mc1810deb0d" x="308.721733" y="173.345678" style="fill: #d65f5f; fill-opacity: 0.35"/>
     <use xlink:href="#mc1810deb0d" x="304.997913" y="237.554253" style="fill: #d65f5f; fill-opacity: 0.35"/>
     <use xlink:href="#mc1810deb0d" x="305.987528" y="228.969126" style="fill: #d65f5f; fill-opacity: 0.35"/>
     <use xlink:href="#mc1810deb0d" x="280.47046" y="248.330632" style="fill: #d65f5f; fill-opacity: 0.35"/>
     <use xlink:href="#mc1810deb0d" x="280.163884" y="236.425922" style="fill: #d65f5f; fill-opacity: 0.35"/>
     <use xlink:href="#mc1810deb0d" x="313.902915" y="215.093925" style="fill: #d65f5f; fill-opacity: 0.35"/>
     <use xlink:href="#mc1810deb0d" x="291.657376" y="206.279861" style="fill: #d65f5f; fill-opacity: 0.35"/>
     <use xlink:href="#mc1810deb0d" x="287.601454" y="252.974777" style="fill: #d65f5f; fill-opacity: 0.35"/>
     <use xlink:href="#mc1810deb0d" x="295.477252" y="248.077167" style="fill: #d65f5f; fill-opacity: 0.35"/>
     <use xlink:href="#mc1810deb0d" x="302.792479" y="243.351258" style="fill: #d65f5f; fill-opacity: 0.35"/>
     <use xlink:href="#mc1810deb0d" x="315.080734" y="205.494935" style="fill: #d65f5f; fill-opacity: 0.35"/>
     <use xlink:href="#mc1810deb0d" x="286.992728" y="226.524409" style="fill: #d65f5f; fill-opacity: 0.35"/>
     <use xlink:href="#mc1810deb0d" x="313.787314" y="222.150082" style="fill: #d65f5f; fill-opacity: 0.35"/>
     <use xlink:href="#mc1810deb0d" x="276.012899" y="239.524745" style="fill: #d65f5f; fill-opacity: 0.35"/>
     <use xlink:href="#mc1810deb0d" x="298.273304" y="248.355161" style="fill: #d65f5f; fill-opacity: 0.35"/>
     <use xlink:href="#mc1810deb0d" x="301.57989" y="236.752975" style="fill: #d65f5f; fill-opacity: 0.35"/>
     <use xlink:href="#mc1810deb0d" x="279.41438" y="197.931847" style="fill: #d65f5f; fill-opacity: 0.35"/>
     <use xlink:href="#mc1810deb0d" x="280.860055" y="198.610481" style="fill: #d65f5f; fill-opacity: 0.35"/>
     <use xlink:href="#mc1810deb0d" x="292.561333" y="248.935679" style="fill: #d65f5f; fill-opacity: 0.35"/>
     <use xlink:href="#mc1810deb0d" x="315.526021" y="238.756171" style="fill: #d65f5f; fill-opacity: 0.35"/>
     <use xlink:href="#mc1810deb0d" x="299.98771" y="243.833661" style="fill: #d65f5f; fill-opacity: 0.35"/>
     <use xlink:href="#mc1810deb0d" x="314.132121" y="230.473568" style="fill: #d65f5f; fill-opacity: 0.35"/>
     <use xlink:href="#mc1810deb0d" x="308.731655" y="220.089652" style="fill: #d65f5f; fill-opacity: 0.35"/>
     <use xlink:href="#mc1810deb0d" x="294.587301" y="232.918285" style="fill: #d65f5f; fill-opacity: 0.35"/>
     <use xlink:href="#mc1810deb0d" x="307.909072" y="245.85321" style="fill: #d65f5f; fill-opacity: 0.35"/>
     <use xlink:href="#mc1810deb0d" x="275.718128" y="250.709939" style="fill: #d65f5f; fill-opacity: 0.35"/>
     <use xlink:href="#mc1810deb0d" x="279.550653" y="238.649879" style="fill: #d65f5f; fill-opacity: 0.35"/>
     <use xlink:href="#mc1810deb0d" x="309.783846" y="219.67266" style="fill: #d65f5f; fill-opacity: 0.35"/>
     <use xlink:href="#mc1810deb0d" x="308.415011" y="253.162832" style="fill: #d65f5f; fill-opacity: 0.35"/>
     <use xlink:href="#mc1810deb0d" x="284.734299" y="198.389721" style="fill: #d65f5f; fill-opacity: 0.35"/>
     <use xlink:href="#mc1810deb0d" x="297.247946" y="226.107417" style="fill: #d65f5f; fill-opacity: 0.35"/>
     <use xlink:href="#mc1810deb0d" x="300.406328" y="235.992578" style="fill: #d65f5f; fill-opacity: 0.35"/>
     <use xlink:href="#mc1810deb0d" x="311.391882" y="241.372591" style="fill: #d65f5f; fill-opacity: 0.35"/>
     <use xlink:href="#mc1810deb0d" x="300.284239" y="203.876026" style="fill: #d65f5f; fill-opacity: 0.35"/>
     <use xlink:href="#mc1810deb0d" x="292.286708" y="252.688606" style="fill: #d65f5f; fill-opacity: 0.35"/>
     <use xlink:href="#mc1810deb0d" x="290.675431" y="243.343082" style="fill: #d65f5f; fill-opacity: 0.35"/>
     <use xlink:href="#mc1810deb0d" x="292.845403" y="228.192377" style="fill: #d65f5f; fill-opacity: 0.35"/>
     <use xlink:href="#mc1810deb0d" x="302.33357" y="207.678011" style="fill: #d65f5f; fill-opacity: 0.35"/>
     <use xlink:href="#mc1810deb0d" x="311.381459" y="237.480667" style="fill: #d65f5f; fill-opacity: 0.35"/>
     <use xlink:href="#mc1810deb0d" x="294.021294" y="211.193825" style="fill: #d65f5f; fill-opacity: 0.35"/>
     <use xlink:href="#mc1810deb0d" x="285.372254" y="245.190929" style="fill: #d65f5f; fill-opacity: 0.35"/>
     <use xlink:href="#mc1810deb0d" x="284.903103" y="210.343488" style="fill: #d65f5f; fill-opacity: 0.35"/>
     <use xlink:href="#mc1810deb0d" x="306.282616" y="247.145067" style="fill: #d65f5f; fill-opacity: 0.35"/>
     <use xlink:href="#mc1810deb0d" x="309.244067" y="215.854322" style="fill: #d65f5f; fill-opacity: 0.35"/>
     <use xlink:href="#mc1810deb0d" x="279.388385" y="242.271985" style="fill: #d65f5f; fill-opacity: 0.35"/>
     <use xlink:href="#mc1810deb0d" x="277.763186" y="178.635752" style="fill: #d65f5f; fill-opacity: 0.35"/>
     <use xlink:href="#mc1810deb0d" x="299.920179" y="241.593351" style="fill: #d65f5f; fill-opacity: 0.35"/>
     <use xlink:href="#mc1810deb0d" x="281.104917" y="240.857483" style="fill: #d65f5f; fill-opacity: 0.35"/>
     <use xlink:href="#mc1810deb0d" x="309.583864" y="231.078615" style="fill: #d65f5f; fill-opacity: 0.35"/>
     <use xlink:href="#mc1810deb0d" x="287.995421" y="237.178143" style="fill: #d65f5f; fill-opacity: 0.35"/>
     <use xlink:href="#mc1810deb0d" x="281.008321" y="246.270202" style="fill: #d65f5f; fill-opacity: 0.35"/>
     <use xlink:href="#mc1810deb0d" x="313.626219" y="219.149376" style="fill: #d65f5f; fill-opacity: 0.35"/>
     <use xlink:href="#mc1810deb0d" x="281.917469" y="249.597961" style="fill: #d65f5f; fill-opacity: 0.35"/>
     <use xlink:href="#mc1810deb0d" x="286.920275" y="243.367611" style="fill: #d65f5f; fill-opacity: 0.35"/>
     <use xlink:href="#mc1810deb0d" x="281.417209" y="234.815189" style="fill: #d65f5f; fill-opacity: 0.35"/>
     <use xlink:href="#mc1810deb0d" x="279.817022" y="243.122322" style="fill: #d65f5f; fill-opacity: 0.35"/>
     <use xlink:href="#mc1810deb0d" x="275.857114" y="220.024241" style="fill: #d65f5f; fill-opacity: 0.35"/>
     <use xlink:href="#mc1810deb0d" x="277.294612" y="224.619328" style="fill: #d65f5f; fill-opacity: 0.35"/>
     <use xlink:href="#mc1810deb0d" x="282.299841" y="250.636352" style="fill: #d65f5f; fill-opacity: 0.35"/>
     <use xlink:href="#mc1810deb0d" x="277.210098" y="240.71031" style="fill: #d65f5f; fill-opacity: 0.35"/>
     <use xlink:href="#mc1810deb0d" x="299.782091" y="207.653482" style="fill: #d65f5f; fill-opacity: 0.35"/>
     <use xlink:href="#mc1810deb0d" x="303.541728" y="223.090358" style="fill: #d65f5f; fill-opacity: 0.35"/>
     <use xlink:href="#mc1810deb0d" x="291.491674" y="234.471784" style="fill: #d65f5f; fill-opacity: 0.35"/>
     <use xlink:href="#mc1810deb0d" x="288.316791" y="198.929357" style="fill: #d65f5f; fill-opacity: 0.35"/>
     <use xlink:href="#mc1810deb0d" x="296.146408" y="189.72283" style="fill: #d65f5f; fill-opacity: 0.35"/>
     <use xlink:href="#mc1810deb0d" x="311.696864" y="224.226865" style="fill: #d65f5f; fill-opacity: 0.35"/>
     <use xlink:href="#mc1810deb0d" x="310.694807" y="243.522961" style="fill: #d65f5f; fill-opacity: 0.35"/>
     <use xlink:href="#mc1810deb0d" x="276.794268" y="247.104185" style="fill: #d65f5f; fill-opacity: 0.35"/>
     <use xlink:href="#mc1810deb0d" x="282.587653" y="195.552541" style="fill: #d65f5f; fill-opacity: 0.35"/>
     <use xlink:href="#mc1810deb0d" x="284.906566" y="226.884167" style="fill: #d65f5f; fill-opacity: 0.35"/>
     <use xlink:href="#mc1810deb0d" x="285.43723" y="235.428412" style="fill: #d65f5f; fill-opacity: 0.35"/>
     <use xlink:href="#mc1810deb0d" x="298.94634" y="225.886657" style="fill: #d65f5f; fill-opacity: 0.35"/>
     <use xlink:href="#mc1810deb0d" x="292.441627" y="250.84076" style="fill: #d65f5f; fill-opacity: 0.35"/>
     <use xlink:href="#mc1810deb0d" x="277.036838" y="217.669464" style="fill: #d65f5f; fill-opacity: 0.35"/>
     <use xlink:href="#mc1810deb0d" x="290.65151" y="241.405296" style="fill: #d65f5f; fill-opacity: 0.35"/>
     <use xlink:href="#mc1810deb0d" x="296.95343" y="252.263438" style="fill: #d65f5f; fill-opacity: 0.35"/>
     <use xlink:href="#mc1810deb0d" x="279.237019" y="198.806713" style="fill: #d65f5f; fill-opacity: 0.35"/>
     <use xlink:href="#mc1810deb0d" x="309.952998" y="251.159636" style="fill: #d65f5f; fill-opacity: 0.35"/>
     <use xlink:href="#mc1810deb0d" x="277.150493" y="227.701798" style="fill: #d65f5f; fill-opacity: 0.35"/>
     <use xlink:href="#mc1810deb0d" x="313.788717" y="230.874207" style="fill: #d65f5f; fill-opacity: 0.35"/>
     <use xlink:href="#mc1810deb0d" x="279.129618" y="208.806342" style="fill: #d65f5f; fill-opacity: 0.35"/>
     <use xlink:href="#mc1810deb0d" x="310.377623" y="260.791331" style="fill: #d65f5f; fill-opacity: 0.35"/>
     <use xlink:href="#mc1810deb0d" x="312.857369" y="250.865289" style="fill: #d65f5f; fill-opacity: 0.35"/>
     <use xlink:href="#mc1810deb0d" x="316.085902" y="242.509098" style="fill: #d65f5f; fill-opacity: 0.35"/>
     <use xlink:href="#mc1810deb0d" x="308.633645" y="235.747289" style="fill: #d65f5f; fill-opacity: 0.35"/>
     <use xlink:href="#mc1810deb0d" x="307.687202" y="240.882012" style="fill: #d65f5f; fill-opacity: 0.35"/>
     <use xlink:href="#mc1810deb0d" x="301.937011" y="249.565255" style="fill: #d65f5f; fill-opacity: 0.35"/>
    </g>
   </g>
   <g id="PathCollection_4">
    <defs>
     <path id="mf7db138bb8" d="M 0 1.870829 
C 0.49615 1.870829 0.972045 1.673706 1.322876 1.322876 
C 1.673706 0.972045 1.870829 0.49615 1.870829 0 
C 1.870829 -0.49615 1.673706 -0.972045 1.322876 -1.322876 
C 0.972045 -1.673706 0.49615 -1.870829 0 -1.870829 
C -0.49615 -1.870829 -0.972045 -1.673706 -1.322876 -1.322876 
C -1.673706 -0.972045 -1.870829 -0.49615 -1.870829 0 
C -1.870829 0.49615 -1.673706 0.972045 -1.322876 1.322876 
C -0.972045 1.673706 -0.49615 1.870829 0 1.870829 
z
"/>
    </defs>
    <g clip-path="url(#pc3dcfa327c)">
     <use xlink:href="#mf7db138bb8" x="403.062353" y="254.430161" style="fill: #b47cc7; fill-opacity: 0.35"/>
     <use xlink:href="#mf7db138bb8" x="376.012485" y="253.579824" style="fill: #b47cc7; fill-opacity: 0.35"/>
     <use xlink:href="#mf7db138bb8" x="392.865691" y="262.974406" style="fill: #b47cc7; fill-opacity: 0.35"/>
     <use xlink:href="#mf7db138bb8" x="391.948763" y="231.029557" style="fill: #b47cc7; fill-opacity: 0.35"/>
     <use xlink:href="#mf7db138bb8" x="406.36049" y="265.590826" style="fill: #b47cc7; fill-opacity: 0.35"/>
     <use xlink:href="#mf7db138bb8" x="389.790316" y="252.672254" style="fill: #b47cc7; fill-opacity: 0.35"/>
     <use xlink:href="#mf7db138bb8" x="386.528525" y="233.269866" style="fill: #b47cc7; fill-opacity: 0.35"/>
     <use xlink:href="#mf7db138bb8" x="397.209796" y="251.68292" style="fill: #b47cc7; fill-opacity: 0.35"/>
     <use xlink:href="#mf7db138bb8" x="381.549315" y="256.269831" style="fill: #b47cc7; fill-opacity: 0.35"/>
     <use xlink:href="#mf7db138bb8" x="376.231429" y="251.30681" style="fill: #b47cc7; fill-opacity: 0.35"/>
     <use xlink:href="#mf7db138bb8" x="390.423195" y="249.720605" style="fill: #b47cc7; fill-opacity: 0.35"/>
     <use xlink:href="#mf7db138bb8" x="387.863291" y="241.078244" style="fill: #b47cc7; fill-opacity: 0.35"/>
     <use xlink:href="#mf7db138bb8" x="380.126676" y="241.887699" style="fill: #b47cc7; fill-opacity: 0.35"/>
     <use xlink:href="#mf7db138bb8" x="385.79072" y="253.081069" style="fill: #b47cc7; fill-opacity: 0.35"/>
     <use xlink:href="#mf7db138bb8" x="385.743736" y="251.99362" style="fill: #b47cc7; fill-opacity: 0.35"/>
     <use xlink:href="#mf7db138bb8" x="384.11108" y="254.781742" style="fill: #b47cc7; fill-opacity: 0.35"/>
     <use xlink:href="#mf7db138bb8" x="386.292404" y="255.950955" style="fill: #b47cc7; fill-opacity: 0.35"/>
     <use xlink:href="#mf7db138bb8" x="399.148156" y="253.52259" style="fill: #b47cc7; fill-opacity: 0.35"/>
     <use xlink:href="#mf7db138bb8" x="382.825876" y="246.368317" style="fill: #b47cc7; fill-opacity: 0.35"/>
     <use xlink:href="#mf7db138bb8" x="410.192115" y="248.387866" style="fill: #b47cc7; fill-opacity: 0.35"/>
     <use xlink:href="#mf7db138bb8" x="408.827546" y="247.120538" style="fill: #b47cc7; fill-opacity: 0.35"/>
     <use xlink:href="#mf7db138bb8" x="390.550508" y="263.971916" style="fill: #b47cc7; fill-opacity: 0.35"/>
     <use xlink:href="#mf7db138bb8" x="384.147414" y="253.30183" style="fill: #b47cc7; fill-opacity: 0.35"/>
     <use xlink:href="#mf7db138bb8" x="392.839111" y="241.536117" style="fill: #b47cc7; fill-opacity: 0.35"/>
     <use xlink:href="#mf7db138bb8" x="405.982235" y="208.879929" style="fill: #b47cc7; fill-opacity: 0.35"/>
     <use xlink:href="#mf7db138bb8" x="397.756467" y="262.287596" style="fill: #b47cc7; fill-opacity: 0.35"/>
     <use xlink:href="#mf7db138bb8" x="404.128302" y="248.657685" style="fill: #b47cc7; fill-opacity: 0.35"/>
     <use xlink:href="#mf7db138bb8" x="392.725257" y="257.659804" style="fill: #b47cc7; fill-opacity: 0.35"/>
     <use xlink:href="#mf7db138bb8" x="396.930852" y="249.401729" style="fill: #b47cc7; fill-opacity: 0.35"/>
     <use xlink:href="#mf7db138bb8" x="382.459827" y="255.035208" style="fill: #b47cc7; fill-opacity: 0.35"/>
     <use xlink:href="#mf7db138bb8" x="401.211168" y="250.718115" style="fill: #b47cc7; fill-opacity: 0.35"/>
     <use xlink:href="#mf7db138bb8" x="378.860517" y="251.200518" style="fill: #b47cc7; fill-opacity: 0.35"/>
     <use xlink:href="#mf7db138bb8" x="399.528221" y="250.873465" style="fill: #b47cc7; fill-opacity: 0.35"/>
     <use xlink:href="#mf7db138bb8" x="406.492579" y="245.656978" style="fill: #b47cc7; fill-opacity: 0.35"/>
     <use xlink:href="#mf7db138bb8" x="375.909675" y="251.731978" style="fill: #b47cc7; fill-opacity: 0.35"/>
     <use xlink:href="#mf7db138bb8" x="396.152743" y="228.004321" style="fill: #b47cc7; fill-opacity: 0.35"/>
     <use xlink:href="#mf7db138bb8" x="374.356341" y="253.776056" style="fill: #b47cc7; fill-opacity: 0.35"/>
     <use xlink:href="#mf7db138bb8" x="400.825951" y="243.964482" style="fill: #b47cc7; fill-opacity: 0.35"/>
     <use xlink:href="#mf7db138bb8" x="373.911311" y="250.276594" style="fill: #b47cc7; fill-opacity: 0.35"/>
     <use xlink:href="#mf7db138bb8" x="409.649891" y="239.655566" style="fill: #b47cc7; fill-opacity: 0.35"/>
     <use xlink:href="#mf7db138bb8" x="376.132351" y="263.783861" style="fill: #b47cc7; fill-opacity: 0.35"/>
     <use xlink:href="#mf7db138bb8" x="410.612791" y="254.315692" style="fill: #b47cc7; fill-opacity: 0.35"/>
     <use xlink:href="#mf7db138bb8" x="403.981072" y="248.796682" style="fill: #b47cc7; fill-opacity: 0.35"/>
     <use xlink:href="#mf7db138bb8" x="395.283977" y="257.528983" style="fill: #b47cc7; fill-opacity: 0.35"/>
     <use xlink:href="#mf7db138bb8" x="403.214624" y="253.195538" style="fill: #b47cc7; fill-opacity: 0.35"/>
     <use xlink:href="#mf7db138bb8" x="403.73891" y="242.23928" style="fill: #b47cc7; fill-opacity: 0.35"/>
     <use xlink:href="#mf7db138bb8" x="410.073292" y="240.375081" style="fill: #b47cc7; fill-opacity: 0.35"/>
     <use xlink:href="#mf7db138bb8" x="381.000298" y="250.521884" style="fill: #b47cc7; fill-opacity: 0.35"/>
     <use xlink:href="#mf7db138bb8" x="395.132615" y="246.237496" style="fill: #b47cc7; fill-opacity: 0.35"/>
     <use xlink:href="#mf7db138bb8" x="374.354387" y="235.894462" style="fill: #b47cc7; fill-opacity: 0.35"/>
     <use xlink:href="#mf7db138bb8" x="396.227707" y="254.217577" style="fill: #b47cc7; fill-opacity: 0.35"/>
     <use xlink:href="#mf7db138bb8" x="377.55457" y="257.218283" style="fill: #b47cc7; fill-opacity: 0.35"/>
     <use xlink:href="#mf7db138bb8" x="394.078007" y="238.690761" style="fill: #b47cc7; fill-opacity: 0.35"/>
     <use xlink:href="#mf7db138bb8" x="394.391968" y="233.228985" style="fill: #b47cc7; fill-opacity: 0.35"/>
     <use xlink:href="#mf7db138bb8" x="389.924036" y="258.992543" style="fill: #b47cc7; fill-opacity: 0.35"/>
     <use xlink:href="#mf7db138bb8" x="392.301718" y="226.818756" style="fill: #b47cc7; fill-opacity: 0.35"/>
     <use xlink:href="#mf7db138bb8" x="402.429681" y="235.747289" style="fill: #b47cc7; fill-opacity: 0.35"/>
     <use xlink:href="#mf7db138bb8" x="403.912257" y="227.456509" style="fill: #b47cc7; fill-opacity: 0.35"/>
     <use xlink:href="#mf7db138bb8" x="391.022413" y="245.199105" style="fill: #b47cc7; fill-opacity: 0.35"/>
     <use xlink:href="#mf7db138bb8" x="395.532104" y="241.724172" style="fill: #b47cc7; fill-opacity: 0.35"/>
     <use xlink:href="#mf7db138bb8" x="409.452463" y="246.736251" style="fill: #b47cc7; fill-opacity: 0.35"/>
     <use xlink:href="#mf7db138bb8" x="375.390489" y="245.289044" style="fill: #b47cc7; fill-opacity: 0.35"/>
     <use xlink:href="#mf7db138bb8" x="375.280096" y="245.583392" style="fill: #b47cc7; fill-opacity: 0.35"/>
     <use xlink:href="#mf7db138bb8" x="374.04629" y="246.425552" style="fill: #b47cc7; fill-opacity: 0.35"/>
     <use xlink:href="#mf7db138bb8" x="397.977919" y="249.254555" style="fill: #b47cc7; fill-opacity: 0.35"/>
     <use xlink:href="#mf7db138bb8" x="387.935442" y="255.468552" style="fill: #b47cc7; fill-opacity: 0.35"/>
     <use xlink:href="#mf7db138bb8" x="402.866128" y="255.166029" style="fill: #b47cc7; fill-opacity: 0.35"/>
     <use xlink:href="#mf7db138bb8" x="398.539033" y="262.671883" style="fill: #b47cc7; fill-opacity: 0.35"/>
     <use xlink:href="#mf7db138bb8" x="384.368892" y="236.188809" style="fill: #b47cc7; fill-opacity: 0.35"/>
     <use xlink:href="#mf7db138bb8" x="408.072792" y="235.56741" style="fill: #b47cc7; fill-opacity: 0.35"/>
     <use xlink:href="#mf7db138bb8" x="402.371285" y="260.513337" style="fill: #b47cc7; fill-opacity: 0.35"/>
     <use xlink:href="#mf7db138bb8" x="381.720218" y="213.262432" style="fill: #b47cc7; fill-opacity: 0.35"/>
     <use xlink:href="#mf7db138bb8" x="385.651375" y="231.405667" style="fill: #b47cc7; fill-opacity: 0.35"/>
     <use xlink:href="#mf7db138bb8" x="383.563086" y="252.091736" style="fill: #b47cc7; fill-opacity: 0.35"/>
     <use xlink:href="#mf7db138bb8" x="376.980381" y="247.553883" style="fill: #b47cc7; fill-opacity: 0.35"/>
     <use xlink:href="#mf7db138bb8" x="376.567849" y="245.640626" style="fill: #b47cc7; fill-opacity: 0.35"/>
     <use xlink:href="#mf7db138bb8" x="409.657767" y="245.673331" style="fill: #b47cc7; fill-opacity: 0.35"/>
     <use xlink:href="#mf7db138bb8" x="388.74536" y="213.22155" style="fill: #b47cc7; fill-opacity: 0.35"/>
     <use xlink:href="#mf7db138bb8" x="386.454245" y="246.351965" style="fill: #b47cc7; fill-opacity: 0.35"/>
     <use xlink:href="#mf7db138bb8" x="400.992591" y="242.639919" style="fill: #b47cc7; fill-opacity: 0.35"/>
     <use xlink:href="#mf7db138bb8" x="393.576102" y="258.330261" style="fill: #b47cc7; fill-opacity: 0.35"/>
     <use xlink:href="#mf7db138bb8" x="409.658293" y="259.564884" style="fill: #b47cc7; fill-opacity: 0.35"/>
     <use xlink:href="#mf7db138bb8" x="403.117135" y="250.832584" style="fill: #b47cc7; fill-opacity: 0.35"/>
     <use xlink:href="#mf7db138bb8" x="390.485832" y="255.067913" style="fill: #b47cc7; fill-opacity: 0.35"/>
     <use xlink:href="#mf7db138bb8" x="386.162092" y="253.416298" style="fill: #b47cc7; fill-opacity: 0.35"/>
     <use xlink:href="#mf7db138bb8" x="411.777623" y="256.008189" style="fill: #b47cc7; fill-opacity: 0.35"/>
     <use xlink:href="#mf7db138bb8" x="400.492031" y="246.858896" style="fill: #b47cc7; fill-opacity: 0.35"/>
     <use xlink:href="#mf7db138bb8" x="410.290197" y="257.790625" style="fill: #b47cc7; fill-opacity: 0.35"/>
     <use xlink:href="#mf7db138bb8" x="375.337811" y="249.074677" style="fill: #b47cc7; fill-opacity: 0.35"/>
     <use xlink:href="#mf7db138bb8" x="406.065058" y="223.703582" style="fill: #b47cc7; fill-opacity: 0.35"/>
     <use xlink:href="#mf7db138bb8" x="397.105306" y="256.506944" style="fill: #b47cc7; fill-opacity: 0.35"/>
     <use xlink:href="#mf7db138bb8" x="375.482331" y="248.199811" style="fill: #b47cc7; fill-opacity: 0.35"/>
     <use xlink:href="#mf7db138bb8" x="395.05631" y="258.935308" style="fill: #b47cc7; fill-opacity: 0.35"/>
     <use xlink:href="#mf7db138bb8" x="399.162973" y="256.081776" style="fill: #b47cc7; fill-opacity: 0.35"/>
     <use xlink:href="#mf7db138bb8" x="370.881189" y="229.64776" style="fill: #b47cc7; fill-opacity: 0.35"/>
     <use xlink:href="#mf7db138bb8" x="389.434318" y="242.917914" style="fill: #b47cc7; fill-opacity: 0.35"/>
     <use xlink:href="#mf7db138bb8" x="405.010077" y="253.391769" style="fill: #b47cc7; fill-opacity: 0.35"/>
     <use xlink:href="#mf7db138bb8" x="382.762183" y="249.00109" style="fill: #b47cc7; fill-opacity: 0.35"/>
     <use xlink:href="#mf7db138bb8" x="389.611872" y="253.105598" style="fill: #b47cc7; fill-opacity: 0.35"/>
     <use xlink:href="#mf7db138bb8" x="388.930469" y="246.090323" style="fill: #b47cc7; fill-opacity: 0.35"/>
    </g>
   </g>
   <g id="text_13">
    <!-- *** -->
    <g style="fill: #333333" transform="translate(146.113401 61.268676) scale(0.09 -0.09)">
     <defs>
      <path id="DejaVuSans-2a" d="M 3009 3897 
L 1888 3291 
L 3009 2681 
L 2828 2375 
L 1778 3009 
L 1778 1831 
L 1422 1831 
L 1422 3009 
L 372 2375 
L 191 2681 
L 1313 3291 
L 191 3897 
L 372 4206 
L 1422 3572 
L 1422 4750 
L 1778 4750 
L 1778 3572 
L 2828 4206 
L 3009 3897 
z
" transform="scale(0.015625)"/>
     </defs>
     <use xlink:href="#DejaVuSans-2a"/>
     <use xlink:href="#DejaVuSans-2a" transform="translate(50 0)"/>
     <use xlink:href="#DejaVuSans-2a" transform="translate(100 0)"/>
    </g>
   </g>
   <g id="text_14">
    <!-- *** -->
    <g style="fill: #333333" transform="translate(193.811076 45.054069) scale(0.09 -0.09)">
     <use xlink:href="#DejaVuSans-2a"/>
     <use xlink:href="#DejaVuSans-2a" transform="translate(50 0)"/>
     <use xlink:href="#DejaVuSans-2a" transform="translate(100 0)"/>
    </g>
   </g>
   <g id="text_15">
    <!-- *** -->
    <g style="fill: #333333" transform="translate(241.50875 28.839462) scale(0.09 -0.09)">
     <use xlink:href="#DejaVuSans-2a"/>
     <use xlink:href="#DejaVuSans-2a" transform="translate(50 0)"/>
     <use xlink:href="#DejaVuSans-2a" transform="translate(100 0)"/>
    </g>
   </g>
  </g>
 </g>
 <defs>
  <clipPath id="pc3dcfa327c">
   <rect x="43.15875" y="7.2" width="410.2" height="273.656"/>
  </clipPath>
 </defs>
</svg>
