<?xml version="1.0" encoding="utf-8" standalone="no"?>
<!DOCTYPE svg PUBLIC "-//W3C//DTD SVG 1.1//EN"
  "http://www.w3.org/Graphics/SVG/1.1/DTD/svg11.dtd">
<svg xmlns:xlink="http://www.w3.org/1999/xlink" width="504pt" height="432pt" viewBox="0 0 504 432" xmlns="http://www.w3.org/2000/svg" version="1.1">
 <metadata>
  <rdf:RDF xmlns:dc="http://purl.org/dc/elements/1.1/" xmlns:cc="http://creativecommons.org/ns#" xmlns:rdf="http://www.w3.org/1999/02/22-rdf-syntax-ns#">
   <cc:Work>
    <dc:type rdf:resource="http://purl.org/dc/dcmitype/StillImage"/>
    <dc:date>2026-05-25T00:39:57.722925</dc:date>
    <dc:format>image/svg+xml</dc:format>
    <dc:creator>
     <cc:Agent>
      <dc:title>Matplotlib v3.10.9, https://matplotlib.org/</dc:title>
     </cc:Agent>
    </dc:creator>
   </cc:Work>
  </rdf:RDF>
 </metadata>
 <defs>
  <style type="text/css">*{stroke-linejoin: round; stroke-linecap: butt}</style>
 </defs>
 <g id="figure_1">
  <g id="patch_1">
   <path d="M 0 432 
L 504 432 
L 504 0 
L 0 0 
z
" style="fill: #ffffff"/>
  </g>
  <g id="axes_1">
   <g id="patch_2">
    <path d="M 115.378551 389.32 
L 493.2 389.32 
L 493.2 47.52 
L 115.378551 47.52 
z
" style="fill: #ffffff"/>
   </g>
   <g id="patch_3">
    <path d="M 115.378551 88.072542 
L 115.378551 88.013807 
L 116.325472 88.004048 
L 117.272393 87.993245 
L 118.219314 87.9814 
L 119.166235 87.96854 
L 120.113156 87.954717 
L 121.060077 87.940012 
L 122.006998 87.924533 
L 122.953919 87.908417 
L 123.90084 87.891826 
L 124.847761 87.874944 
L 125.794681 87.857975 
L 126.741602 87.841132 
L 127.688523 87.824632 
L 128.635444 87.80869 
L 129.582365 87.793504 
L 130.529286 87.779247 
L 131.476207 87.766059 
L 132.423128 87.754033 
L 133.370049 87.743209 
L 134.31697 87.733563 
L 135.263891 87.725002 
L 136.210812 87.71736 
L 137.157733 87.710391 
L 138.104653 87.703775 
L 139.051574 87.697115 
L 139.998495 87.689945 
L 140.945416 87.681736 
L 141.892337 87.671908 
L 142.839258 87.659838 
L 143.786179 87.644874 
L 144.7331 87.62635 
L 145.680021 87.603601 
L 146.626942 87.575974 
L 147.573863 87.542846 
L 148.520784 87.503635 
L 149.467705 87.457808 
L 150.414625 87.404893 
L 151.361546 87.344487 
L 152.308467 87.276254 
L 153.255388 87.199931 
L 154.202309 87.115323 
L 155.14923 87.0223 
L 156.096151 86.92079 
L 157.043072 86.810772 
L 157.989993 86.692261 
L 158.936914 86.565304 
L 159.883835 86.429964 
L 160.830756 86.286311 
L 161.777677 86.134417 
L 162.724598 85.974339 
L 163.671518 85.806125 
L 164.618439 85.6298 
L 165.56536 85.445373 
L 166.512281 85.252836 
L 167.459202 85.052167 
L 168.406123 84.843336 
L 169.353044 84.626311 
L 170.299965 84.401067 
L 171.246886 84.16759 
L 172.193807 83.925883 
L 173.140728 83.675969 
L 174.087649 83.417894 
L 175.03457 83.151722 
L 175.98149 82.877534 
L 176.928411 82.595414 
L 177.875332 82.305445 
L 178.822253 82.007689 
L 179.769174 81.702177 
L 180.716095 81.388895 
L 181.663016 81.067766 
L 182.609937 80.738642 
L 183.556858 80.401295 
L 184.503779 80.055411 
L 185.4507 79.700595 
L 186.397621 79.336377 
L 187.344542 78.962227 
L 188.291462 78.577572 
L 189.238383 78.181827 
L 190.185304 77.774422 
L 191.132225 77.354833 
L 192.079146 76.922622 
L 193.026067 76.477464 
L 193.972988 76.019185 
L 194.919909 75.547779 
L 195.86683 75.063436 
L 196.813751 74.566545 
L 197.760672 74.057698 
L 198.707593 73.537683 
L 199.654514 73.007462 
L 200.601434 72.468143 
L 201.548355 71.920948 
L 202.495276 71.367169 
L 203.442197 70.808122 
L 204.389118 70.24511 
L 205.336039 69.67937 
L 206.28296 69.112046 
L 207.229881 68.544153 
L 208.176802 67.976562 
L 209.123723 67.409986 
L 210.070644 66.844989 
L 211.017565 66.281996 
L 211.964486 65.721321 
L 212.911406 65.163197 
L 213.858327 64.607818 
L 214.805248 64.055381 
L 215.752169 63.506129 
L 216.69909 62.960393 
L 217.646011 62.418623 
L 218.592932 61.881419 
L 219.539853 61.349543 
L 220.486774 60.823929 
L 221.433695 60.305673 
L 222.380616 59.796019 
L 223.327537 59.296333 
L 224.274458 58.80807 
L 225.221378 58.332737 
L 226.168299 57.871852 
L 227.11522 57.426906 
L 228.062141 56.999335 
L 229.009062 56.590481 
L 229.955983 56.201583 
L 230.902904 55.833759 
L 231.849825 55.488008 
L 232.796746 55.165215 
L 233.743667 54.866162 
L 234.690588 54.591551 
L 235.637509 54.34202 
L 236.58443 54.118163 
L 237.531351 53.920547 
L 238.478271 53.749717 
L 239.425192 53.606201 
L 240.372113 53.490495 
L 241.319034 53.403047 
L 242.265955 53.344219 
L 243.212876 53.314254 
L 244.159797 53.31322 
L 245.106718 53.340967 
L 246.053639 53.397068 
L 247.00056 53.480773 
L 247.947481 53.590968 
L 248.894402 53.726144 
L 249.841323 53.884385 
L 250.788243 54.063364 
L 251.735164 54.260371 
L 252.682085 54.472344 
L 253.629006 54.695938 
L 254.575927 54.927589 
L 255.522848 55.163615 
L 256.469769 55.400311 
L 257.41669 55.634056 
L 258.363611 55.861429 
L 259.310532 56.07931 
L 260.257453 56.284989 
L 261.204374 56.476246 
L 262.151295 56.651437 
L 263.098215 56.809544 
L 264.045136 56.950213 
L 264.992057 57.073775 
L 265.938978 57.181232 
L 266.885899 57.274237 
L 267.83282 57.35504 
L 268.779741 57.426424 
L 269.726662 57.491619 
L 270.673583 57.55421 
L 271.620504 57.618025 
L 272.567425 57.687025 
L 273.514346 57.76519 
L 274.461267 57.8564 
L 275.408187 57.964333 
L 276.355108 58.09236 
L 277.302029 58.243461 
L 278.24895 58.420153 
L 279.195871 58.624432 
L 280.142792 58.857745 
L 281.089713 59.120968 
L 282.036634 59.414421 
L 282.983555 59.737886 
L 283.930476 60.090655 
L 284.877397 60.47159 
L 285.824318 60.879195 
L 286.771239 61.311697 
L 287.718159 61.767128 
L 288.66508 62.243414 
L 289.612001 62.738453 
L 290.558922 63.250187 
L 291.505843 63.776663 
L 292.452764 64.316076 
L 293.399685 64.8668 
L 294.346606 65.427397 
L 295.293527 65.996617 
L 296.240448 66.573371 
L 297.187369 67.156704 
L 298.13429 67.74575 
L 299.081211 68.339685 
L 300.028131 68.93768 
L 300.975052 69.53885 
L 301.921973 70.142217 
L 302.868894 70.746678 
L 303.815815 71.350985 
L 304.762736 71.953742 
L 305.709657 72.553408 
L 306.656578 73.148324 
L 307.603499 73.736744 
L 308.55042 74.316877 
L 309.497341 74.886938 
L 310.444262 75.4452 
L 311.391183 75.99005 
L 312.338104 76.520034 
L 313.285024 77.033905 
L 314.231945 77.530654 
L 315.178866 78.009536 
L 316.125787 78.470082 
L 317.072708 78.912098 
L 318.019629 79.335656 
L 318.96655 79.74107 
L 319.913471 80.128867 
L 320.860392 80.499749 
L 321.807313 80.854556 
L 322.754234 81.194214 
L 323.701155 81.519704 
L 324.648076 81.832012 
L 325.594996 82.132096 
L 326.541917 82.420861 
L 327.488838 82.699124 
L 328.435759 82.967607 
L 329.38268 83.226919 
L 330.329601 83.477557 
L 331.276522 83.719904 
L 332.223443 83.954237 
L 333.170364 84.180738 
L 334.117285 84.399507 
L 335.064206 84.610578 
L 336.011127 84.813935 
L 336.958048 85.009531 
L 337.904968 85.197298 
L 338.851889 85.377171 
L 339.79881 85.549092 
L 340.745731 85.713027 
L 341.692652 85.868975 
L 342.639573 86.016972 
L 343.586494 86.157096 
L 344.533415 86.289472 
L 345.480336 86.414269 
L 346.427257 86.5317 
L 347.374178 86.642019 
L 348.321099 86.745513 
L 349.26802 86.8425 
L 350.21494 86.93332 
L 351.161861 87.018325 
L 352.108782 87.097876 
L 353.055703 87.172333 
L 354.002624 87.242045 
L 354.949545 87.307349 
L 355.896466 87.368561 
L 356.843387 87.42597 
L 357.790308 87.47984 
L 358.737229 87.530405 
L 359.68415 87.577866 
L 360.631071 87.6224 
L 361.577992 87.664153 
L 362.524912 87.703248 
L 363.471833 87.73979 
L 364.418754 87.773866 
L 365.365675 87.80555 
L 366.312596 87.834912 
L 367.259517 87.862017 
L 368.206438 87.886929 
L 369.153359 87.909718 
L 370.10028 87.930457 
L 371.047201 87.949226 
L 371.994122 87.966115 
L 372.941043 87.981219 
L 373.887964 87.994641 
L 374.834884 88.006491 
L 375.781805 88.016882 
L 376.728726 88.025933 
L 377.675647 88.033759 
L 378.622568 88.04048 
L 379.569489 88.046209 
L 380.51641 88.051057 
L 381.463331 88.055129 
L 382.410252 88.058525 
L 383.357173 88.061335 
L 384.304094 88.063643 
L 385.251015 88.065524 
L 386.197936 88.067046 
L 387.144857 88.068267 
L 388.091777 88.069241 
L 389.038698 88.07001 
L 389.985619 88.070614 
L 390.93254 88.071085 
L 391.879461 88.071448 
L 392.826382 88.071727 
L 393.773303 88.071939 
L 394.720224 88.072099 
L 395.667145 88.072219 
L 396.614066 88.072308 
L 397.560987 88.072374 
L 398.507908 88.072422 
L 399.454829 88.072457 
L 400.401749 88.072482 
L 401.34867 88.0725 
L 402.295591 88.072513 
L 403.242512 88.072522 
L 404.189433 88.072529 
L 405.136354 88.072533 
L 406.083275 88.072536 
L 407.030196 88.072538 
L 407.977117 88.07254 
L 408.924038 88.072541 
L 409.870959 88.072541 
L 410.81788 88.072542 
L 411.764801 88.072542 
L 412.711721 88.072542 
L 413.658642 88.072542 
L 414.605563 88.072542 
L 415.552484 88.072542 
L 416.499405 88.072542 
L 417.446326 88.072542 
L 418.393247 88.072542 
L 419.340168 88.072542 
L 420.287089 88.072542 
L 421.23401 88.072542 
L 422.180931 88.072542 
L 423.127852 88.072542 
L 424.074773 88.072542 
L 425.021693 88.072542 
L 425.968614 88.072542 
L 426.915535 88.072542 
L 427.862456 88.072542 
L 428.809377 88.072542 
L 429.756298 88.072542 
L 430.703219 88.072542 
L 431.65014 88.072542 
L 432.597061 88.072542 
L 433.543982 88.072542 
L 434.490903 88.072542 
L 435.437824 88.072542 
L 436.384745 88.072542 
L 437.331665 88.072542 
L 438.278586 88.072542 
L 439.225507 88.072542 
L 440.172428 88.072542 
L 441.119349 88.072542 
L 442.06627 88.072542 
L 443.013191 88.072542 
L 443.960112 88.072542 
L 444.907033 88.072542 
L 445.853954 88.072542 
L 446.800875 88.072542 
L 447.747796 88.072542 
L 448.694717 88.072542 
L 449.641637 88.072542 
L 450.588558 88.072542 
L 451.535479 88.072542 
L 452.4824 88.072542 
L 453.429321 88.072542 
L 454.376242 88.072542 
L 455.323163 88.072542 
L 456.270084 88.072542 
L 457.217005 88.072542 
L 458.163926 88.072542 
L 459.110847 88.072542 
L 460.057768 88.072542 
L 461.004689 88.072542 
L 461.95161 88.072542 
L 462.89853 88.072542 
L 463.845451 88.072542 
L 464.792372 88.072542 
L 465.739293 88.072542 
L 466.686214 88.072542 
L 467.633135 88.072542 
L 468.580056 88.072542 
L 469.526977 88.072542 
L 470.473898 88.072542 
L 471.420819 88.072542 
L 472.36774 88.072542 
L 473.314661 88.072542 
L 474.261582 88.072542 
L 475.208502 88.072542 
L 476.155423 88.072542 
L 477.102344 88.072542 
L 478.049265 88.072542 
L 478.996186 88.072542 
L 479.943107 88.072542 
L 480.890028 88.072542 
L 481.836949 88.072542 
L 482.78387 88.072542 
L 483.730791 88.072542 
L 484.677712 88.072542 
L 485.624633 88.072542 
L 486.571554 88.072542 
L 487.518474 88.072542 
L 488.465395 88.072542 
L 489.412316 88.072542 
L 490.359237 88.072542 
L 491.306158 88.072542 
L 492.253079 88.072542 
L 493.2 88.072542 
L 493.2 88.072542 
z
" clip-path="url(#p31988b45ed)" style="fill: #4c72b0; opacity: 0.75"/>
   </g>
   <g id="patch_4">
    <path d="M 115.378551 146.004746 
L 115.378551 146.004746 
L 116.325472 146.004746 
L 117.272393 146.004745 
L 118.219314 146.004745 
L 119.166235 146.004745 
L 120.113156 146.004745 
L 121.060077 146.004744 
L 122.006998 146.004743 
L 122.953919 146.004742 
L 123.90084 146.00474 
L 124.847761 146.004738 
L 125.794681 146.004735 
L 126.741602 146.00473 
L 127.688523 146.004723 
L 128.635444 146.004713 
L 129.582365 146.0047 
L 130.529286 146.004682 
L 131.476207 146.004658 
L 132.423128 146.004625 
L 133.370049 146.00458 
L 134.31697 146.004521 
L 135.263891 146.004441 
L 136.210812 146.004337 
L 137.157733 146.0042 
L 138.104653 146.004022 
L 139.051574 146.003792 
L 139.998495 146.003497 
L 140.945416 146.00312 
L 141.892337 146.002644 
L 142.839258 146.002044 
L 143.786179 146.001295 
L 144.7331 146.000365 
L 145.680021 145.99922 
L 146.626942 145.997817 
L 147.573863 145.996112 
L 148.520784 145.994051 
L 149.467705 145.991579 
L 150.414625 145.98863 
L 151.361546 145.985138 
L 152.308467 145.981027 
L 153.255388 145.976218 
L 154.202309 145.970628 
L 155.14923 145.96417 
L 156.096151 145.956751 
L 157.043072 145.948278 
L 157.989993 145.938653 
L 158.936914 145.927779 
L 159.883835 145.915552 
L 160.830756 145.90187 
L 161.777677 145.886624 
L 162.724598 145.869705 
L 163.671518 145.850993 
L 164.618439 145.830363 
L 165.56536 145.807681 
L 166.512281 145.782796 
L 167.459202 145.755543 
L 168.406123 145.725737 
L 169.353044 145.69317 
L 170.299965 145.657609 
L 171.246886 145.618792 
L 172.193807 145.576429 
L 173.140728 145.530201 
L 174.087649 145.47976 
L 175.03457 145.424736 
L 175.98149 145.364735 
L 176.928411 145.299352 
L 177.875332 145.228178 
L 178.822253 145.150807 
L 179.769174 145.066851 
L 180.716095 144.975951 
L 181.663016 144.877793 
L 182.609937 144.772117 
L 183.556858 144.658735 
L 184.503779 144.537538 
L 185.4507 144.408511 
L 186.397621 144.271735 
L 187.344542 144.127398 
L 188.291462 143.975791 
L 189.238383 143.817308 
L 190.185304 143.652442 
L 191.132225 143.48177 
L 192.079146 143.305945 
L 193.026067 143.12568 
L 193.972988 142.941725 
L 194.919909 142.754851 
L 195.86683 142.565828 
L 196.813751 142.375399 
L 197.760672 142.184266 
L 198.707593 141.993063 
L 199.654514 141.802342 
L 200.601434 141.612556 
L 201.548355 141.424046 
L 202.495276 141.23703 
L 203.442197 141.051598 
L 204.389118 140.867707 
L 205.336039 140.685181 
L 206.28296 140.503717 
L 207.229881 140.322886 
L 208.176802 140.142147 
L 209.123723 139.960852 
L 210.070644 139.778263 
L 211.017565 139.593567 
L 211.964486 139.40589 
L 212.911406 139.214315 
L 213.858327 139.017903 
L 214.805248 138.81571 
L 215.752169 138.606804 
L 216.69909 138.390291 
L 217.646011 138.165327 
L 218.592932 137.931136 
L 219.539853 137.687029 
L 220.486774 137.432413 
L 221.433695 137.166801 
L 222.380616 136.889819 
L 223.327537 136.601208 
L 224.274458 136.300819 
L 225.221378 135.988609 
L 226.168299 135.664628 
L 227.11522 135.329002 
L 228.062141 134.98192 
L 229.009062 134.623607 
L 229.955983 134.254306 
L 230.902904 133.874254 
L 231.849825 133.483666 
L 232.796746 133.082713 
L 233.743667 132.671513 
L 234.690588 132.250122 
L 235.637509 131.818534 
L 236.58443 131.376688 
L 237.531351 130.924475 
L 238.478271 130.461766 
L 239.425192 129.988427 
L 240.372113 129.504353 
L 241.319034 129.009497 
L 242.265955 128.503904 
L 243.212876 127.987737 
L 244.159797 127.461308 
L 245.106718 126.925096 
L 246.053639 126.379765 
L 247.00056 125.826168 
L 247.947481 125.265345 
L 248.894402 124.698511 
L 249.841323 124.127038 
L 250.788243 123.552425 
L 251.735164 122.976267 
L 252.682085 122.400213 
L 253.629006 121.825933 
L 254.575927 121.255074 
L 255.522848 120.689227 
L 256.469769 120.129897 
L 257.41669 119.57848 
L 258.363611 119.036247 
L 259.310532 118.504342 
L 260.257453 117.983785 
L 261.204374 117.475487 
L 262.151295 116.980268 
L 263.098215 116.498893 
L 264.045136 116.032094 
L 264.992057 115.58061 
L 265.938978 115.145217 
L 266.885899 114.726753 
L 267.83282 114.326147 
L 268.779741 113.944423 
L 269.726662 113.58271 
L 270.673583 113.242234 
L 271.620504 112.924297 
L 272.567425 112.630251 
L 273.514346 112.361456 
L 274.461267 112.119239 
L 275.408187 111.904841 
L 276.355108 111.719362 
L 277.302029 111.56371 
L 278.24895 111.438549 
L 279.195871 111.344258 
L 280.142792 111.280893 
L 281.089713 111.248165 
L 282.036634 111.245424 
L 282.983555 111.271665 
L 283.930476 111.32554 
L 284.877397 111.405385 
L 285.824318 111.509263 
L 286.771239 111.635009 
L 287.718159 111.780296 
L 288.66508 111.942692 
L 289.612001 112.119733 
L 290.558922 112.308985 
L 291.505843 112.508115 
L 292.452764 112.714944 
L 293.399685 112.927506 
L 294.346606 113.144085 
L 295.293527 113.36325 
L 296.240448 113.583878 
L 297.187369 113.805158 
L 298.13429 114.026597 
L 299.081211 114.248004 
L 300.028131 114.469471 
L 300.975052 114.691345 
L 301.921973 114.914195 
L 302.868894 115.138779 
L 303.815815 115.365998 
L 304.762736 115.596864 
L 305.709657 115.832458 
L 306.656578 116.073895 
L 307.603499 116.322291 
L 308.55042 116.578733 
L 309.497341 116.844252 
L 310.444262 117.1198 
L 311.391183 117.406232 
L 312.338104 117.704285 
L 313.285024 118.014567 
L 314.231945 118.337544 
L 315.178866 118.673528 
L 316.125787 119.022671 
L 317.072708 119.38496 
L 318.019629 119.760213 
L 318.96655 120.148083 
L 319.913471 120.548055 
L 320.860392 120.959462 
L 321.807313 121.381492 
L 322.754234 121.813208 
L 323.701155 122.253565 
L 324.648076 122.701438 
L 325.594996 123.15565 
L 326.541917 123.614999 
L 327.488838 124.078293 
L 328.435759 124.544376 
L 329.38268 125.012163 
L 330.329601 125.480662 
L 331.276522 125.948995 
L 332.223443 126.416417 
L 333.170364 126.882323 
L 334.117285 127.346252 
L 335.064206 127.807885 
L 336.011127 128.267031 
L 336.958048 128.723612 
L 337.904968 129.177644 
L 338.851889 129.629212 
L 339.79881 130.07844 
L 340.745731 130.525471 
L 341.692652 130.970434 
L 342.639573 131.413421 
L 343.586494 131.854472 
L 344.533415 132.293549 
L 345.480336 132.730531 
L 346.427257 133.165203 
L 347.374178 133.597254 
L 348.321099 134.026277 
L 349.26802 134.45178 
L 350.21494 134.873188 
L 351.161861 135.289857 
L 352.108782 135.701092 
L 353.055703 136.106153 
L 354.002624 136.504278 
L 354.949545 136.894696 
L 355.896466 137.27664 
L 356.843387 137.649365 
L 357.790308 138.012159 
L 358.737229 138.364359 
L 359.68415 138.705364 
L 360.631071 139.034643 
L 361.577992 139.351751 
L 362.524912 139.656334 
L 363.471833 139.948141 
L 364.418754 140.227029 
L 365.365675 140.492971 
L 366.312596 140.746055 
L 367.259517 140.986489 
L 368.206438 141.214598 
L 369.153359 141.430818 
L 370.10028 141.635691 
L 371.047201 141.82985 
L 371.994122 142.014012 
L 372.941043 142.188956 
L 373.887964 142.355507 
L 374.834884 142.514515 
L 375.781805 142.666836 
L 376.728726 142.81331 
L 377.675647 142.954738 
L 378.622568 143.091865 
L 379.569489 143.22536 
L 380.51641 143.355804 
L 381.463331 143.483675 
L 382.410252 143.609341 
L 383.357173 143.733054 
L 384.304094 143.854952 
L 385.251015 143.97506 
L 386.197936 144.093297 
L 387.144857 144.209484 
L 388.091777 144.323361 
L 389.038698 144.434599 
L 389.985619 144.542817 
L 390.93254 144.647598 
L 391.879461 144.748511 
L 392.826382 144.845124 
L 393.773303 144.937023 
L 394.720224 145.023828 
L 395.667145 145.105204 
L 396.614066 145.180877 
L 397.560987 145.250637 
L 398.507908 145.314352 
L 399.454829 145.371965 
L 400.401749 145.423503 
L 401.34867 145.469071 
L 402.295591 145.508851 
L 403.242512 145.543099 
L 404.189433 145.572137 
L 405.136354 145.596344 
L 406.083275 145.616148 
L 407.030196 145.632016 
L 407.977117 145.644443 
L 408.924038 145.653941 
L 409.870959 145.661027 
L 410.81788 145.666215 
L 411.764801 145.670001 
L 412.711721 145.672858 
L 413.658642 145.675224 
L 414.605563 145.677497 
L 415.552484 145.680028 
L 416.499405 145.683116 
L 417.446326 145.687005 
L 418.393247 145.691884 
L 419.340168 145.697884 
L 420.287089 145.705082 
L 421.23401 145.713503 
L 422.180931 145.723127 
L 423.127852 145.733887 
L 424.074773 145.745683 
L 425.021693 145.758383 
L 425.968614 145.771833 
L 426.915535 145.785863 
L 427.862456 145.800294 
L 428.809377 145.814944 
L 429.756298 145.829634 
L 430.703219 145.844192 
L 431.65014 145.858463 
L 432.597061 145.872303 
L 433.543982 145.885591 
L 434.490903 145.898225 
L 435.437824 145.910124 
L 436.384745 145.921229 
L 437.331665 145.931499 
L 438.278586 145.940916 
L 439.225507 145.949478 
L 440.172428 145.957196 
L 441.119349 145.964098 
L 442.06627 145.970221 
L 443.013191 145.975609 
L 443.960112 145.980313 
L 444.907033 145.984389 
L 445.853954 145.987893 
L 446.800875 145.990884 
L 447.747796 145.993417 
L 448.694717 145.995546 
L 449.641637 145.997323 
L 450.588558 145.998795 
L 451.535479 146.000006 
L 452.4824 146.000994 
L 453.429321 146.001796 
L 454.376242 146.002441 
L 455.323163 146.002956 
L 456.270084 146.003366 
L 457.217005 146.003688 
L 458.163926 146.00394 
L 459.110847 146.004136 
L 460.057768 146.004288 
L 461.004689 146.004403 
L 461.95161 146.004492 
L 462.89853 146.004558 
L 463.845451 146.004609 
L 464.792372 146.004646 
L 465.739293 146.004673 
L 466.686214 146.004694 
L 467.633135 146.004709 
L 468.580056 146.004719 
L 469.526977 146.004727 
L 470.473898 146.004733 
L 471.420819 146.004737 
L 472.36774 146.00474 
L 473.314661 146.004741 
L 474.261582 146.004743 
L 475.208502 146.004744 
L 476.155423 146.004744 
L 477.102344 146.004745 
L 478.049265 146.004745 
L 478.996186 146.004745 
L 479.943107 146.004746 
L 480.890028 146.004746 
L 481.836949 146.004746 
L 482.78387 146.004746 
L 483.730791 146.004746 
L 484.677712 146.004746 
L 485.624633 146.004746 
L 486.571554 146.004746 
L 487.518474 146.004746 
L 488.465395 146.004746 
L 489.412316 146.004746 
L 490.359237 146.004746 
L 491.306158 146.004746 
L 492.253079 146.004746 
L 493.2 146.004746 
L 493.2 146.004746 
z
" clip-path="url(#p31988b45ed)" style="fill: #55a868; opacity: 0.75"/>
   </g>
   <g id="patch_5">
    <path d="M 115.378551 203.936949 
L 115.378551 203.936949 
L 116.325472 203.936949 
L 117.272393 203.936949 
L 118.219314 203.936949 
L 119.166235 203.936949 
L 120.113156 203.936949 
L 121.060077 203.936949 
L 122.006998 203.936949 
L 122.953919 203.936949 
L 123.90084 203.936949 
L 124.847761 203.936949 
L 125.794681 203.936949 
L 126.741602 203.936949 
L 127.688523 203.936949 
L 128.635444 203.936949 
L 129.582365 203.936949 
L 130.529286 203.936949 
L 131.476207 203.936949 
L 132.423128 203.936949 
L 133.370049 203.936949 
L 134.31697 203.936949 
L 135.263891 203.936949 
L 136.210812 203.936949 
L 137.157733 203.936949 
L 138.104653 203.936949 
L 139.051574 203.936949 
L 139.998495 203.936949 
L 140.945416 203.936949 
L 141.892337 203.936949 
L 142.839258 203.936949 
L 143.786179 203.936949 
L 144.7331 203.936949 
L 145.680021 203.936949 
L 146.626942 203.936949 
L 147.573863 203.936949 
L 148.520784 203.936949 
L 149.467705 203.936949 
L 150.414625 203.936949 
L 151.361546 203.936949 
L 152.308467 203.936949 
L 153.255388 203.936949 
L 154.202309 203.936949 
L 155.14923 203.936949 
L 156.096151 203.936949 
L 157.043072 203.936949 
L 157.989993 203.936949 
L 158.936914 203.936949 
L 159.883835 203.936949 
L 160.830756 203.936949 
L 161.777677 203.936949 
L 162.724598 203.936949 
L 163.671518 203.936949 
L 164.618439 203.936949 
L 165.56536 203.936949 
L 166.512281 203.936949 
L 167.459202 203.936949 
L 168.406123 203.936948 
L 169.353044 203.936948 
L 170.299965 203.936947 
L 171.246886 203.936946 
L 172.193807 203.936944 
L 173.140728 203.936942 
L 174.087649 203.936938 
L 175.03457 203.936932 
L 175.98149 203.936924 
L 176.928411 203.936913 
L 177.875332 203.936896 
L 178.822253 203.936873 
L 179.769174 203.93684 
L 180.716095 203.936794 
L 181.663016 203.936729 
L 182.609937 203.936641 
L 183.556858 203.936519 
L 184.503779 203.936354 
L 185.4507 203.936132 
L 186.397621 203.935834 
L 187.344542 203.935439 
L 188.291462 203.934918 
L 189.238383 203.934236 
L 190.185304 203.93335 
L 191.132225 203.932208 
L 192.079146 203.930747 
L 193.026067 203.928893 
L 193.972988 203.926558 
L 194.919909 203.923638 
L 195.86683 203.920014 
L 196.813751 203.915553 
L 197.760672 203.910102 
L 198.707593 203.903493 
L 199.654514 203.895539 
L 200.601434 203.886042 
L 201.548355 203.874787 
L 202.495276 203.861554 
L 203.442197 203.846111 
L 204.389118 203.828228 
L 205.336039 203.807679 
L 206.28296 203.784245 
L 207.229881 203.757726 
L 208.176802 203.727941 
L 209.123723 203.694741 
L 210.070644 203.658011 
L 211.017565 203.617678 
L 211.964486 203.573713 
L 212.911406 203.526134 
L 213.858327 203.475011 
L 214.805248 203.420458 
L 215.752169 203.362636 
L 216.69909 203.301746 
L 217.646011 203.238021 
L 218.592932 203.171716 
L 219.539853 203.103098 
L 220.486774 203.032434 
L 221.433695 202.959979 
L 222.380616 202.885961 
L 223.327537 202.810572 
L 224.274458 202.733955 
L 225.221378 202.656199 
L 226.168299 202.577328 
L 227.11522 202.497303 
L 228.062141 202.416023 
L 229.009062 202.333321 
L 229.955983 202.248983 
L 230.902904 202.162746 
L 231.849825 202.074317 
L 232.796746 201.983387 
L 233.743667 201.889639 
L 234.690588 201.79277 
L 235.637509 201.692497 
L 236.58443 201.588573 
L 237.531351 201.48079 
L 238.478271 201.368986 
L 239.425192 201.253048 
L 240.372113 201.132901 
L 241.319034 201.008506 
L 242.265955 200.879845 
L 243.212876 200.746907 
L 244.159797 200.609668 
L 245.106718 200.468079 
L 246.053639 200.322036 
L 247.00056 200.171372 
L 247.947481 200.015838 
L 248.894402 199.855088 
L 249.841323 199.688677 
L 250.788243 199.516055 
L 251.735164 199.336569 
L 252.682085 199.149478 
L 253.629006 198.953963 
L 254.575927 198.74915 
L 255.522848 198.534131 
L 256.469769 198.307998 
L 257.41669 198.069865 
L 258.363611 197.818906 
L 259.310532 197.554378 
L 260.257453 197.27565 
L 261.204374 196.982227 
L 262.151295 196.673767 
L 263.098215 196.350094 
L 264.045136 196.011204 
L 264.992057 195.657265 
L 265.938978 195.288612 
L 266.885899 194.905734 
L 267.83282 194.509259 
L 268.779741 194.099932 
L 269.726662 193.678595 
L 270.673583 193.246163 
L 271.620504 192.803601 
L 272.567425 192.351901 
L 273.514346 191.892066 
L 274.461267 191.425094 
L 275.408187 190.951967 
L 276.355108 190.473647 
L 277.302029 189.99107 
L 278.24895 189.505153 
L 279.195871 189.016799 
L 280.142792 188.5269 
L 281.089713 188.036353 
L 282.036634 187.546064 
L 282.983555 187.056957 
L 283.930476 186.56998 
L 284.877397 186.086098 
L 285.824318 185.606298 
L 286.771239 185.131571 
L 287.718159 184.662901 
L 288.66508 184.201238 
L 289.612001 183.747481 
L 290.558922 183.302441 
L 291.505843 182.866814 
L 292.452764 182.441149 
L 293.399685 182.02582 
L 294.346606 181.620995 
L 295.293527 181.226626 
L 296.240448 180.842423 
L 297.187369 180.467862 
L 298.13429 180.102178 
L 299.081211 179.744388 
L 300.028131 179.39331 
L 300.975052 179.047598 
L 301.921973 178.70578 
L 302.868894 178.366306 
L 303.815815 178.0276 
L 304.762736 177.688115 
L 305.709657 177.346385 
L 306.656578 177.001083 
L 307.603499 176.651069 
L 308.55042 176.295438 
L 309.497341 175.933564 
L 310.444262 175.565129 
L 311.391183 175.190155 
L 312.338104 174.809023 
L 313.285024 174.422484 
L 314.231945 174.031662 
L 315.178866 173.638056 
L 316.125787 173.243523 
L 317.072708 172.850262 
L 318.019629 172.460792 
L 318.96655 172.077914 
L 319.913471 171.704675 
L 320.860392 171.34432 
L 321.807313 171.000244 
L 322.754234 170.675928 
L 323.701155 170.37488 
L 324.648076 170.100561 
L 325.594996 169.856322 
L 326.541917 169.645324 
L 327.488838 169.470468 
L 328.435759 169.334325 
L 329.38268 169.239071 
L 330.329601 169.186431 
L 331.276522 169.177627 
L 332.223443 169.213347 
L 333.170364 169.293721 
L 334.117285 169.418321 
L 335.064206 169.586167 
L 336.011127 169.79576 
L 336.958048 170.04513 
L 337.904968 170.331895 
L 338.851889 170.653335 
L 339.79881 171.006485 
L 340.745731 171.38822 
L 341.692652 171.795358 
L 342.639573 172.224754 
L 343.586494 172.673392 
L 344.533415 173.138467 
L 345.480336 173.617459 
L 346.427257 174.108184 
L 347.374178 174.608832 
L 348.321099 175.117988 
L 349.26802 175.634625 
L 350.21494 176.158089 
L 351.161861 176.688051 
L 352.108782 177.224457 
L 353.055703 177.767456 
L 354.002624 178.317323 
L 354.949545 178.874375 
L 355.896466 179.438882 
L 356.843387 180.01099 
L 357.790308 180.590644 
L 358.737229 181.177522 
L 359.68415 181.77099 
L 360.631071 182.370066 
L 361.577992 182.973405 
L 362.524912 183.579309 
L 363.471833 184.185745 
L 364.418754 184.790388 
L 365.365675 185.390684 
L 366.312596 185.98391 
L 367.259517 186.567263 
L 368.206438 187.137944 
L 369.153359 187.693239 
L 370.10028 188.230615 
L 371.047201 188.747789 
L 371.994122 189.242805 
L 372.941043 189.714087 
L 373.887964 190.160483 
L 374.834884 190.58129 
L 375.781805 190.976267 
L 376.728726 191.345625 
L 377.675647 191.690005 
L 378.622568 192.010448 
L 379.569489 192.308341 
L 380.51641 192.585367 
L 381.463331 192.843446 
L 382.410252 193.084667 
L 383.357173 193.311226 
L 384.304094 193.525371 
L 385.251015 193.729341 
L 386.197936 193.925319 
L 387.144857 194.115392 
L 388.091777 194.301519 
L 389.038698 194.485504 
L 389.985619 194.668977 
L 390.93254 194.853391 
L 391.879461 195.04001 
L 392.826382 195.229913 
L 393.773303 195.423998 
L 394.720224 195.622984 
L 395.667145 195.82742 
L 396.614066 196.037694 
L 397.560987 196.254031 
L 398.507908 196.476511 
L 399.454829 196.705061 
L 400.401749 196.939472 
L 401.34867 197.179394 
L 402.295591 197.424351 
L 403.242512 197.67374 
L 404.189433 197.926847 
L 405.136354 198.18285 
L 406.083275 198.440843 
L 407.030196 198.699844 
L 407.977117 198.958814 
L 408.924038 199.216685 
L 409.870959 199.472373 
L 410.81788 199.724806 
L 411.764801 199.972944 
L 412.711721 200.215801 
L 413.658642 200.452466 
L 414.605563 200.682118 
L 415.552484 200.904039 
L 416.499405 201.117626 
L 417.446326 201.322392 
L 418.393247 201.517974 
L 419.340168 201.704125 
L 420.287089 201.88071 
L 421.23401 202.047696 
L 422.180931 202.205144 
L 423.127852 202.353193 
L 424.074773 202.492047 
L 425.021693 202.621962 
L 425.968614 202.743234 
L 426.915535 202.856185 
L 427.862456 202.961152 
L 428.809377 203.058481 
L 429.756298 203.148521 
L 430.703219 203.231614 
L 431.65014 203.308099 
L 432.597061 203.378303 
L 433.543982 203.442548 
L 434.490903 203.501146 
L 435.437824 203.554403 
L 436.384745 203.602618 
L 437.331665 203.646088 
L 438.278586 203.685107 
L 439.225507 203.719965 
L 440.172428 203.750949 
L 441.119349 203.778347 
L 442.06627 203.80244 
L 443.013191 203.823506 
L 443.960112 203.841817 
L 444.907033 203.857635 
L 445.853954 203.871215 
L 446.800875 203.882798 
L 447.747796 203.892613 
L 448.694717 203.900875 
L 449.641637 203.907782 
L 450.588558 203.913518 
L 451.535479 203.918246 
L 452.4824 203.922118 
L 453.429321 203.925265 
L 454.376242 203.927806 
L 455.323163 203.929841 
L 456.270084 203.931461 
L 457.217005 203.93274 
L 458.163926 203.933743 
L 459.110847 203.934523 
L 460.057768 203.935127 
L 461.004689 203.935589 
L 461.95161 203.935941 
L 462.89853 203.936207 
L 463.845451 203.936407 
L 464.792372 203.936556 
L 465.739293 203.936666 
L 466.686214 203.936746 
L 467.633135 203.936805 
L 468.580056 203.936847 
L 469.526977 203.936878 
L 470.473898 203.9369 
L 471.420819 203.936915 
L 472.36774 203.936926 
L 473.314661 203.936933 
L 474.261582 203.936938 
L 475.208502 203.936942 
L 476.155423 203.936944 
L 477.102344 203.936946 
L 478.049265 203.936947 
L 478.996186 203.936948 
L 479.943107 203.936948 
L 480.890028 203.936949 
L 481.836949 203.936949 
L 482.78387 203.936949 
L 483.730791 203.936949 
L 484.677712 203.936949 
L 485.624633 203.936949 
L 486.571554 203.936949 
L 487.518474 203.936949 
L 488.465395 203.936949 
L 489.412316 203.936949 
L 490.359237 203.936949 
L 491.306158 203.936949 
L 492.253079 203.936949 
L 493.2 203.936949 
L 493.2 203.936949 
z
" clip-path="url(#p31988b45ed)" style="fill: #c44e52; opacity: 0.75"/>
   </g>
   <g id="patch_6">
    <path d="M 115.378551 261.869153 
L 115.378551 261.869139 
L 116.325472 261.869132 
L 117.272393 261.869123 
L 118.219314 261.86911 
L 119.166235 261.869092 
L 120.113156 261.869066 
L 121.060077 261.86903 
L 122.006998 261.86898 
L 122.953919 261.868913 
L 123.90084 261.86882 
L 124.847761 261.868696 
L 125.794681 261.868529 
L 126.741602 261.868308 
L 127.688523 261.868015 
L 128.635444 261.867633 
L 129.582365 261.867136 
L 130.529286 261.866495 
L 131.476207 261.865675 
L 132.423128 261.864634 
L 133.370049 261.863323 
L 134.31697 261.861684 
L 135.263891 261.859651 
L 136.210812 261.857148 
L 137.157733 261.854093 
L 138.104653 261.850391 
L 139.051574 261.845943 
L 139.998495 261.84064 
L 140.945416 261.834368 
L 141.892337 261.827012 
L 142.839258 261.818454 
L 143.786179 261.808581 
L 144.7331 261.797287 
L 145.680021 261.784475 
L 146.626942 261.770069 
L 147.573863 261.75401 
L 148.520784 261.736268 
L 149.467705 261.716846 
L 150.414625 261.695779 
L 151.361546 261.673144 
L 152.308467 261.649062 
L 153.255388 261.623693 
L 154.202309 261.597246 
L 155.14923 261.569965 
L 156.096151 261.542136 
L 157.043072 261.514073 
L 157.989993 261.486114 
L 158.936914 261.458609 
L 159.883835 261.43191 
L 160.830756 261.406358 
L 161.777677 261.382267 
L 162.724598 261.359913 
L 163.671518 261.339516 
L 164.618439 261.321231 
L 165.56536 261.305134 
L 166.512281 261.291212 
L 167.459202 261.279353 
L 168.406123 261.269347 
L 169.353044 261.260877 
L 170.299965 261.253525 
L 171.246886 261.246776 
L 172.193807 261.240024 
L 173.140728 261.232583 
L 174.087649 261.2237 
L 175.03457 261.21257 
L 175.98149 261.198353 
L 176.928411 261.180187 
L 177.875332 261.157211 
L 178.822253 261.128573 
L 179.769174 261.093453 
L 180.716095 261.05107 
L 181.663016 261.000695 
L 182.609937 260.94166 
L 183.556858 260.87336 
L 184.503779 260.795263 
L 185.4507 260.706901 
L 186.397621 260.607876 
L 187.344542 260.497854 
L 188.291462 260.376558 
L 189.238383 260.243764 
L 190.185304 260.099299 
L 191.132225 259.943029 
L 192.079146 259.774862 
L 193.026067 259.594742 
L 193.972988 259.402651 
L 194.919909 259.19861 
L 195.86683 258.982687 
L 196.813751 258.755002 
L 197.760672 258.515735 
L 198.707593 258.265142 
L 199.654514 258.003563 
L 200.601434 257.731438 
L 201.548355 257.449315 
L 202.495276 257.157862 
L 203.442197 256.857878 
L 204.389118 256.550289 
L 205.336039 256.236155 
L 206.28296 255.91666 
L 207.229881 255.593102 
L 208.176802 255.266874 
L 209.123723 254.939439 
L 210.070644 254.612302 
L 211.017565 254.286974 
L 211.964486 253.964931 
L 212.911406 253.647574 
L 213.858327 253.336182 
L 214.805248 253.031871 
L 215.752169 252.735552 
L 216.69909 252.447894 
L 217.646011 252.169296 
L 218.592932 251.899861 
L 219.539853 251.639386 
L 220.486774 251.387362 
L 221.433695 251.142981 
L 222.380616 250.905155 
L 223.327537 250.672555 
L 224.274458 250.443644 
L 225.221378 250.216731 
L 226.168299 249.990024 
L 227.11522 249.76169 
L 228.062141 249.529909 
L 229.009062 249.292931 
L 229.955983 249.049127 
L 230.902904 248.797029 
L 231.849825 248.53536 
L 232.796746 248.263059 
L 233.743667 247.979282 
L 234.690588 247.683404 
L 235.637509 247.375 
L 236.58443 247.053823 
L 237.531351 246.719768 
L 238.478271 246.372837 
L 239.425192 246.013099 
L 240.372113 245.640653 
L 241.319034 245.255591 
L 242.265955 244.857973 
L 243.212876 244.447808 
L 244.159797 244.025044 
L 245.106718 243.589572 
L 246.053639 243.141236 
L 247.00056 242.67986 
L 247.947481 242.205277 
L 248.894402 241.717368 
L 249.841323 241.216104 
L 250.788243 240.701588 
L 251.735164 240.1741 
L 252.682085 239.634134 
L 253.629006 239.082426 
L 254.575927 238.519981 
L 255.522848 237.948086 
L 256.469769 237.368312 
L 257.41669 236.782506 
L 258.363611 236.192773 
L 259.310532 235.601453 
L 260.257453 235.01108 
L 261.204374 234.424349 
L 262.151295 233.844062 
L 263.098215 233.273086 
L 264.045136 232.714301 
L 264.992057 232.170553 
L 265.938978 231.644606 
L 266.885899 231.1391 
L 267.83282 230.656511 
L 268.779741 230.199118 
L 269.726662 229.768974 
L 270.673583 229.36788 
L 271.620504 228.997374 
L 272.567425 228.658713 
L 273.514346 228.352873 
L 274.461267 228.080549 
L 275.408187 227.842163 
L 276.355108 227.637873 
L 277.302029 227.467598 
L 278.24895 227.331036 
L 279.195871 227.227693 
L 280.142792 227.156914 
L 281.089713 227.117918 
L 282.036634 227.109831 
L 282.983555 227.131719 
L 283.930476 227.182628 
L 284.877397 227.26161 
L 285.824318 227.367756 
L 286.771239 227.500216 
L 287.718159 227.658224 
L 288.66508 227.84111 
L 289.612001 228.048304 
L 290.558922 228.279345 
L 291.505843 228.533874 
L 292.452764 228.811622 
L 293.399685 229.112399 
L 294.346606 229.436075 
L 295.293527 229.782553 
L 296.240448 230.151748 
L 297.187369 230.543554 
L 298.13429 230.957819 
L 299.081211 231.394314 
L 300.028131 231.852703 
L 300.975052 232.332519 
L 301.921973 232.833138 
L 302.868894 233.353759 
L 303.815815 233.89339 
L 304.762736 234.450834 
L 305.709657 235.024685 
L 306.656578 235.613331 
L 307.603499 236.214961 
L 308.55042 236.827577 
L 309.497341 237.449017 
L 310.444262 238.07698 
L 311.391183 238.70906 
L 312.338104 239.34278 
L 313.285024 239.975632 
L 314.231945 240.605125 
L 315.178866 241.228823 
L 316.125787 241.84439 
L 317.072708 242.449639 
L 318.019629 243.042568 
L 318.96655 243.621398 
L 319.913471 244.184609 
L 320.860392 244.730965 
L 321.807313 245.259538 
L 322.754234 245.769719 
L 323.701155 246.261227 
L 324.648076 246.734107 
L 325.594996 247.18872 
L 326.541917 247.625724 
L 327.488838 248.046052 
L 328.435759 248.450872 
L 329.38268 248.841552 
L 330.329601 249.219615 
L 331.276522 249.586684 
L 332.223443 249.944434 
L 333.170364 250.294537 
L 334.117285 250.638606 
L 335.064206 250.978148 
L 336.011127 251.314516 
L 336.958048 251.648868 
L 337.904968 251.982135 
L 338.851889 252.314994 
L 339.79881 252.647856 
L 340.745731 252.98086 
L 341.692652 253.313877 
L 342.639573 253.646523 
L 343.586494 253.978182 
L 344.533415 254.308038 
L 345.480336 254.635108 
L 346.427257 254.958286 
L 347.374178 255.276383 
L 348.321099 255.588173 
L 349.26802 255.892435 
L 350.21494 256.187997 
L 351.161861 256.473771 
L 352.108782 256.748783 
L 353.055703 257.012206 
L 354.002624 257.263377 
L 354.949545 257.50181 
L 355.896466 257.727208 
L 356.843387 257.939459 
L 357.790308 258.138637 
L 358.737229 258.32499 
L 359.68415 258.498928 
L 360.631071 258.661002 
L 361.577992 258.811889 
L 362.524912 258.952368 
L 363.471833 259.083294 
L 364.418754 259.205578 
L 365.365675 259.320163 
L 366.312596 259.427998 
L 367.259517 259.530021 
L 368.206438 259.627136 
L 369.153359 259.720195 
L 370.10028 259.809987 
L 371.047201 259.897218 
L 371.994122 259.982506 
L 372.941043 260.066372 
L 373.887964 260.149234 
L 374.834884 260.231406 
L 375.781805 260.313098 
L 376.728726 260.394421 
L 377.675647 260.475389 
L 378.622568 260.55593 
L 379.569489 260.635893 
L 380.51641 260.71506 
L 381.463331 260.793158 
L 382.410252 260.869871 
L 383.357173 260.944854 
L 384.304094 261.017746 
L 385.251015 261.088181 
L 386.197936 261.1558 
L 387.144857 261.220263 
L 388.091777 261.281258 
L 389.038698 261.338506 
L 389.985619 261.391771 
L 390.93254 261.44086 
L 391.879461 261.48563 
L 392.826382 261.525988 
L 393.773303 261.561888 
L 394.720224 261.593335 
L 395.667145 261.620379 
L 396.614066 261.643117 
L 397.560987 261.661684 
L 398.507908 261.676255 
L 399.454829 261.687038 
L 400.401749 261.694276 
L 401.34867 261.698238 
L 402.295591 261.699217 
L 403.242512 261.697531 
L 404.189433 261.693517 
L 405.136354 261.687524 
L 406.083275 261.679917 
L 407.030196 261.671067 
L 407.977117 261.661347 
L 408.924038 261.651131 
L 409.870959 261.640784 
L 410.81788 261.630658 
L 411.764801 261.621088 
L 412.711721 261.612382 
L 413.658642 261.604819 
L 414.605563 261.59864 
L 415.552484 261.594048 
L 416.499405 261.591196 
L 417.446326 261.590195 
L 418.393247 261.591102 
L 419.340168 261.593929 
L 420.287089 261.598638 
L 421.23401 261.605145 
L 422.180931 261.613328 
L 423.127852 261.623027 
L 424.074773 261.634055 
L 425.021693 261.646201 
L 425.968614 261.65924 
L 426.915535 261.67294 
L 427.862456 261.687068 
L 428.809377 261.701398 
L 429.756298 261.715715 
L 430.703219 261.729824 
L 431.65014 261.743549 
L 432.597061 261.75674 
L 433.543982 261.769272 
L 434.490903 261.781049 
L 435.437824 261.791998 
L 436.384745 261.802075 
L 437.331665 261.811257 
L 438.278586 261.819544 
L 439.225507 261.826951 
L 440.172428 261.833512 
L 441.119349 261.839271 
L 442.06627 261.84428 
L 443.013191 261.848599 
L 443.960112 261.852291 
L 444.907033 261.855419 
L 445.853954 261.858048 
L 446.800875 261.860239 
L 447.747796 261.862049 
L 448.694717 261.863533 
L 449.641637 261.864738 
L 450.588558 261.865711 
L 451.535479 261.866488 
L 452.4824 261.867105 
L 453.429321 261.86759 
L 454.376242 261.867969 
L 455.323163 261.868263 
L 456.270084 261.868488 
L 457.217005 261.86866 
L 458.163926 261.86879 
L 459.110847 261.868888 
L 460.057768 261.868961 
L 461.004689 261.869014 
L 461.95161 261.869054 
L 462.89853 261.869082 
L 463.845451 261.869103 
L 464.792372 261.869118 
L 465.739293 261.869129 
L 466.686214 261.869136 
L 467.633135 261.869141 
L 468.580056 261.869145 
L 469.526977 261.869147 
L 470.473898 261.869149 
L 471.420819 261.86915 
L 472.36774 261.869151 
L 473.314661 261.869152 
L 474.261582 261.869152 
L 475.208502 261.869152 
L 476.155423 261.869152 
L 477.102344 261.869152 
L 478.049265 261.869152 
L 478.996186 261.869152 
L 479.943107 261.869153 
L 480.890028 261.869153 
L 481.836949 261.869153 
L 482.78387 261.869153 
L 483.730791 261.869153 
L 484.677712 261.869153 
L 485.624633 261.869153 
L 486.571554 261.869153 
L 487.518474 261.869153 
L 488.465395 261.869153 
L 489.412316 261.869153 
L 490.359237 261.869153 
L 491.306158 261.869153 
L 492.253079 261.869153 
L 493.2 261.869153 
L 493.2 261.869153 
z
" clip-path="url(#p31988b45ed)" style="fill: #8172b2; opacity: 0.75"/>
   </g>
   <g id="patch_7">
    <path d="M 115.378551 319.801356 
L 115.378551 319.801356 
L 116.325472 319.801356 
L 117.272393 319.801356 
L 118.219314 319.801356 
L 119.166235 319.801356 
L 120.113156 319.801356 
L 121.060077 319.801356 
L 122.006998 319.801356 
L 122.953919 319.801356 
L 123.90084 319.801356 
L 124.847761 319.801356 
L 125.794681 319.801356 
L 126.741602 319.801356 
L 127.688523 319.801356 
L 128.635444 319.801356 
L 129.582365 319.801356 
L 130.529286 319.801356 
L 131.476207 319.801356 
L 132.423128 319.801356 
L 133.370049 319.801356 
L 134.31697 319.801356 
L 135.263891 319.801356 
L 136.210812 319.801356 
L 137.157733 319.801356 
L 138.104653 319.801356 
L 139.051574 319.801356 
L 139.998495 319.801356 
L 140.945416 319.801356 
L 141.892337 319.801356 
L 142.839258 319.801356 
L 143.786179 319.801356 
L 144.7331 319.801356 
L 145.680021 319.801356 
L 146.626942 319.801356 
L 147.573863 319.801356 
L 148.520784 319.801356 
L 149.467705 319.801355 
L 150.414625 319.801355 
L 151.361546 319.801355 
L 152.308467 319.801354 
L 153.255388 319.801353 
L 154.202309 319.801351 
L 155.14923 319.801349 
L 156.096151 319.801346 
L 157.043072 319.801342 
L 157.989993 319.801336 
L 158.936914 319.801327 
L 159.883835 319.801315 
L 160.830756 319.801298 
L 161.777677 319.801274 
L 162.724598 319.801242 
L 163.671518 319.801198 
L 164.618439 319.801138 
L 165.56536 319.801058 
L 166.512281 319.800952 
L 167.459202 319.800812 
L 168.406123 319.800628 
L 169.353044 319.800388 
L 170.299965 319.800079 
L 171.246886 319.799682 
L 172.193807 319.799176 
L 173.140728 319.798537 
L 174.087649 319.797736 
L 175.03457 319.796739 
L 175.98149 319.795507 
L 176.928411 319.793996 
L 177.875332 319.792158 
L 178.822253 319.789938 
L 179.769174 319.787278 
L 180.716095 319.784115 
L 181.663016 319.780383 
L 182.609937 319.776012 
L 183.556858 319.770934 
L 184.503779 319.765078 
L 185.4507 319.758377 
L 186.397621 319.750769 
L 187.344542 319.742196 
L 188.291462 319.732609 
L 189.238383 319.721968 
L 190.185304 319.710243 
L 191.132225 319.697416 
L 192.079146 319.683482 
L 193.026067 319.668445 
L 193.972988 319.652319 
L 194.919909 319.635127 
L 195.86683 319.616893 
L 196.813751 319.59764 
L 197.760672 319.577385 
L 198.707593 319.556128 
L 199.654514 319.533852 
L 200.601434 319.510507 
L 201.548355 319.486008 
L 202.495276 319.460224 
L 203.442197 319.43297 
L 204.389118 319.404003 
L 205.336039 319.373018 
L 206.28296 319.339639 
L 207.229881 319.303424 
L 208.176802 319.263864 
L 209.123723 319.220382 
L 210.070644 319.172349 
L 211.017565 319.119079 
L 211.964486 319.059851 
L 212.911406 318.993913 
L 213.858327 318.920499 
L 214.805248 318.838842 
L 215.752169 318.748188 
L 216.69909 318.647809 
L 217.646011 318.537019 
L 218.592932 318.415183 
L 219.539853 318.281731 
L 220.486774 318.136161 
L 221.433695 317.978051 
L 222.380616 317.807061 
L 223.327537 317.622935 
L 224.274458 317.425506 
L 225.221378 317.214693 
L 226.168299 316.990503 
L 227.11522 316.753031 
L 228.062141 316.502458 
L 229.009062 316.239056 
L 229.955983 315.963185 
L 230.902904 315.675301 
L 231.849825 315.375955 
L 232.796746 315.065799 
L 233.743667 314.745589 
L 234.690588 314.416191 
L 235.637509 314.078574 
L 236.58443 313.733818 
L 237.531351 313.3831 
L 238.478271 313.027687 
L 239.425192 312.668922 
L 240.372113 312.3082 
L 241.319034 311.946944 
L 242.265955 311.586572 
L 243.212876 311.22846 
L 244.159797 310.873905 
L 245.106718 310.52408 
L 246.053639 310.179997 
L 247.00056 309.842464 
L 247.947481 309.51205 
L 248.894402 309.189057 
L 249.841323 308.873497 
L 250.788243 308.56508 
L 251.735164 308.263212 
L 252.682085 307.967002 
L 253.629006 307.675286 
L 254.575927 307.386652 
L 255.522848 307.099484 
L 256.469769 306.812008 
L 257.41669 306.522344 
L 258.363611 306.228565 
L 259.310532 305.92875 
L 260.257453 305.621046 
L 261.204374 305.303713 
L 262.151295 304.975171 
L 263.098215 304.634038 
L 264.045136 304.279156 
L 264.992057 303.90961 
L 265.938978 303.52473 
L 266.885899 303.124092 
L 267.83282 302.707505 
L 268.779741 302.27499 
L 269.726662 301.826756 
L 270.673583 301.363172 
L 271.620504 300.884738 
L 272.567425 300.392054 
L 273.514346 299.8858 
L 274.461267 299.366712 
L 275.408187 298.83557 
L 276.355108 298.293193 
L 277.302029 297.740439 
L 278.24895 297.178216 
L 279.195871 296.607493 
L 280.142792 296.029323 
L 281.089713 295.44487 
L 282.036634 294.855426 
L 282.983555 294.262443 
L 283.930476 293.667551 
L 284.877397 293.072576 
L 285.824318 292.479551 
L 286.771239 291.890715 
L 287.718159 291.30851 
L 288.66508 290.735567 
L 289.612001 290.174674 
L 290.558922 289.62875 
L 291.505843 289.100799 
L 292.452764 288.593863 
L 293.399685 288.110972 
L 294.346606 287.655083 
L 295.293527 287.229031 
L 296.240448 286.835465 
L 297.187369 286.4768 
L 298.13429 286.155164 
L 299.081211 285.872355 
L 300.028131 285.629804 
L 300.975052 285.42854 
L 301.921973 285.269175 
L 302.868894 285.151883 
L 303.815815 285.076402 
L 304.762736 285.042034 
L 305.709657 285.047659 
L 306.656578 285.091761 
L 307.603499 285.172454 
L 308.55042 285.287524 
L 309.497341 285.43447 
L 310.444262 285.610558 
L 311.391183 285.812873 
L 312.338104 286.038378 
L 313.285024 286.283966 
L 314.231945 286.546526 
L 315.178866 286.822989 
L 316.125787 287.110377 
L 317.072708 287.405851 
L 318.019629 287.706744 
L 318.96655 288.010584 
L 319.913471 288.315116 
L 320.860392 288.618311 
L 321.807313 288.918367 
L 322.754234 289.2137 
L 323.701155 289.502936 
L 324.648076 289.784895 
L 325.594996 290.058576 
L 326.541917 290.32314 
L 327.488838 290.577898 
L 328.435759 290.822306 
L 329.38268 291.055965 
L 330.329601 291.278621 
L 331.276522 291.490189 
L 332.223443 291.690765 
L 333.170364 291.880657 
L 334.117285 292.060413 
L 335.064206 292.230854 
L 336.011127 292.393103 
L 336.958048 292.548606 
L 337.904968 292.699152 
L 338.851889 292.846881 
L 339.79881 292.994268 
L 340.745731 293.144108 
L 341.692652 293.299476 
L 342.639573 293.463671 
L 343.586494 293.640148 
L 344.533415 293.832434 
L 345.480336 294.04404 
L 346.427257 294.278358 
L 347.374178 294.538562 
L 348.321099 294.827505 
L 349.26802 295.147629 
L 350.21494 295.500879 
L 351.161861 295.888634 
L 352.108782 296.311655 
L 353.055703 296.770046 
L 354.002624 297.263249 
L 354.949545 297.790045 
L 355.896466 298.348581 
L 356.843387 298.936419 
L 357.790308 299.550593 
L 358.737229 300.187687 
L 359.68415 300.843916 
L 360.631071 301.515216 
L 361.577992 302.197341 
L 362.524912 302.885948 
L 363.471833 303.576694 
L 364.418754 304.265313 
L 365.365675 304.947694 
L 366.312596 305.619949 
L 367.259517 306.278466 
L 368.206438 306.919963 
L 369.153359 307.54152 
L 370.10028 308.140608 
L 371.047201 308.715115 
L 371.994122 309.26335 
L 372.941043 309.784055 
L 373.887964 310.276399 
L 374.834884 310.739971 
L 375.781805 311.174768 
L 376.728726 311.581174 
L 377.675647 311.959933 
L 378.622568 312.312122 
L 379.569489 312.639112 
L 380.51641 312.942529 
L 381.463331 313.224208 
L 382.410252 313.486142 
L 383.357173 313.730432 
L 384.304094 313.959234 
L 385.251015 314.174701 
L 386.197936 314.378937 
L 387.144857 314.573942 
L 388.091777 314.761569 
L 389.038698 314.943487 
L 389.985619 315.121146 
L 390.93254 315.295758 
L 391.879461 315.468279 
L 392.826382 315.639407 
L 393.773303 315.809585 
L 394.720224 315.979017 
L 395.667145 316.147685 
L 396.614066 316.315381 
L 397.560987 316.481734 
L 398.507908 316.646254 
L 399.454829 316.808364 
L 400.401749 316.96744 
L 401.34867 317.122847 
L 402.295591 317.273973 
L 403.242512 317.420258 
L 404.189433 317.561217 
L 405.136354 317.696458 
L 406.083275 317.825694 
L 407.030196 317.948748 
L 407.977117 318.065555 
L 408.924038 318.17615 
L 409.870959 318.280665 
L 410.81788 318.379313 
L 411.764801 318.47237 
L 412.711721 318.560158 
L 413.658642 318.643031 
L 414.605563 318.721351 
L 415.552484 318.795479 
L 416.499405 318.865756 
L 417.446326 318.932494 
L 418.393247 318.995969 
L 419.340168 319.056413 
L 420.287089 319.114016 
L 421.23401 319.168919 
L 422.180931 319.221226 
L 423.127852 319.271001 
L 424.074773 319.318279 
L 425.021693 319.363071 
L 425.968614 319.405371 
L 426.915535 319.445167 
L 427.862456 319.482442 
L 428.809377 319.517184 
L 429.756298 319.549393 
L 430.703219 319.579079 
L 431.65014 319.606268 
L 432.597061 319.631004 
L 433.543982 319.653347 
L 434.490903 319.673373 
L 435.437824 319.691172 
L 436.384745 319.706843 
L 437.331665 319.720496 
L 438.278586 319.732242 
L 439.225507 319.742195 
L 440.172428 319.750466 
L 441.119349 319.757161 
L 442.06627 319.762376 
L 443.013191 319.7662 
L 443.960112 319.768706 
L 444.907033 319.769959 
L 445.853954 319.770008 
L 446.800875 319.76889 
L 447.747796 319.766635 
L 448.694717 319.763259 
L 449.641637 319.758774 
L 450.588558 319.753189 
L 451.535479 319.746512 
L 452.4824 319.738755 
L 453.429321 319.729936 
L 454.376242 319.720084 
L 455.323163 319.709243 
L 456.270084 319.697475 
L 457.217005 319.68486 
L 458.163926 319.671501 
L 459.110847 319.657525 
L 460.057768 319.643081 
L 461.004689 319.62834 
L 461.95161 319.613496 
L 462.89853 319.598756 
L 463.845451 319.584345 
L 464.792372 319.570494 
L 465.739293 319.557437 
L 466.686214 319.545406 
L 467.633135 319.534622 
L 468.580056 319.525289 
L 469.526977 319.517588 
L 470.473898 319.511674 
L 471.420819 319.507666 
L 472.36774 319.505645 
L 473.314661 319.505654 
L 474.261582 319.507692 
L 475.208502 319.511718 
L 476.155423 319.517649 
L 477.102344 319.525366 
L 478.049265 319.534716 
L 478.996186 319.545517 
L 479.943107 319.557566 
L 480.890028 319.570641 
L 481.836949 319.584514 
L 482.78387 319.598951 
L 483.730791 319.613724 
L 484.677712 319.628613 
L 485.624633 319.643412 
L 486.571554 319.657934 
L 487.518474 319.672015 
L 488.465395 319.685514 
L 489.412316 319.698316 
L 490.359237 319.710333 
L 491.306158 319.7215 
L 492.253079 319.731777 
L 493.2 319.741149 
L 493.2 319.801356 
z
" clip-path="url(#p31988b45ed)" style="fill: #ccb974; opacity: 0.75"/>
   </g>
   <g id="patch_8">
    <path d="M 115.378551 377.733559 
L 115.378551 377.733559 
L 116.325472 377.733559 
L 117.272393 377.733559 
L 118.219314 377.733559 
L 119.166235 377.733559 
L 120.113156 377.733559 
L 121.060077 377.733559 
L 122.006998 377.733559 
L 122.953919 377.733559 
L 123.90084 377.733559 
L 124.847761 377.733559 
L 125.794681 377.733559 
L 126.741602 377.733559 
L 127.688523 377.733559 
L 128.635444 377.733559 
L 129.582365 377.733559 
L 130.529286 377.733559 
L 131.476207 377.733559 
L 132.423128 377.733559 
L 133.370049 377.733559 
L 134.31697 377.733559 
L 135.263891 377.733559 
L 136.210812 377.733559 
L 137.157733 377.733559 
L 138.104653 377.733559 
L 139.051574 377.733559 
L 139.998495 377.733559 
L 140.945416 377.733559 
L 141.892337 377.733559 
L 142.839258 377.733559 
L 143.786179 377.733559 
L 144.7331 377.733559 
L 145.680021 377.733559 
L 146.626942 377.733559 
L 147.573863 377.733559 
L 148.520784 377.733559 
L 149.467705 377.733559 
L 150.414625 377.733559 
L 151.361546 377.733559 
L 152.308467 377.733559 
L 153.255388 377.733559 
L 154.202309 377.733559 
L 155.14923 377.733559 
L 156.096151 377.733559 
L 157.043072 377.733559 
L 157.989993 377.733559 
L 158.936914 377.733559 
L 159.883835 377.733559 
L 160.830756 377.733559 
L 161.777677 377.733559 
L 162.724598 377.733559 
L 163.671518 377.733559 
L 164.618439 377.733559 
L 165.56536 377.733559 
L 166.512281 377.733559 
L 167.459202 377.733559 
L 168.406123 377.733559 
L 169.353044 377.733559 
L 170.299965 377.733559 
L 171.246886 377.733559 
L 172.193807 377.733559 
L 173.140728 377.733558 
L 174.087649 377.733558 
L 175.03457 377.733557 
L 175.98149 377.733555 
L 176.928411 377.733553 
L 177.875332 377.73355 
L 178.822253 377.733546 
L 179.769174 377.73354 
L 180.716095 377.733531 
L 181.663016 377.733518 
L 182.609937 377.7335 
L 183.556858 377.733475 
L 184.503779 377.73344 
L 185.4507 377.733392 
L 186.397621 377.733327 
L 187.344542 377.733239 
L 188.291462 377.73312 
L 189.238383 377.732962 
L 190.185304 377.732754 
L 191.132225 377.73248 
L 192.079146 377.732123 
L 193.026067 377.731663 
L 193.972988 377.731073 
L 194.919909 377.730324 
L 195.86683 377.729381 
L 196.813751 377.728202 
L 197.760672 377.72674 
L 198.707593 377.724942 
L 199.654514 377.722749 
L 200.601434 377.720097 
L 201.548355 377.716916 
L 202.495276 377.713132 
L 203.442197 377.708668 
L 204.389118 377.703446 
L 205.336039 377.697388 
L 206.28296 377.690419 
L 207.229881 377.68247 
L 208.176802 377.673478 
L 209.123723 377.66339 
L 210.070644 377.652168 
L 211.017565 377.639785 
L 211.964486 377.626229 
L 212.911406 377.611507 
L 213.858327 377.595635 
L 214.805248 377.578646 
L 215.752169 377.560581 
L 216.69909 377.541484 
L 217.646011 377.521397 
L 218.592932 377.500354 
L 219.539853 377.478369 
L 220.486774 377.455429 
L 221.433695 377.431481 
L 222.380616 377.406427 
L 223.327537 377.380111 
L 224.274458 377.352311 
L 225.221378 377.322739 
L 226.168299 377.291031 
L 227.11522 377.256754 
L 228.062141 377.219408 
L 229.009062 377.178431 
L 229.955983 377.13322 
L 230.902904 377.083141 
L 231.849825 377.027553 
L 232.796746 376.96583 
L 233.743667 376.897391 
L 234.690588 376.821723 
L 235.637509 376.738409 
L 236.58443 376.647156 
L 237.531351 376.547817 
L 238.478271 376.440405 
L 239.425192 376.325112 
L 240.372113 376.202313 
L 241.319034 376.07256 
L 242.265955 375.936579 
L 243.212876 375.795247 
L 244.159797 375.649571 
L 245.106718 375.500654 
L 246.053639 375.349657 
L 247.00056 375.197757 
L 247.947481 375.046106 
L 248.894402 374.895779 
L 249.841323 374.747737 
L 250.788243 374.602782 
L 251.735164 374.461522 
L 252.682085 374.32434 
L 253.629006 374.191373 
L 254.575927 374.062493 
L 255.522848 373.937303 
L 256.469769 373.815131 
L 257.41669 373.695043 
L 258.363611 373.575855 
L 259.310532 373.45615 
L 260.257453 373.334302 
L 261.204374 373.208503 
L 262.151295 373.076794 
L 263.098215 372.937095 
L 264.045136 372.787237 
L 264.992057 372.624998 
L 265.938978 372.448133 
L 266.885899 372.254413 
L 267.83282 372.041662 
L 268.779741 371.80779 
L 269.726662 371.550834 
L 270.673583 371.268998 
L 271.620504 370.960691 
L 272.567425 370.624566 
L 273.514346 370.259563 
L 274.461267 369.864939 
L 275.408187 369.440306 
L 276.355108 368.985656 
L 277.302029 368.501381 
L 278.24895 367.988289 
L 279.195871 367.447601 
L 280.142792 366.880949 
L 281.089713 366.290354 
L 282.036634 365.678197 
L 282.983555 365.04718 
L 283.930476 364.400276 
L 284.877397 363.740672 
L 285.824318 363.071708 
L 286.771239 362.396809 
L 287.718159 361.71942 
L 288.66508 361.042942 
L 289.612001 360.370664 
L 290.558922 359.705714 
L 291.505843 359.051006 
L 292.452764 358.409199 
L 293.399685 357.782663 
L 294.346606 357.173459 
L 295.293527 356.583319 
L 296.240448 356.01364 
L 297.187369 355.465483 
L 298.13429 354.939578 
L 299.081211 354.436331 
L 300.028131 353.955844 
L 300.975052 353.497923 
L 301.921973 353.062104 
L 302.868894 352.647675 
L 303.815815 352.253694 
L 304.762736 351.87902 
L 305.709657 351.522336 
L 306.656578 351.182184 
L 307.603499 350.856987 
L 308.55042 350.54509 
L 309.497341 350.244785 
L 310.444262 349.95435 
L 311.391183 349.672081 
L 312.338104 349.396325 
L 313.285024 349.125512 
L 314.231945 348.858185 
L 315.178866 348.593029 
L 316.125787 348.328896 
L 317.072708 348.064826 
L 318.019629 347.800068 
L 318.96655 347.534094 
L 319.913471 347.266613 
L 320.860392 346.997581 
L 321.807313 346.727203 
L 322.754234 346.455935 
L 323.701155 346.184485 
L 324.648076 345.913803 
L 325.594996 345.645068 
L 326.541917 345.379668 
L 327.488838 345.119184 
L 328.435759 344.865348 
L 329.38268 344.620016 
L 330.329601 344.385122 
L 331.276522 344.162629 
L 332.223443 343.954482 
L 333.170364 343.762553 
L 334.117285 343.588588 
L 335.064206 343.434161 
L 336.011127 343.300622 
L 336.958048 343.189065 
L 337.904968 343.100297 
L 338.851889 343.034823 
L 339.79881 342.992838 
L 340.745731 342.974237 
L 341.692652 342.978639 
L 342.639573 343.005413 
L 343.586494 343.053731 
L 344.533415 343.122612 
L 345.480336 343.210982 
L 346.427257 343.317735 
L 347.374178 343.44179 
L 348.321099 343.582149 
L 349.26802 343.737945 
L 350.21494 343.908483 
L 351.161861 344.093267 
L 352.108782 344.292026 
L 353.055703 344.504709 
L 354.002624 344.731489 
L 354.949545 344.972737 
L 355.896466 345.228995 
L 356.843387 345.500942 
L 357.790308 345.789344 
L 358.737229 346.095011 
L 359.68415 346.418741 
L 360.631071 346.761274 
L 361.577992 347.123242 
L 362.524912 347.505128 
L 363.471833 347.907227 
L 364.418754 348.329624 
L 365.365675 348.772168 
L 366.312596 349.234469 
L 367.259517 349.715894 
L 368.206438 350.215584 
L 369.153359 350.732466 
L 370.10028 351.265282 
L 371.047201 351.812623 
L 371.994122 352.372961 
L 372.941043 352.944688 
L 373.887964 353.526156 
L 374.834884 354.115708 
L 375.781805 354.711713 
L 376.728726 355.312589 
L 377.675647 355.916826 
L 378.622568 356.522999 
L 379.569489 357.129774 
L 380.51641 357.735909 
L 381.463331 358.34025 
L 382.410252 358.941723 
L 383.357173 359.539323 
L 384.304094 360.132104 
L 385.251015 360.719167 
L 386.197936 361.29965 
L 387.144857 361.872729 
L 388.091777 362.437611 
L 389.038698 362.993539 
L 389.985619 363.539801 
L 390.93254 364.075739 
L 391.879461 364.60076 
L 392.826382 365.114352 
L 393.773303 365.616093 
L 394.720224 366.105667 
L 395.667145 366.582862 
L 396.614066 367.047579 
L 397.560987 367.49982 
L 398.507908 367.939687 
L 399.454829 368.367359 
L 400.401749 368.783072 
L 401.34867 369.187099 
L 402.295591 369.579721 
L 403.242512 369.961198 
L 404.189433 370.331749 
L 405.136354 370.69153 
L 406.083275 371.040614 
L 407.030196 371.378987 
L 407.977117 371.706543 
L 408.924038 372.023089 
L 409.870959 372.328359 
L 410.81788 372.622031 
L 411.764801 372.903755 
L 412.711721 373.173176 
L 413.658642 373.429966 
L 414.605563 373.673851 
L 415.552484 373.90464 
L 416.499405 374.122244 
L 417.446326 374.326696 
L 418.393247 374.51816 
L 419.340168 374.696934 
L 420.287089 374.863448 
L 421.23401 375.018254 
L 422.180931 375.162006 
L 423.127852 375.295444 
L 424.074773 375.419366 
L 425.021693 375.534606 
L 425.968614 375.642004 
L 426.915535 375.742381 
L 427.862456 375.83652 
L 428.809377 375.925143 
L 429.756298 376.008897 
L 430.703219 376.088347 
L 431.65014 376.163965 
L 432.597061 376.236134 
L 433.543982 376.30515 
L 434.490903 376.371228 
L 435.437824 376.434516 
L 436.384745 376.495101 
L 437.331665 376.553029 
L 438.278586 376.608315 
L 439.225507 376.660955 
L 440.172428 376.710944 
L 441.119349 376.758281 
L 442.06627 376.802983 
L 443.013191 376.845089 
L 443.960112 376.884665 
L 444.907033 376.921811 
L 445.853954 376.956654 
L 446.800875 376.989353 
L 447.747796 377.020095 
L 448.694717 377.049086 
L 449.641637 377.076551 
L 450.588558 377.102723 
L 451.535479 377.127838 
L 452.4824 377.152128 
L 453.429321 377.175811 
L 454.376242 377.199088 
L 455.323163 377.222134 
L 456.270084 377.245096 
L 457.217005 377.268086 
L 458.163926 377.29118 
L 459.110847 377.314417 
L 460.057768 377.337799 
L 461.004689 377.361297 
L 461.95161 377.384845 
L 462.89853 377.408353 
L 463.845451 377.431711 
L 464.792372 377.454788 
L 465.739293 377.477447 
L 466.686214 377.499547 
L 467.633135 377.520946 
L 468.580056 377.541514 
L 469.526977 377.561131 
L 470.473898 377.579693 
L 471.420819 377.597116 
L 472.36774 377.613338 
L 473.314661 377.628318 
L 474.261582 377.642038 
L 475.208502 377.654499 
L 476.155423 377.665723 
L 477.102344 377.675749 
L 478.049265 377.684632 
L 478.996186 377.692436 
L 479.943107 377.699235 
L 480.890028 377.705112 
L 481.836949 377.710148 
L 482.78387 377.714428 
L 483.730791 377.718038 
L 484.677712 377.721056 
L 485.624633 377.723559 
L 486.571554 377.725618 
L 487.518474 377.727299 
L 488.465395 377.72866 
L 489.412316 377.729752 
L 490.359237 377.730623 
L 491.306158 377.73131 
L 492.253079 377.73185 
L 493.2 377.732269 
L 493.2 377.733559 
z
" clip-path="url(#p31988b45ed)" style="fill: #64b5cd; opacity: 0.75"/>
   </g>
   <g id="matplotlib.axis_1">
    <g id="xtick_1">
     <g id="line2d_1">
      <defs>
       <path id="mc5e0b8dabf" d="M 0 0 
L 0 3.5 
" style="stroke: #000000; stroke-width: 0.8"/>
      </defs>
      <g>
       <use xlink:href="#mc5e0b8dabf" x="182.032163" y="389.32" style="stroke: #000000; stroke-width: 0.8"/>
      </g>
     </g>
     <g id="text_1">
      <!-- 1 -->
      <g transform="translate(178.850913 403.918437) scale(0.1 -0.1)">
       <defs>
        <path id="DejaVuSans-31" d="M 794 531 
L 1825 531 
L 1825 4091 
L 703 3866 
L 703 4441 
L 1819 4666 
L 2450 4666 
L 2450 531 
L 3481 531 
L 3481 0 
L 794 0 
L 794 531 
z
" transform="scale(0.015625)"/>
       </defs>
       <use xlink:href="#DejaVuSans-31"/>
      </g>
     </g>
    </g>
    <g id="xtick_2">
     <g id="line2d_2">
      <g>
       <use xlink:href="#mc5e0b8dabf" x="249.907531" y="389.32" style="stroke: #000000; stroke-width: 0.8"/>
      </g>
     </g>
     <g id="text_2">
      <!-- 2 -->
      <g transform="translate(246.726281 403.918437) scale(0.1 -0.1)">
       <defs>
        <path id="DejaVuSans-32" d="M 1228 531 
L 3431 531 
L 3431 0 
L 469 0 
L 469 531 
Q 828 903 1448 1529 
Q 2069 2156 2228 2338 
Q 2531 2678 2651 2914 
Q 2772 3150 2772 3378 
Q 2772 3750 2511 3984 
Q 2250 4219 1831 4219 
Q 1534 4219 1204 4116 
Q 875 4013 500 3803 
L 500 4441 
Q 881 4594 1212 4672 
Q 1544 4750 1819 4750 
Q 2544 4750 2975 4387 
Q 3406 4025 3406 3419 
Q 3406 3131 3298 2873 
Q 3191 2616 2906 2266 
Q 2828 2175 2409 1742 
Q 1991 1309 1228 531 
z
" transform="scale(0.015625)"/>
       </defs>
       <use xlink:href="#DejaVuSans-32"/>
      </g>
     </g>
    </g>
    <g id="xtick_3">
     <g id="line2d_3">
      <g>
       <use xlink:href="#mc5e0b8dabf" x="317.782899" y="389.32" style="stroke: #000000; stroke-width: 0.8"/>
      </g>
     </g>
     <g id="text_3">
      <!-- 3 -->
      <g transform="translate(314.601649 403.918437) scale(0.1 -0.1)">
       <defs>
        <path id="DejaVuSans-33" d="M 2597 2516 
Q 3050 2419 3304 2112 
Q 3559 1806 3559 1356 
Q 3559 666 3084 287 
Q 2609 -91 1734 -91 
Q 1441 -91 1130 -33 
Q 819 25 488 141 
L 488 750 
Q 750 597 1062 519 
Q 1375 441 1716 441 
Q 2309 441 2620 675 
Q 2931 909 2931 1356 
Q 2931 1769 2642 2001 
Q 2353 2234 1838 2234 
L 1294 2234 
L 1294 2753 
L 1863 2753 
Q 2328 2753 2575 2939 
Q 2822 3125 2822 3475 
Q 2822 3834 2567 4026 
Q 2313 4219 1838 4219 
Q 1578 4219 1281 4162 
Q 984 4106 628 3988 
L 628 4550 
Q 988 4650 1302 4700 
Q 1616 4750 1894 4750 
Q 2613 4750 3031 4423 
Q 3450 4097 3450 3541 
Q 3450 3153 3228 2886 
Q 3006 2619 2597 2516 
z
" transform="scale(0.015625)"/>
       </defs>
       <use xlink:href="#DejaVuSans-33"/>
      </g>
     </g>
    </g>
    <g id="xtick_4">
     <g id="line2d_4">
      <g>
       <use xlink:href="#mc5e0b8dabf" x="385.658267" y="389.32" style="stroke: #000000; stroke-width: 0.8"/>
      </g>
     </g>
     <g id="text_4">
      <!-- 4 -->
      <g transform="translate(382.477017 403.918437) scale(0.1 -0.1)">
       <defs>
        <path id="DejaVuSans-34" d="M 2419 4116 
L 825 1625 
L 2419 1625 
L 2419 4116 
z
M 2253 4666 
L 3047 4666 
L 3047 1625 
L 3713 1625 
L 3713 1100 
L 3047 1100 
L 3047 0 
L 2419 0 
L 2419 1100 
L 313 1100 
L 313 1709 
L 2253 4666 
z
" transform="scale(0.015625)"/>
       </defs>
       <use xlink:href="#DejaVuSans-34"/>
      </g>
     </g>
    </g>
    <g id="xtick_5">
     <g id="line2d_5">
      <g>
       <use xlink:href="#mc5e0b8dabf" x="453.533635" y="389.32" style="stroke: #000000; stroke-width: 0.8"/>
      </g>
     </g>
     <g id="text_5">
      <!-- 5 -->
      <g transform="translate(450.352385 403.918437) scale(0.1 -0.1)">
       <defs>
        <path id="DejaVuSans-35" d="M 691 4666 
L 3169 4666 
L 3169 4134 
L 1269 4134 
L 1269 2991 
Q 1406 3038 1543 3061 
Q 1681 3084 1819 3084 
Q 2600 3084 3056 2656 
Q 3513 2228 3513 1497 
Q 3513 744 3044 326 
Q 2575 -91 1722 -91 
Q 1428 -91 1123 -41 
Q 819 9 494 109 
L 494 744 
Q 775 591 1075 516 
Q 1375 441 1709 441 
Q 2250 441 2565 725 
Q 2881 1009 2881 1497 
Q 2881 1984 2565 2268 
Q 2250 2553 1709 2553 
Q 1456 2553 1204 2497 
Q 953 2441 691 2322 
L 691 4666 
z
" transform="scale(0.015625)"/>
       </defs>
       <use xlink:href="#DejaVuSans-35"/>
      </g>
     </g>
    </g>
    <g id="text_6">
     <!-- log expression -->
     <g transform="translate(264.49076 418.356406) scale(0.11 -0.11)">
      <defs>
       <path id="DejaVuSans-6c" d="M 603 4863 
L 1178 4863 
L 1178 0 
L 603 0 
L 603 4863 
z
" transform="scale(0.015625)"/>
       <path id="DejaVuSans-6f" d="M 1959 3097 
Q 1497 3097 1228 2736 
Q 959 2375 959 1747 
Q 959 1119 1226 758 
Q 1494 397 1959 397 
Q 2419 397 2687 759 
Q 2956 1122 2956 1747 
Q 2956 2369 2687 2733 
Q 2419 3097 1959 3097 
z
M 1959 3584 
Q 2709 3584 3137 3096 
Q 3566 2609 3566 1747 
Q 3566 888 3137 398 
Q 2709 -91 1959 -91 
Q 1206 -91 779 398 
Q 353 888 353 1747 
Q 353 2609 779 3096 
Q 1206 3584 1959 3584 
z
" transform="scale(0.015625)"/>
       <path id="DejaVuSans-67" d="M 2906 1791 
Q 2906 2416 2648 2759 
Q 2391 3103 1925 3103 
Q 1463 3103 1205 2759 
Q 947 2416 947 1791 
Q 947 1169 1205 825 
Q 1463 481 1925 481 
Q 2391 481 2648 825 
Q 2906 1169 2906 1791 
z
M 3481 434 
Q 3481 -459 3084 -895 
Q 2688 -1331 1869 -1331 
Q 1566 -1331 1297 -1286 
Q 1028 -1241 775 -1147 
L 775 -588 
Q 1028 -725 1275 -790 
Q 1522 -856 1778 -856 
Q 2344 -856 2625 -561 
Q 2906 -266 2906 331 
L 2906 616 
Q 2728 306 2450 153 
Q 2172 0 1784 0 
Q 1141 0 747 490 
Q 353 981 353 1791 
Q 353 2603 747 3093 
Q 1141 3584 1784 3584 
Q 2172 3584 2450 3431 
Q 2728 3278 2906 2969 
L 2906 3500 
L 3481 3500 
L 3481 434 
z
" transform="scale(0.015625)"/>
       <path id="DejaVuSans-20" transform="scale(0.015625)"/>
       <path id="DejaVuSans-65" d="M 3597 1894 
L 3597 1613 
L 953 1613 
Q 991 1019 1311 708 
Q 1631 397 2203 397 
Q 2534 397 2845 478 
Q 3156 559 3463 722 
L 3463 178 
Q 3153 47 2828 -22 
Q 2503 -91 2169 -91 
Q 1331 -91 842 396 
Q 353 884 353 1716 
Q 353 2575 817 3079 
Q 1281 3584 2069 3584 
Q 2775 3584 3186 3129 
Q 3597 2675 3597 1894 
z
M 3022 2063 
Q 3016 2534 2758 2815 
Q 2500 3097 2075 3097 
Q 1594 3097 1305 2825 
Q 1016 2553 972 2059 
L 3022 2063 
z
" transform="scale(0.015625)"/>
       <path id="DejaVuSans-78" d="M 3513 3500 
L 2247 1797 
L 3578 0 
L 2900 0 
L 1881 1375 
L 863 0 
L 184 0 
L 1544 1831 
L 300 3500 
L 978 3500 
L 1906 2253 
L 2834 3500 
L 3513 3500 
z
" transform="scale(0.015625)"/>
       <path id="DejaVuSans-70" d="M 1159 525 
L 1159 -1331 
L 581 -1331 
L 581 3500 
L 1159 3500 
L 1159 2969 
Q 1341 3281 1617 3432 
Q 1894 3584 2278 3584 
Q 2916 3584 3314 3078 
Q 3713 2572 3713 1747 
Q 3713 922 3314 415 
Q 2916 -91 2278 -91 
Q 1894 -91 1617 61 
Q 1341 213 1159 525 
z
M 3116 1747 
Q 3116 2381 2855 2742 
Q 2594 3103 2138 3103 
Q 1681 3103 1420 2742 
Q 1159 2381 1159 1747 
Q 1159 1113 1420 752 
Q 1681 391 2138 391 
Q 2594 391 2855 752 
Q 3116 1113 3116 1747 
z
" transform="scale(0.015625)"/>
       <path id="DejaVuSans-72" d="M 2631 2963 
Q 2534 3019 2420 3045 
Q 2306 3072 2169 3072 
Q 1681 3072 1420 2755 
Q 1159 2438 1159 1844 
L 1159 0 
L 581 0 
L 581 3500 
L 1159 3500 
L 1159 2956 
Q 1341 3275 1631 3429 
Q 1922 3584 2338 3584 
Q 2397 3584 2469 3576 
Q 2541 3569 2628 3553 
L 2631 2963 
z
" transform="scale(0.015625)"/>
       <path id="DejaVuSans-73" d="M 2834 3397 
L 2834 2853 
Q 2591 2978 2328 3040 
Q 2066 3103 1784 3103 
Q 1356 3103 1142 2972 
Q 928 2841 928 2578 
Q 928 2378 1081 2264 
Q 1234 2150 1697 2047 
L 1894 2003 
Q 2506 1872 2764 1633 
Q 3022 1394 3022 966 
Q 3022 478 2636 193 
Q 2250 -91 1575 -91 
Q 1294 -91 989 -36 
Q 684 19 347 128 
L 347 722 
Q 666 556 975 473 
Q 1284 391 1588 391 
Q 1994 391 2212 530 
Q 2431 669 2431 922 
Q 2431 1156 2273 1281 
Q 2116 1406 1581 1522 
L 1381 1569 
Q 847 1681 609 1914 
Q 372 2147 372 2553 
Q 372 3047 722 3315 
Q 1072 3584 1716 3584 
Q 2034 3584 2315 3537 
Q 2597 3491 2834 3397 
z
" transform="scale(0.015625)"/>
       <path id="DejaVuSans-69" d="M 603 3500 
L 1178 3500 
L 1178 0 
L 603 0 
L 603 3500 
z
M 603 4863 
L 1178 4863 
L 1178 4134 
L 603 4134 
L 603 4863 
z
" transform="scale(0.015625)"/>
       <path id="DejaVuSans-6e" d="M 3513 2113 
L 3513 0 
L 2938 0 
L 2938 2094 
Q 2938 2591 2744 2837 
Q 2550 3084 2163 3084 
Q 1697 3084 1428 2787 
Q 1159 2491 1159 1978 
L 1159 0 
L 581 0 
L 581 3500 
L 1159 3500 
L 1159 2956 
Q 1366 3272 1645 3428 
Q 1925 3584 2291 3584 
Q 2894 3584 3203 3211 
Q 3513 2838 3513 2113 
z
" transform="scale(0.015625)"/>
      </defs>
      <use xlink:href="#DejaVuSans-6c"/>
      <use xlink:href="#DejaVuSans-6f" transform="translate(27.783203 0)"/>
      <use xlink:href="#DejaVuSans-67" transform="translate(88.964844 0)"/>
      <use xlink:href="#DejaVuSans-20" transform="translate(152.441406 0)"/>
      <use xlink:href="#DejaVuSans-65" transform="translate(184.228516 0)"/>
      <use xlink:href="#DejaVuSans-78" transform="translate(244.001953 0)"/>
      <use xlink:href="#DejaVuSans-70" transform="translate(303.181641 0)"/>
      <use xlink:href="#DejaVuSans-72" transform="translate(366.658203 0)"/>
      <use xlink:href="#DejaVuSans-65" transform="translate(405.521484 0)"/>
      <use xlink:href="#DejaVuSans-73" transform="translate(467.044922 0)"/>
      <use xlink:href="#DejaVuSans-73" transform="translate(519.144531 0)"/>
      <use xlink:href="#DejaVuSans-69" transform="translate(571.244141 0)"/>
      <use xlink:href="#DejaVuSans-6f" transform="translate(599.027344 0)"/>
      <use xlink:href="#DejaVuSans-6e" transform="translate(660.208984 0)"/>
     </g>
    </g>
   </g>
   <g id="matplotlib.axis_2"/>
   <g id="line2d_6">
    <path d="M 115.378551 88.013807 
L 145.680021 87.603601 
L 151.361546 87.344487 
L 156.096151 86.92079 
L 160.830756 86.286311 
L 165.56536 85.445373 
L 170.299965 84.401067 
L 175.03457 83.151722 
L 179.769174 81.702177 
L 184.503779 80.055411 
L 189.238383 78.181827 
L 193.026067 76.477464 
L 196.813751 74.566545 
L 201.548355 71.920948 
L 223.327537 59.296333 
L 227.11522 57.426906 
L 230.902904 55.833759 
L 233.743667 54.866162 
L 236.58443 54.118163 
L 239.425192 53.606201 
L 242.265955 53.344219 
L 245.106718 53.340967 
L 247.947481 53.590968 
L 250.788243 54.063364 
L 254.575927 54.927589 
L 261.204374 56.476246 
L 264.992057 57.073775 
L 268.779741 57.426424 
L 275.408187 57.964333 
L 278.24895 58.420153 
L 281.089713 59.120968 
L 283.930476 60.090655 
L 286.771239 61.311697 
L 290.558922 63.250187 
L 295.293527 65.996617 
L 301.921973 70.142217 
L 309.497341 74.886938 
L 313.285024 77.033905 
L 317.072708 78.912098 
L 320.860392 80.499749 
L 324.648076 81.832012 
L 329.38268 83.226919 
L 334.117285 84.399507 
L 338.851889 85.377171 
L 343.586494 86.157096 
L 349.26802 86.8425 
L 355.896466 87.368561 
L 363.471833 87.73979 
L 372.941043 87.981219 
L 386.197936 88.067046 
L 476.155423 88.072542 
L 493.2 88.072542 
L 493.2 88.072542 
" clip-path="url(#p31988b45ed)" style="fill: none; stroke: #4c72b0; stroke-opacity: 0.95; stroke-width: 1.5; stroke-linecap: square"/>
   </g>
   <g id="line2d_7">
    <path d="M 115.378551 88.072542 
L 493.2 88.072542 
" clip-path="url(#p31988b45ed)" style="fill: none; stroke: #ffffff; stroke-opacity: 0.5; stroke-width: 0.6; stroke-linecap: square"/>
   </g>
   <g id="line2d_8">
    <path d="M 115.378551 146.004746 
L 160.830756 145.90187 
L 170.299965 145.657609 
L 176.928411 145.299352 
L 182.609937 144.772117 
L 187.344542 144.127398 
L 193.026067 143.12568 
L 215.752169 138.606804 
L 220.486774 137.432413 
L 224.274458 136.300819 
L 229.009062 134.623607 
L 233.743667 132.671513 
L 238.478271 130.461766 
L 243.212876 127.987737 
L 247.947481 125.265345 
L 260.257453 117.983785 
L 264.045136 116.032094 
L 267.83282 114.326147 
L 270.673583 113.242234 
L 273.514346 112.361456 
L 276.355108 111.719362 
L 279.195871 111.344258 
L 282.036634 111.245424 
L 284.877397 111.405385 
L 287.718159 111.780296 
L 291.505843 112.508115 
L 300.028131 114.469471 
L 308.55042 116.578733 
L 313.285024 118.014567 
L 317.072708 119.38496 
L 320.860392 120.959462 
L 325.594996 123.15565 
L 347.374178 133.597254 
L 354.002624 136.504278 
L 358.737229 138.364359 
L 362.524912 139.656334 
L 366.312596 140.746055 
L 370.10028 141.635691 
L 374.834884 142.514515 
L 381.463331 143.483675 
L 390.93254 144.647598 
L 397.560987 145.250637 
L 403.242512 145.543099 
L 410.81788 145.666215 
L 431.65014 145.858463 
L 447.747796 145.993417 
L 493.2 146.004746 
L 493.2 146.004746 
" clip-path="url(#p31988b45ed)" style="fill: none; stroke: #55a868; stroke-opacity: 0.95; stroke-width: 1.5; stroke-linecap: square"/>
   </g>
   <g id="line2d_9">
    <path d="M 115.378551 146.004746 
L 493.2 146.004746 
" clip-path="url(#p31988b45ed)" style="fill: none; stroke: #ffffff; stroke-opacity: 0.5; stroke-width: 0.6; stroke-linecap: square"/>
   </g>
   <g id="line2d_10">
    <path d="M 115.378551 203.936949 
L 204.389118 203.828228 
L 211.964486 203.573713 
L 219.539853 203.103098 
L 231.849825 202.074317 
L 239.425192 201.253048 
L 246.053639 200.322036 
L 251.735164 199.336569 
L 256.469769 198.307998 
L 260.257453 197.27565 
L 264.045136 196.011204 
L 267.83282 194.509259 
L 272.567425 192.351901 
L 279.195871 189.016799 
L 289.612001 183.747481 
L 294.346606 181.620995 
L 299.081211 179.744388 
L 314.231945 174.031662 
L 321.807313 171.000244 
L 324.648076 170.100561 
L 327.488838 169.470468 
L 329.38268 169.239071 
L 331.276522 169.177627 
L 333.170364 169.293721 
L 335.064206 169.586167 
L 336.958048 170.04513 
L 339.79881 171.006485 
L 342.639573 172.224754 
L 346.427257 174.108184 
L 352.108782 177.224457 
L 357.790308 180.590644 
L 371.047201 188.747789 
L 373.887964 190.160483 
L 376.728726 191.345625 
L 379.569489 192.308341 
L 383.357173 193.311226 
L 389.038698 194.485504 
L 396.614066 196.037694 
L 402.295591 197.424351 
L 417.446326 201.322392 
L 422.180931 202.205144 
L 426.915535 202.856185 
L 432.597061 203.378303 
L 439.225507 203.719965 
L 447.747796 203.892613 
L 464.792372 203.936556 
L 493.2 203.936949 
L 493.2 203.936949 
" clip-path="url(#p31988b45ed)" style="fill: none; stroke: #c44e52; stroke-opacity: 0.95; stroke-width: 1.5; stroke-linecap: square"/>
   </g>
   <g id="line2d_11">
    <path d="M 115.378551 203.936949 
L 493.2 203.936949 
" clip-path="url(#p31988b45ed)" style="fill: none; stroke: #ffffff; stroke-opacity: 0.5; stroke-width: 0.6; stroke-linecap: square"/>
   </g>
   <g id="line2d_12">
    <path d="M 115.378551 261.869139 
L 146.626942 261.770069 
L 158.936914 261.458609 
L 169.353044 261.260877 
L 179.769174 261.093453 
L 184.503779 260.795263 
L 189.238383 260.243764 
L 193.026067 259.594742 
L 196.813751 258.755002 
L 201.548355 257.449315 
L 207.229881 255.593102 
L 216.69909 252.447894 
L 221.433695 251.142981 
L 233.743667 247.979282 
L 237.531351 246.719768 
L 241.319034 245.255591 
L 245.106718 243.589572 
L 248.894402 241.717368 
L 252.682085 239.634134 
L 257.41669 236.782506 
L 264.992057 232.170553 
L 267.83282 230.656511 
L 270.673583 229.36788 
L 273.514346 228.352873 
L 276.355108 227.637873 
L 279.195871 227.227693 
L 282.036634 227.109831 
L 284.877397 227.26161 
L 287.718159 227.658224 
L 290.558922 228.279345 
L 293.399685 229.112399 
L 296.240448 230.151748 
L 299.081211 231.394314 
L 301.921973 232.833138 
L 305.709657 235.024685 
L 310.444262 238.07698 
L 318.019629 243.042568 
L 321.807313 245.259538 
L 325.594996 247.18872 
L 329.38268 248.841552 
L 334.117285 250.638606 
L 347.374178 255.276383 
L 352.108782 256.748783 
L 355.896466 257.727208 
L 359.68415 258.498928 
L 364.418754 259.205578 
L 371.047201 259.897218 
L 386.197936 261.1558 
L 393.773303 261.561888 
L 400.401749 261.694276 
L 410.81788 261.630658 
L 422.180931 261.613328 
L 457.217005 261.86866 
L 493.2 261.869153 
L 493.2 261.869153 
" clip-path="url(#p31988b45ed)" style="fill: none; stroke: #8172b2; stroke-opacity: 0.95; stroke-width: 1.5; stroke-linecap: square"/>
   </g>
   <g id="line2d_13">
    <path d="M 115.378551 261.869153 
L 493.2 261.869153 
" clip-path="url(#p31988b45ed)" style="fill: none; stroke: #ffffff; stroke-opacity: 0.5; stroke-width: 0.6; stroke-linecap: square"/>
   </g>
   <g id="line2d_14">
    <path d="M 115.378551 319.801356 
L 191.132225 319.697416 
L 204.389118 319.404003 
L 211.964486 319.059851 
L 216.69909 318.647809 
L 220.486774 318.136161 
L 224.274458 317.425506 
L 228.062141 316.502458 
L 231.849825 315.375955 
L 236.58443 313.733818 
L 250.788243 308.56508 
L 264.045136 304.279156 
L 267.83282 302.707505 
L 271.620504 300.884738 
L 275.408187 298.83557 
L 280.142792 296.029323 
L 291.505843 289.100799 
L 294.346606 287.655083 
L 297.187369 286.4768 
L 299.081211 285.872355 
L 300.975052 285.42854 
L 302.868894 285.151883 
L 304.762736 285.042034 
L 306.656578 285.091761 
L 309.497341 285.43447 
L 312.338104 286.038378 
L 316.125787 287.110377 
L 327.488838 290.577898 
L 332.223443 291.690765 
L 336.958048 292.548606 
L 344.533415 293.832434 
L 347.374178 294.538562 
L 350.21494 295.500879 
L 353.055703 296.770046 
L 355.896466 298.348581 
L 358.737229 300.187687 
L 363.471833 303.576694 
L 368.206438 306.919963 
L 371.047201 308.715115 
L 373.887964 310.276399 
L 376.728726 311.581174 
L 379.569489 312.639112 
L 382.410252 313.486142 
L 386.197936 314.378937 
L 392.826382 315.639407 
L 403.242512 317.420258 
L 408.924038 318.17615 
L 414.605563 318.721351 
L 422.180931 319.221226 
L 430.703219 319.579079 
L 440.172428 319.750466 
L 452.4824 319.738755 
L 480.890028 319.570641 
L 493.2 319.741149 
L 493.2 319.741149 
" clip-path="url(#p31988b45ed)" style="fill: none; stroke: #ccb974; stroke-opacity: 0.95; stroke-width: 1.5; stroke-linecap: square"/>
   </g>
   <g id="line2d_15">
    <path d="M 115.378551 319.801356 
L 493.2 319.801356 
" clip-path="url(#p31988b45ed)" style="fill: none; stroke: #ffffff; stroke-opacity: 0.5; stroke-width: 0.6; stroke-linecap: square"/>
   </g>
   <g id="line2d_16">
    <path d="M 115.378551 377.733559 
L 211.964486 377.626229 
L 225.221378 377.322739 
L 232.796746 376.96583 
L 237.531351 376.547817 
L 243.212876 375.795247 
L 258.363611 373.575855 
L 264.045136 372.787237 
L 267.83282 372.041662 
L 270.673583 371.268998 
L 273.514346 370.259563 
L 276.355108 368.985656 
L 279.195871 367.447601 
L 282.036634 365.678197 
L 286.771239 362.396809 
L 293.399685 357.782663 
L 297.187369 355.465483 
L 300.028131 353.955844 
L 302.868894 352.647675 
L 306.656578 351.182184 
L 311.391183 349.672081 
L 325.594996 345.645068 
L 331.276522 344.162629 
L 335.064206 343.434161 
L 337.904968 343.100297 
L 340.745731 342.974237 
L 343.586494 343.053731 
L 346.427257 343.317735 
L 350.21494 343.908483 
L 354.002624 344.731489 
L 357.790308 345.789344 
L 361.577992 347.123242 
L 364.418754 348.329624 
L 368.206438 350.215584 
L 371.994122 352.372961 
L 377.675647 355.916826 
L 387.144857 361.872729 
L 391.879461 364.60076 
L 396.614066 367.047579 
L 401.34867 369.187099 
L 406.083275 371.040614 
L 410.81788 372.622031 
L 414.605563 373.673851 
L 418.393247 374.51816 
L 422.180931 375.162006 
L 426.915535 375.742381 
L 433.543982 376.30515 
L 442.06627 376.802983 
L 451.535479 377.127838 
L 477.102344 377.675749 
L 493.2 377.732269 
L 493.2 377.732269 
" clip-path="url(#p31988b45ed)" style="fill: none; stroke: #64b5cd; stroke-opacity: 0.95; stroke-width: 1.5; stroke-linecap: square"/>
   </g>
   <g id="line2d_17">
    <path d="M 115.378551 377.733559 
L 493.2 377.733559 
" clip-path="url(#p31988b45ed)" style="fill: none; stroke: #ffffff; stroke-opacity: 0.5; stroke-width: 0.6; stroke-linecap: square"/>
   </g>
   <g id="patch_9">
    <path d="M 115.378551 389.32 
L 493.2 389.32 
" style="fill: none; stroke: #000000; stroke-width: 0.8; stroke-linejoin: miter; stroke-linecap: square"/>
   </g>
   <g id="text_7">
    <!-- Cluster 1 -->
    <g transform="translate(71.455252 83.304213) scale(0.09 -0.09)">
     <defs>
      <path id="DejaVuSans-43" d="M 4122 4306 
L 4122 3641 
Q 3803 3938 3442 4084 
Q 3081 4231 2675 4231 
Q 1875 4231 1450 3742 
Q 1025 3253 1025 2328 
Q 1025 1406 1450 917 
Q 1875 428 2675 428 
Q 3081 428 3442 575 
Q 3803 722 4122 1019 
L 4122 359 
Q 3791 134 3420 21 
Q 3050 -91 2638 -91 
Q 1578 -91 968 557 
Q 359 1206 359 2328 
Q 359 3453 968 4101 
Q 1578 4750 2638 4750 
Q 3056 4750 3426 4639 
Q 3797 4528 4122 4306 
z
" transform="scale(0.015625)"/>
      <path id="DejaVuSans-75" d="M 544 1381 
L 544 3500 
L 1119 3500 
L 1119 1403 
Q 1119 906 1312 657 
Q 1506 409 1894 409 
Q 2359 409 2629 706 
Q 2900 1003 2900 1516 
L 2900 3500 
L 3475 3500 
L 3475 0 
L 2900 0 
L 2900 538 
Q 2691 219 2414 64 
Q 2138 -91 1772 -91 
Q 1169 -91 856 284 
Q 544 659 544 1381 
z
M 1991 3584 
L 1991 3584 
z
" transform="scale(0.015625)"/>
      <path id="DejaVuSans-74" d="M 1172 4494 
L 1172 3500 
L 2356 3500 
L 2356 3053 
L 1172 3053 
L 1172 1153 
Q 1172 725 1289 603 
Q 1406 481 1766 481 
L 2356 481 
L 2356 0 
L 1766 0 
Q 1100 0 847 248 
Q 594 497 594 1153 
L 594 3053 
L 172 3053 
L 172 3500 
L 594 3500 
L 594 4494 
L 1172 4494 
z
" transform="scale(0.015625)"/>
     </defs>
     <use xlink:href="#DejaVuSans-43"/>
     <use xlink:href="#DejaVuSans-6c" transform="translate(69.824219 0)"/>
     <use xlink:href="#DejaVuSans-75" transform="translate(97.607422 0)"/>
     <use xlink:href="#DejaVuSans-73" transform="translate(160.986328 0)"/>
     <use xlink:href="#DejaVuSans-74" transform="translate(213.085938 0)"/>
     <use xlink:href="#DejaVuSans-65" transform="translate(252.294922 0)"/>
     <use xlink:href="#DejaVuSans-72" transform="translate(313.818359 0)"/>
     <use xlink:href="#DejaVuSans-20" transform="translate(354.931641 0)"/>
     <use xlink:href="#DejaVuSans-31" transform="translate(386.71875 0)"/>
    </g>
   </g>
   <g id="text_8">
    <!-- Cluster 2 -->
    <g transform="translate(71.455252 141.236417) scale(0.09 -0.09)">
     <use xlink:href="#DejaVuSans-43"/>
     <use xlink:href="#DejaVuSans-6c" transform="translate(69.824219 0)"/>
     <use xlink:href="#DejaVuSans-75" transform="translate(97.607422 0)"/>
     <use xlink:href="#DejaVuSans-73" transform="translate(160.986328 0)"/>
     <use xlink:href="#DejaVuSans-74" transform="translate(213.085938 0)"/>
     <use xlink:href="#DejaVuSans-65" transform="translate(252.294922 0)"/>
     <use xlink:href="#DejaVuSans-72" transform="translate(313.818359 0)"/>
     <use xlink:href="#DejaVuSans-20" transform="translate(354.931641 0)"/>
     <use xlink:href="#DejaVuSans-32" transform="translate(386.71875 0)"/>
    </g>
   </g>
   <g id="text_9">
    <!-- Cluster 3 -->
    <g transform="translate(71.455252 199.16862) scale(0.09 -0.09)">
     <use xlink:href="#DejaVuSans-43"/>
     <use xlink:href="#DejaVuSans-6c" transform="translate(69.824219 0)"/>
     <use xlink:href="#DejaVuSans-75" transform="translate(97.607422 0)"/>
     <use xlink:href="#DejaVuSans-73" transform="translate(160.986328 0)"/>
     <use xlink:href="#DejaVuSans-74" transform="translate(213.085938 0)"/>
     <use xlink:href="#DejaVuSans-65" transform="translate(252.294922 0)"/>
     <use xlink:href="#DejaVuSans-72" transform="translate(313.818359 0)"/>
     <use xlink:href="#DejaVuSans-20" transform="translate(354.931641 0)"/>
     <use xlink:href="#DejaVuSans-33" transform="translate(386.71875 0)"/>
    </g>
   </g>
   <g id="text_10">
    <!-- Cluster 4 -->
    <g transform="translate(71.455252 257.100824) scale(0.09 -0.09)">
     <use xlink:href="#DejaVuSans-43"/>
     <use xlink:href="#DejaVuSans-6c" transform="translate(69.824219 0)"/>
     <use xlink:href="#DejaVuSans-75" transform="translate(97.607422 0)"/>
     <use xlink:href="#DejaVuSans-73" transform="translate(160.986328 0)"/>
     <use xlink:href="#DejaVuSans-74" transform="translate(213.085938 0)"/>
     <use xlink:href="#DejaVuSans-65" transform="translate(252.294922 0)"/>
     <use xlink:href="#DejaVuSans-72" transform="translate(313.818359 0)"/>
     <use xlink:href="#DejaVuSans-20" transform="translate(354.931641 0)"/>
     <use xlink:href="#DejaVuSans-34" transform="translate(386.71875 0)"/>
    </g>
   </g>
   <g id="text_11">
    <!-- Cluster 5 -->
    <g transform="translate(71.455252 315.033027) scale(0.09 -0.09)">
     <use xlink:href="#DejaVuSans-43"/>
     <use xlink:href="#DejaVuSans-6c" transform="translate(69.824219 0)"/>
     <use xlink:href="#DejaVuSans-75" transform="translate(97.607422 0)"/>
     <use xlink:href="#DejaVuSans-73" transform="translate(160.986328 0)"/>
     <use xlink:href="#DejaVuSans-74" transform="translate(213.085938 0)"/>
     <use xlink:href="#DejaVuSans-65" transform="translate(252.294922 0)"/>
     <use xlink:href="#DejaVuSans-72" transform="translate(313.818359 0)"/>
     <use xlink:href="#DejaVuSans-20" transform="translate(354.931641 0)"/>
     <use xlink:href="#DejaVuSans-35" transform="translate(386.71875 0)"/>
    </g>
   </g>
   <g id="text_12">
    <!-- Cluster 6 -->
    <g transform="translate(71.455252 372.96523) scale(0.09 -0.09)">
     <defs>
      <path id="DejaVuSans-36" d="M 2113 2584 
Q 1688 2584 1439 2293 
Q 1191 2003 1191 1497 
Q 1191 994 1439 701 
Q 1688 409 2113 409 
Q 2538 409 2786 701 
Q 3034 994 3034 1497 
Q 3034 2003 2786 2293 
Q 2538 2584 2113 2584 
z
M 3366 4563 
L 3366 3988 
Q 3128 4100 2886 4159 
Q 2644 4219 2406 4219 
Q 1781 4219 1451 3797 
Q 1122 3375 1075 2522 
Q 1259 2794 1537 2939 
Q 1816 3084 2150 3084 
Q 2853 3084 3261 2657 
Q 3669 2231 3669 1497 
Q 3669 778 3244 343 
Q 2819 -91 2113 -91 
Q 1303 -91 875 529 
Q 447 1150 447 2328 
Q 447 3434 972 4092 
Q 1497 4750 2381 4750 
Q 2619 4750 2861 4703 
Q 3103 4656 3366 4563 
z
" transform="scale(0.015625)"/>
     </defs>
     <use xlink:href="#DejaVuSans-43"/>
     <use xlink:href="#DejaVuSans-6c" transform="translate(69.824219 0)"/>
     <use xlink:href="#DejaVuSans-75" transform="translate(97.607422 0)"/>
     <use xlink:href="#DejaVuSans-73" transform="translate(160.986328 0)"/>
     <use xlink:href="#DejaVuSans-74" transform="translate(213.085938 0)"/>
     <use xlink:href="#DejaVuSans-65" transform="translate(252.294922 0)"/>
     <use xlink:href="#DejaVuSans-72" transform="translate(313.818359 0)"/>
     <use xlink:href="#DejaVuSans-20" transform="translate(354.931641 0)"/>
     <use xlink:href="#DejaVuSans-36" transform="translate(386.71875 0)"/>
    </g>
   </g>
  </g>
  <g id="text_13">
   <!-- Expression Distributions by Cluster -->
   <g transform="translate(146.92875 22.078125) scale(0.12 -0.12)">
    <defs>
     <path id="DejaVuSans-45" d="M 628 4666 
L 3578 4666 
L 3578 4134 
L 1259 4134 
L 1259 2753 
L 3481 2753 
L 3481 2222 
L 1259 2222 
L 1259 531 
L 3634 531 
L 3634 0 
L 628 0 
L 628 4666 
z
" transform="scale(0.015625)"/>
     <path id="DejaVuSans-44" d="M 1259 4147 
L 1259 519 
L 2022 519 
Q 2988 519 3436 956 
Q 3884 1394 3884 2338 
Q 3884 3275 3436 3711 
Q 2988 4147 2022 4147 
L 1259 4147 
z
M 628 4666 
L 1925 4666 
Q 3281 4666 3915 4102 
Q 4550 3538 4550 2338 
Q 4550 1131 3912 565 
Q 3275 0 1925 0 
L 628 0 
L 628 4666 
z
" transform="scale(0.015625)"/>
     <path id="DejaVuSans-62" d="M 3116 1747 
Q 3116 2381 2855 2742 
Q 2594 3103 2138 3103 
Q 1681 3103 1420 2742 
Q 1159 2381 1159 1747 
Q 1159 1113 1420 752 
Q 1681 391 2138 391 
Q 2594 391 2855 752 
Q 3116 1113 3116 1747 
z
M 1159 2969 
Q 1341 3281 1617 3432 
Q 1894 3584 2278 3584 
Q 2916 3584 3314 3078 
Q 3713 2572 3713 1747 
Q 3713 922 3314 415 
Q 2916 -91 2278 -91 
Q 1894 -91 1617 61 
Q 1341 213 1159 525 
L 1159 0 
L 581 0 
L 581 4863 
L 1159 4863 
L 1159 2969 
z
" transform="scale(0.015625)"/>
     <path id="DejaVuSans-79" d="M 2059 -325 
Q 1816 -950 1584 -1140 
Q 1353 -1331 966 -1331 
L 506 -1331 
L 506 -850 
L 844 -850 
Q 1081 -850 1212 -737 
Q 1344 -625 1503 -206 
L 1606 56 
L 191 3500 
L 800 3500 
L 1894 763 
L 2988 3500 
L 3597 3500 
L 2059 -325 
z
" transform="scale(0.015625)"/>
    </defs>
    <use xlink:href="#DejaVuSans-45"/>
    <use xlink:href="#DejaVuSans-78" transform="translate(63.183594 0)"/>
    <use xlink:href="#DejaVuSans-70" transform="translate(122.363281 0)"/>
    <use xlink:href="#DejaVuSans-72" transform="translate(185.839844 0)"/>
    <use xlink:href="#DejaVuSans-65" transform="translate(224.703125 0)"/>
    <use xlink:href="#DejaVuSans-73" transform="translate(286.226562 0)"/>
    <use xlink:href="#DejaVuSans-73" transform="translate(338.326172 0)"/>
    <use xlink:href="#DejaVuSans-69" transform="translate(390.425781 0)"/>
    <use xlink:href="#DejaVuSans-6f" transform="translate(418.208984 0)"/>
    <use xlink:href="#DejaVuSans-6e" transform="translate(479.390625 0)"/>
    <use xlink:href="#DejaVuSans-20" transform="translate(542.769531 0)"/>
    <use xlink:href="#DejaVuSans-44" transform="translate(574.556641 0)"/>
    <use xlink:href="#DejaVuSans-69" transform="translate(651.558594 0)"/>
    <use xlink:href="#DejaVuSans-73" transform="translate(679.341797 0)"/>
    <use xlink:href="#DejaVuSans-74" transform="translate(731.441406 0)"/>
    <use xlink:href="#DejaVuSans-72" transform="translate(770.650391 0)"/>
    <use xlink:href="#DejaVuSans-69" transform="translate(811.763672 0)"/>
    <use xlink:href="#DejaVuSans-62" transform="translate(839.546875 0)"/>
    <use xlink:href="#DejaVuSans-75" transform="translate(903.023438 0)"/>
    <use xlink:href="#DejaVuSans-74" transform="translate(966.402344 0)"/>
    <use xlink:href="#DejaVuSans-69" transform="translate(1005.611328 0)"/>
    <use xlink:href="#DejaVuSans-6f" transform="translate(1033.394531 0)"/>
    <use xlink:href="#DejaVuSans-6e" transform="translate(1094.576172 0)"/>
    <use xlink:href="#DejaVuSans-73" transform="translate(1157.955078 0)"/>
    <use xlink:href="#DejaVuSans-20" transform="translate(1210.054688 0)"/>
    <use xlink:href="#DejaVuSans-62" transform="translate(1241.841797 0)"/>
    <use xlink:href="#DejaVuSans-79" transform="translate(1305.318359 0)"/>
    <use xlink:href="#DejaVuSans-20" transform="translate(1364.498047 0)"/>
    <use xlink:href="#DejaVuSans-43" transform="translate(1396.285156 0)"/>
    <use xlink:href="#DejaVuSans-6c" transform="translate(1466.109375 0)"/>
    <use xlink:href="#DejaVuSans-75" transform="translate(1493.892578 0)"/>
    <use xlink:href="#DejaVuSans-73" transform="translate(1557.271484 0)"/>
    <use xlink:href="#DejaVuSans-74" transform="translate(1609.371094 0)"/>
    <use xlink:href="#DejaVuSans-65" transform="translate(1648.580078 0)"/>
    <use xlink:href="#DejaVuSans-72" transform="translate(1710.103516 0)"/>
   </g>
  </g>
 </g>
 <defs>
  <clipPath id="p31988b45ed">
   <rect x="115.378551" y="47.52" width="377.821449" height="341.8"/>
  </clipPath>
 </defs>
</svg>
