<?xml version="1.0" encoding="utf-8" standalone="no"?>
<!DOCTYPE svg PUBLIC "-//W3C//DTD SVG 1.1//EN"
  "http://www.w3.org/Graphics/SVG/1.1/DTD/svg11.dtd">
<svg xmlns:xlink="http://www.w3.org/1999/xlink" width="387.407422pt" height="266.540625pt" viewBox="0 0 387.407422 266.540625" xmlns="http://www.w3.org/2000/svg" version="1.1">
 <metadata>
  <rdf:RDF xmlns:dc="http://purl.org/dc/elements/1.1/" xmlns:cc="http://creativecommons.org/ns#" xmlns:rdf="http://www.w3.org/1999/02/22-rdf-syntax-ns#">
   <cc:Work>
    <dc:type rdf:resource="http://purl.org/dc/dcmitype/StillImage"/>
    <dc:date>2026-05-24T23:15:00.919713</dc:date>
    <dc:format>image/svg+xml</dc:format>
    <dc:creator>
     <cc:Agent>
      <dc:title>Matplotlib v3.10.9, https://matplotlib.org/</dc:title>
     </cc:Agent>
    </dc:creator>
   </cc:Work>
  </rdf:RDF>
 </metadata>
 <defs>
  <style type="text/css">*{stroke-linejoin: round; stroke-linecap: butt}</style>
 </defs>
 <g id="figure_1">
  <g id="patch_1">
   <path d="M 0 266.540625 
L 387.407422 266.540625 
L 387.407422 0 
L 0 0 
z
" style="fill: #ffffff"/>
  </g>
  <g id="axes_1">
   <g id="patch_2">
    <path d="M 62.478125 230.92 
L 365.278151 230.92 
L 365.278151 7.2 
L 62.478125 7.2 
z
" style="fill: #ffffff"/>
   </g>
   <g id="matplotlib.axis_1">
    <g id="xtick_1">
     <g id="line2d_1">
      <path d="M 67.98358 230.92 
L 67.98358 7.2 
" clip-path="url(#p6fa19771c2)" style="fill: none; stroke-dasharray: 0.5,0.825; stroke-dashoffset: 0; stroke: #b0b0b0; stroke-opacity: 0.6; stroke-width: 0.5"/>
     </g>
     <g id="line2d_2">
      <defs>
       <path id="m35f702a27b" d="M 0 0 
L 0 3.5 
" style="stroke: #000000; stroke-width: 0.8"/>
      </defs>
      <g>
       <use xlink:href="#m35f702a27b" x="67.98358" y="230.92" style="stroke: #000000; stroke-width: 0.8"/>
      </g>
     </g>
     <g id="text_1">
      <!-- 0 -->
      <g transform="translate(65.43858 243.99875) scale(0.08 -0.08)">
       <defs>
        <path id="DejaVuSans-30" d="M 2034 4250 
Q 1547 4250 1301 3770 
Q 1056 3291 1056 2328 
Q 1056 1369 1301 889 
Q 1547 409 2034 409 
Q 2525 409 2770 889 
Q 3016 1369 3016 2328 
Q 3016 3291 2770 3770 
Q 2525 4250 2034 4250 
z
M 2034 4750 
Q 2819 4750 3233 4129 
Q 3647 3509 3647 2328 
Q 3647 1150 3233 529 
Q 2819 -91 2034 -91 
Q 1250 -91 836 529 
Q 422 1150 422 2328 
Q 422 3509 836 4129 
Q 1250 4750 2034 4750 
z
" transform="scale(0.015625)"/>
       </defs>
       <use xlink:href="#DejaVuSans-30"/>
      </g>
     </g>
    </g>
    <g id="xtick_2">
     <g id="line2d_3">
      <path d="M 123.03813 230.92 
L 123.03813 7.2 
" clip-path="url(#p6fa19771c2)" style="fill: none; stroke-dasharray: 0.5,0.825; stroke-dashoffset: 0; stroke: #b0b0b0; stroke-opacity: 0.6; stroke-width: 0.5"/>
     </g>
     <g id="line2d_4">
      <g>
       <use xlink:href="#m35f702a27b" x="123.03813" y="230.92" style="stroke: #000000; stroke-width: 0.8"/>
      </g>
     </g>
     <g id="text_2">
      <!-- 10 -->
      <g transform="translate(117.94813 243.99875) scale(0.08 -0.08)">
       <defs>
        <path id="DejaVuSans-31" d="M 794 531 
L 1825 531 
L 1825 4091 
L 703 3866 
L 703 4441 
L 1819 4666 
L 2450 4666 
L 2450 531 
L 3481 531 
L 3481 0 
L 794 0 
L 794 531 
z
" transform="scale(0.015625)"/>
       </defs>
       <use xlink:href="#DejaVuSans-31"/>
       <use xlink:href="#DejaVuSans-30" transform="translate(63.623047 0)"/>
      </g>
     </g>
    </g>
    <g id="xtick_3">
     <g id="line2d_5">
      <path d="M 178.09268 230.92 
L 178.09268 7.2 
" clip-path="url(#p6fa19771c2)" style="fill: none; stroke-dasharray: 0.5,0.825; stroke-dashoffset: 0; stroke: #b0b0b0; stroke-opacity: 0.6; stroke-width: 0.5"/>
     </g>
     <g id="line2d_6">
      <g>
       <use xlink:href="#m35f702a27b" x="178.09268" y="230.92" style="stroke: #000000; stroke-width: 0.8"/>
      </g>
     </g>
     <g id="text_3">
      <!-- 20 -->
      <g transform="translate(173.00268 243.99875) scale(0.08 -0.08)">
       <defs>
        <path id="DejaVuSans-32" d="M 1228 531 
L 3431 531 
L 3431 0 
L 469 0 
L 469 531 
Q 828 903 1448 1529 
Q 2069 2156 2228 2338 
Q 2531 2678 2651 2914 
Q 2772 3150 2772 3378 
Q 2772 3750 2511 3984 
Q 2250 4219 1831 4219 
Q 1534 4219 1204 4116 
Q 875 4013 500 3803 
L 500 4441 
Q 881 4594 1212 4672 
Q 1544 4750 1819 4750 
Q 2544 4750 2975 4387 
Q 3406 4025 3406 3419 
Q 3406 3131 3298 2873 
Q 3191 2616 2906 2266 
Q 2828 2175 2409 1742 
Q 1991 1309 1228 531 
z
" transform="scale(0.015625)"/>
       </defs>
       <use xlink:href="#DejaVuSans-32"/>
       <use xlink:href="#DejaVuSans-30" transform="translate(63.623047 0)"/>
      </g>
     </g>
    </g>
    <g id="xtick_4">
     <g id="line2d_7">
      <path d="M 233.147231 230.92 
L 233.147231 7.2 
" clip-path="url(#p6fa19771c2)" style="fill: none; stroke-dasharray: 0.5,0.825; stroke-dashoffset: 0; stroke: #b0b0b0; stroke-opacity: 0.6; stroke-width: 0.5"/>
     </g>
     <g id="line2d_8">
      <g>
       <use xlink:href="#m35f702a27b" x="233.147231" y="230.92" style="stroke: #000000; stroke-width: 0.8"/>
      </g>
     </g>
     <g id="text_4">
      <!-- 30 -->
      <g transform="translate(228.057231 243.99875) scale(0.08 -0.08)">
       <defs>
        <path id="DejaVuSans-33" d="M 2597 2516 
Q 3050 2419 3304 2112 
Q 3559 1806 3559 1356 
Q 3559 666 3084 287 
Q 2609 -91 1734 -91 
Q 1441 -91 1130 -33 
Q 819 25 488 141 
L 488 750 
Q 750 597 1062 519 
Q 1375 441 1716 441 
Q 2309 441 2620 675 
Q 2931 909 2931 1356 
Q 2931 1769 2642 2001 
Q 2353 2234 1838 2234 
L 1294 2234 
L 1294 2753 
L 1863 2753 
Q 2328 2753 2575 2939 
Q 2822 3125 2822 3475 
Q 2822 3834 2567 4026 
Q 2313 4219 1838 4219 
Q 1578 4219 1281 4162 
Q 984 4106 628 3988 
L 628 4550 
Q 988 4650 1302 4700 
Q 1616 4750 1894 4750 
Q 2613 4750 3031 4423 
Q 3450 4097 3450 3541 
Q 3450 3153 3228 2886 
Q 3006 2619 2597 2516 
z
" transform="scale(0.015625)"/>
       </defs>
       <use xlink:href="#DejaVuSans-33"/>
       <use xlink:href="#DejaVuSans-30" transform="translate(63.623047 0)"/>
      </g>
     </g>
    </g>
    <g id="xtick_5">
     <g id="line2d_9">
      <path d="M 288.201781 230.92 
L 288.201781 7.2 
" clip-path="url(#p6fa19771c2)" style="fill: none; stroke-dasharray: 0.5,0.825; stroke-dashoffset: 0; stroke: #b0b0b0; stroke-opacity: 0.6; stroke-width: 0.5"/>
     </g>
     <g id="line2d_10">
      <g>
       <use xlink:href="#m35f702a27b" x="288.201781" y="230.92" style="stroke: #000000; stroke-width: 0.8"/>
      </g>
     </g>
     <g id="text_5">
      <!-- 40 -->
      <g transform="translate(283.111781 243.99875) scale(0.08 -0.08)">
       <defs>
        <path id="DejaVuSans-34" d="M 2419 4116 
L 825 1625 
L 2419 1625 
L 2419 4116 
z
M 2253 4666 
L 3047 4666 
L 3047 1625 
L 3713 1625 
L 3713 1100 
L 3047 1100 
L 3047 0 
L 2419 0 
L 2419 1100 
L 313 1100 
L 313 1709 
L 2253 4666 
z
" transform="scale(0.015625)"/>
       </defs>
       <use xlink:href="#DejaVuSans-34"/>
       <use xlink:href="#DejaVuSans-30" transform="translate(63.623047 0)"/>
      </g>
     </g>
    </g>
    <g id="xtick_6">
     <g id="line2d_11">
      <path d="M 343.256331 230.92 
L 343.256331 7.2 
" clip-path="url(#p6fa19771c2)" style="fill: none; stroke-dasharray: 0.5,0.825; stroke-dashoffset: 0; stroke: #b0b0b0; stroke-opacity: 0.6; stroke-width: 0.5"/>
     </g>
     <g id="line2d_12">
      <g>
       <use xlink:href="#m35f702a27b" x="343.256331" y="230.92" style="stroke: #000000; stroke-width: 0.8"/>
      </g>
     </g>
     <g id="text_6">
      <!-- 50 -->
      <g transform="translate(338.166331 243.99875) scale(0.08 -0.08)">
       <defs>
        <path id="DejaVuSans-35" d="M 691 4666 
L 3169 4666 
L 3169 4134 
L 1269 4134 
L 1269 2991 
Q 1406 3038 1543 3061 
Q 1681 3084 1819 3084 
Q 2600 3084 3056 2656 
Q 3513 2228 3513 1497 
Q 3513 744 3044 326 
Q 2575 -91 1722 -91 
Q 1428 -91 1123 -41 
Q 819 9 494 109 
L 494 744 
Q 775 591 1075 516 
Q 1375 441 1709 441 
Q 2250 441 2565 725 
Q 2881 1009 2881 1497 
Q 2881 1984 2565 2268 
Q 2250 2553 1709 2553 
Q 1456 2553 1204 2497 
Q 953 2441 691 2322 
L 691 4666 
z
" transform="scale(0.015625)"/>
       </defs>
       <use xlink:href="#DejaVuSans-35"/>
       <use xlink:href="#DejaVuSans-30" transform="translate(63.623047 0)"/>
      </g>
     </g>
    </g>
    <g id="text_7">
     <!-- Training step -->
     <g transform="translate(181.747669 257.260937) scale(0.1 -0.1)">
      <defs>
       <path id="DejaVuSans-54" d="M -19 4666 
L 3928 4666 
L 3928 4134 
L 2272 4134 
L 2272 0 
L 1638 0 
L 1638 4134 
L -19 4134 
L -19 4666 
z
" transform="scale(0.015625)"/>
       <path id="DejaVuSans-72" d="M 2631 2963 
Q 2534 3019 2420 3045 
Q 2306 3072 2169 3072 
Q 1681 3072 1420 2755 
Q 1159 2438 1159 1844 
L 1159 0 
L 581 0 
L 581 3500 
L 1159 3500 
L 1159 2956 
Q 1341 3275 1631 3429 
Q 1922 3584 2338 3584 
Q 2397 3584 2469 3576 
Q 2541 3569 2628 3553 
L 2631 2963 
z
" transform="scale(0.015625)"/>
       <path id="DejaVuSans-61" d="M 2194 1759 
Q 1497 1759 1228 1600 
Q 959 1441 959 1056 
Q 959 750 1161 570 
Q 1363 391 1709 391 
Q 2188 391 2477 730 
Q 2766 1069 2766 1631 
L 2766 1759 
L 2194 1759 
z
M 3341 1997 
L 3341 0 
L 2766 0 
L 2766 531 
Q 2569 213 2275 61 
Q 1981 -91 1556 -91 
Q 1019 -91 701 211 
Q 384 513 384 1019 
Q 384 1609 779 1909 
Q 1175 2209 1959 2209 
L 2766 2209 
L 2766 2266 
Q 2766 2663 2505 2880 
Q 2244 3097 1772 3097 
Q 1472 3097 1187 3025 
Q 903 2953 641 2809 
L 641 3341 
Q 956 3463 1253 3523 
Q 1550 3584 1831 3584 
Q 2591 3584 2966 3190 
Q 3341 2797 3341 1997 
z
" transform="scale(0.015625)"/>
       <path id="DejaVuSans-69" d="M 603 3500 
L 1178 3500 
L 1178 0 
L 603 0 
L 603 3500 
z
M 603 4863 
L 1178 4863 
L 1178 4134 
L 603 4134 
L 603 4863 
z
" transform="scale(0.015625)"/>
       <path id="DejaVuSans-6e" d="M 3513 2113 
L 3513 0 
L 2938 0 
L 2938 2094 
Q 2938 2591 2744 2837 
Q 2550 3084 2163 3084 
Q 1697 3084 1428 2787 
Q 1159 2491 1159 1978 
L 1159 0 
L 581 0 
L 581 3500 
L 1159 3500 
L 1159 2956 
Q 1366 3272 1645 3428 
Q 1925 3584 2291 3584 
Q 2894 3584 3203 3211 
Q 3513 2838 3513 2113 
z
" transform="scale(0.015625)"/>
       <path id="DejaVuSans-67" d="M 2906 1791 
Q 2906 2416 2648 2759 
Q 2391 3103 1925 3103 
Q 1463 3103 1205 2759 
Q 947 2416 947 1791 
Q 947 1169 1205 825 
Q 1463 481 1925 481 
Q 2391 481 2648 825 
Q 2906 1169 2906 1791 
z
M 3481 434 
Q 3481 -459 3084 -895 
Q 2688 -1331 1869 -1331 
Q 1566 -1331 1297 -1286 
Q 1028 -1241 775 -1147 
L 775 -588 
Q 1028 -725 1275 -790 
Q 1522 -856 1778 -856 
Q 2344 -856 2625 -561 
Q 2906 -266 2906 331 
L 2906 616 
Q 2728 306 2450 153 
Q 2172 0 1784 0 
Q 1141 0 747 490 
Q 353 981 353 1791 
Q 353 2603 747 3093 
Q 1141 3584 1784 3584 
Q 2172 3584 2450 3431 
Q 2728 3278 2906 2969 
L 2906 3500 
L 3481 3500 
L 3481 434 
z
" transform="scale(0.015625)"/>
       <path id="DejaVuSans-20" transform="scale(0.015625)"/>
       <path id="DejaVuSans-73" d="M 2834 3397 
L 2834 2853 
Q 2591 2978 2328 3040 
Q 2066 3103 1784 3103 
Q 1356 3103 1142 2972 
Q 928 2841 928 2578 
Q 928 2378 1081 2264 
Q 1234 2150 1697 2047 
L 1894 2003 
Q 2506 1872 2764 1633 
Q 3022 1394 3022 966 
Q 3022 478 2636 193 
Q 2250 -91 1575 -91 
Q 1294 -91 989 -36 
Q 684 19 347 128 
L 347 722 
Q 666 556 975 473 
Q 1284 391 1588 391 
Q 1994 391 2212 530 
Q 2431 669 2431 922 
Q 2431 1156 2273 1281 
Q 2116 1406 1581 1522 
L 1381 1569 
Q 847 1681 609 1914 
Q 372 2147 372 2553 
Q 372 3047 722 3315 
Q 1072 3584 1716 3584 
Q 2034 3584 2315 3537 
Q 2597 3491 2834 3397 
z
" transform="scale(0.015625)"/>
       <path id="DejaVuSans-74" d="M 1172 4494 
L 1172 3500 
L 2356 3500 
L 2356 3053 
L 1172 3053 
L 1172 1153 
Q 1172 725 1289 603 
Q 1406 481 1766 481 
L 2356 481 
L 2356 0 
L 1766 0 
Q 1100 0 847 248 
Q 594 497 594 1153 
L 594 3053 
L 172 3053 
L 172 3500 
L 594 3500 
L 594 4494 
L 1172 4494 
z
" transform="scale(0.015625)"/>
       <path id="DejaVuSans-65" d="M 3597 1894 
L 3597 1613 
L 953 1613 
Q 991 1019 1311 708 
Q 1631 397 2203 397 
Q 2534 397 2845 478 
Q 3156 559 3463 722 
L 3463 178 
Q 3153 47 2828 -22 
Q 2503 -91 2169 -91 
Q 1331 -91 842 396 
Q 353 884 353 1716 
Q 353 2575 817 3079 
Q 1281 3584 2069 3584 
Q 2775 3584 3186 3129 
Q 3597 2675 3597 1894 
z
M 3022 2063 
Q 3016 2534 2758 2815 
Q 2500 3097 2075 3097 
Q 1594 3097 1305 2825 
Q 1016 2553 972 2059 
L 3022 2063 
z
" transform="scale(0.015625)"/>
       <path id="DejaVuSans-70" d="M 1159 525 
L 1159 -1331 
L 581 -1331 
L 581 3500 
L 1159 3500 
L 1159 2969 
Q 1341 3281 1617 3432 
Q 1894 3584 2278 3584 
Q 2916 3584 3314 3078 
Q 3713 2572 3713 1747 
Q 3713 922 3314 415 
Q 2916 -91 2278 -91 
Q 1894 -91 1617 61 
Q 1341 213 1159 525 
z
M 3116 1747 
Q 3116 2381 2855 2742 
Q 2594 3103 2138 3103 
Q 1681 3103 1420 2742 
Q 1159 2381 1159 1747 
Q 1159 1113 1420 752 
Q 1681 391 2138 391 
Q 2594 391 2855 752 
Q 3116 1113 3116 1747 
z
" transform="scale(0.015625)"/>
      </defs>
      <use xlink:href="#DejaVuSans-54"/>
      <use xlink:href="#DejaVuSans-72" transform="translate(46.333984 0)"/>
      <use xlink:href="#DejaVuSans-61" transform="translate(87.447266 0)"/>
      <use xlink:href="#DejaVuSans-69" transform="translate(148.726562 0)"/>
      <use xlink:href="#DejaVuSans-6e" transform="translate(176.509766 0)"/>
      <use xlink:href="#DejaVuSans-69" transform="translate(239.888672 0)"/>
      <use xlink:href="#DejaVuSans-6e" transform="translate(267.671875 0)"/>
      <use xlink:href="#DejaVuSans-67" transform="translate(331.050781 0)"/>
      <use xlink:href="#DejaVuSans-20" transform="translate(394.527344 0)"/>
      <use xlink:href="#DejaVuSans-73" transform="translate(426.314453 0)"/>
      <use xlink:href="#DejaVuSans-74" transform="translate(478.414062 0)"/>
      <use xlink:href="#DejaVuSans-65" transform="translate(517.623047 0)"/>
      <use xlink:href="#DejaVuSans-70" transform="translate(579.146484 0)"/>
     </g>
    </g>
   </g>
   <g id="matplotlib.axis_2">
    <g id="ytick_1">
     <g id="line2d_13">
      <path d="M 62.478125 166.081241 
L 365.278151 166.081241 
" clip-path="url(#p6fa19771c2)" style="fill: none; stroke-dasharray: 0.5,0.825; stroke-dashoffset: 0; stroke: #b0b0b0; stroke-opacity: 0.6; stroke-width: 0.5"/>
     </g>
     <g id="line2d_14">
      <defs>
       <path id="m2641fba4a6" d="M 0 0 
L -3.5 0 
" style="stroke: #000000; stroke-width: 0.8"/>
      </defs>
      <g>
       <use xlink:href="#m2641fba4a6" x="62.478125" y="166.081241" style="stroke: #000000; stroke-width: 0.8"/>
      </g>
     </g>
     <g id="text_8">
      <!-- 1 -->
      <g transform="translate(50.388125 169.120616) scale(0.08 -0.08)">
       <use xlink:href="#DejaVuSans-31"/>
      </g>
     </g>
    </g>
    <g id="ytick_2">
     <g id="line2d_15">
      <path d="M 62.478125 222.758532 
L 365.278151 222.758532 
" clip-path="url(#p6fa19771c2)" style="fill: none; stroke-dasharray: 0.5,0.825; stroke-dashoffset: 0; stroke: #b0b0b0; stroke-opacity: 0.6; stroke-width: 0.5"/>
     </g>
     <g id="line2d_16">
      <defs>
       <path id="mb373b1a701" d="M 0 0 
L -2 0 
" style="stroke: #000000; stroke-width: 0.6"/>
      </defs>
      <g>
       <use xlink:href="#mb373b1a701" x="62.478125" y="222.758532" style="stroke: #000000; stroke-width: 0.6"/>
      </g>
     </g>
    </g>
    <g id="ytick_3">
     <g id="line2d_17">
      <path d="M 62.478125 201.539779 
L 365.278151 201.539779 
" clip-path="url(#p6fa19771c2)" style="fill: none; stroke-dasharray: 0.5,0.825; stroke-dashoffset: 0; stroke: #b0b0b0; stroke-opacity: 0.6; stroke-width: 0.5"/>
     </g>
     <g id="line2d_18">
      <g>
       <use xlink:href="#mb373b1a701" x="62.478125" y="201.539779" style="stroke: #000000; stroke-width: 0.6"/>
      </g>
     </g>
    </g>
    <g id="ytick_4">
     <g id="line2d_19">
      <path d="M 62.478125 182.823512 
L 365.278151 182.823512 
" clip-path="url(#p6fa19771c2)" style="fill: none; stroke-dasharray: 0.5,0.825; stroke-dashoffset: 0; stroke: #b0b0b0; stroke-opacity: 0.6; stroke-width: 0.5"/>
     </g>
     <g id="line2d_20">
      <g>
       <use xlink:href="#mb373b1a701" x="62.478125" y="182.823512" style="stroke: #000000; stroke-width: 0.6"/>
      </g>
     </g>
    </g>
    <g id="ytick_5">
     <g id="line2d_21">
      <path d="M 62.478125 55.936963 
L 365.278151 55.936963 
" clip-path="url(#p6fa19771c2)" style="fill: none; stroke-dasharray: 0.5,0.825; stroke-dashoffset: 0; stroke: #b0b0b0; stroke-opacity: 0.6; stroke-width: 0.5"/>
     </g>
     <g id="line2d_22">
      <g>
       <use xlink:href="#mb373b1a701" x="62.478125" y="55.936963" style="stroke: #000000; stroke-width: 0.6"/>
      </g>
     </g>
     <g id="text_9">
      <!-- $\mathdefault{2\times10^{0}}$ -->
      <g transform="translate(20.878125 59.736182) scale(0.1 -0.1)">
       <defs>
        <path id="DejaVuSans-d7" d="M 4488 3438 
L 3059 2003 
L 4488 575 
L 4116 197 
L 2681 1631 
L 1247 197 
L 878 575 
L 2303 2003 
L 878 3438 
L 1247 3816 
L 2681 2381 
L 4116 3816 
L 4488 3438 
z
" transform="scale(0.015625)"/>
       </defs>
       <use xlink:href="#DejaVuSans-32" transform="translate(0 0.765625)"/>
       <use xlink:href="#DejaVuSans-d7" transform="translate(83.105469 0.765625)"/>
       <use xlink:href="#DejaVuSans-31" transform="translate(186.376953 0.765625)"/>
       <use xlink:href="#DejaVuSans-30" transform="translate(250 0.765625)"/>
       <use xlink:href="#DejaVuSans-30" transform="translate(314.580078 39.046875) scale(0.7)"/>
      </g>
     </g>
    </g>
    <g id="text_10">
     <!-- Validation loss -->
     <g transform="translate(14.798438 154.9975) rotate(-90) scale(0.1 -0.1)">
      <defs>
       <path id="DejaVuSans-56" d="M 1831 0 
L 50 4666 
L 709 4666 
L 2188 738 
L 3669 4666 
L 4325 4666 
L 2547 0 
L 1831 0 
z
" transform="scale(0.015625)"/>
       <path id="DejaVuSans-6c" d="M 603 4863 
L 1178 4863 
L 1178 0 
L 603 0 
L 603 4863 
z
" transform="scale(0.015625)"/>
       <path id="DejaVuSans-64" d="M 2906 2969 
L 2906 4863 
L 3481 4863 
L 3481 0 
L 2906 0 
L 2906 525 
Q 2725 213 2448 61 
Q 2172 -91 1784 -91 
Q 1150 -91 751 415 
Q 353 922 353 1747 
Q 353 2572 751 3078 
Q 1150 3584 1784 3584 
Q 2172 3584 2448 3432 
Q 2725 3281 2906 2969 
z
M 947 1747 
Q 947 1113 1208 752 
Q 1469 391 1925 391 
Q 2381 391 2643 752 
Q 2906 1113 2906 1747 
Q 2906 2381 2643 2742 
Q 2381 3103 1925 3103 
Q 1469 3103 1208 2742 
Q 947 2381 947 1747 
z
" transform="scale(0.015625)"/>
       <path id="DejaVuSans-6f" d="M 1959 3097 
Q 1497 3097 1228 2736 
Q 959 2375 959 1747 
Q 959 1119 1226 758 
Q 1494 397 1959 397 
Q 2419 397 2687 759 
Q 2956 1122 2956 1747 
Q 2956 2369 2687 2733 
Q 2419 3097 1959 3097 
z
M 1959 3584 
Q 2709 3584 3137 3096 
Q 3566 2609 3566 1747 
Q 3566 888 3137 398 
Q 2709 -91 1959 -91 
Q 1206 -91 779 398 
Q 353 888 353 1747 
Q 353 2609 779 3096 
Q 1206 3584 1959 3584 
z
" transform="scale(0.015625)"/>
      </defs>
      <use xlink:href="#DejaVuSans-56"/>
      <use xlink:href="#DejaVuSans-61" transform="translate(60.658203 0)"/>
      <use xlink:href="#DejaVuSans-6c" transform="translate(121.9375 0)"/>
      <use xlink:href="#DejaVuSans-69" transform="translate(149.720703 0)"/>
      <use xlink:href="#DejaVuSans-64" transform="translate(177.503906 0)"/>
      <use xlink:href="#DejaVuSans-61" transform="translate(240.980469 0)"/>
      <use xlink:href="#DejaVuSans-74" transform="translate(302.259766 0)"/>
      <use xlink:href="#DejaVuSans-69" transform="translate(341.46875 0)"/>
      <use xlink:href="#DejaVuSans-6f" transform="translate(369.251953 0)"/>
      <use xlink:href="#DejaVuSans-6e" transform="translate(430.433594 0)"/>
      <use xlink:href="#DejaVuSans-20" transform="translate(493.8125 0)"/>
      <use xlink:href="#DejaVuSans-6c" transform="translate(525.599609 0)"/>
      <use xlink:href="#DejaVuSans-6f" transform="translate(553.382812 0)"/>
      <use xlink:href="#DejaVuSans-73" transform="translate(614.564453 0)"/>
      <use xlink:href="#DejaVuSans-73" transform="translate(666.664062 0)"/>
     </g>
    </g>
   </g>
   <g id="FillBetweenPolyCollection_1">
    <defs>
     <path id="m96c88fb55b" d="M 67.98358 -249.171534 
L 67.98358 -241.56247 
L 73.489035 -237.851231 
L 78.99449 -228.817703 
L 84.499945 -221.696136 
L 90.0054 -214.612674 
L 95.510855 -210.484438 
L 101.01631 -209.958791 
L 106.521765 -201.513449 
L 112.02722 -198.506987 
L 117.532675 -191.397014 
L 123.03813 -186.914128 
L 128.543585 -182.954847 
L 134.04904 -170.856946 
L 139.554495 -177.315177 
L 145.05995 -172.460929 
L 150.565405 -169.380851 
L 156.07086 -155.956408 
L 161.576315 -152.37518 
L 167.08177 -154.458943 
L 172.587225 -153.312268 
L 178.09268 -155.765787 
L 183.598135 -150.46106 
L 189.10359 -151.132473 
L 194.609046 -142.808971 
L 200.114501 -145.978612 
L 205.619956 -145.978612 
L 211.125411 -139.01479 
L 216.630866 -148.394378 
L 222.136321 -143.088701 
L 227.641776 -143.912859 
L 233.147231 -134.42357 
L 238.652686 -132.863204 
L 244.158141 -134.025264 
L 249.663596 -132.486944 
L 255.169051 -137.057935 
L 260.674506 -134.025264 
L 266.179961 -129.285389 
L 271.685416 -124.563705 
L 277.190871 -128.408195 
L 282.696326 -135.930633 
L 288.201781 -124.454436 
L 293.707236 -128.727735 
L 299.212691 -129.404632 
L 304.718146 -118.35429 
L 310.223601 -128.034584 
L 315.729056 -133.935186 
L 321.234511 -115.647942 
L 326.739966 -123.39886 
L 332.245421 -124.085097 
L 337.750876 -122.142254 
L 337.750876 -133.638854 
L 337.750876 -133.638854 
L 332.245421 -139.525117 
L 326.739966 -138.527831 
L 321.234511 -128.727735 
L 315.729056 -145.907001 
L 310.223601 -139.773464 
L 304.718146 -133.845056 
L 299.212691 -143.68301 
L 293.707236 -143.380069 
L 288.201781 -137.813426 
L 282.696326 -147.923584 
L 277.190871 -139.126953 
L 271.685416 -139.51269 
L 266.179961 -141.476558 
L 260.674506 -145.201103 
L 255.169051 -147.463213 
L 249.663596 -146.264733 
L 244.158141 -144.287164 
L 238.652686 -143.46495 
L 233.147231 -145.189111 
L 227.641776 -155.383859 
L 222.136321 -152.63858 
L 216.630866 -160.474908 
L 211.125411 -150.48426 
L 205.619956 -156.526901 
L 200.114501 -158.898656 
L 194.609046 -156.761216 
L 189.10359 -162.90692 
L 183.598135 -162.520291 
L 178.09268 -164.751879 
L 172.587225 -165.016729 
L 167.08177 -165.281138 
L 161.576315 -165.333967 
L 156.07086 -168.202473 
L 150.565405 -179.185123 
L 145.05995 -182.557231 
L 139.554495 -187.17215 
L 134.04904 -181.492029 
L 128.543585 -191.477688 
L 123.03813 -197.181124 
L 117.532675 -200.373616 
L 112.02722 -207.717323 
L 106.521765 -210.253686 
L 101.01631 -216.338659 
L 95.510855 -218.212807 
L 90.0054 -221.139448 
L 84.499945 -229.658564 
L 78.99449 -235.531906 
L 73.489035 -243.428095 
L 67.98358 -249.171534 
z
" style="stroke: #888888; stroke-opacity: 0.15"/>
    </defs>
    <g clip-path="url(#p6fa19771c2)">
     <use xlink:href="#m96c88fb55b" x="0" y="266.540625" style="fill: #888888; fill-opacity: 0.15; stroke: #888888; stroke-opacity: 0.15"/>
    </g>
   </g>
   <g id="FillBetweenPolyCollection_2">
    <defs>
     <path id="ma864d69470" d="M 67.98358 -243.259983 
L 67.98358 -237.113262 
L 73.489035 -230.747172 
L 78.99449 -222.125309 
L 84.499945 -215.647435 
L 90.0054 -204.80231 
L 95.510855 -199.097472 
L 101.01631 -195.582333 
L 106.521765 -187.4849 
L 112.02722 -177.823798 
L 117.532675 -176.470408 
L 123.03813 -172.793903 
L 128.543585 -161.916991 
L 134.04904 -154.662435 
L 139.554495 -153.824185 
L 145.05995 -149.728538 
L 150.565405 -143.46495 
L 156.07086 -146.181334 
L 161.576315 -132.707618 
L 167.08177 -139.002322 
L 172.587225 -126.058585 
L 178.09268 -123.19241 
L 183.598135 -125.54376 
L 189.10359 -125.176947 
L 194.609046 -121.656286 
L 200.114501 -117.042671 
L 205.619956 -114.124257 
L 211.125411 -113.569208 
L 216.630866 -112.615264 
L 222.136321 -107.909401 
L 227.641776 -109.25318 
L 233.147231 -109.027495 
L 238.652686 -104.19701 
L 244.158141 -106.431775 
L 249.663596 -102.919159 
L 255.169051 -107.666614 
L 260.674506 -100.332209 
L 266.179961 -94.055322 
L 271.685416 -93.1927 
L 277.190871 -94.220676 
L 282.696326 -99.902242 
L 288.201781 -93.49183 
L 293.707236 -96.371063 
L 299.212691 -102.809596 
L 304.718146 -80.001548 
L 310.223601 -85.612618 
L 315.729056 -91.183977 
L 321.234511 -91.722124 
L 326.739966 -91.705335 
L 332.245421 -87.296 
L 337.750876 -91.973755 
L 337.750876 -106.691736 
L 337.750876 -106.691736 
L 332.245421 -101.520494 
L 326.739966 -104.476144 
L 321.234511 -106.707014 
L 315.729056 -106.584745 
L 310.223601 -99.790579 
L 304.718146 -91.87315 
L 299.212691 -113.085613 
L 293.707236 -107.24084 
L 288.201781 -104.522618 
L 282.696326 -111.37393 
L 277.190871 -109.673602 
L 271.685416 -108.952195 
L 266.179961 -109.403458 
L 260.674506 -112.246832 
L 255.169051 -121.920282 
L 249.663596 -116.095012 
L 244.158141 -116.856457 
L 238.652686 -114.88067 
L 233.147231 -117.984711 
L 227.641776 -118.198034 
L 222.136321 -118.779661 
L 216.630866 -124.085097 
L 211.125411 -123.357592 
L 205.619956 -126.67957 
L 200.114501 -129.801464 
L 194.609046 -133.986665 
L 189.10359 -137.499075 
L 183.598135 -138.49031 
L 178.09268 -135.434116 
L 172.587225 -135.127793 
L 167.08177 -147.876428 
L 161.576315 -144.118232 
L 156.07086 -155.597403 
L 150.565405 -154.107873 
L 145.05995 -157.306611 
L 139.554495 -162.078814 
L 134.04904 -162.423486 
L 128.543585 -171.122008 
L 123.03813 -182.054052 
L 117.532675 -185.952076 
L 112.02722 -185.561898 
L 106.521765 -192.99388 
L 101.01631 -202.569966 
L 95.510855 -204.620912 
L 90.0054 -211.356672 
L 84.499945 -223.016936 
L 78.99449 -226.570177 
L 73.489035 -235.328026 
L 67.98358 -243.259983 
z
" style="stroke: #2196f3; stroke-opacity: 0.15"/>
    </defs>
    <g clip-path="url(#p6fa19771c2)">
     <use xlink:href="#ma864d69470" x="0" y="266.540625" style="fill: #2196f3; fill-opacity: 0.15; stroke: #2196f3; stroke-opacity: 0.15"/>
    </g>
   </g>
   <g id="FillBetweenPolyCollection_3">
    <defs>
     <path id="mfbdb3dab1f" d="M 67.98358 -244.497253 
L 67.98358 -239.608498 
L 73.489035 -229.658564 
L 78.99449 -222.649101 
L 84.499945 -209.247199 
L 90.0054 -202.787105 
L 95.510855 -192.157304 
L 101.01631 -189.856382 
L 106.521765 -183.784737 
L 112.02722 -170.315254 
L 117.532675 -170.570999 
L 123.03813 -161.949369 
L 128.543585 -152.076897 
L 134.04904 -139.885093 
L 139.554495 -146.062117 
L 145.05995 -135.01277 
L 150.565405 -127.284717 
L 156.07086 -127.713646 
L 161.576315 -122.18384 
L 167.08177 -122.999481 
L 172.587225 -107.83357 
L 178.09268 -112.423786 
L 183.598135 -110.943113 
L 189.10359 -107.286513 
L 194.609046 -95.815737 
L 200.114501 -89.439337 
L 205.619956 -96.501446 
L 211.125411 -88.859206 
L 216.630866 -86.638654 
L 222.136321 -90.947963 
L 227.641776 -79.422132 
L 233.147231 -66.404903 
L 238.652686 -75.101058 
L 244.158141 -64.921374 
L 249.663596 -77.211917 
L 255.169051 -73.527547 
L 260.674506 -66.207898 
L 266.179961 -68.167047 
L 271.685416 -73.734491 
L 277.190871 -67.386284 
L 282.696326 -72.450864 
L 288.201781 -63.644384 
L 293.707236 -71.271392 
L 299.212691 -73.093973 
L 304.718146 -72.109337 
L 310.223601 -58.947955 
L 315.729056 -67.131707 
L 321.234511 -49.927111 
L 326.739966 -52.547965 
L 332.245421 -45.789716 
L 337.750876 -64.164399 
L 337.750876 -80.650875 
L 337.750876 -80.650875 
L 332.245421 -63.504089 
L 326.739966 -68.86647 
L 321.234511 -62.961786 
L 315.729056 -79.784515 
L 310.223601 -71.290485 
L 304.718146 -85.438055 
L 299.212691 -84.667692 
L 293.707236 -83.08022 
L 288.201781 -79.856892 
L 282.696326 -88.345561 
L 277.190871 -81.745103 
L 271.685416 -85.995982 
L 266.179961 -84.474516 
L 260.674506 -82.351747 
L 255.169051 -88.088114 
L 249.663596 -92.659518 
L 244.158141 -79.058922 
L 238.652686 -88.671062 
L 233.147231 -80.272424 
L 227.641776 -93.442014 
L 222.136321 -103.184925 
L 216.630866 -99.167015 
L 211.125411 -101.725563 
L 205.619956 -108.000351 
L 200.114501 -103.668416 
L 194.609046 -108.816566 
L 189.10359 -118.567118 
L 183.598135 -121.753599 
L 178.09268 -124.235672 
L 172.587225 -117.885062 
L 167.08177 -132.031649 
L 161.576315 -132.486944 
L 156.07086 -135.956054 
L 150.565405 -138.127157 
L 145.05995 -144.516142 
L 139.554495 -154.831813 
L 134.04904 -148.31209 
L 128.543585 -160.638205 
L 123.03813 -170.540332 
L 117.532675 -177.979969 
L 112.02722 -176.854058 
L 106.521765 -191.49561 
L 101.01631 -195.215125 
L 95.510855 -197.888479 
L 90.0054 -208.781744 
L 84.499945 -214.030563 
L 78.99449 -228.136104 
L 73.489035 -234.926296 
L 67.98358 -244.497253 
z
" style="stroke: #e53935; stroke-opacity: 0.15"/>
    </defs>
    <g clip-path="url(#p6fa19771c2)">
     <use xlink:href="#mfbdb3dab1f" x="0" y="266.540625" style="fill: #e53935; fill-opacity: 0.15; stroke: #e53935; stroke-opacity: 0.15"/>
    </g>
   </g>
   <g id="patch_3">
    <path d="M 62.478125 230.92 
L 62.478125 7.2 
" style="fill: none; stroke: #000000; stroke-width: 0.8; stroke-linejoin: miter; stroke-linecap: square"/>
   </g>
   <g id="patch_4">
    <path d="M 365.278151 230.92 
L 365.278151 7.2 
" style="fill: none; stroke: #000000; stroke-width: 0.8; stroke-linejoin: miter; stroke-linecap: square"/>
   </g>
   <g id="patch_5">
    <path d="M 62.478125 230.92 
L 365.278151 230.92 
" style="fill: none; stroke: #000000; stroke-width: 0.8; stroke-linejoin: miter; stroke-linecap: square"/>
   </g>
   <g id="patch_6">
    <path d="M 62.478125 7.2 
L 365.278151 7.2 
" style="fill: none; stroke: #000000; stroke-width: 0.8; stroke-linejoin: miter; stroke-linecap: square"/>
   </g>
   <g id="line2d_23">
    <path d="M 67.98358 21.128083 
L 73.489035 25.876498 
L 78.99449 34.330361 
L 84.499945 40.813407 
L 90.0054 48.631056 
L 95.510855 52.145023 
L 101.01631 53.359884 
L 106.521765 60.596973 
L 112.02722 63.361749 
L 117.532675 70.591932 
L 123.03813 74.410093 
L 128.543585 79.267224 
L 134.04904 90.277182 
L 139.554495 84.220544 
L 145.05995 88.951373 
L 150.565405 92.182036 
L 156.07086 104.343245 
L 161.576315 107.553988 
L 167.08177 106.578472 
L 172.587225 107.268386 
L 178.09268 106.21828 
L 183.598135 109.93558 
L 189.10359 109.411896 
L 194.609046 116.60245 
L 200.114501 113.970716 
L 205.619956 115.200358 
L 211.125411 121.687642 
L 216.630866 111.991209 
L 222.136321 118.605254 
L 227.641776 116.78878 
L 233.147231 126.643133 
L 238.652686 128.288149 
L 244.158141 127.301587 
L 249.663596 127.015508 
L 255.169051 124.194897 
L 260.674506 126.829212 
L 266.179961 131.042767 
L 271.685416 134.326702 
L 277.190871 132.68269 
L 282.696326 124.500401 
L 288.201781 135.26635 
L 293.707236 130.317899 
L 299.212691 129.836485 
L 304.718146 140.252263 
L 310.223601 132.528226 
L 315.729056 126.506814 
L 321.234511 144.218246 
L 326.739966 135.397298 
L 332.245421 134.548063 
L 337.750876 138.546122 
" clip-path="url(#p6fa19771c2)" style="fill: none; stroke-dasharray: 5.18,2.24; stroke-dashoffset: 0; stroke: #888888; stroke-width: 1.4"/>
   </g>
   <g id="line2d_24">
    <path d="M 67.98358 26.324284 
L 73.489035 33.48652 
L 78.99449 42.177341 
L 84.499945 47.165722 
L 90.0054 58.427343 
L 95.510855 64.657435 
L 101.01631 67.42607 
L 106.521765 76.277363 
L 112.02722 84.80068 
L 117.532675 85.258673 
L 123.03813 89.049203 
L 128.543585 99.954481 
L 134.04904 107.950287 
L 139.554495 108.535531 
L 145.05995 112.97788 
L 150.565405 117.665127 
L 156.07086 115.581522 
L 161.576315 128.0253 
L 167.08177 123.039311 
L 172.587225 135.882743 
L 178.09268 137.109507 
L 183.598135 134.391776 
L 189.10359 135.083205 
L 194.609046 138.599581 
L 200.114501 142.990538 
L 205.619956 146.014742 
L 211.125411 148.001868 
L 216.630866 148.08698 
L 222.136321 153.103161 
L 227.641776 152.752087 
L 233.147231 152.971417 
L 238.652686 156.912015 
L 244.158141 154.811037 
L 249.663596 156.897016 
L 255.169051 151.587412 
L 260.674506 160.139461 
L 266.179961 164.626003 
L 271.685416 165.272887 
L 277.190871 164.405717 
L 282.696326 160.79904 
L 288.201781 167.437704 
L 293.707236 164.641749 
L 299.212691 158.509969 
L 304.718146 180.492437 
L 310.223601 173.680954 
L 315.729056 167.46976 
L 321.234511 167.149485 
L 326.739966 168.321625 
L 332.245421 171.973266 
L 337.750876 167.037541 
" clip-path="url(#p6fa19771c2)" style="fill: none; stroke-dasharray: 8.96,2.24,1.4,2.24; stroke-dashoffset: 0; stroke: #2196f3; stroke-width: 1.4"/>
   </g>
   <g id="line2d_25">
    <path d="M 67.98358 24.46895 
L 73.489035 34.226368 
L 78.99449 41.12434 
L 84.499945 54.883746 
L 90.0054 60.727933 
L 95.510855 71.491897 
L 101.01631 73.982283 
L 106.521765 78.853685 
L 112.02722 92.922338 
L 117.532675 92.221964 
L 123.03813 100.237724 
L 128.543585 110.125424 
L 134.04904 122.386178 
L 139.554495 116.033169 
L 145.05995 126.705135 
L 150.565405 133.74223 
L 156.07086 134.652339 
L 161.576315 139.121743 
L 167.08177 138.960895 
L 172.587225 153.601847 
L 178.09268 148.10117 
L 183.598135 150.100355 
L 189.10359 153.513729 
L 194.609046 164.091552 
L 200.114501 169.827534 
L 205.619956 164.185736 
L 211.125411 171.118054 
L 216.630866 173.514352 
L 222.136321 169.356417 
L 227.641776 179.953983 
L 233.147231 193.050733 
L 238.652686 184.509754 
L 244.158141 194.393304 
L 249.663596 181.417268 
L 255.169051 185.566078 
L 260.674506 192.055875 
L 266.179961 190.010742 
L 271.685416 186.557152 
L 277.190871 191.812801 
L 282.696326 185.943759 
L 288.201781 194.583313 
L 293.707236 189.255149 
L 299.212691 187.554445 
L 304.718146 187.62722 
L 310.223601 201.3016 
L 315.729056 192.956612 
L 321.234511 209.962563 
L 326.739966 205.624024 
L 332.245421 211.647005 
L 337.750876 193.919273 
" clip-path="url(#p6fa19771c2)" style="fill: none; stroke: #e53935; stroke-width: 2; stroke-linecap: square"/>
   </g>
   <g id="text_11">
    <!-- $\Delta=0.155$ -->
    <g style="fill: #e53935" transform="translate(344.357422 181.98017) scale(0.075 -0.075)">
     <defs>
      <path id="DejaVuSans-394" d="M 2188 4044 
L 906 525 
L 3472 525 
L 2188 4044 
z
M 50 0 
L 1831 4666 
L 2547 4666 
L 4325 0 
L 50 0 
z
" transform="scale(0.015625)"/>
      <path id="DejaVuSans-3d" d="M 678 2906 
L 4684 2906 
L 4684 2381 
L 678 2381 
L 678 2906 
z
M 678 1631 
L 4684 1631 
L 4684 1100 
L 678 1100 
L 678 1631 
z
" transform="scale(0.015625)"/>
      <path id="DejaVuSans-2e" d="M 684 794 
L 1344 794 
L 1344 0 
L 684 0 
L 684 794 
z
" transform="scale(0.015625)"/>
     </defs>
     <use xlink:href="#DejaVuSans-394" transform="translate(0 0.78125)"/>
     <use xlink:href="#DejaVuSans-3d" transform="translate(87.890625 0.78125)"/>
     <use xlink:href="#DejaVuSans-30" transform="translate(191.162109 0.78125)"/>
     <use xlink:href="#DejaVuSans-2e" transform="translate(254.785156 0.78125)"/>
     <use xlink:href="#DejaVuSans-31" transform="translate(286.572266 0.78125)"/>
     <use xlink:href="#DejaVuSans-35" transform="translate(350.195312 0.78125)"/>
     <use xlink:href="#DejaVuSans-35" transform="translate(413.818359 0.78125)"/>
    </g>
   </g>
   <g id="patch_7">
    <path d="M 340.503604 170.713002 
Q 340.503604 180.476751 340.503604 190.240499 
" style="fill: none; stroke: #e53935; stroke-width: 1.5; stroke-linecap: round"/>
    <path d="M 338.503604 174.713002 
L 340.503604 170.713002 
L 342.503604 174.713002 
" style="fill: none; stroke: #e53935; stroke-width: 1.5; stroke-linecap: round"/>
    <path d="M 342.503604 186.240499 
L 340.503604 190.240499 
L 338.503604 186.240499 
" style="fill: none; stroke: #e53935; stroke-width: 1.5; stroke-linecap: round"/>
   </g>
   <g id="legend_1">
    <g id="patch_8">
     <path d="M 258.761198 51.429219 
L 359.328151 51.429219 
Q 361.028151 51.429219 361.028151 49.729219 
L 361.028151 13.15 
Q 361.028151 11.45 359.328151 11.45 
L 258.761198 11.45 
Q 257.061198 11.45 257.061198 13.15 
L 257.061198 49.729219 
Q 257.061198 51.429219 258.761198 51.429219 
z
" style="fill: #ffffff; opacity: 0.9; stroke: #cccccc; stroke-linejoin: miter"/>
    </g>
    <g id="line2d_26">
     <path d="M 260.461198 18.333672 
L 268.961198 18.333672 
L 277.461198 18.333672 
" style="fill: none; stroke-dasharray: 5.18,2.24; stroke-dashoffset: 0; stroke: #888888; stroke-width: 1.4"/>
    </g>
    <g id="text_12">
     <!-- Baseline -->
     <g transform="translate(284.261198 21.308672) scale(0.085 -0.085)">
      <defs>
       <path id="DejaVuSans-42" d="M 1259 2228 
L 1259 519 
L 2272 519 
Q 2781 519 3026 730 
Q 3272 941 3272 1375 
Q 3272 1813 3026 2020 
Q 2781 2228 2272 2228 
L 1259 2228 
z
M 1259 4147 
L 1259 2741 
L 2194 2741 
Q 2656 2741 2882 2914 
Q 3109 3088 3109 3444 
Q 3109 3797 2882 3972 
Q 2656 4147 2194 4147 
L 1259 4147 
z
M 628 4666 
L 2241 4666 
Q 2963 4666 3353 4366 
Q 3744 4066 3744 3513 
Q 3744 3084 3544 2831 
Q 3344 2578 2956 2516 
Q 3422 2416 3680 2098 
Q 3938 1781 3938 1306 
Q 3938 681 3513 340 
Q 3088 0 2303 0 
L 628 0 
L 628 4666 
z
" transform="scale(0.015625)"/>
      </defs>
      <use xlink:href="#DejaVuSans-42"/>
      <use xlink:href="#DejaVuSans-61" transform="translate(68.603516 0)"/>
      <use xlink:href="#DejaVuSans-73" transform="translate(129.882812 0)"/>
      <use xlink:href="#DejaVuSans-65" transform="translate(181.982422 0)"/>
      <use xlink:href="#DejaVuSans-6c" transform="translate(243.505859 0)"/>
      <use xlink:href="#DejaVuSans-69" transform="translate(271.289062 0)"/>
      <use xlink:href="#DejaVuSans-6e" transform="translate(299.072266 0)"/>
      <use xlink:href="#DejaVuSans-65" transform="translate(362.451172 0)"/>
     </g>
    </g>
    <g id="line2d_27">
     <path d="M 260.461198 30.810078 
L 268.961198 30.810078 
L 277.461198 30.810078 
" style="fill: none; stroke-dasharray: 8.96,2.24,1.4,2.24; stroke-dashoffset: 0; stroke: #2196f3; stroke-width: 1.4"/>
    </g>
    <g id="text_13">
     <!-- Method-A -->
     <g transform="translate(284.261198 33.785078) scale(0.085 -0.085)">
      <defs>
       <path id="DejaVuSans-4d" d="M 628 4666 
L 1569 4666 
L 2759 1491 
L 3956 4666 
L 4897 4666 
L 4897 0 
L 4281 0 
L 4281 4097 
L 3078 897 
L 2444 897 
L 1241 4097 
L 1241 0 
L 628 0 
L 628 4666 
z
" transform="scale(0.015625)"/>
       <path id="DejaVuSans-68" d="M 3513 2113 
L 3513 0 
L 2938 0 
L 2938 2094 
Q 2938 2591 2744 2837 
Q 2550 3084 2163 3084 
Q 1697 3084 1428 2787 
Q 1159 2491 1159 1978 
L 1159 0 
L 581 0 
L 581 4863 
L 1159 4863 
L 1159 2956 
Q 1366 3272 1645 3428 
Q 1925 3584 2291 3584 
Q 2894 3584 3203 3211 
Q 3513 2838 3513 2113 
z
" transform="scale(0.015625)"/>
       <path id="DejaVuSans-2d" d="M 313 2009 
L 1997 2009 
L 1997 1497 
L 313 1497 
L 313 2009 
z
" transform="scale(0.015625)"/>
       <path id="DejaVuSans-41" d="M 2188 4044 
L 1331 1722 
L 3047 1722 
L 2188 4044 
z
M 1831 4666 
L 2547 4666 
L 4325 0 
L 3669 0 
L 3244 1197 
L 1141 1197 
L 716 0 
L 50 0 
L 1831 4666 
z
" transform="scale(0.015625)"/>
      </defs>
      <use xlink:href="#DejaVuSans-4d"/>
      <use xlink:href="#DejaVuSans-65" transform="translate(86.279297 0)"/>
      <use xlink:href="#DejaVuSans-74" transform="translate(147.802734 0)"/>
      <use xlink:href="#DejaVuSans-68" transform="translate(187.011719 0)"/>
      <use xlink:href="#DejaVuSans-6f" transform="translate(250.390625 0)"/>
      <use xlink:href="#DejaVuSans-64" transform="translate(311.572266 0)"/>
      <use xlink:href="#DejaVuSans-2d" transform="translate(375.048828 0)"/>
      <use xlink:href="#DejaVuSans-41" transform="translate(408.882812 0)"/>
     </g>
    </g>
    <g id="line2d_28">
     <path d="M 260.461198 43.286484 
L 268.961198 43.286484 
L 277.461198 43.286484 
" style="fill: none; stroke: #e53935; stroke-width: 2; stroke-linecap: square"/>
    </g>
    <g id="text_14">
     <!-- OursModel (ours) -->
     <g transform="translate(284.261198 46.261484) scale(0.085 -0.085)">
      <defs>
       <path id="DejaVuSans-4f" d="M 2522 4238 
Q 1834 4238 1429 3725 
Q 1025 3213 1025 2328 
Q 1025 1447 1429 934 
Q 1834 422 2522 422 
Q 3209 422 3611 934 
Q 4013 1447 4013 2328 
Q 4013 3213 3611 3725 
Q 3209 4238 2522 4238 
z
M 2522 4750 
Q 3503 4750 4090 4092 
Q 4678 3434 4678 2328 
Q 4678 1225 4090 567 
Q 3503 -91 2522 -91 
Q 1538 -91 948 565 
Q 359 1222 359 2328 
Q 359 3434 948 4092 
Q 1538 4750 2522 4750 
z
" transform="scale(0.015625)"/>
       <path id="DejaVuSans-75" d="M 544 1381 
L 544 3500 
L 1119 3500 
L 1119 1403 
Q 1119 906 1312 657 
Q 1506 409 1894 409 
Q 2359 409 2629 706 
Q 2900 1003 2900 1516 
L 2900 3500 
L 3475 3500 
L 3475 0 
L 2900 0 
L 2900 538 
Q 2691 219 2414 64 
Q 2138 -91 1772 -91 
Q 1169 -91 856 284 
Q 544 659 544 1381 
z
M 1991 3584 
L 1991 3584 
z
" transform="scale(0.015625)"/>
       <path id="DejaVuSans-28" d="M 1984 4856 
Q 1566 4138 1362 3434 
Q 1159 2731 1159 2009 
Q 1159 1288 1364 580 
Q 1569 -128 1984 -844 
L 1484 -844 
Q 1016 -109 783 600 
Q 550 1309 550 2009 
Q 550 2706 781 3412 
Q 1013 4119 1484 4856 
L 1984 4856 
z
" transform="scale(0.015625)"/>
       <path id="DejaVuSans-29" d="M 513 4856 
L 1013 4856 
Q 1481 4119 1714 3412 
Q 1947 2706 1947 2009 
Q 1947 1309 1714 600 
Q 1481 -109 1013 -844 
L 513 -844 
Q 928 -128 1133 580 
Q 1338 1288 1338 2009 
Q 1338 2731 1133 3434 
Q 928 4138 513 4856 
z
" transform="scale(0.015625)"/>
      </defs>
      <use xlink:href="#DejaVuSans-4f"/>
      <use xlink:href="#DejaVuSans-75" transform="translate(78.710938 0)"/>
      <use xlink:href="#DejaVuSans-72" transform="translate(142.089844 0)"/>
      <use xlink:href="#DejaVuSans-73" transform="translate(183.203125 0)"/>
      <use xlink:href="#DejaVuSans-4d" transform="translate(235.302734 0)"/>
      <use xlink:href="#DejaVuSans-6f" transform="translate(321.582031 0)"/>
      <use xlink:href="#DejaVuSans-64" transform="translate(382.763672 0)"/>
      <use xlink:href="#DejaVuSans-65" transform="translate(446.240234 0)"/>
      <use xlink:href="#DejaVuSans-6c" transform="translate(507.763672 0)"/>
      <use xlink:href="#DejaVuSans-20" transform="translate(535.546875 0)"/>
      <use xlink:href="#DejaVuSans-28" transform="translate(567.333984 0)"/>
      <use xlink:href="#DejaVuSans-6f" transform="translate(606.347656 0)"/>
      <use xlink:href="#DejaVuSans-75" transform="translate(667.529297 0)"/>
      <use xlink:href="#DejaVuSans-72" transform="translate(730.908203 0)"/>
      <use xlink:href="#DejaVuSans-73" transform="translate(772.021484 0)"/>
      <use xlink:href="#DejaVuSans-29" transform="translate(824.121094 0)"/>
     </g>
    </g>
   </g>
  </g>
 </g>
 <defs>
  <clipPath id="p6fa19771c2">
   <rect x="62.478125" y="7.2" width="302.800026" height="223.72"/>
  </clipPath>
 </defs>
</svg>
