<?xml version="1.0" encoding="utf-8" standalone="no"?>
<!DOCTYPE svg PUBLIC "-//W3C//DTD SVG 1.1//EN"
  "http://www.w3.org/Graphics/SVG/1.1/DTD/svg11.dtd">
<svg xmlns:xlink="http://www.w3.org/1999/xlink" width="260.4625pt" height="195.135434pt" viewBox="0 0 260.4625 195.135434" xmlns="http://www.w3.org/2000/svg" version="1.1">
 <metadata>
  <rdf:RDF xmlns:dc="http://purl.org/dc/elements/1.1/" xmlns:cc="http://creativecommons.org/ns#" xmlns:rdf="http://www.w3.org/1999/02/22-rdf-syntax-ns#">
   <cc:Work>
    <dc:type rdf:resource="http://purl.org/dc/dcmitype/StillImage"/>
    <dc:date>2026-05-25T00:42:41.283870</dc:date>
    <dc:format>image/svg+xml</dc:format>
    <dc:creator>
     <cc:Agent>
      <dc:title>Matplotlib v3.10.9, https://matplotlib.org/</dc:title>
     </cc:Agent>
    </dc:creator>
   </cc:Work>
  </rdf:RDF>
 </metadata>
 <defs>
  <style type="text/css">*{stroke-linejoin: round; stroke-linecap: butt}</style>
 </defs>
 <g id="figure_1">
  <g id="patch_1">
   <path d="M 0 195.135434 
L 260.4625 195.135434 
L 260.4625 0 
L 0 0 
z
" style="fill: #ffffff"/>
  </g>
  <g id="axes_1">
   <g id="patch_2">
    <path d="M 36.1225 173.67684 
L 253.2625 173.67684 
L 253.2625 8.060209 
L 36.1225 8.060209 
z
" style="fill: #ffffff"/>
   </g>
   <g id="matplotlib.axis_1">
    <g id="xtick_1">
     <g id="line2d_1">
      <defs>
       <path id="me8cbeea92f" d="M 0 0 
L 0 3.5 
" style="stroke: #000000; stroke-width: 0.8"/>
      </defs>
      <g>
       <use xlink:href="#me8cbeea92f" x="62.098358" y="173.67684" style="stroke: #000000; stroke-width: 0.8"/>
      </g>
     </g>
     <g id="text_1">
      <text style="font-size: 7.5px; font-family: 'DejaVu Sans', 'Bitstream Vera Sans', 'Computer Modern Sans Serif', 'Lucida Grande', 'Verdana', 'Geneva', 'Lucid', 'Arial', 'Helvetica', 'Avant Garde', sans-serif; text-anchor: middle" x="62.098358" y="186.375668" transform="rotate(-0 62.098358 186.375668)">MMLU</text>
     </g>
    </g>
    <g id="xtick_2">
     <g id="line2d_2">
      <g>
       <use xlink:href="#me8cbeea92f" x="103.395429" y="173.67684" style="stroke: #000000; stroke-width: 0.8"/>
      </g>
     </g>
     <g id="text_2">
      <text style="font-size: 7.5px; font-family: 'DejaVu Sans', 'Bitstream Vera Sans', 'Computer Modern Sans Serif', 'Lucida Grande', 'Verdana', 'Geneva', 'Lucid', 'Arial', 'Helvetica', 'Avant Garde', sans-serif; text-anchor: middle" x="103.395429" y="186.375668" transform="rotate(-0 103.395429 186.375668)">HumanEval</text>
     </g>
    </g>
    <g id="xtick_3">
     <g id="line2d_3">
      <g>
       <use xlink:href="#me8cbeea92f" x="144.6925" y="173.67684" style="stroke: #000000; stroke-width: 0.8"/>
      </g>
     </g>
     <g id="text_3">
      <text style="font-size: 7.5px; font-family: 'DejaVu Sans', 'Bitstream Vera Sans', 'Computer Modern Sans Serif', 'Lucida Grande', 'Verdana', 'Geneva', 'Lucid', 'Arial', 'Helvetica', 'Avant Garde', sans-serif; text-anchor: middle" x="144.6925" y="186.375668" transform="rotate(-0 144.6925 186.375668)">GSM8K</text>
     </g>
    </g>
    <g id="xtick_4">
     <g id="line2d_4">
      <g>
       <use xlink:href="#me8cbeea92f" x="185.989571" y="173.67684" style="stroke: #000000; stroke-width: 0.8"/>
      </g>
     </g>
     <g id="text_4">
      <text style="font-size: 7.5px; font-family: 'DejaVu Sans', 'Bitstream Vera Sans', 'Computer Modern Sans Serif', 'Lucida Grande', 'Verdana', 'Geneva', 'Lucid', 'Arial', 'Helvetica', 'Avant Garde', sans-serif; text-anchor: middle" x="185.989571" y="186.375668" transform="rotate(-0 185.989571 186.375668)">MATH</text>
     </g>
    </g>
    <g id="xtick_5">
     <g id="line2d_5">
      <g>
       <use xlink:href="#me8cbeea92f" x="227.286642" y="173.67684" style="stroke: #000000; stroke-width: 0.8"/>
      </g>
     </g>
     <g id="text_5">
      <text style="font-size: 7.5px; font-family: 'DejaVu Sans', 'Bitstream Vera Sans', 'Computer Modern Sans Serif', 'Lucida Grande', 'Verdana', 'Geneva', 'Lucid', 'Arial', 'Helvetica', 'Avant Garde', sans-serif; text-anchor: middle" x="227.286642" y="186.375668" transform="rotate(-0 227.286642 186.375668)">GPQA</text>
     </g>
    </g>
   </g>
   <g id="matplotlib.axis_2">
    <g id="ytick_1">
     <g id="line2d_6">
      <path d="M 36.1225 162.274227 
L 253.2625 162.274227 
" clip-path="url(#p1d2a7bf040)" style="fill: none; stroke-dasharray: 1.48,0.64; stroke-dashoffset: 0; stroke: #b0b0b0; stroke-opacity: 0.7; stroke-width: 0.4"/>
     </g>
     <g id="line2d_7">
      <defs>
       <path id="m33a9c4a138" d="M 0 0 
L -3.5 0 
" style="stroke: #000000; stroke-width: 0.8"/>
      </defs>
      <g>
       <use xlink:href="#m33a9c4a138" x="36.1225" y="162.274227" style="stroke: #000000; stroke-width: 0.8"/>
      </g>
     </g>
     <g id="text_6">
      <text style="font-size: 8px; font-family: 'DejaVu Sans', 'Bitstream Vera Sans', 'Computer Modern Sans Serif', 'Lucida Grande', 'Verdana', 'Geneva', 'Lucid', 'Arial', 'Helvetica', 'Avant Garde', sans-serif; text-anchor: end" x="29.1225" y="165.313602" transform="rotate(-0 29.1225 165.313602)">30</text>
     </g>
    </g>
    <g id="ytick_2">
     <g id="line2d_8">
      <path d="M 36.1225 136.935085 
L 253.2625 136.935085 
" clip-path="url(#p1d2a7bf040)" style="fill: none; stroke-dasharray: 1.48,0.64; stroke-dashoffset: 0; stroke: #b0b0b0; stroke-opacity: 0.7; stroke-width: 0.4"/>
     </g>
     <g id="line2d_9">
      <g>
       <use xlink:href="#m33a9c4a138" x="36.1225" y="136.935085" style="stroke: #000000; stroke-width: 0.8"/>
      </g>
     </g>
     <g id="text_7">
      <text style="font-size: 8px; font-family: 'DejaVu Sans', 'Bitstream Vera Sans', 'Computer Modern Sans Serif', 'Lucida Grande', 'Verdana', 'Geneva', 'Lucid', 'Arial', 'Helvetica', 'Avant Garde', sans-serif; text-anchor: end" x="29.1225" y="139.97446" transform="rotate(-0 29.1225 139.97446)">40</text>
     </g>
    </g>
    <g id="ytick_3">
     <g id="line2d_10">
      <path d="M 36.1225 111.595943 
L 253.2625 111.595943 
" clip-path="url(#p1d2a7bf040)" style="fill: none; stroke-dasharray: 1.48,0.64; stroke-dashoffset: 0; stroke: #b0b0b0; stroke-opacity: 0.7; stroke-width: 0.4"/>
     </g>
     <g id="line2d_11">
      <g>
       <use xlink:href="#m33a9c4a138" x="36.1225" y="111.595943" style="stroke: #000000; stroke-width: 0.8"/>
      </g>
     </g>
     <g id="text_8">
      <text style="font-size: 8px; font-family: 'DejaVu Sans', 'Bitstream Vera Sans', 'Computer Modern Sans Serif', 'Lucida Grande', 'Verdana', 'Geneva', 'Lucid', 'Arial', 'Helvetica', 'Avant Garde', sans-serif; text-anchor: end" x="29.1225" y="114.635318" transform="rotate(-0 29.1225 114.635318)">50</text>
     </g>
    </g>
    <g id="ytick_4">
     <g id="line2d_12">
      <path d="M 36.1225 86.256801 
L 253.2625 86.256801 
" clip-path="url(#p1d2a7bf040)" style="fill: none; stroke-dasharray: 1.48,0.64; stroke-dashoffset: 0; stroke: #b0b0b0; stroke-opacity: 0.7; stroke-width: 0.4"/>
     </g>
     <g id="line2d_13">
      <g>
       <use xlink:href="#m33a9c4a138" x="36.1225" y="86.256801" style="stroke: #000000; stroke-width: 0.8"/>
      </g>
     </g>
     <g id="text_9">
      <text style="font-size: 8px; font-family: 'DejaVu Sans', 'Bitstream Vera Sans', 'Computer Modern Sans Serif', 'Lucida Grande', 'Verdana', 'Geneva', 'Lucid', 'Arial', 'Helvetica', 'Avant Garde', sans-serif; text-anchor: end" x="29.1225" y="89.296176" transform="rotate(-0 29.1225 89.296176)">60</text>
     </g>
    </g>
    <g id="ytick_5">
     <g id="line2d_14">
      <path d="M 36.1225 60.917659 
L 253.2625 60.917659 
" clip-path="url(#p1d2a7bf040)" style="fill: none; stroke-dasharray: 1.48,0.64; stroke-dashoffset: 0; stroke: #b0b0b0; stroke-opacity: 0.7; stroke-width: 0.4"/>
     </g>
     <g id="line2d_15">
      <g>
       <use xlink:href="#m33a9c4a138" x="36.1225" y="60.917659" style="stroke: #000000; stroke-width: 0.8"/>
      </g>
     </g>
     <g id="text_10">
      <text style="font-size: 8px; font-family: 'DejaVu Sans', 'Bitstream Vera Sans', 'Computer Modern Sans Serif', 'Lucida Grande', 'Verdana', 'Geneva', 'Lucid', 'Arial', 'Helvetica', 'Avant Garde', sans-serif; text-anchor: end" x="29.1225" y="63.957034" transform="rotate(-0 29.1225 63.957034)">70</text>
     </g>
    </g>
    <g id="ytick_6">
     <g id="line2d_16">
      <path d="M 36.1225 35.578517 
L 253.2625 35.578517 
" clip-path="url(#p1d2a7bf040)" style="fill: none; stroke-dasharray: 1.48,0.64; stroke-dashoffset: 0; stroke: #b0b0b0; stroke-opacity: 0.7; stroke-width: 0.4"/>
     </g>
     <g id="line2d_17">
      <g>
       <use xlink:href="#m33a9c4a138" x="36.1225" y="35.578517" style="stroke: #000000; stroke-width: 0.8"/>
      </g>
     </g>
     <g id="text_11">
      <text style="font-size: 8px; font-family: 'DejaVu Sans', 'Bitstream Vera Sans', 'Computer Modern Sans Serif', 'Lucida Grande', 'Verdana', 'Geneva', 'Lucid', 'Arial', 'Helvetica', 'Avant Garde', sans-serif; text-anchor: end" x="29.1225" y="38.617892" transform="rotate(-0 29.1225 38.617892)">80</text>
     </g>
    </g>
    <g id="ytick_7">
     <g id="line2d_18">
      <path d="M 36.1225 10.239375 
L 253.2625 10.239375 
" clip-path="url(#p1d2a7bf040)" style="fill: none; stroke-dasharray: 1.48,0.64; stroke-dashoffset: 0; stroke: #b0b0b0; stroke-opacity: 0.7; stroke-width: 0.4"/>
     </g>
     <g id="line2d_19">
      <g>
       <use xlink:href="#m33a9c4a138" x="36.1225" y="10.239375" style="stroke: #000000; stroke-width: 0.8"/>
      </g>
     </g>
     <g id="text_12">
      <text style="font-size: 8px; font-family: 'DejaVu Sans', 'Bitstream Vera Sans', 'Computer Modern Sans Serif', 'Lucida Grande', 'Verdana', 'Geneva', 'Lucid', 'Arial', 'Helvetica', 'Avant Garde', sans-serif; text-anchor: end" x="29.1225" y="13.27875" transform="rotate(-0 29.1225 13.27875)">90</text>
     </g>
    </g>
    <g id="text_13">
     <text style="font-size: 8px; font-family: 'DejaVu Sans', 'Bitstream Vera Sans', 'Computer Modern Sans Serif', 'Lucida Grande', 'Verdana', 'Geneva', 'Lucid', 'Arial', 'Helvetica', 'Avant Garde', sans-serif; text-anchor: middle" x="13.27875" y="90.868525" transform="rotate(-90 13.27875 90.868525)">Accuracy (%)</text>
    </g>
   </g>
   <g id="patch_3">
    <path d="M 36.1225 173.67684 
L 36.1225 8.060209 
" style="fill: none; stroke: #000000; stroke-width: 0.8; stroke-linejoin: miter; stroke-linecap: square"/>
   </g>
   <g id="patch_4">
    <path d="M 36.1225 173.67684 
L 253.2625 173.67684 
" style="fill: none; stroke: #000000; stroke-width: 0.8; stroke-linejoin: miter; stroke-linecap: square"/>
   </g>
   <g id="patch_5">
    <path d="M 45.9925 238.291652 
L 53.425973 238.291652 
L 53.425973 72.573664 
L 45.9925 72.573664 
z
" clip-path="url(#p1d2a7bf040)" style="fill: #4c72b0; stroke: #4c4c4c; stroke-width: 0.6; stroke-linejoin: miter"/>
   </g>
   <g id="patch_6">
    <path d="M 87.289571 238.291652 
L 94.723044 238.291652 
L 94.723044 116.156988 
L 87.289571 116.156988 
z
" clip-path="url(#p1d2a7bf040)" style="fill: #4c72b0; stroke: #4c4c4c; stroke-width: 0.6; stroke-linejoin: miter"/>
   </g>
   <g id="patch_7">
    <path d="M 128.586642 238.291652 
L 136.020115 238.291652 
L 136.020115 55.596439 
L 128.586642 55.596439 
z
" clip-path="url(#p1d2a7bf040)" style="fill: #4c72b0; stroke: #4c4c4c; stroke-width: 0.6; stroke-linejoin: miter"/>
   </g>
   <g id="patch_8">
    <path d="M 169.883713 238.291652 
L 177.317186 238.291652 
L 177.317186 158.473355 
L 169.883713 158.473355 
z
" clip-path="url(#p1d2a7bf040)" style="fill: #4c72b0; stroke: #4c4c4c; stroke-width: 0.6; stroke-linejoin: miter"/>
   </g>
   <g id="patch_9">
    <path d="M 211.180785 238.291652 
L 218.614257 238.291652 
L 218.614257 146.057176 
L 211.180785 146.057176 
z
" clip-path="url(#p1d2a7bf040)" style="fill: #4c72b0; stroke: #4c4c4c; stroke-width: 0.6; stroke-linejoin: miter"/>
   </g>
   <g id="patch_10">
    <path d="M 54.251914 238.291652 
L 61.685387 238.291652 
L 61.685387 58.383745 
L 54.251914 58.383745 
z
" clip-path="url(#p1d2a7bf040)" style="fill: url(#h205aa63b12); stroke: #4c4c4c; stroke-width: 0.6; stroke-linejoin: miter"/>
   </g>
   <g id="patch_11">
    <path d="M 95.548985 238.291652 
L 102.982458 238.291652 
L 102.982458 97.406023 
L 95.548985 97.406023 
z
" clip-path="url(#p1d2a7bf040)" style="fill: url(#h205aa63b12); stroke: #4c4c4c; stroke-width: 0.6; stroke-linejoin: miter"/>
   </g>
   <g id="patch_12">
    <path d="M 136.846056 238.291652 
L 144.279529 238.291652 
L 144.279529 39.886171 
L 136.846056 39.886171 
z
" clip-path="url(#p1d2a7bf040)" style="fill: url(#h205aa63b12); stroke: #4c4c4c; stroke-width: 0.6; stroke-linejoin: miter"/>
   </g>
   <g id="patch_13">
    <path d="M 178.143128 238.291652 
L 185.5766 238.291652 
L 185.5766 144.030044 
L 178.143128 144.030044 
z
" clip-path="url(#p1d2a7bf040)" style="fill: url(#h205aa63b12); stroke: #4c4c4c; stroke-width: 0.6; stroke-linejoin: miter"/>
   </g>
   <g id="patch_14">
    <path d="M 219.440199 238.291652 
L 226.873672 238.291652 
L 226.873672 132.374039 
L 219.440199 132.374039 
z
" clip-path="url(#p1d2a7bf040)" style="fill: url(#h205aa63b12); stroke: #4c4c4c; stroke-width: 0.6; stroke-linejoin: miter"/>
   </g>
   <g id="patch_15">
    <path d="M 62.511328 238.291652 
L 69.944801 238.291652 
L 69.944801 52.048959 
L 62.511328 52.048959 
z
" clip-path="url(#p1d2a7bf040)" style="fill: url(#hf449da5ac1); stroke: #4c4c4c; stroke-width: 0.6; stroke-linejoin: miter"/>
   </g>
   <g id="patch_16">
    <path d="M 103.8084 238.291652 
L 111.241872 238.291652 
L 111.241872 87.777149 
L 103.8084 87.777149 
z
" clip-path="url(#p1d2a7bf040)" style="fill: url(#hf449da5ac1); stroke: #4c4c4c; stroke-width: 0.6; stroke-linejoin: miter"/>
   </g>
   <g id="patch_17">
    <path d="M 145.105471 238.291652 
L 152.538944 238.291652 
L 152.538944 33.804777 
L 145.105471 33.804777 
z
" clip-path="url(#p1d2a7bf040)" style="fill: url(#hf449da5ac1); stroke: #4c4c4c; stroke-width: 0.6; stroke-linejoin: miter"/>
   </g>
   <g id="patch_18">
    <path d="M 186.402542 238.291652 
L 193.836015 238.291652 
L 193.836015 137.441867 
L 186.402542 137.441867 
z
" clip-path="url(#p1d2a7bf040)" style="fill: url(#hf449da5ac1); stroke: #4c4c4c; stroke-width: 0.6; stroke-linejoin: miter"/>
   </g>
   <g id="patch_19">
    <path d="M 227.699613 238.291652 
L 235.133086 238.291652 
L 235.133086 126.546036 
L 227.699613 126.546036 
z
" clip-path="url(#p1d2a7bf040)" style="fill: url(#hf449da5ac1); stroke: #4c4c4c; stroke-width: 0.6; stroke-linejoin: miter"/>
   </g>
   <g id="patch_20">
    <path d="M 70.770743 238.291652 
L 78.204215 238.291652 
L 78.204215 43.687042 
L 70.770743 43.687042 
z
" clip-path="url(#p1d2a7bf040)" style="fill: url(#hb4ee0f7e38); stroke: #000000; stroke-width: 1.2; stroke-linejoin: miter"/>
   </g>
   <g id="patch_21">
    <path d="M 112.067814 238.291652 
L 119.501287 238.291652 
L 119.501287 74.347404 
L 112.067814 74.347404 
z
" clip-path="url(#p1d2a7bf040)" style="fill: url(#hb4ee0f7e38); stroke: #000000; stroke-width: 1.2; stroke-linejoin: miter"/>
   </g>
   <g id="patch_22">
    <path d="M 153.364885 238.291652 
L 160.798358 238.291652 
L 160.798358 24.936077 
L 153.364885 24.936077 
z
" clip-path="url(#p1d2a7bf040)" style="fill: url(#hb4ee0f7e38); stroke: #000000; stroke-width: 1.2; stroke-linejoin: miter"/>
   </g>
   <g id="patch_23">
    <path d="M 194.661956 238.291652 
L 202.095429 238.291652 
L 202.095429 125.279079 
L 194.661956 125.279079 
z
" clip-path="url(#p1d2a7bf040)" style="fill: url(#hb4ee0f7e38); stroke: #000000; stroke-width: 1.2; stroke-linejoin: miter"/>
   </g>
   <g id="patch_24">
    <path d="M 235.959027 238.291652 
L 243.3925 238.291652 
L 243.3925 113.369683 
L 235.959027 113.369683 
z
" clip-path="url(#p1d2a7bf040)" style="fill: url(#hb4ee0f7e38); stroke: #000000; stroke-width: 1.2; stroke-linejoin: miter"/>
   </g>
   <g id="LineCollection_1">
    <path d="M 49.709236 77.008014 
L 49.709236 68.139314 
" clip-path="url(#p1d2a7bf040)" style="fill: none; stroke: #333333; stroke-width: 0.8"/>
    <path d="M 91.006308 117.804032 
L 91.006308 114.509944 
" clip-path="url(#p1d2a7bf040)" style="fill: none; stroke: #333333; stroke-width: 0.8"/>
    <path d="M 132.303379 58.383745 
L 132.303379 52.809133 
" clip-path="url(#p1d2a7bf040)" style="fill: none; stroke: #333333; stroke-width: 0.8"/>
    <path d="M 173.60045 161.007269 
L 173.60045 155.939441 
" clip-path="url(#p1d2a7bf040)" style="fill: none; stroke: #333333; stroke-width: 0.8"/>
    <path d="M 214.897521 150.94763 
L 214.897521 141.166721 
" clip-path="url(#p1d2a7bf040)" style="fill: none; stroke: #333333; stroke-width: 0.8"/>
   </g>
   <g id="line2d_20">
    <defs>
     <path id="m28ba1ea11b" d="M 2 0 
L -2 -0 
" style="stroke: #333333; stroke-width: 0.8"/>
    </defs>
    <g clip-path="url(#p1d2a7bf040)">
     <use xlink:href="#m28ba1ea11b" x="49.709236" y="77.008014" style="fill: #1f77b4; stroke: #333333; stroke-width: 0.8"/>
     <use xlink:href="#m28ba1ea11b" x="91.006308" y="117.804032" style="fill: #1f77b4; stroke: #333333; stroke-width: 0.8"/>
     <use xlink:href="#m28ba1ea11b" x="132.303379" y="58.383745" style="fill: #1f77b4; stroke: #333333; stroke-width: 0.8"/>
     <use xlink:href="#m28ba1ea11b" x="173.60045" y="161.007269" style="fill: #1f77b4; stroke: #333333; stroke-width: 0.8"/>
     <use xlink:href="#m28ba1ea11b" x="214.897521" y="150.94763" style="fill: #1f77b4; stroke: #333333; stroke-width: 0.8"/>
    </g>
   </g>
   <g id="line2d_21">
    <g clip-path="url(#p1d2a7bf040)">
     <use xlink:href="#m28ba1ea11b" x="49.709236" y="68.139314" style="fill: #1f77b4; stroke: #333333; stroke-width: 0.8"/>
     <use xlink:href="#m28ba1ea11b" x="91.006308" y="114.509944" style="fill: #1f77b4; stroke: #333333; stroke-width: 0.8"/>
     <use xlink:href="#m28ba1ea11b" x="132.303379" y="52.809133" style="fill: #1f77b4; stroke: #333333; stroke-width: 0.8"/>
     <use xlink:href="#m28ba1ea11b" x="173.60045" y="155.939441" style="fill: #1f77b4; stroke: #333333; stroke-width: 0.8"/>
     <use xlink:href="#m28ba1ea11b" x="214.897521" y="141.166721" style="fill: #1f77b4; stroke: #333333; stroke-width: 0.8"/>
    </g>
   </g>
   <g id="LineCollection_2">
    <path d="M 57.968651 62.995468 
L 57.968651 53.772021 
" clip-path="url(#p1d2a7bf040)" style="fill: none; stroke: #333333; stroke-width: 0.8"/>
    <path d="M 99.265722 103.005974 
L 99.265722 91.806073 
" clip-path="url(#p1d2a7bf040)" style="fill: none; stroke: #333333; stroke-width: 0.8"/>
    <path d="M 140.562793 41.811946 
L 140.562793 37.960396 
" clip-path="url(#p1d2a7bf040)" style="fill: none; stroke: #333333; stroke-width: 0.8"/>
    <path d="M 181.859864 147.476168 
L 181.859864 140.583921 
" clip-path="url(#p1d2a7bf040)" style="fill: none; stroke: #333333; stroke-width: 0.8"/>
    <path d="M 223.156935 134.021083 
L 223.156935 130.726995 
" clip-path="url(#p1d2a7bf040)" style="fill: none; stroke: #333333; stroke-width: 0.8"/>
   </g>
   <g id="line2d_22">
    <g clip-path="url(#p1d2a7bf040)">
     <use xlink:href="#m28ba1ea11b" x="57.968651" y="62.995468" style="fill: #1f77b4; stroke: #333333; stroke-width: 0.8"/>
     <use xlink:href="#m28ba1ea11b" x="99.265722" y="103.005974" style="fill: #1f77b4; stroke: #333333; stroke-width: 0.8"/>
     <use xlink:href="#m28ba1ea11b" x="140.562793" y="41.811946" style="fill: #1f77b4; stroke: #333333; stroke-width: 0.8"/>
     <use xlink:href="#m28ba1ea11b" x="181.859864" y="147.476168" style="fill: #1f77b4; stroke: #333333; stroke-width: 0.8"/>
     <use xlink:href="#m28ba1ea11b" x="223.156935" y="134.021083" style="fill: #1f77b4; stroke: #333333; stroke-width: 0.8"/>
    </g>
   </g>
   <g id="line2d_23">
    <g clip-path="url(#p1d2a7bf040)">
     <use xlink:href="#m28ba1ea11b" x="57.968651" y="53.772021" style="fill: #1f77b4; stroke: #333333; stroke-width: 0.8"/>
     <use xlink:href="#m28ba1ea11b" x="99.265722" y="91.806073" style="fill: #1f77b4; stroke: #333333; stroke-width: 0.8"/>
     <use xlink:href="#m28ba1ea11b" x="140.562793" y="37.960396" style="fill: #1f77b4; stroke: #333333; stroke-width: 0.8"/>
     <use xlink:href="#m28ba1ea11b" x="181.859864" y="140.583921" style="fill: #1f77b4; stroke: #333333; stroke-width: 0.8"/>
     <use xlink:href="#m28ba1ea11b" x="223.156935" y="130.726995" style="fill: #1f77b4; stroke: #333333; stroke-width: 0.8"/>
    </g>
   </g>
   <g id="LineCollection_3">
    <path d="M 66.228065 54.557534 
L 66.228065 49.540384 
" clip-path="url(#p1d2a7bf040)" style="fill: none; stroke: #333333; stroke-width: 0.8"/>
    <path d="M 107.525136 91.60336 
L 107.525136 83.950939 
" clip-path="url(#p1d2a7bf040)" style="fill: none; stroke: #333333; stroke-width: 0.8"/>
    <path d="M 148.822207 35.451821 
L 148.822207 32.157733 
" clip-path="url(#p1d2a7bf040)" style="fill: none; stroke: #333333; stroke-width: 0.8"/>
    <path d="M 190.119278 139.874425 
L 190.119278 135.00931 
" clip-path="url(#p1d2a7bf040)" style="fill: none; stroke: #333333; stroke-width: 0.8"/>
    <path d="M 231.416349 131.031065 
L 231.416349 122.061008 
" clip-path="url(#p1d2a7bf040)" style="fill: none; stroke: #333333; stroke-width: 0.8"/>
   </g>
   <g id="line2d_24">
    <g clip-path="url(#p1d2a7bf040)">
     <use xlink:href="#m28ba1ea11b" x="66.228065" y="54.557534" style="fill: #1f77b4; stroke: #333333; stroke-width: 0.8"/>
     <use xlink:href="#m28ba1ea11b" x="107.525136" y="91.60336" style="fill: #1f77b4; stroke: #333333; stroke-width: 0.8"/>
     <use xlink:href="#m28ba1ea11b" x="148.822207" y="35.451821" style="fill: #1f77b4; stroke: #333333; stroke-width: 0.8"/>
     <use xlink:href="#m28ba1ea11b" x="190.119278" y="139.874425" style="fill: #1f77b4; stroke: #333333; stroke-width: 0.8"/>
     <use xlink:href="#m28ba1ea11b" x="231.416349" y="131.031065" style="fill: #1f77b4; stroke: #333333; stroke-width: 0.8"/>
    </g>
   </g>
   <g id="line2d_25">
    <g clip-path="url(#p1d2a7bf040)">
     <use xlink:href="#m28ba1ea11b" x="66.228065" y="49.540384" style="fill: #1f77b4; stroke: #333333; stroke-width: 0.8"/>
     <use xlink:href="#m28ba1ea11b" x="107.525136" y="83.950939" style="fill: #1f77b4; stroke: #333333; stroke-width: 0.8"/>
     <use xlink:href="#m28ba1ea11b" x="148.822207" y="32.157733" style="fill: #1f77b4; stroke: #333333; stroke-width: 0.8"/>
     <use xlink:href="#m28ba1ea11b" x="190.119278" y="135.00931" style="fill: #1f77b4; stroke: #333333; stroke-width: 0.8"/>
     <use xlink:href="#m28ba1ea11b" x="231.416349" y="122.061008" style="fill: #1f77b4; stroke: #333333; stroke-width: 0.8"/>
    </g>
   </g>
   <g id="LineCollection_4">
    <path d="M 74.487479 47.690627 
L 74.487479 39.683458 
" clip-path="url(#p1d2a7bf040)" style="fill: none; stroke: #333333; stroke-width: 0.8"/>
    <path d="M 115.78455 76.881318 
L 115.78455 71.81349 
" clip-path="url(#p1d2a7bf040)" style="fill: none; stroke: #333333; stroke-width: 0.8"/>
    <path d="M 157.081621 29.142375 
L 157.081621 20.72978 
" clip-path="url(#p1d2a7bf040)" style="fill: none; stroke: #333333; stroke-width: 0.8"/>
    <path d="M 198.378692 130.498943 
L 198.378692 120.059216 
" clip-path="url(#p1d2a7bf040)" style="fill: none; stroke: #333333; stroke-width: 0.8"/>
    <path d="M 239.675764 114.91537 
L 239.675764 111.823995 
" clip-path="url(#p1d2a7bf040)" style="fill: none; stroke: #333333; stroke-width: 0.8"/>
   </g>
   <g id="line2d_26">
    <g clip-path="url(#p1d2a7bf040)">
     <use xlink:href="#m28ba1ea11b" x="74.487479" y="47.690627" style="fill: #1f77b4; stroke: #333333; stroke-width: 0.8"/>
     <use xlink:href="#m28ba1ea11b" x="115.78455" y="76.881318" style="fill: #1f77b4; stroke: #333333; stroke-width: 0.8"/>
     <use xlink:href="#m28ba1ea11b" x="157.081621" y="29.142375" style="fill: #1f77b4; stroke: #333333; stroke-width: 0.8"/>
     <use xlink:href="#m28ba1ea11b" x="198.378692" y="130.498943" style="fill: #1f77b4; stroke: #333333; stroke-width: 0.8"/>
     <use xlink:href="#m28ba1ea11b" x="239.675764" y="114.91537" style="fill: #1f77b4; stroke: #333333; stroke-width: 0.8"/>
    </g>
   </g>
   <g id="line2d_27">
    <g clip-path="url(#p1d2a7bf040)">
     <use xlink:href="#m28ba1ea11b" x="74.487479" y="39.683458" style="fill: #1f77b4; stroke: #333333; stroke-width: 0.8"/>
     <use xlink:href="#m28ba1ea11b" x="115.78455" y="71.81349" style="fill: #1f77b4; stroke: #333333; stroke-width: 0.8"/>
     <use xlink:href="#m28ba1ea11b" x="157.081621" y="20.72978" style="fill: #1f77b4; stroke: #333333; stroke-width: 0.8"/>
     <use xlink:href="#m28ba1ea11b" x="198.378692" y="120.059216" style="fill: #1f77b4; stroke: #333333; stroke-width: 0.8"/>
     <use xlink:href="#m28ba1ea11b" x="239.675764" y="111.823995" style="fill: #1f77b4; stroke: #333333; stroke-width: 0.8"/>
    </g>
   </g>
   <g id="legend_1">
    <g id="patch_25">
     <path d="M 40.6725 32.341771 
L 159.901797 32.341771 
Q 161.201797 32.341771 161.201797 31.041771 
L 161.201797 12.610209 
Q 161.201797 11.310209 159.901797 11.310209 
L 40.6725 11.310209 
Q 39.3725 11.310209 39.3725 12.610209 
L 39.3725 31.041771 
Q 39.3725 32.341771 40.6725 32.341771 
z
" style="fill: #ffffff; opacity: 0.9; stroke: #b2b2b2; stroke-linejoin: miter"/>
    </g>
    <g id="patch_26">
     <path d="M 42.6225 19.499193 
L 51.7225 19.499193 
L 51.7225 14.949193 
L 42.6225 14.949193 
z
" style="fill: #4c72b0; stroke: #4c4c4c; stroke-width: 0.6; stroke-linejoin: miter"/>
    </g>
    <g id="text_14">
     <text style="font-size: 6.5px; font-family: 'DejaVu Sans', 'Bitstream Vera Sans', 'Computer Modern Sans Serif', 'Lucida Grande', 'Verdana', 'Geneva', 'Lucid', 'Arial', 'Helvetica', 'Avant Garde', sans-serif; text-anchor: start" x="56.9225" y="19.499193" transform="rotate(-0 56.9225 19.499193)">Baseline</text>
    </g>
    <g id="patch_27">
     <path d="M 42.6225 27.739974 
L 51.7225 27.739974 
L 51.7225 23.189974 
L 42.6225 23.189974 
z
" style="fill: url(#h205aa63b12); stroke: #4c4c4c; stroke-width: 0.6; stroke-linejoin: miter"/>
    </g>
    <g id="text_15">
     <text style="font-size: 6.5px; font-family: 'DejaVu Sans', 'Bitstream Vera Sans', 'Computer Modern Sans Serif', 'Lucida Grande', 'Verdana', 'Geneva', 'Lucid', 'Arial', 'Helvetica', 'Avant Garde', sans-serif; text-anchor: start" x="56.9225" y="27.739974" transform="rotate(-0 56.9225 27.739974)">Method-A</text>
    </g>
    <g id="patch_28">
     <path d="M 100.946797 19.499193 
L 110.046797 19.499193 
L 110.046797 14.949193 
L 100.946797 14.949193 
z
" style="fill: url(#hf449da5ac1); stroke: #4c4c4c; stroke-width: 0.6; stroke-linejoin: miter"/>
    </g>
    <g id="text_16">
     <text style="font-size: 6.5px; font-family: 'DejaVu Sans', 'Bitstream Vera Sans', 'Computer Modern Sans Serif', 'Lucida Grande', 'Verdana', 'Geneva', 'Lucid', 'Arial', 'Helvetica', 'Avant Garde', sans-serif; text-anchor: start" x="115.246797" y="19.499193" transform="rotate(-0 115.246797 19.499193)">Method-B</text>
    </g>
    <g id="patch_29">
     <path d="M 100.946797 27.739974 
L 110.046797 27.739974 
L 110.046797 23.189974 
L 100.946797 23.189974 
z
" style="fill: url(#hb4ee0f7e38); stroke: #000000; stroke-width: 1.2; stroke-linejoin: miter"/>
    </g>
    <g id="text_17">
     <text style="font-size: 6.5px; font-family: 'DejaVu Sans', 'Bitstream Vera Sans', 'Computer Modern Sans Serif', 'Lucida Grande', 'Verdana', 'Geneva', 'Lucid', 'Arial', 'Helvetica', 'Avant Garde', sans-serif; text-anchor: start" x="115.246797" y="27.739974" transform="rotate(-0 115.246797 27.739974)">OursModel ★</text>
    </g>
   </g>
  </g>
 </g>
 <defs>
  <clipPath id="p1d2a7bf040">
   <rect x="36.1225" y="8.060209" width="217.14" height="165.616632"/>
  </clipPath>
 </defs>
 <defs>
  <pattern id="h205aa63b12" patternUnits="userSpaceOnUse" x="0" y="0" width="72" height="72">
   <rect x="0" y="0" width="73" height="73" fill="#dd8452"/>
   <path d="M -36 36 
L 36 -36 
M -30 42 
L 42 -30 
M -24 48 
L 48 -24 
M -18 54 
L 54 -18 
M -12 60 
L 60 -12 
M -6 66 
L 66 -6 
M 0 72 
L 72 0 
M 6 78 
L 78 6 
M 12 84 
L 84 12 
M 18 90 
L 90 18 
M 24 96 
L 96 24 
M 30 102 
L 102 30 
M 36 108 
L 108 36 
" style="fill: #4c4c4c; stroke: #4c4c4c; stroke-width: 1.0; stroke-linecap: butt; stroke-linejoin: miter"/>
  </pattern>
  <pattern id="hf449da5ac1" patternUnits="userSpaceOnUse" x="0" y="0" width="72" height="72">
   <rect x="0" y="0" width="73" height="73" fill="#55a868"/>
   <path d="M 0 72.6 
C 0.159122 72.6 0.311748 72.53678 0.424264 72.424264 
C 0.53678 72.311748 0.6 72.159122 0.6 72 
C 0.6 71.840878 0.53678 71.688252 0.424264 71.575736 
C 0.311748 71.46322 0.159122 71.4 0 71.4 
C -0.159122 71.4 -0.311748 71.46322 -0.424264 71.575736 
C -0.53678 71.688252 -0.6 71.840878 -0.6 72 
C -0.6 72.159122 -0.53678 72.311748 -0.424264 72.424264 
C -0.311748 72.53678 -0.159122 72.6 0 72.6 
z
M 6 72.6 
C 6.159122 72.6 6.311748 72.53678 6.424264 72.424264 
C 6.53678 72.311748 6.6 72.159122 6.6 72 
C 6.6 71.840878 6.53678 71.688252 6.424264 71.575736 
C 6.311748 71.46322 6.159122 71.4 6 71.4 
C 5.840878 71.4 5.688252 71.46322 5.575736 71.575736 
C 5.46322 71.688252 5.4 71.840878 5.4 72 
C 5.4 72.159122 5.46322 72.311748 5.575736 72.424264 
C 5.688252 72.53678 5.840878 72.6 6 72.6 
z
M 12 72.6 
C 12.159122 72.6 12.311748 72.53678 12.424264 72.424264 
C 12.53678 72.311748 12.6 72.159122 12.6 72 
C 12.6 71.840878 12.53678 71.688252 12.424264 71.575736 
C 12.311748 71.46322 12.159122 71.4 12 71.4 
C 11.840878 71.4 11.688252 71.46322 11.575736 71.575736 
C 11.46322 71.688252 11.4 71.840878 11.4 72 
C 11.4 72.159122 11.46322 72.311748 11.575736 72.424264 
C 11.688252 72.53678 11.840878 72.6 12 72.6 
z
M 18 72.6 
C 18.159122 72.6 18.311748 72.53678 18.424264 72.424264 
C 18.53678 72.311748 18.6 72.159122 18.6 72 
C 18.6 71.840878 18.53678 71.688252 18.424264 71.575736 
C 18.311748 71.46322 18.159122 71.4 18 71.4 
C 17.840878 71.4 17.688252 71.46322 17.575736 71.575736 
C 17.46322 71.688252 17.4 71.840878 17.4 72 
C 17.4 72.159122 17.46322 72.311748 17.575736 72.424264 
C 17.688252 72.53678 17.840878 72.6 18 72.6 
z
M 24 72.6 
C 24.159122 72.6 24.311748 72.53678 24.424264 72.424264 
C 24.53678 72.311748 24.6 72.159122 24.6 72 
C 24.6 71.840878 24.53678 71.688252 24.424264 71.575736 
C 24.311748 71.46322 24.159122 71.4 24 71.4 
C 23.840878 71.4 23.688252 71.46322 23.575736 71.575736 
C 23.46322 71.688252 23.4 71.840878 23.4 72 
C 23.4 72.159122 23.46322 72.311748 23.575736 72.424264 
C 23.688252 72.53678 23.840878 72.6 24 72.6 
z
M 30 72.6 
C 30.159122 72.6 30.311748 72.53678 30.424264 72.424264 
C 30.53678 72.311748 30.6 72.159122 30.6 72 
C 30.6 71.840878 30.53678 71.688252 30.424264 71.575736 
C 30.311748 71.46322 30.159122 71.4 30 71.4 
C 29.840878 71.4 29.688252 71.46322 29.575736 71.575736 
C 29.46322 71.688252 29.4 71.840878 29.4 72 
C 29.4 72.159122 29.46322 72.311748 29.575736 72.424264 
C 29.688252 72.53678 29.840878 72.6 30 72.6 
z
M 36 72.6 
C 36.159122 72.6 36.311748 72.53678 36.424264 72.424264 
C 36.53678 72.311748 36.6 72.159122 36.6 72 
C 36.6 71.840878 36.53678 71.688252 36.424264 71.575736 
C 36.311748 71.46322 36.159122 71.4 36 71.4 
C 35.840878 71.4 35.688252 71.46322 35.575736 71.575736 
C 35.46322 71.688252 35.4 71.840878 35.4 72 
C 35.4 72.159122 35.46322 72.311748 35.575736 72.424264 
C 35.688252 72.53678 35.840878 72.6 36 72.6 
z
M 42 72.6 
C 42.159122 72.6 42.311748 72.53678 42.424264 72.424264 
C 42.53678 72.311748 42.6 72.159122 42.6 72 
C 42.6 71.840878 42.53678 71.688252 42.424264 71.575736 
C 42.311748 71.46322 42.159122 71.4 42 71.4 
C 41.840878 71.4 41.688252 71.46322 41.575736 71.575736 
C 41.46322 71.688252 41.4 71.840878 41.4 72 
C 41.4 72.159122 41.46322 72.311748 41.575736 72.424264 
C 41.688252 72.53678 41.840878 72.6 42 72.6 
z
M 48 72.6 
C 48.159122 72.6 48.311748 72.53678 48.424264 72.424264 
C 48.53678 72.311748 48.6 72.159122 48.6 72 
C 48.6 71.840878 48.53678 71.688252 48.424264 71.575736 
C 48.311748 71.46322 48.159122 71.4 48 71.4 
C 47.840878 71.4 47.688252 71.46322 47.575736 71.575736 
C 47.46322 71.688252 47.4 71.840878 47.4 72 
C 47.4 72.159122 47.46322 72.311748 47.575736 72.424264 
C 47.688252 72.53678 47.840878 72.6 48 72.6 
z
M 54 72.6 
C 54.159122 72.6 54.311748 72.53678 54.424264 72.424264 
C 54.53678 72.311748 54.6 72.159122 54.6 72 
C 54.6 71.840878 54.53678 71.688252 54.424264 71.575736 
C 54.311748 71.46322 54.159122 71.4 54 71.4 
C 53.840878 71.4 53.688252 71.46322 53.575736 71.575736 
C 53.46322 71.688252 53.4 71.840878 53.4 72 
C 53.4 72.159122 53.46322 72.311748 53.575736 72.424264 
C 53.688252 72.53678 53.840878 72.6 54 72.6 
z
M 60 72.6 
C 60.159122 72.6 60.311748 72.53678 60.424264 72.424264 
C 60.53678 72.311748 60.6 72.159122 60.6 72 
C 60.6 71.840878 60.53678 71.688252 60.424264 71.575736 
C 60.311748 71.46322 60.159122 71.4 60 71.4 
C 59.840878 71.4 59.688252 71.46322 59.575736 71.575736 
C 59.46322 71.688252 59.4 71.840878 59.4 72 
C 59.4 72.159122 59.46322 72.311748 59.575736 72.424264 
C 59.688252 72.53678 59.840878 72.6 60 72.6 
z
M 66 72.6 
C 66.159122 72.6 66.311748 72.53678 66.424264 72.424264 
C 66.53678 72.311748 66.6 72.159122 66.6 72 
C 66.6 71.840878 66.53678 71.688252 66.424264 71.575736 
C 66.311748 71.46322 66.159122 71.4 66 71.4 
C 65.840878 71.4 65.688252 71.46322 65.575736 71.575736 
C 65.46322 71.688252 65.4 71.840878 65.4 72 
C 65.4 72.159122 65.46322 72.311748 65.575736 72.424264 
C 65.688252 72.53678 65.840878 72.6 66 72.6 
z
M 72 72.6 
C 72.159122 72.6 72.311748 72.53678 72.424264 72.424264 
C 72.53678 72.311748 72.6 72.159122 72.6 72 
C 72.6 71.840878 72.53678 71.688252 72.424264 71.575736 
C 72.311748 71.46322 72.159122 71.4 72 71.4 
C 71.840878 71.4 71.688252 71.46322 71.575736 71.575736 
C 71.46322 71.688252 71.4 71.840878 71.4 72 
C 71.4 72.159122 71.46322 72.311748 71.575736 72.424264 
C 71.688252 72.53678 71.840878 72.6 72 72.6 
z
M 3 66.6 
C 3.159122 66.6 3.311748 66.53678 3.424264 66.424264 
C 3.53678 66.311748 3.6 66.159122 3.6 66 
C 3.6 65.840878 3.53678 65.688252 3.424264 65.575736 
C 3.311748 65.46322 3.159122 65.4 3 65.4 
C 2.840878 65.4 2.688252 65.46322 2.575736 65.575736 
C 2.46322 65.688252 2.4 65.840878 2.4 66 
C 2.4 66.159122 2.46322 66.311748 2.575736 66.424264 
C 2.688252 66.53678 2.840878 66.6 3 66.6 
z
M 9 66.6 
C 9.159122 66.6 9.311748 66.53678 9.424264 66.424264 
C 9.53678 66.311748 9.6 66.159122 9.6 66 
C 9.6 65.840878 9.53678 65.688252 9.424264 65.575736 
C 9.311748 65.46322 9.159122 65.4 9 65.4 
C 8.840878 65.4 8.688252 65.46322 8.575736 65.575736 
C 8.46322 65.688252 8.4 65.840878 8.4 66 
C 8.4 66.159122 8.46322 66.311748 8.575736 66.424264 
C 8.688252 66.53678 8.840878 66.6 9 66.6 
z
M 15 66.6 
C 15.159122 66.6 15.311748 66.53678 15.424264 66.424264 
C 15.53678 66.311748 15.6 66.159122 15.6 66 
C 15.6 65.840878 15.53678 65.688252 15.424264 65.575736 
C 15.311748 65.46322 15.159122 65.4 15 65.4 
C 14.840878 65.4 14.688252 65.46322 14.575736 65.575736 
C 14.46322 65.688252 14.4 65.840878 14.4 66 
C 14.4 66.159122 14.46322 66.311748 14.575736 66.424264 
C 14.688252 66.53678 14.840878 66.6 15 66.6 
z
M 21 66.6 
C 21.159122 66.6 21.311748 66.53678 21.424264 66.424264 
C 21.53678 66.311748 21.6 66.159122 21.6 66 
C 21.6 65.840878 21.53678 65.688252 21.424264 65.575736 
C 21.311748 65.46322 21.159122 65.4 21 65.4 
C 20.840878 65.4 20.688252 65.46322 20.575736 65.575736 
C 20.46322 65.688252 20.4 65.840878 20.4 66 
C 20.4 66.159122 20.46322 66.311748 20.575736 66.424264 
C 20.688252 66.53678 20.840878 66.6 21 66.6 
z
M 27 66.6 
C 27.159122 66.6 27.311748 66.53678 27.424264 66.424264 
C 27.53678 66.311748 27.6 66.159122 27.6 66 
C 27.6 65.840878 27.53678 65.688252 27.424264 65.575736 
C 27.311748 65.46322 27.159122 65.4 27 65.4 
C 26.840878 65.4 26.688252 65.46322 26.575736 65.575736 
C 26.46322 65.688252 26.4 65.840878 26.4 66 
C 26.4 66.159122 26.46322 66.311748 26.575736 66.424264 
C 26.688252 66.53678 26.840878 66.6 27 66.6 
z
M 33 66.6 
C 33.159122 66.6 33.311748 66.53678 33.424264 66.424264 
C 33.53678 66.311748 33.6 66.159122 33.6 66 
C 33.6 65.840878 33.53678 65.688252 33.424264 65.575736 
C 33.311748 65.46322 33.159122 65.4 33 65.4 
C 32.840878 65.4 32.688252 65.46322 32.575736 65.575736 
C 32.46322 65.688252 32.4 65.840878 32.4 66 
C 32.4 66.159122 32.46322 66.311748 32.575736 66.424264 
C 32.688252 66.53678 32.840878 66.6 33 66.6 
z
M 39 66.6 
C 39.159122 66.6 39.311748 66.53678 39.424264 66.424264 
C 39.53678 66.311748 39.6 66.159122 39.6 66 
C 39.6 65.840878 39.53678 65.688252 39.424264 65.575736 
C 39.311748 65.46322 39.159122 65.4 39 65.4 
C 38.840878 65.4 38.688252 65.46322 38.575736 65.575736 
C 38.46322 65.688252 38.4 65.840878 38.4 66 
C 38.4 66.159122 38.46322 66.311748 38.575736 66.424264 
C 38.688252 66.53678 38.840878 66.6 39 66.6 
z
M 45 66.6 
C 45.159122 66.6 45.311748 66.53678 45.424264 66.424264 
C 45.53678 66.311748 45.6 66.159122 45.6 66 
C 45.6 65.840878 45.53678 65.688252 45.424264 65.575736 
C 45.311748 65.46322 45.159122 65.4 45 65.4 
C 44.840878 65.4 44.688252 65.46322 44.575736 65.575736 
C 44.46322 65.688252 44.4 65.840878 44.4 66 
C 44.4 66.159122 44.46322 66.311748 44.575736 66.424264 
C 44.688252 66.53678 44.840878 66.6 45 66.6 
z
M 51 66.6 
C 51.159122 66.6 51.311748 66.53678 51.424264 66.424264 
C 51.53678 66.311748 51.6 66.159122 51.6 66 
C 51.6 65.840878 51.53678 65.688252 51.424264 65.575736 
C 51.311748 65.46322 51.159122 65.4 51 65.4 
C 50.840878 65.4 50.688252 65.46322 50.575736 65.575736 
C 50.46322 65.688252 50.4 65.840878 50.4 66 
C 50.4 66.159122 50.46322 66.311748 50.575736 66.424264 
C 50.688252 66.53678 50.840878 66.6 51 66.6 
z
M 57 66.6 
C 57.159122 66.6 57.311748 66.53678 57.424264 66.424264 
C 57.53678 66.311748 57.6 66.159122 57.6 66 
C 57.6 65.840878 57.53678 65.688252 57.424264 65.575736 
C 57.311748 65.46322 57.159122 65.4 57 65.4 
C 56.840878 65.4 56.688252 65.46322 56.575736 65.575736 
C 56.46322 65.688252 56.4 65.840878 56.4 66 
C 56.4 66.159122 56.46322 66.311748 56.575736 66.424264 
C 56.688252 66.53678 56.840878 66.6 57 66.6 
z
M 63 66.6 
C 63.159122 66.6 63.311748 66.53678 63.424264 66.424264 
C 63.53678 66.311748 63.6 66.159122 63.6 66 
C 63.6 65.840878 63.53678 65.688252 63.424264 65.575736 
C 63.311748 65.46322 63.159122 65.4 63 65.4 
C 62.840878 65.4 62.688252 65.46322 62.575736 65.575736 
C 62.46322 65.688252 62.4 65.840878 62.4 66 
C 62.4 66.159122 62.46322 66.311748 62.575736 66.424264 
C 62.688252 66.53678 62.840878 66.6 63 66.6 
z
M 69 66.6 
C 69.159122 66.6 69.311748 66.53678 69.424264 66.424264 
C 69.53678 66.311748 69.6 66.159122 69.6 66 
C 69.6 65.840878 69.53678 65.688252 69.424264 65.575736 
C 69.311748 65.46322 69.159122 65.4 69 65.4 
C 68.840878 65.4 68.688252 65.46322 68.575736 65.575736 
C 68.46322 65.688252 68.4 65.840878 68.4 66 
C 68.4 66.159122 68.46322 66.311748 68.575736 66.424264 
C 68.688252 66.53678 68.840878 66.6 69 66.6 
z
M 0 60.6 
C 0.159122 60.6 0.311748 60.53678 0.424264 60.424264 
C 0.53678 60.311748 0.6 60.159122 0.6 60 
C 0.6 59.840878 0.53678 59.688252 0.424264 59.575736 
C 0.311748 59.46322 0.159122 59.4 0 59.4 
C -0.159122 59.4 -0.311748 59.46322 -0.424264 59.575736 
C -0.53678 59.688252 -0.6 59.840878 -0.6 60 
C -0.6 60.159122 -0.53678 60.311748 -0.424264 60.424264 
C -0.311748 60.53678 -0.159122 60.6 0 60.6 
z
M 6 60.6 
C 6.159122 60.6 6.311748 60.53678 6.424264 60.424264 
C 6.53678 60.311748 6.6 60.159122 6.6 60 
C 6.6 59.840878 6.53678 59.688252 6.424264 59.575736 
C 6.311748 59.46322 6.159122 59.4 6 59.4 
C 5.840878 59.4 5.688252 59.46322 5.575736 59.575736 
C 5.46322 59.688252 5.4 59.840878 5.4 60 
C 5.4 60.159122 5.46322 60.311748 5.575736 60.424264 
C 5.688252 60.53678 5.840878 60.6 6 60.6 
z
M 12 60.6 
C 12.159122 60.6 12.311748 60.53678 12.424264 60.424264 
C 12.53678 60.311748 12.6 60.159122 12.6 60 
C 12.6 59.840878 12.53678 59.688252 12.424264 59.575736 
C 12.311748 59.46322 12.159122 59.4 12 59.4 
C 11.840878 59.4 11.688252 59.46322 11.575736 59.575736 
C 11.46322 59.688252 11.4 59.840878 11.4 60 
C 11.4 60.159122 11.46322 60.311748 11.575736 60.424264 
C 11.688252 60.53678 11.840878 60.6 12 60.6 
z
M 18 60.6 
C 18.159122 60.6 18.311748 60.53678 18.424264 60.424264 
C 18.53678 60.311748 18.6 60.159122 18.6 60 
C 18.6 59.840878 18.53678 59.688252 18.424264 59.575736 
C 18.311748 59.46322 18.159122 59.4 18 59.4 
C 17.840878 59.4 17.688252 59.46322 17.575736 59.575736 
C 17.46322 59.688252 17.4 59.840878 17.4 60 
C 17.4 60.159122 17.46322 60.311748 17.575736 60.424264 
C 17.688252 60.53678 17.840878 60.6 18 60.6 
z
M 24 60.6 
C 24.159122 60.6 24.311748 60.53678 24.424264 60.424264 
C 24.53678 60.311748 24.6 60.159122 24.6 60 
C 24.6 59.840878 24.53678 59.688252 24.424264 59.575736 
C 24.311748 59.46322 24.159122 59.4 24 59.4 
C 23.840878 59.4 23.688252 59.46322 23.575736 59.575736 
C 23.46322 59.688252 23.4 59.840878 23.4 60 
C 23.4 60.159122 23.46322 60.311748 23.575736 60.424264 
C 23.688252 60.53678 23.840878 60.6 24 60.6 
z
M 30 60.6 
C 30.159122 60.6 30.311748 60.53678 30.424264 60.424264 
C 30.53678 60.311748 30.6 60.159122 30.6 60 
C 30.6 59.840878 30.53678 59.688252 30.424264 59.575736 
C 30.311748 59.46322 30.159122 59.4 30 59.4 
C 29.840878 59.4 29.688252 59.46322 29.575736 59.575736 
C 29.46322 59.688252 29.4 59.840878 29.4 60 
C 29.4 60.159122 29.46322 60.311748 29.575736 60.424264 
C 29.688252 60.53678 29.840878 60.6 30 60.6 
z
M 36 60.6 
C 36.159122 60.6 36.311748 60.53678 36.424264 60.424264 
C 36.53678 60.311748 36.6 60.159122 36.6 60 
C 36.6 59.840878 36.53678 59.688252 36.424264 59.575736 
C 36.311748 59.46322 36.159122 59.4 36 59.4 
C 35.840878 59.4 35.688252 59.46322 35.575736 59.575736 
C 35.46322 59.688252 35.4 59.840878 35.4 60 
C 35.4 60.159122 35.46322 60.311748 35.575736 60.424264 
C 35.688252 60.53678 35.840878 60.6 36 60.6 
z
M 42 60.6 
C 42.159122 60.6 42.311748 60.53678 42.424264 60.424264 
C 42.53678 60.311748 42.6 60.159122 42.6 60 
C 42.6 59.840878 42.53678 59.688252 42.424264 59.575736 
C 42.311748 59.46322 42.159122 59.4 42 59.4 
C 41.840878 59.4 41.688252 59.46322 41.575736 59.575736 
C 41.46322 59.688252 41.4 59.840878 41.4 60 
C 41.4 60.159122 41.46322 60.311748 41.575736 60.424264 
C 41.688252 60.53678 41.840878 60.6 42 60.6 
z
M 48 60.6 
C 48.159122 60.6 48.311748 60.53678 48.424264 60.424264 
C 48.53678 60.311748 48.6 60.159122 48.6 60 
C 48.6 59.840878 48.53678 59.688252 48.424264 59.575736 
C 48.311748 59.46322 48.159122 59.4 48 59.4 
C 47.840878 59.4 47.688252 59.46322 47.575736 59.575736 
C 47.46322 59.688252 47.4 59.840878 47.4 60 
C 47.4 60.159122 47.46322 60.311748 47.575736 60.424264 
C 47.688252 60.53678 47.840878 60.6 48 60.6 
z
M 54 60.6 
C 54.159122 60.6 54.311748 60.53678 54.424264 60.424264 
C 54.53678 60.311748 54.6 60.159122 54.6 60 
C 54.6 59.840878 54.53678 59.688252 54.424264 59.575736 
C 54.311748 59.46322 54.159122 59.4 54 59.4 
C 53.840878 59.4 53.688252 59.46322 53.575736 59.575736 
C 53.46322 59.688252 53.4 59.840878 53.4 60 
C 53.4 60.159122 53.46322 60.311748 53.575736 60.424264 
C 53.688252 60.53678 53.840878 60.6 54 60.6 
z
M 60 60.6 
C 60.159122 60.6 60.311748 60.53678 60.424264 60.424264 
C 60.53678 60.311748 60.6 60.159122 60.6 60 
C 60.6 59.840878 60.53678 59.688252 60.424264 59.575736 
C 60.311748 59.46322 60.159122 59.4 60 59.4 
C 59.840878 59.4 59.688252 59.46322 59.575736 59.575736 
C 59.46322 59.688252 59.4 59.840878 59.4 60 
C 59.4 60.159122 59.46322 60.311748 59.575736 60.424264 
C 59.688252 60.53678 59.840878 60.6 60 60.6 
z
M 66 60.6 
C 66.159122 60.6 66.311748 60.53678 66.424264 60.424264 
C 66.53678 60.311748 66.6 60.159122 66.6 60 
C 66.6 59.840878 66.53678 59.688252 66.424264 59.575736 
C 66.311748 59.46322 66.159122 59.4 66 59.4 
C 65.840878 59.4 65.688252 59.46322 65.575736 59.575736 
C 65.46322 59.688252 65.4 59.840878 65.4 60 
C 65.4 60.159122 65.46322 60.311748 65.575736 60.424264 
C 65.688252 60.53678 65.840878 60.6 66 60.6 
z
M 72 60.6 
C 72.159122 60.6 72.311748 60.53678 72.424264 60.424264 
C 72.53678 60.311748 72.6 60.159122 72.6 60 
C 72.6 59.840878 72.53678 59.688252 72.424264 59.575736 
C 72.311748 59.46322 72.159122 59.4 72 59.4 
C 71.840878 59.4 71.688252 59.46322 71.575736 59.575736 
C 71.46322 59.688252 71.4 59.840878 71.4 60 
C 71.4 60.159122 71.46322 60.311748 71.575736 60.424264 
C 71.688252 60.53678 71.840878 60.6 72 60.6 
z
M 3 54.6 
C 3.159122 54.6 3.311748 54.53678 3.424264 54.424264 
C 3.53678 54.311748 3.6 54.159122 3.6 54 
C 3.6 53.840878 3.53678 53.688252 3.424264 53.575736 
C 3.311748 53.46322 3.159122 53.4 3 53.4 
C 2.840878 53.4 2.688252 53.46322 2.575736 53.575736 
C 2.46322 53.688252 2.4 53.840878 2.4 54 
C 2.4 54.159122 2.46322 54.311748 2.575736 54.424264 
C 2.688252 54.53678 2.840878 54.6 3 54.6 
z
M 9 54.6 
C 9.159122 54.6 9.311748 54.53678 9.424264 54.424264 
C 9.53678 54.311748 9.6 54.159122 9.6 54 
C 9.6 53.840878 9.53678 53.688252 9.424264 53.575736 
C 9.311748 53.46322 9.159122 53.4 9 53.4 
C 8.840878 53.4 8.688252 53.46322 8.575736 53.575736 
C 8.46322 53.688252 8.4 53.840878 8.4 54 
C 8.4 54.159122 8.46322 54.311748 8.575736 54.424264 
C 8.688252 54.53678 8.840878 54.6 9 54.6 
z
M 15 54.6 
C 15.159122 54.6 15.311748 54.53678 15.424264 54.424264 
C 15.53678 54.311748 15.6 54.159122 15.6 54 
C 15.6 53.840878 15.53678 53.688252 15.424264 53.575736 
C 15.311748 53.46322 15.159122 53.4 15 53.4 
C 14.840878 53.4 14.688252 53.46322 14.575736 53.575736 
C 14.46322 53.688252 14.4 53.840878 14.4 54 
C 14.4 54.159122 14.46322 54.311748 14.575736 54.424264 
C 14.688252 54.53678 14.840878 54.6 15 54.6 
z
M 21 54.6 
C 21.159122 54.6 21.311748 54.53678 21.424264 54.424264 
C 21.53678 54.311748 21.6 54.159122 21.6 54 
C 21.6 53.840878 21.53678 53.688252 21.424264 53.575736 
C 21.311748 53.46322 21.159122 53.4 21 53.4 
C 20.840878 53.4 20.688252 53.46322 20.575736 53.575736 
C 20.46322 53.688252 20.4 53.840878 20.4 54 
C 20.4 54.159122 20.46322 54.311748 20.575736 54.424264 
C 20.688252 54.53678 20.840878 54.6 21 54.6 
z
M 27 54.6 
C 27.159122 54.6 27.311748 54.53678 27.424264 54.424264 
C 27.53678 54.311748 27.6 54.159122 27.6 54 
C 27.6 53.840878 27.53678 53.688252 27.424264 53.575736 
C 27.311748 53.46322 27.159122 53.4 27 53.4 
C 26.840878 53.4 26.688252 53.46322 26.575736 53.575736 
C 26.46322 53.688252 26.4 53.840878 26.4 54 
C 26.4 54.159122 26.46322 54.311748 26.575736 54.424264 
C 26.688252 54.53678 26.840878 54.6 27 54.6 
z
M 33 54.6 
C 33.159122 54.6 33.311748 54.53678 33.424264 54.424264 
C 33.53678 54.311748 33.6 54.159122 33.6 54 
C 33.6 53.840878 33.53678 53.688252 33.424264 53.575736 
C 33.311748 53.46322 33.159122 53.4 33 53.4 
C 32.840878 53.4 32.688252 53.46322 32.575736 53.575736 
C 32.46322 53.688252 32.4 53.840878 32.4 54 
C 32.4 54.159122 32.46322 54.311748 32.575736 54.424264 
C 32.688252 54.53678 32.840878 54.6 33 54.6 
z
M 39 54.6 
C 39.159122 54.6 39.311748 54.53678 39.424264 54.424264 
C 39.53678 54.311748 39.6 54.159122 39.6 54 
C 39.6 53.840878 39.53678 53.688252 39.424264 53.575736 
C 39.311748 53.46322 39.159122 53.4 39 53.4 
C 38.840878 53.4 38.688252 53.46322 38.575736 53.575736 
C 38.46322 53.688252 38.4 53.840878 38.4 54 
C 38.4 54.159122 38.46322 54.311748 38.575736 54.424264 
C 38.688252 54.53678 38.840878 54.6 39 54.6 
z
M 45 54.6 
C 45.159122 54.6 45.311748 54.53678 45.424264 54.424264 
C 45.53678 54.311748 45.6 54.159122 45.6 54 
C 45.6 53.840878 45.53678 53.688252 45.424264 53.575736 
C 45.311748 53.46322 45.159122 53.4 45 53.4 
C 44.840878 53.4 44.688252 53.46322 44.575736 53.575736 
C 44.46322 53.688252 44.4 53.840878 44.4 54 
C 44.4 54.159122 44.46322 54.311748 44.575736 54.424264 
C 44.688252 54.53678 44.840878 54.6 45 54.6 
z
M 51 54.6 
C 51.159122 54.6 51.311748 54.53678 51.424264 54.424264 
C 51.53678 54.311748 51.6 54.159122 51.6 54 
C 51.6 53.840878 51.53678 53.688252 51.424264 53.575736 
C 51.311748 53.46322 51.159122 53.4 51 53.4 
C 50.840878 53.4 50.688252 53.46322 50.575736 53.575736 
C 50.46322 53.688252 50.4 53.840878 50.4 54 
C 50.4 54.159122 50.46322 54.311748 50.575736 54.424264 
C 50.688252 54.53678 50.840878 54.6 51 54.6 
z
M 57 54.6 
C 57.159122 54.6 57.311748 54.53678 57.424264 54.424264 
C 57.53678 54.311748 57.6 54.159122 57.6 54 
C 57.6 53.840878 57.53678 53.688252 57.424264 53.575736 
C 57.311748 53.46322 57.159122 53.4 57 53.4 
C 56.840878 53.4 56.688252 53.46322 56.575736 53.575736 
C 56.46322 53.688252 56.4 53.840878 56.4 54 
C 56.4 54.159122 56.46322 54.311748 56.575736 54.424264 
C 56.688252 54.53678 56.840878 54.6 57 54.6 
z
M 63 54.6 
C 63.159122 54.6 63.311748 54.53678 63.424264 54.424264 
C 63.53678 54.311748 63.6 54.159122 63.6 54 
C 63.6 53.840878 63.53678 53.688252 63.424264 53.575736 
C 63.311748 53.46322 63.159122 53.4 63 53.4 
C 62.840878 53.4 62.688252 53.46322 62.575736 53.575736 
C 62.46322 53.688252 62.4 53.840878 62.4 54 
C 62.4 54.159122 62.46322 54.311748 62.575736 54.424264 
C 62.688252 54.53678 62.840878 54.6 63 54.6 
z
M 69 54.6 
C 69.159122 54.6 69.311748 54.53678 69.424264 54.424264 
C 69.53678 54.311748 69.6 54.159122 69.6 54 
C 69.6 53.840878 69.53678 53.688252 69.424264 53.575736 
C 69.311748 53.46322 69.159122 53.4 69 53.4 
C 68.840878 53.4 68.688252 53.46322 68.575736 53.575736 
C 68.46322 53.688252 68.4 53.840878 68.4 54 
C 68.4 54.159122 68.46322 54.311748 68.575736 54.424264 
C 68.688252 54.53678 68.840878 54.6 69 54.6 
z
M 0 48.6 
C 0.159122 48.6 0.311748 48.53678 0.424264 48.424264 
C 0.53678 48.311748 0.6 48.159122 0.6 48 
C 0.6 47.840878 0.53678 47.688252 0.424264 47.575736 
C 0.311748 47.46322 0.159122 47.4 0 47.4 
C -0.159122 47.4 -0.311748 47.46322 -0.424264 47.575736 
C -0.53678 47.688252 -0.6 47.840878 -0.6 48 
C -0.6 48.159122 -0.53678 48.311748 -0.424264 48.424264 
C -0.311748 48.53678 -0.159122 48.6 0 48.6 
z
M 6 48.6 
C 6.159122 48.6 6.311748 48.53678 6.424264 48.424264 
C 6.53678 48.311748 6.6 48.159122 6.6 48 
C 6.6 47.840878 6.53678 47.688252 6.424264 47.575736 
C 6.311748 47.46322 6.159122 47.4 6 47.4 
C 5.840878 47.4 5.688252 47.46322 5.575736 47.575736 
C 5.46322 47.688252 5.4 47.840878 5.4 48 
C 5.4 48.159122 5.46322 48.311748 5.575736 48.424264 
C 5.688252 48.53678 5.840878 48.6 6 48.6 
z
M 12 48.6 
C 12.159122 48.6 12.311748 48.53678 12.424264 48.424264 
C 12.53678 48.311748 12.6 48.159122 12.6 48 
C 12.6 47.840878 12.53678 47.688252 12.424264 47.575736 
C 12.311748 47.46322 12.159122 47.4 12 47.4 
C 11.840878 47.4 11.688252 47.46322 11.575736 47.575736 
C 11.46322 47.688252 11.4 47.840878 11.4 48 
C 11.4 48.159122 11.46322 48.311748 11.575736 48.424264 
C 11.688252 48.53678 11.840878 48.6 12 48.6 
z
M 18 48.6 
C 18.159122 48.6 18.311748 48.53678 18.424264 48.424264 
C 18.53678 48.311748 18.6 48.159122 18.6 48 
C 18.6 47.840878 18.53678 47.688252 18.424264 47.575736 
C 18.311748 47.46322 18.159122 47.4 18 47.4 
C 17.840878 47.4 17.688252 47.46322 17.575736 47.575736 
C 17.46322 47.688252 17.4 47.840878 17.4 48 
C 17.4 48.159122 17.46322 48.311748 17.575736 48.424264 
C 17.688252 48.53678 17.840878 48.6 18 48.6 
z
M 24 48.6 
C 24.159122 48.6 24.311748 48.53678 24.424264 48.424264 
C 24.53678 48.311748 24.6 48.159122 24.6 48 
C 24.6 47.840878 24.53678 47.688252 24.424264 47.575736 
C 24.311748 47.46322 24.159122 47.4 24 47.4 
C 23.840878 47.4 23.688252 47.46322 23.575736 47.575736 
C 23.46322 47.688252 23.4 47.840878 23.4 48 
C 23.4 48.159122 23.46322 48.311748 23.575736 48.424264 
C 23.688252 48.53678 23.840878 48.6 24 48.6 
z
M 30 48.6 
C 30.159122 48.6 30.311748 48.53678 30.424264 48.424264 
C 30.53678 48.311748 30.6 48.159122 30.6 48 
C 30.6 47.840878 30.53678 47.688252 30.424264 47.575736 
C 30.311748 47.46322 30.159122 47.4 30 47.4 
C 29.840878 47.4 29.688252 47.46322 29.575736 47.575736 
C 29.46322 47.688252 29.4 47.840878 29.4 48 
C 29.4 48.159122 29.46322 48.311748 29.575736 48.424264 
C 29.688252 48.53678 29.840878 48.6 30 48.6 
z
M 36 48.6 
C 36.159122 48.6 36.311748 48.53678 36.424264 48.424264 
C 36.53678 48.311748 36.6 48.159122 36.6 48 
C 36.6 47.840878 36.53678 47.688252 36.424264 47.575736 
C 36.311748 47.46322 36.159122 47.4 36 47.4 
C 35.840878 47.4 35.688252 47.46322 35.575736 47.575736 
C 35.46322 47.688252 35.4 47.840878 35.4 48 
C 35.4 48.159122 35.46322 48.311748 35.575736 48.424264 
C 35.688252 48.53678 35.840878 48.6 36 48.6 
z
M 42 48.6 
C 42.159122 48.6 42.311748 48.53678 42.424264 48.424264 
C 42.53678 48.311748 42.6 48.159122 42.6 48 
C 42.6 47.840878 42.53678 47.688252 42.424264 47.575736 
C 42.311748 47.46322 42.159122 47.4 42 47.4 
C 41.840878 47.4 41.688252 47.46322 41.575736 47.575736 
C 41.46322 47.688252 41.4 47.840878 41.4 48 
C 41.4 48.159122 41.46322 48.311748 41.575736 48.424264 
C 41.688252 48.53678 41.840878 48.6 42 48.6 
z
M 48 48.6 
C 48.159122 48.6 48.311748 48.53678 48.424264 48.424264 
C 48.53678 48.311748 48.6 48.159122 48.6 48 
C 48.6 47.840878 48.53678 47.688252 48.424264 47.575736 
C 48.311748 47.46322 48.159122 47.4 48 47.4 
C 47.840878 47.4 47.688252 47.46322 47.575736 47.575736 
C 47.46322 47.688252 47.4 47.840878 47.4 48 
C 47.4 48.159122 47.46322 48.311748 47.575736 48.424264 
C 47.688252 48.53678 47.840878 48.6 48 48.6 
z
M 54 48.6 
C 54.159122 48.6 54.311748 48.53678 54.424264 48.424264 
C 54.53678 48.311748 54.6 48.159122 54.6 48 
C 54.6 47.840878 54.53678 47.688252 54.424264 47.575736 
C 54.311748 47.46322 54.159122 47.4 54 47.4 
C 53.840878 47.4 53.688252 47.46322 53.575736 47.575736 
C 53.46322 47.688252 53.4 47.840878 53.4 48 
C 53.4 48.159122 53.46322 48.311748 53.575736 48.424264 
C 53.688252 48.53678 53.840878 48.6 54 48.6 
z
M 60 48.6 
C 60.159122 48.6 60.311748 48.53678 60.424264 48.424264 
C 60.53678 48.311748 60.6 48.159122 60.6 48 
C 60.6 47.840878 60.53678 47.688252 60.424264 47.575736 
C 60.311748 47.46322 60.159122 47.4 60 47.4 
C 59.840878 47.4 59.688252 47.46322 59.575736 47.575736 
C 59.46322 47.688252 59.4 47.840878 59.4 48 
C 59.4 48.159122 59.46322 48.311748 59.575736 48.424264 
C 59.688252 48.53678 59.840878 48.6 60 48.6 
z
M 66 48.6 
C 66.159122 48.6 66.311748 48.53678 66.424264 48.424264 
C 66.53678 48.311748 66.6 48.159122 66.6 48 
C 66.6 47.840878 66.53678 47.688252 66.424264 47.575736 
C 66.311748 47.46322 66.159122 47.4 66 47.4 
C 65.840878 47.4 65.688252 47.46322 65.575736 47.575736 
C 65.46322 47.688252 65.4 47.840878 65.4 48 
C 65.4 48.159122 65.46322 48.311748 65.575736 48.424264 
C 65.688252 48.53678 65.840878 48.6 66 48.6 
z
M 72 48.6 
C 72.159122 48.6 72.311748 48.53678 72.424264 48.424264 
C 72.53678 48.311748 72.6 48.159122 72.6 48 
C 72.6 47.840878 72.53678 47.688252 72.424264 47.575736 
C 72.311748 47.46322 72.159122 47.4 72 47.4 
C 71.840878 47.4 71.688252 47.46322 71.575736 47.575736 
C 71.46322 47.688252 71.4 47.840878 71.4 48 
C 71.4 48.159122 71.46322 48.311748 71.575736 48.424264 
C 71.688252 48.53678 71.840878 48.6 72 48.6 
z
M 3 42.6 
C 3.159122 42.6 3.311748 42.53678 3.424264 42.424264 
C 3.53678 42.311748 3.6 42.159122 3.6 42 
C 3.6 41.840878 3.53678 41.688252 3.424264 41.575736 
C 3.311748 41.46322 3.159122 41.4 3 41.4 
C 2.840878 41.4 2.688252 41.46322 2.575736 41.575736 
C 2.46322 41.688252 2.4 41.840878 2.4 42 
C 2.4 42.159122 2.46322 42.311748 2.575736 42.424264 
C 2.688252 42.53678 2.840878 42.6 3 42.6 
z
M 9 42.6 
C 9.159122 42.6 9.311748 42.53678 9.424264 42.424264 
C 9.53678 42.311748 9.6 42.159122 9.6 42 
C 9.6 41.840878 9.53678 41.688252 9.424264 41.575736 
C 9.311748 41.46322 9.159122 41.4 9 41.4 
C 8.840878 41.4 8.688252 41.46322 8.575736 41.575736 
C 8.46322 41.688252 8.4 41.840878 8.4 42 
C 8.4 42.159122 8.46322 42.311748 8.575736 42.424264 
C 8.688252 42.53678 8.840878 42.6 9 42.6 
z
M 15 42.6 
C 15.159122 42.6 15.311748 42.53678 15.424264 42.424264 
C 15.53678 42.311748 15.6 42.159122 15.6 42 
C 15.6 41.840878 15.53678 41.688252 15.424264 41.575736 
C 15.311748 41.46322 15.159122 41.4 15 41.4 
C 14.840878 41.4 14.688252 41.46322 14.575736 41.575736 
C 14.46322 41.688252 14.4 41.840878 14.4 42 
C 14.4 42.159122 14.46322 42.311748 14.575736 42.424264 
C 14.688252 42.53678 14.840878 42.6 15 42.6 
z
M 21 42.6 
C 21.159122 42.6 21.311748 42.53678 21.424264 42.424264 
C 21.53678 42.311748 21.6 42.159122 21.6 42 
C 21.6 41.840878 21.53678 41.688252 21.424264 41.575736 
C 21.311748 41.46322 21.159122 41.4 21 41.4 
C 20.840878 41.4 20.688252 41.46322 20.575736 41.575736 
C 20.46322 41.688252 20.4 41.840878 20.4 42 
C 20.4 42.159122 20.46322 42.311748 20.575736 42.424264 
C 20.688252 42.53678 20.840878 42.6 21 42.6 
z
M 27 42.6 
C 27.159122 42.6 27.311748 42.53678 27.424264 42.424264 
C 27.53678 42.311748 27.6 42.159122 27.6 42 
C 27.6 41.840878 27.53678 41.688252 27.424264 41.575736 
C 27.311748 41.46322 27.159122 41.4 27 41.4 
C 26.840878 41.4 26.688252 41.46322 26.575736 41.575736 
C 26.46322 41.688252 26.4 41.840878 26.4 42 
C 26.4 42.159122 26.46322 42.311748 26.575736 42.424264 
C 26.688252 42.53678 26.840878 42.6 27 42.6 
z
M 33 42.6 
C 33.159122 42.6 33.311748 42.53678 33.424264 42.424264 
C 33.53678 42.311748 33.6 42.159122 33.6 42 
C 33.6 41.840878 33.53678 41.688252 33.424264 41.575736 
C 33.311748 41.46322 33.159122 41.4 33 41.4 
C 32.840878 41.4 32.688252 41.46322 32.575736 41.575736 
C 32.46322 41.688252 32.4 41.840878 32.4 42 
C 32.4 42.159122 32.46322 42.311748 32.575736 42.424264 
C 32.688252 42.53678 32.840878 42.6 33 42.6 
z
M 39 42.6 
C 39.159122 42.6 39.311748 42.53678 39.424264 42.424264 
C 39.53678 42.311748 39.6 42.159122 39.6 42 
C 39.6 41.840878 39.53678 41.688252 39.424264 41.575736 
C 39.311748 41.46322 39.159122 41.4 39 41.4 
C 38.840878 41.4 38.688252 41.46322 38.575736 41.575736 
C 38.46322 41.688252 38.4 41.840878 38.4 42 
C 38.4 42.159122 38.46322 42.311748 38.575736 42.424264 
C 38.688252 42.53678 38.840878 42.6 39 42.6 
z
M 45 42.6 
C 45.159122 42.6 45.311748 42.53678 45.424264 42.424264 
C 45.53678 42.311748 45.6 42.159122 45.6 42 
C 45.6 41.840878 45.53678 41.688252 45.424264 41.575736 
C 45.311748 41.46322 45.159122 41.4 45 41.4 
C 44.840878 41.4 44.688252 41.46322 44.575736 41.575736 
C 44.46322 41.688252 44.4 41.840878 44.4 42 
C 44.4 42.159122 44.46322 42.311748 44.575736 42.424264 
C 44.688252 42.53678 44.840878 42.6 45 42.6 
z
M 51 42.6 
C 51.159122 42.6 51.311748 42.53678 51.424264 42.424264 
C 51.53678 42.311748 51.6 42.159122 51.6 42 
C 51.6 41.840878 51.53678 41.688252 51.424264 41.575736 
C 51.311748 41.46322 51.159122 41.4 51 41.4 
C 50.840878 41.4 50.688252 41.46322 50.575736 41.575736 
C 50.46322 41.688252 50.4 41.840878 50.4 42 
C 50.4 42.159122 50.46322 42.311748 50.575736 42.424264 
C 50.688252 42.53678 50.840878 42.6 51 42.6 
z
M 57 42.6 
C 57.159122 42.6 57.311748 42.53678 57.424264 42.424264 
C 57.53678 42.311748 57.6 42.159122 57.6 42 
C 57.6 41.840878 57.53678 41.688252 57.424264 41.575736 
C 57.311748 41.46322 57.159122 41.4 57 41.4 
C 56.840878 41.4 56.688252 41.46322 56.575736 41.575736 
C 56.46322 41.688252 56.4 41.840878 56.4 42 
C 56.4 42.159122 56.46322 42.311748 56.575736 42.424264 
C 56.688252 42.53678 56.840878 42.6 57 42.6 
z
M 63 42.6 
C 63.159122 42.6 63.311748 42.53678 63.424264 42.424264 
C 63.53678 42.311748 63.6 42.159122 63.6 42 
C 63.6 41.840878 63.53678 41.688252 63.424264 41.575736 
C 63.311748 41.46322 63.159122 41.4 63 41.4 
C 62.840878 41.4 62.688252 41.46322 62.575736 41.575736 
C 62.46322 41.688252 62.4 41.840878 62.4 42 
C 62.4 42.159122 62.46322 42.311748 62.575736 42.424264 
C 62.688252 42.53678 62.840878 42.6 63 42.6 
z
M 69 42.6 
C 69.159122 42.6 69.311748 42.53678 69.424264 42.424264 
C 69.53678 42.311748 69.6 42.159122 69.6 42 
C 69.6 41.840878 69.53678 41.688252 69.424264 41.575736 
C 69.311748 41.46322 69.159122 41.4 69 41.4 
C 68.840878 41.4 68.688252 41.46322 68.575736 41.575736 
C 68.46322 41.688252 68.4 41.840878 68.4 42 
C 68.4 42.159122 68.46322 42.311748 68.575736 42.424264 
C 68.688252 42.53678 68.840878 42.6 69 42.6 
z
M 0 36.6 
C 0.159122 36.6 0.311748 36.53678 0.424264 36.424264 
C 0.53678 36.311748 0.6 36.159122 0.6 36 
C 0.6 35.840878 0.53678 35.688252 0.424264 35.575736 
C 0.311748 35.46322 0.159122 35.4 0 35.4 
C -0.159122 35.4 -0.311748 35.46322 -0.424264 35.575736 
C -0.53678 35.688252 -0.6 35.840878 -0.6 36 
C -0.6 36.159122 -0.53678 36.311748 -0.424264 36.424264 
C -0.311748 36.53678 -0.159122 36.6 0 36.6 
z
M 6 36.6 
C 6.159122 36.6 6.311748 36.53678 6.424264 36.424264 
C 6.53678 36.311748 6.6 36.159122 6.6 36 
C 6.6 35.840878 6.53678 35.688252 6.424264 35.575736 
C 6.311748 35.46322 6.159122 35.4 6 35.4 
C 5.840878 35.4 5.688252 35.46322 5.575736 35.575736 
C 5.46322 35.688252 5.4 35.840878 5.4 36 
C 5.4 36.159122 5.46322 36.311748 5.575736 36.424264 
C 5.688252 36.53678 5.840878 36.6 6 36.6 
z
M 12 36.6 
C 12.159122 36.6 12.311748 36.53678 12.424264 36.424264 
C 12.53678 36.311748 12.6 36.159122 12.6 36 
C 12.6 35.840878 12.53678 35.688252 12.424264 35.575736 
C 12.311748 35.46322 12.159122 35.4 12 35.4 
C 11.840878 35.4 11.688252 35.46322 11.575736 35.575736 
C 11.46322 35.688252 11.4 35.840878 11.4 36 
C 11.4 36.159122 11.46322 36.311748 11.575736 36.424264 
C 11.688252 36.53678 11.840878 36.6 12 36.6 
z
M 18 36.6 
C 18.159122 36.6 18.311748 36.53678 18.424264 36.424264 
C 18.53678 36.311748 18.6 36.159122 18.6 36 
C 18.6 35.840878 18.53678 35.688252 18.424264 35.575736 
C 18.311748 35.46322 18.159122 35.4 18 35.4 
C 17.840878 35.4 17.688252 35.46322 17.575736 35.575736 
C 17.46322 35.688252 17.4 35.840878 17.4 36 
C 17.4 36.159122 17.46322 36.311748 17.575736 36.424264 
C 17.688252 36.53678 17.840878 36.6 18 36.6 
z
M 24 36.6 
C 24.159122 36.6 24.311748 36.53678 24.424264 36.424264 
C 24.53678 36.311748 24.6 36.159122 24.6 36 
C 24.6 35.840878 24.53678 35.688252 24.424264 35.575736 
C 24.311748 35.46322 24.159122 35.4 24 35.4 
C 23.840878 35.4 23.688252 35.46322 23.575736 35.575736 
C 23.46322 35.688252 23.4 35.840878 23.4 36 
C 23.4 36.159122 23.46322 36.311748 23.575736 36.424264 
C 23.688252 36.53678 23.840878 36.6 24 36.6 
z
M 30 36.6 
C 30.159122 36.6 30.311748 36.53678 30.424264 36.424264 
C 30.53678 36.311748 30.6 36.159122 30.6 36 
C 30.6 35.840878 30.53678 35.688252 30.424264 35.575736 
C 30.311748 35.46322 30.159122 35.4 30 35.4 
C 29.840878 35.4 29.688252 35.46322 29.575736 35.575736 
C 29.46322 35.688252 29.4 35.840878 29.4 36 
C 29.4 36.159122 29.46322 36.311748 29.575736 36.424264 
C 29.688252 36.53678 29.840878 36.6 30 36.6 
z
M 36 36.6 
C 36.159122 36.6 36.311748 36.53678 36.424264 36.424264 
C 36.53678 36.311748 36.6 36.159122 36.6 36 
C 36.6 35.840878 36.53678 35.688252 36.424264 35.575736 
C 36.311748 35.46322 36.159122 35.4 36 35.4 
C 35.840878 35.4 35.688252 35.46322 35.575736 35.575736 
C 35.46322 35.688252 35.4 35.840878 35.4 36 
C 35.4 36.159122 35.46322 36.311748 35.575736 36.424264 
C 35.688252 36.53678 35.840878 36.6 36 36.6 
z
M 42 36.6 
C 42.159122 36.6 42.311748 36.53678 42.424264 36.424264 
C 42.53678 36.311748 42.6 36.159122 42.6 36 
C 42.6 35.840878 42.53678 35.688252 42.424264 35.575736 
C 42.311748 35.46322 42.159122 35.4 42 35.4 
C 41.840878 35.4 41.688252 35.46322 41.575736 35.575736 
C 41.46322 35.688252 41.4 35.840878 41.4 36 
C 41.4 36.159122 41.46322 36.311748 41.575736 36.424264 
C 41.688252 36.53678 41.840878 36.6 42 36.6 
z
M 48 36.6 
C 48.159122 36.6 48.311748 36.53678 48.424264 36.424264 
C 48.53678 36.311748 48.6 36.159122 48.6 36 
C 48.6 35.840878 48.53678 35.688252 48.424264 35.575736 
C 48.311748 35.46322 48.159122 35.4 48 35.4 
C 47.840878 35.4 47.688252 35.46322 47.575736 35.575736 
C 47.46322 35.688252 47.4 35.840878 47.4 36 
C 47.4 36.159122 47.46322 36.311748 47.575736 36.424264 
C 47.688252 36.53678 47.840878 36.6 48 36.6 
z
M 54 36.6 
C 54.159122 36.6 54.311748 36.53678 54.424264 36.424264 
C 54.53678 36.311748 54.6 36.159122 54.6 36 
C 54.6 35.840878 54.53678 35.688252 54.424264 35.575736 
C 54.311748 35.46322 54.159122 35.4 54 35.4 
C 53.840878 35.4 53.688252 35.46322 53.575736 35.575736 
C 53.46322 35.688252 53.4 35.840878 53.4 36 
C 53.4 36.159122 53.46322 36.311748 53.575736 36.424264 
C 53.688252 36.53678 53.840878 36.6 54 36.6 
z
M 60 36.6 
C 60.159122 36.6 60.311748 36.53678 60.424264 36.424264 
C 60.53678 36.311748 60.6 36.159122 60.6 36 
C 60.6 35.840878 60.53678 35.688252 60.424264 35.575736 
C 60.311748 35.46322 60.159122 35.4 60 35.4 
C 59.840878 35.4 59.688252 35.46322 59.575736 35.575736 
C 59.46322 35.688252 59.4 35.840878 59.4 36 
C 59.4 36.159122 59.46322 36.311748 59.575736 36.424264 
C 59.688252 36.53678 59.840878 36.6 60 36.6 
z
M 66 36.6 
C 66.159122 36.6 66.311748 36.53678 66.424264 36.424264 
C 66.53678 36.311748 66.6 36.159122 66.6 36 
C 66.6 35.840878 66.53678 35.688252 66.424264 35.575736 
C 66.311748 35.46322 66.159122 35.4 66 35.4 
C 65.840878 35.4 65.688252 35.46322 65.575736 35.575736 
C 65.46322 35.688252 65.4 35.840878 65.4 36 
C 65.4 36.159122 65.46322 36.311748 65.575736 36.424264 
C 65.688252 36.53678 65.840878 36.6 66 36.6 
z
M 72 36.6 
C 72.159122 36.6 72.311748 36.53678 72.424264 36.424264 
C 72.53678 36.311748 72.6 36.159122 72.6 36 
C 72.6 35.840878 72.53678 35.688252 72.424264 35.575736 
C 72.311748 35.46322 72.159122 35.4 72 35.4 
C 71.840878 35.4 71.688252 35.46322 71.575736 35.575736 
C 71.46322 35.688252 71.4 35.840878 71.4 36 
C 71.4 36.159122 71.46322 36.311748 71.575736 36.424264 
C 71.688252 36.53678 71.840878 36.6 72 36.6 
z
M 3 30.6 
C 3.159122 30.6 3.311748 30.53678 3.424264 30.424264 
C 3.53678 30.311748 3.6 30.159122 3.6 30 
C 3.6 29.840878 3.53678 29.688252 3.424264 29.575736 
C 3.311748 29.46322 3.159122 29.4 3 29.4 
C 2.840878 29.4 2.688252 29.46322 2.575736 29.575736 
C 2.46322 29.688252 2.4 29.840878 2.4 30 
C 2.4 30.159122 2.46322 30.311748 2.575736 30.424264 
C 2.688252 30.53678 2.840878 30.6 3 30.6 
z
M 9 30.6 
C 9.159122 30.6 9.311748 30.53678 9.424264 30.424264 
C 9.53678 30.311748 9.6 30.159122 9.6 30 
C 9.6 29.840878 9.53678 29.688252 9.424264 29.575736 
C 9.311748 29.46322 9.159122 29.4 9 29.4 
C 8.840878 29.4 8.688252 29.46322 8.575736 29.575736 
C 8.46322 29.688252 8.4 29.840878 8.4 30 
C 8.4 30.159122 8.46322 30.311748 8.575736 30.424264 
C 8.688252 30.53678 8.840878 30.6 9 30.6 
z
M 15 30.6 
C 15.159122 30.6 15.311748 30.53678 15.424264 30.424264 
C 15.53678 30.311748 15.6 30.159122 15.6 30 
C 15.6 29.840878 15.53678 29.688252 15.424264 29.575736 
C 15.311748 29.46322 15.159122 29.4 15 29.4 
C 14.840878 29.4 14.688252 29.46322 14.575736 29.575736 
C 14.46322 29.688252 14.4 29.840878 14.4 30 
C 14.4 30.159122 14.46322 30.311748 14.575736 30.424264 
C 14.688252 30.53678 14.840878 30.6 15 30.6 
z
M 21 30.6 
C 21.159122 30.6 21.311748 30.53678 21.424264 30.424264 
C 21.53678 30.311748 21.6 30.159122 21.6 30 
C 21.6 29.840878 21.53678 29.688252 21.424264 29.575736 
C 21.311748 29.46322 21.159122 29.4 21 29.4 
C 20.840878 29.4 20.688252 29.46322 20.575736 29.575736 
C 20.46322 29.688252 20.4 29.840878 20.4 30 
C 20.4 30.159122 20.46322 30.311748 20.575736 30.424264 
C 20.688252 30.53678 20.840878 30.6 21 30.6 
z
M 27 30.6 
C 27.159122 30.6 27.311748 30.53678 27.424264 30.424264 
C 27.53678 30.311748 27.6 30.159122 27.6 30 
C 27.6 29.840878 27.53678 29.688252 27.424264 29.575736 
C 27.311748 29.46322 27.159122 29.4 27 29.4 
C 26.840878 29.4 26.688252 29.46322 26.575736 29.575736 
C 26.46322 29.688252 26.4 29.840878 26.4 30 
C 26.4 30.159122 26.46322 30.311748 26.575736 30.424264 
C 26.688252 30.53678 26.840878 30.6 27 30.6 
z
M 33 30.6 
C 33.159122 30.6 33.311748 30.53678 33.424264 30.424264 
C 33.53678 30.311748 33.6 30.159122 33.6 30 
C 33.6 29.840878 33.53678 29.688252 33.424264 29.575736 
C 33.311748 29.46322 33.159122 29.4 33 29.4 
C 32.840878 29.4 32.688252 29.46322 32.575736 29.575736 
C 32.46322 29.688252 32.4 29.840878 32.4 30 
C 32.4 30.159122 32.46322 30.311748 32.575736 30.424264 
C 32.688252 30.53678 32.840878 30.6 33 30.6 
z
M 39 30.6 
C 39.159122 30.6 39.311748 30.53678 39.424264 30.424264 
C 39.53678 30.311748 39.6 30.159122 39.6 30 
C 39.6 29.840878 39.53678 29.688252 39.424264 29.575736 
C 39.311748 29.46322 39.159122 29.4 39 29.4 
C 38.840878 29.4 38.688252 29.46322 38.575736 29.575736 
C 38.46322 29.688252 38.4 29.840878 38.4 30 
C 38.4 30.159122 38.46322 30.311748 38.575736 30.424264 
C 38.688252 30.53678 38.840878 30.6 39 30.6 
z
M 45 30.6 
C 45.159122 30.6 45.311748 30.53678 45.424264 30.424264 
C 45.53678 30.311748 45.6 30.159122 45.6 30 
C 45.6 29.840878 45.53678 29.688252 45.424264 29.575736 
C 45.311748 29.46322 45.159122 29.4 45 29.4 
C 44.840878 29.4 44.688252 29.46322 44.575736 29.575736 
C 44.46322 29.688252 44.4 29.840878 44.4 30 
C 44.4 30.159122 44.46322 30.311748 44.575736 30.424264 
C 44.688252 30.53678 44.840878 30.6 45 30.6 
z
M 51 30.6 
C 51.159122 30.6 51.311748 30.53678 51.424264 30.424264 
C 51.53678 30.311748 51.6 30.159122 51.6 30 
C 51.6 29.840878 51.53678 29.688252 51.424264 29.575736 
C 51.311748 29.46322 51.159122 29.4 51 29.4 
C 50.840878 29.4 50.688252 29.46322 50.575736 29.575736 
C 50.46322 29.688252 50.4 29.840878 50.4 30 
C 50.4 30.159122 50.46322 30.311748 50.575736 30.424264 
C 50.688252 30.53678 50.840878 30.6 51 30.6 
z
M 57 30.6 
C 57.159122 30.6 57.311748 30.53678 57.424264 30.424264 
C 57.53678 30.311748 57.6 30.159122 57.6 30 
C 57.6 29.840878 57.53678 29.688252 57.424264 29.575736 
C 57.311748 29.46322 57.159122 29.4 57 29.4 
C 56.840878 29.4 56.688252 29.46322 56.575736 29.575736 
C 56.46322 29.688252 56.4 29.840878 56.4 30 
C 56.4 30.159122 56.46322 30.311748 56.575736 30.424264 
C 56.688252 30.53678 56.840878 30.6 57 30.6 
z
M 63 30.6 
C 63.159122 30.6 63.311748 30.53678 63.424264 30.424264 
C 63.53678 30.311748 63.6 30.159122 63.6 30 
C 63.6 29.840878 63.53678 29.688252 63.424264 29.575736 
C 63.311748 29.46322 63.159122 29.4 63 29.4 
C 62.840878 29.4 62.688252 29.46322 62.575736 29.575736 
C 62.46322 29.688252 62.4 29.840878 62.4 30 
C 62.4 30.159122 62.46322 30.311748 62.575736 30.424264 
C 62.688252 30.53678 62.840878 30.6 63 30.6 
z
M 69 30.6 
C 69.159122 30.6 69.311748 30.53678 69.424264 30.424264 
C 69.53678 30.311748 69.6 30.159122 69.6 30 
C 69.6 29.840878 69.53678 29.688252 69.424264 29.575736 
C 69.311748 29.46322 69.159122 29.4 69 29.4 
C 68.840878 29.4 68.688252 29.46322 68.575736 29.575736 
C 68.46322 29.688252 68.4 29.840878 68.4 30 
C 68.4 30.159122 68.46322 30.311748 68.575736 30.424264 
C 68.688252 30.53678 68.840878 30.6 69 30.6 
z
M 0 24.6 
C 0.159122 24.6 0.311748 24.53678 0.424264 24.424264 
C 0.53678 24.311748 0.6 24.159122 0.6 24 
C 0.6 23.840878 0.53678 23.688252 0.424264 23.575736 
C 0.311748 23.46322 0.159122 23.4 0 23.4 
C -0.159122 23.4 -0.311748 23.46322 -0.424264 23.575736 
C -0.53678 23.688252 -0.6 23.840878 -0.6 24 
C -0.6 24.159122 -0.53678 24.311748 -0.424264 24.424264 
C -0.311748 24.53678 -0.159122 24.6 0 24.6 
z
M 6 24.6 
C 6.159122 24.6 6.311748 24.53678 6.424264 24.424264 
C 6.53678 24.311748 6.6 24.159122 6.6 24 
C 6.6 23.840878 6.53678 23.688252 6.424264 23.575736 
C 6.311748 23.46322 6.159122 23.4 6 23.4 
C 5.840878 23.4 5.688252 23.46322 5.575736 23.575736 
C 5.46322 23.688252 5.4 23.840878 5.4 24 
C 5.4 24.159122 5.46322 24.311748 5.575736 24.424264 
C 5.688252 24.53678 5.840878 24.6 6 24.6 
z
M 12 24.6 
C 12.159122 24.6 12.311748 24.53678 12.424264 24.424264 
C 12.53678 24.311748 12.6 24.159122 12.6 24 
C 12.6 23.840878 12.53678 23.688252 12.424264 23.575736 
C 12.311748 23.46322 12.159122 23.4 12 23.4 
C 11.840878 23.4 11.688252 23.46322 11.575736 23.575736 
C 11.46322 23.688252 11.4 23.840878 11.4 24 
C 11.4 24.159122 11.46322 24.311748 11.575736 24.424264 
C 11.688252 24.53678 11.840878 24.6 12 24.6 
z
M 18 24.6 
C 18.159122 24.6 18.311748 24.53678 18.424264 24.424264 
C 18.53678 24.311748 18.6 24.159122 18.6 24 
C 18.6 23.840878 18.53678 23.688252 18.424264 23.575736 
C 18.311748 23.46322 18.159122 23.4 18 23.4 
C 17.840878 23.4 17.688252 23.46322 17.575736 23.575736 
C 17.46322 23.688252 17.4 23.840878 17.4 24 
C 17.4 24.159122 17.46322 24.311748 17.575736 24.424264 
C 17.688252 24.53678 17.840878 24.6 18 24.6 
z
M 24 24.6 
C 24.159122 24.6 24.311748 24.53678 24.424264 24.424264 
C 24.53678 24.311748 24.6 24.159122 24.6 24 
C 24.6 23.840878 24.53678 23.688252 24.424264 23.575736 
C 24.311748 23.46322 24.159122 23.4 24 23.4 
C 23.840878 23.4 23.688252 23.46322 23.575736 23.575736 
C 23.46322 23.688252 23.4 23.840878 23.4 24 
C 23.4 24.159122 23.46322 24.311748 23.575736 24.424264 
C 23.688252 24.53678 23.840878 24.6 24 24.6 
z
M 30 24.6 
C 30.159122 24.6 30.311748 24.53678 30.424264 24.424264 
C 30.53678 24.311748 30.6 24.159122 30.6 24 
C 30.6 23.840878 30.53678 23.688252 30.424264 23.575736 
C 30.311748 23.46322 30.159122 23.4 30 23.4 
C 29.840878 23.4 29.688252 23.46322 29.575736 23.575736 
C 29.46322 23.688252 29.4 23.840878 29.4 24 
C 29.4 24.159122 29.46322 24.311748 29.575736 24.424264 
C 29.688252 24.53678 29.840878 24.6 30 24.6 
z
M 36 24.6 
C 36.159122 24.6 36.311748 24.53678 36.424264 24.424264 
C 36.53678 24.311748 36.6 24.159122 36.6 24 
C 36.6 23.840878 36.53678 23.688252 36.424264 23.575736 
C 36.311748 23.46322 36.159122 23.4 36 23.4 
C 35.840878 23.4 35.688252 23.46322 35.575736 23.575736 
C 35.46322 23.688252 35.4 23.840878 35.4 24 
C 35.4 24.159122 35.46322 24.311748 35.575736 24.424264 
C 35.688252 24.53678 35.840878 24.6 36 24.6 
z
M 42 24.6 
C 42.159122 24.6 42.311748 24.53678 42.424264 24.424264 
C 42.53678 24.311748 42.6 24.159122 42.6 24 
C 42.6 23.840878 42.53678 23.688252 42.424264 23.575736 
C 42.311748 23.46322 42.159122 23.4 42 23.4 
C 41.840878 23.4 41.688252 23.46322 41.575736 23.575736 
C 41.46322 23.688252 41.4 23.840878 41.4 24 
C 41.4 24.159122 41.46322 24.311748 41.575736 24.424264 
C 41.688252 24.53678 41.840878 24.6 42 24.6 
z
M 48 24.6 
C 48.159122 24.6 48.311748 24.53678 48.424264 24.424264 
C 48.53678 24.311748 48.6 24.159122 48.6 24 
C 48.6 23.840878 48.53678 23.688252 48.424264 23.575736 
C 48.311748 23.46322 48.159122 23.4 48 23.4 
C 47.840878 23.4 47.688252 23.46322 47.575736 23.575736 
C 47.46322 23.688252 47.4 23.840878 47.4 24 
C 47.4 24.159122 47.46322 24.311748 47.575736 24.424264 
C 47.688252 24.53678 47.840878 24.6 48 24.6 
z
M 54 24.6 
C 54.159122 24.6 54.311748 24.53678 54.424264 24.424264 
C 54.53678 24.311748 54.6 24.159122 54.6 24 
C 54.6 23.840878 54.53678 23.688252 54.424264 23.575736 
C 54.311748 23.46322 54.159122 23.4 54 23.4 
C 53.840878 23.4 53.688252 23.46322 53.575736 23.575736 
C 53.46322 23.688252 53.4 23.840878 53.4 24 
C 53.4 24.159122 53.46322 24.311748 53.575736 24.424264 
C 53.688252 24.53678 53.840878 24.6 54 24.6 
z
M 60 24.6 
C 60.159122 24.6 60.311748 24.53678 60.424264 24.424264 
C 60.53678 24.311748 60.6 24.159122 60.6 24 
C 60.6 23.840878 60.53678 23.688252 60.424264 23.575736 
C 60.311748 23.46322 60.159122 23.4 60 23.4 
C 59.840878 23.4 59.688252 23.46322 59.575736 23.575736 
C 59.46322 23.688252 59.4 23.840878 59.4 24 
C 59.4 24.159122 59.46322 24.311748 59.575736 24.424264 
C 59.688252 24.53678 59.840878 24.6 60 24.6 
z
M 66 24.6 
C 66.159122 24.6 66.311748 24.53678 66.424264 24.424264 
C 66.53678 24.311748 66.6 24.159122 66.6 24 
C 66.6 23.840878 66.53678 23.688252 66.424264 23.575736 
C 66.311748 23.46322 66.159122 23.4 66 23.4 
C 65.840878 23.4 65.688252 23.46322 65.575736 23.575736 
C 65.46322 23.688252 65.4 23.840878 65.4 24 
C 65.4 24.159122 65.46322 24.311748 65.575736 24.424264 
C 65.688252 24.53678 65.840878 24.6 66 24.6 
z
M 72 24.6 
C 72.159122 24.6 72.311748 24.53678 72.424264 24.424264 
C 72.53678 24.311748 72.6 24.159122 72.6 24 
C 72.6 23.840878 72.53678 23.688252 72.424264 23.575736 
C 72.311748 23.46322 72.159122 23.4 72 23.4 
C 71.840878 23.4 71.688252 23.46322 71.575736 23.575736 
C 71.46322 23.688252 71.4 23.840878 71.4 24 
C 71.4 24.159122 71.46322 24.311748 71.575736 24.424264 
C 71.688252 24.53678 71.840878 24.6 72 24.6 
z
M 3 18.6 
C 3.159122 18.6 3.311748 18.53678 3.424264 18.424264 
C 3.53678 18.311748 3.6 18.159122 3.6 18 
C 3.6 17.840878 3.53678 17.688252 3.424264 17.575736 
C 3.311748 17.46322 3.159122 17.4 3 17.4 
C 2.840878 17.4 2.688252 17.46322 2.575736 17.575736 
C 2.46322 17.688252 2.4 17.840878 2.4 18 
C 2.4 18.159122 2.46322 18.311748 2.575736 18.424264 
C 2.688252 18.53678 2.840878 18.6 3 18.6 
z
M 9 18.6 
C 9.159122 18.6 9.311748 18.53678 9.424264 18.424264 
C 9.53678 18.311748 9.6 18.159122 9.6 18 
C 9.6 17.840878 9.53678 17.688252 9.424264 17.575736 
C 9.311748 17.46322 9.159122 17.4 9 17.4 
C 8.840878 17.4 8.688252 17.46322 8.575736 17.575736 
C 8.46322 17.688252 8.4 17.840878 8.4 18 
C 8.4 18.159122 8.46322 18.311748 8.575736 18.424264 
C 8.688252 18.53678 8.840878 18.6 9 18.6 
z
M 15 18.6 
C 15.159122 18.6 15.311748 18.53678 15.424264 18.424264 
C 15.53678 18.311748 15.6 18.159122 15.6 18 
C 15.6 17.840878 15.53678 17.688252 15.424264 17.575736 
C 15.311748 17.46322 15.159122 17.4 15 17.4 
C 14.840878 17.4 14.688252 17.46322 14.575736 17.575736 
C 14.46322 17.688252 14.4 17.840878 14.4 18 
C 14.4 18.159122 14.46322 18.311748 14.575736 18.424264 
C 14.688252 18.53678 14.840878 18.6 15 18.6 
z
M 21 18.6 
C 21.159122 18.6 21.311748 18.53678 21.424264 18.424264 
C 21.53678 18.311748 21.6 18.159122 21.6 18 
C 21.6 17.840878 21.53678 17.688252 21.424264 17.575736 
C 21.311748 17.46322 21.159122 17.4 21 17.4 
C 20.840878 17.4 20.688252 17.46322 20.575736 17.575736 
C 20.46322 17.688252 20.4 17.840878 20.4 18 
C 20.4 18.159122 20.46322 18.311748 20.575736 18.424264 
C 20.688252 18.53678 20.840878 18.6 21 18.6 
z
M 27 18.6 
C 27.159122 18.6 27.311748 18.53678 27.424264 18.424264 
C 27.53678 18.311748 27.6 18.159122 27.6 18 
C 27.6 17.840878 27.53678 17.688252 27.424264 17.575736 
C 27.311748 17.46322 27.159122 17.4 27 17.4 
C 26.840878 17.4 26.688252 17.46322 26.575736 17.575736 
C 26.46322 17.688252 26.4 17.840878 26.4 18 
C 26.4 18.159122 26.46322 18.311748 26.575736 18.424264 
C 26.688252 18.53678 26.840878 18.6 27 18.6 
z
M 33 18.6 
C 33.159122 18.6 33.311748 18.53678 33.424264 18.424264 
C 33.53678 18.311748 33.6 18.159122 33.6 18 
C 33.6 17.840878 33.53678 17.688252 33.424264 17.575736 
C 33.311748 17.46322 33.159122 17.4 33 17.4 
C 32.840878 17.4 32.688252 17.46322 32.575736 17.575736 
C 32.46322 17.688252 32.4 17.840878 32.4 18 
C 32.4 18.159122 32.46322 18.311748 32.575736 18.424264 
C 32.688252 18.53678 32.840878 18.6 33 18.6 
z
M 39 18.6 
C 39.159122 18.6 39.311748 18.53678 39.424264 18.424264 
C 39.53678 18.311748 39.6 18.159122 39.6 18 
C 39.6 17.840878 39.53678 17.688252 39.424264 17.575736 
C 39.311748 17.46322 39.159122 17.4 39 17.4 
C 38.840878 17.4 38.688252 17.46322 38.575736 17.575736 
C 38.46322 17.688252 38.4 17.840878 38.4 18 
C 38.4 18.159122 38.46322 18.311748 38.575736 18.424264 
C 38.688252 18.53678 38.840878 18.6 39 18.6 
z
M 45 18.6 
C 45.159122 18.6 45.311748 18.53678 45.424264 18.424264 
C 45.53678 18.311748 45.6 18.159122 45.6 18 
C 45.6 17.840878 45.53678 17.688252 45.424264 17.575736 
C 45.311748 17.46322 45.159122 17.4 45 17.4 
C 44.840878 17.4 44.688252 17.46322 44.575736 17.575736 
C 44.46322 17.688252 44.4 17.840878 44.4 18 
C 44.4 18.159122 44.46322 18.311748 44.575736 18.424264 
C 44.688252 18.53678 44.840878 18.6 45 18.6 
z
M 51 18.6 
C 51.159122 18.6 51.311748 18.53678 51.424264 18.424264 
C 51.53678 18.311748 51.6 18.159122 51.6 18 
C 51.6 17.840878 51.53678 17.688252 51.424264 17.575736 
C 51.311748 17.46322 51.159122 17.4 51 17.4 
C 50.840878 17.4 50.688252 17.46322 50.575736 17.575736 
C 50.46322 17.688252 50.4 17.840878 50.4 18 
C 50.4 18.159122 50.46322 18.311748 50.575736 18.424264 
C 50.688252 18.53678 50.840878 18.6 51 18.6 
z
M 57 18.6 
C 57.159122 18.6 57.311748 18.53678 57.424264 18.424264 
C 57.53678 18.311748 57.6 18.159122 57.6 18 
C 57.6 17.840878 57.53678 17.688252 57.424264 17.575736 
C 57.311748 17.46322 57.159122 17.4 57 17.4 
C 56.840878 17.4 56.688252 17.46322 56.575736 17.575736 
C 56.46322 17.688252 56.4 17.840878 56.4 18 
C 56.4 18.159122 56.46322 18.311748 56.575736 18.424264 
C 56.688252 18.53678 56.840878 18.6 57 18.6 
z
M 63 18.6 
C 63.159122 18.6 63.311748 18.53678 63.424264 18.424264 
C 63.53678 18.311748 63.6 18.159122 63.6 18 
C 63.6 17.840878 63.53678 17.688252 63.424264 17.575736 
C 63.311748 17.46322 63.159122 17.4 63 17.4 
C 62.840878 17.4 62.688252 17.46322 62.575736 17.575736 
C 62.46322 17.688252 62.4 17.840878 62.4 18 
C 62.4 18.159122 62.46322 18.311748 62.575736 18.424264 
C 62.688252 18.53678 62.840878 18.6 63 18.6 
z
M 69 18.6 
C 69.159122 18.6 69.311748 18.53678 69.424264 18.424264 
C 69.53678 18.311748 69.6 18.159122 69.6 18 
C 69.6 17.840878 69.53678 17.688252 69.424264 17.575736 
C 69.311748 17.46322 69.159122 17.4 69 17.4 
C 68.840878 17.4 68.688252 17.46322 68.575736 17.575736 
C 68.46322 17.688252 68.4 17.840878 68.4 18 
C 68.4 18.159122 68.46322 18.311748 68.575736 18.424264 
C 68.688252 18.53678 68.840878 18.6 69 18.6 
z
M 0 12.6 
C 0.159122 12.6 0.311748 12.53678 0.424264 12.424264 
C 0.53678 12.311748 0.6 12.159122 0.6 12 
C 0.6 11.840878 0.53678 11.688252 0.424264 11.575736 
C 0.311748 11.46322 0.159122 11.4 0 11.4 
C -0.159122 11.4 -0.311748 11.46322 -0.424264 11.575736 
C -0.53678 11.688252 -0.6 11.840878 -0.6 12 
C -0.6 12.159122 -0.53678 12.311748 -0.424264 12.424264 
C -0.311748 12.53678 -0.159122 12.6 0 12.6 
z
M 6 12.6 
C 6.159122 12.6 6.311748 12.53678 6.424264 12.424264 
C 6.53678 12.311748 6.6 12.159122 6.6 12 
C 6.6 11.840878 6.53678 11.688252 6.424264 11.575736 
C 6.311748 11.46322 6.159122 11.4 6 11.4 
C 5.840878 11.4 5.688252 11.46322 5.575736 11.575736 
C 5.46322 11.688252 5.4 11.840878 5.4 12 
C 5.4 12.159122 5.46322 12.311748 5.575736 12.424264 
C 5.688252 12.53678 5.840878 12.6 6 12.6 
z
M 12 12.6 
C 12.159122 12.6 12.311748 12.53678 12.424264 12.424264 
C 12.53678 12.311748 12.6 12.159122 12.6 12 
C 12.6 11.840878 12.53678 11.688252 12.424264 11.575736 
C 12.311748 11.46322 12.159122 11.4 12 11.4 
C 11.840878 11.4 11.688252 11.46322 11.575736 11.575736 
C 11.46322 11.688252 11.4 11.840878 11.4 12 
C 11.4 12.159122 11.46322 12.311748 11.575736 12.424264 
C 11.688252 12.53678 11.840878 12.6 12 12.6 
z
M 18 12.6 
C 18.159122 12.6 18.311748 12.53678 18.424264 12.424264 
C 18.53678 12.311748 18.6 12.159122 18.6 12 
C 18.6 11.840878 18.53678 11.688252 18.424264 11.575736 
C 18.311748 11.46322 18.159122 11.4 18 11.4 
C 17.840878 11.4 17.688252 11.46322 17.575736 11.575736 
C 17.46322 11.688252 17.4 11.840878 17.4 12 
C 17.4 12.159122 17.46322 12.311748 17.575736 12.424264 
C 17.688252 12.53678 17.840878 12.6 18 12.6 
z
M 24 12.6 
C 24.159122 12.6 24.311748 12.53678 24.424264 12.424264 
C 24.53678 12.311748 24.6 12.159122 24.6 12 
C 24.6 11.840878 24.53678 11.688252 24.424264 11.575736 
C 24.311748 11.46322 24.159122 11.4 24 11.4 
C 23.840878 11.4 23.688252 11.46322 23.575736 11.575736 
C 23.46322 11.688252 23.4 11.840878 23.4 12 
C 23.4 12.159122 23.46322 12.311748 23.575736 12.424264 
C 23.688252 12.53678 23.840878 12.6 24 12.6 
z
M 30 12.6 
C 30.159122 12.6 30.311748 12.53678 30.424264 12.424264 
C 30.53678 12.311748 30.6 12.159122 30.6 12 
C 30.6 11.840878 30.53678 11.688252 30.424264 11.575736 
C 30.311748 11.46322 30.159122 11.4 30 11.4 
C 29.840878 11.4 29.688252 11.46322 29.575736 11.575736 
C 29.46322 11.688252 29.4 11.840878 29.4 12 
C 29.4 12.159122 29.46322 12.311748 29.575736 12.424264 
C 29.688252 12.53678 29.840878 12.6 30 12.6 
z
M 36 12.6 
C 36.159122 12.6 36.311748 12.53678 36.424264 12.424264 
C 36.53678 12.311748 36.6 12.159122 36.6 12 
C 36.6 11.840878 36.53678 11.688252 36.424264 11.575736 
C 36.311748 11.46322 36.159122 11.4 36 11.4 
C 35.840878 11.4 35.688252 11.46322 35.575736 11.575736 
C 35.46322 11.688252 35.4 11.840878 35.4 12 
C 35.4 12.159122 35.46322 12.311748 35.575736 12.424264 
C 35.688252 12.53678 35.840878 12.6 36 12.6 
z
M 42 12.6 
C 42.159122 12.6 42.311748 12.53678 42.424264 12.424264 
C 42.53678 12.311748 42.6 12.159122 42.6 12 
C 42.6 11.840878 42.53678 11.688252 42.424264 11.575736 
C 42.311748 11.46322 42.159122 11.4 42 11.4 
C 41.840878 11.4 41.688252 11.46322 41.575736 11.575736 
C 41.46322 11.688252 41.4 11.840878 41.4 12 
C 41.4 12.159122 41.46322 12.311748 41.575736 12.424264 
C 41.688252 12.53678 41.840878 12.6 42 12.6 
z
M 48 12.6 
C 48.159122 12.6 48.311748 12.53678 48.424264 12.424264 
C 48.53678 12.311748 48.6 12.159122 48.6 12 
C 48.6 11.840878 48.53678 11.688252 48.424264 11.575736 
C 48.311748 11.46322 48.159122 11.4 48 11.4 
C 47.840878 11.4 47.688252 11.46322 47.575736 11.575736 
C 47.46322 11.688252 47.4 11.840878 47.4 12 
C 47.4 12.159122 47.46322 12.311748 47.575736 12.424264 
C 47.688252 12.53678 47.840878 12.6 48 12.6 
z
M 54 12.6 
C 54.159122 12.6 54.311748 12.53678 54.424264 12.424264 
C 54.53678 12.311748 54.6 12.159122 54.6 12 
C 54.6 11.840878 54.53678 11.688252 54.424264 11.575736 
C 54.311748 11.46322 54.159122 11.4 54 11.4 
C 53.840878 11.4 53.688252 11.46322 53.575736 11.575736 
C 53.46322 11.688252 53.4 11.840878 53.4 12 
C 53.4 12.159122 53.46322 12.311748 53.575736 12.424264 
C 53.688252 12.53678 53.840878 12.6 54 12.6 
z
M 60 12.6 
C 60.159122 12.6 60.311748 12.53678 60.424264 12.424264 
C 60.53678 12.311748 60.6 12.159122 60.6 12 
C 60.6 11.840878 60.53678 11.688252 60.424264 11.575736 
C 60.311748 11.46322 60.159122 11.4 60 11.4 
C 59.840878 11.4 59.688252 11.46322 59.575736 11.575736 
C 59.46322 11.688252 59.4 11.840878 59.4 12 
C 59.4 12.159122 59.46322 12.311748 59.575736 12.424264 
C 59.688252 12.53678 59.840878 12.6 60 12.6 
z
M 66 12.6 
C 66.159122 12.6 66.311748 12.53678 66.424264 12.424264 
C 66.53678 12.311748 66.6 12.159122 66.6 12 
C 66.6 11.840878 66.53678 11.688252 66.424264 11.575736 
C 66.311748 11.46322 66.159122 11.4 66 11.4 
C 65.840878 11.4 65.688252 11.46322 65.575736 11.575736 
C 65.46322 11.688252 65.4 11.840878 65.4 12 
C 65.4 12.159122 65.46322 12.311748 65.575736 12.424264 
C 65.688252 12.53678 65.840878 12.6 66 12.6 
z
M 72 12.6 
C 72.159122 12.6 72.311748 12.53678 72.424264 12.424264 
C 72.53678 12.311748 72.6 12.159122 72.6 12 
C 72.6 11.840878 72.53678 11.688252 72.424264 11.575736 
C 72.311748 11.46322 72.159122 11.4 72 11.4 
C 71.840878 11.4 71.688252 11.46322 71.575736 11.575736 
C 71.46322 11.688252 71.4 11.840878 71.4 12 
C 71.4 12.159122 71.46322 12.311748 71.575736 12.424264 
C 71.688252 12.53678 71.840878 12.6 72 12.6 
z
M 3 6.6 
C 3.159122 6.6 3.311748 6.53678 3.424264 6.424264 
C 3.53678 6.311748 3.6 6.159122 3.6 6 
C 3.6 5.840878 3.53678 5.688252 3.424264 5.575736 
C 3.311748 5.46322 3.159122 5.4 3 5.4 
C 2.840878 5.4 2.688252 5.46322 2.575736 5.575736 
C 2.46322 5.688252 2.4 5.840878 2.4 6 
C 2.4 6.159122 2.46322 6.311748 2.575736 6.424264 
C 2.688252 6.53678 2.840878 6.6 3 6.6 
z
M 9 6.6 
C 9.159122 6.6 9.311748 6.53678 9.424264 6.424264 
C 9.53678 6.311748 9.6 6.159122 9.6 6 
C 9.6 5.840878 9.53678 5.688252 9.424264 5.575736 
C 9.311748 5.46322 9.159122 5.4 9 5.4 
C 8.840878 5.4 8.688252 5.46322 8.575736 5.575736 
C 8.46322 5.688252 8.4 5.840878 8.4 6 
C 8.4 6.159122 8.46322 6.311748 8.575736 6.424264 
C 8.688252 6.53678 8.840878 6.6 9 6.6 
z
M 15 6.6 
C 15.159122 6.6 15.311748 6.53678 15.424264 6.424264 
C 15.53678 6.311748 15.6 6.159122 15.6 6 
C 15.6 5.840878 15.53678 5.688252 15.424264 5.575736 
C 15.311748 5.46322 15.159122 5.4 15 5.4 
C 14.840878 5.4 14.688252 5.46322 14.575736 5.575736 
C 14.46322 5.688252 14.4 5.840878 14.4 6 
C 14.4 6.159122 14.46322 6.311748 14.575736 6.424264 
C 14.688252 6.53678 14.840878 6.6 15 6.6 
z
M 21 6.6 
C 21.159122 6.6 21.311748 6.53678 21.424264 6.424264 
C 21.53678 6.311748 21.6 6.159122 21.6 6 
C 21.6 5.840878 21.53678 5.688252 21.424264 5.575736 
C 21.311748 5.46322 21.159122 5.4 21 5.4 
C 20.840878 5.4 20.688252 5.46322 20.575736 5.575736 
C 20.46322 5.688252 20.4 5.840878 20.4 6 
C 20.4 6.159122 20.46322 6.311748 20.575736 6.424264 
C 20.688252 6.53678 20.840878 6.6 21 6.6 
z
M 27 6.6 
C 27.159122 6.6 27.311748 6.53678 27.424264 6.424264 
C 27.53678 6.311748 27.6 6.159122 27.6 6 
C 27.6 5.840878 27.53678 5.688252 27.424264 5.575736 
C 27.311748 5.46322 27.159122 5.4 27 5.4 
C 26.840878 5.4 26.688252 5.46322 26.575736 5.575736 
C 26.46322 5.688252 26.4 5.840878 26.4 6 
C 26.4 6.159122 26.46322 6.311748 26.575736 6.424264 
C 26.688252 6.53678 26.840878 6.6 27 6.6 
z
M 33 6.6 
C 33.159122 6.6 33.311748 6.53678 33.424264 6.424264 
C 33.53678 6.311748 33.6 6.159122 33.6 6 
C 33.6 5.840878 33.53678 5.688252 33.424264 5.575736 
C 33.311748 5.46322 33.159122 5.4 33 5.4 
C 32.840878 5.4 32.688252 5.46322 32.575736 5.575736 
C 32.46322 5.688252 32.4 5.840878 32.4 6 
C 32.4 6.159122 32.46322 6.311748 32.575736 6.424264 
C 32.688252 6.53678 32.840878 6.6 33 6.6 
z
M 39 6.6 
C 39.159122 6.6 39.311748 6.53678 39.424264 6.424264 
C 39.53678 6.311748 39.6 6.159122 39.6 6 
C 39.6 5.840878 39.53678 5.688252 39.424264 5.575736 
C 39.311748 5.46322 39.159122 5.4 39 5.4 
C 38.840878 5.4 38.688252 5.46322 38.575736 5.575736 
C 38.46322 5.688252 38.4 5.840878 38.4 6 
C 38.4 6.159122 38.46322 6.311748 38.575736 6.424264 
C 38.688252 6.53678 38.840878 6.6 39 6.6 
z
M 45 6.6 
C 45.159122 6.6 45.311748 6.53678 45.424264 6.424264 
C 45.53678 6.311748 45.6 6.159122 45.6 6 
C 45.6 5.840878 45.53678 5.688252 45.424264 5.575736 
C 45.311748 5.46322 45.159122 5.4 45 5.4 
C 44.840878 5.4 44.688252 5.46322 44.575736 5.575736 
C 44.46322 5.688252 44.4 5.840878 44.4 6 
C 44.4 6.159122 44.46322 6.311748 44.575736 6.424264 
C 44.688252 6.53678 44.840878 6.6 45 6.6 
z
M 51 6.6 
C 51.159122 6.6 51.311748 6.53678 51.424264 6.424264 
C 51.53678 6.311748 51.6 6.159122 51.6 6 
C 51.6 5.840878 51.53678 5.688252 51.424264 5.575736 
C 51.311748 5.46322 51.159122 5.4 51 5.4 
C 50.840878 5.4 50.688252 5.46322 50.575736 5.575736 
C 50.46322 5.688252 50.4 5.840878 50.4 6 
C 50.4 6.159122 50.46322 6.311748 50.575736 6.424264 
C 50.688252 6.53678 50.840878 6.6 51 6.6 
z
M 57 6.6 
C 57.159122 6.6 57.311748 6.53678 57.424264 6.424264 
C 57.53678 6.311748 57.6 6.159122 57.6 6 
C 57.6 5.840878 57.53678 5.688252 57.424264 5.575736 
C 57.311748 5.46322 57.159122 5.4 57 5.4 
C 56.840878 5.4 56.688252 5.46322 56.575736 5.575736 
C 56.46322 5.688252 56.4 5.840878 56.4 6 
C 56.4 6.159122 56.46322 6.311748 56.575736 6.424264 
C 56.688252 6.53678 56.840878 6.6 57 6.6 
z
M 63 6.6 
C 63.159122 6.6 63.311748 6.53678 63.424264 6.424264 
C 63.53678 6.311748 63.6 6.159122 63.6 6 
C 63.6 5.840878 63.53678 5.688252 63.424264 5.575736 
C 63.311748 5.46322 63.159122 5.4 63 5.4 
C 62.840878 5.4 62.688252 5.46322 62.575736 5.575736 
C 62.46322 5.688252 62.4 5.840878 62.4 6 
C 62.4 6.159122 62.46322 6.311748 62.575736 6.424264 
C 62.688252 6.53678 62.840878 6.6 63 6.6 
z
M 69 6.6 
C 69.159122 6.6 69.311748 6.53678 69.424264 6.424264 
C 69.53678 6.311748 69.6 6.159122 69.6 6 
C 69.6 5.840878 69.53678 5.688252 69.424264 5.575736 
C 69.311748 5.46322 69.159122 5.4 69 5.4 
C 68.840878 5.4 68.688252 5.46322 68.575736 5.575736 
C 68.46322 5.688252 68.4 5.840878 68.4 6 
C 68.4 6.159122 68.46322 6.311748 68.575736 6.424264 
C 68.688252 6.53678 68.840878 6.6 69 6.6 
z
M 0 0.6 
C 0.159122 0.6 0.311748 0.53678 0.424264 0.424264 
C 0.53678 0.311748 0.6 0.159122 0.6 0 
C 0.6 -0.159122 0.53678 -0.311748 0.424264 -0.424264 
C 0.311748 -0.53678 0.159122 -0.6 0 -0.6 
C -0.159122 -0.6 -0.311748 -0.53678 -0.424264 -0.424264 
C -0.53678 -0.311748 -0.6 -0.159122 -0.6 0 
C -0.6 0.159122 -0.53678 0.311748 -0.424264 0.424264 
C -0.311748 0.53678 -0.159122 0.6 0 0.6 
z
M 6 0.6 
C 6.159122 0.6 6.311748 0.53678 6.424264 0.424264 
C 6.53678 0.311748 6.6 0.159122 6.6 0 
C 6.6 -0.159122 6.53678 -0.311748 6.424264 -0.424264 
C 6.311748 -0.53678 6.159122 -0.6 6 -0.6 
C 5.840878 -0.6 5.688252 -0.53678 5.575736 -0.424264 
C 5.46322 -0.311748 5.4 -0.159122 5.4 0 
C 5.4 0.159122 5.46322 0.311748 5.575736 0.424264 
C 5.688252 0.53678 5.840878 0.6 6 0.6 
z
M 12 0.6 
C 12.159122 0.6 12.311748 0.53678 12.424264 0.424264 
C 12.53678 0.311748 12.6 0.159122 12.6 0 
C 12.6 -0.159122 12.53678 -0.311748 12.424264 -0.424264 
C 12.311748 -0.53678 12.159122 -0.6 12 -0.6 
C 11.840878 -0.6 11.688252 -0.53678 11.575736 -0.424264 
C 11.46322 -0.311748 11.4 -0.159122 11.4 0 
C 11.4 0.159122 11.46322 0.311748 11.575736 0.424264 
C 11.688252 0.53678 11.840878 0.6 12 0.6 
z
M 18 0.6 
C 18.159122 0.6 18.311748 0.53678 18.424264 0.424264 
C 18.53678 0.311748 18.6 0.159122 18.6 0 
C 18.6 -0.159122 18.53678 -0.311748 18.424264 -0.424264 
C 18.311748 -0.53678 18.159122 -0.6 18 -0.6 
C 17.840878 -0.6 17.688252 -0.53678 17.575736 -0.424264 
C 17.46322 -0.311748 17.4 -0.159122 17.4 0 
C 17.4 0.159122 17.46322 0.311748 17.575736 0.424264 
C 17.688252 0.53678 17.840878 0.6 18 0.6 
z
M 24 0.6 
C 24.159122 0.6 24.311748 0.53678 24.424264 0.424264 
C 24.53678 0.311748 24.6 0.159122 24.6 0 
C 24.6 -0.159122 24.53678 -0.311748 24.424264 -0.424264 
C 24.311748 -0.53678 24.159122 -0.6 24 -0.6 
C 23.840878 -0.6 23.688252 -0.53678 23.575736 -0.424264 
C 23.46322 -0.311748 23.4 -0.159122 23.4 0 
C 23.4 0.159122 23.46322 0.311748 23.575736 0.424264 
C 23.688252 0.53678 23.840878 0.6 24 0.6 
z
M 30 0.6 
C 30.159122 0.6 30.311748 0.53678 30.424264 0.424264 
C 30.53678 0.311748 30.6 0.159122 30.6 0 
C 30.6 -0.159122 30.53678 -0.311748 30.424264 -0.424264 
C 30.311748 -0.53678 30.159122 -0.6 30 -0.6 
C 29.840878 -0.6 29.688252 -0.53678 29.575736 -0.424264 
C 29.46322 -0.311748 29.4 -0.159122 29.4 0 
C 29.4 0.159122 29.46322 0.311748 29.575736 0.424264 
C 29.688252 0.53678 29.840878 0.6 30 0.6 
z
M 36 0.6 
C 36.159122 0.6 36.311748 0.53678 36.424264 0.424264 
C 36.53678 0.311748 36.6 0.159122 36.6 0 
C 36.6 -0.159122 36.53678 -0.311748 36.424264 -0.424264 
C 36.311748 -0.53678 36.159122 -0.6 36 -0.6 
C 35.840878 -0.6 35.688252 -0.53678 35.575736 -0.424264 
C 35.46322 -0.311748 35.4 -0.159122 35.4 0 
C 35.4 0.159122 35.46322 0.311748 35.575736 0.424264 
C 35.688252 0.53678 35.840878 0.6 36 0.6 
z
M 42 0.6 
C 42.159122 0.6 42.311748 0.53678 42.424264 0.424264 
C 42.53678 0.311748 42.6 0.159122 42.6 0 
C 42.6 -0.159122 42.53678 -0.311748 42.424264 -0.424264 
C 42.311748 -0.53678 42.159122 -0.6 42 -0.6 
C 41.840878 -0.6 41.688252 -0.53678 41.575736 -0.424264 
C 41.46322 -0.311748 41.4 -0.159122 41.4 0 
C 41.4 0.159122 41.46322 0.311748 41.575736 0.424264 
C 41.688252 0.53678 41.840878 0.6 42 0.6 
z
M 48 0.6 
C 48.159122 0.6 48.311748 0.53678 48.424264 0.424264 
C 48.53678 0.311748 48.6 0.159122 48.6 0 
C 48.6 -0.159122 48.53678 -0.311748 48.424264 -0.424264 
C 48.311748 -0.53678 48.159122 -0.6 48 -0.6 
C 47.840878 -0.6 47.688252 -0.53678 47.575736 -0.424264 
C 47.46322 -0.311748 47.4 -0.159122 47.4 0 
C 47.4 0.159122 47.46322 0.311748 47.575736 0.424264 
C 47.688252 0.53678 47.840878 0.6 48 0.6 
z
M 54 0.6 
C 54.159122 0.6 54.311748 0.53678 54.424264 0.424264 
C 54.53678 0.311748 54.6 0.159122 54.6 0 
C 54.6 -0.159122 54.53678 -0.311748 54.424264 -0.424264 
C 54.311748 -0.53678 54.159122 -0.6 54 -0.6 
C 53.840878 -0.6 53.688252 -0.53678 53.575736 -0.424264 
C 53.46322 -0.311748 53.4 -0.159122 53.4 0 
C 53.4 0.159122 53.46322 0.311748 53.575736 0.424264 
C 53.688252 0.53678 53.840878 0.6 54 0.6 
z
M 60 0.6 
C 60.159122 0.6 60.311748 0.53678 60.424264 0.424264 
C 60.53678 0.311748 60.6 0.159122 60.6 0 
C 60.6 -0.159122 60.53678 -0.311748 60.424264 -0.424264 
C 60.311748 -0.53678 60.159122 -0.6 60 -0.6 
C 59.840878 -0.6 59.688252 -0.53678 59.575736 -0.424264 
C 59.46322 -0.311748 59.4 -0.159122 59.4 0 
C 59.4 0.159122 59.46322 0.311748 59.575736 0.424264 
C 59.688252 0.53678 59.840878 0.6 60 0.6 
z
M 66 0.6 
C 66.159122 0.6 66.311748 0.53678 66.424264 0.424264 
C 66.53678 0.311748 66.6 0.159122 66.6 0 
C 66.6 -0.159122 66.53678 -0.311748 66.424264 -0.424264 
C 66.311748 -0.53678 66.159122 -0.6 66 -0.6 
C 65.840878 -0.6 65.688252 -0.53678 65.575736 -0.424264 
C 65.46322 -0.311748 65.4 -0.159122 65.4 0 
C 65.4 0.159122 65.46322 0.311748 65.575736 0.424264 
C 65.688252 0.53678 65.840878 0.6 66 0.6 
z
M 72 0.6 
C 72.159122 0.6 72.311748 0.53678 72.424264 0.424264 
C 72.53678 0.311748 72.6 0.159122 72.6 0 
C 72.6 -0.159122 72.53678 -0.311748 72.424264 -0.424264 
C 72.311748 -0.53678 72.159122 -0.6 72 -0.6 
C 71.840878 -0.6 71.688252 -0.53678 71.575736 -0.424264 
C 71.46322 -0.311748 71.4 -0.159122 71.4 0 
C 71.4 0.159122 71.46322 0.311748 71.575736 0.424264 
C 71.688252 0.53678 71.840878 0.6 72 0.6 
z
" style="fill: #4c4c4c; stroke: #4c4c4c; stroke-width: 1.0; stroke-linecap: butt; stroke-linejoin: miter"/>
  </pattern>
  <pattern id="hb4ee0f7e38" patternUnits="userSpaceOnUse" x="0" y="0" width="72" height="72">
   <rect x="0" y="0" width="73" height="73" fill="#c44e52"/>
   <path d="M -36 36 
L 36 -36 
M -30 42 
L 42 -30 
M -24 48 
L 48 -24 
M -18 54 
L 54 -18 
M -12 60 
L 60 -12 
M -6 66 
L 66 -6 
M 0 72 
L 72 0 
M 6 78 
L 78 6 
M 12 84 
L 84 12 
M 18 90 
L 90 18 
M 24 96 
L 96 24 
M 30 102 
L 102 30 
M 36 108 
L 108 36 
M -36 36 
L 36 108 
M -30 30 
L 42 102 
M -24 24 
L 48 96 
M -18 18 
L 54 90 
M -12 12 
L 60 84 
M -6 6 
L 66 78 
M 0 0 
L 72 72 
M 6 -6 
L 78 66 
M 12 -12 
L 84 60 
M 18 -18 
L 90 54 
M 24 -24 
L 96 48 
M 30 -30 
L 102 42 
M 36 -36 
L 108 36 
" style="fill: #000000; stroke: #000000; stroke-width: 1.0; stroke-linecap: butt; stroke-linejoin: miter"/>
  </pattern>
 </defs>
</svg>
