<?xml version="1.0" encoding="utf-8" standalone="no"?>
<!DOCTYPE svg PUBLIC "-//W3C//DTD SVG 1.1//EN"
  "http://www.w3.org/Graphics/SVG/1.1/DTD/svg11.dtd">
<svg xmlns:xlink="http://www.w3.org/1999/xlink" width="424.52375pt" height="315.714531pt" viewBox="0 0 424.52375 315.714531" xmlns="http://www.w3.org/2000/svg" version="1.1">
 <metadata>
  <rdf:RDF xmlns:dc="http://purl.org/dc/elements/1.1/" xmlns:cc="http://creativecommons.org/ns#" xmlns:rdf="http://www.w3.org/1999/02/22-rdf-syntax-ns#">
   <cc:Work>
    <dc:type rdf:resource="http://purl.org/dc/dcmitype/StillImage"/>
    <dc:date>2026-05-25T00:46:42.765309</dc:date>
    <dc:format>image/svg+xml</dc:format>
    <dc:creator>
     <cc:Agent>
      <dc:title>Matplotlib v3.10.9, https://matplotlib.org/</dc:title>
     </cc:Agent>
    </dc:creator>
   </cc:Work>
  </rdf:RDF>
 </metadata>
 <defs>
  <style type="text/css">*{stroke-linejoin: round; stroke-linecap: butt}</style>
 </defs>
 <g id="figure_1">
  <g id="patch_1">
   <path d="M 0 315.714531 
L 424.52375 315.714531 
L 424.52375 0 
L 0 0 
z
" style="fill: #ffffff"/>
  </g>
  <g id="axes_1">
   <g id="patch_2">
    <path d="M 50.14375 278.158281 
L 417.32375 278.158281 
L 417.32375 21.558281 
L 50.14375 21.558281 
z
" style="fill: #ffffff"/>
   </g>
   <g id="matplotlib.axis_1">
    <g id="xtick_1">
     <g id="line2d_1">
      <path d="M 116.461065 278.158281 
L 116.461065 21.558281 
" clip-path="url(#pbf9c9c7069)" style="fill: none; stroke-dasharray: 1.48,0.64; stroke-dashoffset: 0; stroke: #b0b0b0; stroke-opacity: 0.5; stroke-width: 0.4"/>
     </g>
     <g id="line2d_2">
      <defs>
       <path id="mdf5b5b5891" d="M 0 0 
L 0 3.5 
" style="stroke: #000000; stroke-width: 0.8"/>
      </defs>
      <g>
       <use xlink:href="#mdf5b5b5891" x="116.461065" y="278.158281" style="stroke: #000000; stroke-width: 0.8"/>
      </g>
     </g>
     <g id="text_1">
      <!-- 8 -->
      <g transform="translate(113.279815 292.756719) scale(0.1 -0.1)">
       <defs>
        <path id="DejaVuSans-38" d="M 2034 2216 
Q 1584 2216 1326 1975 
Q 1069 1734 1069 1313 
Q 1069 891 1326 650 
Q 1584 409 2034 409 
Q 2484 409 2743 651 
Q 3003 894 3003 1313 
Q 3003 1734 2745 1975 
Q 2488 2216 2034 2216 
z
M 1403 2484 
Q 997 2584 770 2862 
Q 544 3141 544 3541 
Q 544 4100 942 4425 
Q 1341 4750 2034 4750 
Q 2731 4750 3128 4425 
Q 3525 4100 3525 3541 
Q 3525 3141 3298 2862 
Q 3072 2584 2669 2484 
Q 3125 2378 3379 2068 
Q 3634 1759 3634 1313 
Q 3634 634 3220 271 
Q 2806 -91 2034 -91 
Q 1263 -91 848 271 
Q 434 634 434 1313 
Q 434 1759 690 2068 
Q 947 2378 1403 2484 
z
M 1172 3481 
Q 1172 3119 1398 2916 
Q 1625 2713 2034 2713 
Q 2441 2713 2670 2916 
Q 2900 3119 2900 3481 
Q 2900 3844 2670 4047 
Q 2441 4250 2034 4250 
Q 1625 4250 1398 4047 
Q 1172 3844 1172 3481 
z
" transform="scale(0.015625)"/>
       </defs>
       <use xlink:href="#DejaVuSans-38"/>
      </g>
     </g>
    </g>
    <g id="xtick_2">
     <g id="line2d_3">
      <path d="M 194.125095 278.158281 
L 194.125095 21.558281 
" clip-path="url(#pbf9c9c7069)" style="fill: none; stroke-dasharray: 1.48,0.64; stroke-dashoffset: 0; stroke: #b0b0b0; stroke-opacity: 0.5; stroke-width: 0.4"/>
     </g>
     <g id="line2d_4">
      <g>
       <use xlink:href="#mdf5b5b5891" x="194.125095" y="278.158281" style="stroke: #000000; stroke-width: 0.8"/>
      </g>
     </g>
     <g id="text_2">
      <!-- 9 -->
      <g transform="translate(190.943845 292.756719) scale(0.1 -0.1)">
       <defs>
        <path id="DejaVuSans-39" d="M 703 97 
L 703 672 
Q 941 559 1184 500 
Q 1428 441 1663 441 
Q 2288 441 2617 861 
Q 2947 1281 2994 2138 
Q 2813 1869 2534 1725 
Q 2256 1581 1919 1581 
Q 1219 1581 811 2004 
Q 403 2428 403 3163 
Q 403 3881 828 4315 
Q 1253 4750 1959 4750 
Q 2769 4750 3195 4129 
Q 3622 3509 3622 2328 
Q 3622 1225 3098 567 
Q 2575 -91 1691 -91 
Q 1453 -91 1209 -44 
Q 966 3 703 97 
z
M 1959 2075 
Q 2384 2075 2632 2365 
Q 2881 2656 2881 3163 
Q 2881 3666 2632 3958 
Q 2384 4250 1959 4250 
Q 1534 4250 1286 3958 
Q 1038 3666 1038 3163 
Q 1038 2656 1286 2365 
Q 1534 2075 1959 2075 
z
" transform="scale(0.015625)"/>
       </defs>
       <use xlink:href="#DejaVuSans-39"/>
      </g>
     </g>
    </g>
    <g id="xtick_3">
     <g id="line2d_5">
      <path d="M 271.789125 278.158281 
L 271.789125 21.558281 
" clip-path="url(#pbf9c9c7069)" style="fill: none; stroke-dasharray: 1.48,0.64; stroke-dashoffset: 0; stroke: #b0b0b0; stroke-opacity: 0.5; stroke-width: 0.4"/>
     </g>
     <g id="line2d_6">
      <g>
       <use xlink:href="#mdf5b5b5891" x="271.789125" y="278.158281" style="stroke: #000000; stroke-width: 0.8"/>
      </g>
     </g>
     <g id="text_3">
      <!-- 10 -->
      <g transform="translate(265.426625 292.756719) scale(0.1 -0.1)">
       <defs>
        <path id="DejaVuSans-31" d="M 794 531 
L 1825 531 
L 1825 4091 
L 703 3866 
L 703 4441 
L 1819 4666 
L 2450 4666 
L 2450 531 
L 3481 531 
L 3481 0 
L 794 0 
L 794 531 
z
" transform="scale(0.015625)"/>
        <path id="DejaVuSans-30" d="M 2034 4250 
Q 1547 4250 1301 3770 
Q 1056 3291 1056 2328 
Q 1056 1369 1301 889 
Q 1547 409 2034 409 
Q 2525 409 2770 889 
Q 3016 1369 3016 2328 
Q 3016 3291 2770 3770 
Q 2525 4250 2034 4250 
z
M 2034 4750 
Q 2819 4750 3233 4129 
Q 3647 3509 3647 2328 
Q 3647 1150 3233 529 
Q 2819 -91 2034 -91 
Q 1250 -91 836 529 
Q 422 1150 422 2328 
Q 422 3509 836 4129 
Q 1250 4750 2034 4750 
z
" transform="scale(0.015625)"/>
       </defs>
       <use xlink:href="#DejaVuSans-31"/>
       <use xlink:href="#DejaVuSans-30" transform="translate(63.623047 0)"/>
      </g>
     </g>
    </g>
    <g id="xtick_4">
     <g id="line2d_7">
      <path d="M 349.453154 278.158281 
L 349.453154 21.558281 
" clip-path="url(#pbf9c9c7069)" style="fill: none; stroke-dasharray: 1.48,0.64; stroke-dashoffset: 0; stroke: #b0b0b0; stroke-opacity: 0.5; stroke-width: 0.4"/>
     </g>
     <g id="line2d_8">
      <g>
       <use xlink:href="#mdf5b5b5891" x="349.453154" y="278.158281" style="stroke: #000000; stroke-width: 0.8"/>
      </g>
     </g>
     <g id="text_4">
      <!-- 11 -->
      <g transform="translate(343.090654 292.756719) scale(0.1 -0.1)">
       <use xlink:href="#DejaVuSans-31"/>
       <use xlink:href="#DejaVuSans-31" transform="translate(63.623047 0)"/>
      </g>
     </g>
    </g>
    <g id="text_5">
     <!-- log10(parameters) -->
     <g transform="translate(186.845469 306.434844) scale(0.1 -0.1)">
      <defs>
       <path id="DejaVuSans-6c" d="M 603 4863 
L 1178 4863 
L 1178 0 
L 603 0 
L 603 4863 
z
" transform="scale(0.015625)"/>
       <path id="DejaVuSans-6f" d="M 1959 3097 
Q 1497 3097 1228 2736 
Q 959 2375 959 1747 
Q 959 1119 1226 758 
Q 1494 397 1959 397 
Q 2419 397 2687 759 
Q 2956 1122 2956 1747 
Q 2956 2369 2687 2733 
Q 2419 3097 1959 3097 
z
M 1959 3584 
Q 2709 3584 3137 3096 
Q 3566 2609 3566 1747 
Q 3566 888 3137 398 
Q 2709 -91 1959 -91 
Q 1206 -91 779 398 
Q 353 888 353 1747 
Q 353 2609 779 3096 
Q 1206 3584 1959 3584 
z
" transform="scale(0.015625)"/>
       <path id="DejaVuSans-67" d="M 2906 1791 
Q 2906 2416 2648 2759 
Q 2391 3103 1925 3103 
Q 1463 3103 1205 2759 
Q 947 2416 947 1791 
Q 947 1169 1205 825 
Q 1463 481 1925 481 
Q 2391 481 2648 825 
Q 2906 1169 2906 1791 
z
M 3481 434 
Q 3481 -459 3084 -895 
Q 2688 -1331 1869 -1331 
Q 1566 -1331 1297 -1286 
Q 1028 -1241 775 -1147 
L 775 -588 
Q 1028 -725 1275 -790 
Q 1522 -856 1778 -856 
Q 2344 -856 2625 -561 
Q 2906 -266 2906 331 
L 2906 616 
Q 2728 306 2450 153 
Q 2172 0 1784 0 
Q 1141 0 747 490 
Q 353 981 353 1791 
Q 353 2603 747 3093 
Q 1141 3584 1784 3584 
Q 2172 3584 2450 3431 
Q 2728 3278 2906 2969 
L 2906 3500 
L 3481 3500 
L 3481 434 
z
" transform="scale(0.015625)"/>
       <path id="DejaVuSans-28" d="M 1984 4856 
Q 1566 4138 1362 3434 
Q 1159 2731 1159 2009 
Q 1159 1288 1364 580 
Q 1569 -128 1984 -844 
L 1484 -844 
Q 1016 -109 783 600 
Q 550 1309 550 2009 
Q 550 2706 781 3412 
Q 1013 4119 1484 4856 
L 1984 4856 
z
" transform="scale(0.015625)"/>
       <path id="DejaVuSans-70" d="M 1159 525 
L 1159 -1331 
L 581 -1331 
L 581 3500 
L 1159 3500 
L 1159 2969 
Q 1341 3281 1617 3432 
Q 1894 3584 2278 3584 
Q 2916 3584 3314 3078 
Q 3713 2572 3713 1747 
Q 3713 922 3314 415 
Q 2916 -91 2278 -91 
Q 1894 -91 1617 61 
Q 1341 213 1159 525 
z
M 3116 1747 
Q 3116 2381 2855 2742 
Q 2594 3103 2138 3103 
Q 1681 3103 1420 2742 
Q 1159 2381 1159 1747 
Q 1159 1113 1420 752 
Q 1681 391 2138 391 
Q 2594 391 2855 752 
Q 3116 1113 3116 1747 
z
" transform="scale(0.015625)"/>
       <path id="DejaVuSans-61" d="M 2194 1759 
Q 1497 1759 1228 1600 
Q 959 1441 959 1056 
Q 959 750 1161 570 
Q 1363 391 1709 391 
Q 2188 391 2477 730 
Q 2766 1069 2766 1631 
L 2766 1759 
L 2194 1759 
z
M 3341 1997 
L 3341 0 
L 2766 0 
L 2766 531 
Q 2569 213 2275 61 
Q 1981 -91 1556 -91 
Q 1019 -91 701 211 
Q 384 513 384 1019 
Q 384 1609 779 1909 
Q 1175 2209 1959 2209 
L 2766 2209 
L 2766 2266 
Q 2766 2663 2505 2880 
Q 2244 3097 1772 3097 
Q 1472 3097 1187 3025 
Q 903 2953 641 2809 
L 641 3341 
Q 956 3463 1253 3523 
Q 1550 3584 1831 3584 
Q 2591 3584 2966 3190 
Q 3341 2797 3341 1997 
z
" transform="scale(0.015625)"/>
       <path id="DejaVuSans-72" d="M 2631 2963 
Q 2534 3019 2420 3045 
Q 2306 3072 2169 3072 
Q 1681 3072 1420 2755 
Q 1159 2438 1159 1844 
L 1159 0 
L 581 0 
L 581 3500 
L 1159 3500 
L 1159 2956 
Q 1341 3275 1631 3429 
Q 1922 3584 2338 3584 
Q 2397 3584 2469 3576 
Q 2541 3569 2628 3553 
L 2631 2963 
z
" transform="scale(0.015625)"/>
       <path id="DejaVuSans-6d" d="M 3328 2828 
Q 3544 3216 3844 3400 
Q 4144 3584 4550 3584 
Q 5097 3584 5394 3201 
Q 5691 2819 5691 2113 
L 5691 0 
L 5113 0 
L 5113 2094 
Q 5113 2597 4934 2840 
Q 4756 3084 4391 3084 
Q 3944 3084 3684 2787 
Q 3425 2491 3425 1978 
L 3425 0 
L 2847 0 
L 2847 2094 
Q 2847 2600 2669 2842 
Q 2491 3084 2119 3084 
Q 1678 3084 1418 2786 
Q 1159 2488 1159 1978 
L 1159 0 
L 581 0 
L 581 3500 
L 1159 3500 
L 1159 2956 
Q 1356 3278 1631 3431 
Q 1906 3584 2284 3584 
Q 2666 3584 2933 3390 
Q 3200 3197 3328 2828 
z
" transform="scale(0.015625)"/>
       <path id="DejaVuSans-65" d="M 3597 1894 
L 3597 1613 
L 953 1613 
Q 991 1019 1311 708 
Q 1631 397 2203 397 
Q 2534 397 2845 478 
Q 3156 559 3463 722 
L 3463 178 
Q 3153 47 2828 -22 
Q 2503 -91 2169 -91 
Q 1331 -91 842 396 
Q 353 884 353 1716 
Q 353 2575 817 3079 
Q 1281 3584 2069 3584 
Q 2775 3584 3186 3129 
Q 3597 2675 3597 1894 
z
M 3022 2063 
Q 3016 2534 2758 2815 
Q 2500 3097 2075 3097 
Q 1594 3097 1305 2825 
Q 1016 2553 972 2059 
L 3022 2063 
z
" transform="scale(0.015625)"/>
       <path id="DejaVuSans-74" d="M 1172 4494 
L 1172 3500 
L 2356 3500 
L 2356 3053 
L 1172 3053 
L 1172 1153 
Q 1172 725 1289 603 
Q 1406 481 1766 481 
L 2356 481 
L 2356 0 
L 1766 0 
Q 1100 0 847 248 
Q 594 497 594 1153 
L 594 3053 
L 172 3053 
L 172 3500 
L 594 3500 
L 594 4494 
L 1172 4494 
z
" transform="scale(0.015625)"/>
       <path id="DejaVuSans-73" d="M 2834 3397 
L 2834 2853 
Q 2591 2978 2328 3040 
Q 2066 3103 1784 3103 
Q 1356 3103 1142 2972 
Q 928 2841 928 2578 
Q 928 2378 1081 2264 
Q 1234 2150 1697 2047 
L 1894 2003 
Q 2506 1872 2764 1633 
Q 3022 1394 3022 966 
Q 3022 478 2636 193 
Q 2250 -91 1575 -91 
Q 1294 -91 989 -36 
Q 684 19 347 128 
L 347 722 
Q 666 556 975 473 
Q 1284 391 1588 391 
Q 1994 391 2212 530 
Q 2431 669 2431 922 
Q 2431 1156 2273 1281 
Q 2116 1406 1581 1522 
L 1381 1569 
Q 847 1681 609 1914 
Q 372 2147 372 2553 
Q 372 3047 722 3315 
Q 1072 3584 1716 3584 
Q 2034 3584 2315 3537 
Q 2597 3491 2834 3397 
z
" transform="scale(0.015625)"/>
       <path id="DejaVuSans-29" d="M 513 4856 
L 1013 4856 
Q 1481 4119 1714 3412 
Q 1947 2706 1947 2009 
Q 1947 1309 1714 600 
Q 1481 -109 1013 -844 
L 513 -844 
Q 928 -128 1133 580 
Q 1338 1288 1338 2009 
Q 1338 2731 1133 3434 
Q 928 4138 513 4856 
z
" transform="scale(0.015625)"/>
      </defs>
      <use xlink:href="#DejaVuSans-6c"/>
      <use xlink:href="#DejaVuSans-6f" transform="translate(27.783203 0)"/>
      <use xlink:href="#DejaVuSans-67" transform="translate(88.964844 0)"/>
      <use xlink:href="#DejaVuSans-31" transform="translate(152.441406 0)"/>
      <use xlink:href="#DejaVuSans-30" transform="translate(216.064453 0)"/>
      <use xlink:href="#DejaVuSans-28" transform="translate(279.6875 0)"/>
      <use xlink:href="#DejaVuSans-70" transform="translate(318.701172 0)"/>
      <use xlink:href="#DejaVuSans-61" transform="translate(382.177734 0)"/>
      <use xlink:href="#DejaVuSans-72" transform="translate(443.457031 0)"/>
      <use xlink:href="#DejaVuSans-61" transform="translate(484.570312 0)"/>
      <use xlink:href="#DejaVuSans-6d" transform="translate(545.849609 0)"/>
      <use xlink:href="#DejaVuSans-65" transform="translate(643.261719 0)"/>
      <use xlink:href="#DejaVuSans-74" transform="translate(704.785156 0)"/>
      <use xlink:href="#DejaVuSans-65" transform="translate(743.994141 0)"/>
      <use xlink:href="#DejaVuSans-72" transform="translate(805.517578 0)"/>
      <use xlink:href="#DejaVuSans-73" transform="translate(846.630859 0)"/>
      <use xlink:href="#DejaVuSans-29" transform="translate(898.730469 0)"/>
     </g>
    </g>
   </g>
   <g id="matplotlib.axis_2">
    <g id="ytick_1">
     <g id="line2d_9">
      <path d="M 50.14375 246.311483 
L 417.32375 246.311483 
" clip-path="url(#pbf9c9c7069)" style="fill: none; stroke-dasharray: 1.48,0.64; stroke-dashoffset: 0; stroke: #b0b0b0; stroke-opacity: 0.5; stroke-width: 0.4"/>
     </g>
     <g id="line2d_10">
      <defs>
       <path id="m33d71a9b65" d="M 0 0 
L -3.5 0 
" style="stroke: #000000; stroke-width: 0.8"/>
      </defs>
      <g>
       <use xlink:href="#m33d71a9b65" x="50.14375" y="246.311483" style="stroke: #000000; stroke-width: 0.8"/>
      </g>
     </g>
     <g id="text_6">
      <!-- 0.10 -->
      <g transform="translate(20.878125 250.110702) scale(0.1 -0.1)">
       <defs>
        <path id="DejaVuSans-2e" d="M 684 794 
L 1344 794 
L 1344 0 
L 684 0 
L 684 794 
z
" transform="scale(0.015625)"/>
       </defs>
       <use xlink:href="#DejaVuSans-30"/>
       <use xlink:href="#DejaVuSans-2e" transform="translate(63.623047 0)"/>
       <use xlink:href="#DejaVuSans-31" transform="translate(95.410156 0)"/>
       <use xlink:href="#DejaVuSans-30" transform="translate(159.033203 0)"/>
      </g>
     </g>
    </g>
    <g id="ytick_2">
     <g id="line2d_11">
      <path d="M 50.14375 195.60002 
L 417.32375 195.60002 
" clip-path="url(#pbf9c9c7069)" style="fill: none; stroke-dasharray: 1.48,0.64; stroke-dashoffset: 0; stroke: #b0b0b0; stroke-opacity: 0.5; stroke-width: 0.4"/>
     </g>
     <g id="line2d_12">
      <g>
       <use xlink:href="#m33d71a9b65" x="50.14375" y="195.60002" style="stroke: #000000; stroke-width: 0.8"/>
      </g>
     </g>
     <g id="text_7">
      <!-- 0.15 -->
      <g transform="translate(20.878125 199.399239) scale(0.1 -0.1)">
       <defs>
        <path id="DejaVuSans-35" d="M 691 4666 
L 3169 4666 
L 3169 4134 
L 1269 4134 
L 1269 2991 
Q 1406 3038 1543 3061 
Q 1681 3084 1819 3084 
Q 2600 3084 3056 2656 
Q 3513 2228 3513 1497 
Q 3513 744 3044 326 
Q 2575 -91 1722 -91 
Q 1428 -91 1123 -41 
Q 819 9 494 109 
L 494 744 
Q 775 591 1075 516 
Q 1375 441 1709 441 
Q 2250 441 2565 725 
Q 2881 1009 2881 1497 
Q 2881 1984 2565 2268 
Q 2250 2553 1709 2553 
Q 1456 2553 1204 2497 
Q 953 2441 691 2322 
L 691 4666 
z
" transform="scale(0.015625)"/>
       </defs>
       <use xlink:href="#DejaVuSans-30"/>
       <use xlink:href="#DejaVuSans-2e" transform="translate(63.623047 0)"/>
       <use xlink:href="#DejaVuSans-31" transform="translate(95.410156 0)"/>
       <use xlink:href="#DejaVuSans-35" transform="translate(159.033203 0)"/>
      </g>
     </g>
    </g>
    <g id="ytick_3">
     <g id="line2d_13">
      <path d="M 50.14375 144.888558 
L 417.32375 144.888558 
" clip-path="url(#pbf9c9c7069)" style="fill: none; stroke-dasharray: 1.48,0.64; stroke-dashoffset: 0; stroke: #b0b0b0; stroke-opacity: 0.5; stroke-width: 0.4"/>
     </g>
     <g id="line2d_14">
      <g>
       <use xlink:href="#m33d71a9b65" x="50.14375" y="144.888558" style="stroke: #000000; stroke-width: 0.8"/>
      </g>
     </g>
     <g id="text_8">
      <!-- 0.20 -->
      <g transform="translate(20.878125 148.687777) scale(0.1 -0.1)">
       <defs>
        <path id="DejaVuSans-32" d="M 1228 531 
L 3431 531 
L 3431 0 
L 469 0 
L 469 531 
Q 828 903 1448 1529 
Q 2069 2156 2228 2338 
Q 2531 2678 2651 2914 
Q 2772 3150 2772 3378 
Q 2772 3750 2511 3984 
Q 2250 4219 1831 4219 
Q 1534 4219 1204 4116 
Q 875 4013 500 3803 
L 500 4441 
Q 881 4594 1212 4672 
Q 1544 4750 1819 4750 
Q 2544 4750 2975 4387 
Q 3406 4025 3406 3419 
Q 3406 3131 3298 2873 
Q 3191 2616 2906 2266 
Q 2828 2175 2409 1742 
Q 1991 1309 1228 531 
z
" transform="scale(0.015625)"/>
       </defs>
       <use xlink:href="#DejaVuSans-30"/>
       <use xlink:href="#DejaVuSans-2e" transform="translate(63.623047 0)"/>
       <use xlink:href="#DejaVuSans-32" transform="translate(95.410156 0)"/>
       <use xlink:href="#DejaVuSans-30" transform="translate(159.033203 0)"/>
      </g>
     </g>
    </g>
    <g id="ytick_4">
     <g id="line2d_15">
      <path d="M 50.14375 94.177095 
L 417.32375 94.177095 
" clip-path="url(#pbf9c9c7069)" style="fill: none; stroke-dasharray: 1.48,0.64; stroke-dashoffset: 0; stroke: #b0b0b0; stroke-opacity: 0.5; stroke-width: 0.4"/>
     </g>
     <g id="line2d_16">
      <g>
       <use xlink:href="#m33d71a9b65" x="50.14375" y="94.177095" style="stroke: #000000; stroke-width: 0.8"/>
      </g>
     </g>
     <g id="text_9">
      <!-- 0.25 -->
      <g transform="translate(20.878125 97.976314) scale(0.1 -0.1)">
       <use xlink:href="#DejaVuSans-30"/>
       <use xlink:href="#DejaVuSans-2e" transform="translate(63.623047 0)"/>
       <use xlink:href="#DejaVuSans-32" transform="translate(95.410156 0)"/>
       <use xlink:href="#DejaVuSans-35" transform="translate(159.033203 0)"/>
      </g>
     </g>
    </g>
    <g id="ytick_5">
     <g id="line2d_17">
      <path d="M 50.14375 43.465633 
L 417.32375 43.465633 
" clip-path="url(#pbf9c9c7069)" style="fill: none; stroke-dasharray: 1.48,0.64; stroke-dashoffset: 0; stroke: #b0b0b0; stroke-opacity: 0.5; stroke-width: 0.4"/>
     </g>
     <g id="line2d_18">
      <g>
       <use xlink:href="#m33d71a9b65" x="50.14375" y="43.465633" style="stroke: #000000; stroke-width: 0.8"/>
      </g>
     </g>
     <g id="text_10">
      <!-- 0.30 -->
      <g transform="translate(20.878125 47.264852) scale(0.1 -0.1)">
       <defs>
        <path id="DejaVuSans-33" d="M 2597 2516 
Q 3050 2419 3304 2112 
Q 3559 1806 3559 1356 
Q 3559 666 3084 287 
Q 2609 -91 1734 -91 
Q 1441 -91 1130 -33 
Q 819 25 488 141 
L 488 750 
Q 750 597 1062 519 
Q 1375 441 1716 441 
Q 2309 441 2620 675 
Q 2931 909 2931 1356 
Q 2931 1769 2642 2001 
Q 2353 2234 1838 2234 
L 1294 2234 
L 1294 2753 
L 1863 2753 
Q 2328 2753 2575 2939 
Q 2822 3125 2822 3475 
Q 2822 3834 2567 4026 
Q 2313 4219 1838 4219 
Q 1578 4219 1281 4162 
Q 984 4106 628 3988 
L 628 4550 
Q 988 4650 1302 4700 
Q 1616 4750 1894 4750 
Q 2613 4750 3031 4423 
Q 3450 4097 3450 3541 
Q 3450 3153 3228 2886 
Q 3006 2619 2597 2516 
z
" transform="scale(0.015625)"/>
       </defs>
       <use xlink:href="#DejaVuSans-30"/>
       <use xlink:href="#DejaVuSans-2e" transform="translate(63.623047 0)"/>
       <use xlink:href="#DejaVuSans-33" transform="translate(95.410156 0)"/>
       <use xlink:href="#DejaVuSans-30" transform="translate(159.033203 0)"/>
      </g>
     </g>
    </g>
    <g id="text_11">
     <!-- log10(validation loss) -->
     <g transform="translate(14.798438 203.609062) rotate(-90) scale(0.1 -0.1)">
      <defs>
       <path id="DejaVuSans-76" d="M 191 3500 
L 800 3500 
L 1894 563 
L 2988 3500 
L 3597 3500 
L 2284 0 
L 1503 0 
L 191 3500 
z
" transform="scale(0.015625)"/>
       <path id="DejaVuSans-69" d="M 603 3500 
L 1178 3500 
L 1178 0 
L 603 0 
L 603 3500 
z
M 603 4863 
L 1178 4863 
L 1178 4134 
L 603 4134 
L 603 4863 
z
" transform="scale(0.015625)"/>
       <path id="DejaVuSans-64" d="M 2906 2969 
L 2906 4863 
L 3481 4863 
L 3481 0 
L 2906 0 
L 2906 525 
Q 2725 213 2448 61 
Q 2172 -91 1784 -91 
Q 1150 -91 751 415 
Q 353 922 353 1747 
Q 353 2572 751 3078 
Q 1150 3584 1784 3584 
Q 2172 3584 2448 3432 
Q 2725 3281 2906 2969 
z
M 947 1747 
Q 947 1113 1208 752 
Q 1469 391 1925 391 
Q 2381 391 2643 752 
Q 2906 1113 2906 1747 
Q 2906 2381 2643 2742 
Q 2381 3103 1925 3103 
Q 1469 3103 1208 2742 
Q 947 2381 947 1747 
z
" transform="scale(0.015625)"/>
       <path id="DejaVuSans-6e" d="M 3513 2113 
L 3513 0 
L 2938 0 
L 2938 2094 
Q 2938 2591 2744 2837 
Q 2550 3084 2163 3084 
Q 1697 3084 1428 2787 
Q 1159 2491 1159 1978 
L 1159 0 
L 581 0 
L 581 3500 
L 1159 3500 
L 1159 2956 
Q 1366 3272 1645 3428 
Q 1925 3584 2291 3584 
Q 2894 3584 3203 3211 
Q 3513 2838 3513 2113 
z
" transform="scale(0.015625)"/>
       <path id="DejaVuSans-20" transform="scale(0.015625)"/>
      </defs>
      <use xlink:href="#DejaVuSans-6c"/>
      <use xlink:href="#DejaVuSans-6f" transform="translate(27.783203 0)"/>
      <use xlink:href="#DejaVuSans-67" transform="translate(88.964844 0)"/>
      <use xlink:href="#DejaVuSans-31" transform="translate(152.441406 0)"/>
      <use xlink:href="#DejaVuSans-30" transform="translate(216.064453 0)"/>
      <use xlink:href="#DejaVuSans-28" transform="translate(279.6875 0)"/>
      <use xlink:href="#DejaVuSans-76" transform="translate(318.701172 0)"/>
      <use xlink:href="#DejaVuSans-61" transform="translate(377.880859 0)"/>
      <use xlink:href="#DejaVuSans-6c" transform="translate(439.160156 0)"/>
      <use xlink:href="#DejaVuSans-69" transform="translate(466.943359 0)"/>
      <use xlink:href="#DejaVuSans-64" transform="translate(494.726562 0)"/>
      <use xlink:href="#DejaVuSans-61" transform="translate(558.203125 0)"/>
      <use xlink:href="#DejaVuSans-74" transform="translate(619.482422 0)"/>
      <use xlink:href="#DejaVuSans-69" transform="translate(658.691406 0)"/>
      <use xlink:href="#DejaVuSans-6f" transform="translate(686.474609 0)"/>
      <use xlink:href="#DejaVuSans-6e" transform="translate(747.65625 0)"/>
      <use xlink:href="#DejaVuSans-20" transform="translate(811.035156 0)"/>
      <use xlink:href="#DejaVuSans-6c" transform="translate(842.822266 0)"/>
      <use xlink:href="#DejaVuSans-6f" transform="translate(870.605469 0)"/>
      <use xlink:href="#DejaVuSans-73" transform="translate(931.787109 0)"/>
      <use xlink:href="#DejaVuSans-73" transform="translate(983.886719 0)"/>
      <use xlink:href="#DejaVuSans-29" transform="translate(1035.986328 0)"/>
     </g>
    </g>
   </g>
   <g id="PathCollection_1">
    <defs>
     <path id="C0_0_ea0acd3132" d="M 0 2.345208 
C 0.621956 2.345208 1.218523 2.098102 1.658312 1.658312 
C 2.098102 1.218523 2.345208 0.621956 2.345208 -0 
C 2.345208 -0.621956 2.098102 -1.218523 1.658312 -1.658312 
C 1.218523 -2.098102 0.621956 -2.345208 0 -2.345208 
C -0.621956 -2.345208 -1.218523 -2.098102 -1.658312 -1.658312 
C -2.098102 -1.218523 -2.345208 -0.621956 -2.345208 0 
C -2.345208 0.621956 -2.098102 1.218523 -1.658312 1.658312 
C -1.218523 2.098102 -0.621956 2.345208 0 2.345208 
z
"/>
    </defs>
    <g clip-path="url(#pbf9c9c7069)">
     <use xlink:href="#C0_0_ea0acd3132" x="125.625421" y="80.890692" style="fill: #4878cf; fill-opacity: 0.6"/>
    </g>
    <g clip-path="url(#pbf9c9c7069)">
     <use xlink:href="#C0_0_ea0acd3132" x="300.058831" y="170.548558" style="fill: #4878cf; fill-opacity: 0.6"/>
    </g>
    <g clip-path="url(#pbf9c9c7069)">
     <use xlink:href="#C0_0_ea0acd3132" x="282.739753" y="172.982708" style="fill: #4878cf; fill-opacity: 0.6"/>
    </g>
    <g clip-path="url(#pbf9c9c7069)">
     <use xlink:href="#C0_0_ea0acd3132" x="122.052875" y="91.134408" style="fill: #4878cf; fill-opacity: 0.6"/>
    </g>
    <g clip-path="url(#pbf9c9c7069)">
     <use xlink:href="#C0_0_ea0acd3132" x="351.860739" y="213.349032" style="fill: #4878cf; fill-opacity: 0.6"/>
    </g>
    <g clip-path="url(#pbf9c9c7069)">
     <use xlink:href="#C0_0_ea0acd3132" x="378.188845" y="257.468005" style="fill: #4878cf; fill-opacity: 0.6"/>
    </g>
    <g clip-path="url(#pbf9c9c7069)">
     <use xlink:href="#C0_0_ea0acd3132" x="145.818068" y="139.715989" style="fill: #4878cf; fill-opacity: 0.6"/>
    </g>
    <g clip-path="url(#pbf9c9c7069)">
     <use xlink:href="#C0_0_ea0acd3132" x="373.529004" y="233.937886" style="fill: #4878cf; fill-opacity: 0.6"/>
    </g>
    <g clip-path="url(#pbf9c9c7069)">
     <use xlink:href="#C0_0_ea0acd3132" x="201.34785" y="152.799546" style="fill: #4878cf; fill-opacity: 0.6"/>
    </g>
    <g clip-path="url(#pbf9c9c7069)">
     <use xlink:href="#C0_0_ea0acd3132" x="228.996244" y="135.151957" style="fill: #4878cf; fill-opacity: 0.6"/>
    </g>
    <g clip-path="url(#pbf9c9c7069)">
     <use xlink:href="#C0_0_ea0acd3132" x="385.100944" y="263.857649" style="fill: #4878cf; fill-opacity: 0.6"/>
    </g>
    <g clip-path="url(#pbf9c9c7069)">
     <use xlink:href="#C0_0_ea0acd3132" x="336.250269" y="266.494645" style="fill: #4878cf; fill-opacity: 0.6"/>
    </g>
    <g clip-path="url(#pbf9c9c7069)">
     <use xlink:href="#C0_0_ea0acd3132" x="127.800013" y="111.824684" style="fill: #4878cf; fill-opacity: 0.6"/>
    </g>
    <g clip-path="url(#pbf9c9c7069)">
     <use xlink:href="#C0_0_ea0acd3132" x="211.677166" y="107.970613" style="fill: #4878cf; fill-opacity: 0.6"/>
    </g>
    <g clip-path="url(#pbf9c9c7069)">
     <use xlink:href="#C0_0_ea0acd3132" x="237.77228" y="163.043261" style="fill: #4878cf; fill-opacity: 0.6"/>
    </g>
    <g clip-path="url(#pbf9c9c7069)">
     <use xlink:href="#C0_0_ea0acd3132" x="182.941475" y="150.87251" style="fill: #4878cf; fill-opacity: 0.6"/>
    </g>
    <g clip-path="url(#pbf9c9c7069)">
     <use xlink:href="#C0_0_ea0acd3132" x="138.439985" y="112.433222" style="fill: #4878cf; fill-opacity: 0.6"/>
    </g>
    <g clip-path="url(#pbf9c9c7069)">
     <use xlink:href="#C0_0_ea0acd3132" x="176.573024" y="108.781997" style="fill: #4878cf; fill-opacity: 0.6"/>
    </g>
    <g clip-path="url(#pbf9c9c7069)">
     <use xlink:href="#C0_0_ea0acd3132" x="302.000432" y="183.023578" style="fill: #4878cf; fill-opacity: 0.6"/>
    </g>
    <g clip-path="url(#pbf9c9c7069)">
     <use xlink:href="#C0_0_ea0acd3132" x="83.686844" y="61.214645" style="fill: #4878cf; fill-opacity: 0.6"/>
    </g>
    <g clip-path="url(#pbf9c9c7069)">
     <use xlink:href="#C0_0_ea0acd3132" x="249.73254" y="132.210692" style="fill: #4878cf; fill-opacity: 0.6"/>
    </g>
    <g clip-path="url(#pbf9c9c7069)">
     <use xlink:href="#C0_0_ea0acd3132" x="214.473071" y="127.342392" style="fill: #4878cf; fill-opacity: 0.6"/>
    </g>
    <g clip-path="url(#pbf9c9c7069)">
     <use xlink:href="#C0_0_ea0acd3132" x="83.22086" y="64.967293" style="fill: #4878cf; fill-opacity: 0.6"/>
    </g>
    <g clip-path="url(#pbf9c9c7069)">
     <use xlink:href="#C0_0_ea0acd3132" x="180.611554" y="109.59338" style="fill: #4878cf; fill-opacity: 0.6"/>
    </g>
    <g clip-path="url(#pbf9c9c7069)">
     <use xlink:href="#C0_0_ea0acd3132" x="271.478468" y="141.541601" style="fill: #4878cf; fill-opacity: 0.6"/>
    </g>
    <g clip-path="url(#pbf9c9c7069)">
     <use xlink:href="#C0_0_ea0acd3132" x="236.762647" y="135.050534" style="fill: #4878cf; fill-opacity: 0.6"/>
    </g>
    <g clip-path="url(#pbf9c9c7069)">
     <use xlink:href="#C0_0_ea0acd3132" x="97.588706" y="52.188005" style="fill: #4878cf; fill-opacity: 0.6"/>
    </g>
    <g clip-path="url(#pbf9c9c7069)">
     <use xlink:href="#C0_0_ea0acd3132" x="383.625327" y="263.046265" style="fill: #4878cf; fill-opacity: 0.6"/>
    </g>
    <g clip-path="url(#pbf9c9c7069)">
     <use xlink:href="#C0_0_ea0acd3132" x="322.503736" y="208.176463" style="fill: #4878cf; fill-opacity: 0.6"/>
    </g>
    <g clip-path="url(#pbf9c9c7069)">
     <use xlink:href="#C0_0_ea0acd3132" x="379.509134" y="223.795594" style="fill: #4878cf; fill-opacity: 0.6"/>
    </g>
    <g clip-path="url(#pbf9c9c7069)">
     <use xlink:href="#C0_0_ea0acd3132" x="110.170279" y="86.36753" style="fill: #4878cf; fill-opacity: 0.6"/>
    </g>
    <g clip-path="url(#pbf9c9c7069)">
     <use xlink:href="#C0_0_ea0acd3132" x="160.10825" y="87.990297" style="fill: #4878cf; fill-opacity: 0.6"/>
    </g>
    <g clip-path="url(#pbf9c9c7069)">
     <use xlink:href="#C0_0_ea0acd3132" x="89.899967" y="56.346344" style="fill: #4878cf; fill-opacity: 0.6"/>
    </g>
    <g clip-path="url(#pbf9c9c7069)">
     <use xlink:href="#C0_0_ea0acd3132" x="319.630167" y="185.052036" style="fill: #4878cf; fill-opacity: 0.6"/>
    </g>
    <g clip-path="url(#pbf9c9c7069)">
     <use xlink:href="#C0_0_ea0acd3132" x="161.66153" y="114.867372" style="fill: #4878cf; fill-opacity: 0.6"/>
    </g>
    <g clip-path="url(#pbf9c9c7069)">
     <use xlink:href="#C0_0_ea0acd3132" x="117.859018" y="33.221918" style="fill: #4878cf; fill-opacity: 0.6"/>
    </g>
    <g clip-path="url(#pbf9c9c7069)">
     <use xlink:href="#C0_0_ea0acd3132" x="208.803596" y="113.143182" style="fill: #4878cf; fill-opacity: 0.6"/>
    </g>
    <g clip-path="url(#pbf9c9c7069)">
     <use xlink:href="#C0_0_ea0acd3132" x="360.792103" y="232.01085" style="fill: #4878cf; fill-opacity: 0.6"/>
    </g>
    <g clip-path="url(#pbf9c9c7069)">
     <use xlink:href="#C0_0_ea0acd3132" x="332.056412" y="208.886424" style="fill: #4878cf; fill-opacity: 0.6"/>
    </g>
    <g clip-path="url(#pbf9c9c7069)">
     <use xlink:href="#C0_0_ea0acd3132" x="157.933657" y="55.737807" style="fill: #4878cf; fill-opacity: 0.6"/>
    </g>
    <g clip-path="url(#pbf9c9c7069)">
     <use xlink:href="#C0_0_ea0acd3132" x="123.994476" y="95.394171" style="fill: #4878cf; fill-opacity: 0.6"/>
    </g>
    <g clip-path="url(#pbf9c9c7069)">
     <use xlink:href="#C0_0_ea0acd3132" x="363.199688" y="211.320574" style="fill: #4878cf; fill-opacity: 0.6"/>
    </g>
    <g clip-path="url(#pbf9c9c7069)">
     <use xlink:href="#C0_0_ea0acd3132" x="254.858366" y="145.497095" style="fill: #4878cf; fill-opacity: 0.6"/>
    </g>
    <g clip-path="url(#pbf9c9c7069)">
     <use xlink:href="#C0_0_ea0acd3132" x="295.243662" y="189.00753" style="fill: #4878cf; fill-opacity: 0.6"/>
    </g>
    <g clip-path="url(#pbf9c9c7069)">
     <use xlink:href="#C0_0_ea0acd3132" x="105.432773" y="101.2767" style="fill: #4878cf; fill-opacity: 0.6"/>
    </g>
    <g clip-path="url(#pbf9c9c7069)">
     <use xlink:href="#C0_0_ea0acd3132" x="95.491777" y="67.908558" style="fill: #4878cf; fill-opacity: 0.6"/>
    </g>
    <g clip-path="url(#pbf9c9c7069)">
     <use xlink:href="#C0_0_ea0acd3132" x="291.438124" y="179.575198" style="fill: #4878cf; fill-opacity: 0.6"/>
    </g>
    <g clip-path="url(#pbf9c9c7069)">
     <use xlink:href="#C0_0_ea0acd3132" x="209.735565" y="115.983024" style="fill: #4878cf; fill-opacity: 0.6"/>
    </g>
    <g clip-path="url(#pbf9c9c7069)">
     <use xlink:href="#C0_0_ea0acd3132" x="100.151619" y="58.577649" style="fill: #4878cf; fill-opacity: 0.6"/>
    </g>
    <g clip-path="url(#pbf9c9c7069)">
     <use xlink:href="#C0_0_ea0acd3132" x="369.102154" y="232.01085" style="fill: #4878cf; fill-opacity: 0.6"/>
    </g>
    <g clip-path="url(#pbf9c9c7069)">
     <use xlink:href="#C0_0_ea0acd3132" x="274.740358" y="159.696305" style="fill: #4878cf; fill-opacity: 0.6"/>
    </g>
    <g clip-path="url(#pbf9c9c7069)">
     <use xlink:href="#C0_0_ea0acd3132" x="326.697594" y="196.61425" style="fill: #4878cf; fill-opacity: 0.6"/>
    </g>
    <g clip-path="url(#pbf9c9c7069)">
     <use xlink:href="#C0_0_ea0acd3132" x="103.6465" y="72.371167" style="fill: #4878cf; fill-opacity: 0.6"/>
    </g>
    <g clip-path="url(#pbf9c9c7069)">
     <use xlink:href="#C0_0_ea0acd3132" x="343.628352" y="216.39172" style="fill: #4878cf; fill-opacity: 0.6"/>
    </g>
    <g clip-path="url(#pbf9c9c7069)">
     <use xlink:href="#C0_0_ea0acd3132" x="98.287682" y="78.253696" style="fill: #4878cf; fill-opacity: 0.6"/>
    </g>
    <g clip-path="url(#pbf9c9c7069)">
     <use xlink:href="#C0_0_ea0acd3132" x="345.647617" y="204.829507" style="fill: #4878cf; fill-opacity: 0.6"/>
    </g>
    <g clip-path="url(#pbf9c9c7069)">
     <use xlink:href="#C0_0_ea0acd3132" x="218.589264" y="165.477412" style="fill: #4878cf; fill-opacity: 0.6"/>
    </g>
    <g clip-path="url(#pbf9c9c7069)">
     <use xlink:href="#C0_0_ea0acd3132" x="183.019139" y="135.861918" style="fill: #4878cf; fill-opacity: 0.6"/>
    </g>
    <g clip-path="url(#pbf9c9c7069)">
     <use xlink:href="#C0_0_ea0acd3132" x="249.421884" y="162.029032" style="fill: #4878cf; fill-opacity: 0.6"/>
    </g>
    <g clip-path="url(#pbf9c9c7069)">
     <use xlink:href="#C0_0_ea0acd3132" x="365.529609" y="260.105001" style="fill: #4878cf; fill-opacity: 0.6"/>
    </g>
    <g clip-path="url(#pbf9c9c7069)">
     <use xlink:href="#C0_0_ea0acd3132" x="160.807226" y="118.924289" style="fill: #4878cf; fill-opacity: 0.6"/>
    </g>
    <g clip-path="url(#pbf9c9c7069)">
     <use xlink:href="#C0_0_ea0acd3132" x="117.781354" y="125.516779" style="fill: #4878cf; fill-opacity: 0.6"/>
    </g>
    <g clip-path="url(#pbf9c9c7069)">
     <use xlink:href="#C0_0_ea0acd3132" x="241.344825" y="171.258518" style="fill: #4878cf; fill-opacity: 0.6"/>
    </g>
    <g clip-path="url(#pbf9c9c7069)">
     <use xlink:href="#C0_0_ea0acd3132" x="151.720535" y="93.264289" style="fill: #4878cf; fill-opacity: 0.6"/>
    </g>
    <g clip-path="url(#pbf9c9c7069)">
     <use xlink:href="#C0_0_ea0acd3132" x="111.645895" y="69.734171" style="fill: #4878cf; fill-opacity: 0.6"/>
    </g>
    <g clip-path="url(#pbf9c9c7069)">
     <use xlink:href="#C0_0_ea0acd3132" x="127.800013" y="91.844368" style="fill: #4878cf; fill-opacity: 0.6"/>
    </g>
    <g clip-path="url(#pbf9c9c7069)">
     <use xlink:href="#C0_0_ea0acd3132" x="93.317184" y="75.109586" style="fill: #4878cf; fill-opacity: 0.6"/>
    </g>
    <g clip-path="url(#pbf9c9c7069)">
     <use xlink:href="#C0_0_ea0acd3132" x="140.303922" y="126.835277" style="fill: #4878cf; fill-opacity: 0.6"/>
    </g>
    <g clip-path="url(#pbf9c9c7069)">
     <use xlink:href="#C0_0_ea0acd3132" x="174.553759" y="81.093538" style="fill: #4878cf; fill-opacity: 0.6"/>
    </g>
    <g clip-path="url(#pbf9c9c7069)">
     <use xlink:href="#C0_0_ea0acd3132" x="172.379166" y="106.449269" style="fill: #4878cf; fill-opacity: 0.6"/>
    </g>
    <g clip-path="url(#pbf9c9c7069)">
     <use xlink:href="#C0_0_ea0acd3132" x="313.572373" y="177.648163" style="fill: #4878cf; fill-opacity: 0.6"/>
    </g>
    <g clip-path="url(#pbf9c9c7069)">
     <use xlink:href="#C0_0_ea0acd3132" x="167.719325" y="132.007846" style="fill: #4878cf; fill-opacity: 0.6"/>
    </g>
    <g clip-path="url(#pbf9c9c7069)">
     <use xlink:href="#C0_0_ea0acd3132" x="232.95711" y="156.247926" style="fill: #4878cf; fill-opacity: 0.6"/>
    </g>
    <g clip-path="url(#pbf9c9c7069)">
     <use xlink:href="#C0_0_ea0acd3132" x="132.925839" y="130.587926" style="fill: #4878cf; fill-opacity: 0.6"/>
    </g>
    <g clip-path="url(#pbf9c9c7069)">
     <use xlink:href="#C0_0_ea0acd3132" x="185.426723" y="108.781997" style="fill: #4878cf; fill-opacity: 0.6"/>
    </g>
    <g clip-path="url(#pbf9c9c7069)">
     <use xlink:href="#C0_0_ea0acd3132" x="83.298524" y="45.595514" style="fill: #4878cf; fill-opacity: 0.6"/>
    </g>
    <g clip-path="url(#pbf9c9c7069)">
     <use xlink:href="#C0_0_ea0acd3132" x="155.448408" y="145.395673" style="fill: #4878cf; fill-opacity: 0.6"/>
    </g>
    <g clip-path="url(#pbf9c9c7069)">
     <use xlink:href="#C0_0_ea0acd3132" x="82.366556" y="65.068716" style="fill: #4878cf; fill-opacity: 0.6"/>
    </g>
    <g clip-path="url(#pbf9c9c7069)">
     <use xlink:href="#C0_0_ea0acd3132" x="305.339985" y="182.212194" style="fill: #4878cf; fill-opacity: 0.6"/>
    </g>
    <g clip-path="url(#pbf9c9c7069)">
     <use xlink:href="#C0_0_ea0acd3132" x="248.800572" y="197.527056" style="fill: #4878cf; fill-opacity: 0.6"/>
    </g>
   </g>
   <g id="patch_3">
    <path d="M 50.14375 278.158281 
L 50.14375 21.558281 
" style="fill: none; stroke: #000000; stroke-width: 0.8; stroke-linejoin: miter; stroke-linecap: square"/>
   </g>
   <g id="patch_4">
    <path d="M 417.32375 278.158281 
L 417.32375 21.558281 
" style="fill: none; stroke: #000000; stroke-width: 0.8; stroke-linejoin: miter; stroke-linecap: square"/>
   </g>
   <g id="patch_5">
    <path d="M 50.14375 278.158281 
L 417.32375 278.158281 
" style="fill: none; stroke: #000000; stroke-width: 0.8; stroke-linejoin: miter; stroke-linecap: square"/>
   </g>
   <g id="patch_6">
    <path d="M 50.14375 21.558281 
L 417.32375 21.558281 
" style="fill: none; stroke: #000000; stroke-width: 0.8; stroke-linejoin: miter; stroke-linecap: square"/>
   </g>
   <g id="line2d_19">
    <path d="M 66.83375 53.446525 
L 400.63375 249.285768 
L 400.63375 249.285768 
" clip-path="url(#pbf9c9c7069)" style="fill: none; stroke: #d65f5f; stroke-width: 1.8; stroke-linecap: square"/>
   </g>
   <g id="patch_7">
    <path d="M 251.52083 127.39966 
Q 241.203019 130.950746 230.885208 134.501832 
" style="fill: none; stroke: #000000; stroke-width: 0.7; stroke-linecap: round"/>
   </g>
   <g id="text_12">
    <!-- OursModel -->
    <g transform="translate(248.412252 122.981206) scale(0.085 -0.085)">
     <defs>
      <path id="DejaVuSans-4f" d="M 2522 4238 
Q 1834 4238 1429 3725 
Q 1025 3213 1025 2328 
Q 1025 1447 1429 934 
Q 1834 422 2522 422 
Q 3209 422 3611 934 
Q 4013 1447 4013 2328 
Q 4013 3213 3611 3725 
Q 3209 4238 2522 4238 
z
M 2522 4750 
Q 3503 4750 4090 4092 
Q 4678 3434 4678 2328 
Q 4678 1225 4090 567 
Q 3503 -91 2522 -91 
Q 1538 -91 948 565 
Q 359 1222 359 2328 
Q 359 3434 948 4092 
Q 1538 4750 2522 4750 
z
" transform="scale(0.015625)"/>
      <path id="DejaVuSans-75" d="M 544 1381 
L 544 3500 
L 1119 3500 
L 1119 1403 
Q 1119 906 1312 657 
Q 1506 409 1894 409 
Q 2359 409 2629 706 
Q 2900 1003 2900 1516 
L 2900 3500 
L 3475 3500 
L 3475 0 
L 2900 0 
L 2900 538 
Q 2691 219 2414 64 
Q 2138 -91 1772 -91 
Q 1169 -91 856 284 
Q 544 659 544 1381 
z
M 1991 3584 
L 1991 3584 
z
" transform="scale(0.015625)"/>
      <path id="DejaVuSans-4d" d="M 628 4666 
L 1569 4666 
L 2759 1491 
L 3956 4666 
L 4897 4666 
L 4897 0 
L 4281 0 
L 4281 4097 
L 3078 897 
L 2444 897 
L 1241 4097 
L 1241 0 
L 628 0 
L 628 4666 
z
" transform="scale(0.015625)"/>
     </defs>
     <use xlink:href="#DejaVuSans-4f"/>
     <use xlink:href="#DejaVuSans-75" transform="translate(78.710938 0)"/>
     <use xlink:href="#DejaVuSans-72" transform="translate(142.089844 0)"/>
     <use xlink:href="#DejaVuSans-73" transform="translate(183.203125 0)"/>
     <use xlink:href="#DejaVuSans-4d" transform="translate(235.302734 0)"/>
     <use xlink:href="#DejaVuSans-6f" transform="translate(321.582031 0)"/>
     <use xlink:href="#DejaVuSans-64" transform="translate(382.763672 0)"/>
     <use xlink:href="#DejaVuSans-65" transform="translate(446.240234 0)"/>
     <use xlink:href="#DejaVuSans-6c" transform="translate(507.763672 0)"/>
    </g>
   </g>
   <g id="text_13">
    <g id="patch_8">
     <path d="M 330.31835 59.106687 
L 406.30835 59.106687 
Q 408.85835 59.106687 408.85835 56.556687 
L 408.85835 29.273547 
Q 408.85835 26.723547 406.30835 26.723547 
L 330.31835 26.723547 
Q 327.76835 26.723547 327.76835 29.273547 
L 327.76835 56.556687 
Q 327.76835 59.106687 330.31835 59.106687 
z
" style="fill: #ffffff; opacity: 0.85; stroke: #cccccc; stroke-linejoin: miter"/>
    </g>
    <!-- $R^2 = 0.877$ -->
    <g transform="translate(361.34335 35.714953) scale(0.085 -0.085)">
     <defs>
      <path id="DejaVuSans-Oblique-52" d="M 1613 4147 
L 1294 2491 
L 2106 2491 
Q 2584 2491 2879 2755 
Q 3175 3019 3175 3444 
Q 3175 3784 2976 3965 
Q 2778 4147 2406 4147 
L 1613 4147 
z
M 2772 2241 
Q 2972 2194 3105 2009 
Q 3238 1825 3413 1275 
L 3809 0 
L 3144 0 
L 2778 1197 
Q 2638 1659 2453 1815 
Q 2269 1972 1888 1972 
L 1191 1972 
L 806 0 
L 172 0 
L 1081 4666 
L 2503 4666 
Q 3150 4666 3495 4373 
Q 3841 4081 3841 3531 
Q 3841 3044 3547 2687 
Q 3253 2331 2772 2241 
z
" transform="scale(0.015625)"/>
      <path id="DejaVuSans-3d" d="M 678 2906 
L 4684 2906 
L 4684 2381 
L 678 2381 
L 678 2906 
z
M 678 1631 
L 4684 1631 
L 4684 1100 
L 678 1100 
L 678 1631 
z
" transform="scale(0.015625)"/>
      <path id="DejaVuSans-37" d="M 525 4666 
L 3525 4666 
L 3525 4397 
L 1831 0 
L 1172 0 
L 2766 4134 
L 525 4134 
L 525 4666 
z
" transform="scale(0.015625)"/>
     </defs>
     <use xlink:href="#DejaVuSans-Oblique-52" transform="translate(0 0.765625)"/>
     <use xlink:href="#DejaVuSans-32" transform="translate(76.499193 39.046875) scale(0.7)"/>
     <use xlink:href="#DejaVuSans-3d" transform="translate(143.252122 0.765625)"/>
     <use xlink:href="#DejaVuSans-30" transform="translate(246.523607 0.765625)"/>
     <use xlink:href="#DejaVuSans-2e" transform="translate(310.146654 0.765625)"/>
     <use xlink:href="#DejaVuSans-38" transform="translate(339.308763 0.765625)"/>
     <use xlink:href="#DejaVuSans-37" transform="translate(402.93181 0.765625)"/>
     <use xlink:href="#DejaVuSans-37" transform="translate(464.804857 0.765625)"/>
    </g>
    <!-- slope $= -0.0449$ -->
    <g transform="translate(333.63335 45.234687) scale(0.085 -0.085)">
     <defs>
      <path id="DejaVuSans-2212" d="M 678 2272 
L 4684 2272 
L 4684 1741 
L 678 1741 
L 678 2272 
z
" transform="scale(0.015625)"/>
      <path id="DejaVuSans-34" d="M 2419 4116 
L 825 1625 
L 2419 1625 
L 2419 4116 
z
M 2253 4666 
L 3047 4666 
L 3047 1625 
L 3713 1625 
L 3713 1100 
L 3047 1100 
L 3047 0 
L 2419 0 
L 2419 1100 
L 313 1100 
L 313 1709 
L 2253 4666 
z
" transform="scale(0.015625)"/>
     </defs>
     <use xlink:href="#DejaVuSans-73" transform="translate(0 0.015625)"/>
     <use xlink:href="#DejaVuSans-6c" transform="translate(52.099609 0.015625)"/>
     <use xlink:href="#DejaVuSans-6f" transform="translate(79.882812 0.015625)"/>
     <use xlink:href="#DejaVuSans-70" transform="translate(141.064453 0.015625)"/>
     <use xlink:href="#DejaVuSans-65" transform="translate(204.541016 0.015625)"/>
     <use xlink:href="#DejaVuSans-20" transform="translate(266.064453 0.015625)"/>
     <use xlink:href="#DejaVuSans-3d" transform="translate(317.333984 0.015625)"/>
     <use xlink:href="#DejaVuSans-2212" transform="translate(420.605469 0.015625)"/>
     <use xlink:href="#DejaVuSans-30" transform="translate(504.394531 0.015625)"/>
     <use xlink:href="#DejaVuSans-2e" transform="translate(568.017578 0.015625)"/>
     <use xlink:href="#DejaVuSans-30" transform="translate(599.804688 0.015625)"/>
     <use xlink:href="#DejaVuSans-34" transform="translate(663.427734 0.015625)"/>
     <use xlink:href="#DejaVuSans-34" transform="translate(727.050781 0.015625)"/>
     <use xlink:href="#DejaVuSans-39" transform="translate(790.673828 0.015625)"/>
    </g>
    <!-- intercept $= 0.621$ -->
    <g transform="translate(330.31835 54.771687) scale(0.085 -0.085)">
     <defs>
      <path id="DejaVuSans-63" d="M 3122 3366 
L 3122 2828 
Q 2878 2963 2633 3030 
Q 2388 3097 2138 3097 
Q 1578 3097 1268 2742 
Q 959 2388 959 1747 
Q 959 1106 1268 751 
Q 1578 397 2138 397 
Q 2388 397 2633 464 
Q 2878 531 3122 666 
L 3122 134 
Q 2881 22 2623 -34 
Q 2366 -91 2075 -91 
Q 1284 -91 818 406 
Q 353 903 353 1747 
Q 353 2603 823 3093 
Q 1294 3584 2113 3584 
Q 2378 3584 2631 3529 
Q 2884 3475 3122 3366 
z
" transform="scale(0.015625)"/>
      <path id="DejaVuSans-36" d="M 2113 2584 
Q 1688 2584 1439 2293 
Q 1191 2003 1191 1497 
Q 1191 994 1439 701 
Q 1688 409 2113 409 
Q 2538 409 2786 701 
Q 3034 994 3034 1497 
Q 3034 2003 2786 2293 
Q 2538 2584 2113 2584 
z
M 3366 4563 
L 3366 3988 
Q 3128 4100 2886 4159 
Q 2644 4219 2406 4219 
Q 1781 4219 1451 3797 
Q 1122 3375 1075 2522 
Q 1259 2794 1537 2939 
Q 1816 3084 2150 3084 
Q 2853 3084 3261 2657 
Q 3669 2231 3669 1497 
Q 3669 778 3244 343 
Q 2819 -91 2113 -91 
Q 1303 -91 875 529 
Q 447 1150 447 2328 
Q 447 3434 972 4092 
Q 1497 4750 2381 4750 
Q 2619 4750 2861 4703 
Q 3103 4656 3366 4563 
z
" transform="scale(0.015625)"/>
     </defs>
     <use xlink:href="#DejaVuSans-69" transform="translate(0 0.015625)"/>
     <use xlink:href="#DejaVuSans-6e" transform="translate(27.783203 0.015625)"/>
     <use xlink:href="#DejaVuSans-74" transform="translate(91.162109 0.015625)"/>
     <use xlink:href="#DejaVuSans-65" transform="translate(130.371094 0.015625)"/>
     <use xlink:href="#DejaVuSans-72" transform="translate(191.894531 0.015625)"/>
     <use xlink:href="#DejaVuSans-63" transform="translate(233.007812 0.015625)"/>
     <use xlink:href="#DejaVuSans-65" transform="translate(287.988281 0.015625)"/>
     <use xlink:href="#DejaVuSans-70" transform="translate(349.511719 0.015625)"/>
     <use xlink:href="#DejaVuSans-74" transform="translate(412.988281 0.015625)"/>
     <use xlink:href="#DejaVuSans-20" transform="translate(452.197266 0.015625)"/>
     <use xlink:href="#DejaVuSans-3d" transform="translate(503.466797 0.015625)"/>
     <use xlink:href="#DejaVuSans-30" transform="translate(606.738281 0.015625)"/>
     <use xlink:href="#DejaVuSans-2e" transform="translate(670.361328 0.015625)"/>
     <use xlink:href="#DejaVuSans-36" transform="translate(702.148438 0.015625)"/>
     <use xlink:href="#DejaVuSans-32" transform="translate(765.771484 0.015625)"/>
     <use xlink:href="#DejaVuSans-31" transform="translate(829.394531 0.015625)"/>
    </g>
   </g>
   <g id="text_14">
    <!-- Chinchilla-style Scaling Law -->
    <g transform="translate(147.368281 15.558281) scale(0.11 -0.11)">
     <defs>
      <path id="DejaVuSans-Bold-43" d="M 4288 256 
Q 3956 84 3597 -3 
Q 3238 -91 2847 -91 
Q 1681 -91 1000 561 
Q 319 1213 319 2328 
Q 319 3447 1000 4098 
Q 1681 4750 2847 4750 
Q 3238 4750 3597 4662 
Q 3956 4575 4288 4403 
L 4288 3438 
Q 3953 3666 3628 3772 
Q 3303 3878 2944 3878 
Q 2300 3878 1931 3465 
Q 1563 3053 1563 2328 
Q 1563 1606 1931 1193 
Q 2300 781 2944 781 
Q 3303 781 3628 887 
Q 3953 994 4288 1222 
L 4288 256 
z
" transform="scale(0.015625)"/>
      <path id="DejaVuSans-Bold-68" d="M 4056 2131 
L 4056 0 
L 2931 0 
L 2931 347 
L 2931 1625 
Q 2931 2084 2911 2256 
Q 2891 2428 2841 2509 
Q 2775 2619 2662 2680 
Q 2550 2741 2406 2741 
Q 2056 2741 1856 2470 
Q 1656 2200 1656 1722 
L 1656 0 
L 538 0 
L 538 4863 
L 1656 4863 
L 1656 2988 
Q 1909 3294 2193 3439 
Q 2478 3584 2822 3584 
Q 3428 3584 3742 3212 
Q 4056 2841 4056 2131 
z
" transform="scale(0.015625)"/>
      <path id="DejaVuSans-Bold-69" d="M 538 3500 
L 1656 3500 
L 1656 0 
L 538 0 
L 538 3500 
z
M 538 4863 
L 1656 4863 
L 1656 3950 
L 538 3950 
L 538 4863 
z
" transform="scale(0.015625)"/>
      <path id="DejaVuSans-Bold-6e" d="M 4056 2131 
L 4056 0 
L 2931 0 
L 2931 347 
L 2931 1631 
Q 2931 2084 2911 2256 
Q 2891 2428 2841 2509 
Q 2775 2619 2662 2680 
Q 2550 2741 2406 2741 
Q 2056 2741 1856 2470 
Q 1656 2200 1656 1722 
L 1656 0 
L 538 0 
L 538 3500 
L 1656 3500 
L 1656 2988 
Q 1909 3294 2193 3439 
Q 2478 3584 2822 3584 
Q 3428 3584 3742 3212 
Q 4056 2841 4056 2131 
z
" transform="scale(0.015625)"/>
      <path id="DejaVuSans-Bold-63" d="M 3366 3391 
L 3366 2478 
Q 3138 2634 2908 2709 
Q 2678 2784 2431 2784 
Q 1963 2784 1702 2511 
Q 1441 2238 1441 1747 
Q 1441 1256 1702 982 
Q 1963 709 2431 709 
Q 2694 709 2930 787 
Q 3166 866 3366 1019 
L 3366 103 
Q 3103 6 2833 -42 
Q 2563 -91 2291 -91 
Q 1344 -91 809 395 
Q 275 881 275 1747 
Q 275 2613 809 3098 
Q 1344 3584 2291 3584 
Q 2566 3584 2833 3536 
Q 3100 3488 3366 3391 
z
" transform="scale(0.015625)"/>
      <path id="DejaVuSans-Bold-6c" d="M 538 4863 
L 1656 4863 
L 1656 0 
L 538 0 
L 538 4863 
z
" transform="scale(0.015625)"/>
      <path id="DejaVuSans-Bold-61" d="M 2106 1575 
Q 1756 1575 1579 1456 
Q 1403 1338 1403 1106 
Q 1403 894 1545 773 
Q 1688 653 1941 653 
Q 2256 653 2472 879 
Q 2688 1106 2688 1447 
L 2688 1575 
L 2106 1575 
z
M 3816 1997 
L 3816 0 
L 2688 0 
L 2688 519 
Q 2463 200 2181 54 
Q 1900 -91 1497 -91 
Q 953 -91 614 226 
Q 275 544 275 1050 
Q 275 1666 698 1953 
Q 1122 2241 2028 2241 
L 2688 2241 
L 2688 2328 
Q 2688 2594 2478 2717 
Q 2269 2841 1825 2841 
Q 1466 2841 1156 2769 
Q 847 2697 581 2553 
L 581 3406 
Q 941 3494 1303 3539 
Q 1666 3584 2028 3584 
Q 2975 3584 3395 3211 
Q 3816 2838 3816 1997 
z
" transform="scale(0.015625)"/>
      <path id="DejaVuSans-Bold-2d" d="M 347 2297 
L 2309 2297 
L 2309 1388 
L 347 1388 
L 347 2297 
z
" transform="scale(0.015625)"/>
      <path id="DejaVuSans-Bold-73" d="M 3272 3391 
L 3272 2541 
Q 2913 2691 2578 2766 
Q 2244 2841 1947 2841 
Q 1628 2841 1473 2761 
Q 1319 2681 1319 2516 
Q 1319 2381 1436 2309 
Q 1553 2238 1856 2203 
L 2053 2175 
Q 2913 2066 3209 1816 
Q 3506 1566 3506 1031 
Q 3506 472 3093 190 
Q 2681 -91 1863 -91 
Q 1516 -91 1145 -36 
Q 775 19 384 128 
L 384 978 
Q 719 816 1070 734 
Q 1422 653 1784 653 
Q 2113 653 2278 743 
Q 2444 834 2444 1013 
Q 2444 1163 2330 1236 
Q 2216 1309 1875 1350 
L 1678 1375 
Q 931 1469 631 1722 
Q 331 1975 331 2491 
Q 331 3047 712 3315 
Q 1094 3584 1881 3584 
Q 2191 3584 2531 3537 
Q 2872 3491 3272 3391 
z
" transform="scale(0.015625)"/>
      <path id="DejaVuSans-Bold-74" d="M 1759 4494 
L 1759 3500 
L 2913 3500 
L 2913 2700 
L 1759 2700 
L 1759 1216 
Q 1759 972 1856 886 
Q 1953 800 2241 800 
L 2816 800 
L 2816 0 
L 1856 0 
Q 1194 0 917 276 
Q 641 553 641 1216 
L 641 2700 
L 84 2700 
L 84 3500 
L 641 3500 
L 641 4494 
L 1759 4494 
z
" transform="scale(0.015625)"/>
      <path id="DejaVuSans-Bold-79" d="M 78 3500 
L 1197 3500 
L 2138 1125 
L 2938 3500 
L 4056 3500 
L 2584 -331 
Q 2363 -916 2067 -1148 
Q 1772 -1381 1288 -1381 
L 641 -1381 
L 641 -647 
L 991 -647 
Q 1275 -647 1404 -556 
Q 1534 -466 1606 -231 
L 1638 -134 
L 78 3500 
z
" transform="scale(0.015625)"/>
      <path id="DejaVuSans-Bold-65" d="M 4031 1759 
L 4031 1441 
L 1416 1441 
Q 1456 1047 1700 850 
Q 1944 653 2381 653 
Q 2734 653 3104 758 
Q 3475 863 3866 1075 
L 3866 213 
Q 3469 63 3072 -14 
Q 2675 -91 2278 -91 
Q 1328 -91 801 392 
Q 275 875 275 1747 
Q 275 2603 792 3093 
Q 1309 3584 2216 3584 
Q 3041 3584 3536 3087 
Q 4031 2591 4031 1759 
z
M 2881 2131 
Q 2881 2450 2695 2645 
Q 2509 2841 2209 2841 
Q 1884 2841 1681 2658 
Q 1478 2475 1428 2131 
L 2881 2131 
z
" transform="scale(0.015625)"/>
      <path id="DejaVuSans-Bold-20" transform="scale(0.015625)"/>
      <path id="DejaVuSans-Bold-53" d="M 3834 4519 
L 3834 3531 
Q 3450 3703 3084 3790 
Q 2719 3878 2394 3878 
Q 1963 3878 1756 3759 
Q 1550 3641 1550 3391 
Q 1550 3203 1689 3098 
Q 1828 2994 2194 2919 
L 2706 2816 
Q 3484 2659 3812 2340 
Q 4141 2022 4141 1434 
Q 4141 663 3683 286 
Q 3225 -91 2284 -91 
Q 1841 -91 1394 -6 
Q 947 78 500 244 
L 500 1259 
Q 947 1022 1364 901 
Q 1781 781 2169 781 
Q 2563 781 2772 912 
Q 2981 1044 2981 1288 
Q 2981 1506 2839 1625 
Q 2697 1744 2272 1838 
L 1806 1941 
Q 1106 2091 782 2419 
Q 459 2747 459 3303 
Q 459 4000 909 4375 
Q 1359 4750 2203 4750 
Q 2588 4750 2994 4692 
Q 3400 4634 3834 4519 
z
" transform="scale(0.015625)"/>
      <path id="DejaVuSans-Bold-67" d="M 2919 594 
Q 2688 288 2409 144 
Q 2131 0 1766 0 
Q 1125 0 706 504 
Q 288 1009 288 1791 
Q 288 2575 706 3076 
Q 1125 3578 1766 3578 
Q 2131 3578 2409 3434 
Q 2688 3291 2919 2981 
L 2919 3500 
L 4044 3500 
L 4044 353 
Q 4044 -491 3511 -936 
Q 2978 -1381 1966 -1381 
Q 1638 -1381 1331 -1331 
Q 1025 -1281 716 -1178 
L 716 -306 
Q 1009 -475 1290 -558 
Q 1572 -641 1856 -641 
Q 2406 -641 2662 -400 
Q 2919 -159 2919 353 
L 2919 594 
z
M 2181 2772 
Q 1834 2772 1640 2515 
Q 1447 2259 1447 1791 
Q 1447 1309 1634 1061 
Q 1822 813 2181 813 
Q 2531 813 2725 1069 
Q 2919 1325 2919 1791 
Q 2919 2259 2725 2515 
Q 2531 2772 2181 2772 
z
" transform="scale(0.015625)"/>
      <path id="DejaVuSans-Bold-4c" d="M 588 4666 
L 1791 4666 
L 1791 909 
L 3903 909 
L 3903 0 
L 588 0 
L 588 4666 
z
" transform="scale(0.015625)"/>
      <path id="DejaVuSans-Bold-77" d="M 225 3500 
L 1313 3500 
L 1900 1088 
L 2491 3500 
L 3425 3500 
L 4013 1113 
L 4603 3500 
L 5691 3500 
L 4769 0 
L 3547 0 
L 2956 2406 
L 2369 0 
L 1147 0 
L 225 3500 
z
" transform="scale(0.015625)"/>
     </defs>
     <use xlink:href="#DejaVuSans-Bold-43"/>
     <use xlink:href="#DejaVuSans-Bold-68" transform="translate(73.388672 0)"/>
     <use xlink:href="#DejaVuSans-Bold-69" transform="translate(144.580078 0)"/>
     <use xlink:href="#DejaVuSans-Bold-6e" transform="translate(178.857422 0)"/>
     <use xlink:href="#DejaVuSans-Bold-63" transform="translate(250.048828 0)"/>
     <use xlink:href="#DejaVuSans-Bold-68" transform="translate(309.326172 0)"/>
     <use xlink:href="#DejaVuSans-Bold-69" transform="translate(380.517578 0)"/>
     <use xlink:href="#DejaVuSans-Bold-6c" transform="translate(414.794922 0)"/>
     <use xlink:href="#DejaVuSans-Bold-6c" transform="translate(449.072266 0)"/>
     <use xlink:href="#DejaVuSans-Bold-61" transform="translate(483.349609 0)"/>
     <use xlink:href="#DejaVuSans-Bold-2d" transform="translate(550.830078 0)"/>
     <use xlink:href="#DejaVuSans-Bold-73" transform="translate(592.333984 0)"/>
     <use xlink:href="#DejaVuSans-Bold-74" transform="translate(651.855469 0)"/>
     <use xlink:href="#DejaVuSans-Bold-79" transform="translate(699.658203 0)"/>
     <use xlink:href="#DejaVuSans-Bold-6c" transform="translate(764.84375 0)"/>
     <use xlink:href="#DejaVuSans-Bold-65" transform="translate(799.121094 0)"/>
     <use xlink:href="#DejaVuSans-Bold-20" transform="translate(866.943359 0)"/>
     <use xlink:href="#DejaVuSans-Bold-53" transform="translate(901.757812 0)"/>
     <use xlink:href="#DejaVuSans-Bold-63" transform="translate(973.779297 0)"/>
     <use xlink:href="#DejaVuSans-Bold-61" transform="translate(1033.056641 0)"/>
     <use xlink:href="#DejaVuSans-Bold-6c" transform="translate(1100.537109 0)"/>
     <use xlink:href="#DejaVuSans-Bold-69" transform="translate(1134.814453 0)"/>
     <use xlink:href="#DejaVuSans-Bold-6e" transform="translate(1169.091797 0)"/>
     <use xlink:href="#DejaVuSans-Bold-67" transform="translate(1240.283203 0)"/>
     <use xlink:href="#DejaVuSans-Bold-20" transform="translate(1311.865234 0)"/>
     <use xlink:href="#DejaVuSans-Bold-4c" transform="translate(1346.679688 0)"/>
     <use xlink:href="#DejaVuSans-Bold-61" transform="translate(1410.400391 0)"/>
     <use xlink:href="#DejaVuSans-Bold-77" transform="translate(1477.880859 0)"/>
    </g>
   </g>
   <g id="PathCollection_2">
    <defs>
     <path id="m71adfe0a85" d="M 0 4.472136 
C 1.186024 4.472136 2.323632 4.000923 3.162278 3.162278 
C 4.000923 2.323632 4.472136 1.186024 4.472136 0 
C 4.472136 -1.186024 4.000923 -2.323632 3.162278 -3.162278 
C 2.323632 -4.000923 1.186024 -4.472136 0 -4.472136 
C -1.186024 -4.472136 -2.323632 -4.000923 -3.162278 -3.162278 
C -4.000923 -2.323632 -4.472136 -1.186024 -4.472136 0 
C -4.472136 1.186024 -4.000923 2.323632 -3.162278 3.162278 
C -2.323632 4.000923 -1.186024 4.472136 0 4.472136 
z
" style="stroke: #000000; stroke-width: 0.8"/>
    </defs>
    <g clip-path="url(#pbf9c9c7069)">
     <use xlink:href="#m71adfe0a85" x="228.996244" y="135.151957" style="fill: #e8a838; stroke: #000000; stroke-width: 0.8"/>
    </g>
   </g>
   <g id="legend_1">
    <g id="patch_9">
     <path d="M 56.09375 273.908281 
L 197.87375 273.908281 
Q 199.57375 273.908281 199.57375 272.208281 
L 199.57375 235.611797 
Q 199.57375 233.911797 197.87375 233.911797 
L 56.09375 233.911797 
Q 54.39375 233.911797 54.39375 235.611797 
L 54.39375 272.208281 
Q 54.39375 273.908281 56.09375 273.908281 
z
" style="fill: #ffffff; opacity: 0.85; stroke: #cccccc; stroke-linejoin: miter"/>
    </g>
    <g id="PathCollection_3">
     <path d="M 66.29375 243.884427 
C 66.915706 243.884427 67.512273 243.637321 67.952062 243.197531 
C 68.391852 242.757742 68.638958 242.161175 68.638958 241.539219 
C 68.638958 240.917262 68.391852 240.320696 67.952062 239.880906 
C 67.512273 239.441117 66.915706 239.194011 66.29375 239.194011 
C 65.671794 239.194011 65.075227 239.441117 64.635438 239.880906 
C 64.195648 240.320696 63.948542 240.917262 63.948542 241.539219 
C 63.948542 242.161175 64.195648 242.757742 64.635438 243.197531 
C 65.075227 243.637321 65.671794 243.884427 66.29375 243.884427 
z
" style="fill: #4878cf; fill-opacity: 0.6"/>
    </g>
    <g id="text_15">
     <!-- Models -->
     <g transform="translate(81.59375 243.770469) scale(0.085 -0.085)">
      <use xlink:href="#DejaVuSans-4d"/>
      <use xlink:href="#DejaVuSans-6f" transform="translate(86.279297 0)"/>
      <use xlink:href="#DejaVuSans-64" transform="translate(147.460938 0)"/>
      <use xlink:href="#DejaVuSans-65" transform="translate(210.9375 0)"/>
      <use xlink:href="#DejaVuSans-6c" transform="translate(272.460938 0)"/>
      <use xlink:href="#DejaVuSans-73" transform="translate(300.244141 0)"/>
     </g>
    </g>
    <g id="line2d_20">
     <path d="M 57.79375 253.271875 
L 66.29375 253.271875 
L 74.79375 253.271875 
" style="fill: none; stroke: #d65f5f; stroke-width: 1.8; stroke-linecap: square"/>
    </g>
    <g id="text_16">
     <!-- OLS: $y = -0.0449x + 0.621$ -->
     <g transform="translate(81.59375 256.246875) scale(0.085 -0.085)">
      <defs>
       <path id="DejaVuSans-4c" d="M 628 4666 
L 1259 4666 
L 1259 531 
L 3531 531 
L 3531 0 
L 628 0 
L 628 4666 
z
" transform="scale(0.015625)"/>
       <path id="DejaVuSans-53" d="M 3425 4513 
L 3425 3897 
Q 3066 4069 2747 4153 
Q 2428 4238 2131 4238 
Q 1616 4238 1336 4038 
Q 1056 3838 1056 3469 
Q 1056 3159 1242 3001 
Q 1428 2844 1947 2747 
L 2328 2669 
Q 3034 2534 3370 2195 
Q 3706 1856 3706 1288 
Q 3706 609 3251 259 
Q 2797 -91 1919 -91 
Q 1588 -91 1214 -16 
Q 841 59 441 206 
L 441 856 
Q 825 641 1194 531 
Q 1563 422 1919 422 
Q 2459 422 2753 634 
Q 3047 847 3047 1241 
Q 3047 1584 2836 1778 
Q 2625 1972 2144 2069 
L 1759 2144 
Q 1053 2284 737 2584 
Q 422 2884 422 3419 
Q 422 4038 858 4394 
Q 1294 4750 2059 4750 
Q 2388 4750 2728 4690 
Q 3069 4631 3425 4513 
z
" transform="scale(0.015625)"/>
       <path id="DejaVuSans-3a" d="M 750 794 
L 1409 794 
L 1409 0 
L 750 0 
L 750 794 
z
M 750 3309 
L 1409 3309 
L 1409 2516 
L 750 2516 
L 750 3309 
z
" transform="scale(0.015625)"/>
       <path id="DejaVuSans-Oblique-79" d="M 1588 -325 
Q 1188 -997 936 -1164 
Q 684 -1331 294 -1331 
L -159 -1331 
L -63 -850 
L 269 -850 
Q 509 -850 678 -719 
Q 847 -588 1056 -206 
L 1234 128 
L 459 3500 
L 1069 3500 
L 1650 819 
L 3256 3500 
L 3859 3500 
L 1588 -325 
z
" transform="scale(0.015625)"/>
       <path id="DejaVuSans-Oblique-78" d="M 3841 3500 
L 2234 1784 
L 3219 0 
L 2559 0 
L 1819 1388 
L 531 0 
L -166 0 
L 1556 1844 
L 641 3500 
L 1300 3500 
L 1972 2234 
L 3144 3500 
L 3841 3500 
z
" transform="scale(0.015625)"/>
       <path id="DejaVuSans-2b" d="M 2944 4013 
L 2944 2272 
L 4684 2272 
L 4684 1741 
L 2944 1741 
L 2944 0 
L 2419 0 
L 2419 1741 
L 678 1741 
L 678 2272 
L 2419 2272 
L 2419 4013 
L 2944 4013 
z
" transform="scale(0.015625)"/>
      </defs>
      <use xlink:href="#DejaVuSans-4f" transform="translate(0 0.78125)"/>
      <use xlink:href="#DejaVuSans-4c" transform="translate(78.710938 0.78125)"/>
      <use xlink:href="#DejaVuSans-53" transform="translate(134.423828 0.78125)"/>
      <use xlink:href="#DejaVuSans-3a" transform="translate(197.900391 0.78125)"/>
      <use xlink:href="#DejaVuSans-20" transform="translate(231.591797 0.78125)"/>
      <use xlink:href="#DejaVuSans-Oblique-79" transform="translate(263.378906 0.78125)"/>
      <use xlink:href="#DejaVuSans-3d" transform="translate(342.041016 0.78125)"/>
      <use xlink:href="#DejaVuSans-2212" transform="translate(445.3125 0.78125)"/>
      <use xlink:href="#DejaVuSans-30" transform="translate(529.101562 0.78125)"/>
      <use xlink:href="#DejaVuSans-2e" transform="translate(592.724609 0.78125)"/>
      <use xlink:href="#DejaVuSans-30" transform="translate(624.511719 0.78125)"/>
      <use xlink:href="#DejaVuSans-34" transform="translate(688.134766 0.78125)"/>
      <use xlink:href="#DejaVuSans-34" transform="translate(751.757812 0.78125)"/>
      <use xlink:href="#DejaVuSans-39" transform="translate(815.380859 0.78125)"/>
      <use xlink:href="#DejaVuSans-Oblique-78" transform="translate(879.003906 0.78125)"/>
      <use xlink:href="#DejaVuSans-2b" transform="translate(957.666016 0.78125)"/>
      <use xlink:href="#DejaVuSans-30" transform="translate(1060.9375 0.78125)"/>
      <use xlink:href="#DejaVuSans-2e" transform="translate(1124.560547 0.78125)"/>
      <use xlink:href="#DejaVuSans-36" transform="translate(1156.347656 0.78125)"/>
      <use xlink:href="#DejaVuSans-32" transform="translate(1219.970703 0.78125)"/>
      <use xlink:href="#DejaVuSans-31" transform="translate(1283.59375 0.78125)"/>
     </g>
    </g>
    <g id="PathCollection_4">
     <g>
      <use xlink:href="#m71adfe0a85" x="66.29375" y="266.509297" style="fill: #e8a838; stroke: #000000; stroke-width: 0.8"/>
     </g>
    </g>
    <g id="text_17">
     <!-- OursModel -->
     <g transform="translate(81.59375 268.740547) scale(0.085 -0.085)">
      <use xlink:href="#DejaVuSans-4f"/>
      <use xlink:href="#DejaVuSans-75" transform="translate(78.710938 0)"/>
      <use xlink:href="#DejaVuSans-72" transform="translate(142.089844 0)"/>
      <use xlink:href="#DejaVuSans-73" transform="translate(183.203125 0)"/>
      <use xlink:href="#DejaVuSans-4d" transform="translate(235.302734 0)"/>
      <use xlink:href="#DejaVuSans-6f" transform="translate(321.582031 0)"/>
      <use xlink:href="#DejaVuSans-64" transform="translate(382.763672 0)"/>
      <use xlink:href="#DejaVuSans-65" transform="translate(446.240234 0)"/>
      <use xlink:href="#DejaVuSans-6c" transform="translate(507.763672 0)"/>
     </g>
    </g>
   </g>
  </g>
 </g>
 <defs>
  <clipPath id="pbf9c9c7069">
   <rect x="50.14375" y="21.558281" width="367.18" height="256.6"/>
  </clipPath>
 </defs>
</svg>
